<?xml version="1.0" encoding="UTF-8"?>
<svg id="b" data-name="Layer 2" xmlns="http://www.w3.org/2000/svg" viewBox="0 0 240.3844976 332.5620117">
  <defs>
    <style>
      .h, .i, .j {
        fill-rule: evenodd;
      }

      .h, .k {
        fill: #141212;
      }

      .i {
        fill: #e21b22;
      }

      .j {
        fill: #af1223;
      }
    </style>
  </defs>
  <g id="c" data-name="Layer 2">
    <path class="j" d="M0,0h240.3844976v193.5500031c0,37.5460052-16.8432593,69.8040009-42.8394108,94.8560028-20.4038373,19.697998-48.6865172,36.6210022-75.8268865,43.6940002l-1.5240368.4620056-1.5269199-.4620056c-27.1403693-7.072998-55.4249712-23.9960022-75.8268865-43.6940002C16.8442222,263.3540039,0,231.095993,0,193.5500031V0Z"/>
    <path class="i" d="M120.1941708,6.6110001h113.8345601v186.939003c0,75.0919952-70.9316933,120.9680023-113.8345601,132.1399994-42.9047888-11.1719971-113.8384046-57.0480042-113.8384046-132.1399994V6.6110001h113.8384046Z"/>
    <path class="h" d="M87.3190899,36.6273409c-3.144266-.1240348-8.5425601.8701219-8.4071072,3.1685276-8.9520034-1.3662611-9.7740058,1.9873778-9.3645547,4.8439347.9574475-1.1172523,1.9148871-1.7393082,2.7358561-1.863343,1.1601023-.2480696,2.5290598.1249739,3.7584387.8701219,1.2293789.7460871,2.597303,1.863343,3.2807444,2.5464717-3.1432326.7460871-5.6040492.2499479-8.1320756-.1240348-1.2293789-.186054-2.8713012-.8071671-3.8277153-1.4292194-1.0939259-.7451479-1.3658573-1.2412871-2.8702678-2.7315866-1.9820969-1.7402473-4.0324369-1.243169-3.3479542,1.3653219,1.3658573,2.6084909,3.8959505,3.6646668,6.9027046,4.1617451,1.3658573.2499479,3.5547505.7460871,6.0827769.7460871,2.4608166,0,5.1935726-.3721044,6.6990085-.1249739-.9574475.4961392-1.9148871,1.4912386-3.9641937,1.7393082-2.0493066.3730435-5.2628413-1.1172523-7.0402165-1.4902959.1375197,1.4902959,2.1868185,2.8574997,6.2192553,3.4776737,6.6307732,1.3662611,11.9608243,2.4224369,15.58381,4.1626843,3.5537092,1.7393082,5.8780474,3.974752,7.5861461,5.7149958,3.144266,3.4165972,3.2807444,6.1491193,3.5547505,6.6452585.546963,5.652041-1.5044104,8.6335791-5.535806,9.6906941-1.9138537.4961392-5.330051-.3730471-6.6979751-1.8022629-1.2986475-1.3662647-2.5290598-3.726686-2.256095-7.515384.4094511-1.3653255,2.256095-5.0938826.6834493-5.8380914-7.1084597-3.6656059-15.789565-7.2682535-22.1453067-9.4416817-1.6398555-.6211131-3.0067462,1.5523151-3.6219524,2.2965239-10.7314454-1.1172523-20.3679315-7.6394188-24.6050939-14.6577209-2.9395404-4.7828583-7.8601482,0-7.0402204,4.4718303,1.3668907,5.0309279,5.4675708,8.6955911,10.5939336,11.1800472,5.2628452,2.6084909,11.6868261,5.0938862,18.1790462,4.9698478,3.6229857.6831287,3.4865073,4.7828547-.6824159,5.5270706-8.2695954.1259167-14.8993313-.1240384-21.1878632-5.5270706-4.7158822-3.9756911-7.3131852.806228-5.9462906,3.4165972,2.1878558,8.1364936,15.1733295,10.3719445,28.0905599,7.7634536,4.9888431-.7451479,1.9148871,4.0997259.5479964,4.2237643-5.3310844,3.5406284-15.1743628,7.0192448-23.7179564-.1240384-3.8266779-2.6084909-6.4239809-.3730471-5.0570862,3.5406284,3.8266779,10.2488453,18.3175954,8.1365007,28.2270463,3.1065084,2.5983364-1.3672038,4.9888431,1.6152734,1.7784086,4.0367676-12.3713048,7.8893631-18.5905602,7.8893631-24.0591604,4.8448739-7.0412538-2.4853917-7.5861461,4.6588235-3.4865073,6.8942673,4.5804332,2.6714493,16.4037378.6220559,24.9483647-4.2237643,3.6901955-2.5464717,3.826674,1.3672038,1.5023437,2.8574997-10.183449,8.1374327-14.1476427,10.1248141-24.9462979,8.8825878-5.194606-.3730471-5.194606,5.5280098-.9574435,7.888424,5.6722924,3.1675885,16.6777399-2.1104735,25.3557451-8.6335791,3.6229857-1.7402438,4.1699487,1.1172559,2.3243382,4.6578843-5.1935726,5.9630689-10.1844824,9.5036973-14.8310921,11.1180316-4.8523646,1.7402509-9.3645547,1.3672038-12.5760304.3730471-3.9631603-1.1172487-4.5111567,2.5464789-2.3233048,5.9001178,1.3668907,2.1123517,6.7651849,2.7325293,12.6442696.8701183,5.9473239-1.863343,12.3020283-6.3981353,16.5402202-11.4910787,3.7594721-3.0435501,3.3479542.9941567,1.7080987,3.726686-8.6811093,12.5472474-16.6767026,17.1431197-27.202393,16.3979718-4.6476391-.7451479-5.6040492,2.4844525-2.7337854,5.5280026,5.2628452,3.9747484,11.6868261,3.8516563,17.3591145,0,5.1253294-4.4098076,14.7628489-14.0366113,19.8209685-19.0694211,3.4865073-2.6084909,4.7169117-.1240384,3.6229857,5.1559018-.9574475,2.9815381-3.3489876,6.2731506-9.7740058,8.5095407-4.4418801,2.3604142-1.0939259,5.5280026,2.1868185,5.5280026,1.7773752.1249704,5.5358139-1.863343,8.4071072-4.7819227,3.6901955-3.8516563,3.9641937-6.3990672,6.0827769-12.361197,1.9148871-2.9185797,5.3310844-1.5523079,5.3310844,1.4912422-1.6398555,6.0250881-3.144266,7.0192448-6.4922201,9.5036973-3.144266,2.7325293,2.256095,3.6637277,4.1689153,2.4844525,5.2628491-3.2305468,7.3121479-7.516316,9.0905565-11.3670403,1.2293789-2.7325293,4.9878097-1.3662575,3.1432326,3.1055621-4.10068,10.9319812-10.8668983,15.1566847-22.6912363,17.3301164-1.2293789.2480768-1.9138537.8691863-1.5033771,2.1114054,1.5033771,1.4912422,3.144266,2.8574997,4.647643,4.3477955-7.3131813,2.0512717-13.1912365,3.0435501-20.6408963,5.0318634-3.6229897-2.1123517-6.4942869-4.0386531-10.0469667-6.1510048-1.0256867-1.9864351-1.5726497-5.0929435-6.7672556-2.8565534-3.6219524-1.6152662-5.400361-.9941567-7.3121479.4961392,2.8692344.1249704,4.1006761.7460942,5.2628452,1.9883134,1.5023397,3.5415676,4.9216372,3.9136684,8.4060778,2.9185797,2.3233048,1.7402509,3.5547465,3.1074547,5.7426023,4.8439347-4.2381919-.1240384-7.1767028-.2480768-11.4148947-.3721008-4.0313995-3.8497781-7.3131813-3.7248077-10.183449-.6201776-2.256095.2490087-3.2125052.3721008-4.5804332,2.7325293,2.3243382-.8691863,3.8959545-1.1163168,4.8523646-.1240384,4.2371585,2.2974702,7.1767028,1.801331,9.2270389,0,4.1017095.2480768,7.8611816.3721008,11.9608243.6201776-1.5033731,1.1811534-3.5547465,1.8022629-5.0581236,3.0454284-6.2202887-1.6162125-9.5000037.4951929-10.6632062,5.0929435-.8188944,1.925355-1.2293749,3.9108581-.8188944,5.7751331.5459296-1.7383726,1.5033731-3.3536389,3.3489876-4.2247035,5.6040532,1.2431654,7.7236658-.8691863,7.9966306-3.9117901,2.597303-1.9873814,6.6979791-2.3604142,9.3635213-4.3477955,3.144262.8691863,4.6476391,1.4912422,7.8601482,2.3604142,1.0939259,2.9805917,3.5547505,4.2237572,7.6543892,3.4767309,4.8523646.1249704,4.0324369,2.0503397,4.4429135,3.4184755,1.2304123-2.1743638,1.2304123-4.1626771-1.7773752-6.0260201-1.0949593-2.6084909-3.4854739-3.9117901-6.6297399-2.3604142-3.0067462-.7451479-3.826674-1.9263013-6.9027046-2.6714493,7.5871794-2.1114054,12.986507-2.6075446,20.5716276-4.8439347,1.9138537,1.6152662,3.2807444,2.8565534,5.1935726,4.2237572,1.0949593.4961392,1.9148871.7451479,2.5983364,0,4.7169117-6.0880465,6.7662183-11.6151171,11.2091318-15.7777942,1.6398555-1.7383726,3.826674-3.9738164,6.1499788-4.4718339,1.1621691-.3721008,2.6665795-.1249704,3.6229857.7451479.8209611.8701183,1.6408889,2.6084909,1.2304123,5.0929435-.4094511,3.6646596-1.3668907,4.7828547-2.46185,6.8952064-1.0928925,2.1753101-2.5280264,3.5406356-3.8959505,5.1559018-2.7337814,3.2296005-6.423977,5.2789939-8.680072,6.5221593-4.2381919,2.6075446-6.1510122,1.4893639-9.5000076,1.2403552-4.3726114.4961392-5.6040492,2.3604142-2.0493066,5.1549698,3.4172307,1.4912422,6.3547083,1.7402509,8.8155249,1.3672038,2.05034-.3721008,4.5804332-2.9185797,6.3557417-4.1626771,1.9148871-2.1114054,5.194606.3721008,3.0077796,2.7954876-4.1017134,4.3487419-8.1341424,7.2691999-13.0537168,7.0803249-5.2638825.6850142-4.306435,3.4184755-.8881709,4.6588163,6.3547004,2.3632388,12.0280341-1.9855031,14.7618155-4.9068931,2.1868185-2.2363901,3.8959505-2.3604142,3.4854739,1.1811534-2.256095,6.0880465-5.2628491,8.510487-10.1152059,8.7585494-3.9641937-.2490087-3.9641937,2.4844525-1.0939259,4.3477955,6.6307732,4.1607988,11.4820966-2.858446,13.6699563-7.2682535,1.5033771-3.7257397,3.9641937-1.9855031,4.2381919,1.3051918,0,4.2247035-2.0493066,7.6394224-7.7246992,11.9881499,4.3074684,6.2740969,9.3655881,12.7962562,13.6709897,19.0064627,4.441888-6.2092603,9.5000076-12.7323659,13.8064348-19.0064627-5.671259-4.3487419-7.7236658-7.7634464-7.7236658-11.9881499.2739982-3.2906805,2.7348227-5.0309315,4.2392332-1.3051918,2.1847596,4.4098076,7.0381576,11.4290524,13.668923,7.2682535,2.8702678-1.863343,2.8702678-4.5968043-1.0949672-4.3477955-4.85029-.2490087-7.8601521-2.670503-10.0448959-8.7585494-.4807866-3.5415676,1.0929004-3.4175292,3.279711-1.1811534,2.8702678,2.920458,8.5425523,7.2691999,14.9003607,4.9068931,3.4161973-1.2403552,4.3726114-3.9738164-.8902298-4.6588306-4.9216333.188875-8.9520113-2.731583-13.0537168-7.0803249-2.1878519-2.4224405,1.0949672-4.9068931,3.0067541-2.7954876,1.7773673,1.2431654,4.1699566,3.7896443,6.3567672,4.1626771,2.3243382.3721008,5.3993276.1240384,8.6790386-1.3672038,3.555776-2.7954876,2.4608245-4.6588163-1.9138537-5.1549698-3.3479621.2490087-5.2628413,1.3672038-9.4989664-1.2403552-2.1878519-1.2431654-5.9483652-3.2935051-8.6811054-6.5221593-1.3658573-1.6162125-2.8020325-2.9805917-3.8949171-5.1559018-1.0959927-2.1123517-2.0513655-3.2305468-2.4608245-6.8952064-.4094432-2.4844525.4094432-4.2228252,1.2283455-5.0929435.9584809-.8701183,2.3243382-1.1172487,3.624027-.7451479,2.3232969.4970855,4.3726114,2.7334613,6.1499788,4.4718339,4.3064272,4.1626771,6.4932535,9.6906941,11.2101652,15.7777942.5459296.7451479,1.5023437.4961392,2.5972951,0,1.7763418-1.3672038,3.2807523-2.6084909,5.194606-4.2237572,7.5861539,2.2363901,12.986507,2.7325293,20.4361746,4.8439347-2.9385031.7451479-3.7604976,1.9263013-6.7672517,2.6714493-3.1432247-1.5513759-5.5358139-.2490087-6.6307654,2.3604142-3.0067541,1.863343-3.1432247,3.8516563-1.7753006,6.0260201.4094432-1.3681358-.4094432-3.2935051,4.4408467-3.4184755,4.1017055.7470262,6.5625301-.4961392,7.7236658-3.4767309,3.1453072-.8691863,4.6476351-1.4912422,7.7929423-2.3604142,2.6655462,1.9873814,6.6286986,2.3604142,9.3624958,4.3477955.2739982,3.0426181,2.391548,5.1549698,7.8601521,3.9117901,1.8466439.8710646,2.8020325,2.4863308,3.4875407,4.2247035.2729727-1.864275,0-3.8507244-.8219945-5.7751331-1.0929004-4.5977506-4.4408467-6.709156-10.6621688-5.0929435-1.5023437-1.2431654-3.6891542-1.864275-5.1935647-3.0454284,4.2381919-.2480768,7.9955972-.3721008,12.0973027-.6201776,2.1196166,1.801331,4.9898844,2.2974702,9.2260095,0,.9584809-.9932247,2.5280343-.7451479,4.8523567.1240384-1.5023437-2.3604142-2.3243382-2.4844525-4.5773331-2.7325293-2.8723346-3.1046301-6.1530868-3.2296005-10.1844903.6201776-4.2381919.1249704-7.1766949.2490087-11.4148868.3721008,2.1868264-1.7374263,3.4161973-3.1046301,5.7405355-4.8439347,3.4875407.995103,6.903738.6220559,8.4763838-2.9185797,1.0929004-1.2422334,2.3243382-1.863343,5.1935647-1.9883134-2.05034-1.4902959-3.6912368-2.1114054-7.3131813-.4961392-5.330051-2.2363901-5.8087708.8701183-6.7672517,2.8565534-3.5537092,2.1123517-6.4229515,4.0386531-10.0469627,6.1510048-7.4506931-1.9883134-13.327715-2.9815381-20.7773826-5.0318634,1.6408968-1.4902959,3.279711-2.8565534,4.7841215-4.3477955.4094432-1.2422334-.2729727-1.863343-1.5044104-2.1114054-11.8233045-2.1734318-18.7260013-6.3990672-22.8277226-17.3301164-1.7070653-4.4718339,2.05034-5.8380914,3.2817778-3.1055621,1.7763418,3.8507244,3.6901955,8.1364936,9.0895231,11.3670403,1.914895,1.1802071,7.3131813.2490087,4.1699566-2.4844525-3.4854739-2.4853989-4.8523567-3.4786092-6.4942948-9.5036973,0-3.0435501,3.4193054-4.4098076,5.3310923-1.4912422,2.1185753,5.9630618,2.391548,8.510487,6.0838103,12.361197,2.8702678,2.9176334,6.6286986,4.9068931,8.4071072,4.7819227,3.3479621,0,6.6297399-3.1675885,2.1868264-5.5280026-6.4260437-2.2363901-8.8155249-5.5280026-9.7740058-8.5095407-1.0929004-5.2799402,0-7.765339,3.624027-5.1559018,5.0581196,5.0318634,14.6925468,14.6595992,19.8189017,19.0694211,5.606116,3.8516563,12.098344,3.9747484,17.360144,0,2.8702678-3.0435501,1.914895-6.2731506-2.7337814-5.5280026-10.5256983.7451479-18.5212797-3.8516563-27.1341498-16.3979718-1.7070653-2.7325221-2.2540204-6.7702361,1.6408968-3.726686,4.2392332,5.0929435,10.5928923,9.6267894,16.4730222,11.4910787,5.9462984,1.8623967,11.3456103,1.2422334,12.7135501-.8701183,2.047232-3.3536389,1.63883-7.0182985-2.3243382-5.9001178-3.2135425.9941567-7.7236658,1.3662575-12.5760225-.3730471-4.7851627-1.6143343-9.6375195-5.1549627-14.9686118-11.1180316-1.8466439-3.5406284-1.1632025-6.3981281,2.4608245-4.6578843,8.6790386,6.5221665,19.6844822,11.8011603,25.3557412,8.6335791,4.2371664-2.3604213,4.2371664-8.2614711-.9584809-7.8884311-10.7976139,1.2422263-14.7607821-.7451479-24.9442311-8.8825878-2.3243382-1.4902959-2.1878519-5.4039714,1.5013024-2.8574997,8.5456603,4.845813,20.3679394,6.8952064,24.9473392,4.2237643,4.1027468-2.2354438,3.5537092-9.378727-3.4844326-6.8942673-5.4696296,3.0435501-11.6889008,3.0435501-24.0602017-4.8448739-3.2114757-2.4215014-.8189023-5.4039714,1.7784086-4.0367676,9.9104921,5.0309315,24.3993271,7.143276,28.2270502-3.1065084,1.3658573-3.9136755-1.2304123-6.1491193-5.1253294-3.5406284-8.5435935,7.143276-18.3175993,3.6637277-23.6476504.1240384-1.5044104-.1240384-4.4439548-4.9689123.5459296-4.2237643,12.9172305,2.6084909,25.7662257.3730471,28.0905639-7.7634536,1.3658573-2.6094301-1.2314378-7.3922883-6.0848358-3.4165972-6.1499788,5.4030323-12.7807599,5.6529801-21.049314,5.5270635-4.2371664-.7442088-4.2371664-4.8439347-.6834414-5.5270706,6.4942948.1240384,12.9172305-2.3613605,18.1800875-4.9698514,5.1263707-2.4853953,9.2280762-6.1491193,10.5939336-11.1800472.8219945-4.4718303-4.0996388-9.2546886-7.0412499-4.4718303-4.3726114,7.0183057-13.8736446,13.5395294-24.6030232,14.6577209-.6152061-.7442088-1.9831302-2.917637-3.7604976-2.2965239-6.2192553,2.1734282-14.8982939,5.7751367-22.0067536,9.4416853-1.5726457.7442088.2739982,4.4727731.5459296,5.8380914.4094432,3.788698-.8189023,6.1491193-2.1196166,7.515384-1.3648318,1.429223-4.7841215,2.2984021-6.8344615,1.8022629-3.8949171-1.0561759-6.082769-4.0386459-5.4003689-9.6906941.2739982-.4961392.4094432-3.2296005,3.555776-6.6452585,1.706024-1.7402473,4.0303622-3.9756911,7.5861539-5.7149993,3.6219602-1.7402473,8.9520113-2.7964232,15.5827766-4.1626843,3.9631524-.620174,5.9452572-1.9873778,6.2192553-3.4776737-1.914895.3721044-4.9898844,1.863343-7.0381576,1.4902959-2.05034-.2480696-3.0098464-1.2422263-3.965235-1.7393082,1.5044104-.2480696,4.2381919.1249739,6.6990164.1249739,2.5290598,0,4.5773331-.4961392,6.082769-.7460871,3.0057128-.4961392,5.3993276-1.5523151,6.903738-4.1617451.5459296-2.6084909-1.3679241-3.1055693-3.3510543-1.3653219-1.5013024,1.4902959-1.9117869,1.9864351-2.8692265,2.7315866-.9564141.6211131-2.7348227,1.2422263-3.8266819,1.4292194-2.5280343.3730435-4.9888431.8701219-8.1320835.1240348.6824159-.6831323,2.0482732-1.8003847,3.279711-2.5464717,1.2283455-.7451479,2.4608245-1.1172523,3.6891542-.8701219.8902298.1249739,1.8466439.7460871,2.6655462,1.863343.5490376-2.8565605-.2729727-6.2101994-9.2249682-4.8439347.1364863-2.2984021-5.2628413-3.2925624-8.409174-3.1685276-1.7753006,0-5.5358139.9950958-8.2695954,2.1743673-4.1668485,1.1172523-8.4060817,1.9873778-13.3949248,2.2363865,2.9385031,2.2354474,3.4844326,2.3604213,6.3547004,4.2228216-4.3726114,1.4292194-7.7236658,4.4098147-9.2260095,6.2740933,3.6891542.2480696,5.1263707-.1240348,6.3547004.3721044-5.3993276,1.3662611-7.7236658,2.297463-10.4564217,4.7828583.9584809.2480696,2.4608245.3730435,3.0067541.6211131.6844827.2490087.41151.4961392,0,.9941567-1.229371.6211131-5.9452572,5.6529837-7.3121479,6.7711716-1.3668907-1.1181951-5.9462906-6.1500585-7.1767028-6.7711752-.4094511-.4970783-.6824159-.7451479,0-.9941567.546963-.2480696,2.05034-.3730435,3.0770562-.6211131-2.803058-2.4853953-5.2628413-3.4165972-10.5256904-4.7828583,1.2283455-.4961392,2.5280264-.1249739,6.3547083-.3721044-1.5033771-1.863343-4.8513312-4.8448775-9.227035-6.2740933,2.8713012-1.8624003,3.4182641-1.9873778,6.3557417-4.2228216-4.9888431-.2490087-9.2260095-1.1181915-13.3959582-2.2363865-2.7255774-1.1801712-6.486075-2.1743315-8.2634502-2.1743315h0ZM87.7295665,41.7832427h0c2.6655462,0,4.3054017.8691827,4.3054017,1.8624003s-1.6398555,1.7402473-4.3054017,1.7402473c-2.4597833,0-4.1017134-.8701219-4.1017134-1.863343s1.6419302-1.7393046,4.1017134-1.7393046h0ZM152.522531,41.7832427h0c-2.5280343,0-4.1668485.8691827-4.1668485,1.8624003s1.63883,1.7402473,4.1668485,1.7402473c2.5972951,0,4.2392332-.8701219,4.2392332-1.863343s-1.6429636-1.7393046-4.2392332-1.7393046h0Z"/>
    <g>
      <path id="d" data-name="path3013" class="k" d="M103.3450211,266.5500494c-5.2975477,0-10.633481-1.8426289-14.8177775-5.5854651l4.5297842-5.4510987c3.147825,2.5911994,6.4491928,4.2418833,10.4223514,4.2418833,3.147825,0,5.0480241-1.2476176,5.0480241-3.2821749v-.0959808c0-1.9577859-1.1900308-2.95588-7.0250112-4.4530046-7.044204-1.7850338-11.5931894-3.7428363-11.5931894-10.6718832v-.0959642c0-6.3340357,5.1056109-10.5375168,12.2265863-10.5375168,5.0864098,0,9.4434585,1.5931053,12.9751569,4.4338118l-3.9923598,5.796603c-3.0902382-2.1497309-6.1420824-3.4357342-9.0787696-3.4357342s-4.4913986,1.3435818-4.4913986,3.0326514v.0959808c0,2.3032902,1.4971329,3.0518442,7.5432511,4.6065639,7.0825897,1.8426289,11.0749495,4.3762332,11.0749495,10.4799217v.0959808c0,6.929047-5.2975559,10.825426-12.8216059,10.825426"/>
      <path id="e" data-name="path3015" class="k" d="M143.4605143,266.0510188v-14.0308295h-14.1843723v14.0308295h-7.677601v-34.9331109h7.677601v13.8196917h14.1843723v-13.8196917h7.677601v34.9331109"/>
      <path id="f" data-name="path3017" class="k" d="M80.5514779,246.0316414h-16.5260482v-7.4280775h17.3322055l.7677551-6.9866255h-25.7775617v34.9331109h7.677601v-13.5317825h15.7582848"/>
      <path id="g" data-name="path3019" class="k" d="M182.4627564,245.5326109h-16.5068553v-7.4280775h17.3130044l.7677634-6.9866255h-25.7583688v34.9331109h7.677601v-13.5317825h15.7582848"/>
    </g>
  </g>
</svg>