<?xml version="1.0" encoding="UTF-8" standalone="no"?>
<svg
   xmlns:dc="http://purl.org/dc/elements/1.1/"
   xmlns:cc="http://creativecommons.org/ns#"
   xmlns:rdf="http://www.w3.org/1999/02/22-rdf-syntax-ns#"
   xmlns:svg="http://www.w3.org/2000/svg"
   xmlns="http://www.w3.org/2000/svg"
   xmlns:sodipodi="http://sodipodi.sourceforge.net/DTD/sodipodi-0.dtd"
   xmlns:inkscape="http://www.inkscape.org/namespaces/inkscape"
   width="74.891273mm"
   height="93.397919mm"
   viewBox="0 0 283.05363 353.00001"
   version="1.1"
   id="svg162454"
   inkscape:version="1.0.1 (3bc2e813f5, 2020-09-07)"
   sodipodi:docname="Angolan FA logo.svg">
  <defs
     id="defs162448" />
  <sodipodi:namedview
     id="base"
     pagecolor="#ffffff"
     bordercolor="#666666"
     borderopacity="1.0"
     inkscape:pageopacity="0.0"
     inkscape:pageshadow="2"
     inkscape:zoom="0.35"
     inkscape:cx="179.38397"
     inkscape:cy="165.07143"
     inkscape:document-units="px"
     inkscape:current-layer="layer1"
     inkscape:document-rotation="0"
     showgrid="false"
     inkscape:window-width="1267"
     inkscape:window-height="728"
     inkscape:window-x="83"
     inkscape:window-y="0"
     inkscape:window-maximized="0" />
  <metadata
     id="metadata162451">
    <rdf:RDF>
      <cc:Work
         rdf:about="">
        <dc:format>image/svg+xml</dc:format>
        <dc:type
           rdf:resource="http://purl.org/dc/dcmitype/StillImage" />
        <dc:title></dc:title>
      </cc:Work>
    </rdf:RDF>
  </metadata>
  <g
     inkscape:label="Layer 1"
     inkscape:groupmode="layer"
     id="layer1"
     transform="translate(-195.61603,-354.92857)">
    <g
       id="g162589">
      <path
         style="clip-rule:nonzero;fill:#e30511;fill-opacity:1;fill-rule:nonzero;stroke:#e30511;stroke-width:1.78532;stroke-linecap:butt;stroke-linejoin:miter;stroke-miterlimit:9.567;stroke-opacity:1"
         d="m 336.74125,707.03592 c 0,0 -89.1273,-24.97457 -118.81204,-93.87383 C 194.92625,583.44081 196.53285,388.573 196.53285,388.573 c 50.97155,-24.13482 99.02218,-32.45966 140.60995,-32.75175 41.55141,0.29163 89.60196,8.61693 140.61006,32.75175 0,0 1.6066,194.86781 -21.39636,224.58909 -29.72128,68.89926 -118.81205,93.87383 -118.81205,93.87383 z m 0,0"
         id="path132214" />
      <path
         style="fill:#fdc200;fill-opacity:1;fill-rule:nonzero;stroke:none;stroke-width:9.34723"
         d="m 336.77771,700.28115 c 0,0 -85.6951,-24.02527 -114.28443,-90.25917 -22.09012,-28.58942 -20.55662,-215.97208 -20.55662,-215.97208 49.03639,-23.1855 95.22487,-31.21824 135.20614,-31.47388 39.98136,0.25518 86.16975,8.28838 135.20625,31.47388 0,0 1.53349,187.38266 -20.59317,215.97208 C 423.2031,676.25588 337.508,700.28115 337.508,700.28115 Z m 0,0"
         id="path132218" />
      <path
         style="fill:#e30511;fill-opacity:1;fill-rule:nonzero;stroke:none;stroke-width:9.34723"
         d="m 249.54911,503.36863 c 0,-48.16009 39.0685,-87.19206 87.2286,-87.19206 48.16017,0 87.19213,39.03197 87.19213,87.19206 0,48.19665 -39.03196,87.22861 -87.19213,87.22861 -48.1601,0 -87.2286,-39.03196 -87.2286,-87.22861"
         id="path132224" />
      <path
         style="fill:none;stroke:#000000;stroke-width:1.71055;stroke-linecap:butt;stroke-linejoin:miter;stroke-miterlimit:9.567;stroke-opacity:1"
         d="m 249.54911,503.36863 c 0,-48.16009 39.0685,-87.19206 87.2286,-87.19206 48.16017,0 87.19213,39.03197 87.19213,87.19206 0,48.19665 -39.03196,87.22861 -87.19213,87.22861 -48.1601,0 -87.2286,-39.03196 -87.2286,-87.22861 z m 0,0"
         id="path132226" />
      <path
         style="fill:#000000;fill-opacity:1;fill-rule:nonzero;stroke:#000000;stroke-width:0.289764;stroke-linecap:butt;stroke-linejoin:miter;stroke-miterlimit:9.567;stroke-opacity:1"
         d="m 411.55552,548.20615 c -2.11772,3.28611 -4.56406,6.38967 -8.58048,11.39194 l -16.79575,7.30252 8.47093,-28.69898 20.62961,-21.65192 2.08125,18.18326 c -2.33681,5.95157 -3.83386,9.67588 -5.58646,13.10798 z m 0,0"
         id="path132228" />
      <path
         style="fill:#000000;fill-opacity:1;fill-rule:nonzero;stroke:none;stroke-width:9.34723"
         d="m 313.19053,588.15088 c -3.65121,-1.27786 -7.70408,-3.03047 -13.54609,-5.69592 l -11.13637,-14.53204 29.90382,1.27796 25.99698,14.75113 -17.1244,6.42621 c -6.35322,-0.83937 -10.33309,-1.35104 -14.09394,-2.22734"
         id="path132230" />
      <path
         style="fill:none;stroke:#000000;stroke-width:0.289764;stroke-linecap:butt;stroke-linejoin:miter;stroke-miterlimit:9.567;stroke-opacity:1"
         d="m 313.19053,588.15088 c -3.65121,-1.27786 -7.70408,-3.03047 -13.54609,-5.69592 l -11.13637,-14.53204 29.90382,1.27796 25.99698,14.75113 -17.1244,6.42621 c -6.35322,-0.83937 -10.33309,-1.35104 -14.09394,-2.22734 z m 0,0"
         id="path132232" />
      <path
         style="fill:#000000;fill-opacity:1;fill-rule:nonzero;stroke:none;stroke-width:9.34723"
         d="m 249.184,510.08695 c -0.0373,-3.87032 0.32809,-8.28837 0.94931,-14.64149 l 10.11397,-15.26235 8.50748,28.66243 -5.44037,29.39264 -11.68403,-14.13039 c -1.27796,-6.24366 -2.08125,-10.15053 -2.44636,-14.02084"
         id="path132234" />
      <path
         style="fill:none;stroke:#000000;stroke-width:0.289764;stroke-linecap:butt;stroke-linejoin:miter;stroke-miterlimit:9.567;stroke-opacity:1"
         d="m 249.184,510.08695 c -0.0373,-3.87032 0.32809,-8.28837 0.94931,-14.64149 l 10.11397,-15.26235 8.50748,28.66243 -5.44037,29.39264 -11.68403,-14.13039 c -1.27796,-6.24366 -2.08125,-10.15053 -2.44636,-14.02084 z m 0,0"
         id="path132236" />
      <path
         style="fill:#000000;fill-opacity:1;fill-rule:nonzero;stroke:none;stroke-width:9.34723"
         d="m 301.47005,423.406 c 3.61476,-1.35096 10.80772,-3.87031 13.58264,-4.56407 l 18.2928,4.71016 -24.02527,17.81816 -29.50218,4.92916 9.27423,-15.80989 c 5.4769,-3.35921 8.87257,-5.40392 12.37778,-7.08352"
         id="path132238" />
      <path
         style="fill:none;stroke:#000000;stroke-width:0.289764;stroke-linecap:butt;stroke-linejoin:miter;stroke-miterlimit:9.567;stroke-opacity:1"
         d="m 301.47005,423.406 c 3.61476,-1.35096 10.80772,-3.87031 13.58264,-4.56407 l 18.2928,4.71016 -24.02527,17.81816 -29.50218,4.92916 9.27423,-15.80989 c 5.4769,-3.35921 8.87257,-5.40392 12.37778,-7.08352 z m 0,0"
         id="path132240" />
      <path
         style="fill:#000000;fill-opacity:1;fill-rule:nonzero;stroke:none;stroke-width:9.34723"
         d="m 402.50039,445.71521 c 2.40981,3.06711 4.81971,6.75487 8.28837,12.15869 l 1.42396,18.25634 -24.39037,-17.34349 -13.7653,-26.54463 17.89126,3.94332 c 4.85616,4.16241 7.88672,6.75487 10.55208,9.52977"
         id="path132242" />
      <path
         style="fill:none;stroke:#000000;stroke-width:0.289764;stroke-linecap:butt;stroke-linejoin:miter;stroke-miterlimit:9.567;stroke-opacity:1"
         d="m 402.50039,445.71521 c 2.40981,3.06711 4.81971,6.75487 8.28837,12.15869 l 1.42396,18.25634 -24.39037,-17.34349 -13.7653,-26.54463 17.89126,3.94332 c 4.85616,4.16241 7.88672,6.75487 10.55208,9.52977 z m 0,0"
         id="path132244" />
      <path
         id="path132246"
         style="fill:#000000;fill-opacity:1;fill-rule:nonzero;stroke:none;stroke-width:9.3472"
         d="m 345.54524,441.19224 c -5.73221,-0.0629 -12.06284,0.7668 -19.05959,2.76581 0,0 -14.86511,5.7416 -19.42924,20.5657 l -23.98881,18.29286 c 0,0 -5.73241,4.56406 0,7.99622 0,0 3.42768,1.13198 4.55957,0 l 4.57319,-4.57317 -1.13647,4.57317 21.72957,-5.69596 -11.43301,10.25547 5.69596,3.43679 -7.99623,37.70841 c 37.71747,18.29279 61.71085,-13.69225 61.71085,-13.69225 l -12.56948,-40.00868 3.3957,-5.69597 -5.69596,-5.73705 c 12.5603,-1.13197 19.42924,15.99252 19.42924,15.99252 13.69219,44.582 -28.54832,56.01487 -28.54832,56.01487 -15.99252,6.82787 -44.58185,-4.60059 -44.58185,-4.60059 0,0 9.16465,13.71961 44.58185,11.41935 0,0 45.67275,-4.56407 42.24051,-55.97379 0,0 -3.40027,-26.28452 -30.82117,-36.54461 0,0 28.56206,0.004 34.25796,35.42183 0,0 8.02371,49.10034 -42.25418,59.39689 0,0 -17.1564,5.69591 -51.44176,-7.99629 0,0 30.84857,19.4338 59.43798,12.56948 0,0 58.27412,-12.5694 47.97756,-70.84359 0,0 -10.50799,-44.6071 -50.63387,-45.04742 z m -33.43642,28.72631 c 0.88542,0.0685 1.50135,0.32879 1.62936,0.76673 0.2556,0.91276 -1.49693,2.2366 -3.94336,2.93015 -2.40976,0.69347 -4.60458,0.50244 -4.86068,-0.41075 -0.2556,-0.91289 1.50612,-2.18185 3.91596,-2.87538 1.22318,-0.34667 2.37338,-0.47931 3.25872,-0.41075 z" />
      <path
         style="fill:#000000;fill-opacity:1;fill-rule:nonzero;stroke:none;stroke-width:9.34723"
         d="m 229.9418,488.94614 c -1.49696,0.10933 -1.67951,0.51129 -1.7526,1.82571 l -0.18228,2.51934 3.83386,0.18228 c 1.27795,0.0748 1.53351,-0.25518 1.64306,-1.49705 h 0.32903 l -0.25612,4.89271 -0.3281,-0.0373 c 0,-1.27794 -0.25611,-1.5335 -1.6796,-1.57005 l -7.52161,-0.40193 c -1.38751,-0.0748 -1.49696,0.36548 -1.64306,1.4605 l -0.32902,-0.0373 0.43838,-9.23768 2.48282,0.0748 v 0.43837 c -1.56996,0.18228 -1.86207,0.62067 -1.97162,2.55582 l -0.10933,2.37336 c -0.0375,0.43838 0.0373,0.54774 0.54775,0.5842 l 3.8703,0.18226 0.14582,-2.51936 c 0.0748,-1.42394 -0.25518,-1.7526 -1.57006,-2.00814 l 0.0373,-0.40194 4.01633,0.21872 z m 0,0"
         id="path132252" />
      <path
         style="fill:#000000;fill-opacity:1;fill-rule:nonzero;stroke:none;stroke-width:9.34723"
         d="m 235.41872,477.95586 -1.38751,9.31077 -0.32809,-0.0373 c 0.10933,-1.13185 0,-1.53351 -1.3145,-1.71607 l -7.66762,-1.13194 c -1.35096,-0.21872 -1.53351,0.18228 -1.78915,1.24141 l -0.32809,-0.0373 1.3875,-9.16467 2.44626,0.32901 -0.0373,0.43839 c -1.57005,0.0375 -1.93516,0.43838 -2.22725,2.33681 l -0.32903,2.3368 c -0.0748,0.36548 -0.0748,0.5842 0.51129,0.65712 l 3.79732,0.54775 0.40192,-2.62891 c 0.21874,-1.5336 -0.14581,-1.78916 -1.35094,-2.15427 l 0.0748,-0.40192 3.97986,0.62066 -0.0373,0.36548 c -1.42396,0 -1.71606,0.25517 -1.93516,1.6796 l -0.43838,2.62891 4.30841,0.6571 c 0.69357,0.10934 0.69357,0.10934 1.0954,-2.48291 0.32903,-2.15425 -0.0748,-3.10356 -1.71605,-4.12586 l 0.0748,-0.47484 z m 0,0"
         id="path132254" />
      <path
         style="fill:#000000;fill-opacity:1;fill-rule:nonzero;stroke:none;stroke-width:9.34723"
         d="m 235.09016,473.20924 c 0.5842,0.14582 0.76647,0 0.94931,-0.83938 0.29162,-1.05895 1.38749,-5.18482 -3.50522,-6.49931 -1.42405,-0.36548 -2.88456,-0.32903 -4.23551,0.54775 -0.9493,0.62065 -1.64305,1.4605 -2.1907,3.57821 -0.21874,0.76647 0.10933,0.87583 0.43838,0.94931 z m 0.14581,3.46867 c 0.25519,-1.27796 0.0748,-1.57007 -1.13185,-1.89861 l -7.48507,-1.97171 c -1.24151,-0.32903 -1.42405,-0.18227 -1.89871,1.0954 l -0.29164,-0.10933 1.20496,-4.52762 c 1.05886,-4.05286 3.61476,-6.24357 7.37553,-5.22126 2.22725,0.5842 5.18481,2.77501 3.83385,7.92326 l -1.27795,4.78318 z m 0,0"
         id="path132256" />
      <path
         style="fill:#000000;fill-opacity:1;fill-rule:nonzero;stroke:none;stroke-width:9.34723"
         d="m 242.24659,455.9753 -3.43222,8.79957 -0.29162,-0.14583 c 0.32901,-1.05885 0.32901,-1.49705 -0.9123,-1.97169 l -7.22952,-2.81147 c -1.27795,-0.51129 -1.53351,-0.14581 -2.00816,0.83939 l -0.29163,-0.10933 3.35911,-8.61703 2.33682,0.83938 -0.18228,0.40192 c -1.49706,-0.29162 -1.93515,0 -2.62891,1.82571 l -0.87583,2.19071 c -0.14583,0.32903 -0.21873,0.51129 0.36547,0.73001 l 3.57821,1.42396 0.98586,-2.51936 c 0.5842,-1.42394 0.25612,-1.7526 -0.83938,-2.37335 l 0.14582,-0.40193 3.76085,1.49706 -0.14581,0.36548 c -1.38742,-0.32903 -1.71607,-0.14583 -2.22727,1.1684 l -1.02229,2.51936 4.05285,1.57005 c 0.62065,0.25517 0.65712,0.25517 1.6066,-2.15425 0.80293,-2.04471 0.62067,-3.03047 -0.73001,-4.38153 l 0.14581,-0.47484 z m 0,0"
         id="path132258" />
      <path
         style="fill:#000000;fill-opacity:1;fill-rule:nonzero;stroke:none;stroke-width:9.34723"
         d="m 238.92392,449.14743 c 0.65712,-1.31442 1.82561,-3.65122 -0.40192,-4.78318 -2.04471,-1.0954 -3.14003,0.91323 -3.46867,1.53351 -0.43838,0.83939 -0.40193,1.0224 0.0748,1.27796 z m 8.94559,-4.27198 -1.27796,2.48282 -6.68178,1.20494 -0.43838,0.87584 3.06701,1.6066 c 1.0224,0.5113 1.38751,0.5113 2.11771,-0.69356 l 0.29164,0.14582 -2.22726,4.3085 -0.29164,-0.18226 c 0.54775,-1.27795 0.25612,-1.49706 -0.87584,-2.11771 l -6.71832,-3.46876 c -1.13185,-0.5842 -1.38749,-0.43839 -2.04469,0.5842 l -0.3281,-0.14581 2.22726,-4.27196 c 0.73003,-1.38751 2.37327,-3.76086 4.74661,-2.51946 2.08126,1.0954 1.38751,3.2862 1.16842,4.16251 l 5.5499,-1.1684 c 0.5842,-0.10933 1.05886,-0.32903 1.42396,-0.9494 z m 0,0"
         id="path132260" />
      <path
         style="fill:#000000;fill-opacity:1;fill-rule:nonzero;stroke:none;stroke-width:9.34723"
         d="m 248.56325,435.78379 -5.07526,-1.02231 2.81146,4.38151 z m 6.24367,-1.20487 -2.48281,3.68777 -0.25611,-0.18228 c 0.32901,-0.54774 0.65711,-1.0224 0.10933,-1.38749 -0.21873,-0.14583 -0.83938,-0.29164 -1.0954,-0.36548 l -1.78906,-0.32903 -2.55591,3.76076 1.24141,1.82571 c 0.14582,0.18227 0.29163,0.36548 0.47484,0.47484 0.5842,0.40193 1.05886,-0.25519 1.27795,-0.54775 l 0.25612,0.18227 -1.93525,2.84792 -0.25519,-0.18228 c 0.10933,-0.25517 0.25519,-0.51129 0.14583,-0.94931 -0.10934,-0.5842 -0.87584,-1.7526 -1.31451,-2.44634 l -5.03872,-7.81372 0.18228,-0.29164 10.62517,1.9717 c 1.38751,0.25518 1.6796,0.18227 2.15426,-0.43838 z m 0,0"
         id="path132262" />
      <path
         style="fill:#000000;fill-opacity:1;fill-rule:nonzero;stroke:none;stroke-width:9.34723"
         d="m 258.49468,430.34341 0.40193,-0.47484 0.54775,1.09542 c 0.10933,-0.14583 0.14581,-0.25519 0.29163,-0.40194 0.5842,-0.69357 1.27796,-0.83938 1.86216,-0.32902 0.54774,0.47484 0.69356,1.42405 -0.29164,2.5559 -0.54775,0.65711 -0.9493,0.83939 -1.20486,0.94931 l -0.2561,-0.51129 c 0.29162,-0.14582 0.80292,-0.5842 0.87582,-0.69358 0.36548,-0.40192 0.5113,-0.87582 0.0748,-1.27794 -0.29164,-0.25518 -0.62066,-0.18227 -0.98585,0.18226 -0.10933,0.18228 -0.29164,0.36548 -0.36548,0.54775 l -0.10933,0.0373 z m -2.62891,-8.98212 c -1.6796,-0.87584 -3.54166,-0.83938 -4.96572,0.80294 -0.54774,0.6571 -0.94929,1.64305 -0.91228,2.66545 0.0748,0.94931 0.40192,2.2638 2.30026,3.90685 2.81145,2.40982 5.33081,1.82562 6.75486,0.18228 1.38742,-1.64306 1.27787,-3.39566 1.2414,-4.16241 h 0.43839 c 0,0 0.69357,2.59236 -1.42395,5.00216 -1.82561,2.11771 -5.07526,3.32267 -8.36137,0.47484 -2.92101,-2.55581 -2.62892,-6.13412 -0.65712,-8.43437 1.02231,-1.13186 2.19071,-1.64306 2.44627,-1.93516 0.0373,-0.0373 0.43838,-0.47484 0.0748,-0.98586 l 0.25518,-0.25517 3.06711,2.44625 z m 0,0"
         id="path132264" />
      <path
         style="fill:#000000;fill-opacity:1;fill-rule:nonzero;stroke:none;stroke-width:9.34723"
         d="m 265.32255,417.01633 -4.74662,-2.19072 1.7526,4.89263 z m 6.35321,0.25517 -3.28611,2.99411 -0.21872,-0.25518 c 0.47484,-0.43838 0.87583,-0.83938 0.43839,-1.3144 -0.18228,-0.18227 -0.73003,-0.47485 -0.98585,-0.58421 l -1.64307,-0.73002 -3.35911,3.06711 0.76647,2.0447 c 0.10933,0.21874 0.21873,0.43839 0.32903,0.5842 0.51129,0.54775 1.13185,0 1.38741,-0.25517 l 0.21872,0.25517 -2.55591,2.30027 -0.21872,-0.21873 c 0.18227,-0.21872 0.40194,-0.43838 0.40194,-0.87583 0,-0.62065 -0.47484,-1.89861 -0.73003,-2.70191 l -3.10356,-8.76303 0.25519,-0.21873 9.89497,4.34507 c 1.27785,0.5842 1.56996,0.54774 2.19071,0.0748 z m 0,0"
         id="path132266" />
      <path
         style="fill:#000000;fill-opacity:1;fill-rule:nonzero;stroke:none;stroke-width:9.34723"
         d="m 275.83817,407.12145 c -2.3368,-3.21312 -4.71016,-3.21312 -6.17066,-2.15425 -1.42395,1.02229 -2.15416,3.32265 0.18228,6.53576 2.2637,3.06701 4.60052,3.2861 6.17057,2.15425 1.57005,-1.13195 2.08125,-3.4322 -0.18228,-6.53576 m -7.59461,5.54991 c -2.37336,-3.24966 -1.24142,-6.53576 1.05885,-8.21536 2.3368,-1.67962 5.80556,-1.71607 8.17883,1.53349 2.15425,2.99411 1.46049,6.31668 -1.09542,8.17883 -2.55581,1.86216 -5.95146,1.49705 -8.14226,-1.49696"
         id="path132268" />
      <path
         style="fill:#000000;fill-opacity:1;fill-rule:nonzero;stroke:none;stroke-width:9.34723"
         d="m 289.12881,400.95078 -3.97996,-3.35912 0.40194,5.18472 z m 6.06103,1.8987 -3.94332,2.0447 -0.14581,-0.29162 c 0.5842,-0.32903 1.0954,-0.5842 0.76646,-1.1684 -0.10933,-0.25519 -0.5842,-0.65712 -0.76646,-0.80294 l -1.42396,-1.1684 -4.05287,2.08116 0.21873,2.1908 c 0.0373,0.21872 0.0748,0.47484 0.18227,0.62066 0.32903,0.65712 1.05895,0.29164 1.38751,0.10933 l 0.14581,0.32903 -3.06711,1.57005 -0.14581,-0.29163 c 0.21872,-0.14582 0.47484,-0.32902 0.5842,-0.76648 0.18227,-0.54774 0.0748,-1.93516 0.0373,-2.775 l -0.69356,-9.27413 0.32901,-0.14581 8.36138,6.82786 c 1.09541,0.87584 1.3875,0.91323 2.08125,0.62066 z m 0,0"
         id="path132270" />
      <path
         style="fill:#000000;fill-opacity:1;fill-rule:nonzero;stroke:none;stroke-width:9.34723"
         d="m 303.2591,387.95234 c -0.98576,0.5113 -1.49696,0.76647 -0.80292,2.66536 l 3.14002,8.61702 -0.25519,0.10933 -10.47908,-6.35323 h -0.0373 l 2.3368,6.38968 c 0.5842,1.6796 1.05885,1.93515 2.30026,1.53351 l 0.10934,0.32901 -3.87031,1.38751 -0.10933,-0.29163 c 1.24141,-0.54776 1.49705,-0.91322 0.84032,-2.70192 l -2.62891,-7.19306 c -0.98585,-0.5842 -1.27794,-0.5842 -1.93525,-0.32902 l -0.10933,-0.32902 2.81145,-1.02231 9.12813,5.58637 h 0.0373 l -2.00825,-5.47682 c -0.65711,-1.86215 -1.1684,-1.8257 -2.3368,-1.49706 l -0.10933,-0.32901 3.8704,-1.42396 z m 0,0"
         id="path132272" />
      <path
         style="fill:#000000;fill-opacity:1;fill-rule:nonzero;stroke:none;stroke-width:9.34723"
         d="m 318.0468,389.92396 c -0.73003,0.21872 -1.16842,0.36546 -0.87584,1.57005 l 0.80292,3.39565 c 0.0375,0.25519 -1.9716,1.7526 -3.87031,2.1908 -1.6796,0.36548 -3.65121,0.29164 -5.18481,-0.73001 -1.13186,-0.76647 -1.86216,-1.64305 -2.37327,-3.87032 -0.65711,-2.848 0.87584,-6.20711 4.49107,-7.01041 1.71605,-0.40194 2.6289,-0.0373 3.17656,-0.14582 0.14581,-0.0373 0.6571,-0.25518 0.6571,-0.76648 l 0.36548,-0.0748 0.98586,3.54176 -0.40194,0.0748 c -0.73001,-1.0954 -2.00816,-2.5559 -4.3815,-2.0447 -1.60651,0.40193 -3.87032,2.0447 -2.88447,6.31666 0.73003,3.10356 2.92101,4.60062 5.54992,3.97987 1.1684,-0.25517 2.22725,-0.91323 2.11771,-1.53351 l -0.65711,-2.73845 c -0.32903,-1.42396 -0.65711,-1.35096 -1.82561,-1.1684 l -0.0748,-0.29164 4.30841,-1.02231 z m 0,0"
         id="path132274" />
      <path
         style="fill:#000000;fill-opacity:1;fill-rule:nonzero;stroke:none;stroke-width:9.34723"
         d="m 328.92753,388.79209 c -0.40193,-3.97985 -2.4829,-5.14827 -4.23552,-5.00225 -1.78905,0.18226 -3.54165,1.82569 -3.14001,5.76901 0.40193,3.79731 2.33681,5.14827 4.27197,4.96571 1.8986,-0.21872 3.5052,-1.93515 3.10356,-5.73247 m -9.34723,0.98585 c -0.40193,-3.97985 2.19071,-6.28021 5.03871,-6.60876 2.84802,-0.29164 5.87858,1.42395 6.31667,5.40382 0.36548,3.7243 -1.8986,6.24366 -5.07525,6.57232 -3.10357,0.32901 -5.87849,-1.67962 -6.28013,-5.36738"
         id="path132276" />
      <path
         style="fill:#000000;fill-opacity:1;fill-rule:nonzero;stroke:none;stroke-width:9.34723"
         d="m 337.28891,383.13262 c -1.16842,0.0373 -1.6066,0.18228 -1.6066,1.53351 l -0.0748,8.25192 c 0,0.69357 0.32902,0.73003 1.75261,0.73003 2.62891,0 3.72431,-0.0373 4.74661,-2.30027 h 0.43839 l -0.87584,2.99401 -9.34723,-0.0373 v -0.32902 c 1.0954,-0.0748 1.49706,-0.21872 1.53351,-1.57006 l 0.0373,-7.74072 c 0,-1.35094 -0.40193,-1.4605 -1.49705,-1.57005 v -0.32901 l 4.89272,0.0373 z m 0,0"
         id="path132278" />
      <path
         style="fill:#000000;fill-opacity:1;fill-rule:nonzero;stroke:none;stroke-width:9.34723"
         d="m 351.01764,390.7638 -1.46051,-4.96571 -2.5559,4.49105 z m 3.94332,4.96572 -4.41797,-0.5113 0.0373,-0.32902 c 0.65712,0.0748 1.24151,0.14581 1.31451,-0.5113 0.0373,-0.25517 -0.14582,-0.87584 -0.21874,-1.13194 l -0.51129,-1.75262 -4.52751,-0.51129 -1.0224,1.93525 c -0.14581,0.21874 -0.21873,0.43839 -0.21873,0.62066 -0.10933,0.73002 0.73003,0.83938 1.09531,0.87584 l -0.0373,0.32902 -3.4322,-0.40193 0.0373,-0.32903 c 0.25517,0 0.5842,0 0.91229,-0.29162 0.47484,-0.36548 1.13195,-1.57006 1.57005,-2.30027 l 4.6006,-8.06927 0.32903,0.0373 3.14001,10.33308 c 0.43839,1.3145 0.65711,1.5336 1.38751,1.6796 z m 0,0"
         id="path132280" />
      <path
         style="fill:#000000;fill-opacity:1;fill-rule:nonzero;stroke:none;stroke-width:9.34723"
         d="m 369.85809,387.80624 c -1.0953,-0.10934 -1.64305,-0.18227 -2.1177,1.78916 l -2.19071,8.90902 -0.29164,-0.0748 -5.14825,-11.09984 h -0.0375 l -1.64305,6.60878 c -0.40194,1.71605 -0.14582,2.1908 1.05885,2.51936 l -0.0748,0.32902 -3.97987,-0.9493 0.0748,-0.32903 c 1.3144,0.21872 1.7526,0.0748 2.19071,-1.78915 l 1.82569,-7.44853 c -0.47484,-1.0224 -0.73001,-1.1684 -1.42404,-1.31449 l 0.0748,-0.32903 2.88456,0.69356 4.52751,9.74879 h 0.0373 l 1.35096,-5.65938 c 0.47484,-1.93524 0.0373,-2.1908 -1.0954,-2.5559 l 0.10934,-0.32902 3.97986,0.94931 z m 0,0"
         id="path132282" />
      <path
         style="fill:#000000;fill-opacity:1;fill-rule:nonzero;stroke:none;stroke-width:9.34723"
         d="m 375.66365,397.08046 -0.21872,-5.18481 -3.54176,3.76077 z m 2.66538,5.76902 -4.16242,-1.5336 0.14582,-0.32902 c 0.5842,0.21872 1.13185,0.40194 1.35094,-0.18228 0.10934,-0.25517 0.10934,-0.87582 0.0748,-1.13194 l -0.0748,-1.8256 -4.3085,-1.6066 -1.42396,1.64314 c -0.18227,0.18227 -0.32902,0.40194 -0.36547,0.5842 -0.25519,0.65711 0.51129,0.94931 0.84031,1.05886 l -0.10934,0.32902 -3.24965,-1.20486 0.10933,-0.32902 c 0.29164,0.10934 0.5842,0.18227 0.98586,-0.0373 0.51129,-0.25518 1.4605,-1.24141 2.0447,-1.86206 l 6.38967,-6.75487 0.32903,0.10933 0.62065,10.80774 c 0.0748,1.3875 0.21872,1.64305 0.94931,1.9717 z m 0,0"
         id="path132284" />
      <path
         style="fill:#000000;fill-opacity:1;fill-rule:nonzero;stroke:none;stroke-width:9.34723"
         d="m 386.32529,405.40529 c -0.32809,0.51129 -0.18226,0.73003 0.54775,1.13196 0.94931,0.54775 4.67362,2.66536 7.19298,-1.71616 0.73001,-1.27795 1.05885,-2.70191 0.5842,-4.23541 -0.36548,-1.05886 -0.98586,-1.97171 -2.88456,-3.06711 -0.73002,-0.40193 -0.87583,-0.10933 -1.05886,0.18227 z m -3.39566,-0.76647 c 1.16841,0.5842 1.49705,0.47484 2.11772,-0.5842 l 3.83385,-6.71832 c 0.65711,-1.13185 0.54775,-1.3875 -0.54775,-2.1177 l 0.18227,-0.29164 4.05287,2.33681 c 3.61476,2.08125 5.11181,5.11172 3.14011,8.47092 -1.13186,2.00816 -4.01642,4.30851 -8.65349,1.64305 l -4.3085,-2.44634 z m 0,0"
         id="path132286" />
      <path
         style="fill:#000000;fill-opacity:1;fill-rule:nonzero;stroke:none;stroke-width:9.34723"
         d="m 401.14944,416.76077 -7.59462,-5.54991 0.18226,-0.29164 c 0.94931,0.62066 1.38751,0.73002 2.15426,-0.36548 l 4.56406,-6.24357 c 0.84032,-1.0954 0.54775,-1.42404 -0.29162,-2.15425 l 0.21872,-0.25518 7.44852,5.47691 -1.42395,2.00816 -0.36548,-0.21872 c 0.73001,-1.42405 0.51129,-1.89871 -1.05885,-3.06711 l -1.89871,-1.3875 c -0.29163,-0.21872 -0.43839,-0.32903 -0.80292,0.14581 l -2.26372,3.10356 2.15425,1.6066 c 1.24142,0.91323 1.64307,0.69357 2.51936,-0.21872 l 0.3281,0.25517 -2.40982,3.24967 -0.29162,-0.21873 c 0.62065,-1.27795 0.5842,-1.60651 -0.5842,-2.4828 l -2.15427,-1.6066 -2.51935,3.46865 c -0.43838,0.5842 -0.47484,0.62065 1.64306,2.15425 1.7526,1.27796 2.775,1.35096 4.41805,0.40194 l 0.40193,0.25518 z m 0,0"
         id="path132288" />
      <path
         style="fill:#000000;fill-opacity:1;fill-rule:nonzero;stroke:none;stroke-width:9.34723"
         d="m 413.78278,422.89489 c 0.87582,-1.20494 0.69356,-1.6066 -0.21874,-2.5559 l -1.78914,-1.78915 -2.66546,2.73845 c -0.91229,0.94931 -0.80293,1.35096 0.0373,2.22726 l -0.21872,0.25518 -3.50522,-3.43221 0.21872,-0.21872 c 0.98586,0.87583 1.31442,0.83937 2.33682,-0.21873 l 5.25781,-5.40382 c 0.94931,-0.94931 0.73001,-1.35096 0,-2.15425 l 0.25517,-0.25519 6.60878,6.46268 -1.67951,1.8257 -0.32903,-0.29163 c 0.91323,-1.31451 0.76648,-1.82571 -0.62065,-3.17666 l -1.71605,-1.64306 c -0.29164,-0.32902 -0.43839,-0.36547 -0.80294,0.0375 l -2.7019,2.77491 1.8256,1.7526 c 1.0224,0.98585 1.49705,0.9493 2.51936,0.14582 l 0.29164,0.29163 -2.81147,2.88447 z m 0,0"
         id="path132290" />
      <path
         style="fill:#000000;fill-opacity:1;fill-rule:nonzero;stroke:none;stroke-width:9.34723"
         d="m 428.75302,429.24801 c -0.98586,-0.9493 -1.35106,-1.0223 -2.77502,0.18228 l -3.5052,2.88446 c -1.05885,0.87584 -3.57821,2.95756 -6.46277,-0.5113 -2.77491,-3.32265 -0.14581,-5.4769 0.65711,-6.17057 l 4.19896,-3.4322 c 0.98576,-0.83939 0.98576,-1.13196 0.18228,-2.22727 l 0.25517,-0.21872 3.17656,3.79731 -0.25517,0.21873 c -0.98586,-0.98585 -1.27796,-1.0224 -2.22726,-0.21873 l -4.30852,3.54176 c -0.83937,0.73001 -2.7019,2.26371 -0.76646,4.60052 0.83937,1.05885 1.8987,1.46051 2.848,1.31449 0.43838,-0.0748 1.0223,-0.29162 2.08116,-1.20494 l 3.6513,-2.99402 c 1.42396,-1.1684 1.38751,-1.6796 0.65712,-2.66545 l 0.25611,-0.21872 2.59236,3.10356 z m 0,0"
         id="path132292" />
      <path
         style="fill:#000000;fill-opacity:1;fill-rule:nonzero;stroke:none;stroke-width:9.34723"
         d="m 424.59051,443.26885 -2.81147,-4.27196 0.29164,-0.18226 c 0.94931,1.31449 1.27795,1.13194 2.37335,0.43838 l 7.30252,-4.78317 -0.51129,-0.76647 c -1.05886,-1.6066 -1.60651,-1.8257 -3.39566,-1.0954 l -0.21873,-0.36548 2.51936,-1.5336 5.36737,8.21538 -2.40981,1.71605 -0.21872,-0.32901 c 1.38749,-1.38751 1.38749,-1.93516 0.32901,-3.57822 l -0.51129,-0.76648 -7.44852,4.85627 c -0.98585,0.65711 -1.13195,1.02231 -0.40193,2.26371 z m 0,0"
         id="path132294" />
      <path
         style="fill:#000000;fill-opacity:1;fill-rule:nonzero;stroke:none;stroke-width:9.34723"
         d="m 430.50562,454.18613 -4.30851,-8.39782 0.29163,-0.14582 c 0.5842,0.98586 0.91229,1.2414 2.08116,0.65711 l 6.90097,-3.54167 c 1.20485,-0.6571 1.13185,-1.05885 0.69356,-2.08125 l 0.29163,-0.14581 4.23552,8.21528 -2.19082,1.20494 -0.18226,-0.40193 c 1.24149,-0.94931 1.27794,-1.46051 0.40193,-3.17656 l -1.05885,-2.08125 c -0.18228,-0.32902 -0.29164,-0.54775 -0.80294,-0.25518 l -3.4321,1.7526 1.20485,2.40982 c 0.73001,1.38749 1.1684,1.3144 2.37336,0.9493 l 0.18227,0.32902 -3.61476,1.86216 -0.18227,-0.36548 c 1.1684,-0.80292 1.2414,-1.1684 0.5842,-2.44636 l -1.16841,-2.4098 -3.87031,1.9717 c -0.62065,0.32902 -0.62065,0.32902 0.54775,2.66546 0.98585,1.93514 1.86216,2.44625 3.76076,2.3368 l 0.25612,0.43838 z m 0,0"
         id="path132296" />
      <path
         style="fill:#000000;fill-opacity:1;fill-rule:nonzero;stroke:none;stroke-width:9.34723"
         d="m 438.31924,456.34039 0.5842,1.53351 c 0.18227,0.47484 0.9494,2.37336 2.88456,1.64314 1.93515,-0.73001 1.60651,-2.55589 1.1684,-3.68785 -0.14581,-0.36547 -0.25612,-0.5842 -0.29164,-0.73001 -0.14581,-0.32903 -0.36546,-0.29165 -0.62065,-0.18227 z m -4.67361,1.78916 c -0.62065,0.21872 -0.5842,0.54775 -0.21872,1.49696 0.43839,1.05895 1.3144,2.99409 3.5052,2.15425 1.35096,-0.51129 1.56996,-1.5335 1.49696,-2.44636 -0.0373,-0.62065 -0.14581,-1.1684 -0.76647,-2.73836 z m 8.25192,-6.86442 1.7526,4.56406 c 0.54775,1.42405 1.38741,4.34507 -1.13195,5.33092 -1.78905,0.65711 -2.7019,-0.62067 -3.17656,-1.27796 0.21872,1.53351 -0.0373,3.14011 -1.7526,3.79731 -0.62066,0.21873 -2.99401,0.76648 -4.38152,-2.848 l -2.08125,-5.44036 0.32903,-0.10934 c 0.54774,1.35096 0.87584,1.46051 2.0447,0.98586 l 7.22952,-2.73846 c 1.20486,-0.47484 1.3144,-0.76647 0.87583,-2.15425 z m 0,0"
         id="path132298" />
      <path
         style="fill:#000000;fill-opacity:1;fill-rule:nonzero;stroke:none;stroke-width:9.34723"
         d="m 443.28496,474.3411 c 3.83386,-0.98586 4.74671,-3.17656 4.30851,-4.92916 -0.43839,-1.71607 -2.2638,-3.24967 -6.13412,-2.26382 -3.72431,0.94931 -4.78316,3.03056 -4.30851,4.92927 0.47484,1.86205 2.4099,3.21311 6.13412,2.26371 m -2.33681,-9.12814 c 3.90687,-0.98584 6.57232,1.27796 7.26607,4.05287 0.69356,2.77501 -0.5842,6.02467 -4.4546,7.01043 -3.61467,0.91322 -6.42623,-1.02231 -7.22943,-4.05287 -0.76648,-3.06701 0.83937,-6.09757 4.41796,-7.01043"
         id="path132300" />
      <path
         style="fill:#000000;fill-opacity:1;fill-rule:nonzero;stroke:none;stroke-width:9.34723"
         d="m 450.03983,481.82616 c -0.21873,-1.1684 -0.40193,-1.56996 -1.75261,-1.3874 l -8.17883,1.09531 c -0.69356,0.10933 -0.65711,0.43839 -0.47483,1.86215 0.36547,2.59245 0.5842,3.68777 2.95746,4.34507 l 0.0748,0.43838 -3.14011,-0.43838 -1.24141,-9.27423 0.32809,-0.0373 c 0.21872,1.0954 0.43839,1.46051 1.7526,1.27795 l 7.66772,-1.02231 c 1.38741,-0.18226 1.42396,-0.62065 1.35095,-1.71614 l 0.32809,-0.0373 0.65711,4.85616 z m 0,0"
         id="path132302" />
      <path
         style="fill:#e30511;fill-opacity:1;fill-rule:nonzero;stroke:#000000;stroke-width:0.570181;stroke-linecap:butt;stroke-linejoin:miter;stroke-miterlimit:9.567;stroke-opacity:1"
         d="m 357.11521,621.45037 15.84654,-3.9433 1.38741,5.58645 -11.17284,2.81147 1.82561,7.30252 9.78543,-2.40991 1.38749,5.51347 -9.82196,2.44634 3.3592,13.4001 -4.63706,1.1684 z m -5.03872,27.12892 4.71016,-0.5842 0.80294,6.57223 -4.71007,0.5842 z m -15.62734,-25.74141 5.44036,0.0748 7.59462,33.04395 -5.25781,-0.0748 -1.35096,-6.79132 -8.47092,-0.14582 -1.71615,6.71832 -5.03872,-0.0748 z m -0.65711,20.44705 5.84201,0.10934 -2.6289,-12.99844 z m -21.65192,3.61476 4.71006,0.5842 -0.80292,6.60878 -4.71016,-0.5842 z m -5.51347,-28.15122 16.0291,3.10356 -1.0954,5.65946 -11.31894,-2.1907 -1.46049,7.41206 9.93142,1.93516 -1.0954,5.62291 -9.93142,-1.93515 -2.62892,13.54619 -4.67362,-0.91323 z m 0,0"
         id="path132304" />
      <path
         style="clip-rule:nonzero;fill:none;stroke:#000000;stroke-width:3.23415;stroke-linecap:butt;stroke-linejoin:miter;stroke-miterlimit:9.567;stroke-opacity:1"
         d="m 336.77771,700.28115 c 0,0 -85.6951,-24.02527 -114.28443,-90.25917 -22.09012,-28.58942 -20.55662,-215.97208 -20.55662,-215.97208 49.03639,-23.1855 95.22487,-31.21824 135.20614,-31.47388 39.98136,0.25518 86.16975,8.28838 135.20625,31.47388 0,0 1.53349,187.38266 -20.59317,215.97208 C 423.2031,676.25588 337.508,700.28115 337.508,700.28115 Z m 0,0"
         id="path132306" />
      <path
         style="fill:#e30511;fill-opacity:1;fill-rule:nonzero;stroke:#000000;stroke-width:0.570181;stroke-linecap:butt;stroke-linejoin:miter;stroke-miterlimit:9.567;stroke-opacity:1"
         d="m 378.11001,643.43103 4.63707,-1.0954 1.49705,6.49922 -4.63716,1.05886 z m 0,0"
         id="path132310" />
    </g>
  </g>
</svg>
