<svg xmlns="http://www.w3.org/2000/svg" width="247.65567494675614" height="403.78642654362415" viewBox="0 0 368.1 600">
<g transform="matrix(1.25,0,0,-1.25,0,600)"><path d="m 133.63831,281.7987 c -3.61142,-35.70005 -14.61398,-39.91338 -19.56513,-57.37508 -2.79594,-8.8344 -2.68591,-19.84343 1.02907,-28.69077 4.48515,-10.67248 12.21283,-16.1414 21.84977,-18.75612 17.8565,-4.8476 34.26972,3.74087 41.66732,26.04369 20.07643,55.29107 -7.04163,131.08572 -17.53289,152.06824 C 142.71866,394.52958 115.85948,436.64994 142.45977,480 98.028871,448.1379 111.34196,395.44214 123.88487,349.70388 c 2.43351,-8.87324 11.25497,-37.88115 9.75344,-67.90518" style="fill:#ed1c24;fill-opacity:1;fill-rule:nonzero;stroke:none"/><path d="m 107.01537,191.60236 c -3.70204,9.70813 -4.16156,21.04076 -2.77653,29.25385 0.29125,1.72804 -20.807769,12.36816 -21.966273,11.55915 -10.67895,-5.1712 -17.869442,-11.50091 -18.97617,-12.8924 -3.456096,-20.79483 2.899497,-36.29549 3.80559,-38.5413 7.86359,-9.67578 17.92769,-14.12858 21.247873,-15.39711 l 24.68455,15.72071 c -2.79594,3.08719 -5.09353,7.87006 -6.01904,10.2971 m -35.66122,86.61598 c 2.194039,5.15826 9.002678,21.97275 -0.148858,55.90592 -5.4495,20.23176 -7.70826,34.91046 -4.265108,48.37888 -6.206734,-11.48796 -9.701663,-23.84318 -11.429711,-40.50882 -3.223101,-31.03367 11.947479,-49.42088 9.986435,-74.46787 -0.08414,-1.05495 3.656731,5.54011 5.857242,10.69189 m 135.90096,-98.64113 -26.54205,6.20674 c -7.91536,-9.88936 -10.60775,-12.3617 -24.60041,-18.54254 l 4.71168,-26.58088 c 8.57552,-1.55977 22.06335,-2.86713 26.52263,-0.38832 0.0324,0.0194 0.58248,0.33007 1.4821,0.88667 4.04506,2.14227 11.26791,6.4009 19.09914,14.1933 2.74417,10.65953 0.23947,20.74305 -0.67309,24.22503 m 1.24911,-28.93671 0,0 c -2.79594,-3.016 -5.48833,-5.43009 -7.91537,-7.33288 -4.07741,-4.1745 -7.77945,-6.95103 -9.63047,-8.22603 -0.0324,-0.46599 -0.0777,-1.02259 -0.14238,-1.6698 -0.12945,-1.24911 -0.33655,-2.80241 -0.6731,-4.6146 7.90889,5.60483 14.80167,12.46525 20.36119,20.28353 -0.95786,0.86726 -1.21028,1.04201 -1.99987,1.55978 m -147.485998,31.42847 0,0 c -1.747465,5.59188 -6.064349,26.74268 -2.284648,39.50564 -1.262058,5.04176 -1.42386,14.01855 -1.42386,14.01855 -2.355841,-6.30382 -6.931609,-14.17388 -6.931609,-36.39904 0,-10.39418 3.611426,-23.40308 7.365239,-32.78761 0.213579,1.24264 0.453046,2.4335 0.731346,3.56612 1.093783,4.55635 2.543532,8.01892 3.339599,9.71461 0,0 -0.01294,0.0324 -0.03236,0.0906 -0.213579,0.58896 -0.478934,1.35914 -0.763706,2.29112 m 38.211222,-46.22367 0,0 c 1.935155,-1.50153 15.397105,-11.40383 36.263125,-12.29697 1.32677,0.69898 4.69873,2.53706 8.53021,5.03528 3.92856,2.57589 8.32958,5.8443 11.56563,9.35217 l -5.58542,28.50956 c -0.79606,-0.0453 -1.18439,-0.2783 -1.9934,-0.2783 -4.47222,0 -10.16765,0.60191 -14.69812,2.02577 -6.05787,1.91573 -11.60446,5.09353 -16.34203,9.21625 L 91.346437,161.07998 c -0.200634,-7.48821 2.058125,-14.18035 4.245692,-18.83378 1.585662,-3.35902 3.119547,-5.66308 3.637315,-6.4009 m 60.268106,-1.66333 0,0 c -2.29759,-2.46587 -5.04823,-4.7764 -7.82476,-6.84747 -4.01917,-3.00305 -8.07069,-5.45597 -10.84075,-7.02869 2.14874,-1.70216 5.59189,-4.14214 10.4589,-6.83453 11.66271,1.61155 22.57465,5.46245 32.26337,11.08669 0.62779,2.13579 1.06142,4.10978 1.36561,5.81194 0.14239,0.80901 0.25241,1.53388 0.34302,2.21993 -8.31016,-1.80572 -21.0796,0.57601 -25.76539,1.59213 m -70.759365,10.47184 0,0 c -1.630967,4.53047 -2.912441,10.03822 -2.828304,16.0702 -3.850893,1.53389 -12.594688,5.66955 -20.361196,13.86969 -1.029062,-2.73122 -2.252288,-6.77628 -2.808887,-11.48796 -0.239468,-2.11637 -0.349493,-4.36219 -0.226524,-6.68567 4.459271,-7.89595 10.200015,-15.01525 16.943933,-21.11843 6.40737,-0.0841 10.704838,0.23947 13.364867,0.57602 -1.242641,2.13579 -2.770055,5.13884 -4.083889,8.77615 m 46.210725,-26.46438 c 1.11967,-1.02259 3.46904,-3.02246 7.20991,-5.51422 -1.10026,-0.0324 -2.19404,-0.0777 -3.30724,-0.0777 -19.90815,0 -38.22416,6.47856 -52.870506,17.35167 5.598359,0.18769 8.931485,0.70546 10.659533,1.08084 3.870313,-2.88008 17.558783,-11.86981 38.308303,-12.84063 m -19.42274,232.83993 c -11.50091,31.59027 -31.266672,61.09006 -9.37159,95.19151 C 72.868619,413.1355 69.147167,385.07899 80.065584,335.97524 c 7.86359,-35.34409 2.271704,-48.04233 -5.397724,-63.96367 -1.469164,-3.04188 -17.837081,-29.7522 -12.588216,-44.73509 3.928559,3.11955 10.886057,9.03504 21.590894,12.174 1.042007,0.38185 14.639869,-4.73757 23.293052,-10.1094 7.31994,21.22198 17.44876,25.76539 20.43886,53.64715 2.3882,30.76832 -6.83452,54.19729 -11.87628,68.04109" style="fill:#1969bc;fill-opacity:1;fill-rule:nonzero;stroke:none"/><path d="m 196.9496,201.29108 0,0 c -0.006,0.006 -0.013,0.0129 -0.013,0.0194 0,-0.006 0.013,-0.006 0.013,-0.0129 l 0,-0.006 m 46.83851,49.63446 c -1.85101,30.5871 -14.74989,66.93436 -36.25017,99.90319 -43.33065,66.46189 -43.91961,73.46469 -37.11744,113.19039 -23.96615,-37.39574 -18.71729,-74.61026 -1.0679,-113.26806 19.03442,-41.68026 33.85551,-108.12921 13.72083,-159.01279 l 27.64877,-7.44938 c 0,0 6.57565,-14.10268 2.59531,-30.43176 16.08962,17.04101 33.16947,52.2686 30.4706,97.06841" style="fill:#00a650;fill-opacity:1;fill-rule:nonzero;stroke:none"/><path style="fill:#ed1c24;fill-opacity:1;fill-rule:nonzero;stroke:none" d="m 194.05334,280.54118 c 0.006,-0.0647 0.0129,-0.14239 0.0129,-0.22005 0,0.0777 -0.006,0.15533 -0.0129,0.22005"/><path d="m 168.62902,219.5592 c 0.5566,-3.8962 0.0453,-7.98009 -1.73452,-11.81157 -4.91231,-10.58834 -17.48759,-15.21588 -28.10181,-10.34887 -10.60129,4.87996 -15.22236,17.40992 -10.31004,27.98532 1.77982,3.83148 4.57576,6.87336 7.90889,8.97679 -6.20673,-2.21346 -11.55915,-6.80217 -14.54926,-13.23543 -5.8896,-12.69824 -0.34302,-27.72643 12.37464,-33.56426 12.73707,-5.85077 27.82999,-0.30418 33.72606,12.39406 2.98363,6.43325 3.02247,13.46842 0.68604,19.60396" style="fill:#ffffff;fill-opacity:1;fill-rule:nonzero;stroke:none"/><path d="m 168.45881,238.49395 -5.77311,-4.9641 5.33948,-5.40419 -7.59177,0.55013 -0.0647,-7.59824 -4.97056,5.76016 -5.43656,-5.34594 0.56955,7.57881 -7.62413,0.0453 5.77958,4.96409 -5.33947,5.4042 7.59176,-0.5566 0.0647,7.59823 4.97704,-5.74722 5.43008,5.33301 -0.56954,-7.57235 7.61765,-0.0453 z" style="fill:#ffffff;fill-opacity:1;fill-rule:nonzero;stroke:none"/><path d="m 40.295235,72.869269 0,0 c -0.161802,0.653681 -0.323604,1.126143 -0.485407,1.410915 -0.168274,0.284772 -0.537183,0.43363 -1.100255,0.43363 -0.899621,0 -1.475637,-0.614848 -1.721576,-1.844545 l -7.468792,-33.803729 18.244823,0 -7.468793,33.803729 z M 77.289704,1.9610453 C 77.289704,0.64721098 76.590718,1.9531252e-6 75.199219,1.9531252e-6 l -17.144568,0 C 57.40097,1.9531252e-6 56.870259,0.20063674 56.462517,0.60837844 56.054775,1.009648 55.770003,1.5468316 55.608201,2.2069848 l -4.413966,20.0764252 -25.105238,0 L 21.681503,2.2069848 C 21.513229,1.5468316 21.228457,1.009648 20.820715,0.60837844 20.412973,0.20063674 19.882262,1.9531252e-6 19.228581,1.9531252e-6 l -17.1445679,0 C 0.69251368,1.9531252e-6 0,0.64721098 0,1.9610453 c 0,0.077665 0.01941627,0.1618023 0.0647209,0.2459395 0.03236046,0.077665 0.05824882,0.2006348 0.05824882,0.362437 L 18.367793,78.506459 c 0.737818,2.944802 1.799241,5.313587 3.19074,7.106356 1.385028,1.799241 2.996578,3.164852 4.834652,4.103305 1.844546,0.938453 3.818533,1.572718 5.941379,1.902795 2.122846,0.323604 4.245691,0.485407 6.375009,0.485407 2.122846,0 4.219803,-0.161803 6.297344,-0.485407 2.090485,-0.330077 4.045057,-0.964342 5.889602,-1.902795 1.831602,-0.938453 3.443152,-2.304064 4.82818,-4.103305 1.391499,-1.792769 2.452922,-4.161554 3.19074,-7.106356 L 77.166734,2.5694218 c 0,-0.1618022 0.01942,-0.2847719 0.05825,-0.362437 0.0453,-0.084137 0.06472,-0.1682744 0.06472,-0.2459395" style="fill:#1969bc;fill-opacity:1;fill-rule:nonzero;stroke:none"/><path d="m 143.18141,74.833548 c -0.48541,-0.491879 -1.06142,-0.731346 -1.7151,-0.731346 l -24.86578,0 c -2.85419,0 -4.87995,-0.595432 -6.05787,-1.786297 -1.19087,-1.177921 -1.77983,-3.359015 -1.77983,-6.549756 l 0,-11.02197 31.72619,0 c 0.65368,0 1.22323,-0.239467 1.7151,-0.731346 0.49188,-0.491879 0.73135,-1.067895 0.73135,-1.721576 l 0,-11.636819 c 0,-0.647209 -0.23947,-1.216753 -0.73135,-1.708631 -0.49187,-0.491879 -1.06142,-0.731347 -1.7151,-0.731347 l -31.72619,0 0,-35.7647718 c 0,-0.6601533 -0.24594,-1.2296972 -0.73782,-1.72157609 C 107.52666,0.23623323 106.95065,0.003238 106.29697,0.003238 l -16.011955,0 c -0.660154,0 -1.23617,0.23299523 -1.728049,0.72487411 C 88.065088,1.219991 87.819148,1.7895349 87.819148,2.4496882 l 0,63.3164608 c 0,5.553054 0.821956,10.051157 2.465867,13.481365 1.643911,3.423736 3.837949,6.083765 6.588588,7.954199 2.750638,1.876906 5.954327,3.138964 9.604577,3.799117 3.64379,0.653681 7.42996,0.983758 11.35205,0.983758 3.26194,0 6.14202,-0.05825 8.63377,-0.187691 2.49176,-0.12297 4.67285,-0.271828 6.55623,-0.43363 1.87043,-0.161802 3.48845,-0.317132 4.83465,-0.485407 1.34619,-0.168274 2.55,-0.330076 3.61143,-0.485406 1.63743,-0.24594 2.44645,-1.061423 2.44645,-2.459395 l 0,-11.384407 c 0,-0.660153 -0.23947,-1.229697 -0.73135,-1.715104" style="fill:#1969bc;fill-opacity:1;fill-rule:nonzero;stroke:none"/><path d="m 214.34269,74.833548 c -0.49188,-0.491879 -1.06142,-0.731346 -1.7151,-0.731346 l -24.86577,0 c -2.86067,0 -4.87996,-0.595432 -6.05788,-1.786297 -1.18439,-1.177921 -1.77983,-3.359015 -1.77983,-6.549756 l 0,-11.02197 31.71972,0 c 0.65368,0 1.2297,-0.239467 1.7151,-0.731346 0.49188,-0.491879 0.73782,-1.067895 0.73782,-1.721576 l 0,-11.636819 c 0,-0.647209 -0.24594,-1.216753 -0.73782,-1.708631 -0.4854,-0.491879 -1.06142,-0.731347 -1.7151,-0.731347 l -31.71972,0 0,-35.7647718 c 0,-0.6601533 -0.24593,-1.2296972 -0.73781,-1.72157609 C 178.69442,0.23623323 178.1184,0.003238 177.45825,0.003238 l -16.01195,0 c -0.66016,0 -1.23617,0.23299523 -1.72805,0.72487411 -0.49188,0.49187889 -0.73782,1.06142279 -0.73782,1.72157609 l 0,63.3164608 c 0,5.553054 0.82196,10.051157 2.46587,13.481365 1.63744,3.423736 3.83795,6.083765 6.58858,7.954199 2.75064,1.876906 5.95433,3.138964 9.59811,3.799117 3.65026,0.653681 7.44291,0.983758 11.35205,0.983758 3.26841,0 6.14849,-0.05825 8.64024,-0.187691 2.49176,-0.12297 4.67285,-0.271828 6.54976,-0.43363 1.8769,-0.161802 3.48845,-0.317132 4.83465,-0.485407 1.35267,-0.168274 2.55,-0.330076 3.6179,-0.485406 1.63096,-0.24594 2.45292,-1.061423 2.45292,-2.459395 l 0,-11.384407 c 0,-0.660153 -0.24594,-1.229697 -0.73782,-1.715104" style="fill:#1969bc;fill-opacity:1;fill-rule:nonzero;stroke:none"/><path d="m 257.45588,72.869269 0,0 c -0.16181,0.653681 -0.32361,1.126143 -0.49188,1.410915 -0.16181,0.284772 -0.53719,0.43363 -1.10026,0.43363 -0.89962,0 -1.46916,-0.614848 -1.7151,-1.844545 l -7.4688,-33.803729 18.2513,0 -7.47526,33.803729 z M 294.44387,1.9610453 c 0,-1.31383432 -0.69251,-1.9610433468748 -2.07754,-1.9610433468748 l -17.15104,0 c -0.65368,0 -1.18439,0.2006347868748 -1.59213,0.6083764868748 -0.40774,0.40126956 -0.69252,0.93845316 -0.85432,1.59860636 l -4.40749,20.0764252 -25.11171,0 -4.41397,-20.0764252 C 238.67387,1.5468316 238.3891,1.009648 237.98135,0.60837844 237.57361,0.20063674 237.0429,1.9531252e-6 236.38922,1.9531252e-6 l -17.15104,0 c -1.3915,0 -2.07754,0.6472090268748 -2.07754,1.9610433468748 0,0.077665 0.0194,0.1618023 0.0582,0.2459395 0.0453,0.077665 0.0647,0.2006348 0.0647,0.362437 l 18.24482,75.9370372 c 0.73782,2.944802 1.79924,5.313587 3.19074,7.106356 1.37856,1.799241 2.99658,3.164852 4.83465,4.103305 1.83808,0.938453 3.81854,1.572718 5.94138,1.902795 2.12932,0.323604 4.23922,0.485407 6.36854,0.485407 2.12285,0 4.22628,-0.161803 6.30382,-0.485407 2.09048,-0.330077 4.05153,-0.964342 5.8896,-1.902795 1.8316,-0.938453 3.44315,-2.304064 4.83465,-4.103305 1.38503,-1.792769 2.44645,-4.161554 3.1778,-7.106356 L 294.32737,2.5694218 c 0,-0.1618022 0.0194,-0.2847719 0.0583,-0.362437 0.0388,-0.084137 0.0582,-0.1682744 0.0582,-0.2459395" style="fill:#1969bc;fill-opacity:1;fill-rule:nonzero;stroke:none"/></g></svg>