<?xml version="1.0" encoding="UTF-8" standalone="no"?>
<svg
   xmlns:dc="http://purl.org/dc/elements/1.1/"
   xmlns:cc="http://creativecommons.org/ns#"
   xmlns:rdf="http://www.w3.org/1999/02/22-rdf-syntax-ns#"
   xmlns:svg="http://www.w3.org/2000/svg"
   xmlns="http://www.w3.org/2000/svg"
   xmlns:sodipodi="http://sodipodi.sourceforge.net/DTD/sodipodi-0.dtd"
   xmlns:inkscape="http://www.inkscape.org/namespaces/inkscape"
   width="67.327065mm"
   height="103.98125mm"
   viewBox="0 0 254.4645 393.00002"
   version="1.1"
   id="svg101499"
   inkscape:version="1.0.1 (3bc2e813f5, 2020-09-07)"
   sodipodi:docname="Bahrain FA logo.svg">
  <defs
     id="defs101493" />
  <sodipodi:namedview
     id="base"
     pagecolor="#ffffff"
     bordercolor="#666666"
     borderopacity="1.0"
     inkscape:pageopacity="0.0"
     inkscape:pageshadow="2"
     inkscape:zoom="0.35"
     inkscape:cx="110.80367"
     inkscape:cy="196.50001"
     inkscape:document-units="px"
     inkscape:current-layer="layer1"
     inkscape:document-rotation="0"
     showgrid="false"
     inkscape:window-width="1267"
     inkscape:window-height="728"
     inkscape:window-x="78"
     inkscape:window-y="0"
     inkscape:window-maximized="0" />
  <metadata
     id="metadata101496">
    <rdf:RDF>
      <cc:Work
         rdf:about="">
        <dc:format>image/svg+xml</dc:format>
        <dc:type
           rdf:resource="http://purl.org/dc/dcmitype/StillImage" />
        <dc:title></dc:title>
      </cc:Work>
    </rdf:RDF>
  </metadata>
  <g
     inkscape:label="Layer 1"
     inkscape:groupmode="layer"
     id="layer1"
     transform="translate(-264.19633,-323.49999)">
    <path
       style="clip-rule:nonzero;fill:#d1070f;fill-opacity:1;fill-rule:nonzero;stroke:none;stroke-width:9.50297"
       d="m 391.33578,716.50001 c 0,0 -58.42848,-35.19067 -92.5798,-73.5367 C 264.19633,604.09767 264.19633,571.06 264.19633,571.06 V 397.25942 l 45.54748,-38.34592 h 163.55513 l 45.36188,38.34592 v 173.65205 c 0,0 -0.55686,33.1862 -34.37407,72.05184 -34.1513,39.16272 -92.95097,73.5367 -92.95097,73.5367"
       id="path65559" />
    <path
       style="fill:#b31111;fill-opacity:1;fill-rule:nonzero;stroke:none;stroke-width:9.50297"
       d="M 485.40041,425.58276 H 297.45674 l 5.86514,-39.68234 40.49902,-38.19749 h 95.10397 l 40.94443,38.19749 z m 0,0"
       id="path65563" />
    <path
       style="clip-rule:nonzero;fill:none;stroke:#d7b582;stroke-width:4.87503;stroke-linecap:butt;stroke-linejoin:miter;stroke-miterlimit:10;stroke-opacity:1"
       d="m 489.29806,545.22379 c 0,0 -24.90816,8.79766 -27.76645,19.67411 -2.93263,10.9136 3.08105,26.50437 6.7931,34.63388 3.7492,8.1295 11.73028,17.26129 11.73028,17.26129 m -3.08105,-79.84732 c 0,0 -17.26131,1.29925 -32.22108,-2.26436 -14.92262,-3.60078 -31.36723,-9.28023 -38.04896,-13.32642 -6.64467,-4.08333 -9.91132,-9.61434 -9.91132,-9.61434 m -10.24544,0 c 0,0 -3.56362,8.1295 -25.98466,15.92489 -22.45819,7.83255 -30.40211,8.42648 -41.46414,9.50297 -11.06213,1.07651 -17.0757,-1.18786 -17.0757,-1.18786 m -11.06203,10.05976 c 0,0 12.02715,0.89042 23.75743,10.39388 11.69313,9.54012 7.4242,22.27259 5.30826,30.21651 -2.11582,7.98097 -6.71888,17.89229 -10.35672,23.27488 -5.30836,7.90676 -8.79766,9.42876 -8.79766,9.42876 m 28.28617,26.50436 c 0,0 25.50209,-17.37267 62.25191,-17.07571 36.74982,0.33451 62.62309,18.22643 62.62309,18.22643"
       id="path65565" />
    <path
       style="clip-rule:nonzero;fill:#ffffff;fill-opacity:1;fill-rule:nonzero;stroke:none;stroke-width:9.50297"
       d="M 391.66982,331.48107 343.561,376.80579 h -61.06403 v 181.89284 c 71.56928,-57.05491 145.44009,-58.05719 218.34579,0 l 1.29914,-180.63074 -65.44424,-1.89319 z m 0,0"
       id="path65569" />
    <path
       style="fill:#ffffff;fill-opacity:1;fill-rule:nonzero;stroke:none;stroke-width:9.50297"
       d="m 343.00421,516.64055 12.99237,10.39388 c 0,0 -13.32649,8.42648 -20.97334,16.25902 -7.64695,7.79539 -15.9249,19.67411 -15.9249,19.67411 0,0 -11.54469,2.4129 -19.34008,4.52883 -7.83253,2.11584 -15.92489,6.34761 -15.92489,6.34761 l 1.78181,7.01595 c 0,0 12.02715,-5.71671 18.67183,-7.49851 6.68183,-1.78181 14.81133,-3.41509 14.81133,-3.41509 0,0 19.97107,23.42332 30.55055,33.14904 10.57947,9.76279 37.56641,29.32562 37.56641,29.32562 v 59.95037 l 4.08333,3.41518 4.86285,-2.93262 v -60.43293 c 0,0 27.61803,-20.19383 40.1649,-32.70365 12.50981,-12.54686 27.46959,-29.77101 27.46959,-29.77101 0,0 11.21057,2.26437 18.04082,4.38031 6.83027,2.11584 16.25894,7.01585 16.25894,7.01585 l 1.1508,-6.83027 c 0,0 -7.83254,-4.71442 -18.22642,-7.4985 -10.39388,-2.74694 -17.22414,-3.89764 -17.22414,-3.89764 0,0 -7.49842,-11.69314 -17.22414,-20.97337 -9.76289,-9.24316 -19.67411,-15.44233 -19.67411,-15.44233 l 9.24307,-6.83027 -7.16429,-2.26436 -7.79548,7.46126 c 0,0 -17.70671,-2.11584 -33.29748,-1.7818 -15.62792,0.3345 -26.83849,1.44777 -26.83849,1.44777 l -12.02725,-9.91132 z m 0,0"
       id="path65573" />
    <path
       style="fill:#d1070f;fill-opacity:1;fill-rule:nonzero;stroke:none;stroke-width:9.50297"
       d="m 438.25673,564.74936 -14.47722,-14.14308 3.74921,14.14308 -13.95749,-15.92489 -2.93253,19.37713 -11.54468,-22.16121 -7.79539,26.98701 -7.64695,-26.98701 -11.87872,22.16121 -2.93253,-19.37713 -13.17797,15.77645 2.7841,-13.66052 -14.1431,13.66052 c 15.77646,17.55818 31.44146,31.88696 46.9581,42.91183 19.82255,-14.99683 36.15578,-29.36267 46.99517,-42.76339"
       id="path65575" />
    <path
       style="clip-rule:nonzero;fill:#d7b582;fill-opacity:1;fill-rule:nonzero;stroke:none;stroke-width:9.50297"
       d="m 391.29863,323.49999 -49.48229,48.51715 h -64.44205 v 197.29812 c 0,0 0,29.99377 30.95889,65.25873 30.55064,34.81948 82.89122,66.74358 82.89122,66.74358 0,0 52.63755,-31.18163 83.22526,-66.74358 30.3279,-35.26496 30.81046,-65.40716 30.81046,-65.40716 V 372.01714 H 440.9665 Z m 0,13.62347 42.87476,41.87248 2.82124,2.78409 h 58.5027 V 569.0183 c -0.076,1.44777 -1.74475,28.13773 -28.43471,59.17084 -23.75744,27.61803 -62.10347,53.00883 -75.76399,61.62089 -13.62337,-8.79765 -51.82087,-34.52249 -75.65262,-61.6951 C 288.1023,596.74768 287.13707,570.05772 287.10002,569.2782 V 381.78003 h 58.68828 l 2.85831,-2.78409 z m 0,0"
       id="path65577" />
    <path
       style="fill:#d7b582;fill-opacity:1;fill-rule:nonzero;stroke:none;stroke-width:9.50297"
       d="m 391.26156,528.96477 c -10.0969,0 -20.1196,0.70512 -30.06808,2.11584 -14.4029,8.50079 -25.91043,20.15676 -35.599,33.81729 17.40973,22.82937 39.57096,42.72622 65.66708,60.17312 26.24447,-17.63248 48.66559,-37.52934 66.52083,-60.17312 -10.17122,-13.73475 -21.93857,-25.27943 -35.93312,-33.81729 -10.2826,-1.41053 -20.45373,-2.11584 -30.58771,-2.11584 m 0,6.83027 c 9.3173,0 18.7832,0.63099 28.21196,1.85601 10.80212,6.79311 20.52786,15.70215 29.62249,27.13547 -15.4794,18.70899 -34.8937,36.19294 -57.83445,52.00655 -22.79232,-15.70224 -41.98386,-33.14913 -57.09216,-52.00655 8.83481,-11.61891 18.48632,-20.52795 29.32561,-27.13547 9.16885,-1.22502 18.48623,-1.85601 27.76655,-1.85601"
       id="path65581" />
    <path
       style="fill:#b31111;fill-opacity:1;fill-rule:nonzero;stroke:none;stroke-width:9.50297"
       d="m 388.66307,365.11266 h -10.87644 v 16.8158 h 4.04617 l 0.038,-6.42192 h 6.5333 v -3.52645 h -6.57035 l 0.038,-3.34096 h 6.79321 z m 0,0"
       id="path65583" />
    <path
       style="fill:#b31111;fill-opacity:1;fill-rule:nonzero;stroke:none;stroke-width:9.50297"
       d="m 393.93427,365.11266 -7.01595,16.8158 h 4.41746 l 1.11365,-3.37801 h 6.45899 l 1.29925,3.37801 h 4.71443 l -7.1644,-16.8158 z m 0,0"
       id="path65585" />
    <path
       style="fill:#ffffff;fill-opacity:1;fill-rule:nonzero;stroke:none;stroke-width:9.50297"
       d="m 395.75315,369.82699 -2.04163,5.41974 h 4.08334 z m 0,0"
       id="path65587" />
    <path
       style="fill:#b31111;fill-opacity:1;fill-rule:nonzero;stroke:none;stroke-width:9.50297"
       d="m 315.83169,443.84633 v -33.59454 c -0.038,-0.89042 -0.33451,-1.41061 -1.07659,-1.41061 h -6.57036 v 35.04222 h -8.27804 v -44.35961 h 17.2613 c 3.52646,0 7.01586,3.86059 7.01586,7.68411 v 36.63843 z m 0,0"
       id="path65589" />
    <path
       style="fill:#b31111;fill-opacity:1;fill-rule:nonzero;stroke:none;stroke-width:9.50297"
       d="m 336.8421,443.8834 h -8.20372 v -35.97019 c 0,-4.26892 2.89546,-8.38942 7.49842,-8.38942 h 10.65378 c 3.97196,0 7.05302,3.56362 7.05302,7.90686 v 16.77864 l -8.09246,0.038 -0.1112,-14.29162 c 0,-0.40862 -0.29649,-1.11365 -0.85336,-1.11365 h -6.83026 c -0.81631,0 -1.0765,0.51981 -1.15072,1.18787 z m 0,0"
       id="path65591" />
    <path
       style="fill:#d1070f;fill-opacity:1;fill-rule:nonzero;stroke:none;stroke-width:9.50297"
       d="m 308.18474,456.61596 -8.27804,-0.038 v -9.72572 l 8.27804,0.038 z m 0,0"
       id="path65593" />
    <path
       style="fill:#d1070f;fill-opacity:1;fill-rule:nonzero;stroke:none;stroke-width:9.50297"
       d="m 336.76789,468.71733 h -8.12951 v -9.31728 h 8.20372 z m 0,0"
       id="path65595" />
    <path
       style="fill:#d1070f;fill-opacity:1;fill-rule:nonzero;stroke:none;stroke-width:9.50297"
       d="m 353.80644,468.71733 h -8.09235 v -9.31728 h 8.12951 z m 0,0"
       id="path65597" />
    <path
       style="fill:#d1070f;fill-opacity:1;fill-rule:nonzero;stroke:none;stroke-width:9.50297"
       d="m 440.14991,468.71733 h -8.3151 v -9.31728 h 8.3151 z m 0,0"
       id="path65599" />
    <path
       style="fill:#d1070f;fill-opacity:1;fill-rule:nonzero;stroke:none;stroke-width:9.50297"
       d="m 299.9067,459.36289 v 67.67154 l 18.11506,-10.17112 c 4.12048,-2.48712 6.1621,-6.34771 6.12504,-11.47039 l 0.038,-48.77696 h 29.65973 l 0.038,-29.58542 h -8.20373 v 19.8597 l -34.7824,-0.038 v 9.76288 h 3.00682 c 0.92844,0.1853 1.74466,0.85337 1.93035,1.93024 v 47.18085 c 0,1.55906 -0.18531,2.63555 -0.96521,2.93252 l -6.68174,3.89774 V 459.3992 Z m 0,0"
       id="path65601" />
    <path
       style="fill:#b31111;fill-opacity:1;fill-rule:nonzero;stroke:none;stroke-width:9.50297"
       d="m 328.63838,471.8727 v 40.53609 l 8.20372,-3.00684 -0.076,-37.52925 z m 0,0"
       id="path65603" />
    <path
       style="fill:#b31111;fill-opacity:1;fill-rule:nonzero;stroke:none;stroke-width:9.50297"
       d="m 353.80644,471.8727 h -8.09235 v 34.74526 l 8.09235,-2.11593 z m 0,0"
       id="path65605" />
    <path
       style="fill:#b31111;fill-opacity:1;fill-rule:nonzero;stroke:none;stroke-width:9.50297"
       d="m 358.37233,399.52379 v 103.90173 l 8.01814,-1.26208 0.076,-45.58464 h 4.82571 v -9.72572 h -4.86287 l 0.038,-47.32929 z m 0,0"
       id="path65607" />
    <path
       style="fill:#b31111;fill-opacity:1;fill-rule:nonzero;stroke:none;stroke-width:9.50297"
       d="m 374.1487,424.24645 h 8.05529 v -24.72266 h -8.05529 z m 0,0"
       id="path65609" />
    <path
       style="fill:#b31111;fill-opacity:1;fill-rule:nonzero;stroke:none;stroke-width:9.50297"
       d="m 386.36155,443.84633 h 8.16667 v -16.81579 h -8.16667 z m 0,0"
       id="path65611" />
    <path
       style="fill:#d1070f;fill-opacity:1;fill-rule:nonzero;stroke:none;stroke-width:9.50297"
       d="m 394.52822,424.24645 h -8.16667 v -24.72266 h 17.55827 c 4.30598,0 6.75594,3.74931 6.71888,7.98107 v 39.34822 h 21.19611 v -19.82254 h 8.27794 v 19.82254 h 5.2712 v -47.32929 h 8.16658 v 57.09217 h -71.34654 v 43.80273 l -8.01813,0.85432 v -74.242 h 8.01813 v 19.82255 h 20.4908 v -36.19294 c 0,-0.96513 -0.25944,-1.81897 -1.15072,-1.81897 h -7.01585 z m 0,0"
       id="path65613" />
    <path
       style="fill:#b31111;fill-opacity:1;fill-rule:nonzero;stroke:none;stroke-width:9.50297"
       d="m 423.0742,443.84633 h -8.27794 l -0.038,-36.23008 c 0,-4.15756 1.7818,-8.09246 6.6075,-8.09246 h 11.69314 c 4.64011,0 7.20155,3.00684 7.20155,6.57046 v 18.1522 h -8.42648 v -14.44006 c 0,-0.59393 -0.40863,-0.96521 -1.07651,-0.96521 h -6.6076 c -0.74219,0 -1.11356,0.51981 -1.15072,1.18787 z m 0,0"
       id="path65615" />
    <path
       style="fill:#d1070f;fill-opacity:1;fill-rule:nonzero;stroke:none;stroke-width:9.50297"
       d="m 466.72849,399.52379 h -8.5007 v 114.36984 l 8.5007,3.9348 z m 0,0"
       id="path65617" />
    <path
       style="fill:#b31111;fill-opacity:1;fill-rule:nonzero;stroke:none;stroke-width:9.50297"
       d="m 475.15497,399.52379 -0.038,59.13379 -4.19462,-22.49534 c -0.14824,-0.89044 -0.70512,-1.29926 -1.63336,-1.15072 v 38.68005 l 5.9023,48.40578 8.16657,4.93708 V 399.52379 Z m 0,0"
       id="path65619" />
    <path
       style="fill:#b31111;fill-opacity:1;fill-rule:nonzero;stroke:none;stroke-width:9.50297"
       d="m 394.52822,459.40005 h -8.16667 v 40.98158 h 8.16667 z m 0,0"
       id="path65621" />
    <path
       style="fill:#b31111;fill-opacity:1;fill-rule:nonzero;stroke:none;stroke-width:9.50297"
       d="m 397.7577,459.40005 c -0.22236,0.96512 0.22237,1.52189 1.0765,1.93024 l 2.78408,1.15072 c 0.77926,0.44568 1.03935,1.03943 1.07651,1.81896 v 36.45284 l 7.94391,0.48275 v -35.48772 c 0.038,-3.56362 -1.11366,-5.7166 -4.41746,-6.3476 z m 0,0"
       id="path65623" />
    <path
       style="fill:#b31111;fill-opacity:1;fill-rule:nonzero;stroke:none;stroke-width:9.50297"
       d="m 414.7591,459.40005 -0.038,42.42926 8.3151,1.41062 0.038,-43.83988 z m 0,0"
       id="path65625" />
    <path
       style="fill:#b31111;fill-opacity:1;fill-rule:nonzero;stroke:none;stroke-width:9.50297"
       d="m 431.83481,471.8727 v 33.22326 l 8.27794,2.30152 V 471.8727 Z m 0,0"
       id="path65627" />
    <path
       style="fill:#b31111;fill-opacity:1;fill-rule:nonzero;stroke:none;stroke-width:9.50297"
       d="m 445.38395,459.40005 v 49.70492 l 8.16658,2.89547 v -52.60039 z m 0,0"
       id="path65629" />
  </g>
</svg>
