<?xml version="1.0" encoding="UTF-8"?>
<svg xmlns="http://www.w3.org/2000/svg" xmlns:xlink="http://www.w3.org/1999/xlink" width="120px" height="150px" viewBox="0 0 120 150" version="1.1">
<defs>
<radialGradient id="radial0" gradientUnits="userSpaceOnUse" cx="258.445496" cy="261.826202" fx="258.445496" fy="261.826202" r="92.843803" gradientTransform="matrix(0.373412,0,0,0.373626,-38.874354,-16.073428)">
<stop offset="0.3545" style="stop-color:rgb(100%,100%,100%);stop-opacity:1;"/>
<stop offset="0.5688" style="stop-color:rgb(99.215686%,99.215686%,99.215686%);stop-opacity:1;"/>
<stop offset="0.646" style="stop-color:rgb(96.470588%,96.470588%,96.470588%);stop-opacity:1;"/>
<stop offset="0.701" style="stop-color:rgb(92.156863%,92.156863%,92.156863%);stop-opacity:1;"/>
<stop offset="0.7455" style="stop-color:rgb(85.490196%,85.490196%,85.490196%);stop-opacity:1;"/>
<stop offset="0.7836" style="stop-color:rgb(76.862745%,76.862745%,76.862745%);stop-opacity:1;"/>
<stop offset="0.8174" style="stop-color:rgb(65.882353%,65.882353%,65.882353%);stop-opacity:1;"/>
<stop offset="0.848" style="stop-color:rgb(53.333333%,53.333333%,53.333333%);stop-opacity:1;"/>
<stop offset="0.876" style="stop-color:rgb(38.431373%,38.431373%,38.431373%);stop-opacity:1;"/>
<stop offset="0.901" style="stop-color:rgb(22.352941%,22.352941%,22.352941%);stop-opacity:1;"/>
<stop offset="0.9212" style="stop-color:rgb(7.058824%,7.058824%,7.058824%);stop-opacity:1;"/>
<stop offset="0.9865" style="stop-color:rgb(100%,100%,100%);stop-opacity:1;"/>
</radialGradient>
<clipPath id="clip1">
  <path d="M 35 65 L 85 65 L 85 113 L 35 113 Z M 35 65 "/>
</clipPath>
<clipPath id="clip2">
  <path d="M 84.425781 89.070312 C 84.425781 102.140625 73.46875 112.761719 59.980469 112.761719 C 46.457031 112.761719 35.535156 102.140625 35.535156 89.070312 C 35.535156 76.003906 46.496094 65.382812 59.980469 65.382812 C 73.503906 65.382812 84.425781 76.003906 84.425781 89.070312 Z M 84.425781 89.070312 "/>
</clipPath>
<clipPath id="clip3">
  <path d="M 65 81 L 82 81 L 82 102 L 65 102 Z M 65 81 "/>
</clipPath>
<clipPath id="clip4">
  <path d="M 84.425781 89.070312 C 84.425781 102.140625 73.46875 112.761719 59.980469 112.761719 C 46.457031 112.761719 35.535156 102.140625 35.535156 89.070312 C 35.535156 76.003906 46.496094 65.382812 59.980469 65.382812 C 73.503906 65.382812 84.425781 76.003906 84.425781 89.070312 Z M 84.425781 89.070312 "/>
</clipPath>
<radialGradient id="radial1" gradientUnits="userSpaceOnUse" cx="267.888885" cy="274.437897" fx="267.888885" fy="274.437897" r="62.929798" gradientTransform="matrix(0.371517,0,0,0.368874,-38.469883,-14.948466)">
<stop offset="0" style="stop-color:rgb(100%,100%,100%);stop-opacity:1;"/>
<stop offset="0.00571191" style="stop-color:rgb(100%,100%,100%);stop-opacity:1;"/>
<stop offset="1" style="stop-color:rgb(83.921569%,83.921569%,83.921569%);stop-opacity:1;"/>
</radialGradient>
<clipPath id="clip5">
  <path d="M 49 108 L 71 108 L 71 113 L 49 113 Z M 49 108 "/>
</clipPath>
<clipPath id="clip6">
  <path d="M 84.425781 89.070312 C 84.425781 102.140625 73.46875 112.761719 59.980469 112.761719 C 46.457031 112.761719 35.535156 102.140625 35.535156 89.070312 C 35.535156 76.003906 46.496094 65.382812 59.980469 65.382812 C 73.503906 65.382812 84.425781 76.003906 84.425781 89.070312 Z M 84.425781 89.070312 "/>
</clipPath>
<radialGradient id="radial2" gradientUnits="userSpaceOnUse" cx="264.90329" cy="321.264404" fx="264.90329" fy="321.264404" r="38.454899" gradientTransform="matrix(0.371517,0,0,0.267401,-38.469883,17.645383)">
<stop offset="0.533" style="stop-color:rgb(100%,100%,100%);stop-opacity:1;"/>
<stop offset="0.6114" style="stop-color:rgb(89.019608%,89.019608%,89.019608%);stop-opacity:1;"/>
<stop offset="0.7364" style="stop-color:rgb(74.117647%,74.117647%,74.117647%);stop-opacity:1;"/>
<stop offset="0.8365" style="stop-color:rgb(64.705882%,64.705882%,64.705882%);stop-opacity:1;"/>
<stop offset="0.8984" style="stop-color:rgb(61.176471%,61.176471%,61.176471%);stop-opacity:1;"/>
<stop offset="1" style="stop-color:rgb(43.137255%,43.137255%,43.137255%);stop-opacity:1;"/>
</radialGradient>
<clipPath id="clip7">
  <path d="M 65 99 L 79 99 L 79 112 L 65 112 Z M 65 99 "/>
</clipPath>
<clipPath id="clip8">
  <path d="M 84.425781 89.070312 C 84.425781 102.140625 73.46875 112.761719 59.980469 112.761719 C 46.457031 112.761719 35.535156 102.140625 35.535156 89.070312 C 35.535156 76.003906 46.496094 65.382812 59.980469 65.382812 C 73.503906 65.382812 84.425781 76.003906 84.425781 89.070312 Z M 84.425781 89.070312 "/>
</clipPath>
<radialGradient id="radial3" gradientUnits="userSpaceOnUse" cx="293.325897" cy="315.019409" fx="293.325897" fy="315.019409" r="37.9925" gradientTransform="matrix(0.371517,0,0,0.368874,-38.469883,-14.948466)">
<stop offset="0" style="stop-color:rgb(14.901961%,14.901961%,14.901961%);stop-opacity:1;"/>
<stop offset="0.1198" style="stop-color:rgb(12.54902%,12.54902%,12.54902%);stop-opacity:1;"/>
<stop offset="0.6612" style="stop-color:rgb(3.529412%,3.529412%,3.529412%);stop-opacity:1;"/>
<stop offset="1" style="stop-color:rgb(0%,0%,0%);stop-opacity:1;"/>
</radialGradient>
<clipPath id="clip9">
  <path d="M 77 86 L 85 86 L 85 106 L 77 106 Z M 77 86 "/>
</clipPath>
<clipPath id="clip10">
  <path d="M 84.425781 89.070312 C 84.425781 102.140625 73.46875 112.761719 59.980469 112.761719 C 46.457031 112.761719 35.535156 102.140625 35.535156 89.070312 C 35.535156 76.003906 46.496094 65.382812 59.980469 65.382812 C 73.503906 65.382812 84.425781 76.003906 84.425781 89.070312 Z M 84.425781 89.070312 "/>
</clipPath>
<radialGradient id="radial4" gradientUnits="userSpaceOnUse" cx="300.318909" cy="284.116699" fx="300.318909" fy="284.116699" r="35.971298" gradientTransform="matrix(0.371517,0,0,0.368874,-38.469883,-14.948466)">
<stop offset="0.533" style="stop-color:rgb(100%,100%,100%);stop-opacity:1;"/>
<stop offset="0.6866" style="stop-color:rgb(90.588235%,90.588235%,90.588235%);stop-opacity:1;"/>
<stop offset="0.8799" style="stop-color:rgb(81.568627%,81.568627%,81.568627%);stop-opacity:1;"/>
<stop offset="1" style="stop-color:rgb(78.039216%,78.039216%,78.039216%);stop-opacity:1;"/>
</radialGradient>
<clipPath id="clip11">
  <path d="M 64 65 L 81 65 L 81 76 L 64 76 Z M 64 65 "/>
</clipPath>
<clipPath id="clip12">
  <path d="M 84.425781 89.070312 C 84.425781 102.140625 73.46875 112.761719 59.980469 112.761719 C 46.457031 112.761719 35.535156 102.140625 35.535156 89.070312 C 35.535156 76.003906 46.496094 65.382812 59.980469 65.382812 C 73.503906 65.382812 84.425781 76.003906 84.425781 89.070312 Z M 84.425781 89.070312 "/>
</clipPath>
<radialGradient id="radial5" gradientUnits="userSpaceOnUse" cx="270.363708" cy="271.962494" fx="270.363708" fy="271.962494" r="62.994499" gradientTransform="matrix(0.371517,0,0,0.368874,-38.469883,-14.948466)">
<stop offset="0.5228" style="stop-color:rgb(100%,100%,100%);stop-opacity:1;"/>
<stop offset="0.7509" style="stop-color:rgb(91.372549%,91.372549%,91.372549%);stop-opacity:1;"/>
<stop offset="1" style="stop-color:rgb(83.921569%,83.921569%,83.921569%);stop-opacity:1;"/>
</radialGradient>
<clipPath id="clip13">
  <path d="M 38 65 L 55 65 L 55 79 L 38 79 Z M 38 65 "/>
</clipPath>
<clipPath id="clip14">
  <path d="M 84.425781 89.070312 C 84.425781 102.140625 73.46875 112.761719 59.980469 112.761719 C 46.457031 112.761719 35.535156 102.140625 35.535156 89.070312 C 35.535156 76.003906 46.496094 65.382812 59.980469 65.382812 C 73.503906 65.382812 84.425781 76.003906 84.425781 89.070312 Z M 84.425781 89.070312 "/>
</clipPath>
<radialGradient id="radial6" gradientUnits="userSpaceOnUse" cx="247.374496" cy="257.461487" fx="247.374496" fy="257.461487" r="44.529598" gradientTransform="matrix(0.371517,0,0,0.368874,-38.469883,-14.948466)">
<stop offset="0.599" style="stop-color:rgb(100%,100%,100%);stop-opacity:1;"/>
<stop offset="0.6539" style="stop-color:rgb(94.901961%,94.901961%,94.901961%);stop-opacity:1;"/>
<stop offset="0.7456" style="stop-color:rgb(88.627451%,88.627451%,88.627451%);stop-opacity:1;"/>
<stop offset="0.851" style="stop-color:rgb(85.098039%,85.098039%,85.098039%);stop-opacity:1;"/>
<stop offset="1" style="stop-color:rgb(83.921569%,83.921569%,83.921569%);stop-opacity:1;"/>
</radialGradient>
<clipPath id="clip15">
  <path d="M 35 79 L 43 79 L 43 105 L 35 105 Z M 35 79 "/>
</clipPath>
<clipPath id="clip16">
  <path d="M 84.425781 89.070312 C 84.425781 102.140625 73.46875 112.761719 59.980469 112.761719 C 46.457031 112.761719 35.535156 102.140625 35.535156 89.070312 C 35.535156 76.003906 46.496094 65.382812 59.980469 65.382812 C 73.503906 65.382812 84.425781 76.003906 84.425781 89.070312 Z M 84.425781 89.070312 "/>
</clipPath>
<radialGradient id="radial7" gradientUnits="userSpaceOnUse" cx="261.874695" cy="278.328888" fx="261.874695" fy="278.328888" r="63.552898" gradientTransform="matrix(0.371517,0,0,0.368874,-38.469883,-14.948466)">
<stop offset="0.7005" style="stop-color:rgb(100%,100%,100%);stop-opacity:1;"/>
<stop offset="0.7555" style="stop-color:rgb(97.647059%,97.647059%,97.647059%);stop-opacity:1;"/>
<stop offset="0.8306" style="stop-color:rgb(90.588235%,90.588235%,90.588235%);stop-opacity:1;"/>
<stop offset="0.9169" style="stop-color:rgb(79.607843%,79.607843%,79.607843%);stop-opacity:1;"/>
<stop offset="1" style="stop-color:rgb(65.882353%,65.882353%,65.882353%);stop-opacity:1;"/>
</radialGradient>
<clipPath id="clip17">
  <path d="M 40 104 L 51 104 L 51 112 L 40 112 Z M 40 104 "/>
</clipPath>
<clipPath id="clip18">
  <path d="M 84.425781 89.070312 C 84.425781 102.140625 73.46875 112.761719 59.980469 112.761719 C 46.457031 112.761719 35.535156 102.140625 35.535156 89.070312 C 35.535156 76.003906 46.496094 65.382812 59.980469 65.382812 C 73.503906 65.382812 84.425781 76.003906 84.425781 89.070312 Z M 84.425781 89.070312 "/>
</clipPath>
<clipPath id="clip19">
  <path d="M 41 99 L 55 99 L 55 112 L 41 112 Z M 41 99 "/>
</clipPath>
<clipPath id="clip20">
  <path d="M 84.425781 89.070312 C 84.425781 102.140625 73.46875 112.761719 59.980469 112.761719 C 46.457031 112.761719 35.535156 102.140625 35.535156 89.070312 C 35.535156 76.003906 46.496094 65.382812 59.980469 65.382812 C 73.503906 65.382812 84.425781 76.003906 84.425781 89.070312 Z M 84.425781 89.070312 "/>
</clipPath>
<radialGradient id="radial8" gradientUnits="userSpaceOnUse" cx="240.654495" cy="312.636902" fx="240.654495" fy="312.636902" r="27.6723" gradientTransform="matrix(0.371517,0,0,0.368874,-38.469883,-14.948466)">
<stop offset="0" style="stop-color:rgb(14.901961%,14.901961%,14.901961%);stop-opacity:1;"/>
<stop offset="1" style="stop-color:rgb(0%,0%,0%);stop-opacity:1;"/>
</radialGradient>
<clipPath id="clip21">
  <path d="M 51 78 L 69 78 L 69 95 L 51 95 Z M 51 78 "/>
</clipPath>
<clipPath id="clip22">
  <path d="M 84.425781 89.070312 C 84.425781 102.140625 73.46875 112.761719 59.980469 112.761719 C 46.457031 112.761719 35.535156 102.140625 35.535156 89.070312 C 35.535156 76.003906 46.496094 65.382812 59.980469 65.382812 C 73.503906 65.382812 84.425781 76.003906 84.425781 89.070312 Z M 84.425781 89.070312 "/>
</clipPath>
<radialGradient id="radial9" gradientUnits="userSpaceOnUse" cx="266.172394" cy="251.299606" fx="266.172394" fy="251.299606" r="33.246601" gradientTransform="matrix(0.371517,0,0,0.368874,-38.469883,-14.948466)">
<stop offset="0" style="stop-color:rgb(63.137255%,63.137255%,63.137255%);stop-opacity:1;"/>
<stop offset="0.0365829" style="stop-color:rgb(58.039216%,58.039216%,58.039216%);stop-opacity:1;"/>
<stop offset="0.172" style="stop-color:rgb(41.176471%,41.176471%,41.176471%);stop-opacity:1;"/>
<stop offset="0.241" style="stop-color:rgb(34.509804%,34.509804%,34.509804%);stop-opacity:1;"/>
<stop offset="0.5179" style="stop-color:rgb(12.941176%,12.941176%,12.941176%);stop-opacity:1;"/>
<stop offset="0.7088" style="stop-color:rgb(9.019608%,9.019608%,9.019608%);stop-opacity:1;"/>
<stop offset="1" style="stop-color:rgb(0%,0%,0%);stop-opacity:1;"/>
</radialGradient>
<clipPath id="clip23">
  <path d="M 35 65 L 85 65 L 85 113 L 35 113 Z M 35 65 "/>
</clipPath>
<clipPath id="clip24">
  <path d="M 84.425781 89.070312 C 84.425781 102.140625 73.46875 112.761719 59.980469 112.761719 C 46.457031 112.761719 35.535156 102.140625 35.535156 89.070312 C 35.535156 76.003906 46.496094 65.382812 59.980469 65.382812 C 73.503906 65.382812 84.425781 76.003906 84.425781 89.070312 Z M 84.425781 89.070312 "/>
</clipPath>
<filter id="alpha" filterUnits="objectBoundingBox" x="0%" y="0%" width="100%" height="100%">
  <feColorMatrix type="matrix" in="SourceGraphic" values="0 0 0 0 1 0 0 0 0 1 0 0 0 0 1 0 0 0 1 0"/>
</filter>
<mask id="mask0">
  <g filter="url(#alpha)">
<rect x="0" y="0" width="120" height="150" style="fill:rgb(0%,0%,0%);fill-opacity:0.2;stroke:none;"/>
  </g>
</mask>
<linearGradient id="linear0" gradientUnits="userSpaceOnUse" x1="264.239197" y1="251.653" x2="266.579193" y2="274.385986" gradientTransform="matrix(0.371517,0,0,0.371287,-38.470589,-15.111386)">
<stop offset="0" style="stop-color:rgb(100%,100%,100%);stop-opacity:1;"/>
<stop offset="0.1068" style="stop-color:rgb(97.647059%,97.647059%,97.647059%);stop-opacity:1;"/>
<stop offset="0.2437" style="stop-color:rgb(91.372549%,91.372549%,91.372549%);stop-opacity:1;"/>
<stop offset="0.3972" style="stop-color:rgb(81.176471%,81.176471%,81.176471%);stop-opacity:1;"/>
<stop offset="0.5627" style="stop-color:rgb(66.666667%,66.666667%,66.666667%);stop-opacity:1;"/>
<stop offset="0.7379" style="stop-color:rgb(48.235294%,48.235294%,48.235294%);stop-opacity:1;"/>
<stop offset="0.9184" style="stop-color:rgb(25.882353%,25.882353%,25.882353%);stop-opacity:1;"/>
<stop offset="1" style="stop-color:rgb(14.901961%,14.901961%,14.901961%);stop-opacity:1;"/>
</linearGradient>
<clipPath id="clip25">
  <rect x="0" y="0" width="120" height="150"/>
</clipPath>
<g id="surface5" clip-path="url(#clip25)">
<path style=" stroke:none;fill-rule:nonzero;fill:url(#linear0);" d="M 67.523438 85.285156 C 67.859375 85.285156 68.15625 85.285156 68.488281 85.285156 C 68.636719 84.617188 68.710938 84.058594 68.710938 83.6875 C 68.785156 83.207031 60.835938 77.894531 60.203125 77.96875 C 59.535156 78.042969 51.84375 83.726562 51.882812 83.875 C 51.84375 84.023438 52.441406 86.808594 53.109375 89.40625 C 56.785156 86.84375 61.875 85.285156 67.523438 85.285156 Z M 67.523438 85.285156 "/>
</g>
<clipPath id="clip26">
  <path d="M 36 74 L 45 74 L 45 90 L 36 90 Z M 36 74 "/>
</clipPath>
<clipPath id="clip27">
  <path d="M 84.425781 89.070312 C 84.425781 102.140625 73.46875 112.761719 59.980469 112.761719 C 46.457031 112.761719 35.535156 102.140625 35.535156 89.070312 C 35.535156 76.003906 46.496094 65.382812 59.980469 65.382812 C 73.503906 65.382812 84.425781 76.003906 84.425781 89.070312 Z M 84.425781 89.070312 "/>
</clipPath>
<radialGradient id="radial10" gradientUnits="userSpaceOnUse" cx="230.751205" cy="265.242401" fx="230.751205" fy="265.242401" r="31.100201" gradientTransform="matrix(0.371517,0,0,0.368874,-38.469883,-14.948466)">
<stop offset="0" style="stop-color:rgb(14.901961%,14.901961%,14.901961%);stop-opacity:1;"/>
<stop offset="0.3119" style="stop-color:rgb(12.54902%,12.54902%,12.54902%);stop-opacity:1;"/>
<stop offset="0.7368" style="stop-color:rgb(5.490196%,5.490196%,5.490196%);stop-opacity:1;"/>
<stop offset="1" style="stop-color:rgb(0%,0%,0%);stop-opacity:1;"/>
</radialGradient>
<clipPath id="clip28">
  <path d="M 43 67 L 61 67 L 61 84 L 43 84 Z M 43 67 "/>
</clipPath>
<clipPath id="clip29">
  <path d="M 84.425781 89.070312 C 84.425781 102.140625 73.46875 112.761719 59.980469 112.761719 C 46.457031 112.761719 35.535156 102.140625 35.535156 89.070312 C 35.535156 76.003906 46.496094 65.382812 59.980469 65.382812 C 73.503906 65.382812 84.425781 76.003906 84.425781 89.070312 Z M 84.425781 89.070312 "/>
</clipPath>
<radialGradient id="radial11" gradientUnits="userSpaceOnUse" cx="245.260895" cy="248.206299" fx="245.260895" fy="248.206299" r="24.829201" gradientTransform="matrix(0.371517,0,0,0.368874,-38.469883,-14.948466)">
<stop offset="0.1371" style="stop-color:rgb(96.862745%,96.862745%,96.862745%);stop-opacity:1;"/>
<stop offset="1" style="stop-color:rgb(87.058824%,87.058824%,87.058824%);stop-opacity:1;"/>
</radialGradient>
<clipPath id="clip30">
  <path d="M 51 65 L 69 65 L 69 71 L 51 71 Z M 51 65 "/>
</clipPath>
<clipPath id="clip31">
  <path d="M 84.425781 89.070312 C 84.425781 102.140625 73.46875 112.761719 59.980469 112.761719 C 46.457031 112.761719 35.535156 102.140625 35.535156 89.070312 C 35.535156 76.003906 46.496094 65.382812 59.980469 65.382812 C 73.503906 65.382812 84.425781 76.003906 84.425781 89.070312 Z M 84.425781 89.070312 "/>
</clipPath>
<radialGradient id="radial12" gradientUnits="userSpaceOnUse" cx="266.08609" cy="231.180695" fx="266.08609" fy="231.180695" r="15.9026" gradientTransform="matrix(0.371517,0,0,0.368874,-38.469883,-14.948466)">
<stop offset="0.2233" style="stop-color:rgb(14.901961%,14.901961%,14.901961%);stop-opacity:1;"/>
<stop offset="0.4656" style="stop-color:rgb(12.54902%,12.54902%,12.54902%);stop-opacity:1;"/>
<stop offset="0.7956" style="stop-color:rgb(5.490196%,5.490196%,5.490196%);stop-opacity:1;"/>
<stop offset="1" style="stop-color:rgb(0%,0%,0%);stop-opacity:1;"/>
</radialGradient>
<clipPath id="clip32">
  <path d="M 49 93 L 71 93 L 71 110 L 49 110 Z M 49 93 "/>
</clipPath>
<clipPath id="clip33">
  <path d="M 84.425781 89.070312 C 84.425781 102.140625 73.46875 112.761719 59.980469 112.761719 C 46.457031 112.761719 35.535156 102.140625 35.535156 89.070312 C 35.535156 76.003906 46.496094 65.382812 59.980469 65.382812 C 73.503906 65.382812 84.425781 76.003906 84.425781 89.070312 Z M 84.425781 89.070312 "/>
</clipPath>
<radialGradient id="radial13" gradientUnits="userSpaceOnUse" cx="261.876495" cy="292.1203" fx="261.876495" fy="292.1203" r="42.095798" gradientTransform="matrix(0.371517,0,0,0.368874,-38.469883,-14.948466)">
<stop offset="0.3655" style="stop-color:rgb(96.862745%,96.862745%,96.862745%);stop-opacity:1;"/>
<stop offset="1" style="stop-color:rgb(85.098039%,85.098039%,85.098039%);stop-opacity:1;"/>
</radialGradient>
<clipPath id="clip34">
  <path d="M 38 81 L 55 81 L 55 102 L 38 102 Z M 38 81 "/>
</clipPath>
<clipPath id="clip35">
  <path d="M 84.425781 89.070312 C 84.425781 102.140625 73.46875 112.761719 59.980469 112.761719 C 46.457031 112.761719 35.535156 102.140625 35.535156 89.070312 C 35.535156 76.003906 46.496094 65.382812 59.980469 65.382812 C 73.503906 65.382812 84.425781 76.003906 84.425781 89.070312 Z M 84.425781 89.070312 "/>
</clipPath>
<radialGradient id="radial14" gradientUnits="userSpaceOnUse" cx="220.477493" cy="280.955414" fx="220.477493" fy="280.955414" r="37.518101" gradientTransform="matrix(0.371517,0,0,0.368874,-38.469883,-14.948466)">
<stop offset="0.0609137" style="stop-color:rgb(96.862745%,96.862745%,96.862745%);stop-opacity:1;"/>
<stop offset="1" style="stop-color:rgb(83.921569%,83.921569%,83.921569%);stop-opacity:1;"/>
</radialGradient>
<clipPath id="clip36">
  <path d="M 76 73 L 85 73 L 85 89 L 76 89 Z M 76 73 "/>
</clipPath>
<clipPath id="clip37">
  <path d="M 84.425781 89.070312 C 84.425781 102.140625 73.46875 112.761719 59.980469 112.761719 C 46.457031 112.761719 35.535156 102.140625 35.535156 89.070312 C 35.535156 76.003906 46.496094 65.382812 59.980469 65.382812 C 73.503906 65.382812 84.425781 76.003906 84.425781 89.070312 Z M 84.425781 89.070312 "/>
</clipPath>
<radialGradient id="radial15" gradientUnits="userSpaceOnUse" cx="301.844086" cy="264.888" fx="301.844086" fy="264.888" r="25.0686" gradientTransform="matrix(0.371517,0,0,0.368874,-38.469883,-14.948466)">
<stop offset="0" style="stop-color:rgb(14.901961%,14.901961%,14.901961%);stop-opacity:1;"/>
<stop offset="0.3119" style="stop-color:rgb(12.54902%,12.54902%,12.54902%);stop-opacity:1;"/>
<stop offset="0.7368" style="stop-color:rgb(5.490196%,5.490196%,5.490196%);stop-opacity:1;"/>
<stop offset="1" style="stop-color:rgb(0%,0%,0%);stop-opacity:1;"/>
</radialGradient>
<clipPath id="clip38">
  <path d="M 60 67 L 78 67 L 78 84 L 60 84 Z M 60 67 "/>
</clipPath>
<clipPath id="clip39">
  <path d="M 84.425781 89.070312 C 84.425781 102.140625 73.46875 112.761719 59.980469 112.761719 C 46.457031 112.761719 35.535156 102.140625 35.535156 89.070312 C 35.535156 76.003906 46.496094 65.382812 59.980469 65.382812 C 73.503906 65.382812 84.425781 76.003906 84.425781 89.070312 Z M 84.425781 89.070312 "/>
</clipPath>
<radialGradient id="radial16" gradientUnits="userSpaceOnUse" cx="276.112915" cy="257.816101" fx="276.112915" fy="257.816101" r="33.807899" gradientTransform="matrix(0.371517,0,0,0.368874,-38.469883,-14.948466)">
<stop offset="0.3706" style="stop-color:rgb(96.862745%,96.862745%,96.862745%);stop-opacity:1;"/>
<stop offset="1" style="stop-color:rgb(83.921569%,83.921569%,83.921569%);stop-opacity:1;"/>
</radialGradient>
</defs>
<g id="surface1">
<path style=" stroke:none;fill-rule:nonzero;fill:rgb(100%,100%,100%);fill-opacity:1;" d="M 119.125 0.964844 L 0.875 0.964844 L 0.875 90.335938 C 0.875 122.746094 27.324219 149.035156 59.980469 149.035156 C 92.636719 149.035156 119.089844 122.746094 119.089844 90.335938 L 119.089844 0.964844 Z M 119.125 0.964844 "/>
<path style=" stroke:none;fill-rule:nonzero;fill:url(#radial0);" d="M 84.613281 89.109375 C 84.613281 102.253906 73.617188 112.910156 60.019531 112.910156 C 46.421875 112.910156 35.425781 102.253906 35.425781 89.109375 C 35.425781 75.964844 46.421875 65.308594 60.019531 65.308594 C 73.578125 65.308594 84.613281 75.964844 84.613281 89.109375 Z M 84.613281 89.109375 "/>
<path style=" stroke:none;fill-rule:nonzero;fill:rgb(100%,100%,100%);fill-opacity:1;" d="M 54.855469 108.789062 C 57.753906 109.976562 63.585938 109.234375 65.332031 108.863281 C 64.664062 109.382812 57.753906 110.496094 54.855469 108.789062 Z M 54.855469 108.789062 "/>
<g clip-path="url(#clip1)" clip-rule="nonzero">
<g clip-path="url(#clip2)" clip-rule="nonzero">
<path style=" stroke:none;fill-rule:nonzero;fill:rgb(85.09804%,85.09804%,85.09804%);fill-opacity:1;" d="M 35.945312 89.925781 C 35.945312 103.292969 46.792969 113.6875 60.242188 113.6875 C 73.691406 113.6875 84.425781 102.476562 84.425781 89.109375 C 84.425781 75.742188 73.578125 64.492188 60.128906 64.492188 C 46.679688 64.492188 35.945312 76.558594 35.945312 89.925781 Z M 35.945312 89.925781 "/>
</g>
</g>
<g clip-path="url(#clip3)" clip-rule="nonzero">
<g clip-path="url(#clip4)" clip-rule="nonzero">
<path style=" stroke:none;fill-rule:nonzero;fill:url(#radial1);" d="M 76.515625 81.832031 C 76.515625 81.832031 80.824219 85.542969 81.457031 89.367188 C 81.457031 89.367188 80.898438 97.277344 78 99.132812 C 78 99.132812 71.5 101.992188 70.496094 101.25 L 65.480469 93.789062 C 65.480469 93.789062 68.75 85.65625 68.675781 83.578125 C 69.679688 83.613281 76.515625 81.832031 76.515625 81.832031 Z M 76.515625 81.832031 "/>
</g>
</g>
<g clip-path="url(#clip5)" clip-rule="nonzero">
<g clip-path="url(#clip6)" clip-rule="nonzero">
<path style=" stroke:none;fill-rule:nonzero;fill:url(#radial2);" d="M 66.371094 112.761719 C 62.136719 113.761719 54.445312 114.207031 49.914062 111.199219 C 49.914062 111.199219 54.113281 109.53125 54.855469 108.789062 C 54.855469 108.789062 61.429688 110.53125 65.332031 108.863281 L 70.160156 111.089844 C 70.125 111.089844 69.121094 112.089844 66.371094 112.761719 Z M 66.371094 112.761719 "/>
</g>
</g>
<g clip-path="url(#clip7)" clip-rule="nonzero">
<g clip-path="url(#clip8)" clip-rule="nonzero">
<path style=" stroke:none;fill-rule:nonzero;fill:url(#radial3);" d="M 77.960938 99.058594 C 77.960938 99.058594 79.746094 101.210938 77.515625 105.59375 C 75.398438 108.675781 70.125 111.050781 70.125 111.050781 C 70.125 111.050781 66.742188 109.828125 65.292969 108.824219 C 66.59375 107.265625 69.046875 104.664062 70.496094 101.25 C 70.496094 101.25 74.246094 101.0625 77.960938 99.058594 Z M 77.960938 99.058594 "/>
</g>
</g>
<g clip-path="url(#clip9)" clip-rule="nonzero">
<g clip-path="url(#clip10)" clip-rule="nonzero">
<path style=" stroke:none;fill-rule:nonzero;fill:url(#radial4);" d="M 81.34375 88.8125 C 83.238281 87.921875 83.871094 86.695312 84.167969 86.027344 C 85.542969 88.699219 82.679688 101.808594 77.515625 105.59375 C 77.515625 105.59375 79.410156 102.179688 78 99.132812 C 77.703125 98.875 80.785156 95.828125 81.34375 88.8125 Z M 81.34375 88.8125 "/>
</g>
</g>
<g clip-path="url(#clip11)" clip-rule="nonzero">
<g clip-path="url(#clip12)" clip-rule="nonzero">
<path style=" stroke:none;fill-rule:nonzero;fill:url(#radial5);" d="M 64.921875 65.308594 C 67.410156 66.570312 68.230469 67.871094 68.230469 67.871094 C 68.230469 67.871094 74.804688 72.847656 76.179688 73.625 C 76.179688 73.625 80.191406 75.78125 80.527344 75.964844 C 79.375 74.109375 74.953125 67.238281 64.921875 65.308594 Z M 64.921875 65.308594 "/>
</g>
</g>
<g clip-path="url(#clip13)" clip-rule="nonzero">
<g clip-path="url(#clip14)" clip-rule="nonzero">
<path style=" stroke:none;fill-rule:nonzero;fill:url(#radial6);" d="M 38.097656 78.191406 C 38.097656 78.191406 41.886719 74.515625 43.558594 74.257812 C 43.933594 73.773438 48.128906 69.058594 51.957031 67.984375 C 51.957031 67.984375 53.851562 65.570312 54.558594 65.234375 C 46.496094 66.496094 39.472656 73.550781 38.097656 78.191406 Z M 38.097656 78.191406 "/>
</g>
</g>
<g clip-path="url(#clip15)" clip-rule="nonzero">
<g clip-path="url(#clip16)" clip-rule="nonzero">
<path style=" stroke:none;fill-rule:nonzero;fill:url(#radial7);" d="M 41.703125 99.058594 C 41.703125 99.058594 40.8125 102.03125 42.1875 104.441406 C 42 104.367188 40.921875 104.257812 40.921875 104.257812 C 31.933594 90.222656 36.425781 82.5 37.429688 79.605469 C 37.429688 79.605469 36.203125 85.210938 36.648438 86.695312 C 37.097656 88.179688 39.027344 89.367188 39.027344 89.367188 C 39.027344 89.367188 40.8125 97.796875 41.703125 99.058594 Z M 41.703125 99.058594 "/>
</g>
</g>
<g clip-path="url(#clip17)" clip-rule="nonzero">
<g clip-path="url(#clip18)" clip-rule="nonzero">
<path style=" stroke:none;fill-rule:nonzero;fill:rgb(76.47059%,76.862746%,77.64706%);fill-opacity:1;" d="M 50.582031 110.902344 L 49.914062 111.199219 C 49.914062 111.199219 44.933594 109.640625 40.921875 104.292969 L 42 104.441406 L 47.277344 105.484375 Z M 50.582031 110.902344 "/>
</g>
</g>
<g clip-path="url(#clip19)" clip-rule="nonzero">
<g clip-path="url(#clip20)" clip-rule="nonzero">
<path style=" stroke:none;fill-rule:nonzero;fill:url(#radial8);" d="M 41.703125 99.058594 C 41.703125 99.058594 48.167969 102.105469 49.988281 101.4375 C 49.875 102.476562 54.484375 108.710938 54.855469 108.789062 C 54.855469 108.789062 52.476562 110.605469 50.171875 111.125 C 48.835938 110.605469 43.078125 106.300781 42.039062 104.441406 C 40.738281 101.734375 41.40625 99.726562 41.703125 99.058594 Z M 41.703125 99.058594 "/>
</g>
</g>
<g clip-path="url(#clip21)" clip-rule="nonzero">
<g clip-path="url(#clip22)" clip-rule="nonzero">
<path style=" stroke:none;fill-rule:nonzero;fill:url(#radial9);" d="M 60.167969 78.007812 C 59.5 78.082031 51.808594 83.761719 51.84375 83.910156 C 51.808594 84.207031 53.851562 93.675781 54.855469 93.863281 C 56.601562 94.417969 64.253906 94.457031 65.515625 93.824219 C 66.335938 92.820312 68.75 85.691406 68.710938 83.761719 C 68.75 83.242188 60.835938 77.933594 60.167969 78.007812 Z M 60.167969 78.007812 "/>
</g>
</g>
<g clip-path="url(#clip23)" clip-rule="nonzero">
<g clip-path="url(#clip24)" clip-rule="nonzero">
<use xlink:href="#surface5" mask="url(#mask0)"/>
</g>
</g>
<g clip-path="url(#clip26)" clip-rule="nonzero">
<g clip-path="url(#clip27)" clip-rule="nonzero">
<path style=" stroke:none;fill-rule:nonzero;fill:url(#radial10);" d="M 43.449219 74.070312 C 43.449219 74.070312 43.003906 78.863281 44.007812 81.867188 C 42.890625 82.351562 38.878906 87.957031 38.992188 89.40625 C 38.992188 89.40625 37.058594 88.550781 36.5 86.472656 C 35.945312 84.394531 36.835938 74.851562 43.449219 74.070312 Z M 43.449219 74.070312 "/>
</g>
</g>
<g clip-path="url(#clip28)" clip-rule="nonzero">
<g clip-path="url(#clip29)" clip-rule="nonzero">
<path style=" stroke:none;fill-rule:nonzero;fill:url(#radial11);" d="M 43.261719 74.070312 C 43.261719 74.070312 43.152344 81.980469 44.007812 81.832031 C 44.898438 81.71875 51.289062 83.835938 51.84375 83.875 C 52.921875 83.503906 58.53125 78.527344 60.167969 77.96875 C 60.796875 77.671875 60.351562 70.433594 60.390625 70.285156 C 60.390625 70.285156 56.15625 67.574219 51.957031 67.945312 C 51.957031 67.984375 44.824219 70.171875 43.261719 74.070312 Z M 43.261719 74.070312 "/>
</g>
</g>
<g clip-path="url(#clip30)" clip-rule="nonzero">
<g clip-path="url(#clip31)" clip-rule="nonzero">
<path style=" stroke:none;fill-rule:nonzero;fill:url(#radial12);" d="M 68.265625 67.871094 C 68.265625 67.871094 66.929688 65.867188 64.402344 65.125 C 62.878906 64.566406 55.707031 64.492188 54.632812 65.234375 C 54.632812 65.234375 53.480469 65.570312 51.917969 68.019531 C 56.082031 67.722656 60.351562 70.359375 60.351562 70.359375 C 60.351562 70.359375 64.550781 68.613281 68.265625 67.871094 Z M 68.265625 67.871094 "/>
</g>
</g>
<g clip-path="url(#clip32)" clip-rule="nonzero">
<g clip-path="url(#clip33)" clip-rule="nonzero">
<path style=" stroke:none;fill-rule:nonzero;fill:url(#radial13);" d="M 49.914062 101.398438 C 50.285156 100.953125 54.816406 93.789062 54.816406 93.789062 L 65.480469 93.789062 L 70.496094 101.25 C 70.496094 101.25 67.894531 107.820312 65.292969 108.824219 C 63.84375 109.382812 59.015625 110.457031 54.816406 108.75 C 52.402344 106.484375 49.542969 101.84375 49.914062 101.398438 Z M 49.914062 101.398438 "/>
</g>
</g>
<g clip-path="url(#clip34)" clip-rule="nonzero">
<g clip-path="url(#clip35)" clip-rule="nonzero">
<path style=" stroke:none;fill-rule:nonzero;fill:url(#radial14);" d="M 38.992188 89.183594 C 38.433594 92.414062 41.664062 99.058594 41.664062 99.058594 C 41.664062 99.058594 47.648438 101.808594 49.875 101.472656 L 54.816406 93.75 C 54.816406 93.75 52.253906 87.140625 51.808594 83.875 C 45.121094 81.644531 43.820312 81.757812 43.820312 81.757812 C 43.820312 81.757812 39.546875 85.953125 38.992188 89.183594 Z M 38.992188 89.183594 "/>
</g>
</g>
<g clip-path="url(#clip36)" clip-rule="nonzero">
<g clip-path="url(#clip37)" clip-rule="nonzero">
<path style=" stroke:none;fill-rule:nonzero;fill:url(#radial15);" d="M 76.179688 73.589844 C 76.179688 73.589844 77.664062 79.863281 76.550781 81.980469 C 78.855469 83.949219 81.378906 88.960938 81.378906 88.960938 C 81.378906 88.960938 83.796875 88.253906 84.203125 86.175781 C 83.90625 83.019531 82.011719 77.152344 80.304688 75.742188 C 79.410156 74.738281 76.179688 73.589844 76.179688 73.589844 Z M 76.179688 73.589844 "/>
</g>
</g>
<g clip-path="url(#clip38)" clip-rule="nonzero">
<g clip-path="url(#clip39)" clip-rule="nonzero">
<path style=" stroke:none;fill-rule:nonzero;fill:url(#radial16);" d="M 76.515625 81.832031 C 76.328125 82.238281 68.304688 83.761719 68.675781 83.6875 C 69.046875 83.613281 60.167969 77.96875 60.167969 77.96875 C 60.167969 77.96875 60.09375 70.953125 60.167969 70.320312 C 60.242188 69.691406 66.371094 67.539062 68.230469 67.835938 C 70.421875 68.132812 76.105469 73.441406 76.105469 73.441406 C 76.105469 73.441406 78.519531 77.746094 76.515625 81.832031 Z M 76.515625 81.832031 "/>
</g>
</g>
<path style=" stroke:none;fill-rule:nonzero;fill:rgb(100%,100%,100%);fill-opacity:1;" d="M 41.703125 99.058594 C 41.703125 99.058594 47.722656 101.808594 49.726562 101.695312 C 51.660156 105.707031 54.855469 108.789062 54.855469 108.789062 C 54.855469 108.789062 49.578125 101.769531 50.246094 101.769531 C 50.730469 101.027344 54.707031 94.011719 54.855469 93.824219 C 54.855469 93.824219 49.914062 100.804688 49.578125 101.324219 C 49.800781 101.84375 42.335938 99.320312 41.703125 99.058594 Z M 41.703125 99.058594 "/>
<path style=" stroke:none;fill-rule:nonzero;fill:rgb(100%,100%,100%);fill-opacity:1;" d="M 38.992188 89.367188 C 38.992188 89.367188 39.140625 95.605469 41.664062 99.058594 C 40.699219 98.019531 39.027344 90.113281 38.992188 89.367188 Z M 38.992188 89.367188 "/>
<path style=" stroke:none;fill-rule:nonzero;fill:rgb(100%,100%,100%);fill-opacity:1;" d="M 43.859375 81.792969 L 51.84375 83.910156 L 60.167969 78.007812 L 60.167969 70.246094 L 59.871094 77.820312 L 51.84375 83.539062 Z M 43.859375 81.792969 "/>
<path style=" stroke:none;fill-rule:nonzero;fill:rgb(100%,100%,100%);fill-opacity:1;" d="M 76.515625 81.832031 C 76.515625 81.832031 69.046875 83.726562 68.785156 83.6875 C 68.488281 83.6875 76.179688 81.683594 76.515625 81.832031 Z M 76.515625 81.832031 "/>
<path style=" stroke:none;fill-rule:nonzero;fill:rgb(100%,100%,100%);fill-opacity:1;" d="M 81.34375 89.070312 C 81.34375 89.070312 78.371094 98.464844 78.074219 98.949219 C 78.484375 99.578125 81.605469 89.589844 81.304688 89.109375 "/>
<path style=" stroke:none;fill-rule:nonzero;fill:rgb(100%,100%,100%);fill-opacity:1;" d="M 65.480469 93.789062 C 65.480469 93.789062 70.234375 101.175781 70.496094 101.25 C 70.792969 101.324219 65.960938 93.789062 65.480469 93.789062 Z M 65.480469 93.789062 "/>
<path style=" stroke:none;fill-rule:nonzero;fill:rgb(93.725491%,92.941177%,92.941177%);fill-opacity:1;" d="M 53.144531 66.3125 C 53.144531 66.3125 45.457031 68.875 43.261719 74.070312 C 48.054688 67.648438 53.144531 66.3125 53.144531 66.3125 Z M 53.144531 66.3125 "/>
<path style=" stroke:none;fill-rule:nonzero;fill:rgb(25.882354%,25.882354%,25.882354%);fill-opacity:1;" d="M 60.277344 78.601562 C 60.277344 78.601562 52.960938 83.726562 52.773438 84.058594 C 52.589844 84.429688 54.78125 92.785156 55.152344 93.304688 C 55.523438 93.789062 53.070312 86.472656 53.292969 84.207031 Z M 60.277344 78.601562 "/>
<path style=" stroke:none;fill-rule:nonzero;fill:rgb(0%,0%,0%);fill-opacity:1;" d="M 52.699219 83.835938 L 60.09375 78.5625 C 60.128906 78.5625 52.699219 83.355469 52.699219 83.835938 Z M 52.699219 83.835938 "/>
<path style=" stroke:none;fill-rule:nonzero;fill:rgb(80.784315%,79.215688%,79.215688%);fill-opacity:1;" d="M 43.820312 81.90625 L 51.621094 84.023438 C 51.621094 84.023438 45.566406 82.796875 43.820312 81.90625 Z M 43.820312 81.90625 "/>
<path style=" stroke:none;fill-rule:nonzero;fill:rgb(0%,61.960787%,85.882354%);fill-opacity:1;" d="M 105.863281 13.921875 L 105.863281 90.519531 C 105.863281 115.617188 85.28125 136.039062 60.019531 136.039062 C 34.71875 136.039062 14.171875 115.617188 14.171875 90.519531 L 14.171875 13.921875 L 105.863281 13.921875 M 119.90625 0 L 0.09375 0 L 0.09375 90.519531 C 0.09375 123.378906 26.917969 150 59.980469 150 C 93.082031 150 119.871094 123.378906 119.871094 90.519531 L 119.871094 0 Z M 119.90625 0 "/>
<path style=" stroke:none;fill-rule:nonzero;fill:rgb(100%,100%,100%);fill-opacity:1;" d="M 2.917969 66.386719 C 2.917969 67.425781 3.101562 68.242188 3.511719 68.800781 C 3.917969 69.355469 4.476562 69.652344 5.257812 69.652344 C 5.703125 69.652344 6.113281 69.503906 6.445312 69.246094 C 6.78125 68.949219 7.003906 68.539062 7.113281 67.984375 C 7.261719 68.390625 7.484375 68.6875 7.785156 68.910156 C 8.082031 69.132812 8.414062 69.246094 8.785156 69.246094 C 9.53125 69.246094 10.050781 68.949219 10.421875 68.355469 C 10.792969 67.761719 10.976562 66.941406 10.976562 65.867188 L 10.976562 62.933594 L 2.953125 62.933594 L 2.953125 66.386719 Z M 9.679688 64.714844 L 9.679688 65.867188 C 9.679688 66.386719 9.605469 66.757812 9.417969 67.015625 C 9.230469 67.277344 8.972656 67.425781 8.601562 67.425781 C 8.265625 67.425781 8.007812 67.3125 7.820312 67.054688 C 7.632812 66.792969 7.558594 66.421875 7.558594 65.941406 L 7.558594 64.714844 Z M 6.445312 66.386719 C 6.445312 66.867188 6.335938 67.238281 6.148438 67.5 C 5.925781 67.761719 5.628906 67.871094 5.257812 67.871094 C 4.886719 67.871094 4.625 67.761719 4.441406 67.5 C 4.253906 67.238281 4.179688 66.867188 4.179688 66.421875 L 4.179688 64.714844 L 6.484375 64.714844 L 6.484375 66.386719 Z M 6.445312 66.386719 "/>
<path style=" stroke:none;fill-rule:nonzero;fill:rgb(100%,100%,100%);fill-opacity:1;" d="M 2.917969 76.226562 L 2.917969 78.117188 L 10.941406 75.113281 L 10.941406 73.253906 L 2.917969 70.246094 L 2.917969 72.140625 L 4.664062 72.734375 L 4.664062 75.632812 Z M 8.710938 74.183594 L 5.886719 75.222656 L 5.886719 73.179688 Z M 8.710938 74.183594 "/>
<path style=" stroke:none;fill-rule:nonzero;fill:rgb(100%,100%,100%);fill-opacity:1;" d="M 10.941406 86.210938 L 10.941406 84.429688 L 5.515625 84.429688 L 5.515625 84.394531 L 10.941406 80.792969 L 10.941406 79.011719 L 2.917969 79.011719 L 2.917969 80.792969 L 8.339844 80.792969 L 8.339844 80.828125 L 2.917969 84.429688 L 2.917969 86.210938 Z M 10.941406 86.210938 "/>
<path style=" stroke:none;fill-rule:nonzero;fill:rgb(100%,100%,100%);fill-opacity:1;" d="M 7.300781 94.714844 L 7.152344 92.96875 C 7.113281 92.375 7.113281 91.78125 7.113281 91.226562 L 6 91.261719 L 6.039062 93.007812 L 4.476562 93.082031 C 4.367188 92.933594 4.253906 92.746094 4.179688 92.488281 C 4.105469 92.226562 4.03125 91.894531 4.03125 91.410156 C 4.03125 90.816406 4.179688 90.296875 4.589844 89.960938 C 4.960938 89.628906 5.480469 89.441406 6.074219 89.441406 L 7.746094 89.441406 C 8.339844 89.441406 8.824219 89.628906 9.230469 89.960938 C 9.605469 90.296875 9.828125 90.707031 9.828125 91.226562 C 9.828125 91.707031 9.714844 92.117188 9.492188 92.375 C 9.269531 92.636719 8.933594 92.785156 8.527344 92.820312 L 8.636719 94.457031 L 8.675781 94.457031 C 9.457031 94.417969 10.050781 94.085938 10.457031 93.527344 C 10.679688 93.230469 10.792969 92.894531 10.902344 92.523438 C 11.015625 92.117188 11.050781 91.671875 11.050781 91.1875 C 11.015625 90.261719 10.71875 89.367188 10.125 88.699219 C 9.53125 88.03125 8.710938 87.699219 7.746094 87.699219 L 6.074219 87.699219 C 5.109375 87.699219 4.292969 88.03125 3.695312 88.738281 C 3.398438 89.070312 3.175781 89.480469 3.027344 89.925781 C 2.878906 90.371094 2.804688 90.929688 2.84375 91.484375 C 2.878906 92.414062 2.992188 93.191406 3.289062 93.75 C 3.585938 94.34375 3.882812 94.753906 4.253906 95.011719 Z M 7.300781 94.714844 "/>
<path style=" stroke:none;fill-rule:nonzero;fill:rgb(100%,100%,100%);fill-opacity:1;" d="M 11.5 97.460938 L 11.277344 95.828125 L 3.289062 96.757812 C 3.4375 97.796875 3.546875 98.835938 3.734375 99.839844 L 3.992188 101.363281 C 4.105469 101.882812 4.214844 102.363281 4.328125 102.882812 L 5.515625 102.625 C 5.183594 101.25 4.960938 99.875 4.699219 98.464844 Z M 11.5 97.460938 "/>
<path style=" stroke:none;fill-rule:nonzero;fill:rgb(100%,100%,100%);fill-opacity:1;" d="M 6.371094 109.679688 L 7.113281 111.570312 C 9.195312 109.566406 11.3125 107.710938 13.578125 105.964844 C 13.394531 105.410156 13.207031 104.886719 13.058594 104.332031 C 11.648438 104.257812 10.234375 104.183594 8.785156 104.035156 C 8.082031 103.960938 7.335938 103.886719 6.632812 103.8125 C 5.925781 103.738281 5.21875 103.625 4.515625 103.515625 C 4.664062 104.183594 4.847656 104.8125 5.035156 105.484375 L 6.890625 105.632812 C 7.152344 106.597656 7.523438 107.5625 7.820312 108.527344 C 7.335938 108.863281 6.855469 109.269531 6.371094 109.679688 Z M 11.203125 105.78125 C 10.421875 106.410156 9.640625 107.003906 8.859375 107.636719 C 8.636719 106.96875 8.378906 106.335938 8.230469 105.667969 C 9.195312 105.742188 10.199219 105.78125 11.203125 105.78125 Z M 11.203125 105.78125 "/>
<path style=" stroke:none;fill-rule:nonzero;fill:rgb(100%,100%,100%);fill-opacity:1;" d="M 8.898438 115.46875 C 9.417969 116.511719 10.160156 117.253906 11.089844 117.585938 C 12.019531 117.921875 12.875 117.847656 13.726562 117.328125 L 14.878906 116.660156 C 15.734375 116.175781 16.253906 115.46875 16.441406 114.578125 C 16.625 113.6875 16.550781 112.796875 16.066406 111.90625 L 15.734375 111.273438 L 15.4375 110.605469 L 14.84375 109.308594 L 7.449219 112.425781 L 8.15625 113.949219 L 8.488281 114.726562 Z M 14.992188 112.460938 C 15.25 112.945312 15.289062 113.464844 15.101562 113.949219 C 14.917969 114.429688 14.542969 114.839844 14.023438 115.136719 L 12.835938 115.765625 C 12.277344 116.0625 11.757812 116.136719 11.238281 115.988281 C 10.71875 115.839844 10.308594 115.46875 10.011719 114.914062 C 9.789062 114.503906 9.566406 114.097656 9.378906 113.652344 L 14.394531 111.3125 C 14.582031 111.71875 14.769531 112.089844 14.992188 112.460938 Z M 14.992188 112.460938 "/>
<path style=" stroke:none;fill-rule:nonzero;fill:rgb(100%,100%,100%);fill-opacity:1;" d="M 18.632812 121.96875 C 17.925781 121.113281 17.332031 120.222656 16.699219 119.332031 L 18.371094 118.21875 L 19.449219 119.738281 C 19.820312 120.261719 20.230469 120.742188 20.601562 121.226562 L 21.566406 120.445312 L 20.75 119.40625 L 19.96875 118.328125 C 19.707031 117.957031 19.449219 117.625 19.1875 117.253906 L 18.484375 116.136719 L 11.683594 120.371094 L 12.539062 121.671875 C 12.835938 122.117188 13.132812 122.523438 13.429688 122.933594 C 13.726562 123.339844 14.023438 123.789062 14.320312 124.195312 L 15.289062 125.421875 L 16.253906 124.640625 C 15.84375 124.085938 15.363281 123.5625 14.992188 123.007812 L 13.765625 121.300781 L 15.660156 120.039062 C 16.328125 120.929688 16.921875 121.894531 17.664062 122.746094 Z M 18.632812 121.96875 "/>
<path style=" stroke:none;fill-rule:nonzero;fill:rgb(100%,100%,100%);fill-opacity:1;" d="M 20.230469 128.910156 C 19.933594 128.835938 19.597656 128.613281 19.226562 128.242188 C 18.855469 127.835938 18.59375 127.425781 18.558594 127.054688 C 18.519531 126.644531 18.667969 126.3125 19.003906 125.976562 L 17.8125 124.640625 L 17.777344 124.640625 C 17.109375 125.160156 16.847656 125.828125 16.996094 126.683594 C 17.144531 127.5 17.554688 128.355469 18.296875 129.097656 C 19.039062 129.875 19.785156 130.359375 20.527344 130.507812 C 21.269531 130.65625 21.863281 130.46875 22.347656 129.988281 C 22.792969 129.503906 22.976562 128.949219 22.867188 128.28125 C 22.828125 127.945312 22.71875 127.613281 22.570312 127.238281 C 22.421875 126.867188 22.234375 126.460938 21.976562 126.015625 C 21.679688 125.421875 21.492188 124.976562 21.457031 124.679688 C 21.417969 124.382812 21.492188 124.121094 21.714844 123.9375 C 21.9375 123.75 22.199219 123.675781 22.496094 123.710938 C 22.792969 123.75 23.089844 123.9375 23.386719 124.234375 C 23.722656 124.566406 23.871094 124.902344 23.90625 125.234375 C 23.945312 125.570312 23.796875 125.867188 23.535156 126.164062 C 23.945312 126.570312 24.351562 126.941406 24.761719 127.351562 L 24.796875 127.351562 C 25.320312 126.832031 25.503906 126.199219 25.394531 125.496094 C 25.28125 124.789062 24.949219 124.085938 24.316406 123.453125 C 23.683594 122.859375 23.089844 122.414062 22.421875 122.265625 C 21.714844 122.117188 21.121094 122.226562 20.636719 122.636719 C 20.117188 123.042969 19.894531 123.5625 19.96875 124.234375 C 20.042969 124.863281 20.265625 125.71875 20.824219 126.644531 C 21.121094 127.203125 21.304688 127.648438 21.34375 127.945312 C 21.378906 128.242188 21.304688 128.503906 21.082031 128.726562 C 20.824219 128.910156 20.5625 128.984375 20.230469 128.910156 Z M 20.230469 128.910156 "/>
<path style=" stroke:none;fill-rule:nonzero;fill:rgb(100%,100%,100%);fill-opacity:1;" d="M 32.675781 130.617188 C 32.230469 130.320312 31.746094 129.988281 31.300781 129.652344 L 29.292969 132.4375 L 28.550781 131.917969 L 27.84375 131.363281 C 27.363281 130.988281 26.878906 130.617188 26.433594 130.246094 L 28.664062 127.613281 L 27.398438 126.535156 L 22.050781 132.476562 L 23.535156 133.738281 L 25.691406 131.175781 C 26.171875 131.585938 26.65625 131.957031 27.140625 132.328125 L 27.882812 132.882812 L 28.625 133.402344 L 26.65625 136.078125 C 27.175781 136.449219 27.695312 136.820312 28.253906 137.191406 Z M 32.675781 130.617188 "/>
<path style=" stroke:none;fill-rule:nonzero;fill:rgb(100%,100%,100%);fill-opacity:1;" d="M 39.511719 138.191406 L 37.949219 137.488281 L 37.171875 137.117188 L 36.390625 136.746094 L 37.394531 134.777344 C 37.691406 134.925781 37.949219 135.074219 38.246094 135.222656 L 39.140625 135.632812 C 39.734375 135.890625 40.328125 136.1875 40.921875 136.410156 L 41.40625 135.261719 C 40.550781 134.925781 39.734375 134.515625 38.917969 134.183594 C 38.097656 133.773438 37.28125 133.367188 36.5 132.957031 L 32.636719 139.9375 C 33.195312 140.234375 33.789062 140.53125 34.382812 140.828125 L 35.871094 137.859375 L 36.648438 138.265625 L 37.429688 138.636719 L 39.027344 139.34375 Z M 39.511719 138.191406 "/>
<path style=" stroke:none;fill-rule:nonzero;fill:rgb(100%,100%,100%);fill-opacity:1;" d="M 48.09375 140.792969 C 48.316406 139.828125 48.167969 138.972656 47.683594 138.191406 C 47.203125 137.414062 46.496094 136.855469 45.492188 136.597656 C 44.527344 136.261719 43.632812 136.300781 42.78125 136.707031 C 41.960938 137.078125 41.332031 137.710938 40.996094 138.601562 L 40.476562 139.9375 C 40.105469 140.867188 40.140625 141.71875 40.625 142.613281 C 41.109375 143.464844 41.925781 144.058594 43.078125 144.429688 C 44.230469 144.765625 45.269531 144.726562 46.160156 144.28125 C 47.050781 143.835938 47.574219 143.132812 47.796875 142.164062 Z M 46.011719 141.757812 C 45.863281 142.351562 45.53125 142.835938 45.082031 143.09375 C 44.636719 143.390625 44.082031 143.429688 43.449219 143.242188 C 42.816406 143.058594 42.410156 142.6875 42.1875 142.203125 C 41.960938 141.71875 41.960938 141.164062 42.1875 140.570312 L 42.667969 139.195312 C 42.890625 138.601562 43.1875 138.191406 43.632812 137.894531 C 44.082031 137.636719 44.5625 137.5625 45.121094 137.746094 C 45.679688 137.894531 46.085938 138.230469 46.273438 138.710938 C 46.496094 139.195312 46.53125 139.714844 46.347656 140.308594 Z M 46.011719 141.757812 "/>
<path style=" stroke:none;fill-rule:nonzero;fill:rgb(100%,100%,100%);fill-opacity:1;" d="M 56.636719 142.054688 C 56.710938 141.089844 56.414062 140.234375 55.820312 139.566406 C 55.226562 138.898438 54.410156 138.453125 53.40625 138.339844 C 52.402344 138.230469 51.511719 138.378906 50.769531 138.898438 C 50.023438 139.417969 49.503906 140.160156 49.320312 141.089844 L 49.023438 142.5 C 48.835938 143.464844 48.984375 144.320312 49.617188 145.0625 C 50.210938 145.804688 51.140625 146.324219 52.328125 146.472656 C 52.921875 146.546875 53.480469 146.546875 54 146.4375 C 54.484375 146.324219 54.964844 146.101562 55.335938 145.839844 C 56.117188 145.246094 56.527344 144.46875 56.601562 143.503906 Z M 54.707031 143.316406 C 54.632812 143.949219 54.410156 144.46875 54 144.800781 C 53.589844 145.136719 53.070312 145.285156 52.402344 145.210938 C 51.769531 145.136719 51.289062 144.875 50.992188 144.394531 C 50.695312 143.949219 50.621094 143.390625 50.730469 142.761719 L 50.992188 141.347656 C 51.101562 140.753906 51.363281 140.273438 51.734375 139.9375 C 52.105469 139.605469 52.589844 139.492188 53.183594 139.53125 C 53.777344 139.605469 54.1875 139.863281 54.484375 140.308594 C 54.78125 140.753906 54.890625 141.273438 54.816406 141.867188 Z M 54.707031 143.316406 "/>
<path style=" stroke:none;fill-rule:nonzero;fill:rgb(100%,100%,100%);fill-opacity:1;" d="M 63.808594 138.710938 C 61.691406 138.898438 59.535156 138.863281 57.378906 138.789062 L 57.304688 140.011719 L 59.722656 140.085938 L 59.683594 146.84375 C 60.316406 146.84375 60.984375 146.808594 61.617188 146.808594 L 61.46875 140.085938 C 61.875 140.085938 62.285156 140.085938 62.695312 140.050781 L 63.917969 139.9375 Z M 63.808594 138.710938 "/>
<path style=" stroke:none;fill-rule:nonzero;fill:rgb(100%,100%,100%);fill-opacity:1;" d="M 69.230469 146.101562 C 70.347656 145.914062 71.164062 145.582031 71.683594 145.0625 C 72.203125 144.542969 72.351562 143.910156 72.203125 143.167969 C 72.09375 142.722656 71.871094 142.386719 71.535156 142.089844 C 71.164062 141.832031 70.71875 141.71875 70.160156 141.71875 C 70.53125 141.496094 70.792969 141.238281 70.941406 140.902344 C 71.089844 140.570312 71.125 140.234375 71.050781 139.863281 C 70.902344 139.160156 70.496094 138.710938 69.902344 138.453125 C 69.269531 138.191406 68.488281 138.15625 67.523438 138.304688 C 66.632812 138.414062 65.703125 138.5625 64.8125 138.636719 L 65.589844 146.585938 C 66.222656 146.546875 66.816406 146.4375 67.449219 146.363281 C 67.96875 146.289062 68.601562 146.25 69.230469 146.101562 Z M 66.558594 139.679688 L 67.632812 139.53125 C 68.117188 139.457031 68.488281 139.457031 68.785156 139.605469 C 69.046875 139.714844 69.230469 139.976562 69.304688 140.347656 C 69.378906 140.679688 69.304688 140.941406 69.082031 141.164062 C 68.859375 141.386719 68.527344 141.535156 68.042969 141.609375 L 66.855469 141.757812 Z M 68.636719 142.648438 C 69.121094 142.574219 69.53125 142.613281 69.828125 142.761719 C 70.125 142.910156 70.308594 143.207031 70.382812 143.578125 C 70.457031 143.949219 70.382812 144.207031 70.160156 144.46875 C 69.9375 144.691406 69.566406 144.839844 69.082031 144.949219 C 68.488281 145.0625 67.933594 145.136719 67.335938 145.210938 L 67.039062 142.945312 C 67.523438 142.796875 68.082031 142.761719 68.636719 142.648438 Z M 68.636719 142.648438 "/>
<path style=" stroke:none;fill-rule:nonzero;fill:rgb(100%,100%,100%);fill-opacity:1;" d="M 79.558594 143.464844 L 81.457031 142.722656 C 80.453125 141.683594 79.484375 140.644531 78.519531 139.566406 C 77.589844 138.488281 76.664062 137.375 75.808594 136.300781 C 75.25 136.484375 74.730469 136.671875 74.171875 136.820312 C 74.023438 139.605469 73.765625 142.5 73.320312 145.285156 L 74.320312 145.0625 L 75.289062 144.800781 L 75.4375 142.984375 C 76.441406 142.722656 77.367188 142.386719 78.335938 142.054688 C 78.742188 142.5 79.152344 142.984375 79.558594 143.464844 Z M 75.621094 138.675781 C 76.253906 139.457031 76.847656 140.234375 77.480469 141.015625 C 76.8125 141.238281 76.179688 141.460938 75.511719 141.644531 C 75.585938 140.644531 75.621094 139.679688 75.621094 138.675781 Z M 75.621094 138.675781 "/>
<path style=" stroke:none;fill-rule:nonzero;fill:rgb(100%,100%,100%);fill-opacity:1;" d="M 80.710938 134.332031 L 79.1875 135 L 82.308594 142.351562 C 83.277344 141.90625 84.242188 141.496094 85.171875 141.050781 L 86.582031 140.347656 L 87.289062 139.976562 L 87.957031 139.605469 L 87.363281 138.527344 C 86.769531 138.898438 86.136719 139.195312 85.503906 139.53125 C 84.875 139.863281 84.242188 140.199219 83.609375 140.457031 Z M 80.710938 134.332031 "/>
<path style=" stroke:none;fill-rule:nonzero;fill:rgb(100%,100%,100%);fill-opacity:1;" d="M 86.394531 131.210938 C 85.914062 131.511719 85.46875 131.808594 84.984375 132.105469 L 89.070312 138.972656 C 90 138.453125 90.855469 137.859375 91.746094 137.300781 C 92.601562 136.707031 93.457031 136.113281 94.308594 135.484375 L 93.566406 134.515625 C 92.414062 135.335938 91.261719 136.1875 90.074219 136.929688 Z M 86.394531 131.210938 "/>
<path style=" stroke:none;fill-rule:nonzero;fill:rgb(100%,100%,100%);fill-opacity:1;" d="M 98.621094 125.53125 C 97.839844 126.347656 97.058594 127.203125 96.203125 127.945312 L 94.679688 126.347656 C 95.648438 125.496094 96.5 124.53125 97.394531 123.601562 L 96.464844 122.785156 C 95.832031 123.453125 95.203125 124.085938 94.570312 124.753906 C 93.902344 125.382812 93.269531 126.015625 92.5625 126.609375 L 97.914062 132.585938 C 98.394531 132.179688 98.878906 131.734375 99.324219 131.289062 L 97.023438 128.875 C 97.875 128.09375 98.695312 127.238281 99.472656 126.386719 Z M 98.621094 125.53125 "/>
<path style=" stroke:none;fill-rule:nonzero;fill:rgb(100%,100%,100%);fill-opacity:1;" d="M 102.78125 120.113281 C 102.445312 120.558594 102.148438 121.003906 101.8125 121.449219 L 100.8125 122.746094 L 99.25 121.484375 L 100.402344 120 L 101.480469 118.476562 L 100.441406 117.773438 C 99.917969 118.476562 99.4375 119.21875 98.878906 119.925781 C 98.320312 120.632812 97.800781 121.335938 97.171875 121.96875 L 103.261719 127.164062 C 103.96875 126.386719 104.601562 125.570312 105.230469 124.789062 C 105.902344 124.011719 106.457031 123.117188 107.050781 122.300781 L 106.050781 121.597656 L 104.824219 123.304688 L 103.523438 124.9375 L 101.738281 123.527344 L 102.78125 122.191406 C 103.113281 121.746094 103.449219 121.300781 103.785156 120.816406 Z M 102.78125 120.113281 "/>
<path style=" stroke:none;fill-rule:nonzero;fill:rgb(100%,100%,100%);fill-opacity:1;" d="M 109.578125 118.292969 C 110.171875 117.289062 110.359375 116.25 110.136719 115.320312 C 109.914062 114.355469 109.355469 113.6875 108.464844 113.28125 L 107.277344 112.722656 C 106.382812 112.3125 105.492188 112.277344 104.636719 112.574219 C 103.785156 112.871094 103.113281 113.503906 102.59375 114.355469 C 102.335938 114.765625 102.113281 115.210938 101.851562 115.617188 L 101.070312 116.84375 L 107.796875 121.226562 L 108.722656 119.8125 C 109.023438 119.257812 109.320312 118.773438 109.578125 118.292969 Z M 103.707031 114.949219 C 103.96875 114.46875 104.414062 114.171875 104.898438 114.058594 C 105.417969 113.949219 105.9375 114.023438 106.457031 114.28125 L 107.648438 114.914062 C 108.203125 115.210938 108.574219 115.582031 108.722656 116.101562 C 108.910156 116.621094 108.796875 117.140625 108.5 117.699219 L 107.796875 118.921875 L 103.039062 116.0625 Z M 103.707031 114.949219 "/>
<path style=" stroke:none;fill-rule:nonzero;fill:rgb(100%,100%,100%);fill-opacity:1;" d="M 109.652344 106.632812 C 109.46875 107.152344 109.320312 107.671875 109.132812 108.191406 L 108.539062 109.714844 L 106.679688 108.972656 L 107.351562 107.226562 L 107.945312 105.445312 L 106.753906 105.074219 C 106.199219 106.746094 105.566406 108.414062 104.824219 110.011719 L 112.140625 113.28125 C 112.996094 111.386719 113.738281 109.457031 114.371094 107.488281 L 113.183594 107.117188 L 112.515625 109.085938 C 112.253906 109.753906 111.992188 110.382812 111.734375 111.015625 L 109.617188 110.160156 L 110.246094 108.601562 C 110.433594 108.082031 110.621094 107.5625 110.804688 107.003906 Z M 109.652344 106.632812 "/>
<path style=" stroke:none;fill-rule:nonzero;fill:rgb(100%,100%,100%);fill-opacity:1;" d="M 112.550781 102.140625 C 112.664062 101.695312 112.847656 101.398438 113.109375 101.175781 C 113.367188 100.988281 113.703125 100.914062 114.113281 100.988281 L 114.667969 101.101562 C 114.929688 101.136719 115.1875 101.175781 115.449219 101.175781 C 115.707031 101.175781 115.933594 101.101562 116.082031 100.953125 L 116.414062 98.984375 L 116.304688 98.984375 C 116.15625 99.132812 115.96875 99.246094 115.707031 99.28125 C 115.449219 99.320312 115.226562 99.320312 115.003906 99.28125 L 114.410156 99.171875 C 113.925781 99.097656 113.515625 99.132812 113.144531 99.320312 C 112.773438 99.503906 112.476562 99.839844 112.253906 100.320312 C 112.140625 99.839844 111.992188 99.429688 111.734375 99.132812 C 111.472656 98.835938 111.140625 98.6875 110.730469 98.613281 C 109.988281 98.503906 109.355469 98.6875 108.875 99.132812 C 108.613281 99.355469 108.425781 99.652344 108.242188 99.988281 C 108.054688 100.320312 107.90625 100.730469 107.796875 101.175781 C 107.683594 101.621094 107.609375 102.105469 107.460938 102.585938 L 107.050781 103.960938 L 114.742188 106.226562 L 115.261719 104.367188 L 112.140625 103.589844 Z M 108.722656 102.660156 L 109.023438 101.472656 C 109.132812 101.027344 109.320312 100.730469 109.578125 100.542969 C 109.839844 100.359375 110.136719 100.285156 110.507812 100.359375 C 110.878906 100.433594 111.140625 100.617188 111.25 100.878906 C 111.398438 101.136719 111.398438 101.546875 111.289062 102.03125 L 110.992188 103.253906 Z M 108.722656 102.660156 "/>
<path style=" stroke:none;fill-rule:nonzero;fill:rgb(100%,100%,100%);fill-opacity:1;" d="M 117.082031 92.117188 L 117.121094 90.113281 C 114.410156 91.1875 111.734375 92.117188 109.023438 92.894531 L 108.875 94.605469 C 110.171875 95.199219 111.4375 95.792969 112.699219 96.460938 C 113.960938 97.128906 115.226562 97.796875 116.488281 98.539062 L 116.75 96.535156 C 116.191406 96.273438 115.671875 95.976562 115.113281 95.71875 C 115.1875 94.714844 115.300781 93.710938 115.335938 92.710938 Z M 111.140625 93.898438 C 112.105469 93.601562 113.070312 93.339844 114.039062 93.042969 L 113.886719 95.085938 C 112.960938 94.714844 112.066406 94.308594 111.140625 93.898438 Z M 111.140625 93.898438 "/>
<path style=" stroke:none;fill-rule:nonzero;fill:rgb(100%,100%,100%);fill-opacity:1;" d="M 109.097656 83.539062 L 109.097656 90.410156 L 110.320312 90.410156 C 110.320312 89.589844 110.320312 88.738281 110.320312 87.882812 L 117.121094 87.882812 L 117.121094 86.101562 L 110.320312 86.101562 L 110.320312 83.539062 Z M 109.097656 83.539062 "/>
<path style=" stroke:none;fill-rule:nonzero;fill:rgb(100%,100%,100%);fill-opacity:1;" d="M 109.097656 80.644531 L 109.097656 82.425781 L 117.121094 82.425781 L 117.121094 80.644531 Z M 109.097656 80.644531 "/>
<path style=" stroke:none;fill-rule:nonzero;fill:rgb(100%,100%,100%);fill-opacity:1;" d="M 112.367188 71.585938 C 111.398438 71.585938 110.582031 71.917969 109.914062 72.625 C 109.28125 73.328125 108.949219 74.21875 108.949219 75.335938 C 108.949219 76.449219 109.28125 77.339844 109.914062 78.007812 C 110.542969 78.710938 111.363281 79.046875 112.367188 79.046875 L 113.8125 79.046875 C 114.816406 79.046875 115.597656 78.710938 116.265625 78.007812 C 116.898438 77.300781 117.230469 76.410156 117.230469 75.296875 C 117.230469 74.183594 116.898438 73.292969 116.265625 72.585938 C 115.632812 71.882812 114.816406 71.546875 113.8125 71.546875 L 112.367188 71.546875 Z M 113.8125 73.367188 C 114.445312 73.367188 114.964844 73.550781 115.375 73.886719 C 115.785156 74.21875 115.96875 74.703125 115.96875 75.335938 C 115.96875 75.929688 115.785156 76.410156 115.375 76.746094 C 114.964844 77.078125 114.445312 77.265625 113.8125 77.265625 L 112.367188 77.265625 C 111.734375 77.265625 111.214844 77.078125 110.84375 76.746094 C 110.433594 76.410156 110.246094 75.929688 110.246094 75.335938 C 110.246094 74.703125 110.433594 74.21875 110.84375 73.886719 C 111.25 73.550781 111.769531 73.367188 112.367188 73.367188 Z M 113.8125 73.367188 "/>
<path style=" stroke:none;fill-rule:nonzero;fill:rgb(100%,100%,100%);fill-opacity:1;" d="M 109.097656 62.933594 L 109.097656 64.714844 L 114.519531 64.714844 L 114.519531 64.753906 L 109.097656 68.355469 L 109.097656 70.136719 L 117.121094 70.136719 L 117.121094 68.355469 L 111.695312 68.355469 L 111.695312 68.316406 L 117.121094 64.714844 L 117.121094 62.933594 Z M 109.097656 62.933594 "/>
<path style=" stroke:none;fill-rule:nonzero;fill:rgb(0%,61.960787%,85.882354%);fill-opacity:1;" d="M 97.765625 33.9375 L 97.726562 29.703125 C 97.726562 28.070312 96.351562 26.734375 94.71875 26.734375 L 89.628906 26.734375 L 89.628906 33.15625 C 89.628906 33.863281 89.035156 34.457031 88.328125 34.457031 L 83.757812 34.457031 C 83.015625 34.457031 82.308594 33.9375 82.160156 33.191406 C 81.976562 32.191406 82.71875 31.335938 83.683594 31.335938 L 85.058594 31.335938 C 85.839844 31.335938 86.46875 30.707031 86.46875 29.925781 L 86.46875 25.730469 C 86.46875 24.914062 87.140625 24.246094 87.957031 24.246094 L 97.246094 24.246094 L 97.246094 21.792969 L 71.574219 21.792969 L 71.574219 33.414062 C 71.574219 34.53125 71.871094 35.421875 72.5 36.050781 C 73.097656 36.683594 73.875 36.980469 74.84375 36.980469 L 77.109375 36.980469 L 77.109375 34.382812 L 76.441406 34.382812 C 75.882812 34.382812 75.363281 34.269531 75.175781 34.046875 C 74.992188 33.824219 74.878906 33.230469 74.878906 32.671875 L 74.878906 25.320312 C 74.878906 24.800781 75.511719 24.058594 76.699219 24.058594 C 77.886719 24.058594 78.816406 25.246094 78.816406 25.246094 L 81.492188 25.246094 C 82.382812 25.246094 83.203125 25.914062 83.238281 26.808594 C 83.277344 27.773438 82.53125 28.550781 81.566406 28.550781 L 78.484375 28.550781 L 78.484375 34.011719 C 78.484375 35.605469 79.785156 36.867188 81.378906 36.867188 L 91.335938 36.867188 C 92.15625 36.867188 92.824219 36.199219 92.824219 35.382812 L 92.824219 30.707031 C 92.824219 30.261719 93.121094 29.886719 93.566406 29.8125 C 94.125 29.738281 94.605469 30.148438 94.605469 30.667969 L 94.605469 33.863281 Z M 97.765625 33.9375 "/>
<path style=" stroke:none;fill-rule:nonzero;fill:rgb(0%,61.960787%,85.882354%);fill-opacity:1;" d="M 61.765625 31.410156 C 61.765625 30.855469 62.171875 30.335938 62.769531 30.261719 C 63.4375 30.1875 63.992188 30.707031 63.992188 31.335938 L 63.992188 33.636719 L 66.667969 33.636719 L 66.667969 29.035156 C 66.667969 27.847656 65.703125 26.917969 64.515625 26.917969 L 58.867188 26.917969 L 58.867188 33.972656 L 51.621094 33.972656 C 50.917969 33.972656 50.320312 33.453125 50.285156 32.785156 C 50.246094 32.042969 50.84375 31.449219 51.546875 31.449219 L 55.003906 31.449219 L 55.003906 24.320312 L 66.335938 24.320312 L 66.335938 21.832031 L 47.3125 21.832031 L 47.3125 24.320312 L 52.179688 24.320312 L 52.179688 28.476562 L 47.648438 28.476562 L 47.648438 34.417969 C 47.648438 35.792969 48.761719 36.90625 50.136719 36.90625 L 61.691406 36.90625 Z M 61.765625 31.410156 "/>
<path style=" stroke:none;fill-rule:nonzero;fill:rgb(0%,61.960787%,85.882354%);fill-opacity:1;" d="M 52.214844 43.328125 C 52.214844 44.925781 53.515625 46.261719 55.152344 46.261719 L 59.203125 46.261719 C 60.835938 46.261719 62.136719 44.960938 62.136719 43.328125 L 62.136719 41.734375 L 66.78125 41.734375 L 66.78125 39.46875 L 52.214844 39.46875 Z M 55.96875 41.695312 L 58.941406 41.695312 L 58.941406 42.179688 C 58.941406 42.996094 58.273438 43.664062 57.457031 43.664062 C 56.636719 43.664062 55.96875 42.996094 55.96875 42.179688 Z M 55.96875 41.695312 "/>
<path style=" stroke:none;fill-rule:nonzero;fill:rgb(0%,61.960787%,85.882354%);fill-opacity:1;" d="M 37.617188 21.832031 L 22.273438 21.832031 L 22.273438 24.320312 L 32.824219 24.320312 L 32.824219 27.066406 L 22.308594 27.066406 L 22.308594 33.675781 C 22.308594 34.753906 22.644531 35.53125 23.351562 36.089844 C 24.054688 36.644531 25.058594 36.90625 26.394531 36.90625 L 35.757812 36.90625 L 35.757812 24.355469 L 38.507812 24.355469 L 38.507812 37.054688 L 41.515625 37.054688 L 41.515625 21.867188 L 37.617188 21.867188 Z M 32.824219 33.304688 C 32.824219 33.863281 32.378906 34.308594 31.820312 34.308594 L 26.730469 34.308594 C 25.726562 34.308594 25.246094 33.9375 25.246094 33.15625 L 25.246094 31.410156 C 25.246094 30.519531 25.988281 29.777344 26.917969 29.777344 L 32.824219 29.777344 Z M 32.824219 33.304688 "/>
<path style=" stroke:none;fill-rule:nonzero;fill:rgb(0%,61.960787%,85.882354%);fill-opacity:1;" d="M 72.910156 126.3125 C 71.90625 126.050781 70.867188 125.902344 69.828125 125.902344 C 70.679688 125.273438 71.425781 124.566406 72.019531 123.824219 C 73.28125 121.96875 73.429688 120.148438 72.910156 118.589844 C 72.464844 118.8125 72.019531 119.070312 71.574219 119.367188 C 71.125 119.664062 70.753906 120 70.308594 120.296875 C 69.902344 120.59375 69.492188 120.964844 69.15625 121.335938 C 68.972656 121.523438 68.785156 121.707031 68.636719 121.929688 C 68.453125 122.117188 68.304688 122.300781 68.117188 122.488281 C 67.1875 123.5625 66.558594 124.789062 66.261719 125.976562 C 66.1875 126.238281 66.148438 126.460938 66.113281 126.71875 C 66.222656 126.941406 66.335938 127.164062 66.519531 127.386719 C 67.226562 128.390625 68.339844 129.171875 69.976562 129.726562 C 70.273438 129.800781 70.570312 129.914062 70.867188 129.988281 C 71.164062 130.023438 71.5 130.0625 71.796875 130.097656 C 72.425781 130.136719 73.097656 130.171875 73.800781 130.136719 C 74.507812 130.136719 75.175781 129.988281 75.84375 129.800781 C 76.515625 129.617188 77.21875 129.429688 77.886719 129.171875 C 76.921875 127.761719 75.175781 126.792969 72.910156 126.3125 Z M 72.910156 126.3125 "/>
<path style=" stroke:none;fill-rule:nonzero;fill:rgb(0%,61.960787%,85.882354%);fill-opacity:1;" d="M 81.046875 122.152344 C 80.007812 122.152344 79.039062 122.300781 78 122.488281 C 78.707031 121.746094 79.1875 120.855469 79.558594 119.960938 C 79.671875 119.703125 79.746094 119.480469 79.820312 119.21875 C 79.894531 118.960938 79.933594 118.738281 79.96875 118.476562 C 80.042969 117.996094 80.042969 117.550781 80.007812 117.105469 C 79.933594 116.25 79.632812 115.46875 79.1875 114.765625 C 78.410156 115.433594 77.777344 116.25 77.109375 116.992188 C 76.8125 117.402344 76.515625 117.808594 76.253906 118.253906 C 75.992188 118.699219 75.734375 119.109375 75.511719 119.589844 C 75.214844 120.222656 74.992188 120.890625 74.804688 121.523438 C 74.65625 122.191406 74.542969 122.746094 74.542969 123.339844 C 74.542969 123.601562 74.542969 123.824219 74.582031 124.085938 C 74.730469 124.269531 74.917969 124.457031 75.140625 124.640625 C 76.066406 125.457031 77.332031 125.941406 78.964844 126.015625 C 79.558594 126.050781 80.191406 126.050781 80.824219 125.941406 C 81.457031 125.828125 82.050781 125.679688 82.679688 125.496094 C 83.980469 125.125 85.171875 124.417969 86.320312 123.636719 C 85.726562 123.082031 84.949219 122.671875 84.054688 122.449219 C 83.609375 122.339844 83.125 122.226562 82.605469 122.191406 C 82.347656 122.152344 82.085938 122.152344 81.828125 122.152344 C 81.605469 122.152344 81.34375 122.152344 81.046875 122.152344 Z M 81.046875 122.152344 "/>
<path style=" stroke:none;fill-rule:nonzero;fill:rgb(0%,61.960787%,85.882354%);fill-opacity:1;" d="M 87.546875 116.511719 C 87.066406 116.621094 86.621094 116.769531 86.171875 116.957031 C 85.726562 117.140625 85.246094 117.289062 84.796875 117.511719 C 85.023438 117.066406 85.246094 116.660156 85.394531 116.210938 C 85.542969 115.765625 85.652344 115.285156 85.726562 114.839844 C 86.0625 112.835938 85.394531 111.164062 84.316406 110.125 C 84.167969 110.308594 84.054688 110.53125 83.90625 110.753906 C 83.796875 110.976562 83.683594 111.199219 83.535156 111.386719 C 83.277344 111.792969 83.050781 112.238281 82.867188 112.6875 C 82.496094 113.613281 82.125 114.503906 81.9375 115.46875 C 81.679688 116.84375 81.605469 118.03125 81.863281 119.144531 C 81.902344 119.367188 81.976562 119.589844 82.085938 119.8125 C 82.273438 119.960938 82.496094 120.074219 82.71875 120.1875 C 83.722656 120.707031 85.058594 120.929688 86.582031 120.59375 C 87.695312 120.371094 88.886719 119.960938 89.886719 119.257812 C 90.410156 118.921875 90.964844 118.550781 91.449219 118.144531 C 91.707031 117.957031 91.933594 117.699219 92.15625 117.476562 C 92.378906 117.253906 92.601562 116.992188 92.824219 116.734375 C 91.484375 115.988281 89.703125 115.988281 87.546875 116.511719 Z M 87.546875 116.511719 "/>
<path style=" stroke:none;fill-rule:nonzero;fill:rgb(0%,61.960787%,85.882354%);fill-opacity:1;" d="M 92.414062 109.976562 C 91.597656 110.382812 90.742188 110.867188 90.039062 111.460938 C 90.261719 110.53125 90.410156 109.640625 90.335938 108.75 C 90.148438 106.746094 89.21875 105.371094 87.957031 104.589844 C 87.546875 105.445312 87.324219 106.375 87.140625 107.300781 C 86.917969 108.191406 86.804688 109.160156 86.878906 110.125 C 86.84375 111.421875 87.101562 112.613281 87.621094 113.578125 C 87.734375 113.800781 87.84375 113.984375 87.957031 114.171875 C 88.179688 114.246094 88.402344 114.355469 88.625 114.394531 C 89.664062 114.652344 90.929688 114.542969 92.378906 113.984375 C 93.34375 113.539062 94.308594 112.871094 95.203125 112.054688 C 96.054688 111.199219 96.796875 110.199219 97.46875 109.085938 C 96.019531 108.710938 94.234375 109.011719 92.414062 109.976562 Z M 92.414062 109.976562 "/>
<path style=" stroke:none;fill-rule:nonzero;fill:rgb(0%,61.960787%,85.882354%);fill-opacity:1;" d="M 95.683594 102.511719 C 95.351562 102.808594 95.015625 103.105469 94.679688 103.402344 C 94.382812 103.738281 94.085938 104.070312 93.753906 104.40625 C 93.753906 104.183594 93.789062 103.960938 93.789062 103.738281 C 93.789062 103.515625 93.753906 103.292969 93.714844 103.070312 C 93.640625 102.625 93.566406 102.214844 93.457031 101.808594 C 93.195312 100.878906 92.785156 100.171875 92.191406 99.578125 C 91.632812 99.023438 91.003906 98.613281 90.335938 98.390625 C 90.261719 98.835938 90.222656 99.320312 90.1875 99.765625 C 90.148438 100.210938 90.113281 100.65625 90.113281 101.136719 C 90.113281 101.585938 90.1875 102.066406 90.261719 102.511719 C 90.296875 102.957031 90.371094 103.402344 90.484375 103.847656 C 90.78125 105.074219 91.335938 106.152344 91.96875 106.96875 C 92.117188 107.152344 92.265625 107.300781 92.414062 107.449219 C 92.636719 107.488281 92.859375 107.523438 93.121094 107.523438 C 94.234375 107.5625 95.351562 107.191406 96.539062 106.375 C 96.949219 106.078125 97.394531 105.707031 97.765625 105.335938 C 98.136719 104.925781 98.46875 104.480469 98.769531 103.996094 C 99.101562 103.515625 99.363281 102.996094 99.660156 102.476562 C 99.917969 101.917969 100.105469 101.363281 100.253906 100.765625 C 99.546875 100.691406 98.769531 100.839844 98.023438 101.136719 C 97.28125 101.4375 96.464844 101.882812 95.683594 102.511719 Z M 95.683594 102.511719 "/>
<path style=" stroke:none;fill-rule:nonzero;fill:rgb(0%,61.960787%,85.882354%);fill-opacity:1;" d="M 97.207031 95.011719 C 96.648438 95.679688 96.167969 96.386719 95.757812 97.164062 C 95.574219 96.3125 95.3125 95.496094 94.941406 94.789062 C 93.976562 93.191406 92.636719 92.375 91.261719 92.191406 C 91.261719 92.636719 91.300781 93.082031 91.375 93.488281 C 91.410156 93.710938 91.449219 93.9375 91.484375 94.160156 C 91.523438 94.382812 91.558594 94.605469 91.597656 94.789062 C 91.785156 95.644531 92.082031 96.460938 92.527344 97.277344 C 93.046875 98.355469 93.714844 99.246094 94.53125 99.875 C 94.71875 100.023438 94.867188 100.136719 95.050781 100.246094 C 95.277344 100.246094 95.5 100.210938 95.722656 100.171875 C 96.722656 99.988281 97.765625 99.429688 98.730469 98.429688 C 99.363281 97.6875 99.917969 96.757812 100.367188 95.753906 C 100.476562 95.496094 100.589844 95.234375 100.664062 94.976562 C 100.738281 94.714844 100.8125 94.417969 100.847656 94.160156 C 100.960938 93.601562 101.035156 93.042969 101.109375 92.449219 C 99.769531 92.597656 98.394531 93.527344 97.207031 95.011719 Z M 97.207031 95.011719 "/>
<path style=" stroke:none;fill-rule:nonzero;fill:rgb(0%,61.960787%,85.882354%);fill-opacity:1;" d="M 97.355469 87.882812 C 96.910156 88.550781 96.539062 89.292969 96.242188 90.074219 C 95.980469 89.292969 95.609375 88.550781 95.125 87.882812 C 94.085938 86.398438 92.785156 85.582031 91.449219 85.394531 C 91.558594 87.328125 92.15625 89.21875 93.15625 90.707031 C 93.34375 90.964844 93.53125 91.1875 93.714844 91.410156 C 93.902344 91.597656 94.085938 91.820312 94.308594 91.96875 C 94.71875 92.300781 95.125 92.597656 95.574219 92.820312 C 95.757812 92.894531 95.945312 92.96875 96.128906 93.042969 C 96.351562 93.007812 96.539062 92.933594 96.761719 92.859375 C 97.207031 92.671875 97.691406 92.414062 98.097656 92.042969 C 98.320312 91.855469 98.542969 91.632812 98.730469 91.410156 C 98.917969 91.1875 99.101562 90.964844 99.289062 90.707031 C 100.328125 89.21875 100.886719 87.328125 100.996094 85.394531 C 99.734375 85.582031 98.394531 86.398438 97.355469 87.882812 Z M 97.355469 87.882812 "/>
<path style=" stroke:none;fill-rule:nonzero;fill:rgb(0%,61.960787%,85.882354%);fill-opacity:1;" d="M 97.355469 80.867188 C 96.910156 81.496094 96.574219 82.203125 96.277344 82.945312 C 96.019531 82.203125 95.648438 81.496094 95.203125 80.867188 C 94.199219 79.457031 92.933594 78.675781 91.632812 78.527344 C 91.746094 80.382812 92.304688 82.164062 93.304688 83.578125 C 94.011719 84.542969 94.828125 85.246094 95.722656 85.617188 C 95.90625 85.691406 96.09375 85.765625 96.277344 85.804688 C 96.464844 85.765625 96.6875 85.691406 96.875 85.582031 C 97.765625 85.210938 98.582031 84.542969 99.25 83.539062 C 100.253906 82.128906 100.8125 80.347656 100.921875 78.488281 C 99.621094 78.675781 98.320312 79.457031 97.355469 80.867188 Z M 97.355469 80.867188 "/>
<path style=" stroke:none;fill-rule:nonzero;fill:rgb(0%,61.960787%,85.882354%);fill-opacity:1;" d="M 97.320312 74.257812 C 96.875 74.886719 96.539062 75.59375 96.277344 76.335938 C 96.019531 75.59375 95.683594 74.886719 95.238281 74.257812 C 94.273438 72.847656 93.046875 72.066406 91.785156 71.917969 C 91.894531 73.773438 92.414062 75.558594 93.378906 76.96875 C 94.050781 77.933594 94.867188 78.636719 95.683594 79.011719 C 95.871094 79.085938 96.054688 79.160156 96.242188 79.195312 C 96.425781 79.160156 96.613281 79.085938 96.796875 78.972656 C 97.652344 78.601562 98.433594 77.933594 99.101562 76.929688 C 100.066406 75.519531 100.589844 73.738281 100.699219 71.882812 C 99.511719 72.03125 98.285156 72.847656 97.320312 74.257812 Z M 97.320312 74.257812 "/>
<path style=" stroke:none;fill-rule:nonzero;fill:rgb(0%,61.960787%,85.882354%);fill-opacity:1;" d="M 97.839844 69.171875 C 97.839844 66.363281 97.140625 64.085938 96.277344 64.085938 C 95.417969 64.085938 94.71875 66.363281 94.71875 69.171875 C 94.71875 71.980469 95.417969 74.257812 96.277344 74.257812 C 97.140625 74.257812 97.839844 71.980469 97.839844 69.171875 Z M 97.839844 69.171875 "/>
<path style=" stroke:none;fill-rule:nonzero;fill:rgb(0%,61.960787%,85.882354%);fill-opacity:1;" d="M 96.539062 66.386719 L 96.613281 89.035156 C 96.613281 89.960938 96.648438 90.929688 96.613281 91.855469 C 96.574219 92.820312 96.539062 93.75 96.5 94.714844 L 96.128906 97.539062 C 95.980469 98.464844 95.722656 99.394531 95.535156 100.320312 C 94.570312 104.035156 93.046875 107.5625 90.964844 110.792969 C 86.84375 117.214844 80.636719 122.414062 73.429688 125.125 C 73.207031 125.199219 72.984375 125.308594 72.761719 125.382812 L 72.054688 125.605469 L 70.679688 126.050781 C 69.789062 126.386719 68.824219 126.535156 67.894531 126.757812 C 67.410156 126.867188 66.964844 126.980469 66.484375 127.054688 L 65.070312 127.277344 C 64.140625 127.460938 63.25 127.648438 62.359375 127.910156 C 58.792969 128.949219 55.484375 130.839844 52.550781 133.179688 L 51.882812 132.328125 C 54.929688 129.949219 58.347656 128.019531 62.0625 126.941406 C 62.992188 126.683594 63.957031 126.460938 64.886719 126.3125 L 66.296875 126.089844 C 66.742188 126.015625 67.226562 125.902344 67.671875 125.792969 C 68.601562 125.570312 69.53125 125.421875 70.382812 125.125 L 71.722656 124.714844 L 72.390625 124.492188 C 72.613281 124.417969 72.835938 124.308594 73.058594 124.234375 C 80.117188 121.632812 86.171875 116.621094 90.261719 110.347656 C 92.304688 107.191406 93.828125 103.738281 94.792969 100.136719 C 94.976562 99.207031 95.238281 98.316406 95.386719 97.386719 L 95.757812 94.605469 C 95.832031 93.675781 95.871094 92.746094 95.90625 91.820312 C 95.945312 90.890625 95.945312 89.925781 95.945312 88.996094 L 96.019531 66.347656 L 96.539062 66.347656 Z M 96.539062 66.386719 "/>
<path style=" stroke:none;fill-rule:nonzero;fill:rgb(0%,61.960787%,85.882354%);fill-opacity:1;" d="M 48.019531 123.789062 C 48.613281 124.566406 49.355469 125.273438 50.210938 125.867188 C 49.171875 125.902344 48.128906 126.015625 47.125 126.273438 C 44.898438 126.757812 43.113281 127.722656 42.1875 129.132812 C 42.855469 129.394531 43.558594 129.578125 44.230469 129.765625 C 44.898438 129.949219 45.605469 130.0625 46.273438 130.097656 C 46.941406 130.136719 47.609375 130.136719 48.277344 130.0625 C 48.613281 130.023438 48.910156 129.988281 49.207031 129.949219 C 49.503906 129.875 49.800781 129.800781 50.097656 129.691406 C 51.734375 129.171875 52.847656 128.355469 53.554688 127.351562 C 53.703125 127.128906 53.8125 126.90625 53.925781 126.683594 C 53.886719 126.421875 53.851562 126.164062 53.777344 125.902344 C 53.480469 124.714844 52.847656 123.488281 51.917969 122.414062 C 51.769531 122.226562 51.585938 122.042969 51.398438 121.855469 C 51.214844 121.671875 51.027344 121.449219 50.878906 121.261719 C 50.507812 120.890625 50.136719 120.558594 49.726562 120.222656 C 49.320312 119.925781 48.910156 119.589844 48.464844 119.292969 C 48.054688 118.996094 47.609375 118.738281 47.125 118.515625 C 46.605469 120.113281 46.753906 121.929688 48.019531 123.789062 Z M 48.019531 123.789062 "/>
<path style=" stroke:none;fill-rule:nonzero;fill:rgb(0%,61.960787%,85.882354%);fill-opacity:1;" d="M 40.441406 120 C 40.8125 120.855469 41.332031 121.746094 42 122.523438 C 40.996094 122.339844 39.992188 122.191406 38.953125 122.191406 C 38.65625 122.191406 38.394531 122.191406 38.097656 122.226562 C 37.839844 122.226562 37.578125 122.265625 37.320312 122.265625 C 36.796875 122.300781 36.316406 122.414062 35.871094 122.523438 C 34.976562 122.785156 34.199219 123.191406 33.605469 123.710938 C 34.753906 124.492188 35.945312 125.199219 37.246094 125.570312 C 37.875 125.753906 38.507812 125.941406 39.140625 126.015625 C 39.734375 126.125 40.402344 126.125 40.996094 126.089844 C 42.667969 126.015625 43.933594 125.53125 44.824219 124.714844 C 45.007812 124.566406 45.195312 124.382812 45.34375 124.195312 C 45.378906 123.9375 45.378906 123.675781 45.378906 123.453125 C 45.378906 122.300781 45.046875 121.003906 44.453125 119.703125 C 44.230469 119.21875 43.96875 118.847656 43.707031 118.367188 C 43.449219 117.921875 43.152344 117.476562 42.855469 117.105469 C 42.222656 116.324219 41.554688 115.507812 40.8125 114.875 C 40.367188 115.542969 40.105469 116.324219 39.992188 117.214844 C 39.957031 117.660156 39.957031 118.105469 40.03125 118.589844 C 40.066406 118.8125 40.105469 119.070312 40.179688 119.332031 C 40.253906 119.515625 40.328125 119.738281 40.441406 120 Z M 40.441406 120 "/>
<path style=" stroke:none;fill-rule:nonzero;fill:rgb(0%,61.960787%,85.882354%);fill-opacity:1;" d="M 34.273438 114.839844 C 34.347656 115.285156 34.457031 115.730469 34.605469 116.210938 C 34.753906 116.660156 34.976562 117.105469 35.203125 117.511719 C 34.753906 117.289062 34.273438 117.140625 33.828125 116.957031 C 33.378906 116.769531 32.933594 116.621094 32.453125 116.511719 C 30.335938 115.988281 28.515625 115.988281 27.175781 116.734375 C 27.398438 116.992188 27.621094 117.214844 27.84375 117.476562 C 28.066406 117.699219 28.292969 117.957031 28.550781 118.144531 C 29.070312 118.550781 29.589844 118.921875 30.113281 119.257812 C 31.152344 119.960938 32.339844 120.371094 33.457031 120.59375 C 34.976562 120.929688 36.316406 120.667969 37.320312 120.1875 C 37.542969 120.074219 37.726562 119.960938 37.914062 119.8125 C 37.988281 119.589844 38.0625 119.367188 38.136719 119.109375 C 38.394531 118.03125 38.320312 116.808594 38.0625 115.433594 C 37.875 114.46875 37.503906 113.578125 37.132812 112.648438 C 36.949219 112.203125 36.6875 111.757812 36.464844 111.347656 C 36.316406 111.164062 36.203125 110.941406 36.09375 110.71875 C 35.980469 110.496094 35.832031 110.308594 35.683594 110.085938 C 34.605469 111.164062 33.9375 112.835938 34.273438 114.839844 Z M 34.273438 114.839844 "/>
<path style=" stroke:none;fill-rule:nonzero;fill:rgb(0%,61.960787%,85.882354%);fill-opacity:1;" d="M 29.664062 108.75 C 29.589844 109.605469 29.738281 110.53125 29.960938 111.460938 C 29.21875 110.867188 28.402344 110.382812 27.585938 109.976562 C 25.765625 109.011719 23.980469 108.710938 22.570312 109.121094 C 23.238281 110.199219 23.980469 111.238281 24.835938 112.089844 C 25.726562 112.910156 26.695312 113.578125 27.660156 114.023438 C 29.109375 114.578125 30.371094 114.691406 31.410156 114.429688 C 31.632812 114.394531 31.859375 114.320312 32.042969 114.207031 C 32.191406 114.023438 32.304688 113.800781 32.414062 113.578125 C 32.898438 112.613281 33.15625 111.421875 33.15625 110.125 C 33.195312 109.160156 33.121094 108.191406 32.898438 107.300781 C 32.710938 106.375 32.453125 105.445312 32.082031 104.589844 C 30.78125 105.371094 29.886719 106.746094 29.664062 108.75 Z M 29.664062 108.75 "/>
<path style=" stroke:none;fill-rule:nonzero;fill:rgb(0%,61.960787%,85.882354%);fill-opacity:1;" d="M 26.582031 101.808594 C 26.46875 102.214844 26.359375 102.625 26.320312 103.070312 C 26.285156 103.292969 26.285156 103.515625 26.246094 103.738281 C 26.246094 103.960938 26.246094 104.183594 26.285156 104.40625 C 25.988281 104.070312 25.691406 103.738281 25.355469 103.402344 C 25.058594 103.070312 24.722656 102.773438 24.351562 102.511719 C 23.574219 101.882812 22.753906 101.398438 22.011719 101.101562 C 21.269531 100.804688 20.488281 100.65625 19.785156 100.730469 C 19.96875 101.324219 20.117188 101.882812 20.378906 102.4375 C 20.636719 102.957031 20.933594 103.476562 21.269531 103.960938 C 21.605469 104.441406 21.9375 104.886719 22.273438 105.296875 C 22.679688 105.707031 23.089844 106.039062 23.5 106.335938 C 24.6875 107.191406 25.800781 107.5625 26.917969 107.488281 C 27.140625 107.488281 27.363281 107.449219 27.585938 107.414062 C 27.734375 107.265625 27.917969 107.078125 28.066406 106.929688 C 28.699219 106.152344 29.257812 105.074219 29.554688 103.847656 C 29.664062 103.402344 29.738281 102.957031 29.777344 102.511719 C 29.851562 102.066406 29.886719 101.585938 29.925781 101.136719 C 29.925781 100.691406 29.925781 100.246094 29.851562 99.765625 C 29.8125 99.320312 29.777344 98.835938 29.703125 98.390625 C 29.035156 98.613281 28.402344 99.023438 27.84375 99.578125 C 27.25 100.171875 26.84375 100.914062 26.582031 101.808594 Z M 26.582031 101.808594 "/>
<path style=" stroke:none;fill-rule:nonzero;fill:rgb(0%,61.960787%,85.882354%);fill-opacity:1;" d="M 25.058594 94.789062 C 24.6875 95.496094 24.425781 96.3125 24.242188 97.164062 C 23.832031 96.386719 23.351562 95.679688 22.792969 95.011719 C 21.605469 93.527344 20.230469 92.597656 18.816406 92.449219 C 18.855469 93.007812 18.964844 93.601562 19.078125 94.160156 C 19.152344 94.417969 19.1875 94.714844 19.261719 94.976562 C 19.335938 95.234375 19.449219 95.496094 19.558594 95.753906 C 20.007812 96.757812 20.527344 97.6875 21.195312 98.429688 C 22.199219 99.429688 23.238281 100.023438 24.203125 100.210938 C 24.425781 100.246094 24.613281 100.285156 24.835938 100.285156 C 25.023438 100.171875 25.207031 100.0625 25.394531 99.914062 C 26.210938 99.28125 26.917969 98.390625 27.398438 97.3125 C 27.84375 96.535156 28.140625 95.679688 28.328125 94.828125 C 28.367188 94.605469 28.402344 94.417969 28.441406 94.195312 C 28.476562 93.972656 28.550781 93.75 28.550781 93.527344 C 28.625 93.082031 28.664062 92.636719 28.664062 92.226562 C 27.363281 92.375 26.023438 93.191406 25.058594 94.789062 Z M 25.058594 94.789062 "/>
<path style=" stroke:none;fill-rule:nonzero;fill:rgb(0%,61.960787%,85.882354%);fill-opacity:1;" d="M 24.835938 87.882812 C 24.390625 88.550781 24.019531 89.292969 23.722656 90.074219 C 23.460938 89.292969 23.089844 88.550781 22.605469 87.882812 C 21.566406 86.398438 20.265625 85.582031 18.929688 85.394531 C 19.039062 87.328125 19.632812 89.21875 20.636719 90.707031 C 20.824219 90.964844 21.007812 91.1875 21.195312 91.410156 C 21.417969 91.632812 21.605469 91.855469 21.828125 92.042969 C 22.273438 92.414062 22.71875 92.671875 23.164062 92.859375 C 23.351562 92.933594 23.574219 93.007812 23.757812 93.042969 C 23.945312 92.96875 24.167969 92.894531 24.351562 92.820312 C 24.796875 92.597656 25.207031 92.339844 25.617188 91.96875 C 25.800781 91.78125 26.023438 91.597656 26.210938 91.410156 C 26.394531 91.1875 26.582031 90.964844 26.769531 90.707031 C 27.808594 89.21875 28.367188 87.328125 28.476562 85.394531 C 27.214844 85.582031 25.875 86.398438 24.835938 87.882812 Z M 24.835938 87.882812 "/>
<path style=" stroke:none;fill-rule:nonzero;fill:rgb(0%,61.960787%,85.882354%);fill-opacity:1;" d="M 24.796875 80.867188 C 24.351562 81.496094 24.019531 82.203125 23.722656 82.945312 C 23.460938 82.203125 23.089844 81.496094 22.644531 80.867188 C 21.640625 79.457031 20.378906 78.675781 19.078125 78.527344 C 19.1875 80.382812 19.746094 82.164062 20.75 83.578125 C 21.457031 84.542969 22.273438 85.246094 23.164062 85.617188 C 23.351562 85.691406 23.535156 85.765625 23.722656 85.804688 C 23.90625 85.765625 24.128906 85.691406 24.316406 85.582031 C 25.207031 85.210938 26.023438 84.542969 26.695312 83.539062 C 27.695312 82.128906 28.253906 80.347656 28.367188 78.488281 C 27.101562 78.675781 25.800781 79.457031 24.796875 80.867188 Z M 24.796875 80.867188 "/>
<path style=" stroke:none;fill-rule:nonzero;fill:rgb(0%,61.960787%,85.882354%);fill-opacity:1;" d="M 24.796875 74.257812 C 24.351562 74.886719 24.019531 75.59375 23.757812 76.335938 C 23.5 75.59375 23.164062 74.886719 22.71875 74.257812 C 21.753906 72.847656 20.527344 72.066406 19.261719 71.917969 C 19.375 73.773438 19.894531 75.558594 20.859375 76.96875 C 21.53125 77.933594 22.347656 78.636719 23.164062 79.011719 C 23.351562 79.085938 23.535156 79.160156 23.722656 79.195312 C 23.90625 79.160156 24.09375 79.085938 24.277344 78.972656 C 25.132812 78.601562 25.914062 77.933594 26.582031 76.929688 C 27.546875 75.519531 28.066406 73.738281 28.179688 71.882812 C 26.992188 72.03125 25.726562 72.847656 24.796875 74.257812 Z M 24.796875 74.257812 "/>
<path style=" stroke:none;fill-rule:nonzero;fill:rgb(0%,61.960787%,85.882354%);fill-opacity:1;" d="M 25.320312 69.171875 C 25.320312 66.363281 24.621094 64.085938 23.757812 64.085938 C 22.898438 64.085938 22.199219 66.363281 22.199219 69.171875 C 22.199219 71.980469 22.898438 74.257812 23.757812 74.257812 C 24.621094 74.257812 25.320312 71.980469 25.320312 69.171875 Z M 25.320312 69.171875 "/>
<path style=" stroke:none;fill-rule:nonzero;fill:rgb(0%,61.960787%,85.882354%);fill-opacity:1;" d="M 24.019531 66.386719 L 24.09375 89.035156 C 24.09375 89.960938 24.09375 90.929688 24.128906 91.855469 C 24.167969 92.785156 24.203125 93.710938 24.277344 94.640625 L 24.6875 97.425781 C 24.835938 98.355469 25.097656 99.246094 25.28125 100.171875 C 26.246094 103.773438 27.769531 107.265625 29.8125 110.382812 C 33.863281 116.660156 39.957031 121.671875 47.015625 124.269531 C 47.238281 124.34375 47.460938 124.457031 47.683594 124.53125 L 48.351562 124.753906 L 49.691406 125.160156 C 50.582031 125.496094 51.511719 125.644531 52.402344 125.828125 C 52.847656 125.941406 53.332031 126.050781 53.777344 126.125 L 55.1875 126.347656 C 56.15625 126.535156 57.082031 126.71875 58.011719 126.980469 C 61.765625 128.058594 65.183594 129.988281 68.191406 132.363281 L 67.523438 133.21875 C 64.589844 130.914062 61.320312 129.023438 57.714844 127.945312 C 56.824219 127.6875 55.933594 127.460938 55.003906 127.3125 L 53.589844 127.089844 C 53.109375 127.015625 52.664062 126.867188 52.179688 126.792969 C 51.25 126.570312 50.285156 126.421875 49.394531 126.089844 L 48.019531 125.644531 L 47.3125 125.421875 C 47.089844 125.347656 46.867188 125.234375 46.644531 125.160156 C 39.4375 122.414062 33.230469 117.253906 29.109375 110.828125 C 27.066406 107.597656 25.503906 104.070312 24.539062 100.359375 C 24.351562 99.429688 24.09375 98.503906 23.945312 97.574219 L 23.574219 94.753906 C 23.535156 93.789062 23.5 92.859375 23.460938 91.894531 C 23.425781 90.929688 23.460938 90 23.460938 89.070312 L 23.535156 66.421875 L 24.019531 66.421875 Z M 24.019531 66.386719 "/>
</g>
</svg>
