<?xml version="1.0" encoding="UTF-8" standalone="no"?>
<svg
   xmlns:dc="http://purl.org/dc/elements/1.1/"
   xmlns:cc="http://creativecommons.org/ns#"
   xmlns:rdf="http://www.w3.org/1999/02/22-rdf-syntax-ns#"
   xmlns:svg="http://www.w3.org/2000/svg"
   xmlns="http://www.w3.org/2000/svg"
   xmlns:sodipodi="http://sodipodi.sourceforge.net/DTD/sodipodi-0.dtd"
   xmlns:inkscape="http://www.inkscape.org/namespaces/inkscape"
   width="80.246902mm"
   height="87.04792mm"
   viewBox="0 0 303.29538 329.00001"
   version="1.1"
   id="svg100818"
   inkscape:version="1.0.1 (3bc2e813f5, 2020-09-07)"
   sodipodi:docname="Bermuda FA logo.svg">
  <defs
     id="defs100812" />
  <sodipodi:namedview
     id="base"
     pagecolor="#ffffff"
     bordercolor="#666666"
     borderopacity="1.0"
     inkscape:pageopacity="0.0"
     inkscape:pageshadow="2"
     inkscape:zoom="0.35"
     inkscape:cx="140.9334"
     inkscape:cy="144.50001"
     inkscape:document-units="px"
     inkscape:current-layer="layer1"
     inkscape:document-rotation="0"
     showgrid="false"
     inkscape:window-width="1267"
     inkscape:window-height="728"
     inkscape:window-x="52"
     inkscape:window-y="0"
     inkscape:window-maximized="0" />
  <metadata
     id="metadata100815">
    <rdf:RDF>
      <cc:Work
         rdf:about="">
        <dc:format>image/svg+xml</dc:format>
        <dc:type
           rdf:resource="http://purl.org/dc/dcmitype/StillImage" />
        <dc:title></dc:title>
      </cc:Work>
    </rdf:RDF>
  </metadata>
  <g
     inkscape:label="Layer 1"
     inkscape:groupmode="layer"
     id="layer1"
     transform="translate(-234.0666,-375.49999)">
    <path
       style="clip-rule:nonzero;fill:#dcdcdc;fill-opacity:1;fill-rule:nonzero;stroke:none;stroke-width:10.7346"
       d="m 504.65492,490.31041 c 0,63.40148 -51.40895,114.76835 -114.81042,114.76835 -63.40149,0 -114.76836,-51.36687 -114.76836,-114.76835 0,-63.40147 51.36687,-114.81042 114.76836,-114.81042 63.40147,0 114.81042,51.40895 114.81042,114.81042"
       id="path65449" />
    <path
       style="fill:#1e284f;fill-opacity:1;fill-rule:nonzero;stroke:none;stroke-width:10.7346"
       d="m 336.08745,398.77236 c 0,0 19.62432,-11.48938 39.83561,-14.13108 13.46016,-1.34182 21.76277,-1.21612 38.4518,2.34822 13.79574,4.40281 23.56587,8.009 32.91682,15.80836 12.36996,9.60247 22.43368,28.22041 27.801,36.98417 10.14757,18.70178 12.70541,27.04635 11.95067,44.02889 -1.04878,11.65706 -7.79936,24.57222 -15.01175,32.24578 -12.16032,10.48312 -15.68256,13.58608 -26.66883,15.2214 -14.80211,0.33492 -65.1626,0 -65.1626,0 0,0 -4.61256,-0.54532 -1.29996,-5.15768 3.3127,-4.57058 19.24689,-33.7554 19.24689,-33.7554 l 38.4518,-0.20932 c 0,0 7.71552,-0.9221 5.99638,-11.53137 -2.3482,-7.92516 -34.92956,-60.75967 -35.97791,-62.01767 -1.00583,-1.25799 -5.36732,-7.00275 -10.18954,-10.77661 -4.86408,-3.77387 -9.56048,-6.49951 -8.97341,-6.12207 0.83839,0.83837 -15.3472,-13.16668 -51.36697,-2.93528"
       id="path65453" />
    <path
       style="fill:#ffffff;fill-opacity:1;fill-rule:nonzero;stroke:none;stroke-width:10.7346"
       d="m 337.13579,582.39345 c 0,0 -19.66619,-11.44752 -31.86847,-27.71716 -7.79947,-11.0701 -11.78299,-18.36633 -16.85682,-34.63596 -2.97714,-14.17316 -4.65444,-24.44653 -2.43204,-36.43907 2.22239,-15.47301 13.50214,-33.42005 18.49214,-42.39345 11.27975,-18.03087 17.27601,-24.36259 32.45555,-32.07812 10.6507,-4.78035 25.20118,-5.28348 35.43268,-2.80947 15.09559,5.45116 19.54038,7.00264 26.37534,15.76651 7.58972,12.66344 32.07812,56.73419 32.07812,56.73419 0,0 1.76112,4.23513 -3.85781,3.64816 -5.61884,-0.62904 -38.82914,-0.1256 -38.82914,-0.1256 l -19.12108,-33.41995 c 0,0 -4.5706,-6.24788 -12.999,0.50345 -5.74476,5.91243 -35.68431,60.29852 -36.27139,61.80803 -0.62906,1.50961 -3.48039,8.09295 -4.36095,14.17316 -0.88024,6.08009 -0.96397,11.53136 -0.92211,10.81848 0.29306,-1.13219 -3.89978,19.83396 22.6853,46.16732"
       id="path65455" />
    <path
       style="fill:#1e284f;fill-opacity:1;fill-rule:nonzero;stroke:none;stroke-width:10.7346"
       d="m 243.54314,662.14851 c 1.63531,0 2.97714,-0.67091 2.97714,-2.09659 0,-1.42577 -0.96396,-2.09668 -2.89331,-2.09668 h -2.13855 v 4.19327 z m -0.1256,-8.42841 c 1.84496,0 2.89331,-0.67091 2.89331,-1.97078 0,-1.46764 -1.25799,-1.97088 -2.68367,-1.97088 h -2.13854 v 3.94166 z m -9.35094,12.66356 v -20.5049 h 12.8732 c 4.36094,0 7.0446,1.6773 7.0446,5.07384 0,2.68367 -1.34183,4.27711 -4.19316,5.03187 v 0.0429 c 2.72552,0.33492 4.61256,2.51588 4.61256,4.69642 0,4.73826 -3.56432,5.6608 -8.21876,5.6608 z m 0,0"
       id="path65457" />
    <path
       style="fill:#1e284f;fill-opacity:1;fill-rule:nonzero;stroke:none;stroke-width:10.7346"
       d="m 268.11537,657.20048 c 0,-1.88693 -0.62904,-2.93528 -1.88693,-2.93528 -1.25799,0 -1.97088,1.00584 -1.97088,2.72564 v 0.29306 h 3.85781 z m 5.24152,8.67994 c -1.92891,0.58717 -4.27712,0.88024 -6.83496,0.88024 -6.33172,0 -9.51863,-3.0611 -9.51863,-8.3026 0,-5.11571 3.31271,-7.71554 9.43479,-7.71554 5.36732,0 8.05097,2.97715 8.05097,8.93155 v 0.83837 h -10.18953 c 0.0859,1.46764 1.13219,2.3482 4.02549,2.3482 2.05472,0 3.89968,-0.33492 5.03187,-0.96396 z m 0,0"
       id="path65459" />
    <path
       style="fill:#1e284f;fill-opacity:1;fill-rule:nonzero;stroke:none;stroke-width:10.7346"
       d="m 277.50818,666.38366 v -15.30524 h 6.9188 v 3.48038 h 0.0859 c 1.04878,-2.55785 2.64179,-3.81585 4.65454,-3.81585 0.4616,0 0.9221,0.0429 1.21602,0.1256 v 6.16405 c -0.33492,-0.16746 -1.04877,-0.2512 -1.63542,-0.2512 -2.22239,0 -3.81574,1.92891 -3.81574,4.0255 v 5.57697 z m 0,0"
       id="path65461" />
    <path
       style="fill:#1e284f;fill-opacity:1;fill-rule:nonzero;stroke:none;stroke-width:10.7346"
       d="m 313.06668,666.38366 v -8.93155 c 0,-1.00584 -0.16745,-1.97088 -1.29985,-1.97088 -1.21612,0 -1.29996,1.04877 -1.29996,1.97088 v 8.93155 h -7.42194 v -8.93155 c 0,-0.92211 -0.0859,-1.97088 -1.29996,-1.97088 -1.21602,0 -1.29986,1.13217 -1.29986,1.97088 v 8.93155 h -7.38007 v -15.30524 h 6.96077 v 2.64168 h 0.0859 c 0.75464,-1.84496 2.51588,-2.97715 5.19954,-2.97715 2.30634,0 4.27712,0.92211 4.78036,2.59983 h 0.0859 c 0.50345,-1.8031 3.14493,-2.59983 4.90605,-2.59983 4.78025,0 5.36732,2.76751 5.36732,5.87045 v 9.77026 z m 0,0"
       id="path65463" />
    <path
       style="fill:#1e284f;fill-opacity:1;fill-rule:nonzero;stroke:none;stroke-width:10.7346"
       d="m 334.57795,666.38366 v -2.6417 h -0.0859 c -0.75466,1.84496 -2.51589,3.01912 -4.9899,3.01912 -3.77387,0 -5.36732,-1.9289 -5.36732,-5.03186 v -10.6508 h 7.38006 v 8.93154 c 0,0.79651 0.0429,1.97076 1.29986,1.97076 1.258,0 1.34183,-1.13217 1.34183,-1.97076 v -8.93154 h 7.38007 v 15.30524 z m 0,0"
       id="path65465" />
    <path
       style="fill:#1e284f;fill-opacity:1;fill-rule:nonzero;stroke:none;stroke-width:10.7346"
       d="m 355.96329,658.62615 c 0,-2.18041 -0.46159,-3.3126 -1.88694,-3.3126 -1.67729,0 -1.8031,1.84496 -1.8031,3.1868 0,1.97088 0.41973,3.31271 1.84508,3.31271 1.34182,0 1.84496,-1.13219 1.84496,-3.18691 m 0.33492,7.75751 v -2.76751 h -0.0859 c -0.96397,2.2224 -2.47401,3.14493 -4.90605,3.14493 -4.48676,0 -6.75112,-3.27074 -6.75112,-8.26073 0,-4.27701 2.01274,-7.7574 6.54148,-7.7574 1.97076,0 3.4384,0.67092 4.61256,2.30624 h 0.0429 v -8.67992 h 7.38007 v 22.01439 z m 0,0"
       id="path65467" />
    <path
       style="fill:#1e284f;fill-opacity:1;fill-rule:nonzero;stroke:none;stroke-width:10.7346"
       d="m 376.88746,659.6745 h -0.67092 c -1.59344,0 -3.35457,0.1256 -3.35457,1.71926 0,1.0477 0.58718,1.46754 1.76113,1.46754 1.59344,0 2.26436,-1.55148 2.26436,-2.68367 z m -0.1256,6.70916 v -2.18054 h -0.0429 c -1.04878,1.6773 -2.85144,2.51599 -4.99,2.51599 -2.80947,0 -5.61883,-1.21603 -5.61883,-4.48676 0,-3.6062 2.55784,-5.61895 7.92516,-5.61895 0.58719,0 1.46764,0.0429 2.85135,0.20934 -0.0429,-1.80299 -1.6773,-2.2224 -3.85771,-2.2224 -1.71927,0 -3.52236,0.50346 -5.15768,1.29997 v -4.27711 c 2.64169,-0.75465 4.19316,-0.88025 6.37369,-0.88025 4.78024,0 9.39282,1.00584 9.39282,6.33173 v 9.30898 z m 0,0"
       id="path65469" />
    <path
       style="fill:#1e284f;fill-opacity:1;fill-rule:nonzero;stroke:none;stroke-width:10.7346"
       d="m 406.74318,659.08742 v 7.29624 h -7.8832 v -20.5049 h 17.5696 v 4.94803 h -9.6864 v 3.31261 h 9.39282 v 4.94802 z m 0,0"
       id="path65471" />
    <path
       style="fill:#1e284f;fill-opacity:1;fill-rule:nonzero;stroke:none;stroke-width:10.7346"
       d="m 430.01556,658.45848 c 0,-2.05472 -0.29306,-3.31272 -1.67728,-3.31272 -1.50951,0 -1.59346,1.80311 -1.59346,3.31272 0,2.22239 0.16747,3.85771 1.59346,3.85771 1.46764,0 1.67728,-1.63532 1.67728,-3.85771 m -1.67728,8.26063 c -6.03824,0 -9.47666,-2.85144 -9.47666,-8.26063 0,-5.1157 3.3126,-7.71553 9.47666,-7.71553 6.24788,0 9.51861,2.68367 9.51861,7.71553 0,5.32535 -3.39655,8.26063 -9.51861,8.26063"
       id="path65473" />
    <path
       style="fill:#1e284f;fill-opacity:1;fill-rule:nonzero;stroke:none;stroke-width:10.7346"
       d="m 451.14938,658.45848 c 0,-2.05472 -0.29305,-3.31272 -1.67728,-3.31272 -1.46764,0 -1.55148,1.80311 -1.55148,3.31272 0,2.22239 0.16746,3.85771 1.59346,3.85771 1.46764,0 1.6353,-1.63532 1.6353,-3.85771 m -1.6353,8.26063 c -6.03824,0 -9.47676,-2.85144 -9.47676,-8.26063 0,-5.1157 3.3127,-7.71553 9.47676,-7.71553 6.24788,0 9.51861,2.68367 9.51861,7.71553 0,5.32535 -3.39655,8.26063 -9.51861,8.26063"
       id="path65475" />
    <path
       style="fill:#1e284f;fill-opacity:1;fill-rule:nonzero;stroke:none;stroke-width:10.7346"
       d="m 474.00248,665.96435 c -1.59345,0.4616 -3.27075,0.79652 -5.03187,0.79652 -3.98363,0 -5.70279,-2.05472 -5.70279,-5.9544 v -5.28348 h -2.59981 v -4.44479 h 2.59981 v -3.52236 l 7.38007,-2.2224 v 5.74476 h 3.35459 v 4.44479 h -3.35459 v 4.27711 c 0,1.25798 0.58719,2.01274 1.6773,2.01274 0.54532,0 1.17405,-0.0859 1.67729,-0.2512 z m 0,0"
       id="path65477" />
    <path
       style="fill:#1e284f;fill-opacity:1;fill-rule:nonzero;stroke:none;stroke-width:10.7346"
       d="m 487.67229,658.50035 c 0,-1.97077 -0.4616,-3.1868 -1.84497,-3.1868 -1.63531,0 -1.88693,1.63532 -1.88693,3.3126 0,1.34184 0.20933,3.18691 1.84496,3.18691 1.38381,0 1.88694,-1.21603 1.88694,-3.31271 m -10.90232,7.88331 v -22.01439 h 7.38007 v 8.67992 h 0.0859 c 1.17414,-1.67729 2.64178,-2.30624 4.61256,-2.30624 4.36094,0 6.4995,3.27075 6.4995,7.7574 0,4.90616 -2.2224,8.21876 -6.70914,8.21876 -2.51599,0 -3.94166,-0.92211 -4.94803,-3.10296 h -0.0429 v 2.76751 z m 0,0"
       id="path65479" />
    <path
       style="fill:#1e284f;fill-opacity:1;fill-rule:nonzero;stroke:none;stroke-width:10.7346"
       d="m 508.21915,659.6745 h -0.67092 c -1.55148,0 -3.35458,0.1256 -3.35458,1.71926 0,1.0477 0.58719,1.46754 1.76112,1.46754 1.59346,0 2.26438,-1.55148 2.26438,-2.68367 z m -0.0859,6.70916 v -2.18054 h -0.0859 c -1.00584,1.6773 -2.85133,2.51599 -4.98989,2.51599 -2.76749,0 -5.57696,-1.21603 -5.57696,-4.48676 0,-3.6062 2.51588,-5.61895 7.8832,-5.61895 0.58717,0 1.46764,0.0429 2.85144,0.20934 0,-1.80299 -1.67729,-2.2224 -3.85781,-2.2224 -1.6773,0 -3.52226,0.50346 -5.11571,1.29997 v -4.27711 c 2.59983,-0.75465 4.19316,-0.88025 6.33172,-0.88025 4.82221,0 9.39281,1.00584 9.39281,6.33173 v 9.30898 z m 0,0"
       id="path65481" />
    <path
       style="fill:#1e284f;fill-opacity:1;fill-rule:nonzero;stroke:none;stroke-width:10.7346"
       d="m 518.57635,644.36927 h 7.38006 v 22.01439 h -7.38006 z m 0,0"
       id="path65483" />
    <path
       style="fill:#1e284f;fill-opacity:1;fill-rule:nonzero;stroke:none;stroke-width:10.7346"
       d="m 529.93993,644.36927 h 7.42205 v 22.01439 h -7.42205 z m 0,0"
       id="path65485" />
    <path
       style="fill:#1e284f;fill-opacity:1;fill-rule:nonzero;stroke:none;stroke-width:10.7346"
       d="m 298.97747,688.06258 h -0.0429 l -2.26426,6.70915 h 4.52862 z m 4.5706,16.05999 -1.34183,-4.40282 h -6.62532 l -1.25788,4.40282 h -7.84134 l 7.17042,-20.46291 h 10.86035 l 7.29622,20.46291 z m 0,0"
       id="path65487" />
    <path
       style="fill:#1e284f;fill-opacity:1;fill-rule:nonzero;stroke:none;stroke-width:10.7346"
       d="m 313.36017,699.21651 c 1.42578,0.88024 3.52236,1.38382 5.45127,1.38382 1.42567,0 2.68365,-0.29307 2.68365,-0.96398 0,-0.88024 -1.84506,-1.00584 -3.48038,-1.29997 -2.85144,-0.58717 -5.07383,-1.63531 -5.07383,-4.6964 0,-3.52225 3.22876,-5.15767 8.59608,-5.15767 1.84507,0 3.69004,0.25119 5.49313,0.67091 v 4.06747 c -1.63532,-0.54532 -3.1868,-0.88024 -4.78024,-0.88024 -1.3838,0 -2.55785,0.16745 -2.55785,1.09021 0,0.50345 0.71277,0.67091 2.97715,0.96396 3.77386,0.50345 5.57696,1.84508 5.57696,4.52873 0,4.40292 -4.98988,5.535 -8.47027,5.535 -2.01275,0 -4.23515,-0.29305 -6.41567,-0.88024 z m 0,0"
       id="path65489" />
    <path
       style="fill:#1e284f;fill-opacity:1;fill-rule:nonzero;stroke:none;stroke-width:10.7346"
       d="m 330.76209,699.21651 c 1.3837,0.88024 3.52226,1.38382 5.4092,1.38382 1.42577,0 2.68366,-0.29307 2.68366,-0.96398 0,-0.88024 -1.84496,-1.00584 -3.43841,-1.29997 -2.89331,-0.58717 -5.11571,-1.63531 -5.11571,-4.6964 0,-3.52225 3.27074,-5.15767 8.5961,-5.15767 1.84496,0 3.69002,0.25119 5.53498,0.67091 v 4.06747 c -1.6353,-0.54532 -3.22876,-0.88024 -4.8221,-0.88024 -1.34183,0 -2.55796,0.16745 -2.55796,1.09021 0,0.50345 0.75465,0.67091 3.01912,0.96396 3.73201,0.50345 5.5351,1.84508 5.5351,4.52873 0,4.40292 -4.98989,5.535 -8.47028,5.535 -1.97088,0 -4.23514,-0.29305 -6.3737,-0.88024 z m 0,0"
       id="path65491" />
    <path
       style="fill:#1e284f;fill-opacity:1;fill-rule:nonzero;stroke:none;stroke-width:10.7346"
       d="m 358.85659,696.19741 c 0,-2.05462 -0.29305,-3.31262 -1.67729,-3.31262 -1.46753,0 -1.55148,1.80311 -1.55148,3.31262 0,2.22238 0.16747,3.89968 1.59345,3.89968 1.42567,0 1.63532,-1.6773 1.63532,-3.89968 m -1.63532,8.3026 c -6.03822,0 -9.47664,-2.89331 -9.47664,-8.3026 0,-5.11571 3.27074,-7.71554 9.47664,-7.71554 6.24788,0 9.51863,2.68367 9.51863,7.71554 0,5.32545 -3.39655,8.3026 -9.51863,8.3026"
       id="path65493" />
    <path
       style="fill:#1e284f;fill-opacity:1;fill-rule:nonzero;stroke:none;stroke-width:10.7346"
       d="m 383.89021,703.70327 c -1.42578,0.50346 -3.10307,0.79651 -5.49314,0.79651 -6.12218,0 -9.47676,-2.93528 -9.47676,-8.3026 0,-5.11569 3.22888,-7.71552 9.47676,-7.71552 2.13856,0 3.85771,0.20933 5.36732,0.67092 v 4.48676 c -0.96504,-0.41973 -2.05472,-0.75465 -3.27073,-0.75465 -2.34821,0 -3.73201,1.258 -3.73201,3.43841 0,2.26437 1.3838,3.77388 3.73201,3.77388 1.25799,0 2.3482,-0.29307 3.39655,-0.92211 z m 0,0"
       id="path65495" />
    <path
       style="fill:#1e284f;fill-opacity:1;fill-rule:nonzero;stroke:none;stroke-width:10.7346"
       d="m 387.20281,688.85931 h 7.38006 v 15.26326 h -7.38006 z m 0,-6.75113 h 7.38006 v 5.11581 h -7.38006 z m 0,0"
       id="path65497" />
    <path
       style="fill:#1e284f;fill-opacity:1;fill-rule:nonzero;stroke:none;stroke-width:10.7346"
       d="m 408.33664,697.41342 h -0.67092 c -1.59346,0 -3.35458,0.1256 -3.35458,1.71927 0,1.04877 0.58719,1.46764 1.71926,1.46764 1.63532,0 2.30624,-1.55148 2.30624,-2.68367 z m -0.1256,6.70915 v -2.18042 h -0.0429 c -1.0477,1.67728 -2.85133,2.55786 -4.98989,2.55786 -2.80947,0 -5.61895,-1.258 -5.61895,-4.52863 0,-3.6062 2.51599,-5.61895 7.88331,-5.61895 0.58719,0 1.46764,0.0429 2.89331,0.20934 -0.0429,-1.80311 -1.67728,-2.18054 -3.85782,-2.18054 -1.71914,0 -3.52225,0.46159 -5.15756,1.258 v -4.27712 c 2.59971,-0.75464 4.19316,-0.88024 6.3737,-0.88024 4.78024,0 9.39281,1.00584 9.39281,6.33183 v 9.30887 z m 0,0"
       id="path65499" />
    <path
       style="fill:#1e284f;fill-opacity:1;fill-rule:nonzero;stroke:none;stroke-width:10.7346"
       d="m 430.56066,703.70327 c -1.6353,0.46159 -3.27073,0.79651 -5.03185,0.79651 -3.98352,0 -5.70279,-2.05471 -5.70279,-5.95439 v -5.28338 h -2.64168 v -4.44488 h 2.64168 v -3.52226 l 7.38007,-2.2224 v 5.74466 h 3.35457 v 4.44488 h -3.35457 v 4.27701 c 0,1.25799 0.58719,2.01275 1.63543,2.01275 0.58718,0 1.21601,-0.0859 1.71914,-0.2512 z m 0,0"
       id="path65501" />
    <path
       style="fill:#1e284f;fill-opacity:1;fill-rule:nonzero;stroke:none;stroke-width:10.7346"
       d="m 433.32817,688.85931 h 7.38007 v 15.26326 h -7.38007 z m 0,-6.75113 h 7.38007 v 5.11581 h -7.38007 z m 0,0"
       id="path65503" />
    <path
       style="fill:#1e284f;fill-opacity:1;fill-rule:nonzero;stroke:none;stroke-width:10.7346"
       d="m 454.92326,696.19741 c 0,-2.05462 -0.29306,-3.31262 -1.67729,-3.31262 -1.50951,0 -1.59335,1.80311 -1.59335,3.31262 0,2.22238 0.20934,3.89968 1.63532,3.89968 1.42567,0 1.63532,-1.6773 1.63532,-3.89968 m -1.63532,8.3026 c -6.03824,0 -9.47665,-2.89331 -9.47665,-8.3026 0,-5.11571 3.27064,-7.71554 9.47665,-7.71554 6.24788,0 9.51862,2.68367 9.51862,7.71554 0,5.32545 -3.43842,8.3026 -9.51862,8.3026"
       id="path65505" />
    <path
       style="fill:#1e284f;fill-opacity:1;fill-rule:nonzero;stroke:none;stroke-width:10.7346"
       d="m 475.7636,704.12257 v -8.93154 c 0,-0.9221 -0.0859,-1.9288 -1.29985,-1.9288 -1.258,0 -1.29998,1.0902 -1.29998,1.9288 v 8.93154 h -7.42193 v -15.30523 h 7.00264 v 2.68365 h 0.0429 c 0.79651,-1.88693 2.55784,-3.01912 5.03186,-3.01912 3.64806,0 5.32534,1.80311 5.32534,4.94803 v 10.69267 z m 0,0"
       id="path65507" />
    <path
       style="fill:#f08fb0;fill-opacity:1;fill-rule:nonzero;stroke:none;stroke-width:10.7346"
       d="m 495.42979,489.17824 c 0,0 0.0429,22.72716 -7.92518,41.47092 -5.61894,12.28612 -9.89605,19.41456 -21.42731,31.99428 -10.77661,9.68629 -18.8276,16.3116 -30.27512,20.42093 -14.50852,5.82859 -35.68431,5.1157 -45.95768,5.32535 -21.25964,-0.71279 -29.77179,-2.68367 -44.02877,-11.90869 -9.51863,-6.83496 -17.27602,-19.16306 -20.25328,-29.26864 -2.8933,-15.76651 -3.77386,-20.37907 0.33492,-30.69442 7.17042,-12.95704 32.91682,-56.23106 32.91682,-56.23106 0,0 2.80947,-3.69004 5.07372,1.46764 2.30635,5.19954 19.45655,33.67157 19.45655,33.67157 l -19.24679,33.29413 c 0,0 -3.10306,7.08657 6.9188,10.98625 8.009,1.97078 70.06866,0.54532 71.6621,0.29307 1.63532,-0.2512 8.76376,-1.09021 14.46655,-3.39644 5.70277,-2.26437 10.44115,-4.94803 9.81221,-4.61257 -1.13219,0.29305 19.12108,-6.58335 28.47191,-42.81276"
       id="path65553" />
  </g>
</svg>
