<?xml version="1.0" encoding="UTF-8" standalone="no"?>
<!-- Created with Inkscape (http://www.inkscape.org/) -->

<svg
   width="76.191269mm"
   height="91.857384mm"
   viewBox="0 0 76.191269 91.857384"
   version="1.1"
   id="svg1"
   xmlns="http://www.w3.org/2000/svg"
   xmlns:svg="http://www.w3.org/2000/svg">
  <defs
     id="defs1">
    <clipPath
       id="clip_364">
      <path
         transform="matrix(1,0,0,-1,0,841.89)"
         d="m 176.774,391.417 h 31.33501 v 41.695 H 176.774 Z"
         id="path279" />
    </clipPath>
    <clipPath
       id="clip_365">
      <path
         transform="matrix(1,0,0,-1,0,841.89)"
         d="m 176.774,395.334 h 31.33501 v 37.778 H 176.774 Z"
         id="path280" />
    </clipPath>
    <clipPath
       id="clip_366">
      <path
         transform="matrix(1,0,0,-1,0,841.89)"
         d="m 176.774,391.417 h 31.33501 v 41.695 H 176.774 Z"
         id="path281" />
    </clipPath>
  </defs>
  <g
     id="layer1"
     transform="translate(-70.295542,-116.49614)">
    <g
       id="g1"
       transform="matrix(9.19,0,0,9.19,-887.72366,-1330.2587)">
      <path
         d="m 111.73915,158.2525 -6.38254,3.89864 0.18891,-0.99616 0.27252,-1.46262 -0.46143,-1.11125 0.71358,-0.66278 0.50853,0.33417 0.60087,0.20399 0.70855,-0.20399 0.51567,-0.25135 0.22728,-0.27438 0.24871,0.27438 0.45773,0.29712 0.59213,0.10266 0.6276,-0.0799 0.44688,-0.29713 0.21484,-0.2122 z"
         fill="#e52520"
         id="path2129"
         style="stroke-width:0.264583" />
      <path
         d="m 111.91058,161.45359 -5.7822,3.33534 -0.77709,-1.58168 -0.0767,-1.00595 6.46456,-3.9489 0.23998,0.32861 -0.1143,0.20584 -0.16034,0.46223 -0.20452,0.67495 0.0524,0.39847 z"
         fill="#fddf0d"
         id="path2130"
         style="stroke-width:0.264583" />
      <g
         clip-path="url(#clip_364)"
         id="g2134"
         transform="matrix(0.26458333,0,0,0.26458333,57.474329,49.271233)">
        <path
           transform="matrix(1,0,0,-1,191.9171,430.8304)"
           d="M 0,0 C -0.174,-0.007 -0.146,0.089 -0.092,0.195 0.114,0.264 0.142,0.314 0.117,0.531 0.108,0.624 0.098,0.716 0.098,0.808 0.095,1.148 0.275,1.31 0.602,1.27 0.814,1.244 0.991,1.145 1.137,0.983 1.27,0.835 1.406,0.69 1.574,0.581 1.723,0.485 1.878,0.432 2.055,0.469 2.197,0.383 2.267,0.228 2.372,0.106 2.327,0.053 2.27,0.056 2.21,0.059 1.526,0.099 0.842,0.109 0.161,-0.026 0.108,-0.033 0.051,-0.046 0,0"
           fill="#fddf0d"
           id="path2131" />
        <path
           transform="matrix(1,0,0,-1,183.8242,436.6122)"
           d="M 0,0 21.26,12.436 22.419,7.729 20.507,1.269 18.39,-1.397 2,-2.145 Z"
           fill="#08632d"
           id="path2132" />
        <path
           transform="matrix(1,0,0,-1,182.0594,418.01704)"
           d="m 0,0 c -0.079,0.564 -0.201,1.115 -0.409,1.653 -0.142,0.37 -0.297,0.73 -0.482,1.079 -0.346,0.654 -0.749,1.274 -1.231,1.838 -0.086,0.103 -0.033,0.152 0.033,0.218 0.574,0.568 1.165,1.122 1.713,1.713 0.66,0.706 1.359,1.373 2.033,2.065 C 1.835,8.751 1.831,8.745 1.967,8.527 2.623,7.461 3.561,6.765 4.745,6.395 5.098,6.286 5.458,6.2 5.831,6.194 c 0.066,-0.033 0.138,0 0.201,-0.023 0.287,-0.02 0.574,-0.02 0.861,0 0.057,0.02 0.119,-0.007 0.172,0.023 0.479,0.02 0.927,0.162 1.37,0.33 0.527,0.201 1.006,0.501 1.438,0.858 0.601,0.495 1.102,1.082 1.482,1.769 0.013,0.026 0.033,0.049 0.059,0.089 0.221,-0.396 0.472,-0.756 0.759,-1.093 0.419,-0.488 0.898,-0.907 1.449,-1.244 0.597,-0.363 1.244,-0.587 1.93,-0.699 0.07,-0.01 0.142,-0.007 0.215,-0.007 0.063,-0.036 0.135,0.003 0.201,-0.026 0.287,-0.017 0.574,-0.02 0.861,0.003 0.066,0.023 0.136,-0.013 0.198,0.023 0.482,0.023 0.941,0.152 1.393,0.317 0.498,0.185 0.95,0.455 1.366,0.779 0.462,0.359 0.838,0.802 1.122,1.316 0.073,0.132 0.109,0.122 0.201,0.03 C 22.278,7.454 23.446,6.273 24.617,5.088 24.653,5.052 24.68,4.996 24.746,4.996 24.752,4.9 24.67,4.854 24.617,4.795 24.264,4.386 23.911,3.976 23.456,3.669 23.258,3.537 23.03,3.475 22.805,3.402 22.766,3.392 22.73,3.392 22.697,3.419 c -0.04,0.076 0.009,0.138 0.042,0.198 0.146,0.264 0.304,0.518 0.466,0.769 0.029,0.046 0.062,0.089 0.072,0.145 -0.003,0.053 -0.036,0.089 -0.069,0.125 -0.633,0.686 -1.307,1.337 -1.963,2 -0.08,0.082 -0.139,0.076 -0.218,0 C 19.971,5.636 18.7,5.072 17.252,4.91 15.895,4.762 14.585,4.943 13.361,5.577 12.827,5.854 12.332,6.191 11.893,6.603 11.797,6.692 11.691,6.771 11.596,6.867 11.411,7.052 11.457,7.088 11.236,6.86 10.999,6.616 10.741,6.392 10.467,6.187 9.461,5.441 8.345,4.996 7.091,4.894 5.96,4.801 4.864,4.933 3.808,5.359 3.072,5.656 2.412,6.078 1.848,6.639 1.719,6.768 1.693,6.768 1.571,6.633 0.97,5.966 0.304,5.356 -0.323,4.709 -0.472,4.557 -0.472,4.557 -0.356,4.379 0.376,3.244 0.95,2.043 1.204,0.7 1.257,0.419 1.29,0.135 1.32,-0.149 1.33,-0.238 1.356,-0.34 1.251,-0.399 1.016,-0.389 0.782,-0.393 0.551,-0.37 0.419,-0.356 0.29,-0.356 0.162,-0.35 0.102,-0.346 0.04,-0.353 -0.01,-0.313 -0.026,-0.3 -0.007,-0.317 -0.016,-0.297 -0.033,-0.264 0,-0.29 0.007,-0.284 0.046,-0.251 0.03,-0.208 0.023,-0.168 0,-0.116 0.03,-0.053 0,0"
           fill="#f8ab12"
           id="path2133" />
        <path
           transform="matrix(1,0,0,-1,204.8847,418.1621)"
           d="M 0,0 C 0,-0.016 0.003,-0.033 0.003,-0.049 -0.033,-0.139 0.007,-0.231 -0.02,-0.32 v -0.399 c 0.027,-0.099 -0.016,-0.202 0.023,-0.297 0.007,-0.505 0.126,-0.987 0.258,-1.469 0.247,-0.894 0.597,-1.755 0.871,-2.64 0.228,-0.736 0.425,-1.478 0.524,-2.244 0.03,-0.237 0.07,-0.472 0.106,-0.709 0.02,-0.056 -0.006,-0.119 0.023,-0.172 0.003,-0.076 0.007,-0.148 0.01,-0.224 0.023,-0.089 -0.013,-0.182 0.023,-0.271 0.003,-0.161 0.007,-0.323 0.01,-0.488 0.017,-0.198 0.017,-0.393 0,-0.591 -0.003,-0.165 -0.007,-0.326 -0.007,-0.491 -0.036,-0.099 0.004,-0.202 -0.023,-0.301 -0.003,-0.076 -0.006,-0.148 -0.01,-0.224 -0.029,-0.056 -0.003,-0.116 -0.019,-0.172 -0.142,-1.28 -0.39,-2.541 -0.832,-3.755 -0.478,-1.317 -1.135,-2.534 -2.003,-3.64 -0.657,-0.838 -1.406,-1.587 -2.257,-2.23 -0.049,-0.037 -0.151,-0.089 -0.174,-0.155 -0.02,-0.01 0.002,0.009 -0.008,0.032 -0.023,0.205 0.004,0.41 -0.016,0.618 -0.026,0.27 -0.036,0.541 -0.069,0.811 -0.004,0.037 0,0.076 0.01,0.112 0.019,0.06 0.072,0.096 0.115,0.136 0.937,0.848 1.729,1.811 2.35,2.91 0.828,1.472 1.313,3.053 1.534,4.722 0.069,0.512 0.096,1.027 0.116,1.541 0.026,0.792 -0.024,1.578 -0.136,2.363 -0.02,0.149 -0.049,0.294 -0.089,0.436 -0.115,0.706 -0.33,1.389 -0.554,2.065 -0.287,0.865 -0.624,1.713 -0.835,2.604 -0.145,0.611 -0.231,1.231 -0.241,1.858 0,0.066 -0.003,0.132 0.013,0.198 0.066,0.142 0.205,0.185 0.334,0.214 0.303,0.07 0.617,0.093 0.914,0.192 C -0.043,0.02 -0.02,0.013 0,0 Z"
           fill="#f8ab12"
           id="path2134" />
      </g>
      <g
         clip-path="url(#clip_365)"
         id="g2137"
         transform="matrix(0.26458333,0,0,0.26458333,57.474329,49.271233)">
        <path
           transform="matrix(1,0,0,-1,180.3006,426.4382)"
           d="M 0,0 C 0.003,0.056 0.007,0.109 0.007,0.165 0.043,0.218 0.01,0.277 0.03,0.33 0.099,1.171 0.287,1.99 0.518,2.798 0.66,3.3 0.838,3.792 1.013,4.286 1.188,4.785 1.386,5.28 1.495,5.801 1.624,5.844 1.61,5.732 1.62,5.673 1.647,5.537 1.663,5.402 1.686,5.267 1.716,5.088 1.831,5.003 1.993,4.963 2.155,4.923 2.317,4.907 2.478,4.979 2.511,4.996 2.551,5.006 2.587,4.979 2.623,4.887 2.574,4.808 2.544,4.725 2.251,3.848 1.914,2.983 1.673,2.086 1.488,1.399 1.363,0.706 1.297,0 1.27,-0.274 1.254,-0.544 1.244,-0.818 1.208,-2.049 1.33,-3.26 1.591,-4.465 c 0.211,-0.977 0.537,-1.914 0.976,-2.811 0.472,-0.967 1.066,-1.855 1.792,-2.653 0.149,-0.162 0.287,-0.334 0.456,-0.472 0.112,-0.162 0.28,-0.268 0.419,-0.406 0.046,-0.046 0.099,-0.086 0.125,-0.149 0.033,-0.198 -0.026,-0.389 -0.04,-0.584 -0.016,-0.241 -0.023,-0.478 -0.026,-0.719 0,-0.076 0.013,-0.155 -0.053,-0.215 -0.208,0.083 -0.359,0.251 -0.528,0.387 -0.396,0.326 -0.769,0.676 -1.122,1.052 -0.617,0.657 -1.158,1.37 -1.627,2.135 -0.372,0.611 -0.689,1.254 -0.96,1.914 -0.28,0.696 -0.508,1.412 -0.666,2.145 -0.103,0.469 -0.189,0.944 -0.271,1.416 -0.03,0.168 -0.03,0.343 -0.043,0.518 C 0,-2.851 0.03,-2.788 0,-2.736 c -0.003,0.063 -0.007,0.126 -0.01,0.192 -0.026,0.076 0.013,0.158 -0.023,0.234 -0.003,0.099 -0.007,0.195 -0.007,0.294 -0.029,0.221 0.014,0.445 -0.023,0.666 v 0.182 c 0.04,0.208 -0.003,0.422 0.023,0.63 0.004,0.099 0.007,0.198 0.01,0.294 C 0.013,-0.162 -0.026,-0.076 0,0"
           fill="#f8ab12"
           id="path2135" />
        <path
           transform="matrix(1,0,0,-1,185.5474,438.9085)"
           d="M 0,0 C 0,0.502 0.013,1 0.089,1.495 0.092,1.508 0.079,1.525 0.076,1.541 0.092,1.845 0.172,2.138 0.254,2.429 0.409,3.026 0.65,3.59 0.944,4.135 1.366,4.91 1.911,5.59 2.557,6.184 3.217,6.791 3.966,7.266 4.791,7.623 5.039,7.728 5.29,7.824 5.547,7.906 5.62,7.93 5.692,7.959 5.771,7.946 5.897,7.9 5.897,7.804 5.874,7.699 5.834,7.613 5.748,7.6 5.669,7.573 4.851,7.316 4.098,6.93 3.405,6.422 3.293,6.339 3.191,6.25 3.082,6.167 2.986,6.095 2.976,6.009 3.023,5.907 3.115,5.702 3.264,5.557 3.475,5.474 3.673,5.399 3.877,5.376 4.089,5.376 4.135,5.376 4.25,5.415 4.207,5.28 3.871,5.191 3.521,5.181 3.178,5.125 3.049,5.131 2.92,5.059 2.792,5.118 2.722,5.168 2.736,5.244 2.736,5.313 2.732,5.478 2.736,5.639 2.732,5.831 2.613,5.778 2.548,5.692 2.475,5.616 1.904,5.003 1.406,4.333 1.049,3.57 0.663,2.742 0.409,1.878 0.343,0.964 0.337,0.861 0.304,0.759 0.313,0.653 0.304,0.181 0.33,-0.29 0.376,-0.759 0.439,-1.356 0.68,-1.851 1.115,-2.26 1.386,-2.511 1.62,-2.798 1.861,-3.072 1.897,-3.112 1.937,-3.151 1.93,-3.214 1.864,-3.287 1.812,-3.224 1.762,-3.191 c -0.29,0.188 -0.577,0.383 -0.861,0.574 0.36,-1.439 2.673,-3.752 4.135,-4.118 0.006,0.069 -0.04,0.112 -0.07,0.158 -0.145,0.235 -0.29,0.466 -0.432,0.703 -0.036,0.06 -0.109,0.145 0.049,0.149 0.106,-0.017 0.199,-0.066 0.288,-0.119 0.518,-0.294 1.042,-0.571 1.597,-0.789 0.61,-0.237 1.247,-0.287 1.897,-0.237 0.267,0.019 0.531,0.082 0.802,0.052 C 9.22,-6.897 9.151,-6.936 9.111,-6.979 9.025,-7.075 8.929,-7.164 8.814,-7.28 c 1.907,0.251 3.471,1.08 4.752,2.462 -0.277,0.013 -0.551,0.03 -0.822,0.053 -0.175,0.013 -0.191,0.026 -0.201,0.205 0.102,0.541 0.165,1.089 0.247,1.633 0.01,0.059 0.014,0.119 0.04,0.175 0.046,0.099 0.049,0.211 0.076,0.317 0.006,0.026 0.02,0.056 0.049,0.056 0.03,0 0.043,-0.03 0.05,-0.056 0.023,-0.113 0.006,-0.228 0.013,-0.344 -0.01,-0.28 0.003,-0.557 -0.026,-0.838 -0.02,-0.188 0.029,-0.383 0.036,-0.574 0,-0.063 0.043,-0.112 0.092,-0.148 0.159,-0.126 0.35,-0.185 0.532,-0.261 0.082,-0.033 0.132,0.026 0.178,0.082 0.409,0.489 0.749,1.02 1.013,1.598 0.251,0.541 0.439,1.102 0.561,1.686 0.099,0.518 0.171,1.043 0.158,1.567 -0.029,1.482 -0.419,2.858 -1.237,4.105 -0.043,0.063 -0.086,0.129 -0.122,0.195 -0.614,0.884 -1.383,1.604 -2.297,2.171 -0.076,0.046 -0.149,0.093 -0.228,0.132 -0.056,0.043 -0.125,0.07 -0.175,0.119 -0.043,0.142 -0.168,0.248 -0.181,0.406 0.086,0.036 0.148,-0.02 0.214,-0.056 0.664,-0.35 1.274,-0.772 1.825,-1.284 0.726,-0.68 1.31,-1.462 1.743,-2.356 0.313,-0.643 0.537,-1.323 0.666,-2.029 0.013,-0.066 0.013,-0.132 0.01,-0.198 0.023,-0.337 0.066,-0.67 0.079,-1.01 0.007,-0.185 0,-0.37 -0.003,-0.554 -0.003,-0.083 0.01,-0.165 -0.01,-0.245 -0.003,-0.066 -0.007,-0.128 -0.01,-0.194 -0.033,-0.053 0,-0.116 -0.023,-0.169 C 15.681,-1.577 15.427,-2.485 14.978,-3.333 14.632,-3.99 14.209,-4.59 13.701,-5.135 13.094,-5.788 12.391,-6.316 11.609,-6.732 10.909,-7.105 10.164,-7.355 9.385,-7.501 9.16,-7.544 8.936,-7.563 8.712,-7.606 8.655,-7.622 8.618,-7.622 8.537,-7.626 8.431,-7.629 8.322,-7.633 8.217,-7.639 8.019,-7.649 7.821,-7.652 7.626,-7.636 7.527,-7.633 7.431,-7.629 7.332,-7.626 7.283,-7.617 7.207,-7.617 7.131,-7.603 6.293,-7.54 5.494,-7.316 4.729,-6.983 4.122,-6.719 3.554,-6.382 3.036,-5.96 2.778,-5.748 2.515,-5.541 2.283,-5.3 1.815,-4.811 1.406,-4.283 1.063,-3.699 0.657,-3.006 0.376,-2.267 0.185,-1.492 0.125,-1.254 0.099,-1.007 0.059,-0.766 0.033,-0.713 0.069,-0.65 0.033,-0.601 0.03,-0.545 0.026,-0.492 0.023,-0.436 0,-0.37 0.036,-0.297 0,-0.234 0.007,-0.152 0.003,-0.076 0,0"
           fill="#31332e"
           id="path2136" />
        <path
           transform="matrix(1,0,0,-1,182.8712,421.462)"
           d="M 0,0 C -0.234,-0.145 -0.475,-0.106 -0.713,-0.013 -0.874,0.049 -0.917,0.205 -0.947,0.36 -0.967,0.462 -0.967,0.568 -0.99,0.67 -1.003,0.723 -0.977,0.812 -1.076,0.822 -1.191,0.898 -1.303,0.874 -1.442,0.716 -1.574,0.564 -1.713,0.419 -1.884,0.307 -2.148,0.135 -2.419,0.201 -2.597,0.459 -2.742,0.67 -2.838,0.911 -3.036,1.089 -3.303,1.33 -3.617,1.501 -3.917,1.69 -4.574,2.102 -5.234,2.508 -5.89,2.92 c -0.066,0.043 -0.129,0.106 -0.172,0.175 -0.059,0.096 -0.049,0.192 0.073,0.238 0.049,0.02 0.105,0.03 0.158,0.043 0.066,0.023 0.139,-0.013 0.201,0.023 0.04,0 0.076,0 0.116,-0.003 0.122,-0.037 0.251,0.003 0.373,-0.024 0.119,-0.003 0.237,-0.006 0.356,-0.009 0.122,-0.037 0.248,0.006 0.37,-0.024 0.109,-0.003 0.218,-0.006 0.326,-0.006 0.119,-0.04 0.248,0.003 0.367,-0.027 C -3.613,3.303 -3.508,3.3 -3.399,3.297 -3.29,3.26 -3.174,3.3 -3.062,3.273 -2.953,3.27 -2.844,3.267 -2.736,3.264 -2.627,3.224 -2.511,3.267 -2.402,3.24 -2.297,3.237 -2.191,3.234 -2.082,3.231 -1.98,3.198 -1.874,3.234 -1.775,3.207 -1.67,3.204 -1.564,3.201 -1.455,3.198 -1.353,3.165 -1.247,3.201 -1.148,3.174 -1.036,3.168 -0.924,3.158 -0.808,3.151 -0.383,3.128 0.043,3.102 0.469,3.079 0.538,3.125 0.617,3.118 0.693,3.112 1.894,3.036 3.089,2.894 4.26,2.604 5.385,2.326 6.517,2.069 7.646,1.805 8.293,1.653 8.867,1.346 9.372,0.911 9.487,0.808 9.589,0.693 9.682,0.571 9.85,0.36 10.002,0.135 10.117,-0.106 c 0.149,-0.313 0.367,-0.571 0.598,-0.821 0.155,-0.169 0.323,-0.327 0.488,-0.492 0.135,-0.132 0.172,-0.135 0.314,0 0.217,0.208 0.438,0.419 0.64,0.64 0.343,0.376 0.699,0.746 0.977,1.178 0.099,0.155 0.184,0.314 0.237,0.489 0.162,0.544 0.426,1.049 0.69,1.547 0.115,0.218 0.284,0.403 0.449,0.588 0.234,0.26 0.485,0.511 0.722,0.765 0.205,0.139 0.376,0.324 0.541,0.502 1.043,1.115 2.343,1.759 3.812,2.095 0.092,0.02 0.185,0.03 0.274,0.053 0.544,0.083 1.079,0.198 1.61,0.337 0.135,0.036 0.271,0.099 0.416,0.082 0.558,0.102 0.986,0.423 1.363,0.822 0.231,0.247 0.452,0.501 0.679,0.752 0.202,0.205 0.459,0.294 0.73,0.353 0.085,0.01 0.175,0.013 0.26,0 C 25.271,8.679 25.28,8.481 25.191,8.18 25.102,7.874 24.944,7.603 24.759,7.349 24.429,6.897 24.205,6.389 23.99,5.877 23.881,5.62 23.733,5.412 23.432,5.369 23.366,5.359 23.3,5.356 23.238,5.372 22.914,5.395 22.914,5.392 23.03,5.092 23.083,4.956 23.129,4.821 23.178,4.686 23.188,4.63 23.192,4.577 23.175,4.524 23.076,4.343 22.901,4.293 22.716,4.263 22.604,4.244 22.555,4.204 22.538,4.082 22.495,3.735 22.373,3.432 22.007,3.297 21.746,3.201 21.476,3.132 21.198,3.112 21.017,3.099 20.862,3.029 20.727,2.917 20.505,2.703 20.403,2.429 20.347,2.132 20.258,1.686 19.938,1.402 19.611,1.129 19.595,1.115 19.575,1.102 19.558,1.089 19.083,0.729 19.083,0.729 19.232,0.162 c 0.062,-0.235 -0.004,-0.41 -0.238,-0.469 -0.353,-0.092 -0.492,-0.29 -0.525,-0.65 -0.033,-0.383 -0.214,-0.502 -0.603,-0.502 -0.215,0 -0.426,-0.033 -0.637,-0.069 -0.139,-0.023 -0.155,-0.069 -0.076,-0.188 0.079,-0.119 0.185,-0.218 0.284,-0.32 0.039,-0.04 0.079,-0.076 0.115,-0.119 0.076,-0.086 0.152,-0.181 0.089,-0.293 -0.059,-0.106 -0.175,-0.09 -0.28,-0.083 -0.393,0.023 -0.789,0.063 -1.182,0.016 -0.095,-0.009 -0.158,-0.042 -0.158,-0.148 0,-0.04 -0.007,-0.076 -0.033,-0.109 -0.05,-0.036 -0.099,-0.036 -0.145,0.007 -0.007,0.016 -0.007,0.033 0,0.049 0.036,0.063 0.02,0.136 0.036,0.201 0.059,0.159 0.198,0.152 0.33,0.156 0.102,0 0.201,-0.014 0.3,0.019 0.066,0.014 0.132,0.014 0.198,0 0.136,-0.036 0.277,-0.013 0.416,-0.019 0.069,0 0.139,0 0.205,-0.01 0.049,0.003 0.102,-0.06 0.145,0.01 -0.099,0.155 -0.238,0.273 -0.35,0.412 -0.059,0.073 -0.122,0.142 -0.162,0.228 -0.079,0.171 -0.023,0.297 0.162,0.333 0.228,0.043 0.455,0.079 0.686,0.079 0.337,0.004 0.479,0.099 0.505,0.429 0.03,0.38 0.185,0.611 0.565,0.703 0.204,0.05 0.231,0.149 0.168,0.353 -0.007,0.027 -0.017,0.053 -0.023,0.079 -0.116,0.396 -0.036,0.627 0.3,0.872 0.142,0.102 0.277,0.214 0.413,0.33 0.273,0.231 0.422,0.528 0.495,0.871 0.042,0.201 0.105,0.386 0.254,0.544 0.227,0.244 0.511,0.35 0.834,0.373 0.238,0.017 0.462,0.096 0.68,0.192 0.211,0.089 0.33,0.247 0.386,0.461 0.02,0.076 0.04,0.149 0.047,0.225 0.013,0.152 0.092,0.228 0.24,0.241 0.024,0.003 0.043,0.006 0.066,0.01 0.314,0.069 0.373,0.184 0.258,0.478 -0.05,0.122 -0.106,0.244 -0.135,0.373 -0.037,0.155 0.026,0.244 0.188,0.257 0.082,0.007 0.165,0.007 0.247,0.004 0.281,-0.017 0.459,0.122 0.561,0.369 0.083,0.198 0.168,0.396 0.258,0.588 0.141,0.31 0.297,0.613 0.498,0.891 0.218,0.297 0.402,0.617 0.508,0.973 0.03,0.066 0.036,0.135 0,0.201 C 25.053,8.626 24.94,8.665 24.812,8.665 24.416,8.662 24.109,8.471 23.861,8.18 23.604,7.88 23.337,7.59 23.046,7.319 22.644,6.943 22.142,6.791 21.631,6.653 21.027,6.488 20.413,6.362 19.793,6.263 19.169,6.164 18.582,5.956 18.007,5.699 17.503,5.471 17.031,5.201 16.602,4.848 16.457,4.729 16.334,4.587 16.183,4.478 15.793,4.082 15.377,3.712 14.988,3.316 14.816,3.142 14.645,2.96 14.49,2.769 14.46,2.726 14.421,2.689 14.394,2.643 14.361,2.581 14.325,2.524 14.275,2.472 14.09,2.214 13.952,1.93 13.82,1.643 13.671,1.317 13.546,0.977 13.437,0.634 13.414,0.584 13.391,0.535 13.374,0.482 13.322,0.356 13.259,0.241 13.16,0.145 c -0.238,-0.27 -0.459,-0.557 -0.703,-0.825 -0.29,-0.313 -0.591,-0.617 -0.904,-0.907 -0.182,-0.169 -0.234,-0.159 -0.413,0.02 -0.29,0.29 -0.584,0.577 -0.861,0.877 -0.125,0.129 -0.221,0.278 -0.277,0.449 C 9.847,0.162 9.586,0.495 9.273,0.782 8.794,1.221 8.223,1.495 7.6,1.663 7.527,1.683 7.451,1.703 7.372,1.693 7.025,1.762 6.692,1.874 6.349,1.95 5.894,2.049 5.435,2.148 4.976,2.234 4.904,2.247 4.821,2.247 4.762,2.307 4.369,2.435 3.963,2.498 3.561,2.587 2.92,2.729 2.274,2.825 1.62,2.877 1.231,2.907 0.841,2.934 0.455,2.957 -0.003,2.986 -0.465,3 -0.924,3.046 -1.132,3.066 -1.34,3.069 -1.548,3.076 -2.086,3.095 -2.623,3.128 -3.158,3.155 -3.947,3.194 -4.735,3.221 -5.524,3.27 -5.633,3.277 -5.742,3.254 -5.851,3.231 -5.93,3.214 -5.946,3.161 -5.887,3.099 -5.824,3.036 -5.752,2.986 -5.679,2.94 c 0.706,-0.468 1.432,-0.904 2.155,-1.343 0.392,-0.237 0.726,-0.518 0.95,-0.934 0.221,-0.412 0.442,-0.435 0.805,-0.142 0.073,0.06 0.132,0.129 0.195,0.202 0.102,0.122 0.228,0.208 0.386,0.231 0.152,0.019 0.228,-0.027 0.281,-0.169 0.046,-0.132 0.046,-0.27 0.072,-0.406 0.066,-0.339 0.502,-0.498 0.772,-0.273 0.05,0.043 0.093,0.092 0.146,0.135 C 0.247,0.373 0.379,0.33 0.439,0.125 0.455,0.066 0.465,0.007 0.478,-0.053 0.544,-0.297 0.67,-0.416 0.927,-0.445 c 0.238,-0.03 0.472,-0.007 0.706,0.029 0.416,0.063 0.789,-0.231 0.825,-0.65 0.01,-0.099 0.017,-0.198 0.043,-0.294 0.05,-0.181 0.126,-0.244 0.317,-0.25 0.231,-0.007 0.462,0.006 0.69,0.033 0.247,0.029 0.386,-0.116 0.363,-0.37 C 3.864,-2.023 3.834,-2.095 3.825,-2.175 3.801,-2.34 3.858,-2.409 4.026,-2.429 c 0.082,-0.01 0.165,0.014 0.244,0.023 0.208,0.02 0.36,-0.056 0.462,-0.244 0.132,-0.244 0.29,-0.465 0.478,-0.67 0.149,-0.165 0.235,-0.184 0.436,-0.109 0.109,0.043 0.221,0.07 0.337,0.066 0.419,-0.009 0.693,-0.316 0.65,-0.735 C 6.613,-4.296 6.474,-4.405 6.303,-4.475 5.554,-4.782 4.808,-5.092 4.056,-5.385 3.27,-5.692 2.514,-6.062 1.749,-6.408 1.495,-6.524 1.261,-6.676 1.039,-6.742 c 0.126,0.043 0.297,0.116 0.466,-0.019 0,-0.043 -0.03,-0.063 -0.063,-0.073 C 1.175,-6.847 0.907,-6.89 0.637,-6.877 0.383,-6.864 0.162,-6.956 -0.03,-7.118 c -0.148,-0.119 -0.31,-0.234 -0.422,-0.399 -0.139,-0.195 -0.099,-0.287 0.135,-0.314 0.132,-0.013 0.264,-0.016 0.393,-0.049 0.129,-0.033 0.251,-0.083 0.35,-0.175 0.099,-0.096 0.135,-0.208 0.112,-0.343 -0.03,-0.185 -0.06,-0.37 -0.102,-0.551 -0.04,-0.152 -0.014,-0.178 0.128,-0.132 0.32,0.102 0.627,0.237 0.891,0.452 0.159,0.125 0.149,0.168 -0.016,0.277 -0.109,0.073 -0.228,0.135 -0.304,0.247 -0.112,0.162 -0.099,0.314 0.06,0.436 0.181,0.139 0.339,0.294 0.491,0.462 0.043,0.03 0.089,0.056 0.145,0.026 C 1.855,-7.276 1.782,-7.332 1.729,-7.392 1.61,-7.527 1.472,-7.646 1.33,-7.761 1.195,-7.87 1.191,-7.953 1.32,-8.072 1.409,-8.154 1.518,-8.207 1.62,-8.276 1.789,-8.388 1.802,-8.487 1.67,-8.642 1.564,-8.768 1.432,-8.854 1.294,-8.929 1.053,-9.061 0.808,-9.187 0.538,-9.253 0.3,-9.309 0.211,-9.217 0.267,-8.982 c 0.047,0.191 0.093,0.383 0.122,0.581 0.02,0.128 -0.026,0.211 -0.122,0.28 -0.138,0.099 -0.303,0.116 -0.445,0.162 -0.036,0.006 -0.013,-0.037 -0.017,-0.013 0,0.006 0.004,0.009 0.014,0.006 C 0.195,-8.025 0.343,-8.23 0.274,-8.599 0.234,-8.811 0.188,-9.019 0.148,-9.23 0.139,-9.283 0.129,-9.339 0.132,-9.395 0.135,-9.49 0.185,-9.523 0.274,-9.487 c 0.102,0.043 0.198,0.099 0.297,0.145 0.152,0.069 0.303,0.129 0.475,0.116 0.155,-0.01 0.238,-0.073 0.264,-0.222 0.046,-0.26 0.059,-0.524 0.073,-0.785 0.006,-0.109 0.01,-0.218 0.026,-0.327 0.036,-0.234 0.089,-0.27 0.33,-0.221 -0.261,0.02 -0.396,0.202 -0.343,0.485 0.046,0.248 0.105,0.495 0.162,0.743 0.052,0.237 0.247,0.36 0.455,0.445 0.393,0.159 0.782,0.327 1.204,0.393 0.208,0.033 0.383,0.129 0.495,0.317 0.063,0.102 0.152,0.221 0.287,0.168 C 4.141,-8.286 4.098,-8.438 4.082,-8.553 4.019,-8.992 3.765,-9.316 3.429,-9.586 3.257,-9.725 3.089,-9.867 2.914,-9.999 c -0.136,-0.102 -0.195,-0.267 -0.337,-0.356 0.244,0.165 0.498,0.31 0.739,0.478 0.499,0.354 0.928,0.773 1.291,1.264 0.128,0.175 0.191,0.383 0.264,0.584 0.066,0.185 0.128,0.373 0.267,0.525 0.261,0.284 0.594,0.37 0.96,0.228 0.324,-0.126 0.591,-0.34 0.835,-0.578 0.3,-0.29 0.594,-0.59 0.888,-0.884 0.27,-0.274 0.6,-0.373 0.976,-0.347 0.235,0.017 0.284,0.08 0.261,0.311 -0.01,0.082 -0.003,0.165 -0.006,0.247 -0.01,0.37 0.257,0.571 0.63,0.541 0.241,-0.019 0.455,-0.118 0.627,-0.3 0.145,-0.152 0.29,-0.3 0.472,-0.409 0.28,-0.168 0.488,-0.112 0.637,0.181 0.082,0.165 0.122,0.344 0.112,0.528 -0.007,0.132 0.043,0.231 0.145,0.314 0.488,0.392 0.967,0.795 1.455,1.191 0.333,0.271 0.736,0.416 1.159,0.488 0.042,0.007 0.089,0.007 0.128,-0.009 0.033,-0.02 0.05,-0.047 0.04,-0.086 -0.063,-0.066 -0.152,-0.06 -0.231,-0.076 -0.479,-0.089 -0.885,-0.314 -1.244,-0.64 -0.376,-0.34 -0.782,-0.641 -1.172,-0.961 -0.095,-0.079 -0.138,-0.161 -0.132,-0.28 0.007,-0.145 -0.02,-0.284 -0.072,-0.419 -0.03,-0.066 -0.056,-0.129 -0.096,-0.192 -0.043,-0.075 -0.089,-0.151 -0.165,-0.201 -0.049,-0.03 -0.099,-0.056 -0.155,-0.072 -0.225,-0.057 -0.406,0.049 -0.584,0.165 -0.162,0.105 -0.287,0.257 -0.429,0.386 C 9.982,-8.2 9.761,-8.091 9.487,-8.151 9.322,-8.184 9.226,-8.289 9.21,-8.454 9.197,-8.573 9.2,-8.695 9.217,-8.817 9.253,-9.058 9.21,-9.121 8.972,-9.207 8.92,-9.213 8.87,-9.236 8.817,-9.24 c -0.089,-0.006 -0.178,-0.006 -0.27,0 -0.053,0 -0.103,0.027 -0.155,0.027 C 8.114,-9.184 7.9,-9.035 7.705,-8.847 7.418,-8.566 7.138,-8.279 6.854,-7.996 6.656,-7.804 6.445,-7.626 6.204,-7.491 5.735,-7.227 5.31,-7.369 5.092,-7.857 5.049,-7.953 5.006,-8.048 4.98,-8.151 4.877,-8.553 4.623,-8.863 4.353,-9.16 3.646,-9.936 2.765,-10.457 1.828,-10.893 c -0.056,-0.026 -0.112,-0.046 -0.171,-0.056 -0.241,-0.03 -0.373,0.083 -0.396,0.327 -0.033,0.35 -0.047,0.703 -0.096,1.049 -0.027,0.191 -0.093,0.234 -0.281,0.185 -0.191,-0.05 -0.369,-0.139 -0.551,-0.221 -0.237,-0.109 -0.359,-0.033 -0.363,0.227 -0.003,0.202 0.073,0.39 0.103,0.585 0.016,0.099 0.043,0.194 0.056,0.29 0.023,0.178 -0.033,0.28 -0.195,0.36 -0.145,0.069 -0.304,0.089 -0.462,0.112 -0.29,0.046 -0.363,0.188 -0.231,0.452 0.135,0.274 0.317,0.515 0.551,0.713 0.142,0.122 0.314,0.155 0.492,0.158 0.346,0.01 0.67,0.092 0.98,0.251 1.307,0.66 2.656,1.221 4.016,1.755 0.313,0.123 0.62,0.254 0.93,0.38 0.142,0.056 0.274,0.132 0.268,0.313 C 6.464,-3.745 6.346,-3.577 6.144,-3.521 5.986,-3.478 5.841,-3.508 5.696,-3.567 5.461,-3.663 5.27,-3.617 5.105,-3.425 4.91,-3.201 4.732,-2.963 4.59,-2.703 4.531,-2.594 4.452,-2.538 4.326,-2.544 4.191,-2.541 4.059,-2.59 3.917,-2.551 c -0.188,0.053 -0.254,0.132 -0.251,0.327 0.003,0.089 0.03,0.171 0.046,0.261 0.03,0.188 -0.029,0.264 -0.217,0.247 C 3.264,-1.739 3.036,-1.756 2.805,-1.749 2.544,-1.739 2.422,-1.643 2.359,-1.396 2.336,-1.3 2.32,-1.201 2.31,-1.105 2.267,-0.723 2.016,-0.518 1.64,-0.561 1.426,-0.584 1.214,-0.604 1,-0.594 0.604,-0.574 0.409,-0.409 0.323,-0.026 0.317,0.007 0.31,0.04 0.3,0.069 0.277,0.149 0.234,0.165 0.168,0.112 0.112,0.066 0.073,0.01 0,0 Z"
           fill="#1c110b"
           id="path2137" />
      </g>
      <g
         clip-path="url(#clip_366)"
         id="g2237"
         transform="matrix(0.26458333,0,0,0.26458333,57.474329,49.271233)">
        <path
           transform="matrix(1,0,0,-1,198.4202,441.68373)"
           d="m 0,0 c -0.086,-0.558 -0.172,-1.115 -0.261,-1.673 -0.006,-0.05 -0.023,-0.096 -0.033,-0.142 -0.095,-0.171 -0.241,-0.297 -0.392,-0.412 -0.568,-0.433 -1.205,-0.736 -1.861,-1.004 -0.212,-0.085 -0.423,-0.181 -0.651,-0.231 -0.201,0.05 -0.366,0.172 -0.541,0.271 -0.514,0.29 -1.033,0.584 -1.547,0.875 -0.07,0.039 -0.149,0.075 -0.182,0.158 0.023,0.363 0.112,0.716 0.162,1.072 0.01,0.06 0.02,0.119 0.026,0.179 0.004,0.039 0,0.079 -0.049,0.089 -0.043,0.006 -0.076,-0.01 -0.099,-0.047 -0.027,-0.042 -0.03,-0.092 -0.04,-0.141 -0.053,-0.307 -0.102,-0.618 -0.155,-0.924 -0.013,-0.083 -0.03,-0.162 -0.089,-0.228 -0.04,-0.04 -0.089,-0.063 -0.142,-0.079 -0.733,-0.251 -1.475,-0.475 -2.208,-0.723 -0.019,-0.007 -0.042,-0.01 -0.066,-0.013 -0.231,0.026 -0.399,0.178 -0.577,0.297 -0.759,0.515 -1.37,1.181 -1.888,1.934 -0.122,0.174 -0.201,0.376 -0.234,0.594 0.066,0.3 0.165,0.59 0.251,0.884 0.145,0.495 0.287,0.99 0.442,1.482 0.02,0.062 0.027,0.132 0.086,0.171 0.168,0.05 0.336,0.093 0.505,0.139 0.043,0.013 0.086,0.02 0.125,0.039 0.05,0.027 0.076,0.066 0.06,0.122 -0.017,0.07 -0.073,0.056 -0.119,0.043 C -9.613,2.693 -9.751,2.663 -9.886,2.62 -9.959,2.597 -10.032,2.571 -10.111,2.581 c -0.076,0.023 -0.109,0.089 -0.148,0.148 -0.383,0.548 -0.753,1.106 -1.135,1.657 -0.05,0.069 -0.116,0.135 -0.109,0.234 0.165,0.643 0.439,1.241 0.745,1.825 0.245,0.462 0.522,0.904 0.815,1.333 0.063,0.092 0.133,0.158 0.245,0.168 0.349,0.046 0.703,0.096 1.052,0.142 0.073,0.059 0.165,0.059 0.248,0.066 0.277,0.023 0.551,0.076 0.828,0.076 0.152,0.013 0.251,-0.059 0.337,-0.185 0.231,-0.333 0.468,-0.663 0.709,-0.993 0.076,0.185 0.003,0.32 -0.102,0.465 -0.192,0.261 -0.396,0.515 -0.548,0.799 0,0.059 0.04,0.099 0.079,0.135 0.159,0.155 0.337,0.29 0.489,0.452 0.029,0.033 0.072,0.073 0.125,0.033 0.106,-0.165 0.026,-0.35 0.066,-0.544 0.155,0.198 0.178,0.412 0.158,0.636 -0.006,0.053 -0.023,0.106 -0.009,0.162 0.085,0.126 0.174,0.244 0.326,0.3 0.152,-0.052 0.254,-0.165 0.36,-0.28 0.168,-0.182 0.32,-0.376 0.402,-0.647 0.07,0.353 -0.059,0.614 -0.237,0.861 -0.046,0.063 -0.145,0.129 -0.086,0.208 0.06,0.076 0.152,0.004 0.228,-0.023 0.102,-0.036 0.201,-0.086 0.3,-0.132 0.248,-0.115 0.488,-0.241 0.558,-0.561 0.059,0.162 0.026,0.317 -0.083,0.472 -0.023,0.033 -0.049,0.06 -0.072,0.089 -0.165,0.178 -0.139,0.287 0.092,0.383 0.066,0.026 0.135,0.05 0.208,0.036 0.208,-0.039 0.419,-0.056 0.617,-0.128 0.208,-0.221 0.323,-0.489 0.363,-0.786 0.007,-0.059 -0.007,-0.118 0.01,-0.198 0.109,0.235 0.063,0.462 0.056,0.687 0,0.059 -0.023,0.118 0.017,0.171 0.042,0.033 0.092,0.03 0.141,0.02 C -2.848,9.609 -2.627,9.58 -2.412,9.507 -2.27,9.391 -2.267,9.203 -2.178,9.058 -1.904,8.458 -1.614,7.864 -1.386,7.24 -1.383,7.144 -1.439,7.078 -1.492,7.006 -1.548,6.93 -1.607,6.86 -1.653,6.778 -1.68,6.735 -1.68,6.695 -1.637,6.662 c 0.046,-0.033 0.093,-0.039 0.132,0.01 0.076,0.089 0.142,0.182 0.208,0.274 0.05,0.073 0.106,0.126 0.201,0.119 C -0.594,6.946 -0.109,6.775 0.386,6.633 0.634,6.56 0.878,6.484 1.122,6.398 1.172,6.379 1.221,6.362 1.251,6.313 1.521,5.59 1.637,4.831 1.765,4.075 1.825,3.719 1.874,3.359 1.917,3.003 1.93,2.904 1.95,2.808 1.93,2.709 1.917,2.633 1.871,2.581 1.818,2.531 1.353,2.059 0.851,1.62 0.393,1.139 0.36,1.102 0.32,1.069 0.267,1.066 0.033,1.142 -0.148,1.307 -0.353,1.435 -0.805,1.716 -1.254,2.003 -1.703,2.293 -1.756,2.33 -1.831,2.419 -1.884,2.343 -1.944,2.26 -1.874,2.181 -1.792,2.128 -1.27,1.792 -0.746,1.459 -0.221,1.125 -0.106,1.053 0.017,0.987 0.116,0.891 0.145,0.835 0.142,0.779 0.135,0.719 0.132,0.703 0.129,0.686 0.125,0.67 0.102,0.604 0.116,0.535 0.096,0.469 0.023,0.323 0.043,0.155 0,0"
           fill="#ffffff"
           id="path2138" />
        <path
           transform="matrix(1,0,0,-1,188.3853,439.3045)"
           d="m 0,0 c -0.251,-0.848 -0.505,-1.696 -0.756,-2.541 -0.006,-0.109 -0.013,-0.218 -0.062,-0.313 -0.037,-0.07 -0.073,-0.08 -0.099,0.006 -0.04,0.152 -0.172,0.238 -0.264,0.347 -0.241,0.284 -0.492,0.561 -0.756,0.821 -0.307,0.301 -0.455,0.667 -0.525,1.073 -0.092,0.551 -0.128,1.109 -0.099,1.67 0.145,0.26 0.343,0.481 0.512,0.722 0.102,0.149 0.218,0.291 0.317,0.439 0.016,0.02 0.033,0.043 0.049,0.063 0.116,0.138 0.162,0.128 0.231,-0.046 C -1.178,1.785 -0.858,1.36 -0.564,0.921 -0.409,0.69 -0.247,0.462 -0.086,0.231 -0.017,0.168 0.083,0.119 0,0"
           fill="#6e6f72"
           id="path2139" />
        <path
           transform="matrix(1,0,0,-1,198.6842,440.5914)"
           d="M 0,0 C 0.535,0.518 1.069,1.033 1.604,1.551 1.617,1.564 1.617,1.591 1.624,1.61 1.765,1.765 1.792,1.762 1.874,1.571 1.914,1.478 1.944,1.386 1.977,1.294 2.085,1.006 2.181,0.709 2.313,0.429 2.039,-0.818 1.508,-1.937 0.69,-2.924 0.643,-2.98 0.604,-3.013 0.525,-2.977 c -0.175,0.08 -0.353,0.146 -0.522,0.245 -0.119,0.069 -0.158,0.161 -0.168,0.293 -0.036,0.439 0.013,0.875 0.007,1.314 0.042,0.244 -0.01,0.488 -0.007,0.732 0,0.063 0,0.126 0.003,0.192 C -0.165,-0.089 -0.076,-0.049 0,0 Z"
           fill="#6e6f72"
           id="path2140" />
        <path
           transform="matrix(1,0,0,-1,192.982,443.855)"
           d="M 0,0 C 0.746,-0.422 1.492,-0.841 2.241,-1.264 2.303,-1.284 2.396,-1.307 2.333,-1.386 2.171,-1.587 1.996,-1.779 1.756,-1.888 1.327,-1.93 0.898,-1.987 0.462,-1.987 c -0.64,0.004 -1.251,0.139 -1.828,0.42 -0.436,0.211 -0.871,0.422 -1.284,0.669 -0.069,0.043 -0.148,0.063 -0.224,0.096 0.046,0.063 0.119,-0.007 0.168,0.033 0.802,0.267 1.604,0.531 2.406,0.799 C -0.191,0.116 -0.089,0.119 0,0"
           fill="#6e6f72"
           id="path2141" />
        <path
           transform="matrix(1,0,0,-1,199.6478,435.37434)"
           d="m 0,0 c -0.033,0.02 -0.069,0.04 -0.102,0.059 0.016,0.017 0.006,0.027 -0.01,0.037 -0.657,0.307 -1.294,0.66 -1.931,1.003 -0.204,0.109 -0.369,0.254 -0.504,0.439 -0.284,0.386 -0.545,0.785 -0.802,1.191 -0.033,0.05 -0.07,0.102 -0.073,0.165 0.026,0.158 -0.023,0.32 0.02,0.478 0.135,0.073 0.284,0.07 0.432,0.07 0.093,0 0.185,0.023 0.277,0.023 0.056,0.003 0.106,-0.056 0.169,-0.013 0.039,0.01 0.076,0.003 0.109,-0.023 C -2.095,3.3 -1.828,3.089 -1.557,2.887 -0.954,2.432 -0.422,1.904 0.02,1.287 0.056,1.237 0.092,1.191 0.129,1.145 0.158,0.904 0.149,0.66 0.149,0.416 0.139,0.307 0.162,0.195 0.142,0.089 0.125,0.017 0.106,-0.063 0,0"
           fill="#6f6e6e"
           id="path2142" />
        <path
           transform="matrix(1,0,0,-1,190.8965,433.4967)"
           d="M 0,0 C -0.313,-0.03 -0.627,-0.063 -0.94,-0.089 -1,-0.096 -1.059,-0.092 -1.119,-0.096 c -0.178,0.056 -0.366,0.013 -0.551,0.06 -0.333,0.082 -0.597,0.241 -0.712,0.587 -0.033,0.096 -0.02,0.155 0.066,0.224 0.834,0.697 1.775,1.182 2.811,1.495 C 0.584,2.072 0.498,1.841 0.31,1.769 0.165,1.713 0.017,1.67 -0.129,1.62 -0.478,1.498 -0.607,1.31 -0.597,0.888 -0.383,1.261 -0.036,1.343 0.32,1.412 0.535,1.455 0.706,1.389 0.828,1.221 0.931,1.086 1.059,0.95 1.023,0.752 0.799,0.551 0.571,0.353 0.363,0.132 0.333,0.023 0.264,-0.007 0.155,0.013 0.106,0.02 0.05,0.023 0,0"
           fill="#6f6e74"
           id="path2143" />
        <path
           transform="matrix(1,0,0,-1,194.7342,445.74253)"
           d="M 0,0 C 0.165,0.152 0.327,0.307 0.498,0.452 0.587,0.528 0.581,0.574 0.485,0.627 0.954,0.799 1.416,0.98 1.864,1.201 2.425,1.475 2.95,1.795 3.389,2.247 3.376,2.142 3.406,2.095 3.528,2.099 3.838,2.109 4.151,2.102 4.468,2.076 3.151,0.591 1.515,-0.257 -0.488,-0.498 -0.307,-0.317 -0.152,-0.158 0,0"
           fill="#cdcdd0"
           id="path2144" />
        <path
           transform="matrix(1,0,0,-1,190.2761,444.6238)"
           d="m 0,0 c -0.049,-0.046 -0.112,-0.02 -0.168,-0.033 -0.103,-0.03 -0.013,-0.073 0,-0.096 0.158,-0.264 0.323,-0.524 0.482,-0.785 0.029,-0.05 0.075,-0.096 0.072,-0.198 -0.732,0.284 -1.383,0.676 -1.986,1.155 -0.987,0.782 -2.142,2.356 -2.291,3.131 0.367,-0.24 0.723,-0.471 1.08,-0.706 0.026,-0.036 0.049,-0.062 0.069,0.004 0.03,0.102 0.063,0.201 0.096,0.303 C -2.544,2.313 -2.25,1.963 -1.96,1.617 -1.551,1.129 -1.105,0.676 -0.571,0.32 -0.389,0.201 -0.214,0.066 0,0"
           fill="#cdcdd0"
           id="path2145" />
        <path
           transform="matrix(1,0,0,-1,186.6793,437.10014)"
           d="M 0,0 C -0.274,-0.389 -0.538,-0.789 -0.855,-1.145 -0.729,0.94 0.106,2.693 1.647,4.161 V 3.336 C 1.478,3.029 1.27,2.745 1.096,2.442 0.686,1.732 0.323,1 0.092,0.211 0.069,0.139 0.03,0.073 0,0"
           fill="#ffffff"
           id="path2146" />
        <path
           transform="matrix(1,0,0,-1,191.9194,432.74763)"
           d="M 0,0 C -0.033,0.086 -0.063,0.175 -0.106,0.257 -0.277,0.591 -0.445,0.667 -0.808,0.594 -1.122,0.531 -1.409,0.422 -1.581,0.125 -1.597,0.096 -1.617,0.069 -1.643,0.03 c -0.096,0.336 0.059,0.696 0.34,0.821 0.148,0.066 0.306,0.132 0.465,0.159 0.234,0.039 0.294,0.194 0.31,0.392 0.003,0.04 0,0.076 0,0.116 -0.016,0.086 0.063,0.211 -0.096,0.241 0.096,0.046 0.066,0.119 0.037,0.191 -0.023,0.053 -0.05,0.106 -0.073,0.162 0.046,-0.01 0.092,-0.02 0.139,-0.03 C -0.343,1.897 -0.33,1.208 -0.502,1.023 -0.577,0.937 -0.683,0.901 -0.789,0.871 -0.921,0.835 -1.053,0.795 -1.181,0.746 -1.307,0.7 -1.406,0.62 -1.455,0.515 c 0.29,0.185 0.623,0.257 0.977,0.254 0.095,0 0.181,-0.056 0.25,-0.116 C 0.017,0.432 0.155,0.158 0.172,-0.125 0.181,-0.05 0.155,0.076 0.132,0.198 0.116,0.28 0.099,0.36 0.096,0.442 0.086,0.759 0.284,0.878 0.568,0.729 0.667,0.676 0.749,0.604 0.825,0.525 0.931,0.416 1.046,0.31 1.148,0.195 1.168,0.172 1.185,0.145 1.188,0.135 1.082,0.337 0.931,0.535 0.752,0.706 0.71,0.746 0.643,0.795 0.673,0.858 0.706,0.931 0.789,0.901 0.851,0.894 1.082,0.871 1.29,0.775 1.508,0.706 1.429,0.805 1.32,0.851 1.208,0.884 0.947,0.957 0.683,1.016 0.413,1.02 0.112,1.023 -0.083,1.168 -0.181,1.429 -0.261,1.637 -0.317,1.858 -0.228,2.086 -0.181,2.095 -0.135,2.109 -0.089,2.118 -0.083,2.039 -0.066,1.963 0.013,1.924 -0.069,1.835 -0.059,1.729 -0.046,1.624 0.03,1.336 0.168,1.228 0.459,1.211 0.693,1.195 0.924,1.158 1.148,1.092 1.165,1.089 1.178,1.082 1.195,1.079 1.297,1.046 1.409,1.03 1.505,0.973 1.551,0.947 1.597,0.934 1.633,0.99 1.699,1.119 1.782,1.224 1.907,1.297 2.092,1.412 2.307,1.442 2.508,1.515 2.597,1.548 2.696,1.584 2.627,1.713 2.581,1.818 2.511,1.907 2.449,2.003 2.363,2.145 2.227,2.25 2.148,2.396 2.191,2.415 2.234,2.439 2.277,2.458 2.33,2.452 2.366,2.419 2.399,2.379 2.538,2.201 2.683,2.026 2.792,1.828 2.914,1.607 2.864,1.468 2.64,1.363 2.505,1.3 2.356,1.274 2.218,1.224 2.02,1.155 1.983,1.132 1.845,0.954 2.072,1.079 2.317,1.145 2.581,1.142 2.666,1.142 2.746,1.129 2.812,1.069 3.01,0.894 3.148,0.683 3.204,0.475 3.191,0.558 3.145,0.683 3.105,0.812 3.029,1.069 3.151,1.224 3.419,1.198 3.798,1.162 4.069,0.97 4.214,0.65 4.165,0.789 4.049,0.921 3.914,1.036 3.871,1.072 3.831,1.105 3.798,1.155 3.696,1.313 3.739,1.439 3.917,1.505 4.108,1.574 4.287,1.521 4.461,1.452 4.547,1.419 4.63,1.373 4.712,1.327 4.765,1.3 4.815,1.267 4.857,1.221 4.867,1.221 4.864,1.195 4.877,1.208 4.894,1.224 4.881,1.195 4.867,1.214 4.824,1.257 4.778,1.297 4.722,1.323 4.349,1.564 3.927,1.591 3.504,1.617 3.316,1.627 3.155,1.699 3.042,1.838 2.828,2.102 2.623,2.373 2.432,2.653 2.458,2.709 2.488,2.765 2.515,2.818 2.719,2.62 2.864,2.373 3.039,2.155 3.109,2.069 3.171,1.98 3.254,1.907 3.382,1.779 3.557,1.805 3.712,1.759 4.062,1.706 4.422,1.683 4.729,1.478 4.811,1.426 4.884,1.36 4.963,1.3 5.052,1.178 5.138,1.056 5.168,0.901 5.187,0.871 5.217,0.845 5.197,0.805 5.161,0.69 5.131,0.825 5.095,0.808 4.953,0.871 4.877,1.01 4.752,1.089 4.712,1.132 4.659,1.162 4.607,1.185 4.448,1.264 4.293,1.346 4.112,1.36 4.056,1.35 3.976,1.369 3.963,1.294 3.95,1.234 4.013,1.201 4.056,1.168 4.188,1.053 4.32,0.94 4.339,0.749 4.376,0.581 4.389,0.412 4.343,0.241 4.356,0.188 4.366,0.139 4.3,0.115 4.234,0.257 4.168,0.403 4.105,0.544 3.993,0.676 3.884,0.808 3.749,0.917 3.604,0.987 3.458,1.053 3.29,0.997 3.227,0.894 3.343,0.808 3.31,0.709 3.346,0.495 3.379,0.277 3.349,0.056 3.333,-0.059 3.297,-0.162 3.158,-0.267 3.214,0.162 3.092,0.505 2.854,0.812 2.673,1.006 2.442,0.96 2.218,0.944 2.165,0.931 2.109,0.921 2.059,0.901 1.815,0.795 1.812,0.762 1.98,0.574 2.155,0.379 2.237,0.162 2.122,-0.152 1.967,0.459 1.452,0.531 1.01,0.713 1.115,0.528 1.254,0.366 1.333,0.168 1.412,-0.033 1.435,-0.231 1.35,-0.479 1.191,-0.03 0.914,0.287 0.568,0.548 0.551,0.554 0.535,0.551 0.521,0.558 0.29,0.62 0.287,0.617 0.297,0.376 0.297,0.343 0.29,0.31 0.277,0.28 0.3,0.092 0.327,-0.096 0.274,-0.287 0.238,-0.426 0.172,-0.548 0.046,-0.65 0,-0.436 0.092,-0.208 0,0"
           fill="#956a14"
           id="path2147" />
        <path
           transform="matrix(1,0,0,-1,199.7468,434.9519)"
           d="m 0,0 c -0.003,0.201 -0.007,0.406 -0.01,0.607 0,0.04 -0.023,0.089 0.036,0.112 0.7,-1.019 1.145,-2.138 1.31,-3.365 C 1.449,-3.475 1.422,-4.296 1.264,-5.118 1.257,-5.151 1.254,-5.184 1.251,-5.217 1.211,-5.247 1.198,-5.224 1.185,-5.187 1.086,-4.914 0.987,-4.643 0.884,-4.369 0.729,-3.465 0.647,-2.551 0.455,-1.653 0.353,-1.175 0.247,-0.696 0.063,-0.241 0.03,-0.162 0.033,-0.076 0,0"
           fill="#fafafa"
           id="path2148" />
        <path
           transform="matrix(1,0,0,-1,186.6793,437.10014)"
           d="M 0,0 C 0.073,0.403 0.231,0.775 0.389,1.148 0.7,1.878 1.096,2.561 1.538,3.217 1.567,3.264 1.594,3.313 1.647,3.336 1.782,3.306 1.911,3.369 2.043,3.366 1.95,3.333 1.894,3.267 1.841,3.188 1.221,2.274 0.686,1.317 0.34,0.264 0.313,0.188 0.313,0.102 0.257,0.04 0.142,0.228 0.076,0.086 0,0"
           fill="#cdcdd0"
           id="path2149" />
        <path
           transform="matrix(1,0,0,-1,198.5159,440.9841)"
           d="m 0,0 c 0.073,-0.244 0.053,-0.488 0.007,-0.733 v 0.436 c -0.066,-0.158 -0.033,-0.294 -0.106,-0.403 0,0.169 0.03,0.33 0.066,0.492 C 0.017,-0.142 -0.03,-0.066 0,0"
           fill="#5c5c5c"
           id="path2150" />
        <path
           transform="matrix(1,0,0,-1,197.1069,431.949)"
           d="M 0,0 C -0.01,0.033 -0.02,0.066 -0.03,0.096 0.03,0.079 0.089,0.063 0.122,0 Z"
           fill="#d8d8d8"
           id="path2151" />
        <path
           transform="matrix(1,0,0,-1,208.0262,413.1397)"
           d="m 0,0 c -0.083,-0.379 -0.284,-0.7 -0.508,-1.003 -0.277,-0.38 -0.459,-0.809 -0.65,-1.231 -0.06,-0.135 -0.106,-0.274 -0.188,-0.399 -0.109,-0.159 -0.254,-0.235 -0.443,-0.238 -0.108,0 -0.221,0.003 -0.33,0 -0.122,-0.007 -0.184,-0.069 -0.138,-0.198 0.056,-0.158 0.122,-0.317 0.178,-0.475 0.073,-0.205 0.036,-0.287 -0.158,-0.38 -0.05,-0.023 -0.103,-0.059 -0.152,-0.056 -0.238,0.017 -0.294,-0.132 -0.31,-0.323 -0.033,-0.353 -0.238,-0.561 -0.558,-0.676 -0.244,-0.09 -0.495,-0.139 -0.749,-0.165 -0.393,-0.043 -0.743,-0.34 -0.838,-0.726 -0.063,-0.248 -0.103,-0.509 -0.261,-0.72 -0.181,-0.244 -0.409,-0.439 -0.66,-0.614 -0.228,-0.158 -0.406,-0.343 -0.363,-0.646 0.017,-0.119 0.06,-0.231 0.096,-0.347 0.043,-0.145 -0.003,-0.254 -0.145,-0.313 -0.027,-0.01 -0.05,-0.027 -0.076,-0.03 -0.423,-0.056 -0.512,-0.356 -0.538,-0.716 -0.02,-0.261 -0.185,-0.413 -0.446,-0.409 -0.254,0.003 -0.501,-0.043 -0.749,-0.073 -0.194,-0.023 -0.254,-0.145 -0.145,-0.31 0.132,-0.195 0.294,-0.366 0.455,-0.538 0.033,-0.033 0.123,-0.059 0.06,-0.139 -0.056,-0.023 -0.112,-0.023 -0.165,0 h -0.231 c -0.142,0.047 -0.29,-0.013 -0.429,0.033 h -0.198 c -0.096,-0.042 -0.201,0.014 -0.297,-0.033 -0.116,-0.006 -0.251,0.033 -0.297,-0.132 -0.043,-0.059 0.01,-0.135 -0.033,-0.194 -0.013,-0.004 -0.023,-0.004 -0.036,-0.007 -0.198,-0.079 -0.416,-0.096 -0.614,-0.175 -0.251,-0.099 -0.492,-0.214 -0.716,-0.369 -0.31,-0.218 -0.469,-0.522 -0.499,-0.888 -0.052,-0.611 -0.006,-1.208 0.347,-1.739 0.023,-0.036 0.05,-0.073 0.033,-0.122 -0.465,-0.04 -0.888,-0.201 -1.254,-0.485 -0.498,-0.383 -0.973,-0.796 -1.462,-1.191 -0.086,-0.07 -0.135,-0.149 -0.125,-0.268 0.02,-0.224 -0.033,-0.435 -0.152,-0.63 -0.158,-0.257 -0.38,-0.3 -0.643,-0.142 -0.202,0.119 -0.354,0.294 -0.519,0.452 -0.227,0.221 -0.495,0.307 -0.808,0.248 -0.201,-0.04 -0.347,-0.208 -0.347,-0.419 0,-0.136 -0.013,-0.274 0.024,-0.41 0.033,-0.125 -0.043,-0.201 -0.159,-0.224 -0.422,-0.092 -0.808,-0.013 -1.128,0.29 -0.327,0.31 -0.634,0.644 -0.961,0.954 -0.26,0.247 -0.541,0.482 -0.904,0.574 -0.406,0.102 -0.808,-0.105 -0.96,-0.492 -0.056,-0.141 -0.106,-0.287 -0.155,-0.432 -0.093,-0.287 -0.281,-0.518 -0.459,-0.752 -0.346,-0.452 -1.402,-1.264 -1.94,-1.472 0.211,0.188 0.356,0.436 0.59,0.604 0.251,0.178 0.495,0.366 0.69,0.604 0.201,0.241 0.32,0.521 0.31,0.845 -0.003,0.135 -0.062,0.168 -0.174,0.099 -0.034,-0.02 -0.07,-0.043 -0.086,-0.076 -0.155,-0.327 -0.462,-0.38 -0.776,-0.449 -0.396,-0.086 -0.772,-0.234 -1.135,-0.422 -0.195,-0.103 -0.29,-0.261 -0.313,-0.486 -0.02,-0.188 -0.083,-0.372 -0.126,-0.557 -0.069,-0.297 0.053,-0.462 0.36,-0.479 0.013,0 0.026,-0.006 0.046,-0.013 -0.313,-0.181 -0.449,-0.102 -0.472,0.238 -0.02,0.359 -0.059,0.719 -0.102,1.075 -0.013,0.113 -0.079,0.182 -0.211,0.185 -0.225,0.007 -0.416,-0.089 -0.608,-0.181 -0.023,-0.013 -0.049,-0.027 -0.072,-0.037 -0.083,-0.029 -0.168,-0.132 -0.254,-0.052 -0.079,0.072 -0.043,0.188 -0.027,0.283 0.037,0.212 0.066,0.423 0.126,0.627 0.125,0.433 -0.142,0.584 -0.446,0.647 -0.019,0.004 -0.043,-0.003 -0.059,0.033 0.238,0 0.459,-0.026 0.643,-0.194 0.073,-0.067 0.099,-0.142 0.08,-0.235 -0.047,-0.218 -0.093,-0.439 -0.142,-0.656 -0.033,-0.152 0.029,-0.235 0.175,-0.195 0.425,0.119 0.831,0.28 1.155,0.597 0.148,0.145 0.132,0.221 -0.047,0.33 -0.132,0.083 -0.283,0.145 -0.369,0.291 -0.056,0.095 -0.06,0.161 0.039,0.237 0.218,0.165 0.429,0.343 0.581,0.578 0.027,0.049 0.076,0.062 0.126,0.069 0.247,0.046 0.399,0.221 0.547,0.399 0.112,0.135 0.076,0.215 -0.099,0.244 -0.102,0.017 -0.194,-0.006 -0.29,-0.036 -0.158,-0.053 -0.3,-0.135 -0.449,-0.208 -0.049,-0.026 -0.099,-0.079 -0.165,-0.036 -0.175,0.082 -0.353,0.013 -0.534,0.02 0.161,0.085 0.32,0.175 0.485,0.25 1.115,0.525 2.237,1.037 3.392,1.479 0.505,0.195 1.006,0.406 1.508,0.614 0.201,0.082 0.28,0.257 0.228,0.465 -0.03,0.112 -0.066,0.221 -0.099,0.33 -0.017,0.059 -0.06,0.092 -0.113,0.115 -0.24,0.103 -0.488,0.145 -0.729,0.014 -0.171,-0.096 -0.31,-0.033 -0.416,0.079 -0.198,0.211 -0.372,0.445 -0.511,0.703 -0.135,0.244 -0.251,0.3 -0.525,0.244 -0.026,-0.007 -0.053,-0.017 -0.079,-0.02 -0.271,-0.03 -0.379,0.096 -0.317,0.36 0.013,0.052 0.03,0.105 0.043,0.158 0.04,0.208 -0.092,0.363 -0.294,0.337 -0.244,-0.033 -0.491,-0.027 -0.739,-0.037 -0.178,-0.006 -0.28,0.08 -0.33,0.238 -0.026,0.089 -0.049,0.181 -0.049,0.274 0.003,0.343 -0.188,0.548 -0.479,0.683 -0.161,0.076 -0.323,-0.01 -0.481,-0.023 -0.231,-0.02 -0.462,-0.04 -0.687,0.023 -0.254,0.073 -0.33,0.284 -0.366,0.515 -0.017,0.099 -0.033,0.198 -0.132,0.227 -0.096,0.03 -0.165,-0.052 -0.218,-0.122 -0.142,-0.178 -0.323,-0.234 -0.541,-0.181 -0.32,0.076 -0.383,0.158 -0.432,0.581 -0.017,0.135 0.003,0.303 -0.149,0.349 -0.171,0.053 -0.323,-0.043 -0.439,-0.168 -0.095,-0.106 -0.188,-0.211 -0.3,-0.3 -0.34,-0.277 -0.515,-0.185 -0.746,0.089 -0.056,0.066 -0.099,0.145 -0.135,0.224 -0.182,0.376 -0.515,0.591 -0.851,0.796 -0.75,0.458 -1.502,0.904 -2.231,1.395 -0.046,0.03 -0.086,0.066 -0.132,0.099 -0.053,0.04 -0.126,0.086 -0.102,0.149 0.026,0.076 0.112,0.099 0.191,0.102 0.594,0.023 1.188,-0.02 1.782,-0.063 0.251,-0.016 0.501,-0.006 0.756,-0.029 0.353,-0.033 0.712,-0.02 1.065,-0.043 0.624,-0.04 1.244,-0.066 1.868,-0.102 0.495,-0.03 0.993,-0.06 1.488,-0.096 0.931,-0.066 1.858,-0.188 2.769,-0.403 0.277,-0.066 0.554,-0.128 0.832,-0.191 0.003,0 0.009,-0.007 0.009,-0.007 -0.003,-0.01 -0.006,-0.02 -0.009,-0.029 -0.066,-0.053 -0.136,-0.027 -0.205,-0.017 -0.439,0.076 -0.875,0.165 -1.32,0.191 -0.323,0.02 -0.647,0.014 -0.973,0.007 -0.123,-0.003 -0.218,-0.069 -0.284,-0.172 -0.182,-0.27 -0.116,-0.584 0.161,-0.788 0.037,-0.027 0.066,-0.06 0.093,-0.093 0.119,-0.141 0.267,-0.198 0.452,-0.155 0.053,0.014 0.109,0.02 0.162,0.02 0.778,0.017 1.557,0.083 2.333,0.155 0.175,0.017 0.3,-0.039 0.392,-0.185 0.03,-0.046 0.056,-0.095 0.079,-0.145 0.073,-0.168 0.202,-0.254 0.387,-0.254 0.026,0 0.059,0 0.079,-0.013 0.201,-0.149 0.419,-0.155 0.647,-0.079 0.141,-0.188 0.33,-0.195 0.541,-0.142 0.066,0.016 0.138,0.039 0.208,0.003 0.023,-0.016 0.036,-0.043 0.039,-0.069 0.01,-0.251 0.155,-0.406 0.376,-0.498 0.093,-0.136 0.119,-0.304 0.228,-0.436 0.106,-0.125 0.221,-0.205 0.393,-0.191 0.142,0.009 0.284,0.006 0.425,-0.027 0.297,-0.066 0.426,-0.194 0.482,-0.488 0.01,-0.05 0.017,-0.099 0.02,-0.145 0.013,-0.126 0.069,-0.182 0.208,-0.169 0.254,0.02 0.36,-0.036 0.412,-0.277 0.06,-0.267 0.205,-0.455 0.41,-0.617 0.016,-0.013 0.036,-0.026 0.046,-0.046 0.112,-0.215 0.29,-0.307 0.528,-0.284 0.468,-0.191 0.92,-0.066 1.402,0.053 -0.099,0.082 -0.198,0.109 -0.29,0.145 -0.564,0.234 -1.013,0.624 -1.416,1.073 -0.138,0.155 -0.277,0.31 -0.402,0.478 -0.037,0.046 -0.089,0.086 -0.063,0.158 0.082,-0.029 0.122,-0.105 0.178,-0.161 0.257,-0.271 0.522,-0.535 0.786,-0.799 0.056,-0.056 0.112,-0.063 0.184,0.003 0.353,0.307 0.677,0.641 0.99,0.987 0.231,0.251 0.452,0.505 0.654,0.779 0.01,0.013 0.039,0.016 0.059,0.023 0.04,-0.066 -0.01,-0.116 -0.04,-0.165 -0.112,-0.181 -0.234,-0.36 -0.382,-0.515 -0.251,-0.26 -0.433,-0.548 -0.456,-0.917 -0.02,-0.033 -0.046,-0.06 -0.072,-0.089 -0.155,-0.182 -0.136,-0.363 0.059,-0.502 0.106,-0.076 0.224,-0.129 0.35,-0.132 0.511,-0.016 1.016,-0.109 1.528,-0.112 0.303,0 0.564,0.102 0.726,0.353 0.29,0.449 0.666,0.574 1.174,0.436 0.324,-0.089 0.512,0.043 0.608,0.366 0.069,0.238 0.108,0.482 0.151,0.726 0.03,0.162 0.063,0.323 0.126,0.478 0.102,0.245 0.284,0.334 0.541,0.284 0.102,-0.02 0.198,-0.063 0.3,-0.086 0.215,-0.049 0.317,0.017 0.34,0.238 0.027,0.234 0.02,0.472 0.007,0.709 -0.02,0.367 0.135,0.624 0.439,0.809 0.353,0.214 0.732,0.376 1.082,0.594 0.182,0.115 0.36,0.228 0.512,0.386 0.184,0.191 0.267,0.416 0.24,0.673 -0.023,0.225 -0.046,0.449 -0.079,0.67 -0.02,0.125 -0.023,0.254 -0.003,0.379 0.039,0.258 0.185,0.38 0.452,0.383 0.165,0.004 0.33,-0.003 0.495,0.004 0.29,0.01 0.389,0.095 0.455,0.376 0.014,0.059 0.023,0.119 0.046,0.175 0.073,0.184 0.156,0.231 0.344,0.155 0.188,-0.076 0.333,-0.046 0.475,0.102 0.168,0.178 0.31,0.37 0.393,0.604 0.085,0.244 0.204,0.313 0.455,0.261 0.234,-0.05 0.419,0.023 0.587,0.178 0.291,0.267 0.499,0.597 0.71,0.927 0.059,0.092 0.122,0.185 0.175,0.281 0.049,0.092 0.082,0.191 0,0.273 -0.079,0.076 -0.175,0.043 -0.261,-0.003 -0.264,-0.142 -0.482,-0.346 -0.693,-0.551 -0.277,-0.267 -0.538,-0.551 -0.878,-0.742 -0.617,-0.347 -1.254,-0.66 -1.91,-0.928 -0.027,-0.01 -0.053,-0.016 -0.08,-0.016 -0.221,0.099 -0.445,0.086 -0.676,0.043 -0.508,-0.093 -1.016,-0.188 -1.508,-0.35 -0.531,-0.172 -1.006,-0.459 -1.495,-0.726 -0.366,-0.208 -0.719,-0.432 -1.063,-0.67 -0.039,-0.03 -0.079,-0.059 -0.135,-0.056 -0.016,0.003 -0.033,0.01 -0.046,0.023 0.36,0.363 0.756,0.68 1.201,0.931 0.673,0.379 1.383,0.67 2.135,0.831 0.588,0.126 1.185,0.195 1.766,0.35 0.465,0.125 0.94,0.215 1.362,0.462 0.38,0.221 0.677,0.538 0.961,0.865 0.287,0.333 0.561,0.679 1.029,0.768 0.152,0.03 0.304,0.04 0.446,-0.046 C -0.059,0.3 -0.01,0.267 -0.007,0.198 0.026,0.132 0.026,0.066 0,0 Z"
           fill="#020203"
           id="path2152" />
        <path
           transform="matrix(1,0,0,-1,195.1236,422.87434)"
           d="m 0,0 c -0.013,0.327 0.132,0.587 0.343,0.822 0.211,0.234 0.413,0.475 0.551,0.762 0.066,0.105 0.132,0.208 0.198,0.313 0.01,0.05 0.043,0.086 0.06,0.129 0.234,0.456 0.346,0.96 0.59,1.409 C 1.831,3.6 1.911,3.768 2.006,3.927 2.043,3.98 2.105,4.013 2.112,4.085 2.142,4.121 2.181,4.141 2.211,4.174 2.524,4.511 2.844,4.844 3.184,5.154 3.399,5.349 3.58,5.58 3.788,5.785 3.834,5.831 3.871,5.89 3.943,5.903 4.498,6.296 5.088,6.626 5.679,6.959 6.392,7.362 7.167,7.557 7.963,7.692 8.134,7.722 8.306,7.755 8.484,7.761 8.606,7.765 8.712,7.738 8.801,7.656 8.883,7.57 8.84,7.497 8.771,7.431 8.731,7.392 8.675,7.379 8.623,7.365 8.335,7.299 8.279,7.233 8.263,6.933 8.26,6.884 8.263,6.834 8.253,6.785 8.233,6.679 8.177,6.603 8.075,6.563 7.933,6.511 7.781,6.521 7.636,6.514 7.57,6.511 7.534,6.57 7.491,6.616 7.362,6.752 7.194,6.798 7.045,6.732 6.907,6.669 6.837,6.554 6.824,6.408 6.811,6.253 6.907,6.125 7.078,6.042 7.124,6.019 7.2,6.019 7.197,5.95 7.194,5.884 7.138,5.847 7.085,5.818 6.907,5.715 6.715,5.732 6.521,5.752 6.362,5.768 6.204,5.795 6.045,5.801 5.732,5.818 5.573,5.722 5.461,5.428 5.405,5.283 5.352,5.184 5.164,5.191 5.009,5.197 4.9,5.049 4.897,4.89 4.894,4.725 4.986,4.613 5.154,4.577 5.359,4.534 5.376,4.514 5.323,4.316 5.247,4.036 5.141,3.762 5.049,3.488 4.996,3.326 4.857,3.27 4.706,3.24 4.379,3.178 4.049,3.188 3.719,3.217 3.488,3.24 3.257,3.244 3.029,3.194 2.868,3.161 2.841,3.082 2.947,2.953 3.006,2.881 3.089,2.831 3.151,2.762 3.31,2.587 3.412,2.383 3.478,2.158 3.521,2.01 3.561,1.861 3.603,1.713 3.66,1.521 3.59,1.402 3.402,1.35 3.313,1.323 3.217,1.31 3.125,1.32 2.94,1.34 2.755,1.379 2.571,1.386 2.515,1.389 2.452,1.402 2.458,1.475 2.462,1.557 2.528,1.544 2.584,1.541 2.623,1.538 2.66,1.534 2.699,1.534 2.91,1.541 3.042,1.666 3.056,1.868 3.069,2.062 2.927,2.237 2.736,2.26 2.548,2.283 2.376,2.161 2.333,1.97 2.33,1.947 2.323,1.927 2.323,1.904 2.326,1.765 2.257,1.732 2.128,1.732 1.858,1.736 1.713,1.511 1.815,1.274 1.851,1.188 1.921,1.132 2.003,1.102 2.128,1.056 2.151,0.98 2.099,0.858 1.993,0.62 1.957,0.363 1.894,0.112 1.881,0.059 1.871,0.003 1.848,-0.046 1.772,-0.191 1.63,-0.201 1.534,-0.073 1.518,-0.05 1.508,-0.023 1.495,0 1.422,0.129 1.366,0.135 1.284,0.013 1.251,-0.036 1.228,-0.096 1.195,-0.145 1.092,-0.3 0.967,-0.304 0.851,-0.158 0.799,-0.092 0.772,-0.013 0.729,0.056 0.647,0.181 0.581,0.185 0.492,0.063 0.429,-0.02 0.396,-0.122 0.34,-0.211 0.294,-0.284 0.261,-0.389 0.155,-0.376 0.036,-0.36 0.02,-0.244 -0.003,-0.149 -0.016,-0.099 -0.02,-0.05 0,0"
           fill="#ffffff"
           id="path2153" />
        <path
           transform="matrix(1,0,0,-1,193.3417,423.74223)"
           d="m 0,0 c -0.218,0.162 -0.376,0.353 -0.426,0.637 -0.043,0.234 -0.158,0.29 -0.396,0.261 -0.175,-0.024 -0.221,0.006 -0.231,0.184 -0.026,0.446 -0.184,0.627 -0.712,0.644 h -0.066 c -0.433,0 -0.667,0.208 -0.736,0.657 0.039,0.049 0.099,0.039 0.152,0.046 0.204,0.029 0.336,0.161 0.356,0.353 0.023,0.214 -0.079,0.402 -0.254,0.472 C -2.508,3.33 -2.726,3.27 -2.844,3.112 -2.887,3.056 -2.897,2.977 -2.973,2.947 -3.085,2.93 -3.201,2.917 -3.313,2.897 -3.551,2.854 -3.603,2.874 -3.729,3.082 -3.752,3.145 -3.706,3.184 -3.686,3.234 -3.61,3.406 -3.636,3.6 -3.752,3.706 -3.861,3.805 -4.088,3.831 -4.214,3.759 -4.359,3.673 -4.425,3.511 -4.385,3.32 -4.372,3.257 -4.339,3.188 -4.428,3.151 -4.656,3.132 -4.801,3.231 -4.884,3.442 -4.993,3.719 -5.049,3.735 -5.372,3.716 -6.131,3.669 -6.887,3.58 -7.649,3.58 c -0.059,0.07 0.01,0.109 0.039,0.155 0.1,0.156 0.103,0.354 0.004,0.495 C -7.695,4.356 -7.867,4.415 -8.015,4.372 -8.2,4.316 -8.289,4.194 -8.306,3.98 -8.309,3.92 -8.299,3.858 -8.352,3.811 c -0.34,0.198 -0.406,0.647 -0.139,0.934 0.086,0.093 0.192,0.119 0.311,0.122 0.709,0.027 1.412,-0.036 2.105,-0.181 0.119,-0.023 0.238,-0.04 0.356,-0.056 0.555,-0.119 1.112,-0.235 1.667,-0.36 0.33,-0.076 0.656,-0.168 0.983,-0.254 0.462,-0.089 0.884,-0.281 1.267,-0.554 0.525,-0.377 0.997,-0.806 1.343,-1.363 0.014,-0.02 0.02,-0.04 0.023,-0.06 C -0.373,1.888 -0.29,1.749 -0.178,1.627 0.416,0.815 1.109,0.122 2.092,-0.231 1.587,-0.34 1.102,-0.554 0.594,-0.317 0.581,-0.241 0.653,-0.218 0.69,-0.175 0.808,-0.04 0.835,0.089 0.759,0.231 0.686,0.37 0.574,0.442 0.413,0.432 0.247,0.422 0.152,0.343 0.089,0.175 0.073,0.112 0.096,0.02 0,0"
           fill="#ffffff"
           id="path2154" />
        <path
           transform="matrix(1,0,0,-1,184.564,428.68214)"
           d="m 0,0 c -0.102,-0.211 -0.294,-0.333 -0.465,-0.475 -0.155,-0.126 -0.175,-0.228 -0.06,-0.39 0.096,-0.135 0.241,-0.204 0.38,-0.28 0.092,-0.053 0.125,-0.109 0.043,-0.191 -0.32,-0.321 -0.726,-0.482 -1.152,-0.601 -0.082,-0.023 -0.099,0.033 -0.079,0.112 0.053,0.208 0.096,0.416 0.125,0.627 0.027,0.195 -0.013,0.307 -0.188,0.409 -0.152,0.086 -0.317,0.116 -0.488,0.129 -0.083,0.007 -0.162,0.01 -0.244,0.03 -0.155,0.036 -0.215,0.122 -0.119,0.25 0.297,0.41 0.633,0.786 1.201,0.773 0.264,-0.007 0.525,0.052 0.789,0.033 C -0.267,0.337 -0.353,0.327 -0.409,0.29 -0.462,0.254 -0.521,0.224 -0.577,0.188 -0.617,0.162 -0.683,0.142 -0.663,0.086 -0.647,0.033 -0.577,0.049 -0.531,0.049 -0.409,0.046 -0.29,0.049 -0.168,0.046 -0.109,0.043 -0.046,0.049 0,0"
           fill="#32342f"
           id="path2155" />
        <path
           transform="matrix(1,0,0,-1,186.8443,429.91633)"
           d="M 0,0 C -0.046,-0.267 -0.119,-0.531 -0.317,-0.749 -0.568,-1.02 -0.868,-1.231 -1.152,-1.462 -1.3,-1.584 -1.379,-1.765 -1.541,-1.878 c -0.191,-0.128 -0.376,-0.264 -0.601,-0.333 -0.208,-0.066 -0.406,0.119 -0.356,0.33 0.059,0.244 0.122,0.485 0.168,0.733 0.04,0.208 0.208,0.316 0.39,0.389 0.396,0.155 0.788,0.323 1.214,0.389 0.231,0.037 0.436,0.152 0.551,0.377 0.01,0.019 0.023,0.039 0.036,0.052 0.03,0.033 0.066,0.073 0.109,0.057 C 0.02,0.099 -0.01,0.046 0,0"
           fill="#32342f"
           id="path2156" />
        <path
           transform="matrix(1,0,0,-1,191.6885,430.6687)"
           d="M 0,0 C 0.013,-0.238 -0.013,-0.485 0.112,-0.706 0.224,-0.907 0.383,-1.01 0.627,-1.023 0.987,-1.043 1.35,-1.086 1.676,-1.257 1.706,-1.274 1.732,-1.29 1.762,-1.303 1.825,-1.336 1.831,-1.393 1.805,-1.442 1.772,-1.498 1.726,-1.445 1.693,-1.429 1.449,-1.313 1.198,-1.228 0.884,-1.214 1.145,-1.482 1.399,-1.719 1.482,-2.072 1.317,-1.874 1.138,-1.69 0.947,-1.518 0.838,-1.419 0.719,-1.333 0.554,-1.34 0.426,-1.346 0.363,-1.402 0.36,-1.531 0.353,-1.67 0.389,-1.802 0.412,-1.937 c 0.024,-0.135 0.03,-0.271 -0.036,-0.436 0,0.337 -0.119,0.591 -0.297,0.815 -0.119,0.152 -0.28,0.245 -0.472,0.208 -0.32,-0.059 -0.66,-0.076 -0.914,-0.366 0.03,0.205 0.119,0.333 0.284,0.399 0.132,0.053 0.267,0.096 0.406,0.136 0.346,0.099 0.399,0.161 0.426,0.524 0.016,0.228 -0.01,0.449 -0.096,0.664 C -0.195,0.003 -0.099,0.003 0,0"
           fill="#e8d8b8"
           id="path2157" />
        <path
           transform="matrix(1,0,0,-1,194.3416,430.1011)"
           d="M 0,0 C 0.066,0 0.089,-0.056 0.122,-0.099 0.284,-0.314 0.446,-0.528 0.607,-0.743 0.729,-0.904 0.888,-0.987 1.096,-1 1.528,-1.023 1.963,-1.046 2.33,-1.327 2.336,-1.356 2.33,-1.373 2.297,-1.36 2.138,-1.297 1.993,-1.204 1.822,-1.178 1.769,-1.168 1.713,-1.155 1.66,-1.158 1.548,-1.168 1.412,-1.165 1.366,-1.294 1.32,-1.422 1.422,-1.501 1.511,-1.577 1.68,-1.723 1.828,-1.878 1.838,-2.165 1.749,-1.993 1.67,-1.865 1.564,-1.752 1.399,-1.581 1.191,-1.505 0.96,-1.492 0.726,-1.478 0.643,-1.597 0.716,-1.825 0.752,-1.94 0.785,-2.056 0.815,-2.171 c 0.01,-0.037 0,-0.073 0,-0.139 -0.089,0.168 -0.155,0.317 -0.241,0.452 -0.195,0.31 -0.31,0.353 -0.673,0.287 -0.201,-0.036 -0.389,-0.099 -0.561,-0.218 0.046,0.182 0.162,0.304 0.333,0.367 0.175,0.062 0.357,0.109 0.532,0.175 0.204,0.082 0.241,0.194 0.132,0.389 -0.136,0.241 -0.311,0.452 -0.485,0.663 C -0.099,-0.129 -0.049,-0.063 0,0"
           fill="#e8d8b8"
           id="path2158" />
        <path
           transform="matrix(1,0,0,-1,199.0307,427.0916)"
           d="m 0,0 c -0.046,-0.165 -0.122,-0.317 -0.211,-0.462 -0.211,-0.353 -0.561,-0.416 -1.03,-0.28 -0.181,0.052 -0.32,0.181 -0.475,0.283 -0.013,0.02 -0.03,0.037 -0.043,0.056 -0.455,0.627 -0.515,1.334 -0.389,2.069 0.059,0.344 0.277,0.591 0.567,0.773 0.39,0.244 0.802,0.432 1.271,0.455 0.036,-0.036 0.089,-0.03 0.132,-0.04 C 0.026,2.696 0.172,2.495 0.224,2.237 0.247,2.194 0.234,2.155 0.205,2.119 0.099,2.02 -0.043,2.003 -0.168,1.947 -0.828,1.65 -0.855,1.171 -0.538,0.624 -0.406,0.396 -0.211,0.224 -0.007,0.066 0.007,0.049 0.007,0.023 0,0"
           fill="#69686a"
           id="path2159" />
        <path
           transform="matrix(1,0,0,-1,184.564,428.68214)"
           d="m 0,0 c -0.201,0 -0.406,-0.003 -0.607,0 -0.056,0 -0.132,-0.013 -0.152,0.063 -0.016,0.066 0.05,0.092 0.092,0.122 0.132,0.082 0.271,0.161 0.406,0.244 0.027,0.003 0.05,0.01 0.06,0.036 0.142,0.07 0.28,0.145 0.425,0.211 0.182,0.086 0.363,0.152 0.571,0.09 C 0.94,0.719 0.967,0.663 0.881,0.541 0.696,0.28 0.475,0.063 0.132,0.033 0.089,0.016 0.043,0.01 0,0"
           fill="#ffffff"
           id="path2160" />
        <path
           transform="matrix(1,0,0,-1,192.9094,421.7062)"
           d="M 0,0 C -0.422,0.584 -0.917,1.089 -1.528,1.478 -1.874,1.699 -2.247,1.848 -2.633,1.973 -2.478,2.016 -2.346,1.934 -2.211,1.891 -1.594,1.693 -1.03,1.392 -0.581,0.914 -0.337,0.65 -0.102,0.366 0,0"
           fill="#020304"
           id="path2161" />
        <path
           transform="matrix(1,0,0,-1,199.067,416.97413)"
           d="m 0,0 c -0.551,-0.607 -1.142,-1.178 -1.732,-1.746 -0.01,0.007 -0.014,0.013 -0.01,0.02 0.003,0.007 0.006,0.01 0.01,0.01 0.009,0.026 0.009,0.056 0.026,0.076 0.521,0.584 1.095,1.109 1.657,1.647 C -0.033,0.003 -0.017,0.003 0,0"
           fill="#040505"
           id="path2162" />
        <path
           transform="matrix(1,0,0,-1,197.13,418.9475)"
           d="m 0,0 c -0.059,-0.195 -0.168,-0.363 -0.257,-0.544 -0.169,-0.35 -0.271,-0.726 -0.429,-1.08 -0.047,-0.102 -0.089,-0.207 -0.165,-0.297 -0.01,0.007 -0.017,0.017 -0.014,0.024 0.004,0.01 0.007,0.013 0.01,0.013 0.053,0.294 0.179,0.561 0.287,0.835 0.129,0.326 0.301,0.63 0.469,0.94 C -0.073,-0.063 -0.04,-0.03 0,0"
           fill="#040505"
           id="path2163" />
        <path
           transform="matrix(1,0,0,-1,182.957,428.33903)"
           d="M 0,0 C -0.162,-0.129 -0.323,-0.261 -0.482,-0.389 -0.356,-0.214 -0.234,-0.036 0,0"
           fill="#020303"
           id="path2164" />
        <path
           transform="matrix(1,0,0,-1,182.2937,429.3619)"
           d="M 0,0 C -0.158,0.026 -0.172,0.076 -0.086,0.267 -0.053,0.172 -0.112,0.053 0,0"
           fill="#020203"
           id="path2165" />
        <path
           transform="matrix(1,0,0,-1,199.5785,423.83134)"
           d="M 0,0 C 0.142,-0.016 0.29,0.04 0.429,-0.033 0.287,-0.016 0.139,-0.073 0,0"
           fill="#040505"
           id="path2166" />
        <path
           transform="matrix(1,0,0,-1,199.0835,423.86433)"
           d="M 0,0 C 0.092,0.066 0.198,0.02 0.297,0.033 0.205,-0.033 0.099,0.013 0,0"
           fill="#040505"
           id="path2167" />
        <path
           transform="matrix(1,0,0,-1,208.0262,413.1397)"
           d="M 0,0 V 0.198 C 0.049,0.132 0.049,0.066 0,0"
           fill="#040505"
           id="path2168" />
        <path
           transform="matrix(1,0,0,-1,198.7535,424.191)"
           d="M 0,0 C 0.013,0.066 -0.026,0.139 0.033,0.195 0.02,0.129 0.063,0.056 0,0"
           fill="#040505"
           id="path2169" />
        <path
           transform="matrix(1,0,0,-1,196.2786,420.83174)"
           d="M 0,0 C 0,-0.013 0.003,-0.026 0.003,-0.036 0,-0.082 -0.026,-0.119 -0.063,-0.145 -0.066,-0.086 -0.049,-0.036 0,0"
           fill="#020203"
           id="path2170" />
        <path
           transform="matrix(1,0,0,-1,197.3345,418.68684)"
           d="M 0,0 V -0.033 C -0.02,-0.076 -0.046,-0.106 -0.096,-0.106 -0.083,-0.053 -0.046,-0.02 0,0"
           fill="#020203"
           id="path2171" />
        <path
           transform="matrix(1,0,0,-1,200.2385,423.86433)"
           d="M 0,0 H 0.165 C 0.109,-0.049 0.056,-0.049 0,0"
           fill="#040505"
           id="path2172" />
        <path
           transform="matrix(1,0,0,-1,203.4658,426.2666)"
           d="m 0,0 c -0.195,0.01 -0.386,0.02 -0.581,0.026 -0.056,-0.003 -0.099,0.02 -0.138,0.06 -0.165,0.214 -0.106,0.505 0.135,0.663 0.069,0.046 0.145,0.076 0.228,0.096 0.138,-0.023 0.28,-0.004 0.419,0.01 C 0.238,0.799 0.419,0.838 0.594,0.792 0.749,0.749 0.898,0.706 0.99,0.558 1,0.32 0.96,0.102 0.779,-0.069 0.713,-0.129 0.643,-0.172 0.551,-0.172 0.594,0.043 0.571,0.066 0.353,0.04 0.238,0.017 0.115,0.04 0,0"
           fill="#976b13"
           id="path2173" />
        <path
           transform="matrix(1,0,0,-1,195.1236,430.8601)"
           d="M 0,0 C 0.109,-0.02 0.214,-0.043 0.323,-0.063 0.373,-0.106 0.452,-0.079 0.498,-0.135 0.323,-0.129 0.132,-0.168 0,0"
           fill="#35362a"
           id="path2174" />
        <path
           transform="matrix(1,0,0,-1,199.2221,424.9533)"
           d="m 0,0 c 0.01,0.033 0.02,0.069 0.033,0.102 0.181,-0.125 0.386,-0.171 0.607,-0.168 0.185,0.003 0.373,-0.003 0.558,0 0.135,0.003 0.264,0.033 0.373,0.112 C 2.053,0.399 2.574,0.482 3.138,0.3 3.165,0.294 3.191,0.294 3.221,0.287 3.267,0.241 3.254,0.205 3.198,0.178 3.029,0.185 2.864,0.238 2.696,0.257 2.379,0.3 2.092,0.234 1.835,0.063 1.495,-0.165 1.132,-0.247 0.729,-0.188 0.531,-0.158 0.323,-0.198 0.135,-0.092 0.089,-0.063 0.033,-0.049 0,0"
           fill="#e2797d"
           id="path2175" />
        <path
           transform="matrix(1,0,0,-1,202.4197,424.7553)"
           d="M 0,0 C 0.03,0.026 0.023,0.059 0.02,0.092 0.172,0.29 0.508,0.29 0.634,0.083 0.739,-0.092 0.841,-0.254 1.049,-0.333 1.198,-0.389 1.201,-0.502 1.109,-0.657 0.98,-0.746 0.845,-0.739 0.703,-0.69 0.574,-0.673 0.492,-0.577 0.403,-0.505 0.274,-0.396 0.158,-0.271 0.043,-0.148 0.01,-0.112 -0.053,-0.073 0,0"
           fill="#a42e20"
           id="path2176" />
        <path
           transform="matrix(1,0,0,-1,196.2126,432.64204)"
           d="M 0,0 C 0.013,0.043 0.026,0.086 0.043,0.125 0.307,-0.264 0.574,-0.65 0.828,-1.046 1.026,-1.36 1.313,-1.558 1.633,-1.723 2.227,-2.029 2.815,-2.343 3.415,-2.66 3.382,-2.666 3.356,-2.67 3.333,-2.676 2.943,-2.561 2.557,-2.442 2.168,-2.33 1.812,-2.224 1.452,-2.119 1.096,-2.013 0.96,-2 0.808,-2.013 0.795,-1.812 0.531,-1.208 0.264,-0.604 0,0"
           fill="#31332e"
           id="path2177" />
        <path
           transform="matrix(1,0,0,-1,199.7468,434.9519)"
           d="M 0,0 C 0.214,-0.413 0.32,-0.858 0.426,-1.307 0.564,-1.888 0.66,-2.475 0.742,-3.062 0.802,-3.495 0.888,-3.924 0.881,-4.366 0.825,-4.227 0.772,-4.089 0.716,-3.95 0.647,-3.957 0.624,-4.036 0.558,-4.032 c 0,0.353 -0.073,0.699 -0.122,1.046 -0.093,0.673 -0.215,1.339 -0.377,1.996 -0.046,0.191 -0.145,0.366 -0.161,0.564 0.079,-0.019 0.109,0.017 0.105,0.096 C 0,-0.221 0.003,-0.109 0,0"
           fill="#e1e2e2"
           id="path2178" />
        <path
           transform="matrix(1,0,0,-1,198.6842,440.5914)"
           d="M 0,0 C -0.056,-0.066 -0.109,-0.135 -0.165,-0.201 -0.429,-0.04 -0.696,0.122 -0.96,0.287 -1.343,0.528 -1.723,0.779 -2.109,1.02 -2.224,1.092 -2.214,1.191 -2.201,1.294 -2.188,1.389 -2.122,1.346 -2.076,1.32 -1.874,1.198 -1.676,1.069 -1.478,0.944 -0.987,0.627 -0.495,0.313 0,0"
           fill="#dbdcde"
           id="path2179" />
        <path
           transform="matrix(1,0,0,-1,190.8965,433.4967)"
           d="M 0,0 C 0.122,0.046 0.271,0.007 0.363,0.129 0.597,-0.195 0.838,-0.512 1.059,-0.841 1.132,-0.954 1.023,-1.096 1.033,-1.241 0.881,-1.033 0.729,-0.825 0.578,-0.617 0.462,-0.459 0.343,-0.3 0.238,-0.135 0.178,-0.04 0.109,0.013 0,0"
           fill="#dbdcde"
           id="path2180" />
        <path
           transform="matrix(1,0,0,-1,192.982,443.855)"
           d="m 0,0 c -0.096,0.063 -0.195,0.076 -0.3,0.03 0.115,0.247 0.105,0.521 0.161,0.778 0.037,0.156 0.05,0.311 0.073,0.469 0.017,0.102 0.063,0.149 0.175,0.142 C 0.205,1.412 0.231,1.386 0.211,1.29 0.139,0.858 0.069,0.429 0,0"
           fill="#dbdcde"
           id="path2181" />
        <path
           transform="matrix(1,0,0,-1,195.2193,432.04814)"
           d="M 0,0 C -0.026,0.106 -0.142,0.195 -0.059,0.323 0.122,0.32 0.29,0.247 0.469,0.231 0.617,0.129 0.739,0.01 0.799,-0.165 0.531,-0.109 0.267,-0.056 0,0"
           fill="#cdcdd0"
           id="path2182" />
        <path
           transform="matrix(1,0,0,-1,188.3853,439.3045)"
           d="M 0,0 C 0.03,0.099 -0.056,0.152 -0.086,0.231 0.129,0.29 0.346,0.35 0.561,0.406 0.62,0.422 0.703,0.462 0.723,0.37 0.739,0.287 0.775,0.175 0.634,0.145 0.422,0.106 0.224,0.003 0,0"
           fill="#dbdcde"
           id="path2183" />
        <path
           transform="matrix(1,0,0,-1,197.0079,434.45033)"
           d="M 0,0 C 0.043,-0.152 0.191,-0.142 0.3,-0.201 0.231,-0.195 0.195,-0.241 0.158,-0.29 0.096,-0.379 0.023,-0.462 -0.033,-0.554 c -0.059,-0.099 -0.112,-0.122 -0.218,-0.05 -0.122,0.083 -0.043,0.139 0,0.208 C -0.172,-0.261 -0.036,-0.162 0,0"
           fill="#cdd0d3"
           id="path2184" />
        <path
           transform="matrix(1,0,0,-1,192.1901,432.48033)"
           d="M 0,0 C -0.007,0.026 -0.01,0.053 -0.017,0.079 -0.033,0.172 -0.092,0.287 0.013,0.346 0.112,0.406 0.211,0.343 0.29,0.267 0.195,0.181 0.099,0.092 0,0"
           fill="#716e73"
           id="path2185" />
        <path
           transform="matrix(1,0,0,-1,194.127,431.81373)"
           d="M 0,0 C 0.356,0.125 0.478,0.099 0.637,-0.132 0.426,-0.089 0.215,-0.043 0,0"
           fill="#cecdcf"
           id="path2186" />
        <path
           transform="matrix(1,0,0,-1,198.5192,440.98744)"
           d="M 0,0 C 0,-0.069 0.03,-0.142 -0.03,-0.205 -0.03,-0.132 -0.046,-0.063 0,0"
           fill="#6e6f72"
           id="path2187" />
        <path
           transform="matrix(1,0,0,-1,196.2489,432.00843)"
           d="m 0,0 c -0.076,0.158 -0.185,0.294 -0.323,0.406 -0.053,0.043 -0.142,0.092 -0.119,0.162 0.023,0.079 0.125,0.066 0.201,0.079 C -0.069,0.607 0.092,0.544 0.251,0.472 0.307,0.432 0.38,0.419 0.429,0.37 0.564,0.294 0.667,0.185 0.762,0.063 0.505,0.04 0.254,0.02 0,0"
           fill="#fefefe"
           id="path2188" />
        <path
           transform="matrix(1,0,0,-1,194.5692,431.0184)"
           d="m 0,0 c 0.089,-0.139 0.083,-0.178 -0.069,-0.238 -0.218,-0.085 -0.452,-0.125 -0.664,-0.231 -0.099,-0.046 -0.198,-0.052 -0.303,-0.033 -0.231,0.043 -0.469,0.037 -0.696,0.086 -0.212,0.063 -0.406,0.159 -0.598,0.258 -0.049,0.026 -0.132,0.059 -0.062,0.145 0.234,0.096 0.481,0.092 0.726,0.115 0.485,0.04 0.97,0.03 1.455,-0.026 C -0.135,0.069 -0.063,0.053 0,0"
           fill="#ffffff"
           id="path2189" />
        <path
           transform="matrix(1,0,0,-1,194.5692,431.0184)"
           d="m 0,0 c -0.805,0.106 -1.61,0.099 -2.412,-0.043 -0.099,-0.076 -0.208,-0.106 -0.33,-0.063 -0.003,0.037 0.003,0.08 -0.007,0.113 -0.033,0.102 0.013,0.151 0.106,0.178 0.792,0.155 1.587,0.188 2.392,0.105 0.027,-0.003 0.056,0 0.083,0.004 C -0.119,0.198 -0.03,0.115 0,0"
           fill="#31332e"
           id="path2190" />
        <path
           transform="matrix(1,0,0,-1,191.8237,431.12403)"
           d="M 0,0 C 0.109,0.02 0.221,0.043 0.33,0.063 0.528,-0.089 0.759,-0.168 0.983,-0.271 1.066,-0.294 1.148,-0.323 1.224,-0.356 1.363,-0.419 1.366,-0.478 1.244,-0.587 1.003,-0.518 0.756,-0.475 0.502,-0.462 0.231,-0.449 0.043,-0.281 0,0"
           fill="#706e73"
           id="path2191" />
        <path
           transform="matrix(1,0,0,-1,193.0679,431.71144)"
           d="M 0,0 C 0.089,0.112 0.053,0.178 -0.076,0.218 -0.142,0.238 -0.198,0.28 -0.261,0.313 0.082,0.297 0.422,0.224 0.766,0.221 0.653,0.142 0.574,0.036 0.511,-0.082 0.353,-0.069 0.205,0.003 0.043,0 Z"
           fill="#cdced0"
           id="path2192" />
        <path
           transform="matrix(1,0,0,-1,195.6846,431.81703)"
           d="M 0,0 C -0.191,-0.056 -0.356,0.03 -0.528,0.092 -0.333,0.152 -0.162,0.102 0,0"
           fill="#fbfaf9"
           id="path2193" />
        <path
           transform="matrix(1,0,0,-1,193.114,431.71144)"
           d="M 0,0 C 0.162,0.013 0.327,0.036 0.469,-0.082 0.455,-0.149 0.436,-0.201 0.353,-0.145 0.244,-0.069 0.119,-0.043 0,0"
           fill="#faf8f7"
           id="path2194" />
        <path
           transform="matrix(1,0,0,-1,196.4997,431.5563)"
           d="m 0,0 c -0.165,0.066 -0.33,0.132 -0.495,0.195 0.205,0 0.38,-0.083 0.544,-0.188 C 0.036,-0.01 0.02,-0.013 0,0 Z"
           fill="#4c4736"
           id="path2195" />
        <path
           transform="matrix(1,0,0,-1,193.84,432.3384)"
           d="m 0,0 c -0.059,0.033 -0.122,0.066 -0.181,0.099 -0.033,0.02 -0.043,0.046 -0.024,0.079 0.03,0.05 0.053,0.01 0.076,-0.006 0.06,-0.04 0.116,-0.083 0.172,-0.126 C 0.03,0.033 0.013,0.016 0,0"
           fill="#d19f6b"
           id="path2196" />
        <path
           transform="matrix(1,0,0,-1,196.6383,431.45744)"
           d="M 0,0 C 0.01,0.01 0.023,0.023 0.033,0.033 0.092,0.007 0.135,-0.043 0.168,-0.096 0.158,-0.109 0.145,-0.112 0.132,-0.099 0.089,-0.066 0.043,-0.033 0,0"
           fill="#c29355"
           id="path2197" />
        <path
           transform="matrix(1,0,0,-1,196.4997,431.5563)"
           d="M 0,0 C 0.017,0.003 0.033,0.003 0.049,0.007 0.102,-0.01 0.158,-0.017 0.175,-0.082 0.116,-0.056 0.059,-0.03 0,0"
           fill="#5c5a51"
           id="path2198" />
        <path
           transform="matrix(1,0,0,-1,196.7703,431.5563)"
           d="M 0,0 C 0.013,0 0.023,0 0.036,0.003 0.066,-0.01 0.092,-0.026 0.089,-0.073 0.043,-0.069 0.023,-0.033 0,0 Z"
           fill="#ac7d32"
           id="path2199" />
        <path
           transform="matrix(1,0,0,-1,195.1236,422.87434)"
           d="m 0,0 c 0.023,-0.086 0.043,-0.168 0.069,-0.251 0.014,-0.043 0.023,-0.105 0.086,-0.105 0.053,-0.004 0.069,0.049 0.089,0.085 0.06,0.106 0.109,0.215 0.172,0.32 0.046,0.08 0.092,0.179 0.201,0.172 C 0.716,0.215 0.746,0.112 0.789,0.036 0.818,-0.02 0.848,-0.082 0.884,-0.135 0.993,-0.284 1.092,-0.271 1.171,-0.099 1.198,-0.04 1.221,0.023 1.254,0.079 1.294,0.142 1.35,0.185 1.432,0.172 1.515,0.158 1.505,0.092 1.521,0.033 1.544,-0.046 1.581,-0.129 1.68,-0.132 1.792,-0.135 1.802,-0.036 1.822,0.04 1.901,0.346 1.95,0.663 2.082,0.957 2.128,1.059 2.046,1.036 2.003,1.053 1.749,1.138 1.643,1.399 1.779,1.62 1.874,1.779 2.036,1.828 2.257,1.762 2.29,1.802 2.267,1.845 2.267,1.884 2.27,2.142 2.452,2.323 2.706,2.313 2.944,2.303 3.118,2.105 3.099,1.858 3.082,1.62 2.881,1.465 2.63,1.478 2.58,1.482 2.491,1.557 2.485,1.482 2.472,1.376 2.584,1.435 2.637,1.429 2.795,1.402 2.953,1.392 3.112,1.369 3.217,1.353 3.32,1.369 3.422,1.396 3.531,1.422 3.603,1.508 3.574,1.617 3.468,2.013 3.415,2.432 3.105,2.742 3.039,2.808 2.967,2.868 2.904,2.937 2.851,2.993 2.785,3.052 2.815,3.135 2.841,3.217 2.927,3.231 3.006,3.244 3.306,3.293 3.61,3.264 3.91,3.25 4.164,3.241 4.415,3.234 4.666,3.273 c 0.188,0.03 0.32,0.106 0.37,0.314 0.066,0.264 0.165,0.521 0.25,0.782 0.017,0.046 0.023,0.096 0.037,0.149 -0.056,0 -0.099,-0.004 -0.142,0 C 4.97,4.531 4.831,4.686 4.841,4.9 4.848,5.102 5.003,5.26 5.207,5.24 5.329,5.227 5.349,5.273 5.389,5.372 5.554,5.808 5.758,5.907 6.134,5.844 6.356,5.808 6.58,5.775 6.808,5.785 6.95,5.791 7.095,5.808 7.181,5.966 6.963,6.002 6.818,6.111 6.775,6.326 6.738,6.507 6.837,6.695 7.009,6.775 7.184,6.857 7.412,6.818 7.511,6.656 7.576,6.554 7.639,6.537 7.748,6.56 c 0.089,0.02 0.185,0.003 0.277,0.03 0.126,0.039 0.192,0.115 0.192,0.251 0,0.085 0.006,0.175 0.023,0.26 0.049,0.235 0.115,0.291 0.353,0.307 0.195,0.013 0.234,0.06 0.208,0.244 0.422,0.198 0.851,0.383 1.27,0.584 0.614,0.297 1.172,0.66 1.634,1.172 0.178,0.198 0.392,0.366 0.627,0.502 0.112,0.062 0.241,0.112 0.336,0.023 C 12.767,9.84 12.754,9.705 12.675,9.586 12.404,9.167 12.16,8.728 11.79,8.382 11.612,8.207 11.414,8.118 11.154,8.177 10.909,8.236 10.82,8.17 10.744,7.926 10.652,7.639 10.464,7.421 10.243,7.227 10.117,7.118 9.975,7.157 9.84,7.21 9.642,7.286 9.599,7.266 9.533,7.058 9.527,7.039 9.517,7.019 9.51,6.996 9.411,6.554 9.342,6.497 8.887,6.501 c -0.126,0 -0.255,0.003 -0.38,0 C 8.233,6.497 8.101,6.365 8.085,6.088 8.072,5.808 8.118,5.527 8.164,5.257 8.243,4.798 8.068,4.478 7.718,4.224 7.359,3.963 6.959,3.765 6.563,3.561 6.448,3.501 6.332,3.435 6.224,3.356 6.016,3.207 5.903,3.009 5.903,2.742 5.903,2.442 5.946,2.138 5.877,1.838 5.837,1.67 5.762,1.617 5.593,1.647 5.455,1.67 5.319,1.719 5.181,1.746 4.933,1.792 4.788,1.709 4.699,1.468 4.603,1.211 4.58,0.937 4.521,0.67 4.491,0.525 4.465,0.379 4.419,0.241 4.316,-0.066 4.108,-0.178 3.792,-0.116 3.62,-0.082 3.452,-0.04 3.273,-0.049 2.986,-0.066 2.835,-0.277 2.686,-0.478 2.478,-0.759 2.208,-0.907 1.858,-0.894 1.317,-0.875 0.779,-0.822 0.241,-0.756 0.059,-0.733 -0.102,-0.634 -0.181,-0.449 -0.261,-0.267 -0.218,-0.175 0,0"
           fill="#32342f"
           id="path2200" />
        <path
           transform="matrix(1,0,0,-1,194.7277,424.8576)"
           d="M 0,0 C 0.007,0.122 -0.01,0.281 0.03,0.439 0.046,0.502 0.056,0.568 0.119,0.584 0.188,0.601 0.221,0.531 0.254,0.482 0.403,0.257 0.531,0.023 0.69,-0.195 c 0.145,-0.198 0.33,-0.27 0.561,-0.221 0.148,0.033 0.293,0.02 0.442,0.023 0.043,0 0.092,0.014 0.115,-0.039 0.02,-0.046 0,-0.089 -0.036,-0.119 C 1.617,-0.683 1.581,-0.825 1.673,-1.016 1.739,-1.158 1.637,-1.274 1.459,-1.28 1.277,-1.287 1.096,-1.284 0.914,-1.28 0.729,-1.277 0.601,-1.346 0.525,-1.525 0.366,-1.891 0.102,-2.099 -0.32,-2.079 c -0.165,0.01 -0.271,-0.102 -0.343,-0.241 -0.063,-0.122 -0.122,-0.244 -0.185,-0.366 -0.017,-0.033 -0.033,-0.076 -0.079,-0.069 -0.046,0.003 -0.06,0.046 -0.07,0.082 -0.036,0.116 -0.059,0.234 -0.122,0.34 -0.076,0.122 -0.168,0.182 -0.33,0.129 -0.29,-0.099 -0.594,-0.152 -0.901,-0.162 -0.036,0 -0.082,-0.013 -0.105,0.026 -0.03,0.05 0.016,0.08 0.039,0.113 0.096,0.128 0.185,0.257 0.284,0.382 0.116,0.142 0.145,0.314 0.185,0.485 0.046,0.192 0.102,0.225 0.29,0.182 0.103,-0.023 0.205,-0.04 0.311,-0.033 0.201,0.007 0.31,0.089 0.373,0.284 0.026,0.089 0.042,0.181 0.069,0.27 0.049,0.169 0.096,0.195 0.261,0.139 0.132,-0.046 0.26,-0.076 0.402,-0.066 C -0.073,-0.574 0,-0.508 0.003,-0.34 0.003,-0.244 0,-0.139 0,0"
           fill="#32342f"
           id="path2201" />
        <path
           transform="matrix(1,0,0,-1,180.8781,420.36973)"
           d="M 0,0 C -0.106,0.01 -0.214,0.023 -0.281,0.096 -0.505,0.353 -0.822,0.465 -1.092,0.65 -1.36,0.832 -1.637,1 -1.894,1.195 c -0.172,0.128 -0.38,0.194 -0.584,0.257 -0.36,0.105 -0.713,0.221 -1.043,0.402 -0.03,0.017 -0.063,0.027 -0.086,0.05 -0.046,0.043 -0.128,0.079 -0.092,0.155 0.036,0.076 0.109,0.086 0.198,0.069 C -2.884,2.023 -2.264,1.911 -1.643,1.825 -1.096,1.749 -0.541,1.739 0.013,1.749 0.102,1.752 0.234,1.815 0.28,1.666 0.307,1.581 0.162,1.356 0.059,1.33 -0.066,1.297 -0.198,1.28 -0.327,1.257 -0.343,1.254 -0.36,1.26 -0.376,1.254 -0.462,1.228 -0.591,1.218 -0.581,1.105 -0.571,1.013 -0.459,0.997 -0.366,0.993 0.033,0.977 0.353,0.716 0.452,0.34 0.472,0.264 0.445,0.211 0.396,0.165 0.287,0.059 0.148,0.013 0,0"
           fill="#32342f"
           id="path2202" />
        <path
           transform="matrix(1,0,0,-1,186.016,421.6369)"
           d="m 0,0 c -0.003,-0.172 -0.109,-0.271 -0.257,-0.241 -0.119,0.023 -0.238,0.046 -0.34,0.112 -0.301,0.192 -0.617,0.198 -0.964,0.132 -0.363,-0.069 -0.719,0 -1.026,0.231 -0.059,0.047 -0.102,0.103 -0.139,0.162 -0.132,0.215 -0.085,0.323 0.159,0.389 0.28,0.073 0.561,0.142 0.831,0.251 0.337,0.136 0.644,0.102 0.918,-0.175 0.214,-0.218 0.462,-0.402 0.693,-0.6 C -0.04,0.185 -0.007,0.089 0,0"
           fill="#32342f"
           id="path2203" />
        <path
           transform="matrix(1,0,0,-1,189.9758,424.96653)"
           d="M 0,0 C -0.007,0.135 0.043,0.294 -0.096,0.379 -0.313,0.512 -0.535,0.653 -0.815,0.594 -0.97,0.561 -1.115,0.498 -1.257,0.426 -1.323,0.393 -1.399,0.356 -1.472,0.35 -1.67,0.333 -1.792,0.498 -1.703,0.68 c 0.146,0.287 0.31,0.564 0.472,0.848 0.02,0.036 0.053,0.072 0.106,0.066 C -1.079,1.587 -1.066,1.558 -1.053,1.518 -0.987,1.3 -0.878,1.234 -0.637,1.274 -0.584,1.284 -0.531,1.297 -0.475,1.3 -0.363,1.31 -0.304,1.261 -0.29,1.142 -0.238,0.667 -0.238,0.667 0.231,0.766 0.29,0.779 0.35,0.789 0.409,0.802 0.739,0.858 1.026,0.643 1.059,0.317 1.072,0.198 1,0.119 0.911,0.059 0.716,-0.073 0.518,-0.201 0.317,-0.32 0.112,-0.442 0.01,-0.383 0.007,-0.145 0,-0.099 0,-0.049 0,0"
           fill="#32342f"
           id="path2204" />
        <path
           transform="matrix(1,0,0,-1,182.9141,419.3435)"
           d="M 0,0 C -0.172,0.056 -0.346,0.04 -0.521,0.02 -0.795,-0.007 -1.059,0.033 -1.31,0.139 -1.366,0.162 -1.419,0.191 -1.465,0.228 -1.544,0.287 -1.627,0.353 -1.587,0.472 -1.548,0.587 -1.449,0.587 -1.346,0.597 -0.544,0.66 0.251,0.495 1.049,0.488 1.158,0.488 1.267,0.469 1.373,0.426 1.528,0.363 1.571,0.248 1.472,0.112 1.29,-0.132 1.059,-0.313 0.736,-0.327 0.69,-0.297 0.706,-0.251 0.709,-0.208 0.716,-0.03 0.647,0.102 0.515,0.158 0.36,0.221 0.228,0.181 0.112,0.059 0.076,0.03 0.056,-0.013 0,0"
           fill="#ffffff"
           id="path2205" />
        <path
           transform="matrix(1,0,0,-1,190.3718,420.7955)"
           d="M 0,0 C 0.046,0.139 0.112,0.261 0.251,0.33 0.439,0.429 0.663,0.399 0.815,0.257 0.964,0.119 1.007,-0.116 0.921,-0.304 0.828,-0.502 0.647,-0.591 0.406,-0.564 0.132,-0.515 0,-0.333 0,0"
           fill="#32342f"
           id="path2206" />
        <path
           transform="matrix(1,0,0,-1,184.9897,419.9375)"
           d="M 0,0 C -0.003,0.053 -0.01,0.109 -0.01,0.162 -0.016,0.363 0.106,0.535 0.3,0.597 0.482,0.657 0.683,0.591 0.795,0.436 0.907,0.281 0.904,0.053 0.789,-0.102 0.759,-0.142 0.69,-0.158 0.703,-0.231 0.64,-0.244 0.574,-0.257 0.511,-0.267 0.277,-0.297 0.129,-0.168 0,0"
           fill="#32342f"
           id="path2207" />
        <path
           transform="matrix(1,0,0,-1,188.9133,420.59413)"
           d="M 0,0 C 0.053,0.033 0.023,0.073 0.01,0.112 -0.059,0.346 0.01,0.544 0.198,0.65 0.37,0.746 0.61,0.706 0.736,0.558 0.871,0.396 0.871,0.178 0.733,-0.013 0.719,-0.03 0.71,-0.049 0.7,-0.069 0.485,-0.181 0.281,-0.201 0.089,-0.02 0.073,0 0.033,-0.007 0,0"
           fill="#32342f"
           id="path2208" />
        <path
           transform="matrix(1,0,0,-1,182.2145,419.97053)"
           d="m 0,0 c 0.228,-0.056 0.498,-0.112 0.782,-0.112 0.036,0 0.096,-0.003 0.109,-0.056 C 0.907,-0.228 0.858,-0.257 0.822,-0.287 0.713,-0.376 0.577,-0.409 0.442,-0.426 0.214,-0.455 0.073,-0.512 0.106,-0.785 0.112,-0.848 0.089,-0.914 0.069,-0.977 0.056,-1.023 0.049,-1.082 -0.017,-1.079 c -0.056,0.003 -0.085,0.049 -0.102,0.096 -0.063,0.194 -0.079,0.396 -0.102,0.597 -0.007,0.053 -0.01,0.109 -0.02,0.162 C -0.274,-0.056 -0.224,0.003 0,0 Z"
           fill="#32342f"
           id="path2209" />
        <path
           transform="matrix(1,0,0,-1,193.3417,423.74223)"
           d="M 0,0 C 0.059,0.013 0.03,0.063 0.033,0.096 0.063,0.31 0.195,0.455 0.38,0.475 0.587,0.498 0.759,0.399 0.825,0.218 0.894,0.026 0.828,-0.149 0.643,-0.277 0.627,-0.287 0.614,-0.304 0.601,-0.32 0.307,-0.379 0.139,-0.218 0,0"
           fill="#32342f"
           id="path2210" />
        <path
           transform="matrix(1,0,0,-1,182.9141,419.3435)"
           d="M 0,0 C 0.073,0.076 0.125,0.172 0.241,0.211 0.515,0.304 0.789,0.089 0.752,-0.198 0.746,-0.241 0.742,-0.284 0.736,-0.327 0.686,-0.37 0.643,-0.416 0.591,-0.452 0.465,-0.538 0.333,-0.554 0.195,-0.475 0.066,-0.403 -0.007,-0.3 0.003,-0.145 0.003,-0.099 0,-0.049 0,0"
           fill="#32342f"
           id="path2211" />
        <path
           transform="matrix(1,0,0,-1,199.265,418.96403)"
           d="M 0,0 C -0.003,0.205 0.152,0.37 0.353,0.373 0.554,0.379 0.733,0.205 0.733,0 0.733,-0.195 0.561,-0.363 0.363,-0.363 0.162,-0.363 0.003,-0.208 0,0"
           fill="#32342f"
           id="path2212" />
        <path
           transform="matrix(1,0,0,-1,202.7794,426.17424)"
           d="m 0,0 c 0.036,-0.023 0.069,-0.043 0.106,-0.066 -0.419,-0.317 -0.901,-0.333 -1.396,-0.28 -0.261,0.026 -0.515,0.099 -0.766,0.168 -0.383,0.109 -0.739,0.046 -1.053,-0.205 -0.217,-0.175 -0.428,-0.356 -0.643,-0.534 -0.007,0.016 -0.01,0.036 -0.016,0.052 -0.02,0.096 0.056,0.139 0.108,0.189 0.192,0.171 0.39,0.339 0.608,0.478 0.303,0.195 0.64,0.224 0.983,0.142 0.363,-0.086 0.719,-0.191 1.099,-0.198 C -0.62,-0.257 -0.294,-0.191 0,0"
           fill="#e2797f"
           id="path2213" />
        <path
           transform="matrix(1,0,0,-1,202.7794,426.17424)"
           d="m 0,0 c -0.119,-0.195 -0.33,-0.218 -0.518,-0.261 -0.548,-0.115 -1.073,0.033 -1.597,0.165 -0.337,0.083 -0.67,0.04 -0.954,-0.171 -0.244,-0.182 -0.505,-0.35 -0.693,-0.598 -0.399,0.245 -0.657,0.591 -0.746,1.05 -0.066,0.326 0.083,0.607 0.383,0.785 0.182,0.109 0.383,0.162 0.571,0.251 0.267,-0.132 0.558,-0.129 0.845,-0.155 0.307,-0.027 0.6,0.013 0.858,0.198 0.227,0.165 0.485,0.27 0.759,0.28 0.247,0.007 0.501,-0.019 0.736,-0.125 C -0.251,1.195 -0.04,1.066 0.129,0.898 0.195,0.832 0.274,0.782 0.35,0.726 0.214,0.667 0.076,0.617 -0.007,0.478 -0.109,0.313 -0.142,0.155 0,0"
           fill="#edb6bf"
           id="path2214" />
        <path
           transform="matrix(1,0,0,-1,196.9254,425.99284)"
           d="M 0,0 C -0.046,0.68 0.257,1.138 0.865,1.419 1.086,1.521 1.31,1.604 1.544,1.67 1.782,1.736 1.95,1.64 2.082,1.452 2.102,1.426 2.119,1.396 2.132,1.366 2.26,1.132 2.26,1.132 2.016,1.039 1.97,1.023 1.924,1.003 1.878,0.983 1.231,0.7 1.053,0.205 1.369,-0.426 1.495,-0.673 1.67,-0.884 1.894,-1.053 1.973,-1.112 1.973,-1.162 1.94,-1.244 1.693,-1.858 1.112,-1.996 0.584,-1.567 0.29,-1.33 0.152,-1.01 0.069,-0.653 0.02,-0.436 0.007,-0.218 0,0"
           fill="#ffffff"
           id="path2215" />
        <path
           transform="matrix(1,0,0,-1,204.3897,425.85414)"
           d="m 0,0 c -0.02,-0.155 -0.059,-0.3 -0.172,-0.416 -0.019,-0.02 -0.039,-0.062 -0.076,-0.043 -0.029,0.017 -0.023,0.053 -0.013,0.089 0.07,0.235 0.047,0.261 -0.198,0.281 -0.353,0.033 -0.706,0.076 -1.062,0.066 -0.089,-0.003 -0.086,0.036 -0.056,0.099 0.082,0.165 0.231,0.241 0.396,0.257 C -0.865,0.36 -0.548,0.36 -0.238,0.271 -0.069,0.221 -0.003,0.145 0,0"
           fill="#fdd11f"
           id="path2216" />
        <path
           transform="matrix(1,0,0,-1,203.1027,425.94334)"
           d="M 0,0 C 0.261,-0.02 0.568,-0.046 0.871,-0.073 0.921,-0.076 0.997,-0.076 0.99,-0.155 0.983,-0.254 0.911,-0.205 0.855,-0.208 0.68,-0.214 0.502,-0.214 0.33,-0.244 c -0.162,-0.03 -0.317,0.01 -0.475,0.016 -0.02,0 -0.043,0.014 -0.063,0.02 -0.079,0.03 -0.145,0.093 -0.132,0.168 0.013,0.066 0.102,0.027 0.159,0.037 C -0.132,0.007 -0.089,0 0,0"
           fill="#fcd120"
           id="path2217" />
        <path
           transform="matrix(1,0,0,-1,202.7826,424.5903)"
           d="M 0,0 C 0.092,-0.007 0.158,-0.033 0.201,-0.109 0.304,-0.304 0.413,-0.492 0.647,-0.561 0.733,-0.584 0.749,-0.67 0.71,-0.736 0.657,-0.828 0.561,-0.845 0.465,-0.812 c -0.168,0.06 -0.3,0.178 -0.429,0.297 -0.079,0.069 -0.145,0.149 -0.221,0.221 -0.056,0.053 -0.095,0.106 -0.076,0.185 0.023,0.089 0.099,0.069 0.162,0.083 C -0.066,-0.02 -0.03,-0.007 0,0"
           fill="#df1d2d"
           id="path2218" />
        <path
           transform="matrix(1,0,0,-1,192.6884,440.20213)"
           d="m 0,0 c 0,0.429 0.003,0.858 -0.003,1.287 0,0.106 0.019,0.142 0.132,0.139 0.346,-0.007 0.693,-0.004 1.039,-0.004 0.35,0 0.561,-0.178 0.568,-0.531 0.013,-0.597 0.016,-1.198 0,-1.795 -0.007,-0.31 -0.34,-0.568 -0.594,-0.548 -0.307,0.023 -0.614,0.007 -0.924,0.007 -0.218,0 -0.221,0 -0.221,0.214 C 0,-0.822 0,-0.412 0,0 Z"
           fill="#ffffff"
           id="path2219" />
        <path
           transform="matrix(1,0,0,-1,192.6884,436.7372)"
           d="m 0,0 c 0,0.389 0.007,0.779 -0.003,1.168 -0.004,0.129 0.036,0.155 0.158,0.152 0.33,-0.01 0.66,-0.003 0.987,-0.003 0.336,0 0.59,-0.225 0.6,-0.561 0.014,-0.489 0.01,-0.977 0,-1.465 C 1.736,-1.003 1.399,-1.31 1.102,-1.31 0.772,-1.307 0.445,-1.294 0.115,-1.313 0.013,-1.32 0,-1.27 0.003,-1.188 0,-0.792 0,-0.396 0,0"
           fill="#ffffff"
           id="path2220" />
        <path
           transform="matrix(1,0,0,-1,202.3174,425.082)"
           d="m 0,0 c 0.135,0.016 0.234,-0.026 0.271,-0.168 0.029,-0.079 0,-0.132 -0.076,-0.162 -0.208,-0.063 -0.291,0 -0.291,0.224 C -0.082,-0.053 -0.069,0 0,0"
           fill="#353530"
           id="path2221" />
        <path
           transform="matrix(1,0,0,-1,202.5121,425.41203)"
           d="M 0,0 C 0.036,0.049 0.066,0.099 0.076,0.162 0.168,0.112 0.185,0.02 0.201,-0.069 0.208,-0.106 0.208,-0.149 0.158,-0.162 0.106,-0.175 0.076,-0.155 0.069,-0.099 0.066,-0.053 0.04,-0.02 0,0"
           fill="#e07981"
           id="path2222" />
        <path
           transform="matrix(1,0,0,-1,202.3174,425.082)"
           d="M 0,0 C -0.033,-0.033 -0.066,-0.069 -0.096,-0.102 -0.129,-0.066 -0.162,-0.03 -0.188,0.01 -0.218,0.049 -0.28,0.096 -0.218,0.145 -0.162,0.191 -0.119,0.139 -0.082,0.099 -0.056,0.066 -0.026,0.033 0,0"
           fill="#df7880"
           id="path2223" />
        <path
           transform="matrix(1,0,0,-1,193.18,441.08644)"
           d="M 0,0 C 0.076,-0.076 0.155,-0.148 0.264,-0.043 0.254,-0.086 0.238,-0.125 0.231,-0.168 0.211,-0.284 0.096,-0.343 -0.01,-0.3 -0.046,-0.287 -0.046,-0.267 -0.04,-0.238 -0.026,-0.158 -0.013,-0.079 0,0"
           fill="#dbdcde"
           id="path2224" />
        <path
           transform="matrix(1,0,0,-1,191.4064,434.8345)"
           d="m 0,0 v -1.172 c 0,0 -0.949,0.037 -1.47,-0.372 v -1.6 h 1.358 l 0.019,-1.042 -1.377,0.131 v -2.326 l -0.521,0.521 v 4.651 c 0,0 0.67,1.209 1.991,1.209"
           id="path2225" />
        <path
           transform="matrix(1,0,0,-1,192.1297,434.6051)"
           d="m 0,0 v -7.609 h 2.121 c 0,0 0.725,0.186 0.744,1.34 v 1.972 c 0,0 -0.13,0.409 -0.465,0.493 0,0 0.409,0.437 0.465,0.772 v 2.213 c 0,0 -0.242,0.856 -0.558,0.819 z"
           id="path2226" />
        <path
           transform="matrix(1,0,0,-1,192.7622,435.5725)"
           d="m 0,0 v -2.27 h 1.209 c 0,0 0.205,0 0.316,0.428 v 1.433 c 0,0 0.056,0.316 -0.297,0.409 z"
           fill="#ffffff"
           id="path2227" />
        <path
           transform="matrix(1,0,0,-1,195.7139,434.67964)"
           d="m 0,0 v -7.392 l 0.707,0.497 -0.062,2.542 1.228,0.223 v 0.695 l -1.24,0.09 v 1.981 c 0,0 0.88,-0.062 1.24,-0.496 l 0.136,-0.075 v 0.558 c 0,0 -0.521,1.005 -2.009,1.377"
           id="path2228" />
        <path
           transform="matrix(1,0,0,-1,192.8242,438.84663)"
           d="m 0,0 h 1.29 c 0,0 0.235,-0.112 0.273,-0.459 V -2.17 c 0,0 -0.186,-0.348 -0.41,-0.472 H 0 Z"
           fill="#ffffff"
           id="path2229" />
        <path
           transform="matrix(1,0,0,-1,192.973,435.8681)"
           d="m 0,0 v -1.738 h 0.89 c 0,0 0.142,0 0.201,0.248 v 1.372 c 0,0 0.036,0.13 -0.212,0.177 L 0,0.072 Z"
           fill="#6f6f6f"
           id="path2230" />
        <path
           transform="matrix(1,0,0,-1,192.973,435.8681)"
           stroke-width="0.084"
           stroke-linecap="butt"
           stroke-miterlimit="10"
           stroke-linejoin="miter"
           fill="none"
           stroke="#575555"
           d="m 0,0 v -1.738 h 0.89 c 0,0 0.142,0 0.201,0.248 v 1.372 c 0,0 0.036,0.13 -0.212,0.177 L 0,0.072 Z"
           id="path2231" />
        <path
           transform="matrix(1,0,0,-1,193.0227,439.05583)"
           d="M 0,0 H 1.102 V -1.623 L 0.442,-2.111 0,-1.679 Z"
           fill="#6f6f6f"
           id="path2232" />
        <path
           transform="matrix(1,0,0,-1,193.0227,439.05583)"
           stroke-width="0.084"
           stroke-linecap="butt"
           stroke-miterlimit="10"
           stroke-linejoin="miter"
           fill="none"
           stroke="#575555"
           d="M 0,0 H 1.102 V -1.623 L 0.442,-2.111 0,-1.679 Z"
           id="path2233" />
        <path
           transform="matrix(1,0,0,-1,191.212,437.71803)"
           d="M 0,0 0.732,1.017 V -1.897 L 0.366,-1.55 V 0 Z"
           fill="#6f6f6f"
           id="path2234" />
        <path
           transform="matrix(1,0,0,-1,191.212,437.71803)"
           stroke-width="0.084"
           stroke-linecap="butt"
           stroke-miterlimit="10"
           stroke-linejoin="miter"
           fill="none"
           stroke="#575555"
           d="M 0,0 0.732,1.017 V -1.897 L 0.366,-1.55 V 0 Z"
           id="path2235" />
        <path
           transform="matrix(1,0,0,-1,195.1806,436.0934)"
           d="M 0,0 0.384,-0.149 V -3.646 L 0,-3.869 v 1.004 c 0,0 -0.087,0.372 -0.322,0.657 0,0 0.334,0.422 0.353,0.695 z"
           fill="#6f6f6f"
           id="path2236" />
        <path
           transform="matrix(1,0,0,-1,195.1806,436.0934)"
           stroke-width="0.084"
           stroke-linecap="butt"
           stroke-miterlimit="10"
           stroke-linejoin="miter"
           fill="none"
           stroke="#575555"
           d="M 0,0 0.384,-0.149 V -3.646 L 0,-3.869 v 1.004 c 0,0 -0.087,0.372 -0.322,0.657 0,0 0.334,0.422 0.353,0.695 z"
           id="path2237" />
      </g>
    </g>
  </g>
</svg>
