<?xml version="1.0" encoding="UTF-8" standalone="no"?>
<!-- Created with Inkscape (http://www.inkscape.org/) -->

<svg
   width="68.422607mm"
   height="93.632607mm"
   viewBox="0 0 68.422607 93.632607"
   version="1.1"
   id="svg1"
   inkscape:version="1.4.2 (f4327f4, 2025-05-13)"
   sodipodi:docname="Central African Football Federation logo.svg"
   xmlns:inkscape="http://www.inkscape.org/namespaces/inkscape"
   xmlns:sodipodi="http://sodipodi.sourceforge.net/DTD/sodipodi-0.dtd"
   xmlns="http://www.w3.org/2000/svg"
   xmlns:svg="http://www.w3.org/2000/svg">
  <sodipodi:namedview
     id="namedview1"
     pagecolor="#ffffff"
     bordercolor="#000000"
     borderopacity="0.25"
     inkscape:showpageshadow="2"
     inkscape:pageopacity="0.0"
     inkscape:pagecheckerboard="0"
     inkscape:deskcolor="#d1d1d1"
     inkscape:document-units="mm"
     inkscape:zoom="0.72604517"
     inkscape:cx="161.83566"
     inkscape:cy="193.51413"
     inkscape:window-width="1920"
     inkscape:window-height="1017"
     inkscape:window-x="-8"
     inkscape:window-y="-8"
     inkscape:window-maximized="1"
     inkscape:current-layer="layer1" />
  <defs
     id="defs1">
    <clipPath
       clipPathUnits="userSpaceOnUse"
       id="clipPath5345">
      <path
         d="m 53.912,111.003 h 28.162 v 38.62 H 53.912 Z"
         transform="translate(-81.827702,-117.94521)"
         id="path5345" />
    </clipPath>
    <clipPath
       clipPathUnits="userSpaceOnUse"
       id="clipPath5347">
      <path
         d="m 53.912,111.003 h 28.162 v 38.62 H 53.912 Z"
         id="path5347" />
    </clipPath>
    <clipPath
       clipPathUnits="userSpaceOnUse"
       id="clipPath5349">
      <path
         d="m 53.912,111.003 h 28.162 v 38.62 H 53.912 Z"
         id="path5349" />
    </clipPath>
    <clipPath
       clipPathUnits="userSpaceOnUse"
       id="clipPath5351">
      <path
         d="m 53.912,111.003 h 28.162 v 38.62 H 53.912 Z"
         id="path5351" />
    </clipPath>
    <clipPath
       clipPathUnits="userSpaceOnUse"
       id="clipPath5353">
      <path
         d="m 53.912,111.003 h 28.162 v 38.62 H 53.912 Z"
         transform="translate(-63.014801,-141.4342)"
         id="path5353" />
    </clipPath>
    <clipPath
       clipPathUnits="userSpaceOnUse"
       id="clipPath5355">
      <path
         d="m 53.912,111.003 h 28.162 v 38.62 H 53.912 Z"
         transform="translate(-76.909104,-118.6765)"
         id="path5355" />
    </clipPath>
    <clipPath
       clipPathUnits="userSpaceOnUse"
       id="clipPath5357">
      <path
         d="m 53.912,111.003 h 28.162 v 38.62 H 53.912 Z"
         transform="translate(-68.047001,-115.87521)"
         id="path5357" />
    </clipPath>
    <clipPath
       clipPathUnits="userSpaceOnUse"
       id="clipPath5359">
      <path
         d="m 53.912,111.003 h 28.162 v 38.62 H 53.912 Z"
         transform="translate(-75.627602,-127.2975)"
         id="path5359" />
    </clipPath>
    <clipPath
       clipPathUnits="userSpaceOnUse"
       id="clipPath5361">
      <path
         d="m 53.912,111.003 h 28.162 v 38.62 H 53.912 Z"
         transform="translate(-78.017004,-121.1494)"
         id="path5361" />
    </clipPath>
    <clipPath
       clipPathUnits="userSpaceOnUse"
       id="clipPath5363">
      <path
         d="m 53.912,111.003 h 28.162 v 38.62 H 53.912 Z"
         transform="translate(-78.017004,-147.60951)"
         id="path5363" />
    </clipPath>
    <clipPath
       clipPathUnits="userSpaceOnUse"
       id="clipPath5365">
      <path
         d="m 53.912,111.085 h 28.162 v 38.538 H 53.912 Z"
         transform="translate(-81.827702,-117.94521)"
         id="path5365" />
    </clipPath>
    <clipPath
       clipPathUnits="userSpaceOnUse"
       id="clipPath5367">
      <path
         d="m 53.912,111.003 h 28.162 v 38.62 H 53.912 Z"
         transform="translate(-61.221701,-145.8576)"
         id="path5367" />
    </clipPath>
    <clipPath
       clipPathUnits="userSpaceOnUse"
       id="clipPath5369">
      <path
         d="m 53.912,111.003 h 28.162 v 38.62 H 53.912 Z"
         id="path5369" />
    </clipPath>
    <clipPath
       clipPathUnits="userSpaceOnUse"
       id="clipPath5371">
      <path
         d="m 53.912,111.003 h 28.162 v 38.62 H 53.912 Z"
         transform="translate(-69.059201,-145.19601)"
         id="path5371" />
    </clipPath>
    <clipPath
       clipPathUnits="userSpaceOnUse"
       id="clipPath5373">
      <path
         d="m 53.912,111.003 h 28.162 v 38.62 H 53.912 Z"
         id="path5373" />
    </clipPath>
    <clipPath
       clipPathUnits="userSpaceOnUse"
       id="clipPath5375">
      <path
         d="m 53.912,111.003 h 28.162 v 38.62 H 53.912 Z"
         transform="translate(-74.622702,-145.4464)"
         id="path5375" />
    </clipPath>
    <clipPath
       clipPathUnits="userSpaceOnUse"
       id="clipPath5377">
      <path
         d="m 53.912,111.003 h 28.162 v 38.62 H 53.912 Z"
         transform="translate(-80.463505,-119.0469)"
         id="path5377" />
    </clipPath>
    <clipPath
       clipPathUnits="userSpaceOnUse"
       id="clipPath5379">
      <path
         d="m 53.912,111.003 h 28.162 v 38.62 H 53.912 Z"
         transform="translate(-80.646002,-120.7312)"
         id="path5379" />
    </clipPath>
    <clipPath
       clipPathUnits="userSpaceOnUse"
       id="clipPath5381">
      <path
         d="m 53.912,111.003 h 28.162 v 38.62 H 53.912 Z"
         transform="translate(-80.646002,-123.42771)"
         id="path5381" />
    </clipPath>
    <clipPath
       clipPathUnits="userSpaceOnUse"
       id="clipPath5383">
      <path
         d="m 53.912,111.003 h 28.162 v 38.62 H 53.912 Z"
         transform="translate(-79.895799,-125.2101)"
         id="path5383" />
    </clipPath>
    <clipPath
       clipPathUnits="userSpaceOnUse"
       id="clipPath5385">
      <path
         d="m 53.912,111.003 h 28.162 v 38.62 H 53.912 Z"
         transform="translate(-79.895799,-127.2151)"
         id="path5385" />
    </clipPath>
    <clipPath
       clipPathUnits="userSpaceOnUse"
       id="clipPath5387">
      <path
         d="m 53.912,111.003 h 28.162 v 38.62 H 53.912 Z"
         transform="translate(-80.646002,-129.4648)"
         id="path5387" />
    </clipPath>
    <clipPath
       clipPathUnits="userSpaceOnUse"
       id="clipPath5389">
      <path
         d="m 53.912,111.003 h 28.162 v 38.62 H 53.912 Z"
         transform="translate(-80.463505,-130.9116)"
         id="path5389" />
    </clipPath>
    <clipPath
       clipPathUnits="userSpaceOnUse"
       id="clipPath5391">
      <path
         d="m 53.912,111.003 h 28.162 v 38.62 H 53.912 Z"
         transform="translate(-80.010805,-132.7573)"
         id="path5391" />
    </clipPath>
    <clipPath
       clipPathUnits="userSpaceOnUse"
       id="clipPath5393">
      <path
         d="m 53.912,111.003 h 28.162 v 38.62 H 53.912 Z"
         transform="translate(-80.646002,-134.23791)"
         id="path5393" />
    </clipPath>
    <clipPath
       clipPathUnits="userSpaceOnUse"
       id="clipPath5395">
      <path
         d="m 53.912,111.003 h 28.162 v 38.62 H 53.912 Z"
         transform="translate(-80.646002,-135.76401)"
         id="path5395" />
    </clipPath>
    <clipPath
       clipPathUnits="userSpaceOnUse"
       id="clipPath5397">
      <path
         d="m 53.912,111.003 h 28.162 v 38.62 H 53.912 Z"
         transform="translate(-55.115401,-136.7791)"
         id="path5397" />
    </clipPath>
    <clipPath
       clipPathUnits="userSpaceOnUse"
       id="clipPath5399">
      <path
         d="m 53.912,111.003 h 28.162 v 38.62 H 53.912 Z"
         transform="translate(-55.115401,-135.1024)"
         id="path5399" />
    </clipPath>
    <clipPath
       clipPathUnits="userSpaceOnUse"
       id="clipPath5401">
      <path
         d="m 53.912,111.003 h 28.162 v 38.62 H 53.912 Z"
         transform="translate(-55.298002,-133.0974)"
         id="path5401" />
    </clipPath>
    <clipPath
       clipPathUnits="userSpaceOnUse"
       id="clipPath5403">
      <path
         d="m 53.912,111.003 h 28.162 v 38.62 H 53.912 Z"
         transform="translate(-55.115401,-131.37441)"
         id="path5403" />
    </clipPath>
    <clipPath
       clipPathUnits="userSpaceOnUse"
       id="clipPath5405">
      <path
         d="m 53.912,111.003 h 28.162 v 38.62 H 53.912 Z"
         transform="translate(-55.979602,-129.3663)"
         id="path5405" />
    </clipPath>
    <clipPath
       clipPathUnits="userSpaceOnUse"
       id="clipPath5407">
      <path
         d="m 53.912,111.003 h 28.162 v 38.62 H 53.912 Z"
         transform="translate(-55.750601,-127.3741)"
         id="path5407" />
    </clipPath>
    <clipPath
       clipPathUnits="userSpaceOnUse"
       id="clipPath5409">
      <path
         d="m 53.912,111.003 h 28.162 v 38.62 H 53.912 Z"
         transform="translate(-55.115401,-125.6131)"
         id="path5409" />
    </clipPath>
    <clipPath
       clipPathUnits="userSpaceOnUse"
       id="clipPath5411">
      <path
         d="m 53.912,111.003 h 28.162 v 38.62 H 53.912 Z"
         id="path5411" />
    </clipPath>
    <clipPath
       clipPathUnits="userSpaceOnUse"
       id="clipPath5413">
      <path
         d="m 53.912,111.003 h 28.162 v 38.62 H 53.912 Z"
         transform="translate(-55.865602,-123.2113)"
         id="path5413" />
    </clipPath>
    <clipPath
       clipPathUnits="userSpaceOnUse"
       id="clipPath5415">
      <path
         d="m 53.912,111.003 h 28.162 v 38.62 H 53.912 Z"
         transform="translate(-55.115401,-121.3182)"
         id="path5415" />
    </clipPath>
    <clipPath
       clipPathUnits="userSpaceOnUse"
       id="clipPath5417">
      <path
         d="m 53.912,111.003 h 28.162 v 38.62 H 53.912 Z"
         transform="translate(-58.951402,-115.4317)"
         id="path5417" />
    </clipPath>
    <clipPath
       clipPathUnits="userSpaceOnUse"
       id="clipPath5419">
      <path
         d="m 53.912,111.003 h 28.162 v 38.62 H 53.912 Z"
         transform="translate(-59.615602,-114.8893)"
         id="path5419" />
    </clipPath>
    <clipPath
       clipPathUnits="userSpaceOnUse"
       id="clipPath5421">
      <path
         d="m 53.912,111.003 h 28.162 v 38.62 H 53.912 Z"
         transform="translate(-61.273301,-114.8893)"
         id="path5421" />
    </clipPath>
    <clipPath
       clipPathUnits="userSpaceOnUse"
       id="clipPath5423">
      <path
         d="m 53.912,111.003 h 28.162 v 38.62 H 53.912 Z"
         transform="translate(-63.462701,-114.8893)"
         id="path5423" />
    </clipPath>
    <clipPath
       clipPathUnits="userSpaceOnUse"
       id="clipPath5425">
      <path
         d="m 53.912,111.003 h 28.162 v 38.62 H 53.912 Z"
         transform="translate(-64.813702,-115.7535)"
         id="path5425" />
    </clipPath>
    <clipPath
       clipPathUnits="userSpaceOnUse"
       id="clipPath5427">
      <path
         d="m 53.912,111.003 h 28.162 v 38.62 H 53.912 Z"
         transform="translate(-66.669401,-115.52451)"
         id="path5427" />
    </clipPath>
    <clipPath
       clipPathUnits="userSpaceOnUse"
       id="clipPath5429">
      <path
         d="m 53.912,111.003 h 28.162 v 38.62 H 53.912 Z"
         transform="translate(-68.747102,-114.8893)"
         id="path5429" />
    </clipPath>
    <clipPath
       clipPathUnits="userSpaceOnUse"
       id="clipPath5431">
      <path
         d="m 53.912,111.003 h 28.162 v 38.62 H 53.912 Z"
         transform="translate(-70.404802,-115.7535)"
         id="path5431" />
    </clipPath>
    <clipPath
       clipPathUnits="userSpaceOnUse"
       id="clipPath5433">
      <path
         d="m 53.912,111.003 h 28.162 v 38.62 H 53.912 Z"
         id="path5433" />
    </clipPath>
    <clipPath
       clipPathUnits="userSpaceOnUse"
       id="clipPath5435">
      <path
         d="m 53.912,111.003 h 28.162 v 38.62 H 53.912 Z"
         transform="translate(-73.743302,-115.4317)"
         id="path5435" />
    </clipPath>
    <clipPath
       clipPathUnits="userSpaceOnUse"
       id="clipPath5437">
      <path
         d="m 53.912,111.003 h 28.162 v 38.62 H 53.912 Z"
         transform="translate(-74.601502,-115.52451)"
         id="path5437" />
    </clipPath>
    <clipPath
       clipPathUnits="userSpaceOnUse"
       id="clipPath5439">
      <path
         d="m 53.912,111.003 h 28.162 v 38.62 H 53.912 Z"
         id="path5439" />
    </clipPath>
    <clipPath
       clipPathUnits="userSpaceOnUse"
       id="clipPath5441">
      <path
         d="m 53.912,111.003 h 28.162 v 38.62 H 53.912 Z"
         transform="translate(-76.620399,-114.8893)"
         id="path5441" />
    </clipPath>
    <clipPath
       clipPathUnits="userSpaceOnUse"
       id="clipPath5443">
      <path
         d="m 53.912,111.003 h 28.162 v 38.62 H 53.912 Z"
         transform="translate(-78.328899,-114.8893)"
         id="path5443" />
    </clipPath>
  </defs>
  <g
     inkscape:label="Layer 1"
     inkscape:groupmode="layer"
     id="layer1"
     transform="translate(-62.308255,-97.407443)">
    <g
       id="g1"
       transform="matrix(6.8871497,0,0,6.8871497,-1118.4935,-811.88279)">
      <path
         id="path5344"
         d="m 0,0 c 0,-2.638 -2.01,-3.973 -4.212,-3.973 h -4.915 c -1.04,0 -3.218,-0.199 -4.708,-2.641 -1.49,2.442 -3.667,2.641 -4.707,2.641 h -4.915 c -2.203,0 -4.213,1.335 -4.213,3.973 V 25.822 H 0 Z"
         style="fill:#ffffff;fill-opacity:1;fill-rule:nonzero;stroke:none"
         transform="matrix(0.35277776,0,0,-0.35277776,181.29803,143.20229)"
         clip-path="url(#clipPath5345)" />
      <path
         id="path5346"
         d="M 78.017,143.767 H 57.881 v 4.21 h 20.136 z"
         style="fill:#e3051b;fill-opacity:1;fill-rule:nonzero;stroke:#fecb04;stroke-width:0.514;stroke-linecap:butt;stroke-linejoin:miter;stroke-miterlimit:10;stroke-dasharray:none;stroke-opacity:1"
         transform="matrix(0.35277776,0,0,-0.35277776,152.43104,184.81074)"
         clip-path="url(#clipPath5347)" />
      <path
         id="path5348"
         d="M 77.899,143.611 H 57.934 v -6.927 h 19.965 z"
         style="fill:#273477;fill-opacity:1;fill-rule:nonzero;stroke:none"
         transform="matrix(0.35277776,0,0,-0.35277776,152.43104,184.81074)"
         clip-path="url(#clipPath5349)" />
      <path
         id="path5350"
         d="M 77.986,123.18 H 57.992 v 6.694 h 19.994 z"
         style="fill:#00933a;fill-opacity:1;fill-rule:nonzero;stroke:none"
         transform="matrix(0.35277776,0,0,-0.35277776,152.43104,184.81074)"
         clip-path="url(#clipPath5351)" />
      <path
         id="path5352"
         d="m 0,0 -0.98,-0.772 0.312,-1.238 -0.993,0.679 -1.125,-0.664 0.395,1.223 -1.036,0.796 1.323,0.016 0.399,1.217 0.446,-1.211 z"
         style="fill:#fce900;fill-opacity:1;fill-rule:evenodd;stroke:none"
         transform="matrix(0.35277776,0,0,-0.35277776,174.66126,134.9159)"
         clip-path="url(#clipPath5353)" />
      <path
         id="path5354"
         d="m 0,0 c -0.595,-0.595 -2.183,-0.735 -2.183,-0.735 h -13.882 c 0,0 -1.106,0.328 -1.943,0.953 -0.837,0.626 -0.997,1.354 -0.997,1.354 v 2.99 H 0.961 V 1.179 C 0.961,1.179 0.699,0.699 0,0"
         style="fill:#fce900;fill-opacity:1;fill-rule:nonzero;stroke:none"
         transform="matrix(0.35277776,0,0,-0.35277776,179.56286,142.94431)"
         clip-path="url(#clipPath5355)" />
      <path
         id="path5356"
         d="M 0,0 C 0,0 -0.763,1.236 -1.513,1.688 -2.264,2.14 -3.594,2.212 -3.594,2.212 V 27.911 H 3.507 V 2.183 c 0,0 -1.37,-0.143 -2.008,-0.539 C 0.86,1.248 0,0 0,0"
         style="fill:#e3051b;fill-opacity:1;fill-rule:nonzero;stroke:none"
         transform="matrix(0.35277776,0,0,-0.35277776,176.43651,143.93254)"
         clip-path="url(#clipPath5357)" />
      <path
         id="path5358"
         d="M 0,0 C 0.024,0.061 0.042,0.121 0.102,0.127 V 0.178 C 0.119,0.186 0.136,0.195 0.153,0.203 V 0.254 C 0.17,0.263 0.186,0.271 0.203,0.279 V 0.33 C 0.266,0.345 0.265,0.404 0.28,0.457 H 0.305 V 0.508 H 0.33 C 0.347,0.559 0.364,0.61 0.381,0.661 H 0.407 V 0.737 H 0.432 V 0.788 H 0.457 V 0.864 H 0.483 V 0.966 H 0.508 V 1.067 H 0.534 V 1.195 H 0.559 C 0.635,1.809 0.449,2.026 -0.025,1.576 H -0.051 V 1.83 H -0.076 V 1.957 H -0.102 V 2.084 H -0.127 V 2.16 H -0.152 V 2.237 H -0.178 V 2.313 H -0.203 V 2.389 H -0.229 C -0.246,2.44 -0.262,2.491 -0.279,2.541 H -0.305 V 2.592 H -0.33 V 2.643 H -0.356 C -0.364,2.677 -0.373,2.711 -0.381,2.745 H -0.407 C -0.419,2.792 -0.431,2.833 -0.483,2.846 -0.458,2.937 -0.609,2.933 -0.584,3.024 -0.703,3.085 -0.765,3.23 -0.889,3.253 -0.925,3.348 -1.061,3.337 -1.144,3.38 -1.229,3.211 -1.236,3.055 -1.245,2.872 H -1.271 C -1.254,2.694 -1.237,2.516 -1.22,2.338 h 0.026 c 0.034,-0.3 0.173,-0.636 0.355,-0.839 V 1.449 C -0.813,1.432 -0.788,1.415 -0.762,1.398 -0.738,1.276 -0.56,1.155 -0.457,1.093 V 1.067 H -0.483 C -0.534,0.944 -0.61,0.867 -0.635,0.737 H -0.661 V 0.661 H -0.686 V 0.61 H -0.712 V 0.534 h -0.025 c -0.082,-0.207 -0.082,-0.5 -0.076,-0.788 -0.083,-0.04 -0.115,-0.092 -0.229,-0.102 0.007,0.203 -0.103,0.318 -0.102,0.483 H -1.169 V 0.178 H -1.194 C -1.22,0.254 -1.245,0.33 -1.271,0.407 H -1.296 C -1.325,0.47 -1.32,0.563 -1.398,0.585 v 0.05 C -1.547,0.716 -1.56,0.906 -1.754,0.94 -1.768,0.874 -1.8,0.798 -1.83,0.737 H -1.855 V 0.661 H -1.881 V 0.61 h -0.025 c -0.11,-0.455 -0.121,-1.047 -0.025,-1.525 0.088,-0.174 0.1,-0.301 0.025,-0.457 0.202,-0.029 0.217,-0.209 0.33,-0.331 -0.251,-0.082 -0.612,-0.126 -0.889,-0.228 v 0.508 h -0.026 c -0.008,0.059 -0.016,0.118 -0.025,0.178 -0.129,-0.027 -0.354,-0.088 -0.407,-0.204 h -0.05 C -2.99,-1.474 -3.007,-1.499 -3.024,-1.525 H -3.075 C -3.117,-1.644 -3.301,-1.682 -3.304,-1.804 -3.329,-1.821 -3.355,-1.838 -3.38,-1.855 v -0.051 c -0.026,-0.017 -0.051,-0.034 -0.076,-0.051 -0.117,-0.306 -0.37,-0.606 -0.382,-1.042 -0.118,-0.017 -0.237,-0.034 -0.355,-0.051 -0.008,0.306 0.109,0.875 -0.153,0.991 -0.078,-0.078 -0.21,-0.058 -0.254,-0.177 H -4.651 C -4.699,-2.365 -4.897,-2.409 -4.905,-2.541 -4.93,-2.558 -4.956,-2.575 -4.981,-2.592 V -2.643 C -4.998,-2.652 -5.015,-2.66 -5.032,-2.669 v -0.05 c -0.254,-0.388 -0.456,-0.879 -0.356,-1.5 -0.17,0.024 -0.286,-0.036 -0.432,-0.025 0.068,0.175 0.196,0.365 0.178,0.559 h 0.026 v 0.127 h 0.025 c -0.021,0.155 0.04,0.261 0.025,0.432 h -0.025 v 0.229 h -0.025 v 0.101 h -0.026 c -0.026,0.121 -0.059,0.194 -0.102,0.28 -0.025,-0.008 -0.05,-0.017 -0.076,-0.025 V -2.567 H -5.871 C -5.879,-2.584 -5.888,-2.601 -5.896,-2.618 H -5.947 C -5.964,-2.643 -5.981,-2.669 -5.998,-2.694 H -6.049 C -6.073,-2.796 -6.238,-2.815 -6.226,-2.923 -6.252,-2.94 -6.277,-2.956 -6.303,-2.973 V -3.024 C -6.32,-3.033 -6.337,-3.041 -6.354,-3.05 V -3.101 C -6.405,-3.114 -6.417,-3.155 -6.43,-3.202 H -6.455 C -6.481,-3.278 -6.506,-3.355 -6.531,-3.431 H -6.557 V -3.482 H -6.582 C -6.591,-3.524 -6.599,-3.566 -6.608,-3.609 H -6.633 C -6.691,-3.933 -6.76,-4.199 -6.735,-4.6 -7.04,-4.752 -7.345,-4.905 -7.65,-5.057 c -0.045,0.053 -0.113,0.065 -0.178,0.101 v 0.026 h -0.05 v 0.025 H -7.929 V -4.88 H -7.98 v 0.026 h -0.051 v 0.025 h -0.051 v 0.026 h -0.051 v 0.025 h -0.05 v 0.026 c -0.034,0.008 -0.068,0.016 -0.102,0.025 v 0.025 h -0.051 v 0.026 c -0.334,-0.002 -0.122,0.481 -0.203,0.737 h -0.026 v 0.127 H -8.59 c -0.008,0.059 -0.017,0.118 -0.025,0.178 h -0.026 v 0.051 h -0.025 v 0.076 h -0.026 v 0.076 h -0.025 c -0.017,0.051 -0.034,0.102 -0.051,0.153 h -0.025 v 0.05 h -0.026 v 0.051 c -0.017,0.009 -0.034,0.017 -0.051,0.026 v 0.05 c -0.083,0.031 -0.104,0.121 -0.127,0.204 0.068,0.048 0.064,0.151 0.153,0.178 v 0.05 c 0.017,0.009 0.034,0.017 0.051,0.026 v 0.051 c 0.017,0.008 0.034,0.017 0.05,0.025 v 0.051 c 0.063,0.015 0.063,0.074 0.077,0.127 h 0.025 c 0.009,0.034 0.017,0.068 0.026,0.102 h 0.025 c 0.034,0.144 0.068,0.288 0.102,0.432 h 0.025 v 0.051 h 0.025 v 0.076 h 0.026 c 0.017,0.051 0.034,0.101 0.051,0.152 h 0.025 c 0.014,0.054 0.013,0.113 0.076,0.127 v 0.051 c 0.026,0.017 0.051,0.034 0.077,0.051 0.24,0.337 0.625,0.658 0.94,0.864 0.008,0.017 0.017,0.034 0.025,0.051 h 0.051 c 0.017,0.025 0.034,0.051 0.051,0.076 h 0.051 c 0.013,0.052 0.054,0.064 0.101,0.077 v 0.025 h 0.051 c 0.009,0.017 0.017,0.034 0.026,0.051 h 0.051 c 0.008,0.017 0.017,0.034 0.025,0.05 h 0.051 c 0.008,0.017 0.017,0.034 0.025,0.051 h 0.051 v 0.026 h 0.051 v 0.025 c 0.042,0.009 0.085,0.017 0.127,0.026 V 0 h 0.076 c 0.266,-0.399 0.788,-0.809 1.322,-0.737 v 0.025 h 0.076 v 0.026 h 0.051 v 0.025 h 0.051 c 0.008,0.017 0.017,0.034 0.025,0.051 0.1,-0.024 0.103,0.151 0.203,0.127 v 0.026 c 0.105,0.116 0.251,0.242 0.305,0.381 0.026,0.017 0.051,0.034 0.077,0.051 v 0.05 c 0.025,0.017 0.05,0.034 0.076,0.051 v 0.051 c 0.025,0.017 0.051,0.034 0.076,0.051 v 0.051 c 0.138,0.049 0.187,0.268 0.33,0.279 v 0.026 c 0.344,0.018 0.634,-0.207 0.992,-0.153 0.013,0.193 -0.095,0.215 -0.102,0.356 -0.017,0.009 -0.034,0.017 -0.051,0.026 -0.031,0.133 -0.189,0.202 -0.254,0.33 -0.091,-0.025 -0.087,0.126 -0.178,0.102 -0.008,0.016 -0.017,0.033 -0.025,0.05 h -0.051 c -0.009,0.017 -0.017,0.034 -0.026,0.051 h -0.05 V 1.322 H -3.66 V 1.347 C -3.727,1.355 -3.795,1.364 -3.863,1.372 V 1.347 C -3.964,1.381 -3.993,1.136 -4.041,1.067 H -4.066 V 1.017 C -4.171,0.979 -4.124,0.822 -4.244,0.788 -4.238,0.671 -4.417,0.645 -4.448,0.534 h -0.05 V 0.508 C -4.66,0.425 -4.933,0.437 -5.007,0.585 h -0.05 C -5.056,0.653 -5.186,0.654 -5.159,0.737 -5.184,0.754 -5.21,0.771 -5.235,0.788 V 0.839 C -5.324,0.856 -5.274,0.974 -5.362,0.991 V 1.042 H -5.388 V 1.093 H -5.413 V 1.144 H -5.439 V 1.195 C -5.502,1.209 -5.501,1.268 -5.515,1.322 H -5.54 v 0.05 h -0.026 v 0.051 h -0.025 v 0.051 h -0.025 v 0.051 h -0.026 v 0.051 c -0.017,0.008 -0.034,0.017 -0.051,0.025 v 0.051 h -0.025 v 0.051 h -0.026 v 0.051 h -0.025 v 0.05 H -5.794 V 1.855 H -5.82 v 0.051 h -0.025 v 0.051 h -0.026 v 0.051 h -0.025 v 0.051 h -0.026 v 0.05 h -0.025 c -0.008,0.034 -0.017,0.068 -0.025,0.102 h -0.026 c -0.008,0.034 -0.017,0.068 -0.025,0.102 h -0.026 c -0.017,0.05 -0.034,0.101 -0.05,0.152 h -0.026 c -0.017,0.051 -0.034,0.102 -0.051,0.153 h -0.025 v 0.051 h -0.025 v 0.05 H -6.252 V 2.77 H -6.277 C -6.344,3.032 -6.57,3.264 -6.633,3.558 h -0.026 c 0.007,0.037 0.022,0.043 0.026,0.102 0.212,0.15 0.467,0.092 0.711,0.101 V 3.736 H -5.82 V 3.711 C -5.71,3.685 -5.6,3.66 -5.49,3.634 V 3.609 h 0.051 V 3.583 C -5.375,3.554 -5.282,3.56 -5.261,3.482 H -5.21 C -5.201,3.465 -5.193,3.448 -5.184,3.431 -5.076,3.398 -4.92,3.227 -4.88,3.126 -4.854,3.109 -4.829,3.092 -4.803,3.075 V 3.024 C -4.778,3.007 -4.752,2.99 -4.727,2.973 v -0.05 c 0.052,-0.014 0.064,-0.055 0.076,-0.102 h 0.026 V 2.77 C -4.499,2.674 -4.463,2.467 -4.32,2.363 v -0.05 c 0.257,-0.073 0.505,0.191 0.355,0.432 H -3.99 v 0.051 h -0.025 c -0.009,0.059 -0.017,0.118 -0.026,0.177 h -0.025 v 0.102 h -0.026 v 0.076 h -0.025 c -0.009,0.051 -0.017,0.102 -0.025,0.153 h -0.026 v 0.051 h -0.025 c -0.03,0.063 -0.024,0.156 -0.102,0.178 v 0.05 C -4.32,3.6 -4.346,3.617 -4.371,3.634 V 3.685 C -4.397,3.702 -4.422,3.719 -4.448,3.736 -4.951,4.68 -5.957,4.777 -6.913,4.422 V 4.397 H -6.989 V 4.371 H -7.065 V 4.346 H -7.141 V 4.32 C -7.201,4.312 -7.26,4.304 -7.319,4.295 V 4.27 C -7.387,4.261 -7.455,4.253 -7.523,4.244 V 4.219 H -7.675 V 4.193 H -7.878 V 4.168 C -7.955,4.176 -8.031,4.185 -8.107,4.193 -8.117,4.304 -8.192,4.476 -8.158,4.6 h 0.025 c -0.005,0.255 0.009,0.508 0.026,0.762 H -8.133 V 5.54 H -8.158 C -8.175,5.973 -8.585,6.054 -8.997,6.023 V 5.998 C -9.079,5.955 -9.215,5.966 -9.251,5.871 H -9.302 C -9.326,5.769 -9.491,5.75 -9.48,5.642 -9.496,5.633 -9.513,5.625 -9.53,5.617 V 5.566 H -9.556 C -9.564,5.532 -9.573,5.498 -9.581,5.464 H -9.607 V 5.337 H -9.632 C -9.615,5.218 -9.598,5.1 -9.581,4.981 h 0.025 V 4.93 H -9.53 V 4.88 C -9.513,4.871 -9.496,4.863 -9.48,4.854 V 4.803 c 0.093,-0.02 0.105,-0.167 0.204,-0.152 V 4.625 h 0.051 V 4.6 c 0.266,-0.004 0.354,-0.139 0.33,-0.432 -0.358,-0.089 -0.748,-0.184 -0.991,-0.407 -0.175,-0.05 -0.282,-0.28 -0.458,-0.33 -0.017,-0.025 -0.033,-0.051 -0.05,-0.076 h -0.051 c -0.017,-0.026 -0.034,-0.051 -0.051,-0.077 h -0.051 C -10.56,3.227 -10.602,3.215 -10.649,3.202 V 3.177 c -0.094,-0.032 -0.197,-0.075 -0.254,-0.153 h -0.051 c -0.017,-0.088 -0.135,-0.038 -0.152,-0.127 h -0.051 V 2.872 C -11.204,2.859 -11.245,2.847 -11.259,2.796 -11.353,2.809 -11.36,2.668 -11.462,2.669 V 2.618 c -0.051,0.006 -0.037,-0.053 -0.076,-0.077 0.008,-0.059 0.017,-0.118 0.025,-0.178 h 0.026 c 0.064,-0.209 0.496,-0.15 0.686,-0.076 v 0.026 c 0.051,0.008 0.102,0.017 0.152,0.025 v 0.025 h 0.051 v 0.026 c 0.051,0.008 0.102,0.017 0.153,0.025 V 2.44 h 0.051 v 0.025 h 0.076 v 0.026 h 0.051 v 0.025 h 0.076 v 0.025 c 0.034,0.009 0.068,0.017 0.102,0.026 v 0.025 h 0.05 v 0.026 h 0.077 c 0.024,0.103 0.179,0.049 0.203,0.152 h 0.051 c 0.017,0.026 0.034,0.051 0.051,0.076 0.133,0.013 0.197,0.213 0.33,0.229 0.013,0.052 0.055,0.064 0.102,0.076 v 0.026 c 0.125,0.052 0.262,0.057 0.406,0.051 V 3.202 c 0.178,-0.006 0.391,-0.219 0.458,-0.356 0.025,-0.016 0.051,-0.033 0.076,-0.05 0.03,-0.152 0.26,-0.229 0.28,-0.382 0.088,-0.017 0.038,-0.135 0.127,-0.152 V 2.211 h 0.025 V 2.135 h 0.025 V 2.084 h 0.026 c 0.008,-0.051 0.017,-0.102 0.025,-0.153 h 0.026 V 1.804 h 0.025 C -7.671,1.603 -7.794,1.454 -7.777,1.296 H -7.802 V 1.245 H -7.828 V 1.169 C -7.916,1.152 -7.866,1.034 -7.955,1.017 V 0.966 C -7.98,0.949 -8.005,0.932 -8.031,0.915 -8.242,0.572 -8.712,0.295 -8.895,-0.051 -8.92,-0.068 -8.946,-0.085 -8.971,-0.102 V -0.153 H -8.997 C -9.005,-0.186 -9.014,-0.22 -9.022,-0.254 H -9.047 V -0.33 h -0.026 c -0.094,-0.492 0.021,-1.091 0,-1.627 H -9.098 V -2.059 H -9.124 V -2.135 H -9.149 V -2.211 H -9.175 V -2.287 H -9.2 v -0.077 h -0.025 c 0.009,-0.099 -0.087,-0.144 -0.102,-0.254 -0.059,0.034 -0.119,0.068 -0.178,0.102 -0.188,-0.335 -0.206,-0.774 -0.127,-1.22 h 0.025 v -0.102 h 0.026 v -0.076 h 0.025 V -3.99 h 0.026 c -0.019,-0.116 0.063,-0.122 0.076,-0.254 -0.136,0.008 -0.271,0.017 -0.407,0.025 0.009,0.153 0.017,0.305 0.026,0.458 h -0.026 v 0.203 h -0.025 v 0.102 h -0.026 v 0.101 h -0.025 v 0.077 h -0.025 v 0.076 h -0.026 v 0.076 h -0.025 v 0.051 h -0.026 c -0.048,0.143 -0.095,0.295 -0.203,0.381 v 0.051 c -0.133,0.074 -0.16,0.262 -0.305,0.33 v 0.026 c 0.102,0.017 0.203,0.034 0.305,0.051 v 0.025 c 0.051,0.017 0.102,0.034 0.153,0.051 v 0.025 c 0.09,-0.024 0.087,0.126 0.177,0.102 v 0.025 c 0.017,0.009 0.034,0.017 0.051,0.026 -0.024,0.091 0.127,0.087 0.102,0.178 h 0.025 c 0.017,0.05 0.034,0.101 0.051,0.152 h 0.026 c 0.008,0.051 0.017,0.102 0.025,0.153 h 0.025 v 0.457 h -0.025 v 0.076 h -0.025 v 0.077 h -0.026 c -0.029,0.063 -0.024,0.156 -0.102,0.177 0.003,0.114 -0.166,0.145 -0.203,0.255 h -0.051 c -0.008,0.017 -0.017,0.033 -0.025,0.05 h -0.051 c -0.008,0.017 -0.017,0.034 -0.025,0.051 h -0.077 v 0.026 h -0.05 v 0.025 c -0.068,0.009 -0.136,0.017 -0.204,0.026 v 0.025 c -0.213,0.062 -0.406,-0.084 -0.559,-0.076 v -0.026 c -0.053,-0.014 -0.112,-0.013 -0.127,-0.076 h -0.051 c -0.042,-0.119 -0.226,-0.157 -0.228,-0.28 -0.078,-0.021 -0.073,-0.114 -0.102,-0.177 h -0.026 l -0.025,-0.153 h -0.025 c -0.061,-0.436 0.125,-1.013 0.584,-1.144 -0.095,-0.256 -0.057,-0.614 -0.025,-0.864 -0.127,0.017 -0.254,0.034 -0.381,0.051 -0.023,0.653 -0.475,1.284 -0.89,1.55 -0.091,0.116 -0.254,0.158 -0.407,0.204 -0.008,-0.043 -0.016,-0.085 -0.025,-0.127 h -0.025 v -0.153 h -0.026 c 0.009,-0.135 0.017,-0.271 0.026,-0.406 -0.131,0.009 -0.19,0.09 -0.305,0.076 v 0.025 c -0.068,0.009 -0.136,0.017 -0.204,0.026 v 0.025 c -0.128,0.025 -0.282,0.002 -0.381,0.051 0.036,0.11 0.124,0.176 0.153,0.305 0.05,0.008 0.101,0.017 0.152,0.025 0.044,0.09 -0.063,0.14 -0.051,0.254 h 0.026 c 0.017,0.094 0.034,0.187 0.05,0.28 h 0.026 c 0.092,0.466 0.076,1.073 -0.051,1.499 h -0.025 c -0.031,0.123 -0.082,0.214 -0.127,0.305 h -0.051 c -0.03,-0.122 -0.255,-0.169 -0.254,-0.305 -0.052,-0.013 -0.064,-0.054 -0.077,-0.101 h -0.025 C -13.936,0.5 -13.944,0.466 -13.952,0.432 h -0.026 c -0.025,-0.076 -0.051,-0.153 -0.076,-0.229 h -0.026 v -0.05 h -0.025 c -0.042,-0.17 -0.085,-0.339 -0.127,-0.509 -0.086,0.02 -0.117,0.059 -0.203,0.077 -0.004,0.338 -0.005,0.619 -0.102,0.864 h -0.025 v 0.076 h -0.026 v 0.051 h -0.025 c -0.007,0.135 -0.134,0.247 -0.178,0.381 0.556,0.381 0.846,1.236 0.788,1.931 h -0.026 c 0.022,0.136 -0.052,0.217 -0.076,0.356 -0.732,-0.245 -1.038,-0.997 -1.118,-1.804 -0.031,0.034 -0.105,0.051 -0.102,0.101 h -0.051 c -0.008,0.017 -0.017,0.034 -0.025,0.051 -0.129,0.003 -0.193,0.127 -0.356,0.127 -0.008,-0.059 -0.017,-0.118 -0.025,-0.178 h -0.026 C -15.845,1.216 -15.754,0.7 -15.477,0.356 V 0.305 c 0.017,-0.009 0.034,-0.017 0.051,-0.026 v -0.05 c 0.098,-0.033 0.091,-0.156 0.177,-0.204 V 0 c -0.363,0.07 -0.727,0.05 -1.067,-0.076 -0.006,-0.173 0.124,-0.222 0.127,-0.356 0.026,-0.017 0.051,-0.034 0.076,-0.051 -0.023,-0.1 0.151,-0.103 0.127,-0.203 0.111,-0.045 0.182,-0.208 0.305,-0.229 0.017,-0.025 0.034,-0.051 0.051,-0.076 h 0.051 c 0.07,-0.089 0.189,-0.137 0.305,-0.178 v -0.026 h 0.051 V -1.22 c 0.051,-0.017 0.101,-0.034 0.152,-0.051 v -0.025 h 0.077 v -0.026 h 0.05 v -0.025 c 0.218,-0.02 0.453,-0.149 0.712,-0.152 0.028,-0.072 0.049,-0.159 0.051,-0.255 -0.24,0.007 -0.405,-0.121 -0.585,-0.152 v -0.025 c -0.054,0.009 -0.056,-0.014 -0.101,-0.051 0.056,-0.189 0.257,-0.427 0.432,-0.509 0.017,-0.025 0.034,-0.05 0.05,-0.076 h 0.051 c 0.014,-0.051 0.055,-0.064 0.102,-0.076 v -0.026 c 0.127,-0.035 0.211,-0.129 0.356,-0.152 v -0.025 h 0.051 v -0.026 h 0.076 v -0.025 h 0.051 v -0.026 h 0.101 v -0.025 h 0.077 v -0.025 h 0.101 v -0.026 h 0.102 v -0.025 h 0.152 V -3.05 h 0.178 v -0.025 c 0.156,-0.045 0.471,0.02 0.61,0.025 v -0.025 c -0.059,-0.009 -0.118,-0.017 -0.178,-0.026 v -0.025 h -0.101 v -0.025 h -0.051 v -0.026 h -0.076 v -0.025 c -0.051,-0.017 -0.102,-0.034 -0.153,-0.051 v -0.025 h -0.051 v -0.026 c -0.053,-0.014 -0.112,-0.013 -0.127,-0.076 h -0.051 c -0.017,-0.026 -0.033,-0.051 -0.05,-0.076 h -0.051 c -0.01,-0.068 -0.108,-0.101 -0.153,-0.153 0.025,-0.14 0.158,-0.115 0.204,-0.229 h 0.05 c 0.015,-0.062 0.074,-0.062 0.127,-0.076 v -0.025 h 0.051 v -0.026 h 0.051 V -3.99 h 0.051 v -0.025 c 0.042,-0.009 0.085,-0.017 0.127,-0.026 v -0.025 h 0.102 v -0.026 c 0.067,-0.008 0.135,-0.017 0.203,-0.025 0.008,-0.017 0.017,-0.034 0.025,-0.051 h 0.077 v -0.025 h 0.254 v -0.026 h 0.381 v 0.026 h 0.254 v 0.025 h 0.076 v 0.025 h 0.051 v 0.026 c 0.233,0.003 0.453,0.108 0.661,0.203 0.057,-0.106 0.177,-0.271 0.28,-0.33 -0.055,-0.053 -0.123,-0.024 -0.204,-0.051 V -4.32 h -0.101 v -0.026 h -0.077 v -0.025 h -0.076 v -0.026 h -0.076 v -0.025 h -0.051 v -0.026 h -0.051 v -0.025 h -0.051 v -0.025 c -0.05,-0.017 -0.101,-0.034 -0.152,-0.051 v -0.026 h -0.102 c -0.008,-0.016 -0.017,-0.033 -0.025,-0.05 h -0.051 c -0.061,-0.12 -0.248,-0.137 -0.203,-0.305 0.069,10e-4 0.069,-0.129 0.152,-0.102 0.03,-0.068 0.081,-0.092 0.153,-0.102 v -0.025 c 0.046,0.009 0.039,0.031 0.101,0 v -0.025 c 0.393,-0.172 0.974,-0.268 1.5,-0.229 v 0.025 c 0.084,0.009 0.169,0.017 0.254,0.026 v 0.025 c 0.059,0.008 0.119,0.017 0.178,0.025 v 0.026 c 0.051,0.008 0.101,0.017 0.152,0.025 v 0.026 c 0.034,0.008 0.068,0.017 0.102,0.025 v 0.026 c 0.136,0.024 0.204,0.134 0.33,0.177 0.006,0.06 0.066,0.079 0.127,0.102 0.054,-0.064 0.128,-0.083 0.204,-0.127 v -0.025 h 0.051 c 0.008,-0.017 0.016,-0.034 0.025,-0.051 h 0.051 c 0.008,-0.017 0.017,-0.034 0.025,-0.051 h 0.051 c 0.029,-0.055 0.064,-0.092 0.127,-0.102 v -0.051 c -0.138,-0.037 -0.195,-0.164 -0.305,-0.228 -0.036,-0.162 0.1,-0.264 0.229,-0.331 0.052,0.065 0.128,0.083 0.203,0.127 v 0.026 h 0.051 c 0.008,0.017 0.017,0.034 0.025,0.051 h 0.051 c 0.017,0.061 0.077,0.074 0.127,0.101 v 0.026 c 0.047,-0.013 0.089,-0.025 0.102,-0.077 h 0.051 c 0.008,-0.016 0.017,-0.033 0.025,-0.05 h 0.051 c 0.009,-0.017 0.017,-0.034 0.025,-0.051 h 0.051 c 0.041,-0.105 0.163,-0.107 0.254,-0.153 0.307,0.228 0.122,0.423 -0.127,0.585 h -0.025 c 0.057,0.083 0.193,0.074 0.229,0.178 h 0.05 c 0.056,0.109 0.209,0.133 0.305,0.203 0.042,-0.046 0.11,-0.06 0.128,-0.127 h 0.05 c 0.009,-0.017 0.017,-0.034 0.026,-0.051 0.412,-0.237 1.028,-0.387 1.626,-0.33 v 0.025 h 0.178 v 0.026 h 0.102 v 0.025 h 0.101 v 0.025 h 0.102 v 0.026 h 0.076 v 0.025 c 0.068,0.009 0.136,0.017 0.204,0.026 v 0.025 c 0.053,0.014 0.112,0.013 0.127,0.076 h 0.051 c 0.008,0.017 0.017,0.034 0.025,0.051 h 0.051 c 0.028,0.078 0.117,0.103 0.178,0.153 v 0.101 c -0.096,0.012 -0.12,0.196 -0.229,0.178 -0.017,0.026 -0.034,0.051 -0.051,0.076 h -0.051 c -0.008,0.017 -0.016,0.034 -0.025,0.051 h -0.051 v 0.026 c -0.034,0.008 -0.068,0.017 -0.101,0.025 v 0.025 H -4.27 v 0.026 h -0.076 v 0.025 h -0.051 v 0.026 c -0.152,0.034 -0.305,0.067 -0.457,0.101 v 0.051 c 0.123,0.058 0.167,0.211 0.28,0.28 v 0.025 c 0.025,-0.008 0.05,-0.017 0.076,-0.025 v -0.026 h 0.05 V -3.99 h 0.077 v -0.025 h 0.076 v -0.026 h 0.076 v -0.025 h 0.077 v -0.026 h 0.101 v -0.025 h 0.127 c 0.009,-0.017 0.017,-0.034 0.026,-0.051 h 0.076 v -0.025 h 0.254 v -0.026 h 0.381 v 0.026 h 0.28 v 0.025 h 0.076 c 0.008,0.017 0.017,0.034 0.025,0.051 0.068,0.008 0.136,0.017 0.204,0.025 v 0.026 c 0.076,0.017 0.152,0.034 0.228,0.051 v 0.025 c 0.051,0.017 0.102,0.034 0.153,0.051 v 0.025 c 0.053,0.014 0.113,0.014 0.127,0.076 0.091,-0.024 0.087,0.127 0.178,0.102 0.17,0.155 -0.091,0.201 -0.152,0.33 h -0.051 c -0.009,0.017 -0.017,0.034 -0.026,0.051 h -0.051 c -0.021,0.078 -0.114,0.073 -0.178,0.102 v 0.025 h -0.05 v 0.026 h -0.077 v 0.025 h -0.05 v 0.026 c -0.126,-0.015 -0.181,0.079 -0.331,0.076 0.905,-0.034 2.081,0.24 2.491,1.093 -0.045,0.037 -0.048,0.06 -0.102,0.051 v 0.025 h -0.051 v 0.025 H -0.61 v 0.026 h -0.051 v 0.025 c -0.086,0.038 -0.319,0.077 -0.432,0.076 0.017,0.085 0.034,0.17 0.051,0.255 0.339,0.006 0.576,0.161 0.864,0.203 v 0.025 c 0.051,0.017 0.102,0.034 0.153,0.051 v 0.025 h 0.05 v 0.026 c 0.051,0.017 0.102,0.034 0.153,0.051 v 0.025 c 0.047,0.013 0.088,0.025 0.102,0.076 H 0.33 C 0.339,-1 0.347,-0.983 0.356,-0.966 h 0.051 c 0.017,0.026 0.034,0.051 0.05,0.077 0.132,0.057 0.32,0.254 0.382,0.381 0.136,0.098 0.178,0.266 0.228,0.432 C 0.729,0.049 0.36,0.073 0,0 M -1.093,3.965 V 3.914 h 0.026 V 3.838 h 0.025 C -1.033,3.804 -1.025,3.77 -1.017,3.736 h 0.026 C -0.967,3.588 -0.839,3.515 -0.788,3.38 h 0.026 c 0.194,-0.276 0.479,-0.471 0.66,-0.788 V 2.567 c 0.128,0.025 0.151,0.134 0.255,0.178 v 0.051 c 0.025,0.017 0.05,0.034 0.076,0.05 V 2.897 C 0.567,3.311 0.694,4.113 0.534,4.752 H 0.508 V 4.803 H 0.483 C 0.492,4.94 0.362,5.041 0.305,5.159 0.196,5.146 0.069,5.009 0.025,4.93 H 0 c 0.019,0.388 -0.079,0.6 -0.127,0.89 H -0.152 V 5.871 H -0.178 C -0.226,6.014 -0.273,6.166 -0.381,6.252 -0.357,6.343 -0.507,6.339 -0.483,6.43 H -0.508 C -0.525,6.455 -0.542,6.481 -0.559,6.506 -0.65,6.481 -0.646,6.632 -0.737,6.608 V 6.633 C -0.762,6.642 -0.788,6.65 -0.813,6.659 -0.833,6.56 -0.927,6.525 -0.915,6.43 H -0.94 V 6.354 H -0.966 V 6.277 H -0.991 C -1.028,6.175 -1.085,5.617 -1.042,5.464 h 0.025 V 5.312 h 0.026 C -0.974,5.202 -0.974,5.137 -0.94,5.057 -1.017,5.083 -1.093,5.108 -1.169,5.134 -1.325,4.765 -1.199,4.333 -1.118,3.965 Z M -15.681,3.253 c 0.017,-0.051 0.034,-0.102 0.051,-0.152 h 0.026 V 3.05 h 0.025 c 0.014,-0.054 0.013,-0.113 0.076,-0.127 V 2.872 c 0.131,-0.083 0.18,-0.275 0.356,-0.305 0.067,0.12 0.174,0.226 0.203,0.381 0.187,0.047 0.254,0.248 0.407,0.33 v 0.051 c 0.126,0.099 0.2,0.236 0.254,0.382 h 0.026 c 0.017,0.05 0.033,0.101 0.05,0.152 h 0.026 v 0.076 h 0.025 V 3.99 h 0.026 v 0.076 h 0.025 v 0.077 h 0.025 v 0.101 h 0.026 c 0.028,0.268 0.107,0.604 -0.026,0.89 -0.087,0 -0.169,-0.066 -0.228,-0.077 0.023,0.176 0.098,0.312 0.076,0.483 h 0.025 c 0.063,0.24 -0.064,0.518 -0.05,0.712 h -0.026 v 0.076 h -0.025 c -0.046,0.117 -0.056,0.242 -0.153,0.305 V 6.659 C -14.65,6.575 -14.757,6.395 -14.893,6.277 V 6.226 C -14.91,6.218 -14.927,6.21 -14.944,6.201 V 6.15 h -0.025 V 6.1 h -0.025 V 6.049 H -15.02 V 5.998 h -0.025 V 5.947 h -0.026 c -0.008,-0.034 -0.017,-0.068 -0.025,-0.102 h -0.026 C -15.13,5.794 -15.138,5.744 -15.147,5.693 h -0.025 V 5.591 h -0.026 V 5.49 h -0.025 V 5.362 h -0.026 V 5.159 h -0.025 V 4.93 h -0.025 c 0.022,0.101 -0.147,0.117 -0.153,0.204 -0.054,-0.008 -0.046,0.012 -0.102,0.025 -0.016,-0.025 -0.033,-0.051 -0.05,-0.076 H -15.63 V 5.032 c -0.377,-0.461 -0.213,-1.304 -0.076,-1.779 z"
         style="fill:#fecb04;fill-opacity:1;fill-rule:evenodd;stroke:none"
         transform="matrix(0.35277776,0,0,-0.35277776,179.11078,139.90301)"
         clip-path="url(#clipPath5359)" />
      <path
         id="path5360"
         d="m 0,0 c 0,-1.792 -1.698,-3.032 -3.313,-3.032 h -3.469 c -1.775,0 -2.769,-1.039 -3.286,-2.184 -0.517,1.145 -1.511,2.184 -3.287,2.184 h -3.468 c -1.616,0 -3.313,1.24 -3.313,3.032 V 22.617 H 0 V 0"
         style="fill:none;stroke:#fecb04;stroke-width:0.49;stroke-linecap:butt;stroke-linejoin:round;stroke-miterlimit:10;stroke-dasharray:none;stroke-opacity:1"
         transform="matrix(0.35277776,0,0,-0.35277776,179.9537,142.07192)"
         clip-path="url(#clipPath5361)" />
      <path
         id="path5362"
         d="m 0,0 h -20.136 l -1.887,2.014 H 1.868 Z"
         style="fill:#fecb04;fill-opacity:1;fill-rule:nonzero;stroke:none"
         transform="matrix(0.35277776,0,0,-0.35277776,179.9537,132.73739)"
         clip-path="url(#clipPath5363)" />
      <path
         id="path5364"
         d="m 0,0 c 0,-2.638 -2.01,-3.973 -4.212,-3.973 h -4.915 c -1.04,0 -3.218,-0.199 -4.708,-2.641 -1.49,2.442 -3.667,2.641 -4.707,2.641 h -4.915 c -2.203,0 -4.213,1.335 -4.213,3.973 V 25.822 H 0 Z"
         style="fill:none;stroke:#fecb04;stroke-width:0.492;stroke-linecap:butt;stroke-linejoin:round;stroke-miterlimit:10;stroke-dasharray:none;stroke-opacity:1"
         transform="matrix(0.35277776,0,0,-0.35277776,181.29803,143.20229)"
         clip-path="url(#clipPath5365)" />
      <path
         id="path5366"
         d="M 0,0 H 0.454 C 0.751,0 0.865,0.113 0.865,0.322 0.865,0.526 0.732,0.64 0.467,0.64 H 0 Z m 0,-0.431 v -1.003 h -0.529 v 2.505 h 1.101 c 0.546,0 0.84,-0.301 0.84,-0.687 0,-0.337 -0.183,-0.519 -0.364,-0.593 0.124,-0.046 0.311,-0.175 0.311,-0.624 v -0.123 c 0,-0.169 0.002,-0.361 0.036,-0.478 H 0.882 c -0.044,0.109 -0.053,0.297 -0.053,0.563 v 0.036 c 0,0.274 -0.069,0.404 -0.473,0.404 z"
         style="fill:#fecb04;fill-opacity:1;fill-rule:nonzero;stroke:none"
         transform="matrix(0.35277776,0,0,-0.35277776,174.02869,133.35542)"
         clip-path="url(#clipPath5367)" />
      <path
         id="path5368"
         d="m 64.655,145.062 h 0.559 v -0.638 h -0.559 z"
         style="fill:#fecb04;fill-opacity:1;fill-rule:nonzero;stroke:none"
         transform="matrix(0.35277776,0,0,-0.35277776,152.43104,184.81074)"
         clip-path="url(#clipPath5369)" />
      <path
         id="path5370"
         d="m 0,0 c -0.101,-0.467 -0.453,-0.808 -1.08,-0.808 -0.795,0 -1.17,0.562 -1.17,1.275 0,0.687 0.387,1.302 1.196,1.302 0.667,0 0.99,-0.391 1.051,-0.81 h -0.541 c -0.053,0.193 -0.187,0.386 -0.528,0.386 -0.447,0 -0.619,-0.402 -0.619,-0.858 0,-0.424 0.15,-0.87 0.634,-0.87 0.353,0 0.465,0.237 0.512,0.383 z"
         style="fill:#fecb04;fill-opacity:1;fill-rule:nonzero;stroke:none"
         transform="matrix(0.35277776,0,0,-0.35277776,176.79359,133.58882)"
         clip-path="url(#clipPath5371)" />
      <path
         id="path5372"
         d="m 71.004,145.062 h 0.559 v -0.638 h -0.559 z"
         style="fill:#fecb04;fill-opacity:1;fill-rule:nonzero;stroke:none"
         transform="matrix(0.35277776,0,0,-0.35277776,152.43104,184.81074)"
         clip-path="url(#clipPath5373)" />
      <path
         id="path5374"
         d="M 0,0 C -0.178,0.529 -0.291,0.867 -0.352,1.092 H -0.355 C -0.417,0.845 -0.542,0.452 -0.685,0 Z m -0.799,-0.444 -0.195,-0.579 h -0.533 l 0.851,2.506 H 0.005 L 0.892,-1.023 H 0.323 l -0.206,0.579 z"
         style="fill:#fecb04;fill-opacity:1;fill-rule:nonzero;stroke:none"
         transform="matrix(0.35277776,0,0,-0.35277776,178.75627,133.50048)"
         clip-path="url(#clipPath5375)" />
      <path
         id="path5376"
         d="m 0,0 v 0.33 c 0,0.102 -0.009,0.182 -0.028,0.24 -0.019,0.058 -0.046,0.105 -0.081,0.139 -0.048,0.049 -0.114,0.087 -0.195,0.114 -0.082,0.027 -0.182,0.04 -0.298,0.04 -0.162,0 -0.287,-0.026 -0.374,-0.08 C -1.062,0.731 -1.121,0.666 -1.15,0.59 -1.171,0.535 -1.182,0.447 -1.182,0.325 V 0 Z m 0.183,-0.205 h -1.547 v 0.533 c 0,0.121 0.007,0.212 0.022,0.276 0.02,0.088 0.057,0.164 0.111,0.227 0.069,0.081 0.157,0.142 0.264,0.183 0.107,0.04 0.23,0.06 0.368,0.06 0.117,0 0.221,-0.013 0.312,-0.041 C -0.196,1.006 -0.121,0.97 -0.062,0.928 -0.002,0.885 0.044,0.838 0.079,0.787 0.113,0.736 0.138,0.674 0.156,0.602 0.174,0.53 0.183,0.447 0.183,0.354 Z"
         style="fill:#fecb04;fill-opacity:1;fill-rule:nonzero;stroke:none"
         transform="matrix(0.35277776,0,0,-0.35277776,180.81678,142.81364)"
         clip-path="url(#clipPath5377)" />
      <path
         id="path5378"
         d="m 0,0 h -1.547 v 1.119 h 0.183 V 0.205 h 0.473 v 0.856 h 0.182 V 0.205 h 0.526 V 1.154 H 0 Z"
         style="fill:#fecb04;fill-opacity:1;fill-rule:nonzero;stroke:none"
         transform="matrix(0.35277776,0,0,-0.35277776,180.88116,142.21946)"
         clip-path="url(#clipPath5379)" />
      <path
         id="path5380"
         d="m 0,0 h -1.547 v 1.044 h 0.183 V 0.205 h 0.479 v 0.726 h 0.182 V 0.205 H 0 Z"
         style="fill:#fecb04;fill-opacity:1;fill-rule:nonzero;stroke:none"
         transform="matrix(0.35277776,0,0,-0.35277776,180.88116,141.26819)"
         clip-path="url(#clipPath5381)" />
      <path
         id="path5382"
         d="m 0,0 c 0.186,0 0.333,0.05 0.441,0.15 0.107,0.101 0.16,0.226 0.16,0.377 0,0.155 -0.054,0.281 -0.162,0.381 -0.108,0.099 -0.262,0.149 -0.461,0.149 -0.126,0 -0.236,-0.021 -0.33,-0.064 C -0.446,0.951 -0.519,0.889 -0.57,0.807 -0.622,0.725 -0.648,0.633 -0.648,0.531 c 0,-0.145 0.05,-0.27 0.149,-0.374 C -0.399,0.052 -0.233,0 0,0 m -0.003,-0.211 c -0.257,0 -0.458,0.069 -0.603,0.207 -0.145,0.138 -0.218,0.316 -0.218,0.534 0,0.142 0.034,0.271 0.102,0.386 0.069,0.114 0.164,0.202 0.286,0.262 0.122,0.06 0.26,0.09 0.415,0.09 C 0.136,1.268 0.276,1.237 0.4,1.173 0.524,1.11 0.617,1.02 0.681,0.904 0.745,0.788 0.777,0.663 0.777,0.529 0.777,0.383 0.741,0.253 0.671,0.138 0.601,0.023 0.505,-0.063 0.383,-0.123 0.261,-0.182 0.133,-0.211 -0.003,-0.211"
         style="fill:#fecb04;fill-opacity:1;fill-rule:nonzero;stroke:none"
         transform="matrix(0.35277776,0,0,-0.35277776,180.6165,140.6394)"
         clip-path="url(#clipPath5383)" />
      <path
         id="path5384"
         d="m 0,0 c 0.186,0 0.333,0.05 0.441,0.15 0.107,0.101 0.16,0.226 0.16,0.377 0,0.154 -0.054,0.281 -0.162,0.381 -0.108,0.099 -0.262,0.149 -0.461,0.149 -0.126,0 -0.236,-0.021 -0.33,-0.064 C -0.446,0.951 -0.519,0.889 -0.57,0.807 -0.622,0.725 -0.648,0.633 -0.648,0.531 c 0,-0.145 0.05,-0.27 0.149,-0.374 C -0.399,0.052 -0.233,0 0,0 m -0.003,-0.211 c -0.257,0 -0.458,0.069 -0.603,0.207 -0.145,0.138 -0.218,0.315 -0.218,0.534 0,0.142 0.034,0.271 0.102,0.386 0.069,0.114 0.164,0.202 0.286,0.262 0.122,0.06 0.26,0.09 0.415,0.09 C 0.136,1.268 0.276,1.236 0.4,1.173 0.524,1.11 0.617,1.02 0.681,0.904 0.745,0.788 0.777,0.663 0.777,0.528 0.777,0.383 0.741,0.253 0.671,0.138 0.601,0.023 0.505,-0.063 0.383,-0.122 0.261,-0.181 0.133,-0.211 -0.003,-0.211"
         style="fill:#fecb04;fill-opacity:1;fill-rule:nonzero;stroke:none"
         transform="matrix(0.35277776,0,0,-0.35277776,180.6165,139.93208)"
         clip-path="url(#clipPath5385)" />
      <path
         id="path5386"
         d="m 0,0 h -1.364 v -0.51 h -0.183 v 1.226 h 0.183 V 0.205 H 0 Z"
         style="fill:#fecb04;fill-opacity:1;fill-rule:nonzero;stroke:none"
         transform="matrix(0.35277776,0,0,-0.35277776,180.88116,139.13844)"
         clip-path="url(#clipPath5387)" />
      <path
         id="path5388"
         d="M 0,0 V 0.385 C 0,0.451 -0.002,0.498 -0.008,0.525 -0.016,0.572 -0.03,0.611 -0.05,0.643 -0.069,0.674 -0.098,0.7 -0.136,0.721 c -0.037,0.02 -0.081,0.03 -0.13,0.03 -0.058,0 -0.108,-0.014 -0.15,-0.044 C -0.459,0.678 -0.489,0.636 -0.506,0.584 -0.523,0.532 -0.532,0.456 -0.532,0.358 V 0 Z m -0.714,0 v 0.335 c 0,0.09 -0.006,0.155 -0.018,0.195 -0.016,0.052 -0.042,0.091 -0.077,0.117 -0.036,0.027 -0.081,0.04 -0.135,0.04 C -0.996,0.687 -1.041,0.675 -1.08,0.65 -1.119,0.625 -1.146,0.59 -1.16,0.545 -1.175,0.499 -1.182,0.42 -1.182,0.309 V 0 Z m 0.897,-0.205 h -1.547 v 0.581 c 0,0.118 0.015,0.213 0.047,0.284 0.031,0.071 0.079,0.127 0.144,0.168 0.065,0.04 0.133,0.061 0.204,0.061 0.067,0 0.129,-0.018 0.187,-0.054 0.058,-0.036 0.106,-0.09 0.142,-0.163 0.027,0.094 0.074,0.166 0.14,0.216 0.066,0.05 0.144,0.075 0.234,0.075 0.072,0 0.14,-0.015 0.202,-0.046 C -0.002,0.887 0.046,0.849 0.08,0.804 0.114,0.759 0.139,0.703 0.157,0.635 0.174,0.567 0.183,0.484 0.183,0.385 Z"
         style="fill:#fecb04;fill-opacity:1;fill-rule:nonzero;stroke:none"
         transform="matrix(0.35277776,0,0,-0.35277776,180.81678,138.62804)"
         clip-path="url(#clipPath5389)" />
      <path
         id="path5390"
         d="M 0,0 V 0.525 L -0.428,0.363 C -0.559,0.314 -0.665,0.277 -0.749,0.253 -0.65,0.234 -0.551,0.206 -0.454,0.17 Z m 0.635,-0.446 -1.547,0.594 v 0.22 L 0.635,1.001 V 0.768 L 0.167,0.588 v -0.647 l 0.468,-0.17 z"
         style="fill:#fecb04;fill-opacity:1;fill-rule:nonzero;stroke:none"
         transform="matrix(0.35277776,0,0,-0.35277776,180.65707,137.97692)"
         clip-path="url(#clipPath5391)" />
      <path
         id="path5392"
         d="m 0,0 h -1.547 v 0.205 h 1.364 V 0.967 H 0 Z"
         style="fill:#fecb04;fill-opacity:1;fill-rule:nonzero;stroke:none"
         transform="matrix(0.35277776,0,0,-0.35277776,180.88116,137.45459)"
         clip-path="url(#clipPath5393)" />
      <path
         id="path5394"
         d="m 0,0 h -1.547 v 0.205 h 1.364 V 0.967 H 0 Z"
         style="fill:#fecb04;fill-opacity:1;fill-rule:nonzero;stroke:none"
         transform="matrix(0.35277776,0,0,-0.35277776,180.88116,136.91622)"
         clip-path="url(#clipPath5395)" />
      <path
         id="path5396"
         d="M 0,0 H 1.547 V -1.044 H 1.364 v 0.839 H 0.885 V -0.931 H 0.703 v 0.726 H 0 Z"
         style="fill:#fecb04;fill-opacity:1;fill-rule:nonzero;stroke:none"
         transform="matrix(0.35277776,0,0,-0.35277776,171.87453,136.55811)"
         clip-path="url(#clipPath5397)" />
      <path
         id="path5398"
         d="M 0,0 H 1.547 V -1.118 H 1.364 v 0.913 H 0.891 V -1.061 H 0.709 v 0.856 H 0.183 V -1.154 H 0 Z"
         style="fill:#fecb04;fill-opacity:1;fill-rule:nonzero;stroke:none"
         transform="matrix(0.35277776,0,0,-0.35277776,171.87453,137.14962)"
         clip-path="url(#clipPath5399)" />
      <path
         id="path5400"
         d="m 0,0 v -0.33 c 0,-0.102 0.009,-0.182 0.028,-0.24 0.019,-0.058 0.046,-0.104 0.081,-0.139 0.048,-0.048 0.113,-0.086 0.195,-0.113 0.082,-0.028 0.182,-0.041 0.298,-0.041 0.162,0 0.287,0.027 0.373,0.08 0.087,0.053 0.146,0.117 0.175,0.193 0.021,0.055 0.032,0.143 0.032,0.265 V 0 Z M -0.183,0.205 H 1.364 V -0.328 C 1.364,-0.448 1.357,-0.54 1.342,-0.604 1.322,-0.692 1.285,-0.768 1.231,-0.83 1.162,-0.912 1.074,-0.973 0.967,-1.013 0.86,-1.054 0.737,-1.074 0.599,-1.074 c -0.117,0 -0.221,0.014 -0.312,0.041 -0.091,0.028 -0.166,0.063 -0.225,0.106 -0.06,0.043 -0.107,0.089 -0.141,0.14 -0.034,0.051 -0.06,0.113 -0.077,0.185 -0.018,0.072 -0.027,0.155 -0.027,0.249 z"
         style="fill:#fecb04;fill-opacity:1;fill-rule:nonzero;stroke:none"
         transform="matrix(0.35277776,0,0,-0.35277776,171.93895,137.85694)"
         clip-path="url(#clipPath5401)" />
      <path
         id="path5402"
         d="M 0,0 H 1.547 V -1.118 H 1.364 v 0.913 H 0.891 V -1.061 H 0.709 v 0.856 H 0.183 V -1.154 H 0 Z"
         style="fill:#fecb04;fill-opacity:1;fill-rule:nonzero;stroke:none"
         transform="matrix(0.35277776,0,0,-0.35277776,171.87453,138.46477)"
         clip-path="url(#clipPath5403)" />
      <path
         id="path5404"
         d="m 0,0 v -0.44 c 0,-0.094 0.01,-0.167 0.029,-0.219 0.019,-0.053 0.05,-0.093 0.093,-0.121 0.042,-0.027 0.089,-0.041 0.139,-0.041 0.073,0 0.133,0.027 0.18,0.08 0.047,0.053 0.071,0.137 0.071,0.251 V 0 Z M -0.864,0.205 H 0.683 V -0.481 C 0.683,-0.619 0.669,-0.724 0.641,-0.796 0.613,-0.867 0.564,-0.925 0.494,-0.968 0.423,-1.01 0.346,-1.032 0.261,-1.032 c -0.11,0 -0.203,0.035 -0.278,0.107 -0.075,0.071 -0.123,0.18 -0.143,0.329 -0.026,-0.054 -0.052,-0.095 -0.077,-0.124 -0.055,-0.059 -0.124,-0.116 -0.206,-0.169 l -0.421,-0.27 v 0.258 l 0.322,0.205 c 0.092,0.059 0.164,0.109 0.213,0.147 0.049,0.039 0.083,0.074 0.103,0.104 0.02,0.031 0.034,0.062 0.041,0.094 0.005,0.023 0.008,0.061 0.008,0.114 V 0 h -0.687 z"
         style="fill:#fecb04;fill-opacity:1;fill-rule:nonzero;stroke:none"
         transform="matrix(0.35277776,0,0,-0.35277776,172.1794,139.17318)"
         clip-path="url(#clipPath5405)" />
      <path
         id="path5406"
         d="m 0,0 v -0.524 l 0.428,0.161 c 0.131,0.049 0.237,0.086 0.321,0.11 -0.099,0.019 -0.198,0.047 -0.295,0.083 z m -0.635,0.446 1.547,-0.594 v -0.22 l -1.547,-0.633 v 0.233 l 0.468,0.18 v 0.647 l -0.468,0.17 z"
         style="fill:#fecb04;fill-opacity:1;fill-rule:nonzero;stroke:none"
         transform="matrix(0.35277776,0,0,-0.35277776,172.09861,139.87599)"
         clip-path="url(#clipPath5407)" />
      <path
         id="path5408"
         d="M 0,0 H 1.364 V 0.51 H 1.547 V -0.716 H 1.364 v 0.511 H 0 Z"
         style="fill:#fecb04;fill-opacity:1;fill-rule:nonzero;stroke:none"
         transform="matrix(0.35277776,0,0,-0.35277776,171.87453,140.49723)"
         clip-path="url(#clipPath5409)" />
      <path
         id="path5410"
         d="m 55.115,124.289 h 1.547 v -0.205 h -1.547 z"
         style="fill:#fecb04;fill-opacity:1;fill-rule:nonzero;stroke:none"
         transform="matrix(0.35277776,0,0,-0.35277776,152.43104,184.81074)"
         clip-path="url(#clipPath5411)" />
      <path
         id="path5412"
         d="m 0,0 c -0.186,0 -0.333,-0.05 -0.441,-0.15 -0.107,-0.101 -0.16,-0.226 -0.16,-0.378 0,-0.154 0.054,-0.28 0.162,-0.38 0.108,-0.1 0.262,-0.149 0.461,-0.149 0.126,0 0.236,0.021 0.33,0.064 0.094,0.042 0.167,0.104 0.218,0.186 0.052,0.082 0.078,0.174 0.078,0.276 0,0.145 -0.05,0.27 -0.149,0.374 C 0.399,-0.052 0.233,0 0,0 m 0.003,0.211 c 0.257,0 0.458,-0.069 0.603,-0.207 0.145,-0.138 0.218,-0.316 0.218,-0.534 0,-0.142 -0.034,-0.271 -0.102,-0.386 -0.068,-0.115 -0.164,-0.202 -0.286,-0.262 -0.122,-0.06 -0.26,-0.09 -0.415,-0.09 -0.157,0 -0.297,0.031 -0.421,0.095 -0.124,0.063 -0.217,0.153 -0.281,0.269 -0.064,0.116 -0.096,0.241 -0.096,0.375 0,0.146 0.036,0.276 0.106,0.391 0.07,0.114 0.166,0.201 0.288,0.26 0.122,0.059 0.25,0.089 0.386,0.089"
         style="fill:#fecb04;fill-opacity:1;fill-rule:nonzero;stroke:none"
         transform="matrix(0.35277776,0,0,-0.35277776,172.13918,141.34453)"
         clip-path="url(#clipPath5413)" />
      <path
         id="path5414"
         d="M 0,0 H 1.547 V -0.21 L 0.332,-1.022 H 1.547 V -1.219 H 0 v 0.21 l 1.216,0.813 H 0 Z"
         style="fill:#fecb04;fill-opacity:1;fill-rule:nonzero;stroke:none"
         transform="matrix(0.35277776,0,0,-0.35277776,171.87453,142.01238)"
         clip-path="url(#clipPath5415)" />
      <path
         id="path5416"
         d="M 0,0 0.209,-0.052 C 0.165,-0.22 0.086,-0.348 -0.027,-0.436 -0.141,-0.525 -0.28,-0.569 -0.444,-0.569 c -0.171,0 -0.309,0.034 -0.415,0.102 -0.107,0.068 -0.188,0.166 -0.244,0.295 -0.055,0.129 -0.083,0.267 -0.083,0.415 0,0.161 0.031,0.301 0.094,0.421 0.063,0.12 0.152,0.211 0.268,0.273 0.116,0.063 0.244,0.094 0.383,0.094 0.158,0 0.29,-0.04 0.398,-0.118 C 0.065,0.834 0.14,0.723 0.182,0.58 L -0.024,0.533 C -0.06,0.645 -0.113,0.727 -0.183,0.779 -0.253,0.83 -0.34,0.856 -0.446,0.856 -0.567,0.856 -0.668,0.827 -0.75,0.77 -0.831,0.713 -0.888,0.637 -0.921,0.541 -0.954,0.445 -0.971,0.346 -0.971,0.244 c 0,-0.132 0.02,-0.247 0.059,-0.345 0.039,-0.098 0.1,-0.171 0.182,-0.22 0.083,-0.048 0.172,-0.073 0.268,-0.073 0.117,0 0.216,0.033 0.297,0.1 C -0.084,-0.228 -0.029,-0.13 0,0"
         style="fill:#fecb04;fill-opacity:1;fill-rule:nonzero;stroke:none"
         transform="matrix(0.35277776,0,0,-0.35277776,173.22778,144.089)"
         clip-path="url(#clipPath5417)" />
      <path
         id="path5418"
         d="M 0,0 V 1.547 H 1.141 V 1.364 H 0.209 V 0.891 H 1.082 V 0.709 H 0.209 V 0.183 H 1.177 V 0 Z"
         style="fill:#fecb04;fill-opacity:1;fill-rule:nonzero;stroke:none"
         transform="matrix(0.35277776,0,0,-0.35277776,173.4621,144.28035)"
         clip-path="url(#clipPath5419)" />
      <path
         id="path5420"
         d="M 0,0 V 1.547 H 0.214 L 1.043,0.332 v 1.215 h 0.2 L 1.243,0 H 1.029 L 0.2,1.216 V 0 Z"
         style="fill:#fecb04;fill-opacity:1;fill-rule:nonzero;stroke:none"
         transform="matrix(0.35277776,0,0,-0.35277776,174.0469,144.28035)"
         clip-path="url(#clipPath5421)" />
      <path
         id="path5422"
         d="M 0,0 V 1.364 H -0.52 V 1.547 H 0.731 V 1.364 H 0.209 V 0 Z"
         style="fill:#fecb04;fill-opacity:1;fill-rule:nonzero;stroke:none"
         transform="matrix(0.35277776,0,0,-0.35277776,174.81927,144.28035)"
         clip-path="url(#clipPath5423)" />
      <path
         id="path5424"
         d="m 0,0 h 0.449 c 0.095,0 0.17,0.01 0.224,0.029 0.053,0.019 0.094,0.05 0.122,0.093 0.028,0.042 0.042,0.089 0.042,0.139 0,0.073 -0.027,0.133 -0.081,0.18 C 0.702,0.488 0.616,0.512 0.499,0.512 H 0 Z m -0.209,-0.864 v 1.547 h 0.7 c 0.14,0 0.247,-0.014 0.32,-0.042 C 0.885,0.613 0.943,0.564 0.987,0.494 1.031,0.423 1.053,0.346 1.053,0.261 1.053,0.151 1.016,0.059 0.944,-0.017 0.871,-0.092 0.759,-0.14 0.608,-0.16 0.663,-0.186 0.705,-0.212 0.734,-0.237 0.795,-0.292 0.853,-0.361 0.907,-0.443 L 1.182,-0.864 H 0.919 L 0.71,-0.542 C 0.649,-0.449 0.599,-0.378 0.56,-0.329 0.52,-0.28 0.485,-0.245 0.454,-0.226 0.422,-0.206 0.391,-0.192 0.358,-0.185 0.335,-0.18 0.296,-0.177 0.242,-0.177 H 0 v -0.687 z"
         style="fill:#fecb04;fill-opacity:1;fill-rule:nonzero;stroke:none"
         transform="matrix(0.35277776,0,0,-0.35277776,175.29587,143.97548)"
         clip-path="url(#clipPath5425)" />
      <path
         id="path5426"
         d="M 0,0 H 0.535 L 0.37,0.428 C 0.32,0.559 0.283,0.665 0.258,0.749 0.238,0.65 0.21,0.551 0.173,0.454 Z M -0.455,-0.635 0.151,0.912 H 0.376 L 1.021,-0.635 H 0.784 L 0.599,-0.167 H -0.06 l -0.174,-0.468 z"
         style="fill:#fecb04;fill-opacity:1;fill-rule:nonzero;stroke:none"
         transform="matrix(0.35277776,0,0,-0.35277776,175.95052,144.05626)"
         clip-path="url(#clipPath5427)" />
      <path
         id="path5428"
         d="M 0,0 V 1.547 H 1.064 V 1.364 H 0.209 V 0.885 h 0.74 V 0.703 H 0.209 V 0 Z"
         style="fill:#fecb04;fill-opacity:1;fill-rule:nonzero;stroke:none"
         transform="matrix(0.35277776,0,0,-0.35277776,176.68349,144.28035)"
         clip-path="url(#clipPath5429)" />
      <path
         id="path5430"
         d="m 0,0 h 0.449 c 0.095,0 0.17,0.01 0.224,0.029 0.054,0.019 0.094,0.05 0.122,0.093 0.028,0.042 0.042,0.089 0.042,0.139 0,0.073 -0.027,0.133 -0.081,0.18 C 0.702,0.488 0.616,0.512 0.5,0.512 H 0 Z m -0.209,-0.864 v 1.547 h 0.7 C 0.632,0.683 0.738,0.669 0.812,0.641 0.885,0.613 0.943,0.564 0.987,0.494 1.031,0.423 1.053,0.346 1.053,0.261 1.053,0.151 1.016,0.059 0.944,-0.017 0.872,-0.092 0.76,-0.14 0.608,-0.16 0.663,-0.186 0.705,-0.212 0.734,-0.237 0.795,-0.292 0.853,-0.361 0.907,-0.443 L 1.182,-0.864 H 0.919 L 0.71,-0.542 C 0.649,-0.449 0.599,-0.378 0.56,-0.329 0.52,-0.28 0.485,-0.245 0.454,-0.226 0.423,-0.206 0.391,-0.192 0.359,-0.185 0.335,-0.18 0.296,-0.177 0.242,-0.177 H 0 v -0.687 z"
         style="fill:#fecb04;fill-opacity:1;fill-rule:nonzero;stroke:none"
         transform="matrix(0.35277776,0,0,-0.35277776,177.26829,143.97548)"
         clip-path="url(#clipPath5431)" />
      <path
         id="path5432"
         d="m 71.93,116.436 h 0.209 v -1.547 H 71.93 Z"
         style="fill:#fecb04;fill-opacity:1;fill-rule:nonzero;stroke:none"
         transform="matrix(0.35277776,0,0,-0.35277776,152.43104,184.81074)"
         clip-path="url(#clipPath5433)" />
      <path
         id="path5434"
         d="M 0,0 0.209,-0.052 C 0.165,-0.22 0.086,-0.348 -0.027,-0.436 -0.141,-0.525 -0.28,-0.569 -0.444,-0.569 c -0.171,0 -0.309,0.034 -0.415,0.102 -0.107,0.068 -0.188,0.166 -0.244,0.295 -0.055,0.129 -0.083,0.267 -0.083,0.415 0,0.161 0.031,0.301 0.094,0.421 0.063,0.12 0.152,0.211 0.268,0.273 0.116,0.063 0.244,0.094 0.383,0.094 0.158,0 0.29,-0.04 0.398,-0.118 C 0.065,0.834 0.14,0.723 0.182,0.58 L -0.024,0.533 C -0.06,0.645 -0.113,0.727 -0.183,0.779 -0.253,0.83 -0.34,0.856 -0.446,0.856 -0.567,0.856 -0.668,0.827 -0.75,0.77 -0.831,0.713 -0.888,0.637 -0.921,0.541 -0.954,0.445 -0.971,0.346 -0.971,0.244 c 0,-0.132 0.02,-0.247 0.059,-0.345 0.039,-0.098 0.1,-0.171 0.182,-0.22 0.083,-0.048 0.172,-0.073 0.268,-0.073 0.117,0 0.216,0.033 0.297,0.1 C -0.084,-0.228 -0.029,-0.13 0,0"
         style="fill:#fecb04;fill-opacity:1;fill-rule:nonzero;stroke:none"
         transform="matrix(0.35277776,0,0,-0.35277776,178.44604,144.089)"
         clip-path="url(#clipPath5435)" />
      <path
         id="path5436"
         d="M 0,0 H 0.535 L 0.37,0.428 C 0.32,0.559 0.283,0.665 0.258,0.749 0.238,0.65 0.21,0.551 0.173,0.454 Z M -0.455,-0.635 0.151,0.912 H 0.376 L 1.021,-0.635 H 0.783 L 0.6,-0.167 h -0.66 l -0.174,-0.468 z"
         style="fill:#fecb04;fill-opacity:1;fill-rule:nonzero;stroke:none"
         transform="matrix(0.35277776,0,0,-0.35277776,178.74879,144.05626)"
         clip-path="url(#clipPath5437)" />
      <path
         id="path5438"
         d="m 75.936,116.436 h 0.209 v -1.547 h -0.209 z"
         style="fill:#fecb04;fill-opacity:1;fill-rule:nonzero;stroke:none"
         transform="matrix(0.35277776,0,0,-0.35277776,152.43104,184.81074)"
         clip-path="url(#clipPath5439)" />
      <path
         id="path5440"
         d="M 0,0 V 1.547 H 0.214 L 1.043,0.332 v 1.215 h 0.2 L 1.243,0 H 1.029 L 0.2,1.216 V 0 Z"
         style="fill:#fecb04;fill-opacity:1;fill-rule:nonzero;stroke:none"
         transform="matrix(0.35277776,0,0,-0.35277776,179.46101,144.28035)"
         clip-path="url(#clipPath5441)" />
      <path
         id="path5442"
         d="M 0,0 V 1.547 H 1.141 V 1.364 H 0.209 V 0.891 H 1.082 V 0.709 H 0.209 V 0.183 H 1.177 V 0 Z"
         style="fill:#fecb04;fill-opacity:1;fill-rule:nonzero;stroke:none"
         transform="matrix(0.35277776,0,0,-0.35277776,180.06373,144.28035)"
         clip-path="url(#clipPath5443)" />
    </g>
  </g>
</svg>
