<?xml version="1.0" encoding="UTF-8" standalone="no"?>
<!-- Created with Inkscape (http://www.inkscape.org/) -->

<svg
   width="83.097023mm"
   height="83.076248mm"
   viewBox="0 0 83.097023 83.076248"
   version="1.1"
   id="svg1"
   inkscape:version="1.4.2 (f4327f4, 2025-05-13)"
   sodipodi:docname="Comoros Football Federation logo.svg"
   xmlns:inkscape="http://www.inkscape.org/namespaces/inkscape"
   xmlns:sodipodi="http://sodipodi.sourceforge.net/DTD/sodipodi-0.dtd"
   xmlns="http://www.w3.org/2000/svg"
   xmlns:svg="http://www.w3.org/2000/svg">
  <sodipodi:namedview
     id="namedview1"
     pagecolor="#ffffff"
     bordercolor="#000000"
     borderopacity="0.25"
     inkscape:showpageshadow="2"
     inkscape:pageopacity="0.0"
     inkscape:pagecheckerboard="0"
     inkscape:deskcolor="#d1d1d1"
     inkscape:document-units="mm"
     inkscape:zoom="0.72604517"
     inkscape:cx="116.38394"
     inkscape:cy="59.913627"
     inkscape:window-width="1920"
     inkscape:window-height="1017"
     inkscape:window-x="-8"
     inkscape:window-y="-8"
     inkscape:window-maximized="1"
     inkscape:current-layer="layer1" />
  <defs
     id="defs1">
    <clipPath
       clipPathUnits="userSpaceOnUse"
       id="clipPath7010">
      <path
         d="m 312.398,597.992 h 32 v 31.992 h -32 z"
         transform="scale(1.3333333)"
         id="path7010" />
    </clipPath>
    <clipPath
       clipPathUnits="userSpaceOnUse"
       id="clipPath7008">
      <path
         d="M 0,0 H 1191 V 842 H 0 Z"
         id="path7008" />
    </clipPath>
    <clipPath
       clipPathUnits="userSpaceOnUse"
       id="clipPath7013">
      <path
         d="m 312.398,597.992 h 32 v 31.992 h -32 z"
         transform="scale(1.3333333)"
         id="path7013" />
    </clipPath>
    <clipPath
       clipPathUnits="userSpaceOnUse"
       id="clipPath7011">
      <path
         d="M 0,0 H 1191 V 842 H 0 Z"
         id="path7011" />
    </clipPath>
    <clipPath
       clipPathUnits="userSpaceOnUse"
       id="clipPath7016">
      <path
         d="m 312.398,597.992 h 32 v 31.992 h -32 z"
         transform="scale(1.3333333)"
         id="path7016" />
    </clipPath>
    <clipPath
       clipPathUnits="userSpaceOnUse"
       id="clipPath7014">
      <path
         d="M 0,0 H 1191 V 842 H 0 Z"
         id="path7014" />
    </clipPath>
    <clipPath
       clipPathUnits="userSpaceOnUse"
       id="clipPath7019">
      <path
         d="m 312.398,597.992 h 32 v 31.992 h -32 z"
         transform="scale(1.3333333)"
         id="path7019" />
    </clipPath>
    <clipPath
       clipPathUnits="userSpaceOnUse"
       id="clipPath7017">
      <path
         d="M 0,0 H 1191 V 842 H 0 Z"
         id="path7017" />
    </clipPath>
    <clipPath
       clipPathUnits="userSpaceOnUse"
       id="clipPath7022">
      <path
         d="m 312.398,597.992 h 32 v 31.992 h -32 z"
         transform="scale(1.3333333)"
         id="path7022" />
    </clipPath>
    <clipPath
       clipPathUnits="userSpaceOnUse"
       id="clipPath7020">
      <path
         d="M 0,0 H 1191 V 842 H 0 Z"
         id="path7020" />
    </clipPath>
    <clipPath
       clipPathUnits="userSpaceOnUse"
       id="clipPath7025">
      <path
         d="m 312.398,597.992 h 32 v 31.992 h -32 z"
         transform="scale(1.3333333)"
         id="path7025" />
    </clipPath>
    <clipPath
       clipPathUnits="userSpaceOnUse"
       id="clipPath7023">
      <path
         d="M 0,0 H 1191 V 842 H 0 Z"
         id="path7023" />
    </clipPath>
    <clipPath
       clipPathUnits="userSpaceOnUse"
       id="clipPath7028">
      <path
         d="m 312.398,597.992 h 32 v 31.992 h -32 z"
         transform="scale(1.3333333)"
         id="path7028" />
    </clipPath>
    <clipPath
       clipPathUnits="userSpaceOnUse"
       id="clipPath7026">
      <path
         d="M 0,0 H 1191 V 842 H 0 Z"
         id="path7026" />
    </clipPath>
    <clipPath
       clipPathUnits="userSpaceOnUse"
       id="clipPath7031">
      <path
         d="m 312.398,597.992 h 32 v 31.992 h -32 z"
         transform="scale(1.3333333)"
         id="path7031" />
    </clipPath>
    <clipPath
       clipPathUnits="userSpaceOnUse"
       id="clipPath7029">
      <path
         d="M 0,0 H 1191 V 842 H 0 Z"
         id="path7029" />
    </clipPath>
    <clipPath
       clipPathUnits="userSpaceOnUse"
       id="clipPath7034">
      <path
         d="m 312.398,597.992 h 32 v 31.992 h -32 z"
         transform="scale(1.3333333)"
         id="path7034" />
    </clipPath>
    <clipPath
       clipPathUnits="userSpaceOnUse"
       id="clipPath7032">
      <path
         d="M 0,0 H 1191 V 842 H 0 Z"
         id="path7032" />
    </clipPath>
    <clipPath
       clipPathUnits="userSpaceOnUse"
       id="clipPath7037">
      <path
         d="m 312.398,597.992 h 32 v 31.992 h -32 z"
         transform="scale(1.3333333)"
         id="path7037" />
    </clipPath>
    <clipPath
       clipPathUnits="userSpaceOnUse"
       id="clipPath7035">
      <path
         d="M 0,0 H 1191 V 842 H 0 Z"
         id="path7035" />
    </clipPath>
    <clipPath
       clipPathUnits="userSpaceOnUse"
       id="clipPath7040">
      <path
         d="m 312.398,597.992 h 32 v 31.992 h -32 z"
         transform="scale(1.3333333)"
         id="path7040" />
    </clipPath>
    <clipPath
       clipPathUnits="userSpaceOnUse"
       id="clipPath7038">
      <path
         d="M 0,0 H 1191 V 842 H 0 Z"
         id="path7038" />
    </clipPath>
    <clipPath
       clipPathUnits="userSpaceOnUse"
       id="clipPath7043">
      <path
         d="m 312.398,597.992 h 32 v 31.992 h -32 z"
         transform="scale(1.3333333)"
         id="path7043" />
    </clipPath>
    <clipPath
       clipPathUnits="userSpaceOnUse"
       id="clipPath7041">
      <path
         d="M 0,0 H 1191 V 842 H 0 Z"
         id="path7041" />
    </clipPath>
    <clipPath
       clipPathUnits="userSpaceOnUse"
       id="clipPath7046">
      <path
         d="m 312.398,597.992 h 32 v 31.992 h -32 z"
         transform="scale(1.3333333)"
         id="path7046" />
    </clipPath>
    <clipPath
       clipPathUnits="userSpaceOnUse"
       id="clipPath7044">
      <path
         d="M 0,0 H 1191 V 842 H 0 Z"
         id="path7044" />
    </clipPath>
    <clipPath
       clipPathUnits="userSpaceOnUse"
       id="clipPath7049">
      <path
         d="m 312.398,597.992 h 32 v 31.992 h -32 z"
         transform="scale(1.3333333)"
         id="path7049" />
    </clipPath>
    <clipPath
       clipPathUnits="userSpaceOnUse"
       id="clipPath7047">
      <path
         d="M 0,0 H 1191 V 842 H 0 Z"
         transform="scale(1,-1.0002471)"
         id="path7047" />
    </clipPath>
    <clipPath
       clipPathUnits="userSpaceOnUse"
       id="clipPath7052">
      <path
         d="m 312.398,597.992 h 32 v 31.992 h -32 z"
         transform="scale(1.3333333)"
         id="path7052" />
    </clipPath>
    <clipPath
       clipPathUnits="userSpaceOnUse"
       id="clipPath7050">
      <path
         d="M 0,0 H 1191 V 842 H 0 Z"
         transform="scale(1,-1.0002471)"
         id="path7050" />
    </clipPath>
    <clipPath
       clipPathUnits="userSpaceOnUse"
       id="clipPath7055">
      <path
         d="m 312.398,597.992 h 32 v 31.992 h -32 z"
         transform="scale(1.3333333)"
         id="path7055" />
    </clipPath>
    <clipPath
       clipPathUnits="userSpaceOnUse"
       id="clipPath7053">
      <path
         d="M 0,0 H 1191 V 842 H 0 Z"
         transform="scale(1,-1.0002471)"
         id="path7053" />
    </clipPath>
    <clipPath
       clipPathUnits="userSpaceOnUse"
       id="clipPath7058">
      <path
         d="m 312.398,597.992 h 32 v 31.992 h -32 z"
         transform="scale(1.3333333)"
         id="path7058" />
    </clipPath>
    <clipPath
       clipPathUnits="userSpaceOnUse"
       id="clipPath7056">
      <path
         d="M 0,0 H 1191 V 842 H 0 Z"
         transform="scale(1,-1.0002471)"
         id="path7056" />
    </clipPath>
    <clipPath
       clipPathUnits="userSpaceOnUse"
       id="clipPath7061">
      <path
         d="m 312.398,597.992 h 32 v 31.992 h -32 z"
         transform="scale(1.3333333)"
         id="path7061" />
    </clipPath>
    <clipPath
       clipPathUnits="userSpaceOnUse"
       id="clipPath7059">
      <path
         d="M 0,0 H 1191 V 842 H 0 Z"
         transform="scale(1,-1.0002471)"
         id="path7059" />
    </clipPath>
    <clipPath
       clipPathUnits="userSpaceOnUse"
       id="clipPath7064">
      <path
         d="m 312.398,597.992 h 32 v 31.992 h -32 z"
         transform="scale(1.3333333)"
         id="path7064" />
    </clipPath>
    <clipPath
       clipPathUnits="userSpaceOnUse"
       id="clipPath7062">
      <path
         d="M 0,0 H 1191 V 842 H 0 Z"
         transform="scale(1,-1.0002471)"
         id="path7062" />
    </clipPath>
    <clipPath
       clipPathUnits="userSpaceOnUse"
       id="clipPath7067">
      <path
         d="m 312.398,597.992 h 32 v 31.992 h -32 z"
         transform="scale(1.3333333)"
         id="path7067" />
    </clipPath>
    <clipPath
       clipPathUnits="userSpaceOnUse"
       id="clipPath7065">
      <path
         d="M 0,0 H 1191 V 842 H 0 Z"
         id="path7065" />
    </clipPath>
    <clipPath
       clipPathUnits="userSpaceOnUse"
       id="clipPath7070">
      <path
         d="m 312.398,597.992 h 32 v 31.992 h -32 z"
         transform="scale(1.3333333)"
         id="path7070" />
    </clipPath>
    <clipPath
       clipPathUnits="userSpaceOnUse"
       id="clipPath7068">
      <path
         d="M 0,0 H 1191 V 842 H 0 Z"
         id="path7068" />
    </clipPath>
    <clipPath
       clipPathUnits="userSpaceOnUse"
       id="clipPath7073">
      <path
         d="m 312.398,597.992 h 32 v 31.992 h -32 z"
         transform="scale(1.3333333)"
         id="path7073" />
    </clipPath>
    <clipPath
       clipPathUnits="userSpaceOnUse"
       id="clipPath7071">
      <path
         d="M 0,0 H 1191 V 842 H 0 Z"
         id="path7071" />
    </clipPath>
    <clipPath
       clipPathUnits="userSpaceOnUse"
       id="clipPath7076">
      <path
         d="m 312.398,597.992 h 32 v 31.992 h -32 z"
         transform="scale(1.3333333)"
         id="path7076" />
    </clipPath>
    <clipPath
       clipPathUnits="userSpaceOnUse"
       id="clipPath7074">
      <path
         d="M 0,0 H 1191 V 842 H 0 Z"
         id="path7074" />
    </clipPath>
    <clipPath
       clipPathUnits="userSpaceOnUse"
       id="clipPath7079">
      <path
         d="m 312.398,597.992 h 32 v 31.992 h -32 z"
         transform="scale(1.3333333)"
         id="path7079" />
    </clipPath>
    <clipPath
       clipPathUnits="userSpaceOnUse"
       id="clipPath7077">
      <path
         d="M 0,0 H 1191 V 842 H 0 Z"
         id="path7077" />
    </clipPath>
    <clipPath
       clipPathUnits="userSpaceOnUse"
       id="clipPath7082">
      <path
         d="m 312.398,597.992 h 32 v 31.992 h -32 z"
         transform="scale(1.3333333)"
         id="path7082" />
    </clipPath>
    <clipPath
       clipPathUnits="userSpaceOnUse"
       id="clipPath7080">
      <path
         d="M 0,0 H 1191 V 842 H 0 Z"
         id="path7080" />
    </clipPath>
    <clipPath
       clipPathUnits="userSpaceOnUse"
       id="clipPath7085">
      <path
         d="m 312.398,597.992 h 32 v 31.992 h -32 z"
         transform="scale(1.3333333)"
         id="path7085" />
    </clipPath>
    <clipPath
       clipPathUnits="userSpaceOnUse"
       id="clipPath7083">
      <path
         d="M 0,0 H 1191 V 842 H 0 Z"
         id="path7083" />
    </clipPath>
    <clipPath
       clipPathUnits="userSpaceOnUse"
       id="clipPath7088">
      <path
         d="m 312.398,597.992 h 32 v 31.992 h -32 z"
         transform="scale(1.3333333)"
         id="path7088" />
    </clipPath>
    <clipPath
       clipPathUnits="userSpaceOnUse"
       id="clipPath7086">
      <path
         d="M 0,0 H 1191 V 842 H 0 Z"
         id="path7086" />
    </clipPath>
    <clipPath
       clipPathUnits="userSpaceOnUse"
       id="clipPath7091">
      <path
         d="m 312.398,597.992 h 32 v 31.992 h -32 z"
         transform="scale(1.3333333)"
         id="path7091" />
    </clipPath>
    <clipPath
       clipPathUnits="userSpaceOnUse"
       id="clipPath7089">
      <path
         d="M 0,0 H 1191 V 842 H 0 Z"
         id="path7089" />
    </clipPath>
    <clipPath
       clipPathUnits="userSpaceOnUse"
       id="clipPath7094">
      <path
         d="m 312.398,597.992 h 32 v 31.992 h -32 z"
         transform="scale(1.3333333)"
         id="path7094" />
    </clipPath>
    <clipPath
       clipPathUnits="userSpaceOnUse"
       id="clipPath7092">
      <path
         d="M 0,0 H 1191 V 842 H 0 Z"
         id="path7092" />
    </clipPath>
    <clipPath
       clipPathUnits="userSpaceOnUse"
       id="clipPath7097">
      <path
         d="m 312.398,597.992 h 32 v 31.992 h -32 z"
         transform="scale(1.3333333)"
         id="path7097" />
    </clipPath>
    <clipPath
       clipPathUnits="userSpaceOnUse"
       id="clipPath7095">
      <path
         d="M 0,0 H 1191 V 842 H 0 Z"
         id="path7095" />
    </clipPath>
    <clipPath
       clipPathUnits="userSpaceOnUse"
       id="clipPath7100">
      <path
         d="m 312.398,597.992 h 32 v 31.992 h -32 z"
         transform="scale(1.3333333)"
         id="path7100" />
    </clipPath>
    <clipPath
       clipPathUnits="userSpaceOnUse"
       id="clipPath7098">
      <path
         d="M 0,0 H 1191 V 842 H 0 Z"
         id="path7098" />
    </clipPath>
    <clipPath
       clipPathUnits="userSpaceOnUse"
       id="clipPath7103">
      <path
         d="m 312.398,597.992 h 32 v 31.992 h -32 z"
         transform="scale(1.3333333)"
         id="path7103" />
    </clipPath>
    <clipPath
       clipPathUnits="userSpaceOnUse"
       id="clipPath7101">
      <path
         d="M 0,0 H 1191 V 842 H 0 Z"
         id="path7101" />
    </clipPath>
    <clipPath
       clipPathUnits="userSpaceOnUse"
       id="clipPath7106">
      <path
         d="m 312.398,597.992 h 32 v 31.992 h -32 z"
         transform="scale(1.3333333)"
         id="path7106" />
    </clipPath>
    <clipPath
       clipPathUnits="userSpaceOnUse"
       id="clipPath7104">
      <path
         d="M 0,0 H 1191 V 842 H 0 Z"
         id="path7104" />
    </clipPath>
    <clipPath
       clipPathUnits="userSpaceOnUse"
       id="clipPath7109">
      <path
         d="m 312.398,597.992 h 32 v 31.992 h -32 z"
         transform="scale(1.3333333)"
         id="path7109" />
    </clipPath>
    <clipPath
       clipPathUnits="userSpaceOnUse"
       id="clipPath7107">
      <path
         d="M 0,0 H 1191 V 842 H 0 Z"
         id="path7107" />
    </clipPath>
    <clipPath
       clipPathUnits="userSpaceOnUse"
       id="clipPath7112">
      <path
         d="m 312.398,597.992 h 32 v 31.992 h -32 z"
         transform="scale(1.3333333)"
         id="path7112" />
    </clipPath>
    <clipPath
       clipPathUnits="userSpaceOnUse"
       id="clipPath7110">
      <path
         d="M 0,0 H 1191 V 842 H 0 Z"
         id="path7110" />
    </clipPath>
    <clipPath
       clipPathUnits="userSpaceOnUse"
       id="clipPath7115">
      <path
         d="m 312.398,597.992 h 32 v 31.992 h -32 z"
         transform="scale(1.3333333)"
         id="path7115" />
    </clipPath>
    <clipPath
       clipPathUnits="userSpaceOnUse"
       id="clipPath7113">
      <path
         d="M 0,0 H 1191 V 842 H 0 Z"
         id="path7113" />
    </clipPath>
    <clipPath
       clipPathUnits="userSpaceOnUse"
       id="clipPath7118">
      <path
         d="m 312.398,597.992 h 32 v 31.992 h -32 z"
         transform="scale(1.3333333)"
         id="path7118" />
    </clipPath>
    <clipPath
       clipPathUnits="userSpaceOnUse"
       id="clipPath7116">
      <path
         d="M 0,0 H 1191 V 842 H 0 Z"
         id="path7116" />
    </clipPath>
    <clipPath
       clipPathUnits="userSpaceOnUse"
       id="clipPath7121">
      <path
         d="m 312.398,597.992 h 32 v 31.992 h -32 z"
         transform="scale(1.3333333)"
         id="path7121" />
    </clipPath>
    <clipPath
       clipPathUnits="userSpaceOnUse"
       id="clipPath7119">
      <path
         d="M 0,0 H 1191 V 842 H 0 Z"
         id="path7119" />
    </clipPath>
    <clipPath
       clipPathUnits="userSpaceOnUse"
       id="clipPath7124">
      <path
         d="m 312.398,597.992 h 32 v 31.992 h -32 z"
         transform="scale(1.3333333)"
         id="path7124" />
    </clipPath>
    <clipPath
       clipPathUnits="userSpaceOnUse"
       id="clipPath7122">
      <path
         d="M 0,0 H 1191 V 842 H 0 Z"
         id="path7122" />
    </clipPath>
    <clipPath
       clipPathUnits="userSpaceOnUse"
       id="clipPath7127">
      <path
         d="m 312.398,597.992 h 32 v 31.992 h -32 z"
         transform="scale(1.3333333)"
         id="path7127" />
    </clipPath>
    <clipPath
       clipPathUnits="userSpaceOnUse"
       id="clipPath7125">
      <path
         d="M 0,0 H 1191 V 842 H 0 Z"
         id="path7125" />
    </clipPath>
    <clipPath
       clipPathUnits="userSpaceOnUse"
       id="clipPath7130">
      <path
         d="m 312.398,597.992 h 32 v 31.992 h -32 z"
         transform="scale(1.3333333)"
         id="path7130" />
    </clipPath>
    <clipPath
       clipPathUnits="userSpaceOnUse"
       id="clipPath7128">
      <path
         d="M 0,0 H 1191 V 842 H 0 Z"
         id="path7128" />
    </clipPath>
    <clipPath
       clipPathUnits="userSpaceOnUse"
       id="clipPath7133">
      <path
         d="m 312.398,597.992 h 32 v 31.992 h -32 z"
         transform="scale(1.3333333)"
         id="path7133" />
    </clipPath>
    <clipPath
       clipPathUnits="userSpaceOnUse"
       id="clipPath7131">
      <path
         d="M 0,0 H 1191 V 842 H 0 Z"
         id="path7131" />
    </clipPath>
    <clipPath
       clipPathUnits="userSpaceOnUse"
       id="clipPath7136">
      <path
         d="m 312.398,597.992 h 32 v 31.992 h -32 z"
         transform="scale(1.3333333)"
         id="path7136" />
    </clipPath>
    <clipPath
       clipPathUnits="userSpaceOnUse"
       id="clipPath7134">
      <path
         d="M 0,0 H 1191 V 842 H 0 Z"
         id="path7134" />
    </clipPath>
    <clipPath
       clipPathUnits="userSpaceOnUse"
       id="clipPath7139">
      <path
         d="m 312.398,597.992 h 32 v 31.992 h -32 z"
         transform="scale(1.3333333)"
         id="path7139" />
    </clipPath>
    <clipPath
       clipPathUnits="userSpaceOnUse"
       id="clipPath7137">
      <path
         d="M 0,0 H 1191 V 842 H 0 Z"
         id="path7137" />
    </clipPath>
    <clipPath
       clipPathUnits="userSpaceOnUse"
       id="clipPath7142">
      <path
         d="m 312.398,597.992 h 32 v 31.992 h -32 z"
         transform="scale(1.3333333)"
         id="path7142" />
    </clipPath>
    <clipPath
       clipPathUnits="userSpaceOnUse"
       id="clipPath7140">
      <path
         d="M 0,0 H 1191 V 842 H 0 Z"
         id="path7140" />
    </clipPath>
    <clipPath
       clipPathUnits="userSpaceOnUse"
       id="clipPath7145">
      <path
         d="m 312.398,597.992 h 32 v 31.992 h -32 z"
         transform="scale(1.3333333)"
         id="path7145" />
    </clipPath>
    <clipPath
       clipPathUnits="userSpaceOnUse"
       id="clipPath7143">
      <path
         d="M 0,0 H 1191 V 842 H 0 Z"
         id="path7143" />
    </clipPath>
    <clipPath
       clipPathUnits="userSpaceOnUse"
       id="clipPath7148">
      <path
         d="m 312.398,597.992 h 32 v 31.992 h -32 z"
         transform="scale(1.3333333)"
         id="path7148" />
    </clipPath>
    <clipPath
       clipPathUnits="userSpaceOnUse"
       id="clipPath7146">
      <path
         d="M 0,0 H 1191 V 842 H 0 Z"
         id="path7146" />
    </clipPath>
    <clipPath
       clipPathUnits="userSpaceOnUse"
       id="clipPath7151">
      <path
         d="m 312.398,597.992 h 32 v 31.992 h -32 z"
         transform="scale(1.3333333)"
         id="path7151" />
    </clipPath>
    <clipPath
       clipPathUnits="userSpaceOnUse"
       id="clipPath7149">
      <path
         d="M 0,0 H 1191 V 842 H 0 Z"
         id="path7149" />
    </clipPath>
    <clipPath
       clipPathUnits="userSpaceOnUse"
       id="clipPath7154">
      <path
         d="m 312.398,597.992 h 32 v 31.992 h -32 z"
         transform="scale(1.3333333)"
         id="path7154" />
    </clipPath>
    <clipPath
       clipPathUnits="userSpaceOnUse"
       id="clipPath7152">
      <path
         d="M 0,0 H 1191 V 842 H 0 Z"
         id="path7152" />
    </clipPath>
    <clipPath
       clipPathUnits="userSpaceOnUse"
       id="clipPath7157">
      <path
         d="m 312.398,597.992 h 32 v 31.992 h -32 z"
         transform="scale(1.3333333)"
         id="path7157" />
    </clipPath>
    <clipPath
       clipPathUnits="userSpaceOnUse"
       id="clipPath7155">
      <path
         d="M 0,0 H 1191 V 842 H 0 Z"
         id="path7155" />
    </clipPath>
    <clipPath
       clipPathUnits="userSpaceOnUse"
       id="clipPath7160">
      <path
         d="m 312.398,597.992 h 32 v 31.992 h -32 z"
         transform="scale(1.3333333)"
         id="path7160" />
    </clipPath>
    <clipPath
       clipPathUnits="userSpaceOnUse"
       id="clipPath7158">
      <path
         d="M 0,0 H 1191 V 842 H 0 Z"
         id="path7158" />
    </clipPath>
  </defs>
  <g
     inkscape:label="Layer 1"
     inkscape:groupmode="layer"
     id="layer1"
     transform="translate(-74.506454,-132.82083)">
    <g
       id="g1"
       transform="matrix(7.3609571,0,0,7.3609571,-1002.5089,-844.86763)">
      <g
         id="g7009"
         clip-path="url(#clipPath7010)"
         transform="matrix(0.26458333,0,0,0.26458333,36.107513,-78.137447)">
        <path
           d="m 328.398,601.723 c -6.773,0 -12.265,5.492 -12.265,12.265 0,6.774 5.492,12.266 12.265,12.266 6.778,0 12.27,-5.492 12.27,-12.266 0,-6.773 -5.492,-12.265 -12.27,-12.265 m 16,12.265 c 0,8.836 -7.164,15.996 -16,15.996 -8.836,0 -16,-7.16 -16,-15.996 0,-8.832 7.164,-15.996 16,-15.996 8.836,0 16,7.164 16,15.996"
           style="fill:#009641;fill-opacity:1;fill-rule:nonzero;stroke:none"
           transform="scale(1.3333333)"
           clip-path="url(#clipPath7008)"
           id="path7009" />
      </g>
      <g
         id="g7012"
         clip-path="url(#clipPath7013)"
         transform="matrix(0.26458333,0,0,0.26458333,36.107513,-78.137447)">
        <path
           d="m 318.523,622.918 -1.226,1.133 c 0.09,0.097 0.16,0.144 0.211,0.14 0.047,0 0.133,-0.062 0.258,-0.175 l 0.726,-0.668 c 0.082,-0.078 0.133,-0.133 0.153,-0.16 0.015,-0.032 0.015,-0.063 0.003,-0.102 -0.015,-0.035 -0.058,-0.094 -0.125,-0.168 m -0.312,-0.977 0.473,0.512 c 0.304,0.328 0.5,0.563 0.586,0.699 0.085,0.137 0.132,0.258 0.136,0.364 0.008,0.105 -0.011,0.191 -0.058,0.265 -0.047,0.071 -0.157,0.188 -0.332,0.348 l -0.653,0.601 c -0.168,0.157 -0.289,0.25 -0.367,0.278 -0.078,0.031 -0.156,0.031 -0.238,0.008 -0.086,-0.028 -0.168,-0.075 -0.258,-0.145 -0.086,-0.066 -0.207,-0.183 -0.355,-0.348 l -0.797,-0.863 z"
           style="fill:#ffffff;fill-opacity:1;fill-rule:nonzero;stroke:none"
           transform="scale(1.3333333)"
           clip-path="url(#clipPath7011)"
           id="path7012" />
      </g>
      <g
         id="g7015"
         clip-path="url(#clipPath7016)"
         transform="matrix(0.26458333,0,0,0.26458333,36.107513,-78.137447)">
        <path
           d="m 319.934,623.727 1.226,0.949 -0.308,0.398 -0.493,-0.379 -0.293,0.383 0.461,0.356 -0.297,0.378 -0.46,-0.351 -0.34,0.437 0.539,0.418 -0.309,0.403 -1.273,-0.985 z"
           style="fill:#ffffff;fill-opacity:1;fill-rule:nonzero;stroke:none"
           transform="scale(1.3333333)"
           clip-path="url(#clipPath7014)"
           id="path7015" />
      </g>
      <g
         id="g7018"
         clip-path="url(#clipPath7019)"
         transform="matrix(0.26458333,0,0,0.26458333,36.107513,-78.137447)">
        <path
           d="m 322.789,626.473 -0.758,-0.411 0.09,-0.164 c 0.039,-0.078 0.059,-0.132 0.047,-0.164 -0.008,-0.031 -0.031,-0.058 -0.078,-0.086 -0.051,-0.027 -0.094,-0.031 -0.133,-0.015 -0.043,0.015 -0.078,0.051 -0.109,0.109 -0.039,0.074 -0.059,0.137 -0.047,0.192 0.004,0.05 0.058,0.136 0.156,0.261 0.281,0.348 0.441,0.598 0.484,0.746 0.039,0.153 0,0.336 -0.117,0.555 -0.086,0.156 -0.176,0.262 -0.269,0.309 -0.09,0.047 -0.227,0.054 -0.407,0.023 -0.175,-0.027 -0.363,-0.098 -0.566,-0.207 -0.219,-0.117 -0.387,-0.246 -0.512,-0.391 -0.121,-0.14 -0.183,-0.269 -0.183,-0.386 0.004,-0.117 0.051,-0.262 0.14,-0.426 l 0.078,-0.148 0.758,0.41 -0.144,0.273 c -0.047,0.082 -0.067,0.141 -0.055,0.176 0.008,0.039 0.039,0.07 0.094,0.098 0.054,0.031 0.101,0.039 0.144,0.023 0.043,-0.02 0.082,-0.055 0.114,-0.117 0.07,-0.129 0.093,-0.231 0.062,-0.297 -0.027,-0.07 -0.121,-0.203 -0.273,-0.41 -0.153,-0.203 -0.246,-0.348 -0.289,-0.426 -0.043,-0.078 -0.067,-0.168 -0.071,-0.27 0,-0.097 0.032,-0.207 0.094,-0.324 0.094,-0.172 0.191,-0.281 0.297,-0.328 0.102,-0.043 0.234,-0.051 0.398,-0.023 0.161,0.031 0.336,0.097 0.532,0.203 0.214,0.113 0.379,0.238 0.504,0.367 0.125,0.129 0.191,0.242 0.199,0.344 0.008,0.101 -0.035,0.238 -0.133,0.418 z"
           style="fill:#ffffff;fill-opacity:1;fill-rule:nonzero;stroke:none"
           transform="scale(1.3333333)"
           clip-path="url(#clipPath7017)"
           id="path7018" />
      </g>
      <g
         id="g7021"
         clip-path="url(#clipPath7022)"
         transform="matrix(0.26458333,0,0,0.26458333,36.107513,-78.137447)">
        <path
           d="m 326.148,627.836 -0.902,-0.219 0.106,-0.429 c 0.027,-0.122 0.039,-0.204 0.027,-0.239 -0.012,-0.035 -0.051,-0.062 -0.117,-0.078 -0.074,-0.016 -0.125,-0.012 -0.157,0.024 -0.027,0.031 -0.058,0.109 -0.089,0.234 l -0.278,1.144 c -0.031,0.122 -0.039,0.2 -0.027,0.243 0.012,0.039 0.051,0.07 0.121,0.086 0.066,0.015 0.117,0.011 0.145,-0.024 0.031,-0.031 0.062,-0.113 0.093,-0.25 l 0.078,-0.308 0.903,0.218 -0.024,0.098 c -0.062,0.254 -0.132,0.43 -0.207,0.523 -0.078,0.094 -0.215,0.161 -0.406,0.2 -0.191,0.039 -0.418,0.023 -0.672,-0.036 -0.265,-0.066 -0.476,-0.152 -0.629,-0.261 -0.156,-0.11 -0.246,-0.235 -0.273,-0.367 -0.028,-0.133 -0.012,-0.321 0.047,-0.563 l 0.175,-0.719 c 0.043,-0.175 0.086,-0.308 0.126,-0.394 0.039,-0.082 0.109,-0.157 0.214,-0.219 0.106,-0.059 0.239,-0.098 0.403,-0.109 0.16,-0.008 0.34,0.011 0.539,0.058 0.265,0.063 0.472,0.156 0.629,0.27 0.156,0.113 0.246,0.234 0.277,0.355 0.027,0.121 0.012,0.297 -0.043,0.528 z"
           style="fill:#ffffff;fill-opacity:1;fill-rule:nonzero;stroke:none"
           transform="scale(1.3333333)"
           clip-path="url(#clipPath7020)"
           id="path7021" />
      </g>
      <g
         id="g7024"
         clip-path="url(#clipPath7025)"
         transform="matrix(0.26458333,0,0,0.26458333,36.107513,-78.137447)">
        <path
           d="m 327.867,627.512 c 0.008,-0.121 0,-0.196 -0.015,-0.227 -0.016,-0.035 -0.055,-0.055 -0.114,-0.058 -0.047,0 -0.086,0.011 -0.113,0.035 -0.027,0.027 -0.043,0.105 -0.051,0.234 l -0.054,1.184 c -0.008,0.144 -0.004,0.238 0.011,0.273 0.016,0.035 0.051,0.055 0.114,0.055 0.062,0.004 0.105,-0.012 0.125,-0.051 0.019,-0.039 0.035,-0.133 0.039,-0.285 z m 0.887,0.875 c -0.012,0.254 -0.027,0.437 -0.051,0.539 -0.023,0.105 -0.078,0.199 -0.172,0.285 -0.093,0.082 -0.219,0.144 -0.371,0.184 -0.156,0.039 -0.332,0.054 -0.535,0.043 -0.191,-0.008 -0.359,-0.04 -0.512,-0.09 -0.148,-0.055 -0.265,-0.125 -0.355,-0.219 -0.09,-0.094 -0.141,-0.191 -0.153,-0.297 -0.011,-0.105 -0.011,-0.289 0,-0.551 l 0.024,-0.433 c 0.012,-0.254 0.027,-0.434 0.051,-0.539 0.023,-0.102 0.078,-0.2 0.172,-0.282 0.093,-0.082 0.218,-0.144 0.371,-0.183 0.156,-0.039 0.332,-0.055 0.535,-0.043 0.187,0.008 0.359,0.039 0.512,0.09 0.148,0.05 0.269,0.125 0.355,0.218 0.09,0.094 0.141,0.192 0.152,0.297 0.012,0.106 0.012,0.289 0,0.547 z"
           style="fill:#ffffff;fill-opacity:1;fill-rule:nonzero;stroke:none"
           transform="scale(1.3333333)"
           clip-path="url(#clipPath7023)"
           id="path7024" />
      </g>
      <g
         id="g7027"
         clip-path="url(#clipPath7028)"
         transform="matrix(0.26458333,0,0,0.26458333,36.107513,-78.137447)">
        <path
           d="m 331.945,626.457 0.418,2.5 -0.801,0.133 -0.281,-1.688 -0.039,1.743 -0.57,0.093 -0.61,-1.593 0.274,1.652 -0.805,0.133 -0.414,-2.5 1.188,-0.2 c 0.058,0.145 0.125,0.317 0.195,0.516 l 0.238,0.613 0.016,-1.203 z"
           style="fill:#ffffff;fill-opacity:1;fill-rule:nonzero;stroke:none"
           transform="scale(1.3333333)"
           clip-path="url(#clipPath7026)"
           id="path7027" />
      </g>
      <g
         id="g7030"
         clip-path="url(#clipPath7031)"
         transform="matrix(0.26458333,0,0,0.26458333,36.107513,-78.137447)">
        <path
           d="m 333.59,626.488 c -0.043,-0.109 -0.082,-0.176 -0.11,-0.199 -0.031,-0.023 -0.07,-0.023 -0.125,-0.004 -0.043,0.02 -0.074,0.047 -0.089,0.082 -0.012,0.031 0.007,0.11 0.054,0.231 l 0.442,1.097 c 0.054,0.137 0.097,0.219 0.129,0.246 0.027,0.024 0.07,0.024 0.129,0.004 0.054,-0.027 0.085,-0.058 0.089,-0.101 0,-0.043 -0.027,-0.137 -0.082,-0.274 z m 1.176,0.426 c 0.093,0.238 0.152,0.406 0.175,0.512 0.028,0.105 0.012,0.215 -0.039,0.328 -0.047,0.117 -0.132,0.223 -0.257,0.324 -0.122,0.102 -0.278,0.188 -0.465,0.262 -0.176,0.07 -0.344,0.117 -0.504,0.133 -0.156,0.015 -0.297,0 -0.414,-0.051 -0.121,-0.047 -0.207,-0.113 -0.262,-0.207 -0.055,-0.09 -0.133,-0.254 -0.23,-0.496 l -0.165,-0.403 c -0.093,-0.234 -0.152,-0.406 -0.175,-0.511 -0.028,-0.106 -0.012,-0.215 0.039,-0.328 0.047,-0.114 0.133,-0.223 0.258,-0.321 0.121,-0.101 0.277,-0.191 0.464,-0.265 0.18,-0.071 0.344,-0.114 0.504,-0.133 0.157,-0.016 0.297,0 0.414,0.051 0.121,0.046 0.207,0.113 0.262,0.203 0.059,0.093 0.133,0.258 0.231,0.5 z"
           style="fill:#ffffff;fill-opacity:1;fill-rule:nonzero;stroke:none"
           transform="scale(1.3333333)"
           clip-path="url(#clipPath7029)"
           id="path7030" />
      </g>
      <g
         id="g7033"
         clip-path="url(#clipPath7034)"
         transform="matrix(0.26458333,0,0,0.26458333,36.107513,-78.137447)">
        <path
           d="m 335.5,625.254 0.305,0.473 c 0.09,-0.055 0.144,-0.106 0.168,-0.145 0.023,-0.039 0.007,-0.105 -0.055,-0.199 l -0.074,-0.117 c -0.043,-0.067 -0.09,-0.102 -0.137,-0.102 -0.047,0.004 -0.117,0.031 -0.207,0.09 m -1.016,0.137 0.551,-0.356 c 0.371,-0.238 0.629,-0.387 0.77,-0.449 0.144,-0.066 0.285,-0.082 0.422,-0.051 0.132,0.027 0.261,0.133 0.378,0.317 0.106,0.164 0.149,0.296 0.125,0.39 -0.019,0.094 -0.113,0.203 -0.277,0.324 0.172,-0.074 0.301,-0.105 0.383,-0.093 0.082,0.011 0.144,0.035 0.18,0.062 0.039,0.031 0.113,0.133 0.222,0.305 l 0.364,0.562 -0.727,0.465 -0.457,-0.707 c -0.074,-0.113 -0.129,-0.176 -0.172,-0.187 -0.043,-0.012 -0.121,0.019 -0.226,0.086 l 0.617,0.964 -0.782,0.5 z"
           style="fill:#ffffff;fill-opacity:1;fill-rule:nonzero;stroke:none"
           transform="scale(1.3333333)"
           clip-path="url(#clipPath7032)"
           id="path7033" />
      </g>
      <g
         id="g7036"
         clip-path="url(#clipPath7037)"
         transform="matrix(0.26458333,0,0,0.26458333,36.107513,-78.137447)">
        <path
           d="m 336.492,624.035 1.149,-1.039 0.343,0.375 -0.461,0.418 0.321,0.356 0.433,-0.391 0.325,0.355 -0.434,0.391 0.375,0.414 0.508,-0.461 0.34,0.379 -1.192,1.082 z"
           style="fill:#ffffff;fill-opacity:1;fill-rule:nonzero;stroke:none"
           transform="scale(1.3333333)"
           clip-path="url(#clipPath7035)"
           id="path7036" />
      </g>
      <g
         id="g7039"
         clip-path="url(#clipPath7040)"
         transform="matrix(0.26458333,0,0,0.26458333,36.107513,-78.137447)">
        <path
           d="m 339.699,621.707 -0.539,0.676 -0.144,-0.117 c -0.071,-0.055 -0.121,-0.082 -0.153,-0.078 -0.031,0.003 -0.066,0.023 -0.097,0.062 -0.036,0.043 -0.047,0.086 -0.039,0.129 0.007,0.043 0.035,0.086 0.085,0.125 0.067,0.055 0.129,0.082 0.18,0.082 0.055,0.004 0.149,-0.031 0.285,-0.109 0.395,-0.215 0.668,-0.329 0.825,-0.344 0.152,-0.016 0.328,0.055 0.523,0.211 0.141,0.113 0.227,0.218 0.258,0.316 0.027,0.102 0.012,0.238 -0.047,0.406 -0.063,0.168 -0.164,0.344 -0.305,0.52 -0.156,0.195 -0.312,0.34 -0.476,0.437 -0.16,0.094 -0.297,0.133 -0.414,0.114 -0.114,-0.024 -0.246,-0.094 -0.395,-0.211 l -0.129,-0.106 0.535,-0.675 0.243,0.195 c 0.074,0.058 0.128,0.086 0.167,0.082 0.036,0 0.075,-0.027 0.114,-0.074 0.035,-0.047 0.051,-0.098 0.043,-0.141 -0.008,-0.047 -0.039,-0.09 -0.09,-0.133 -0.117,-0.09 -0.211,-0.129 -0.285,-0.113 -0.071,0.019 -0.223,0.082 -0.449,0.199 -0.231,0.113 -0.387,0.184 -0.473,0.211 -0.086,0.027 -0.176,0.035 -0.274,0.02 -0.101,-0.016 -0.203,-0.067 -0.308,-0.149 -0.152,-0.121 -0.242,-0.238 -0.266,-0.347 -0.027,-0.114 -0.012,-0.243 0.043,-0.399 0.059,-0.152 0.156,-0.316 0.293,-0.488 0.152,-0.188 0.301,-0.332 0.449,-0.43 0.149,-0.101 0.274,-0.144 0.375,-0.137 0.102,0.012 0.231,0.079 0.387,0.204 z"
           style="fill:#ffffff;fill-opacity:1;fill-rule:nonzero;stroke:none"
           transform="scale(1.3333333)"
           clip-path="url(#clipPath7038)"
           id="path7039" />
      </g>
      <g
         id="g7042"
         clip-path="url(#clipPath7043)"
         transform="matrix(0.26458333,0,0,0.26458333,36.107513,-78.137447)">
        <path
           d="m 324.867,607.719 h 3.047 v -1.66 h -3.102 c -0.777,0 -2.605,0.527 -2.605,2.464 v 9.36 h 1.66 v -5.051 h 4.047 v -1.605 h -4.047 v -2.649 c 0,-0.305 0.278,-0.859 1,-0.859"
           style="fill:#009641;fill-opacity:1;fill-rule:nonzero;stroke:none"
           transform="scale(1.3333333)"
           clip-path="url(#clipPath7041)"
           id="path7042" />
      </g>
      <g
         id="g7045"
         clip-path="url(#clipPath7046)"
         transform="matrix(0.26458333,0,0,0.26458333,36.107513,-78.137447)">
        <path
           d="m 330.746,613.078 h 3.047 v -1.664 h -3.102 c -0.777,0 -2.605,0.527 -2.605,2.465 v 9.363 h 1.66 v -5.054 h 4.047 v -1.606 h -4.047 v -2.644 c 0,-0.305 0.277,-0.86 1,-0.86"
           style="fill:#009641;fill-opacity:1;fill-rule:nonzero;stroke:none"
           transform="scale(1.3333333)"
           clip-path="url(#clipPath7044)"
           id="path7045" />
      </g>
      <g
         id="g7048"
         clip-path="url(#clipPath7049)"
         transform="matrix(0.26458333,0,0,0.26458333,36.107513,-78.137447)">
        <path
           d="m 324.117,-618.563 c 0,1.578 0.762,4.544 3.969,5.318 -2.223,0.261 -6.434,-1.301 -6.434,-5.318 0,-4.017 4.129,-5.681 7.231,-5.181 -3.617,0.801 -4.766,3.602 -4.766,5.181 z"
           style="fill:none;stroke:#009641;stroke-width:0.202076;stroke-linecap:butt;stroke-linejoin:miter;stroke-miterlimit:10;stroke-dasharray:none;stroke-opacity:1"
           transform="scale(1.3333333,-1.333004)"
           clip-path="url(#clipPath7047)"
           id="path7048" />
      </g>
      <g
         id="g7051"
         clip-path="url(#clipPath7052)"
         transform="matrix(0.26458333,0,0,0.26458333,36.107513,-78.137447)">
        <path
           d="m 328.113,-613.722 0.254,-0.703 0.75,-0.024 -0.59,-0.461 0.207,-0.723 -0.621,0.422 -0.621,-0.422 0.211,0.723 -0.594,0.461 0.75,0.024 z"
           style="fill:#ffffff;fill-opacity:1;fill-rule:nonzero;stroke:#009640;stroke-width:0.101038;stroke-linecap:butt;stroke-linejoin:miter;stroke-miterlimit:4;stroke-dasharray:none;stroke-opacity:1"
           transform="scale(1.3333333,-1.333004)"
           clip-path="url(#clipPath7050)"
           id="path7051" />
      </g>
      <g
         id="g7054"
         clip-path="url(#clipPath7055)"
         transform="matrix(0.26458333,0,0,0.26458333,36.107513,-78.137447)">
        <path
           d="m 328.113,-616.125 0.254,-0.707 0.75,-0.024 -0.59,-0.461 0.207,-0.719 -0.621,0.418 -0.621,-0.418 0.211,0.719 -0.594,0.461 0.75,0.024 z"
           style="fill:#ffffff;fill-opacity:1;fill-rule:nonzero;stroke:#009640;stroke-width:0.101038;stroke-linecap:butt;stroke-linejoin:miter;stroke-miterlimit:4;stroke-dasharray:none;stroke-opacity:1"
           transform="scale(1.3333333,-1.333004)"
           clip-path="url(#clipPath7053)"
           id="path7054" />
      </g>
      <g
         id="g7057"
         clip-path="url(#clipPath7058)"
         transform="matrix(0.26458333,0,0,0.26458333,36.107513,-78.137447)">
        <path
           d="m 328.113,-618.532 0.254,-0.707 0.75,-0.023 -0.59,-0.462 0.207,-0.718 -0.621,0.418 -0.621,-0.418 0.211,0.718 -0.594,0.462 0.75,0.023 z"
           style="fill:#ffffff;fill-opacity:1;fill-rule:nonzero;stroke:#009640;stroke-width:0.101038;stroke-linecap:butt;stroke-linejoin:miter;stroke-miterlimit:4;stroke-dasharray:none;stroke-opacity:1"
           transform="scale(1.3333333,-1.333004)"
           clip-path="url(#clipPath7056)"
           id="path7057" />
      </g>
      <g
         id="g7060"
         clip-path="url(#clipPath7061)"
         transform="matrix(0.26458333,0,0,0.26458333,36.107513,-78.137447)">
        <path
           d="m 328.113,-620.939 0.254,-0.707 0.75,-0.023 -0.59,-0.461 0.207,-0.719 -0.621,0.422 -0.621,-0.422 0.211,0.719 -0.594,0.461 0.75,0.023 z"
           style="fill:#ffffff;fill-opacity:1;fill-rule:nonzero;stroke:#009640;stroke-width:0.101038;stroke-linecap:butt;stroke-linejoin:miter;stroke-miterlimit:4;stroke-dasharray:none;stroke-opacity:1"
           transform="scale(1.3333333,-1.333004)"
           clip-path="url(#clipPath7059)"
           id="path7060" />
      </g>
      <g
         id="g7063"
         clip-path="url(#clipPath7064)"
         transform="matrix(0.26458333,0,0,0.26458333,36.107513,-78.137447)">
        <path
           d="m 335.613,-607.896 c 0,-2.083 -1.683,-3.771 -3.765,-3.771 -2.082,0 -3.77,1.688 -3.77,3.771 0,2.078 1.688,3.766 3.77,3.766 2.082,0 3.765,-1.688 3.765,-3.766"
           style="fill:#009641;fill-opacity:1;fill-rule:nonzero;stroke:#009641;stroke-width:0.202076;stroke-linecap:butt;stroke-linejoin:miter;stroke-miterlimit:4;stroke-dasharray:none;stroke-opacity:1"
           transform="scale(1.3333333,-1.333004)"
           clip-path="url(#clipPath7062)"
           id="path7063" />
      </g>
      <g
         id="g7066"
         clip-path="url(#clipPath7067)"
         transform="matrix(0.26458333,0,0,0.26458333,36.107513,-78.137447)">
        <path
           d="m 332.211,604.188 c 0.816,0 2.07,0.519 2.07,1.171 0,0.653 -0.902,0.832 -1.195,0.832 -0.293,0 -1.688,-0.562 -1.688,-1.304 0,-0.563 0.582,-0.699 0.813,-0.699"
           style="fill:#ffffff;fill-opacity:1;fill-rule:nonzero;stroke:none"
           transform="scale(1.3333333)"
           clip-path="url(#clipPath7065)"
           id="path7066" />
      </g>
      <g
         id="g7069"
         clip-path="url(#clipPath7070)"
         transform="matrix(0.26458333,0,0,0.26458333,36.107513,-78.137447)">
        <path
           d="m 334.551,605.605 c 0.199,0 0.945,0.629 0.945,1.938 0,0.359 -0.18,0.492 -0.473,0.492 -0.293,0 -1.015,-0.426 -1.015,-1.508 0,-0.468 0.113,-0.922 0.543,-0.922"
           style="fill:#ffffff;fill-opacity:1;fill-rule:nonzero;stroke:none"
           transform="scale(1.3333333)"
           clip-path="url(#clipPath7068)"
           id="path7069" />
      </g>
      <g
         id="g7072"
         clip-path="url(#clipPath7073)"
         transform="matrix(0.26458333,0,0,0.26458333,36.107513,-78.137447)">
        <path
           d="m 334.281,608.035 c 0.336,0 1.078,0.102 1.078,0.496 0,0.395 -0.679,2.16 -1.566,2.16 -0.887,0 -0.75,-0.812 -0.637,-1.195 0.11,-0.379 0.383,-1.461 1.125,-1.461"
           style="fill:#ffffff;fill-opacity:1;fill-rule:nonzero;stroke:none"
           transform="scale(1.3333333)"
           clip-path="url(#clipPath7071)"
           id="path7072" />
      </g>
      <g
         id="g7075"
         clip-path="url(#clipPath7076)"
         transform="matrix(0.26458333,0,0,0.26458333,36.107513,-78.137447)">
        <path
           d="m 331.738,607.922 c 0.676,0 1.336,0.543 1.336,1.191 0,0.653 -0.148,1.442 -1.226,1.442 -1.078,0 -1.485,-0.743 -1.485,-1.442 0,-0.695 0.61,-1.191 1.375,-1.191"
           style="fill:#ffffff;fill-opacity:1;fill-rule:nonzero;stroke:none"
           transform="scale(1.3333333)"
           clip-path="url(#clipPath7074)"
           id="path7075" />
      </g>
      <g
         id="g7078"
         clip-path="url(#clipPath7079)"
         transform="matrix(0.26458333,0,0,0.26458333,36.107513,-78.137447)">
        <path
           d="m 329.711,609.68 c 0.402,-0.047 1.418,0.746 1.418,1.258 0,0.511 -0.988,0.089 -1.371,-0.247 -0.383,-0.339 -1.473,-0.855 -0.047,-1.011"
           style="fill:#ffffff;fill-opacity:1;fill-rule:nonzero;stroke:none"
           transform="scale(1.3333333)"
           clip-path="url(#clipPath7077)"
           id="path7078" />
      </g>
      <g
         id="g7081"
         clip-path="url(#clipPath7082)"
         transform="matrix(0.26458333,0,0,0.26458333,36.107513,-78.137447)">
        <path
           d="m 329.117,605.426 c 0.551,0 0.403,0.586 0.375,0.719 -0.023,0.128 -0.16,1.484 -1.207,1.484 -0.465,0 0.285,-2.203 0.832,-2.203"
           style="fill:#ffffff;fill-opacity:1;fill-rule:nonzero;stroke:none"
           transform="scale(1.3333333)"
           clip-path="url(#clipPath7080)"
           id="path7081" />
      </g>
      <g
         id="g7084"
         clip-path="url(#clipPath7085)"
         transform="matrix(0.26458333,0,0,0.26458333,36.107513,-78.137447)">
        <path
           d="m 330.793,605.191 c 0.449,0 1.508,0.664 1.508,1.473 0,0.809 -0.766,1.258 -1.508,1.258 -0.742,0 -1.231,-0.777 -1.231,-1.395 0,-0.613 0.547,-1.336 1.231,-1.336"
           style="fill:#ffffff;fill-opacity:1;fill-rule:nonzero;stroke:none"
           transform="scale(1.3333333)"
           clip-path="url(#clipPath7083)"
           id="path7084" />
      </g>
      <g
         id="g7087"
         clip-path="url(#clipPath7088)"
         transform="matrix(0.26458333,0,0,0.26458333,36.107513,-78.137447)">
        <path
           d="m 329.117,608.934 c 0,0.586 -0.055,1.011 -0.265,0.902 -0.211,-0.109 -0.489,-0.57 -0.582,-0.902 -0.09,-0.329 -0.25,-1.227 0,-1.184 0.25,0.039 0.847,0.418 0.847,1.184"
           style="fill:#ffffff;fill-opacity:1;fill-rule:nonzero;stroke:none"
           transform="scale(1.3333333)"
           clip-path="url(#clipPath7086)"
           id="path7087" />
      </g>
      <g
         id="g7090"
         clip-path="url(#clipPath7091)"
         transform="matrix(0.26458333,0,0,0.26458333,36.107513,-78.137447)">
        <path
           d="m 330.883,605.809 c 0.226,0 0.047,0.246 0.055,0.586 0.011,0.335 0.011,0.515 0.191,0.582 0.18,0.07 0.316,0.519 0,0.453 -0.313,-0.071 -0.629,-0.317 -0.676,-0.496 -0.043,-0.18 0,-0.383 0.07,-0.629 0.067,-0.25 -0.171,-0.496 0.36,-0.496"
           style="fill:#009641;fill-opacity:1;fill-rule:nonzero;stroke:none"
           transform="scale(1.3333333)"
           clip-path="url(#clipPath7089)"
           id="path7090" />
      </g>
      <g
         id="g7093"
         clip-path="url(#clipPath7094)"
         transform="matrix(0.26458333,0,0,0.26458333,36.107513,-78.137447)">
        <path
           d="m 334.934,606.32 c 0.16,-0.054 0.265,0.403 0.179,0.649 -0.082,0.25 -0.097,0.672 -0.179,0.66 -0.082,-0.008 -0.075,-0.328 -0.18,-0.52 -0.109,-0.195 -0.332,-0.297 -0.402,-0.488 -0.071,-0.191 -0.149,-0.406 -0.137,-0.43 0.012,-0.023 0.25,-0.113 0.262,0 0.011,0.082 0.046,0.399 0.203,0.336 0.074,-0.027 0.129,-0.168 0.254,-0.207"
           style="fill:#009641;fill-opacity:1;fill-rule:nonzero;stroke:none"
           transform="scale(1.3333333)"
           clip-path="url(#clipPath7092)"
           id="path7093" />
      </g>
      <g
         id="g7096"
         clip-path="url(#clipPath7097)"
         transform="matrix(0.26458333,0,0,0.26458333,36.107513,-78.137447)">
        <path
           d="m 333.793,608.465 c 0.168,-0.082 0.199,0.152 0.309,0.207 0.089,0.043 0.277,-0.141 0.418,0 0.125,0.125 0.042,0.527 0,0.762 -0.043,0.238 0.027,0.554 -0.153,0.554 -0.179,0 -0.051,-0.539 -0.179,-0.566 -0.126,-0.027 -0.204,-0.293 -0.18,-0.418 0.027,-0.125 -0.086,-0.203 -0.153,-0.203 -0.07,-0.004 -0.207,-0.266 -0.062,-0.336"
           style="fill:#009641;fill-opacity:1;fill-rule:nonzero;stroke:none"
           transform="scale(1.3333333)"
           clip-path="url(#clipPath7095)"
           id="path7096" />
      </g>
      <g
         id="g7099"
         clip-path="url(#clipPath7100)"
         transform="matrix(0.26458333,0,0,0.26458333,36.107513,-78.137447)">
        <path
           d="m 331.398,608.895 c 0.157,0 0.614,0.218 0.723,0.343 0.113,0.129 0.527,0.473 0.516,0.543 -0.016,0.071 -0.293,0.043 -0.571,0 -0.277,-0.043 -0.531,-0.293 -0.668,-0.222 -0.136,0.07 -0.3,0.179 -0.355,0.117 -0.059,-0.063 0.078,-0.067 0.086,-0.313 0.012,-0.246 0.055,-0.468 0.269,-0.468"
           style="fill:#009641;fill-opacity:1;fill-rule:nonzero;stroke:none"
           transform="scale(1.3333333)"
           clip-path="url(#clipPath7098)"
           id="path7099" />
      </g>
      <g
         id="g7102"
         clip-path="url(#clipPath7103)"
         transform="matrix(0.26458333,0,0,0.26458333,36.107513,-78.137447)">
        <path
           d="m 313.082,611.48 0.266,-1.312 0.535,0.105 -0.113,0.539 0.507,0.106 0.098,-0.48 0.508,0.101 -0.098,0.481 1.121,0.226 -0.16,0.777 z"
           style="fill:#ffffff;fill-opacity:1;fill-rule:nonzero;stroke:none"
           transform="scale(1.3333333)"
           clip-path="url(#clipPath7101)"
           id="path7102" />
      </g>
      <g
         id="g7105"
         clip-path="url(#clipPath7106)"
         transform="matrix(0.26458333,0,0,0.26458333,36.107513,-78.137447)">
        <path
           d="m 313.496,609.637 0.422,-1.25 0.516,0.172 -0.168,0.5 0.488,0.168 0.16,-0.469 0.488,0.164 -0.156,0.469 0.566,0.191 0.184,-0.551 0.52,0.172 -0.442,1.305 z"
           style="fill:#ffffff;fill-opacity:1;fill-rule:nonzero;stroke:none"
           transform="scale(1.3333333)"
           clip-path="url(#clipPath7104)"
           id="path7105" />
      </g>
      <g
         id="g7108"
         clip-path="url(#clipPath7109)"
         transform="matrix(0.26458333,0,0,0.26458333,36.107513,-78.137447)">
        <path
           d="m 314.945,607.254 1.594,0.816 c 0.055,-0.105 0.066,-0.175 0.043,-0.218 -0.027,-0.043 -0.117,-0.102 -0.281,-0.188 l -0.942,-0.48 c -0.109,-0.055 -0.179,-0.086 -0.214,-0.094 -0.036,-0.008 -0.067,-0.004 -0.098,0.015 -0.027,0.024 -0.063,0.071 -0.102,0.149 m -0.777,0.492 0.273,-0.527 c 0.172,-0.34 0.305,-0.563 0.395,-0.668 0.09,-0.11 0.18,-0.176 0.277,-0.207 0.098,-0.028 0.188,-0.032 0.274,-0.008 0.086,0.023 0.242,0.098 0.472,0.215 l 0.848,0.433 c 0.219,0.11 0.359,0.196 0.422,0.258 0.059,0.059 0.098,0.129 0.109,0.207 0.012,0.078 0.004,0.164 -0.019,0.254 -0.028,0.094 -0.082,0.223 -0.172,0.391 l -0.453,0.89 z"
           style="fill:#ffffff;fill-opacity:1;fill-rule:nonzero;stroke:none"
           transform="scale(1.3333333)"
           clip-path="url(#clipPath7107)"
           id="path7108" />
      </g>
      <g
         id="g7111"
         clip-path="url(#clipPath7112)"
         transform="matrix(0.26458333,0,0,0.26458333,36.107513,-78.137447)">
        <path
           d="m 315.387,605.527 0.765,-1.078 0.446,0.317 -0.309,0.429 0.422,0.301 0.289,-0.402 0.418,0.301 -0.285,0.402 0.488,0.348 0.336,-0.477 0.445,0.316 -0.797,1.121 z"
           style="fill:#ffffff;fill-opacity:1;fill-rule:nonzero;stroke:none"
           transform="scale(1.3333333)"
           clip-path="url(#clipPath7110)"
           id="path7111" />
      </g>
      <g
         id="g7114"
         clip-path="url(#clipPath7115)"
         transform="matrix(0.26458333,0,0,0.26458333,36.107513,-78.137447)">
        <path
           d="m 317.457,603.668 0.438,0.418 c 0.062,-0.066 0.097,-0.117 0.105,-0.16 0.008,-0.039 -0.031,-0.102 -0.117,-0.184 l -0.106,-0.105 c -0.062,-0.059 -0.117,-0.086 -0.16,-0.078 -0.043,0.003 -0.097,0.043 -0.16,0.109 m -0.883,0.25 0.387,-0.406 c 0.258,-0.27 0.441,-0.442 0.551,-0.52 0.113,-0.078 0.234,-0.113 0.367,-0.097 0.133,0.011 0.285,0.097 0.453,0.257 0.152,0.145 0.238,0.266 0.25,0.36 0.012,0.093 -0.039,0.207 -0.148,0.34 0.136,-0.086 0.242,-0.133 0.32,-0.129 0.078,0 0.141,0.011 0.187,0.035 0.043,0.027 0.145,0.113 0.305,0.265 l 0.52,0.497 -0.512,0.531 -0.652,-0.625 c -0.106,-0.102 -0.18,-0.153 -0.223,-0.16 -0.043,-0.004 -0.102,0.031 -0.176,0.113 l 0.887,0.848 -0.547,0.57 z"
           style="fill:#ffffff;fill-opacity:1;fill-rule:nonzero;stroke:none"
           transform="scale(1.3333333)"
           clip-path="url(#clipPath7113)"
           id="path7114" />
      </g>
      <g
         id="g7117"
         clip-path="url(#clipPath7118)"
         transform="matrix(0.26458333,0,0,0.26458333,36.107513,-78.137447)">
        <path
           d="m 320.16,602.969 c -0.219,-0.219 -0.48,-0.5 -0.789,-0.836 0.254,0.465 0.445,0.797 0.574,1 z m -0.726,-1.645 2.011,1.887 -0.644,0.492 -0.328,-0.363 -0.227,0.172 0.258,0.418 -0.652,0.496 -1.329,-2.406 z"
           style="fill:#ffffff;fill-opacity:1;fill-rule:nonzero;stroke:none"
           transform="scale(1.3333333)"
           clip-path="url(#clipPath7116)"
           id="path7117" />
      </g>
      <g
         id="g7120"
         clip-path="url(#clipPath7121)"
         transform="matrix(0.26458333,0,0,0.26458333,36.107513,-78.137447)">
        <path
           d="m 321.434,600.105 0.269,0.473 -0.406,0.234 1.086,1.887 -0.688,0.395 -1.086,-1.887 -0.406,0.234 -0.269,-0.472 z"
           style="fill:#ffffff;fill-opacity:1;fill-rule:nonzero;stroke:none"
           transform="scale(1.3333333)"
           clip-path="url(#clipPath7119)"
           id="path7120" />
      </g>
      <g
         id="g7123"
         clip-path="url(#clipPath7124)"
         transform="matrix(0.26458333,0,0,0.26458333,36.107513,-78.137447)">
        <path
           d="m 322.637,599.586 1.078,2.496 -0.731,0.313 -1.074,-2.497 z"
           style="fill:#ffffff;fill-opacity:1;fill-rule:nonzero;stroke:none"
           transform="scale(1.3333333)"
           clip-path="url(#clipPath7122)"
           id="path7123" />
      </g>
      <g
         id="g7126"
         clip-path="url(#clipPath7127)"
         transform="matrix(0.26458333,0,0,0.26458333,36.107513,-78.137447)">
        <path
           d="m 324.441,599.719 c -0.035,-0.125 -0.062,-0.199 -0.086,-0.231 -0.027,-0.027 -0.062,-0.035 -0.109,-0.023 -0.039,0.012 -0.066,0.035 -0.082,0.066 -0.012,0.035 0,0.121 0.039,0.254 l 0.352,1.223 c 0.043,0.152 0.074,0.242 0.097,0.273 0.028,0.031 0.063,0.039 0.114,0.028 0.05,-0.016 0.082,-0.047 0.082,-0.09 0.004,-0.047 -0.016,-0.145 -0.063,-0.301 z m 1.012,0.64 c 0.074,0.262 0.121,0.45 0.137,0.563 0.015,0.113 0.004,0.226 -0.047,0.34 -0.047,0.109 -0.125,0.207 -0.234,0.293 -0.11,0.082 -0.25,0.148 -0.414,0.195 -0.157,0.047 -0.305,0.062 -0.442,0.051 -0.141,-0.008 -0.258,-0.047 -0.359,-0.117 -0.106,-0.071 -0.18,-0.161 -0.223,-0.262 -0.047,-0.106 -0.105,-0.289 -0.183,-0.559 l -0.129,-0.449 c -0.075,-0.262 -0.121,-0.449 -0.137,-0.562 -0.02,-0.114 -0.004,-0.227 0.043,-0.336 0.047,-0.114 0.125,-0.211 0.238,-0.293 0.109,-0.086 0.246,-0.153 0.414,-0.2 0.156,-0.043 0.305,-0.062 0.442,-0.05 0.136,0.007 0.257,0.05 0.359,0.121 0.102,0.066 0.176,0.152 0.223,0.258 0.043,0.105 0.105,0.289 0.183,0.558 z"
           style="fill:#ffffff;fill-opacity:1;fill-rule:nonzero;stroke:none"
           transform="scale(1.3333333)"
           clip-path="url(#clipPath7125)"
           id="path7126" />
      </g>
      <g
         id="g7129"
         clip-path="url(#clipPath7130)"
         transform="matrix(0.26458333,0,0,0.26458333,36.107513,-78.137447)">
        <path
           d="m 327.496,598.484 0.309,2.704 -0.692,0.078 -0.551,-1.18 0.141,1.226 -0.656,0.079 -0.313,-2.703 0.661,-0.079 0.582,1.168 -0.141,-1.218 z"
           style="fill:#ffffff;fill-opacity:1;fill-rule:nonzero;stroke:none"
           transform="scale(1.3333333)"
           clip-path="url(#clipPath7128)"
           id="path7129" />
      </g>
      <g
         id="g7132"
         clip-path="url(#clipPath7133)"
         transform="matrix(0.26458333,0,0,0.26458333,36.107513,-78.137447)">
        <path
           d="m 330.059,599.039 -0.211,1.777 c 0.113,0.016 0.187,0 0.218,-0.035 0.032,-0.039 0.055,-0.148 0.079,-0.328 l 0.121,-1.051 c 0.015,-0.121 0.019,-0.199 0.015,-0.234 -0.004,-0.035 -0.023,-0.063 -0.051,-0.086 -0.027,-0.02 -0.085,-0.031 -0.171,-0.043 m -0.735,-0.555 0.59,0.071 c 0.379,0.043 0.633,0.09 0.766,0.136 0.129,0.047 0.226,0.11 0.289,0.188 0.058,0.082 0.093,0.164 0.101,0.254 0.008,0.09 -0.004,0.262 -0.035,0.519 l -0.109,0.946 c -0.031,0.242 -0.063,0.402 -0.098,0.484 -0.035,0.078 -0.086,0.137 -0.156,0.176 -0.067,0.039 -0.149,0.058 -0.246,0.066 -0.098,0.008 -0.238,0 -0.426,-0.019 l -0.992,-0.117 z"
           style="fill:#ffffff;fill-opacity:1;fill-rule:nonzero;stroke:none"
           transform="scale(1.3333333)"
           clip-path="url(#clipPath7131)"
           id="path7132" />
      </g>
      <g
         id="g7135"
         clip-path="url(#clipPath7136)"
         transform="matrix(0.26458333,0,0,0.26458333,36.107513,-78.137447)">
        <path
           d="m 331.832,598.852 1.277,0.343 -0.14,0.528 -0.512,-0.141 -0.137,0.5 0.481,0.129 -0.137,0.5 -0.476,-0.129 -0.157,0.578 0.563,0.152 -0.145,0.524 -1.324,-0.359 z"
           style="fill:#ffffff;fill-opacity:1;fill-rule:nonzero;stroke:none"
           transform="scale(1.3333333)"
           clip-path="url(#clipPath7134)"
           id="path7135" />
      </g>
      <g
         id="g7138"
         clip-path="url(#clipPath7139)"
         transform="matrix(0.26458333,0,0,0.26458333,36.107513,-78.137447)">
        <path
           d="m 334.953,599.918 1.192,0.613 -0.247,0.489 -0.492,-0.254 -0.234,0.461 0.433,0.222 -0.234,0.461 -0.437,-0.226 -0.524,1.015 -0.703,-0.363 z"
           style="fill:#ffffff;fill-opacity:1;fill-rule:nonzero;stroke:none"
           transform="scale(1.3333333)"
           clip-path="url(#clipPath7137)"
           id="path7138" />
      </g>
      <g
         id="g7141"
         clip-path="url(#clipPath7142)"
         transform="matrix(0.26458333,0,0,0.26458333,36.107513,-78.137447)">
        <path
           d="m 337.078,601.992 c 0.074,-0.105 0.117,-0.176 0.125,-0.215 0.008,-0.035 -0.012,-0.07 -0.051,-0.097 -0.035,-0.024 -0.066,-0.032 -0.101,-0.02 -0.035,0.012 -0.09,0.07 -0.172,0.188 l -0.738,1.035 c -0.094,0.129 -0.141,0.211 -0.153,0.25 -0.008,0.039 0.008,0.074 0.051,0.101 0.043,0.032 0.082,0.036 0.121,0.008 0.035,-0.023 0.102,-0.101 0.195,-0.234 z m 0.129,1.188 c -0.156,0.222 -0.277,0.375 -0.355,0.457 -0.079,0.086 -0.172,0.144 -0.29,0.179 -0.117,0.032 -0.242,0.032 -0.378,-0.004 -0.133,-0.035 -0.27,-0.101 -0.411,-0.199 -0.132,-0.097 -0.238,-0.199 -0.316,-0.312 -0.078,-0.117 -0.121,-0.235 -0.133,-0.36 -0.008,-0.121 0.012,-0.234 0.067,-0.336 0.054,-0.097 0.16,-0.261 0.324,-0.488 l 0.269,-0.383 c 0.157,-0.222 0.274,-0.375 0.352,-0.461 0.078,-0.082 0.176,-0.14 0.293,-0.171 0.117,-0.036 0.242,-0.036 0.375,0 0.137,0.035 0.273,0.101 0.414,0.199 0.133,0.094 0.238,0.199 0.316,0.316 0.078,0.113 0.121,0.231 0.133,0.356 0.008,0.121 -0.015,0.234 -0.066,0.332 -0.055,0.101 -0.16,0.265 -0.324,0.496 z"
           style="fill:#ffffff;fill-opacity:1;fill-rule:nonzero;stroke:none"
           transform="scale(1.3333333)"
           clip-path="url(#clipPath7140)"
           id="path7141" />
      </g>
      <g
         id="g7144"
         clip-path="url(#clipPath7145)"
         transform="matrix(0.26458333,0,0,0.26458333,36.107513,-78.137447)">
        <path
           d="m 338.922,603.566 c 0.09,-0.089 0.14,-0.152 0.152,-0.187 0.016,-0.035 0.004,-0.07 -0.031,-0.106 -0.027,-0.031 -0.063,-0.043 -0.098,-0.039 -0.035,0.004 -0.101,0.059 -0.199,0.157 l -0.898,0.902 c -0.11,0.113 -0.172,0.187 -0.188,0.223 -0.019,0.039 -0.008,0.074 0.031,0.113 0.039,0.035 0.079,0.047 0.118,0.027 0.043,-0.019 0.117,-0.086 0.23,-0.203 z m -0.067,1.196 c -0.195,0.191 -0.335,0.324 -0.425,0.394 -0.09,0.071 -0.196,0.114 -0.317,0.125 -0.121,0.016 -0.242,-0.004 -0.371,-0.062 -0.129,-0.055 -0.25,-0.141 -0.375,-0.262 -0.113,-0.117 -0.203,-0.238 -0.262,-0.363 -0.058,-0.125 -0.082,-0.25 -0.07,-0.371 0.012,-0.125 0.051,-0.231 0.117,-0.321 0.071,-0.09 0.203,-0.234 0.399,-0.433 l 0.328,-0.332 c 0.195,-0.192 0.336,-0.325 0.426,-0.395 0.09,-0.07 0.195,-0.113 0.316,-0.129 0.121,-0.011 0.242,0.012 0.371,0.067 0.125,0.054 0.25,0.14 0.375,0.261 0.113,0.118 0.203,0.239 0.262,0.364 0.059,0.125 0.082,0.25 0.07,0.371 -0.011,0.125 -0.051,0.23 -0.117,0.32 -0.07,0.09 -0.203,0.234 -0.398,0.434 z"
           style="fill:#ffffff;fill-opacity:1;fill-rule:nonzero;stroke:none"
           transform="scale(1.3333333)"
           clip-path="url(#clipPath7143)"
           id="path7144" />
      </g>
      <g
         id="g7147"
         clip-path="url(#clipPath7148)"
         transform="matrix(0.26458333,0,0,0.26458333,36.107513,-78.137447)">
        <path
           d="m 341.383,605.461 -0.438,0.324 -0.277,-0.379 -1.75,1.297 -0.473,-0.637 1.75,-1.296 -0.281,-0.375 0.438,-0.325 z"
           style="fill:#ffffff;fill-opacity:1;fill-rule:nonzero;stroke:none"
           transform="scale(1.3333333)"
           clip-path="url(#clipPath7146)"
           id="path7147" />
      </g>
      <g
         id="g7150"
         clip-path="url(#clipPath7151)"
         transform="matrix(0.26458333,0,0,0.26458333,36.107513,-78.137447)">
        <path
           d="m 341.664,606.883 -0.535,0.281 c 0.016,0.031 0.027,0.055 0.035,0.07 0.039,0.071 0.078,0.106 0.117,0.11 0.039,0 0.133,-0.035 0.274,-0.11 0.074,-0.039 0.125,-0.074 0.144,-0.105 0.024,-0.035 0.031,-0.063 0.028,-0.094 -0.004,-0.027 -0.028,-0.078 -0.063,-0.152 m -0.91,0.48 -0.676,0.356 c 0.055,0.097 0.102,0.152 0.141,0.168 0.039,0.011 0.109,-0.008 0.207,-0.059 l 0.222,-0.117 c 0.106,-0.055 0.161,-0.098 0.168,-0.137 0.012,-0.035 -0.011,-0.105 -0.062,-0.211 m 0.949,-1.398 0.371,0.699 c 0.117,0.223 0.188,0.398 0.219,0.527 0.027,0.129 0.016,0.254 -0.043,0.375 -0.055,0.118 -0.188,0.231 -0.395,0.344 -0.144,0.074 -0.253,0.098 -0.335,0.078 -0.079,-0.019 -0.176,-0.093 -0.282,-0.222 0.055,0.179 0.059,0.316 0.012,0.414 -0.047,0.097 -0.148,0.187 -0.305,0.269 l -0.222,0.117 c -0.164,0.086 -0.293,0.129 -0.395,0.129 -0.101,0 -0.187,-0.039 -0.266,-0.113 -0.078,-0.078 -0.187,-0.254 -0.335,-0.539 l -0.43,-0.809 z"
           style="fill:#ffffff;fill-opacity:1;fill-rule:nonzero;stroke:none"
           transform="scale(1.3333333)"
           clip-path="url(#clipPath7149)"
           id="path7150" />
      </g>
      <g
         id="g7153"
         clip-path="url(#clipPath7154)"
         transform="matrix(0.26458333,0,0,0.26458333,36.107513,-78.137447)">
        <path
           d="m 341.484,609.719 c 0.278,-0.133 0.629,-0.293 1.043,-0.477 -0.519,0.09 -0.894,0.16 -1.129,0.219 z m 1.793,-0.16 -2.433,1.296 -0.262,-0.765 0.453,-0.195 -0.094,-0.27 -0.476,0.109 -0.262,-0.777 2.707,-0.484 z"
           style="fill:#ffffff;fill-opacity:1;fill-rule:nonzero;stroke:none"
           transform="scale(1.3333333)"
           clip-path="url(#clipPath7152)"
           id="path7153" />
      </g>
      <g
         id="g7156"
         clip-path="url(#clipPath7157)"
         transform="matrix(0.26458333,0,0,0.26458333,36.107513,-78.137447)">
        <path
           d="m 343.672,611.27 -2.137,0.41 0.09,0.472 -0.535,0.106 -0.238,-1.254 2.671,-0.512 z"
           style="fill:#ffffff;fill-opacity:1;fill-rule:nonzero;stroke:none"
           transform="scale(1.3333333)"
           clip-path="url(#clipPath7155)"
           id="path7156" />
      </g>
      <g
         id="g7159"
         clip-path="url(#clipPath7160)"
         transform="matrix(0.26458333,0,0,0.26458333,36.107513,-78.137447)">
        <path
           d="m 343.883,613.066 -2.172,0.157 0.035,0.48 -0.543,0.039 -0.09,-1.269 2.715,-0.2 z"
           style="fill:#ffffff;fill-opacity:1;fill-rule:nonzero;stroke:none"
           transform="scale(1.3333333)"
           clip-path="url(#clipPath7158)"
           id="path7159" />
      </g>
    </g>
  </g>
</svg>
