<?xml version="1.0" encoding="UTF-8" standalone="no"?>
<!-- Created with Inkscape (http://www.inkscape.org/) -->

<svg
   width="191.37495"
   height="214"
   viewBox="0 0 50.634623 56.620833"
   version="1.1"
   id="svg1"
   inkscape:version="1.3.2 (091e20e, 2023-11-25, custom)"
   sodipodi:docname="drawing-5.svg"
   xmlns:inkscape="http://www.inkscape.org/namespaces/inkscape"
   xmlns:sodipodi="http://sodipodi.sourceforge.net/DTD/sodipodi-0.dtd"
   xmlns="http://www.w3.org/2000/svg"
   xmlns:svg="http://www.w3.org/2000/svg">
  <sodipodi:namedview
     id="namedview1"
     pagecolor="#ffffff"
     bordercolor="#000000"
     borderopacity="0.25"
     inkscape:showpageshadow="2"
     inkscape:pageopacity="0.0"
     inkscape:pagecheckerboard="0"
     inkscape:deskcolor="#d1d1d1"
     inkscape:document-units="mm"
     inkscape:zoom="2.0952862"
     inkscape:cx="90.202475"
     inkscape:cy="126.95163"
     inkscape:window-width="2560"
     inkscape:window-height="1476"
     inkscape:window-x="-12"
     inkscape:window-y="-12"
     inkscape:window-maximized="1"
     inkscape:current-layer="g1439" />
  <defs
     id="defs1">
    <clipPath
       clipPathUnits="userSpaceOnUse"
       id="clipPath1441">
      <path
         d="m 243.051,464.605 h 27.033 v 37.464 h -27.033 z"
         transform="translate(-266.27761,-494.56711)"
         id="path1441" />
    </clipPath>
    <clipPath
       clipPathUnits="userSpaceOnUse"
       id="clipPath1443">
      <path
         d="m 243.051,464.605 h 27.033 v 37.464 h -27.033 z"
         transform="translate(-258.8236,-496.76291)"
         id="path1443" />
    </clipPath>
    <clipPath
       clipPathUnits="userSpaceOnUse"
       id="clipPath1445">
      <path
         d="m 243.051,468.224 h 27.033 v 30.227 h -27.033 z"
         transform="translate(-269.08621,-493.73971)"
         id="path1445" />
    </clipPath>
    <clipPath
       clipPathUnits="userSpaceOnUse"
       id="clipPath1447">
      <path
         d="m 243.051,468.224 h 27.033 v 30.227 h -27.033 z"
         transform="translate(-246.02011,-481.38401)"
         id="path1447" />
    </clipPath>
    <radialGradient
       fx="-0.037428599"
       fy="0.0312512"
       cx="0"
       cy="0"
       r="1"
       gradientUnits="userSpaceOnUse"
       gradientTransform="matrix(13.148054,-15.137251,-15.137251,-13.148054,246.15464,500.04691)"
       spreadMethod="pad"
       id="radialGradient1449">
      <stop
         style="stop-opacity:1;stop-color:#231f20"
         offset="0"
         id="stop1447" />
      <stop
         style="stop-opacity:1;stop-color:#231f20"
         offset="0.135255"
         id="stop1448" />
      <stop
         style="stop-opacity:1;stop-color:#ffffff"
         offset="1"
         id="stop1449" />
    </radialGradient>
    <clipPath
       clipPathUnits="userSpaceOnUse"
       id="clipPath1451">
      <path
         d="m 243.051,468.224 h 27.033 v 30.227 h -27.033 z"
         transform="translate(-256.56891,-469.28931)"
         id="path1451" />
    </clipPath>
    <clipPath
       clipPathUnits="userSpaceOnUse"
       id="clipPath1453">
      <path
         d="m 243.051,464.605 h 27.033 v 37.464 h -27.033 z"
         transform="translate(-258.09721,-482.96891)"
         id="path1453" />
    </clipPath>
    <clipPath
       clipPathUnits="userSpaceOnUse"
       id="clipPath1455">
      <path
         d="m 243.051,464.605 h 27.033 v 37.464 h -27.033 z"
         transform="translate(-259.54071,-483.70891)"
         id="path1455" />
    </clipPath>
    <radialGradient
       fx="0"
       fy="0"
       cx="0"
       cy="0"
       r="1"
       gradientUnits="userSpaceOnUse"
       gradientTransform="matrix(6.7438374,-2.2802854,-2.2802854,-6.7438374,249.84002,478.21439)"
       spreadMethod="pad"
       id="radialGradient1457">
      <stop
         style="stop-opacity:1;stop-color:#231f20"
         offset="0"
         id="stop1455" />
      <stop
         style="stop-opacity:1;stop-color:#231f20"
         offset="0.135255"
         id="stop1456" />
      <stop
         style="stop-opacity:1;stop-color:#ffffff"
         offset="1"
         id="stop1457" />
    </radialGradient>
    <clipPath
       clipPathUnits="userSpaceOnUse"
       id="clipPath1459">
      <path
         d="m 243.051,464.605 h 27.033 v 37.464 h -27.033 z"
         transform="translate(-261.74811,-475.74011)"
         id="path1459" />
    </clipPath>
    <clipPath
       clipPathUnits="userSpaceOnUse"
       id="clipPath1461">
      <path
         d="m 243.051,464.605 h 27.033 v 37.464 h -27.033 z"
         transform="translate(-259.9669,-473.62191)"
         id="path1461" />
    </clipPath>
    <clipPath
       clipPathUnits="userSpaceOnUse"
       id="clipPath1463">
      <path
         d="m 243.051,464.605 h 27.033 v 37.464 h -27.033 z"
         transform="translate(-256.56891,-487.44611)"
         id="path1463" />
    </clipPath>
    <clipPath
       clipPathUnits="userSpaceOnUse"
       id="clipPath1465">
      <path
         d="m 243.051,464.605 h 27.033 v 37.464 h -27.033 z"
         transform="translate(-252.7288,-479.57251)"
         id="path1465" />
    </clipPath>
    <clipPath
       clipPathUnits="userSpaceOnUse"
       id="clipPath1467">
      <path
         d="m 243.051,464.605 h 27.033 v 37.464 h -27.033 z"
         transform="translate(-253.40331,-488.99721)"
         id="path1467" />
    </clipPath>
    <clipPath
       clipPathUnits="userSpaceOnUse"
       id="clipPath1469">
      <path
         d="m 243.051,464.605 h 27.033 v 37.464 h -27.033 z"
         transform="translate(-263.03391,-481.52561)"
         id="path1469" />
    </clipPath>
    <clipPath
       clipPathUnits="userSpaceOnUse"
       id="clipPath1471">
      <path
         d="m 243.051,464.605 h 27.033 v 37.464 h -27.033 z"
         transform="translate(-257.57571,-483.75741)"
         id="path1471" />
    </clipPath>
    <clipPath
       clipPathUnits="userSpaceOnUse"
       id="clipPath1473">
      <path
         d="m 243.051,464.605 h 27.033 v 37.464 h -27.033 z"
         transform="translate(-257.74551,-480.09451)"
         id="path1473" />
    </clipPath>
    <clipPath
       clipPathUnits="userSpaceOnUse"
       id="clipPath1475">
      <path
         d="m 243.051,464.605 h 27.033 v 37.464 h -27.033 z"
         transform="translate(-255.92101,-482.71011)"
         id="path1475" />
    </clipPath>
    <clipPath
       clipPathUnits="userSpaceOnUse"
       id="clipPath1477">
      <path
         d="m 243.051,464.605 h 27.033 v 37.464 h -27.033 z"
         transform="translate(-254.14321,-480.19141)"
         id="path1477" />
    </clipPath>
    <clipPath
       clipPathUnits="userSpaceOnUse"
       id="clipPath1479">
      <path
         d="m 243.051,464.605 h 27.033 v 37.464 h -27.033 z"
         transform="translate(-252.9181,-483.34501)"
         id="path1479" />
    </clipPath>
    <clipPath
       clipPathUnits="userSpaceOnUse"
       id="clipPath1481">
      <path
         d="m 243.051,464.605 h 27.033 v 37.464 h -27.033 z"
         transform="translate(-256.804,-487.05651)"
         id="path1481" />
    </clipPath>
    <clipPath
       clipPathUnits="userSpaceOnUse"
       id="clipPath1483">
      <path
         d="m 243.051,464.605 h 27.033 v 37.464 h -27.033 z"
         transform="translate(-258.01531,-479.53501)"
         id="path1483" />
    </clipPath>
    <clipPath
       clipPathUnits="userSpaceOnUse"
       id="clipPath1485">
      <path
         d="m 243.051,464.605 h 27.033 v 37.464 h -27.033 z"
         transform="translate(-257.10891,-479.88821)"
         id="path1485" />
    </clipPath>
    <clipPath
       clipPathUnits="userSpaceOnUse"
       id="clipPath1487">
      <path
         d="m 243.051,464.605 h 27.033 v 37.464 h -27.033 z"
         transform="translate(-257.57571,-479.93661)"
         id="path1487" />
    </clipPath>
    <clipPath
       clipPathUnits="userSpaceOnUse"
       id="clipPath1489">
      <path
         d="m 243.051,464.605 h 27.033 v 37.464 h -27.033 z"
         transform="translate(-252.7288,-479.57251)"
         id="path1489" />
    </clipPath>
    <clipPath
       clipPathUnits="userSpaceOnUse"
       id="clipPath1491">
      <path
         d="m 243.051,464.605 h 27.033 v 37.464 h -27.033 z"
         transform="translate(-253.00191,-479.75411)"
         id="path1491" />
    </clipPath>
    <clipPath
       clipPathUnits="userSpaceOnUse"
       id="clipPath1493">
      <path
         d="m 243.051,464.605 h 27.033 v 37.464 h -27.033 z"
         transform="translate(-253.29411,-479.88821)"
         id="path1493" />
    </clipPath>
    <clipPath
       clipPathUnits="userSpaceOnUse"
       id="clipPath1495">
      <path
         d="m 243.051,464.605 h 27.033 v 37.464 h -27.033 z"
         transform="translate(-253.65211,-479.93681)"
         id="path1495" />
    </clipPath>
    <clipPath
       clipPathUnits="userSpaceOnUse"
       id="clipPath1497">
      <path
         d="m 243.051,464.605 h 27.033 v 37.464 h -27.033 z"
         transform="translate(-259.71721,-479.28691)"
         id="path1497" />
    </clipPath>
    <clipPath
       clipPathUnits="userSpaceOnUse"
       id="clipPath1499">
      <path
         d="m 243.051,464.605 h 27.033 v 37.464 h -27.033 z"
         transform="translate(-259.93371,-479.17591)"
         id="path1499" />
    </clipPath>
    <clipPath
       clipPathUnits="userSpaceOnUse"
       id="clipPath1501">
      <path
         d="m 243.051,464.605 h 27.033 v 37.464 h -27.033 z"
         transform="translate(-260.1415,-479.12501)"
         id="path1501" />
    </clipPath>
    <clipPath
       clipPathUnits="userSpaceOnUse"
       id="clipPath1503">
      <path
         d="m 243.051,464.605 h 27.033 v 37.464 h -27.033 z"
         transform="translate(-254.76261,-488.16911)"
         id="path1503" />
    </clipPath>
    <clipPath
       clipPathUnits="userSpaceOnUse"
       id="clipPath1505">
      <path
         d="m 243.051,464.605 h 27.033 v 37.464 h -27.033 z"
         transform="translate(-253.83051,-487.17781)"
         id="path1505" />
    </clipPath>
    <clipPath
       clipPathUnits="userSpaceOnUse"
       id="clipPath1507">
      <path
         d="m 243.051,464.605 h 27.033 v 37.464 h -27.033 z"
         transform="translate(-253.4044,-483.60631)"
         id="path1507" />
    </clipPath>
    <clipPath
       clipPathUnits="userSpaceOnUse"
       id="clipPath1509">
      <path
         d="m 243.051,464.605 h 27.033 v 37.464 h -27.033 z"
         transform="translate(-254.2765,-482.56871)"
         id="path1509" />
    </clipPath>
    <clipPath
       clipPathUnits="userSpaceOnUse"
       id="clipPath1511">
      <path
         d="m 243.051,464.605 h 27.033 v 37.464 h -27.033 z"
         transform="translate(-253.9369,-486.04991)"
         id="path1511" />
    </clipPath>
    <clipPath
       clipPathUnits="userSpaceOnUse"
       id="clipPath1513">
      <path
         d="m 243.051,464.605 h 27.033 v 37.464 h -27.033 z"
         transform="translate(-253.16631,-488.73971)"
         id="path1513" />
    </clipPath>
    <clipPath
       clipPathUnits="userSpaceOnUse"
       id="clipPath1515">
      <path
         d="m 243.051,464.605 h 27.033 v 37.464 h -27.033 z"
         transform="translate(-254.2765,-483.85441)"
         id="path1515" />
    </clipPath>
    <clipPath
       clipPathUnits="userSpaceOnUse"
       id="clipPath1517">
      <path
         d="m 243.051,464.605 h 27.033 v 37.464 h -27.033 z"
         transform="translate(-253.49671,-485.51621)"
         id="path1517" />
    </clipPath>
    <clipPath
       clipPathUnits="userSpaceOnUse"
       id="clipPath1519">
      <path
         d="m 243.051,464.605 h 27.033 v 37.464 h -27.033 z"
         transform="translate(-253.49671,-484.37601)"
         id="path1519" />
    </clipPath>
    <clipPath
       clipPathUnits="userSpaceOnUse"
       id="clipPath1521">
      <path
         d="m 243.051,464.605 h 27.033 v 37.464 h -27.033 z"
         transform="translate(-252.8938,-489.32471)"
         id="path1521" />
    </clipPath>
    <clipPath
       clipPathUnits="userSpaceOnUse"
       id="clipPath1523">
      <path
         d="m 243.051,464.605 h 27.033 v 37.464 h -27.033 z"
         transform="translate(-252.79681,-484.77631)"
         id="path1523" />
    </clipPath>
    <clipPath
       clipPathUnits="userSpaceOnUse"
       id="clipPath1525">
      <path
         d="m 243.051,464.605 h 27.033 v 37.464 h -27.033 z"
         transform="translate(-255.5137,-485.58291)"
         id="path1525" />
    </clipPath>
    <clipPath
       clipPathUnits="userSpaceOnUse"
       id="clipPath1527">
      <path
         d="m 243.051,464.605 h 27.033 v 37.464 h -27.033 z"
         transform="translate(-253.1716,-495.34831)"
         id="path1527" />
    </clipPath>
    <clipPath
       clipPathUnits="userSpaceOnUse"
       id="clipPath1529">
      <path
         d="m 243.051,464.605 h 27.033 v 37.464 h -27.033 z"
         transform="translate(-263.15571,-494.52501)"
         id="path1529" />
    </clipPath>
    <clipPath
       clipPathUnits="userSpaceOnUse"
       id="clipPath1531">
      <path
         d="m 243.051,464.605 h 27.033 v 37.464 h -27.033 z"
         transform="translate(-256.05631,-492.87861)"
         id="path1531" />
    </clipPath>
    <clipPath
       clipPathUnits="userSpaceOnUse"
       id="clipPath1533">
      <path
         d="m 243.051,464.605 h 27.033 v 37.464 h -27.033 z"
         transform="translate(-261.34801,-495.02541)"
         id="path1533" />
    </clipPath>
    <clipPath
       clipPathUnits="userSpaceOnUse"
       id="clipPath1535">
      <path
         d="m 243.051,464.605 h 27.033 v 37.464 h -27.033 z"
         transform="translate(-250.98841,-493.03191)"
         id="path1535" />
    </clipPath>
    <clipPath
       clipPathUnits="userSpaceOnUse"
       id="clipPath1537">
      <path
         d="m 243.051,464.605 h 27.033 v 37.464 h -27.033 z"
         transform="translate(-251.284,-490.26981)"
         id="path1537" />
    </clipPath>
    <clipPath
       clipPathUnits="userSpaceOnUse"
       id="clipPath1539">
      <path
         d="m 243.051,464.605 h 27.033 v 37.464 h -27.033 z"
         transform="translate(-252.3685,-490.67481)"
         id="path1539" />
    </clipPath>
    <clipPath
       clipPathUnits="userSpaceOnUse"
       id="clipPath1541">
      <path
         d="m 243.051,464.605 h 27.033 v 37.464 h -27.033 z"
         transform="translate(-254.5882,-491.55251)"
         id="path1541" />
    </clipPath>
    <clipPath
       clipPathUnits="userSpaceOnUse"
       id="clipPath1543">
      <path
         d="m 243.051,464.605 h 27.033 v 37.464 h -27.033 z"
         transform="translate(-255.22651,-491.75031)"
         id="path1543" />
    </clipPath>
    <clipPath
       clipPathUnits="userSpaceOnUse"
       id="clipPath1545">
      <path
         d="m 243.051,464.605 h 27.033 v 37.464 h -27.033 z"
         transform="translate(-256.78461,-491.28721)"
         id="path1545" />
    </clipPath>
    <clipPath
       clipPathUnits="userSpaceOnUse"
       id="clipPath1547">
      <path
         d="m 243.051,464.605 h 27.033 v 37.464 h -27.033 z"
         transform="translate(-258.1147,-491.70471)"
         id="path1547" />
    </clipPath>
    <clipPath
       clipPathUnits="userSpaceOnUse"
       id="clipPath1549">
      <path
         d="m 243.051,464.605 h 27.033 v 37.464 h -27.033 z"
         transform="translate(-259.7965,-491.40421)"
         id="path1549" />
    </clipPath>
    <clipPath
       clipPathUnits="userSpaceOnUse"
       id="clipPath1551">
      <path
         d="m 243.051,464.605 h 27.033 v 37.464 h -27.033 z"
         transform="translate(-261.37791,-490.35641)"
         id="path1551" />
    </clipPath>
    <clipPath
       clipPathUnits="userSpaceOnUse"
       id="clipPath1441-1">
      <path
         d="m 243.051,464.605 h 27.033 v 37.464 h -27.033 z"
         transform="translate(-266.27761,-494.56711)"
         id="path1441-8" />
    </clipPath>
    <clipPath
       clipPathUnits="userSpaceOnUse"
       id="clipPath1443-5">
      <path
         d="m 243.051,464.605 h 27.033 v 37.464 h -27.033 z"
         transform="translate(-258.8236,-496.76291)"
         id="path1443-7" />
    </clipPath>
    <clipPath
       clipPathUnits="userSpaceOnUse"
       id="clipPath1445-2">
      <path
         d="m 243.051,468.224 h 27.033 v 30.227 h -27.033 z"
         transform="translate(-269.08621,-493.73971)"
         id="path1445-1" />
    </clipPath>
    <clipPath
       clipPathUnits="userSpaceOnUse"
       id="clipPath1447-7">
      <path
         d="m 243.051,468.224 h 27.033 v 30.227 h -27.033 z"
         transform="translate(-246.02011,-481.38401)"
         id="path1447-1" />
    </clipPath>
    <radialGradient
       fx="-0.037428599"
       fy="0.0312512"
       cx="0"
       cy="0"
       r="1"
       gradientUnits="userSpaceOnUse"
       gradientTransform="matrix(13.148054,-15.137251,-15.137251,-13.148054,246.15464,500.04691)"
       spreadMethod="pad"
       id="radialGradient1449-3">
      <stop
         style="stop-opacity:1;stop-color:#231f20"
         offset="0"
         id="stop1447-4" />
      <stop
         style="stop-opacity:1;stop-color:#231f20"
         offset="0.135255"
         id="stop1448-0" />
      <stop
         style="stop-opacity:1;stop-color:#ffffff"
         offset="1"
         id="stop1449-4" />
    </radialGradient>
    <clipPath
       clipPathUnits="userSpaceOnUse"
       id="clipPath1451-9">
      <path
         d="m 243.051,468.224 h 27.033 v 30.227 h -27.033 z"
         transform="translate(-256.56891,-469.28931)"
         id="path1451-6" />
    </clipPath>
    <clipPath
       clipPathUnits="userSpaceOnUse"
       id="clipPath1453-7">
      <path
         d="m 243.051,464.605 h 27.033 v 37.464 h -27.033 z"
         transform="translate(-258.09721,-482.96891)"
         id="path1453-2" />
    </clipPath>
    <clipPath
       clipPathUnits="userSpaceOnUse"
       id="clipPath1455-5">
      <path
         d="m 243.051,464.605 h 27.033 v 37.464 h -27.033 z"
         transform="translate(-259.54071,-483.70891)"
         id="path1455-2" />
    </clipPath>
    <radialGradient
       fx="0"
       fy="0"
       cx="0"
       cy="0"
       r="1"
       gradientUnits="userSpaceOnUse"
       gradientTransform="matrix(6.7438374,-2.2802854,-2.2802854,-6.7438374,249.84002,478.21439)"
       spreadMethod="pad"
       id="radialGradient1457-6">
      <stop
         style="stop-opacity:1;stop-color:#231f20"
         offset="0"
         id="stop1455-8" />
      <stop
         style="stop-opacity:1;stop-color:#231f20"
         offset="0.135255"
         id="stop1456-8" />
      <stop
         style="stop-opacity:1;stop-color:#ffffff"
         offset="1"
         id="stop1457-2" />
    </radialGradient>
    <clipPath
       clipPathUnits="userSpaceOnUse"
       id="clipPath1459-7">
      <path
         d="m 243.051,464.605 h 27.033 v 37.464 h -27.033 z"
         transform="translate(-261.74811,-475.74011)"
         id="path1459-6" />
    </clipPath>
    <clipPath
       clipPathUnits="userSpaceOnUse"
       id="clipPath1461-1">
      <path
         d="m 243.051,464.605 h 27.033 v 37.464 h -27.033 z"
         transform="translate(-259.9669,-473.62191)"
         id="path1461-9" />
    </clipPath>
    <clipPath
       clipPathUnits="userSpaceOnUse"
       id="clipPath1463-1">
      <path
         d="m 243.051,464.605 h 27.033 v 37.464 h -27.033 z"
         transform="translate(-256.56891,-487.44611)"
         id="path1463-7" />
    </clipPath>
    <clipPath
       clipPathUnits="userSpaceOnUse"
       id="clipPath1465-4">
      <path
         d="m 243.051,464.605 h 27.033 v 37.464 h -27.033 z"
         transform="translate(-252.7288,-479.57251)"
         id="path1465-2" />
    </clipPath>
    <clipPath
       clipPathUnits="userSpaceOnUse"
       id="clipPath1467-5">
      <path
         d="m 243.051,464.605 h 27.033 v 37.464 h -27.033 z"
         transform="translate(-253.40331,-488.99721)"
         id="path1467-0" />
    </clipPath>
    <clipPath
       clipPathUnits="userSpaceOnUse"
       id="clipPath1469-2">
      <path
         d="m 243.051,464.605 h 27.033 v 37.464 h -27.033 z"
         transform="translate(-263.03391,-481.52561)"
         id="path1469-0" />
    </clipPath>
    <clipPath
       clipPathUnits="userSpaceOnUse"
       id="clipPath1471-4">
      <path
         d="m 243.051,464.605 h 27.033 v 37.464 h -27.033 z"
         transform="translate(-257.57571,-483.75741)"
         id="path1471-5" />
    </clipPath>
    <clipPath
       clipPathUnits="userSpaceOnUse"
       id="clipPath1473-3">
      <path
         d="m 243.051,464.605 h 27.033 v 37.464 h -27.033 z"
         transform="translate(-257.74551,-480.09451)"
         id="path1473-9" />
    </clipPath>
    <clipPath
       clipPathUnits="userSpaceOnUse"
       id="clipPath1475-3">
      <path
         d="m 243.051,464.605 h 27.033 v 37.464 h -27.033 z"
         transform="translate(-255.92101,-482.71011)"
         id="path1475-2" />
    </clipPath>
    <clipPath
       clipPathUnits="userSpaceOnUse"
       id="clipPath1477-8">
      <path
         d="m 243.051,464.605 h 27.033 v 37.464 h -27.033 z"
         transform="translate(-254.14321,-480.19141)"
         id="path1477-4" />
    </clipPath>
    <clipPath
       clipPathUnits="userSpaceOnUse"
       id="clipPath1479-1">
      <path
         d="m 243.051,464.605 h 27.033 v 37.464 h -27.033 z"
         transform="translate(-252.9181,-483.34501)"
         id="path1479-7" />
    </clipPath>
    <clipPath
       clipPathUnits="userSpaceOnUse"
       id="clipPath1481-3">
      <path
         d="m 243.051,464.605 h 27.033 v 37.464 h -27.033 z"
         transform="translate(-256.804,-487.05651)"
         id="path1481-1" />
    </clipPath>
    <clipPath
       clipPathUnits="userSpaceOnUse"
       id="clipPath1483-9">
      <path
         d="m 243.051,464.605 h 27.033 v 37.464 h -27.033 z"
         transform="translate(-258.01531,-479.53501)"
         id="path1483-9" />
    </clipPath>
    <clipPath
       clipPathUnits="userSpaceOnUse"
       id="clipPath1485-7">
      <path
         d="m 243.051,464.605 h 27.033 v 37.464 h -27.033 z"
         transform="translate(-257.10891,-479.88821)"
         id="path1485-2" />
    </clipPath>
    <clipPath
       clipPathUnits="userSpaceOnUse"
       id="clipPath1487-7">
      <path
         d="m 243.051,464.605 h 27.033 v 37.464 h -27.033 z"
         transform="translate(-257.57571,-479.93661)"
         id="path1487-4" />
    </clipPath>
    <clipPath
       clipPathUnits="userSpaceOnUse"
       id="clipPath1489-9">
      <path
         d="m 243.051,464.605 h 27.033 v 37.464 h -27.033 z"
         transform="translate(-252.7288,-479.57251)"
         id="path1489-5" />
    </clipPath>
    <clipPath
       clipPathUnits="userSpaceOnUse"
       id="clipPath1491-5">
      <path
         d="m 243.051,464.605 h 27.033 v 37.464 h -27.033 z"
         transform="translate(-253.00191,-479.75411)"
         id="path1491-9" />
    </clipPath>
    <clipPath
       clipPathUnits="userSpaceOnUse"
       id="clipPath1493-2">
      <path
         d="m 243.051,464.605 h 27.033 v 37.464 h -27.033 z"
         transform="translate(-253.29411,-479.88821)"
         id="path1493-3" />
    </clipPath>
    <clipPath
       clipPathUnits="userSpaceOnUse"
       id="clipPath1495-8">
      <path
         d="m 243.051,464.605 h 27.033 v 37.464 h -27.033 z"
         transform="translate(-253.65211,-479.93681)"
         id="path1495-7" />
    </clipPath>
    <clipPath
       clipPathUnits="userSpaceOnUse"
       id="clipPath1497-8">
      <path
         d="m 243.051,464.605 h 27.033 v 37.464 h -27.033 z"
         transform="translate(-259.71721,-479.28691)"
         id="path1497-5" />
    </clipPath>
    <clipPath
       clipPathUnits="userSpaceOnUse"
       id="clipPath1499-3">
      <path
         d="m 243.051,464.605 h 27.033 v 37.464 h -27.033 z"
         transform="translate(-259.93371,-479.17591)"
         id="path1499-0" />
    </clipPath>
    <clipPath
       clipPathUnits="userSpaceOnUse"
       id="clipPath1501-7">
      <path
         d="m 243.051,464.605 h 27.033 v 37.464 h -27.033 z"
         transform="translate(-260.1415,-479.12501)"
         id="path1501-2" />
    </clipPath>
    <clipPath
       clipPathUnits="userSpaceOnUse"
       id="clipPath1503-8">
      <path
         d="m 243.051,464.605 h 27.033 v 37.464 h -27.033 z"
         transform="translate(-254.76261,-488.16911)"
         id="path1503-7" />
    </clipPath>
    <clipPath
       clipPathUnits="userSpaceOnUse"
       id="clipPath1505-7">
      <path
         d="m 243.051,464.605 h 27.033 v 37.464 h -27.033 z"
         transform="translate(-253.83051,-487.17781)"
         id="path1505-7" />
    </clipPath>
    <clipPath
       clipPathUnits="userSpaceOnUse"
       id="clipPath1507-6">
      <path
         d="m 243.051,464.605 h 27.033 v 37.464 h -27.033 z"
         transform="translate(-253.4044,-483.60631)"
         id="path1507-7" />
    </clipPath>
    <clipPath
       clipPathUnits="userSpaceOnUse"
       id="clipPath1509-2">
      <path
         d="m 243.051,464.605 h 27.033 v 37.464 h -27.033 z"
         transform="translate(-254.2765,-482.56871)"
         id="path1509-5" />
    </clipPath>
    <clipPath
       clipPathUnits="userSpaceOnUse"
       id="clipPath1511-0">
      <path
         d="m 243.051,464.605 h 27.033 v 37.464 h -27.033 z"
         transform="translate(-253.9369,-486.04991)"
         id="path1511-1" />
    </clipPath>
    <clipPath
       clipPathUnits="userSpaceOnUse"
       id="clipPath1513-7">
      <path
         d="m 243.051,464.605 h 27.033 v 37.464 h -27.033 z"
         transform="translate(-253.16631,-488.73971)"
         id="path1513-2" />
    </clipPath>
    <clipPath
       clipPathUnits="userSpaceOnUse"
       id="clipPath1515-0">
      <path
         d="m 243.051,464.605 h 27.033 v 37.464 h -27.033 z"
         transform="translate(-254.2765,-483.85441)"
         id="path1515-3" />
    </clipPath>
    <clipPath
       clipPathUnits="userSpaceOnUse"
       id="clipPath1517-2">
      <path
         d="m 243.051,464.605 h 27.033 v 37.464 h -27.033 z"
         transform="translate(-253.49671,-485.51621)"
         id="path1517-4" />
    </clipPath>
    <clipPath
       clipPathUnits="userSpaceOnUse"
       id="clipPath1519-0">
      <path
         d="m 243.051,464.605 h 27.033 v 37.464 h -27.033 z"
         transform="translate(-253.49671,-484.37601)"
         id="path1519-2" />
    </clipPath>
    <clipPath
       clipPathUnits="userSpaceOnUse"
       id="clipPath1521-7">
      <path
         d="m 243.051,464.605 h 27.033 v 37.464 h -27.033 z"
         transform="translate(-252.8938,-489.32471)"
         id="path1521-5" />
    </clipPath>
    <clipPath
       clipPathUnits="userSpaceOnUse"
       id="clipPath1523-5">
      <path
         d="m 243.051,464.605 h 27.033 v 37.464 h -27.033 z"
         transform="translate(-252.79681,-484.77631)"
         id="path1523-2" />
    </clipPath>
    <clipPath
       clipPathUnits="userSpaceOnUse"
       id="clipPath1525-5">
      <path
         d="m 243.051,464.605 h 27.033 v 37.464 h -27.033 z"
         transform="translate(-255.5137,-485.58291)"
         id="path1525-1" />
    </clipPath>
    <clipPath
       clipPathUnits="userSpaceOnUse"
       id="clipPath1527-6">
      <path
         d="m 243.051,464.605 h 27.033 v 37.464 h -27.033 z"
         transform="translate(-253.1716,-495.34831)"
         id="path1527-9" />
    </clipPath>
    <clipPath
       clipPathUnits="userSpaceOnUse"
       id="clipPath1529-0">
      <path
         d="m 243.051,464.605 h 27.033 v 37.464 h -27.033 z"
         transform="translate(-263.15571,-494.52501)"
         id="path1529-1" />
    </clipPath>
    <clipPath
       clipPathUnits="userSpaceOnUse"
       id="clipPath1531-2">
      <path
         d="m 243.051,464.605 h 27.033 v 37.464 h -27.033 z"
         transform="translate(-256.05631,-492.87861)"
         id="path1531-8" />
    </clipPath>
    <clipPath
       clipPathUnits="userSpaceOnUse"
       id="clipPath1533-5">
      <path
         d="m 243.051,464.605 h 27.033 v 37.464 h -27.033 z"
         transform="translate(-261.34801,-495.02541)"
         id="path1533-9" />
    </clipPath>
    <clipPath
       clipPathUnits="userSpaceOnUse"
       id="clipPath1535-9">
      <path
         d="m 243.051,464.605 h 27.033 v 37.464 h -27.033 z"
         transform="translate(-250.98841,-493.03191)"
         id="path1535-9" />
    </clipPath>
    <clipPath
       clipPathUnits="userSpaceOnUse"
       id="clipPath1537-1">
      <path
         d="m 243.051,464.605 h 27.033 v 37.464 h -27.033 z"
         transform="translate(-251.284,-490.26981)"
         id="path1537-0" />
    </clipPath>
    <clipPath
       clipPathUnits="userSpaceOnUse"
       id="clipPath1539-0">
      <path
         d="m 243.051,464.605 h 27.033 v 37.464 h -27.033 z"
         transform="translate(-252.3685,-490.67481)"
         id="path1539-4" />
    </clipPath>
    <clipPath
       clipPathUnits="userSpaceOnUse"
       id="clipPath1541-3">
      <path
         d="m 243.051,464.605 h 27.033 v 37.464 h -27.033 z"
         transform="translate(-254.5882,-491.55251)"
         id="path1541-1" />
    </clipPath>
    <clipPath
       clipPathUnits="userSpaceOnUse"
       id="clipPath1543-2">
      <path
         d="m 243.051,464.605 h 27.033 v 37.464 h -27.033 z"
         transform="translate(-255.22651,-491.75031)"
         id="path1543-0" />
    </clipPath>
    <clipPath
       clipPathUnits="userSpaceOnUse"
       id="clipPath1545-5">
      <path
         d="m 243.051,464.605 h 27.033 v 37.464 h -27.033 z"
         transform="translate(-256.78461,-491.28721)"
         id="path1545-2" />
    </clipPath>
    <clipPath
       clipPathUnits="userSpaceOnUse"
       id="clipPath1547-9">
      <path
         d="m 243.051,464.605 h 27.033 v 37.464 h -27.033 z"
         transform="translate(-258.1147,-491.70471)"
         id="path1547-4" />
    </clipPath>
    <clipPath
       clipPathUnits="userSpaceOnUse"
       id="clipPath1549-1">
      <path
         d="m 243.051,464.605 h 27.033 v 37.464 h -27.033 z"
         transform="translate(-259.7965,-491.40421)"
         id="path1549-3" />
    </clipPath>
    <clipPath
       clipPathUnits="userSpaceOnUse"
       id="clipPath1551-7">
      <path
         d="m 243.051,464.605 h 27.033 v 37.464 h -27.033 z"
         transform="translate(-261.37791,-490.35641)"
         id="path1551-1" />
    </clipPath>
    <clipPath
       clipPathUnits="userSpaceOnUse"
       id="clipPath1441-7">
      <path
         d="m 243.051,464.605 h 27.033 v 37.464 h -27.033 z"
         transform="translate(-266.27761,-494.56711)"
         id="path1441-2" />
    </clipPath>
    <clipPath
       clipPathUnits="userSpaceOnUse"
       id="clipPath1443-9">
      <path
         d="m 243.051,464.605 h 27.033 v 37.464 h -27.033 z"
         transform="translate(-258.8236,-496.76291)"
         id="path1443-1" />
    </clipPath>
    <clipPath
       clipPathUnits="userSpaceOnUse"
       id="clipPath1445-1">
      <path
         d="m 243.051,468.224 h 27.033 v 30.227 h -27.033 z"
         transform="translate(-269.08621,-493.73971)"
         id="path1445-8" />
    </clipPath>
    <clipPath
       clipPathUnits="userSpaceOnUse"
       id="clipPath1447-0">
      <path
         d="m 243.051,468.224 h 27.033 v 30.227 h -27.033 z"
         transform="translate(-246.02011,-481.38401)"
         id="path1447-0" />
    </clipPath>
    <radialGradient
       fx="-0.037428599"
       fy="0.0312512"
       cx="0"
       cy="0"
       r="1"
       gradientUnits="userSpaceOnUse"
       gradientTransform="matrix(13.148054,-15.137251,-15.137251,-13.148054,246.15464,500.04691)"
       spreadMethod="pad"
       id="radialGradient1449-8">
      <stop
         style="stop-opacity:1;stop-color:#231f20"
         offset="0"
         id="stop1447-0" />
      <stop
         style="stop-opacity:1;stop-color:#231f20"
         offset="0.135255"
         id="stop1448-2" />
      <stop
         style="stop-opacity:1;stop-color:#ffffff"
         offset="1"
         id="stop1449-2" />
    </radialGradient>
    <clipPath
       clipPathUnits="userSpaceOnUse"
       id="clipPath1451-2">
      <path
         d="m 243.051,468.224 h 27.033 v 30.227 h -27.033 z"
         transform="translate(-256.56891,-469.28931)"
         id="path1451-1" />
    </clipPath>
    <clipPath
       clipPathUnits="userSpaceOnUse"
       id="clipPath1453-9">
      <path
         d="m 243.051,464.605 h 27.033 v 37.464 h -27.033 z"
         transform="translate(-258.09721,-482.96891)"
         id="path1453-7" />
    </clipPath>
    <clipPath
       clipPathUnits="userSpaceOnUse"
       id="clipPath1455-0">
      <path
         d="m 243.051,464.605 h 27.033 v 37.464 h -27.033 z"
         transform="translate(-259.54071,-483.70891)"
         id="path1455-9" />
    </clipPath>
    <radialGradient
       fx="0"
       fy="0"
       cx="0"
       cy="0"
       r="1"
       gradientUnits="userSpaceOnUse"
       gradientTransform="matrix(6.7438374,-2.2802854,-2.2802854,-6.7438374,249.84002,478.21439)"
       spreadMethod="pad"
       id="radialGradient1457-7">
      <stop
         style="stop-opacity:1;stop-color:#231f20"
         offset="0"
         id="stop1455-6" />
      <stop
         style="stop-opacity:1;stop-color:#231f20"
         offset="0.135255"
         id="stop1456-4" />
      <stop
         style="stop-opacity:1;stop-color:#ffffff"
         offset="1"
         id="stop1457-4" />
    </radialGradient>
    <clipPath
       clipPathUnits="userSpaceOnUse"
       id="clipPath1459-2">
      <path
         d="m 243.051,464.605 h 27.033 v 37.464 h -27.033 z"
         transform="translate(-261.74811,-475.74011)"
         id="path1459-4" />
    </clipPath>
    <clipPath
       clipPathUnits="userSpaceOnUse"
       id="clipPath1461-4">
      <path
         d="m 243.051,464.605 h 27.033 v 37.464 h -27.033 z"
         transform="translate(-259.9669,-473.62191)"
         id="path1461-2" />
    </clipPath>
    <clipPath
       clipPathUnits="userSpaceOnUse"
       id="clipPath1463-5">
      <path
         d="m 243.051,464.605 h 27.033 v 37.464 h -27.033 z"
         transform="translate(-256.56891,-487.44611)"
         id="path1463-2" />
    </clipPath>
    <clipPath
       clipPathUnits="userSpaceOnUse"
       id="clipPath1465-2">
      <path
         d="m 243.051,464.605 h 27.033 v 37.464 h -27.033 z"
         transform="translate(-252.7288,-479.57251)"
         id="path1465-3" />
    </clipPath>
    <clipPath
       clipPathUnits="userSpaceOnUse"
       id="clipPath1467-0">
      <path
         d="m 243.051,464.605 h 27.033 v 37.464 h -27.033 z"
         transform="translate(-253.40331,-488.99721)"
         id="path1467-3" />
    </clipPath>
    <clipPath
       clipPathUnits="userSpaceOnUse"
       id="clipPath1469-5">
      <path
         d="m 243.051,464.605 h 27.033 v 37.464 h -27.033 z"
         transform="translate(-263.03391,-481.52561)"
         id="path1469-1" />
    </clipPath>
    <clipPath
       clipPathUnits="userSpaceOnUse"
       id="clipPath1471-6">
      <path
         d="m 243.051,464.605 h 27.033 v 37.464 h -27.033 z"
         transform="translate(-257.57571,-483.75741)"
         id="path1471-3" />
    </clipPath>
    <clipPath
       clipPathUnits="userSpaceOnUse"
       id="clipPath1473-35">
      <path
         d="m 243.051,464.605 h 27.033 v 37.464 h -27.033 z"
         transform="translate(-257.74551,-480.09451)"
         id="path1473-3" />
    </clipPath>
    <clipPath
       clipPathUnits="userSpaceOnUse"
       id="clipPath1475-8">
      <path
         d="m 243.051,464.605 h 27.033 v 37.464 h -27.033 z"
         transform="translate(-255.92101,-482.71011)"
         id="path1475-23" />
    </clipPath>
    <clipPath
       clipPathUnits="userSpaceOnUse"
       id="clipPath1477-0">
      <path
         d="m 243.051,464.605 h 27.033 v 37.464 h -27.033 z"
         transform="translate(-254.14321,-480.19141)"
         id="path1477-8" />
    </clipPath>
    <clipPath
       clipPathUnits="userSpaceOnUse"
       id="clipPath1479-2">
      <path
         d="m 243.051,464.605 h 27.033 v 37.464 h -27.033 z"
         transform="translate(-252.9181,-483.34501)"
         id="path1479-6" />
    </clipPath>
    <clipPath
       clipPathUnits="userSpaceOnUse"
       id="clipPath1481-0">
      <path
         d="m 243.051,464.605 h 27.033 v 37.464 h -27.033 z"
         transform="translate(-256.804,-487.05651)"
         id="path1481-4" />
    </clipPath>
    <clipPath
       clipPathUnits="userSpaceOnUse"
       id="clipPath1483-6">
      <path
         d="m 243.051,464.605 h 27.033 v 37.464 h -27.033 z"
         transform="translate(-258.01531,-479.53501)"
         id="path1483-4" />
    </clipPath>
    <clipPath
       clipPathUnits="userSpaceOnUse"
       id="clipPath1485-2">
      <path
         d="m 243.051,464.605 h 27.033 v 37.464 h -27.033 z"
         transform="translate(-257.10891,-479.88821)"
         id="path1485-5" />
    </clipPath>
    <clipPath
       clipPathUnits="userSpaceOnUse"
       id="clipPath1487-4">
      <path
         d="m 243.051,464.605 h 27.033 v 37.464 h -27.033 z"
         transform="translate(-257.57571,-479.93661)"
         id="path1487-0" />
    </clipPath>
    <clipPath
       clipPathUnits="userSpaceOnUse"
       id="clipPath1489-0">
      <path
         d="m 243.051,464.605 h 27.033 v 37.464 h -27.033 z"
         transform="translate(-252.7288,-479.57251)"
         id="path1489-57" />
    </clipPath>
    <clipPath
       clipPathUnits="userSpaceOnUse"
       id="clipPath1491-4">
      <path
         d="m 243.051,464.605 h 27.033 v 37.464 h -27.033 z"
         transform="translate(-253.00191,-479.75411)"
         id="path1491-2" />
    </clipPath>
    <clipPath
       clipPathUnits="userSpaceOnUse"
       id="clipPath1493-4">
      <path
         d="m 243.051,464.605 h 27.033 v 37.464 h -27.033 z"
         transform="translate(-253.29411,-479.88821)"
         id="path1493-7" />
    </clipPath>
    <clipPath
       clipPathUnits="userSpaceOnUse"
       id="clipPath1495-2">
      <path
         d="m 243.051,464.605 h 27.033 v 37.464 h -27.033 z"
         transform="translate(-253.65211,-479.93681)"
         id="path1495-6" />
    </clipPath>
    <clipPath
       clipPathUnits="userSpaceOnUse"
       id="clipPath1497-84">
      <path
         d="m 243.051,464.605 h 27.033 v 37.464 h -27.033 z"
         transform="translate(-259.71721,-479.28691)"
         id="path1497-1" />
    </clipPath>
    <clipPath
       clipPathUnits="userSpaceOnUse"
       id="clipPath1499-1">
      <path
         d="m 243.051,464.605 h 27.033 v 37.464 h -27.033 z"
         transform="translate(-259.93371,-479.17591)"
         id="path1499-2" />
    </clipPath>
    <clipPath
       clipPathUnits="userSpaceOnUse"
       id="clipPath1501-4">
      <path
         d="m 243.051,464.605 h 27.033 v 37.464 h -27.033 z"
         transform="translate(-260.1415,-479.12501)"
         id="path1501-5" />
    </clipPath>
    <clipPath
       clipPathUnits="userSpaceOnUse"
       id="clipPath1503-3">
      <path
         d="m 243.051,464.605 h 27.033 v 37.464 h -27.033 z"
         transform="translate(-254.76261,-488.16911)"
         id="path1503-0" />
    </clipPath>
    <clipPath
       clipPathUnits="userSpaceOnUse"
       id="clipPath1505-9">
      <path
         d="m 243.051,464.605 h 27.033 v 37.464 h -27.033 z"
         transform="translate(-253.83051,-487.17781)"
         id="path1505-0" />
    </clipPath>
    <clipPath
       clipPathUnits="userSpaceOnUse"
       id="clipPath1507-2">
      <path
         d="m 243.051,464.605 h 27.033 v 37.464 h -27.033 z"
         transform="translate(-253.4044,-483.60631)"
         id="path1507-0" />
    </clipPath>
    <clipPath
       clipPathUnits="userSpaceOnUse"
       id="clipPath1509-0">
      <path
         d="m 243.051,464.605 h 27.033 v 37.464 h -27.033 z"
         transform="translate(-254.2765,-482.56871)"
         id="path1509-8" />
    </clipPath>
    <clipPath
       clipPathUnits="userSpaceOnUse"
       id="clipPath1511-6">
      <path
         d="m 243.051,464.605 h 27.033 v 37.464 h -27.033 z"
         transform="translate(-253.9369,-486.04991)"
         id="path1511-4" />
    </clipPath>
    <clipPath
       clipPathUnits="userSpaceOnUse"
       id="clipPath1513-0">
      <path
         d="m 243.051,464.605 h 27.033 v 37.464 h -27.033 z"
         transform="translate(-253.16631,-488.73971)"
         id="path1513-1" />
    </clipPath>
    <clipPath
       clipPathUnits="userSpaceOnUse"
       id="clipPath1515-9">
      <path
         d="m 243.051,464.605 h 27.033 v 37.464 h -27.033 z"
         transform="translate(-254.2765,-483.85441)"
         id="path1515-36" />
    </clipPath>
    <clipPath
       clipPathUnits="userSpaceOnUse"
       id="clipPath1517-7">
      <path
         d="m 243.051,464.605 h 27.033 v 37.464 h -27.033 z"
         transform="translate(-253.49671,-485.51621)"
         id="path1517-48" />
    </clipPath>
    <clipPath
       clipPathUnits="userSpaceOnUse"
       id="clipPath1519-1">
      <path
         d="m 243.051,464.605 h 27.033 v 37.464 h -27.033 z"
         transform="translate(-253.49671,-484.37601)"
         id="path1519-9" />
    </clipPath>
    <clipPath
       clipPathUnits="userSpaceOnUse"
       id="clipPath1521-1">
      <path
         d="m 243.051,464.605 h 27.033 v 37.464 h -27.033 z"
         transform="translate(-252.8938,-489.32471)"
         id="path1521-3" />
    </clipPath>
    <clipPath
       clipPathUnits="userSpaceOnUse"
       id="clipPath1523-3">
      <path
         d="m 243.051,464.605 h 27.033 v 37.464 h -27.033 z"
         transform="translate(-252.79681,-484.77631)"
         id="path1523-1" />
    </clipPath>
    <clipPath
       clipPathUnits="userSpaceOnUse"
       id="clipPath1525-4">
      <path
         d="m 243.051,464.605 h 27.033 v 37.464 h -27.033 z"
         transform="translate(-255.5137,-485.58291)"
         id="path1525-3" />
    </clipPath>
    <clipPath
       clipPathUnits="userSpaceOnUse"
       id="clipPath1527-4">
      <path
         d="m 243.051,464.605 h 27.033 v 37.464 h -27.033 z"
         transform="translate(-253.1716,-495.34831)"
         id="path1527-7" />
    </clipPath>
    <clipPath
       clipPathUnits="userSpaceOnUse"
       id="clipPath1529-05">
      <path
         d="m 243.051,464.605 h 27.033 v 37.464 h -27.033 z"
         transform="translate(-263.15571,-494.52501)"
         id="path1529-4" />
    </clipPath>
    <clipPath
       clipPathUnits="userSpaceOnUse"
       id="clipPath1531-8">
      <path
         d="m 243.051,464.605 h 27.033 v 37.464 h -27.033 z"
         transform="translate(-256.05631,-492.87861)"
         id="path1531-2" />
    </clipPath>
    <clipPath
       clipPathUnits="userSpaceOnUse"
       id="clipPath1533-58">
      <path
         d="m 243.051,464.605 h 27.033 v 37.464 h -27.033 z"
         transform="translate(-261.34801,-495.02541)"
         id="path1533-7" />
    </clipPath>
    <clipPath
       clipPathUnits="userSpaceOnUse"
       id="clipPath1535-91">
      <path
         d="m 243.051,464.605 h 27.033 v 37.464 h -27.033 z"
         transform="translate(-250.98841,-493.03191)"
         id="path1535-2" />
    </clipPath>
    <clipPath
       clipPathUnits="userSpaceOnUse"
       id="clipPath1537-2">
      <path
         d="m 243.051,464.605 h 27.033 v 37.464 h -27.033 z"
         transform="translate(-251.284,-490.26981)"
         id="path1537-2" />
    </clipPath>
    <clipPath
       clipPathUnits="userSpaceOnUse"
       id="clipPath1539-7">
      <path
         d="m 243.051,464.605 h 27.033 v 37.464 h -27.033 z"
         transform="translate(-252.3685,-490.67481)"
         id="path1539-7" />
    </clipPath>
    <clipPath
       clipPathUnits="userSpaceOnUse"
       id="clipPath1541-7">
      <path
         d="m 243.051,464.605 h 27.033 v 37.464 h -27.033 z"
         transform="translate(-254.5882,-491.55251)"
         id="path1541-3" />
    </clipPath>
    <clipPath
       clipPathUnits="userSpaceOnUse"
       id="clipPath1543-0">
      <path
         d="m 243.051,464.605 h 27.033 v 37.464 h -27.033 z"
         transform="translate(-255.22651,-491.75031)"
         id="path1543-5" />
    </clipPath>
    <clipPath
       clipPathUnits="userSpaceOnUse"
       id="clipPath1545-4">
      <path
         d="m 243.051,464.605 h 27.033 v 37.464 h -27.033 z"
         transform="translate(-256.78461,-491.28721)"
         id="path1545-9" />
    </clipPath>
    <clipPath
       clipPathUnits="userSpaceOnUse"
       id="clipPath1547-2">
      <path
         d="m 243.051,464.605 h 27.033 v 37.464 h -27.033 z"
         transform="translate(-258.1147,-491.70471)"
         id="path1547-0" />
    </clipPath>
    <clipPath
       clipPathUnits="userSpaceOnUse"
       id="clipPath1549-0">
      <path
         d="m 243.051,464.605 h 27.033 v 37.464 h -27.033 z"
         transform="translate(-259.7965,-491.40421)"
         id="path1549-9" />
    </clipPath>
    <clipPath
       clipPathUnits="userSpaceOnUse"
       id="clipPath1551-4">
      <path
         d="m 243.051,464.605 h 27.033 v 37.464 h -27.033 z"
         transform="translate(-261.37791,-490.35641)"
         id="path1551-6" />
    </clipPath>
  </defs>
  <g
     inkscape:label="Layer 1"
     inkscape:groupmode="layer"
     id="layer1"
     transform="translate(-87.902078,-106.89851)">
    <g
       id="g1439"
       transform="matrix(1.4048445,0,0,1.4048445,-367.36464,-536.40416)">
      <g
         id="group-MC19" />
      <path
         id="path1440"
         d="m 0,0 -12.859,-23.523 c -2.111,1.502 -3.818,3.462 -5.167,5.669 l 10.572,20.05 z"
         style="fill:#fddd04;fill-opacity:1;fill-rule:nonzero;stroke:none"
         transform="matrix(1.3333333,0,0,-1.3333333,355.0368,463.0972)"
         clip-path="url(#clipPath1441-7)" />
      <path
         id="path1442"
         d="m 0,0 -2.255,0.664 -12.517,-3.687 c -0.18,-5.221 1.014,-11.814 4.2,-17.027 z"
         style="fill:#059b4e;fill-opacity:1;fill-rule:nonzero;stroke:none"
         transform="matrix(1.3333333,0,0,-1.3333333,345.09813,460.16947)"
         clip-path="url(#clipPath1443-9)" />
      <path
         id="path1444"
         d="m 0,0 -2.809,0.827 -12.858,-23.523 c 0.964,-0.686 2.012,-1.279 3.15,-1.754 C -3.445,-20.62 0.291,-8.442 0,0"
         style="fill:#ed1c24;fill-opacity:1;fill-rule:nonzero;stroke:none"
         transform="matrix(1.3333333,0,0,-1.3333333,358.7816,464.2004)"
         clip-path="url(#clipPath1445-1)" />
      <path
         id="path1446"
         d="m 0,0 c 1.898,-5.187 5.264,-9.885 10.549,-12.095 9.072,3.831 12.808,16.009 12.517,24.451 l -3.647,1.074 -0.392,1.14 4.317,-1.272 0.68,-0.2 0.024,-0.708 C 24.211,7.668 23.179,2.424 21.217,-1.997 18.838,-7.358 15.281,-11.163 10.931,-13 l -0.38,-0.16 -0.381,0.159 c -4.522,1.891 -8.137,5.717 -10.456,11.066 -0.4,0.923 -0.757,1.891 -1.072,2.886 z"
         style="fill:#231f20;fill-opacity:1;fill-rule:nonzero;stroke:none"
         transform="matrix(1.3333333,0,0,-1.3333333,328.0268,480.67467)"
         clip-path="url(#clipPath1447-0)" />
      <path
         id="path1449"
         d="m 256.291,498.37 -12.517,-3.688 -0.68,-0.2 -0.024,-0.709 c -0.13,-3.779 0.442,-7.805 1.592,-11.438 v 0 l 1.358,-0.951 c -1.518,4.146 -2.097,8.605 -1.969,12.356 v 0 l 12.518,3.687 8.871,-2.613 -0.394,1.14 -8.2,2.416 -0.277,0.082 z"
         transform="matrix(1.3333333,0,0,-1.3333333,0,1122.52)"
         style="fill:url(#radialGradient1449-8);stroke:none" />
      <path
         id="path1450"
         d="M 0,0 C -9.509,3.976 -12.808,16.008 -12.517,24.45 L 0,28.138 12.517,24.45 C 12.809,16.008 9.073,3.831 0,0 Z"
         style="fill:none;stroke:#171717;stroke-width:0.164;stroke-linecap:butt;stroke-linejoin:miter;stroke-miterlimit:10;stroke-dasharray:none;stroke-opacity:1"
         transform="matrix(1.3333333,0,0,-1.3333333,342.09187,496.80093)"
         clip-path="url(#clipPath1451-2)" />
      <path
         id="path1452"
         d="M 0,0 C 0.26,-0.172 0.509,-0.361 0.742,-0.569 0.86,-0.672 0.972,-0.782 1.081,-0.898 1.19,-1.013 1.285,-1.153 1.356,-1.297 1.428,-1.442 1.475,-1.615 1.468,-1.781 1.464,-1.862 1.458,-1.946 1.434,-2.029 1.411,-2.108 1.383,-2.183 1.351,-2.255 1.228,-2.545 1.072,-2.815 0.91,-3.081 c 0.105,0.294 0.222,0.582 0.322,0.872 0.111,0.286 0.115,0.58 -0.023,0.84 C 1.144,-1.233 1.065,-1.114 0.964,-1 0.867,-0.883 0.76,-0.773 0.654,-0.661 Z"
         style="fill:#231f20;fill-opacity:1;fill-rule:nonzero;stroke:none"
         transform="matrix(1.3333333,0,0,-1.3333333,344.1296,478.56147)"
         clip-path="url(#clipPath1453-9)" />
      <path
         id="path1454"
         d="m 0,0 c -0.109,0.267 -0.4,0.667 -0.801,0.667 -0.272,0 -0.629,-0.158 -0.887,-0.346 -0.026,-0.468 -0.033,-0.835 0.244,-1.061 0.328,-0.267 0.995,-0.849 1.189,-1.164 0.194,-0.316 0.219,-0.498 0.194,-0.752 -0.024,-0.255 -0.376,-0.958 -0.473,-1.165 -0.097,-0.206 0.267,-0.315 0.267,-0.315 0,0 0.255,0.145 0.376,0.4 0.121,0.255 0.328,0.813 0.303,1.153 -0.014,0.195 -0.071,0.444 -0.099,0.7 -0.144,0.266 -0.265,0.555 -0.265,0.84 C 0.048,-0.582 0.109,-0.267 0,0"
         style="fill:#332d34;fill-opacity:1;fill-rule:nonzero;stroke:none"
         transform="matrix(1.3333333,0,0,-1.3333333,346.05427,477.5748)"
         clip-path="url(#clipPath1455-0)" />
      <path
         id="path1457"
         d="m 256.138,480.793 -1.121,-0.994 -1.321,0.062 c -0.876,-0.633 -1.543,-1.538 -1.875,-2.592 v 0 l 0.466,-1.303 -0.586,-1.304 c 0.239,-1.104 0.836,-2.074 1.665,-2.783 v 0 l 1.904,-0.01 1.225,-1.206 c 0.057,-0.002 0.115,-0.004 0.172,-0.004 v 0 c 1.064,0 2.052,0.328 2.868,0.887 v 0 l 0.363,2.035 1.721,1.023 c 0.084,0.366 0.129,0.745 0.129,1.136 v 0 c 0,0.581 -0.099,1.14 -0.279,1.66 v 0 l -1.68,1.176 -0.499,1.516 c -0.766,0.463 -1.663,0.729 -2.623,0.729 v 0 c -0.179,0 -0.355,-0.01 -0.529,-0.028"
         transform="matrix(1.3333333,0,0,-1.3333333,0,1122.52)"
         style="fill:url(#radialGradient1457-7);stroke:none" />
      <path
         id="path1458"
         d="m 0,0 c 0,-2.806 -2.275,-5.081 -5.081,-5.081 -2.806,0 -5.081,2.275 -5.081,5.081 0,2.806 2.275,5.081 5.081,5.081 C -2.275,5.081 0,2.806 0,0 Z"
         style="fill:none;stroke:#231f20;stroke-width:0.123;stroke-linecap:butt;stroke-linejoin:miter;stroke-miterlimit:10;stroke-dasharray:none;stroke-opacity:1"
         transform="matrix(1.3333333,0,0,-1.3333333,348.99747,488.19987)"
         clip-path="url(#clipPath1459-2)" />
      <path
         id="path1460"
         d="M 0,0 -1.988,1.435 -2.02,3.593 -0.106,4.904 1.502,3.779 C 1.111,4.91 0.332,5.861 -0.677,6.47 L -0.205,5.035 -2.119,3.724 -4.402,4.481 -4.896,6.226 -3.829,7.172 C -4.735,7.078 -5.57,6.745 -6.271,6.239 l 1.218,-0.057 0.48,-1.7 -1.282,-2.056 H -7.709 L -8.146,3.647 C -8.269,3.259 -8.344,2.849 -8.369,2.426 H -8.376 V 2.262 h 10e-4 C -8.377,2.214 -8.381,2.167 -8.381,2.118 c 0,-0.37 0.041,-0.73 0.116,-1.078 l 0.549,1.222 h 1.861 l 1.393,-1.796 -0.373,-2.218 -1.766,0.009 c 0.847,-0.725 1.936,-1.176 3.13,-1.216 l -1.202,1.182 0.38,2.261 2.242,0.794 1.965,-1.418 -0.346,-1.936 c 1.036,0.71 1.795,1.795 2.084,3.058 z"
         style="fill:#231f20;fill-opacity:1;fill-rule:nonzero;stroke:none"
         transform="matrix(1.3333333,0,0,-1.3333333,346.62253,491.02413)"
         clip-path="url(#clipPath1461-4)" />
      <path
         id="path1462"
         d="m 0,0 c -0.049,-0.174 0.136,-0.272 0.235,-0.39 0.217,-0.258 0.531,-0.433 0.674,-0.465 0.208,-0.046 1.595,0 2.103,-0.254 C 3.52,-1.363 4.329,-1.941 4.56,-2.634 4.791,-3.328 4.768,-3.79 4.838,-3.975 4.907,-4.16 5.175,-5.01 5.392,-5.246 5.713,-5.593 6.164,-5.851 6.465,-5.92 c 0.3,-0.07 0.696,-0.601 -0.31,-0.204 -0.541,0.214 -0.763,0.37 -1.017,0.67 -0.254,0.301 -0.647,1.364 -0.74,1.803 -0.092,0.439 -0.046,0.855 -0.323,1.178 0.203,-0.413 0.34,-1.07 0.207,-1.895 C 4.148,-5.193 4.1,-5.811 4.197,-6.394 4.294,-6.976 4.645,-7.461 4.282,-8.116 3.918,-8.771 3.583,-8.674 3.417,-8.65 c -0.166,0.025 -0.542,0.158 -0.579,0.389 -0.036,0.23 0.158,0.242 0.376,0.266 0.219,0.025 0.51,0.255 0.473,0.716 -0.036,0.461 0.085,0.837 -0.133,1.201 -0.219,0.364 -0.534,0.837 -0.534,1.298 0,0.461 0.061,0.776 -0.048,1.043 -0.109,0.267 -0.401,0.667 -0.801,0.667 -0.4,0 -0.982,-0.34 -1.164,-0.619 -0.182,-0.279 -0.413,-0.788 -0.413,-1.674 0,-0.885 0.231,-1.807 0.583,-1.989 0.351,-0.182 0.509,-0.266 0.509,-0.4 C 1.686,-7.885 1.31,-7.97 0.898,-7.97 0.485,-7.97 0,-7.958 0,-7.509 c 0,0.449 0.109,0.836 0.109,1.176 0,0.34 -0.315,1.213 -0.582,1.443 -0.267,0.231 -0.619,0.555 -0.619,0.555 -0.06,-0.215 -0.327,-0.761 -0.327,-0.761 l -0.328,0.388 c 0,0 -0.097,-0.242 -0.23,-0.242 -0.133,0 -0.315,0.073 -0.315,0.073 -0.158,-0.364 -0.279,-0.716 -0.267,-1.031 0.012,-0.316 0.012,-1.104 0.133,-1.347 0.121,-0.242 0.182,-0.667 -0.218,-0.667 -0.4,0 -0.934,-0.073 -1.08,-0.036 -0.145,0.036 -0.303,0.34 -0.06,0.497 0.242,0.158 0.63,1.007 0.63,1.553 0,0.545 -0.327,1.407 -0.497,1.807 -0.17,0.4 -0.121,0.8 -0.121,0.8 -0.17,0.158 -0.534,0.401 -0.631,0.68 -0.097,0.279 -0.17,0.727 -0.133,1.031 0.036,0.303 -0.073,0.448 -0.109,0.533 -0.037,0.085 -0.004,0.376 -0.004,0.74 0,0.364 0.137,0.34 0.161,0.704 0.025,0.364 0.037,0.861 0.352,0.994 0.315,0.134 0.376,0.34 0.461,0.498 0.085,0.157 0.703,0.885 1.322,0.885 0.618,0 1.152,-0.546 1.383,-0.691 0.23,-0.146 0.509,-0.437 0.643,-0.51 C -0.194,1.49 0.109,1.199 0.109,0.823 0.109,0.447 0.034,0.12 0,0"
         style="fill:#b3ad6a;fill-opacity:1;fill-rule:nonzero;stroke:none"
         transform="matrix(1.3333333,0,0,-1.3333333,342.09187,472.59187)"
         clip-path="url(#clipPath1463-5)" />
      <path
         id="path1464"
         d="m 0,0 c -0.082,0.051 -0.138,0.156 -0.121,0.271 0.006,0.057 0.037,0.11 0.073,0.154 0.017,0.022 0.04,0.039 0.061,0.055 L 0.066,0.521 C 0.141,0.573 0.227,0.626 0.325,0.648 0.422,0.673 0.529,0.666 0.614,0.619 0.519,0.597 0.442,0.568 0.37,0.528 0.299,0.488 0.232,0.441 0.161,0.388 L 0.105,0.349 C 0.089,0.338 0.076,0.328 0.063,0.317 0.036,0.296 0.017,0.27 0.002,0.239 -0.026,0.177 -0.027,0.092 0,0"
         style="fill:#040606;fill-opacity:1;fill-rule:nonzero;stroke:none"
         transform="matrix(1.3333333,0,0,-1.3333333,336.97173,483.09)"
         clip-path="url(#clipPath1465-2)" />
      <path
         id="path1466"
         d="m 0,0 c -0.327,-0.206 -0.437,-0.764 -0.437,-0.934 0,-0.17 0,-0.497 0.182,-0.703 0.182,-0.207 0.206,-0.376 0.243,-0.619 0.036,-0.243 0.17,-0.485 0.352,-0.558 0.181,-0.073 0.194,-0.194 0.376,-0.23 0.182,-0.037 0.182,0.218 0.254,0.327 0.073,0.109 0.206,0.085 0.407,0.231 0.201,0.145 0.224,0.509 0.224,0.737 0,0.228 0.315,0.56 0.4,0.718 0.085,0.158 0.012,0.413 -0.085,0.437 C 1.819,-0.57 1.625,-0.34 1.48,-0.194 1.334,-0.048 1.019,0.303 0.716,0.303 0.502,0.303 0.327,0.206 0,0 M 2.074,-5.886 C 2.013,-6.101 1.746,-6.647 1.746,-6.647 l -0.327,0.388 c 0,0 -0.097,-0.242 -0.23,-0.242 -0.134,0 -0.316,0.073 -0.316,0.073 0,0 -0.023,0.237 -0.106,0.348 -0.082,0.11 -0.136,0.332 -0.255,0.553 0,0 -0.256,0.051 -0.511,0.136 -0.255,0.085 -0.357,0.29 -0.608,0.539 -0.169,0.158 -0.533,0.401 -0.63,0.68 -0.097,0.279 -0.17,0.727 -0.134,1.031 0.037,0.303 -0.072,0.448 -0.109,0.533 -0.036,0.085 -0.003,0.376 -0.003,0.74 0,0.364 0.137,0.34 0.161,0.704 0.024,0.364 0.036,0.861 0.352,0.994 0.315,0.134 0.376,0.34 0.461,0.497 0.084,0.158 0.703,0.886 1.322,0.886 0.618,0 1.152,-0.546 1.382,-0.691 0.231,-0.146 0.51,-0.437 0.643,-0.51 0.134,-0.073 0.437,-0.364 0.437,-0.74 0,-0.376 -0.068,-0.705 -0.109,-0.823 C 3.049,-1.884 2.929,-2.088 2.997,-2.514 3.066,-2.939 3.031,-3.365 2.827,-3.654 2.623,-3.944 2.453,-4.165 2.35,-4.523 2.248,-4.88 2.074,-5.886 2.074,-5.886"
         style="fill:#77512a;fill-opacity:1;fill-rule:nonzero;stroke:none"
         transform="matrix(1.3333333,0,0,-1.3333333,337.87107,470.52373)"
         clip-path="url(#clipPath1467-0)" />
      <path
         id="path1468"
         d="M 0,0 C -0.181,0.042 -0.417,0.153 -0.646,0.31 L -0.955,0.12 C -0.795,0.008 -0.598,-0.09 -0.31,-0.204 0.696,-0.601 0.3,-0.069 0,0"
         style="fill:#231f20;fill-opacity:1;fill-rule:nonzero;stroke:none"
         transform="matrix(1.3333333,0,0,-1.3333333,350.71187,480.48587)"
         clip-path="url(#clipPath1469-5)" />
      <path
         id="path1470"
         d="M 0,0 C 0.107,0.168 0.268,0.294 0.436,0.401 0.605,0.506 0.788,0.592 0.987,0.638 1.086,0.66 1.193,0.669 1.297,0.648 1.402,0.629 1.499,0.583 1.585,0.524 1.757,0.405 1.887,0.239 1.983,0.057 2.088,-0.128 2.104,-0.352 2.099,-0.548 2.096,-0.747 2.082,-0.946 2.089,-1.135 2.111,-1.508 2.317,-1.854 2.518,-2.186 2.568,-2.271 2.625,-2.35 2.67,-2.452 2.714,-2.551 2.739,-2.657 2.75,-2.761 2.773,-2.97 2.751,-3.169 2.75,-3.363 2.747,-3.463 2.754,-3.547 2.757,-3.658 2.758,-3.764 2.741,-3.873 2.701,-3.975 2.622,-4.178 2.437,-4.352 2.206,-4.375 2.109,-4.385 2.007,-4.39 1.942,-4.425 1.91,-4.441 1.897,-4.462 1.89,-4.496 1.884,-4.531 1.889,-4.576 1.903,-4.609 c 0.028,-0.072 0.102,-0.134 0.18,-0.181 0.08,-0.047 0.169,-0.084 0.26,-0.109 0.089,-0.021 0.192,-0.042 0.279,-0.038 0.091,0.004 0.181,0.034 0.259,0.085 0.16,0.103 0.278,0.267 0.38,0.433 L 3.26,-4.421 3.41,-4.075 3.29,-4.433 3.289,-4.434 V -4.435 C 3.195,-4.609 3.087,-4.784 2.919,-4.907 2.836,-4.969 2.735,-5.012 2.628,-5.02 2.575,-5.025 2.522,-5.022 2.471,-5.015 2.422,-5.009 2.372,-5.003 2.32,-4.991 c -0.1,0.025 -0.197,0.06 -0.289,0.11 -0.09,0.051 -0.183,0.116 -0.235,0.227 -0.024,0.057 -0.033,0.113 -0.026,0.176 0.005,0.064 0.052,0.135 0.109,0.163 0.112,0.06 0.215,0.061 0.311,0.076 0.169,0.019 0.315,0.154 0.376,0.317 0.031,0.082 0.044,0.172 0.043,0.263 -0.003,0.087 -0.014,0.2 -0.012,0.297 0,0.201 0.018,0.398 -0.005,0.582 C 2.581,-2.688 2.559,-2.6 2.522,-2.518 2.486,-2.44 2.431,-2.355 2.381,-2.27 2.182,-1.931 1.965,-1.569 1.942,-1.142 1.937,-0.937 1.954,-0.741 1.959,-0.545 1.964,-0.35 1.962,-0.163 1.874,0.003 1.793,0.173 1.677,0.331 1.527,0.443 1.452,0.498 1.368,0.541 1.279,0.561 1.19,0.582 1.096,0.577 1.001,0.563 0.813,0.531 0.628,0.458 0.457,0.365 0.288,0.269 0.12,0.158 0,0"
         style="fill:#231f20;fill-opacity:1;fill-rule:nonzero;stroke:none"
         transform="matrix(1.3333333,0,0,-1.3333333,343.43427,477.51013)"
         clip-path="url(#clipPath1471-6)" />
      <path
         id="path1472"
         d="m 0,0 c -0.131,0.053 -0.222,0.174 -0.298,0.29 -0.073,0.121 -0.131,0.251 -0.174,0.384 -0.092,0.265 -0.14,0.542 -0.169,0.819 -0.023,0.277 -0.026,0.557 0.007,0.834 0.03,0.277 0.098,0.552 0.213,0.803 C -0.526,2.589 -0.525,2.047 -0.478,1.508 -0.453,1.239 -0.413,0.971 -0.35,0.71 -0.319,0.579 -0.28,0.45 -0.227,0.327 -0.177,0.204 -0.11,0.085 0,0"
         style="fill:#231f20;fill-opacity:1;fill-rule:nonzero;stroke:none"
         transform="matrix(1.3333333,0,0,-1.3333333,343.66067,482.394)"
         clip-path="url(#clipPath1473-35)" />
      <path
         id="path1474"
         d="M 0,0 C 0.096,-0.064 0.19,-0.121 0.279,-0.206 0.36,-0.293 0.426,-0.39 0.484,-0.491 0.599,-0.692 0.685,-0.907 0.752,-1.128 0.783,-1.24 0.811,-1.353 0.825,-1.473 0.838,-1.596 0.826,-1.714 0.808,-1.828 0.773,-2.056 0.711,-2.273 0.661,-2.496 c -0.013,0.229 0.007,0.459 0.02,0.681 0.003,0.112 0.009,0.221 -0.01,0.322 C 0.654,-1.387 0.627,-1.28 0.595,-1.174 0.534,-0.962 0.457,-0.752 0.37,-0.548 0.324,-0.448 0.277,-0.347 0.217,-0.257 0.161,-0.167 0.07,-0.089 0,0"
         style="fill:#231f20;fill-opacity:1;fill-rule:nonzero;stroke:none"
         transform="matrix(1.3333333,0,0,-1.3333333,341.228,478.90653)"
         clip-path="url(#clipPath1475-8)" />
      <path
         id="path1476"
         d="m 0,0 c -0.111,0.178 -0.138,0.391 -0.168,0.592 -0.027,0.203 -0.036,0.407 -0.043,0.609 l -0.002,0.152 c -0.001,0.054 0,0.108 0.007,0.162 0.014,0.106 0.037,0.209 0.071,0.307 C -0.07,2.021 0.022,2.205 0.133,2.377 0.084,2.178 0.027,1.984 -0.012,1.79 -0.03,1.693 -0.048,1.596 -0.051,1.501 -0.054,1.453 -0.055,1.405 -0.054,1.358 L -0.047,1.206 -0.041,0.601 C -0.034,0.4 -0.046,0.198 0,0"
         style="fill:#231f20;fill-opacity:1;fill-rule:nonzero;stroke:none"
         transform="matrix(1.3333333,0,0,-1.3333333,338.8576,482.2648)"
         clip-path="url(#clipPath1477-0)" />
      <path
         id="path1478"
         d="M 0,0 C 0.252,-0.44 0.441,-0.914 0.539,-1.42 0.56,-1.547 0.576,-1.676 0.575,-1.809 0.569,-1.943 0.548,-2.072 0.513,-2.196 0.446,-2.445 0.337,-2.679 0.199,-2.892 c 0.081,0.24 0.146,0.482 0.189,0.723 0.047,0.243 0.038,0.477 -0.01,0.72 -0.041,0.242 -0.107,0.483 -0.172,0.723 z"
         style="fill:#231f20;fill-opacity:1;fill-rule:nonzero;stroke:none"
         transform="matrix(1.3333333,0,0,-1.3333333,337.22413,478.06)"
         clip-path="url(#clipPath1479-2)" />
      <path
         id="path1480"
         d="M 0,0 C 0.102,-0.116 0.222,-0.215 0.351,-0.297 0.482,-0.375 0.619,-0.46 0.771,-0.459 1.078,-0.473 1.388,-0.471 1.697,-0.489 2.006,-0.508 2.317,-0.527 2.622,-0.615 2.777,-0.659 2.915,-0.739 3.049,-0.816 3.184,-0.895 3.315,-0.98 3.44,-1.074 3.69,-1.261 3.924,-1.474 4.115,-1.727 4.211,-1.853 4.292,-1.992 4.354,-2.141 4.415,-2.29 4.457,-2.438 4.497,-2.59 4.535,-2.742 4.565,-2.897 4.588,-3.051 4.613,-3.204 4.625,-3.363 4.654,-3.504 4.746,-3.782 4.852,-4.083 4.969,-4.361 5.029,-4.5 5.094,-4.639 5.175,-4.756 5.258,-4.862 5.378,-4.969 5.494,-5.059 5.734,-5.242 5.991,-5.393 6.289,-5.464 6.376,-5.494 6.448,-5.54 6.515,-5.597 6.548,-5.626 6.579,-5.658 6.607,-5.7 6.62,-5.721 6.633,-5.744 6.642,-5.777 6.651,-5.807 6.652,-5.863 6.616,-5.904 6.543,-5.971 6.487,-5.958 6.443,-5.962 6.397,-5.96 6.355,-5.953 6.314,-5.945 c -0.081,0.017 -0.157,0.04 -0.232,0.065 -0.296,0.109 -0.587,0.223 -0.855,0.407 -0.132,0.092 -0.25,0.206 -0.353,0.326 -0.111,0.125 -0.183,0.269 -0.254,0.408 -0.136,0.283 -0.249,0.573 -0.351,0.867 -0.1,0.291 -0.194,0.599 -0.223,0.912 -0.034,0.305 -0.06,0.615 -0.252,0.837 l 0.1,0.067 C 4.063,-2.414 4.134,-2.805 4.146,-3.192 4.152,-3.386 4.142,-3.58 4.119,-3.772 4.095,-3.964 4.059,-4.151 4.031,-4.34 3.973,-4.717 3.929,-5.097 3.933,-5.478 3.936,-5.668 3.951,-5.859 3.981,-6.047 4.013,-6.235 4.07,-6.418 4.119,-6.603 4.063,-6.42 3.998,-6.24 3.958,-6.051 3.92,-5.863 3.9,-5.671 3.892,-5.479 c -0.016,0.384 0.017,0.769 0.063,1.149 0.022,0.191 0.056,0.381 0.075,0.568 0.019,0.188 0.026,0.378 0.016,0.566 -0.018,0.376 -0.095,0.753 -0.26,1.086 l -0.209,0.421 0.309,-0.355 c 0.109,-0.125 0.18,-0.279 0.22,-0.435 0.04,-0.156 0.057,-0.312 0.077,-0.464 0.031,-0.305 0.121,-0.591 0.222,-0.882 0.102,-0.289 0.215,-0.575 0.35,-0.847 0.068,-0.135 0.138,-0.269 0.234,-0.375 0.099,-0.114 0.206,-0.216 0.327,-0.299 0.243,-0.166 0.534,-0.28 0.817,-0.381 0.071,-0.024 0.143,-0.044 0.213,-0.059 0.035,-0.007 0.07,-0.012 0.101,-0.012 0.03,-0.005 0.06,0.011 0.044,0 -0.015,-0.034 -10e-4,-0.014 -0.021,0.01 -0.015,0.023 -0.038,0.047 -0.063,0.069 -0.049,0.044 -0.11,0.082 -0.169,0.102 -0.023,0.008 -0.073,0.019 -0.11,0.031 -0.039,0.012 -0.077,0.026 -0.115,0.041 -0.075,0.03 -0.146,0.065 -0.217,0.102 -0.14,0.076 -0.273,0.163 -0.398,0.262 -0.126,0.101 -0.24,0.2 -0.347,0.336 -0.094,0.139 -0.158,0.282 -0.219,0.426 -0.121,0.293 -0.219,0.575 -0.318,0.883 -0.032,0.163 -0.042,0.312 -0.066,0.464 -0.021,0.151 -0.049,0.301 -0.085,0.449 -0.036,0.146 -0.076,0.297 -0.129,0.434 -0.054,0.137 -0.128,0.269 -0.216,0.39 -0.177,0.244 -0.4,0.455 -0.641,0.642 C 3.257,-1.064 3.13,-0.978 3,-0.898 2.869,-0.819 2.738,-0.74 2.596,-0.698 2.308,-0.611 1.998,-0.578 1.693,-0.551 1.386,-0.524 1.078,-0.517 0.768,-0.494 0.606,-0.488 0.468,-0.397 0.341,-0.313 0.214,-0.224 0.097,-0.12 0,0"
         style="fill:#231f20;fill-opacity:1;fill-rule:nonzero;stroke:none"
         transform="matrix(1.3333333,0,0,-1.3333333,342.40533,473.11133)"
         clip-path="url(#clipPath1481-0)" />
      <path
         id="path1482"
         d="M 0,0 C 0.052,0.031 0.106,0.057 0.149,0.09 0.169,0.107 0.189,0.124 0.196,0.141 0.199,0.15 0.2,0.153 0.199,0.164 0.198,0.177 0.198,0.19 0.195,0.202 0.188,0.253 0.167,0.299 0.133,0.338 0.099,0.378 0.051,0.41 -0.003,0.438 0.059,0.443 0.122,0.425 0.175,0.385 0.231,0.347 0.265,0.281 0.276,0.215 0.279,0.198 0.278,0.182 0.279,0.165 0.28,0.147 0.274,0.12 0.263,0.103 0.24,0.069 0.211,0.049 0.181,0.036 0.122,0.009 0.061,-0.001 0,0"
         style="fill:#231f20;fill-opacity:1;fill-rule:nonzero;stroke:none"
         transform="matrix(1.3333333,0,0,-1.3333333,344.0204,483.14)"
         clip-path="url(#clipPath1483-6)" />
      <path
         id="path1484"
         d="M 0,0 C 0.067,0.018 0.136,0.024 0.206,0.021 0.276,0.019 0.347,0.006 0.416,-0.034 0.449,-0.055 0.481,-0.087 0.495,-0.13 0.507,-0.174 0.504,-0.214 0.492,-0.249 0.47,-0.323 0.42,-0.381 0.358,-0.412 c 0.039,0.056 0.067,0.116 0.073,0.175 0.005,0.064 -0.009,0.105 -0.059,0.134 -0.048,0.031 -0.111,0.046 -0.174,0.062 z"
         style="fill:#231f20;fill-opacity:1;fill-rule:nonzero;stroke:none"
         transform="matrix(1.3333333,0,0,-1.3333333,342.81187,482.66907)"
         clip-path="url(#clipPath1485-2)" />
      <path
         id="path1486"
         d="M 0,0 C 0.103,0.038 0.241,-0.01 0.3,-0.12 0.36,-0.23 0.331,-0.36 0.265,-0.444 0.267,-0.389 0.271,-0.338 0.266,-0.29 0.261,-0.242 0.251,-0.197 0.228,-0.159 0.186,-0.081 0.105,-0.029 0,0"
         style="fill:#231f20;fill-opacity:1;fill-rule:nonzero;stroke:none"
         transform="matrix(1.3333333,0,0,-1.3333333,343.43427,482.60453)"
         clip-path="url(#clipPath1487-4)" />
      <path
         id="path1488"
         d="M 0,0 C -0.06,0.067 -0.096,0.164 -0.075,0.259 -0.057,0.357 0.032,0.422 0.102,0.471 0.176,0.522 0.254,0.574 0.342,0.603 0.43,0.634 0.525,0.639 0.614,0.619 0.43,0.631 0.266,0.546 0.126,0.438 0.048,0.387 -0.021,0.336 -0.044,0.251 -0.068,0.169 -0.048,0.076 0,0"
         style="fill:#231f20;fill-opacity:1;fill-rule:nonzero;stroke:none"
         transform="matrix(1.3333333,0,0,-1.3333333,336.97173,483.09)"
         clip-path="url(#clipPath1489-0)" />
      <path
         id="path1490"
         d="m 0,0 c -0.011,-0.056 -0.012,-0.092 -0.015,-0.134 -0.004,-0.042 -0.005,-0.084 -0.02,-0.14 -0.024,0.017 -0.038,0.041 -0.049,0.065 -0.011,0.026 -0.014,0.053 -0.012,0.081 C -0.092,-0.074 -0.06,-0.012 0,0"
         style="fill:#231f20;fill-opacity:1;fill-rule:nonzero;stroke:none"
         transform="matrix(1.3333333,0,0,-1.3333333,337.33587,482.84787)"
         clip-path="url(#clipPath1491-4)" />
      <path
         id="path1492"
         d="M 0,0 C 0.001,-0.076 -0.008,-0.14 -0.012,-0.203 -0.017,-0.267 -0.018,-0.321 0,-0.395 -0.072,-0.361 -0.1,-0.27 -0.093,-0.197 -0.086,-0.122 -0.057,-0.051 0,0"
         style="fill:#231f20;fill-opacity:1;fill-rule:nonzero;stroke:none"
         transform="matrix(1.3333333,0,0,-1.3333333,337.72547,482.66907)"
         clip-path="url(#clipPath1493-4)" />
      <path
         id="path1494"
         d="M 0,0 C 0.004,-0.077 0.002,-0.143 0.003,-0.21 V -0.312 C 0.002,-0.346 0.004,-0.381 0,-0.421 c -0.055,0.057 -0.077,0.135 -0.078,0.211 0,0.038 0.005,0.076 0.019,0.112 C -0.047,-0.062 -0.029,-0.027 0,0"
         style="fill:#231f20;fill-opacity:1;fill-rule:nonzero;stroke:none"
         transform="matrix(1.3333333,0,0,-1.3333333,338.2028,482.60427)"
         clip-path="url(#clipPath1495-2)" />
      <path
         id="path1496"
         d="m 0,0 c -0.017,-0.027 -0.025,-0.05 -0.036,-0.074 -0.009,-0.024 -0.021,-0.045 -0.03,-0.068 -0.012,-0.021 -0.02,-0.043 -0.03,-0.065 -0.009,-0.022 -0.018,-0.042 -0.016,-0.074 -0.032,0.012 -0.045,0.051 -0.047,0.082 -0.003,0.033 0.006,0.064 0.018,0.092 0.014,0.027 0.031,0.052 0.055,0.072 C -0.063,-0.016 -0.033,0.003 0,0"
         style="fill:#231f20;fill-opacity:1;fill-rule:nonzero;stroke:none"
         transform="matrix(1.3333333,0,0,-1.3333333,346.2896,483.4708)"
         clip-path="url(#clipPath1497-84)" />
      <path
         id="path1498"
         d="m 0,0 c -0.014,-0.026 -0.018,-0.047 -0.023,-0.069 l -0.013,-0.066 c -0.009,-0.044 -0.022,-0.08 -0.02,-0.138 -0.03,0.011 -0.048,0.04 -0.057,0.068 -0.01,0.029 -0.008,0.059 -0.003,0.087 0.007,0.028 0.017,0.056 0.038,0.078 C -0.06,-0.018 -0.032,0.004 0,0"
         style="fill:#231f20;fill-opacity:1;fill-rule:nonzero;stroke:none"
         transform="matrix(1.3333333,0,0,-1.3333333,346.57827,483.6188)"
         clip-path="url(#clipPath1499-1)" />
      <path
         id="path1500"
         d="m 0,0 c -0.002,-0.059 0.002,-0.103 0.001,-0.15 -0.001,-0.023 0.001,-0.045 0,-0.067 0.002,-0.022 0.003,-0.043 0.019,-0.07 -0.033,-0.004 -0.063,0.022 -0.078,0.05 -0.017,0.027 -0.022,0.058 -0.023,0.087 0.001,0.03 0.006,0.059 0.02,0.085 C -0.048,-0.039 -0.03,-0.011 0,0"
         style="fill:#231f20;fill-opacity:1;fill-rule:nonzero;stroke:none"
         transform="matrix(1.3333333,0,0,-1.3333333,346.85533,483.68667)"
         clip-path="url(#clipPath1501-4)" />
      <path
         id="path1502"
         d="m 0,0 -0.203,-0.031 -0.069,-0.13 M -1.266,0 l 0.203,-0.031 0.069,-0.13"
         style="fill:none;stroke:#040606;stroke-width:0.164;stroke-linecap:round;stroke-linejoin:miter;stroke-miterlimit:10;stroke-dasharray:none;stroke-opacity:1"
         transform="matrix(1.3333333,0,0,-1.3333333,339.68347,471.62787)"
         clip-path="url(#clipPath1503-3)" />
      <path
         id="path1504"
         d="M 0,0 C 0,-0.098 0.185,-0.308 0.262,-0.315 0.338,-0.323 0.591,-0.175 0.591,0 0.591,0.132 0,0.121 0,0"
         style="fill:#040606;fill-opacity:1;fill-rule:nonzero;stroke:none"
         transform="matrix(1.3333333,0,0,-1.3333333,338.44067,472.9496)"
         clip-path="url(#clipPath1505-9)" />
      <path
         id="path1506"
         d="M 0,0 C -0.17,0.049 -0.298,0.181 -0.412,0.308 -0.527,0.439 -0.646,0.559 -0.786,0.663 -0.92,0.771 -1.057,0.882 -1.166,1.024 -1.22,1.093 -1.265,1.178 -1.29,1.262 -1.317,1.346 -1.34,1.43 -1.359,1.516 c -0.038,0.171 -0.062,0.345 -0.068,0.522 -0.003,0.086 0.004,0.182 0.011,0.263 0.005,0.082 0,0.164 -0.021,0.241 -0.02,0.082 -0.057,0.139 -0.1,0.236 -0.025,0.107 -0.015,0.187 -0.016,0.277 0.004,0.175 0.008,0.342 0.007,0.519 0.002,0.09 0.017,0.187 0.052,0.275 0.034,0.087 0.068,0.155 0.082,0.234 0.029,0.154 0.024,0.336 0.047,0.51 0.022,0.174 0.05,0.359 0.161,0.524 0.028,0.041 0.061,0.079 0.103,0.11 0.036,0.032 0.094,0.058 0.126,0.073 0.072,0.034 0.14,0.076 0.194,0.13 0.056,0.053 0.099,0.117 0.136,0.191 l 0.058,0.115 c 0.022,0.043 0.052,0.085 0.078,0.12 0.11,0.143 0.233,0.27 0.367,0.387 C -0.008,6.36 0.138,6.466 0.3,6.548 0.461,6.63 0.644,6.69 0.835,6.684 1.213,6.673 1.545,6.489 1.828,6.285 1.971,6.184 2.106,6.065 2.238,5.975 2.392,5.874 2.521,5.756 2.651,5.643 2.716,5.587 2.781,5.529 2.845,5.485 2.869,5.469 2.924,5.438 2.957,5.409 2.994,5.38 3.028,5.348 3.06,5.315 3.186,5.181 3.286,5.017 3.326,4.832 3.347,4.738 3.345,4.641 3.342,4.556 3.338,4.468 3.332,4.38 3.322,4.292 3.299,4.118 3.272,3.943 3.207,3.771 3.145,3.607 3.076,3.452 3.048,3.29 3.017,3.126 3.036,2.965 3.061,2.789 3.098,2.443 3.081,2.066 2.886,1.756 2.681,1.472 2.467,1.202 2.372,0.869 L 2.137,-0.141 2.33,0.881 C 2.415,1.224 2.63,1.518 2.818,1.798 2.989,2.086 3.002,2.444 2.958,2.777 2.931,2.942 2.904,3.129 2.935,3.308 2.963,3.489 3.033,3.654 3.089,3.815 3.144,3.968 3.167,4.139 3.185,4.307 3.198,4.473 3.218,4.654 3.187,4.802 3.154,4.955 3.066,5.098 2.955,5.214 2.927,5.243 2.897,5.27 2.866,5.294 2.833,5.322 2.811,5.332 2.763,5.362 2.684,5.417 2.62,5.474 2.554,5.53 2.422,5.643 2.294,5.758 2.156,5.846 2.002,5.949 1.877,6.06 1.737,6.158 1.463,6.353 1.155,6.513 0.832,6.521 0.516,6.529 0.212,6.339 -0.04,6.125 -0.166,6.016 -0.286,5.894 -0.388,5.764 -0.414,5.729 -0.434,5.701 -0.452,5.666 L -0.511,5.551 C -0.553,5.471 -0.607,5.389 -0.678,5.323 -1.478,5.097 -1.091,4.143 -1.42,3.569 -1.423,3.4 -1.431,3.222 -1.439,3.051 -1.441,2.969 -1.447,2.873 -1.433,2.811 -1.407,2.75 -1.355,2.656 -1.337,2.568 -1.315,2.477 -1.311,2.384 -1.319,2.294 -1.329,2.203 -1.336,2.126 -1.335,2.039 -1.333,1.87 -1.313,1.7 -1.281,1.532 -1.245,1.365 -1.217,1.193 -1.116,1.06 -1.019,0.923 -0.888,0.808 -0.758,0.696 -0.623,0.588 -0.502,0.457 -0.394,0.324 -0.285,0.192 -0.167,0.057 0,0"
         style="fill:#040606;fill-opacity:1;fill-rule:nonzero;stroke:none"
         transform="matrix(1.3333333,0,0,-1.3333333,337.87253,477.7116)"
         clip-path="url(#clipPath1507-2)" />
      <path
         id="path1508"
         d="m 0,0 c 0.055,-0.013 0.11,-0.026 0.165,-0.034 0.054,-0.007 0.112,-0.016 0.16,-0.009 0.042,0.008 0.078,0.048 0.109,0.089 0.029,0.042 0.055,0.091 0.075,0.139 L 0.534,0.245 0.576,0.196 C 0.687,0.068 0.795,-0.063 0.896,-0.199 L 0.843,-0.215 C 0.865,-0.092 0.893,0.033 0.958,0.141 0.923,0.023 0.913,-0.101 0.903,-0.221 L 0.898,-0.289 0.85,-0.238 C 0.734,-0.115 0.623,0.013 0.515,0.144 L 0.583,0.155 C 0.559,0.099 0.529,0.049 0.491,0.001 0.454,-0.044 0.404,-0.093 0.331,-0.1 0.266,-0.1 0.212,-0.086 0.157,-0.068 0.103,-0.048 0.05,-0.028 0,0"
         style="fill:#040606;fill-opacity:1;fill-rule:nonzero;stroke:none"
         transform="matrix(1.3333333,0,0,-1.3333333,339.03533,479.09507)"
         clip-path="url(#clipPath1509-0)" />
      <path
         id="path1510"
         d="m 0,0 c -0.12,-0.017 -0.241,0.01 -0.359,0.035 -0.03,0.008 -0.059,0.017 -0.087,0.026 -0.03,0.009 -0.067,0.025 -0.096,0.051 -0.061,0.053 -0.08,0.129 -0.092,0.191 -0.021,0.128 -0.016,0.241 -0.038,0.351 -0.021,0.124 -0.02,0.244 -0.042,0.348 -0.019,0.108 -0.061,0.186 -0.143,0.268 -0.091,0.105 -0.141,0.227 -0.168,0.347 -0.057,0.242 -0.05,0.486 -0.018,0.722 0.031,-0.236 0.068,-0.471 0.14,-0.686 0.038,-0.105 0.087,-0.207 0.158,-0.275 0.092,-0.08 0.172,-0.217 0.192,-0.345 0.023,-0.128 0.02,-0.247 0.034,-0.357 0.015,-0.125 0.007,-0.25 0.011,-0.357 0.004,-0.054 0.015,-0.1 0.041,-0.131 C -0.446,0.157 -0.385,0.136 -0.333,0.111 -0.227,0.061 -0.118,0.02 0,0"
         style="fill:#040606;fill-opacity:1;fill-rule:nonzero;stroke:none"
         transform="matrix(1.3333333,0,0,-1.3333333,338.58253,474.45347)"
         clip-path="url(#clipPath1511-6)" />
      <path
         id="path1512"
         d="M 0,0 C 0.04,0.075 0.088,0.146 0.15,0.207 0.213,0.268 0.289,0.31 0.358,0.358 0.5,0.45 0.646,0.547 0.823,0.589 0.909,0.607 1.005,0.611 1.095,0.585 1.183,0.56 1.263,0.519 1.338,0.471 1.486,0.375 1.613,0.254 1.734,0.135 1.858,0.019 1.973,-0.112 2.093,-0.216 2.122,-0.241 2.156,-0.264 2.173,-0.268 2.256,-0.298 2.28,-0.353 2.304,-0.398 2.346,-0.491 2.358,-0.589 2.344,-0.689 2.336,-0.738 2.316,-0.793 2.29,-0.834 2.264,-0.875 2.238,-0.91 2.212,-0.945 2.16,-1.014 2.109,-1.08 2.061,-1.147 2.014,-1.214 1.97,-1.282 1.943,-1.351 1.928,-1.385 1.92,-1.418 1.917,-1.448 1.916,-1.47 1.923,-1.513 1.932,-1.553 1.959,-1.714 2.016,-1.874 2.037,-2.057 2.046,-2.148 2.041,-2.248 2.018,-2.335 1.999,-2.416 1.983,-2.498 1.969,-2.58 1.942,-2.745 1.92,-2.912 1.911,-3.077 L 1.906,-3.206 C 1.903,-3.256 1.891,-3.303 1.876,-3.347 1.845,-3.434 1.803,-3.511 1.765,-3.585 1.727,-3.66 1.692,-3.733 1.671,-3.809 1.661,-3.846 1.654,-3.884 1.652,-3.922 1.649,-3.961 1.647,-4.01 1.641,-4.053 1.617,-4.228 1.563,-4.391 1.525,-4.553 1.506,-4.634 1.491,-4.715 1.491,-4.796 1.493,-4.877 1.508,-4.96 1.528,-5.041 c 0.043,-0.162 0.1,-0.323 0.177,-0.474 -0.092,0.143 -0.164,0.299 -0.219,0.462 -0.026,0.081 -0.048,0.165 -0.057,0.254 -0.006,0.089 0.003,0.177 0.017,0.262 0.031,0.17 0.078,0.333 0.092,0.495 0.004,0.042 0.004,0.078 0.005,0.124 0,0.047 0.007,0.093 0.017,0.137 0.02,0.09 0.056,0.172 0.092,0.25 0.035,0.078 0.071,0.153 0.094,0.227 0.011,0.037 0.019,0.073 0.021,0.107 l 0.003,0.126 c 0.007,0.174 0.026,0.344 0.052,0.515 0.014,0.085 0.029,0.169 0.047,0.254 0.018,0.078 0.02,0.15 0.012,0.228 -0.019,0.154 -0.077,0.317 -0.11,0.49 -0.007,0.043 -0.017,0.084 -0.015,0.147 0.005,0.055 0.02,0.104 0.039,0.148 0.038,0.088 0.088,0.162 0.139,0.233 0.052,0.071 0.106,0.138 0.157,0.204 0.026,0.032 0.05,0.065 0.07,0.096 0.02,0.031 0.029,0.056 0.036,0.091 0.011,0.067 0.002,0.146 -0.025,0.207 -0.011,0.03 -0.037,0.054 -0.036,0.052 -0.065,0.021 -0.098,0.053 -0.134,0.082 -0.136,0.119 -0.24,0.25 -0.358,0.371 C 1.529,0.171 1.413,0.291 1.28,0.386 1.147,0.481 0.999,0.543 0.837,0.51 0.679,0.486 0.528,0.402 0.38,0.321 0.308,0.278 0.23,0.242 0.167,0.189 0.102,0.136 0.047,0.071 0,0"
         style="fill:#040606;fill-opacity:1;fill-rule:nonzero;stroke:none"
         transform="matrix(1.3333333,0,0,-1.3333333,337.55507,470.86707)"
         clip-path="url(#clipPath1513-0)" />
      <path
         id="path1514"
         d="M 0,0 C -0.039,0.169 -0.055,0.35 -0.005,0.529 0.014,0.615 0.063,0.707 0.083,0.77 0.101,0.831 0.102,0.916 0.098,0.996 0.092,1.158 0.065,1.325 0.039,1.491 0.008,1.657 -0.023,1.823 -0.073,1.989 0.039,1.853 0.108,1.687 0.163,1.522 0.216,1.354 0.252,1.182 0.261,1.002 0.262,0.912 0.264,0.821 0.229,0.719 0.207,0.661 0.188,0.638 0.168,0.597 0.15,0.56 0.131,0.524 0.115,0.487 0.05,0.341 0.028,0.172 0,0"
         style="fill:#040606;fill-opacity:1;fill-rule:nonzero;stroke:none"
         transform="matrix(1.3333333,0,0,-1.3333333,339.03533,477.3808)"
         clip-path="url(#clipPath1515-9)" />
      <path
         id="path1516"
         d="M 0,0 C 0.146,-0.142 0.273,-0.306 0.365,-0.494 0.413,-0.587 0.448,-0.689 0.465,-0.8 0.479,-0.914 0.463,-1.019 0.45,-1.12 0.42,-1.321 0.371,-1.516 0.375,-1.7 0.377,-1.784 0.421,-1.881 0.446,-1.978 0.474,-2.074 0.501,-2.171 0.522,-2.271 0.468,-2.185 0.42,-2.095 0.371,-2.006 c -0.043,0.092 -0.103,0.173 -0.123,0.291 -0.032,0.22 0.014,0.423 0.04,0.619 0.016,0.097 0.03,0.194 0.023,0.28 -0.005,0.09 -0.033,0.182 -0.063,0.273 C 0.184,-0.36 0.091,-0.182 0,0"
         style="fill:#040606;fill-opacity:1;fill-rule:nonzero;stroke:none"
         transform="matrix(1.3333333,0,0,-1.3333333,337.9956,475.16507)"
         clip-path="url(#clipPath1517-7)" />
      <path
         id="path1518"
         d="m 0,0 c -0.064,0.082 -0.132,0.159 -0.2,0.238 -0.068,0.078 -0.139,0.157 -0.191,0.254 -0.104,0.201 -0.084,0.43 -0.078,0.634 0.009,0.209 0.033,0.414 0.037,0.617 0.003,0.102 0.004,0.203 -0.008,0.298 -0.005,0.047 -0.016,0.092 -0.029,0.131 -0.014,0.031 -0.04,0.072 -0.072,0.113 -0.24,0.328 -0.532,0.651 -0.646,1.083 -0.01,0.055 -0.019,0.111 -0.015,0.169 10e-4,0.059 0.01,0.106 0.016,0.159 0.014,0.104 0.029,0.208 0.052,0.311 0.049,0.203 0.128,0.409 0.271,0.562 C -0.976,4.394 -1.033,4.195 -1.055,3.992 -1.069,3.891 -1.077,3.789 -1.083,3.687 -1.09,3.579 -1.093,3.489 -1.064,3.398 -1.006,3.215 -0.899,3.04 -0.782,2.875 -0.666,2.708 -0.537,2.55 -0.409,2.381 -0.379,2.34 -0.346,2.295 -0.319,2.23 -0.298,2.172 -0.287,2.115 -0.281,2.06 -0.269,1.949 -0.27,1.842 -0.277,1.736 -0.292,1.526 -0.317,1.32 -0.344,1.115 -0.366,0.912 -0.396,0.707 -0.318,0.526 -0.244,0.344 -0.093,0.185 0,0"
         style="fill:#040606;fill-opacity:1;fill-rule:nonzero;stroke:none"
         transform="matrix(1.3333333,0,0,-1.3333333,337.9956,476.68533)"
         clip-path="url(#clipPath1519-1)" />
      <path
         id="path1520"
         d="M 0,0 C 0.086,0.153 0.204,0.287 0.327,0.412 0.452,0.537 0.588,0.652 0.74,0.747 0.892,0.84 1.063,0.912 1.248,0.932 1.343,0.942 1.423,0.941 1.515,0.944 1.605,0.943 1.698,0.941 1.794,0.909 1.842,0.893 1.891,0.867 1.931,0.827 1.951,0.807 1.967,0.783 1.981,0.759 1.991,0.737 2.004,0.715 2.011,0.692 2.047,0.598 2.054,0.503 2.062,0.417 2.07,0.33 2.079,0.249 2.105,0.177 2.133,0.103 2.171,0.049 2.233,-0.018 2.351,-0.149 2.459,-0.277 2.597,-0.369 2.727,-0.451 2.909,-0.529 3.043,-0.669 3.11,-0.739 3.167,-0.827 3.194,-0.926 3.223,-1.024 3.222,-1.13 3.199,-1.225 3.153,-1.417 3.045,-1.568 2.95,-1.714 2.902,-1.787 2.854,-1.859 2.818,-1.93 2.779,-2.004 2.772,-2.061 2.773,-2.153 2.772,-2.324 2.78,-2.499 2.788,-2.672 2.798,-2.846 2.81,-3.02 2.829,-3.192 2.845,-3.361 2.891,-3.54 2.874,-3.721 2.865,-3.902 2.81,-4.073 2.767,-4.241 2.724,-4.409 2.7,-4.582 2.705,-4.757 c -0.023,0.173 -0.014,0.352 0.02,0.525 0.031,0.174 0.073,0.343 0.069,0.514 0.007,0.17 -0.042,0.334 -0.068,0.512 -0.026,0.175 -0.046,0.349 -0.063,0.524 -0.017,0.176 -0.032,0.351 -0.032,0.53 0.001,0.047 -0.002,0.086 0.008,0.143 0.009,0.053 0.029,0.099 0.048,0.142 0.042,0.086 0.091,0.16 0.138,0.234 0.093,0.146 0.189,0.291 0.222,0.443 0.035,0.149 -0.012,0.298 -0.122,0.407 C 2.816,-0.665 2.669,-0.6 2.506,-0.496 2.353,-0.39 2.234,-0.246 2.121,-0.115 1.803,0.163 2.031,0.69 1.752,0.791 1.611,0.841 1.422,0.831 1.256,0.829 1.092,0.819 0.93,0.759 0.78,0.678 0.48,0.512 0.21,0.278 0,0"
         style="fill:#040606;fill-opacity:1;fill-rule:nonzero;stroke:none"
         transform="matrix(1.3333333,0,0,-1.3333333,337.19173,470.08707)"
         clip-path="url(#clipPath1521-1)" />
      <path
         id="path1522"
         d="M 0,0 C -0.035,0.157 -0.056,0.318 -0.101,0.462 -0.125,0.533 -0.156,0.599 -0.202,0.656 -0.245,0.71 -0.306,0.776 -0.353,0.839 -0.45,0.969 -0.536,1.098 -0.635,1.22 -0.684,1.281 -0.732,1.337 -0.794,1.384 -0.824,1.406 -0.867,1.444 -0.872,1.49 -0.88,1.533 -0.877,1.573 -0.873,1.613 -0.864,1.574 -0.855,1.534 -0.841,1.5 -0.827,1.465 -0.8,1.453 -0.762,1.435 -0.688,1.398 -0.62,1.342 -0.564,1.284 -0.447,1.171 -0.35,1.038 -0.255,0.913 -0.209,0.847 -0.161,0.797 -0.108,0.724 -0.059,0.652 -0.024,0.569 -0.009,0.486 0.024,0.321 0.012,0.16 0,0"
         style="fill:#040606;fill-opacity:1;fill-rule:nonzero;stroke:none"
         transform="matrix(1.3333333,0,0,-1.3333333,337.0624,476.1516)"
         clip-path="url(#clipPath1523-3)" />
      <path
         id="path1524"
         d="m 0,0 c -0.092,-0.214 -0.203,-0.418 -0.277,-0.627 -0.036,-0.105 -0.066,-0.211 -0.072,-0.316 -0.008,-0.103 0.012,-0.204 0.043,-0.313 0.057,-0.215 0.138,-0.433 0.192,-0.66 0.053,-0.224 0.102,-0.471 0.028,-0.698 0.004,0.117 -0.013,0.228 -0.046,0.337 -0.028,0.109 -0.066,0.216 -0.104,0.324 -0.078,0.214 -0.164,0.426 -0.229,0.655 -0.028,0.113 -0.054,0.242 -0.038,0.37 0.017,0.125 0.056,0.242 0.108,0.349 C -0.294,-0.361 -0.145,-0.18 0,0"
         style="fill:#040606;fill-opacity:1;fill-rule:nonzero;stroke:none"
         transform="matrix(1.3333333,0,0,-1.3333333,340.68493,475.07613)"
         clip-path="url(#clipPath1525-4)" />
      <path
         id="path1526"
         d="m 0,0 c -0.877,-0.06 -1.545,-0.726 -1.491,-1.487 0.055,-0.761 0.81,-1.329 1.688,-1.269 0.877,0.06 1.544,0.726 1.49,1.487 C 1.633,-0.508 0.877,0.06 0,0 M 1.061,-1.311 C 1.094,-1.781 0.69,-2.193 0.158,-2.23 c -0.532,-0.037 -0.99,0.314 -1.022,0.785 -0.033,0.47 0.371,0.881 0.903,0.919 0.531,0.037 0.989,-0.314 1.022,-0.785"
         style="fill:#231f20;fill-opacity:1;fill-rule:nonzero;stroke:none"
         transform="matrix(1.3333333,0,0,-1.3333333,337.56213,462.0556)"
         clip-path="url(#clipPath1527-4)" />
      <path
         id="path1528"
         d="m 0,0 c -0.859,0.187 -1.686,-0.266 -1.847,-1.012 -0.16,-0.746 0.407,-1.502 1.266,-1.689 0.86,-0.188 1.686,0.265 1.847,1.011 C 1.426,-0.944 0.859,-0.187 0,0 m 0.653,-1.555 c -0.1,-0.461 -0.603,-0.743 -1.124,-0.63 -0.521,0.113 -0.863,0.578 -0.763,1.038 0.1,0.461 0.603,0.743 1.124,0.631 0.521,-0.113 0.862,-0.578 0.763,-1.039"
         style="fill:#231f20;fill-opacity:1;fill-rule:nonzero;stroke:none"
         transform="matrix(1.3333333,0,0,-1.3333333,350.87427,463.15333)"
         clip-path="url(#clipPath1529-05)" />
      <path
         id="path1530"
         d="m 0,0 h -1.04 v 0.418 h 0.255 V 2.22 h -0.346 v 0.436 h 0.855 L 1.089,0.837 V 2.22 H 0.748 V 2.656 H 1.901 V 2.22 H 1.582 V 0 H 1.132 L -0.294,1.916 -0.287,0.418 H 0 Z"
         style="fill:#231f20;fill-opacity:1;fill-rule:nonzero;stroke:none"
         transform="matrix(1.3333333,0,0,-1.3333333,341.4084,465.34853)"
         clip-path="url(#clipPath1531-8)" />
      <path
         id="path1532"
         d="m 0,0 -0.419,0.164 -0.1,-0.272 c -0.267,0.244 -0.632,0.408 -1.044,0.437 -0.878,0.063 -1.631,-0.504 -1.683,-1.265 -0.052,-0.762 0.617,-1.429 1.494,-1.491 0.313,-0.023 0.61,0.036 0.865,0.155 l -0.046,-0.304 0.405,-0.08 0.193,0.815 0.135,0.567 -0.501,0.108 -1.114,0.24 -0.077,-0.439 1.001,-0.215 c -0.189,-0.215 -0.493,-0.344 -0.826,-0.321 -0.532,0.037 -0.936,0.449 -0.903,0.919 0.033,0.47 0.49,0.822 1.022,0.785 0.389,-0.028 0.709,-0.255 0.84,-0.559 0.011,-0.025 0.02,-0.05 0.028,-0.075 l 0.454,-0.102 z"
         style="fill:#231f20;fill-opacity:1;fill-rule:nonzero;stroke:none"
         transform="matrix(1.3333333,0,0,-1.3333333,348.464,462.48613)"
         clip-path="url(#clipPath1533-58)" />
      <path
         id="path1534"
         d="m 0,0 c -0.093,-0.227 -0.281,-0.427 -0.539,-0.541 -0.488,-0.215 -1.037,-0.039 -1.227,0.393 -0.19,0.431 0.051,0.955 0.539,1.17 0.384,0.169 0.804,0.093 1.059,-0.156 L -0.167,0.871 0.282,0.994 0.21,1.347 0.088,1.948 -0.359,1.896 -0.304,1.601 c -0.352,0.095 -0.755,0.071 -1.137,-0.097 -0.806,-0.353 -1.209,-1.205 -0.9,-1.903 0.308,-0.698 1.211,-0.977 2.017,-0.624 0.462,0.203 0.791,0.571 0.93,0.979 z"
         style="fill:#231f20;fill-opacity:1;fill-rule:nonzero;stroke:none"
         transform="matrix(1.3333333,0,0,-1.3333333,334.6512,465.14413)"
         clip-path="url(#clipPath1535-91)" />
      <path
         id="path1536"
         d="M 0,0 -0.366,0.931 -0.533,0.866 -0.594,1.021 0.427,1.423 0.574,1.049 0.412,0.985 0.326,1.203 -0.167,1.009 -0.023,0.642 0.402,0.809 0.463,0.653 0.038,0.486 0.199,0.078 l 0.168,0.066 0.061,-0.155 -0.534,-0.21 -0.061,0.155 z"
         style="fill:#231f20;fill-opacity:1;fill-rule:nonzero;stroke:none"
         transform="matrix(1.3333333,0,0,-1.3333333,335.04533,468.82693)"
         clip-path="url(#clipPath1537-2)" />
      <path
         id="path1538"
         d="M 0,0 -0.272,0.963 -0.449,0.913 -0.494,1.074 0.637,1.394 0.747,1.007 0.578,0.959 0.514,1.186 -0.067,1.021 0.041,0.639 0.547,0.782 0.593,0.621 0.087,0.478 0.205,0.058 0.787,0.223 0.721,0.456 0.889,0.504 1.001,0.11 -0.131,-0.21 -0.176,-0.05 Z"
         style="fill:#231f20;fill-opacity:1;fill-rule:nonzero;stroke:none"
         transform="matrix(1.3333333,0,0,-1.3333333,336.49133,468.28693)"
         clip-path="url(#clipPath1539-7)" />
      <path
         id="path1540"
         d="m 0,0 0.198,-0.065 c -0.017,-0.153 -0.08,-0.28 -0.19,-0.382 -0.111,-0.101 -0.247,-0.165 -0.408,-0.192 -0.211,-0.036 -0.392,0 -0.541,0.108 -0.15,0.108 -0.24,0.257 -0.272,0.448 -0.035,0.209 0.001,0.386 0.109,0.531 0.107,0.145 0.264,0.235 0.471,0.27 0.182,0.03 0.344,0.009 0.484,-0.064 l -0.02,0.12 0.18,0.03 0.071,-0.422 -0.18,-0.031 C -0.153,0.43 -0.226,0.486 -0.317,0.519 -0.409,0.552 -0.501,0.561 -0.593,0.545 -0.732,0.522 -0.838,0.456 -0.911,0.346 -0.985,0.236 -1.01,0.109 -0.985,-0.035 c 0.025,-0.148 0.093,-0.261 0.204,-0.339 0.112,-0.078 0.233,-0.106 0.364,-0.084 0.108,0.018 0.2,0.067 0.277,0.147 0.078,0.08 0.124,0.184 0.14,0.311"
         style="fill:#231f20;fill-opacity:1;fill-rule:nonzero;stroke:none"
         transform="matrix(1.3333333,0,0,-1.3333333,339.45093,467.11667)"
         clip-path="url(#clipPath1541-7)" />
      <path
         id="path1542"
         d="M 0,0 C 0.007,-0.146 0.059,-0.267 0.154,-0.361 0.25,-0.456 0.371,-0.5 0.519,-0.492 c 0.146,0.007 0.264,0.063 0.353,0.169 0.089,0.106 0.13,0.229 0.124,0.37 C 0.989,0.189 0.935,0.306 0.834,0.4 0.733,0.493 0.611,0.536 0.466,0.529 0.322,0.522 0.206,0.468 0.119,0.367 0.033,0.266 -0.007,0.144 0,0 m -0.233,-0.01 c -0.009,0.193 0.05,0.358 0.178,0.495 C 0.072,0.622 0.244,0.696 0.459,0.706 0.677,0.717 0.857,0.661 1,0.537 1.143,0.413 1.22,0.254 1.229,0.057 1.239,-0.142 1.178,-0.311 1.045,-0.448 0.912,-0.585 0.738,-0.658 0.524,-0.669 0.387,-0.676 0.26,-0.651 0.142,-0.595 c -0.118,0.056 -0.209,0.138 -0.271,0.245 -0.063,0.108 -0.098,0.221 -0.104,0.34"
         style="fill:#231f20;fill-opacity:1;fill-rule:nonzero;stroke:none"
         transform="matrix(1.3333333,0,0,-1.3333333,340.302,466.85293)"
         clip-path="url(#clipPath1543-0)" />
      <path
         id="path1544"
         d="M 0,0 0.05,0.999 -0.129,1.008 -0.121,1.175 0.975,1.121 0.955,0.719 0.781,0.728 0.792,0.963 0.263,0.989 0.243,0.594 0.699,0.571 0.691,0.405 0.235,0.427 0.213,-0.011 0.394,-0.02 0.386,-0.186 l -0.573,0.028 0.008,0.167 z"
         style="fill:#231f20;fill-opacity:1;fill-rule:nonzero;stroke:none"
         transform="matrix(1.3333333,0,0,-1.3333333,342.37947,467.4704)"
         clip-path="url(#clipPath1545-4)" />
      <path
         id="path1546"
         d="m 0,0 c -0.022,-0.145 0.004,-0.273 0.079,-0.385 0.075,-0.112 0.185,-0.179 0.332,-0.201 0.145,-0.022 0.271,0.01 0.38,0.096 0.108,0.086 0.173,0.199 0.194,0.338 C 1.006,-0.012 0.977,0.114 0.897,0.226 0.817,0.337 0.705,0.404 0.562,0.426 0.419,0.448 0.295,0.418 0.19,0.336 0.085,0.254 0.022,0.142 0,0 M -0.23,0.036 C -0.201,0.228 -0.11,0.378 0.042,0.487 0.195,0.595 0.377,0.633 0.591,0.601 0.806,0.568 0.971,0.477 1.087,0.327 1.203,0.178 1.246,0.006 1.216,-0.188 1.186,-0.386 1.092,-0.539 0.935,-0.647 0.777,-0.754 0.592,-0.792 0.38,-0.76 c -0.135,0.021 -0.255,0.07 -0.36,0.149 -0.104,0.078 -0.176,0.176 -0.217,0.294 -0.04,0.118 -0.051,0.235 -0.033,0.353"
         style="fill:#231f20;fill-opacity:1;fill-rule:nonzero;stroke:none"
         transform="matrix(1.3333333,0,0,-1.3333333,344.15293,466.91373)"
         clip-path="url(#clipPath1547-2)" />
      <path
         id="path1548"
         d="m 0,0 c -0.04,-0.141 -0.03,-0.271 0.03,-0.392 0.061,-0.12 0.162,-0.2 0.304,-0.241 0.141,-0.04 0.27,-0.024 0.389,0.048 0.118,0.072 0.197,0.175 0.235,0.31 0.039,0.137 0.026,0.266 -0.04,0.386 C 0.853,0.232 0.75,0.312 0.611,0.352 0.472,0.391 0.345,0.377 0.231,0.309 0.116,0.242 0.039,0.138 0,0 M -0.224,0.065 C -0.171,0.251 -0.062,0.389 0.103,0.477 0.268,0.566 0.454,0.581 0.661,0.522 0.871,0.463 1.023,0.351 1.119,0.188 1.215,0.025 1.237,-0.151 1.183,-0.34 1.128,-0.532 1.016,-0.672 0.846,-0.759 0.677,-0.846 0.488,-0.86 0.282,-0.801 0.15,-0.764 0.037,-0.7 -0.056,-0.609 c -0.094,0.091 -0.153,0.197 -0.179,0.319 -0.025,0.122 -0.021,0.24 0.011,0.355"
         style="fill:#231f20;fill-opacity:1;fill-rule:nonzero;stroke:none"
         transform="matrix(1.3333333,0,0,-1.3333333,346.39533,467.3144)"
         clip-path="url(#clipPath1549-0)" />
      <path
         id="path1550"
         d="M 0,0 0.384,0.924 0.115,1.036 -0.016,0.722 -0.178,0.789 0.017,1.257 1.076,0.817 0.881,0.349 0.719,0.416 0.85,0.73 0.581,0.842 0.197,-0.082 l 0.17,-0.071 -0.064,-0.154 -0.534,0.222 0.064,0.154 z"
         style="fill:#231f20;fill-opacity:1;fill-rule:nonzero;stroke:none"
         transform="matrix(1.3333333,0,0,-1.3333333,348.50387,468.71147)"
         clip-path="url(#clipPath1551-4)" />
    </g>
  </g>
</svg>
