<?xml version="1.0" encoding="UTF-8"?>
<svg width="253pt" version="1.1" xmlns="http://www.w3.org/2000/svg" height="253pt" viewBox="0 0 253 253" xmlns:xlink="http://www.w3.org/1999/xlink">
 <defs>
  <clipPath id="Clip0">
   <path d="M0 0 L252.956 0 L252.956 253 L0 253 L0 0 Z" transform="translate(0, 0)"/>
  </clipPath>
 </defs>
 <g id="Background">
  <g id="Layer_1" clip-path="url(#Clip0)">
   <path style="fill:#ffffff; fill-rule:nonzero;stroke:none;" d="M123.577 93.4464 L122.923 92.8911 C98.1849 71.9217 76.4098 68.6605 57.1984 65.7818 C45.4521 64.0219 34.3575 62.3586 24.778 56.3177 C14.2515 49.6785 6.46252 38.3446 0.26611 20.6509 L0 19.8904 L0.679946 19.4596 C2.70713 18.1767 27.8889 2.32075 30.6699 0.570569 L31.5755 0 L32.0935 0.937113 C40.1451 15.4919 50.4784 24.5324 64.6125 29.3886 L64.6872 29.4174 C69.8411 31.6567 77.6727 33.0115 86.7411 34.5799 L88.1077 34.8164 C98.1368 36.5499 109.503 38.5147 116.101 42.0039 L116.214 42.0733 C118.682 43.8234 120.737 45.8885 122.495 48.3865 L122.763 48.7763 L123.157 49.4775 L124.964 46.9623 L125.505 46.2976 C126.551 45.0967 127.591 44.0826 128.705 43.1729 L128.779 43.1177 C135.062 38.8817 147.822 36.6764 159.08 34.7318 L159.954 34.5804 C168.821 33.0439 176.479 31.7169 181.598 29.5916 L181.662 29.5673 C195.912 24.7663 206.313 15.7218 214.394 1.10468 L214.91 0.172639 L215.814 0.734603 C216.864 1.3882 221.477 4.26585 226.821 7.59816 C234.963 12.6761 245.096 18.9964 246.368 19.7826 L247.059 20.2104 L246.79 20.9789 C240.6 38.6554 232.825 49.9615 222.321 56.5603 C212.768 62.5616 201.698 64.1819 189.977 65.8982 C170.772 68.7136 149.005 71.9046 124.23 92.8911 L123.577 93.4464 Z" transform="translate(2.94947, 157.159)"/>
   <path style="fill:#fba720; fill-rule:nonzero;stroke:none;" d="M216.96 139.751 L216.09 141.396 C215.033 143.415 213.931 145.287 212.809 147.054 C214.24 142.5 214.053 138.171 213.234 133.952 L219.764 133.952 L219.764 129.114 L212.068 129.114 C211.791 128.12 211.507 127.134 211.223 126.159 L210.804 124.643 L219.764 124.643 L219.764 119.805 L209.328 119.805 C208.761 118.315 208.219 116.832 207.729 115.347 L219.764 115.347 L219.764 110.496 L206.234 110.496 C205.821 109.013 205.441 107.523 205.099 106.039 L219.764 106.039 L219.764 101.194 L204.106 101.194 C203.848 99.7045 203.616 98.2139 203.423 96.7367 L219.764 96.7367 L219.764 91.8919 L202.933 91.8919 C202.83 90.3957 202.759 88.9115 202.72 87.4279 L219.764 87.4279 L219.764 82.5895 L202.765 82.5895 C202.823 81.0933 202.92 79.6097 203.068 78.1261 L219.764 78.1261 L219.764 73.2877 L203.674 73.2877 C203.913 71.7845 204.19 70.3009 204.512 68.8236 L219.764 68.8236 L219.764 63.9789 L205.736 63.9789 C206.174 62.4826 206.658 60.9927 207.187 59.5214 L219.763 59.5214 L219.763 54.6769 L209.12 54.6769 C209.778 53.1738 210.494 51.6773 211.254 50.2131 L219.763 50.2131 L219.763 45.3686 L214.032 45.3686 C214.316 44.9109 214.607 44.4461 214.903 43.9819 L216.895 40.8916 L215.264 38.5628 L189.092 0 L63.5021 0 L35.7189 40.924 L37.6914 43.9819 C37.9879 44.4461 38.2712 44.9109 38.5677 45.3686 L33.0629 45.3686 L33.0629 50.2131 L41.3396 50.2131 C42.1005 51.6773 42.8158 53.1743 43.4796 54.6769 L33.0629 54.6769 L33.0629 59.5214 L45.4071 59.5214 C45.9358 60.9922 46.4189 62.4826 46.8576 63.9789 L33.0629 63.9789 L33.0629 68.8236 L48.0824 68.8236 C48.4046 70.3009 48.6885 71.7851 48.9202 73.2877 L33.0629 73.2877 L33.0629 78.1261 L49.5328 78.1261 C49.6745 79.6097 49.7716 81.0933 49.8359 82.5895 L33.0629 82.5895 L33.0629 87.4279 L49.8743 87.4279 C49.8424 88.9121 49.765 90.3957 49.6618 91.8919 L33.0629 91.8919 L33.0629 96.7367 L49.1721 96.7367 C48.9788 98.2139 48.7598 99.7039 48.4886 101.194 L33.0629 101.194 L33.0629 106.039 L47.496 106.039 C47.1545 107.523 46.7741 109.013 46.3618 110.496 L33.0629 110.496 L33.0629 115.347 L44.8724 115.347 C44.3761 116.832 43.8408 118.315 43.2671 119.805 L33.0629 119.805 L33.0629 124.643 L41.7909 124.643 L41.372 126.159 C41.0881 127.134 40.8048 128.12 40.5276 129.114 L33.0629 129.114 L33.0629 133.952 L39.367 133.952 C38.5227 138.268 38.3552 142.713 39.8957 147.382 C38.6582 145.473 37.4461 143.434 36.286 141.228 L35.4219 139.571 L0 161.877 L0.444697 163.168 C6.85207 182.056 14.9745 194.151 25.9912 201.233 C35.9891 207.658 47.5471 209.387 59.7887 211.226 C78.9147 214.09 100.593 217.341 125.102 238.455 L125.591 238.868 L127.473 238.868 L127.957 238.455 C152.491 217.322 174.17 214.155 193.283 211.348 C205.499 209.562 217.018 207.878 227.01 201.479 C238.001 194.441 246.103 182.365 252.511 163.497 L252.956 162.2 L216.96 139.751 Z M192.78 207.923 C173.416 210.762 151.48 214.007 126.527 235.146 C101.612 214.026 79.6754 210.71 60.2981 207.808 C36.4085 204.227 17.4823 201.357 4.17074 163.343 C6.23992 162.032 31.4834 146.138 34.1582 144.454 C43.518 161.375 55.1793 169.231 67.2338 173.373 C72.4611 175.644 80.3837 177.024 89.518 178.604 C99.6773 180.366 111.822 182.352 118.578 185.926 C120.833 187.526 122.865 189.506 124.617 191.996 L124.83 192.3 L126.004 194.383 L128.698 190.629 L129.239 189.964 C130.2 188.861 131.212 187.868 132.295 186.984 C138.56 182.758 151.962 180.526 163.076 178.604 C171.971 177.062 179.714 175.72 184.935 173.552 C197.073 169.463 208.825 161.631 218.23 144.621 C220.905 146.286 246.69 162.374 248.785 163.67 C235.487 201.647 216.613 204.434 192.78 207.923 " transform="translate(0, 14.1326)"/>
   <path style="fill:#7a7a3c; fill-rule:nonzero;stroke:none;" d="M147.303 0 L172.191 36.6855 C169.426 41.0592 147.76 71.2811 166.196 118.108 C168.961 128.952 173.577 137.718 165.507 148.324 C157.436 158.935 153.059 161.012 144.537 164.928 C132.193 170.611 95.8943 171.159 87.1338 182.009 L86.4439 182.009 C77.6834 171.159 41.3846 170.611 29.0464 164.928 C20.5183 161.012 16.1411 158.935 8.07081 148.324 C0 137.719 4.61543 128.952 7.38075 118.108 C25.8167 71.2811 4.15151 41.0592 1.38569 36.6855 L26.2806 7.10543e-15 L147.303 7.10543e-15 L147.303 0 Z" transform="translate(39.5087, 18.443)"/>
   <path style="fill:#ffffff; fill-rule:nonzero;stroke:none;" d="M84.8319 42.4398 C84.8319 65.8824 65.8413 84.8863 42.4157 84.8863 C18.9904 84.8863 0 65.8817 0 42.4398 C0 18.9979 18.9909 0 42.4157 0 C65.8413 0 84.8319 18.9974 84.8319 42.4398 Z" transform="translate(111.887, 60.4312)"/>
   <path style="fill:#fba720; fill-rule:nonzero;stroke:none;" d="M11.3137 5.97351 C10.7724 4.32205 9.60575 3.148 7.7617 3.148 C5.26047 3.148 3.73919 5.48293 3.73919 10.0763 C3.68759 14.6632 5.04141 17.0046 7.86491 17.0046 C9.54757 17.0046 10.5786 16.4048 11.6936 14.0951 L15.1683 15.0241 C14.0011 18.4172 11.4488 20.1527 7.8644 20.1527 C2.86852 20.1527 0 16.4888 0 10.0763 C0 3.6639 2.86852 0 7.8644 0 C11.6162 0 13.7881 1.68386 14.7038 5.16043 L11.3137 5.97351 Z" transform="translate(90.279, 29.1253)"/>
   <path style="fill:#fba720; fill-rule:nonzero;stroke:none;" d="M8.21904 20.1527 C2.86852 20.1527 0 16.4888 0 10.0763 C0 3.6639 2.86852 0 8.21904 0 C13.5696 0 16.4507 3.6639 16.4507 10.0763 C16.4507 16.4888 13.5696 20.1527 8.21904 20.1527 Z M8.21904 3.148 C5.15727 3.148 3.74527 5.48293 3.74527 10.0763 C3.69366 14.6632 5.13096 17.0046 8.21904 17.0046 C11.2874 17.0046 12.6989 14.6632 12.6989 10.0763 C12.6994 5.48343 11.2874 3.148 8.21904 3.148 " transform="translate(107.458, 29.1253)"/>
   <path style="fill:#fba720; fill-rule:nonzero;stroke:none;" d="M8.22512 20.1527 C2.8751 20.1527 0 16.4888 0 10.0763 C0 3.6639 2.8751 0 8.22512 0 C13.5691 0 16.4507 3.6639 16.4507 10.0763 C16.4507 16.4888 13.5696 20.1527 8.22512 20.1527 Z M8.22512 3.148 C5.15727 3.148 3.74527 5.48293 3.74527 10.0763 C3.68759 14.6632 5.13146 17.0046 8.22512 17.0046 C11.2935 17.0046 12.6989 14.6632 12.6989 10.0763 C12.6989 5.48343 11.294 3.148 8.22512 3.148 " transform="translate(126.159, 29.1253)"/>
   <path style="fill:#fba720; fill-rule:nonzero;stroke:none;" d="M0 19.6105 L0 0 L3.74527 0 L3.74527 8.77321 L3.69366 8.77321 L10.2882 0 L14.6072 0 L9.04419 7.3607 L15.4971 19.6105 L11.3456 19.6105 L6.48478 10.289 L3.74527 13.7144 L3.74527 19.6105 L0 19.6105 Z" transform="translate(146.161, 29.3962)"/>
   <path style="fill:#fba720; fill-rule:evenodd;stroke:none;" d="M0 0 L3.75184 0 L3.75184 19.6165 L0 19.6165 L0 0 Z" transform="translate(70.8504, 159.954)"/>
   <path style="fill:#fba720; fill-rule:nonzero;stroke:none;" d="M10.3975 5.48293 C9.83037 3.96715 8.65716 2.93486 6.8976 2.93486 C5.26654 2.93486 4.09991 3.57985 4.09991 5.10879 C4.09991 8.47598 14.2009 7.77334 14.2009 14.127 C14.2009 18.1458 11.6739 20.1582 7.33572 20.1582 C4.12571 20.1582 1.11503 18.365 0 15.5137 L3.09416 14.1528 C3.9967 16.0043 5.16334 17.2234 7.36152 17.2234 C9.23087 17.2234 10.6687 16.5136 10.6687 14.6105 C10.6687 10.7532 0.573704 11.5147 0.573704 5.48293 C0.573704 1.98661 3.50698 0 6.8976 0 C10.0434 0 12.6539 1.57349 13.8144 4.42482 L10.3975 5.48293 Z" transform="translate(78.8312, 159.683)"/>
   <path style="fill:#fba720; fill-rule:nonzero;stroke:none;" d="M0 19.6171 L0 0 L3.73919 0 L3.73919 16.4624 L12.2674 16.4624 L12.2674 19.6171 L0 19.6171 Z" transform="translate(97.1573, 159.954)"/>
   <path style="fill:#fba720; fill-rule:nonzero;stroke:none;" d="M5.64648 0 L10.3135 0 L15.8765 19.6429 L12.1571 19.6429 L11.0678 15.3983 L4.8861 15.3983 L3.71946 19.6429 L0 19.6429 L5.64648 0 Z M5.69809 12.3019 L10.2553 12.3019 L8.06373 3.77376 L8.00555 3.77376 L5.69809 12.3019 Z" transform="translate(111.082, 159.928)"/>
   <path style="fill:#fba720; fill-rule:nonzero;stroke:none;" d="M0 19.6171 L0 0 L3.91323 0 L11.6228 13.3661 L11.6744 13.3661 L11.6744 0 L15.2067 0 L15.2067 19.6171 L11.5965 19.6171 L3.58388 5.65101 L3.53278 5.65101 L3.53278 19.6171 L0 19.6171 Z" transform="translate(130.104, 159.954)"/>
   <path style="fill:#fba720; fill-rule:nonzero;stroke:none;" d="M0 0 L6.49136 0 C11.6739 0 15.2583 2.88322 15.2841 9.80495 C15.2583 16.7333 11.6739 19.6165 6.49136 19.6165 L0 19.6165 L0 0 Z M3.75184 16.4624 L6.24649 16.4624 C10.5397 16.4624 11.5388 13.3145 11.5388 9.80546 C11.5388 6.30259 10.5397 3.15458 6.24649 3.15458 L3.75184 3.15458 L3.75184 16.4624 Z" transform="translate(150.216, 159.954)"/>
   <path style="fill:#fba720; fill-rule:nonzero;stroke:none;" d="M10.398 5.48293 C9.8238 3.96715 8.66374 2.93486 6.89103 2.93486 C5.26654 2.93486 4.0994 3.57985 4.0994 5.10879 C4.0994 8.47598 14.1944 7.77334 14.1944 14.127 C14.1944 18.1458 11.6739 20.1582 7.32915 20.1582 C4.12521 20.1582 1.10845 18.365 0 15.5137 L3.09416 14.1528 C3.99013 16.0043 5.15676 17.2234 7.35495 17.2234 C9.23087 17.2234 10.6687 16.5136 10.6687 14.6105 C10.6687 10.7532 0.567127 11.5147 0.567127 5.48293 C0.567127 1.98661 3.5004 0 6.89103 0 C10.0429 0 12.6473 1.57349 13.8205 4.42482 L10.398 5.48293 Z" transform="translate(167.782, 159.683)"/>
   <path style="fill:#fba720; fill-rule:nonzero;stroke:none;" d="M9.88198 5.50875 L6.11091 6.08286 L5.49218 9.85055 L3.78372 6.43166 L0 7.0053 L2.72687 4.32205 L1.02498 0.915846 L4.39637 2.66401 L7.11009 0 L6.49743 3.75452 L9.88198 5.50875 Z" transform="translate(60.1175, 80.4674)"/>
   <path style="fill:#fba720; fill-rule:nonzero;stroke:none;" d="M9.16662 8.5864 L5.67228 7.0767 L3.14576 9.94066 L3.50648 6.1345 L0 4.61872 L3.73211 3.78692 L4.09991 0 L6.02693 3.27052 L9.74639 2.45137 L7.23252 5.3027 L9.16662 8.5864 Z" transform="translate(73.1776, 65.7015)"/>
   <path style="fill:#fba720; fill-rule:nonzero;stroke:none;" d="M9.57287 5.0769 L5.92423 6.16083 L5.82102 9.9862 L3.66128 6.81849 L0 7.90241 L2.33377 4.87034 L0.187187 1.72892 L3.75842 3.01283 L6.09169 0 L5.98899 3.79958 L9.57287 5.0769 Z" transform="translate(92.4837, 60.3988)"/>
   <path style="fill:#fba720; fill-rule:nonzero;stroke:none;" d="M9.74032 7.51463 L6.02743 6.66356 L4.06146 9.95331 L3.72604 6.14058 L0 5.28295 L3.51963 3.79249 L3.18472 0 L5.67937 2.8574 L9.18635 1.37352 L7.23909 4.64404 L9.74032 7.51463 Z" transform="translate(110.282, 65.4696)"/>
   <path style="fill:#fba720; fill-rule:nonzero;stroke:none;" d="M9.88198 5.50824 L6.11091 6.07628 L5.49218 9.85055 L3.77714 6.43115 L0 7.0053 L2.72636 4.31547 L1.0184 0.915846 L4.39637 2.6635 L7.11009 0 L6.49136 3.74743 L9.88198 5.50824 Z" transform="translate(111.752, 130.294)"/>
   <path style="fill:#fba720; fill-rule:nonzero;stroke:none;" d="M9.75955 4.55392 L6.29152 6.12792 L6.71042 9.93409 L4.13836 7.09541 L0.657685 8.67652 L2.55283 5.35383 L0 2.5349 L3.71289 3.30242 L5.60854 0 L6.02743 3.77983 L9.75955 4.55392 Z" transform="translate(74.9888, 130.52)"/>
   <path style="fill:#fba720; fill-rule:nonzero;stroke:none;" d="M9.57894 2.08382 L7.25225 5.09665 L9.39833 8.2573 L5.8018 6.96072 L3.46196 9.9862 L3.58439 6.15425 L0 4.87034 L3.64864 3.80616 L3.77764 0 L5.92423 3.14142 L9.57894 2.08382 Z" transform="translate(93.1864, 135.364)"/>
   <path style="fill:#fba720; fill-rule:nonzero;stroke:none;" d="M8.07081 9.48907 L4.99588 7.24428 L1.90172 9.48907 L3.08758 5.85706 L0 3.60567 L3.82267 3.61226 L5.00903 0 L6.17567 3.61226 L9.97861 3.63149 L6.8971 5.86365 L8.07081 9.48907 Z" transform="translate(55.1732, 98.188)"/>
   <path style="fill:#fba720; fill-rule:nonzero;stroke:none;" d="M9.94016 6.64433 L6.15644 6.25702 L4.60936 9.7665 L3.80345 6.03122 L0 5.63785 L3.30715 3.71553 L2.50781 0 L5.33788 2.52833 L8.63136 0.619171 L7.09744 4.10891 L9.94016 6.64433 Z" transform="translate(60.4782, 117.373)"/>
   <path style="fill:#7a7a3c; fill-rule:nonzero;stroke:none;" d="M12.7439 0 C10.8938 0.309839 0 2.71615 3.95775 9.55996 C5.96925 12.7596 10.1268 9.10224 11.513 6.63118 C12.8987 4.16713 12.7439 0 12.7439 0 Z" transform="translate(17.1793, 38.3501)"/>
   <path style="fill:#7a7a3c; fill-rule:nonzero;stroke:none;" d="M12.2092 33.4474 C10.8296 34.3698 0 34.1379 2.99095 22.1393 C5.98241 10.1472 10.3656 0 13.5954 5.53507 C14.0593 11.302 13.8276 30.2158 12.2092 33.4474 Z" transform="translate(25.0821, 0.225797)"/>
   <path style="fill:#7a7a3c; fill-rule:nonzero;stroke:none;" d="M9.70794 0.2906 C11.1002 0.187321 19.1063 7.6898 19.5707 8.92814 C20.0346 10.1604 8.90253 8.49578 7.09086 8.15404 C5.31157 7.82494 0 4.9159 5.09251 1.67728 C8.27065 0 9.70794 0.2906 9.70794 0.2906 Z" transform="translate(11.7387, 27.5706)"/>
   <path style="fill:#7a7a3c; fill-rule:nonzero;stroke:none;" d="M9.11451 0.787256 C11.3385 0 13.5625 2.19368 12.022 5.27688 C10.4815 8.36057 6.36842 12.6695 5.08593 13.2952 C4.3898 13.6375 0.61873 13.9149 0.309618 9.12811 C0 4.35445 2.39195 2.54807 3.39062 2.03876 C4.78896 1.32897 9.11451 0.787256 9.11451 0.787256 Z" transform="translate(31.3099, 34.6149)"/>
   <path style="fill:#7a7a3c; fill-rule:nonzero;stroke:none;" d="M2.06918 32.5766 C0 27.203 13.4532 0 16.4249 0.0450582 C19.3901 0.103279 20.1828 15.3851 18.5847 18.7589 C16.5924 22.9969 7.07771 33.2408 2.06918 32.5766 Z" transform="translate(37.5559, 0)"/>
   <path style="fill:#7a7a3c; fill-rule:nonzero;stroke:none;" d="M1.83747 33.4474 C3.22316 34.3698 14.0593 34.1379 11.0618 22.1393 C8.06424 10.1472 3.68759 0 0.45785 5.53507 C0 11.302 0.225637 30.2158 1.83747 33.4474 Z" transform="translate(213.776, 0.225797)"/>
   <path style="fill:#7a7a3c; fill-rule:nonzero;stroke:none;" d="M18.1137 32.5766 C20.1828 27.203 6.72964 0 3.76449 0.0450582 C0.792764 0.103279 0 15.3851 1.5921 18.7589 C3.58439 22.9969 13.1051 33.2408 18.1137 32.5766 Z" transform="translate(195.172, 0)"/>
   <path style="fill:#7a7a3c; fill-rule:nonzero;stroke:none;" d="M10.3267 0.2906 C8.94098 0.187321 0.928348 7.6898 0.463921 8.92814 C0 10.1604 11.1392 8.49578 12.9438 8.15404 C14.723 7.82494 20.0351 4.9159 14.9553 1.67728 C11.7711 0 10.3267 0.2906 10.3267 0.2906 Z" transform="translate(221.131, 27.5706)"/>
   <path style="fill:#7a7a3c; fill-rule:nonzero;stroke:none;" d="M0.154303 0 C2.011 0.309839 12.9048 2.71615 8.94048 9.55996 C6.93555 12.7596 2.77796 9.10224 1.39176 6.63118 C0 4.16713 0.154303 0 0.154303 0 Z" transform="translate(222.826, 38.3501)"/>
   <path style="fill:#7a7a3c; fill-rule:nonzero;stroke:none;" d="M4.4414 0.787256 C2.21741 0 0 2.19368 1.5405 5.27688 C3.08151 8.36057 7.19407 12.6695 8.47706 13.2952 C9.16662 13.6375 12.9443 13.9149 13.2534 9.12811 C13.5564 4.35445 11.1645 2.54807 10.1719 2.03876 C8.77302 1.32897 4.4414 0.787256 4.4414 0.787256 Z" transform="translate(208.039, 34.6149)"/>
   <path style="fill:#7a7a3c; fill-rule:nonzero;stroke:none;" d="M0 11.0955 L12.3959 0 L17.714 5.94111 L15.8639 7.59867 L12.4475 3.77983 L9.25667 6.64433 L11.8095 9.49565 L9.9528 11.1537 L7.39997 8.30897 L1.90779 13.2243 L0 11.0955 Z" transform="translate(21.653, 180.39)"/>
   <path style="fill:#7a7a3c; fill-rule:nonzero;stroke:none;" d="M6.25914 2.70299 C7.60639 0.780673 9.83695 0 12.2926 1.71626 C14.7488 3.43202 14.7807 5.79935 13.4335 7.72825 L8.52158 14.7533 C7.17434 16.6822 4.94377 17.4497 2.48807 15.7339 C0.0318725 14.0177 0 11.6569 1.34724 9.72856 L6.25914 2.70299 Z M3.73211 11.3081 C3.01625 12.3338 2.97173 13.0305 3.91272 13.6952 C4.8603 14.3534 5.50483 14.0759 6.22069 13.0502 L11.0486 6.14159 C11.764 5.12904 11.809 4.41976 10.8614 3.76161 C9.92043 3.09687 9.27589 3.37431 8.56003 4.40001 L3.73211 11.3081 Z" transform="translate(32.3601, 188.473)"/>
   <path style="fill:#7a7a3c; fill-rule:nonzero;stroke:none;" d="M1.66951 3.99955 C2.03022 1.67678 3.68709 0 6.64566 0.451089 C9.61081 0.909263 10.6813 3.0184 10.3201 5.33459 L9.01181 13.8111 C8.65109 16.1334 6.99423 17.8238 4.02858 17.359 C1.07658 16.9014 0 14.8044 0.360715 12.4695 L1.66951 3.99955 Z M3.19079 12.8436 C3.0036 14.0759 3.28084 14.7209 4.4156 14.8951 C5.55036 15.0753 6.01428 14.5402 6.19489 13.3079 L7.49104 4.97362 C7.67772 3.74135 7.40706 3.08978 6.2728 2.91613 C5.12539 2.74147 4.67412 3.2771 4.48086 4.50279 L3.19079 12.8436 Z" transform="translate(46.3289, 193.641)"/>
   <path style="fill:#7a7a3c; fill-rule:nonzero;stroke:none;" d="M2.72636 2.91613 L0 2.45745 L0.412318 0 L8.68297 1.39985 L8.27014 3.85779 L5.54378 3.39304 L3.17763 17.3525 L0.360715 16.869 L2.72636 2.91613 Z" transform="translate(59.2731, 195.576)"/>
   <path style="fill:#7a7a3c; fill-rule:nonzero;stroke:none;" d="M2.69398 0 L6.88394 0.690051 C9.90727 1.1867 10.9965 2.95461 10.5326 5.75429 C10.3009 7.16681 9.46258 8.54738 8.01213 8.8699 C9.33357 9.7407 9.99125 11.018 9.64319 13.1271 C9.19849 15.8367 7.65141 17.6881 4.45405 17.1591 L0 16.4169 L2.69398 0 Z M4.40852 7.19919 L5.42692 7.3607 C6.49692 7.54093 7.43842 6.95414 7.65748 5.58672 C7.90892 4.05727 7.45765 3.16775 6.20046 2.96068 L5.13045 2.78652 L4.40852 7.19919 Z M3.19686 14.5725 L4.38271 14.7593 C5.8787 15.011 6.56168 14.2303 6.83892 12.5728 C7.11616 10.8894 6.61935 9.94724 4.93719 9.67032 L4.02149 9.51487 L3.19686 14.5725 Z" transform="translate(67.989, 197.743)"/>
   <path style="fill:#7a7a3c; fill-rule:nonzero;stroke:none;" d="M2.71371 16.2625 L0 15.7208 L6.25965 0 L9.74032 0.697134 L9.49546 17.6172 L6.78175 17.0755 L7.00739 13.36 L3.92588 12.7403 L2.71371 16.2625 Z M4.82842 10.3857 L7.08428 10.8307 L7.37417 3.60567 L7.32915 3.59909 L4.82842 10.3857 Z" transform="translate(79.1337, 200.33)"/>
   <path style="fill:#7a7a3c; fill-rule:nonzero;stroke:none;" d="M0 16.3268 L3.22924 0 L6.02693 0.554875 L3.28742 14.443 L7.69037 15.3142 L7.21329 17.759 L0 16.3268 Z" transform="translate(91.053, 202.53)"/>
   <path style="fill:#7a7a3c; fill-rule:nonzero;stroke:none;" d="M0 15.5983 L5.80787 0 L8.48313 0.999891 L3.54543 14.2627 L7.75462 15.8367 L6.88445 18.1651 L0 15.5983 Z" transform="translate(99.6778, 205.349)"/>
   <path style="fill:#7a7a3c; fill-rule:nonzero;stroke:none;" d="M4.24207 17.0624 L1.57946 17.8168 L0 0.967487 L3.41642 0 L10.8938 15.1786 L8.23119 15.9329 L6.74229 12.5267 L3.72554 13.3783 L4.24207 17.0624 Z M3.44931 10.8696 L5.66672 10.2373 L2.63074 3.67706 L2.59179 3.68971 L3.44931 10.8696 Z" transform="translate(123.425, 218.818)"/>
   <path style="fill:#7a7a3c; fill-rule:nonzero;stroke:none;" d="M6.2981 4.22434 C5.42186 3.09535 4.55827 3.15965 4.01643 3.50847 C3.2429 4.01778 3.14576 4.79845 3.71289 5.66266 C5.26047 8.04318 10.8619 5.99831 13.3308 9.78522 C14.8328 12.0817 14.1175 14.3655 11.8869 15.823 C9.66899 17.2745 7.23252 16.3329 5.776 14.3073 L7.8386 12.4948 C8.857 13.843 9.86933 14.1721 10.6424 13.6623 C11.4746 13.1206 11.7387 12.3141 11.1973 11.4817 C9.39833 8.72104 4.06146 11.1659 1.45045 7.16681 C0 4.94729 0.534749 2.81842 2.88117 1.27682 C4.82842 0 6.91025 0.657142 8.4123 2.48327 L6.2981 4.22434 Z" transform="translate(130.523, 213.645)"/>
   <path style="fill:#7a7a3c; fill-rule:nonzero;stroke:none;" d="M6.29253 4.21877 C5.41579 3.0837 4.5522 3.16117 4.01694 3.50948 C3.2434 4.01272 3.14627 4.78681 3.7139 5.66418 C5.26705 8.03198 10.869 5.99984 13.3379 9.77966 C14.8333 12.0761 14.124 14.3599 11.8874 15.824 C9.66949 17.2689 7.2396 16.3273 5.7765 14.3017 L7.83911 12.4888 C8.85751 13.8304 9.86984 14.166 10.6368 13.6628 C11.4685 13.1211 11.7392 12.308 11.1973 11.4822 C9.39833 8.72154 4.05488 11.1664 1.45045 7.16681 C0 4.9478 0.528678 2.80627 2.88775 1.27733 C4.835 0 6.91025 0.65157 8.40573 2.47719 L6.29253 4.21877 Z" transform="translate(140.03, 207.768)"/>
   <path style="fill:#7a7a3c; fill-rule:nonzero;stroke:none;" d="M0.490229 5.72189 C0 3.41886 0.947573 1.26416 3.87427 0.631828 C6.80047 0 8.55396 1.58008 9.05026 3.87652 L10.8488 12.269 C11.3451 14.5589 10.3975 16.7267 7.4708 17.3525 C4.5441 17.9843 2.79112 16.4108 2.29482 14.1078 L0.490229 5.72189 Z M5.07278 13.437 C5.33079 14.6561 5.82102 15.1588 6.9487 14.9209 C8.07081 14.6758 8.30859 14.0177 8.04451 12.7986 L6.26521 4.55443 C6.0072 3.32874 5.52405 2.81892 4.39587 3.06447 C3.27426 3.3095 3.03598 3.96766 3.30006 5.19334 L5.07278 13.437 Z" transform="translate(153.826, 201.969)"/>
   <path style="fill:#7a7a3c; fill-rule:nonzero;stroke:none;" d="M6.29253 5.94111 L6.09219 4.66986 C5.87263 3.28318 5.14462 2.78602 4.41611 2.89588 C3.27477 3.08269 3.0041 3.72819 3.19787 4.95995 L4.50616 13.2947 C4.69992 14.527 5.15727 15.0561 6.2986 14.8814 C7.32307 14.7138 7.56844 14.0748 7.40099 13.0046 L7.09137 11.0241 L9.90828 10.5791 L10.2047 12.469 C10.5786 14.7913 9.50861 16.8938 6.67854 17.3393 C3.72655 17.8035 2.06311 16.1263 1.69582 13.804 L0.361221 5.33459 C0 3.01232 1.07 0.902686 4.02908 0.438432 C6.85258 0 8.53473 1.83169 8.92833 4.28914 L9.10844 5.50217 L6.29253 5.94111 Z" transform="translate(166.041, 198.872)"/>
   <path style="fill:#7a7a3c; fill-rule:nonzero;stroke:none;" d="M3.43565 16.8751 L0 0.58677 L2.79162 0 L6.23334 16.2817 L3.43565 16.8751 Z" transform="translate(178.109, 196.705)"/>
   <path style="fill:#7a7a3c; fill-rule:nonzero;stroke:none;" d="M2.73294 17.03 L0 17.4365 L0.592929 0.522473 L4.10598 0 L9.56578 16.024 L6.83892 16.4235 L5.79472 12.8497 L2.6874 13.3145 L2.73294 17.03 Z M2.73901 10.779 L5.02118 10.4434 L2.85537 3.54087 L2.80983 3.54795 L2.73901 10.779 Z" transform="translate(187.108, 195.17)"/>
   <path style="fill:#7a7a3c; fill-rule:nonzero;stroke:none;" d="M2.98437 2.99916 L0.231708 3.25077 L0 0.773584 L8.34755 0 L8.57976 2.48327 L5.82709 2.7283 L7.14196 16.83 L4.29266 17.0943 L2.98437 2.99916 Z" transform="translate(195.656, 193.576)"/>
   <path style="fill:#7a7a3c; fill-rule:nonzero;stroke:none;" d="M5.37633 16.669 L0 0.921923 L2.70106 0 L8.08346 15.7461 L5.37633 16.669 Z" transform="translate(205.583, 192.221)"/>
   <path style="fill:#7a7a3c; fill-rule:nonzero;stroke:none;" d="M1.63106 7.9733 C0.142161 6.15374 0 3.79299 2.31455 1.8965 C4.63516 0 6.91076 0.599427 8.39966 2.41897 L13.8337 9.05064 C15.3165 10.8696 15.4647 13.2309 13.1441 15.134 C10.8301 17.0239 8.55446 16.424 7.05899 14.6116 L1.63106 7.9733 Z M9.2248 12.7403 C10.0176 13.7012 10.6818 13.9336 11.5717 13.2046 C12.4611 12.4695 12.3711 11.7729 11.5783 10.8115 L6.23435 4.28256 C5.44766 3.32165 4.78441 3.09586 3.89451 3.81831 C3.00461 4.55342 3.09517 5.25055 3.88793 6.21196 L9.2248 12.7403 Z" transform="translate(211.049, 186.706)"/>
   <path style="fill:#7a7a3c; fill-rule:nonzero;stroke:none;" d="M13.4208 16.8948 L0 7.06354 L1.5663 4.92147 L11.2935 7.74089 L11.3193 7.70852 L3.64206 2.07673 L5.16941 0 L18.5907 9.82424 L17.1211 11.8366 L6.58798 8.6375 L6.56168 8.66994 L14.9421 14.8105 L13.4208 16.8948 Z" transform="translate(218.591, 177.081)"/>
   <path style="fill:#7a7a3c; fill-rule:nonzero;stroke:none;" d="M2.88167 0 L14.5232 0 L17.2501 5.60545 L8.63136 9.69561 L0 5.75379 L2.88167 0 Z" transform="translate(145.743, 64.1599)"/>
   <path style="fill:#7a7a3c; fill-rule:nonzero;stroke:none;" d="M0 9.52752 L0.606082 0 L7.56136 1.20594 L10.4365 11.3466 L6.35577 16.5009 L0 9.52752 Z" transform="translate(182.202, 84.6027)"/>
   <path style="fill:#7a7a3c; fill-rule:nonzero;stroke:none;" d="M4.37715 16.585 L9.97861 9.92802 L10.3267 0 L3.62941 0.690557 L0 11.2889 L4.37715 16.585 Z" transform="translate(116.103, 84.6604)"/>
   <path style="fill:#7a7a3c; fill-rule:nonzero;stroke:none;" d="M0.148738 7.41844 L0 0 L9.68265 2.42555 L14.975 11.0499 L8.92176 13.4755 L0.148738 7.41844 Z" transform="translate(127.744, 123.804)"/>
   <path style="fill:#7a7a3c; fill-rule:nonzero;stroke:none;" d="M0 10.1406 L5.905 13.1727 L14.6785 6.65698 L14.9811 0 L5.14411 1.66412 L0 10.1406 Z" transform="translate(166.622, 124.262)"/>
   <path style="fill:#7a7a3c; fill-rule:nonzero;stroke:none;" d="M3.17814 16.6559 L14.2202 16.6559 L17.5531 6.65748 L8.7796 0 L0 6.65748 L3.17814 16.6559 Z" transform="translate(145.594, 93.5303)"/>
  </g>
 </g>
</svg>
