<?xml version="1.0" encoding="UTF-8" standalone="no"?>
<!-- Created with Inkscape (http://www.inkscape.org/) -->

<svg
   width="74.211456mm"
   height="94.37101mm"
   viewBox="0 0 74.211455 94.371013"
   version="1.1"
   id="svg1"
   xmlns="http://www.w3.org/2000/svg"
   xmlns:svg="http://www.w3.org/2000/svg">
  <defs
     id="defs1">
    <clipPath
       clipPathUnits="userSpaceOnUse"
       id="clipPath6413">
      <path
         d="m 440.928,110.75 h 30.746 v 39.126 h -30.746 z"
         transform="translate(-458.41701,-138.2319)"
         id="path6413" />
    </clipPath>
    <clipPath
       clipPathUnits="userSpaceOnUse"
       id="clipPath6415">
      <path
         d="m 440.928,110.75 h 30.746 v 39.126 h -30.746 z"
         transform="translate(-443.84091,-116.7568)"
         id="path6415" />
    </clipPath>
    <clipPath
       clipPathUnits="userSpaceOnUse"
       id="clipPath6417">
      <path
         d="m 440.928,110.75 h 30.746 v 39.126 h -30.746 z"
         transform="translate(-441.05671,-144.5032)"
         id="path6417" />
    </clipPath>
    <clipPath
       clipPathUnits="userSpaceOnUse"
       id="clipPath6419">
      <path
         d="m 440.928,110.75 h 30.746 v 39.126 h -30.746 z"
         transform="translate(-441.05671,-144.5032)"
         id="path6419" />
    </clipPath>
    <clipPath
       clipPathUnits="userSpaceOnUse"
       id="clipPath6421">
      <path
         d="m 440.928,110.75 h 30.746 v 39.126 h -30.746 z"
         transform="translate(-471.51811,-144.5298)"
         id="path6421" />
    </clipPath>
    <clipPath
       clipPathUnits="userSpaceOnUse"
       id="clipPath6423">
      <path
         d="m 440.928,110.75 h 30.746 v 39.126 h -30.746 z"
         transform="translate(-471.51811,-144.5298)"
         id="path6423" />
    </clipPath>
    <clipPath
       clipPathUnits="userSpaceOnUse"
       id="clipPath6425">
      <path
         d="m 440.928,110.75 h 30.746 v 39.126 h -30.746 z"
         transform="translate(-456.24331,-143.163)"
         id="path6425" />
    </clipPath>
    <clipPath
       clipPathUnits="userSpaceOnUse"
       id="clipPath6427">
      <path
         d="m 440.928,110.75 h 30.746 v 39.126 h -30.746 z"
         transform="translate(-448.04411,-137.7141)"
         id="path6427" />
    </clipPath>
    <clipPath
       clipPathUnits="userSpaceOnUse"
       id="clipPath6429">
      <path
         d="m 440.928,110.75 h 30.746 v 39.126 h -30.746 z"
         transform="translate(-462.63621,-140.15331)"
         id="path6429" />
    </clipPath>
    <clipPath
       clipPathUnits="userSpaceOnUse"
       id="clipPath6431">
      <path
         d="m 440.928,110.75 h 30.746 v 39.126 h -30.746 z"
         transform="translate(-456.17291,-149.8197)"
         id="path6431" />
    </clipPath>
    <clipPath
       clipPathUnits="userSpaceOnUse"
       id="clipPath6433">
      <path
         d="m 440.928,110.75 h 30.746 v 39.126 h -30.746 z"
         transform="translate(-467.52421,-140.7094)"
         id="path6433" />
    </clipPath>
    <clipPath
       clipPathUnits="userSpaceOnUse"
       id="clipPath6435">
      <path
         d="m 440.928,110.75 h 30.746 v 39.126 h -30.746 z"
         transform="translate(-464.68241,-138.042)"
         id="path6435" />
    </clipPath>
    <clipPath
       clipPathUnits="userSpaceOnUse"
       id="clipPath6437">
      <path
         d="m 440.928,110.75 h 30.746 v 39.126 h -30.746 z"
         transform="translate(-465.62011,-121.0122)"
         id="path6437" />
    </clipPath>
    <clipPath
       clipPathUnits="userSpaceOnUse"
       id="clipPath6439">
      <path
         d="m 440.928,110.75 h 30.746 v 39.126 h -30.746 z"
         transform="translate(-453.31371,-125.6593)"
         id="path6439" />
    </clipPath>
    <clipPath
       clipPathUnits="userSpaceOnUse"
       id="clipPath6441">
      <path
         d="m 440.928,110.75 h 30.746 v 39.126 h -30.746 z"
         transform="translate(-449.73071,-139.3762)"
         id="path6441" />
    </clipPath>
    <clipPath
       clipPathUnits="userSpaceOnUse"
       id="clipPath6443">
      <path
         d="m 440.928,110.75 h 30.746 v 39.126 h -30.746 z"
         transform="translate(-454.69511,-125.4243)"
         id="path6443" />
    </clipPath>
    <clipPath
       clipPathUnits="userSpaceOnUse"
       id="clipPath6445">
      <path
         d="m 440.928,110.75 h 30.746 v 39.126 h -30.746 z"
         transform="translate(-454.69511,-125.4243)"
         id="path6445" />
    </clipPath>
    <clipPath
       clipPathUnits="userSpaceOnUse"
       id="clipPath6447">
      <path
         d="m 440.928,110.75 h 30.746 v 39.126 h -30.746 z"
         transform="translate(-459.52341,-125.5789)"
         id="path6447" />
    </clipPath>
    <clipPath
       clipPathUnits="userSpaceOnUse"
       id="clipPath6449">
      <path
         d="m 440.928,110.75 h 30.746 v 39.126 h -30.746 z"
         transform="translate(-462.96001,-139.4883)"
         id="path6449" />
    </clipPath>
    <clipPath
       clipPathUnits="userSpaceOnUse"
       id="clipPath6451">
      <path
         d="m 440.928,110.75 h 30.746 v 39.126 h -30.746 z"
         transform="translate(-458.14941,-125.3035)"
         id="path6451" />
    </clipPath>
    <clipPath
       clipPathUnits="userSpaceOnUse"
       id="clipPath6453">
      <path
         d="m 440.928,110.75 h 30.746 v 39.126 h -30.746 z"
         transform="translate(-458.14941,-125.3035)"
         id="path6453" />
    </clipPath>
    <clipPath
       clipPathUnits="userSpaceOnUse"
       id="clipPath6455">
      <path
         d="m 440.928,110.75 h 30.746 v 39.126 h -30.746 z"
         transform="translate(-447.04511,-121.6584)"
         id="path6455" />
    </clipPath>
    <clipPath
       clipPathUnits="userSpaceOnUse"
       id="clipPath6457">
      <path
         d="m 440.928,110.75 h 30.746 v 39.126 h -30.746 z"
         transform="translate(-447.98771,-138.8838)"
         id="path6457" />
    </clipPath>
    <clipPath
       clipPathUnits="userSpaceOnUse"
       id="clipPath6459">
      <path
         d="m 440.928,110.75 h 30.746 v 39.126 h -30.746 z"
         transform="translate(-448.64981,-142.0465)"
         id="path6459" />
    </clipPath>
    <clipPath
       clipPathUnits="userSpaceOnUse"
       id="clipPath6461">
      <path
         d="m 440.928,110.75 h 30.746 v 39.126 h -30.746 z"
         transform="translate(-448.64981,-142.0465)"
         id="path6461" />
    </clipPath>
    <clipPath
       clipPathUnits="userSpaceOnUse"
       id="clipPath6463">
      <path
         d="m 440.928,110.75 h 30.746 v 39.126 h -30.746 z"
         transform="translate(-449.36331,-142.7838)"
         id="path6463" />
    </clipPath>
    <clipPath
       clipPathUnits="userSpaceOnUse"
       id="clipPath6465">
      <path
         d="m 440.928,110.75 h 30.746 v 39.126 h -30.746 z"
         transform="translate(-450.22081,-141.5253)"
         id="path6465" />
    </clipPath>
    <clipPath
       clipPathUnits="userSpaceOnUse"
       id="clipPath6467">
      <path
         d="m 440.928,110.75 h 30.746 v 39.126 h -30.746 z"
         transform="translate(-451.03841,-142.2066)"
         id="path6467" />
    </clipPath>
    <clipPath
       clipPathUnits="userSpaceOnUse"
       id="clipPath6469">
      <path
         d="m 440.928,110.75 h 30.746 v 39.126 h -30.746 z"
         transform="translate(-449.88421,-142.3027)"
         id="path6469" />
    </clipPath>
    <clipPath
       clipPathUnits="userSpaceOnUse"
       id="clipPath6471">
      <path
         d="m 440.928,110.75 h 30.746 v 39.126 h -30.746 z"
         transform="translate(-450.60531,-143.163)"
         id="path6471" />
    </clipPath>
    <clipPath
       clipPathUnits="userSpaceOnUse"
       id="clipPath6473">
      <path
         d="m 440.928,110.75 h 30.746 v 39.126 h -30.746 z"
         transform="translate(-451.47491,-143.8575)"
         id="path6473" />
    </clipPath>
    <clipPath
       clipPathUnits="userSpaceOnUse"
       id="clipPath6475">
      <path
         d="m 440.928,110.75 h 30.746 v 39.126 h -30.746 z"
         transform="translate(-452.47281,-144.5788)"
         id="path6475" />
    </clipPath>
    <clipPath
       clipPathUnits="userSpaceOnUse"
       id="clipPath6477">
      <path
         d="m 440.928,110.75 h 30.746 v 39.126 h -30.746 z"
         transform="translate(-453.44271,-145.2601)"
         id="path6477" />
    </clipPath>
    <clipPath
       clipPathUnits="userSpaceOnUse"
       id="clipPath6479">
      <path
         d="m 440.928,110.75 h 30.746 v 39.126 h -30.746 z"
         transform="translate(-455.91141,-146.47851)"
         id="path6479" />
    </clipPath>
    <clipPath
       clipPathUnits="userSpaceOnUse"
       id="clipPath6481">
      <path
         d="m 440.928,110.75 h 30.746 v 39.126 h -30.746 z"
         transform="translate(-454.95751,-145.58871)"
         id="path6481" />
    </clipPath>
    <clipPath
       clipPathUnits="userSpaceOnUse"
       id="clipPath6483">
      <path
         d="m 440.928,110.75 h 30.746 v 39.126 h -30.746 z"
         transform="translate(-453.87551,-144.74721)"
         id="path6483" />
    </clipPath>
    <clipPath
       clipPathUnits="userSpaceOnUse"
       id="clipPath6485">
      <path
         d="m 440.928,110.75 h 30.746 v 39.126 h -30.746 z"
         transform="translate(-453.07391,-143.8575)"
         id="path6485" />
    </clipPath>
    <clipPath
       clipPathUnits="userSpaceOnUse"
       id="clipPath6487">
      <path
         d="m 440.928,110.75 h 30.746 v 39.126 h -30.746 z"
         transform="translate(-451.58311,-142.8876)"
         id="path6487" />
    </clipPath>
    <clipPath
       clipPathUnits="userSpaceOnUse"
       id="clipPath6489">
      <path
         d="m 440.928,110.75 h 30.746 v 39.126 h -30.746 z"
         transform="translate(-461.87211,-141.8122)"
         id="path6489" />
    </clipPath>
    <clipPath
       clipPathUnits="userSpaceOnUse"
       id="clipPath6491">
      <path
         d="m 440.928,110.75 h 30.746 v 39.126 h -30.746 z"
         transform="translate(-463.89671,-142.5466)"
         id="path6491" />
    </clipPath>
    <clipPath
       clipPathUnits="userSpaceOnUse"
       id="clipPath6493">
      <path
         d="m 440.928,110.75 h 30.746 v 39.126 h -30.746 z"
         transform="translate(-463.13631,-143.2356)"
         id="path6493" />
    </clipPath>
    <clipPath
       clipPathUnits="userSpaceOnUse"
       id="clipPath6495">
      <path
         d="m 440.928,110.75 h 30.746 v 39.126 h -30.746 z"
         transform="translate(-462.14941,-141.8827)"
         id="path6495" />
    </clipPath>
    <clipPath
       clipPathUnits="userSpaceOnUse"
       id="clipPath6497">
      <path
         d="m 440.928,110.75 h 30.746 v 39.126 h -30.746 z"
         transform="translate(-461.50271,-142.5499)"
         id="path6497" />
    </clipPath>
    <clipPath
       clipPathUnits="userSpaceOnUse"
       id="clipPath6499">
      <path
         d="m 440.928,110.75 h 30.746 v 39.126 h -30.746 z"
         transform="translate(-462.64821,-142.7215)"
         id="path6499" />
    </clipPath>
    <clipPath
       clipPathUnits="userSpaceOnUse"
       id="clipPath6501">
      <path
         d="m 440.928,110.75 h 30.746 v 39.126 h -30.746 z"
         transform="translate(-461.87211,-143.5327)"
         id="path6501" />
    </clipPath>
    <clipPath
       clipPathUnits="userSpaceOnUse"
       id="clipPath6503">
      <path
         d="m 440.928,110.75 h 30.746 v 39.126 h -30.746 z"
         transform="translate(-460.95881,-144.1687)"
         id="path6503" />
    </clipPath>
    <clipPath
       clipPathUnits="userSpaceOnUse"
       id="clipPath6505">
      <path
         d="m 440.928,110.75 h 30.746 v 39.126 h -30.746 z"
         transform="translate(-459.91601,-144.8232)"
         id="path6505" />
    </clipPath>
    <clipPath
       clipPathUnits="userSpaceOnUse"
       id="clipPath6507">
      <path
         d="m 440.928,110.75 h 30.746 v 39.126 h -30.746 z"
         transform="translate(-458.90351,-145.43931)"
         id="path6507" />
    </clipPath>
    <clipPath
       clipPathUnits="userSpaceOnUse"
       id="clipPath6509">
      <path
         d="m 440.928,110.75 h 30.746 v 39.126 h -30.746 z"
         transform="translate(-456.36021,-146.49321)"
         id="path6509" />
    </clipPath>
    <clipPath
       clipPathUnits="userSpaceOnUse"
       id="clipPath6511">
      <path
         d="m 440.928,110.75 h 30.746 v 39.126 h -30.746 z"
         transform="translate(-457.37021,-145.668)"
         id="path6511" />
    </clipPath>
    <clipPath
       clipPathUnits="userSpaceOnUse"
       id="clipPath6513">
      <path
         d="m 440.928,110.75 h 30.746 v 39.126 h -30.746 z"
         transform="translate(-458.50521,-144.8989)"
         id="path6513" />
    </clipPath>
    <clipPath
       clipPathUnits="userSpaceOnUse"
       id="clipPath6515">
      <path
         d="m 440.928,110.75 h 30.746 v 39.126 h -30.746 z"
         transform="translate(-459.36331,-144.06381)"
         id="path6515" />
    </clipPath>
    <clipPath
       clipPathUnits="userSpaceOnUse"
       id="clipPath6517">
      <path
         d="m 440.928,110.75 h 30.746 v 39.126 h -30.746 z"
         transform="translate(-460.91431,-143.1937)"
         id="path6517" />
    </clipPath>
    <clipPath
       clipPathUnits="userSpaceOnUse"
       id="clipPath6519">
      <path
         d="m 440.928,110.75 h 30.746 v 39.126 h -30.746 z"
         transform="translate(-445.67901,-136.551)"
         id="path6519" />
    </clipPath>
    <clipPath
       clipPathUnits="userSpaceOnUse"
       id="clipPath6521">
      <path
         d="m 440.928,110.75 h 30.746 v 39.126 h -30.746 z"
         transform="translate(-445.93571,-138.24621)"
         id="path6521" />
    </clipPath>
    <clipPath
       clipPathUnits="userSpaceOnUse"
       id="clipPath6523">
      <path
         d="m 440.928,110.75 h 30.746 v 39.126 h -30.746 z"
         transform="translate(-445.59481,-134.7699)"
         id="path6523" />
    </clipPath>
    <clipPath
       clipPathUnits="userSpaceOnUse"
       id="clipPath6525">
      <path
         d="m 440.928,110.75 h 30.746 v 39.126 h -30.746 z"
         transform="translate(-445.74331,-132.7431)"
         id="path6525" />
    </clipPath>
    <clipPath
       clipPathUnits="userSpaceOnUse"
       id="clipPath6527">
      <path
         d="m 440.928,110.75 h 30.746 v 39.126 h -30.746 z"
         transform="translate(-445.94221,-130.99161)"
         id="path6527" />
    </clipPath>
    <clipPath
       clipPathUnits="userSpaceOnUse"
       id="clipPath6529">
      <path
         d="m 440.928,110.75 h 30.746 v 39.126 h -30.746 z"
         transform="translate(-445.03131,-128.6703)"
         id="path6529" />
    </clipPath>
    <clipPath
       clipPathUnits="userSpaceOnUse"
       id="clipPath6531">
      <path
         d="m 440.928,110.75 h 30.746 v 39.126 h -30.746 z"
         transform="translate(-446.35811,-126.3477)"
         id="path6531" />
    </clipPath>
    <clipPath
       clipPathUnits="userSpaceOnUse"
       id="clipPath6533">
      <path
         d="m 440.928,110.75 h 30.746 v 39.126 h -30.746 z"
         transform="translate(-444.76291,-125.1322)"
         id="path6533" />
    </clipPath>
    <clipPath
       clipPathUnits="userSpaceOnUse"
       id="clipPath6535">
      <path
         d="m 440.928,110.75 h 30.746 v 39.126 h -30.746 z"
         transform="translate(-446.51761,-123.9841)"
         id="path6535" />
    </clipPath>
    <clipPath
       clipPathUnits="userSpaceOnUse"
       id="clipPath6537">
      <path
         d="m 440.928,110.75 h 30.746 v 39.126 h -30.746 z"
         transform="translate(-446.35811,-122.3257)"
         id="path6537" />
    </clipPath>
    <clipPath
       clipPathUnits="userSpaceOnUse"
       id="clipPath6539">
      <path
         d="m 440.928,110.75 h 30.746 v 39.126 h -30.746 z"
         transform="translate(-466.06971,-122.71491)"
         id="path6539" />
    </clipPath>
    <clipPath
       clipPathUnits="userSpaceOnUse"
       id="clipPath6541">
      <path
         d="m 440.928,110.75 h 30.746 v 39.126 h -30.746 z"
         transform="translate(-465.90521,-124.3191)"
         id="path6541" />
    </clipPath>
    <clipPath
       clipPathUnits="userSpaceOnUse"
       id="clipPath6543">
      <path
         d="m 440.928,110.75 h 30.746 v 39.126 h -30.746 z"
         transform="translate(-465.86091,-126.3856)"
         id="path6543" />
    </clipPath>
    <clipPath
       clipPathUnits="userSpaceOnUse"
       id="clipPath6545">
      <path
         d="m 440.928,110.75 h 30.746 v 39.126 h -30.746 z"
         transform="translate(-466.02831,-128.2056)"
         id="path6545" />
    </clipPath>
    <clipPath
       clipPathUnits="userSpaceOnUse"
       id="clipPath6547">
      <path
         d="m 440.928,110.75 h 30.746 v 39.126 h -30.746 z"
         transform="translate(-466.09491,-130.003)"
         id="path6547" />
    </clipPath>
    <clipPath
       clipPathUnits="userSpaceOnUse"
       id="clipPath6549">
      <path
         d="m 440.928,110.75 h 30.746 v 39.126 h -30.746 z"
         transform="translate(-466.29931,-132.34671)"
         id="path6549" />
    </clipPath>
    <clipPath
       clipPathUnits="userSpaceOnUse"
       id="clipPath6551">
      <path
         d="m 440.928,110.75 h 30.746 v 39.126 h -30.746 z"
         transform="translate(-467.26151,-133.138)"
         id="path6551" />
    </clipPath>
    <clipPath
       clipPathUnits="userSpaceOnUse"
       id="clipPath6553">
      <path
         d="m 440.928,110.75 h 30.746 v 39.126 h -30.746 z"
         transform="translate(-467.60601,-135.0304)"
         id="path6553" />
    </clipPath>
    <clipPath
       clipPathUnits="userSpaceOnUse"
       id="clipPath6555">
      <path
         d="m 440.928,110.75 h 30.746 v 39.126 h -30.746 z"
         transform="translate(-467.62841,-137.3515)"
         id="path6555" />
    </clipPath>
    <clipPath
       clipPathUnits="userSpaceOnUse"
       id="clipPath6557">
      <path
         d="m 440.928,110.75 h 30.746 v 39.126 h -30.746 z"
         transform="translate(-467.44481,-139.0785)"
         id="path6557" />
    </clipPath>
    <clipPath
       clipPathUnits="userSpaceOnUse"
       id="clipPath6559">
      <path
         d="m 440.928,110.75 h 30.746 v 39.126 h -30.746 z"
         transform="translate(-457.95621,-136.9581)"
         id="path6559" />
    </clipPath>
    <clipPath
       clipPathUnits="userSpaceOnUse"
       id="clipPath6561">
      <path
         d="m 440.928,110.75 h 30.746 v 39.126 h -30.746 z"
         transform="translate(-456.53331,-113.7852)"
         id="path6561" />
    </clipPath>
    <clipPath
       clipPathUnits="userSpaceOnUse"
       id="clipPath6563">
      <path
         d="m 440.928,110.75 h 30.746 v 39.126 h -30.746 z"
         transform="translate(-456.53331,-113.7852)"
         id="path6563" />
    </clipPath>
    <clipPath
       clipPathUnits="userSpaceOnUse"
       id="clipPath6565">
      <path
         d="m 440.928,110.75 h 30.746 v 39.126 h -30.746 z"
         transform="translate(-448.07701,-115.6644)"
         id="path6565" />
    </clipPath>
    <clipPath
       clipPathUnits="userSpaceOnUse"
       id="clipPath6567">
      <path
         d="m 440.928,110.75 h 30.746 v 39.126 h -30.746 z"
         transform="translate(-449.37821,-116.5771)"
         id="path6567" />
    </clipPath>
    <clipPath
       clipPathUnits="userSpaceOnUse"
       id="clipPath6569">
      <path
         d="m 440.928,110.75 h 30.746 v 39.126 h -30.746 z"
         transform="translate(-451.54821,-116.3977)"
         id="path6569" />
    </clipPath>
    <clipPath
       clipPathUnits="userSpaceOnUse"
       id="clipPath6571">
      <path
         d="m 440.928,110.75 h 30.746 v 39.126 h -30.746 z"
         transform="translate(-452.04521,-117.22041)"
         id="path6571" />
    </clipPath>
    <clipPath
       clipPathUnits="userSpaceOnUse"
       id="clipPath6573">
      <path
         d="m 440.928,110.75 h 30.746 v 39.126 h -30.746 z"
         transform="translate(-453.82971,-118.37151)"
         id="path6573" />
    </clipPath>
    <clipPath
       clipPathUnits="userSpaceOnUse"
       id="clipPath6575">
      <path
         d="m 440.928,110.75 h 30.746 v 39.126 h -30.746 z"
         transform="translate(-454.98361,-118.64691)"
         id="path6575" />
    </clipPath>
    <clipPath
       clipPathUnits="userSpaceOnUse"
       id="clipPath6577">
      <path
         d="m 440.928,110.75 h 30.746 v 39.126 h -30.746 z"
         transform="translate(-458.33581,-118.7154)"
         id="path6577" />
    </clipPath>
    <clipPath
       clipPathUnits="userSpaceOnUse"
       id="clipPath6579">
      <path
         d="m 440.928,110.75 h 30.746 v 39.126 h -30.746 z"
         transform="translate(-459.29351,-117.3691)"
         id="path6579" />
    </clipPath>
    <clipPath
       clipPathUnits="userSpaceOnUse"
       id="clipPath6581">
      <path
         d="m 440.928,110.75 h 30.746 v 39.126 h -30.746 z"
         transform="translate(-460.30961,-118.3096)"
         id="path6581" />
    </clipPath>
    <clipPath
       clipPathUnits="userSpaceOnUse"
       id="clipPath6583">
      <path
         d="m 440.928,110.75 h 30.746 v 39.126 h -30.746 z"
         transform="translate(-461.98951,-117.87411)"
         id="path6583" />
    </clipPath>
    <clipPath
       clipPathUnits="userSpaceOnUse"
       id="clipPath6585">
      <path
         d="m 440.928,110.75 h 30.746 v 39.126 h -30.746 z"
         transform="translate(-463.73941,-117.0732)"
         id="path6585" />
    </clipPath>
    <clipPath
       clipPathUnits="userSpaceOnUse"
       id="clipPath6587">
      <path
         d="m 440.928,110.75 h 30.746 v 39.126 h -30.746 z"
         transform="translate(-465.34881,-115.98771)"
         id="path6587" />
    </clipPath>
    <clipPath
       clipPathUnits="userSpaceOnUse"
       id="clipPath6589">
      <path
         d="m 440.928,110.75 h 30.746 v 39.126 h -30.746 z"
         transform="translate(-450.83271,-113.8716)"
         id="path6589" />
    </clipPath>
    <clipPath
       clipPathUnits="userSpaceOnUse"
       id="clipPath6591">
      <path
         d="m 440.928,110.75 h 30.746 v 39.126 h -30.746 z"
         transform="translate(-452.22211,-114.6943)"
         id="path6591" />
    </clipPath>
    <clipPath
       clipPathUnits="userSpaceOnUse"
       id="clipPath6593">
      <path
         d="m 440.928,110.75 h 30.746 v 39.126 h -30.746 z"
         transform="translate(-453.50921,-115.28481)"
         id="path6593" />
    </clipPath>
    <clipPath
       clipPathUnits="userSpaceOnUse"
       id="clipPath6595">
      <path
         d="m 440.928,110.75 h 30.746 v 39.126 h -30.746 z"
         transform="translate(-455.12441,-115.6737)"
         id="path6595" />
    </clipPath>
    <clipPath
       clipPathUnits="userSpaceOnUse"
       id="clipPath6597">
      <path
         d="m 440.928,110.75 h 30.746 v 39.126 h -30.746 z"
         transform="translate(-456.75781,-115.8571)"
         id="path6597" />
    </clipPath>
    <clipPath
       clipPathUnits="userSpaceOnUse"
       id="clipPath6599">
      <path
         d="m 440.928,110.75 h 30.746 v 39.126 h -30.746 z"
         transform="translate(-458.24591,-115.78251)"
         id="path6599" />
    </clipPath>
    <clipPath
       clipPathUnits="userSpaceOnUse"
       id="clipPath6601">
      <path
         d="m 440.928,110.75 h 30.746 v 39.126 h -30.746 z"
         transform="translate(-459.18811,-114.798)"
         id="path6601" />
    </clipPath>
    <clipPath
       clipPathUnits="userSpaceOnUse"
       id="clipPath6603">
      <path
         d="m 440.928,110.75 h 30.746 v 39.126 h -30.746 z"
         transform="translate(-460.78911,-115.3069)"
         id="path6603" />
    </clipPath>
    <clipPath
       clipPathUnits="userSpaceOnUse"
       id="clipPath6605">
      <path
         d="m 440.928,110.75 h 30.746 v 39.126 h -30.746 z"
         transform="translate(-461.52951,-114.3456)"
         id="path6605" />
    </clipPath>
    <clipPath
       clipPathUnits="userSpaceOnUse"
       id="clipPath6607">
      <path
         d="m 440.928,110.75 h 30.746 v 39.126 h -30.746 z"
         transform="translate(-461.95541,-113.53791)"
         id="path6607" />
    </clipPath>
    <clipPath
       clipPathUnits="userSpaceOnUse"
       id="clipPath6609">
      <path
         d="m 440.928,110.75 h 30.746 v 39.126 h -30.746 z"
         transform="translate(-463.35961,-113.3784)"
         id="path6609" />
    </clipPath>
  </defs>
  <g
     id="layer1"
     transform="translate(-129.44875,-30.61927)">
    <path
       id="path6412"
       d="M 0,0 C 0,-0.088 -0.005,-0.174 -0.015,-0.259 -0.061,-0.645 -0.208,-1 -0.429,-1.298 c -0.265,-0.357 -0.638,-0.63 -1.07,-0.772 -0.214,-0.069 -0.442,-0.107 -0.678,-0.107 -0.237,0 -0.466,0.038 -0.68,0.108 -0.255,0.084 -0.49,0.214 -0.694,0.38 -0.49,0.399 -0.803,1.008 -0.803,1.689 0,1.109 0.829,2.024 1.901,2.16 0.09,0.011 0.182,0.017 0.276,0.017 0.37,0 0.719,-0.092 1.024,-0.255 C -0.724,1.693 -0.381,1.324 -0.184,0.877 -0.066,0.609 0,0.312 0,0"
       style="fill:#ffffff;fill-opacity:1;fill-rule:nonzero;stroke:none"
       transform="matrix(2.4137054,0,0,-2.4137054,171.66202,58.657075)"
       clip-path="url(#clipPath6413)" />
    <path
       id="path6414"
       d="m 0,0 c 0.23,-0.11 0.427,-0.241 0.636,-0.366 l 0.682,1.179 1.865,-1.546 c 0.337,0.097 0.608,0.23 0.788,0.399 -0.987,1.58 -1.046,2.937 -0.868,4.462 0.198,1.7 0.598,3.416 0.598,5.465 0,2.023 -0.367,3.666 -0.917,5.732 -0.421,1.584 -0.563,3.039 -0.208,3.793 0.254,0.539 0.97,1.666 1.28,2.172 L 1.101,23.923 C 0.159,22.786 -1.212,20.79 -1.212,17.971 -1.212,14.724 0.047,12.667 0.047,9.27 0.047,6.993 -0.6,5.098 -0.6,3.191 -0.6,1.932 -0.373,0.582 0,0"
       style="fill:#ffffff;fill-opacity:1;fill-rule:nonzero;stroke:#000000;stroke-width:0.08;stroke-linecap:butt;stroke-linejoin:miter;stroke-miterlimit:10;stroke-dasharray:none;stroke-opacity:1"
       transform="matrix(2.4137054,0,0,-2.4137054,136.47963,110.49165)"
       clip-path="url(#clipPath6415)" />
    <path
       id="path6416"
       d="m 0,0 c 0.416,-2.034 2.559,-3.28 3.885,-3.824 l 0.279,0.291 z"
       style="fill:#ffffff;fill-opacity:1;fill-rule:nonzero;stroke:#000000;stroke-width:0.08;stroke-linecap:butt;stroke-linejoin:miter;stroke-miterlimit:10;stroke-dasharray:none;stroke-opacity:1"
       transform="matrix(2.4137054,0,0,-2.4137054,129.75942,43.520005)"
       clip-path="url(#clipPath6417)" />
    <path
       id="path6418"
       d="M 0,0 C 2.438,-0.312 3.454,-1.64 4.442,-3.241 L 4.164,-3.533 Z"
       style="fill:#ffffff;fill-opacity:1;fill-rule:nonzero;stroke:#000000;stroke-width:0.08;stroke-linecap:butt;stroke-linejoin:miter;stroke-miterlimit:10;stroke-dasharray:none;stroke-opacity:1"
       transform="matrix(2.4137054,0,0,-2.4137054,129.75942,43.520005)"
       clip-path="url(#clipPath6419)" />
    <path
       id="path6420"
       d="m 0,0 c -2.225,-0.481 -3.716,-1.868 -4.509,-3.062 l 0.257,-0.379 z"
       style="fill:#ffffff;fill-opacity:1;fill-rule:nonzero;stroke:#000000;stroke-width:0.08;stroke-linecap:butt;stroke-linejoin:miter;stroke-miterlimit:10;stroke-dasharray:none;stroke-opacity:1"
       transform="matrix(2.4137054,0,0,-2.4137054,203.28424,43.4558)"
       clip-path="url(#clipPath6421)" />
    <path
       id="path6422"
       d="m 0,0 c -0.971,-2.16 -2.23,-3.164 -3.994,-3.82 l -0.258,0.379 z"
       style="fill:#ffffff;fill-opacity:1;fill-rule:nonzero;stroke:#000000;stroke-width:0.08;stroke-linecap:butt;stroke-linejoin:miter;stroke-miterlimit:10;stroke-dasharray:none;stroke-opacity:1"
       transform="matrix(2.4137054,0,0,-2.4137054,203.28424,43.4558)"
       clip-path="url(#clipPath6423)" />
    <path
       id="path6424"
       d="m 0,0 0.294,-0.883 0.919,0.002 -0.736,-0.566 0.273,-0.861 -0.753,0.512 -0.747,-0.512 0.266,0.861 -0.73,0.566 0.914,-0.002 z"
       style="fill:#e4142d;fill-opacity:1;fill-rule:nonzero;stroke:none"
       transform="matrix(2.4137054,0,0,-2.4137054,166.41537,46.754848)"
       clip-path="url(#clipPath6425)" />
    <path
       id="path6426"
       d="m 0,0 c -0.549,-0.719 -1.157,-1.413 -1.627,-1.84 1.244,-1.273 1.91,-4.124 1.91,-7.034 0,-2.909 -0.478,-5.601 -1.418,-8.047 0.81,-0.362 2.084,-1.621 2.431,-2.446 1.681,1.242 5.162,1.853 7.193,1.853 V -3.432 L 1.788,2.125 1.253,1.938 C 1.055,1.358 0.809,1.13 0.48,0.657 Z"
       style="fill:#00a3bc;fill-opacity:1;fill-rule:nonzero;stroke:#000000;stroke-width:0.08;stroke-linecap:butt;stroke-linejoin:miter;stroke-miterlimit:10;stroke-dasharray:none;stroke-opacity:1"
       transform="matrix(2.4137054,0,0,-2.4137054,146.62488,59.90689)"
       clip-path="url(#clipPath6427)" />
    <path
       id="path6428"
       d="M 0,0 C 0.154,-0.045 0.306,-0.086 0.457,-0.122 0.579,-0.627 0.852,-1.217 1.216,-1.808 1.353,-2.03 1.503,-2.253 1.663,-2.471 2.116,-3.091 2.648,-3.675 3.184,-4.12 2.421,-5.933 1.566,-9.469 1.566,-12.601 c 0,-2.738 1.187,-5.939 1.418,-6.54 -0.621,-0.324 -1.672,-1.456 -1.938,-2.207 -1.687,0.693 -3.655,1.395 -7.149,1.395 v 14.081 z"
       style="fill:#009741;fill-opacity:1;fill-rule:nonzero;stroke:#000000;stroke-width:0.08;stroke-linecap:butt;stroke-linejoin:miter;stroke-miterlimit:10;stroke-dasharray:none;stroke-opacity:1"
       transform="matrix(2.4137054,0,0,-2.4137054,181.84593,54.019376)"
       clip-path="url(#clipPath6429)" />
    <path
       id="path6430"
       d="m 0,0 c -0.397,-0.397 -1.022,-1.16 -3.25,-2.335 -2.632,-1.388 -5.662,-3.326 -7.424,-6.222 l 1.924,-1.839 0.565,-0.54 0.536,-0.512 c 0.329,0.472 0.575,0.701 0.773,1.28 l 0.535,0.188 c 1.474,0.388 4.888,2.271 6.411,4.571 1.619,-2.076 4.481,-3.812 6.393,-4.257 0.156,-0.037 0.306,-0.086 0.457,-0.123 0.123,-0.505 0.396,-1.095 0.76,-1.686 l 1.29,1.277 0.545,0.539 1.321,1.307 C 8.883,-5.536 6.601,-3.81 3.764,-2.575 2.29,-1.933 0.396,-0.397 0,0"
       style="fill:#ffffff;fill-opacity:1;fill-rule:nonzero;stroke:#000000;stroke-width:0.08;stroke-linecap:butt;stroke-linejoin:miter;stroke-miterlimit:10;stroke-dasharray:none;stroke-opacity:1"
       transform="matrix(2.4137054,0,0,-2.4137054,166.24541,30.68754)"
       clip-path="url(#clipPath6431)" />
    <path
       id="path6432"
       d="m 0,0 -0.258,0.379 -0.257,0.379 -3.156,-3.122 h -0.001 c 0.137,-0.222 0.287,-0.445 0.447,-0.663 l 0.383,0.36 z"
       style="fill:#000000;fill-opacity:1;fill-rule:nonzero;stroke:#000000;stroke-width:0.08;stroke-linecap:butt;stroke-linejoin:miter;stroke-miterlimit:10;stroke-dasharray:none;stroke-opacity:1"
       transform="matrix(2.4137054,0,0,-2.4137054,193.64413,52.677126)"
       clip-path="url(#clipPath6433)" />
    <path
       id="path6434"
       d="M 0,0 2.842,2.667 C 4.03,1.01 4.919,-1.056 4.919,-3.256 c 0,-4.021 -1.511,-5.692 -1.511,-8.623 0,-1.662 0.667,-2.639 0.667,-5.216 0,-0.467 -0.138,-1.826 -0.267,-2.333 -0.271,-1.065 -0.578,-2.177 -0.578,-2.177 l -0.866,1.733 -1.431,-1.275 c -0.175,0.067 -0.713,0.425 -0.713,0.425 0.478,0.739 0.718,2.425 0.718,3.692 0,0.493 -0.114,0.962 -0.252,1.524 -0.218,0.885 -0.499,2.003 -0.499,3.809 0,5.353 1.311,5.465 1.311,8.108 C 1.498,-2.123 0.455,-0.674 0,0"
       style="fill:#ffffff;fill-opacity:1;fill-rule:nonzero;stroke:#000000;stroke-width:0.08;stroke-linecap:butt;stroke-linejoin:miter;stroke-miterlimit:10;stroke-dasharray:none;stroke-opacity:1"
       transform="matrix(2.4137054,0,0,-2.4137054,186.78489,59.115434)"
       clip-path="url(#clipPath6435)" />
    <path
       id="path6436"
       d="m 0,0 c 0,0.492 -0.113,0.961 -0.252,1.524 l 5.236,-5.506 c 0.258,-0.276 0.12,-0.593 0.12,-0.593 L 4.837,-5.004 Z"
       style="fill:#000000;fill-opacity:1;fill-rule:nonzero;stroke:none"
       transform="matrix(2.4137054,0,0,-2.4137054,189.04823,100.22035)"
       clip-path="url(#clipPath6437)" />
    <path
       id="path6438"
       d="M 0,0 1.381,-0.235 2.51,7.725 -3.583,13.717 0.889,7.233 Z"
       style="fill:#ffffff;fill-opacity:1;fill-rule:nonzero;stroke:#000000;stroke-width:0.08;stroke-linecap:butt;stroke-linejoin:miter;stroke-miterlimit:10;stroke-dasharray:none;stroke-opacity:1"
       transform="matrix(2.4137054,0,0,-2.4137054,159.34416,89.003637)"
       clip-path="url(#clipPath6439)" />
    <path
       id="path6440"
       d="m 0,0 4.472,-6.484 -0.889,-7.233 -1.347,0.243 0.876,7.077 z"
       style="fill:#ffffff;fill-opacity:1;fill-rule:nonzero;stroke:#000000;stroke-width:0.08;stroke-linecap:butt;stroke-linejoin:miter;stroke-miterlimit:10;stroke-dasharray:none;stroke-opacity:1"
       transform="matrix(2.4137054,0,0,-2.4137054,150.69587,55.895076)"
       clip-path="url(#clipPath6441)" />
    <path
       id="path6442"
       d="m 0,0 -1.381,0.235 -1.347,0.243 -1.469,0.261 c -0.116,-0.608 0.449,-1.317 0.724,-1.578 0.447,-0.423 0.645,-1.25 0.253,-2.055 -0.171,-0.35 -0.514,-0.579 -0.514,-1.201 0,-0.623 0.565,-0.985 1.187,-0.985 0.897,0 1.085,0.449 1.085,1.274 0,1.201 0.569,2.339 1.31,2.369 0.818,0.034 1.354,0.656 1.354,1.278 z"
       style="fill:#ffe200;fill-opacity:1;fill-rule:nonzero;stroke:none"
       transform="matrix(2.4137054,0,0,-2.4137054,162.67847,89.570846)"
       clip-path="url(#clipPath6443)" />
    <path
       id="path6444"
       d="m 0,0 -1.381,0.235 -1.347,0.243 -1.469,0.261 c -0.116,-0.608 0.449,-1.317 0.724,-1.578 0.447,-0.423 0.645,-1.25 0.253,-2.055 -0.171,-0.35 -0.514,-0.579 -0.514,-1.201 0,-0.623 0.565,-0.985 1.187,-0.985 0.897,0 1.085,0.449 1.085,1.274 0,1.201 0.569,2.339 1.31,2.369 0.818,0.034 1.354,0.656 1.354,1.278 z m -3.142,-1.305 c 0.362,-0.158 1.318,-0.481 2.309,-0.506 m -2.188,0.13 c 0.141,-0.084 0.722,-0.355 1.967,-0.413 m -1.958,0.167 c 0.158,-0.104 0.97,-0.386 1.845,-0.424 m -1.845,0.099 c 0.192,-0.125 0.796,-0.404 1.742,-0.362 m -1.809,0.093 c 0.362,-0.23 0.766,-0.385 1.707,-0.46 m -1.815,0.158 c 0.404,-0.245 1.104,-0.4 1.771,-0.396 m -1.893,0.171 c 0.308,-0.175 1.024,-0.454 1.857,-0.491"
       style="fill:none;stroke:#000000;stroke-width:0.08;stroke-linecap:butt;stroke-linejoin:miter;stroke-miterlimit:10;stroke-dasharray:none;stroke-opacity:1"
       transform="matrix(2.4137054,0,0,-2.4137054,162.67847,89.570846)"
       clip-path="url(#clipPath6445)" />
    <path
       id="path6446"
       d="M 0,0 -1.374,-0.275 -2.57,7.63 3.437,13.909 -0.974,7.413 Z"
       style="fill:#ffffff;fill-opacity:1;fill-rule:nonzero;stroke:#000000;stroke-width:0.08;stroke-linecap:butt;stroke-linejoin:miter;stroke-miterlimit:10;stroke-dasharray:none;stroke-opacity:1"
       transform="matrix(2.4137054,0,0,-2.4137054,174.33259,89.197697)"
       clip-path="url(#clipPath6447)" />
    <path
       id="path6448"
       d="m 0,0 -4.41,-6.497 0.973,-7.412 1.339,0.282 -0.905,6.786 z"
       style="fill:#ffffff;fill-opacity:1;fill-rule:nonzero;stroke:#000000;stroke-width:0.08;stroke-linecap:butt;stroke-linejoin:miter;stroke-miterlimit:10;stroke-dasharray:none;stroke-opacity:1"
       transform="matrix(2.4137054,0,0,-2.4137054,182.62749,55.624496)"
       clip-path="url(#clipPath6449)" />
    <path
       id="path6450"
       d="m 0,0 1.374,0.275 1.339,0.283 1.46,0.305 C 4.307,0.258 3.764,-0.467 3.497,-0.735 3.063,-1.172 2.889,-2.005 3.305,-2.798 3.486,-3.142 3.835,-3.36 3.854,-3.983 3.872,-4.605 3.318,-4.984 2.697,-5.002 1.8,-5.029 1.598,-4.586 1.574,-3.761 c -0.036,1.2 -0.638,2.321 -1.38,2.329 -0.818,0.01 -1.372,0.616 -1.39,1.238 z"
       style="fill:#ffe200;fill-opacity:1;fill-rule:nonzero;stroke:none"
       transform="matrix(2.4137054,0,0,-2.4137054,171.01613,89.862431)"
       clip-path="url(#clipPath6451)" />
    <path
       id="path6452"
       d="m 0,0 1.374,0.275 1.339,0.283 1.46,0.305 C 4.307,0.258 3.764,-0.467 3.497,-0.735 3.063,-1.172 2.889,-2.005 3.305,-2.798 3.486,-3.142 3.835,-3.36 3.854,-3.983 3.872,-4.605 3.318,-4.984 2.697,-5.002 1.8,-5.029 1.598,-4.586 1.574,-3.761 c -0.036,1.2 -0.638,2.321 -1.38,2.329 -0.818,0.01 -1.372,0.616 -1.39,1.238 z M 3.18,-1.212 C 2.822,-1.381 1.876,-1.731 0.886,-1.785 M 3.07,-1.591 C 2.931,-1.679 2.359,-1.967 1.116,-2.062 m 1.952,0.225 C 2.913,-1.946 2.11,-2.252 1.237,-2.315 m 1.841,0.153 C 2.89,-2.292 2.294,-2.59 1.347,-2.576 m 1.806,0.147 C 2.798,-2.669 2.399,-2.837 1.46,-2.939 m 1.809,0.212 C 2.873,-2.985 2.178,-3.16 1.511,-3.176 m 1.887,0.227 C 3.095,-3.133 2.388,-3.433 1.557,-3.495"
       style="fill:none;stroke:#000000;stroke-width:0.08;stroke-linecap:butt;stroke-linejoin:miter;stroke-miterlimit:10;stroke-dasharray:none;stroke-opacity:1"
       transform="matrix(2.4137054,0,0,-2.4137054,171.01613,89.862431)"
       clip-path="url(#clipPath6453)" />
    <path
       id="path6454"
       d="m 0,0 -4.51,-4.511 c -0.35,-0.349 0.005,-1.022 0.113,-1.131 l 1.029,0.998 3.199,3.101 0.047,0.715 z"
       style="fill:#000000;fill-opacity:1;fill-rule:nonzero;stroke:none"
       transform="matrix(2.4137054,0,0,-2.4137054,144.21363,98.660618)"
       clip-path="url(#clipPath6455)" />
    <path
       id="path6456"
       d="M 0,0 -0.565,0.54 -2.489,2.379 -3.046,1.796 -0.291,-0.837 0.056,-1.17 c 0.168,0.22 0.329,0.441 0.48,0.658 z"
       style="fill:#000000;fill-opacity:1;fill-rule:nonzero;stroke:none"
       transform="matrix(2.4137054,0,0,-2.4137054,146.4888,57.083579)"
       clip-path="url(#clipPath6457)" />
    <path
       id="path6458"
       d="M 0,0 C 0.112,0.361 0.497,0.689 0.713,0.737 0.81,1.202 1.162,1.595 1.403,1.844 1.579,1.451 1.547,1.347 1.547,1.234 1.587,2.028 2.028,2.348 2.437,2.541 2.493,2.413 2.461,2.156 2.437,2.036 2.525,2.46 2.765,3.062 3.358,3.294 3.383,2.957 3.326,2.581 3.214,2.236 3.39,2.581 3.559,3.118 3.807,3.382 4.056,3.647 4.36,3.855 4.577,3.935 4.585,3.751 4.545,3.655 4.521,3.567 4.665,3.911 5.05,4.272 5.498,4.296 5.675,4.488 5.923,4.72 6.324,4.68 6.123,4.48 5.923,4.087 5.811,3.839 6.083,4.272 6.813,5.058 7.478,4.685 7.366,4.488 7.262,4.432 7.262,4.432 7.229,4.184 7.045,3.847 6.308,3.542 6.42,3.19 5.795,2.837 5.226,2.701 5.683,2.749 5.707,2.604 5.707,2.604 5.538,2.268 4.881,1.859 4.424,1.811 4.753,1.835 4.753,1.755 4.753,1.755 4.472,1.298 4.048,1.098 3.583,1.018 3.118,0.937 3.094,0.921 2.933,0.841 3.214,0.857 3.534,0.801 3.615,0.761 3.414,0.521 3.254,0.32 2.389,0.16 2.733,0.184 2.825,0.128 2.825,0.128 2.757,-0.04 2.573,-0.521 1.571,-0.521 1.579,-0.794 1.261,-1.507 0.369,-1.611 -0.457,-1.707 -0.665,-2.821 -0.662,-3.163 l -0.565,0.54 c 0.001,0.507 0.274,0.827 0.618,1.156 C -0.721,-1.17 -0.657,-0.192 0,0"
       style="fill:#ffe200;fill-opacity:1;fill-rule:nonzero;stroke:#000000;stroke-width:0.08;stroke-linecap:butt;stroke-linejoin:miter;stroke-miterlimit:10;stroke-dasharray:none;stroke-opacity:1"
       transform="matrix(2.4137054,0,0,-2.4137054,148.08688,49.449762)"
       clip-path="url(#clipPath6459)" />
    <path
       id="path6460"
       d="M 0,0 C 0.032,-0.281 0.048,-0.665 -0.208,-1.274"
       style="fill:#ffe200;fill-opacity:1;fill-rule:nonzero;stroke:#000000;stroke-width:0.08;stroke-linecap:butt;stroke-linejoin:miter;stroke-miterlimit:10;stroke-dasharray:none;stroke-opacity:1"
       transform="matrix(2.4137054,0,0,-2.4137054,148.08688,49.449762)"
       clip-path="url(#clipPath6461)" />
    <path
       id="path6462"
       d="M 0,0 C 0.008,-0.257 -0.104,-1.082 -0.369,-1.451"
       style="fill:#ffe200;fill-opacity:1;fill-rule:nonzero;stroke:#000000;stroke-width:0.08;stroke-linecap:butt;stroke-linejoin:miter;stroke-miterlimit:10;stroke-dasharray:none;stroke-opacity:1"
       transform="matrix(2.4137054,0,0,-2.4137054,149.80908,47.67013)"
       clip-path="url(#clipPath6463)" />
    <path
       id="path6464"
       d="M 0,0 C -0.281,-0.008 -0.744,-0.208 -0.857,-0.337"
       style="fill:#ffe200;fill-opacity:1;fill-rule:nonzero;stroke:#000000;stroke-width:0.08;stroke-linecap:butt;stroke-linejoin:miter;stroke-miterlimit:10;stroke-dasharray:none;stroke-opacity:1"
       transform="matrix(2.4137054,0,0,-2.4137054,151.87886,50.707773)"
       clip-path="url(#clipPath6465)" />
    <path
       id="path6466"
       d="M 0,0 C -0.513,-0.104 -0.978,-0.353 -0.978,-0.353"
       style="fill:#ffe200;fill-opacity:1;fill-rule:nonzero;stroke:#000000;stroke-width:0.08;stroke-linecap:butt;stroke-linejoin:miter;stroke-miterlimit:10;stroke-dasharray:none;stroke-opacity:1"
       transform="matrix(2.4137054,0,0,-2.4137054,153.85229,49.063319)"
       clip-path="url(#clipPath6467)" />
    <path
       id="path6468"
       d="M 0,0 C 0.176,0.273 0.321,0.545 0.313,0.978"
       style="fill:#ffe200;fill-opacity:1;fill-rule:nonzero;stroke:#000000;stroke-width:0.08;stroke-linecap:butt;stroke-linejoin:miter;stroke-miterlimit:10;stroke-dasharray:none;stroke-opacity:1"
       transform="matrix(2.4137054,0,0,-2.4137054,151.06637,48.831368)"
       clip-path="url(#clipPath6469)" />
    <path
       id="path6470"
       d="M 0,0 C 0.208,0.246 0.451,0.584 0.481,0.919"
       style="fill:#ffe200;fill-opacity:1;fill-rule:nonzero;stroke:#000000;stroke-width:0.08;stroke-linecap:butt;stroke-linejoin:miter;stroke-miterlimit:10;stroke-dasharray:none;stroke-opacity:1"
       transform="matrix(2.4137054,0,0,-2.4137054,152.8069,46.754848)"
       clip-path="url(#clipPath6471)" />
    <path
       id="path6472"
       d="M 0,0 C 0.196,0.16 0.336,0.316 0.389,0.425"
       style="fill:#ffe200;fill-opacity:1;fill-rule:nonzero;stroke:#000000;stroke-width:0.08;stroke-linecap:butt;stroke-linejoin:miter;stroke-miterlimit:10;stroke-dasharray:none;stroke-opacity:1"
       transform="matrix(2.4137054,0,0,-2.4137054,154.90582,45.078531)"
       clip-path="url(#clipPath6473)" />
    <path
       id="path6474"
       d="M 0,0 C 0.305,0.2 0.61,0.626 0.698,1.034"
       style="fill:#ffe200;fill-opacity:1;fill-rule:nonzero;stroke:#000000;stroke-width:0.08;stroke-linecap:butt;stroke-linejoin:miter;stroke-miterlimit:10;stroke-dasharray:none;stroke-opacity:1"
       transform="matrix(2.4137054,0,0,-2.4137054,157.31448,43.337529)"
       clip-path="url(#clipPath6475)" />
    <path
       id="path6476"
       d="M 0,0 C 0.192,0.12 0.549,0.349 0.679,1.08"
       style="fill:#ffe200;fill-opacity:1;fill-rule:nonzero;stroke:#000000;stroke-width:0.08;stroke-linecap:butt;stroke-linejoin:miter;stroke-miterlimit:10;stroke-dasharray:none;stroke-opacity:1"
       transform="matrix(2.4137054,0,0,-2.4137054,159.65554,41.693075)"
       clip-path="url(#clipPath6477)" />
    <path
       id="path6478"
       d="M 0,0 C -0.136,-0.129 -0.578,-0.337 -0.882,-0.337"
       style="fill:#ffe200;fill-opacity:1;fill-rule:nonzero;stroke:#000000;stroke-width:0.08;stroke-linecap:butt;stroke-linejoin:miter;stroke-miterlimit:10;stroke-dasharray:none;stroke-opacity:1"
       transform="matrix(2.4137054,0,0,-2.4137054,165.61424,38.752206)"
       clip-path="url(#clipPath6479)" />
    <path
       id="path6480"
       d="M 0,0 C -0.337,0.008 -0.98,-0.16 -1.175,-0.493"
       style="fill:#ffe200;fill-opacity:1;fill-rule:nonzero;stroke:#000000;stroke-width:0.08;stroke-linecap:butt;stroke-linejoin:miter;stroke-miterlimit:10;stroke-dasharray:none;stroke-opacity:1"
       transform="matrix(2.4137054,0,0,-2.4137054,163.31184,40.899916)"
       clip-path="url(#clipPath6481)" />
    <path
       id="path6482"
       d="M 0,0 C -0.288,-0.032 -0.89,-0.232 -1.154,-0.505"
       style="fill:#ffe200;fill-opacity:1;fill-rule:nonzero;stroke:#000000;stroke-width:0.08;stroke-linecap:butt;stroke-linejoin:miter;stroke-miterlimit:10;stroke-dasharray:none;stroke-opacity:1"
       transform="matrix(2.4137054,0,0,-2.4137054,160.70018,42.931053)"
       clip-path="url(#clipPath6483)" />
    <path
       id="path6484"
       d="M 0,0 C -0.393,-0.032 -1.078,-0.225 -1.404,-0.537"
       style="fill:#ffe200;fill-opacity:1;fill-rule:nonzero;stroke:#000000;stroke-width:0.08;stroke-linecap:butt;stroke-linejoin:miter;stroke-miterlimit:10;stroke-dasharray:none;stroke-opacity:1"
       transform="matrix(2.4137054,0,0,-2.4137054,158.7654,45.078531)"
       clip-path="url(#clipPath6485)" />
    <path
       id="path6486"
       d="M 0,0 C -0.192,-0.048 -0.601,-0.272 -0.601,-0.272"
       style="fill:#ffe200;fill-opacity:1;fill-rule:nonzero;stroke:#000000;stroke-width:0.08;stroke-linecap:butt;stroke-linejoin:miter;stroke-miterlimit:10;stroke-dasharray:none;stroke-opacity:1"
       transform="matrix(2.4137054,0,0,-2.4137054,155.16705,47.419583)"
       clip-path="url(#clipPath6487)" />
    <path
       id="path6488"
       d="m 0,0 c 0.01,-0.272 0.867,-0.825 1.762,-0.897 0.29,-0.024 0.49,-0.115 0.648,-0.311 0.158,-0.196 0.602,-0.707 0.861,-0.983 l 0.545,0.54 C 3.639,-1.5 3.24,-1.184 3.126,-1.071 2.818,-0.763 2.751,-0.333 2.73,-0.187 2.674,0.197 2.458,0.638 2.025,0.734 1.889,1.087 1.483,1.39 1.264,1.423 1.138,1.881 0.76,2.25 0.504,2.482 0.354,2.078 0.393,1.977 0.4,1.865 0.308,2.654 -0.153,2.945 -0.574,3.11 -0.621,2.978 -0.572,2.725 -0.54,2.606 -0.656,3.024 -0.935,3.608 -1.542,3.801 -1.545,3.464 -1.464,3.092 -1.329,2.755 -1.528,3.087 -1.731,3.612 -1.996,3.86 -2.262,4.108 -2.579,4.296 -2.8,4.361 -2.796,4.177 -2.75,4.083 -2.72,3.997 -2.887,4.332 -3.294,4.666 -3.744,4.661 -3.932,4.841 -4.195,5.056 -4.593,4.99 -4.379,4.804 -4.154,4.425 -4.025,4.184 -4.326,4.598 -5.105,5.335 -5.744,4.919 -5.62,4.73 -5.512,4.681 -5.512,4.681 -5.464,4.435 -5.257,4.111 -4.502,3.856 -4.59,3.497 -3.944,3.186 -3.367,3.087 -3.826,3.105 -3.841,2.959 -3.841,2.959 -3.651,2.635 -2.968,2.27 -2.509,2.252 -2.838,2.254 -2.833,2.174 -2.833,2.174 -2.523,1.737 -2.086,1.565 -1.617,1.515 -1.148,1.465 -1.123,1.451 -0.958,1.382 -1.238,1.379 -1.555,1.302 -1.632,1.257 -1.416,1.03 -1.244,0.841 -0.369,0.738 -0.715,0.739 -0.803,0.677 -0.803,0.677 -0.647,0.483 -0.535,0.125 0.277,0.071 0.123,0.062 0.093,0.059 0,0"
       style="fill:#ffe200;fill-opacity:1;fill-rule:nonzero;stroke:#000000;stroke-width:0.08;stroke-linecap:butt;stroke-linejoin:miter;stroke-miterlimit:10;stroke-dasharray:none;stroke-opacity:1"
       transform="matrix(2.4137054,0,0,-2.4137054,180.00166,50.015287)"
       clip-path="url(#clipPath6489)" />
    <path
       id="path6490"
       d="M 0,0 C -0.014,-0.282 -0.005,-0.667 0.291,-1.258"
       style="fill:#ffe200;fill-opacity:1;fill-rule:nonzero;stroke:#000000;stroke-width:0.08;stroke-linecap:butt;stroke-linejoin:miter;stroke-miterlimit:10;stroke-dasharray:none;stroke-opacity:1"
       transform="matrix(2.4137054,0,0,-2.4137054,184.88843,48.242662)"
       clip-path="url(#clipPath6491)" />
    <path
       id="path6492"
       d="M 0,0 C 0.009,-0.256 0.175,-1.073 0.463,-1.423"
       style="fill:#ffe200;fill-opacity:1;fill-rule:nonzero;stroke:#000000;stroke-width:0.08;stroke-linecap:butt;stroke-linejoin:miter;stroke-miterlimit:10;stroke-dasharray:none;stroke-opacity:1"
       transform="matrix(2.4137054,0,0,-2.4137054,183.05306,46.579618)"
       clip-path="url(#clipPath6493)" />
    <path
       id="path6494"
       d="M 0,0 C 0.28,0.01 0.97,-0.118 1.091,-0.239"
       style="fill:#ffe200;fill-opacity:1;fill-rule:nonzero;stroke:#000000;stroke-width:0.08;stroke-linecap:butt;stroke-linejoin:miter;stroke-miterlimit:10;stroke-dasharray:none;stroke-opacity:1"
       transform="matrix(2.4137054,0,0,-2.4137054,180.67095,49.845127)"
       clip-path="url(#clipPath6495)" />
    <path
       id="path6496"
       d="M 0,0 C 0.519,-0.07 0.999,-0.288 0.999,-0.288"
       style="fill:#ffe200;fill-opacity:1;fill-rule:nonzero;stroke:#000000;stroke-width:0.08;stroke-linecap:butt;stroke-linejoin:miter;stroke-miterlimit:10;stroke-dasharray:none;stroke-opacity:1"
       transform="matrix(2.4137054,0,0,-2.4137054,179.11002,48.234698)"
       clip-path="url(#clipPath6497)" />
    <path
       id="path6498"
       d="M 0,0 C -0.194,0.26 -0.356,0.523 -0.376,0.955"
       style="fill:#ffe200;fill-opacity:1;fill-rule:nonzero;stroke:#000000;stroke-width:0.08;stroke-linecap:butt;stroke-linejoin:miter;stroke-miterlimit:10;stroke-dasharray:none;stroke-opacity:1"
       transform="matrix(2.4137054,0,0,-2.4137054,181.87494,47.82051)"
       clip-path="url(#clipPath6499)" />
    <path
       id="path6500"
       d="M 0,0 C -0.224,0.231 -0.488,0.553 -0.54,0.886"
       style="fill:#ffe200;fill-opacity:1;fill-rule:nonzero;stroke:#000000;stroke-width:0.08;stroke-linecap:butt;stroke-linejoin:miter;stroke-miterlimit:10;stroke-dasharray:none;stroke-opacity:1"
       transform="matrix(2.4137054,0,0,-2.4137054,180.00166,45.862508)"
       clip-path="url(#clipPath6501)" />
    <path
       id="path6502"
       d="M 0,0 C -0.206,0.147 -0.356,0.294 -0.416,0.399"
       style="fill:#ffe200;fill-opacity:1;fill-rule:nonzero;stroke:#000000;stroke-width:0.08;stroke-linecap:butt;stroke-linejoin:miter;stroke-miterlimit:10;stroke-dasharray:none;stroke-opacity:1"
       transform="matrix(2.4137054,0,0,-2.4137054,177.79717,44.327396)"
       clip-path="url(#clipPath6503)" />
    <path
       id="path6504"
       d="M 0,0 C -0.317,0.18 -0.649,0.584 -0.764,0.986"
       style="fill:#ffe200;fill-opacity:1;fill-rule:nonzero;stroke:#000000;stroke-width:0.08;stroke-linecap:butt;stroke-linejoin:miter;stroke-miterlimit:10;stroke-dasharray:none;stroke-opacity:1"
       transform="matrix(2.4137054,0,0,-2.4137054,175.28021,42.747619)"
       clip-path="url(#clipPath6505)" />
    <path
       id="path6506"
       d="M 0,0 C -0.2,0.107 -0.571,0.312 -0.749,1.033"
       style="fill:#ffe200;fill-opacity:1;fill-rule:nonzero;stroke:#000000;stroke-width:0.08;stroke-linecap:butt;stroke-linejoin:miter;stroke-miterlimit:10;stroke-dasharray:none;stroke-opacity:1"
       transform="matrix(2.4137054,0,0,-2.4137054,172.83631,41.260524)"
       clip-path="url(#clipPath6507)" />
    <path
       id="path6508"
       d="M 0,0 C 0.144,-0.119 0.599,-0.298 0.902,-0.279"
       style="fill:#ffe200;fill-opacity:1;fill-rule:nonzero;stroke:#000000;stroke-width:0.08;stroke-linecap:butt;stroke-linejoin:miter;stroke-miterlimit:10;stroke-dasharray:none;stroke-opacity:1"
       transform="matrix(2.4137054,0,0,-2.4137054,166.69753,38.716723)"
       clip-path="url(#clipPath6509)" />
    <path
       id="path6510"
       d="M 0,0 C 0.335,0.03 0.989,-0.095 1.205,-0.415"
       style="fill:#ffe200;fill-opacity:1;fill-rule:nonzero;stroke:#000000;stroke-width:0.08;stroke-linecap:butt;stroke-linejoin:miter;stroke-miterlimit:10;stroke-dasharray:none;stroke-opacity:1"
       transform="matrix(2.4137054,0,0,-2.4137054,169.13541,40.708518)"
       clip-path="url(#clipPath6511)" />
    <path
       id="path6512"
       d="M 0,0 C 0.29,-0.013 0.903,-0.173 1.185,-0.428"
       style="fill:#ffe200;fill-opacity:1;fill-rule:nonzero;stroke:#000000;stroke-width:0.08;stroke-linecap:butt;stroke-linejoin:miter;stroke-miterlimit:10;stroke-dasharray:none;stroke-opacity:1"
       transform="matrix(2.4137054,0,0,-2.4137054,171.87494,42.564903)"
       clip-path="url(#clipPath6513)" />
    <path
       id="path6514"
       d="M 0,0 C 0.394,-0.006 1.09,-0.153 1.437,-0.444"
       style="fill:#ffe200;fill-opacity:1;fill-rule:nonzero;stroke:#000000;stroke-width:0.08;stroke-linecap:butt;stroke-linejoin:miter;stroke-miterlimit:10;stroke-dasharray:none;stroke-opacity:1"
       transform="matrix(2.4137054,0,0,-2.4137054,173.94615,44.580577)"
       clip-path="url(#clipPath6515)" />
    <path
       id="path6516"
       d="M 0,0 C 0.195,-0.035 0.618,-0.232 0.618,-0.232"
       style="fill:#ffe200;fill-opacity:1;fill-rule:nonzero;stroke:#000000;stroke-width:0.08;stroke-linecap:butt;stroke-linejoin:miter;stroke-miterlimit:10;stroke-dasharray:none;stroke-opacity:1"
       transform="matrix(2.4137054,0,0,-2.4137054,177.68982,46.680756)"
       clip-path="url(#clipPath6517)" />
    <path
       id="path6518"
       d="m 0,0 h -0.719 v -0.031 c 0,-0.097 0.036,-0.168 0.106,-0.211 0.07,-0.044 0.174,-0.072 0.311,-0.084 v -0.043 h -0.924 v 0.043 c 0.1,0.009 0.183,0.028 0.247,0.057 0.064,0.029 0.108,0.063 0.13,0.101 0.022,0.039 0.033,0.095 0.033,0.168 h -0.497 c -0.098,0 -0.157,-0.004 -0.179,-0.011 -0.021,-0.007 -0.039,-0.02 -0.053,-0.04 -0.014,-0.02 -0.021,-0.051 -0.021,-0.095 v -0.092 c 0,-0.143 0.038,-0.258 0.115,-0.345 0.076,-0.086 0.192,-0.148 0.348,-0.186 v -0.042 l -0.561,0.069 v 1.327 h 0.049 v -0.05 c 0,-0.045 0.009,-0.081 0.027,-0.108 0.012,-0.02 0.033,-0.035 0.062,-0.045 0.021,-0.009 0.076,-0.013 0.164,-0.013 H -0.2 c 0.079,0 0.128,0.002 0.147,0.006 0.03,0.007 0.053,0.021 0.07,0.042 0.024,0.028 0.036,0.068 0.036,0.118 v 0.05 H 0.102 V -0.7 H -0.42 v 0.043 c 0.127,0.022 0.219,0.053 0.274,0.092 0.056,0.04 0.097,0.096 0.123,0.169 C -0.008,-0.354 0,-0.275 0,-0.159 Z"
       style="fill:#000000;fill-opacity:1;fill-rule:nonzero;stroke:none"
       transform="matrix(2.4137054,0,0,-2.4137054,140.91626,62.714272)"
       clip-path="url(#clipPath6519)" />
    <path
       id="path6520"
       d="m 0,0 h -0.725 v -0.044 c 0,-0.068 0.012,-0.124 0.035,-0.167 0.024,-0.043 0.063,-0.079 0.119,-0.109 0.055,-0.03 0.13,-0.049 0.225,-0.058 v -0.04 h -0.887 v 0.04 c 0.168,0.014 0.278,0.053 0.332,0.117 0.053,0.064 0.08,0.136 0.08,0.217 V 0 h -0.541 c -0.09,0 -0.146,-0.004 -0.169,-0.013 -0.022,-0.009 -0.042,-0.026 -0.059,-0.051 -0.017,-0.025 -0.025,-0.059 -0.025,-0.102 v -0.051 h -0.049 v 0.802 h 0.049 V 0.534 c 0,-0.044 0.009,-0.08 0.027,-0.107 0.012,-0.02 0.033,-0.035 0.062,-0.045 0.021,-0.009 0.076,-0.013 0.164,-0.013 H -0.2 c 0.09,0 0.146,0.004 0.169,0.013 0.022,0.008 0.042,0.025 0.059,0.05 0.017,0.025 0.025,0.06 0.025,0.102 V 0.585 H 0.102 V -0.71 h -0.507 v 0.046 c 0.119,0.011 0.207,0.038 0.264,0.081 0.058,0.044 0.098,0.107 0.121,0.189 0.013,0.045 0.02,0.129 0.02,0.251 z"
       style="fill:#000000;fill-opacity:1;fill-rule:nonzero;stroke:none"
       transform="matrix(2.4137054,0,0,-2.4137054,141.53587,58.622551)"
       clip-path="url(#clipPath6521)" />
    <path
       id="path6522"
       d="M 0,0 H -1.377 C -1.45,0 -1.495,-0.003 -1.511,-0.009 -1.528,-0.015 -1.54,-0.025 -1.549,-0.04 c -0.013,-0.02 -0.019,-0.049 -0.019,-0.088 0,-0.126 0.049,-0.222 0.148,-0.289 0.134,-0.09 0.341,-0.136 0.622,-0.136 0.227,0 0.407,0.031 0.543,0.093 0.106,0.049 0.178,0.112 0.216,0.189 C -0.012,-0.216 0.001,-0.126 0,0 m -1.665,0.585 h 0.048 v -0.05 c 0,-0.045 0.008,-0.079 0.024,-0.103 0.016,-0.024 0.038,-0.041 0.066,-0.053 0.018,-0.006 0.073,-0.01 0.164,-0.01 h 1.161 c 0.09,0 0.147,0.004 0.169,0.013 0.023,0.008 0.043,0.025 0.06,0.05 0.017,0.025 0.025,0.06 0.025,0.103 v 0.05 H 0.1 v -0.687 c 0,-0.183 -0.028,-0.331 -0.086,-0.443 -0.07,-0.136 -0.176,-0.24 -0.319,-0.311 -0.142,-0.07 -0.303,-0.105 -0.483,-0.105 -0.124,0 -0.238,0.017 -0.342,0.052 -0.105,0.034 -0.191,0.079 -0.26,0.134 -0.068,0.056 -0.122,0.119 -0.164,0.191 -0.041,0.072 -0.073,0.16 -0.095,0.265 -0.011,0.046 -0.016,0.118 -0.016,0.217 z"
       style="fill:#000000;fill-opacity:1;fill-rule:nonzero;stroke:none"
       transform="matrix(2.4137054,0,0,-2.4137054,140.71305,67.013319)"
       clip-path="url(#clipPath6523)" />
    <path
       id="path6524"
       d="m 0,0 h -0.719 v -0.031 c 0,-0.097 0.036,-0.168 0.106,-0.211 0.07,-0.044 0.174,-0.072 0.311,-0.084 v -0.043 h -0.924 v 0.043 c 0.1,0.009 0.183,0.028 0.247,0.057 0.064,0.029 0.108,0.063 0.13,0.101 0.022,0.039 0.033,0.095 0.033,0.168 h -0.497 c -0.098,0 -0.157,-0.004 -0.179,-0.011 -0.021,-0.007 -0.039,-0.02 -0.053,-0.04 -0.014,-0.02 -0.021,-0.051 -0.021,-0.095 v -0.092 c 0,-0.143 0.038,-0.258 0.115,-0.345 0.076,-0.086 0.192,-0.148 0.348,-0.186 v -0.042 l -0.561,0.069 v 1.327 h 0.049 v -0.05 c 0,-0.045 0.009,-0.081 0.027,-0.108 0.012,-0.02 0.033,-0.035 0.062,-0.045 0.021,-0.009 0.076,-0.013 0.164,-0.013 H -0.2 c 0.079,0 0.128,0.002 0.147,0.006 0.03,0.007 0.053,0.021 0.07,0.042 0.024,0.028 0.036,0.068 0.036,0.118 v 0.05 H 0.102 V -0.7 H -0.42 v 0.043 c 0.127,0.022 0.219,0.053 0.274,0.092 0.056,0.04 0.097,0.096 0.123,0.169 C -0.008,-0.354 0,-0.275 0,-0.159 Z"
       style="fill:#000000;fill-opacity:1;fill-rule:nonzero;stroke:none"
       transform="matrix(2.4137054,0,0,-2.4137054,141.07144,71.905418)"
       clip-path="url(#clipPath6525)" />
    <path
       id="path6526"
       d="m 0,0 h -0.773 v -0.065 c 0,-0.104 0.011,-0.183 0.033,-0.235 0.022,-0.052 0.062,-0.093 0.12,-0.123 0.057,-0.03 0.133,-0.045 0.226,-0.045 0.134,0 0.234,0.028 0.298,0.082 C -0.032,-0.331 0,-0.243 0,-0.121 Z M -0.866,0 H -1.36 C -1.456,0 -1.516,-0.005 -1.54,-0.015 -1.565,-0.026 -1.585,-0.043 -1.6,-0.069 -1.614,-0.095 -1.622,-0.143 -1.622,-0.213 H -1.67 v 0.786 h 0.048 c 0,-0.071 0.008,-0.119 0.023,-0.144 0.015,-0.026 0.035,-0.043 0.059,-0.054 0.024,-0.01 0.084,-0.015 0.18,-0.015 h 1.145 c 0.096,0 0.156,0.005 0.181,0.015 0.024,0.011 0.044,0.028 0.059,0.054 0.014,0.026 0.022,0.074 0.022,0.144 H 0.095 V -0.14 c 0,-0.186 -0.015,-0.322 -0.044,-0.408 -0.03,-0.086 -0.084,-0.156 -0.164,-0.211 -0.079,-0.054 -0.172,-0.081 -0.279,-0.081 -0.13,0 -0.238,0.04 -0.323,0.122 -0.053,0.052 -0.094,0.125 -0.121,0.219 l -0.597,-0.37 C -1.51,-0.917 -1.558,-0.951 -1.578,-0.972 -1.605,-1.003 -1.619,-1.039 -1.622,-1.079 H -1.67 v 0.483 l 0.804,0.495 z"
       style="fill:#000000;fill-opacity:1;fill-rule:nonzero;stroke:none"
       transform="matrix(2.4137054,0,0,-2.4137054,141.55154,76.133021)"
       clip-path="url(#clipPath6527)" />
    <path
       id="path6528"
       d="M 0,0 0.608,0.229 0,0.464 Z M -0.096,-0.038 V 0.504 L -0.268,0.569 C -0.325,0.59 -0.373,0.6 -0.41,0.6 -0.46,0.6 -0.496,0.583 -0.519,0.548 -0.533,0.528 -0.544,0.478 -0.551,0.398 h -0.048 v 0.51 h 0.048 c 0.01,-0.055 0.036,-0.1 0.079,-0.136 0.043,-0.035 0.132,-0.079 0.266,-0.131 L 1.203,0.092 V 0.07 L -0.245,-0.483 C -0.382,-0.536 -0.468,-0.58 -0.504,-0.614 -0.531,-0.639 -0.546,-0.676 -0.551,-0.722 h -0.048 v 0.743 h 0.048 V -0.01 c 0,-0.06 0.01,-0.102 0.029,-0.126 0.014,-0.016 0.034,-0.025 0.06,-0.025 0.016,0 0.032,0.002 0.048,0.007 0.008,0.002 0.04,0.013 0.098,0.034 z"
       style="fill:#000000;fill-opacity:1;fill-rule:nonzero;stroke:none"
       transform="matrix(2.4137054,0,0,-2.4137054,139.35293,81.735962)"
       clip-path="url(#clipPath6529)" />
    <path
       id="path6530"
       d="m 0,0 h -0.478 v 0.041 c 0.111,0.024 0.19,0.051 0.238,0.08 0.048,0.029 0.086,0.07 0.115,0.121 0.016,0.029 0.023,0.079 0.023,0.151 V 0.507 H -1.463 C -1.553,0.507 -1.61,0.503 -1.632,0.494 -1.655,0.485 -1.675,0.469 -1.691,0.443 -1.708,0.418 -1.717,0.383 -1.717,0.34 V 0.289 h -0.048 v 0.804 h 0.048 V 1.042 c 0,-0.045 0.009,-0.081 0.027,-0.108 0.013,-0.019 0.033,-0.035 0.063,-0.046 0.021,-0.009 0.075,-0.013 0.164,-0.013 h 1.361 v 0.111 c 0,0.104 -0.025,0.179 -0.075,0.226 -0.07,0.065 -0.171,0.107 -0.301,0.124 V 1.379 H 0 Z"
       style="fill:#000000;fill-opacity:1;fill-rule:nonzero;stroke:none"
       transform="matrix(2.4137054,0,0,-2.4137054,142.5554,87.34203)"
       clip-path="url(#clipPath6531)" />
    <path
       id="path6532"
       d="M 0,0 H -0.048 V 0.803 H 0 V 0.752 C 0,0.708 0.009,0.672 0.027,0.644 0.039,0.625 0.06,0.61 0.09,0.599 0.111,0.591 0.165,0.587 0.254,0.587 h 1.161 c 0.09,0 0.147,0.004 0.169,0.012 C 1.607,0.607 1.626,0.624 1.643,0.65 1.66,0.675 1.669,0.709 1.669,0.752 V 0.803 H 1.717 V 0 H 1.669 V 0.051 C 1.669,0.096 1.66,0.131 1.641,0.159 1.629,0.178 1.608,0.194 1.579,0.205 1.558,0.213 1.503,0.217 1.415,0.217 H 0.254 C 0.164,0.217 0.107,0.213 0.085,0.204 0.062,0.196 0.042,0.179 0.025,0.154 0.008,0.128 0,0.094 0,0.051 Z"
       style="fill:#000000;fill-opacity:1;fill-rule:nonzero;stroke:none"
       transform="matrix(2.4137054,0,0,-2.4137054,138.70506,90.2759)"
       clip-path="url(#clipPath6533)" />
    <path
       id="path6534"
       d="m 0,0 c 0,0.14 -0.082,0.247 -0.247,0.32 -0.136,0.06 -0.33,0.09 -0.583,0.09 -0.302,0 -0.524,-0.046 -0.668,-0.138 -0.101,-0.064 -0.151,-0.154 -0.151,-0.27 0,-0.077 0.022,-0.143 0.065,-0.195 0.055,-0.066 0.144,-0.118 0.266,-0.155 0.122,-0.037 0.281,-0.055 0.477,-0.055 0.234,0 0.408,0.019 0.524,0.057 0.116,0.037 0.198,0.085 0.245,0.144 C -0.024,-0.144 0,-0.076 0,0 m 0.083,0.014 c 0.011,-0.245 -0.071,-0.444 -0.246,-0.597 -0.174,-0.153 -0.392,-0.229 -0.654,-0.229 -0.224,0 -0.421,0.057 -0.591,0.171 -0.226,0.151 -0.339,0.364 -0.339,0.64 0,0.276 0.108,0.49 0.323,0.641 0.17,0.119 0.372,0.179 0.605,0.179 0.262,0 0.481,-0.078 0.656,-0.233 C 0.011,0.431 0.094,0.24 0.083,0.014"
       style="fill:#000000;fill-opacity:1;fill-rule:nonzero;stroke:none"
       transform="matrix(2.4137054,0,0,-2.4137054,142.9404,93.047072)"
       clip-path="url(#clipPath6535)" />
    <path
       id="path6536"
       d="m 0,0 -1.095,-0.757 h 0.759 c 0.106,0 0.178,0.013 0.215,0.039 0.05,0.037 0.075,0.097 0.073,0.183 H 0 v -0.508 h -0.048 c -0.01,0.065 -0.022,0.109 -0.037,0.131 -0.015,0.022 -0.04,0.04 -0.074,0.052 -0.035,0.013 -0.094,0.019 -0.177,0.019 h -1.469 v 0.038 l 1.469,1.039 h -1.122 c -0.101,0 -0.17,-0.021 -0.206,-0.061 C -1.699,0.135 -1.717,0.089 -1.717,0.036 V 0 h -0.048 v 0.545 h 0.048 c 0.001,-0.085 0.021,-0.144 0.06,-0.177 0.039,-0.033 0.105,-0.049 0.199,-0.049 h 1.246 l 0.047,0.032 c 0.047,0.033 0.077,0.061 0.092,0.086 0.015,0.025 0.023,0.061 0.025,0.108 H 0 Z"
       style="fill:#000000;fill-opacity:1;fill-rule:nonzero;stroke:none"
       transform="matrix(2.4137054,0,0,-2.4137054,142.5554,97.049957)"
       clip-path="url(#clipPath6537)" />
    <path
       id="path6538"
       d="M 0,0 H 1.377 C 1.45,0 1.495,0.003 1.511,0.009 1.528,0.015 1.54,0.026 1.549,0.04 1.562,0.06 1.569,0.09 1.569,0.128 1.569,0.254 1.519,0.351 1.42,0.417 1.286,0.507 1.079,0.553 0.798,0.553 0.571,0.553 0.391,0.522 0.255,0.46 0.149,0.411 0.077,0.348 0.039,0.271 0.012,0.216 -0.001,0.126 0,0 M 1.665,-0.585 H 1.617 v 0.05 c 0,0.045 -0.008,0.079 -0.024,0.103 -0.016,0.024 -0.039,0.041 -0.066,0.053 -0.018,0.007 -0.073,0.01 -0.164,0.01 H 0.202 c -0.09,0 -0.147,-0.004 -0.169,-0.012 C 0.01,-0.39 -0.01,-0.407 -0.027,-0.432 -0.043,-0.457 -0.052,-0.491 -0.052,-0.535 v -0.05 H -0.1 v 0.687 c 0,0.184 0.028,0.331 0.086,0.443 0.07,0.137 0.176,0.24 0.319,0.311 0.142,0.07 0.303,0.106 0.482,0.106 0.124,0 0.239,-0.018 0.344,-0.052 C 1.235,0.875 1.321,0.83 1.389,0.775 1.458,0.72 1.512,0.656 1.553,0.584 1.595,0.512 1.627,0.424 1.649,0.32 1.66,0.273 1.665,0.201 1.665,0.102 Z"
       style="fill:#000000;fill-opacity:1;fill-rule:nonzero;stroke:none"
       transform="matrix(2.4137054,0,0,-2.4137054,190.13344,96.110536)"
       clip-path="url(#clipPath6539)" />
    <path
       id="path6540"
       d="M 0,0 H 0.719 V 0.03 C 0.719,0.128 0.683,0.198 0.613,0.242 0.543,0.286 0.439,0.314 0.302,0.326 V 0.369 H 1.226 V 0.326 C 1.125,0.317 1.043,0.298 0.979,0.269 0.915,0.24 0.871,0.206 0.849,0.167 0.827,0.129 0.816,0.073 0.816,0 H 1.313 C 1.411,0 1.47,0.003 1.492,0.01 1.513,0.018 1.531,0.031 1.545,0.051 1.559,0.07 1.566,0.102 1.566,0.146 V 0.238 C 1.566,0.381 1.528,0.496 1.451,0.583 1.375,0.669 1.259,0.731 1.103,0.769 V 0.811 L 1.664,0.741 V -0.586 H 1.615 v 0.051 c 0,0.045 -0.009,0.081 -0.027,0.108 -0.012,0.019 -0.033,0.034 -0.062,0.045 -0.021,0.008 -0.076,0.013 -0.164,0.013 H 0.2 C 0.121,-0.369 0.072,-0.371 0.053,-0.375 0.023,-0.383 0,-0.396 -0.017,-0.417 -0.041,-0.446 -0.053,-0.485 -0.053,-0.535 V -0.586 H -0.102 V 0.7 H 0.42 V 0.657 C 0.293,0.635 0.201,0.604 0.146,0.564 0.09,0.525 0.049,0.469 0.023,0.396 0.008,0.354 0,0.275 0,0.158 Z"
       style="fill:#000000;fill-opacity:1;fill-rule:nonzero;stroke:none"
       transform="matrix(2.4137054,0,0,-2.4137054,189.73633,92.238473)"
       clip-path="url(#clipPath6541)" />
    <path
       id="path6542"
       d="M 0,0 H 0.725 V 0.044 C 0.725,0.112 0.713,0.168 0.69,0.211 0.666,0.254 0.627,0.29 0.571,0.32 0.516,0.35 0.441,0.369 0.346,0.378 v 0.04 H 1.233 V 0.378 C 1.065,0.364 0.955,0.325 0.902,0.261 0.848,0.197 0.821,0.125 0.821,0.044 V 0 h 0.541 c 0.09,0 0.146,0.004 0.169,0.013 0.022,0.009 0.042,0.026 0.059,0.051 0.017,0.025 0.025,0.059 0.025,0.103 v 0.05 H 1.664 V -0.585 H 1.615 v 0.051 c 0,0.044 -0.009,0.08 -0.027,0.107 -0.012,0.02 -0.033,0.035 -0.062,0.045 -0.021,0.009 -0.076,0.013 -0.164,0.013 H 0.2 c -0.09,0 -0.146,-0.004 -0.169,-0.013 -0.022,-0.008 -0.042,-0.025 -0.059,-0.05 -0.017,-0.025 -0.025,-0.059 -0.025,-0.102 V -0.585 H -0.102 V 0.71 H 0.405 V 0.664 C 0.286,0.653 0.198,0.626 0.141,0.583 0.083,0.539 0.043,0.476 0.02,0.394 0.007,0.349 0,0.265 0,0.143 Z"
       style="fill:#000000;fill-opacity:1;fill-rule:nonzero;stroke:none"
       transform="matrix(2.4137054,0,0,-2.4137054,189.62945,87.25056)"
       clip-path="url(#clipPath6543)" />
    <path
       id="path6544"
       d="m 0,0 c 0,-0.14 0.082,-0.247 0.247,-0.32 0.136,-0.06 0.33,-0.09 0.583,-0.09 0.301,0 0.524,0.046 0.668,0.138 0.101,0.065 0.151,0.154 0.151,0.27 0,0.078 -0.021,0.142 -0.065,0.194 C 1.529,0.259 1.44,0.311 1.318,0.348 1.196,0.385 1.037,0.403 0.841,0.403 0.608,0.403 0.433,0.384 0.317,0.347 0.201,0.309 0.119,0.261 0.072,0.202 0.024,0.144 0,0.076 0,0 m -0.083,-0.014 c -0.011,0.245 0.071,0.444 0.246,0.597 0.174,0.152 0.393,0.229 0.654,0.229 0.224,0 0.421,-0.057 0.591,-0.171 0.226,-0.151 0.339,-0.364 0.339,-0.64 0,-0.276 -0.108,-0.49 -0.323,-0.641 -0.17,-0.119 -0.372,-0.179 -0.605,-0.179 -0.262,0 -0.481,0.078 -0.656,0.233 -0.174,0.155 -0.257,0.346 -0.246,0.572"
       style="fill:#000000;fill-opacity:1;fill-rule:nonzero;stroke:none"
       transform="matrix(2.4137054,0,0,-2.4137054,190.03347,82.857612)"
       clip-path="url(#clipPath6545)" />
    <path
       id="path6546"
       d="m 0,0 c 0,-0.14 0.082,-0.247 0.247,-0.32 0.136,-0.06 0.33,-0.09 0.583,-0.09 0.301,0 0.524,0.046 0.668,0.138 0.101,0.065 0.151,0.154 0.151,0.27 0,0.077 -0.021,0.142 -0.065,0.194 C 1.529,0.259 1.44,0.311 1.318,0.348 1.196,0.385 1.037,0.403 0.841,0.403 0.608,0.403 0.433,0.384 0.317,0.346 0.201,0.309 0.119,0.261 0.072,0.202 0.024,0.144 0,0.076 0,0 m -0.083,-0.014 c -0.011,0.245 0.071,0.444 0.246,0.597 0.174,0.153 0.393,0.229 0.654,0.229 0.224,0 0.421,-0.057 0.591,-0.171 0.226,-0.151 0.339,-0.364 0.339,-0.64 0,-0.276 -0.108,-0.49 -0.323,-0.641 -0.17,-0.119 -0.372,-0.179 -0.605,-0.179 -0.262,0 -0.481,0.078 -0.656,0.233 -0.174,0.155 -0.257,0.346 -0.246,0.572"
       style="fill:#000000;fill-opacity:1;fill-rule:nonzero;stroke:none"
       transform="matrix(2.4137054,0,0,-2.4137054,190.19426,78.519223)"
       clip-path="url(#clipPath6547)" />
    <path
       id="path6548"
       d="M 0,0 H 0.478 V -0.041 C 0.367,-0.065 0.288,-0.092 0.24,-0.121 0.192,-0.151 0.154,-0.191 0.125,-0.242 0.109,-0.271 0.102,-0.321 0.102,-0.393 v -0.114 h 1.361 c 0.09,0 0.147,0.004 0.169,0.013 0.023,0.008 0.043,0.025 0.059,0.051 0.018,0.025 0.026,0.06 0.026,0.103 v 0.051 H 1.765 V -1.093 H 1.717 v 0.051 c 0,0.045 -0.009,0.081 -0.027,0.108 -0.013,0.019 -0.034,0.035 -0.063,0.046 -0.021,0.008 -0.075,0.013 -0.164,0.013 H 0.102 v -0.111 c 0,-0.104 0.025,-0.179 0.075,-0.226 0.07,-0.065 0.171,-0.107 0.301,-0.124 V -1.379 H 0 Z"
       style="fill:#000000;fill-opacity:1;fill-rule:nonzero;stroke:none"
       transform="matrix(2.4137054,0,0,-2.4137054,190.68757,72.86221)"
       clip-path="url(#clipPath6549)" />
    <path
       id="path6550"
       d="m 0,0 h 0.566 l 0.065,-0.001 c 0.047,0 0.082,0.01 0.106,0.031 0.024,0.021 0.036,0.051 0.036,0.092 0,0.061 -0.015,0.116 -0.046,0.167 C 0.696,0.34 0.652,0.379 0.593,0.407 0.535,0.434 0.469,0.447 0.397,0.447 0.315,0.447 0.241,0.431 0.175,0.398 0.11,0.364 0.064,0.318 0.038,0.26 0.012,0.202 -0.001,0.115 0,0 m -0.102,0 c 0,0.107 -0.013,0.186 -0.041,0.237 -0.028,0.051 -0.067,0.09 -0.117,0.117 -0.051,0.028 -0.115,0.041 -0.193,0.041 -0.078,0 -0.142,-0.013 -0.192,-0.04 C -0.695,0.328 -0.733,0.29 -0.759,0.24 -0.785,0.19 -0.797,0.11 -0.797,0 Z m 0.036,0.412 C -0.027,0.558 0.02,0.66 0.076,0.719 0.154,0.804 0.257,0.846 0.383,0.846 0.515,0.846 0.625,0.799 0.712,0.707 0.817,0.593 0.869,0.427 0.869,0.209 v -0.78 H 0.821 c 0,0.071 -0.007,0.119 -0.023,0.145 -0.015,0.025 -0.034,0.043 -0.059,0.053 -0.024,0.01 -0.084,0.015 -0.179,0.015 h -1.146 c -0.095,0 -0.155,-0.005 -0.18,-0.015 C -0.791,-0.383 -0.81,-0.401 -0.825,-0.427 -0.84,-0.453 -0.847,-0.5 -0.847,-0.571 h -0.049 v 0.736 c 0,0.176 0.018,0.301 0.054,0.374 0.037,0.073 0.09,0.131 0.162,0.173 0.072,0.043 0.148,0.064 0.228,0.064 0.085,0 0.161,-0.027 0.227,-0.081 0.067,-0.053 0.12,-0.148 0.159,-0.283"
       style="fill:#000000;fill-opacity:1;fill-rule:nonzero;stroke:none"
       transform="matrix(2.4137054,0,0,-2.4137054,193.01009,70.952252)"
       clip-path="url(#clipPath6551)" />
    <path
       id="path6552"
       d="M 0,0 -0.608,-0.229 0,-0.464 Z M 0.096,0.038 V -0.504 L 0.268,-0.569 C 0.325,-0.59 0.373,-0.6 0.41,-0.6 c 0.049,0 0.086,0.017 0.109,0.052 0.014,0.02 0.025,0.07 0.031,0.15 h 0.049 v -0.51 H 0.55 c -0.009,0.055 -0.035,0.1 -0.078,0.136 -0.043,0.035 -0.132,0.079 -0.266,0.131 l -1.409,0.549 V -0.07 L 0.245,0.484 C 0.381,0.536 0.468,0.58 0.504,0.614 0.53,0.639 0.546,0.676 0.55,0.722 H 0.599 V -0.02 H 0.55 V 0.01 C 0.55,0.07 0.541,0.112 0.522,0.136 0.508,0.152 0.488,0.161 0.462,0.161 0.447,0.161 0.431,0.159 0.414,0.154 0.406,0.152 0.373,0.141 0.316,0.12 Z"
       style="fill:#000000;fill-opacity:1;fill-rule:nonzero;stroke:none"
       transform="matrix(2.4137054,0,0,-2.4137054,193.84159,66.38456)"
       clip-path="url(#clipPath6553)" />
    <path
       id="path6554"
       d="M 0,0 0.62,-0.058 V -1.421 H 0.571 v 0.051 c 0,0.044 -0.009,0.08 -0.027,0.107 -0.012,0.02 -0.033,0.035 -0.063,0.046 -0.02,0.008 -0.075,0.012 -0.164,0.012 h -1.161 c -0.09,0 -0.146,-0.004 -0.169,-0.012 -0.022,-0.009 -0.042,-0.025 -0.059,-0.051 -0.017,-0.025 -0.025,-0.059 -0.025,-0.102 v -0.051 h -0.049 v 0.819 h 0.049 v -0.067 c 0,-0.045 0.009,-0.081 0.027,-0.108 0.012,-0.019 0.033,-0.035 0.062,-0.046 0.021,-0.009 0.076,-0.013 0.164,-0.013 h 1.125 c 0.09,0 0.148,0.005 0.172,0.014 0.026,0.009 0.044,0.027 0.056,0.053 0.008,0.019 0.012,0.065 0.012,0.137 v 0.128 c 0,0.082 -0.017,0.15 -0.05,0.204 C 0.438,-0.246 0.386,-0.199 0.315,-0.159 0.244,-0.12 0.139,-0.082 0,-0.046 Z"
       style="fill:#000000;fill-opacity:1;fill-rule:nonzero;stroke:none"
       transform="matrix(2.4137054,0,0,-2.4137054,193.89565,60.782105)"
       clip-path="url(#clipPath6555)" />
    <path
       id="path6556"
       d="M 0,0 0.619,-0.058 V -1.421 H 0.572 v 0.051 c 0,0.044 -0.01,0.08 -0.028,0.107 -0.012,0.02 -0.033,0.035 -0.062,0.046 -0.021,0.008 -0.076,0.012 -0.164,0.012 h -1.161 c -0.091,0 -0.147,-0.004 -0.17,-0.012 -0.022,-0.009 -0.042,-0.025 -0.059,-0.051 -0.017,-0.025 -0.025,-0.059 -0.025,-0.102 v -0.051 h -0.048 v 0.819 h 0.048 v -0.067 c 0,-0.045 0.009,-0.081 0.027,-0.108 0.012,-0.019 0.033,-0.035 0.063,-0.046 0.02,-0.009 0.075,-0.013 0.164,-0.013 h 1.124 c 0.091,0 0.148,0.005 0.173,0.014 0.024,0.009 0.043,0.027 0.055,0.053 0.008,0.019 0.012,0.065 0.012,0.137 v 0.128 c 0,0.082 -0.017,0.15 -0.05,0.204 C 0.438,-0.246 0.386,-0.199 0.315,-0.159 0.244,-0.119 0.139,-0.082 0,-0.046 Z"
       style="fill:#000000;fill-opacity:1;fill-rule:nonzero;stroke:none"
       transform="matrix(2.4137054,0,0,-2.4137054,193.45249,56.61363)"
       clip-path="url(#clipPath6557)" />
    <path
       id="path6558"
       d="m 0,0 c -0.006,-0.008 -0.014,-0.015 -0.02,-0.023 l -0.665,0.006 -0.193,0.525 0.383,0.686 0.702,0.207 0.202,-0.327 C 0.407,1.056 0.408,1.037 0.406,1.019 0.362,0.651 0.222,0.299 0,0 m -2.367,-0.761 0.279,0.328 0.884,-0.133 0.14,-0.195 c -0.42,-0.134 -0.883,-0.134 -1.303,0 m -1.194,0.959 0.29,-0.133 0.15,-0.398 C -3.298,-0.179 -3.446,0 -3.561,0.198 M -3.846,1.443 -3.507,1.714 -3.14,1.28 -2.953,0.465 -3.247,0.142 -3.625,0.315 c -0.147,0.293 -0.229,0.62 -0.229,0.959 0,0.057 0.004,0.113 0.008,0.169 M -3.258,2.439 -3.525,1.802 -3.833,1.556 c 0.061,0.451 0.262,0.861 0.562,1.18 z m 1.27,0.955 c 0.003,0 0.007,0 0.01,0 L -1.844,3.027 -2.557,2.483 H -3.18 l -0.015,0.332 c 0.321,0.309 0.739,0.519 1.207,0.579 M -0.056,2.607 -0.482,2.8 -0.654,3.123 C -0.423,2.99 -0.222,2.814 -0.056,2.607 M -1.151,2.598 -1.125,1.801 -1.782,1.451 -2.487,1.764 v 0.672 l 0.693,0.529 z M -2.872,0.47 -3.054,1.265 -2.543,1.701 -1.822,1.381 -1.725,0.755 -2.336,0.23 Z m 1.681,-0.957 -0.897,0.135 -0.21,0.509 0.62,0.533 0.724,-0.207 0.201,-0.547 z M 0.267,2.065 0.198,1.482 -0.507,1.274 -1.045,1.803 -1.071,2.585 -0.563,2.749 0.051,2.471 C 0.123,2.364 0.188,2.253 0.24,2.135 0.25,2.112 0.257,2.088 0.267,2.065 M 0.313,2.167 C 0.114,2.62 -0.236,2.997 -0.673,3.231 -1.074,3.445 -1.543,3.53 -1.998,3.473 -3.101,3.333 -3.934,2.388 -3.934,1.274 c 0,-0.67 0.299,-1.297 0.818,-1.72 0.212,-0.172 0.45,-0.303 0.708,-0.387 0.222,-0.073 0.455,-0.11 0.692,-0.11 0.236,0 0.468,0.037 0.69,0.109 0.437,0.144 0.814,0.416 1.09,0.786 0.23,0.31 0.376,0.676 0.421,1.058 0.01,0.087 0.016,0.176 0.016,0.264 0,0.31 -0.063,0.611 -0.188,0.893"
       style="fill:#000000;fill-opacity:1;fill-rule:nonzero;stroke:none"
       transform="matrix(2.4137054,0,0,-2.4137054,170.54978,61.731651)"
       clip-path="url(#clipPath6559)" />
    <path
       id="path6560"
       d="m 0,0 c -3.04,0 -6.399,-2.036 -7.675,-2.941 0.134,0.545 0.833,1.81 1.378,2.252 -1.049,-0.205 -5.336,-0.586 -6.581,1.039 0.751,-0.114 1.903,-0.669 3.62,0.401 -1.574,0.349 -3.085,1.316 -3.434,2.221 0.23,-0.111 0.427,-0.241 0.635,-0.366 0.415,-0.25 0.874,-0.477 1.729,-0.477 0.315,0 0.586,0.042 0.819,0.109 0.336,0.098 0.607,0.231 0.788,0.4 0.784,0.733 3.298,3.017 8.721,3.017 3.737,0 6.276,-0.698 8.369,-2.12 0,0 0.538,-0.359 0.713,-0.425 C 9.257,3.043 10.169,2.618 11.814,3.426 11.393,2.956 10.273,1.652 10.273,1.652 11.056,1.614 12.51,1.789 13.072,2.264 12.516,0.786 10.613,0.161 8.313,0.02 8.119,-0.298 7.723,-0.738 7.458,-0.949 7.582,-1.249 8.146,-2.5 8.146,-2.5 5.51,-0.5 3.345,0 0,0"
       style="fill:#ffe200;fill-opacity:1;fill-rule:nonzero;stroke:none"
       transform="matrix(2.4137054,0,0,-2.4137054,167.11537,117.6642)"
       clip-path="url(#clipPath6561)" />
    <path
       id="path6562"
       d="m 0,0 c -3.04,0 -6.399,-2.036 -7.675,-2.941 0.134,0.545 0.833,1.81 1.378,2.252 -1.049,-0.205 -5.336,-0.586 -6.581,1.039 0.751,-0.114 1.903,-0.669 3.62,0.401 -1.574,0.349 -3.085,1.316 -3.434,2.221 0.23,-0.111 0.427,-0.241 0.635,-0.366 0.415,-0.25 0.874,-0.477 1.729,-0.477 0.315,0 0.586,0.042 0.819,0.109 0.336,0.098 0.607,0.231 0.788,0.4 0.784,0.733 3.298,3.017 8.721,3.017 3.737,0 6.276,-0.698 8.369,-2.12 0,0 0.538,-0.359 0.713,-0.425 C 9.257,3.043 10.169,2.618 11.814,3.426 11.393,2.956 10.273,1.652 10.273,1.652 11.056,1.614 12.51,1.789 13.072,2.264 12.516,0.786 10.613,0.161 8.313,0.02 8.119,-0.298 7.723,-0.738 7.458,-0.949 7.582,-1.249 8.146,-2.5 8.146,-2.5 5.51,-0.5 3.345,0 0,0 Z m -9.299,-0.771 c 3.506,2.776 7.722,3.527 9.299,3.527 4.206,0 6.811,-1.187 9.087,-2.668"
       style="fill:none;stroke:#000000;stroke-width:0.08;stroke-linecap:butt;stroke-linejoin:miter;stroke-miterlimit:10;stroke-dasharray:none;stroke-opacity:1"
       transform="matrix(2.4137054,0,0,-2.4137054,167.11537,117.6642)"
       clip-path="url(#clipPath6563)" />
    <path
       id="path6564"
       d="m 0,0 0.561,-0.783 c 0.03,-0.042 0.051,-0.066 0.063,-0.071 0.011,-0.006 0.025,-0.007 0.04,-0.004 0.023,0.005 0.05,0.019 0.082,0.042 0.104,0.075 0.164,0.16 0.179,0.256 0.021,0.13 -0.026,0.275 -0.141,0.435 C 0.692,0.004 0.592,0.088 0.486,0.128 0.402,0.16 0.32,0.163 0.241,0.139 0.185,0.122 0.104,0.075 0,0 m 0.192,-1.296 -0.019,0.028 0.042,0.03 c 0.037,0.026 0.062,0.051 0.075,0.075 0.014,0.023 0.019,0.046 0.017,0.069 -0.002,0.014 -0.021,0.047 -0.058,0.099 l -0.473,0.66 c -0.037,0.052 -0.064,0.081 -0.08,0.089 -0.016,0.008 -0.038,0.01 -0.066,0.004 -0.028,-0.005 -0.06,-0.021 -0.095,-0.046 l -0.043,-0.031 -0.019,0.028 0.571,0.409 C 0.196,0.227 0.33,0.299 0.447,0.332 0.589,0.374 0.718,0.375 0.835,0.336 0.951,0.297 1.046,0.227 1.12,0.124 1.17,0.054 1.202,-0.022 1.216,-0.102 1.23,-0.182 1.228,-0.258 1.21,-0.33 1.192,-0.401 1.161,-0.47 1.118,-0.537 1.075,-0.603 1.015,-0.673 0.938,-0.748 0.904,-0.782 0.846,-0.828 0.763,-0.887 Z"
       style="fill:#000000;fill-opacity:1;fill-rule:nonzero;stroke:none"
       transform="matrix(2.4137054,0,0,-2.4137054,146.70432,113.12837)"
       clip-path="url(#clipPath6565)" />
    <path
       id="path6566"
       d="M 0,0 -0.017,0.029 0.705,0.447 0.722,0.418 0.678,0.393 C 0.638,0.369 0.609,0.345 0.591,0.32 0.579,0.303 0.573,0.283 0.573,0.259 0.573,0.242 0.589,0.207 0.62,0.154 L 0.923,-0.37 C 0.982,-0.473 1.012,-0.554 1.013,-0.616 1.014,-0.678 0.991,-0.743 0.942,-0.813 0.894,-0.883 0.823,-0.945 0.73,-0.999 0.615,-1.065 0.509,-1.095 0.412,-1.088 0.314,-1.082 0.248,-1.05 0.215,-0.993 c -0.021,0.037 -0.024,0.075 -0.009,0.115 0.016,0.039 0.044,0.071 0.086,0.095 0.04,0.024 0.08,0.033 0.12,0.029 0.04,-0.005 0.068,-0.022 0.085,-0.052 0.009,-0.015 0.014,-0.029 0.016,-0.043 0,-0.006 -0.003,-0.026 -0.009,-0.058 -0.006,-0.032 -0.006,-0.052 -0.001,-0.061 0.008,-0.014 0.023,-0.02 0.047,-0.02 0.034,0 0.071,0.012 0.112,0.035 0.028,0.016 0.049,0.036 0.061,0.058 0.012,0.023 0.014,0.049 0.008,0.077 -0.007,0.029 -0.042,0.1 -0.107,0.211 L 0.293,-0.035 C 0.262,0.019 0.238,0.051 0.222,0.06 0.207,0.07 0.185,0.073 0.157,0.07 0.128,0.067 0.095,0.055 0.057,0.033 Z"
       style="fill:#000000;fill-opacity:1;fill-rule:nonzero;stroke:none"
       transform="matrix(2.4137054,0,0,-2.4137054,149.84507,110.92539)"
       clip-path="url(#clipPath6567)" />
    <path
       id="path6568"
       d="m 0,0 0.015,-0.03 -0.74,-0.356 -0.014,0.031 0.047,0.022 c 0.041,0.02 0.071,0.041 0.09,0.065 0.015,0.016 0.022,0.036 0.023,0.06 0.001,0.016 -0.011,0.053 -0.038,0.109 L -0.969,0.633 C -0.997,0.69 -1.018,0.724 -1.032,0.734 -1.047,0.745 -1.068,0.75 -1.097,0.749 -1.125,0.749 -1.159,0.739 -1.199,0.72 L -1.246,0.697 -1.26,0.728 -0.521,1.083 -0.506,1.053 -0.553,1.03 C -0.594,1.011 -0.624,0.989 -0.644,0.965 -0.658,0.949 -0.666,0.929 -0.668,0.906 -0.669,0.889 -0.656,0.852 -0.629,0.796 l 0.352,-0.732 c 0.027,-0.057 0.048,-0.091 0.063,-0.101 0.015,-0.01 0.036,-0.015 0.065,-0.015 0.028,0.001 0.062,0.01 0.102,0.03 z"
       style="fill:#000000;fill-opacity:1;fill-rule:nonzero;stroke:none"
       transform="matrix(2.4137054,0,0,-2.4137054,155.08276,111.35841)"
       clip-path="url(#clipPath6569)" />
    <path
       id="path6570"
       d="m 0,0 0.138,-0.372 0.014,-0.043 c 0.012,-0.03 0.03,-0.05 0.056,-0.058 0.026,-0.009 0.058,-0.006 0.097,0.009 0.058,0.021 0.108,0.051 0.149,0.089 0.041,0.039 0.068,0.082 0.08,0.13 0.011,0.048 0.009,0.096 -0.009,0.143 C 0.505,-0.048 0.471,-0.005 0.423,0.026 0.376,0.057 0.321,0.071 0.259,0.068 0.197,0.064 0.111,0.042 0,0 M -0.025,0.067 C 0.078,0.105 0.15,0.142 0.193,0.178 0.235,0.215 0.263,0.254 0.276,0.297 0.29,0.339 0.288,0.386 0.269,0.438 0.25,0.489 0.221,0.526 0.184,0.549 0.146,0.573 0.1,0.584 0.046,0.583 c -0.054,0 -0.134,-0.02 -0.24,-0.06 z M 0.379,0.19 C 0.528,0.216 0.638,0.221 0.707,0.206 0.808,0.184 0.873,0.131 0.904,0.049 0.936,-0.038 0.918,-0.127 0.85,-0.217 0.766,-0.326 0.62,-0.419 0.412,-0.496 l -0.748,-0.277 -0.011,0.032 c 0.068,0.024 0.112,0.047 0.132,0.066 0.021,0.019 0.033,0.038 0.037,0.058 0.004,0.019 -0.006,0.06 -0.029,0.123 l -0.278,0.752 c -0.023,0.062 -0.043,0.1 -0.059,0.113 -0.015,0.012 -0.037,0.019 -0.066,0.02 -0.028,0 -0.076,-0.012 -0.143,-0.037 l -0.012,0.031 0.706,0.262 C 0.109,0.709 0.233,0.741 0.312,0.744 0.391,0.746 0.46,0.731 0.517,0.699 0.575,0.667 0.614,0.625 0.634,0.572 0.654,0.516 0.647,0.457 0.612,0.394 0.577,0.331 0.499,0.263 0.379,0.19"
       style="fill:#000000;fill-opacity:1;fill-rule:nonzero;stroke:none"
       transform="matrix(2.4137054,0,0,-2.4137054,156.28237,109.37264)"
       clip-path="url(#clipPath6571)" />
    <path
       id="path6572"
       d="m 0,0 c -0.14,-0.032 -0.234,-0.112 -0.281,-0.241 -0.039,-0.106 -0.038,-0.246 0.001,-0.419 0.046,-0.205 0.127,-0.347 0.241,-0.424 0.079,-0.054 0.177,-0.068 0.292,-0.042 0.077,0.017 0.139,0.047 0.184,0.088 0.057,0.053 0.095,0.125 0.113,0.217 0.018,0.091 0.012,0.204 -0.018,0.338 C 0.496,-0.324 0.45,-0.209 0.394,-0.138 0.339,-0.068 0.278,-0.023 0.212,-0.003 0.147,0.016 0.076,0.017 0,0 M -0.027,0.054 C 0.216,0.116 0.426,0.105 0.606,0.021 0.785,-0.064 0.895,-0.196 0.936,-0.375 0.97,-0.528 0.944,-0.675 0.857,-0.817 0.741,-1.005 0.546,-1.13 0.271,-1.192 c -0.275,-0.063 -0.505,-0.037 -0.688,0.075 -0.146,0.09 -0.236,0.214 -0.272,0.373 -0.041,0.179 0.003,0.346 0.13,0.5 0.128,0.154 0.305,0.254 0.532,0.298"
       style="fill:#000000;fill-opacity:1;fill-rule:nonzero;stroke:none"
       transform="matrix(2.4137054,0,0,-2.4137054,160.58968,106.59422)"
       clip-path="url(#clipPath6573)" />
    <path
       id="path6574"
       d="M 0,0 0.807,0.067 0.81,0.033 0.77,0.03 C 0.709,0.025 0.668,0.016 0.646,0.004 0.624,-0.007 0.609,-0.022 0.601,-0.041 0.592,-0.059 0.591,-0.103 0.597,-0.174 l 0.05,-0.603 c 0.009,-0.11 0.026,-0.182 0.05,-0.216 0.024,-0.034 0.061,-0.061 0.111,-0.081 0.051,-0.019 0.113,-0.026 0.187,-0.02 0.084,0.007 0.155,0.028 0.212,0.063 0.057,0.035 0.099,0.08 0.124,0.135 0.025,0.055 0.032,0.148 0.021,0.279 L 1.311,-0.115 C 1.306,-0.06 1.296,-0.021 1.279,0.001 1.263,0.024 1.243,0.039 1.22,0.046 1.184,0.057 1.135,0.06 1.072,0.055 L 1.069,0.088 1.61,0.133 1.613,0.099 1.58,0.097 C 1.536,0.093 1.501,0.083 1.473,0.067 1.444,0.05 1.425,0.028 1.414,-0.001 1.406,-0.022 1.404,-0.057 1.408,-0.107 L 1.447,-0.574 C 1.458,-0.719 1.455,-0.825 1.436,-0.891 1.417,-0.957 1.363,-1.021 1.274,-1.083 1.184,-1.144 1.059,-1.181 0.896,-1.195 0.761,-1.206 0.655,-1.2 0.579,-1.178 0.475,-1.148 0.4,-1.104 0.353,-1.047 0.307,-0.99 0.279,-0.91 0.271,-0.808 l -0.05,0.603 c -0.006,0.071 -0.014,0.115 -0.026,0.131 -0.011,0.017 -0.03,0.029 -0.055,0.037 -0.025,0.008 -0.071,0.01 -0.137,0.003 z"
       style="fill:#000000;fill-opacity:1;fill-rule:nonzero;stroke:none"
       transform="matrix(2.4137054,0,0,-2.4137054,163.37485,105.92949)"
       clip-path="url(#clipPath6575)" />
    <path
       id="path6576"
       d="m 0,0 -0.015,-0.334 -0.041,0.002 c -0.022,0.078 -0.047,0.134 -0.075,0.17 -0.029,0.035 -0.069,0.063 -0.12,0.085 -0.029,0.013 -0.08,0.02 -0.153,0.023 l -0.117,0.006 -0.041,-0.953 c -0.003,-0.063 0,-0.102 0.008,-0.119 0.008,-0.016 0.025,-0.03 0.05,-0.043 0.026,-0.013 0.06,-0.021 0.105,-0.022 l 0.052,-0.003 -0.001,-0.033 -0.821,0.035 0.001,0.034 0.052,-0.003 c 0.046,-10e-4 0.083,0.003 0.111,0.015 0.02,0.007 0.037,0.021 0.049,0.041 0.009,0.015 0.015,0.053 0.018,0.115 l 0.041,0.952 -0.113,0.005 c -0.106,0.004 -0.183,-0.01 -0.233,-0.043 -0.069,-0.046 -0.114,-0.115 -0.136,-0.205 l -0.044,0.002 0.015,0.334 z"
       style="fill:#000000;fill-opacity:1;fill-rule:nonzero;stroke:none"
       transform="matrix(2.4137054,0,0,-2.4137054,171.46606,105.76415)"
       clip-path="url(#clipPath6577)" />
    <path
       id="path6578"
       d="m 0,0 -0.005,-0.033 -0.812,0.114 0.005,0.033 0.051,-0.007 c 0.045,-0.006 0.083,-0.005 0.112,0.004 0.021,0.005 0.038,0.018 0.052,0.036 0.01,0.014 0.02,0.051 0.028,0.112 l 0.114,0.805 c 0.009,0.063 0.01,0.103 0.004,0.119 C -0.458,1.2 -0.473,1.216 -0.497,1.232 -0.521,1.247 -0.554,1.258 -0.598,1.264 L -0.65,1.271 -0.645,1.304 0.168,1.19 0.163,1.157 0.111,1.164 C 0.066,1.17 0.029,1.169 0,1.16 -0.021,1.155 -0.039,1.143 -0.053,1.124 -0.064,1.111 -0.073,1.073 -0.082,1.012 L -0.195,0.207 C -0.204,0.144 -0.205,0.105 -0.199,0.088 -0.192,0.071 -0.177,0.055 -0.153,0.039 -0.129,0.024 -0.095,0.013 -0.052,0.007 Z"
       style="fill:#000000;fill-opacity:1;fill-rule:nonzero;stroke:none"
       transform="matrix(2.4137054,0,0,-2.4137054,173.77763,109.01373)"
       clip-path="url(#clipPath6579)" />
    <path
       id="path6580"
       d="m 0,0 -0.121,-0.488 0.031,-0.008 c 0.096,-0.024 0.172,-0.017 0.227,0.02 0.056,0.037 0.101,0.101 0.136,0.191 L 0.316,-0.296 0.16,-0.924 0.117,-0.913 c 0.008,0.07 0.003,0.131 -0.015,0.182 -0.018,0.051 -0.044,0.088 -0.079,0.113 -0.034,0.024 -0.088,0.045 -0.16,0.064 L -0.221,-0.893 C -0.237,-0.959 -0.244,-1 -0.24,-1.016 c 0.003,-0.017 0.014,-0.032 0.031,-0.046 0.017,-0.015 0.047,-0.027 0.091,-0.038 l 0.091,-0.022 c 0.142,-0.036 0.262,-0.038 0.361,-0.007 0.098,0.03 0.18,0.094 0.243,0.191 l 0.042,-0.01 -0.163,-0.364 -1.316,0.325 0.008,0.033 0.05,-0.012 c 0.044,-0.011 0.081,-0.014 0.112,-0.008 0.021,0.003 0.039,0.014 0.055,0.031 0.012,0.012 0.025,0.048 0.04,0.108 l 0.195,0.789 c 0.014,0.055 0.02,0.088 0.019,0.102 -0.002,0.022 -0.012,0.042 -0.03,0.058 -0.024,0.024 -0.061,0.041 -0.11,0.053 l -0.051,0.013 0.008,0.033 1.275,-0.316 -0.087,-0.354 -0.043,0.01 c 0,0.092 -0.016,0.162 -0.045,0.209 -0.03,0.048 -0.079,0.089 -0.147,0.125 -0.039,0.021 -0.116,0.046 -0.232,0.074 z"
       style="fill:#000000;fill-opacity:1;fill-rule:nonzero;stroke:none"
       transform="matrix(2.4137054,0,0,-2.4137054,176.23022,106.74364)"
       clip-path="url(#clipPath6581)" />
    <path
       id="path6582"
       d="m 0,0 0.436,-0.998 0.196,0.493 C 0.66,-0.436 0.666,-0.384 0.65,-0.35 0.629,-0.304 0.577,-0.265 0.496,-0.234 L 0.508,-0.202 0.99,-0.394 0.978,-0.426 C 0.914,-0.407 0.869,-0.399 0.844,-0.4 0.819,-0.402 0.796,-0.411 0.775,-0.429 0.754,-0.447 0.733,-0.482 0.712,-0.536 l -0.381,-0.956 -0.036,0.014 -0.606,1.349 -0.29,-0.73 c -0.026,-0.066 -0.025,-0.118 0.004,-0.156 0.029,-0.039 0.069,-0.068 0.118,-0.088 l 0.034,-0.013 -0.012,-0.032 -0.517,0.206 0.012,0.032 c 0.081,-0.032 0.142,-0.041 0.183,-0.028 0.042,0.012 0.075,0.049 0.099,0.111 l 0.323,0.81 -0.019,0.042 c -0.019,0.043 -0.038,0.074 -0.058,0.093 -0.02,0.019 -0.052,0.038 -0.096,0.057 l 0.013,0.031 z"
       style="fill:#000000;fill-opacity:1;fill-rule:nonzero;stroke:none"
       transform="matrix(2.4137054,0,0,-2.4137054,180.28499,107.7948)"
       clip-path="url(#clipPath6583)" />
    <path
       id="path6584"
       d="m 0,0 0.298,-1.048 0.261,0.463 c 0.036,0.064 0.049,0.115 0.038,0.151 -0.015,0.049 -0.06,0.094 -0.137,0.136 L 0.477,-0.269 0.928,-0.524 0.911,-0.553 C 0.851,-0.526 0.807,-0.512 0.782,-0.51 0.757,-0.508 0.733,-0.514 0.71,-0.529 0.688,-0.544 0.662,-0.576 0.633,-0.627 L 0.128,-1.523 0.093,-1.504 -0.325,-0.086 -0.711,-0.77 c -0.035,-0.062 -0.041,-0.114 -0.017,-0.156 0.024,-0.042 0.059,-0.076 0.105,-0.102 l 0.032,-0.019 -0.016,-0.029 -0.485,0.274 0.017,0.029 c 0.075,-0.042 0.134,-0.059 0.177,-0.052 0.043,0.007 0.081,0.039 0.113,0.096 l 0.429,0.759 -0.013,0.045 c -0.013,0.046 -0.028,0.079 -0.045,0.1 -0.017,0.022 -0.046,0.045 -0.087,0.069 l 0.016,0.03 z"
       style="fill:#000000;fill-opacity:1;fill-rule:nonzero;stroke:none"
       transform="matrix(2.4137054,0,0,-2.4137054,184.50876,109.72794)"
       clip-path="url(#clipPath6585)" />
    <path
       id="path6586"
       d="m 0,0 -0.289,-0.411 0.025,-0.018 c 0.082,-0.058 0.155,-0.079 0.22,-0.064 0.065,0.014 0.13,0.057 0.195,0.129 l 0.036,-0.026 -0.372,-0.529 -0.036,0.025 c 0.033,0.063 0.05,0.121 0.052,0.176 0.001,0.053 -0.01,0.098 -0.033,0.133 -0.023,0.035 -0.065,0.075 -0.127,0.118 l -0.2,-0.285 c -0.039,-0.055 -0.06,-0.092 -0.063,-0.109 -0.003,-0.016 0.002,-0.034 0.012,-0.054 0.011,-0.019 0.035,-0.041 0.072,-0.067 l 0.076,-0.054 c 0.12,-0.084 0.232,-0.13 0.334,-0.137 0.103,-0.008 0.202,0.023 0.297,0.09 l 0.035,-0.025 -0.284,-0.28 -1.109,0.78 0.019,0.027 0.043,-0.029 c 0.037,-0.027 0.071,-0.043 0.101,-0.048 0.021,-0.005 0.042,-0.002 0.063,0.009 0.015,0.007 0.041,0.036 0.076,0.087 l 0.468,0.664 c 0.032,0.046 0.05,0.075 0.054,0.088 0.006,0.022 0.004,0.043 -0.006,0.065 -0.015,0.031 -0.042,0.061 -0.084,0.09 l -0.043,0.03 0.02,0.028 1.074,-0.756 -0.21,-0.299 -0.036,0.025 c 0.033,0.086 0.044,0.156 0.033,0.212 -0.011,0.055 -0.041,0.111 -0.091,0.169 -0.029,0.033 -0.092,0.084 -0.189,0.153 z"
       style="fill:#000000;fill-opacity:1;fill-rule:nonzero;stroke:none"
       transform="matrix(2.4137054,0,0,-2.4137054,188.39338,112.34801)"
       clip-path="url(#clipPath6587)" />
    <path
       id="path6588"
       d="m 0,0 0.257,-0.395 0.035,0.023 c 0.054,0.035 0.093,0.07 0.119,0.105 0.026,0.034 0.04,0.075 0.044,0.12 0.004,0.046 -0.007,0.097 -0.034,0.153 L 0.452,0.026 0.767,-0.456 0.736,-0.477 C 0.665,-0.393 0.595,-0.353 0.526,-0.357 0.457,-0.36 0.39,-0.383 0.326,-0.424 L 0.292,-0.447 0.483,-0.741 c 0.032,-0.049 0.056,-0.078 0.071,-0.086 0.014,-0.008 0.035,-0.01 0.061,-0.006 0.026,0.004 0.056,0.017 0.09,0.039 l 0.04,0.026 0.017,-0.026 -0.633,-0.413 -0.017,0.027 0.04,0.025 c 0.035,0.023 0.06,0.047 0.075,0.071 0.011,0.017 0.016,0.036 0.013,0.057 0,0.016 -0.016,0.048 -0.048,0.096 l -0.412,0.632 c -0.032,0.049 -0.055,0.078 -0.07,0.086 -0.014,0.008 -0.035,0.01 -0.061,0.006 -0.026,-0.004 -0.055,-0.016 -0.089,-0.039 L -0.481,-0.272 -0.498,-0.246 0.524,0.42 0.704,0.145 0.667,0.121 C 0.617,0.18 0.564,0.214 0.509,0.223 0.455,0.232 0.391,0.222 0.318,0.192 0.277,0.176 0.209,0.136 0.113,0.073 Z"
       style="fill:#000000;fill-opacity:1;fill-rule:nonzero;stroke:none"
       transform="matrix(2.4137054,0,0,-2.4137054,153.35577,117.45566)"
       clip-path="url(#clipPath6589)" />
    <path
       id="path6590"
       d="m 0,0 c -0.119,-0.058 -0.185,-0.15 -0.2,-0.277 -0.012,-0.104 0.019,-0.23 0.091,-0.377 0.086,-0.176 0.189,-0.287 0.308,-0.333 0.083,-0.032 0.173,-0.024 0.271,0.024 0.066,0.032 0.114,0.072 0.146,0.118 0.04,0.06 0.059,0.133 0.055,0.22 -0.004,0.087 -0.033,0.187 -0.09,0.302 -0.066,0.136 -0.132,0.23 -0.197,0.282 C 0.319,0.011 0.254,0.039 0.191,0.042 0.128,0.046 0.064,0.032 0,0 M -0.035,0.043 C 0.168,0.151 0.36,0.185 0.539,0.147 0.718,0.108 0.845,0.013 0.92,-0.14 0.984,-0.271 0.992,-0.41 0.945,-0.556 0.882,-0.75 0.734,-0.905 0.501,-1.019 0.267,-1.133 0.056,-1.159 -0.133,-1.096 c -0.15,0.05 -0.258,0.143 -0.325,0.279 -0.075,0.153 -0.072,0.313 0.009,0.479 0.082,0.166 0.219,0.293 0.414,0.381"
       style="fill:#000000;fill-opacity:1;fill-rule:nonzero;stroke:none"
       transform="matrix(2.4137054,0,0,-2.4137054,156.70938,115.46991)"
       clip-path="url(#clipPath6591)" />
    <path
       id="path6592"
       d="M 0,0 0.904,-0.445 0.745,0.022 C 0.723,0.087 0.697,0.127 0.665,0.142 0.623,0.162 0.563,0.159 0.488,0.132 L 0.478,0.162 0.93,0.315 0.94,0.286 C 0.884,0.26 0.848,0.239 0.831,0.223 0.814,0.207 0.804,0.186 0.8,0.162 0.796,0.137 0.803,0.099 0.82,0.047 L 1.127,-0.858 1.092,-0.869 -0.14,-0.278 0.094,-0.969 c 0.021,-0.062 0.053,-0.098 0.097,-0.108 0.043,-0.01 0.088,-0.007 0.135,0.009 l 0.032,0.011 0.01,-0.03 -0.486,-0.164 -0.01,0.03 c 0.075,0.026 0.124,0.056 0.145,0.09 0.022,0.034 0.023,0.08 0.003,0.137 l -0.26,0.767 -0.039,0.019 c -0.038,0.019 -0.07,0.03 -0.096,0.031 -0.025,0.002 -0.059,-0.004 -0.101,-0.017 l -0.01,0.03 z"
       style="fill:#000000;fill-opacity:1;fill-rule:nonzero;stroke:none"
       transform="matrix(2.4137054,0,0,-2.4137054,159.81605,114.04461)"
       clip-path="url(#clipPath6593)" />
    <path
       id="path6594"
       d="m 0,0 0.16,-0.881 c 0.008,-0.046 0.016,-0.074 0.024,-0.084 0.007,-0.01 0.018,-0.016 0.033,-0.019 0.02,-0.005 0.048,-0.004 0.084,0.002 0.116,0.022 0.2,0.069 0.25,0.144 0.068,0.101 0.086,0.241 0.053,0.421 C 0.578,-0.272 0.529,-0.162 0.456,-0.086 0.398,-0.026 0.331,0.009 0.255,0.021 0.202,0.029 0.117,0.022 0,0 m -0.349,-1.163 -0.006,0.031 0.048,0.008 c 0.041,0.008 0.072,0.019 0.092,0.033 0.02,0.014 0.034,0.031 0.041,0.051 0.004,0.013 0.001,0.048 -0.01,0.106 l -0.135,0.743 c -0.01,0.057 -0.02,0.093 -0.031,0.106 -0.01,0.013 -0.028,0.023 -0.053,0.029 -0.026,0.007 -0.058,0.007 -0.098,-0.001 l -0.047,-0.008 -0.006,0.031 0.637,0.115 c 0.17,0.031 0.31,0.038 0.42,0.02 C 0.638,0.079 0.746,0.028 0.828,-0.051 0.91,-0.13 0.961,-0.227 0.982,-0.342 0.996,-0.421 0.994,-0.497 0.974,-0.57 0.953,-0.643 0.922,-0.706 0.879,-0.758 0.836,-0.811 0.783,-0.857 0.721,-0.895 0.659,-0.934 0.581,-0.969 0.487,-1.001 0.446,-1.015 0.379,-1.031 0.288,-1.047 Z"
       style="fill:#000000;fill-opacity:1;fill-rule:nonzero;stroke:none"
       transform="matrix(2.4137054,0,0,-2.4137054,163.71469,113.10592)"
       clip-path="url(#clipPath6595)" />
    <path
       id="path6596"
       d="m 0,0 0.006,-0.467 h 0.029 c 0.091,0.002 0.157,0.025 0.198,0.071 0.041,0.047 0.066,0.114 0.077,0.204 h 0.04 l 0.007,-0.601 h -0.04 c -0.01,0.065 -0.028,0.118 -0.056,0.16 -0.028,0.041 -0.06,0.069 -0.096,0.083 -0.037,0.014 -0.089,0.02 -0.158,0.02 L 0.01,-0.854 C 0.011,-0.917 0.015,-0.955 0.022,-0.97 0.029,-0.983 0.042,-0.995 0.06,-1.004 0.079,-1.012 0.109,-1.017 0.15,-1.016 l 0.086,0.001 c 0.135,0.002 0.243,0.028 0.324,0.078 0.081,0.051 0.138,0.127 0.173,0.229 h 0.039 l -0.06,-0.365 -1.25,-0.015 v 0.031 l 0.048,10e-4 c 0.042,0.001 0.075,0.007 0.101,0.019 0.018,0.008 0.032,0.022 0.042,0.041 0.008,0.014 0.011,0.049 0.01,0.107 l -0.009,0.754 c 0,0.052 -0.003,0.084 -0.006,0.096 -0.008,0.02 -0.021,0.035 -0.04,0.045 -0.028,0.016 -0.065,0.023 -0.112,0.023 L -0.551,0.028 -0.552,0.059 0.658,0.074 0.662,-0.265 0.622,-0.266 C 0.6,-0.183 0.57,-0.124 0.533,-0.088 0.495,-0.053 0.442,-0.027 0.373,-0.011 0.333,-0.001 0.259,0.003 0.149,0.002 Z"
       style="fill:#000000;fill-opacity:1;fill-rule:nonzero;stroke:none"
       transform="matrix(2.4137054,0,0,-2.4137054,167.65719,112.66326)"
       clip-path="url(#clipPath6597)" />
    <path
       id="path6598"
       d="m 0,0 -0.059,-0.463 0.029,-0.004 c 0.091,-0.012 0.16,0.003 0.206,0.043 0.047,0.04 0.081,0.104 0.104,0.191 l 0.04,-0.005 -0.076,-0.596 -0.04,0.005 c 0,0.066 -0.011,0.121 -0.033,0.166 -0.022,0.045 -0.05,0.077 -0.084,0.096 -0.034,0.018 -0.085,0.032 -0.154,0.041 l -0.04,-0.321 c -0.008,-0.063 -0.01,-0.101 -0.005,-0.116 0.005,-0.015 0.016,-0.028 0.033,-0.039 0.018,-0.012 0.046,-0.02 0.088,-0.025 l 0.085,-0.011 c 0.134,-0.017 0.245,-0.006 0.332,0.033 0.087,0.039 0.154,0.107 0.202,0.203 l 0.039,-0.005 -0.11,-0.353 -1.24,0.157 0.004,0.031 0.048,-0.006 c 0.041,-0.006 0.076,-0.004 0.103,0.004 0.019,0.006 0.035,0.018 0.047,0.035 0.009,0.013 0.018,0.048 0.025,0.105 l 0.095,0.748 c 0.006,0.052 0.008,0.084 0.006,0.096 -0.004,0.02 -0.015,0.037 -0.033,0.05 -0.025,0.019 -0.061,0.032 -0.107,0.038 l -0.048,0.006 0.004,0.031 1.201,-0.152 -0.043,-0.337 -0.04,0.005 c -0.01,0.085 -0.031,0.148 -0.064,0.188 -0.032,0.041 -0.081,0.074 -0.147,0.099 -0.038,0.015 -0.112,0.029 -0.22,0.043 z"
       style="fill:#000000;fill-opacity:1;fill-rule:nonzero;stroke:none"
       transform="matrix(2.4137054,0,0,-2.4137054,171.24904,112.8433)"
       clip-path="url(#clipPath6599)" />
    <path
       id="path6600"
       d="m 0,0 c 0.049,-0.01 0.087,-0.032 0.115,-0.067 0.028,-0.034 0.038,-0.07 0.03,-0.108 -0.008,-0.038 -0.032,-0.067 -0.071,-0.086 -0.04,-0.02 -0.084,-0.025 -0.132,-0.015 -0.048,0.01 -0.086,0.032 -0.114,0.066 -0.028,0.034 -0.038,0.07 -0.03,0.108 0.008,0.038 0.031,0.067 0.071,0.087 C -0.092,0.005 -0.048,0.01 0,0"
       style="fill:#000000;fill-opacity:1;fill-rule:nonzero;stroke:none"
       transform="matrix(2.4137054,0,0,-2.4137054,173.52325,115.21961)"
       clip-path="url(#clipPath6601)" />
    <path
       id="path6602"
       d="m 0,0 -0.285,-0.894 c -0.021,-0.067 -0.031,-0.111 -0.029,-0.132 0.001,-0.021 0.012,-0.041 0.032,-0.061 0.02,-0.019 0.056,-0.037 0.108,-0.053 l 0.031,-0.011 -0.009,-0.029 -0.725,0.231 0.009,0.029 0.037,-0.011 c 0.059,-0.019 0.102,-0.027 0.131,-0.024 0.028,0.003 0.05,0.012 0.065,0.028 0.015,0.016 0.033,0.058 0.055,0.127 l 0.18,0.567 c 0.016,0.051 0.023,0.083 0.021,0.098 -0.002,0.014 -0.01,0.029 -0.023,0.043 -0.014,0.014 -0.032,0.024 -0.054,0.031 -0.034,0.011 -0.079,0.016 -0.134,0.014 l -0.009,0.035 0.566,0.023 z"
       style="fill:#000000;fill-opacity:1;fill-rule:nonzero;stroke:none"
       transform="matrix(2.4137054,0,0,-2.4137054,177.38761,113.99128)"
       clip-path="url(#clipPath6603)" />
    <path
       id="path6604"
       d="M 0,0 C 0.03,0.056 0.055,0.106 0.073,0.15 0.112,0.245 0.135,0.339 0.141,0.432 0.144,0.484 0.134,0.527 0.112,0.561 0.1,0.58 0.082,0.594 0.055,0.605 0.022,0.618 -0.008,0.618 -0.035,0.603 -0.074,0.582 -0.111,0.529 -0.146,0.443 -0.206,0.298 -0.225,0.19 -0.204,0.117 -0.191,0.07 -0.16,0.037 -0.112,0.017 -0.086,0.006 -0.049,0.001 0,0 m -0.778,-0.282 0.009,0.022 c 0.117,-0.025 0.222,-0.034 0.314,-0.027 0.092,0.008 0.171,0.031 0.239,0.069 0.068,0.039 0.126,0.091 0.174,0.158 -0.048,0 -0.087,0.003 -0.118,0.008 -0.032,0.006 -0.063,0.015 -0.095,0.028 -0.101,0.041 -0.173,0.105 -0.216,0.191 -0.044,0.085 -0.045,0.178 -0.004,0.279 0.029,0.07 0.074,0.126 0.134,0.17 0.061,0.043 0.131,0.066 0.212,0.071 C -0.048,0.691 0.029,0.678 0.102,0.648 0.18,0.616 0.247,0.568 0.302,0.503 0.357,0.439 0.391,0.365 0.405,0.281 0.419,0.196 0.408,0.111 0.372,0.025 0.326,-0.087 0.249,-0.18 0.139,-0.254 0.03,-0.329 -0.104,-0.369 -0.263,-0.376 c -0.159,-0.007 -0.331,0.024 -0.515,0.094"
       style="fill:#000000;fill-opacity:1;fill-rule:nonzero;stroke:none"
       transform="matrix(2.4137054,0,0,-2.4137054,179.17474,116.31157)"
       clip-path="url(#clipPath6605)" />
    <path
       id="path6606"
       d="M 0,0 0.782,0.663 0.516,0.799 C 0.412,0.853 0.328,0.882 0.264,0.888 0.22,0.892 0.175,0.879 0.129,0.85 L 0.093,0.868 0.349,1.137 1.115,0.744 0.149,-0.076 Z"
       style="fill:#000000;fill-opacity:1;fill-rule:nonzero;stroke:none"
       transform="matrix(2.4137054,0,0,-2.4137054,180.20268,118.26111)"
       clip-path="url(#clipPath6607)" />
    <path
       id="path6608"
       d="M 0,0 C 0.04,0.049 0.072,0.094 0.098,0.135 0.153,0.222 0.191,0.311 0.213,0.402 0.225,0.452 0.223,0.496 0.207,0.534 0.199,0.553 0.183,0.571 0.158,0.586 0.128,0.605 0.098,0.61 0.069,0.6 0.027,0.586 -0.018,0.54 -0.068,0.461 -0.152,0.329 -0.189,0.226 -0.181,0.15 -0.176,0.102 -0.151,0.063 -0.107,0.036 -0.084,0.021 -0.048,0.009 0,0 m -0.815,-0.144 0.013,0.02 c 0.111,-0.045 0.213,-0.072 0.304,-0.08 0.092,-0.009 0.174,0 0.248,0.026 0.073,0.027 0.139,0.069 0.198,0.127 -0.046,0.008 -0.085,0.017 -0.115,0.028 -0.03,0.01 -0.059,0.025 -0.088,0.043 -0.092,0.058 -0.153,0.133 -0.181,0.225 -0.028,0.092 -0.013,0.184 0.045,0.276 0.04,0.064 0.094,0.112 0.161,0.144 0.067,0.032 0.14,0.043 0.221,0.033 C 0.071,0.689 0.145,0.663 0.212,0.621 0.283,0.576 0.341,0.517 0.384,0.444 0.427,0.371 0.448,0.292 0.447,0.207 0.446,0.122 0.421,0.039 0.371,-0.039 0.307,-0.141 0.214,-0.22 0.093,-0.274 c -0.12,-0.055 -0.259,-0.072 -0.417,-0.052 -0.158,0.021 -0.321,0.082 -0.491,0.182"
       style="fill:#000000;fill-opacity:1;fill-rule:nonzero;stroke:none"
       transform="matrix(2.4137054,0,0,-2.4137054,183.592,118.6461)"
       clip-path="url(#clipPath6609)" />
  </g>
</svg>
