<?xml version="1.0" encoding="UTF-8"?>
<svg id="Calque_2" data-name="Calque 2" xmlns="http://www.w3.org/2000/svg" viewBox="0 0 658.36 845.14">
  <defs>
    <style>
      .cls-1 {
        fill: #1e2a52;
      }

      .cls-2 {
        fill: #fff;
      }

      .cls-3 {
        fill: #213778;
      }

      .cls-4 {
        fill: #b4172c;
      }
    </style>
  </defs>
  <g id="Calque_1-2" data-name="Calque 1">
    <g>
      <path class="cls-1" d="M329.18,845.14c-11.84,0-23.46-3.23-33.59-9.35l-238.92-144.23c-18.54-11.19-30.25-30.79-31.33-52.44L.08,126.65c-1.57-31.93,19.97-60,51.22-66.74L329.18,0l277.88,59.91c31.25,6.74,52.79,34.81,51.22,66.73l-25.26,512.46c-1.08,21.66-12.79,41.26-31.33,52.45l-238.91,144.23c-10.14,6.12-21.75,9.35-33.59,9.35Z"/>
      <path class="cls-2" d="M633.31,125.41l-25.26,512.46c-.66,13.3-7.88,25.4-19.28,32.28l-238.92,144.23c-12.71,7.67-28.63,7.67-41.34,0l-238.92-144.23c-11.4-6.88-18.62-18.98-19.28-32.28L25.05,125.41c-.96-19.56,12.38-36.94,31.52-41.07L329.18,25.57l272.61,58.77c19.14,4.13,32.48,21.51,31.52,41.07Z"/>
      <g>
        <polygon class="cls-4" points="269.71 397.72 269.71 757.41 75.02 639.88 75.02 435.56 269.71 397.72"/>
        <polygon class="cls-4" points="583.34 115.19 583.34 314.14 388.65 276.3 388.65 73.62 583.34 115.19"/>
      </g>
      <g>
        <polygon class="cls-3" points="269.71 73.62 269.71 276.3 75.02 314.14 75.02 115.59 269.71 73.62"/>
        <polygon class="cls-3" points="583.34 435.56 583.34 639.88 388.65 757.41 388.65 397.72 583.34 435.56"/>
      </g>
      <g>
        <path class="cls-1" d="M147.59,347.23h0c0,1.93,1.56,3.49,3.49,3.49h44.36c3.87,0,7,3.13,7,7v5.94c0,3.87-3.13,7-7,7h-44.36c-1.93,0-3.49,1.56-3.49,3.49v16.6c0,3.87-3.13,7-7,7h-13.08c-3.87,0-7-3.13-7-7v-59.11c0-3.87,3.13-7,7-7h69.04c3.87,0,7,3.13,7,7v5.09c0,3.87-3.13,7-7,7h-45.47c-1.93,0-3.49,1.56-3.49,3.49Z"/>
        <path class="cls-1" d="M484.35,347.23h0c0,1.93,1.56,3.49,3.49,3.49h44.36c3.87,0,7,3.13,7,7v5.94c0,3.87-3.13,7-7,7h-44.36c-1.93,0-3.49,1.56-3.49,3.49v16.6c0,3.87-3.13,7-7,7h-13.08c-3.87,0-7-3.13-7-7v-59.11c0-3.87,3.13-7,7-7h69.04c3.87,0,7,3.13,7,7v5.09c0,3.87-3.13,7-7,7h-45.47c-1.93,0-3.49,1.56-3.49,3.49Z"/>
        <path class="cls-1" d="M269.7,298.55v71.01c0,3.87,3.13,7,7,7h64.01s53,0,53-42.46-50.52-42.55-75.42-42.55h-41.59c-3.87,0-7,3.13-7,7ZM331.71,353.28c15.85,0-31.34,0-31.34,0v-38.38h31.34c6.74,0,29.12,1.09,29.12,19.19,0,22.13-34.54,19.19-29.12,19.19Z"/>
      </g>
    </g>
  </g>
</svg>