<svg xmlns="http://www.w3.org/2000/svg" width="284.76486" height="349.32922" fill-rule="evenodd" stroke-linejoin="round" stroke-miterlimit="2" clip-rule="evenodd" viewBox="0 0 284.76486 349.32922"><g fill-rule="nonzero"><path fill="#d3aa75" d="M31.814 27.367V0h221.279v27.367h31.61v176.698s3.141 48.587-35.46 91.42c0 0-39.515 45.811-107.906 53.844 0 0-57.447-5.65-101.215-49.082 0 0-38.601-33.911-40.122-95.192V27.467Z"/><path fill="#ffce00" d="M38.298 6.346h104.084V24.79H38.298z"/><path fill="#e5073a" d="M204.256 6.346h42.249V24.79h-42.25z"/><path fill="#025" d="M152.867 6.051v18.443h41.44V6.051ZM6.77 33.716v173.425c2.127 63.064 48.633 97.867 48.633 97.867 44.072 34.507 87.016 37.185 87.016 37.185 58.445-7.139 94.14-43.43 94.14-43.43 46.504-45.216 41.338-95.192 41.338-95.192V33.716Zm31.61 22.905 65.35 30.342v46.109l21.278 10.41v-56.52h37.994v17.85h-19.148v47.594l4.861 2.083 23.102-11.305v19.932l-23.71 11.254-4.253-2.33v71.988h18.843v18.442h-37.385v-99.058l-21.581-9.816v99.059H85.189V98.267l-46.81-22.014zm208.207 0v19.334l-46.502 22.312v153.792h-18.542V86.963ZM38.38 107.785l36.78 17.55v19.633l-36.78-17.253zm208.207 0v19.93l-36.777 17.253v-19.633zM38.38 150.025l18.39 8.328v44.623s-2.28 31.53 25.988 59.493c0 0 21.54 23.5 59.706 23.798 0 0 28.441 2.675 57.315-21.718 0 0 27.053-20.225 28.42-61.872v-43.133l18.39-9.519v53.149s1.114 38.869-28.065 68.617c0 0-19.858 23.402-55.928 30.54 0 0-9.214.593-20.109 8.924 0 0-6.64-6.346-17.783-8.727 0 0-34.448-3.568-62.818-35.893 0 0-20.872-23.006-23.506-60.488z"/></g></svg>