<?xml version="1.0" encoding="UTF-8" standalone="no"?>
<!-- Created with Inkscape (http://www.inkscape.org/) -->

<svg
   width="68.416901mm"
   height="101.09487mm"
   viewBox="0 0 68.416901 101.09487"
   version="1.1"
   id="svg1"
   inkscape:version="1.4.2 (f4327f4, 2025-05-13)"
   sodipodi:docname="Eswatini Football Association logo.svg"
   xmlns:inkscape="http://www.inkscape.org/namespaces/inkscape"
   xmlns:sodipodi="http://sodipodi.sourceforge.net/DTD/sodipodi-0.dtd"
   xmlns="http://www.w3.org/2000/svg"
   xmlns:svg="http://www.w3.org/2000/svg">
  <sodipodi:namedview
     id="namedview1"
     pagecolor="#ffffff"
     bordercolor="#000000"
     borderopacity="0.25"
     inkscape:showpageshadow="2"
     inkscape:pageopacity="0.0"
     inkscape:pagecheckerboard="0"
     inkscape:deskcolor="#d1d1d1"
     inkscape:document-units="mm"
     inkscape:zoom="0.72604517"
     inkscape:cx="215.55133"
     inkscape:cy="270.64432"
     inkscape:window-width="1920"
     inkscape:window-height="1017"
     inkscape:window-x="-8"
     inkscape:window-y="-8"
     inkscape:window-maximized="1"
     inkscape:current-layer="layer1" />
  <defs
     id="defs1">
    <clipPath
       clipPathUnits="userSpaceOnUse"
       id="clipPath30369">
      <path
         d="m 915.879,229.809 h 27.023 v 39.934 h -27.023 z"
         transform="matrix(1.3333333,0,0,1.3333333,1608,0)"
         id="path30369" />
    </clipPath>
    <clipPath
       clipPathUnits="userSpaceOnUse"
       id="clipPath30367">
      <path
         d="M 0,0 H 1191 V 842 H 0 Z"
         id="path30367" />
    </clipPath>
    <clipPath
       clipPathUnits="userSpaceOnUse"
       id="clipPath30372">
      <path
         d="m 915.879,229.809 h 27.023 v 39.934 h -27.023 z"
         transform="matrix(1.3333333,0,0,1.3333333,1608,0)"
         id="path30372" />
    </clipPath>
    <clipPath
       clipPathUnits="userSpaceOnUse"
       id="clipPath30370">
      <path
         d="M 0,0 H 1191 V 842 H 0 Z"
         id="path30370" />
    </clipPath>
    <clipPath
       clipPathUnits="userSpaceOnUse"
       id="clipPath30375">
      <path
         d="m 915.879,229.809 h 27.023 v 39.934 h -27.023 z"
         transform="matrix(1.3333333,0,0,1.3333333,1608,0)"
         id="path30375" />
    </clipPath>
    <clipPath
       clipPathUnits="userSpaceOnUse"
       id="clipPath30373">
      <path
         d="M 0,0 H 1191 V 842 H 0 Z"
         id="path30373" />
    </clipPath>
    <clipPath
       clipPathUnits="userSpaceOnUse"
       id="clipPath30378">
      <path
         d="m 915.879,229.809 h 27.023 v 39.934 h -27.023 z"
         transform="matrix(1.3333333,0,0,1.3333333,1608,0)"
         id="path30378" />
    </clipPath>
    <clipPath
       clipPathUnits="userSpaceOnUse"
       id="clipPath30376">
      <path
         d="M 0,0 H 1191 V 842 H 0 Z"
         id="path30376" />
    </clipPath>
    <clipPath
       clipPathUnits="userSpaceOnUse"
       id="clipPath30381">
      <path
         d="m 915.879,229.809 h 27.023 v 39.934 h -27.023 z"
         transform="matrix(1.3333333,0,0,1.3333333,1608,0)"
         id="path30381" />
    </clipPath>
    <clipPath
       clipPathUnits="userSpaceOnUse"
       id="clipPath30379">
      <path
         d="M 0,0 H 1191 V 842 H 0 Z"
         id="path30379" />
    </clipPath>
    <clipPath
       clipPathUnits="userSpaceOnUse"
       id="clipPath30384">
      <path
         d="m 915.879,229.809 h 27.023 v 39.934 h -27.023 z"
         transform="matrix(1.3333333,0,0,1.3333333,1608,0)"
         id="path30384" />
    </clipPath>
    <clipPath
       clipPathUnits="userSpaceOnUse"
       id="clipPath30382">
      <path
         d="M 0,0 H 1191 V 842 H 0 Z"
         id="path30382" />
    </clipPath>
    <clipPath
       clipPathUnits="userSpaceOnUse"
       id="clipPath30387">
      <path
         d="m 915.879,229.809 h 27.023 v 39.934 h -27.023 z"
         transform="matrix(1.3333333,0,0,1.3333333,1608,0)"
         id="path30387" />
    </clipPath>
    <clipPath
       clipPathUnits="userSpaceOnUse"
       id="clipPath30385">
      <path
         d="M 0,0 H 1191 V 842 H 0 Z"
         id="path30385" />
    </clipPath>
    <clipPath
       clipPathUnits="userSpaceOnUse"
       id="clipPath30390">
      <path
         d="m 915.879,229.809 h 27.023 v 39.934 h -27.023 z"
         transform="matrix(1.3333333,0,0,1.3333333,1608,0)"
         id="path30390" />
    </clipPath>
    <clipPath
       clipPathUnits="userSpaceOnUse"
       id="clipPath30388">
      <path
         d="M 0,0 H 1191 V 842 H 0 Z"
         transform="scale(1,-1.0002471)"
         id="path30388" />
    </clipPath>
    <clipPath
       clipPathUnits="userSpaceOnUse"
       id="clipPath30393">
      <path
         d="m 915.879,229.809 h 27.023 v 39.934 h -27.023 z"
         transform="matrix(1.3333333,0,0,1.3333333,1608,0)"
         id="path30393" />
    </clipPath>
    <clipPath
       clipPathUnits="userSpaceOnUse"
       id="clipPath30391">
      <path
         d="M 0,0 H 1191 V 842 H 0 Z"
         transform="scale(1,-1.0002471)"
         id="path30391" />
    </clipPath>
    <clipPath
       clipPathUnits="userSpaceOnUse"
       id="clipPath30396">
      <path
         d="m 915.879,229.809 h 27.023 v 39.934 h -27.023 z"
         transform="matrix(1.3333333,0,0,1.3333333,1608,0)"
         id="path30396" />
    </clipPath>
    <clipPath
       clipPathUnits="userSpaceOnUse"
       id="clipPath30394">
      <path
         d="M 0,0 H 1191 V 842 H 0 Z"
         transform="scale(1,-1.0002471)"
         id="path30394" />
    </clipPath>
    <clipPath
       clipPathUnits="userSpaceOnUse"
       id="clipPath30399">
      <path
         d="m 915.879,229.809 h 27.023 v 39.934 h -27.023 z"
         transform="matrix(1.3333333,0,0,1.3333333,1608,0)"
         id="path30399" />
    </clipPath>
    <clipPath
       clipPathUnits="userSpaceOnUse"
       id="clipPath30397">
      <path
         d="M 0,0 H 1191 V 842 H 0 Z"
         transform="scale(1,-1.0002471)"
         id="path30397" />
    </clipPath>
    <clipPath
       clipPathUnits="userSpaceOnUse"
       id="clipPath30402">
      <path
         d="m 915.879,229.809 h 27.023 v 39.934 h -27.023 z"
         transform="matrix(1.3333333,0,0,1.3333333,1608,0)"
         id="path30402" />
    </clipPath>
    <clipPath
       clipPathUnits="userSpaceOnUse"
       id="clipPath30400">
      <path
         d="M 0,0 H 1191 V 842 H 0 Z"
         transform="scale(1,-1.0002471)"
         id="path30400" />
    </clipPath>
    <clipPath
       clipPathUnits="userSpaceOnUse"
       id="clipPath30405">
      <path
         d="m 915.879,229.809 h 27.023 v 39.934 h -27.023 z"
         transform="matrix(1.3333333,0,0,1.3333333,1608,0)"
         id="path30405" />
    </clipPath>
    <clipPath
       clipPathUnits="userSpaceOnUse"
       id="clipPath30403">
      <path
         d="M 0,0 H 1191 V 842 H 0 Z"
         transform="scale(1,-1.0002471)"
         id="path30403" />
    </clipPath>
    <clipPath
       clipPathUnits="userSpaceOnUse"
       id="clipPath30408">
      <path
         d="m 915.879,229.809 h 27.023 v 39.934 h -27.023 z"
         transform="matrix(1.3333333,0,0,1.3333333,1608,0)"
         id="path30408" />
    </clipPath>
    <clipPath
       clipPathUnits="userSpaceOnUse"
       id="clipPath30406">
      <path
         d="M 0,0 H 1191 V 842 H 0 Z"
         id="path30406" />
    </clipPath>
    <clipPath
       clipPathUnits="userSpaceOnUse"
       id="clipPath30411">
      <path
         d="m 915.879,229.809 h 27.023 v 39.934 h -27.023 z"
         transform="matrix(1.3333333,0,0,1.3333333,1608,0)"
         id="path30411" />
    </clipPath>
    <clipPath
       clipPathUnits="userSpaceOnUse"
       id="clipPath30409">
      <path
         d="M 0,0 H 1191 V 842 H 0 Z"
         transform="scale(1,-1.0002471)"
         id="path30409" />
    </clipPath>
    <clipPath
       clipPathUnits="userSpaceOnUse"
       id="clipPath30414">
      <path
         d="m 915.879,229.809 h 27.023 v 39.934 h -27.023 z"
         transform="matrix(1.3333333,0,0,1.3333333,1608,0)"
         id="path30414" />
    </clipPath>
    <clipPath
       clipPathUnits="userSpaceOnUse"
       id="clipPath30412">
      <path
         d="M 0,0 H 1191 V 842 H 0 Z"
         id="path30412" />
    </clipPath>
    <clipPath
       clipPathUnits="userSpaceOnUse"
       id="clipPath30417">
      <path
         d="m 915.879,229.809 h 27.023 v 39.934 h -27.023 z"
         transform="matrix(1.3333333,0,0,1.3333333,1608,0)"
         id="path30417" />
    </clipPath>
    <clipPath
       clipPathUnits="userSpaceOnUse"
       id="clipPath30415">
      <path
         d="M 0,0 H 1191 V 842 H 0 Z"
         transform="scale(1,-1.0002471)"
         id="path30415" />
    </clipPath>
    <clipPath
       clipPathUnits="userSpaceOnUse"
       id="clipPath30420">
      <path
         d="m 915.879,229.809 h 27.023 v 39.934 h -27.023 z"
         transform="matrix(1.3333333,0,0,1.3333333,1608,0)"
         id="path30420" />
    </clipPath>
    <clipPath
       clipPathUnits="userSpaceOnUse"
       id="clipPath30418">
      <path
         d="M 0,0 H 1191 V 842 H 0 Z"
         id="path30418" />
    </clipPath>
    <clipPath
       clipPathUnits="userSpaceOnUse"
       id="clipPath30423">
      <path
         d="m 915.879,229.809 h 27.023 v 39.934 h -27.023 z"
         transform="matrix(1.3333333,0,0,1.3333333,1608,0)"
         id="path30423" />
    </clipPath>
    <clipPath
       clipPathUnits="userSpaceOnUse"
       id="clipPath30421">
      <path
         d="M 0,0 H 1191 V 842 H 0 Z"
         transform="scale(1,-1.0002471)"
         id="path30421" />
    </clipPath>
    <clipPath
       clipPathUnits="userSpaceOnUse"
       id="clipPath30426">
      <path
         d="m 915.879,229.809 h 27.023 v 39.934 h -27.023 z"
         transform="matrix(1.3333333,0,0,1.3333333,1608,0)"
         id="path30426" />
    </clipPath>
    <clipPath
       clipPathUnits="userSpaceOnUse"
       id="clipPath30424">
      <path
         d="M 0,0 H 1191 V 842 H 0 Z"
         transform="scale(1,-1.0002471)"
         id="path30424" />
    </clipPath>
    <clipPath
       clipPathUnits="userSpaceOnUse"
       id="clipPath30429">
      <path
         d="m 915.879,229.809 h 27.023 v 39.934 h -27.023 z"
         transform="matrix(1.3333333,0,0,1.3333333,1608,0)"
         id="path30429" />
    </clipPath>
    <clipPath
       clipPathUnits="userSpaceOnUse"
       id="clipPath30427">
      <path
         d="M 0,0 H 1191 V 842 H 0 Z"
         transform="scale(1,-1.0002471)"
         id="path30427" />
    </clipPath>
    <clipPath
       clipPathUnits="userSpaceOnUse"
       id="clipPath30432">
      <path
         d="m 915.879,229.809 h 27.023 v 39.934 h -27.023 z"
         transform="matrix(1.3333333,0,0,1.3333333,1608,0)"
         id="path30432" />
    </clipPath>
    <clipPath
       clipPathUnits="userSpaceOnUse"
       id="clipPath30430">
      <path
         d="M 0,0 H 1191 V 842 H 0 Z"
         transform="scale(1,-1.0002471)"
         id="path30430" />
    </clipPath>
    <clipPath
       clipPathUnits="userSpaceOnUse"
       id="clipPath30435">
      <path
         d="m 915.879,229.809 h 27.023 v 39.934 h -27.023 z"
         transform="matrix(1.3333333,0,0,1.3333333,1608,0)"
         id="path30435" />
    </clipPath>
    <clipPath
       clipPathUnits="userSpaceOnUse"
       id="clipPath30433">
      <path
         d="M 0,0 H 1191 V 842 H 0 Z"
         transform="scale(1,-1.0002471)"
         id="path30433" />
    </clipPath>
    <clipPath
       clipPathUnits="userSpaceOnUse"
       id="clipPath30438">
      <path
         d="m 915.879,229.809 h 27.023 v 39.934 h -27.023 z"
         transform="matrix(1.3333333,0,0,1.3333333,1608,0)"
         id="path30438" />
    </clipPath>
    <clipPath
       clipPathUnits="userSpaceOnUse"
       id="clipPath30436">
      <path
         d="M 0,0 H 1191 V 842 H 0 Z"
         transform="scale(1,-1.0002471)"
         id="path30436" />
    </clipPath>
    <clipPath
       clipPathUnits="userSpaceOnUse"
       id="clipPath30441">
      <path
         d="m 915.879,229.809 h 27.023 v 39.934 h -27.023 z"
         transform="matrix(1.3333333,0,0,1.3333333,1608,0)"
         id="path30441" />
    </clipPath>
    <clipPath
       clipPathUnits="userSpaceOnUse"
       id="clipPath30439">
      <path
         d="M 0,0 H 1191 V 842 H 0 Z"
         transform="scale(1,-1.0002471)"
         id="path30439" />
    </clipPath>
    <clipPath
       clipPathUnits="userSpaceOnUse"
       id="clipPath30444">
      <path
         d="m 915.879,229.809 h 27.023 v 39.934 h -27.023 z"
         transform="matrix(1.3333333,0,0,1.3333333,1608,0)"
         id="path30444" />
    </clipPath>
    <clipPath
       clipPathUnits="userSpaceOnUse"
       id="clipPath30442">
      <path
         d="M 0,0 H 1191 V 842 H 0 Z"
         transform="scale(1,-1.0002471)"
         id="path30442" />
    </clipPath>
    <clipPath
       clipPathUnits="userSpaceOnUse"
       id="clipPath30447">
      <path
         d="m 915.879,229.809 h 27.023 v 39.934 h -27.023 z"
         transform="matrix(1.3333333,0,0,1.3333333,1608,0)"
         id="path30447" />
    </clipPath>
    <clipPath
       clipPathUnits="userSpaceOnUse"
       id="clipPath30445">
      <path
         d="M 0,0 H 1191 V 842 H 0 Z"
         transform="scale(1,-1.0002471)"
         id="path30445" />
    </clipPath>
    <clipPath
       clipPathUnits="userSpaceOnUse"
       id="clipPath30450">
      <path
         d="m 915.879,229.809 h 27.023 v 39.934 h -27.023 z"
         transform="matrix(1.3333333,0,0,1.3333333,1608,0)"
         id="path30450" />
    </clipPath>
    <clipPath
       clipPathUnits="userSpaceOnUse"
       id="clipPath30448">
      <path
         d="M 0,0 H 1191 V 842 H 0 Z"
         transform="scale(1,-1.0002471)"
         id="path30448" />
    </clipPath>
    <clipPath
       clipPathUnits="userSpaceOnUse"
       id="clipPath30453">
      <path
         d="m 915.879,229.809 h 27.023 v 39.934 h -27.023 z"
         transform="matrix(1.3333333,0,0,1.3333333,1608,0)"
         id="path30453" />
    </clipPath>
    <clipPath
       clipPathUnits="userSpaceOnUse"
       id="clipPath30451">
      <path
         d="M 0,0 H 1191 V 842 H 0 Z"
         transform="scale(1,-1.0002471)"
         id="path30451" />
    </clipPath>
    <clipPath
       clipPathUnits="userSpaceOnUse"
       id="clipPath30456">
      <path
         d="m 915.879,229.809 h 27.023 v 39.934 h -27.023 z"
         transform="matrix(1.3333333,0,0,1.3333333,1608,0)"
         id="path30456" />
    </clipPath>
    <clipPath
       clipPathUnits="userSpaceOnUse"
       id="clipPath30454">
      <path
         d="M 0,0 H 1191 V 842 H 0 Z"
         transform="scale(1,-1.0002471)"
         id="path30454" />
    </clipPath>
    <clipPath
       clipPathUnits="userSpaceOnUse"
       id="clipPath30459">
      <path
         d="m 915.879,229.809 h 27.023 v 39.934 h -27.023 z"
         transform="matrix(1.3333333,0,0,1.3333333,1608,0)"
         id="path30459" />
    </clipPath>
    <clipPath
       clipPathUnits="userSpaceOnUse"
       id="clipPath30457">
      <path
         d="M 0,0 H 1191 V 842 H 0 Z"
         transform="scale(1,-1.0002471)"
         id="path30457" />
    </clipPath>
    <clipPath
       clipPathUnits="userSpaceOnUse"
       id="clipPath30462">
      <path
         d="m 915.879,229.809 h 27.023 v 39.934 h -27.023 z"
         transform="matrix(1.3333333,0,0,1.3333333,1608,0)"
         id="path30462" />
    </clipPath>
    <clipPath
       clipPathUnits="userSpaceOnUse"
       id="clipPath30460">
      <path
         d="M 0,0 H 1191 V 842 H 0 Z"
         transform="scale(1,-1.0002471)"
         id="path30460" />
    </clipPath>
    <clipPath
       clipPathUnits="userSpaceOnUse"
       id="clipPath30465">
      <path
         d="m 915.879,229.809 h 27.023 v 39.934 h -27.023 z"
         transform="matrix(1.3333333,0,0,1.3333333,1608,0)"
         id="path30465" />
    </clipPath>
    <clipPath
       clipPathUnits="userSpaceOnUse"
       id="clipPath30463">
      <path
         d="M 0,0 H 1191 V 842 H 0 Z"
         transform="scale(1,-1.0002471)"
         id="path30463" />
    </clipPath>
    <clipPath
       clipPathUnits="userSpaceOnUse"
       id="clipPath30468">
      <path
         d="m 915.879,229.809 h 27.023 v 39.934 h -27.023 z"
         transform="matrix(1.3333333,0,0,1.3333333,1608,0)"
         id="path30468" />
    </clipPath>
    <clipPath
       clipPathUnits="userSpaceOnUse"
       id="clipPath30466">
      <path
         d="M 0,0 H 1191 V 842 H 0 Z"
         transform="scale(1,-1.0002471)"
         id="path30466" />
    </clipPath>
    <clipPath
       clipPathUnits="userSpaceOnUse"
       id="clipPath30471">
      <path
         d="m 915.879,229.809 h 27.023 v 39.934 h -27.023 z"
         transform="matrix(1.3333333,0,0,1.3333333,1608,0)"
         id="path30471" />
    </clipPath>
    <clipPath
       clipPathUnits="userSpaceOnUse"
       id="clipPath30469">
      <path
         d="M 0,0 H 1191 V 842 H 0 Z"
         transform="scale(1,-1.0002471)"
         id="path30469" />
    </clipPath>
    <clipPath
       clipPathUnits="userSpaceOnUse"
       id="clipPath30474">
      <path
         d="m 915.879,229.809 h 27.023 v 39.934 h -27.023 z"
         transform="matrix(1.3333333,0,0,1.3333333,1608,0)"
         id="path30474" />
    </clipPath>
    <clipPath
       clipPathUnits="userSpaceOnUse"
       id="clipPath30472">
      <path
         d="M 0,0 H 1191 V 842 H 0 Z"
         transform="scale(1,-1.0002471)"
         id="path30472" />
    </clipPath>
    <clipPath
       clipPathUnits="userSpaceOnUse"
       id="clipPath30477">
      <path
         d="m 915.879,229.809 h 27.023 v 39.934 h -27.023 z"
         transform="matrix(1.3333333,0,0,1.3333333,1608,0)"
         id="path30477" />
    </clipPath>
    <clipPath
       clipPathUnits="userSpaceOnUse"
       id="clipPath30475">
      <path
         d="M 0,0 H 1191 V 842 H 0 Z"
         transform="scale(1,-1.0002471)"
         id="path30475" />
    </clipPath>
    <clipPath
       clipPathUnits="userSpaceOnUse"
       id="clipPath30480">
      <path
         d="m 915.879,229.809 h 27.023 v 39.934 h -27.023 z"
         transform="matrix(1.3333333,0,0,1.3333333,1608,0)"
         id="path30480" />
    </clipPath>
    <clipPath
       clipPathUnits="userSpaceOnUse"
       id="clipPath30478">
      <path
         d="M 0,0 H 1191 V 842 H 0 Z"
         transform="scale(1,-1.0002471)"
         id="path30478" />
    </clipPath>
    <clipPath
       clipPathUnits="userSpaceOnUse"
       id="clipPath30483">
      <path
         d="m 915.879,229.809 h 27.023 v 39.934 h -27.023 z"
         transform="matrix(1.3333333,0,0,1.3333333,1608,0)"
         id="path30483" />
    </clipPath>
    <clipPath
       clipPathUnits="userSpaceOnUse"
       id="clipPath30481">
      <path
         d="M 0,0 H 1191 V 842 H 0 Z"
         transform="scale(1,-1.0002471)"
         id="path30481" />
    </clipPath>
    <clipPath
       clipPathUnits="userSpaceOnUse"
       id="clipPath30486">
      <path
         d="m 915.879,229.809 h 27.023 v 39.934 h -27.023 z"
         transform="matrix(1.3333333,0,0,1.3333333,1608,0)"
         id="path30486" />
    </clipPath>
    <clipPath
       clipPathUnits="userSpaceOnUse"
       id="clipPath30484">
      <path
         d="M 0,0 H 1191 V 842 H 0 Z"
         transform="scale(1,-1.0002471)"
         id="path30484" />
    </clipPath>
    <clipPath
       clipPathUnits="userSpaceOnUse"
       id="clipPath30489">
      <path
         d="m 915.879,229.809 h 27.023 v 39.934 h -27.023 z"
         transform="matrix(1.3333333,0,0,1.3333333,1608,0)"
         id="path30489" />
    </clipPath>
    <clipPath
       clipPathUnits="userSpaceOnUse"
       id="clipPath30487">
      <path
         d="M 0,0 H 1191 V 842 H 0 Z"
         id="path30487" />
    </clipPath>
    <clipPath
       clipPathUnits="userSpaceOnUse"
       id="clipPath30492">
      <path
         d="m 915.879,229.809 h 27.023 v 39.934 h -27.023 z"
         transform="matrix(1.3333333,0,0,1.3333333,1608,0)"
         id="path30492" />
    </clipPath>
    <clipPath
       clipPathUnits="userSpaceOnUse"
       id="clipPath30490">
      <path
         d="M 0,0 H 1191 V 842 H 0 Z"
         transform="scale(1,-1.0002471)"
         id="path30490" />
    </clipPath>
    <clipPath
       clipPathUnits="userSpaceOnUse"
       id="clipPath30495">
      <path
         d="m 915.879,229.809 h 27.023 v 39.934 h -27.023 z"
         transform="matrix(1.3333333,0,0,1.3333333,1608,0)"
         id="path30495" />
    </clipPath>
    <clipPath
       clipPathUnits="userSpaceOnUse"
       id="clipPath30493">
      <path
         d="M 0,0 H 1191 V 842 H 0 Z"
         id="path30493" />
    </clipPath>
    <clipPath
       clipPathUnits="userSpaceOnUse"
       id="clipPath30498">
      <path
         d="m 915.879,229.809 h 27.023 v 39.934 h -27.023 z"
         transform="matrix(1.3333333,0,0,1.3333333,1608,0)"
         id="path30498" />
    </clipPath>
    <clipPath
       clipPathUnits="userSpaceOnUse"
       id="clipPath30496">
      <path
         d="M 0,0 H 1191 V 842 H 0 Z"
         transform="scale(1,-1.0002471)"
         id="path30496" />
    </clipPath>
    <clipPath
       clipPathUnits="userSpaceOnUse"
       id="clipPath30501">
      <path
         d="m 915.879,229.809 h 27.023 v 39.934 h -27.023 z"
         transform="matrix(1.3333333,0,0,1.3333333,1608,0)"
         id="path30501" />
    </clipPath>
    <clipPath
       clipPathUnits="userSpaceOnUse"
       id="clipPath30499">
      <path
         d="M 0,0 H 1191 V 842 H 0 Z"
         id="path30499" />
    </clipPath>
    <clipPath
       clipPathUnits="userSpaceOnUse"
       id="clipPath30504">
      <path
         d="m 915.879,229.809 h 27.023 v 39.934 h -27.023 z"
         transform="matrix(1.3333333,0,0,1.3333333,1608,0)"
         id="path30504" />
    </clipPath>
    <clipPath
       clipPathUnits="userSpaceOnUse"
       id="clipPath30502">
      <path
         d="M 0,0 H 1191 V 842 H 0 Z"
         transform="scale(1,-1.0002471)"
         id="path30502" />
    </clipPath>
    <clipPath
       clipPathUnits="userSpaceOnUse"
       id="clipPath30507">
      <path
         d="m 915.879,229.809 h 27.023 v 39.934 h -27.023 z"
         transform="matrix(1.3333333,0,0,1.3333333,1608,0)"
         id="path30507" />
    </clipPath>
    <clipPath
       clipPathUnits="userSpaceOnUse"
       id="clipPath30505">
      <path
         d="M 0,0 H 1191 V 842 H 0 Z"
         transform="scale(1,-1.0002471)"
         id="path30505" />
    </clipPath>
    <clipPath
       clipPathUnits="userSpaceOnUse"
       id="clipPath30510">
      <path
         d="m 915.879,229.809 h 27.023 v 39.934 h -27.023 z"
         transform="matrix(1.3333333,0,0,1.3333333,1608,0)"
         id="path30510" />
    </clipPath>
    <clipPath
       clipPathUnits="userSpaceOnUse"
       id="clipPath30508">
      <path
         d="M 0,0 H 1191 V 842 H 0 Z"
         transform="scale(1,-1.0002471)"
         id="path30508" />
    </clipPath>
    <clipPath
       clipPathUnits="userSpaceOnUse"
       id="clipPath30513">
      <path
         d="m 915.879,229.809 h 27.023 v 39.934 h -27.023 z"
         transform="matrix(1.3333333,0,0,1.3333333,1608,0)"
         id="path30513" />
    </clipPath>
    <clipPath
       clipPathUnits="userSpaceOnUse"
       id="clipPath30511">
      <path
         d="M 0,0 H 1191 V 842 H 0 Z"
         transform="scale(1,-1.0002471)"
         id="path30511" />
    </clipPath>
    <clipPath
       clipPathUnits="userSpaceOnUse"
       id="clipPath30516">
      <path
         d="m 915.879,229.809 h 27.023 v 39.934 h -27.023 z"
         transform="matrix(1.3333333,0,0,1.3333333,1608,0)"
         id="path30516" />
    </clipPath>
    <clipPath
       clipPathUnits="userSpaceOnUse"
       id="clipPath30514">
      <path
         d="M 0,0 H 1191 V 842 H 0 Z"
         id="path30514" />
    </clipPath>
    <clipPath
       clipPathUnits="userSpaceOnUse"
       id="clipPath30519">
      <path
         d="m 915.879,229.809 h 27.023 v 39.934 h -27.023 z"
         transform="matrix(1.3333333,0,0,1.3333333,1608,0)"
         id="path30519" />
    </clipPath>
    <clipPath
       clipPathUnits="userSpaceOnUse"
       id="clipPath30517">
      <path
         d="M 0,0 H 1191 V 842 H 0 Z"
         id="path30517" />
    </clipPath>
    <clipPath
       clipPathUnits="userSpaceOnUse"
       id="clipPath30522">
      <path
         d="m 915.879,229.809 h 27.023 v 39.934 h -27.023 z"
         transform="matrix(1.3333333,0,0,1.3333333,1608,0)"
         id="path30522" />
    </clipPath>
    <clipPath
       clipPathUnits="userSpaceOnUse"
       id="clipPath30520">
      <path
         d="M 0,0 H 1191 V 842 H 0 Z"
         id="path30520" />
    </clipPath>
    <clipPath
       clipPathUnits="userSpaceOnUse"
       id="clipPath30525">
      <path
         d="m 915.879,229.809 h 27.023 v 39.934 h -27.023 z"
         transform="matrix(1.3333333,0,0,1.3333333,1608,0)"
         id="path30525" />
    </clipPath>
    <clipPath
       clipPathUnits="userSpaceOnUse"
       id="clipPath30523">
      <path
         d="M 0,0 H 1191 V 842 H 0 Z"
         id="path30523" />
    </clipPath>
    <clipPath
       clipPathUnits="userSpaceOnUse"
       id="clipPath30528">
      <path
         d="m 915.879,229.809 h 27.023 v 39.934 h -27.023 z"
         transform="matrix(1.3333333,0,0,1.3333333,1608,0)"
         id="path30528" />
    </clipPath>
    <clipPath
       clipPathUnits="userSpaceOnUse"
       id="clipPath30526">
      <path
         d="M 0,0 H 1191 V 842 H 0 Z"
         id="path30526" />
    </clipPath>
    <clipPath
       clipPathUnits="userSpaceOnUse"
       id="clipPath30531">
      <path
         d="m 915.879,229.809 h 27.023 v 39.934 h -27.023 z"
         transform="matrix(1.3333333,0,0,1.3333333,1608,0)"
         id="path30531" />
    </clipPath>
    <clipPath
       clipPathUnits="userSpaceOnUse"
       id="clipPath30529">
      <path
         d="M 0,0 H 1191 V 842 H 0 Z"
         id="path30529" />
    </clipPath>
    <clipPath
       clipPathUnits="userSpaceOnUse"
       id="clipPath30534">
      <path
         d="m 915.879,229.809 h 27.023 v 39.934 h -27.023 z"
         transform="matrix(1.3333333,0,0,1.3333333,1608,0)"
         id="path30534" />
    </clipPath>
    <clipPath
       clipPathUnits="userSpaceOnUse"
       id="clipPath30532">
      <path
         d="M 0,0 H 1191 V 842 H 0 Z"
         id="path30532" />
    </clipPath>
    <clipPath
       clipPathUnits="userSpaceOnUse"
       id="clipPath30537">
      <path
         d="m 915.879,229.809 h 27.023 v 39.934 h -27.023 z"
         transform="matrix(1.3333333,0,0,1.3333333,1608,0)"
         id="path30537" />
    </clipPath>
    <clipPath
       clipPathUnits="userSpaceOnUse"
       id="clipPath30535">
      <path
         d="M 0,0 H 1191 V 842 H 0 Z"
         id="path30535" />
    </clipPath>
    <clipPath
       clipPathUnits="userSpaceOnUse"
       id="clipPath30540">
      <path
         d="m 915.879,229.809 h 27.023 v 39.934 h -27.023 z"
         transform="matrix(1.3333333,0,0,1.3333333,1608,0)"
         id="path30540" />
    </clipPath>
    <clipPath
       clipPathUnits="userSpaceOnUse"
       id="clipPath30538">
      <path
         d="M 0,0 H 1191 V 842 H 0 Z"
         id="path30538" />
    </clipPath>
    <clipPath
       clipPathUnits="userSpaceOnUse"
       id="clipPath30543">
      <path
         d="m 915.879,229.809 h 27.023 v 39.934 h -27.023 z"
         transform="matrix(1.3333333,0,0,1.3333333,1608,0)"
         id="path30543" />
    </clipPath>
    <clipPath
       clipPathUnits="userSpaceOnUse"
       id="clipPath30541">
      <path
         d="M 0,0 H 1191 V 842 H 0 Z"
         id="path30541" />
    </clipPath>
    <clipPath
       clipPathUnits="userSpaceOnUse"
       id="clipPath30546">
      <path
         d="m 915.879,229.809 h 27.023 v 39.934 h -27.023 z"
         transform="matrix(1.3333333,0,0,1.3333333,1608,0)"
         id="path30546" />
    </clipPath>
    <clipPath
       clipPathUnits="userSpaceOnUse"
       id="clipPath30544">
      <path
         d="M 0,0 H 1191 V 842 H 0 Z"
         id="path30544" />
    </clipPath>
    <clipPath
       clipPathUnits="userSpaceOnUse"
       id="clipPath30549">
      <path
         d="m 915.879,229.809 h 27.023 v 39.934 h -27.023 z"
         transform="matrix(1.3333333,0,0,1.3333333,1608,0)"
         id="path30549" />
    </clipPath>
    <clipPath
       clipPathUnits="userSpaceOnUse"
       id="clipPath30547">
      <path
         d="M 0,0 H 1191 V 842 H 0 Z"
         id="path30547" />
    </clipPath>
    <clipPath
       clipPathUnits="userSpaceOnUse"
       id="clipPath30552">
      <path
         d="m 915.879,229.809 h 27.023 v 39.934 h -27.023 z"
         transform="matrix(1.3333333,0,0,1.3333333,1608,0)"
         id="path30552" />
    </clipPath>
    <clipPath
       clipPathUnits="userSpaceOnUse"
       id="clipPath30550">
      <path
         d="M 0,0 H 1191 V 842 H 0 Z"
         id="path30550" />
    </clipPath>
    <clipPath
       clipPathUnits="userSpaceOnUse"
       id="clipPath30555">
      <path
         d="m 915.879,229.809 h 27.023 v 39.934 h -27.023 z"
         transform="matrix(1.3333333,0,0,1.3333333,1608,0)"
         id="path30555" />
    </clipPath>
    <clipPath
       clipPathUnits="userSpaceOnUse"
       id="clipPath30553">
      <path
         d="M 0,0 H 1191 V 842 H 0 Z"
         id="path30553" />
    </clipPath>
    <clipPath
       clipPathUnits="userSpaceOnUse"
       id="clipPath30558">
      <path
         d="m 915.879,229.809 h 27.023 v 39.934 h -27.023 z"
         transform="matrix(1.3333333,0,0,1.3333333,1608,0)"
         id="path30558" />
    </clipPath>
    <clipPath
       clipPathUnits="userSpaceOnUse"
       id="clipPath30556">
      <path
         d="M 0,0 H 1191 V 842 H 0 Z"
         id="path30556" />
    </clipPath>
    <clipPath
       clipPathUnits="userSpaceOnUse"
       id="clipPath30561">
      <path
         d="m 915.879,229.809 h 27.023 v 39.934 h -27.023 z"
         transform="matrix(1.3333333,0,0,1.3333333,1608,0)"
         id="path30561" />
    </clipPath>
    <clipPath
       clipPathUnits="userSpaceOnUse"
       id="clipPath30559">
      <path
         d="M 0,0 H 1191 V 842 H 0 Z"
         id="path30559" />
    </clipPath>
    <clipPath
       clipPathUnits="userSpaceOnUse"
       id="clipPath30564">
      <path
         d="m 915.879,229.809 h 27.023 v 39.934 h -27.023 z"
         transform="matrix(1.3333333,0,0,1.3333333,1608,0)"
         id="path30564" />
    </clipPath>
    <clipPath
       clipPathUnits="userSpaceOnUse"
       id="clipPath30562">
      <path
         d="M 0,0 H 1191 V 842 H 0 Z"
         id="path30562" />
    </clipPath>
    <clipPath
       clipPathUnits="userSpaceOnUse"
       id="clipPath30567">
      <path
         d="m 915.879,229.809 h 27.023 v 39.934 h -27.023 z"
         transform="matrix(1.3333333,0,0,1.3333333,1608,0)"
         id="path30567" />
    </clipPath>
    <clipPath
       clipPathUnits="userSpaceOnUse"
       id="clipPath30565">
      <path
         d="M 0,0 H 1191 V 842 H 0 Z"
         id="path30565" />
    </clipPath>
    <clipPath
       clipPathUnits="userSpaceOnUse"
       id="clipPath30570">
      <path
         d="m 915.879,229.809 h 27.023 v 39.934 h -27.023 z"
         transform="matrix(1.3333333,0,0,1.3333333,1608,0)"
         id="path30570" />
    </clipPath>
    <clipPath
       clipPathUnits="userSpaceOnUse"
       id="clipPath30568">
      <path
         d="M 0,0 H 1191 V 842 H 0 Z"
         id="path30568" />
    </clipPath>
  </defs>
  <g
     inkscape:label="Layer 1"
     inkscape:groupmode="layer"
     id="layer1"
     transform="translate(-47.942528,-77.041855)">
    <g
       id="g1"
       transform="matrix(7.1767631,0,0,7.1767631,-1338.2192,-1396.4672)">
      <g
         id="g30368"
         clip-path="url(#clipPath30369)"
         transform="matrix(0.26458333,0,0,0.26458333,-555.40593,124.2441)">
        <path
           d="m 941.5,245.77 v 10.773 c 0,0.641 -0.211,2.754 -1.363,5.008 -1.575,3.082 -5.102,6.504 -10.649,6.66 -5.761,-0.066 -9.379,-3.711 -10.965,-7.055 -0.871,-1.836 -1.066,-3.586 -1.156,-4.625 V 245.77 Z"
           style="fill:#0059a2;fill-opacity:1;fill-rule:nonzero;stroke:none"
           transform="matrix(1.3333333,0,0,1.3333333,1608,0)"
           clip-path="url(#clipPath30367)"
           id="path30368" />
      </g>
      <g
         id="g30371"
         clip-path="url(#clipPath30372)"
         transform="matrix(0.26458333,0,0,0.26458333,-555.40593,124.2441)">
        <path
           d="M 917.387,243.816 H 941.5 v 1.953 h -24.113 z"
           style="fill:#eeda00;fill-opacity:1;fill-rule:nonzero;stroke:none"
           transform="matrix(1.3333333,0,0,1.3333333,1608,0)"
           clip-path="url(#clipPath30370)"
           id="path30371" />
      </g>
      <g
         id="g30374"
         clip-path="url(#clipPath30375)"
         transform="matrix(0.26458333,0,0,0.26458333,-555.40593,124.2441)">
        <path
           d="M 917.387,231.184 H 941.5 v 12.633 h -24.113 z"
           style="fill:#e30613;fill-opacity:1;fill-rule:nonzero;stroke:none"
           transform="matrix(1.3333333,0,0,1.3333333,1608,0)"
           clip-path="url(#clipPath30373)"
           id="path30374" />
      </g>
      <g
         id="g30377"
         clip-path="url(#clipPath30378)"
         transform="matrix(0.26458333,0,0,0.26458333,-555.40593,124.2441)">
        <path
           d="m 934.141,233.398 h 1.57 l 3.207,7.926 h -1.949 l -0.762,-1.89 h -2.562 l -0.711,1.89 h -1.879 z"
           style="fill:#ffffff;fill-opacity:1;fill-rule:nonzero;stroke:none"
           transform="matrix(1.3333333,0,0,1.3333333,1608,0)"
           clip-path="url(#clipPath30376)"
           id="path30377" />
      </g>
      <g
         id="g30380"
         clip-path="url(#clipPath30381)"
         transform="matrix(0.26458333,0,0,0.26458333,-555.40593,124.2441)">
        <path
           d="m 934.941,235.762 -0.804,2.261 h 1.574 z"
           style="fill:#e30613;fill-opacity:1;fill-rule:nonzero;stroke:none"
           transform="matrix(1.3333333,0,0,1.3333333,1608,0)"
           clip-path="url(#clipPath30379)"
           id="path30380" />
      </g>
      <g
         id="g30383"
         clip-path="url(#clipPath30384)"
         transform="matrix(0.26458333,0,0,0.26458333,-555.40593,124.2441)">
        <path
           d="m 920.926,233.398 h 4.75 l -0.414,1.493 h -2.481 v 1.632 h 2.481 v 1.5 h -2.481 v 1.805 h 2.895 v 1.496 h -4.75 z"
           style="fill:#ffffff;fill-opacity:1;fill-rule:nonzero;stroke:none"
           transform="matrix(1.3333333,0,0,1.3333333,1608,0)"
           clip-path="url(#clipPath30382)"
           id="path30383" />
      </g>
      <g
         id="g30386"
         clip-path="url(#clipPath30387)"
         transform="matrix(0.26458333,0,0,0.26458333,-555.40593,124.2441)">
        <path
           d="m 926.711,233.398 h 4.812 l -0.468,1.493 h -2.477 v 1.632 h 2.477 v 1.5 h -2.477 v 3.301 h -1.867 z"
           style="fill:#ffffff;fill-opacity:1;fill-rule:nonzero;stroke:none"
           transform="matrix(1.3333333,0,0,1.3333333,1608,0)"
           clip-path="url(#clipPath30385)"
           id="path30386" />
      </g>
      <g
         id="g30389"
         clip-path="url(#clipPath30390)"
         transform="matrix(0.26458333,0,0,0.26458333,-555.40593,124.2441)">
        <path
           d="m 924.621,-245.061 v -0.019 c 0,-0.082 0.02,-0.113 0.067,-0.129 0.046,-0.016 0.136,-0.024 0.277,-0.024 0.308,0 0.363,0.024 0.363,0.157 0,0.066 -0.019,0.094 -0.074,0.109 -0.051,0.016 -0.055,0.016 -0.406,0.016 -0.145,0.004 -0.207,0.012 -0.254,0.047 -0.047,0.031 -0.067,0.074 -0.067,0.152 0,0.117 0.043,0.184 0.137,0.211 0.066,0.02 0.172,0.031 0.332,0.031 0.184,0 0.277,-0.015 0.328,-0.047 0.059,-0.035 0.078,-0.078 0.082,-0.187 h -0.094 c 0,0.062 -0.011,0.09 -0.039,0.109 -0.035,0.028 -0.117,0.043 -0.277,0.043 -0.308,0 -0.367,-0.027 -0.367,-0.152 0,-0.055 0.012,-0.086 0.047,-0.102 0.039,-0.019 0.078,-0.019 0.301,-0.023 0.25,0 0.304,-0.004 0.359,-0.031 0.062,-0.032 0.09,-0.082 0.09,-0.18 0,-0.11 -0.035,-0.176 -0.114,-0.203 -0.058,-0.024 -0.148,-0.032 -0.332,-0.032 -0.187,0 -0.277,0.008 -0.343,0.032 -0.071,0.023 -0.11,0.082 -0.11,0.168 v 0.054 z"
           style="fill:#0059a2;fill-opacity:1;fill-rule:nonzero;stroke:#0059a2;stroke-width:0.0650246;stroke-linecap:butt;stroke-linejoin:miter;stroke-miterlimit:10;stroke-dasharray:none;stroke-opacity:1"
           transform="matrix(1.3333333,0,0,-1.333004,1608,0)"
           clip-path="url(#clipPath30388)"
           id="path30389" />
      </g>
      <g
         id="g30392"
         clip-path="url(#clipPath30393)"
         transform="matrix(0.26458333,0,0,0.26458333,-555.40593,124.2441)">
        <path
           d="m 925.695,-244.517 h 0.094 v -0.789 h -0.094 z"
           style="fill:#0059a2;fill-opacity:1;fill-rule:nonzero;stroke:#0059a2;stroke-width:0.0650246;stroke-linecap:butt;stroke-linejoin:miter;stroke-miterlimit:10;stroke-dasharray:none;stroke-opacity:1"
           transform="matrix(1.3333333,0,0,-1.333004,1608,0)"
           clip-path="url(#clipPath30391)"
           id="path30392" />
      </g>
      <g
         id="g30395"
         clip-path="url(#clipPath30396)"
         transform="matrix(0.26458333,0,0,0.26458333,-555.40593,124.2441)">
        <path
           d="m 926.09,-244.517 h 0.152 l 0.742,-0.723 v 0.723 h 0.094 v -0.79 h -0.148 l -0.746,0.719 v -0.719 h -0.094 z"
           style="fill:#0059a2;fill-opacity:1;fill-rule:nonzero;stroke:#0059a2;stroke-width:0.0650246;stroke-linecap:butt;stroke-linejoin:miter;stroke-miterlimit:10;stroke-dasharray:none;stroke-opacity:1"
           transform="matrix(1.3333333,0,0,-1.333004,1608,0)"
           clip-path="url(#clipPath30394)"
           id="path30395" />
      </g>
      <g
         id="g30398"
         clip-path="url(#clipPath30399)"
         transform="matrix(0.26458333,0,0,0.26458333,-555.40593,124.2441)">
        <path
           d="m 928.305,-245.041 v -0.035 c 0,-0.094 -0.008,-0.133 -0.039,-0.168 -0.032,-0.039 -0.071,-0.055 -0.141,-0.063 -0.043,-0.004 -0.18,-0.008 -0.285,-0.008 -0.285,0 -0.356,0.012 -0.41,0.071 -0.051,0.054 -0.063,0.117 -0.063,0.332 0,0.246 0.016,0.305 0.098,0.359 0.058,0.036 0.125,0.043 0.449,0.043 0.195,0 0.262,-0.011 0.313,-0.047 0.05,-0.035 0.07,-0.086 0.074,-0.211 h -0.094 v 0.02 c 0,0.141 -0.031,0.156 -0.363,0.156 -0.379,0 -0.379,-0.004 -0.379,-0.32 0,-0.18 0.008,-0.238 0.039,-0.274 0.039,-0.039 0.098,-0.047 0.32,-0.047 0.352,0 0.391,0.016 0.391,0.145 v 0.047 z"
           style="fill:#0059a2;fill-opacity:1;fill-rule:nonzero;stroke:#0059a2;stroke-width:0.0650246;stroke-linecap:butt;stroke-linejoin:miter;stroke-miterlimit:10;stroke-dasharray:none;stroke-opacity:1"
           transform="matrix(1.3333333,0,0,-1.333004,1608,0)"
           clip-path="url(#clipPath30397)"
           id="path30398" />
      </g>
      <g
         id="g30401"
         clip-path="url(#clipPath30402)"
         transform="matrix(0.26458333,0,0,0.26458333,-555.40593,124.2441)">
        <path
           d="m 928.582,-244.517 h 0.785 v -0.083 h -0.691 v -0.261 h 0.664 v -0.075 h -0.664 v -0.293 h 0.695 v -0.078 h -0.789 z"
           style="fill:#0059a2;fill-opacity:1;fill-rule:nonzero;stroke:#0059a2;stroke-width:0.0650246;stroke-linecap:butt;stroke-linejoin:miter;stroke-miterlimit:10;stroke-dasharray:none;stroke-opacity:1"
           transform="matrix(1.3333333,0,0,-1.333004,1608,0)"
           clip-path="url(#clipPath30400)"
           id="path30401" />
      </g>
      <g
         id="g30404"
         clip-path="url(#clipPath30405)"
         transform="matrix(0.26458333,0,0,0.26458333,-555.40593,124.2441)">
        <path
           d="m 930.254,-244.775 0.324,0.258 h 0.125 v -0.79 h -0.09 v 0.719 l -0.304,-0.25 z"
           style="fill:#0059a2;fill-opacity:1;fill-rule:nonzero;stroke:#0059a2;stroke-width:0.0650246;stroke-linecap:butt;stroke-linejoin:miter;stroke-miterlimit:10;stroke-dasharray:none;stroke-opacity:1"
           transform="matrix(1.3333333,0,0,-1.333004,1608,0)"
           clip-path="url(#clipPath30403)"
           id="path30404" />
      </g>
      <g
         id="g30407"
         clip-path="url(#clipPath30408)"
         transform="matrix(0.26458333,0,0,0.26458333,-555.40593,124.2441)">
        <path
           d="m 931.172,244.703 c 0,0.067 0.012,0.098 0.035,0.113 0.039,0.024 0.086,0.028 0.305,0.028 0.179,0 0.238,-0.004 0.273,-0.024 0.043,-0.023 0.059,-0.062 0.059,-0.132 0,-0.086 -0.024,-0.126 -0.086,-0.141 -0.035,-0.012 -0.129,-0.016 -0.266,-0.016 -0.285,0 -0.32,0.02 -0.32,0.172 m 0.008,0.317 c 0,0.074 0.008,0.097 0.031,0.117 0.035,0.027 0.082,0.035 0.258,0.035 0.222,0 0.277,-0.004 0.324,-0.031 0.039,-0.028 0.051,-0.067 0.051,-0.161 v -0.171 c -0.016,0.05 -0.032,0.078 -0.067,0.089 -0.039,0.02 -0.097,0.028 -0.3,0.028 -0.168,0 -0.243,-0.008 -0.289,-0.02 -0.036,-0.011 -0.067,-0.035 -0.086,-0.062 -0.016,-0.024 -0.024,-0.071 -0.024,-0.137 0,-0.105 0.016,-0.16 0.059,-0.199 0.054,-0.047 0.117,-0.059 0.351,-0.059 0.207,0 0.262,0.004 0.309,0.02 0.074,0.019 0.113,0.062 0.129,0.133 0.012,0.046 0.015,0.113 0.015,0.253 0,0.243 -0.015,0.301 -0.082,0.348 -0.058,0.043 -0.125,0.051 -0.39,0.051 -0.219,0 -0.289,-0.016 -0.34,-0.07 -0.035,-0.039 -0.043,-0.075 -0.047,-0.164 z"
           style="fill:#0059a2;fill-opacity:1;fill-rule:nonzero;stroke:none"
           transform="matrix(1.3333333,0,0,1.3333333,1608,0)"
           clip-path="url(#clipPath30406)"
           id="path30407" />
      </g>
      <g
         id="g30410"
         clip-path="url(#clipPath30411)"
         transform="matrix(0.26458333,0,0,0.26458333,-555.40593,124.2441)">
        <path
           d="m 931.172,-244.764 c 0,-0.066 0.012,-0.097 0.035,-0.113 0.039,-0.023 0.086,-0.027 0.305,-0.027 0.179,0 0.238,0.004 0.273,0.023 0.043,0.024 0.059,0.063 0.059,0.133 0,0.086 -0.024,0.125 -0.086,0.141 -0.035,0.011 -0.129,0.015 -0.266,0.015 -0.285,0 -0.32,-0.019 -0.32,-0.172 z m 0.008,-0.316 c 0,-0.074 0.008,-0.098 0.031,-0.117 0.035,-0.028 0.082,-0.036 0.258,-0.036 0.222,0 0.277,0.004 0.324,0.032 0.039,0.027 0.051,0.066 0.051,0.16 v 0.172 c -0.016,-0.051 -0.032,-0.078 -0.067,-0.09 -0.039,-0.02 -0.097,-0.027 -0.3,-0.027 -0.168,0 -0.243,0.007 -0.289,0.019 -0.036,0.012 -0.067,0.035 -0.086,0.063 -0.016,0.023 -0.024,0.07 -0.024,0.136 0,0.106 0.016,0.161 0.059,0.2 0.054,0.047 0.117,0.058 0.351,0.058 0.207,0 0.262,-0.004 0.309,-0.019 0.074,-0.02 0.113,-0.063 0.129,-0.133 0.012,-0.047 0.015,-0.113 0.015,-0.254 0,-0.242 -0.015,-0.301 -0.082,-0.348 -0.058,-0.043 -0.125,-0.051 -0.39,-0.051 -0.219,0 -0.289,0.016 -0.34,0.071 -0.035,0.039 -0.043,0.074 -0.047,0.164 z"
           style="fill:none;stroke:#0059a2;stroke-width:0.0650246;stroke-linecap:butt;stroke-linejoin:miter;stroke-miterlimit:10;stroke-dasharray:none;stroke-opacity:1"
           transform="matrix(1.3333333,0,0,-1.333004,1608,0)"
           clip-path="url(#clipPath30409)"
           id="path30410" />
      </g>
      <g
         id="g30413"
         clip-path="url(#clipPath30414)"
         transform="matrix(0.26458333,0,0,0.26458333,-555.40593,124.2441)">
        <path
           d="m 932.375,244.887 c -0.039,0.019 -0.055,0.058 -0.055,0.133 0,0.082 0.024,0.121 0.086,0.14 0.035,0.008 0.129,0.012 0.266,0.012 0.285,0 0.316,-0.016 0.316,-0.172 0,-0.066 -0.008,-0.098 -0.035,-0.113 -0.035,-0.024 -0.086,-0.028 -0.305,-0.028 -0.175,0 -0.234,0.008 -0.273,0.028 m 0.605,-0.242 c 0,-0.071 -0.003,-0.059 -0.031,-0.079 -0.031,-0.027 -0.078,-0.035 -0.258,-0.035 -0.222,0 -0.273,0.004 -0.32,0.035 -0.043,0.024 -0.055,0.063 -0.055,0.157 v 0.172 c 0.016,-0.051 0.036,-0.075 0.067,-0.09 0.039,-0.02 0.097,-0.024 0.301,-0.024 0.171,0 0.246,0.004 0.293,0.02 0.031,0.008 0.062,0.031 0.082,0.058 0.019,0.028 0.027,0.071 0.027,0.137 0,0.106 -0.02,0.164 -0.059,0.199 -0.054,0.047 -0.117,0.059 -0.351,0.059 -0.207,0 -0.262,-0.004 -0.313,-0.02 -0.07,-0.019 -0.109,-0.062 -0.125,-0.132 -0.011,-0.047 -0.015,-0.114 -0.015,-0.254 0,-0.239 0.011,-0.297 0.082,-0.348 0.058,-0.043 0.125,-0.051 0.386,-0.051 0.219,0 0.289,0.016 0.344,0.074 0.031,0.036 0.043,0.032 0.047,0.122 z"
           style="fill:#0059a2;fill-opacity:1;fill-rule:nonzero;stroke:none"
           transform="matrix(1.3333333,0,0,1.3333333,1608,0)"
           clip-path="url(#clipPath30412)"
           id="path30413" />
      </g>
      <g
         id="g30416"
         clip-path="url(#clipPath30417)"
         transform="matrix(0.26458333,0,0,0.26458333,-555.40593,124.2441)">
        <path
           d="m 932.375,-244.947 c -0.039,-0.02 -0.055,-0.059 -0.055,-0.133 0,-0.082 0.024,-0.121 0.086,-0.141 0.035,-0.008 0.129,-0.012 0.266,-0.012 0.285,0 0.316,0.016 0.316,0.172 0,0.067 -0.008,0.098 -0.035,0.114 -0.035,0.023 -0.086,0.027 -0.305,0.027 -0.175,0 -0.234,-0.008 -0.273,-0.027 z m 0.605,0.242 c 0,0.07 -0.003,0.059 -0.031,0.078 -0.031,0.027 -0.078,0.035 -0.258,0.035 -0.222,0 -0.273,-0.004 -0.32,-0.035 -0.043,-0.023 -0.055,-0.062 -0.055,-0.156 v -0.172 c 0.016,0.051 0.036,0.074 0.067,0.09 0.039,0.019 0.097,0.023 0.301,0.023 0.171,0 0.246,-0.004 0.293,-0.019 0.031,-0.008 0.062,-0.032 0.082,-0.059 0.019,-0.027 0.027,-0.07 0.027,-0.137 0,-0.105 -0.02,-0.164 -0.059,-0.199 -0.054,-0.047 -0.117,-0.059 -0.351,-0.059 -0.207,0 -0.262,0.004 -0.313,0.02 -0.07,0.02 -0.109,0.062 -0.125,0.133 -0.011,0.047 -0.015,0.113 -0.015,0.254 0,0.238 0.011,0.297 0.082,0.348 0.058,0.043 0.125,0.05 0.386,0.05 0.219,0 0.289,-0.015 0.344,-0.074 0.031,-0.035 0.043,-0.031 0.047,-0.121 z"
           style="fill:none;stroke:#0059a2;stroke-width:0.0650246;stroke-linecap:butt;stroke-linejoin:miter;stroke-miterlimit:10;stroke-dasharray:none;stroke-opacity:1"
           transform="matrix(1.3333333,0,0,-1.333004,1608,0)"
           clip-path="url(#clipPath30415)"
           id="path30416" />
      </g>
      <g
         id="g30419"
         clip-path="url(#clipPath30420)"
         transform="matrix(0.26458333,0,0,0.26458333,-555.40593,124.2441)">
        <path
           d="m 933.531,244.543 c -0.051,0.012 -0.07,0.043 -0.07,0.117 0,0.078 0.008,0.106 0.039,0.121 0.035,0.016 0.074,0.02 0.293,0.02 0.227,0 0.266,0 0.301,-0.02 0.027,-0.015 0.039,-0.043 0.039,-0.121 0,-0.074 -0.02,-0.105 -0.071,-0.117 -0.039,-0.008 -0.14,-0.012 -0.265,-0.012 -0.125,0 -0.227,0.004 -0.266,0.012 m -0.035,0.363 c -0.031,0.016 -0.043,0.051 -0.043,0.114 0,0.14 0.031,0.152 0.344,0.152 0.312,0 0.344,-0.012 0.344,-0.152 0,-0.063 -0.016,-0.098 -0.043,-0.114 -0.036,-0.019 -0.094,-0.027 -0.297,-0.027 -0.215,0 -0.27,0.008 -0.305,0.027 m 0.738,0.117 c 0,0.114 -0.019,0.161 -0.078,0.196 -0.035,0.019 -0.07,0.027 -0.14,0.031 -0.032,0.004 -0.032,0.004 -0.219,0.004 -0.25,0 -0.254,-0.004 -0.297,-0.012 -0.051,-0.008 -0.09,-0.035 -0.113,-0.07 -0.02,-0.031 -0.028,-0.07 -0.028,-0.149 0,-0.132 0.028,-0.168 0.133,-0.179 -0.051,-0.012 -0.066,-0.02 -0.082,-0.035 -0.031,-0.028 -0.043,-0.063 -0.043,-0.145 0,-0.07 0.008,-0.105 0.028,-0.137 0.031,-0.047 0.082,-0.066 0.187,-0.07 0.145,-0.008 0.145,-0.008 0.215,-0.008 0.164,0 0.281,0.012 0.332,0.028 0.039,0.011 0.07,0.043 0.086,0.082 0.008,0.023 0.012,0.062 0.012,0.105 0,0.086 -0.012,0.125 -0.051,0.152 -0.016,0.012 -0.031,0.016 -0.074,0.028 0.105,0.011 0.132,0.047 0.132,0.179"
           style="fill:#0059a2;fill-opacity:1;fill-rule:nonzero;stroke:none"
           transform="matrix(1.3333333,0,0,1.3333333,1608,0)"
           clip-path="url(#clipPath30418)"
           id="path30419" />
      </g>
      <g
         id="g30422"
         clip-path="url(#clipPath30423)"
         transform="matrix(0.26458333,0,0,0.26458333,-555.40593,124.2441)">
        <path
           d="m 933.531,-244.603 c -0.051,-0.012 -0.07,-0.043 -0.07,-0.118 0,-0.078 0.008,-0.105 0.039,-0.121 0.035,-0.015 0.074,-0.019 0.293,-0.019 0.227,0 0.266,0 0.301,0.019 0.027,0.016 0.039,0.043 0.039,0.121 0,0.075 -0.02,0.106 -0.071,0.118 -0.039,0.007 -0.14,0.011 -0.265,0.011 -0.125,0 -0.227,-0.004 -0.266,-0.011 z m -0.035,-0.364 c -0.031,-0.015 -0.043,-0.051 -0.043,-0.113 0,-0.141 0.031,-0.153 0.344,-0.153 0.312,0 0.344,0.012 0.344,0.153 0,0.062 -0.016,0.098 -0.043,0.113 -0.036,0.02 -0.094,0.028 -0.297,0.028 -0.215,0 -0.27,-0.008 -0.305,-0.028 z m 0.738,-0.117 c 0,-0.113 -0.019,-0.16 -0.078,-0.195 -0.035,-0.02 -0.07,-0.028 -0.14,-0.032 -0.032,-0.004 -0.032,-0.004 -0.219,-0.004 -0.25,0 -0.254,0.004 -0.297,0.012 -0.051,0.008 -0.09,0.035 -0.113,0.07 -0.02,0.032 -0.028,0.071 -0.028,0.149 0,0.133 0.028,0.168 0.133,0.18 -0.051,0.011 -0.066,0.019 -0.082,0.035 -0.031,0.027 -0.043,0.062 -0.043,0.144 0,0.071 0.008,0.106 0.028,0.137 0.031,0.047 0.082,0.067 0.187,0.071 0.145,0.007 0.145,0.007 0.215,0.007 0.164,0 0.281,-0.011 0.332,-0.027 0.039,-0.012 0.07,-0.043 0.086,-0.082 0.008,-0.024 0.012,-0.063 0.012,-0.106 0,-0.086 -0.012,-0.125 -0.051,-0.152 -0.016,-0.012 -0.031,-0.016 -0.074,-0.027 0.105,-0.012 0.132,-0.047 0.132,-0.18 z"
           style="fill:none;stroke:#0059a2;stroke-width:0.0650246;stroke-linecap:butt;stroke-linejoin:miter;stroke-miterlimit:10;stroke-dasharray:none;stroke-opacity:1"
           transform="matrix(1.3333333,0,0,-1.333004,1608,0)"
           clip-path="url(#clipPath30421)"
           id="path30422" />
      </g>
      <g
         id="g30425"
         clip-path="url(#clipPath30426)"
         transform="matrix(0.26458333,0,0,0.26458333,-555.40593,124.2441)">
        <path
           d="m 920.25,-258.189 -0.289,-0.043 -0.074,0.52 -0.242,-0.035 0.054,-0.442 -0.254,-0.039 -0.054,0.438 -0.278,-0.043 0.078,-0.536 -0.289,-0.043 -0.129,0.887 1.348,0.211 z"
           style="fill:#ffffff;fill-opacity:1;fill-rule:nonzero;stroke:#0059a2;stroke-width:0.0260098;stroke-linecap:butt;stroke-linejoin:miter;stroke-miterlimit:10;stroke-dasharray:none;stroke-opacity:1"
           transform="matrix(1.3333333,0,0,-1.333004,1608,0)"
           clip-path="url(#clipPath30424)"
           id="path30425" />
      </g>
      <g
         id="g30428"
         clip-path="url(#clipPath30429)"
         transform="matrix(0.26458333,0,0,0.26458333,-555.40593,124.2441)">
        <path
           d="m 919.746,-260.83 -0.121,0.285 0.512,0.438 h -0.004 l -0.672,-0.078 -0.125,0.254 1.098,0.898 0.136,-0.285 -0.55,-0.461 0.714,0.082 0.098,-0.211 -0.547,-0.485 v -0.003 l 0.707,0.132 0.141,-0.328 z"
           style="fill:#ffffff;fill-opacity:1;fill-rule:nonzero;stroke:#0059a2;stroke-width:0.0260098;stroke-linecap:butt;stroke-linejoin:miter;stroke-miterlimit:10;stroke-dasharray:none;stroke-opacity:1"
           transform="matrix(1.3333333,0,0,-1.333004,1608,0)"
           clip-path="url(#clipPath30427)"
           id="path30428" />
      </g>
      <g
         id="g30431"
         clip-path="url(#clipPath30432)"
         transform="matrix(0.26458333,0,0,0.26458333,-555.40593,124.2441)">
        <path
           d="m 922.18,-262.17 -0.239,-0.184 -0.179,0.238 -0.856,-0.66 -0.218,0.281 0.855,0.661 -0.188,0.238 0.239,0.184 z"
           style="fill:#ffffff;fill-opacity:1;fill-rule:nonzero;stroke:#0059a2;stroke-width:0.0260098;stroke-linecap:butt;stroke-linejoin:miter;stroke-miterlimit:10;stroke-dasharray:none;stroke-opacity:1"
           transform="matrix(1.3333333,0,0,-1.333004,1608,0)"
           clip-path="url(#clipPath30430)"
           id="path30431" />
      </g>
      <g
         id="g30434"
         clip-path="url(#clipPath30435)"
         transform="matrix(0.26458333,0,0,0.26458333,-555.40593,124.2441)">
        <path
           d="m 922.48,-262.514 -1.031,-0.914 -0.211,0.242 1.032,0.914 z"
           style="fill:#ffffff;fill-opacity:1;fill-rule:nonzero;stroke:#0059a2;stroke-width:0.0260098;stroke-linecap:butt;stroke-linejoin:miter;stroke-miterlimit:10;stroke-dasharray:none;stroke-opacity:1"
           transform="matrix(1.3333333,0,0,-1.333004,1608,0)"
           clip-path="url(#clipPath30433)"
           id="path30434" />
      </g>
      <g
         id="g30437"
         clip-path="url(#clipPath30438)"
         transform="matrix(0.26458333,0,0,0.26458333,-555.40593,124.2441)">
        <path
           d="m 922.773,-262.807 -0.156,-0.778 v -0.004 l 0.465,0.489 0.227,-0.211 -0.938,-0.985 -0.176,0.164 0.168,0.813 v 0.004 l -0.488,-0.512 -0.223,0.211 0.934,0.989 z"
           style="fill:#ffffff;fill-opacity:1;fill-rule:nonzero;stroke:#0059a2;stroke-width:0.0260098;stroke-linecap:butt;stroke-linejoin:miter;stroke-miterlimit:10;stroke-dasharray:none;stroke-opacity:1"
           transform="matrix(1.3333333,0,0,-1.333004,1608,0)"
           clip-path="url(#clipPath30436)"
           id="path30437" />
      </g>
      <g
         id="g30440"
         clip-path="url(#clipPath30441)"
         transform="matrix(0.26458333,0,0,0.26458333,-555.40593,124.2441)">
        <path
           d="m 923.719,-263.624 -0.832,-1.051 -0.27,0.215 0.828,1.051 z"
           style="fill:#ffffff;fill-opacity:1;fill-rule:nonzero;stroke:#0059a2;stroke-width:0.0260098;stroke-linecap:butt;stroke-linejoin:miter;stroke-miterlimit:10;stroke-dasharray:none;stroke-opacity:1"
           transform="matrix(1.3333333,0,0,-1.333004,1608,0)"
           clip-path="url(#clipPath30439)"
           id="path30440" />
      </g>
      <g
         id="g30443"
         clip-path="url(#clipPath30444)"
         transform="matrix(0.26458333,0,0,0.26458333,-555.40593,124.2441)">
        <path
           d="m 925.191,-264.573 -0.148,-0.254 -0.453,0.25 -0.11,-0.188 0.387,-0.218 -0.148,-0.27 -0.395,0.219 -0.273,-0.469 -0.309,0.176 0.684,1.176 z"
           style="fill:#ffffff;fill-opacity:1;fill-rule:nonzero;stroke:#0059a2;stroke-width:0.0260098;stroke-linecap:butt;stroke-linejoin:miter;stroke-miterlimit:10;stroke-dasharray:none;stroke-opacity:1"
           transform="matrix(1.3333333,0,0,-1.333004,1608,0)"
           clip-path="url(#clipPath30442)"
           id="path30443" />
      </g>
      <g
         id="g30446"
         clip-path="url(#clipPath30447)"
         transform="matrix(0.26458333,0,0,0.26458333,-555.40593,124.2441)">
        <path
           d="m 925.668,-265.308 c 0.066,0.133 -0.059,0.203 -0.059,0.203 0,0 -0.144,0.071 -0.214,-0.062 l -0.18,-0.363 c -0.07,-0.137 0.066,-0.215 0.066,-0.215 0,0 0.125,-0.071 0.207,0.078 z m 0.301,-0.152 -0.18,-0.36 c -0.129,-0.258 -0.367,-0.343 -0.648,-0.203 -0.282,0.145 -0.352,0.391 -0.227,0.645 l 0.184,0.363 c 0.125,0.254 0.363,0.344 0.644,0.2 0.285,-0.145 0.356,-0.387 0.227,-0.645"
           style="fill:#ffffff;fill-opacity:1;fill-rule:nonzero;stroke:#0059a2;stroke-width:0.0260098;stroke-linecap:butt;stroke-linejoin:miter;stroke-miterlimit:10;stroke-dasharray:none;stroke-opacity:1"
           transform="matrix(1.3333333,0,0,-1.333004,1608,0)"
           clip-path="url(#clipPath30445)"
           id="path30446" />
      </g>
      <g
         id="g30449"
         clip-path="url(#clipPath30450)"
         transform="matrix(0.26458333,0,0,0.26458333,-555.40593,124.2441)">
        <path
           d="m 928.066,-265.464 -0.05,-0.293 -0.293,0.051 -0.172,-1.059 -0.348,0.058 0.172,1.055 -0.293,0.047 0.047,0.293 z"
           style="fill:#ffffff;fill-opacity:1;fill-rule:nonzero;stroke:#0059a2;stroke-width:0.0260098;stroke-linecap:butt;stroke-linejoin:miter;stroke-miterlimit:10;stroke-dasharray:none;stroke-opacity:1"
           transform="matrix(1.3333333,0,0,-1.333004,1608,0)"
           clip-path="url(#clipPath30448)"
           id="path30449" />
      </g>
      <g
         id="g30452"
         clip-path="url(#clipPath30453)"
         transform="matrix(0.26458333,0,0,0.26458333,-555.40593,124.2441)">
        <path
           d="m 928.461,-266.058 0.133,-0.008 c 0.094,-0.004 0.129,0.031 0.129,0.129 0,0.055 -0.02,0.102 -0.114,0.11 l -0.129,0.007 z m -0.031,-0.52 0.152,-0.011 c 0.094,-0.004 0.133,0.027 0.137,0.132 0,0.043 -0.024,0.122 -0.117,0.126 l -0.157,0.011 z m 0.429,0.395 v -0.004 c 0.149,-0.055 0.207,-0.168 0.2,-0.316 -0.016,-0.235 -0.137,-0.379 -0.473,-0.356 l -0.512,0.031 0.086,1.329 0.453,-0.028 c 0.325,-0.019 0.453,-0.187 0.449,-0.382 0,-0.188 -0.082,-0.231 -0.203,-0.274"
           style="fill:#ffffff;fill-opacity:1;fill-rule:nonzero;stroke:#0059a2;stroke-width:0.0260098;stroke-linecap:butt;stroke-linejoin:miter;stroke-miterlimit:10;stroke-dasharray:none;stroke-opacity:1"
           transform="matrix(1.3333333,0,0,-1.333004,1608,0)"
           clip-path="url(#clipPath30451)"
           id="path30452" />
      </g>
      <g
         id="g30455"
         clip-path="url(#clipPath30456)"
         transform="matrix(0.26458333,0,0,0.26458333,-555.40593,124.2441)">
        <path
           d="m 930.629,-265.511 0.141,-1.02 0.527,0.059 0.035,-0.285 -0.852,-0.106 -0.179,1.309 z"
           style="fill:#ffffff;fill-opacity:1;fill-rule:nonzero;stroke:#0059a2;stroke-width:0.0260098;stroke-linecap:butt;stroke-linejoin:miter;stroke-miterlimit:10;stroke-dasharray:none;stroke-opacity:1"
           transform="matrix(1.3333333,0,0,-1.333004,1608,0)"
           clip-path="url(#clipPath30454)"
           id="path30455" />
      </g>
      <g
         id="g30458"
         clip-path="url(#clipPath30459)"
         transform="matrix(0.26458333,0,0,0.26458333,-555.40593,124.2441)">
        <path
           d="m 931.566,-265.323 0.243,-1.012 0.519,0.101 0.063,-0.285 -0.84,-0.18 -0.309,1.297 z"
           style="fill:#ffffff;fill-opacity:1;fill-rule:nonzero;stroke:#0059a2;stroke-width:0.0260098;stroke-linecap:butt;stroke-linejoin:miter;stroke-miterlimit:10;stroke-dasharray:none;stroke-opacity:1"
           transform="matrix(1.3333333,0,0,-1.333004,1608,0)"
           clip-path="url(#clipPath30457)"
           id="path30458" />
      </g>
      <g
         id="g30461"
         clip-path="url(#clipPath30462)"
         transform="matrix(0.26458333,0,0,0.26458333,-555.40593,124.2441)">
        <path
           d="m 936.824,-262.233 v -0.305 c -0.125,0.012 -0.164,-0.062 -0.164,-0.062 0,0 -0.07,-0.106 0.02,-0.184 l 0.347,-0.32 c 0.078,-0.07 0.192,0.023 0.192,0.023 0,0 0.058,0.075 0.035,0.18 h 0.301 c 0,0 0.019,-0.238 -0.141,-0.41 -0.184,-0.207 -0.422,-0.231 -0.613,-0.055 l -0.348,0.32 c -0.211,0.192 -0.215,0.45 -0.035,0.657 0.187,0.207 0.406,0.156 0.406,0.156"
           style="fill:#ffffff;fill-opacity:1;fill-rule:nonzero;stroke:#0059a2;stroke-width:0.0260098;stroke-linecap:butt;stroke-linejoin:miter;stroke-miterlimit:10;stroke-dasharray:none;stroke-opacity:1"
           transform="matrix(1.3333333,0,0,-1.333004,1608,0)"
           clip-path="url(#clipPath30460)"
           id="path30461" />
      </g>
      <g
         id="g30464"
         clip-path="url(#clipPath30465)"
         transform="matrix(0.26458333,0,0,0.26458333,-555.40593,124.2441)">
        <path
           d="m 936.973,-261.744 1.035,-0.809 -0.203,-0.262 -1.043,0.805 z"
           style="fill:#ffffff;fill-opacity:1;fill-rule:nonzero;stroke:#0059a2;stroke-width:0.0260098;stroke-linecap:butt;stroke-linejoin:miter;stroke-miterlimit:10;stroke-dasharray:none;stroke-opacity:1"
           transform="matrix(1.3333333,0,0,-1.333004,1608,0)"
           clip-path="url(#clipPath30463)"
           id="path30464" />
      </g>
      <g
         id="g30467"
         clip-path="url(#clipPath30468)"
         transform="matrix(0.26458333,0,0,0.26458333,-555.40593,124.2441)">
        <path
           d="m 938.043,-259.939 0.258,-0.133 -0.137,-0.258 0.93,-0.481 -0.16,-0.304 -0.926,0.48 -0.137,-0.258 -0.254,0.133 z"
           style="fill:#ffffff;fill-opacity:1;fill-rule:nonzero;stroke:#0059a2;stroke-width:0.0260098;stroke-linecap:butt;stroke-linejoin:miter;stroke-miterlimit:10;stroke-dasharray:none;stroke-opacity:1"
           transform="matrix(1.3333333,0,0,-1.333004,1608,0)"
           clip-path="url(#clipPath30466)"
           id="path30467" />
      </g>
      <g
         id="g30470"
         clip-path="url(#clipPath30471)"
         transform="matrix(0.26458333,0,0,0.26458333,-555.40593,124.2441)">
        <path
           d="m 938.207,-259.556 1.207,-0.477 -0.125,-0.313 -1.203,0.477 z"
           style="fill:#ffffff;fill-opacity:1;fill-rule:nonzero;stroke:#0059a2;stroke-width:0.0260098;stroke-linecap:butt;stroke-linejoin:miter;stroke-miterlimit:10;stroke-dasharray:none;stroke-opacity:1"
           transform="matrix(1.3333333,0,0,-1.333004,1608,0)"
           clip-path="url(#clipPath30469)"
           id="path30470" />
      </g>
      <g
         id="g30473"
         clip-path="url(#clipPath30474)"
         transform="matrix(0.26458333,0,0,0.26458333,-555.40593,124.2441)">
        <path
           d="m 938.621,-258.142 0.723,0.309 v 0.004 l -0.653,0.121 0.055,0.312 1.313,-0.242 -0.039,-0.246 -0.758,-0.317 v -0.003 l 0.679,-0.125 -0.05,-0.317 -1.317,0.242 z"
           style="fill:#ffffff;fill-opacity:1;fill-rule:nonzero;stroke:#0059a2;stroke-width:0.0260098;stroke-linecap:butt;stroke-linejoin:miter;stroke-miterlimit:10;stroke-dasharray:none;stroke-opacity:1"
           transform="matrix(1.3333333,0,0,-1.333004,1608,0)"
           clip-path="url(#clipPath30472)"
           id="path30473" />
      </g>
      <g
         id="g30476"
         clip-path="url(#clipPath30477)"
         transform="matrix(0.26458333,0,0,0.26458333,-555.40593,124.2441)">
        <path
           d="m 937.957,-261.776 0.129,0.188 -0.344,0.09 h -0.004 z m 0.332,-0.398 -0.203,-0.278 -0.848,1.102 0.153,0.231 1.382,-0.332 -0.187,-0.293 -0.215,0.066 -0.223,-0.324 z"
           style="fill:#ffffff;fill-opacity:1;fill-rule:nonzero;stroke:#0059a2;stroke-width:0.0260098;stroke-linecap:butt;stroke-linejoin:miter;stroke-miterlimit:10;stroke-dasharray:none;stroke-opacity:1"
           transform="matrix(1.3333333,0,0,-1.333004,1608,0)"
           clip-path="url(#clipPath30475)"
           id="path30476" />
      </g>
      <g
         id="g30479"
         clip-path="url(#clipPath30480)"
         transform="matrix(0.26458333,0,0,0.26458333,-555.40593,124.2441)">
        <path
           d="m 933.48,-265.57 0.211,0.102 -0.25,0.258 z m 0.075,-0.519 -0.321,-0.141 -0.148,1.415 0.258,0.121 1.011,-1.016 -0.312,-0.16 -0.152,0.171 -0.364,-0.168 z"
           style="fill:#ffffff;fill-opacity:1;fill-rule:nonzero;stroke:#0059a2;stroke-width:0.0260098;stroke-linecap:butt;stroke-linejoin:miter;stroke-miterlimit:10;stroke-dasharray:none;stroke-opacity:1"
           transform="matrix(1.3333333,0,0,-1.333004,1608,0)"
           clip-path="url(#clipPath30478)"
           id="path30479" />
      </g>
      <g
         id="g30482"
         clip-path="url(#clipPath30483)"
         transform="matrix(0.26458333,0,0,0.26458333,-555.40593,124.2441)">
        <path
           d="m 929.613,-266.425 0.231,0.004 -0.121,0.336 z m -0.14,-0.504 -0.348,0.004 0.434,1.34 0.281,0.004 0.508,-1.325 -0.348,-0.019 -0.07,0.215 -0.395,-0.004 z"
           style="fill:#ffffff;fill-opacity:1;fill-rule:nonzero;stroke:#0059a2;stroke-width:0.0260098;stroke-linecap:butt;stroke-linejoin:miter;stroke-miterlimit:10;stroke-dasharray:none;stroke-opacity:1"
           transform="matrix(1.3333333,0,0,-1.333004,1608,0)"
           clip-path="url(#clipPath30481)"
           id="path30482" />
      </g>
      <g
         id="g30485"
         clip-path="url(#clipPath30486)"
         transform="matrix(0.26458333,0,0,0.26458333,-555.40593,124.2441)">
        <path
           d="m 920.574,-261.311 0.114,-0.207 0.246,0.27 z m -0.519,-0.113 -0.164,0.316 1.418,0.247 0.136,-0.254 -0.957,-1.09 -0.183,0.308 0.164,0.164 -0.192,0.356 z"
           style="fill:#ffffff;fill-opacity:1;fill-rule:nonzero;stroke:#0059a2;stroke-width:0.0260098;stroke-linecap:butt;stroke-linejoin:miter;stroke-miterlimit:10;stroke-dasharray:none;stroke-opacity:1"
           transform="matrix(1.3333333,0,0,-1.333004,1608,0)"
           clip-path="url(#clipPath30484)"
           id="path30485" />
      </g>
      <g
         id="g30488"
         clip-path="url(#clipPath30489)"
         transform="matrix(0.26458333,0,0,0.26458333,-555.40593,124.2441)">
        <path
           d="m 926.664,265.562 c 0.039,-0.148 -0.102,-0.191 -0.102,-0.191 0,0 -0.164,-0.047 -0.207,0.102 l -0.113,0.402 c -0.047,0.152 0.11,0.203 0.11,0.203 0,0 0.14,0.051 0.195,-0.117 z m 0.336,0.094 -0.117,0.403 c -0.078,0.281 -0.305,0.418 -0.625,0.328 -0.317,-0.09 -0.434,-0.325 -0.356,-0.61 l 0.118,-0.398 c 0.082,-0.285 0.304,-0.418 0.625,-0.328 0.316,0.09 0.437,0.324 0.355,0.605"
           style="fill:#ffffff;fill-opacity:1;fill-rule:nonzero;stroke:none"
           transform="matrix(1.3333333,0,0,1.3333333,1608,0)"
           clip-path="url(#clipPath30487)"
           id="path30488" />
      </g>
      <g
         id="g30491"
         clip-path="url(#clipPath30492)"
         transform="matrix(0.26458333,0,0,0.26458333,-555.40593,124.2441)">
        <path
           d="m 926.664,-265.628 c 0.039,0.148 -0.102,0.191 -0.102,0.191 0,0 -0.164,0.047 -0.207,-0.101 l -0.113,-0.403 c -0.047,-0.152 0.11,-0.203 0.11,-0.203 0,0 0.14,-0.051 0.195,0.117 z m 0.336,-0.094 -0.117,-0.402 c -0.078,-0.282 -0.305,-0.418 -0.625,-0.329 -0.317,0.09 -0.434,0.325 -0.356,0.61 l 0.118,0.398 c 0.082,0.286 0.304,0.419 0.625,0.329 0.316,-0.09 0.437,-0.325 0.355,-0.606 z"
           style="fill:none;stroke:#0059a2;stroke-width:0.0260098;stroke-linecap:butt;stroke-linejoin:miter;stroke-miterlimit:10;stroke-dasharray:none;stroke-opacity:1"
           transform="matrix(1.3333333,0,0,-1.333004,1608,0)"
           clip-path="url(#clipPath30490)"
           id="path30491" />
      </g>
      <g
         id="g30494"
         clip-path="url(#clipPath30495)"
         transform="matrix(0.26458333,0,0,0.26458333,-555.40593,124.2441)">
        <path
           d="m 936.137,263.305 c -0.106,-0.11 -0.211,-0.008 -0.211,-0.008 0,0 -0.114,0.117 -0.012,0.226 l 0.281,0.293 c 0.11,0.11 0.227,0.004 0.227,0.004 0,0 0.105,-0.097 -0.004,-0.222 z m 0.238,-0.243 0.281,0.293 c 0.199,0.204 0.207,0.465 -0.019,0.692 -0.231,0.226 -0.481,0.215 -0.68,0.008 l -0.281,-0.289 c -0.199,-0.207 -0.207,-0.465 0.019,-0.692 0.231,-0.23 0.481,-0.219 0.68,-0.012"
           style="fill:#ffffff;fill-opacity:1;fill-rule:nonzero;stroke:none"
           transform="matrix(1.3333333,0,0,1.3333333,1608,0)"
           clip-path="url(#clipPath30493)"
           id="path30494" />
      </g>
      <g
         id="g30497"
         clip-path="url(#clipPath30498)"
         transform="matrix(0.26458333,0,0,0.26458333,-555.40593,124.2441)">
        <path
           d="m 936.137,-263.37 c -0.106,0.11 -0.211,0.008 -0.211,0.008 0,0 -0.114,-0.117 -0.012,-0.227 l 0.281,-0.293 c 0.11,-0.109 0.227,-0.004 0.227,-0.004 0,0 0.105,0.098 -0.004,0.223 z m 0.238,0.242 0.281,-0.293 c 0.199,-0.203 0.207,-0.465 -0.019,-0.691 -0.231,-0.227 -0.481,-0.215 -0.68,-0.008 l -0.281,0.289 c -0.199,0.207 -0.207,0.465 0.019,0.692 0.231,0.23 0.481,0.219 0.68,0.011 z"
           style="fill:none;stroke:#0059a2;stroke-width:0.0260098;stroke-linecap:butt;stroke-linejoin:miter;stroke-miterlimit:10;stroke-dasharray:none;stroke-opacity:1"
           transform="matrix(1.3333333,0,0,-1.333004,1608,0)"
           clip-path="url(#clipPath30496)"
           id="path30497" />
      </g>
      <g
         id="g30500"
         clip-path="url(#clipPath30501)"
         transform="matrix(0.26458333,0,0,0.26458333,-555.40593,124.2441)">
        <path
           d="m 938.875,258.898 c -0.141,-0.043 -0.191,0.094 -0.191,0.094 0,0 -0.047,0.156 0.097,0.203 l 0.387,0.125 c 0.152,0.047 0.207,-0.101 0.207,-0.101 0,0 0.051,-0.137 -0.109,-0.196 z m 0.105,-0.324 0.391,0.125 c 0.274,0.086 0.399,0.313 0.301,0.621 -0.098,0.305 -0.332,0.414 -0.61,0.328 l -0.386,-0.125 c -0.274,-0.089 -0.403,-0.312 -0.301,-0.621 0.098,-0.308 0.332,-0.418 0.605,-0.328"
           style="fill:#ffffff;fill-opacity:1;fill-rule:nonzero;stroke:none"
           transform="matrix(1.3333333,0,0,1.3333333,1608,0)"
           clip-path="url(#clipPath30499)"
           id="path30500" />
      </g>
      <g
         id="g30503"
         clip-path="url(#clipPath30504)"
         transform="matrix(0.26458333,0,0,0.26458333,-555.40593,124.2441)">
        <path
           d="m 938.875,-258.962 c -0.141,0.043 -0.191,-0.094 -0.191,-0.094 0,0 -0.047,-0.157 0.097,-0.203 l 0.387,-0.125 c 0.152,-0.047 0.207,0.101 0.207,0.101 0,0 0.051,0.137 -0.109,0.196 z m 0.105,0.324 0.391,-0.125 c 0.274,-0.086 0.399,-0.313 0.301,-0.621 -0.098,-0.305 -0.332,-0.415 -0.61,-0.329 l -0.386,0.125 c -0.274,0.09 -0.403,0.313 -0.301,0.622 0.098,0.308 0.332,0.418 0.605,0.328 z"
           style="fill:none;stroke:#0059a2;stroke-width:0.0260098;stroke-linecap:butt;stroke-linejoin:miter;stroke-miterlimit:10;stroke-dasharray:none;stroke-opacity:1"
           transform="matrix(1.3333333,0,0,-1.333004,1608,0)"
           clip-path="url(#clipPath30502)"
           id="path30503" />
      </g>
      <g
         id="g30506"
         clip-path="url(#clipPath30507)"
         transform="matrix(0.26458333,0,0,0.26458333,-555.40593,124.2441)">
        <path
           d="m 934.609,-264.167 -0.05,-0.277 c -0.137,0.008 -0.301,-0.078 -0.301,-0.078 0,0 -0.078,-0.04 -0.059,-0.118 0.051,-0.301 0.617,0.309 0.848,-0.222 0.086,-0.2 0.043,-0.34 0.019,-0.383 -0.019,-0.043 -0.035,-0.078 -0.183,-0.172 -0.379,-0.235 -0.613,-0.141 -0.613,-0.141 l 0.085,0.297 c 0.145,-0.039 0.325,0.059 0.325,0.059 0,0 0.125,0.051 0.105,0.144 -0.086,0.313 -0.551,-0.277 -0.84,0.192 -0.09,0.191 -0.097,0.359 0.094,0.531 0.293,0.223 0.57,0.168 0.57,0.168"
           style="fill:#ffffff;fill-opacity:1;fill-rule:nonzero;stroke:#0059a2;stroke-width:0.0260098;stroke-linecap:butt;stroke-linejoin:miter;stroke-miterlimit:10;stroke-dasharray:none;stroke-opacity:1"
           transform="matrix(1.3333333,0,0,-1.333004,1608,0)"
           clip-path="url(#clipPath30505)"
           id="path30506" />
      </g>
      <g
         id="g30509"
         clip-path="url(#clipPath30510)"
         transform="matrix(0.26458333,0,0,0.26458333,-555.40593,124.2441)">
        <path
           d="m 935.41,-263.589 -0.023,-0.277 c -0.141,-0.008 -0.297,-0.106 -0.297,-0.106 0,0 -0.074,-0.042 -0.047,-0.121 0.078,-0.297 0.59,0.364 0.863,-0.144 0.106,-0.192 0.074,-0.336 0.055,-0.379 -0.016,-0.047 -0.027,-0.082 -0.164,-0.192 -0.359,-0.265 -0.602,-0.191 -0.602,-0.191 l 0.059,0.301 c 0.148,-0.028 0.32,0.09 0.32,0.09 0,0 0.117,0.062 0.09,0.152 -0.117,0.305 -0.523,-0.328 -0.852,0.113 -0.109,0.184 -0.132,0.352 0.043,0.539 0.274,0.251 0.555,0.215 0.555,0.215"
           style="fill:#ffffff;fill-opacity:1;fill-rule:nonzero;stroke:#0059a2;stroke-width:0.0260098;stroke-linecap:butt;stroke-linejoin:miter;stroke-miterlimit:10;stroke-dasharray:none;stroke-opacity:1"
           transform="matrix(1.3333333,0,0,-1.333004,1608,0)"
           clip-path="url(#clipPath30508)"
           id="path30509" />
      </g>
      <g
         id="g30512"
         clip-path="url(#clipPath30513)"
         transform="matrix(0.26458333,0,0,0.26458333,-555.40593,124.2441)">
        <path
           d="m 920.367,-259.103 -0.258,0.109 c 0.036,0.137 -0.011,0.313 -0.011,0.313 0,0 -0.02,0.082 -0.102,0.082 -0.305,0.016 0.168,-0.672 -0.398,-0.778 -0.215,-0.039 -0.344,0.032 -0.379,0.063 -0.039,0.031 -0.071,0.051 -0.129,0.215 -0.149,0.422 -0.004,0.629 -0.004,0.629 l 0.269,-0.145 c -0.066,-0.133 -0.011,-0.332 -0.011,-0.332 0,0 0.023,-0.133 0.117,-0.133 0.324,0.016 -0.152,0.598 0.371,0.774 0.203,0.051 0.371,0.023 0.5,-0.203 0.152,-0.336 0.035,-0.594 0.035,-0.594"
           style="fill:#ffffff;fill-opacity:1;fill-rule:nonzero;stroke:#0059a2;stroke-width:0.0260098;stroke-linecap:butt;stroke-linejoin:miter;stroke-miterlimit:10;stroke-dasharray:none;stroke-opacity:1"
           transform="matrix(1.3333333,0,0,-1.333004,1608,0)"
           clip-path="url(#clipPath30511)"
           id="path30512" />
      </g>
      <g
         id="g30515"
         clip-path="url(#clipPath30516)"
         transform="matrix(0.26458333,0,0,0.26458333,-555.40593,124.2441)">
        <path
           d="m 918.438,245.656 c -0.055,0 -0.098,0.043 -0.098,0.098 l 0.012,8.187 c 0,0.055 0.043,0.098 0.097,0.098 0.055,0 0.102,-0.043 0.102,-0.098 l -0.016,-8.187 c 0,-0.055 -0.043,-0.098 -0.097,-0.098"
           style="fill:#eeda00;fill-opacity:1;fill-rule:nonzero;stroke:none"
           transform="matrix(1.3333333,0,0,1.3333333,1608,0)"
           clip-path="url(#clipPath30514)"
           id="path30515" />
      </g>
      <g
         id="g30518"
         clip-path="url(#clipPath30519)"
         transform="matrix(0.26458333,0,0,0.26458333,-555.40593,124.2441)">
        <path
           d="m 918.992,245.434 c -0.054,0 -0.097,0.043 -0.097,0.097 l 0.015,8.188 c 0,0.054 0.043,0.097 0.098,0.097 0.054,0 0.101,-0.043 0.101,-0.097 l -0.015,-8.188 c 0,-0.054 -0.047,-0.097 -0.102,-0.097"
           style="fill:#eeda00;fill-opacity:1;fill-rule:nonzero;stroke:none"
           transform="matrix(1.3333333,0,0,1.3333333,1608,0)"
           clip-path="url(#clipPath30517)"
           id="path30518" />
      </g>
      <g
         id="g30521"
         clip-path="url(#clipPath30522)"
         transform="matrix(0.26458333,0,0,0.26458333,-555.40593,124.2441)">
        <path
           d="m 919.539,245.203 c -0.055,0 -0.098,0.047 -0.098,0.102 l 0.016,8.183 c 0,0.059 0.043,0.102 0.098,0.102 0.054,0 0.101,-0.043 0.101,-0.102 l -0.015,-8.183 c 0,-0.055 -0.047,-0.102 -0.102,-0.102"
           style="fill:#eeda00;fill-opacity:1;fill-rule:nonzero;stroke:none"
           transform="matrix(1.3333333,0,0,1.3333333,1608,0)"
           clip-path="url(#clipPath30520)"
           id="path30521" />
      </g>
      <g
         id="g30524"
         clip-path="url(#clipPath30525)"
         transform="matrix(0.26458333,0,0,0.26458333,-555.40593,124.2441)">
        <path
           d="m 940.461,245.754 c 0,-0.055 -0.047,-0.098 -0.102,-0.098 -0.054,0 -0.097,0.043 -0.097,0.098 l 0.011,8.187 c 0,0.055 0.043,0.098 0.098,0.098 h 0.004 c 0.051,0 0.098,-0.043 0.098,-0.098 z"
           style="fill:#eeda00;fill-opacity:1;fill-rule:nonzero;stroke:none"
           transform="matrix(1.3333333,0,0,1.3333333,1608,0)"
           clip-path="url(#clipPath30523)"
           id="path30524" />
      </g>
      <g
         id="g30527"
         clip-path="url(#clipPath30528)"
         transform="matrix(0.26458333,0,0,0.26458333,-555.40593,124.2441)">
        <path
           d="m 939.812,245.434 c -0.054,0 -0.101,0.043 -0.101,0.097 l 0.016,8.188 c 0,0.054 0.043,0.097 0.101,0.097 0.055,0 0.098,-0.043 0.098,-0.097 l -0.016,-8.188 c 0,-0.054 -0.043,-0.097 -0.098,-0.097"
           style="fill:#eeda00;fill-opacity:1;fill-rule:nonzero;stroke:none"
           transform="matrix(1.3333333,0,0,1.3333333,1608,0)"
           clip-path="url(#clipPath30526)"
           id="path30527" />
      </g>
      <g
         id="g30530"
         clip-path="url(#clipPath30531)"
         transform="matrix(0.26458333,0,0,0.26458333,-555.40593,124.2441)">
        <path
           d="m 939.258,245.203 c -0.055,0 -0.098,0.047 -0.098,0.102 l 0.016,8.183 c 0,0.059 0.043,0.102 0.097,0.102 0.055,0 0.098,-0.043 0.098,-0.102 l -0.016,-8.183 c 0,-0.055 -0.043,-0.102 -0.097,-0.102"
           style="fill:#eeda00;fill-opacity:1;fill-rule:nonzero;stroke:none"
           transform="matrix(1.3333333,0,0,1.3333333,1608,0)"
           clip-path="url(#clipPath30529)"
           id="path30530" />
      </g>
      <g
         id="g30533"
         clip-path="url(#clipPath30534)"
         transform="matrix(0.26458333,0,0,0.26458333,-555.40593,124.2441)">
        <path
           d="m 918.922,254.363 0.144,-0.035 0.579,0.41 0.089,-0.05 0.059,-0.008 0.027,0.058 h 0.098 l 0.02,0.106 0.015,0.179 -0.019,0.036 v 0.066 l -0.028,0.055 -0.004,0.136 0.086,0.172 v 0.485 l -0.023,-0.024 -0.016,-0.011 -0.008,-0.032 -0.031,-0.008 -0.008,0.024 -0.043,0.016 -0.011,-0.032 h -0.024 l -0.015,0.227 -0.012,0.07 -0.016,0.445 h -0.64 l -0.309,-0.117 -0.051,-0.019 -0.051,-0.004 -0.257,-0.301 -0.012,-0.047 0.031,-0.023 -0.008,-0.075 -0.089,-0.074 v -0.082 l -0.036,-0.019 -0.066,0.074 h -0.027 l -0.028,-0.082 v -0.34 l 0.028,-0.078 -0.004,-0.055 0.019,-0.031 v -0.035 l 0.059,-0.059 v -0.047 l 0.125,-0.113 v -0.035 l 0.086,-0.129 0.027,-0.086 0.078,-0.152 0.02,-0.035 v -0.055 l 0.207,-0.191 z"
           style="fill:#eeda00;fill-opacity:1;fill-rule:nonzero;stroke:none"
           transform="matrix(1.3333333,0,0,1.3333333,1608,0)"
           clip-path="url(#clipPath30532)"
           id="path30533" />
      </g>
      <g
         id="g30536"
         clip-path="url(#clipPath30537)"
         transform="matrix(0.26458333,0,0,0.26458333,-555.40593,124.2441)">
        <path
           d="m 939.434,254.379 0.144,-0.039 0.578,0.41 0.09,-0.051 0.059,-0.008 0.027,0.059 h 0.098 l 0.019,0.109 0.016,0.176 -0.02,0.035 v 0.067 l -0.027,0.058 -0.004,0.133 0.086,0.172 v 0.484 l -0.023,-0.023 -0.016,-0.008 -0.008,-0.035 -0.031,-0.008 -0.008,0.028 -0.043,0.011 -0.012,-0.031 h -0.023 l -0.016,0.227 -0.011,0.07 -0.016,0.445 h -0.641 l -0.308,-0.117 -0.051,-0.02 -0.051,-0.003 -0.258,-0.301 -0.011,-0.047 0.031,-0.024 -0.008,-0.074 -0.09,-0.074 v -0.082 l -0.035,-0.016 -0.066,0.071 h -0.028 l -0.027,-0.082 v -0.34 l 0.027,-0.078 -0.004,-0.055 0.02,-0.031 v -0.035 l 0.059,-0.059 v -0.047 l 0.125,-0.113 -0.004,-0.035 0.089,-0.129 0.028,-0.086 0.078,-0.149 0.02,-0.035 v -0.058 l 0.207,-0.188 z"
           style="fill:#eeda00;fill-opacity:1;fill-rule:nonzero;stroke:none"
           transform="matrix(1.3333333,0,0,1.3333333,1608,0)"
           clip-path="url(#clipPath30535)"
           id="path30536" />
      </g>
      <g
         id="g30539"
         clip-path="url(#clipPath30540)"
         transform="matrix(0.26458333,0,0,0.26458333,-555.40593,124.2441)">
        <path
           d="m 936.66,254.422 c 0,0 0.211,0.633 0.184,1.258 -0.028,0.625 -0.184,1.324 -0.184,1.324 0,0 -0.172,0.605 -0.258,0.855 -0.086,0.25 -0.375,0.805 -0.375,0.805 0,0 -0.211,0.375 -0.336,0.52 -0.125,0.144 -0.289,0.355 -0.453,0.441 -0.164,0.086 -0.324,0.117 -0.324,0.117 0,0 -0.078,-0.144 -0.078,-0.183 v -0.739 l 0.059,-0.617 c 0,0 0.105,-0.449 0.25,-0.805 0.144,-0.355 0.296,-0.664 0.296,-0.664 l 0.184,-0.546 0.277,-0.825 0.223,-0.554 c 0,0 0.066,-0.145 0.23,-0.243 0.161,-0.093 0.305,-0.144 0.305,-0.144"
           style="fill:#ffffff;fill-opacity:1;fill-rule:nonzero;stroke:none"
           transform="matrix(1.3333333,0,0,1.3333333,1608,0)"
           clip-path="url(#clipPath30538)"
           id="path30539" />
      </g>
      <g
         id="g30542"
         clip-path="url(#clipPath30543)"
         transform="matrix(0.26458333,0,0,0.26458333,-555.40593,124.2441)">
        <path
           d="m 934.98,260.184 c -1.503,1.691 -2.828,1.914 -2.828,1.914 0,0 0.219,-1.086 2.735,-1.907 z"
           style="fill:#ffffff;fill-opacity:1;fill-rule:nonzero;stroke:none"
           transform="matrix(1.3333333,0,0,1.3333333,1608,0)"
           clip-path="url(#clipPath30541)"
           id="path30542" />
      </g>
      <g
         id="g30545"
         clip-path="url(#clipPath30546)"
         transform="matrix(0.26458333,0,0,0.26458333,-555.40593,124.2441)">
        <path
           d="m 926.922,261.508 c 0,0 0.273,0.535 0.695,0.801 0.426,0.261 0.981,0.261 1.238,0.285 0.254,0.027 0.766,0.051 1.223,0.031 0.453,-0.016 0.922,-0.164 1.055,-0.223 0.137,-0.058 0.48,-0.211 0.621,-0.332 0.141,-0.121 0.379,-0.543 0.398,-0.562 0.02,-0.02 -1.062,-1.051 -1.113,-1.043 -0.055,0.004 0.004,-0.047 -0.109,-0.047 -0.118,0 -1.227,0.066 -1.535,0 -0.309,-0.063 -1.122,-0.109 -1.219,-0.121 -0.094,-0.012 -0.27,0.039 -0.36,0.109 -0.324,0.254 -0.812,0.875 -0.894,1.102"
           style="fill:#ffffff;fill-opacity:1;fill-rule:nonzero;stroke:none"
           transform="matrix(1.3333333,0,0,1.3333333,1608,0)"
           clip-path="url(#clipPath30544)"
           id="path30545" />
      </g>
      <g
         id="g30548"
         clip-path="url(#clipPath30549)"
         transform="matrix(0.26458333,0,0,0.26458333,-555.40593,124.2441)">
        <path
           d="m 923.969,259.742 c 0,0 0.078,-0.043 0.14,-0.035 0.059,0.012 0.086,0.043 0.118,0.082 0.031,0.039 0.171,0.215 0.171,0.215 0,0 0.032,0.086 0.207,0.238 0.176,0.156 0.426,0.367 0.426,0.367 0,0 0.258,0.196 0.289,0.215 0.032,0.024 0.344,0.242 0.426,0.285 0.078,0.047 0.227,0.145 0.34,0.203 0.113,0.055 0.328,0.18 0.398,0.215 0.067,0.039 0.176,0.125 0.223,0.168 0.047,0.043 0.102,0.102 0.141,0.153 0.039,0.05 0.109,0.175 0.113,0.199 0.004,0.027 -0.023,0.035 -0.07,0.019 -0.215,-0.062 -0.282,-0.121 -0.387,-0.164 -0.137,-0.054 -0.484,-0.246 -0.484,-0.246 0,0 -0.61,-0.363 -0.668,-0.422 -0.063,-0.058 -0.493,-0.339 -0.567,-0.414 -0.07,-0.07 -0.414,-0.355 -0.449,-0.41 -0.035,-0.055 -0.195,-0.195 -0.27,-0.355 -0.054,-0.121 -0.097,-0.106 -0.097,-0.313"
           style="fill:#ffffff;fill-opacity:1;fill-rule:nonzero;stroke:none"
           transform="matrix(1.3333333,0,0,1.3333333,1608,0)"
           clip-path="url(#clipPath30547)"
           id="path30548" />
      </g>
      <g
         id="g30551"
         clip-path="url(#clipPath30552)"
         transform="matrix(0.26458333,0,0,0.26458333,-555.40593,124.2441)">
        <path
           d="m 922.699,253.77 0.731,0.335 c 0,0 0.109,0.872 0.136,1.2 0.016,0.242 0.153,0.75 0.219,0.902 0.067,0.156 0.309,0.836 0.356,0.922 0.047,0.086 0.058,0.281 0.058,0.281 l -0.164,1.914 -0.066,0.129 -0.117,0.086 c 0,0 -0.536,-0.414 -0.836,-1.055 -0.297,-0.644 -0.43,-1.363 -0.43,-1.363 0,0 -0.145,-0.738 -0.172,-0.988 -0.031,-0.25 -0.078,-1.449 -0.07,-1.692 0.011,-0.238 0.078,-0.296 0.136,-0.421 0.059,-0.125 0.219,-0.25 0.219,-0.25"
           style="fill:#ffffff;fill-opacity:1;fill-rule:nonzero;stroke:none"
           transform="matrix(1.3333333,0,0,1.3333333,1608,0)"
           clip-path="url(#clipPath30550)"
           id="path30551" />
      </g>
      <g
         id="g30554"
         clip-path="url(#clipPath30555)"
         transform="matrix(0.26458333,0,0,0.26458333,-555.40593,124.2441)">
        <path
           d="m 928.066,255.613 c 0,0 0.223,-0.328 0.403,-0.355 0.183,-0.028 0.347,-0.078 0.828,-0.078 0.48,0 0.883,0.039 0.941,0.05 0.059,0.008 0.356,0.047 0.489,0.106 0.136,0.055 0.289,0.211 0.289,0.211 0,0 1,2.074 1.066,2.332 0.066,0.258 -0.039,0.516 -0.098,0.652 -0.058,0.133 -0.343,0.606 -0.422,0.731 -0.078,0.125 -0.316,0.422 -0.5,0.586 -0.183,0.16 -0.429,0.246 -0.554,0.285 -0.125,0.039 -0.52,0.074 -1.059,0.051 -0.535,-0.02 -1.027,-0.098 -1.258,-0.164 -0.23,-0.067 -0.382,-0.204 -0.461,-0.313 -0.074,-0.109 -0.668,-1.348 -0.769,-1.625 -0.102,-0.281 0,-0.394 0,-0.394 0,0 0.469,-1.247 1.105,-2.075"
           style="fill:#ffffff;fill-opacity:1;fill-rule:nonzero;stroke:none"
           transform="matrix(1.3333333,0,0,1.3333333,1608,0)"
           clip-path="url(#clipPath30553)"
           id="path30554" />
      </g>
      <g
         id="g30557"
         clip-path="url(#clipPath30558)"
         transform="matrix(0.26458333,0,0,0.26458333,-555.40593,124.2441)">
        <path
           d="m 924.438,252.262 c 0,0 0.21,-0.297 0.261,-0.324 0.047,-0.032 0.199,-0.145 0.489,-0.118 0.289,0.032 0.152,0.028 0.757,0.219 0.606,0.195 0.969,0.328 0.969,0.328 0,0 0.25,0.071 0.356,0.203 0.105,0.133 0.085,0.114 0.164,0.317 0.078,0.203 0.078,0.519 0.152,0.703 0.078,0.18 0.16,0.64 0.258,0.883 0.097,0.246 0.14,0.379 0.14,0.379 0,0 0.082,0.078 0,0.242 -0.082,0.168 -0.472,0.89 -0.507,1 -0.032,0.109 -0.372,0.722 -0.395,0.785 -0.027,0.066 -0.141,0.266 -0.211,0.34 -0.07,0.078 -0.18,0.16 -0.25,0.187 -0.07,0.024 -0.402,0.016 -0.613,0 -0.215,-0.019 -0.797,-0.136 -1.02,-0.207 -0.222,-0.07 -0.39,-0.183 -0.504,-0.289 -0.117,-0.101 -0.175,-0.137 -0.257,-0.305 -0.082,-0.167 -0.301,-1.089 -0.36,-1.304 -0.055,-0.219 -0.14,-0.77 -0.14,-0.992 0,-0.227 -0.024,-0.36 0.109,-0.782 0.137,-0.422 0.5,-1.183 0.602,-1.265"
           style="fill:#ffffff;fill-opacity:1;fill-rule:nonzero;stroke:none"
           transform="matrix(1.3333333,0,0,1.3333333,1608,0)"
           clip-path="url(#clipPath30556)"
           id="path30557" />
      </g>
      <g
         id="g30560"
         clip-path="url(#clipPath30561)"
         transform="matrix(0.26458333,0,0,0.26458333,-555.40593,124.2441)">
        <path
           d="m 931.781,253.297 c 0,0 0.16,-0.379 0.231,-0.418 0.07,-0.035 0.101,-0.09 0.285,-0.125 0.187,-0.039 0.699,-0.109 1.09,-0.137 0.39,-0.023 0.695,-0.051 0.832,-0.058 0.133,-0.004 0.418,-0.016 0.531,0.054 0.113,0.071 0.262,0.274 0.309,0.352 0.043,0.074 0.242,0.48 0.242,0.48 l 0.32,0.637 c 0,0 0.141,0.27 0.184,0.441 0.047,0.176 0.007,0.352 -0.032,0.512 -0.039,0.16 -0.273,0.832 -0.32,0.949 -0.043,0.114 -0.391,1.012 -0.391,1.012 l -0.16,0.352 c 0,0 -0.043,0.172 -0.332,0.293 -0.289,0.121 -0.523,0.136 -0.875,0.171 -0.355,0.04 -0.558,0.051 -0.847,0.067 -0.286,0.012 -0.434,0.008 -0.524,-0.16 -0.09,-0.168 -0.39,-0.781 -0.39,-0.781 l -0.383,-0.844 -0.258,-0.551 c 0,0 -0.113,-0.188 -0.094,-0.5 0.02,-0.313 0.274,-0.992 0.321,-1.121 0.042,-0.125 0.261,-0.625 0.261,-0.625"
           style="fill:#ffffff;fill-opacity:1;fill-rule:nonzero;stroke:none"
           transform="matrix(1.3333333,0,0,1.3333333,1608,0)"
           clip-path="url(#clipPath30559)"
           id="path30560" />
      </g>
      <g
         id="g30563"
         clip-path="url(#clipPath30564)"
         transform="matrix(0.26458333,0,0,0.26458333,-555.40593,124.2441)">
        <path
           d="m 929.629,249.375 c 0,0 -0.004,-0.48 0.012,-0.703 0.011,-0.098 0.07,-0.25 0.308,-0.317 0.242,-0.066 0.442,-0.125 0.664,-0.125 0.219,0 1.153,0.243 1.325,0.309 0.171,0.066 0.89,0.395 1.066,0.488 0.172,0.098 0.758,0.473 0.922,0.586 0.16,0.117 0.39,0.367 0.496,0.481 0.105,0.113 0.242,0.363 0.262,0.453 0.019,0.086 0.132,0.687 0.113,1.055 -0.02,0.363 -0.086,0.527 -0.086,0.527 0,0 -0.02,0.098 -0.25,0.144 -0.231,0.047 -1.488,0.114 -1.621,0.133 -0.137,0.02 -0.367,0.051 -0.395,0.051 -0.027,0 -0.289,0.035 -0.468,-0.039 -0.184,-0.078 -0.942,-0.703 -0.942,-0.703 l -0.75,-0.606 -0.375,-0.351 c 0,0 -0.066,-0.059 -0.191,-0.223 -0.125,-0.164 -0.082,-0.289 -0.09,-0.422 -0.004,-0.133 0,-0.738 0,-0.738"
           style="fill:#ffffff;fill-opacity:1;fill-rule:nonzero;stroke:none"
           transform="matrix(1.3333333,0,0,1.3333333,1608,0)"
           clip-path="url(#clipPath30562)"
           id="path30563" />
      </g>
      <g
         id="g30566"
         clip-path="url(#clipPath30567)"
         transform="matrix(0.26458333,0,0,0.26458333,-555.40593,124.2441)">
        <path
           d="m 929.395,250.512 -1.801,1.414 c 0,0 -0.18,0.199 -0.481,0.168 -0.301,-0.032 -0.672,-0.168 -0.672,-0.168 0,0 -0.371,-0.133 -0.75,-0.203 -0.375,-0.071 -0.484,-0.082 -0.566,-0.149 -0.086,-0.062 -0.285,-0.172 -0.285,-0.512 0,-0.339 0.086,-0.921 0.156,-1.14 0.07,-0.215 0.16,-0.344 0.262,-0.445 0.101,-0.102 0.64,-0.481 0.871,-0.582 0.23,-0.102 0.723,-0.34 1.156,-0.45 0.438,-0.109 0.707,-0.23 1.082,-0.215 0.379,0.016 0.656,0.086 0.719,0.118 0.062,0.035 0.25,0.168 0.281,0.386 0.031,0.219 0.071,0.485 0.071,0.754 0,0.27 -0.024,0.645 -0.032,0.676 -0.008,0.027 -0.015,0.238 -0.011,0.348"
           style="fill:#ffffff;fill-opacity:1;fill-rule:nonzero;stroke:none"
           transform="matrix(1.3333333,0,0,1.3333333,1608,0)"
           clip-path="url(#clipPath30565)"
           id="path30566" />
      </g>
      <g
         id="g30569"
         clip-path="url(#clipPath30570)"
         transform="matrix(0.26458333,0,0,0.26458333,-555.40593,124.2441)">
        <path
           d="m 942.902,229.812 h -27.023 v 26.868 c 0.078,0.898 0.266,2.996 1.293,5.164 0.988,2.082 2.547,3.972 4.383,5.32 2.281,1.676 4.937,2.543 7.89,2.578 h 0.008 l 0.008,-0.004 c 2.84,-0.078 5.406,-0.918 7.625,-2.496 1.785,-1.269 3.312,-3.031 4.293,-4.961 1.508,-2.949 1.523,-5.511 1.523,-5.617 z m -0.343,0.344 v 26.508 c 0,0.695 -0.231,3.004 -1.489,5.461 -1.715,3.367 -5.566,7.102 -11.621,7.27 -6.285,-0.075 -10.234,-4.047 -11.965,-7.7 -0.945,-2 -1.16,-3.91 -1.261,-5.047 v -26.492 z"
           style="fill:#0059a2;fill-opacity:1;fill-rule:nonzero;stroke:none"
           transform="matrix(1.3333333,0,0,1.3333333,1608,0)"
           clip-path="url(#clipPath30568)"
           id="path30569" />
      </g>
    </g>
  </g>
</svg>
