<?xml version="1.0" encoding="utf-8"?>
<!-- Generator: Adobe Illustrator 13.0.0, SVG Export Plug-In . SVG Version: 6.00 Build 14948)  -->
<!DOCTYPE svg PUBLIC "-//W3C//DTD SVG 1.0//EN" "http://www.w3.org/TR/2001/REC-SVG-20010904/DTD/svg10.dtd">
<svg version="1.0" id="HQFL" xmlns="http://www.w3.org/2000/svg" xmlns:xlink="http://www.w3.org/1999/xlink" x="0px" y="0px"
	 width="168.3265px" height="197.7445px" viewBox="0 0 336.653 395.489" enable-background="new 0 0 336.653 395.489"
	 xml:space="preserve">
<path fill="#E32219" d="M69.492,117.294c-0.05-1.295-0.075-2.598-0.075-3.905c0-54.8,44.425-99.225,99.225-99.225
	c27.2,0,51.846,10.945,69.768,28.67c0,0-57.955,14.643-115.442,5.98c-1.575,7.875,1.575,27.563,0,36.225
	c100.012,11.025,135.641-13.588,136.274-12.177c5.543,12.374,8.625,26.09,8.625,40.527c0,54.8-44.426,99.225-99.225,99.225
	c-37.091,0-69.428-20.351-86.456-50.496c0,0,67.556,18.996,136.068-1.479c0,0,0-29.925,0-40.95
	C118.242,140.164,69.492,117.294,69.492,117.294z"/>
<rect x="99.605" y="217.351" fill="#2F4694" width="12.6" height="160.124"/>
<polygon fill="#2F4694" points="237.167,381.15 250.815,395.489 89.104,395.324 99.605,381.15 "/>
<path fill="#2F4694" d="M90.791,40.539C61.662,32.655,31.202,19.727,0.117,0c-0.263,15.75,0,114.45,0,114.45l85.43,90.11
	l24.032-0.598l-74.025-82.688c0,0,14.175,0,28.35,0c-1.575-7.875,0-21.262,0-21.262H30.83V56.7c0,0,25.654,8.201,40.163,14.175
	C78.867,54.337,90.791,40.539,90.791,40.539z"/>
<path fill="#2F4694" d="M245.864,40.539C274.992,32.655,305.452,19.727,336.537,0c0.261,15.75,0,114.45,0,114.45l-85.429,90.11
	l-24.034-0.598l74.025-82.688c0,0-14.175,0-28.35,0c1.575-7.875,0-21.262,0-21.262h33.075V56.7c0,0-25.652,8.201-40.163,14.175
	C257.787,54.337,245.864,40.539,245.864,40.539z"/>
<polygon fill="#2F4694" points="160.607,236.25 160.607,217.35 195.263,217.353 195.257,377.474 180.031,377.474 180.046,236.25 "/>
<g>
	<path fill="#2F4694" d="M119.03,273.523h19.424v103.95h15.226v-160.12l-34.65-0.002V273.523z M131.105,236.25h7.359v18.9h-7.371
		L131.105,236.25z"/>
	<path fill="#2F4694" d="M202.504,217.35v56.173h19.423v103.95h15.227V217.353L202.504,217.35z M221.94,255.15h-7.371l0.012-18.9
		h7.358V255.15z"/>
</g>
</svg>
