<?xml version="1.0" encoding="UTF-8" standalone="no"?>
<!-- Created with Inkscape (http://www.inkscape.org/) -->

<svg
   xmlns="http://www.w3.org/2000/svg"
   xmlns:xlink="http://www.w3.org/1999/xlink"
   xmlns:sodipodi="http://sodipodi.sourceforge.net/DTD/sodipodi-0.dtd"
   xmlns:inkscape="http://www.inkscape.org/namespaces/inkscape"
   width="264.044740905"
   height="378.7236953"
   viewBox="0 0 278.87846 399.99987"
   id="svg2"
   version="1.1"
   inkscape:version="0.91 r13725"
   sodipodi:docname="Fiji_FA.svg">
  <defs
     id="defs4">
    <linearGradient
       id="stop0">
      <stop
         id="stop3450"
         offset="0"
         stop-color="#00aaec" />
      <stop
         id="stop3452"
         offset="1"
         stop-color="#0076d0" />
    </linearGradient>
    <linearGradient
       gradientUnits="userSpaceOnUse"
       x2="641.65002"
       x1="255.67"
       xlink:href="#stop0" />
    <linearGradient
       gradientUnits="userSpaceOnUse"
       x2="861.70001"
       x1="725.20001"
       xlink:href="#stop0" />
    <clipPath
       id="clipPath5029"
       clipPathUnits="userSpaceOnUse">
      <rect
         transform="scale(1,-1)"
         y="-790.0863"
         x="271.35229"
         height="94.85714"
         width="53.714287"
         id="rect5031"
         style="fill:#0000ff;fill-rule:evenodd;stroke:#000000;stroke-width:0.80000001px;stroke-linecap:butt;stroke-linejoin:miter;stroke-opacity:1" />
    </clipPath>
    <clipPath
       clipPathUnits="userSpaceOnUse"
       id="clipPath2999">
      <path
         d="m 0,0 595.276,0 0,841.89 L 0,841.89 0,0 Z"
         id="path3001"
         inkscape:connector-curvature="0" />
    </clipPath>
    <clipPath
       clipPathUnits="userSpaceOnUse"
       id="clipPath3007">
      <path
         d="m 0,0 595.278,0 0,841.887 L 0,841.887 0,0 Z"
         id="path3009"
         inkscape:connector-curvature="0" />
    </clipPath>
    <clipPath
       clipPathUnits="userSpaceOnUse"
       id="clipPath3017">
      <path
         d="m -8.505,-8.505 612.288,0 0,858.897 -612.288,0 0,-858.897 z"
         id="path3019"
         inkscape:connector-curvature="0"
         style="clip-rule:evenodd" />
    </clipPath>
    <clipPath
       clipPathUnits="userSpaceOnUse"
       id="clipPath3025">
      <path
         d="m -44.073,850.392 683.424,0 0,-858.897 -683.424,0 0,858.897 z"
         id="path3027"
         inkscape:connector-curvature="0" />
    </clipPath>
    <clipPath
       clipPathUnits="userSpaceOnUse"
       id="clipPath3033">
      <path
         d="M 595.278,841.887 0,841.887 0,0 l 595.278,0 0,841.887 z M 46.35,650.034 l 505.917,0 0,-71.514 -505.917,0 0,71.514 z"
         id="path3035"
         inkscape:connector-curvature="0" />
    </clipPath>
    <clipPath
       clipPathUnits="userSpaceOnUse"
       id="clipPath3045">
      <path
         d="m 8.505,700.155 578.268,0 0,85.041 -578.268,0 0,-85.041 z"
         id="path3047"
         inkscape:connector-curvature="0"
         style="clip-rule:evenodd" />
    </clipPath>
    <clipPath
       clipPathUnits="userSpaceOnUse"
       id="clipPath3153">
      <path
         d="m 29.763,28.962 110.16,0 0,45.126 -110.16,0 0,-45.126 z"
         id="path3155"
         inkscape:connector-curvature="0"
         style="clip-rule:evenodd" />
    </clipPath>
    <clipPath
       clipPathUnits="userSpaceOnUse"
       id="clipPath3161">
      <path
         d="m 0.938,2.957 1,0 0,1 -1,0 0,-1 z"
         id="path3163"
         inkscape:connector-curvature="0" />
    </clipPath>
    <clipPath
       clipPathUnits="userSpaceOnUse"
       id="clipPath3173">
      <path
         d="m 552.267,650.034 -505.917,0 0,-71.514 505.917,0 0,71.514 z"
         id="path3175"
         inkscape:connector-curvature="0" />
    </clipPath>
    <clipPath
       clipPathUnits="userSpaceOnUse"
       id="clipPath3181">
      <path
         d="m 46.162,578.346 506.327,0 0,72.006 -506.327,0 0,-72.006 z"
         id="path3183"
         inkscape:connector-curvature="0" />
    </clipPath>
    <clipPath
       clipPathUnits="userSpaceOnUse"
       id="clipPath3201">
      <path
         d="m 433.701,35.901 153.072,0 0,30.717 -153.072,0 0,-30.717 z"
         id="path3203"
         inkscape:connector-curvature="0" />
    </clipPath>
    <clipPath
       clipPathUnits="userSpaceOnUse"
       id="clipPath3289">
      <path
         d="m 481.321,50.262 c -1.215,1.215 -1.216,3.185 -0.001,4.401 1.215,1.215 3.185,1.215 4.401,0 1.215,-1.215 1.216,-3.185 10e-4,-4.401 -1.215,-1.215 -3.186,-1.216 -4.401,0"
         id="path3291"
         inkscape:connector-curvature="0" />
    </clipPath>
    <clipPath
       clipPathUnits="userSpaceOnUse"
       id="clipPath3305">
      <path
         d="m 481.292,50.188 c -0.254,0.255 -0.457,0.542 -0.608,0.848 1.186,-1.117 3.052,-1.095 4.212,0.064 1.159,1.16 1.18,3.027 0.063,4.212 0.306,-0.151 0.593,-0.353 0.847,-0.608 1.247,-1.247 1.248,-3.268 0.001,-4.515 -1.246,-1.247 -3.268,-1.247 -4.515,-10e-4"
         id="path3307"
         inkscape:connector-curvature="0" />
    </clipPath>
    <clipPath
       clipPathUnits="userSpaceOnUse"
       id="clipPath3313">
      <path
         d="m 481.321,50.262 c -1.215,1.215 -1.216,3.185 -0.001,4.401 1.215,1.215 3.185,1.215 4.401,0 1.215,-1.215 1.216,-3.185 10e-4,-4.401 -1.215,-1.215 -3.186,-1.216 -4.401,0"
         id="path3315"
         inkscape:connector-curvature="0" />
    </clipPath>
    <clipPath
       clipPathUnits="userSpaceOnUse"
       id="clipPath3323">
      <path
         d="m 481.321,50.262 c -1.215,1.215 -1.216,3.185 -0.001,4.401 1.215,1.215 3.185,1.215 4.401,0 1.215,-1.215 1.216,-3.185 10e-4,-4.401 -1.215,-1.215 -3.186,-1.216 -4.401,0"
         id="path3325"
         inkscape:connector-curvature="0" />
    </clipPath>
    <style
       type="text/css"
       id="style2989">
   
    .fil1 {fill:#2D4287}
    .fil3 {fill:#912747}
    .fil0 {fill:#B0ADB9}
    .fil2 {fill:#FEFEFE}
   
  </style>
    <clipPath
       id="clipPath6125-9">
      <path
         id="path6127-5"
         d="m 297.905,392.154 c -3.142,-10e-4 -5.688,-2.55 -5.687,-5.692 0.002,-3.142 2.551,-5.689 5.693,-5.686 3.142,10e-4 5.688,2.55 5.686,5.692 -10e-4,3.141 -2.549,5.686 -5.688,5.686 -10e-4,0 -0.003,0 -0.004,0"
         inkscape:connector-curvature="0" />
    </clipPath>
    <clipPath
       id="clipPath6037-0">
      <path
         id="path6039-7"
         d="m 297.901,398.972 c -6.908,-0.002 -12.505,-5.605 -12.501,-12.514 0.003,-6.909 5.606,-12.505 12.514,-12.501 6.909,0.002 12.506,5.606 12.502,12.514 -0.003,6.906 -5.603,12.501 -12.508,12.501 -0.003,0 -0.005,0 -0.007,0"
         inkscape:connector-curvature="0" />
    </clipPath>
    <clipPath
       id="clipPath5949-4">
      <path
         id="path5951-5"
         d="m 297.898,405.359 c -7.423,-0.004 -13.844,-4.289 -16.93,-10.517 -1.252,-2.527 -1.955,-5.375 -1.954,-8.387 10e-4,-1.194 0.113,-2.362 0.325,-3.496 l 5.992,0.004 c -0.308,1.112 -0.474,2.284 -0.475,3.495 -10e-4,2.082 0.486,4.051 1.352,5.797 2.132,4.302 6.566,7.259 11.693,7.261 5.123,0.003 9.557,-2.946 11.695,-7.239 0.872,-1.749 1.362,-3.72 1.363,-5.806 10e-4,-1.21 -0.164,-2.382 -0.472,-3.495 l 5.993,0.003 c 0.211,1.133 0.322,2.302 0.321,3.497 -10e-4,3.034 -0.717,5.9 -1.99,8.439 -3.102,6.194 -9.506,10.444 -16.903,10.444 -0.003,0 -0.007,0 -0.01,0"
         inkscape:connector-curvature="0" />
    </clipPath>
    <style
       id="style6"
       type="text/css" />
  </defs>
  <g
     inkscape:label="Layer 1"
     inkscape:groupmode="layer"
     id="layer1"
     transform="translate(386.313,-492.96885)">
    <g
       id="g5718"
       transform="matrix(0.55775687,0,0,0.55775687,-386.313,492.96882)">
      <path
         id="path5652"
         d="m 380.176,247.855 c 0,-71.891 -58.261,-130.168 -130.136,-130.168 -71.891,0 -130.152,58.277 -130.152,130.168 0,71.859 58.261,130.136 130.152,130.136 71.876,0.002 130.136,-58.277 130.136,-130.136"
         inkscape:connector-curvature="0"
         style="clip-rule:evenodd;fill:#ffffff;fill-rule:evenodd" />
      <path
         id="path5654"
         d="m 383.549,247.856 c 0,-73.755 -59.771,-133.542 -133.509,-133.542 -73.754,0 -133.525,59.787 -133.525,133.542 0,73.722 59.771,133.509 133.525,133.509 73.739,0 133.509,-59.787 133.509,-133.509 m -98.808,118.62 -15.569,-10.893 12.688,-35.445 46.256,-15.165 21.818,15.651 c -15.878,21.751 -38.683,38.114 -65.193,45.852 m 64.642,-153.773 9.388,0.938 12.283,46.225 -18.87,44.346 -1.441,3.625 -19.049,-13.466 -9.226,-51.161 26.915,-30.507 z m -40.235,-73.464 10.666,19.502 -38.18,-11.831 -16.3,-21.704 c 15.701,1.943 30.494,6.798 43.814,14.033 m -26.382,19.244 42.355,13.077 0.05,-0.146 13.595,37.161 -22.546,25.54 -42.323,-10.763 -17.432,-38.569 26.301,-26.3 z m -36.27,30.201 16.59,36.74 -23.419,43.505 -40.301,0.599 -16.395,-48.441 29.829,-34.911 33.696,2.508 z m -114.54,22.481 41.886,-57.91 20.765,0 6.264,30.427 -26.737,31.27 -31.399,6.571 -10.812,-10.245 c 0.016,-0.032 0.016,-0.065 0.033,-0.113 m -5.536,36.691 c 0,-8.481 0.858,-16.735 2.477,-24.715 l 9.468,9 -7.381,48.959 c -2.962,-10.601 -4.564,-21.737 -4.564,-33.244 m 69.061,110.915 c -27.433,-13.515 -49.104,-36.902 -60.402,-65.533 l 35.606,14.258 34.992,47.519 -10.196,3.756 z m -11.669,-51.5 14.55,-27.029 47.18,-0.713 26.252,37.032 -13.515,37.678 -39.896,0 -34.571,-46.968 z m 285.372,169.423 c -9.259,-10.536 -34.911,-2.687 -49.072,1.893 -32.71,-15.1 -61.405,-34.23 -86.8,-56.613 36.837,-19.325 59.544,-47.357 77.38,-83.062 12.041,-24.083 21.072,-50.125 22.627,-81.135 C 438.643,151.88 351.747,54.317 235.183,63.38 127.505,71.78 57.473,165.394 65.339,267.213 c 6.15,80.164 52.277,131.486 107.549,162.302 -23.825,14.551 -47.39,29.991 -66.034,47.18 -6.976,6.426 -12.43,13.854 -20.765,18.872 -30.768,-9.242 -44.137,14.89 -49.057,37.742 -14.485,7.429 -25.038,10.974 -28.307,26.415 -3.739,17.479 10.407,27.966 13.207,45.301 3.9,24.277 -2.8,44.831 3.755,62.279 7.332,19.406 30.815,30.783 52.86,37.743 17.463,5.519 40.673,9.97 58.492,11.313 66.812,5.065 98.938,-14.663 139.66,-39.621 53.978,-33.082 108.019,-69.109 149.079,-115.123 21.572,-24.163 51.596,-56.986 43.406,-84.922 M 138.931,344.593 c -13.983,-15.603 -32.499,-48.118 -35.865,-73.609 -1.813,-13.919 -2.719,-26.543 0,-47.18 2.541,-19.227 14.712,-46.547 24.536,-60.401 20.231,-28.486 55.288,-54.09 100.039,-60.37 41.79,-5.891 79.192,5.551 105.671,24.521 21.121,15.149 42.501,38.293 52.844,64.156 17.739,44.444 9.564,106.044 -15.102,139.676 -12.511,17.043 -29.261,31.27 -52.843,43.392 -19.746,10.148 -42.098,19.601 -62.263,20.75 -43.133,2.492 -88.904,-19.568 -117.017,-50.935 m 128.33,101.899 c 11.507,-3.171 36.076,16.947 43.408,22.644 9.209,7.187 22.108,17.043 33.955,24.553 3.286,2.071 7.43,4.629 10.439,7.3 -56.955,15.602 -136.357,16.864 -197.277,4.014 26.673,-28.859 71.57,-48.055 109.475,-58.511 m 111.336,128.331 c -25.88,25.896 -54.608,52.196 -86.8,71.716 -45.204,27.401 -112.242,52.471 -179.296,30.2 -21.736,-7.218 -43.942,-21.494 -33.956,-43.407 1.375,-3.044 2.509,-8.093 3.771,-9.436 11.151,-11.962 37.29,-8.465 45.285,-24.537 -2.784,-16.718 -35.51,-3.479 -39.637,-18.871 3.027,-15.474 22.093,-14.519 35.866,-18.872 13.887,-4.402 28.89,-8.869 33.956,-20.765 -16.913,-15.765 -65.679,8.108 -81.135,-11.33 3.981,-12.624 18.289,-10.665 28.307,-11.313 44.945,-2.914 84.356,7.444 128.33,9.436 40.3,1.828 85.813,3.464 120.788,-3.772 24.698,-5.113 62.329,-22.593 67.928,-11.328 4.71,9.84 -24.6,43.473 -43.407,62.279"
         inkscape:connector-curvature="0"
         style="clip-rule:evenodd;fill-rule:evenodd" />
      <path
         id="path5656"
         d="m 204.561,417.021 c 4.807,-1.813 8.886,-3.318 12.802,-4.742 l 1.651,-7.655 c -3.771,-0.825 -7.494,-1.781 -11.151,-2.865 l -3.302,15.262 z m -20.992,0.243 c 3.463,1.375 6.992,2.638 10.584,3.771 0.097,-0.032 0.211,-0.08 0.324,-0.113 l 6.62,-21.331 c -3.642,-1.263 -7.234,-2.59 -10.763,-4.128 l -6.765,21.801 z M 186.434,104.522 176.27,85.294 c -3.496,1.586 -6.928,3.302 -10.293,5.131 l 10.002,18.953 c 3.398,-1.732 6.861,-3.367 10.455,-4.856 m 43.602,-34.102 1.068,22.756 c 3.755,-0.438 7.575,-0.793 11.459,-0.987 l -1.052,-22.707 c -3.852,0.194 -7.672,0.502 -11.475,0.938 m -21.882,3.853 4.095,22.092 c 3.706,-0.826 7.461,-1.57 11.314,-2.185 l -4.128,-22.254 c -3.82,0.663 -7.559,1.457 -11.281,2.347 m -22.287,6.975 7.316,20.636 c 3.561,-1.295 7.234,-2.412 10.974,-3.464 l -7.429,-20.975 c -3.658,1.149 -7.3,2.428 -10.861,3.803 m -70.906,87.917 -19.697,-9.792 c -1.91,3.318 -3.69,6.717 -5.374,10.164 l 20.037,9.954 c 1.554,-3.529 3.238,-6.976 5.034,-10.326 m 10.828,-17.123 -18.337,-11.249 c -2.315,3.075 -4.5,6.231 -6.604,9.436 l 18.483,11.346 c 2.023,-3.27 4.192,-6.442 6.458,-9.533 m 26.527,-27.564 -13.774,-15.861 c -2.994,2.396 -5.907,4.905 -8.74,7.494 l 13.79,15.861 c 2.801,-2.606 5.698,-5.115 8.724,-7.494 m -14.89,13.58 -15.425,-14.324 c -2.67,2.751 -5.244,5.6 -7.736,8.513 l 15.603,14.485 c 2.411,-2.977 4.903,-5.891 7.558,-8.674 m 31.22,-24.666 -12.349,-17.367 c -3.253,2.023 -6.458,4.143 -9.581,6.377 l 12.203,17.156 c 3.14,-2.185 6.377,-4.224 9.727,-6.166 m 219.225,63.202 21.074,-10.472 c -1.749,-3.431 -3.626,-6.781 -5.601,-10.051 l -21.008,10.439 c 1.958,3.286 3.803,6.653 5.535,10.084 m 7.737,18.014 22.173,-8.336 c -1.311,-3.609 -2.767,-7.153 -4.305,-10.649 l -22.142,8.303 c 1.539,3.495 2.978,7.056 4.274,10.682 m -288.254,-9 -21.186,-7.915 c -1.489,3.513 -2.881,7.089 -4.16,10.699 l 21.494,8.06 c 1.166,-3.673 2.444,-7.283 3.852,-10.844 m 296.993,47.956 23.419,-3.253 c -0.355,-3.82 -0.856,-7.639 -1.472,-11.394 l -23.518,3.253 c 0.648,3.755 1.199,7.542 1.571,11.394 m -26.09,-73.543 19.357,-12.916 c -2.169,-3.171 -4.451,-6.279 -6.798,-9.306 l -19.292,12.884 c 2.348,3.025 4.597,6.149 6.733,9.338 m 22.902,53.814 23.372,-4.321 c -0.826,-3.771 -1.766,-7.51 -2.817,-11.184 l -23.436,4.353 c 1.084,3.643 2.039,7.397 2.881,11.152 M 328.667,87.383 c -3.431,-1.683 -6.928,-3.27 -10.487,-4.726 l -8.805,20.441 c 3.561,1.457 7.057,3.043 10.472,4.774 l 8.82,-20.489 z m -20.491,-8.498 c -3.608,-1.246 -7.267,-2.363 -10.989,-3.366 l -6.409,21.299 c 3.723,0.97 7.397,2.136 10.989,3.398 l 6.409,-21.331 z m -37.403,14.146 c 3.853,0.469 7.655,1.036 11.41,1.78 l 4.889,-21.752 c -3.755,-0.777 -7.526,-1.441 -11.346,-1.975 l -4.953,21.947 z m 81.557,37.08 14.729,-17.302 c -2.897,-2.509 -5.876,-4.92 -8.935,-7.235 l -14.631,17.156 c 3.058,2.347 5.97,4.807 8.837,7.381 m 13.302,13.385 17.141,-15.262 c -2.574,-2.849 -5.228,-5.617 -7.979,-8.287 l -17.074,15.214 c 2.734,2.687 5.388,5.454 7.912,8.335 m -28.905,-25.653 12.009,-18.937 c -3.188,-2.121 -6.441,-4.144 -9.76,-6.053 l -12.009,18.888 c 3.319,1.909 6.587,3.949 9.76,6.102 M 251.351,91.915 c 3.884,-0.033 7.704,0.129 11.508,0.372 l 1.44,-22.464 c -3.804,-0.308 -7.623,-0.47 -11.491,-0.518 l -1.457,22.61 z m 76.377,291.635 12.187,18.548 c 3.271,-2.007 6.49,-4.11 9.615,-6.313 l -12.446,-18.952 c -3.043,2.363 -6.167,4.597 -9.356,6.717 m 14.47,-10.795 15.133,17.253 c 3.026,-2.347 5.972,-4.807 8.853,-7.349 l -15.392,-17.543 c -2.785,2.637 -5.649,5.195 -8.594,7.639 m 15.084,-14.097 17.738,15.7 c 2.703,-2.719 5.342,-5.503 7.865,-8.384 l -17.9,-15.862 c -2.476,2.93 -5.05,5.778 -7.703,8.546 m -62.166,41.465 9.694,18.727 c 3.658,-1.295 7.251,-2.687 10.795,-4.192 L 305.83,395.77 c -3.512,1.585 -7.074,3.043 -10.714,4.353 m 17.058,-7.444 9.856,19.082 c 3.48,-1.635 6.896,-3.383 10.262,-5.229 l -10.1,-19.471 c -3.269,2.007 -6.619,3.885 -10.018,5.618 m 57.004,-47.73 19.632,14 c 2.379,-2.994 4.693,-6.069 6.895,-9.209 l -19.729,-14.032 c -2.169,3.14 -4.435,6.231 -6.798,9.241 m 59.349,-102.304 -23.564,0 c 0.129,2.379 0.193,4.791 0.193,7.202 0,1.44 -0.032,2.865 -0.097,4.305 l 23.403,0 c 0.098,-2.169 0.162,-4.37 0.162,-6.555 10e-4,-1.651 -0.032,-3.318 -0.097,-4.952 m -47.649,85.585 21.673,11.07 c 1.991,-3.269 3.9,-6.619 5.68,-10.002 L 386.625,318.26 c -1.813,3.367 -3.723,6.684 -5.747,9.97 m 21.915,-54.624 23.322,3.156 c 0.647,-3.755 1.182,-7.542 1.57,-11.394 l -23.193,-3.156 c -0.404,3.787 -0.953,7.575 -1.699,11.394 m -5.146,19.357 23.387,5.211 c 1.102,-3.658 2.121,-7.364 2.994,-11.119 l -23.079,-5.13 c -0.972,3.69 -2.056,7.38 -3.302,11.038 m -7.024,17.35 22.61,8.659 c 1.57,-3.513 3.026,-7.057 4.369,-10.65 l -22.432,-8.578 c -1.391,3.561 -2.897,7.073 -4.547,10.569 m -245.736,55.061 -15.958,16.897 c 2.784,2.654 5.649,5.212 8.594,7.655 l 15.991,-16.929 c -2.962,-2.443 -5.843,-4.969 -8.627,-7.623 m -46.288,-84.08 -22.4,6.474 c 0.826,3.771 1.748,7.494 2.768,11.184 l 22.303,-6.474 c -1.021,-3.674 -1.927,-7.413 -2.671,-11.184 m -2.477,-17.804 -23.371,1.813 c 0.356,3.82 0.841,7.639 1.408,11.411 l 23.306,-1.797 c -0.582,-3.771 -1.003,-7.575 -1.343,-11.427 m -0.599,-13.514 c 0,-2.25 0.049,-4.467 0.146,-6.684 l -23.694,0.097 c -0.016,1.408 -0.048,2.8 -0.048,4.208 0,2.46 0.064,4.872 0.146,7.3 L 95.637,254.8 c -0.049,-1.619 -0.114,-3.221 -0.114,-4.824 m 1.732,-25.458 -23.388,-3.27 c -0.55,3.788 -0.987,7.591 -1.311,11.443 l 23.5,3.27 c 0.293,-3.853 0.681,-7.672 1.199,-11.443 m 6.264,75.437 -21.38,9.144 c 1.247,3.658 2.622,7.235 4.079,10.763 l 21.267,-9.096 c -1.458,-3.528 -2.753,-7.153 -3.966,-10.811 m 8.545,20.895 -20.684,10.407 c 1.715,3.447 3.512,6.83 5.422,10.148 l 20.733,-10.407 c -1.943,-3.302 -3.755,-6.685 -5.471,-10.148 m 46.256,55.951 -12.187,19.811 c 3.091,2.267 6.28,4.419 9.517,6.474 l 12.139,-19.696 c -3.237,-2.09 -6.393,-4.258 -9.469,-6.589 m 15.392,10.228 -9.776,20.959 c 3.367,1.862 6.782,3.61 10.261,5.245 l 9.663,-20.732 c -3.463,-1.684 -6.83,-3.529 -10.148,-5.472 M 101.074,205.046 78.723,198.67 c -1.052,3.673 -1.958,7.396 -2.767,11.167 l 22.643,6.441 c 0.712,-3.802 1.537,-7.557 2.475,-11.232 m 29.878,145.277 -17.415,15.391 c 2.444,2.994 4.969,5.876 7.575,8.676 l 17.431,-15.44 c -2.638,-2.785 -5.196,-5.65 -7.591,-8.627 m -10.553,-14.697 -18.694,13.806 c 2.088,3.221 4.257,6.393 6.539,9.468 l 18.677,-13.789 c -2.297,-3.059 -4.45,-6.247 -6.522,-9.485"
         inkscape:connector-curvature="0"
         style="fill:#fcaf17" />
      <path
         id="path5658"
         d="m 222.817,429.046 0.712,0.097 -0.647,-0.615 -0.065,0.518 z m 12.075,-22.757 c -1.359,0 -5.179,-0.42 -8.756,-0.841 l -0.696,4.953 12.122,-3.513 0.065,-0.501 c -0.955,-0.064 -1.927,-0.098 -2.735,-0.098"
         inkscape:connector-curvature="0"
         style="clip-rule:evenodd;fill:#fcaf17;fill-rule:evenodd" />
      <path
         id="path5660"
         d="m 365.52,488.363 c 6.134,3.853 9.581,5.924 9.889,6.135 l 9.096,-21.073 c -3.463,-1.667 -7.024,-3.415 -10.342,-5.05 l -8.643,19.988 z m -6.717,-28.776 -11.216,17.221 c 0.695,0.454 1.392,0.891 2.071,1.343 2.735,1.796 5.244,3.415 7.574,4.921 l 11.378,-17.496 c -3.01,-1.587 -6.327,-3.642 -9.807,-5.989 m 32.71,17.188 -6.215,14.389 c 2.993,-1.118 6.49,-2.51 10.293,-4.192 2.088,-0.922 3.723,-1.7 5.033,-2.299 l 1.408,-3.252 c -2.152,-0.811 -5.972,-2.526 -10.519,-4.646 m -76.085,-47.568 c -3.562,1.279 -7.397,2.623 -11.314,3.982 l -4.854,11.814 c 2.184,1.344 4.482,2.897 6.992,4.839 0.792,0.6 1.699,1.263 2.653,1.959 l 8.691,-21.153 c -0.728,-0.469 -1.456,-0.955 -2.168,-1.441 m 10.973,7.235 -11.071,19.729 c 2.93,1.942 6.2,4.03 9.68,6.248 l 10.844,-19.358 c -3.384,-2.459 -6.572,-4.725 -9.453,-6.619 m -33.342,5.163 1.717,-5.179 c -2.59,0.89 -5.147,1.748 -7.623,2.604 2.071,0.844 4.014,1.668 5.906,2.575 m 50.417,7.041 -12.722,17.43 c 3.188,1.991 6.441,4.063 9.728,6.168 l 12.3,-16.833 c -3.091,-2.185 -6.215,-4.467 -9.306,-6.765"
         inkscape:connector-curvature="0"
         style="fill:#fcaf17" />
      <path
         id="path5662"
         d="m 378.597,574.823 c -25.88,25.896 -54.608,52.196 -86.8,71.716 -45.204,27.401 -112.242,52.471 -179.296,30.2 -21.736,-7.218 -43.942,-21.494 -33.956,-43.407 1.375,-3.044 2.509,-8.093 3.771,-9.436 11.151,-11.962 37.29,-8.465 45.285,-24.537 -2.784,-16.718 -35.51,-3.479 -39.637,-18.871 3.027,-15.474 22.093,-14.519 35.866,-18.872 13.887,-4.402 28.89,-8.869 33.956,-20.765 -16.913,-15.765 -65.679,8.108 -81.135,-11.33 3.981,-12.624 18.289,-10.665 28.307,-11.313 44.945,-2.914 84.356,7.444 128.33,9.436 40.3,1.828 85.813,3.464 120.788,-3.772 24.698,-5.113 62.329,-22.593 67.928,-11.328 4.71,9.84 -24.6,43.473 -43.407,62.279"
         inkscape:connector-curvature="0"
         style="clip-rule:evenodd;fill:#fcaf17;fill-rule:evenodd" />
      <path
         id="path5664"
         d="m 141.667,465.3 13.499,18.937 c 2.25,-1.553 4.612,-3.155 7.056,-4.759 l 2.428,-1.715 -13.094,-18.402 c -3.448,1.99 -6.798,3.996 -9.889,5.939 m 20.57,-11.912 11.944,18.549 c 3.318,-1.975 6.685,-3.901 10.035,-5.682 l -11.783,-18.289 c -3.058,1.603 -6.554,3.431 -10.196,5.422 m -30.864,19.114 c -2.331,1.926 -4.791,3.82 -7.251,5.713 l 15.052,17.352 c 2.671,-1.942 5.842,-4.226 9.387,-6.733 l -15.392,-17.739 c -0.63,0.485 -1.246,0.954 -1.796,1.407 m 49.849,-29.003 9.387,19.438 c 3.334,-1.667 6.798,-3.334 10.375,-5.001 l -9.274,-19.228 c -4.144,1.829 -7.752,3.464 -10.488,4.791 m -74.936,47.583 17.674,13.888 c 2.282,-1.214 4.806,-2.542 6.555,-3.416 l 2.945,-3.755 -17.382,-13.659 c -3.512,2.524 -6.862,4.871 -9.792,6.942 m 151.167,-78.432 9.129,20.231 c 1.506,-0.453 2.994,-0.874 4.45,-1.263 2.071,-0.582 4.338,-1.278 6.685,-2.072 l -9.323,-20.603 c -3.608,1.215 -7.299,2.446 -10.941,3.707 m -17.544,6.15 8.254,20.022 c 3.755,-1.312 7.396,-2.542 10.941,-3.658 l -8.335,-20.215 c -3.9,1.36 -7.607,2.655 -10.86,3.851 m 48.086,-16.362 c -3.011,1.004 -6.814,2.251 -11.022,3.643 l 9.711,20.23 c 3.496,-1.343 7.073,-2.801 10.698,-4.305 l -9.387,-19.568 z m -87.578,32.466 8.627,19.391 c 3.479,-1.555 7.008,-3.061 10.568,-4.549 l -8.61,-19.324 c -3.576,1.505 -7.153,3.011 -10.585,4.482 m 19.957,-8.367 8.093,19.615 c 3.593,-1.424 7.186,-2.799 10.73,-4.11 L 231.04,422.2 c -3.237,1.294 -6.847,2.768 -10.666,4.337"
         inkscape:connector-curvature="0"
         style="fill:#fcaf17" />
      <polygon
         id="polygon5666"
         points="98.323,378.257 102.45,383.47 63.396,414.447 43.036,388.795 47.422,385.313 63.639,405.772 76.053,395.916 61.842,377.983 66.212,374.502 80.423,392.451 " />
      <polygon
         id="polygon5668"
         points="36.885,378.096 33.519,372.383 76.393,346.957 79.759,352.653 " />
      <path
         id="path5670"
         d="m 49.752,319.474 c 6.215,-2.654 13.919,-2.055 18.306,8.222 3.625,8.562 0.938,15.375 -7.688,19.065 l -2.816,1.198 -2.606,-6.103 1.926,-0.809 c 5.34,-2.282 8.529,-5.309 5.972,-11.297 -2.363,-5.583 -6.328,-5.939 -11.411,-3.771 l -33.519,14.275 -2.605,-6.102 34.441,-14.678 z"
         inkscape:connector-curvature="0" />
      <polygon
         id="polygon5672"
         points="9.938,316.706 8.206,310.297 56.307,297.236 58.055,303.645 " />
      <polygon
         id="polygon5674"
         points="50.481,260.998 50.643,267.618 0.81,268.848 0,236.122 5.583,235.96 6.231,262.083 22.076,261.694 21.509,238.792 27.093,238.646 27.66,261.548 " />
      <path
         id="path5676"
         d="M 3.755,200.288 C 6.781,184.719 20.636,179.232 33.94,181.806 47.228,184.379 58.055,194.657 55.045,210.21 52.018,225.78 38.148,231.283 24.86,228.693 11.556,226.12 0.744,215.842 3.755,200.288 m 45.803,8.87 c 2.298,-11.945 -7.008,-18.937 -16.881,-20.847 -9.873,-1.894 -21.122,1.101 -23.436,13.029 -2.314,11.944 6.992,18.937 16.881,20.83 9.873,1.926 21.122,-1.084 23.436,-13.012"
         inkscape:connector-curvature="0" />
      <path
         id="path5678"
         d="m 23.824,139.627 c 6.862,-14.292 21.688,-16.088 33.875,-10.229 12.22,5.875 20.085,18.547 13.223,32.839 -6.863,14.275 -21.688,16.087 -33.875,10.212 -12.219,-5.857 -20.069,-18.53 -13.223,-32.822 m 42.049,20.184 c 5.26,-10.941 -1.958,-20.07 -11.038,-24.423 -9.063,-4.37 -20.717,-4.305 -25.96,6.651 -5.26,10.941 1.975,20.07 11.038,24.439 9.063,4.354 20.715,4.289 25.96,-6.667"
         inkscape:connector-curvature="0" />
      <polygon
         id="polygon5680"
         points="56.437,99.473 46.127,112.518 41.741,109.054 66.471,77.769 70.857,81.232 60.547,94.262 95.28,121.727 91.153,126.922 " />
      <path
         id="path5682"
         d="M 77.121,67.151 91.089,55.644 c 3.399,-2.784 7.866,-6.458 11.33,-6.976 3.788,-0.583 8.044,0.534 11.151,4.305 3.366,4.094 3.738,8.95 1.375,13.336 l 0.081,0.113 c 5.568,-2.93 11.087,-1.505 14.972,3.237 4.661,5.665 5.065,14.372 -2.606,20.668 l -18.58,15.327 -31.691,-38.503 z m 18.742,12.333 10.245,-8.416 c 5.827,-4.791 6.458,-8.853 3.14,-12.899 -4.386,-5.341 -8.804,-2.978 -13.207,0.647 l -10.245,8.433 10.067,12.235 z m 14.502,17.625 12.834,-10.552 c 4.435,-3.642 5.018,-8.626 1.554,-12.851 -4.127,-5.018 -9.323,-3.091 -13.644,0.469 l -11.702,9.615 10.958,13.319 z"
         inkscape:connector-curvature="0" />
      <path
         id="path5684"
         d="m 134.189,26.997 6.555,-3.301 39.863,35.72 -6.539,3.286 -11.637,-10.925 -18.823,9.484 1.781,15.926 -6.102,3.092 -5.098,-53.282 z m 8.772,28.356 15.085,-7.623 -17.901,-17.01 -0.113,0.065 2.929,24.568 z"
         inkscape:connector-curvature="0" />
      <polygon
         id="polygon5686"
         points="189.201,51.905 214.676,45.027 216.133,50.417 184.249,59.011 171.269,10.876 177.662,9.161 " />
      <polygon
         id="polygon5688"
         points="226.297,44.137 252.614,42.064 253.035,47.632 220.131,50.206 216.214,0.502 222.85,0 " />
      <path
         id="path5690"
         d="m 301.346,3.966 7.154,1.635 8.012,52.908 -7.153,-1.603 -1.991,-15.845 -20.587,-4.661 -8.74,13.433 -6.685,-1.505 29.99,-44.362 z m -11.28,27.449 16.476,3.739 -2.961,-24.521 -0.162,-0.032 -13.353,20.814 z"
         inkscape:connector-curvature="0" />
      <path
         id="path5692"
         d="m 361.23,40.997 c 2.363,-6.765 -0.599,-11.572 -6.781,-14.518 -5.033,-2.395 -10.956,-2.961 -13.757,2.897 -2.638,5.536 4.16,9.776 10.634,14.891 6.409,5.049 12.397,11.006 8.189,19.811 -4.563,9.582 -15.781,8.95 -23.986,5.066 C 325.446,64.336 319.28,55.37 324.508,44.397 l 5.664,2.703 c -3.592,7.559 1.15,13.838 7.964,17.091 5.405,2.574 12.203,3.723 15.311,-2.768 2.93,-6.166 -3.755,-10.682 -10.181,-15.667 -6.425,-5.001 -12.688,-10.536 -8.772,-18.791 4.37,-9.145 14.422,-9.306 22.611,-5.406 9.192,4.386 14.146,12.058 9.791,22.141 l -5.666,-2.703 z"
         inkscape:connector-curvature="0" />
      <path
         id="path5694"
         d="m 403.392,70.064 c 3.787,-6.102 1.942,-11.426 -3.463,-15.65 -4.402,-3.416 -10.052,-5.276 -14.049,-0.162 -3.787,4.855 1.942,10.456 7.153,16.848 5.164,6.329 9.711,13.417 3.69,21.121 -6.522,8.368 -17.351,5.325 -24.504,-0.259 C 363.415,85.084 359.336,75 366.814,65.419 l 4.951,3.868 c -5.146,6.604 -1.876,13.757 4.063,18.402 4.727,3.689 11.119,6.296 15.555,0.631 4.208,-5.406 -1.343,-11.249 -6.555,-17.512 -5.18,-6.28 -10.1,-13.045 -4.467,-20.248 6.23,-7.979 16.07,-5.956 23.226,-0.372 8.043,6.264 11.199,14.841 4.758,23.743 l -4.953,-3.867 z"
         inkscape:connector-curvature="0" />
      <path
         id="path5696"
         d="m 445.392,91.38 c 9.905,12.366 5.131,26.495 -5.438,34.976 -10.568,8.465 -25.394,10.051 -35.314,-2.314 -9.906,-12.365 -5.114,-26.479 5.438,-34.959 10.567,-8.481 25.409,-10.068 35.314,2.297 m -36.399,29.165 c 7.606,9.484 18.969,6.911 26.818,0.631 7.833,-6.296 12.834,-16.816 5.229,-26.301 -7.608,-9.484 -18.971,-6.911 -26.804,-0.614 -7.865,6.28 -12.834,16.816 -5.243,26.284"
         inkscape:connector-curvature="0" />
      <path
         id="path5698"
         d="m 469.444,164.666 c 5.826,-4.208 6.732,-10.828 3.852,-17.124 -4.938,-10.779 -15.91,-11.297 -25.362,-6.992 -10.358,4.742 -16.913,13.255 -11.96,24.115 3.641,7.947 11.313,9.97 19.065,7.105 l 2.768,6.037 c -11.831,4.03 -21.915,0.097 -27.126,-11.33 -6.457,-14.097 0.825,-25.701 14.048,-31.738 13.143,-6.021 27.304,-3.415 33.682,10.553 4.321,9.468 2.815,19.583 -6.199,25.41 l -2.768,-6.036 z"
         inkscape:connector-curvature="0" />
      <polygon
         id="polygon5700"
         points="489.788,179.912 491.519,186.305 443.369,199.285 441.637,192.875 " />
      <path
         id="path5702"
         d="m 497.362,217.331 0.794,7.299 -47.455,24.763 -0.776,-7.299 14.323,-7.041 -2.282,-20.959 -15.538,-3.933 -0.744,-6.798 51.678,13.968 z m -29.618,-1.764 1.829,16.799 22.206,-10.763 0,-0.145 -24.035,-5.891 z"
         inkscape:connector-curvature="0" />
      <polygon
         id="polygon5704"
         points="493.283,261.71 494.433,245.137 500,245.509 497.265,285.292 491.68,284.903 492.831,268.313 448.677,265.287 449.114,258.651 " />
      <polygon
         id="polygon5706"
         points="494.303,297.657 492.911,304.131 444.163,293.611 445.571,287.104 " />
      <path
         id="path5708"
         d="m 481.792,343.007 c -6.021,14.68 -20.684,17.334 -33.227,12.203 -12.543,-5.114 -21.122,-17.317 -15.117,-31.981 5.988,-14.68 20.684,-17.334 33.211,-12.219 12.544,5.13 21.122,17.333 15.133,31.997 M 438.61,325.35 c -4.611,11.232 3.157,19.923 12.463,23.727 9.307,3.82 20.927,3.075 25.54,-8.189 4.596,-11.232 -3.155,-19.923 -12.462,-23.727 -9.308,-3.821 -20.928,-3.06 -25.541,8.189"
         inkscape:connector-curvature="0" />
      <polygon
         id="polygon5710"
         points="450.75,379.244 450.83,379.132 418.606,355.405 422.344,350.355 462.5,379.908 458.308,385.589 410.19,382.758 410.109,382.87 442.657,406.84 438.934,411.906 398.779,382.337 403.101,376.493 " />
    </g>
  </g>
</svg>
