<svg enable-background="new 0 0 100 100" height="316.227766" viewBox="0 0 100 100" width="316.227766" xmlns="http://www.w3.org/2000/svg"><path d="m87.437 0h-74.874v57.755h.003c-.001.089-.003.177-.003.266 0 21.505 16.189 36.226 37.437 41.979 21.248-5.753 37.437-20.474 37.437-41.979 0-.089-.003-.177-.003-.266h.003z" fill="#ca003d"/><g fill="#fff"><path d="m28.978 50.786v-3.569c-.571-.441-.945-1.172-.945-2.001l-.005-6.495 8.275 5.487s.759.568 1.61.512c.95-.063 1.413-.765 1.448-.817l8.056-13.627c.018-.029.988-1.492.956-3.437 0-3.679-2.982-6.661-6.661-6.661-1.34 0-2.586.396-3.63 1.076 0-.004.028-1.007-.921-1.659-1.167 2.014-2.265 4.442-3.167 7.125-.666 1.983-1.163 3.919-1.493 5.727h1.836c.379-.01.709-.213.897-.514l.544-1.247c.382-.882 1.056-1.548 1.793-1.733.311-.078.612-.133.864-.211 1.563-.586 1.717-2.024 1.729-2.45.353.18.596.546.596.969 0 .206-.142.563-.142.563-.348.899-1.184 2.006-1.371 2.204-.768.86-2.091 2.062-2.091 2.062l.001.001c-.823.762-1.392 1.851-1.476 2.93-.065.83.135 2.416.16 2.538l.037.214c0 .175-.142.317-.317.317-.063 0-.122-.019-.172-.051-.087-.056-1.94-.971-3.033-1.448v.001c-1.945-.83-3.822-1.339-5.401-1.317-.801.011-1.553.516-1.657 1.464-.191 1.752-.038 8.085.902 10.678.337.931 1.271 3.252 2.778 3.369z"/><path d="m50.376 80.943c-.18.196-.291.456-.291.742 0 .327.143.62.37.822.062-.435.378-.788.793-.904 0 0 1.39-.373 1.934-.601.292-.122.571-.443.582-.457.459-.554.879-1.391 1.144-2.372.143-.53.226-1.045.254-1.52.002-.034.087-1.074-.63-2.102-.597-.857-1.59-1.349-2.702-1.468v-.267c.685-.092 2.084-.116 3.208 1.368.835-.543 2.499-1.738 3.878-3.431 1.927-2.365 3.052-4.675 3.769-5.811.618-.978 1.487-2.474 3.178-2.457 1.268.013 2.296 1.026 2.301 2.292.005 1.947-2.373 4.996-5.229 7.413l-.909-.608c-.598.758-1.538 1.897-2.422 2.873-1.223 1.351-2.342 2.461-2.342 2.461 3.246-.464 6.673-2.081 8.186-3.045l-1.025-.686c.283-.158.565-.321.846-.493 2.39-1.466 4.354-3.245 5.815-5.07 2.366-2.955 2.142-6.45 2.142-6.45 0-2.942-2.385-5.326-5.326-5.326h-.004c-.366 0-1.462.164-1.666.196l-.003-2.501c-.033-.822-.696-1.481-1.521-1.506v-.003h-1.466c.415-1.273 1.346-2.922 1.825-3.614.964-1.394 3.192-4.002 4.917-3.199.565.382.622 1.089.632 1.162 0 .001.192.922-.397 2.387.001 0 .001 0 .002.001-.139.353-1.168 1.939-1.131 3.26.03 1.067.405 2.041 1.054 2.783.836-2.294 2.404-3.819 4.404-5.642 2.025-1.846 1.881-4.002 1.881-4.002-.032-2.244-1.861-4.053-4.113-4.053-.8 0-1.545.228-2.177.623l-3.178 1.946c-.148.079-.317.124-.496.124-.31 0-.559-.134-.782-.348-1.629-1.564-3.323-4.539-7.6-4.941.387-.426 1.011-.732 1.74-.823 0 0 .25-.038.866-.046 0 0 4.141.087 4.182.087 1.7 0 3.239-.485 4.36-1.27 1.401-.926 2.338-2.496 2.389-4.288l-2.609 1.403c-.046-.134-.071-.277-.071-.427 0-.475.249-.89.624-1.124.083-.052 3.047-1.595 3.551-1.975 1.077-.812 1.889-2.101 1.918-3.82.017-1.001-.31-1.93-.838-2.697-.105 1.181-1.096 2.108-2.305 2.108h-12.514c.142-.364.561-1.431.765-1.792.254-.452.703-.593.703-.593.744-.293 1.037-.938 1.037-.938h-.752l.98-.943c-.511.045-.998-.208-2.215-.786-.906-.431-1.381-.421-1.498-.418-.834.02-1.202.607-1.301.993-.051.199-.338 1.181-.442 1.583-.218.844-.072 1.233-.028 1.347.124.319.383.553.702.662l-.225.537c-.768-.162-1.923-1.126-3.019-2.207l2.37-3.976.339-.038c.49-.068.772-.548.958-.902.13-.248.134-.515-.063-.698l-.163-.158 1.536-2.595-.772-.456-1.57 2.654c-.781-.197-1.445-.081-1.445-.081l-6.845.988c-.299.027-.585.311-.537.631.254 1.688 1.291 3.921 2.936 6.135l1.812-3.019c-.917-1.012-1.582-1.834-1.582-1.834l4.797-1.379-19.832 33.264-.97-.553.009 3.134 2.702-1.59-.957-.545 3.974-6.666s.107-.192.267-.31c.143-.105.326-.172.516-.17.201.002.392.062.573.238 1.476 1.372 3.285 2.569 5.358 3.466.566.245 1.135.459 1.704.645-.006-.138-.012-.276-.012-.415 0-3.264 1.669-6.113 4.151-7.647l.15.637c-3.325 2.82-3.097 6.686-2.579 8.434 1.127 3.798 4.367 5.929 7.833 5.94.299.001 4.12-.109 4.12-.109.125 0 .226.101.226.226v.52c-1.348.468-2.782 1.096-4.259 1.858-2.535 1.308-7.952 4.286-6.686 7.203-.154.006-.308.014-.464.026-.25-.375-.354-.8-.354-1.301 0-.508.132-1.797 1.999-3.402 1.122-.965 4.763-3.501 4.763-3.501-.166.011-.333.017-.502.017-1.862 0-3.582-.645-4.971-1.735 0 0-4.34 2.91-5.54 6.425-.684 2.003.286 3.715.803 4.435-.137.061-.271.124-.403.19-1.017-1.018-2.791-3.73.22-7.764 1.708-2.289 3.487-3.659 4.043-4.075-1.259-1.305-2.132-3.025-2.416-4.952 0 0-5.439 3.094-7.315 9.994-1.495 5.5 1.655 7.977 2.961 8.727-.069.085-.136.17-.199.257-.882-.305-1.614-.87-2.285-1.49-1.266.125-4.319.189-6.908-1.786-.698-.532-1.853-1.849-1.732-3.895.116-1.958 1.088-3.268 1.73-4.01.042-.049.099-.086.168-.086.115 0 .208.093.208.208 0 .025-.011.07-.011.07l-.116.505c.844-.593.763-1.897.763-1.926 0-.296-.24-.535-.535-.535-.109 0-.211.033-.296.09l-4.547 3.071 2.032-6.903s-1.129-.063-1.144-.063c-.202 0-.378.108-.476.269l-7.937 12.753 3.902-1.156-.642 2.868 2.254-1.261v-.001c2.311 6.398 8.704 10.998 16.229 10.998 1.973 0 3.868-.317 5.632-.899h.004c.034-.009.061-.013.093-.013.153 0 .292.115.317.248.067.359.016.722-.068 1.031-.091.339-.203.569-.387.838-.097.142-.262.229-.441.252l-3.071.273c-1.339.122-2.389 1.247-2.389 2.618 0 .215.027.424.075.625.4-.841 1.233-1.436 2.212-1.497-.327.294-.534.72-.534 1.194 0 .506.234.956.599 1.251.26-1.037 1.134-1.829 2.217-1.967.161-.02.387-.037.695.004z"/></g></svg>