<?xml version="1.0" encoding="UTF-8" standalone="no"?>
<!-- Created with Inkscape (http://www.inkscape.org/) -->

<svg
   width="83.684799mm"
   height="83.681824mm"
   viewBox="0 0 83.684801 83.681826"
   version="1.1"
   id="svg1"
   xmlns="http://www.w3.org/2000/svg"
   xmlns:svg="http://www.w3.org/2000/svg">
  <defs
     id="defs1">
    <clipPath
       clipPathUnits="userSpaceOnUse"
       id="clipPath11941">
      <path
         d="m 719.395,393.668 h 30.197 v 37.193 h -30.197 z"
         transform="translate(-748.71892,-416.63601)"
         id="path11941" />
    </clipPath>
    <clipPath
       clipPathUnits="userSpaceOnUse"
       id="clipPath11943">
      <path
         d="m 719.395,393.668 h 30.197 v 37.193 h -30.197 z"
         transform="translate(-734.49352,-403.41591)"
         id="path11943" />
    </clipPath>
    <clipPath
       clipPathUnits="userSpaceOnUse"
       id="clipPath11945">
      <path
         d="m 719.395,393.668 h 30.197 v 37.193 h -30.197 z"
         transform="translate(-723.25672,-421.40911)"
         id="path11945" />
    </clipPath>
    <clipPath
       clipPathUnits="userSpaceOnUse"
       id="clipPath11947">
      <path
         d="m 719.395,393.668 h 30.197 v 37.193 h -30.197 z"
         transform="translate(-726.54632,-423.94191)"
         id="path11947" />
    </clipPath>
    <clipPath
       clipPathUnits="userSpaceOnUse"
       id="clipPath11949">
      <path
         d="m 719.395,393.668 h 30.197 v 37.193 h -30.197 z"
         transform="translate(-725.36972,-422.31301)"
         id="path11949" />
    </clipPath>
    <clipPath
       clipPathUnits="userSpaceOnUse"
       id="clipPath11951">
      <path
         d="m 719.395,393.668 h 30.197 v 37.193 h -30.197 z"
         transform="translate(-725.05192,-421.91381)"
         id="path11951" />
    </clipPath>
    <clipPath
       clipPathUnits="userSpaceOnUse"
       id="clipPath11953">
      <path
         d="m 719.395,393.668 h 30.197 v 37.193 h -30.197 z"
         transform="translate(-745.73042,-421.43811)"
         id="path11953" />
    </clipPath>
    <clipPath
       clipPathUnits="userSpaceOnUse"
       id="clipPath11955">
      <path
         d="m 719.395,393.668 h 30.197 v 37.193 h -30.197 z"
         transform="translate(-742.44082,-423.97101)"
         id="path11955" />
    </clipPath>
    <clipPath
       clipPathUnits="userSpaceOnUse"
       id="clipPath11957">
      <path
         d="m 719.395,393.668 h 30.197 v 37.193 h -30.197 z"
         transform="translate(-743.61742,-422.34201)"
         id="path11957" />
    </clipPath>
    <clipPath
       clipPathUnits="userSpaceOnUse"
       id="clipPath11959">
      <path
         d="m 719.395,393.668 h 30.197 v 37.193 h -30.197 z"
         transform="translate(-743.93512,-421.94301)"
         id="path11959" />
    </clipPath>
    <clipPath
       clipPathUnits="userSpaceOnUse"
       id="clipPath11961">
      <path
         d="m 719.395,393.668 h 30.197 v 37.193 h -30.197 z"
         transform="translate(-728.79712,-411.44391)"
         id="path11961" />
    </clipPath>
    <clipPath
       clipPathUnits="userSpaceOnUse"
       id="clipPath11963">
      <path
         d="m 719.395,393.668 h 30.197 v 37.193 h -30.197 z"
         transform="translate(-728.02282,-410.78111)"
         id="path11963" />
    </clipPath>
    <clipPath
       clipPathUnits="userSpaceOnUse"
       id="clipPath11965">
      <path
         d="m 719.395,393.668 h 30.197 v 37.193 h -30.197 z"
         transform="translate(-730.31372,-411.47701)"
         id="path11965" />
    </clipPath>
    <clipPath
       clipPathUnits="userSpaceOnUse"
       id="clipPath11967">
      <path
         d="m 719.395,393.668 h 30.197 v 37.193 h -30.197 z"
         transform="translate(-729.65702,-411.66551)"
         id="path11967" />
    </clipPath>
    <clipPath
       clipPathUnits="userSpaceOnUse"
       id="clipPath11969">
      <path
         d="m 719.395,393.668 h 30.197 v 37.193 h -30.197 z"
         transform="translate(-727.67962,-410.55251)"
         id="path11969" />
    </clipPath>
    <clipPath
       clipPathUnits="userSpaceOnUse"
       id="clipPath11971">
      <path
         d="m 719.395,393.668 h 30.197 v 37.193 h -30.197 z"
         transform="translate(-728.87352,-411.16151)"
         id="path11971" />
    </clipPath>
    <clipPath
       clipPathUnits="userSpaceOnUse"
       id="clipPath11973">
      <path
         d="m 719.395,393.668 h 30.197 v 37.193 h -30.197 z"
         transform="translate(-728.23602,-410.73421)"
         id="path11973" />
    </clipPath>
    <clipPath
       clipPathUnits="userSpaceOnUse"
       id="clipPath11975">
      <path
         d="m 719.395,393.668 h 30.197 v 37.193 h -30.197 z"
         transform="translate(-730.46992,-411.19511)"
         id="path11975" />
    </clipPath>
    <clipPath
       clipPathUnits="userSpaceOnUse"
       id="clipPath11977">
      <path
         d="m 719.395,393.668 h 30.197 v 37.193 h -30.197 z"
         transform="translate(-729.75232,-411.27581)"
         id="path11977" />
    </clipPath>
    <clipPath
       clipPathUnits="userSpaceOnUse"
       id="clipPath11979">
      <path
         d="m 719.395,393.668 h 30.197 v 37.193 h -30.197 z"
         transform="translate(-739.50102,-411.60491)"
         id="path11979" />
    </clipPath>
    <clipPath
       clipPathUnits="userSpaceOnUse"
       id="clipPath11981">
      <path
         d="m 719.395,393.668 h 30.197 v 37.193 h -30.197 z"
         transform="translate(-740.37182,-411.21141)"
         id="path11981" />
    </clipPath>
    <clipPath
       clipPathUnits="userSpaceOnUse"
       id="clipPath11983">
      <path
         d="m 719.395,393.668 h 30.197 v 37.193 h -30.197 z"
         transform="translate(-739.51592,-411.09231)"
         id="path11983" />
    </clipPath>
    <clipPath
       clipPathUnits="userSpaceOnUse"
       id="clipPath11985">
      <path
         d="m 719.395,393.668 h 30.197 v 37.193 h -30.197 z"
         transform="translate(-739.78482,-410.33521)"
         id="path11985" />
    </clipPath>
    <clipPath
       clipPathUnits="userSpaceOnUse"
       id="clipPath11987">
      <path
         d="m 719.395,393.668 h 30.197 v 37.193 h -30.197 z"
         transform="translate(-739.25312,-410.33871)"
         id="path11987" />
    </clipPath>
    <clipPath
       clipPathUnits="userSpaceOnUse"
       id="clipPath11989">
      <path
         d="m 719.395,393.668 h 30.197 v 37.193 h -30.197 z"
         transform="translate(-738.57042,-411.06321)"
         id="path11989" />
    </clipPath>
    <clipPath
       clipPathUnits="userSpaceOnUse"
       id="clipPath11991">
      <path
         d="m 719.395,393.668 h 30.197 v 37.193 h -30.197 z"
         transform="translate(-736.40342,-408.60701)"
         id="path11991" />
    </clipPath>
    <clipPath
       clipPathUnits="userSpaceOnUse"
       id="clipPath11993">
      <path
         d="m 719.395,393.668 h 30.197 v 37.193 h -30.197 z"
         transform="translate(-723.55552,-414.25011)"
         id="path11993" />
    </clipPath>
    <clipPath
       clipPathUnits="userSpaceOnUse"
       id="clipPath11995">
      <path
         d="m 719.395,393.668 h 30.197 v 37.193 h -30.197 z"
         transform="translate(-725.02762,-413.38751)"
         id="path11995" />
    </clipPath>
    <clipPath
       clipPathUnits="userSpaceOnUse"
       id="clipPath11997">
      <path
         d="m 719.395,393.668 h 30.197 v 37.193 h -30.197 z"
         transform="translate(-725.84532,-411.60391)"
         id="path11997" />
    </clipPath>
    <clipPath
       clipPathUnits="userSpaceOnUse"
       id="clipPath11999">
      <path
         d="m 719.395,393.668 h 30.197 v 37.193 h -30.197 z"
         transform="translate(-726.90642,-409.48531)"
         id="path11999" />
    </clipPath>
    <clipPath
       clipPathUnits="userSpaceOnUse"
       id="clipPath12001">
      <path
         d="m 719.395,393.668 h 30.197 v 37.193 h -30.197 z"
         transform="translate(-727.62972,-407.63091)"
         id="path12001" />
    </clipPath>
    <clipPath
       clipPathUnits="userSpaceOnUse"
       id="clipPath12003">
      <path
         d="m 719.395,393.668 h 30.197 v 37.193 h -30.197 z"
         transform="translate(-727.52382,-407.00601)"
         id="path12003" />
    </clipPath>
    <clipPath
       clipPathUnits="userSpaceOnUse"
       id="clipPath12005">
      <path
         d="m 719.395,393.668 h 30.197 v 37.193 h -30.197 z"
         transform="translate(-730.66112,-407.37111)"
         id="path12005" />
    </clipPath>
    <clipPath
       clipPathUnits="userSpaceOnUse"
       id="clipPath12007">
      <path
         d="m 719.395,393.668 h 30.197 v 37.193 h -30.197 z"
         transform="translate(-731.89542,-406.95311)"
         id="path12007" />
    </clipPath>
    <clipPath
       clipPathUnits="userSpaceOnUse"
       id="clipPath12009">
      <path
         d="m 719.395,393.668 h 30.197 v 37.193 h -30.197 z"
         transform="translate(-733.28752,-404.83801)"
         id="path12009" />
    </clipPath>
    <clipPath
       clipPathUnits="userSpaceOnUse"
       id="clipPath12011">
      <path
         d="m 719.395,393.668 h 30.197 v 37.193 h -30.197 z"
         transform="translate(-735.51202,-405.21371)"
         id="path12011" />
    </clipPath>
    <clipPath
       clipPathUnits="userSpaceOnUse"
       id="clipPath12013">
      <path
         d="m 719.395,393.668 h 30.197 v 37.193 h -30.197 z"
         transform="translate(-737.18142,-406.98361)"
         id="path12013" />
    </clipPath>
    <clipPath
       clipPathUnits="userSpaceOnUse"
       id="clipPath12015">
      <path
         d="m 719.395,393.668 h 30.197 v 37.193 h -30.197 z"
         transform="translate(-739.31342,-406.23221)"
         id="path12015" />
    </clipPath>
    <clipPath
       clipPathUnits="userSpaceOnUse"
       id="clipPath12017">
      <path
         d="m 719.395,393.668 h 30.197 v 37.193 h -30.197 z"
         transform="translate(-741.24772,-408.40171)"
         id="path12017" />
    </clipPath>
    <clipPath
       clipPathUnits="userSpaceOnUse"
       id="clipPath12019">
      <path
         d="m 719.395,393.668 h 30.197 v 37.193 h -30.197 z"
         transform="translate(-741.41572,-409.39781)"
         id="path12019" />
    </clipPath>
    <clipPath
       clipPathUnits="userSpaceOnUse"
       id="clipPath12021">
      <path
         d="m 719.395,393.668 h 30.197 v 37.193 h -30.197 z"
         transform="translate(-743.29062,-411.07061)"
         id="path12021" />
    </clipPath>
    <clipPath
       clipPathUnits="userSpaceOnUse"
       id="clipPath12023">
      <path
         d="m 719.395,393.668 h 30.197 v 37.193 h -30.197 z"
         transform="translate(-743.09132,-411.50321)"
         id="path12023" />
    </clipPath>
    <clipPath
       clipPathUnits="userSpaceOnUse"
       id="clipPath12025">
      <path
         d="m 719.395,393.668 h 30.197 v 37.193 h -30.197 z"
         transform="translate(-744.98752,-413.46671)"
         id="path12025" />
    </clipPath>
    <clipPath
       clipPathUnits="userSpaceOnUse"
       id="clipPath12027">
      <path
         d="m 719.395,393.668 h 30.197 v 37.193 h -30.197 z"
         transform="translate(-746.29582,-415.43651)"
         id="path12027" />
    </clipPath>
    <clipPath
       clipPathUnits="userSpaceOnUse"
       id="clipPath12029">
      <path
         d="m 719.395,393.668 h 30.197 v 37.193 h -30.197 z"
         transform="translate(-729.99302,-421.44221)"
         id="path12029" />
    </clipPath>
    <clipPath
       clipPathUnits="userSpaceOnUse"
       id="clipPath12031">
      <path
         d="m 719.395,393.668 h 30.197 v 37.193 h -30.197 z"
         transform="translate(-733.19132,-421.39031)"
         id="path12031" />
    </clipPath>
    <clipPath
       clipPathUnits="userSpaceOnUse"
       id="clipPath12033">
      <path
         d="m 719.395,393.668 h 30.197 v 37.193 h -30.197 z"
         transform="translate(-736.70102,-422.21201)"
         id="path12033" />
    </clipPath>
    <clipPath
       clipPathUnits="userSpaceOnUse"
       id="clipPath12035">
      <path
         d="m 719.395,393.668 h 30.197 v 37.193 h -30.197 z"
         transform="translate(-738.99412,-421.44221)"
         id="path12035" />
    </clipPath>
    <clipPath
       clipPathUnits="userSpaceOnUse"
       id="clipPath12037">
      <path
         d="m 719.395,393.668 h 30.197 v 37.193 h -30.197 z"
         transform="translate(-734.49382,-416.62731)"
         id="path12037" />
    </clipPath>
    <clipPath
       clipPathUnits="userSpaceOnUse"
       id="clipPath12039">
      <path
         d="m 719.395,393.668 h 30.197 v 37.193 h -30.197 z"
         transform="translate(-734.49442,-416.65461)"
         id="path12039" />
    </clipPath>
    <clipPath
       clipPathUnits="userSpaceOnUse"
       id="clipPath12041">
      <path
         d="m 719.395,393.668 h 30.197 v 37.193 h -30.197 z"
         transform="translate(-730.09392,-425.55041)"
         id="path12041" />
    </clipPath>
    <clipPath
       clipPathUnits="userSpaceOnUse"
       id="clipPath12043">
      <path
         d="m 719.395,393.668 h 30.197 v 37.193 h -30.197 z"
         transform="translate(-731.93952,-426.26851)"
         id="path12043" />
    </clipPath>
    <clipPath
       clipPathUnits="userSpaceOnUse"
       id="clipPath12045">
      <path
         d="m 719.395,393.668 h 30.197 v 37.193 h -30.197 z"
         transform="translate(-733.50812,-426.60071)"
         id="path12045" />
    </clipPath>
    <clipPath
       clipPathUnits="userSpaceOnUse"
       id="clipPath12047">
      <path
         d="m 719.395,393.668 h 30.197 v 37.193 h -30.197 z"
         transform="translate(-734.94392,-426.66371)"
         id="path12047" />
    </clipPath>
    <clipPath
       clipPathUnits="userSpaceOnUse"
       id="clipPath12049">
      <path
         d="m 719.395,393.668 h 30.197 v 37.193 h -30.197 z"
         transform="translate(-737.25052,-427.51231)"
         id="path12049" />
    </clipPath>
    <clipPath
       clipPathUnits="userSpaceOnUse"
       id="clipPath12051">
      <path
         d="m 719.395,393.668 h 30.197 v 37.193 h -30.197 z"
         transform="translate(-738.72442,-425.79671)"
         id="path12051" />
    </clipPath>
    <clipPath
       clipPathUnits="userSpaceOnUse"
       id="clipPath12053">
      <path
         d="m 719.395,393.668 h 30.197 v 37.193 h -30.197 z"
         transform="translate(-726.45842,-416.55701)"
         id="path12053" />
    </clipPath>
    <clipPath
       clipPathUnits="userSpaceOnUse"
       id="clipPath12055">
      <path
         d="m 719.395,393.668 h 30.197 v 37.193 h -30.197 z"
         transform="translate(-732.82332,-419.79461)"
         id="path12055" />
    </clipPath>
    <clipPath
       clipPathUnits="userSpaceOnUse"
       id="clipPath12057">
      <path
         d="m 719.395,393.668 h 30.197 v 37.193 h -30.197 z"
         transform="translate(-737.77012,-419.79461)"
         id="path12057" />
    </clipPath>
    <clipPath
       clipPathUnits="userSpaceOnUse"
       id="clipPath12059">
      <path
         d="m 719.395,393.668 h 30.197 v 37.193 h -30.197 z"
         transform="translate(-727.17072,-411.57291)"
         id="path12059" />
    </clipPath>
  </defs>
  <g
     id="layer1"
     transform="translate(-115.31146,-84.356512)">
    <path
       id="path11940"
       d="m 0,0 c 0,-7.857 -6.369,-14.225 -14.225,-14.225 -7.857,0 -14.226,6.368 -14.226,14.225 0,7.856 6.369,14.225 14.226,14.225 C -6.369,14.225 0,7.856 0,0"
       style="fill:#07a750;fill-opacity:1;fill-rule:nonzero;stroke:none"
       transform="matrix(2.9413657,0,0,-2.9413657,198.99626,126.19741)"
       clip-path="url(#clipPath11941)" />
    <path
       id="path11942"
       d="m 0,0 c -7.29,0 -13.22,5.93 -13.22,13.22 0,7.29 5.93,13.22 13.22,13.22 7.289,0 13.22,-5.93 13.22,-13.22 C 13.22,5.93 7.289,0 0,0 m 0,26.008 c -7.051,0 -12.788,-5.737 -12.788,-12.788 0,-7.051 5.737,-12.788 12.788,-12.788 7.051,0 12.788,5.737 12.788,12.788 0,7.051 -5.737,12.788 -12.788,12.788"
       style="fill:#ffd002;fill-opacity:1;fill-rule:nonzero;stroke:none"
       transform="matrix(2.9413657,0,0,-2.9413657,157.15411,165.0825)"
       clip-path="url(#clipPath11943)" />
    <path
       id="path11944"
       d="M 0,0 3.591,2.95 1.922,-1.385 Z"
       style="fill:#ffffff;fill-opacity:1;fill-rule:nonzero;stroke:none"
       transform="matrix(2.9413657,0,0,-2.9413657,124.1026,112.15793)"
       clip-path="url(#clipPath11945)" />
    <path
       id="path11946"
       d="m 0,0 -3.075,-2.526 1.646,-1.186 z"
       style="fill:#ffd002;fill-opacity:1;fill-rule:nonzero;stroke:none"
       transform="matrix(2.9413657,0,0,-2.9413657,133.77853,104.70808)"
       clip-path="url(#clipPath11947)" />
    <path
       id="path11948"
       d="m 0,0 -2.112,-0.904 1.921,-1.385 z"
       style="fill:#221f20;fill-opacity:1;fill-rule:nonzero;stroke:none"
       transform="matrix(2.9413657,0,0,-2.9413657,130.31771,109.49927)"
       clip-path="url(#clipPath11949)" />
    <path
       id="path11950"
       d="m 0,0 -1.568,-0.671 1.426,-1.028 z"
       style="fill:#e62043;fill-opacity:1;fill-rule:nonzero;stroke:none"
       transform="matrix(2.9413657,0,0,-2.9413657,129.38297,110.67348)"
       clip-path="url(#clipPath11951)" />
    <path
       id="path11952"
       d="m 0,0 -3.591,2.95 1.669,-4.335 z"
       style="fill:#ffffff;fill-opacity:1;fill-rule:nonzero;stroke:none"
       transform="matrix(2.9413657,0,0,-2.9413657,190.20596,112.07263)"
       clip-path="url(#clipPath11953)" />
    <path
       id="path11954"
       d="M 0,0 3.075,-2.526 1.429,-3.712 Z"
       style="fill:#ffd002;fill-opacity:1;fill-rule:nonzero;stroke:none"
       transform="matrix(2.9413657,0,0,-2.9413657,180.53002,104.62245)"
       clip-path="url(#clipPath11955)" />
    <path
       id="path11956"
       d="M 0,0 2.112,-0.904 0.191,-2.289 Z"
       style="fill:#221f20;fill-opacity:1;fill-rule:nonzero;stroke:none"
       transform="matrix(2.9413657,0,0,-2.9413657,183.99085,109.41398)"
       clip-path="url(#clipPath11957)" />
    <path
       id="path11958"
       d="M 0,0 1.568,-0.671 0.142,-1.699 Z"
       style="fill:#e62043;fill-opacity:1;fill-rule:nonzero;stroke:none"
       transform="matrix(2.9413657,0,0,-2.9413657,184.92534,110.58751)"
       clip-path="url(#clipPath11959)" />
    <path
       id="path11960"
       d="m 0,0 c -0.079,0.019 -0.162,0.031 -0.238,0.07 -0.009,-0.076 -0.04,-0.145 -0.067,-0.214 0.067,-0.005 0.143,-0.014 0.22,-0.046 C -0.066,-0.115 -0.033,-0.054 0,0"
       style="fill:#ffd002;fill-opacity:1;fill-rule:nonzero;stroke:none"
       transform="matrix(2.9413657,0,0,-2.9413657,140.39894,141.46922)"
       clip-path="url(#clipPath11961)" />
    <path
       id="path11962"
       d="M 0,0 0.03,-0.001 C 0.025,0.069 0.036,0.132 0.049,0.19 -0.006,0.185 -0.062,0.178 -0.118,0.178 -0.144,0.178 -0.17,0.179 -0.196,0.184 -0.182,0.112 -0.189,0.041 -0.194,-0.029 -0.136,-0.015 -0.072,0 0,0"
       style="fill:#ffd002;fill-opacity:1;fill-rule:nonzero;stroke:none"
       transform="matrix(2.9413657,0,0,-2.9413657,138.12141,143.41883)"
       clip-path="url(#clipPath11963)" />
    <path
       id="path11964"
       d="M 0,0 C 0.07,0.057 0.146,0.086 0.213,0.111 0.161,0.177 0.101,0.238 0.065,0.319 0.002,0.255 -0.077,0.219 -0.149,0.174 -0.099,0.128 -0.042,0.074 0,0"
       style="fill:#ffd002;fill-opacity:1;fill-rule:nonzero;stroke:none"
       transform="matrix(2.9413657,0,0,-2.9413657,144.85979,141.37191)"
       clip-path="url(#clipPath11965)" />
    <path
       id="path11966"
       d="M 0,0 C -0.067,0.044 -0.14,0.082 -0.197,0.144 -0.236,0.066 -0.297,0.007 -0.351,-0.057 -0.29,-0.082 -0.223,-0.115 -0.162,-0.169 -0.115,-0.095 -0.055,-0.044 0,0"
       style="fill:#ffd002;fill-opacity:1;fill-rule:nonzero;stroke:none"
       transform="matrix(2.9413657,0,0,-2.9413657,142.92819,140.81746)"
       clip-path="url(#clipPath11967)" />
    <path
       id="path11968"
       d="m 0,0 v 0 c 0.051,-0.143 0.006,-0.295 0.097,-0.424 0.02,0.013 0.043,0.022 0.067,0.026 0.029,0.005 0.061,0.019 0.099,0.036 0.047,0.021 0.103,0.045 0.168,0.057 -0.011,0.067 -0.007,0.129 -0.004,0.18 0.003,0.041 0.006,0.076 0,0.104 -0.004,0.022 -0.004,0.043 0,0.064 C 0.398,0.051 0.371,0.055 0.343,0.055 0.231,0.055 0.125,0 0.008,0 Z"
       style="fill:#ffd002;fill-opacity:1;fill-rule:nonzero;stroke:none"
       transform="matrix(2.9413657,0,0,-2.9413657,137.11196,144.09118)"
       clip-path="url(#clipPath11969)" />
    <path
       id="path11970"
       d="M 0,0 C 0.017,-0.003 0.034,-0.008 0.051,-0.017 0.076,-0.03 0.11,-0.038 0.151,-0.046 0.204,-0.058 0.27,-0.072 0.335,-0.107 0.367,-0.04 0.412,0.011 0.448,0.052 0.475,0.082 0.499,0.109 0.511,0.134 L 0.537,0.172 C 0.442,0.288 0.289,0.295 0.173,0.384 0.13,0.244 0.01,0.149 0,0"
       style="fill:#ffd002;fill-opacity:1;fill-rule:nonzero;stroke:none"
       transform="matrix(2.9413657,0,0,-2.9413657,140.62364,142.2999)"
       clip-path="url(#clipPath11971)" />
    <path
       id="path11972"
       d="M 0,0 C 0.013,0.003 0.027,0.005 0.042,0.005 L 0.07,0.003 0.102,0 c 0.022,0 0.047,0.003 0.073,0.005 0.031,0.003 0.066,0.007 0.103,0.007 0.026,0 0.05,-0.002 0.074,-0.005 0.01,0.066 0.032,0.124 0.051,0.17 0.016,0.039 0.029,0.071 0.032,0.1 0.003,0.021 0.009,0.041 0.019,0.06 C 0.328,0.415 0.182,0.376 0.045,0.425 0.047,0.276 -0.04,0.147 0,0"
       style="fill:#ffd002;fill-opacity:1;fill-rule:nonzero;stroke:none"
       transform="matrix(2.9413657,0,0,-2.9413657,138.74849,143.55673)"
       clip-path="url(#clipPath11973)" />
    <path
       id="path11974"
       d="m 0,0 c 0.032,-0.039 0.071,-0.086 0.1,-0.146 0.061,0.029 0.121,0.042 0.17,0.053 0.041,0.009 0.075,0.016 0.101,0.029 0.023,0.012 0.049,0.018 0.074,0.019 C 0.426,0.085 0.326,0.18 0.292,0.311 0.173,0.226 0.021,0.225 -0.079,0.116 L -0.061,0.085 C -0.049,0.059 -0.026,0.032 0,0"
       style="fill:#ffd002;fill-opacity:1;fill-rule:nonzero;stroke:none"
       transform="matrix(2.9413657,0,0,-2.9413657,145.31929,142.2011)"
       clip-path="url(#clipPath11975)" />
    <path
       id="path11976"
       d="m 0,0 c 0.043,-0.027 0.095,-0.059 0.142,-0.108 0.049,0.047 0.103,0.079 0.147,0.104 C 0.325,0.017 0.355,0.035 0.375,0.055 0.389,0.069 0.406,0.08 0.423,0.089 0.367,0.215 0.235,0.273 0.159,0.39 0.074,0.275 -0.066,0.226 -0.128,0.095 -0.112,0.087 -0.097,0.075 -0.084,0.061 -0.065,0.041 -0.035,0.022 0,0"
       style="fill:#ffd002;fill-opacity:1;fill-rule:nonzero;stroke:none"
       transform="matrix(2.9413657,0,0,-2.9413657,143.20851,141.96373)"
       clip-path="url(#clipPath11977)" />
    <path
       id="path11978"
       d="m 0,0 c -0.079,0.055 -0.164,0.104 -0.239,0.171 -0.038,-0.148 -0.125,-0.248 -0.196,-0.348 0.061,-0.018 0.124,-0.041 0.186,-0.075 0.021,0.036 0.044,0.07 0.069,0.1 C -0.123,-0.085 -0.062,-0.037 0,0"
       style="fill:#ffd002;fill-opacity:1;fill-rule:nonzero;stroke:none"
       transform="matrix(2.9413657,0,0,-2.9413657,171.88304,140.99572)"
       clip-path="url(#clipPath11979)" />
    <path
       id="path11980"
       d="m 0,0 c 0.014,-0.081 0.017,-0.169 -0.004,-0.269 0.065,-0.03 0.123,-0.067 0.177,-0.106 0.028,0.093 0.055,0.191 0.128,0.282 C 0.195,-0.071 0.1,-0.025 0,0"
       style="fill:#ffd002;fill-opacity:1;fill-rule:nonzero;stroke:none"
       transform="matrix(2.9413657,0,0,-2.9413657,174.44439,142.15308)"
       clip-path="url(#clipPath11981)" />
    <path
       id="path11982"
       d="m 0,0 c 0.044,-0.078 0.074,-0.169 0.09,-0.266 0.017,0.012 0.033,0.024 0.051,0.035 0.095,0.065 0.2,0.11 0.302,0.13 h 0.004 c 0.043,0.008 0.086,0.011 0.127,0.011 0.039,0 0.076,-0.003 0.11,-0.009 C 0.731,0.153 0.574,0.324 0.552,0.56 0.347,0.43 0.11,0.453 -0.061,0.249 -0.085,0.221 -0.105,0.19 -0.123,0.158 -0.079,0.116 -0.039,0.066 -0.002,0.003 Z"
       style="fill:#ffd002;fill-opacity:1;fill-rule:nonzero;stroke:none"
       transform="matrix(2.9413657,0,0,-2.9413657,171.92682,142.50343)"
       clip-path="url(#clipPath11983)" />
    <path
       id="path11984"
       d="m 0,0 c 0.066,0.023 0.135,0.034 0.212,0.034 h 0.001 c 0.072,0 0.142,-0.01 0.209,-0.019 0.064,-0.009 0.125,-0.018 0.186,-0.018 0.029,0 0.056,0.002 0.082,0.006 C 0.74,0.077 0.797,0.15 0.882,0.209 0.687,0.315 0.555,0.493 0.305,0.493 0.274,0.493 0.242,0.491 0.207,0.485 0.124,0.469 0.042,0.432 -0.031,0.382 -0.075,0.352 -0.119,0.321 -0.161,0.288 -0.155,0.164 -0.158,0.041 -0.169,-0.08 -0.113,-0.045 -0.057,-0.018 0,0"
       style="fill:#ffd002;fill-opacity:1;fill-rule:nonzero;stroke:none"
       transform="matrix(2.9413657,0,0,-2.9413657,172.71773,144.73035)"
       clip-path="url(#clipPath11985)" />
    <path
       id="path11986"
       d="M 0,0 C 0.008,-0.089 0.025,-0.174 0.052,-0.256 0.093,-0.24 0.133,-0.223 0.171,-0.203 0.203,0 0.209,0.209 0.186,0.42 0.177,0.507 0.153,0.594 0.111,0.668 -0.052,0.944 -0.303,0.915 -0.535,1.006 -0.529,0.943 -0.534,0.885 -0.544,0.83 L -0.527,0.803 C -0.478,0.706 -0.402,0.639 -0.321,0.568 -0.225,0.483 -0.117,0.388 -0.057,0.239 -0.027,0.168 -0.009,0.09 0,0"
       style="fill:#ffd002;fill-opacity:1;fill-rule:nonzero;stroke:none"
       transform="matrix(2.9413657,0,0,-2.9413657,171.15383,144.72001)"
       clip-path="url(#clipPath11987)" />
    <path
       id="path11988"
       d="m 0,0 c -0.164,-0.223 -0.418,-0.343 -0.408,-0.699 0.005,-0.095 0.033,-0.191 0.076,-0.279 0.008,-0.016 0.017,-0.032 0.025,-0.049 0.029,0.019 0.063,0.03 0.097,0.03 0.014,0 0.028,-0.002 0.043,-0.005 0.153,-0.039 0.302,-0.059 0.442,-0.059 0.102,0 0.199,0.011 0.293,0.031 -0.03,0.092 -0.049,0.188 -0.059,0.289 C 0.503,-0.675 0.49,-0.612 0.465,-0.552 0.377,-0.331 0.129,-0.255 0,0"
       style="fill:#ffd002;fill-opacity:1;fill-rule:nonzero;stroke:none"
       transform="matrix(2.9413657,0,0,-2.9413657,169.14577,142.58906)"
       clip-path="url(#clipPath11989)" />
    <path
       id="path11990"
       d="m 0,0 c 0.287,-0.018 0.584,-0.036 0.873,-0.036 0.281,0 0.52,0.018 0.733,0.054 0.547,0.093 0.933,0.317 1.173,0.68 0.145,-0.044 0.295,-0.069 0.449,-0.069 0.134,0 0.27,0.017 0.406,0.053 0.094,0.024 0.185,0.065 0.26,0.123 C 4.17,1.03 4.096,1.301 4.158,1.571 4.099,1.557 4.043,1.552 3.989,1.552 3.847,1.552 3.719,1.588 3.594,1.588 3.541,1.588 3.489,1.581 3.436,1.563 3.374,1.543 3.318,1.512 3.264,1.474 3.026,1.304 2.747,1.222 2.442,1.222 2.286,1.222 2.124,1.243 1.957,1.285 2.063,1.142 2.187,1.023 2.324,0.925 2.157,0.709 1.898,0.575 1.521,0.511 1.338,0.48 1.125,0.464 0.872,0.464 c -0.274,0 -0.562,0.018 -0.841,0.035 -0.26,0.016 -0.528,0.033 -0.773,0.033 -0.422,0 -0.723,-0.05 -0.947,-0.159 v 0.296 c 0.764,0.018 1.476,0.121 2.025,0.294 0.302,0.095 0.54,0.207 0.708,0.333 0.189,0.141 0.285,0.296 0.285,0.461 0,0.015 -10e-4,0.031 -0.005,0.046 C 1.298,1.994 1.008,2.067 0.57,2.178 L 0.508,2.194 C 0.426,2.215 0.336,2.254 0.241,2.296 0.088,2.363 -0.087,2.439 -0.286,2.464 -0.323,2.468 -0.36,2.47 -0.402,2.47 -0.507,2.47 -0.617,2.455 -0.724,2.441 -0.833,2.426 -0.947,2.41 -1.058,2.41 -1.079,2.41 -1.099,2.411 -1.119,2.412 -1.23,2.418 -1.346,2.448 -1.468,2.48 -1.619,2.518 -1.775,2.559 -1.939,2.559 -2.103,2.559 -2.259,2.518 -2.41,2.48 -2.532,2.448 -2.648,2.418 -2.759,2.412 -2.779,2.411 -2.799,2.41 -2.82,2.41 -2.932,2.41 -3.045,2.426 -3.155,2.441 -3.261,2.455 -3.371,2.47 -3.476,2.47 -3.518,2.47 -3.556,2.468 -3.593,2.464 -3.792,2.439 -3.966,2.363 -4.12,2.296 -4.214,2.254 -4.304,2.215 -4.386,2.194 L -4.448,2.178 C -4.838,2.08 -5.095,2.014 -5.178,1.873 -5.2,1.838 -5.211,1.798 -5.211,1.757 c 0,-0.165 0.096,-0.32 0.285,-0.461 0.168,-0.126 0.407,-0.238 0.708,-0.333 0.55,-0.174 1.264,-0.276 2.029,-0.294 V 0.373 C -2.413,0.482 -2.715,0.532 -3.137,0.532 -3.383,0.532 -3.651,0.515 -3.911,0.499 -4.19,0.482 -4.478,0.464 -4.752,0.464 -5.005,0.464 -5.218,0.48 -5.401,0.511 -5.862,0.59 -6.149,0.77 -6.303,1.079 l -0.005,0.008 c 0.371,0.193 0.684,0.474 0.858,0.818 0.016,0.033 0.038,0.064 0.046,0.1 0.03,0.136 -0.064,0.236 -0.079,0.365 C -5.599,2.31 -5.734,2.334 -5.83,2.233 -5.856,2.206 -5.875,2.173 -5.887,2.138 L -6.015,1.868 -6.041,1.851 c -0.018,0 -0.036,0.016 -0.029,0.039 l 0.092,0.279 c 0.011,0.035 0.017,0.073 0.013,0.11 C -5.978,2.417 -6.099,2.483 -6.152,2.601 -6.244,2.509 -6.38,2.49 -6.44,2.364 -6.457,2.331 -6.464,2.294 -6.466,2.256 L -6.501,1.964 C -6.503,1.947 -6.516,1.939 -6.53,1.939 c -0.014,0 -0.029,0.009 -0.029,0.029 l -0.002,0.289 c 0,0.037 -0.007,0.074 -0.022,0.108 -0.056,0.128 -0.191,0.152 -0.28,0.247 C -6.921,2.495 -7.043,2.434 -7.061,2.296 -7.066,2.259 -7.062,2.221 -7.051,2.185 L -6.965,1.839 C -6.96,1.818 -6.977,1.803 -6.994,1.803 L -7.021,1.821 -7.156,2.15 C -7.169,2.185 -7.188,2.218 -7.213,2.245 -7.309,2.347 -7.444,2.324 -7.56,2.383 -7.575,2.254 -7.67,2.155 -7.64,2.019 c 0.007,-0.036 0.024,-0.07 0.046,-0.1 L -7.422,1.68 C -7.406,1.658 -7.425,1.633 -7.446,1.633 l -0.021,0.01 -0.203,0.218 c -0.023,0.029 -0.051,0.055 -0.084,0.073 -0.045,0.024 -0.09,0.031 -0.135,0.031 -0.058,0 -0.117,-0.011 -0.176,-0.011 -0.02,0 -0.041,0.001 -0.061,0.004 0.025,-0.127 -0.035,-0.25 0.035,-0.371 0.019,-0.032 0.045,-0.059 0.075,-0.081 L -7.782,1.334 C -7.757,1.316 -7.774,1.281 -7.799,1.281 L -7.814,1.285 -8.069,1.427 C -8.1,1.448 -8.135,1.463 -8.172,1.47 -8.187,1.473 -8.201,1.474 -8.216,1.474 -8.33,1.474 -8.418,1.394 -8.533,1.376 -8.468,1.263 -8.486,1.127 -8.382,1.035 -8.354,1.01 -8.32,0.993 -8.285,0.981 L -8.282,0.98 c 0.246,-0.124 0.529,-0.181 0.821,-0.181 0.23,0 0.465,0.037 0.693,0.104 0.004,-0.016 0.01,-0.032 0.017,-0.047 0.229,-0.458 0.643,-0.732 1.265,-0.838 0.213,-0.036 0.452,-0.054 0.733,-0.054 0.289,0 0.586,0.018 0.873,0.036 0.269,0.017 0.522,0.032 0.755,0.032 0.431,0 0.693,-0.057 0.823,-0.18 0.069,-0.065 0.106,-0.16 0.112,-0.289 l -10e-4,-0.04 0.002,-0.028 v -0.581 c 0,-0.138 0.112,-0.25 0.25,-0.25 0.138,0 0.25,0.112 0.25,0.25 v 0.662 c 0.008,0.123 0.044,0.213 0.111,0.276 0.13,0.123 0.392,0.18 0.824,0.18 C -0.522,0.032 -0.269,0.017 0,0 m -1.939,1.264 c -0.13,0 -0.269,0.035 -0.404,0.07 -0.13,0.034 -0.264,0.068 -0.402,0.076 -0.024,0.001 -0.05,0.002 -0.075,0.002 -0.13,0 -0.252,-0.017 -0.371,-0.033 -0.102,-0.014 -0.198,-0.027 -0.286,-0.027 -0.03,0 -0.057,10e-4 -0.082,0.005 -0.162,0.02 -0.31,0.085 -0.454,0.147 C -4.118,1.55 -4.217,1.593 -4.32,1.62 l -0.063,0.016 c -0.192,0.048 -0.357,0.09 -0.47,0.135 l -0.017,0.007 0.017,0.007 c 0.113,0.044 0.278,0.086 0.47,0.135 l 0.063,0.016 c 0.103,0.026 0.202,0.07 0.307,0.116 0.144,0.062 0.293,0.127 0.454,0.147 0.025,0.003 0.052,0.005 0.082,0.005 0.088,0 0.184,-0.013 0.286,-0.027 0.119,-0.016 0.241,-0.033 0.371,-0.033 0.025,0 0.051,10e-4 0.075,0.002 0.138,0.007 0.272,0.042 0.402,0.076 0.134,0.034 0.274,0.07 0.404,0.07 0.13,0 0.269,-0.036 0.404,-0.07 0.13,-0.034 0.264,-0.069 0.402,-0.076 0.024,-10e-4 0.049,-0.002 0.075,-0.002 0.129,0 0.252,0.017 0.371,0.033 0.102,0.014 0.198,0.027 0.285,0.027 0.03,0 0.058,-0.002 0.083,-0.005 0.161,-0.02 0.31,-0.085 0.454,-0.148 C 0.24,2.006 0.339,1.962 0.442,1.936 L 0.505,1.92 C 0.697,1.871 0.862,1.829 0.975,1.785 L 0.992,1.778 0.975,1.771 C 0.862,1.726 0.697,1.684 0.505,1.636 L 0.442,1.62 C 0.339,1.593 0.24,1.55 0.135,1.504 -0.009,1.442 -0.158,1.377 -0.319,1.357 -0.344,1.353 -0.371,1.352 -0.402,1.352 c -0.087,0 -0.183,0.013 -0.285,0.027 -0.119,0.016 -0.242,0.033 -0.371,0.033 -0.025,0 -0.051,-10e-4 -0.075,-0.002 C -1.271,1.402 -1.405,1.368 -1.535,1.334 -1.67,1.299 -1.809,1.264 -1.939,1.264"
       style="fill:#ffd002;fill-opacity:1;fill-rule:nonzero;stroke:none"
       transform="matrix(2.9413657,0,0,-2.9413657,162.77182,149.81362)"
       clip-path="url(#clipPath11991)" />
    <path
       id="path11992"
       d="M 0,0 0.352,0.055 0.231,0.826 0.637,0.89 0.767,0.056 1.139,0.114 0.938,1.401 -0.864,1.12 -0.793,0.666 -0.12,0.771 Z"
       style="fill:#ffffff;fill-opacity:1;fill-rule:nonzero;stroke:none"
       transform="matrix(2.9413657,0,0,-2.9413657,124.98148,133.2152)"
       clip-path="url(#clipPath11993)" />
    <path
       id="path11994"
       d="M 0,0 C -0.235,0.685 -0.715,0.686 -1.173,0.528 -1.631,0.371 -2.01,0.078 -1.773,-0.609 -1.536,-1.299 -1.057,-1.3 -0.602,-1.144 -0.141,-0.985 0.237,-0.69 0,0 m -1.415,-0.486 c -0.117,0.339 0.097,0.47 0.394,0.572 0.294,0.101 0.551,0.132 0.668,-0.207 0.119,-0.348 -0.105,-0.476 -0.401,-0.578 -0.294,-0.101 -0.542,-0.135 -0.661,0.213"
       style="fill:#ffffff;fill-opacity:1;fill-rule:nonzero;stroke:none"
       transform="matrix(2.9413657,0,0,-2.9413657,129.31143,135.75245)"
       clip-path="url(#clipPath11995)" />
    <path
       id="path11996"
       d="M 0,0 C -0.365,0.625 -0.835,0.531 -1.254,0.287 -1.672,0.042 -1.985,-0.319 -1.618,-0.946 -1.25,-1.576 -0.78,-1.483 -0.364,-1.24 0.056,-0.994 0.368,-0.63 0,0 m -0.602,-0.834 c -0.268,-0.157 -0.504,-0.238 -0.689,0.079 -0.182,0.31 0.003,0.48 0.273,0.638 0.268,0.157 0.515,0.238 0.696,-0.071 0.185,-0.318 -0.009,-0.487 -0.28,-0.646"
       style="fill:#ffffff;fill-opacity:1;fill-rule:nonzero;stroke:none"
       transform="matrix(2.9413657,0,0,-2.9413657,131.71661,140.99863)"
       clip-path="url(#clipPath11997)" />
    <path
       id="path11998"
       d="m 0,0 0.29,0.24 -0.876,1.058 -0.29,-0.239 0.293,-0.354 -1.116,-0.923 0.291,-0.352 1.116,0.924 z"
       style="fill:#ffffff;fill-opacity:1;fill-rule:nonzero;stroke:none"
       transform="matrix(2.9413657,0,0,-2.9413657,134.83768,147.23017)"
       clip-path="url(#clipPath11999)" />
    <path
       id="path12000"
       d="m 0,0 c 0.117,0.133 0.161,0.348 0.071,0.503 0.154,-0.07 0.311,0.018 0.415,0.136 0.18,0.205 0.156,0.485 -0.239,0.833 l -0.536,0.47 -1.204,-1.37 0.546,-0.479 C -0.504,-0.297 -0.196,-0.222 0,0 M -0.342,0.323 C -0.413,0.242 -0.51,0.202 -0.696,0.365 l -0.205,0.181 0.263,0.299 0.212,-0.186 C -0.24,0.495 -0.267,0.409 -0.342,0.323 M -0.42,1.094 -0.186,1.359 0.008,1.188 C 0.186,1.032 0.163,0.958 0.095,0.881 0.029,0.805 -0.056,0.774 -0.229,0.926 Z"
       style="fill:#ffffff;fill-opacity:1;fill-rule:nonzero;stroke:none"
       transform="matrix(2.9413657,0,0,-2.9413657,136.96513,152.68463)"
       clip-path="url(#clipPath12001)" />
    <path
       id="path12002"
       d="M 0,0 0.414,-0.252 0.662,-0.037 1.261,-0.402 1.183,-0.721 1.596,-0.974 1.996,0.919 1.5,1.222 Z M 1.352,-0.06 0.924,0.201 1.536,0.729 Z"
       style="fill:#ffffff;fill-opacity:1;fill-rule:nonzero;stroke:none"
       transform="matrix(2.9413657,0,0,-2.9413657,136.65372,154.52277)"
       clip-path="url(#clipPath12003)" />
    <path
       id="path12004"
       d="m 0,0 -0.429,0.177 -0.697,-1.685 0.985,-0.408 0.144,0.348 -0.561,0.232 z"
       style="fill:#ffffff;fill-opacity:1;fill-rule:nonzero;stroke:none"
       transform="matrix(2.9413657,0,0,-2.9413657,145.88167,153.44887)"
       clip-path="url(#clipPath12005)" />
    <path
       id="path12006"
       d="m 0,0 -0.449,0.12 -0.47,-1.762 1.03,-0.275 0.097,0.363 -0.587,0.157 z"
       style="fill:#ffffff;fill-opacity:1;fill-rule:nonzero;stroke:none"
       transform="matrix(2.9413657,0,0,-2.9413657,149.51216,154.67835)"
       clip-path="url(#clipPath12007)" />
    <path
       id="path12008"
       d="m 0,0 0.458,-0.023 0.035,0.68 0.78,-0.04 0.018,0.356 -0.78,0.04 0.021,0.41 L 1.375,1.38 1.394,1.756 0.093,1.822 Z"
       style="fill:#ffffff;fill-opacity:1;fill-rule:nonzero;stroke:none"
       transform="matrix(2.9413657,0,0,-2.9413657,153.60682,160.89963)"
       clip-path="url(#clipPath12009)" />
    <path
       id="path12010"
       d="M 0,0 -0.039,0.374 0.732,0.454 0.696,0.808 -0.075,0.729 -0.11,1.066 0.746,1.155 0.707,1.529 -0.605,1.393 -0.418,-0.421 0.895,-0.286 0.856,0.089 Z"
       style="fill:#ffffff;fill-opacity:1;fill-rule:nonzero;stroke:none"
       transform="matrix(2.9413657,0,0,-2.9413657,160.14994,159.79455)"
       clip-path="url(#clipPath12011)" />
    <path
       id="path12012"
       d="m 0,0 -0.694,-0.196 0.497,-1.755 0.664,0.188 c 0.556,0.157 0.76,0.586 0.606,1.131 C 0.917,-0.081 0.546,0.154 0,0 m 0.296,-1.421 -0.151,-0.042 -0.292,1.031 0.162,0.045 c 0.318,0.09 0.498,0.061 0.621,-0.366 0.122,-0.427 -0.017,-0.576 -0.34,-0.668"
       style="fill:#ffffff;fill-opacity:1;fill-rule:nonzero;stroke:none"
       transform="matrix(2.9413657,0,0,-2.9413657,165.0602,154.58863)"
       clip-path="url(#clipPath12013)" />
    <path
       id="path12014"
       d="M 0,0 -0.164,0.339 0.534,0.676 0.38,0.997 -0.319,0.66 -0.466,0.965 0.309,1.339 0.146,1.678 -1.043,1.104 -0.25,-0.538 0.938,0.035 0.775,0.374 Z"
       style="fill:#ffffff;fill-opacity:1;fill-rule:nonzero;stroke:none"
       transform="matrix(2.9413657,0,0,-2.9413657,171.33125,156.7988)"
       clip-path="url(#clipPath12015)" />
    <path
       id="path12016"
       d="m 0,0 c -0.138,0.195 -0.408,0.458 -0.98,0.053 l -0.57,-0.404 1.055,-1.488 0.376,0.267 -0.399,0.563 0.825,-0.261 0.46,0.326 -0.866,0.207 C 0.242,-0.464 0.117,-0.165 0,0 m -0.5,-0.634 -0.189,-0.133 -0.267,0.376 0.189,0.134 c 0.206,0.146 0.32,0.08 0.386,-0.013 0.061,-0.086 0.087,-0.217 -0.119,-0.364"
       style="fill:#ffffff;fill-opacity:1;fill-rule:nonzero;stroke:none"
       transform="matrix(2.9413657,0,0,-2.9413657,177.02067,150.41743)"
       clip-path="url(#clipPath12017)" />
    <path
       id="path12018"
       d="m 0,0 0.847,-1.739 0.34,0.345 -0.153,0.291 0.492,0.5 0.293,-0.149 0.34,0.345 -1.751,0.821 z M 1.214,-0.436 0.862,-0.794 0.488,-0.077 Z"
       style="fill:#ffffff;fill-opacity:1;fill-rule:nonzero;stroke:none"
       transform="matrix(2.9413657,0,0,-2.9413657,177.51485,147.48756)"
       clip-path="url(#clipPath12019)" />
    <path
       id="path12020"
       d="m 0,0 -0.304,0.222 -0.81,-1.109 0.304,-0.222 0.271,0.37 1.169,-0.853 0.269,0.368 -1.17,0.854 z"
       style="fill:#ffffff;fill-opacity:1;fill-rule:nonzero;stroke:none"
       transform="matrix(2.9413657,0,0,-2.9413657,183.02959,142.5673)"
       clip-path="url(#clipPath12021)" />
    <path
       id="path12022"
       d="m 0,0 1.587,-0.899 0.227,0.401 -1.586,0.9 z"
       style="fill:#ffffff;fill-opacity:1;fill-rule:nonzero;stroke:none"
       transform="matrix(2.9413657,0,0,-2.9413657,182.44336,141.29479)"
       clip-path="url(#clipPath12023)" />
    <path
       id="path12024"
       d="m 0,0 c -0.453,0.178 -0.933,0.198 -1.199,-0.481 -0.265,-0.674 0.1,-0.985 0.551,-1.163 0.451,-0.177 0.929,-0.199 1.194,0.478 C 0.813,-0.487 0.448,-0.176 0,0 m 0.193,-1.028 c -0.131,-0.334 -0.379,-0.295 -0.67,-0.18 -0.29,0.113 -0.506,0.256 -0.375,0.59 0.135,0.342 0.388,0.295 0.68,0.18 0.289,-0.113 0.5,-0.248 0.365,-0.59"
       style="fill:#ffffff;fill-opacity:1;fill-rule:nonzero;stroke:none"
       transform="matrix(2.9413657,0,0,-2.9413657,188.0208,135.5195)"
       clip-path="url(#clipPath12025)" />
    <path
       id="path12026"
       d="m 0,0 -1.797,0.312 -0.079,-0.458 1.145,-0.199 -1.261,-0.466 -0.097,-0.559 1.797,-0.312 0.08,0.461 -1.14,0.198 1.259,0.487 z"
       style="fill:#ffffff;fill-opacity:1;fill-rule:nonzero;stroke:none"
       transform="matrix(2.9413657,0,0,-2.9413657,191.869,129.72552)"
       clip-path="url(#clipPath12027)" />
    <path
       id="path12028"
       d="M 0,0 V -0.511 H 1.695 V 0 H 1.232 V 2.042 H 0.63 L 0,1.942 V 1.516 H 0.582 V 0 Z"
       style="fill:#ffffff;fill-opacity:1;fill-rule:nonzero;stroke:none"
       transform="matrix(2.9413657,0,0,-2.9413657,143.91655,112.06062)"
       clip-path="url(#clipPath12029)" />
    <path
       id="path12030"
       d="m 0,0 c -0.259,0 -0.387,0.084 -0.391,0.263 h -0.638 c 0,-0.514 0.375,-0.758 1.029,-0.758 0.758,0 1.077,0.403 1.077,1.317 0,0.917 -0.271,1.308 -1.093,1.308 -0.706,0 -1.013,-0.387 -1.013,-0.846 0,-0.578 0.419,-0.805 0.869,-0.805 0.336,0 0.539,0.123 0.627,0.279 C 0.467,0.187 0.315,0 0,0 m 0.02,0.953 c -0.303,0 -0.431,0.144 -0.431,0.339 0,0.188 0.124,0.335 0.399,0.335 0.335,0 0.439,-0.167 0.439,-0.335 0,-0.191 -0.148,-0.339 -0.407,-0.339"
       style="fill:#ffffff;fill-opacity:1;fill-rule:nonzero;stroke:none"
       transform="matrix(2.9413657,0,0,-2.9413657,153.32384,112.21329)"
       clip-path="url(#clipPath12031)" />
    <path
       id="path12032"
       d="m 0,0 c 0,0.734 -0.199,1.308 -1.101,1.308 -0.893,0 -1.089,-0.574 -1.089,-1.312 0,-0.738 0.2,-1.312 1.089,-1.312 C -0.199,-1.316 0,-0.742 0,0 m -1.54,-0.004 c 0,0.479 0.04,0.782 0.439,0.782 0.419,0 0.455,-0.303 0.455,-0.778 0,-0.483 -0.036,-0.786 -0.455,-0.786 -0.399,0 -0.439,0.303 -0.439,0.782"
       style="fill:#ffffff;fill-opacity:1;fill-rule:nonzero;stroke:none"
       transform="matrix(2.9413657,0,0,-2.9413657,163.6472,109.79635)"
       clip-path="url(#clipPath12033)" />
    <path
       id="path12034"
       d="M 0,0 H -1.376 V 0.048 C -1.376,0.495 0,0.383 0,1.209 c 0,0.482 -0.215,0.869 -0.985,0.869 -0.73,0 -0.977,-0.395 -0.977,-0.933 h 0.61 c 0,0.275 0.112,0.419 0.375,0.419 0.223,0 0.343,-0.112 0.343,-0.304 0,-0.498 -1.34,-0.271 -1.348,-1.28 L -1.99,-0.511 H 0 Z"
       style="fill:#ffffff;fill-opacity:1;fill-rule:nonzero;stroke:none"
       transform="matrix(2.9413657,0,0,-2.9413657,170.39201,112.06062)"
       clip-path="url(#clipPath12035)" />
    <path
       id="path12036"
       d="M 0,0 V 0.012 L -0.001,-0.002 Z"
       style="fill:#07a750;fill-opacity:1;fill-rule:nonzero;stroke:none"
       transform="matrix(2.9413657,0,0,-2.9413657,157.15503,126.22293)"
       clip-path="url(#clipPath12037)" />
    <path
       id="path12038"
       d="M 0,0 C 0,0.025 -0.002,0.05 -0.002,0.074 -0.002,0.045 0,0.016 0,-0.013 Z"
       style="fill:#07a750;fill-opacity:1;fill-rule:nonzero;stroke:none"
       transform="matrix(2.9413657,0,0,-2.9413657,157.15678,126.14263)"
       clip-path="url(#clipPath12039)" />
    <path
       id="path12040"
       d="M 0,0 C 0.204,0.103 0.338,0.285 0.349,0.498 L 0.574,0.318 0.762,0.413 0.288,1.355 -0.511,0.952 -0.351,0.634 0.033,0.827 C 0.126,0.631 0.059,0.454 -0.143,0.353 c -0.3,-0.152 -0.456,0.044 -0.597,0.324 -0.14,0.278 -0.205,0.522 0.095,0.674 0.237,0.119 0.307,0.087 0.398,0.002 l 0.42,0.212 C 0.051,1.775 -0.268,1.965 -0.816,1.689 -1.445,1.372 -1.375,0.9 -1.157,0.467 -0.94,0.034 -0.591,-0.297 0,0"
       style="fill:#ffffff;fill-opacity:1;fill-rule:nonzero;stroke:none"
       transform="matrix(2.9413657,0,0,-2.9413657,144.21329,99.97684)"
       clip-path="url(#clipPath12041)" />
    <path
       id="path12042"
       d="M 0,0 C 0.555,0.154 0.718,0.46 0.561,1.023 L 0.289,2.001 -0.161,1.876 0.109,0.903 C 0.19,0.615 0.174,0.448 -0.103,0.371 -0.383,0.293 -0.48,0.429 -0.561,0.717 L -0.831,1.689 -1.279,1.565 -1.007,0.587 C -0.85,0.024 -0.555,-0.154 0,0"
       style="fill:#ffffff;fill-opacity:1;fill-rule:nonzero;stroke:none"
       transform="matrix(2.9413657,0,0,-2.9413657,149.6419,97.864642)"
       clip-path="url(#clipPath12043)" />
    <path
       id="path12044"
       d="M 0,0 0.477,0.041 0.43,0.594 1.004,1.916 0.513,1.874 0.161,0.963 -0.316,1.803 -0.807,1.762 -0.047,0.554 Z"
       style="fill:#ffffff;fill-opacity:1;fill-rule:nonzero;stroke:none"
       transform="matrix(2.9413657,0,0,-2.9413657,154.25567,96.887544)"
       clip-path="url(#clipPath12045)" />
    <path
       id="path12046"
       d="M 0,0 0.123,0.305 0.822,0.252 0.898,-0.068 1.381,-0.105 0.877,1.763 0.297,1.807 -0.483,0.037 Z M 0.554,1.384 0.749,0.598 0.248,0.636 Z"
       style="fill:#ffffff;fill-opacity:1;fill-rule:nonzero;stroke:none"
       transform="matrix(2.9413657,0,0,-2.9413657,158.47889,96.70228)"
       clip-path="url(#clipPath12047)" />
    <path
       id="path12048"
       d="M 0,0 0.361,-1.301 0.886,-1.447 1.373,0.311 0.925,0.436 0.615,-0.685 0.274,0.616 -0.272,0.768 -0.76,-0.99 -0.309,-1.115 Z"
       style="fill:#ffffff;fill-opacity:1;fill-rule:nonzero;stroke:none"
       transform="matrix(2.9413657,0,0,-2.9413657,165.26347,94.206213)"
       clip-path="url(#clipPath12049)" />
    <path
       id="path12050"
       d="M 0,0 0.23,0.235 0.856,-0.08 0.804,-0.405 1.237,-0.622 1.481,1.296 0.962,1.557 -0.433,0.218 Z M 1.039,1.069 0.919,0.268 0.471,0.493 Z"
       style="fill:#ffffff;fill-opacity:1;fill-rule:nonzero;stroke:none"
       transform="matrix(2.9413657,0,0,-2.9413657,169.59876,99.252458)"
       clip-path="url(#clipPath12051)" />
    <path
       id="path12052"
       d="M 0,0 C 0,1.619 0.476,3.339 3.045,3.339 5.251,3.339 6.02,2.246 6.02,1.083 H 4.067 C 4.006,1.518 3.764,1.821 3.045,1.821 2.044,1.821 1.963,0.961 1.963,0 c 0,-0.961 0.071,-1.831 1.072,-1.831 0.536,0 0.961,0.404 1.032,1.012 H 2.924 V 0.577 H 6.03 V -3.238 H 4.846 L 4.553,-2.529 C 4.189,-3.076 3.662,-3.339 2.883,-3.339 0.455,-3.339 0,-1.619 0,0"
       style="fill:#ffd002;fill-opacity:1;fill-rule:nonzero;stroke:none"
       transform="matrix(2.9413657,0,0,-2.9413657,133.51998,126.42979)"
       clip-path="url(#clipPath12053)" />
    <path
       id="path12054"
       d="M 0,0 H 4.735 V -1.548 H 1.933 v -1.123 h 2.59 V -4.158 H 1.933 V -6.475 H 0 Z"
       style="fill:#ffd002;fill-opacity:1;fill-rule:nonzero;stroke:none"
       transform="matrix(2.9413657,0,0,-2.9413657,152.24144,116.90676)"
       clip-path="url(#clipPath12055)" />
    <path
       id="path12056"
       d="M 0,0 H 4.735 V -1.548 H 1.933 v -1.123 h 2.59 V -4.158 H 1.933 V -6.475 H 0 Z"
       style="fill:#ffd002;fill-opacity:1;fill-rule:nonzero;stroke:none"
       transform="matrix(2.9413657,0,0,-2.9413657,166.79178,116.90676)"
       clip-path="url(#clipPath12057)" />
    <path
       id="path12058"
       d="m 0,0 0.006,-0.009 0.008,-0.011 10e-4,0.001 c 0.03,-0.034 0.073,-0.057 0.123,-0.057 0.09,0 0.164,0.074 0.164,0.164 0,0.024 -0.005,0.045 -0.014,0.065 -1.08,1.452 -1.719,3.248 -1.719,5.193 0,0.982 0.165,1.925 0.465,2.806 l 0.001,0.005 c 0.038,0.11 0.077,0.219 0.119,0.326 l 0.003,0.009 c 0.118,0.305 0.253,0.602 0.404,0.889 0.012,0.023 0.023,0.046 0.035,0.069 0.036,0.066 0.073,0.132 0.111,0.198 0.028,0.05 0.057,0.1 0.086,0.15 0.033,0.054 0.066,0.108 0.099,0.162 0.04,0.064 0.081,0.127 0.123,0.19 0.027,0.041 0.053,0.081 0.081,0.122 0.064,0.094 0.131,0.186 0.199,0.278 l 0.02,0.028 c 1.6,2.133 4.152,3.514 7.029,3.514 3.481,0 6.486,-2.022 7.904,-4.95 l 0.013,-0.028 c 0.052,-0.108 0.101,-0.217 0.149,-0.327 0.011,-0.026 0.022,-0.053 0.033,-0.079 0.042,-0.1 0.082,-0.2 0.12,-0.302 0.01,-0.026 0.02,-0.052 0.029,-0.077 l 0.016,-0.041 -0.002,10e-4 c 0.2,-0.558 0.344,-1.142 0.427,-1.747 h 10e-4 C 16.037,6.521 16.039,6.499 16.042,6.477 16.059,6.347 16.073,6.216 16.084,6.085 16.09,6.017 16.095,5.949 16.099,5.881 16.102,5.83 16.105,5.78 16.108,5.729 16.113,5.603 16.117,5.477 16.117,5.349 V 5.348 5.346 5.311 L 16.116,5.272 v 0 C 16.111,4.696 16.049,4.134 15.938,3.59 h 10e-4 C 15.932,3.553 15.923,3.517 15.915,3.481 15.901,3.418 15.887,3.355 15.872,3.292 15.855,3.222 15.837,3.154 15.819,3.085 15.805,3.032 15.79,2.98 15.775,2.928 15.758,2.869 15.74,2.81 15.722,2.752 15.698,2.674 15.672,2.597 15.646,2.52 15.63,2.474 15.615,2.429 15.598,2.384 15.571,2.308 15.542,2.232 15.512,2.156 15.491,2.102 15.469,2.047 15.447,1.993 15.423,1.936 15.398,1.879 15.372,1.822 15.356,1.785 15.339,1.748 15.322,1.711 15.28,1.619 15.235,1.527 15.19,1.437 15.172,1.402 15.155,1.367 15.137,1.333 15.108,1.277 15.078,1.221 15.048,1.165 15.029,1.131 15.01,1.098 14.991,1.065 14.941,0.976 14.89,0.889 14.836,0.802 14.815,0.767 14.794,0.733 14.772,0.698 14.722,0.62 14.671,0.542 14.619,0.465 14.592,0.425 14.565,0.385 14.537,0.345 14.504,0.298 14.471,0.252 14.437,0.206 L 14.418,0.179 14.413,0.173 14.412,0.171 v 0 C 14.396,0.146 14.387,0.116 14.387,0.084 c 0,-0.09 0.072,-0.162 0.162,-0.162 0.05,0 0.094,0.022 0.123,0.057 h 10e-4 l 0.004,0.006 0.01,0.014 c 1.148,1.562 1.754,3.411 1.754,5.35 0,4.999 -4.081,9.067 -9.097,9.067 -5.016,0 -9.097,-4.068 -9.097,-9.067 C -1.753,3.41 -1.147,1.561 0,0"
       style="fill:#ffd002;fill-opacity:1;fill-rule:nonzero;stroke:none"
       transform="matrix(2.9413657,0,0,-2.9413657,135.61509,141.08977)"
       clip-path="url(#clipPath12059)" />
  </g>
</svg>
