<svg id="svg" version="1.1" xmlns="http://www.w3.org/2000/svg" xmlns:xlink="http://www.w3.org/1999/xlink" width="400" height="457.22460658082974" viewBox="0, 0, 400,457.22460658082974"><g id="svgg"><path id="path0" d="M67.952 62.732 C 63.306 72.906,66.859 90.436,74.399 94.540 C 80.122 97.655,84.607 94.339,86.301 85.741 C 87.292 80.712,87.876 79.654,89.256 80.393 C 91.581 81.637,91.201 85.653,88.224 91.300 C 87.419 92.826,86.983 93.952,87.143 94.094 C 87.290 94.224,89.268 95.653,91.539 97.270 C 96.287 100.651,95.845 100.678,97.291 96.928 C 101.353 86.394,99.921 74.212,93.905 68.128 C 86.393 60.531,79.745 64.149,77.526 77.044 C 77.109 79.467,76.496 80.342,75.565 79.843 C 73.569 78.775,73.698 73.450,75.822 69.243 C 76.319 68.259,76.618 67.363,76.488 67.251 C 73.361 64.557,69.200 61.230,68.957 61.230 C 68.782 61.230,68.329 61.906,67.952 62.732 M316.046 72.961 C 315.959 73.197,314.532 77.169,312.875 81.787 C 311.218 86.405,309.732 90.427,309.573 90.725 C 309.300 91.235,308.773 91.270,300.285 91.341 L 291.287 91.416 298.719 96.946 C 302.807 99.987,306.152 102.549,306.152 102.640 C 306.152 102.730,304.803 106.776,303.156 111.631 C 301.508 116.486,300.202 120.458,300.253 120.458 C 300.304 120.458,303.808 117.949,308.041 114.884 C 312.274 111.818,315.801 109.311,315.880 109.312 C 315.959 109.313,319.692 112.004,324.177 115.291 C 328.662 118.578,332.366 121.233,332.408 121.192 C 332.467 121.133,326.976 104.683,326.318 102.946 C 326.230 102.714,329.074 100.485,333.909 96.996 L 341.639 91.416 332.487 91.341 C 324.136 91.272,323.312 91.222,323.072 90.769 C 322.927 90.495,321.427 86.474,319.738 81.831 C 316.308 72.403,316.279 72.331,316.046 72.961 M83.119 103.976 C 74.778 105.904,67.600 107.571,67.167 107.680 L 66.381 107.879 66.393 116.386 L 66.406 124.893 81.319 134.049 C 89.522 139.084,96.482 143.403,96.787 143.646 C 97.307 144.060,96.947 144.253,91.089 146.705 C 84.965 149.268,84.830 149.309,84.584 148.695 C 82.308 143.014,80.149 141.198,75.680 141.207 C 72.665 141.212,71.442 141.712,69.690 143.650 C 66.767 146.886,66.381 149.219,66.381 163.621 L 66.381 174.974 82.332 178.097 C 91.105 179.815,98.509 181.276,98.784 181.345 C 99.251 181.460,99.285 180.969,99.285 173.996 C 99.285 169.886,99.242 166.524,99.190 166.524 C 98.896 166.524,89.160 164.505,89.083 164.429 C 89.032 164.378,91.304 163.380,94.131 162.211 L 99.272 160.086 99.278 144.848 L 99.285 129.610 96.853 128.403 L 94.421 127.197 94.421 121.699 L 94.421 116.201 95.780 116.025 C 96.527 115.929,97.622 115.781,98.212 115.696 L 99.285 115.543 99.285 107.986 C 99.285 100.972,99.249 100.431,98.784 100.450 C 98.509 100.462,91.459 102.048,83.119 103.976 M86.324 123.213 C 86.183 123.354,76.399 118.643,76.396 118.433 C 76.396 118.343,78.616 118.021,81.330 117.718 L 86.266 117.167 86.348 120.138 C 86.393 121.771,86.382 123.155,86.324 123.213 M315.654 139.986 C 315.350 140.812,313.841 144.995,312.301 149.281 L 309.501 157.074 300.326 157.149 L 291.151 157.225 298.580 162.763 C 302.666 165.809,306.044 168.392,306.086 168.504 C 306.129 168.615,304.814 172.657,303.163 177.486 C 301.513 182.315,300.237 186.266,300.327 186.266 C 300.418 186.266,303.951 183.759,308.179 180.695 L 315.866 175.124 324.069 181.131 C 328.580 184.435,332.312 187.096,332.363 187.046 C 332.414 186.995,331.049 182.814,329.330 177.754 L 326.205 168.555 327.265 167.735 C 327.849 167.283,331.349 164.734,335.043 162.069 L 341.760 157.225 332.445 157.149 L 323.129 157.074 319.748 147.779 C 317.888 142.666,316.330 138.484,316.287 138.484 C 316.243 138.484,315.958 139.160,315.654 139.986 M79.129 158.199 C 79.795 159.205,80.644 162.370,80.332 162.682 C 80.174 162.840,75.019 162.013,74.620 161.767 C 74.208 161.512,74.383 159.248,74.893 158.230 C 75.893 156.236,77.821 156.222,79.129 158.199 M66.381 185.545 L 66.381 193.122 67.024 193.272 C 67.378 193.355,71.701 194.256,76.631 195.275 C 89.280 197.891,89.269 197.886,89.492 201.073 C 89.834 205.977,88.504 206.219,75.712 203.577 C 70.760 202.554,66.635 201.717,66.545 201.717 C 66.054 201.717,66.387 215.700,66.881 215.845 C 70.414 216.880,86.368 219.855,88.412 219.860 C 96.091 219.878,98.848 215.576,98.849 203.577 C 98.850 191.708,96.007 185.953,88.624 182.880 C 86.902 182.163,68.144 177.969,66.659 177.969 C 66.485 177.969,66.381 180.819,66.381 185.545 M313.738 211.221 C 312.360 215.042,310.850 219.231,310.382 220.529 L 309.531 222.890 300.213 222.890 L 290.895 222.890 298.538 228.626 C 305.335 233.727,306.160 234.432,305.986 234.992 C 305.879 235.339,304.526 239.351,302.979 243.908 C 301.432 248.465,300.193 252.220,300.226 252.252 C 300.259 252.285,303.740 249.812,307.962 246.756 C 312.184 243.701,315.741 241.202,315.868 241.202 C 315.994 241.202,319.782 243.901,324.286 247.200 C 328.790 250.499,332.475 253.168,332.475 253.132 C 332.475 253.096,331.070 248.857,329.354 243.712 L 326.233 234.358 334.070 228.696 L 341.908 223.033 332.509 222.958 L 323.110 222.882 319.744 213.659 C 317.893 208.586,316.348 204.399,316.311 204.354 C 316.273 204.310,315.116 207.400,313.738 211.221 M75.230 221.831 C 70.070 223.299,67.163 227.930,66.386 235.924 C 66.151 238.339,65.956 257.491,66.166 257.521 C 66.205 257.527,73.641 258.981,82.690 260.753 L 99.142 263.976 99.230 253.662 C 99.372 237.211,98.295 232.761,92.854 227.316 C 88.478 222.935,80.298 220.390,75.230 221.831 M83.774 237.441 C 87.338 238.551,88.933 240.790,89.199 245.060 C 89.322 247.028,89.275 247.493,88.953 247.478 C 88.734 247.469,85.787 246.918,82.403 246.255 L 76.252 245.049 76.162 243.197 C 75.883 237.472,78.212 235.710,83.774 237.441 M66.381 269.099 C 66.381 273.112,66.466 276.395,66.569 276.395 C 66.836 276.395,80.677 278.934,81.545 279.142 C 82.130 279.282,80.812 280.039,74.320 283.291 L 66.381 287.270 66.381 295.280 C 66.381 299.686,66.449 303.290,66.532 303.290 C 66.733 303.290,97.814 308.976,98.646 309.165 L 99.294 309.312 99.218 301.957 L 99.142 294.601 90.486 293.024 C 85.726 292.156,81.831 291.375,81.831 291.286 C 81.831 291.198,85.760 289.162,90.563 286.763 L 99.294 282.400 99.218 275.055 L 99.142 267.711 83.119 264.763 C 74.306 263.142,66.935 261.813,66.738 261.809 C 66.461 261.804,66.381 263.449,66.381 269.099 M316.046 270.672 C 315.959 270.908,314.532 274.880,312.875 279.498 C 311.218 284.116,309.732 288.138,309.573 288.436 C 309.300 288.946,308.773 288.981,300.269 289.052 L 291.254 289.127 298.703 294.656 C 302.800 297.697,306.152 300.259,306.152 300.349 C 306.152 300.440,304.803 304.487,303.156 309.342 C 301.508 314.197,300.201 318.169,300.251 318.169 C 300.301 318.169,303.805 315.662,308.039 312.597 C 312.273 309.533,315.801 307.027,315.880 307.028 C 315.959 307.029,319.691 309.719,324.175 313.007 C 328.659 316.294,332.364 318.948,332.408 318.904 C 332.452 318.859,331.072 314.655,329.342 309.562 C 327.611 304.468,326.288 300.221,326.402 300.125 C 326.516 300.029,329.991 297.515,334.124 294.539 L 341.639 289.127 332.487 289.052 C 323.977 288.982,323.315 288.940,323.057 288.456 C 322.903 288.170,321.404 284.148,319.725 279.519 C 316.327 270.150,316.281 270.037,316.046 270.672 M77.040 308.000 C 65.843 311.498,62.703 331.437,71.312 344.376 C 78.804 355.638,91.310 355.954,96.686 345.017 C 104.955 328.191,91.793 303.391,77.040 308.000 M83.691 322.994 C 89.067 325.443,90.471 335.496,85.738 337.645 C 79.088 340.665,73.353 326.847,79.660 323.002 C 80.770 322.325,82.215 322.322,83.691 322.994 M315.670 337.654 C 315.357 338.504,313.841 342.706,312.301 346.992 L 309.501 354.785 300.339 354.860 L 291.176 354.936 298.593 360.485 C 302.671 363.537,306.059 366.077,306.120 366.128 C 306.181 366.180,304.868 370.217,303.200 375.100 C 301.533 379.982,300.243 383.977,300.334 383.977 C 300.424 383.977,303.956 381.474,308.182 378.415 L 315.865 372.852 324.067 378.851 C 328.579 382.151,332.309 384.810,332.358 384.761 C 332.407 384.713,331.043 380.531,329.327 375.469 L 326.206 366.265 327.266 365.445 C 327.849 364.995,331.352 362.446,335.050 359.781 L 341.774 354.936 332.453 354.860 L 323.133 354.785 319.889 345.847 C 318.105 340.932,316.554 336.730,316.442 336.510 C 316.308 336.246,316.045 336.637,315.670 337.654 M66.381 358.888 L 66.381 366.131 70.601 366.925 C 72.922 367.362,75.433 367.847,76.180 368.003 L 77.539 368.288 77.539 372.842 C 77.539 377.226,77.518 377.396,76.959 377.396 C 76.392 377.396,67.870 375.795,66.881 375.503 C 66.414 375.365,66.381 375.838,66.381 382.670 C 66.381 386.694,66.439 389.986,66.511 389.986 C 66.583 389.986,73.846 391.402,82.651 393.133 C 91.456 394.864,98.803 396.280,98.977 396.280 C 99.203 396.280,99.273 394.202,99.218 389.057 L 99.142 381.833 93.205 380.688 L 87.268 379.542 87.268 374.880 L 87.268 370.217 88.340 370.408 C 88.931 370.513,91.592 371.034,94.254 371.566 C 96.917 372.097,99.138 372.532,99.190 372.532 C 99.242 372.532,99.285 369.249,99.285 365.236 C 99.285 361.223,99.173 357.940,99.036 357.940 C 98.899 357.940,91.572 356.524,82.754 354.793 C 73.936 353.062,66.644 351.645,66.551 351.645 C 66.457 351.645,66.381 354.905,66.381 358.888 " stroke="none" fill="#ffffff" fill-rule="evenodd"></path><path id="path1" d="M0.000 21.860 L 0.000 43.721 0.787 44.001 C 1.220 44.155,9.750 47.273,19.742 50.930 C 29.735 54.587,38.265 57.704,38.698 57.859 L 39.485 58.139 39.414 229.135 L 39.342 400.131 19.742 407.027 L 0.143 413.922 0.070 435.573 L -0.004 457.225 84.120 457.225 L 168.244 457.225 168.171 435.580 L 168.097 413.936 148.432 407.039 L 128.767 400.143 128.761 326.252 L 128.755 252.361 200.144 252.361 L 271.532 252.361 271.460 326.217 L 271.388 400.074 251.645 407.017 L 231.903 413.961 231.829 435.593 L 231.756 457.225 315.880 457.225 L 400.004 457.225 399.930 435.561 L 399.857 413.898 380.258 407.000 L 360.658 400.101 360.586 229.136 L 360.515 58.170 378.755 51.510 C 388.787 47.847,397.672 44.599,398.498 44.293 L 400.000 43.736 400.000 21.868 L 400.000 0.000 315.880 0.000 L 231.760 0.000 231.760 21.841 L 231.760 43.682 251.645 50.940 L 271.531 58.198 271.531 123.377 L 271.531 188.555 200.143 188.555 L 128.755 188.555 128.755 123.347 L 128.755 58.139 129.542 57.855 C 129.975 57.698,138.811 54.467,149.177 50.674 C 159.544 46.880,168.074 43.777,168.133 43.777 C 168.192 43.777,168.240 33.927,168.240 21.888 L 168.240 0.000 84.120 0.000 L 0.000 0.000 0.000 21.860 M72.764 64.139 C 74.682 65.738,76.358 67.139,76.488 67.251 C 76.618 67.363,76.319 68.259,75.822 69.243 C 73.698 73.450,73.569 78.775,75.565 79.843 C 76.496 80.342,77.109 79.467,77.526 77.044 C 79.745 64.149,86.393 60.531,93.905 68.128 C 99.921 74.212,101.353 86.394,97.291 96.928 C 95.845 100.678,96.287 100.651,91.539 97.270 C 89.268 95.653,87.290 94.224,87.143 94.094 C 86.983 93.952,87.419 92.826,88.224 91.300 C 91.201 85.653,91.581 81.637,89.256 80.393 C 87.876 79.654,87.292 80.712,86.301 85.741 C 84.607 94.339,80.122 97.655,74.399 94.540 C 66.859 90.436,63.306 72.906,67.952 62.732 C 68.839 60.790,68.700 60.749,72.764 64.139 M319.738 81.831 C 321.427 86.474,322.927 90.495,323.072 90.769 C 323.312 91.222,324.136 91.272,332.487 91.341 L 341.639 91.416 333.909 96.996 C 329.074 100.485,326.230 102.714,326.318 102.946 C 326.976 104.683,332.467 121.133,332.408 121.192 C 332.366 121.233,328.662 118.578,324.177 115.291 C 319.692 112.004,315.959 109.313,315.880 109.312 C 315.801 109.311,312.274 111.818,308.041 114.884 C 303.808 117.949,300.304 120.458,300.253 120.458 C 300.202 120.458,301.508 116.486,303.156 111.631 C 304.803 106.776,306.152 102.730,306.152 102.640 C 306.152 102.549,302.807 99.987,298.719 96.946 L 291.287 91.416 300.285 91.341 C 308.773 91.270,309.300 91.235,309.573 90.725 C 309.732 90.427,311.218 86.405,312.875 81.787 C 314.532 77.169,315.959 73.197,316.046 72.961 C 316.279 72.331,316.308 72.403,319.738 81.831 M99.285 107.986 L 99.285 115.543 98.212 115.696 C 97.622 115.781,96.527 115.929,95.780 116.025 L 94.421 116.201 94.421 121.699 L 94.421 127.197 96.853 128.403 L 99.285 129.610 99.278 144.848 L 99.272 160.086 94.131 162.211 C 91.304 163.380,89.032 164.378,89.083 164.429 C 89.160 164.505,98.896 166.524,99.190 166.524 C 99.242 166.524,99.285 169.886,99.285 173.996 C 99.285 180.969,99.251 181.460,98.784 181.345 C 98.509 181.276,91.105 179.815,82.332 178.097 L 66.381 174.974 66.381 163.621 C 66.381 149.219,66.767 146.886,69.690 143.650 C 71.442 141.712,72.665 141.212,75.680 141.207 C 80.149 141.198,82.308 143.014,84.584 148.695 C 84.830 149.309,84.965 149.268,91.089 146.705 C 96.947 144.253,97.307 144.060,96.787 143.646 C 96.482 143.403,89.522 139.084,81.319 134.049 L 66.406 124.893 66.393 116.386 L 66.381 107.879 67.167 107.680 C 70.240 106.903,98.386 100.467,98.784 100.450 C 99.249 100.431,99.285 100.972,99.285 107.986 M81.330 117.718 C 78.616 118.021,76.396 118.343,76.396 118.433 C 76.399 118.643,86.183 123.354,86.324 123.213 C 86.382 123.155,86.393 121.771,86.348 120.138 L 86.266 117.167 81.330 117.718 M319.748 147.779 L 323.129 157.074 332.445 157.149 L 341.760 157.225 335.043 162.069 C 331.349 164.734,327.849 167.283,327.265 167.735 L 326.205 168.555 329.330 177.754 C 331.049 182.814,332.414 186.995,332.363 187.046 C 332.312 187.096,328.580 184.435,324.069 181.131 L 315.866 175.124 308.179 180.695 C 303.951 183.759,300.418 186.266,300.327 186.266 C 300.237 186.266,301.513 182.315,303.163 177.486 C 304.814 172.657,306.129 168.615,306.086 168.504 C 306.044 168.392,302.666 165.809,298.580 162.763 L 291.151 157.225 300.326 157.149 L 309.501 157.074 312.301 149.281 C 315.842 139.424,316.189 138.484,316.287 138.484 C 316.330 138.484,317.888 142.666,319.748 147.779 M76.073 156.898 C 74.843 157.503,73.734 161.219,74.620 161.767 C 75.019 162.013,80.174 162.840,80.332 162.682 C 80.644 162.370,79.795 159.205,79.129 158.199 C 78.294 156.937,77.060 156.412,76.073 156.898 M76.725 179.985 C 87.236 182.150,89.671 182.918,92.088 184.828 C 97.230 188.892,98.850 193.385,98.849 203.577 C 98.848 215.576,96.091 219.878,88.412 219.860 C 86.368 219.855,70.414 216.880,66.881 215.845 C 66.387 215.700,66.054 201.717,66.545 201.717 C 66.635 201.717,70.760 202.554,75.712 203.577 C 88.504 206.219,89.834 205.977,89.492 201.073 C 89.269 197.886,89.280 197.891,76.631 195.275 C 71.701 194.256,67.378 193.355,67.024 193.272 L 66.381 193.122 66.381 185.545 C 66.381 180.819,66.485 177.969,66.659 177.969 C 66.813 177.969,71.342 178.876,76.725 179.985 M319.744 213.659 L 323.110 222.882 332.509 222.958 L 341.908 223.033 334.070 228.696 L 326.233 234.358 329.354 243.712 C 331.070 248.857,332.475 253.096,332.475 253.132 C 332.475 253.168,328.790 250.499,324.286 247.200 C 319.782 243.901,315.994 241.202,315.868 241.202 C 315.741 241.202,312.184 243.701,307.962 246.756 C 303.740 249.812,300.259 252.285,300.226 252.252 C 300.193 252.220,301.432 248.465,302.979 243.908 C 304.526 239.351,305.879 235.339,305.986 234.992 C 306.160 234.432,305.335 233.727,298.538 228.626 L 290.895 222.890 300.213 222.890 L 309.531 222.890 310.382 220.529 C 310.850 219.231,312.360 215.042,313.738 211.221 C 315.116 207.400,316.273 204.310,316.311 204.354 C 316.348 204.399,317.893 208.586,319.744 213.659 M84.120 222.317 C 92.604 224.709,97.724 231.065,98.984 240.773 C 99.203 242.452,99.288 246.935,99.230 253.662 L 99.142 263.976 82.690 260.753 C 73.641 258.981,66.205 257.527,66.166 257.521 C 65.956 257.491,66.151 238.339,66.386 235.924 C 67.536 224.094,73.686 219.375,84.120 222.317 M77.393 237.857 C 76.315 238.935,76.017 240.227,76.162 243.197 L 76.252 245.049 82.403 246.255 C 85.787 246.918,88.734 247.469,88.953 247.478 C 89.670 247.511,89.198 242.932,88.293 241.083 C 86.497 237.411,79.816 235.434,77.393 237.857 M83.119 264.763 L 99.142 267.711 99.218 275.055 L 99.294 282.400 90.563 286.763 C 85.760 289.162,81.831 291.198,81.831 291.286 C 81.831 291.375,85.726 292.156,90.486 293.024 L 99.142 294.601 99.218 301.957 L 99.294 309.312 98.646 309.165 C 97.814 308.976,66.733 303.290,66.532 303.290 C 66.449 303.290,66.381 299.686,66.381 295.280 L 66.381 287.270 74.320 283.291 C 80.812 280.039,82.130 279.282,81.545 279.142 C 80.677 278.934,66.836 276.395,66.569 276.395 C 66.466 276.395,66.381 273.112,66.381 269.099 C 66.381 263.449,66.461 261.804,66.738 261.809 C 66.935 261.813,74.306 263.142,83.119 264.763 M319.725 279.519 C 321.404 284.148,322.903 288.170,323.057 288.456 C 323.315 288.940,323.977 288.982,332.487 289.052 L 341.639 289.127 334.124 294.539 C 329.991 297.515,326.516 300.029,326.402 300.125 C 326.288 300.221,327.611 304.468,329.342 309.562 C 331.072 314.655,332.452 318.859,332.408 318.904 C 332.364 318.948,328.659 316.294,324.175 313.007 C 319.691 309.719,315.959 307.029,315.880 307.028 C 315.801 307.027,312.273 309.533,308.039 312.597 C 303.805 315.662,300.301 318.169,300.251 318.169 C 300.201 318.169,301.508 314.197,303.156 309.342 C 304.803 304.487,306.152 300.440,306.152 300.349 C 306.152 300.259,302.800 297.697,298.703 294.656 L 291.254 289.127 300.269 289.052 C 308.773 288.981,309.300 288.946,309.573 288.436 C 309.732 288.138,311.218 284.116,312.875 279.498 C 314.532 274.880,315.959 270.908,316.046 270.672 C 316.281 270.037,316.327 270.150,319.725 279.519 M84.468 308.150 C 96.530 311.876,103.152 331.858,96.686 345.017 C 90.480 357.644,75.362 354.878,68.940 339.941 C 61.515 322.671,70.687 303.894,84.468 308.150 M79.660 323.002 C 73.353 326.847,79.088 340.665,85.738 337.645 C 89.528 335.924,89.639 328.843,85.941 324.742 C 84.018 322.609,81.464 321.901,79.660 323.002 M319.889 345.847 L 323.133 354.785 332.453 354.860 L 341.774 354.936 335.050 359.781 C 331.352 362.446,327.849 364.995,327.266 365.445 L 326.206 366.265 329.327 375.469 C 331.043 380.531,332.407 384.713,332.358 384.761 C 332.309 384.810,328.579 382.151,324.067 378.851 L 315.865 372.852 308.182 378.415 C 303.956 381.474,300.424 383.977,300.334 383.977 C 300.243 383.977,301.533 379.982,303.200 375.100 C 304.868 370.217,306.181 366.180,306.120 366.128 C 306.059 366.077,302.671 363.537,298.593 360.485 L 291.176 354.936 300.339 354.860 L 309.501 354.785 312.301 346.992 C 316.369 335.669,316.214 336.061,316.442 336.510 C 316.554 336.730,318.105 340.932,319.889 345.847 M82.754 354.793 C 91.572 356.524,98.899 357.940,99.036 357.940 C 99.173 357.940,99.285 361.223,99.285 365.236 C 99.285 369.249,99.242 372.532,99.190 372.532 C 99.138 372.532,96.917 372.097,94.254 371.566 C 91.592 371.034,88.931 370.513,88.340 370.408 L 87.268 370.217 87.268 374.880 L 87.268 379.542 93.205 380.688 L 99.142 381.833 99.218 389.057 C 99.273 394.202,99.203 396.280,98.977 396.280 C 98.803 396.280,91.456 394.864,82.651 393.133 C 73.846 391.402,66.583 389.986,66.511 389.986 C 66.439 389.986,66.381 386.694,66.381 382.670 C 66.381 375.838,66.414 375.365,66.881 375.503 C 67.870 375.795,76.392 377.396,76.959 377.396 C 77.518 377.396,77.539 377.226,77.539 372.842 L 77.539 368.288 76.180 368.003 C 75.433 367.847,72.922 367.362,70.601 366.925 L 66.381 366.131 66.381 358.888 C 66.381 354.905,66.457 351.645,66.551 351.645 C 66.644 351.645,73.936 353.062,82.754 354.793 " stroke="none" fill="#2463a4" fill-rule="evenodd"></path></g></svg>