<svg height="316.227766" viewBox="0 0 185.20833 185.20833" width="316.227766" xmlns="http://www.w3.org/2000/svg"><g transform="matrix(.26458333 0 0 .26458333 -13.229167 -13.229167)"><circle cx="400" cy="400" r="350"/><path d="m400 730.2c-88.2 0-171.1-34.3-233.5-96.7-62.3-62.4-96.7-145.3-96.7-233.5s34.3-171.1 96.7-233.5 145.3-96.7 233.5-96.7 171.1 34.3 233.5 96.7 96.7 145.3 96.7 233.5-34.3 171.1-96.7 233.5c-62.4 62.3-145.3 96.7-233.5 96.7z" fill="#fff"/><circle cx="400" cy="400" r="250.8"/><circle cx="400" cy="400" fill="#fff" r="235.7"/><path d="m400 164.3v471.3c129.9 0 235.7-105.7 235.7-235.7 0-129.8-105.8-235.6-235.7-235.6z" fill="#d10d27"/><path d="m692.8 291.2 2.7 8.7-24.8 27.2v.1l30.3-9.3 2 6.5-40.9 12.7-2.6-8.3 25.7-27.9v-.1l-31.4 9.6-2-6.5zm-37.2-30.4c-1.9.9-3.7 2.1-5.3 3.6-1.4 1.3-2.5 2.9-3.2 4.6-.8 1.6-1.2 3.4-1.2 5.2s.4 3.6 1.3 5.4 2 3.2 3.5 4.4c1.4 1.1 3 1.9 4.8 2.3 1.9.4 3.8.5 5.7.2 2.1-.4 4.2-1 6.1-1.9 1.8-.9 3.5-2.1 4.9-3.5 1.4-1.3 2.4-2.8 3.2-4.5.7-1.6 1.1-3.3 1.1-5.1-.1-1.9-.5-3.7-1.4-5.4-.9-1.8-2-3.2-3.4-4.3s-3-1.9-4.7-2.3c-1.8-.5-3.6-.6-5.6-.3-2.1 0-4 .7-5.8 1.6m-3.6-6.3c3.1-1.5 6.1-2.3 9.1-2.7 2.9-.3 5.7-.2 8.2.6 2.6.7 4.9 2 6.9 3.7 2.1 1.9 3.8 4.1 5 6.6 1.3 2.5 2.1 5.2 2.3 8 .2 2.6-.2 5.3-1.2 7.7-1 2.6-2.6 5-4.5 7-2 2.1-4.5 3.9-7.6 5.4-2.8 1.4-5.8 2.2-8.8 2.6-2.9.3-5.6.1-8.2-.7-2.6-.7-4.9-2-7-3.7-2.2-1.8-3.9-4.1-5.1-6.6-1.3-2.7-2-5.4-2.2-8-.1-2.8.3-5.3 1.3-7.7 1-2.5 2.4-4.8 4.5-6.9 1.7-2 4.2-3.8 7.3-5.3m11-22.1 3.6 5.8-36.4 22.6-3.6-5.8zm-19.3-15.8-7-9.5 5.5-4.1 18.1 24.5-5.5 4.1-7-9.5-28.9 21.3-4.1-5.4zm-29.2-4.8 8.8-16.2-17 7.3zm13.7-24.2 4.1 4.4-20.5 41-5.3-5.8 4.8-9.2-11.3-12.3-9.6 4-5.1-5.7zm-21-20.6 5 4.6-28.7 31.7-5.1-4.5zm-14.9 0c-.2-2.2-.6-3.9-1.3-5.1-.6-1.2-1.5-2.3-2.6-3.1-1.6-1.2-3.2-2-5-2.3-1.7-.3-3.5-.3-5.3.1s-3.4 1.1-5 2.2c-1.7 1.2-3.1 2.6-4.4 4.2-1.4 1.8-2.4 3.6-3.1 5.6-.6 1.9-1 3.8-.9 5.6s.5 3.5 1.3 5.1c.8 1.7 2.1 3.1 3.6 4.2 1.2 1 2.7 1.5 4.3 1.8 1.7.2 3.6 0 5.7-.6l1.8 7c-3 1.1-5.8 1.3-8.5.7-2.8-.6-5.2-1.7-7.5-3.4-2.3-1.8-4.2-3.8-5.5-6.2-1.3-2.3-2.1-4.8-2.4-7.5-.2-2.7.1-5.4.9-8.1.8-2.8 2.3-5.5 4.3-8.2 2.1-2.7 4.4-4.9 6.8-6.5 2.3-1.5 5-2.6 7.7-3.1 2.6-.5 5.3-.4 7.9.2s5 1.9 7.5 3.6c2 1.6 3.6 3.4 4.8 5.6 1.1 2.2 1.7 4.8 1.8 7.9zm-62.5-27.6c-1.1 1.9-1.8 3.9-2.3 6-.4 1.9-.4 3.8-.1 5.7.3 1.8 1 3.4 2 4.9s2.4 2.8 4.1 3.7c1.7 1 3.5 1.5 5.3 1.5 1.8.2 3.6-.2 5.3-.8s3.2-1.7 4.8-3.1c1.5-1.4 2.8-3.1 3.9-5s1.7-3.7 2.1-5.7c.3-1.8.3-3.7 0-5.5s-1-3.4-2.1-4.9c-1-1.5-2.4-2.8-4.1-3.7s-3.5-1.5-5.3-1.5c-1.8-.2-3.6.2-5.2.8-1.7.6-3.2 1.6-4.7 2.9-1.4 1.3-2.6 2.9-3.7 4.7m-6.6-3c1.6-3 3.6-5.5 5.8-7.4 2.3-1.9 4.6-3.4 7.1-4.2 2.5-.9 5.1-1.1 7.8-.9 2.7.3 5.4 1.2 7.9 2.6 2.6 1.5 4.8 3.2 6.5 5.3 1.6 2.1 2.8 4.6 3.4 7.1.6 2.6.6 5.4.2 8.2-.5 3.1-1.6 6.1-3.2 8.8-1.6 2.9-3.5 5.4-5.7 7.2-2.3 1.9-4.6 3.2-7.1 4.1-2.6.8-5.2 1.1-7.9.8-2.8-.3-5.6-1.1-8-2.5-2.6-1.4-4.7-3.2-6.3-5.4-1.7-2.1-2.8-4.5-3.4-7.1-.6-2.5-.7-5.3-.2-8.1.5-2.7 1.5-5.7 3.1-8.5m-4.4-14.9c-.2-1.4-.8-2.5-1.8-3.4-.9-1-2-1.7-3.2-2.2-.7-.3-1.4-.5-2.2-.6s-1.5-.1-2.3.2c-.7.2-1.4.5-1.9 1.1-.6.5-1.1 1.2-1.5 2.1-.5 1.3-.5 2.5.1 3.6s1.3 2.1 2.4 3.1c1.1 1.1 2.2 2.1 3.5 3.2 1.3 1 2.4 2.3 3.2 3.6 1 1.3 1.5 2.8 1.8 4.6.2 1.7 0 3.8-1 6.2-.9 2.1-1.9 3.8-3.2 5.1-1.4 1.3-2.8 2.3-4.5 2.8-1.6.6-3.4.8-5.1.6-1.8-.1-3.5-.5-5.3-1.1-2.2-.9-4.1-2.2-5.9-3.8-1.7-1.6-2.9-3.7-3.6-6.2l6.8-3.2c.2 1.6.8 3 1.8 4.3 1 1.2 2.2 2.1 3.6 2.7.7.2 1.5.5 2.3.5.8.1 1.6 0 2.4-.2s1.5-.6 2.1-1.1c.6-.6 1.1-1.3 1.5-2.2.6-1.4.6-2.7.1-3.8-.6-1.2-1.4-2.3-2.4-3.2-1.1-1.1-2.3-2.2-3.5-3.2s-2.3-2.2-3.2-3.6-1.5-3-1.8-4.6c-.3-1.7 0-3.7 1-6.1.8-2.1 1.9-3.7 3.2-4.9 1.3-1.1 2.8-2 4.5-2.5s3.4-.7 5.1-.5c1.7.1 3.4.5 5.1 1.1 1.9.8 3.6 1.8 5 3.2 1.5 1.3 2.7 3 3.6 5zm-29.3-10.9c-.4-1.3-1.1-2.4-2.1-3.2-1.1-.8-2.2-1.5-3.5-1.8-.7-.2-1.5-.3-2.3-.3s-1.5.1-2.2.3c-.7.3-1.3.7-1.9 1.3s-1 1.3-1.2 2.3c-.4 1.4-.2 2.6.4 3.6s1.5 1.9 2.7 2.8 2.4 1.8 3.8 2.7c1.4 1 2.6 2 3.6 3.3 1.1 1.2 1.8 2.8 2.3 4.5.4 1.7.3 3.7-.4 6.2-.6 2.3-1.5 4.1-2.7 5.4-1.2 1.5-2.6 2.6-4.1 3.3s-3.2 1.1-4.9 1.2c-4.2.1-8.4-1.2-11.8-3.8-1.9-1.5-3.3-3.4-4.3-5.8l6.5-3.9c.4 1.5 1.2 2.9 2.3 4.1 1.1 1.1 2.4 1.9 3.8 2.3.8.2 1.5.3 2.4.3.8 0 1.6-.2 2.4-.5.7-.2 1.5-.7 2-1.3.6-.6 1-1.4 1.2-2.4.5-1.5.3-2.8-.3-3.8-.6-1.1-1.5-2-2.6-3-1.2-1-2.5-1.9-3.8-2.8s-2.6-2-3.6-3.2c-1.1-1.2-1.8-2.7-2.3-4.4-.4-1.7-.3-3.7.4-6.2.6-2.1 1.5-3.8 2.7-5.1 1.1-1.3 2.6-2.4 4.2-3 1.5-.6 3.2-1.1 4.9-1.1 1.8-.1 3.6.1 5.3.6 1.9.6 3.7 1.4 5.4 2.6 1.6 1.1 2.9 2.7 4 4.6zm-40.6 8.1-3.2-18.1-8.6 16.3zm-4.6-27.5 5.8.9 9.9 44.8-7.7-1.2-2.1-10.2-16.5-2.5-4.9 9.1-7.5-1.1zm-59.5-2.9 6.8-.1.6 35.9 16.4-.2.2 6.8-23.2.4zm-29.2 2.8 6.7-.8 3.9 35.8 16.3-1.8.8 6.8-23.1 2.5zm-14.3 29.5-9.7-15.7-1.9 18.3zm-14.4-24 5.8-1.3 25.7 38.1-7.5 1.7-5.7-8.7-16.3 3.6-1.2 10.4-7.5 1.7zm-28.3 46.9 5.9-2.2c.8-.3 1.6-.6 2.5-1.1s1.7-1.1 2.3-1.7c.6-.7 1.1-1.5 1.3-2.5s.1-2.1-.4-3.4c-.8-2.1-1.9-3.3-3.5-3.7-1.5-.4-3.6-.1-6.2.9l-6.1 2.3zm-6.5-17.8 5.8-2.1c2.2-.8 3.6-1.9 4.3-3.2s.8-2.7.2-4.2c-.6-1.8-1.6-2.8-3-3.2-1.5-.5-3.4-.2-5.8.6l-5.3 1.9zm-12.5-13.9 14.1-5.2c1.4-.5 2.8-.8 4.2-.9 1.5-.2 2.8 0 4.2.4 1.3.4 2.5 1.2 3.6 2.2 1.1 1.1 2 2.5 2.7 4.3.8 2.3.9 4.4.3 6.2-.6 1.9-1.8 3.6-3.3 4.9v.1c1.1-.2 2.4-.3 3.5-.1s2.2.5 3.2 1.1 1.9 1.4 2.7 2.4 1.5 2.1 1.9 3.4c.8 2.2 1.1 4.1.8 5.8-.2 1.8-.8 3.3-1.8 4.7s-2.2 2.5-3.6 3.5c-1.5 1-3.2 1.8-4.9 2.4l-13 4.8zm-19.8 17.1-10.6 5.3-3.1-6.2 27.2-13.7 3.1 6.2-10.6 5.3 16.1 32.1-6.1 3.1zm-33.6 37.4c1.3 1.9 2.8 3.5 4.3 4.7s3.2 2.1 5 2.7c1.8.5 3.5.6 5.3.4 1.9-.2 3.5-.9 5.2-2 1.6-1.1 2.9-2.4 3.8-4.1.9-1.5 1.4-3.2 1.6-5.1.2-1.8-.1-3.6-.6-5.6-.6-1.9-1.5-3.9-2.8-5.8-1.2-1.8-2.6-3.2-4.1-4.4s-3.2-2-4.9-2.6c-1.7-.5-3.5-.6-5.3-.3-1.8.2-3.5 1-5.2 2-1.5 1.1-2.8 2.4-3.7 4.1-.9 1.5-1.5 3.3-1.6 5-.2 1.8-.1 3.6.5 5.5.4 2 1.4 3.9 2.5 5.5m-5.7 4.4c-1.9-2.8-3.2-5.7-3.9-8.5-.7-2.9-.9-5.7-.6-8.3.4-2.6 1.3-5.1 2.8-7.4s3.4-4.2 5.9-5.8c2.4-1.7 4.9-2.8 7.6-3.4 2.6-.6 5.3-.5 7.9.1s5 1.8 7.5 3.6c2.4 1.7 4.5 4 6.4 6.8s3.2 5.5 3.8 8.4c.7 2.8.9 5.6.5 8.2-.4 2.7-1.3 5.2-2.8 7.5-1.5 2.4-3.5 4.4-5.8 6-2.5 1.7-5 2.8-7.7 3.2-2.6.6-5.2.5-7.8-.2-2.6-.6-5-1.7-7.5-3.4-2.4-1.8-4.5-4-6.3-6.8m-28.7 25.6c1.6 1.6 3.2 3 5 4s3.6 1.5 5.4 1.8c1.8.2 3.6.2 5.3-.4 1.8-.5 3.3-1.4 4.8-2.8s2.5-2.9 3.2-4.6c.6-1.6.9-3.4.8-5.2-.2-1.9-.6-3.6-1.5-5.5-.9-2-2.1-3.8-3.6-5.3-1.4-1.5-2.9-2.7-4.7-3.7-1.6-.9-3.4-1.4-5.3-1.7-1.8-.2-3.6-.1-5.3.5-1.7.5-3.3 1.5-4.8 2.8-1.5 1.4-2.5 2.8-3.1 4.5-.7 1.6-1 3.4-.9 5.2.2 1.8.6 3.7 1.4 5.4s1.9 3.3 3.3 5m-4.8 5.2c-2.4-2.5-4.1-5.1-5.3-7.8-1.1-2.8-1.7-5.4-1.8-8.1 0-2.7.6-5.2 1.6-7.7 1.1-2.4 2.7-4.7 4.9-6.7s4.5-3.6 7.1-4.5c2.5-.9 5.1-1.3 7.8-1.1 2.6.2 5.3 1 7.9 2.3 2.7 1.4 5.1 3.2 7.5 5.8 2.3 2.4 4 5 5.1 7.7s1.6 5.4 1.7 8c0 2.7-.5 5.3-1.6 7.8-1.1 2.6-2.8 4.9-4.8 6.8-2.2 2-4.5 3.5-7.1 4.4-2.5.9-5.1 1.3-7.8 1.1s-5.3-1-7.9-2.3-5.1-3.2-7.3-5.7m-34.8 8.4 15.9-19.2 5.3 4.4-11.5 13.9 8.6 7.1 10.9-13.1 5.3 4.4-10.9 13.1 13.7 11.4-4.4 5.3zm-28.1 43.6 12.9-22 5.9 3.4-9.3 16.2 9 5.3 8.9-15.3 5.9 3.5-8.9 15.3 10 5.8 9.9-17 5.9 3.5-13.3 22.9zm-17.7 39.1 2.8-6.2 15.7 6.6 7.1-16.6-15.7-6.6 2.7-6.2 39.4 16.8-2.7 6.2-17.4-7.3-7 16.6 17.4 7.3-2.7 6.3zm-.8 26.5-3.2 11.4-6.6-1.9 8.4-29.3 6.6 1.9-3.2 11.4 34.6 9.8-1.9 6.6z" fill="#211e1e"/><path d="m630.8 586.6-17.2-6.6 9.4 15.8zm-25.9-10.4 3.8-4.5 43.4 14.9-5 6-9.7-3.6-10.8 12.8 5.2 8.9-4.9 5.8zm-37.2 36.4 6.7-6 35.1 11.1h.1l-21.3-23.7 5.1-4.5 28.6 31.9-6.4 5.8-36.2-11.7-.1.1 22 24.4-5 4.5zm-10.1 7 5.4-4.1 25.5 34.5-5.5 4zm-31.5 20.1 5.8-3.6 8.8 14.6 15.4-9.2-8.8-14.7 5.8-3.5 22.2 36.6-5.8 3.6-9.8-16.2-15.3 9.2 9.7 16.2-5.8 3.6zm-2.3 12.2c-1.9-1-3.6-1.5-5.1-1.4-1.5 0-2.8.2-4 .8-1.9.8-3.3 1.9-4.5 3.2-1.1 1.4-2 2.9-2.5 4.6-.5 1.8-.6 3.6-.5 5.5.2 1.9.6 3.9 1.5 5.8.8 2 2 3.8 3.4 5.4 1.4 1.5 2.8 2.7 4.5 3.5 1.6.8 3.3 1.3 5.1 1.4 1.9.1 3.6-.3 5.4-1.1 1.5-.6 2.7-1.5 3.6-2.9 1-1.4 1.7-3.1 2.2-5.3l6.9 1.8c-.5 3.2-1.6 5.8-3.4 7.9s-4.1 3.7-6.6 4.9c-2.8 1.2-5.4 1.8-8.1 1.8-2.7.1-5.3-.4-7.7-1.5s-4.6-2.6-6.7-4.7c-2-2-3.7-4.6-5-7.7-1.4-3.1-2.2-6.2-2.4-9.1-.2-3 .1-5.8 1-8.3.8-2.5 2.1-4.7 4-6.7s4.2-3.6 6.8-4.7c2.3-1 4.7-1.5 7.2-1.5 2.4.1 5 .8 7.8 2.3zm-43.4 42.2 6.4-1.8-.2 16.6-5.6 1.6zm-8.4 8c-4.1 3.6-9.1 5.9-15 6.9-2.7.5-5.5.5-8.3-.1-2.6-.6-4.9-1.7-7.1-3.3-2.1-1.6-3.9-3.6-5.4-6.2-1.5-2.5-2.5-5.4-3.1-8.7s-.6-6.5-.2-9.4c.5-2.9 1.5-5.5 2.9-7.8 1.4-2.2 3.2-4.2 5.4-5.6 2.4-1.5 5-2.5 7.8-3s5.7-.6 8.3-.3c2.7.3 5.2 1.3 7.5 2.9l-4 6.5c-1.5-1.1-3.1-1.9-4.9-2.3s-3.7-.4-5.6-.1c-2 .3-3.7 1.1-5.1 2.1s-2.6 2.4-3.5 4-1.5 3.4-1.8 5.2c-.3 2-.3 4.1.1 6.1.4 2.2 1.1 4.2 2 6 1 1.8 2.2 3.2 3.6 4.5 1.4 1.2 2.9 2 4.6 2.5s3.6.6 5.5.2c1.7-.3 3.3-.7 4.7-1.4 1.4-.6 2.7-1.4 3.8-2.4l-1.8-10-7.8 1.5-1.2-6.8 14.5-2.6zm-80.2-31.2 9-.3 19.7 31.2h.2l-1.1-31.8 6.8-.2 1.4 42.8-8.6.2-20.2-32.2h-.1l1.1 32.9-6.9.2zm-38.4 17.2c-.2 2.1-.2 4.3.2 6.4.4 1.9 1.1 3.7 2.1 5.3.9 1.5 2.2 2.8 3.7 3.7 1.5 1 3.2 1.5 5.2 1.8 2 .2 3.8.1 5.5-.6 1.7-.6 3.2-1.5 4.5-2.8s2.3-2.8 3.2-4.7c.9-2 1.4-4 1.6-6.2.2-2 .2-4.1-.2-6.1-.4-1.8-1.1-3.5-2.1-5.1-1-1.5-2.3-2.7-3.8-3.6-1.5-1-3.2-1.5-5.3-1.8-1.9-.2-3.8-.1-5.4.6-1.7.6-3.3 1.5-4.5 2.8-1.3 1.2-2.3 2.8-3.2 4.5-.7 1.8-1.3 3.8-1.5 5.8m-7.1-.3c.3-3.4 1.2-6.4 2.5-9.1s3-4.9 5-6.6c1.9-1.8 4.2-3 6.8-3.8s5.4-1 8.3-.6c3 .2 5.7 1.1 8 2.3 2.4 1.3 4.4 3 5.9 5.2s2.7 4.7 3.4 7.5c.6 2.8.8 6 .5 9.4-.4 3.3-1.3 6.2-2.6 8.8s-2.9 4.8-4.9 6.5c-2 1.8-4.4 3.1-7 3.9s-5.4 1.1-8.4.7c-2.9-.3-5.6-1.1-7.9-2.4-2.3-1.4-4.3-3.1-5.8-5.3-1.5-2.1-2.7-4.6-3.3-7.4-.9-2.6-1.1-5.7-.5-9.1m-25.9-28.8 6.6 1.6-4.4 17.6.3.1 19.9-13.7 8.9 2.2-22.2 14.9 13.2 26.9-9.3-2.3-11.2-24.4-.3-.1-5.1 20.4-6.6-1.6zm-34 30.3c-5.4.6-11-.3-16.2-2.8-2.7-1.2-4.9-2.8-6.7-4.9-1.8-1.9-3.2-4.2-4-6.7s-1.1-5.2-.9-8.1 1.1-5.9 2.4-8.9c1.5-3.1 3.2-5.7 5.3-7.8 2-2 4.3-3.6 6.8-4.8 2.4-1 5.1-1.5 7.7-1.4 2.7 0 5.4.6 8 1.9 2.7 1.2 5 2.7 7.1 4.5 2 1.8 3.5 4.1 4.5 6.7l-7 3.1c-.6-1.7-1.5-3.3-2.8-4.6-1.3-1.5-2.8-2.5-4.5-3.3-1.9-.8-3.6-1.2-5.4-1.2-1.8.1-3.5.5-5.1 1.2-1.7.8-3.2 2-4.5 3.3-1.4 1.4-2.4 3.1-3.3 5s-1.5 4-1.8 6.1c-.2 2-.2 3.9.3 5.7.5 1.7 1.3 3.4 2.4 4.8s2.6 2.5 4.4 3.3c1.5.7 3.1 1.2 4.6 1.5 1.6.3 3.1.4 4.5.2l4.2-9.2-7.2-3.3 2.8-6.2 13.4 6.2zm-48-71.6 7.5 4.9-1.6 36.8.1.1 17.3-26.6 5.8 3.7-23.4 35.9-7.2-4.7 1.9-37.9-.1-.1-17.9 27.5-5.7-3.6zm-41.5-7.9c-1.4 1.6-2.6 3.4-3.5 5.4-.8 1.7-1.2 3.6-1.3 5.5-.1 1.8.2 3.6 1 5.2.6 1.7 1.7 3.2 3.2 4.5 1.5 1.4 3.2 2.3 4.9 2.8s3.6.6 5.4.2c1.9-.3 3.7-.9 5.3-1.9 1.8-1.1 3.4-2.4 4.9-4.1 1.4-1.5 2.5-3.2 3.2-5 .7-1.9 1.1-3.6 1.2-5.4 0-1.8-.3-3.6-1-5.2-.7-1.7-1.9-3.2-3.3-4.5-1.3-1.3-3-2.2-4.8-2.8-1.8-.4-3.5-.6-5.3-.2-1.8.2-3.6.9-5.3 1.8-1.6.7-3.1 2.1-4.6 3.7m-5.7-4.5c2.3-2.5 4.7-4.5 7.3-6 2.6-1.4 5.3-2.3 7.9-2.5 2.7-.3 5.3 0 7.8.8 2.6.8 4.9 2.2 7.2 4.2 2.2 1.8 3.9 4 5.2 6.6 1.1 2.4 1.8 5 1.9 7.6 0 2.8-.5 5.5-1.5 8.1-1.2 2.9-2.9 5.6-5 7.9-2.2 2.5-4.6 4.5-7.1 5.8-2.6 1.4-5.2 2.3-7.9 2.5-2.6.3-5.3 0-7.9-.8s-5-2.2-7.3-4.2c-2.1-1.8-3.8-4-5-6.6-1.2-2.4-1.8-4.9-1.9-7.6 0-2.6.5-5.3 1.5-8s2.7-5.2 4.8-7.8m-8-42.6 4.5 5.2-13 11.1 11.7 13.8 13.1-11 4.4 5.2-32.7 27.7-4.4-5.2 14.5-12.3-11.7-13.8-14.5 12.3-4.4-5.2z" fill="#211e1e"/><path d="m139.6 505.1-9.1 3.4 1.8 4.6 9-3.4zm-10.8-1.1.3 1 8.8-3.3 1.8-2.5 2.6.1c-3.4-1.9-4.2-2.8-6.9-5.8l-5.2 2c-.8 3.6-1.6 5.9-3.1 9.2zm5.5-14.5-2.4-6.2-8.1 3.1 2.4 6.2zm-21.3 22 1.2-.1c.6 1.4 1.2 2.6 1.8 4 2.2-4 4.4-9.4 4.8-14l.2-2.6-7.8 2.9-1.4-3.6 6.1-2.4-2.3-6.2-4.5 1.8-1.4-3.6 4.5-1.7-1.8-4.8 8.2-3.1 1.8 4.7 8.1-3-1.8-4.8 8-3 1.8 4.7 5.5-2.1 1.3 3.6-5.4 2 2.3 6.3 6.1-2.3 1.4 3.7-10.5 4c1 .6 2 1.1 3.1 1.5 2.8 1.3 8.2 1.1 11.4.4l.3.7c-1.9 1-2.8 2-2 4.2.5 1.2 1.1 1.5 2.1 2.2l-.5.7c-2.1-.1-4.1-.3-6.2-.7l4 10.7-8.3 3.2-.6-1.4-9.1 3.4 1.6 4.1c.2.7.6 1.3 1.5 1.6.9.2 6.1-1.7 7.1-2.1 1.3-.5 2.8-1.1 4.1-1.9 3.8-2.4 5.3-6.7 6.7-11l.8.1c-.2.9-.6 4.4-.2 5.3.8 2.3 3.1.6 3.5 1.6.2.5-.3 1.9-.6 2.4-1.7 5.1-8.1 7.4-12.8 9.1-3.2 1.2-9.3 3.4-12.9 3.2-2.5-.2-4.2-1.6-5.1-4l-5.4-14.3c-1.8 1.9-3.7 3.6-5.7 5.2 2.4 8.4 2.3 12.4-.2 20.8l-7.7-6.5c3.4-6.5 5.1-11.6 4.9-18.9m-14.4-9.6c3.9-.7 7.2-2 11.2-1.2 1.5.2 3.5 1.4 4.1 3 .9 2.3-.6 4.4-2.8 4.8-3 .6-4.6-1.1-5.9-2.9-.6-.7-1.5-1-2.3-1.5-1.4-.8-2.7-1.1-4.3-1.5zm-3.7-13.4c3.1-.5 8.8-1.5 12-1 1.9.2 3.2 2.3 3.2 4.1 0 2-1 3.5-2.5 4-2.4.7-4.5-.5-5.8-1.9-.9-1-2.1-2.4-3.3-3s-2.5-1.1-3.7-1.5zm40.8-87.1c-3 1.1-4.4 3.4-2.3 6.1l-.4.5c-8.1-1.3-15.9-5.8-18.7-13.9l1.4-.2c7.1 5.2 11.4 6.2 20 7zm-39 19.7.1 4.8 22.2-.4-.1-4.7zm22-8.6-22.1.3.1 4.5 22.1-.3zm-22.2-5.4.1 1.9 22-.3 2.3-2.4 9.7 1.7-2.7 2.6.4 21.7-9.2.2v-2.9l-22.2.4.1 3.1-9 .2-.4-26zm15.6-18.2 22.4-.3.1 3.8-22.4.4.2 14.5-9.1.2-.2-14.4-22.2.3-.1-3.8 22.3-.4-.1-3.4c-6.9-.2-13.6-.8-20.4-2.2v-.7c12.2-.4 24.2-1.7 36-4.5l11.9 4.6c-6.2 1.4-12.2 2.1-18.5 2.6zm-9.6 6.1c-5.5 8.4-12.5 11.3-21.3 14.9l-.4-.3c5-4.5 7.5-8.4 10.3-14.4z" fill="#e12330"/><path d="m666 502.8 3.2-8.5-2.8-1.1-3.1 8.5zm2-14.2-.5 1.5 2.6 1 2-1.1 4.9 3.5-1.9 1.1-5.6 15.3-5.4-1.9.6-1.9-2.8-1-.6 1.8-5.5-1.9 6.7-18.3zm4 24.1.3.2.8-.6c.6-7.9 2.8-15.1 5.4-22.6l-17-6.2 1.2-3.2 16.7 6.2 1.5-4.1 4.8 1.8-1.5 4.1 3.2 1.1c-.8-1.1-.8-1.3-.6-2.7 0-.3.1-1 0-1.2l-.4-1.3.4-.2c1.7 1 4.1 2.1 4.6 4.1.1.3.1.6 0 .9-.2.6-1.3.9-1.8 1.1l2.5.9-1.1 3.2-7.5-2.8c-1.9 5.1-3.2 9.6-4.6 15.1 3.1-4 4.1-5.8 6.4-10.6l5.3 1.9c-3.5 6.2-6.4 10.3-12.3 14.5 0 .9.3 3.7 1.2 4.1.6.2 4.6-4.5 5-4.8l.6.2c-1.1 1.9-2.4 3.6-3.1 5.6-.8 2.1.3 2.8 0 3.6-.5 1.2-2.6 3.2-4.1 2.6-1.9-.7-3.9-6.7-4.4-8.4-3.2 1.5-5 2.3-8.5 2.8l-.4-.6c2.5-1.1 4.5-2.4 6.6-4-5.8.6-11.6.3-17.4.1l-2-5.8c6.7 2.2 13.4 3.9 20.2 5m8.6 14.1 14.9-40.1-31.7-11.7-14.8 40.2zm-15.1-56.6-.6 1.6 31.3 11.6 3.4-1.6 7.1 4.7-3.2 1.3-17.5 47.6-7.5-2.8 1-2.6-31.7-11.7-1.1 2.7-7.5-2.8 18.7-50.9zm39-56.9.5-19.3-9.8-.2-.5 19.3zm-18.7-19.8-10.1-.2-.5 19.3 10.2.3zm-19-6.6 9.1.2-.1 2.3 10.1.2.2-8.6 9.2.2-.2 8.6 9.4.2 2.5-2.9 9.3 2.4-2.4 2.8-.7 28.9-9.2-.2.2-3.9-9.8-.2-.5 19-9.2-.2.5-19-10.2-.2-.1 3.9-9.1-.2z" fill="#e12330"/><path d="m416.1 206.5v94.1h24.6v-29.4l9.7-11 18.5 40.4h28.8l-30.9-55.6 30.9-38.5h-30l-27 39.5v-39.5z" fill="#fff"/><path d="m480 597h24.9l-27.9-94.2h-33l-27.9 94.2h24.9l5.6-22.5h27.7zm-28.6-41.5 9.1-36.4 9.1 36.4z" fill="#fff"/><path d="m260.9 318.7c-.6 1.5-2.3 3.5-4 3.8-5.1.5 1.5-2.5-2.8-3-1.4-.1-.8-1.8-.1-2.4 4.3-3.7 7.9-1.1 6.9 1.6m79.9-14c-6.8 1.5-13.9 7.8-19.9 9.9-3.3 1.1-3.8-1-1.5-3.9 4-5.1 6.1-7 10.3-11.8 2.5-3-.8-4.8-4-3.1-5 2.5-11.5 6.9-15.3 9-3.8 2-6-.3-2.6-3.4 3.8-3.5.3-8-4.6-5.3-2 1.1-3.9 2-5.6 2.9 6.8-5.6 12-12.3 13.3-16.9 1.1-3.9 1.1-8.4-5.4-14.7-7-6.6-14.3-2.1-7.3 5.6 2.4 2.8 4.9 5.1 3.5 8.7-1.1 2.8-2.8 5.4-9.9 11.5-7.8 6.8-11.2 8.9-21.3 9.4-13.4.6-18.3.5-23.6 4-5.4 3.5-5.8 8.9-3 13.7 3.1 5.6 3.3 9.5.8 11.5-3.8 3-11 5.1-23.1.9v-.3c-6.9-15.3 10.5-15.3 13.3-27.2 1.9-8.1-1-17.3-11.3-21.9-3.3-1.5-3.8 1.4-1.1 3 6.1 3.5 9 10 7.4 15.9-2 7.8-18.3 10.7-14.9 27.7-.8-.3-1.4-.6-2.3-1.1-8.4-4.4-15.7 1.9-14.8 8.5.9 6.8 6.8 18.3 14.7 20.7 9.9-7.9 16.2-4.8 25.3-8.1 7.9-2.9 7.5-6.9 14-8.3 6.4-1.4 9.4-3.1 13.7-6.8 5.1-4.1 7.9-10.3 9.8-16.6.3-.6.4-1.1.6-1.5 8-1.4 11-5.8 15.5-4 6.1 2.4 1.5 5.5 8.4 9.4 5.8 3.3 17.2 2.9 23.9-1.8 7-4.6 11-7.3 20.2-10.5 3.7-1.2.5-5.9-3.2-5.1m261.3 176.2c-8.7 5.6-15.9-8.7-20.7-23.6 8.3-10.2 4.1-26 20.7-20.9 1.6-6.5-3.4-19.4-14.8-15.8-9.5 3.1-4.4 19.2-12.8 25.3-13.7.5-25-.1-38-3.4 4.6-9.4 5.9-21.1 1.9-33.9-3.4-11-4-15-.8-22.9 1.9-4 3.9-7 7.8-11.5 5.9-5.8 8.7-12.9 9.4-20.2 34-16.4 20.1-40.7 18.4-31-1.4 8.3-5.6 10-14.8 10.8 1.5-9.9 9.3-13.2 7.4-25.7-2.1-14.7-13.9-25.7-11.4-15.4 1.9 7.4 2 17.8-3.9 20.1.5-8.1-9.3-18.7-18.1-22.7-3.9-1.8-3.5.1-2.1 1.8 7 7.9 9.2 18.6 6.1 25.5-10.7-.8-13.3-4.6-20.3-13.2-4.9-5.8-8.9-13.2-18.2-17.4-10-4.5-9.9-.8-7.8 1.5 10.2 10.5 6.4 20.1 19.7 29-15-.6-22.8-7-34.1-20.3-7-8.3-16.8-15-26.8-14.3-2.4.1-1.5 2.4 2.3 4.5 22.3 13.7 11.4 44.1 57.4 43.5-19.7 9.8-37.4 5.6-49.1-4.8-2.1-1.9-2.1.9-.9 3.3 16.2 28.2 52.9 24.1 77.7 5.8-.3 3.3-2.8 7.4-7.1 10.7-7 5.1 10.5 4.1 19.1-9.9 1.3 6.6 1.4 13.2-.6 19.4-3 9.9-13.7 14.9-19.4 24.4-14.2 17.6 6.5 44-9.9 59.9-17.1 13.2-41.9 1.4-48.5-18.2-13.3-36.7-40.4-56.5-75.1-28.8-17.1 11.7-27.1 33.6-48.6 38.4-4.5 1.1-9.4-.1-10-5.3-1.4-15.7 10.5-28.8 18.3-41.6 13.4-21.7 5.8-44-17.9-53.8-10-4.6-18.3-1.4-21.6 6.9-3.8 7.8-6.8 11-10.5 10-3.6-1-5-3.6-2.3-13.2 2.5-9-10.5-11.2-15.3-7.1-1.3 1-2.5 3.1-1.9 4.4.8 1.4 2.4 1 3.5.3 3.1-2.1 4.8-1.5 5.6.4 3.8 10.5-5.1 19.4-20.7 30.7-10.7 7.8-23.7 13.3-34.6 10 0 7.5 3.5 18.9 6.1 19.4 3.3.8 3.5-6.1 6.8-7 3.3-.8 4.5 9.4 8 9.4 3.5-.1 3.5-9.9 7.4-10.9 4.3-1.3 6.8 8.7 10.5 7.8 4-1.1 2.8-11.7 7.8-14 4.6-2.1 9.7 9.7 13.9 7.4 4.5-2.4.3-11.7 3.6-14 3.5-2.5 8.1 2.8 10.4.5 2.5-2.4-1.3-8 .6-10.8 1.8-2.5 6.6.6 7.5-1.9 1-2.6-2.9-5.9-2.1-8.4.8-3.3 5.1-2.6 5.6-4.6.8-2.8-4.3-4.5-3.6-6.8.8-3 3.5-4 6.8-3.5 1.5.5 3.3 1.4 4.9 2.5 3.3 2.4 7.3 5.6 10.3 9.3 1.6 3.1-1.4 5.4-1 8.8.3 2.8 4.4 4 3.8 7.4-.6 3-5.6 3.1-7 5.5-1.9 2.9 1.1 6.3-.5 9.3-1.4 2.6-6 2.8-7.8 5.1-1.9 2.6-.3 6.4-2.4 9.2-2.6 3.3-6.1 1.8-7.8 5-1.6 2.9 1.4 6.8-.3 10.5-1.5 3.3-5.8 2.9-6.8 6.3-.5 2.4 1 4 1.9 6-4.6 3.3-10.3 7.8-14.3 9.8-10.9-.1-11.9-11.9-15.2-16.4-5.1-7.1-12.3-7-16.3-2.8-4.4 4.5-.8 10.7.9 11.8 1.4-2.9 5.6-3.4 9.9 1.8 2.4 2.8 5.6 7.3 8.5 10.4-4.6 1.5-9.7 2.5-13.4 1.1-6.9-1.1-9.9-9.8-21.2-12.2-24.4-5.3-30.6 21.2-13.5 25.2-2-6.9 4.4-12.5 11.4-11 13.7 2.6 21.1 6.9 19.1 15.3-1.1 5-2.8 9.5-3.5 13-1 4.6-8.4 7.3-11.8.8-4.5 10.7 1.9 17.1 9.7 19.1 5.3 1.4 11.5-2.3 12.2-8.8.9-7.9-1.3-13.8 2.4-20.7.9-1.9 5.9 1.9 9.3 5 5.6 5.1 5 9.9 1.6 13.4 12.2 3.4 16.9-9.5 9-16.4-3.3-2.9-9-8.9-1.6-12.9 6.4-3.5 12.7-7.4 17.4-11.2 1 .4 2.1.9 3 2 2.9 4-3.1 8-.6 11.2 2.8 3.3 7.5-1.5 11.4.4 4 2 1.9 7.8 5.6 9 5.6 1.9 5.6-4.5 13.5-4.3 1.9.3 3.9.8 5.6 1.9 4.8 3 4.5 5.9 13.8 7.1 6.6 2.9 16.2 11.4 9.8 15.9-3 2.1-9.5 2.8-18.6 1.9-6.8-.8-12.7-1.6-19.9-3.9-9.4-3-17.6 8.9-6 16.9-1.3-4.5.4-7.8 5.1-7.9 5-.1 7.8.5 11.4 2 2.3.9 3.3 2.4 3.5 6.1.5 7 0 16-.5 22.3-.9 9.9 14.7 10 17.2-.5-3.6 1.6-6.4 1.1-7.3-2.6-1.6-6.8-3.6-15.5 1.4-18.6 4.5-2.9 7.3-3.5 15-5.5 5.6 6.4-.3 18.3.3 23.2.9 9.7 10.7 10.5 15.5.6-3.3-.3-5-4.9-4.9-10.4 0-6.1 2-11.7 4.3-22.3 7.3-.8 12.9-14.2 19.3-7.8 7.6-3.9 1-15-7.3-10.8-2.9 1.5-4.3 4.5-8.1 5.6-9.4 2.5-17.4-7.9-21.4-17.8 1.6-3 .9-6.9 4-9.9 3.5-3.1 6.8 1.4 10.4-1.1 4.5-3.1-.3-11.7 4.3-14.9 3.6-2.6 8.1 2.1 11.5 0 5.6-3.5 4-11.4 8.9-13 4.8-1.6 5.6 4 10.2 3.9 5.6-.3 5.8-5 9.8-3.8 3.5 1.1 1.6 7.4 3.6 10.4 2.6 4 3.6 1.6 8.1 6.6 2.3 2.9 1.3 5.8-2.3 5.5-6.4-.5-7.9-1-10.5-3-4-2.9-5.3-6.3-9.8-8-7.3-2.8-14 6.9-6.4 11.7 0-2.8 3.3-3.8 6.3-2.1 4.3 2.3 5.8 5.9 11.3 7.5-3.9 1-12 2.1-22.3-.8-10.8-3-16 12.7-3.5 15.9-1.5-8.7 11-4.9 19.7-6.9 4.5-1 6.8.8 9 3.5 3.6 4 4 8.3 1.9 9.3-1.5.6-3-.3-5.8.1-7.4 1-3.8 12 3.8 10.5-1.1-2.8 1.6-5.3 5.1-5.1 10.4 0 9-6.4 6.9-8.9-2-2.4-4.6-5.8-5.6-10.5 4-.3 11.9-4.3 10.8-.3-.4 2.1-1.4 4.4-.1 6.1 2.4 3.6 4.8.8 7.9 3.4 2.6 1.9.1 5.4 4.1 7.1 4 1.9 7.3-2.4 12-.4v-.1c.8.3 1.4.5 2 .8 17.6 5.6 33.6 2.3 44.5-6.9 12 1.1 20.7 1.9 43.9 0 3 7 1.4 14-2.4 15.7-4.6 2.1-14.3.3-22.9-4.9-8.9-5.3-18.6 11.9-5.5 15.9 1.3-7.9 6.4-7.8 12.4-5.1 2.9 1.3 7.6 2 11.5 2.4-5.3 7.5-11.5 7.5-13.3 16.7-1.3 5.9 8.3 9.5 11.4 5.4-4.5-4-1.5-8.8 5.5-14.4 4.8-4 6.5-6.8 9.9-12 4.5 8.7 3.9 13.9 9 18.8 5.9 4.7 17.7-1.9 15.7-12.3m-254.8-67.1c-.3 1.8.3 3.1 1.4 3 2.1-.3 4.5-1.1 4.6-2.1 0-.8-1.9-2.6-4-3.3-.9-.4-1.6.8-2 2.4m8.3-9.9c4 .1 8.5-.6 9.2-2.1.6-1.5-2.9-5.3-6.4-7.3-1.8-.9-3.1 1.3-4.1 3.8-1.1 2.6-.7 5.5 1.3 5.6m146.2 29.2c1.1-.8.4-4.5-2.1-3.3-14.8 6.9-18.4-7.9-22.8-19.2-1.4-3.6-6.4-.4-4.5 3.4 1.1 2.3 4.6 7.4 6.6 11.4 4.3 9.1 10.6 14.5 22.8 7.7m13.8-57.7c-11.2 21.6-4.5 32.5-2.6 47.6 0 1 .9 1.6 1.9 1.6.9 0 1.6-.8 1.6-1.8-.9-14.7-7.6-27.1 2.9-45.8.8-1.5-2.5-4.2-3.8-1.6m-48.2 22.8c1.9-1.8 3.5-4.8 2.4-5.8-1-1.3-5 .1-6.4 1-1.9 1.4-1.3 2.4.8 4.4.9 1.1 1.6 1.8 3.2.4m-16.5-20.4c1.4-2.3 2.5-7.8.6-8.9-2-1.1-6 2.4-7.5 4.5-1.9 2.9-.9 4.1 1.6 5.1 2.2.9 4.1 1.4 5.3-.7m9.2 10.7c2.1-2.5 2.8-6.1 2-6.8-.8-.6-4.5.4-6.8 2.4-1.6 1.3 0 2.8 1.4 3.8 1.3.9 2.3 1.9 3.4.6m-81.7-16c.1-1.4-3.5-3.1-6.8-3.4-1.8-.3-3 1-3 3.5-.1 2-.3 4.3 2.4 3.8 3.6-.6 7.4-2.4 7.4-3.9m-7.5-14.4c.1 2.5.9 4.8 3 4.1 5.3-1.4 8.5-4.5 8.7-6.3.1-1.9-5.6-2.9-10.3-1.9-.9.2-1.6 2.5-1.4 4.1m-4.2-12.6c1.4 2.4 2.9 4.4 6.1 1.6 3.4-2.9 6.4-8 5.1-9.2-1.3-1.1-5.8-.3-9.2 1.9-3.2 2-3.2 3.4-2 5.7m61.6 29.3c3.4.3 6.8.1 7.1-3 .5-4.4-1.4-12.5-3.8-12.7-2.3-.1-7.6 6.5-8.7 11.4-.5 2.8 3.3 4 5.4 4.3m-35.7 13.8c2.6-1.6 4-3.3 2.4-5.6-1.5-2.5-5.1-5.6-7.8-4.1-2.5 1.5-1.1 6.6.3 9.4 1.2 2.2 2.4 1.9 5.1.3m-20.4-1.9c.1-1.1-2.1-4.3-4.9-5.1-1.6-.6-3.3.3-3.8 3.3-.6 2.9.4 4.4 1.9 4.4 3.5-.1 6.7-1.1 6.8-2.6m35.3-9.3c3-.9 4.3-1.8 2.9-5.1-1.4-3.4-4.6-6.4-6.6-5.8-1.9.5-2 6.3-1.5 8.7.5 3.1 2.2 3.2 5.2 2.2m-138.7-36c-1.9 2.4-4.5 5.8-7.8 8.3-3 2-9.3 6-11.7 10.3-2.4 3.9-2.3 5.5 3 2.1 2.8-1.8 4.6-3.8 7.3-3.8 5.6.1 12.4-4.5 17.3-9.4 1.8-1.9 1.6-4.8-.3-6.6-.1-.1-.3-.3-.4-.4-3.3-2.5-5.9-2.2-7.4-.5m77.9-11.7c2.8 1.3 4.8 1.3 5.6-1.3 1.1-3 1.4-7.4-.3-8.3-2.4-1-6.1 2-7.6 4.5-1.5 2.7.1 4.2 2.3 5.1m13.4 5.6c1.9 1.3 2.4 3 5 .1 3-3.3 6.1-10 4.3-11-1.4-.8-7.8 3.6-9.9 6.1-2.2 2.4-1.6 3.5.6 4.8"/><g fill="#d10d27"><path d="m307.5 206.5v94.1h24.7v-39.6h27.7v39.6h24.7v-94.1h-24.7v36h-27.7v-36z"/><path d="m338.2 597v-37.3h36.4v-18.6h-36.4v-19.6h39.3v-18.7h-63.9v94.2z"/></g></g></svg>