<?xml version="1.0" encoding="UTF-8"?>
<svg width="239.84" height="239.84" version="1.1" viewBox="0 0 239.84 239.84" xmlns="http://www.w3.org/2000/svg">
 <defs>
  <style>.cls-1{fill:none;}.cls-2{fill:#007025;}.cls-3{fill:#009845;}.cls-4{fill:#fff;}.cls-5{fill:#f18a00;}.cls-6{fill:#ff8300;}</style>
 </defs>
 <g transform="translate(-30.08,-30.08)">
  <circle class="cls-4" cx="150" cy="149.97" r="67.84"/>
  <g id="BADGE">
   <path class="cls-2" d="m150 266.47c-64.34 0-116.5-52.16-116.5-116.5s52.16-116.5 116.5-116.5 116.5 52.16 116.5 116.5-52.16 116.5-116.5 116.5zm67.84-116.5c0-37.47-30.37-67.84-67.84-67.84s-67.84 30.37-67.84 67.84 30.37 67.84 67.84 67.84 67.84-30.37 67.84-67.84z"/>
   <circle class="cls-4" cx="55.92" cy="169.1" r="4.8"/>
   <circle class="cls-4" cx="243.55" cy="169.1" r="4.7"/>
   <rect class="cls-4" transform="rotate(-64.01 63.841 107.72)" x="61.89" y="98.24" width="3.91" height="18.95"/>
   <path class="cls-4" d="m84.98 75.37c-2.77-2.71-6.95-2.63-9.72 0.2l-5.85 5.98 13.54 13.25 2.73-2.79-3.79-3.71 1.73-1.77 7.18 0.24 3.63-3.71-7.91-0.18c1.09-2.58 0.5-5.49-1.55-7.5zm-5.54 10.52-4.84-4.74 2.8-2.86c0.72-0.73 1.57-1.13 2.47-1.13 0.86 0 1.7 0.35 2.37 1.01 1.43 1.4 1.43 3.4 0 4.87l-2.8 2.86z"/>
   <polygon class="cls-4" points="119.72 68.64 118.24 65.48 110.07 69.31 108.21 65.33 116.06 61.64 114.6 58.51 106.74 62.19 104.99 58.47 113.07 54.69 111.59 51.53 99.97 56.97 108.01 74.13"/>
   <polygon class="cls-4" points="148.46 63.17 148.13 59.7 139.75 60.5 138.28 45.11 134.39 45.48 136.2 64.34"/>
   <path class="cls-4" d="m176.88 47.98-12.88 16.08 4.04 1.12 2.06-2.77 7.92 2.2 0.33 3.43 4.04 1.12-2.72-20.42-2.8-0.78zm0.83 13.13-5.53-1.54 4.77-6.44 0.76 7.97z"/>
   <polygon class="cls-4" points="219.18 70.14 211.33 80.09 211.11 63.77 208.58 61.77 196.85 76.65 199.85 79.02 207.69 69.09 207.92 85.38 210.46 87.38 222.19 72.51"/>
   <path class="cls-4" d="m241.11 96.74-2.75-4.96-16.57 9.19 2.75 4.96c2.33 4.2 5.79 6.49 9.37 6.49 1.47 0 2.96-0.39 4.4-1.19 4.95-2.75 6.08-8.57 2.79-14.49zm-3.81 0.1 0.72 1.29c2.37 4.28 1.79 7.81-1.59 9.69-1.67 0.92-3.29 1.08-4.84 0.46-1.6-0.64-3.02-2.06-4.23-4.24l-0.72-1.29 10.65-5.91z"/>
   <path class="cls-4" d="m86.7 215.7 5.41 4.84-1.27 1.42-3.85-3.44-1.35 1.51 3.39 3.04-1.27 1.42-3.39-3.04-2.46 2.75-1.56-1.4 6.36-7.1z"/>
   <path class="cls-4" d="m98 230.82v-0.02c1.36-2.35 4.32-3.22 6.87-1.76s3.3 4.41 1.95 6.76v0.02c-1.36 2.35-4.32 3.22-6.87 1.76s-3.3-4.41-1.95-6.76zm6.89 3.94v-0.02c0.82-1.42 0.46-3.2-1.01-4.03-1.47-0.84-3.14-0.26-3.96 1.16v0.02c-0.82 1.42-0.46 3.2 1.01 4.03s3.14 0.26 3.96-1.16z"/>
   <path class="cls-4" d="m117.37 240.4v-0.03c0.79-2.6 3.48-4.1 6.29-3.26 2.82 0.85 4.21 3.56 3.42 6.15v0.03c-0.79 2.6-3.48 4.11-6.29 3.26-2.82-0.85-4.21-3.56-3.43-6.15zm7.6 2.29v-0.03c0.48-1.57-0.28-3.22-1.89-3.7-1.62-0.49-3.12 0.45-3.59 2.02v0.03c-0.48 1.57 0.28 3.22 1.89 3.7 1.62 0.49 3.12-0.45 3.59-2.02z"/>
   <path class="cls-4" d="m140.86 242.64-2.89-0.25 0.17-1.93 7.87 0.68-0.17 1.93-2.89-0.25-0.65 7.57-2.09-0.18z"/>
   <path class="cls-4" d="m156.67 240.99 4.4-0.5c1.08-0.12 1.97 0.08 2.57 0.56 0.48 0.38 0.76 0.89 0.83 1.54v0.03c0.12 1.07-0.38 1.73-1.01 2.18 1.14 0.3 1.89 0.85 2.04 2.13v0.03c0.2 1.73-1.11 2.76-3.25 3l-4.51 0.51-1.07-9.47zm5.77 2.18c-0.07-0.62-0.6-0.92-1.48-0.82l-2.06 0.23 0.23 2 1.92-0.22c0.92-0.1 1.47-0.47 1.39-1.17v-0.03zm-0.7 2.88-2.41 0.27 0.24 2.08 2.48-0.28c0.92-0.1 1.44-0.49 1.36-1.2v-0.03c-0.07-0.64-0.59-0.97-1.66-0.85z"/>
   <path class="cls-4" d="m178.29 236.62 1.83-0.62 6.94 7.78-2.08 0.7-1.51-1.75-3.82 1.29-0.14 2.3-2.03 0.68 0.79-10.4zm3.89 4.61-2.19-2.52-0.21 3.33z"/>
   <path class="cls-4" d="m193.5 230.19 1.81-1.06 3.86 6.57 4.1-2.41 0.97 1.64-5.9 3.47-4.83-8.22z"/>
   <path class="cls-4" d="m208.02 220.4 1.57-1.39 5.04 5.72 3.57-3.14 1.26 1.43-5.14 4.53z"/>
   <path class="cls-2" d="m154.08 159.41c0.91 2.03 1.93 4.06 2.97 6.04 6.58 12.59 13.65 24.34 23.6 34.35-1.27 1.09-3.94 2.21-5.45 2.77-0.33 0.12-0.99 0.32-1.89 0-0.38-0.14-1.07-1.17-1.29-1.52-5.36-8.65-9.47-18.02-13.14-27.51-1.38-3.58-2.71-7.18-3.78-10.85-0.28-0.96-0.68-2.09-1.02-3.27z"/>
   <path class="cls-2" d="m200.21 120.9c-7.8-6.88-19.7-6.13-26.58 1.67l-21.41 24.02 12.1-29.82c3.96-9.62-0.62-20.63-10.23-24.59-9.56-3.94-20.5 0.57-24.52 10.08-9.65-3.68-20.47 1.09-24.25 10.72-3.79 9.68 0.98 20.61 10.66 24.41l29.9 11.9-32.16-1.17c-10.39-0.44-19.17 7.64-19.61 18.03-0.43 10.34 7.55 19.07 17.86 19.59-0.16 10.32 8.02 18.87 18.36 19.12 10.4 0.25 19.03-7.97 19.29-18.37l1.04-34.75 25.8 23.31c7.68 7.01 19.59 6.47 26.61-1.21 6.98-7.64 6.47-19.46-1.09-26.49 6.76-7.8 5.98-19.61-1.78-26.45z"/>
   <path class="cls-4" d="m197.32 147.61c-12.43 2.3-25.16 3.01-37.77 2.05 12.43-2.32 25.16-2.99 37.77-2.05z"/>
   <path class="cls-4" d="m131.4 106.57c6.42 10.9 11.43 22.61 14.84 34.79-6.43-10.89-11.42-22.61-14.84-34.79z"/>
   <path class="cls-4" d="m115.39 182.55c8.04-9.76 17.34-18.47 27.62-25.84-8.03 9.77-17.35 18.46-27.62 25.84z"/>
   <path class="cls-5" d="m150 269.92c-32.03 0-62.15-12.47-84.8-35.12s-35.12-52.77-35.12-84.8 12.47-62.15 35.12-84.8 52.77-35.12 84.8-35.12 62.15 12.47 84.8 35.12 35.12 52.77 35.12 84.8-12.47 62.15-35.12 84.8-52.77 35.12-84.8 35.12zm0-232.99c-30.2 0-58.6 11.76-79.95 33.12-21.36 21.36-33.12 49.75-33.12 79.95s11.76 58.6 33.12 79.95c21.36 21.36 49.75 33.12 79.95 33.12s58.6-11.76 79.95-33.12c21.36-21.36 33.12-49.75 33.12-79.95s-11.76-58.6-33.12-79.95c-21.36-21.36-49.75-33.12-79.95-33.12z"/>
   <path class="cls-4" d="m149.78 228.79c-5.81-0.01-11.64-0.68-17.32-1.98l1.53-6.66c10.49 2.4 21.49 2.4 32.02 0l1.53 6.66c-5.83 1.34-11.8 2.01-17.75 1.99z"/>
   <path class="cls-6" d="m173.22 225.27-2-6.53 0.06-0.02c10.43-3.23 19.74-8.6 27.68-15.97l4.65 5.01c-8.69 8.08-18.89 13.96-30.31 17.49z"/>
   <path class="cls-3" d="m126.78 225.28c-11.24-3.48-21.74-9.54-30.37-17.52l4.64-5.02c7.88 7.29 17.47 12.83 27.75 16.01z"/>
   <path class="cls-5" d="m97.42 199.05c-12.02-12.87-19.39-30.13-19.39-49.08 0-39.68 32.28-71.96 71.96-71.96s71.96 32.28 71.96 71.96c0 18.95-7.37 36.21-19.39 49.08l4.99 4.66c13.16-14.09 21.23-32.99 21.23-53.74 0-43.45-35.35-78.8-78.8-78.8s-78.8 35.35-78.8 78.8c0 20.75 8.07 39.65 21.23 53.74l4.99-4.66z"/>
  </g>
 </g>
</svg>
