<?xml version="1.0" encoding="UTF-8" standalone="no"?>
<!-- Created with Inkscape (http://www.inkscape.org/) -->

<svg
   xmlns:dc="http://purl.org/dc/elements/1.1/"
   xmlns:cc="http://creativecommons.org/ns#"
   xmlns:rdf="http://www.w3.org/1999/02/22-rdf-syntax-ns#"
   xmlns:svg="http://www.w3.org/2000/svg"
   xmlns="http://www.w3.org/2000/svg"
   xmlns:sodipodi="http://sodipodi.sourceforge.net/DTD/sodipodi-0.dtd"
   xmlns:inkscape="http://www.inkscape.org/namespaces/inkscape"
   version="1.1"
   id="svg10"
   xml:space="preserve"
   width="140.2"
   height="140.2"
   viewBox="0 0 140.2 140.2"
   sodipodi:docname="ВФАК.svg"
   inkscape:version="0.92.2 (5c3e80d, 2017-08-06)"><metadata
     id="metadata16"><rdf:RDF><cc:Work
         rdf:about=""><dc:format>image/svg+xml</dc:format><dc:type
           rdf:resource="http://purl.org/dc/dcmitype/StillImage" /><dc:title></dc:title></cc:Work></rdf:RDF></metadata><defs
     id="defs14"><clipPath
       clipPathUnits="userSpaceOnUse"
       id="clipPath26"><path
         d="M 595.2756,0 H 0 v 841.8898 h 595.2756 z"
         id="path24"
         inkscape:connector-curvature="0"
         style="clip-rule:evenodd" /></clipPath><clipPath
       clipPathUnits="userSpaceOnUse"
       id="clipPath134"><path
         d="m 282.7318,287.248 h 30.0371 l 20.2762,-11.7066 35.295,-20.3774 v -40.7551 -40.7551 l -35.295,-20.3774 -35.2948,-20.3777 -35.295,20.3777 -35.2947,20.3774 v 40.7551 40.7551 l 35.2947,20.3774 z"
         id="path132"
         inkscape:connector-curvature="0"
         style="clip-rule:evenodd" /></clipPath><clipPath
       clipPathUnits="userSpaceOnUse"
       id="clipPath146"><path
         d="m 297.7503,295.9189 35.2948,-20.3775 35.295,-20.3774 v -40.7551 -40.7551 l -35.295,-20.3774 -35.2948,-20.3777 -35.295,20.3777 -35.2947,20.3774 v 40.7551 40.7551 l 35.2947,20.3774 z"
         id="path144"
         inkscape:connector-curvature="0"
         style="clip-rule:evenodd" /></clipPath><clipPath
       clipPathUnits="userSpaceOnUse"
       id="clipPath158"><path
         d="m 204.1061,156.1275 25.5053,-14.7257 25.5056,-14.7255 V 97.2252 67.7738 L 229.6114,53.0484 204.1061,38.3227 178.6005,53.0484 153.0952,67.7738 v 29.4514 29.4511 l 25.5053,14.7255 z"
         id="path156"
         inkscape:connector-curvature="0"
         style="clip-rule:evenodd" /></clipPath><clipPath
       clipPathUnits="userSpaceOnUse"
       id="clipPath170"><path
         d="m 204.1061,156.1275 25.5053,-14.7257 25.5056,-14.7255 V 97.2252 67.7738 L 229.6114,53.0484 204.1061,38.3227 178.6005,53.0484 153.0952,67.7738 v 29.4514 29.4511 l 25.5053,14.7255 z"
         id="path168"
         inkscape:connector-curvature="0"
         style="clip-rule:evenodd" /></clipPath><clipPath
       clipPathUnits="userSpaceOnUse"
       id="clipPath182"><path
         d="m 445.3506,295.9189 35.2948,-20.3775 35.295,-20.3774 v -40.7551 -40.7551 l -35.295,-20.3774 -35.2948,-20.3777 -35.295,20.3777 -35.2947,20.3774 v 40.7551 40.7551 l 35.2947,20.3774 z"
         id="path180"
         inkscape:connector-curvature="0"
         style="clip-rule:evenodd" /></clipPath><clipPath
       clipPathUnits="userSpaceOnUse"
       id="clipPath194"><path
         d="m 445.3506,295.9189 35.2948,-20.3775 35.295,-20.3774 v -40.7551 -40.7551 l -35.295,-20.3774 -35.2948,-20.3777 -35.295,20.3777 -35.2947,20.3774 v 40.7551 40.7551 l 35.2947,20.3774 z"
         id="path192"
         inkscape:connector-curvature="0"
         style="clip-rule:evenodd" /></clipPath><clipPath
       clipPathUnits="userSpaceOnUse"
       id="clipPath206"><path
         d="m 141.241,289.62 h 17.5919 l 26.4988,-15.2991 35.295,-20.3775 v -40.7551 -40.7551 l -35.295,-20.3774 -30.4597,-17.5862 h -9.6701 l -30.46,17.5862 -35.2947,20.3774 v 40.7551 40.7551 l 35.2947,20.3775 z"
         id="path204"
         inkscape:connector-curvature="0"
         style="clip-rule:evenodd" /></clipPath><clipPath
       clipPathUnits="userSpaceOnUse"
       id="clipPath218"><path
         d="m 150.0369,294.6983 35.2948,-20.3774 35.295,-20.3775 v -40.7551 -40.7551 l -35.295,-20.3774 -35.2948,-20.3777 -35.295,20.3777 -35.2947,20.3774 v 40.7551 40.7551 l 35.2947,20.3775 z"
         id="path216"
         inkscape:connector-curvature="0"
         style="clip-rule:evenodd" /></clipPath><clipPath
       clipPathUnits="userSpaceOnUse"
       id="clipPath230"><path
         d="M 127.0967,139.136 V 33.9769 L 112.2823,25.4239 76.9876,5.0462 41.6925,25.4239 6.3978,45.8014 v 40.7551 40.7551 l 35.2947,20.3774 35.2951,20.3774 35.2947,-20.3774 z"
         id="path228"
         inkscape:connector-curvature="0"
         style="clip-rule:evenodd" /></clipPath><clipPath
       clipPathUnits="userSpaceOnUse"
       id="clipPath242"><path
         d="m 31.4175,141.7567 h 91.1401 l 25.0197,-14.4451 V 86.5565 45.8014 L 112.2823,25.4239 78.2178,5.7566 H 75.7573 L 41.6925,25.4239 6.3978,45.8014 v 40.7551 40.7551 z"
         id="path240"
         inkscape:connector-curvature="0"
         style="clip-rule:evenodd" /></clipPath><clipPath
       clipPathUnits="userSpaceOnUse"
       id="clipPath254"><path
         d="m 76.9876,168.0664 35.2947,-20.3774 35.295,-20.3774 V 86.5565 45.8014 L 112.2823,25.4239 76.9876,5.0462 41.6925,25.4239 6.3978,45.8014 v 40.7551 40.7551 l 35.2947,20.3774 z"
         id="path252"
         inkscape:connector-curvature="0"
         style="clip-rule:evenodd" /></clipPath><clipPath
       clipPathUnits="userSpaceOnUse"
       id="clipPath266"><path
         d="m 365.5947,166.7197 h 11.1481 l 10.6918,-6.1727 16.266,-9.3912 v -18.7824 -18.7823 l -16.266,-9.3912 -16.2658,-9.3912 -14.6656,8.4674 v 58.1947 z"
         id="path264"
         inkscape:connector-curvature="0"
         style="clip-rule:evenodd" /></clipPath><clipPath
       clipPathUnits="userSpaceOnUse"
       id="clipPath278"><path
         d="m 381.9971,101.0608 h -21.6567 l -5.4377,3.1391 -16.2657,9.3912 v 18.7823 18.7824 l 16.2657,9.3912 16.2661,9.3909 16.2658,-9.3909 16.266,-9.3912 v -18.7824 -18.7823 l -16.266,-9.3912 z"
         id="path276"
         inkscape:connector-curvature="0"
         style="clip-rule:evenodd" /></clipPath><clipPath
       clipPathUnits="userSpaceOnUse"
       id="clipPath290"><path
         d="m 371.1688,169.9379 16.2658,-9.3912 16.266,-9.3909 v -18.7824 -18.7823 l -16.266,-9.3912 -16.2658,-9.3912 -16.2661,9.3912 -16.2657,9.3912 v 18.7823 18.7824 l 16.2657,9.3909 z"
         id="path288"
         inkscape:connector-curvature="0"
         style="clip-rule:evenodd" /></clipPath><clipPath
       clipPathUnits="userSpaceOnUse"
       id="clipPath302"><path
         d="m 514.6328,420.3831 h 7.3105 l 31.6395,-18.2671 35.295,-20.3774 v -40.7551 -40.7551 l -35.295,-20.3774 -35.2948,-20.3777 -35.295,20.3777 -35.2947,20.3774 v 40.7551 40.7551 l 35.2947,20.3774 z"
         id="path300"
         inkscape:connector-curvature="0"
         style="clip-rule:evenodd" /></clipPath><clipPath
       clipPathUnits="userSpaceOnUse"
       id="clipPath314"><path
         d="m 518.288,422.4934 35.2948,-20.3774 35.295,-20.3774 v -40.7551 -40.7551 l -35.295,-20.3774 -35.2948,-20.3777 -35.295,20.3777 -35.2947,20.3774 v 40.7551 40.7551 l 35.2947,20.3774 z"
         id="path312"
         inkscape:connector-curvature="0"
         style="clip-rule:evenodd" /></clipPath><clipPath
       clipPathUnits="userSpaceOnUse"
       id="clipPath352"><path
         d="m 365.3056,419.3011 h 11.1226 l 29.7334,-17.1669 35.2951,-20.3774 v -40.7552 -40.7551 l -35.2951,-20.3774 -33.8904,-19.5673 h -2.8086 l -33.8907,19.5673 -35.2948,20.3774 v 40.7551 40.7552 l 35.2948,20.3774 z"
         id="path350"
         inkscape:connector-curvature="0"
         style="clip-rule:evenodd" /></clipPath><clipPath
       clipPathUnits="userSpaceOnUse"
       id="clipPath364"><path
         d="m 370.8669,422.5119 35.2947,-20.3777 35.2951,-20.3774 v -40.7552 -40.7551 l -35.2951,-20.3777 -35.2947,-20.3777 -35.295,20.3777 -35.2948,20.3777 v 40.7551 40.7552 l 35.2948,20.3774 z"
         id="path362"
         inkscape:connector-curvature="0"
         style="clip-rule:evenodd" /></clipPath><clipPath
       clipPathUnits="userSpaceOnUse"
       id="clipPath376"><path
         d="M 445.0414,501.6569 420.1092,487.262 395.1768,472.8674 v -28.7893 -28.7898 l 24.9324,-14.3943 24.9322,-14.3949 24.9324,14.3949 24.9321,14.3943 v 28.7898 28.7893 l -24.9321,14.3946 z"
         id="path374"
         inkscape:connector-curvature="0"
         style="clip-rule:evenodd" /></clipPath><clipPath
       clipPathUnits="userSpaceOnUse"
       id="clipPath388"><path
         d="M 445.0414,501.6569 420.1092,487.262 395.1768,472.8674 v -28.7893 -28.7895 l 24.9324,-14.3946 24.9322,-14.3949 24.9324,14.3949 24.9324,14.3946 v 28.7895 28.7893 l -24.9324,14.3946 z"
         id="path386"
         inkscape:connector-curvature="0"
         style="clip-rule:evenodd" /></clipPath></defs><sodipodi:namedview
     pagecolor="#ffffff"
     bordercolor="#666666"
     borderopacity="1"
     objecttolerance="10"
     gridtolerance="10"
     guidetolerance="10"
     inkscape:pageopacity="0"
     inkscape:pageshadow="2"
     inkscape:window-width="1920"
     inkscape:window-height="986"
     id="namedview12"
     showgrid="false"
     inkscape:zoom="4"
     inkscape:cx="19.810112"
     inkscape:cy="53.55193"
     inkscape:window-x="-11"
     inkscape:window-y="-11"
     inkscape:window-maximized="1"
     inkscape:current-layer="g18" /><g
     id="g18"
     inkscape:groupmode="layer"
     inkscape:label="ВФАК"
     transform="matrix(1.3333333,0,0,-1.3333333,0,140.20005)"><path
       d="m 52.580316,17.117781 c 19.563,0 35.422,15.859 35.422,35.4218 0,19.563 -15.859,35.4217 -35.422,35.4217 -19.5627,0 -35.4217,-15.8587 -35.4217,-35.4217 0,-19.5628 15.859,-35.4218 35.4217,-35.4218"
       style="fill:#ffffff;fill-opacity:1;fill-rule:evenodd;stroke:none"
       id="path48"
       inkscape:connector-curvature="0" /><path
       d="m 52.575216,17.812281 c 19.1767,0 34.7236,15.5472 34.7236,34.7244 0,19.1767 -15.5469,34.7236 -34.7236,34.7236 -19.1775,0 -34.7244,-15.5469 -34.7244,-34.7236 0,-19.1772 15.5469,-34.7244 34.7244,-34.7244 z m 0.0224,-14.0122002 c -26.9132,0 -48.7314996,21.8186002 -48.7314996,48.7324002 0,26.9132 21.8182996,48.731799 48.7314996,48.731799 26.9141,0 48.732394,-21.818599 48.732394,-48.731799 0,-26.9138 -21.818294,-48.7324002 -48.732394,-48.7324002"
       style="fill:#123c8b;fill-opacity:1;fill-rule:evenodd;stroke:none"
       id="path50"
       inkscape:connector-curvature="0" /><path
       d="m 67.927716,27.417781 c -0.5324,0.2137 -1.1027,0.373 -1.6558,0.4944 -0.3755,-0.0922 -1.019,-0.1968 -2.0712,-0.3079 -1.656,-0.174 -3.2973,-3.1527 -7.6714,-3.9404 -3.1502,-0.5686 -5.3411,-0.3424 -6.2422,0.0961 l -0.4547,-0.4337 c -0.6018,-0.5281 -1.0148,-0.65 -1.1341,-1.0755 -0.1177,-0.4255 0.3268,-0.6477 0.8821,-0.65 0.5641,-0.019 1.2813,0.5091 1.2813,0.5091 0,0 0.0938,-0.4212 0.6052,-0.4586 0.5224,-0.038 1.4527,0.3166 1.4527,0.3166 0,0 0.7796,-0.3331 1.3791,-0.256 0.5995,0.0862 1.1046,0.4652 1.1046,0.4652 0,0 0.1698,-0.6792 0.7504,-0.6976 0.5913,-0.019 1.5091,0.7523 1.5091,0.7523 0,0 0.4386,-0.4992 0.9834,-0.4212 0.5474,0.0689 1.2092,0.7123 1.2092,0.7123 0,0 0.6733,-0.2744 1.3167,-0.0895 0.631,0.1947 1.2323,0.8549 1.2323,0.8549 0,0 0.5703,-0.4635 1.0797,-0.2869 0.5173,0.1741 0.8447,0.8842 0.8447,0.8842 0,0 1.3833,-0.5219 2.2864,-0.0857 0.6392,0.3167 0.451,1.3017 0.451,1.3017 0,0 3.7811,-0.4907 3.5841,1.9429 -0.009,0.0816 -0.6369,0.1213 -1.5783,0.1511 -0.3898,0.0124 -0.7818,0.0754 -1.1443,0.2222"
       style="fill:#123c8b;fill-opacity:1;fill-rule:evenodd;stroke:none"
       id="path52"
       inkscape:connector-curvature="0" /><path
       d="m 83.133616,46.792281 c -0.6707,0.7504 -4.8252,-4.2698 -4.978,-3.2757 -0.0397,0.3268 6.4914,7.7973 5.2467,10.0925 -0.3252,0.6055 -5.1925,-8.881 -5.8989,-8.0782 -0.1967,0.2262 4.136,9.3546 3.4188,10.2623 l -0.151,0.0774 c -0.3708,-0.0125 -0.9644,-1.3601 -1.6138,-2.8361 -0.7486,-1.6849 -1.5449,-3.5382 -1.7189,-3.7704 -0.1741,-0.2412 0.1511,3.5589 -0.0414,4.72 -0.0672,0.4867 -0.6126,0.2662 -0.6126,0.2662 -0.6264,-11.8347 -12.0461,-20.7596 -21.2125,-22.1701 -2.3873,-0.3668 -3.1311,-1.4884 -5.7135,-2.9678 -0.868,-0.5057 -2.2238,-0.7422 -3.3812,-1.4006 -1.1551,-0.6582 -1.9805,-1.641 -2.3536,-2.253 -0.189,-0.2937 0.1318,-1.4131 0.3433,-1.2495 0.1908,0.1468 0.2205,0.6375 0.4927,0.7735 0.2704,0.1361 1.2787,0.0862 1.2787,0.0862 l 3.6071,-0.2494 0.002,0.006 c 0,0 0.1128,-0.0127 0.3166,-0.0292 l 0.6203,-0.0422 c 2.0831,-0.1194 7.0948,-0.1593 9.464,1.9536 1.4145,1.3541 1.7246,2.0274 4.0306,2.1467 l 2.3998,0.3311 c 0.3333,0.0462 0.652,0.1655 0.9306,0.3523 l 0.1723,0.1129 c 0.7232,0.4759 1.5234,0.8132 2.3619,1.023 0.7004,0.176 1.5049,0.413 2.6915,0.8005 2.6351,0.8614 -0.6999,0.8827 -0.1568,1.2518 0.5341,0.3583 2.846,0.2114 2.9197,0.7166 0.0896,0.5828 -1.2745,0.3897 -1.243,0.7064 0.0315,0.3101 2.8004,0.335 2.9429,1.0522 0.0814,0.4065 -1.5806,0.1046 -1.1908,0.6038 0.398,0.4986 2.6118,0.6309 2.662,1.578 0.0354,0.5556 -1.7986,-0.1383 -1.5573,0.3251 0.0961,0.1758 0.8342,0.3881 1.5678,0.9097 1.1469,0.8093 2.9721,2.209 2.8568,3.0016 -0.1361,0.9604 -3.7919,-2.3077 -3.4813,-1.067 0.1007,0.4337 5.9633,5.1313 4.978,6.2399"
       style="fill:#123c8b;fill-opacity:1;fill-rule:evenodd;stroke:none"
       id="path54"
       inkscape:connector-curvature="0" /><path
       d="m 45.491416,29.081981 c 3.5947,0.4295 5.148,2.312 5.6696,3.1567 l -0.3773,0.0125 c -12.9892,0.6624 -22.1196,11.0778 -23.0964,21.5937 0,0 -0.5491,0.2058 -0.6143,-0.2803 -0.161,-1.1676 0.3773,-4.7356 0.1888,-4.4901 -0.3398,0.4445 -2.9642,7.1121 -3.4146,6.3825 -0.606,-0.9785 2.9472,-8.5686 2.7564,-8.7908 -0.6857,-0.83 -4.7582,7.3803 -5.0791,6.766 -1.1775,-2.3264 5.0369,-9.7509 4.9969,-10.0695 -0.1295,-0.9998 -4.7075,3.9761 -5.0805,3.4313 -0.832,-1.218 4.9487,-5.5862 5.2447,-5.9281 0.8923,-0.9932 -3.155,1.7632 -3.2661,0.7903 -0.0879,-0.7959 1.9791,-2.3663 3.2048,-3.0407 1.2348,-0.6732 1.6203,-0.4552 1.9809,-1.044 0.2704,-0.4362 -2.2969,0.2636 -2.2198,-0.3002 0.1553,-1.0919 2.8258,-0.83 3.2281,-1.3184 0.413,-0.4901 -1.8151,-0.1383 -1.7229,-0.5425 0.1675,-0.7129 2.427,-0.8008 2.467,-1.0985 0.0481,-0.3186 -1.4191,-0.1153 -1.3244,-0.6981 0.0853,-0.5094 2.3077,-0.3773 2.85,-0.7231 0.5516,-0.3459 -1.9843,-0.0774 -0.004,-1.0228 1.9791,-0.9476 4.2429,-1.9956 7.3284,-2.5489 0.87,-0.1551 3.7074,-0.3773 6.2838,-0.237"
       style="fill:#123c8b;fill-opacity:1;fill-rule:evenodd;stroke:none"
       id="path56"
       inkscape:connector-curvature="0" /><path
       d="m 52.696316,66.659481 5.4961,-4.2574 c 0.7064,0.2705 1.6327,0.631 2.5358,0.9264 1.0778,0.3481 1.3269,0.9661 1.4485,2.2176 0.1137,3.3035 0.025,3.6873 -1.3731,3.5637 -1.9304,-0.3714 -0.4943,-2.3392 -0.593,-2.2638 -0.6202,0.4315 -0.7693,0.5573 -0.8549,1.4967 -2.5739,-4.7273 1.4984,-2.8091 1.3623,-3.0589 -0.4467,-0.767 -3.9492,-1.7081 -3.096,1.5747 0.1004,0.3963 0.2852,0.8277 0.5199,1.2745 -0.3334,-0.3731 -0.6917,-0.6815 -1.0397,-0.9037 -2.8594,-1.8193 -3.0459,1.8068 -2.4506,2.4627 0.1868,0.2098 -0.3832,-4.259 3.331,-0.3458 -0.9286,-0.2115 -1.0902,-0.1004 -1.6982,0.3458 -0.0978,0.0737 2.2305,-0.6809 1.9811,1.262 -0.3209,1.3748 -0.7041,1.3374 -3.8228,0.2098 -1.1512,-0.495 -1.6603,-0.9394 -1.6603,-2.0648 0,-0.8425 -0.0379,-1.7232 -0.0861,-2.4395 z m 5.5567,-4.4314 -2.1152,-6.4746 c 0.4825,-0.5811 1.1135,-1.3606 1.6707,-2.1152 0.6685,-0.9156 1.3374,-0.9661 2.5507,-0.6939 3.1926,0.9161 3.526,1.1134 2.9829,2.4003 -0.9536,1.7207 -2.3894,-0.2579 -2.3536,-0.1491 0.2364,0.7314 0.3101,0.9054 1.1777,1.2892 -5.2988,0.9768 -2.2175,-2.3017 -2.5004,-2.2405 -0.868,0.1865 -2.8341,3.2173 0.5448,3.4288 0.4088,0.0233 0.8782,-0.0125 1.3731,-0.1111 -0.4592,0.2098 -0.8657,0.4569 -1.1758,0.7172 -2.6243,2.1529 0.7671,3.454 1.5849,3.094 0.2471,-0.1236 -4.1718,-0.9519 0.6933,-3.2806 -0.4844,0.8175 -0.4337,1.0038 -0.1993,1.721 0.0383,0.1128 0.0383,-2.327 1.8196,-1.497 1.2013,0.7296 1.0522,1.0879 -0.9893,3.7017 -0.8303,0.9394 -1.398,1.287 -2.463,0.9394 -0.9054,-0.2851 -1.8697,-0.5431 -2.6011,-0.7296 z m -2.2637,-6.5733 c -2.2663,-0.0986 -4.5193,-0.0986 -6.7831,0 -0.4087,-0.6434 -0.9535,-1.4842 -1.5111,-2.2529 -0.669,-0.9015 -0.5074,-1.5599 0.1236,-2.6371 1.87,-2.7479 2.1546,-2.9957 3.2193,-2.0795 1.3357,1.436 -0.9785,2.1923 -0.8549,2.1923 0.7568,0 0.9535,-0.0125 1.5721,-0.7189 -0.7042,5.3244 -2.8715,1.3981 -2.8965,1.6708 -0.0986,0.8932 2.1793,3.6893 3.4288,0.5451 0.1485,-0.3716 0.2597,-0.8283 0.3101,-1.3227 0.0482,0.4944 0.1593,0.9511 0.3084,1.3227 1.2512,3.1442 3.5277,0.3481 3.4291,-0.5451 -0.0249,-0.2727 -2.1903,3.6536 -2.8947,-1.6708 0.6159,0.7064 0.8155,0.7189 1.5701,0.7189 0.1236,0 -2.1906,-0.7563 -0.8533,-2.1923 1.065,-0.9162 1.3476,-0.6684 3.2176,2.0795 0.631,1.0772 0.792,1.7356 0.1236,2.6371 -0.5573,0.7687 -1.1004,1.6095 -1.5091,2.2529 z m -6.9316,0.0987 -2.1172,6.4746 c -0.7296,0.1865 -1.6957,0.4445 -2.5994,0.7296 -1.0646,0.3476 -1.635,0 -2.4627,-0.9394 -2.0441,-2.6138 -2.1926,-2.9721 -0.9918,-3.7017 1.7844,-0.83 1.7844,1.6098 1.8195,1.497 0.237,-0.7172 0.2852,-0.9035 -0.1967,-1.721 4.8651,2.3287 0.4462,3.157 0.6939,3.2806 0.8153,0.36 4.2066,-0.9411 1.5823,-3.094 -0.3084,-0.2603 -0.7166,-0.5074 -1.1741,-0.7172 0.4949,0.0986 0.9644,0.1344 1.3731,0.1111 3.3792,-0.2115 1.4105,-3.2423 0.5448,-3.4288 -0.2846,-0.0612 2.7961,3.2173 -2.5001,2.2405 0.8657,-0.3838 0.9411,-0.5578 1.1758,-1.2892 0.0374,-0.1088 -1.3981,1.8698 -2.3516,0.1491 -0.5454,-1.2869 -0.2124,-1.4842 2.9826,-2.4003 1.2132,-0.2722 1.8825,-0.2217 2.5509,0.6939 0.5553,0.7546 1.1863,1.5341 1.6707,2.1152 z m -2.0545,6.6486 5.4941,4.2574 c -0.0482,0.7163 -0.0862,1.597 -0.0862,2.4395 0,1.1254 -0.5074,1.5698 -1.6577,2.0648 -3.1192,1.1276 -3.5025,1.165 -3.8259,-0.2098 -0.2472,-1.9429 2.0798,-1.1883 1.9811,-1.262 -0.6055,-0.4462 -0.767,-0.5573 -1.696,-0.3458 3.7143,-3.9132 3.1445,0.5556 3.331,0.3458 0.593,-0.6559 0.4065,-4.282 -2.4528,-2.4627 -0.3455,0.2222 -0.7038,0.5306 -1.0392,0.9037 0.2347,-0.4468 0.4215,-0.8782 0.5193,-1.2745 0.8558,-3.2828 -2.6492,-2.3417 -3.0937,-1.5747 -0.1361,0.2498 3.937,-1.6684 1.3606,3.0589 -0.0861,-0.9394 -0.2347,-1.0652 -0.8532,-1.4967 -0.0986,-0.0754 1.3374,1.8924 -0.5953,2.2638 -1.398,0.1236 -1.4836,-0.2602 -1.3725,-3.5637 0.1236,-1.2515 0.3708,-1.8695 1.4479,-2.2176 0.9037,-0.2954 1.8323,-0.6559 2.5385,-0.9264 z m 11.0905,-9.4827 c 0.4694,-0.631 1.2745,-1.04 2.1169,-0.8053 1.0018,0.273 2.7102,0.7421 3.2176,0.8915 0.7042,0.1865 1.4485,0.7818 1.5472,1.5233 0.0623,0.432 -0.0629,0.8912 -0.3963,1.3607 -0.3458,0.4966 -0.8906,0.8929 -1.5117,1.1882 0.6709,-0.1236 1.3501,-0.1236 1.9329,0.0754 0.5324,0.1849 0.9162,0.4825 1.1129,0.8657 0.3606,0.6693 0.1111,1.5849 -0.3458,2.1552 -0.3334,0.4065 -1.4355,1.8068 -2.0789,2.6113 -0.5579,0.6814 -1.4486,0.83 -2.1907,0.5936 0.7421,0.2364 1.3731,0.8906 1.423,1.7713 0.0488,1.0267 0.1242,2.7961 0.1466,3.3285 0.0399,0.729 -0.3076,1.6095 -0.9893,1.9428 -0.3833,0.199 -0.8657,0.2115 -1.4105,0.0505 -0.5828,-0.174 -1.1254,-0.5828 -1.5971,-1.0777 0.3226,0.606 0.5324,1.2517 0.5199,1.8572 -0.0125,0.5704 -0.1723,1.0148 -0.4825,1.3249 -0.5198,0.5576 -1.4734,0.5931 -2.1543,0.3459 -0.4949,-0.1846 -2.1526,-0.8175 -3.1195,-1.1758 -0.817,-0.3209 -1.2365,-1.1135 -1.2365,-1.9055 0,0.792 -0.4212,1.5846 -1.2387,1.9055 -0.9644,0.3583 -2.6243,0.9912 -3.1187,1.1758 -0.6817,0.2472 -1.6328,0.2117 -2.1529,-0.3459 -0.3101,-0.3101 -0.4717,-0.7545 -0.4842,-1.3249 -0.0124,-0.6055 0.199,-1.2512 0.5199,-1.8572 -0.4694,0.4949 -1.0148,0.9037 -1.597,1.0777 -0.5454,0.161 -1.0273,0.1485 -1.4111,-0.0505 -0.6809,-0.3333 -1.0267,-1.2138 -0.9893,-1.9428 0.0255,-0.5324 0.0986,-2.3018 0.1491,-3.3285 0.0499,-0.8807 0.6809,-1.5349 1.423,-1.7713 -0.7421,0.2364 -1.635,0.0878 -2.1901,-0.5936 -0.6434,-0.8045 -1.7464,-2.2048 -2.0795,-2.6113 -0.4595,-0.5703 -0.7066,-1.4859 -0.3483,-2.1552 0.1998,-0.3832 0.583,-0.6808 1.1134,-0.8657 0.5822,-0.199 1.264,-0.199 1.9324,-0.0754 -0.618,-0.2953 -1.1634,-0.6916 -1.5112,-1.1882 -0.333,-0.4695 -0.4566,-0.9287 -0.3937,-1.3607 0.0981,-0.7415 0.8402,-1.3368 1.5466,-1.5233 0.5074,-0.1494 2.2133,-0.6185 3.2173,-0.8915 0.8408,-0.2347 1.6452,0.1743 2.1169,0.8053 -0.4717,-0.631 -0.5927,-1.5341 -0.1108,-2.2637 0.5678,-0.8677 1.5471,-2.3412 1.8323,-2.7856 0.4082,-0.6078 1.1985,-1.1277 1.9429,-1.0041 0.432,0.0754 0.83,0.3481 1.1758,0.8051 0.3708,0.4836 0.5805,1.1276 0.6559,1.8068 0.0737,-0.6792 0.2852,-1.3232 0.656,-1.8068 0.3458,-0.457 0.7421,-0.7297 1.1758,-0.8051 0.7421,-0.1236 1.5349,0.3963 1.9437,1.0041 0.2846,0.4444 1.2614,1.9179 1.8317,2.7856 0.4819,0.7296 0.3583,1.6327 -0.1111,2.2637 z m -0.2727,21.0929 c 0,0 -0.5573,0.8283 -1.0896,1.4717 -2.6751,0.7438 -5.5948,0.7438 -8.269,0 -0.5326,-0.6434 -1.0879,-1.4717 -1.0879,-1.4717 l 5.2231,-1.5466 z m -16.4625,-4.3827 c 0,0 -0.966,-0.2726 -1.7464,-0.5703 -1.5216,-2.3269 -2.4248,-5.1106 -2.5631,-7.8834 0.4592,-0.6939 1.0795,-1.4859 1.0795,-1.4859 l 3.0815,4.4934 z m -0.9286,-17.0078 c 0,0 -0.0374,-1.0018 0,-1.8321 1.7337,-2.1651 4.1085,-3.8863 6.7099,-4.8756 0.8025,0.2223 1.7439,0.5681 1.7439,0.5681 l -3.3163,4.32 z m 15.8803,-6.1396 c 0,0 0.9411,-0.3458 1.7455,-0.5681 2.5994,0.9893 4.9762,2.7105 6.7076,4.8756 0.0397,0.8303 0,1.8321 0,1.8321 l -5.1355,-1.8196 z m 10.7566,13.2078 c 0,0 0.6185,0.792 1.0777,1.4859 -0.1366,2.7728 -1.0397,5.5565 -2.5636,7.8834 -0.7779,0.2977 -1.7439,0.5703 -1.7439,0.5703 l 0.1485,-5.4462 z m 2.704,0.792 c 0,-9.4615 -7.7052,-17.1607 -17.1732,-17.1607 -9.4697,0 -17.1731,7.6992 -17.1731,17.1607 0,9.4702 7.7034,17.1754 17.1731,17.1754 9.468,0 17.1732,-7.7052 17.1732,-17.1754"
       style="fill:#123c8b;fill-opacity:1;fill-rule:nonzero;stroke:none"
       id="path58"
       inkscape:connector-curvature="0" /><path
       d="m 52.489616,78.903481 c 1.1234,0.0105 1.5472,0.7231 1.5472,1.5596 0,1.1228 -1.5472,5.2798 -1.5472,5.2798 0,0 -1.5466,-4.157 -1.5466,-5.2798 0,-0.8365 0.423,-1.5596 1.5466,-1.5596"
       style="fill:#ffd540;fill-opacity:1;fill-rule:evenodd;stroke:none"
       id="path60"
       inkscape:connector-curvature="0" /><path
       d="m 46.196716,77.763081 c 1.0522,0.394 1.2073,1.2073 0.9198,1.9953 -0.3832,1.0545 -3.2589,4.4311 -3.2589,4.4311 0,0 -0.0341,-4.4328 0.3517,-5.4893 0.2852,-0.7886 0.9309,-1.3209 1.9874,-0.9371"
       style="fill:#ffd540;fill-opacity:1;fill-rule:evenodd;stroke:none"
       id="path62"
       inkscape:connector-curvature="0" /><path
       d="m 40.672816,74.539281 c 0.8533,0.7313 0.7206,1.5471 0.1823,2.1906 -0.7231,0.8591 -4.578,3.0492 -4.578,3.0492 0,0 1.486,-4.1794 2.2074,-5.0409 0.5383,-0.6392 1.3286,-0.9204 2.1883,-0.1989"
       style="fill:#ffd540;fill-opacity:1;fill-rule:evenodd;stroke:none"
       id="path64"
       inkscape:connector-curvature="0" /><path
       d="m 36.585016,69.620581 c 0.5508,0.9788 0.1485,1.6999 -0.5769,2.1189 -0.9745,0.5621 -5.347,1.2999 -5.347,1.2999 0,0 2.8259,-3.4168 3.7979,-3.9784 0.7254,-0.4195 1.5639,-0.413 2.126,0.5596"
       style="fill:#ffd540;fill-opacity:1;fill-rule:evenodd;stroke:none"
       id="path66"
       inkscape:connector-curvature="0" /><path
       d="m 34.425816,63.600581 c 0.184,1.1064 -0.4427,1.6495 -1.2662,1.7938 -1.1069,0.195 -5.4711,-0.6055 -5.4711,-0.6055 0,0 3.8259,-2.2447 4.9322,-2.442 0.8241,-0.1443 1.6101,0.1468 1.8051,1.2537"
       style="fill:#ffd540;fill-opacity:1;fill-rule:evenodd;stroke:none"
       id="path68"
       inkscape:connector-curvature="0" /><path
       d="m 34.455316,57.204481 c -0.2055,1.1044 -0.9808,1.3981 -1.8048,1.2535 -1.1064,-0.1973 -4.93,-2.442 -4.93,-2.442 0,0 4.3619,-0.8008 5.4689,-0.6052 0.8234,0.1443 1.4609,0.6874 1.2659,1.7937"
       style="fill:#ffd540;fill-opacity:1;fill-rule:evenodd;stroke:none"
       id="path70"
       inkscape:connector-curvature="0" /><path
       d="m 36.671216,51.204981 c -0.5724,0.9663 -1.4006,0.9788 -2.1255,0.5599 -0.9725,-0.5622 -3.7984,-3.9785 -3.7984,-3.9785 0,0 4.3725,0.7379 5.3476,1.2994 0.7248,0.417 1.1378,1.1466 0.5763,2.1192"
       style="fill:#ffd540;fill-opacity:1;fill-rule:evenodd;stroke:none"
       id="path72"
       inkscape:connector-curvature="0" /><path
       d="m 40.805216,46.324581 c -0.868,0.7132 -1.65,0.4402 -2.1883,-0.199 -0.7212,-0.8614 -2.2091,-5.0408 -2.2091,-5.0408 0,0 3.8568,2.19 4.58,3.0498 0.5383,0.6412 0.6766,1.4694 -0.1826,2.19"
       style="fill:#ffd540;fill-opacity:1;fill-rule:evenodd;stroke:none"
       id="path74"
       inkscape:connector-curvature="0" /><path
       d="m 46.358816,43.152881 c -1.0587,0.3733 -1.7022,-0.1485 -1.9868,-0.9368 -0.3855,-1.0565 -0.3523,-5.4896 -0.3523,-5.4896 0,0 2.8757,3.3766 3.2596,4.4314 0.2871,0.786 0.136,1.6118 -0.9205,1.995"
       style="fill:#ffd540;fill-opacity:1;fill-rule:evenodd;stroke:none"
       id="path76"
       inkscape:connector-curvature="0" /><path
       d="m 52.662516,42.072381 c -1.1231,-0.0108 -1.5466,-0.7237 -1.5466,-1.56 0,-1.1233 1.5466,-5.2803 1.5466,-5.2803 0,0 1.5472,4.157 1.5472,5.2803 0,0.8363 -0.4238,1.56 -1.5472,1.56"
       style="fill:#ffd540;fill-opacity:1;fill-rule:evenodd;stroke:none"
       id="path78"
       inkscape:connector-curvature="0" /><path
       d="m 58.955716,43.212381 c -1.0522,-0.3945 -1.2072,-1.2072 -0.9195,-1.9958 0.3832,-1.0539 3.259,-4.4311 3.259,-4.4311 0,0 0.0337,4.4336 -0.3518,5.4898 -0.2877,0.788 -0.9312,1.3204 -1.9877,0.9371"
       style="fill:#ffd540;fill-opacity:1;fill-rule:evenodd;stroke:none"
       id="path80"
       inkscape:connector-curvature="0" /><path
       d="m 64.479916,46.435681 c -0.8532,-0.7313 -0.7214,-1.5466 -0.1826,-2.19 0.7209,-0.8598 4.5774,-3.0498 4.5774,-3.0498 0,0 -1.4859,4.1794 -2.2065,5.0408 -0.5391,0.6392 -1.3291,0.9204 -2.1883,0.199"
       style="fill:#ffd540;fill-opacity:1;fill-rule:evenodd;stroke:none"
       id="path82"
       inkscape:connector-curvature="0" /><path
       d="m 68.567716,51.354981 c -0.5513,-0.9794 -0.1485,-1.7025 0.5763,-2.1195 0.9751,-0.5615 5.3476,-1.2994 5.3476,-1.2994 0,0 -2.8259,3.4163 -3.7987,3.9784 -0.7249,0.419 -1.5631,0.413 -2.1252,-0.5595"
       style="fill:#ffd540;fill-opacity:1;fill-rule:evenodd;stroke:none"
       id="path84"
       inkscape:connector-curvature="0" /><path
       d="m 70.726916,57.374881 c -0.1843,-1.1069 0.4427,-1.65 1.2662,-1.7943 1.1069,-0.195 5.4686,0.606 5.4686,0.606 0,0 -3.8234,2.2448 -4.9297,2.4415 -0.8241,0.1449 -1.6104,-0.1468 -1.8051,-1.2532"
       style="fill:#ffd540;fill-opacity:1;fill-rule:evenodd;stroke:none"
       id="path86"
       inkscape:connector-curvature="0" /><path
       d="m 70.697116,63.770381 c 0.205,-1.1043 0.9811,-1.398 1.8045,-1.2534 1.107,0.1972 4.9323,2.442 4.9323,2.442 0,0 -4.3642,0.8008 -5.4711,0.606 -0.8235,-0.1451 -1.4604,-0.6876 -1.2657,-1.7946"
       style="fill:#ffd540;fill-opacity:1;fill-rule:evenodd;stroke:none"
       id="path88"
       inkscape:connector-curvature="0" /><path
       d="m 68.481616,69.770481 c 0.572,-0.9669 1.3997,-0.9793 2.1254,-0.5598 0.9725,0.5615 3.7978,3.9778 3.7978,3.9778 0,0 -4.3724,-0.7372 -5.347,-1.2994 -0.7253,-0.4186 -1.1384,-1.146 -0.5762,-2.1186"
       style="fill:#ffd540;fill-opacity:1;fill-rule:evenodd;stroke:none"
       id="path90"
       inkscape:connector-curvature="0" /><path
       d="m 64.347216,74.650381 c 0.8683,-0.7124 1.6495,-0.4403 2.1884,0.199 0.7214,0.8614 2.2073,5.0408 2.2073,5.0408 0,0 -3.8568,-2.19 -4.5779,-3.0492 -0.5389,-0.6418 -0.677,-1.4695 0.1822,-2.1906"
       style="fill:#ffd540;fill-opacity:1;fill-rule:evenodd;stroke:none"
       id="path92"
       inkscape:connector-curvature="0" /><path
       d="m 58.793616,77.822081 c 1.0582,-0.3734 1.6999,0.1491 1.9871,0.9368 0.3855,1.0565 0.3523,5.4896 0.3523,5.4896 0,0 -2.876,-3.3767 -3.2598,-4.4309 -0.2869,-0.786 -0.1361,-1.6117 0.9204,-1.9955"
       style="fill:#ffd540;fill-opacity:1;fill-rule:evenodd;stroke:none"
       id="path94"
       inkscape:connector-curvature="0" /><path
       d="m 21.384516,19.994081 -1.5177,1.7065 0.5956,3.7035 -2.1719,-1.9304 -1.2447,1.398 4.6363,4.1253 1.2453,-1.4003 -2.0753,-1.8445 3.5697,0.1658 1.3499,-1.5199 -3.7058,-0.203 z"
       style="fill:#ffffff;fill-opacity:1;fill-rule:nonzero;stroke:none"
       id="path96"
       inkscape:connector-curvature="0" /><path
       d="m 27.491716,18.102281 0.65,2.3519 -2.1019,-1.245 z m 0.8533,-3.5881 -1.5234,1.1611 0.3583,1.3076 -2.1444,1.6353 -1.1716,-0.6894 -1.5241,1.1611 5.9448,3.2737 1.6452,-1.2554 z"
       style="fill:#ffffff;fill-opacity:1;fill-rule:nonzero;stroke:none"
       id="path98"
       inkscape:connector-curvature="0" /><path
       d="m 35.216716,10.980281 -5.6305,2.825 4.9868,2.7813 -2.6326,1.3227 0.6642,1.3226 5.3957,-2.7059 -4.9785,-2.7811 2.8613,-1.4363 z"
       style="fill:#ffffff;fill-opacity:1;fill-rule:nonzero;stroke:none"
       id="path100"
       inkscape:connector-curvature="0" /><path
       d="m 41.720816,11.350181 -0.2537,2.4273 -1.5026,-1.9264 z m 2.1022,-3.0288003 -1.8442,0.5238 -0.1404,1.3501003 -2.5928,0.7379 -0.8385,-1.0689003 -1.8448,0.5258003 4.341,5.2149 1.9893,-0.5655 z"
       style="fill:#ffffff;fill-opacity:1;fill-rule:nonzero;stroke:none"
       id="path102"
       inkscape:connector-curvature="0" /><path
       d="m 52.373116,7.4952807 -2.2762,0.1891 -2.1237,3.0937003 -0.2413,-2.8972003 -1.8649,0.155 0.5151,6.1861003 1.8658,-0.1551 -0.2305,-2.7672 2.4693,2.5807 2.0267,-0.1701 -2.5444,-2.704 z"
       style="fill:#ffffff;fill-opacity:1;fill-rule:nonzero;stroke:none"
       id="path104"
       inkscape:connector-curvature="0" /><path
       d="m 60.948216,8.3079807 -1.855,-0.212 -0.2769,2.4063003 -2.7961,-0.32 0.2744,-2.4089003 -1.8593,-0.2114 -0.7064,6.1645003 1.8593,0.2137 0.2602,-2.2638 2.7984,0.3209 -0.2603,2.2638 1.855,0.2134 z"
       style="fill:#ffffff;fill-opacity:1;fill-rule:nonzero;stroke:none"
       id="path106"
       inkscape:connector-curvature="0" /><path
       d="m 67.234316,11.954481 c 0.1137,-0.3713 0.1154,-0.7214 0.007,-1.0505 -0.1068,-0.3291 -0.3101,-0.6179 -0.606,-0.8657 -0.2977,-0.2446003 -0.6642,-0.4360003 -1.1044,-0.5698003 l -0.4589,-0.1133 c -0.1823,-0.0375 -0.4343,-0.065 -0.7504,-0.0839 -0.3191,-0.019 -0.6582,-0.004 -1.0207,0.0379 l -0.4402,1.4565003 c 0.3557,-0.0939 0.6976,-0.1593 1.025,-0.195 0.3265,-0.0355 0.6559,-0.002 0.9867,0.0986 0.3062,0.0921 0.4884,0.2032 0.5474,0.3317 l 0.0504,0.3268 -0.354,0.3333 c -0.1891,0.063 -0.447,0.1086 -0.7761,0.1384 -0.3666,0.0374 -0.6976,0.1003 -0.9936,0.1885 -0.2934,0.0859 -0.5553,0.2287 -0.786,0.4235 -0.2282,0.195 -0.3915,0.4586 -0.4924,0.7903 -0.0964,0.3203 -0.1071,0.6327 -0.0275,0.9388 0.0797,0.3059 0.2563,0.5845 0.5324,0.8382 0.2769,0.252 0.6477,0.4487 1.1134,0.5896 0.3311,0.1004 0.6477,0.161 0.9473,0.18 0.3016,0.0207 0.5553,0.0207 0.7611,-0.004 0.2073,-0.025 0.3541,-0.0505 0.436,-0.0754 l 0.4212,-1.3921 c -0.2959,0.1009 -0.6142,0.174 -0.9535,0.2222 -0.3399,0.0462 -0.6792,0.017 -1.0214,-0.0856 -0.2216,-0.0672 -0.3707,-0.1576 -0.4439,-0.2747 l -0.0547,-0.3628 0.2413,-0.258 c 0.1255,-0.0564 0.3376,-0.1068 0.6304,-0.1508 0.5224,-0.0774 0.9476,-0.1593 1.2727,-0.2472 0.3269,-0.0881 0.6013,-0.2222 0.8261,-0.3982 0.2222,-0.1783 0.3855,-0.432 0.4858,-0.7671"
       style="fill:#ffffff;fill-opacity:1;fill-rule:nonzero;stroke:none"
       id="path108"
       inkscape:connector-curvature="0" /><path
       d="m 73.238416,17.928281 -2.0373,-1.01 2.0877,-4.2092 -1.6724,-0.83 -2.088,4.2092 -2.0373,-1.0125 -0.6709,1.3515 5.7475,2.8534 z"
       style="fill:#ffffff;fill-opacity:1;fill-rule:nonzero;stroke:none"
       id="path110"
       inkscape:connector-curvature="0" /><path
       d="m 78.374516,18.713681 -2.0707,1.2912 0.5969,-2.37 z m 3.683,-0.2007 -1.5471,-1.1318 -1.1509,0.7166 -2.1759,-1.5931 0.3274,-1.3184 -1.5471,-1.1319 -1.448,6.628 1.6685,1.222 z"
       style="fill:#ffffff;fill-opacity:1;fill-rule:nonzero;stroke:none"
       id="path112"
       inkscape:connector-curvature="0" /><path
       d="m 88.108116,24.954181 -1.1172,-1.2365 -4.723,-0.0711 2.5656,-2.3162 -1.243,-1.3771 -4.6046,4.1585 1.1129,1.2322 4.7038,0.0802 -2.5512,2.3037 1.2512,1.385 z"
       style="fill:#ffffff;fill-opacity:1;fill-rule:nonzero;stroke:none"
       id="path114"
       inkscape:connector-curvature="0" /><path
       d="m 76.092316,88.945181 -1.5367,-2.6932 c 2.312,-1.5134 4.4878,-3.2746 6.4871,-5.2739 7.5989,-7.5988 11.7825,-17.6995 11.7825,-28.4462 0,-6.8037 -1.6792,-13.3498 -4.8402,-19.1642 0.7926,-0.6874 1.5977,-1.3839 2.3939,-2.073 3.6162,6.4117 5.542296,13.6769 5.542296,21.2372 0,11.5725 -4.506796,22.4513 -12.690096,30.6346 -2.1966,2.1983 -4.5899,4.127 -7.1388,5.7787"
       style="fill:#ffd540;fill-opacity:1;fill-rule:nonzero;stroke:none"
       id="path116"
       inkscape:connector-curvature="0" /><path
       d="m 17.209916,33.365481 c -3.1612,5.8161 -4.8402,12.3627 -4.8402,19.1664 0,10.7467 4.1834,20.8474 11.7822,28.4457 1.9996,2.0018 4.1752,3.763 6.4897,5.2761 l -1.5367,2.6935 c -2.5489,-1.6518 -4.9427,-3.5824 -7.1413,-5.7813 -8.1833,-8.181 -12.6900997,-19.0615 -12.6900997,-30.634 0,-7.5608 1.9263997,-14.828 5.5422997,-21.2377 0.7962,0.6879 1.6012,1.3836 2.3941,2.0713"
       style="fill:#ffd540;fill-opacity:1;fill-rule:nonzero;stroke:none"
       id="path118"
       inkscape:connector-curvature="0" /><path
       d="m 52.591116,101.15768 c -26.8152,0 -48.6294996,-21.813999 -48.6294996,-48.629499 0,-26.8129 21.8142996,-48.6286002 48.6294996,-48.6286002 26.8129,0 48.628894,21.8157002 48.628894,48.6286002 0,26.8155 -21.815994,48.629499 -48.628894,48.629499 z m 0,-101.20339931 c -28.9911,0 -52.57419968,23.58540031 -52.57419968,52.57390031 0,28.9914 23.58309968,52.574199 52.57419968,52.574199 28.9888,0 52.573594,-23.582799 52.573594,-52.574199 0,-28.9885 -23.584794,-52.57390031 -52.573594,-52.57390031"
       style="fill:#ffffff;fill-opacity:1;fill-rule:nonzero;stroke:none"
       id="path120"
       inkscape:connector-curvature="0" /><path
       d="m 49.983216,90.298181 -2.9766,-0.5995 -3.8543,3.1651 0.7628,-3.7871 -2.4378,-0.4909 -1.6305,8.0866 2.4398,0.4907 0.7271,-3.6178 2.2008,4.2069 2.6495,0.5346 -2.2467,-4.3937 z"
       style="fill:#ffffff;fill-opacity:1;fill-rule:nonzero;stroke:none"
       id="path122"
       inkscape:connector-curvature="0" /><path
       d="m 56.641016,93.354781 -3.4212,0.0652 -0.0649,-3.3392 -2.486,0.0482 0.1576,8.2482 5.9088,-0.1137 -0.0337,-1.6534 -3.4188,0.0646 -0.0315,-1.5945 3.4211,-0.0655 z"
       style="fill:#ffffff;fill-opacity:1;fill-rule:nonzero;stroke:none"
       id="path124"
       inkscape:connector-curvature="0" /><path
       d="m 64.344416,91.865681 -3.3469,0.7147 -0.6965,-3.2656 -2.4329,0.5176 1.7206,8.0683 5.7787,-1.2331 -0.3438,-1.6177 -3.3472,0.7123 -0.3331,-1.559 3.3475,-0.7132 z"
       style="fill:#ffffff;fill-opacity:1;fill-rule:nonzero;stroke:none"
       id="path126"
       inkscape:connector-curvature="0" /></g></svg>