<?xml version="1.0" encoding="UTF-8"?>
<svg id="Stema" xmlns="http://www.w3.org/2000/svg" version="1.1" viewBox="0 0 306.5213318 500.625">
  <!-- Generator: Adobe Illustrator 30.1.0, SVG Export Plug-In . SVG Version: 2.1.1 Build 136)  -->
  <defs>
    <style>
      .st0 {
        fill: #2355a5;
      }

      .st1 {
        fill: #fff;
      }

      .st2 {
        fill: #d0a650;
      }
    </style>
  </defs>
  <path class="st0" d="M153.2319158,482.1853351C14.1599299,404.6071231,15.3087056,288.0245301,16.0267562,273.4624435l.0862502-17.0896387V16.055688h274.2378189v242.2701933l.1723251,16.6014134c.6032256,19.6457655-2.1254016,131.8914802-137.2912346,207.2580404Z"/>
  <path class="st2" d="M306.4638381,0H.0285684L-.0000064,285.6405531c.6605504,14.5045865,3.5615028,38.2577556,13.8726109,65.9745778,9.7655579,26.223221,24.2126443,50.8378404,42.9394593,73.1261582,23.1786935,27.601822,52.9921674,51.6423164,88.5787959,71.4891572l7.8410562,4.3945537,7.8698062-4.3945537c35.5866285-19.8468407,65.4001023-43.8873352,88.5787959-71.4891572,18.6978897-22.2883178,33.1451514-46.9029372,42.9107093-73.1261582,10.4546831-28.0327224,13.2983106-51.9869667,13.930111-66.4628031l-.0575001-285.1523278ZM290.3508253,16.055688v80.5939893H16.1130064V16.055688h274.2378189ZM16.0267562,273.4624435l.0862502-17.0896387v-120.259096h274.2378189v122.2121725l.1723251,16.6014134c.6032256,19.6457655-2.1254016,131.8914802-137.2912346,207.2580404C14.1599299,404.6071231,15.3087056,288.0245301,16.0267562,273.4624435Z"/>
  <path class="st2" d="M157.0983841,180.3889946c-1.9663121.4638579-4.2970839,1.213814-7.1003912,2.2859813-7.1026702,2.7217903-16.0455202,7.1238821-25.182258,12.3981178-7.5326941,4.3502014-14.424472,8.8378422-19.9859455,13.0113358.8521591-6.9529594,1.3025185-15.25016,1.3025185-24.064336,0-10.5498739-.6577455-20.495821-1.8531525-28.0066019-.2197452-1.3743937-.4477298-2.6174837-.6870215-3.7548646h-7.0311456c1.3708876,5.7195112,2.7070647,16.5928234,2.7070647,31.7614665,0,15.5334534-1.3629112,25.0314954-2.2056038,29.4167579l-.5063694,2.9049844-.3678782-1.820721c-.0546076-.2605037-.1149126-.5601005-.1783732-.8858178l-.0660901-.3257173.0035061-.0014024c-.8248992-4.3437151-2.1820253-13.83194-2.1820253-29.2880838,0-15.1686431,1.336703-26.0419553,2.7087301-31.7614665h-7.0328987c-.2386782,1.1373809-.4663998,2.3813474-.6855314,3.7548646-1.195144,7.5107809-1.8537661,17.456728-1.8537661,28.0066019,0,8.6984745.440367,16.9085483,1.274119,23.8141753-5.595921-4.2153916-12.5569445-8.7538709-20.1881602-13.1599947-9.1390167-5.27669-18.0819544-9.6796583-25.182258-12.3974166-2.5221176-.9669841-4.6529537-1.6689066-6.4920818-2.1394261.0026296-.0043826.0049085-.0084147.0074505-.0115702,1.168147-1.6624203,2.3968619-3.2678664,3.6815869-4.8149358.070648-.0864255.1441886-.1702215.2165897-.2555952.3165137-.3784842.6365336-.7531116.9607608-1.1252848.1993221-.2285981.4021504-.4542161.6040145-.679834.1846842-.2082627.3719979-.4142465.559224-.6204055.2940747-.3199322.590516-.6400397.8901127-.9555893.0746801-.0790627.1504996-.1574242.2254426-.2364869,8.3475132-8.7170568,18.814643-15.3825155,30.5605374-19.1791028h-29.6755962c-4.3557235,3.2582246-8.3965987,6.9154441-12.0724444,10.9120547v30.1984443c.8303336.740139,1.7497662,1.5184946,2.7739875,2.3496171,5.9066497,4.7896918,14.1909653,10.3342484,23.3274401,15.6093606,7.5326065,4.3484484,21.8580309,10.9944482,21.8580309,10.9944482h-.0155145s.0049085.0017531.0071875.002279c-.002279.0008765-.0071875.0043826-.0071875.0043826h.0155145c.1433121.0608309-14.3254245,6.6451233-21.8580309,10.9935717-9.1364748,5.2751123-17.4207904,10.8187923-23.3274401,15.6084841-1.0242213.8311225-1.9436539,1.6094781-2.7739875,2.3503184v30.1968666c15.993586,17.3857294,38.9188758,28.2986606,64.3477007,28.2986606,48.2207949,0,87.4505309-39.2314013,87.4505309-87.4522839,0-28.6380517-13.8374621-54.1044796-35.1761511-70.0662039h-29.6615718c15.490416,5.0111025,28.7512989,15.0245421,37.8668247,28.1303675M43.4528565,273.2070236c-.0715246-.0746801-.1425232-.1495354-.2134342-.2236896-.3036288-.3199322-.6031379-.6430199-.9013323-.9678606-.1829311-.2005493-.3647227-.402501-.5462514-.6058552-.2067726-.22965-.4118798-.4608777-.615497-.6938584-.3191433-.3644598-.6333781-.7336527-.9452463-1.1054753-.0764331-.0911588-.1554082-.1816163-.2321042-.2734763-1.2821831-1.5454917-2.5082685-3.1484835-3.675013-4.8086248-.0039444-.0049085-.0074505-.0106936-.010606-.0138491,1.8391281-.4712207,3.9708407-1.174195,6.4920818-2.1394261,7.1003036-2.7186348,16.0432413-7.1224797,25.182258-12.3989944,7.6312157-4.4062991,14.5922392-8.9446031,20.1881602-13.1601701-.8337521,6.905627-1.274119,15.1158762-1.274119,23.8143506,0,10.5498739.6586221,20.4965222,1.8537661,28.0073032.4526383,2.8380178.9420908,5.1469641,1.4923742,7.0351776-18.3292226-1.5779231-34.7625182-9.8970369-46.7950368-22.4655515ZM88.9875357,227.3622293c-3.3478056,2.9042832-10.8999586,8.8574764-24.431513,16.6692566-13.2758716,7.6662768-23.4431416,11.9602052-29.0471266,13.594226,4.2167064-4.0357037,13.0179974-10.6941502,26.2952714-18.3593751,13.4485473-7.7639218,22.3666793-11.3308591,26.5150167-12.7753749l3.4822648-1.388944-2.8139133,2.2602114ZM88.3191842,218.1604533c-4.1483373-1.4450417-13.0664694-5.0128555-26.5150167-12.776602-13.277274-7.6645237-22.078565-14.3229702-26.2952714-18.3577974,5.603985,1.6340208,15.7712551,5.9279493,29.0471266,13.592473,13.5315544,7.8117802,21.0837074,13.7667264,24.431513,16.6694319l2.8139133,2.2600361-3.4822648-1.3875416ZM96.5179509,292.5812412c-1.3876292-5.6683221-2.7527317-16.6205217-2.7527317-31.9511469,0-15.4554426,1.3571261-24.944544,2.1820253-29.2873826l-.0035061-.002279.0660901-.3251914c.0634605-.3262432.1237656-.6244375.1783732-.8856425l.3678782-1.8214222.5063694,2.9049844c.8426927,4.386139,2.2056038,13.8834798,2.2056038,29.4169332,0,15.3306252-1.3637001,26.2828248-2.7501021,31.9511469ZM102.7804703,295.6913328c.552913-1.8922456,1.0451703-4.206977,1.4986851-7.0539353,1.1954069-7.5107809,1.8531525-17.4574293,1.8531525-28.0073032,0-8.8134748-.4503594-17.1106753-1.3025185-24.0645113,5.5614735,4.1741949,12.4532514,8.6611344,19.9859455,13.0104593,9.1367378,5.2756382,18.0795878,9.6787818,25.182258,12.3989944,2.8033073,1.0721673,5.1340791,1.8235259,7.1003912,2.2859813-12.2059832,17.5503411-31.8437723,29.5584046-54.3179138,31.4303148ZM128.2476871,243.6317897c-13.4671297-7.7744401-21.0170037-13.7188681-24.3347444-16.5847594l-.0056974.0026296-2.5956582-1.9344942,3.0163909.9208788c4.1793664,1.4436393,13.1170449,5.0053174,26.6715643,12.8312973,13.2782382,7.6645237,22.0791786,14.3227949,26.2950085,18.3584986-5.6031085-1.6340208-15.7712551-5.9279493-29.0468637-13.5940507ZM163.2902555,191.1115443c4.4574006,9.4826151,6.9536607,20.061765,6.9536607,31.2132868,0,11.1525736-2.49626,21.7311976-6.9536607,31.2136374-1.384912-1.4718634-3.201338-3.1174544-5.5307074-5.0070704-5.9084027-4.7905684-14.1935072-10.3333718-23.3283166-15.6091853-7.3634368-4.2501021-15.2534032-7.8876874-21.5357321-10.5973816,6.2823289-2.7093437,14.1722953-6.3455265,21.5357321-10.5968557,9.1348094-5.2742357,17.4199139-10.8187923,23.3283166-15.6093606,2.3293694-1.889616,4.1457954-3.5341552,5.5307074-5.0070704ZM130.9995423,205.7835474c-13.5545194,7.8259799-22.4921979,11.387658-26.6715643,12.8304208l-3.0163909.9208788,2.5956582-1.9336176.0056974.002279c3.3177408-2.8650148,10.8676148-8.8106699,24.3347444-16.58511,13.2756086-7.6648743,23.4437552-11.9593286,29.0468637-13.5933495-4.2158299,4.0348271-13.0167703,10.6932737-26.2950085,18.3584986Z"/>
  <g>
    <path class="st1" d="M204.4570275,411.3959967c-9.8850285,3.9974871-30.6398631,2.602758-30.6398631,2.602758,0,0,.9332378,5.0021619,1.6871384,9.673172-18.1649615-8.5252728-31.7866228-23.2801953-38.5590178-42.1455016,5.3311223,3.9261379,15.9545368,7.4846605,15.9545368,7.4846605.0577631-2.8618593,8.217349-27.1612797,8.217349-27.1612797-1.6569858-1.8140594-12.7947461-26.7300286-12.7947461-26.7300286l-14.6442172,8.4844267c3.4862092-20.4202644,15.4561438-37.604568,31.9469395-48.6789554-.2522643,3.9536608-.3053819,8.3843273.2093145,12.6950851,0,0,21.5444097-3.032782,31.7395533.1619821,0,0,11.3958097-16.3051474,16.4436386-18.8381339,0,0-3.7059544-3.1148249-9.5934081-6.4463271,16.5367257-.0580261,32.0351181,4.5207735,44.7247687,13.5998358-.9012446.162508-1.8620054.3693683-2.8951673.6342546,0,0,11.865628,21.0943133,12.7701157,26.4311331,0,0,3.6623034,1.6108805,7.7793487,3.9380586,2.9741423-10.1372052,4.8175654-19.4196217,5.9362763-27.4692911-17.6838361-20.7377423-44.7695592-32.9584512-73.9353675-30.4817377-48.0099903,4.0774263-83.7502739,46.4524026-79.6728476,94.4615163,3.2719861,38.5245703,31.2078523,69.1456757,66.9245573,77.6343097.3727868-.2915327.7571437-.582189,1.1276514-.8737217,9.2057204-7.2632498,17.4474369-14.6795412,24.8264759-22.1594684-4.4821187-3.8076315-7.5530295-6.8167472-7.5530295-6.8167472"/>
    <path class="st1" d="M244.8378181,373.007814c-.0754689-.8938818-2.6995266-31.7965276-2.6995266-31.7965276l-30.3612153-9.6005956-19.6059712,29.4071161,21.7063919,24.543796s31.0370173-11.6583294,30.9603212-12.553789"/>
  </g>
  <g id="Stars">
    <polygon class="st1" points="97.3373936 128.5664643 88.8706728 122.6132711 80.4091235 128.5704963 83.6665592 118.9713032 75.1731043 113.0500155 85.6532067 113.0735064 88.8675173 103.4581852 92.0890154 113.0694744 102.5650858 113.045107 94.0756629 118.9663946 97.3373936 128.5664643"/>
    <polygon class="st1" points="183.1837055 128.5664643 174.7182118 122.6132711 166.2563996 128.5704963 169.5132217 118.9713032 161.0206433 113.0500155 171.4996063 113.0735064 174.7133033 103.4581852 177.935678 113.0694744 188.4126249 113.045107 179.923202 118.9663946 183.1837055 128.5664643"/>
    <polygon class="st1" points="54.4134488 128.5664643 45.9470786 122.6132711 37.4861428 128.5704963 40.7428773 118.9713032 32.2495101 113.0500155 42.7293495 113.0735064 45.9435725 103.4581852 49.1653336 113.0694744 59.641141 113.045107 51.1520687 118.9663946 54.4125723 128.5664643 54.4134488 128.5664643"/>
    <polygon class="st1" points="226.1067738 128.5664643 217.6418061 122.6132711 209.1803444 128.5704963 212.4368159 118.9713032 203.9443252 113.0500155 214.4244276 113.0735064 217.6378617 103.4581852 220.8601487 113.0694744 231.3353425 113.045107 222.8468838 118.9663946 226.1067738 128.5664643"/>
    <polygon class="st1" points="269.0304557 128.5664643 260.5654879 122.6132711 252.1030621 128.5704963 255.3607608 118.9713032 246.8679194 113.0500155 257.3480218 113.0735064 260.5623324 103.4581852 263.783217 113.0694744 274.2590244 113.045107 265.7704781 118.9663946 269.0304557 128.5664643"/>
    <polygon class="st1" points="140.2601113 128.5664643 131.7951435 122.6132711 123.3328053 128.5704963 126.5901534 118.9713032 118.0976627 113.0500155 128.5768886 113.0735064 131.7903227 103.4581852 135.0128726 113.0694744 145.4878035 113.045107 136.9984683 118.9663946 140.2601113 128.5664643"/>
  </g>
  <g id="KOSOVA">
    <path class="st1" d="M57.8907174,57.2533137c-.8807339-.7993922-1.6086016-1.3211009-2.1822006-1.5679307v-.2454274c.573599-.2454274,1.2089055-.6956115,1.9059194-1.3519546.6956115-.6549407,1.3112838-1.4543329,1.8442119-2.3967743l9.7722195-16.5965049h-14.3203406l-8.860106,16.1042475h-2.3164844c.0424239-.1979197.106235-.3821656.1435751-.5834161.3071349-1.660492.4600011-3.2676911.4600011-4.8258047v-10.6950267h-13.3372284v42.4112644h13.3372284v-13.8294858c0-1.1522818-.1870508-2.4514695-.5281949-3.8721438h2.2503943l8.9728273,17.7016296h14.8140004l-9.8970369-17.6399221c-.4908549-.9424414-1.1780517-1.8133582-2.0587856-2.6127504Z"/>
    <path class="st1" d="M105.3115065,38.7214381c-1.5581136-1.6380529-3.5958626-2.7964704-6.1160519-3.4724477s-5.6041603-1.0139659-9.2505109-1.0139659c-3.6056797,0-6.6686142.3379886-9.1888034,1.0139659s-4.5593407,1.8343948-6.1160519,3.4724477c-1.5581136,1.6394553-2.684275,3.8833634-3.3798865,6.7303217-.6984164,2.8483608-1.0462221,6.46526-1.0462221,10.8492954,0,4.3433645.3478057,7.9490442,1.0462221,10.8170392.6956115,2.8693974,1.8217728,5.1231225,3.3798865,6.7611754,1.5567112,1.6394553,3.5958626,2.7964704,6.1160519,3.4724477,2.5201892.6773797,5.5831237,1.0153684,9.1888034,1.0153684,3.6463506,0,6.7303217-.3379886,9.2505109-1.0153684,2.5201892-.6759773,4.5579382-1.8329924,6.1160519-3.4724477,1.5567112-1.6380529,2.6828726-3.891778,3.3798865-6.7611754.6970139-2.867995,1.0448197-6.4736747,1.0448197-10.8170392,0-4.3840353-.3478057-8.0009346-1.0448197-10.8492954-.6970139-2.8469583-1.8231753-5.0908664-3.3798865-6.7303217ZM95.1690422,63.8602204c-.3281716,1.7628703-.9017705,2.9717757-1.720797,3.6267164-.8204289.6563431-1.9872611.9831122-3.5033014.9831122s-2.684275-.3267691-3.5033014-.9831122c-.8204289-.6549407-1.3940279-1.8638461-1.720797-3.6267164-.329574-1.7614678-.4922573-4.2802546-.4922573-7.5591652s.1626833-5.7990998.4922573-7.5605677c.3267691-1.7614678.9003681-2.9703733,1.720797-3.6267164.8190264-.6549407,1.9872611-.9831122,3.5033014-.9831122s2.6828726.3281716,3.5033014.9831122c.8190264.6563431,1.3926254,1.8652486,1.720797,3.6267164s.4922573,4.281657.4922573,7.5605677-.1640858,5.7976974-.4922573,7.5591652Z"/>
    <path class="st1" d="M138.7485412,52.4892164l-7.6839826-3.1961665c-1.4346987-.573599-2.4065914-1.0546368-2.9184829-1.4445158-.513294-.3884766-.7685385-.8695144-.7685385-1.4445158,0-.3267691.060305-.5932332.18372-.7979898s.3281716-.3688424.6142698-.4922573.6857944-.2047566,1.1990884-.2454274c.5118915-.0406708,1.1570151-.0617075,1.9367731-.0617075,2.6632384,0,5.355928.0098171,8.0822763.0308537,2.7249458.0210366,5.0095247.0518904,6.8537366.0925612l.7979898-8.5436799c-2.5412259-.9017705-5.1932447-1.4851866-7.9588613-1.7516507s-5.2549521-.3996961-7.4680065-.3996961c-3.1961665,0-5.9112952.2047566-8.1439837.6142698-2.2340909.4095132-4.0264125,1.0854905-5.3783671,2.0279319-1.3519546.9438438-2.3462863,2.2130543-2.9815928,3.8118388-.6353065,1.597382-.9522585,3.6056797-.9522585,6.0234906,0,3.1134224.7166481,5.6336116,2.1513468,7.5591652,1.4332963,1.926956,3.8721438,3.6687896,7.3137378,5.2255009l8.4216674,3.6870214c.7769532.2875007,1.3715888.5539648,1.7825045.7993922.4081108.2454274.6956115.5020744.8596973.7685385s.2454274.6044527.2454274,1.0139659c0,.3688424-.1121954.6661602-.3379886.890551-.2257932.2257932-.6353065.3800619-1.2285397.4614036-.5946356.0827441-1.4655524.1234149-2.6127504.1234149-.7376848,0-1.854029-.0098171-3.3490328-.0308537-1.4964062-.0196342-3.2690935-.0617075-5.3166596-.1234149-2.050371-.0617075-4.3026937-.1121954-6.7611754-.1528662l-.7993922,9.3416697c3.6870214.9438438,6.9855662,1.5272599,9.8956345,1.7530532,2.9086658.2243908,5.0810493.3379886,6.515748.3379886,3.318179,0,6.0851981-.2370128,8.29685-.706831,2.2130543-.4712207,3.9857417-1.2089055,5.3166596-2.2130543s2.2845789-2.3364692,2.8581779-3.9955588.8610997-3.6772043.8610997-6.0543444c0-3.1134224-.706831-5.6644654-2.1204931-7.6517264s-3.8833634-3.7389118-7.406299-5.2563546Z"/>
    <path class="st1" d="M187.4904312,38.7214381c-1.5595161-1.6380529-3.5958626-2.7964704-6.1174543-3.4724477-2.5187868-.6759773-5.6041603-1.0139659-9.2505109-1.0139659-3.6042773,0-6.6672118.3379886-9.1888034,1.0139659-2.5187868.6759773-4.5579382,1.8343948-6.1146494,3.4724477-1.5595161,1.6394553-2.684275,3.8833634-3.3798865,6.7303217-.6984164,2.8483608-1.0462221,6.46526-1.0462221,10.8492954,0,4.3433645.3478057,7.9490442,1.0462221,10.8170392.6956115,2.8693974,1.8203704,5.1231225,3.3798865,6.7611754,1.5567112,1.6394553,3.5958626,2.7964704,6.1146494,3.4724477,2.5215917.6773797,5.5845261,1.0153684,9.1888034,1.0153684,3.6463506,0,6.7317241-.3379886,9.2505109-1.0153684,2.5215917-.6759773,4.5579382-1.8329924,6.1174543-3.4724477,1.5567112-1.6380529,2.6814701-3.891778,3.3798865-6.7611754.6956115-2.867995,1.0434172-6.4736747,1.0434172-10.8170392,0-4.3840353-.3478057-8.0009346-1.0434172-10.8492954-.6984164-2.8469583-1.8231753-5.0908664-3.3798865-6.7303217ZM177.3479669,63.8602204c-.3281716,1.7628703-.903173,2.9717757-1.7221994,3.6267164-.8190264.6563431-1.9858586.9831122-3.5033014.9831122-1.5146379,0-2.684275-.3267691-3.5033014-.9831122-.8190264-.6549407-1.3940279-1.8638461-1.7193945-3.6267164-.3309764-1.7614678-.4936598-4.2802546-.4936598-7.5591652s.1626833-5.7990998.4936598-7.5605677c.3253667-1.7614678.9003681-2.9703733,1.7193945-3.6267164.8190264-.6549407,1.9886635-.9831122,3.5033014-.9831122,1.5174428,0,2.684275.3281716,3.5033014.9831122.8190264.6563431,1.3940279,1.8652486,1.7221994,3.6267164s.4908549,4.281657.4908549,7.5605677-.1626833,5.7976974-.4908549,7.5591652Z"/>
    <path class="st1" d="M221.4772234,35.0947218l-5.4695259,27.5986665c-.1654882.7783556-.316952,1.5875649-.4600011,2.427628-.145854.8400631-.2580494,1.6492724-.3393911,2.427628h-1.4753695c-.1206101-.7783556-.244025-1.5875649-.3674399-2.427628s-.269269-1.6492724-.4319523-2.427628l-5.4695259-27.5986665h-13.7074733l10.3275868,38.8462555c.2468299,1.0658563.7769532,1.926956,1.5987845,2.5818967.8190264.6549407,1.8007362.9831122,2.9507391.9831122h11.6767365c1.147198,0,2.1289078-.3281716,2.9507391-.9831122.8190264-.6549407,1.3519546-1.5160404,1.5959796-2.5818967l10.3275868-38.8462555h-13.7074733Z"/>
    <path class="st1" d="M264.8744049,38.5377182c-.2889032-1.0658563-.8414655-1.9059194-1.660492-2.5201892-.8190264-.6156723-1.7614678-.9228072-2.8273241-.9228072h-12.1086888c-1.0658563,0-2.0082977.3071349-2.8273241.9228072-.8190264.6142698-1.3743937,1.4543329-1.660492,2.5201892l-11.0007592,38.968268h13.5840583l2.1211943-9.1579497h11.675334l2.1211943,9.1579497h13.5840583l-11.0007592-38.968268ZM250.6587216,59.0049644l2.1069946-9.0962422c.1626833-.7783556.3057325-1.5875649.4291474-2.4290305.1234149-.8386606.2243908-1.64787.3085374-2.427628h1.6576871c.0813417.779758.1851224,1.5889674.3085374,2.427628.1234149.8414655.2664641,1.6506749.4291474,2.4290305l2.1069946,9.0962422h-7.3470458Z"/>
  </g>
</svg>