<?xml version="1.0" encoding="UTF-8" standalone="no"?>
<!-- Created with Inkscape (http://www.inkscape.org/) -->

<svg
   width="83.206947mm"
   height="84.021614mm"
   viewBox="0 0 83.20695 84.021614"
   version="1.1"
   id="svg1"
   xmlns="http://www.w3.org/2000/svg"
   xmlns:svg="http://www.w3.org/2000/svg">
  <defs
     id="defs1">
    <clipPath
       id="clip_128">
      <path
         transform="matrix(1,0,0,-1,0,595.276)"
         d="m 98.053,144.426 h 48.517 v 48.992 H 98.053 Z"
         id="path124" />
    </clipPath>
  </defs>
  <g
     id="layer1"
     transform="translate(-58.212751,-88.559899)">
    <path
       d="m 115.49687,91.170289 v 0.03889 l 0.0194,-0.05834 z"
       id="path1796"
       style="stroke-width:1.71503" />
    <g
       clip-path="url(#clip_128)"
       id="g1830"
       transform="matrix(1.7150291,0,0,1.7150291,-109.95212,-600.63936)">
      <path
         transform="matrix(1,0,0,-1,121.3053,438.7281)"
         d="m 0,0 c 0.162,-0.225 0.316,-0.427 0.456,-0.603 l -0.551,-0.699 c -0.247,0.056 -0.519,0.129 -0.815,0.224 -0.587,0.182 -1.006,0.365 -1.26,0.549 -0.212,0.155 -0.375,0.28 -0.486,0.371 -0.205,0.148 -0.372,0.282 -0.5,0.401 -0.374,0.325 -0.572,0.603 -0.592,0.827 0,0.022 0.007,0.045 0.02,0.074 0.022,0.065 0.06,0.128 0.117,0.191 0.157,0.204 0.419,0.376 0.795,0.511 L -2.637,1.749 C -2.488,1.672 -2.333,1.597 -2.17,1.525 -1.634,1.3 -1.133,1.158 -0.666,1.103 -0.545,0.827 -0.324,0.459 0,0 m -5.242,5.647 0.064,0.098 c 0.057,0.082 0.117,0.168 0.19,0.253 0.227,0.248 0.476,0.412 0.752,0.499 L -3.4,5.097 -3.441,4.865 C -3.477,4.673 -3.495,4.461 -3.495,4.229 -3.508,3.52 -3.375,2.817 -3.092,2.12 L -3.918,1.643 c -0.029,0.014 -0.076,0.035 -0.14,0.063 -0.104,0.064 -0.213,0.155 -0.326,0.276 -0.367,0.38 -0.668,0.968 -0.899,1.757 -0.023,0.254 -0.035,0.521 -0.043,0.797 -0.008,0.572 0.02,0.941 0.084,1.111 m 2.52,3.646 1.675,0.349 0.92,-1.493 C -0.153,8.085 -0.192,8.008 -0.245,7.916 -0.335,7.724 -0.429,7.533 -0.527,7.343 -0.81,6.736 -0.997,6.251 -1.09,5.892 -1.457,5.745 -1.875,5.599 -2.34,5.455 L -2.923,5.298 -3.918,6.75 c -0.014,0.205 0.026,0.469 0.126,0.795 0.185,0.636 0.541,1.22 1.07,1.748 m 2.363,1.482 C -0.727,10.444 -0.956,10.188 -1.047,10.013 -1.308,9.992 -1.715,9.917 -2.265,9.791 l -0.754,-0.169 0.033,0.041 c 0.029,0.044 0.058,0.091 0.084,0.148 0.128,0.155 0.287,0.307 0.476,0.455 0.616,0.468 1.474,0.782 2.576,0.946 -0.164,-0.128 -0.332,-0.274 -0.509,-0.437 M 7.078,2.817 C 6.83,2.12 6.485,1.485 6.04,0.91 5.729,0.514 5.433,0.21 5.151,0 4.958,-0.141 4.743,-0.229 4.502,-0.264 4.256,-0.313 4.056,-0.292 3.9,-0.2 4.077,-0.079 4.328,0.262 4.652,0.827 4.808,1.115 4.949,1.387 5.073,1.643 5.231,1.678 5.562,1.913 6.072,2.352 6.326,2.57 6.569,2.788 6.801,2.998 Z M 7.322,6.39 C 7.37,6.093 7.405,5.802 7.426,5.519 7.499,4.61 7.461,3.906 7.322,3.411 L 6.993,3.391 C 7.02,3.665 7.03,3.978 7.024,4.323 7.017,5.028 6.945,5.571 6.801,5.943 6.859,6.129 6.922,6.301 6.993,6.463 7.141,6.787 7.233,6.884 7.267,6.75 Z M 0.922,3.221 C 1.037,3.155 1.511,3.167 2.354,3.253 2.772,3.287 3.176,3.333 3.574,3.391 L 3.709,3.263 C 3.815,3.144 3.917,3.019 4.017,2.893 4.342,2.491 4.576,2.101 4.726,1.726 4.394,1.12 4.008,0.598 3.574,0.159 3.436,0.028 3.306,-0.091 3.179,-0.189 L 3.021,-0.296 C 2.85,-0.332 2.64,-0.36 2.385,-0.381 1.877,-0.432 1.399,-0.427 0.954,-0.37 0.738,-0.256 0.498,-0.021 0.246,0.339 c -0.078,0.12 -0.18,0.283 -0.298,0.488 -0.14,0.234 -0.229,0.382 -0.264,0.445 0.184,0.1 0.444,0.454 0.783,1.069 0.177,0.305 0.329,0.598 0.455,0.88 M 1.929,8.202 C 2.296,8.209 2.654,8.205 2.999,8.191 L 3.222,7.999 C 3.392,7.837 3.554,7.668 3.709,7.492 4.18,6.947 4.444,6.476 4.493,6.07 4.55,5.655 4.401,5.16 4.049,4.588 3.921,4.39 3.784,4.199 3.636,4.015 3.501,3.874 3.405,3.784 3.347,3.739 3.294,3.713 3.158,3.681 2.946,3.644 2.72,3.61 2.472,3.582 2.206,3.561 1.511,3.524 1.029,3.578 0.752,3.718 0.607,3.798 0.444,3.924 0.278,4.101 0.114,4.269 -0.035,4.461 -0.17,4.673 c -0.14,0.212 -0.254,0.418 -0.337,0.625 -0.078,0.207 -0.117,0.379 -0.117,0.518 0.006,0.149 0.039,0.335 0.097,0.552 0.067,0.225 0.153,0.45 0.251,0.668 0.234,0.537 0.487,0.862 0.754,0.973 0.239,0.116 0.723,0.177 1.451,0.193 m 0.668,3.073 C 2.781,11.224 2.957,11.176 3.127,11.126 3.655,10.964 3.988,10.819 4.121,10.692 4.017,10.612 3.893,10.562 3.75,10.533 L 3.551,10.491 C 3.418,10.617 3.268,10.749 3.105,10.882 2.822,11.118 2.602,11.265 2.45,11.321 Z m 3.314,-1.58 c -0.621,0.628 -1.335,1.113 -2.136,1.453 -0.835,0.351 -1.709,0.529 -2.619,0.529 -0.91,0 -1.785,-0.178 -2.617,-0.529 -0.804,-0.34 -1.518,-0.825 -2.14,-1.453 C -4.214,9.08 -4.696,8.371 -5.041,7.564 -5.395,6.732 -5.571,5.859 -5.571,4.95 c 0,-0.913 0.176,-1.785 0.53,-2.619 0.345,-0.806 0.827,-1.519 1.44,-2.14 0.622,-0.623 1.336,-1.1 2.14,-1.44 0.832,-0.346 1.707,-0.52 2.617,-0.52 0.91,0 1.784,0.174 2.619,0.52 0.801,0.34 1.515,0.817 2.136,1.44 0.616,0.621 1.097,1.334 1.442,2.14 0.353,0.834 0.528,1.706 0.528,2.619 0,0.909 -0.175,1.782 -0.528,2.614 C 7.008,8.371 6.527,9.08 5.911,9.695 M 5.118,9.942 C 5.337,9.749 5.546,9.555 5.743,9.356 6.364,8.707 6.748,8.109 6.898,7.564 6.863,7.248 6.774,6.908 6.633,6.549 6.556,6.378 6.485,6.234 6.421,6.114 6.266,6.121 6.086,6.134 5.882,6.157 5.477,6.198 5.167,6.262 4.949,6.347 4.822,6.664 4.559,7.066 4.166,7.555 3.79,8.022 3.512,8.309 3.328,8.412 3.483,8.831 3.583,9.243 3.625,9.654 3.637,9.781 3.643,9.898 3.643,10.013 v 0.127 l 1.198,0.021 z M -6.639,16.443 H 8.783 L 8.899,15.565 C 8.978,14.851 9.037,14.095 9.078,13.298 9.235,10.728 9.182,8.226 8.92,5.797 8.562,2.406 7.822,-0.618 6.707,-3.273 5.352,-6.487 3.472,-9.058 1.07,-10.986 H 1.062 c -2.402,1.928 -4.277,4.499 -5.626,7.713 -1.123,2.655 -1.864,5.679 -2.224,9.07 -0.254,2.435 -0.307,4.937 -0.159,7.501 0.05,0.797 0.112,1.553 0.19,2.267 z m 16.142,18.934 -0.01,-0.03 0.01,0.011 z m 0.647,-0.03 v -0.023 l 0.009,0.034 z M -11.279,22.028 c -1.598,-0.706 -3.125,-1.545 -4.586,-2.523 -1.533,-1.009 -2.973,-2.149 -4.313,-3.422 -0.436,1.448 -0.815,2.915 -1.134,4.4 1.364,1.233 2.84,2.343 4.429,3.325 1.701,1.06 3.505,1.961 5.412,2.701 1.943,0.751 3.944,1.319 6.007,1.705 2.125,0.397 4.281,0.594 6.471,0.594 2.182,0 4.337,-0.197 6.464,-0.594 2.067,-0.386 4.069,-0.954 6.004,-1.705 1.9,-0.74 3.706,-1.641 5.413,-2.701 1.589,-0.982 3.068,-2.092 4.44,-3.325 -0.328,-1.485 -0.706,-2.953 -1.145,-4.4 -1.336,1.273 -2.77,2.412 -4.301,3.422 -0.212,0.141 -0.428,0.281 -0.645,0.415 -0.044,0.035 -0.09,0.067 -0.139,0.095 -0.092,0.053 -0.183,0.112 -0.275,0.171 -0.028,0.013 -0.054,0.031 -0.073,0.051 -0.01,0 -0.019,0.005 -0.034,0.011 -1.074,0.65 -2.181,1.229 -3.325,1.738 -0.219,0.098 -0.443,0.194 -0.668,0.284 -1.836,0.771 -3.727,1.354 -5.666,1.75 -1.993,0.403 -4.007,0.603 -6.05,0.603 -2.047,0 -4.063,-0.2 -6.048,-0.603 -1.941,-0.395 -3.835,-0.979 -5.677,-1.75 -0.19,-0.076 -0.378,-0.156 -0.561,-0.242 m 35.833,4.29 v 0.011 l 0.022,0.287 c -0.367,0 -0.852,0.046 -1.45,0.137 -1.216,0.212 -2.42,0.559 -3.614,1.037 -1.681,0.68 -3.212,1.594 -4.597,2.747 -1.743,1.432 -3.212,3.198 -4.406,5.297 -0.086,-0.177 -0.221,-0.4 -0.412,-0.667 V 35.155 C 9.687,34.605 9.184,34.096 8.593,33.629 7.744,32.973 6.774,32.46 5.679,32.093 c -1.389,-0.465 -2.948,-0.7 -4.672,-0.7 -1.729,0 -3.288,0.235 -4.671,0.7 h 0.01 c -1.115,0.367 -2.089,0.88 -2.922,1.536 -0.601,0.467 -1.103,0.976 -1.504,1.527 -0.016,0.013 -0.026,0.027 -0.033,0.043 -0.106,0.161 -0.201,0.314 -0.285,0.454 l -0.011,0.012 -0.096,0.18 c -1.194,-2.098 -2.655,-3.869 -4.384,-5.308 -1.406,-1.153 -2.946,-2.067 -4.618,-2.747 -1.194,-0.478 -2.4,-0.825 -3.614,-1.037 -0.373,-0.058 -0.73,-0.099 -1.069,-0.125 h -0.019 l -0.362,-0.012 0.02,-0.297 c 0.022,-0.269 0.055,-0.556 0.096,-0.858 v -0.01 c 0.113,-1.011 0.275,-2.077 0.487,-3.2 0.656,-3.589 1.642,-7.074 2.957,-10.459 1.829,-4.726 4.18,-8.904 7.052,-12.535 3.589,-4.54 7.891,-8.085 12.903,-10.636 0.02,-0.008 0.034,-0.018 0.041,-0.033 l 0.032,-0.009 0.033,0.021 c 0.014,0.013 0.027,0.023 0.042,0.032 5.001,2.556 9.294,6.1 12.88,10.625 2.87,3.631 5.221,7.809 7.055,12.535 1.306,3.385 2.292,6.87 2.957,10.459 0.203,1.123 0.362,2.189 0.474,3.2 l 0.012,0.01 c 0.035,0.302 0.065,0.589 0.084,0.857 m 0.044,0.943 0.34,-0.011 c 0.056,0 0.111,-0.013 0.168,-0.041 0.058,-0.036 0.099,-0.081 0.126,-0.139 0.022,-0.055 0.033,-0.116 0.033,-0.179 L 25.201,26.265 C 25.181,25.983 25.152,25.684 25.116,25.375 25.003,24.351 24.841,23.27 24.629,22.135 23.957,18.504 22.963,14.98 21.642,11.559 19.777,6.772 17.391,2.535 14.483,-1.143 10.851,-5.741 6.5,-9.338 1.43,-11.929 l -0.168,-0.138 c -0.063,-0.044 -0.132,-0.062 -0.2,-0.053 -0.078,0.006 -0.146,0.031 -0.202,0.074 l -0.022,0.01 c -0.063,0.007 -0.121,0.027 -0.17,0.065 l -0.032,0.02 c -5.091,2.592 -9.46,6.194 -13.102,10.808 -2.917,3.678 -5.3,7.915 -7.151,12.702 -1.334,3.427 -2.333,6.951 -2.998,10.576 -0.211,1.135 -0.373,2.216 -0.485,3.24 -0.044,0.318 -0.076,0.617 -0.096,0.89 l -0.053,0.626 c -0.008,0.063 0.002,0.119 0.032,0.168 0.028,0.058 0.065,0.101 0.117,0.13 0.048,0.042 0.101,0.061 0.157,0.061 l 0.701,0.033 c 0.317,0.021 0.655,0.06 1.015,0.118 1.166,0.206 2.325,0.537 3.475,0.993 1.61,0.659 3.09,1.542 4.439,2.65 1.681,1.393 3.102,3.105 4.268,5.138 h -0.012 l 0.287,0.488 c 0.036,0.071 0.095,0.121 0.179,0.149 0.079,0.02 0.153,0.02 0.224,0 0.07,-0.028 0.127,-0.081 0.169,-0.158 l 0.371,-0.689 c 0.078,-0.143 0.168,-0.284 0.274,-0.424 0.009,-0.016 0.017,-0.029 0.024,-0.044 0.367,-0.494 0.818,-0.95 1.354,-1.364 0.776,-0.602 1.684,-1.074 2.723,-1.421 1.321,-0.445 2.807,-0.668 4.459,-0.668 1.647,0 3.133,0.223 4.46,0.668 1.031,0.347 1.942,0.819 2.735,1.421 0.534,0.431 0.991,0.895 1.364,1.397 l -0.01,-0.01 0.01,0.021 c 0.169,0.233 0.291,0.424 0.361,0.572 l 0.254,0.55 c 0.035,0.077 0.088,0.135 0.159,0.169 0.078,0.037 0.159,0.039 0.243,0.013 0.071,-0.023 0.127,-0.072 0.169,-0.149 l 0.308,-0.521 c 1.158,-2.033 2.58,-3.745 4.269,-5.138 1.342,-1.108 2.818,-1.991 4.427,-2.65 1.151,-0.456 2.311,-0.787 3.476,-0.993 0.564,-0.087 1.019,-0.133 1.366,-0.14"
         fill="#ffffff"
         fill-rule="evenodd"
         id="path1797" />
      <path
         transform="matrix(1,0,0,-1,134.6962,416.74183)"
         d="M 0,0 C 1.144,-0.51 2.252,-1.088 3.326,-1.738 3.34,-1.745 3.349,-1.749 3.359,-1.749 3.378,-1.769 3.404,-1.787 3.433,-1.8 3.524,-1.859 3.615,-1.918 3.707,-1.971 3.757,-1.999 3.802,-2.032 3.846,-2.066 4.064,-2.2 4.279,-2.341 4.491,-2.481 c 1.532,-1.01 2.965,-2.15 4.301,-3.422 -0.425,-1.41 -0.905,-2.804 -1.439,-4.174 -1.822,-4.704 -4.156,-8.858 -7.004,-12.46 -2.992,-3.787 -6.485,-6.877 -10.476,-9.272 1.64,1.731 2.98,3.829 4.025,6.296 1.139,2.712 1.891,5.798 2.258,9.259 0.258,2.472 0.315,5.006 0.159,7.597 -0.044,0.812 -0.105,1.582 -0.194,2.309 v 0.01 l -0.093,0.711 z"
         fill="#00a766"
         fill-rule="evenodd"
         id="path1798" />
      <path
         transform="matrix(1,0,0,-1,101.1273,422.64503)"
         d="m 0,0 c 1.34,1.273 2.78,2.413 4.313,3.422 1.462,0.977 2.988,1.817 4.586,2.523 l 3.992,-5.669 -0.084,-0.711 v -0.009 c -0.087,-0.728 -0.148,-1.498 -0.191,-2.31 -0.156,-2.591 -0.103,-5.124 0.157,-7.597 0.363,-3.461 1.114,-6.547 2.259,-9.259 1.073,-2.55 2.474,-4.709 4.203,-6.475 -4.124,2.417 -7.716,5.567 -10.782,9.451 C 5.6,-13.032 3.259,-8.878 1.431,-4.174 0.903,-2.804 0.424,-1.41 0,0"
         fill="#da1a32"
         fill-rule="evenodd"
         id="path1799" />
      <path
         transform="matrix(1,0,0,-1,114.6663,422.285)"
         d="m 0,0 -0.118,-0.878 c -0.078,-0.714 -0.14,-1.47 -0.19,-2.267 -0.148,-2.565 -0.095,-5.066 0.159,-7.501 0.36,-3.392 1.101,-6.415 2.224,-9.07 1.349,-3.214 3.224,-5.785 5.626,-7.714 h 0.008 c 2.402,1.929 4.282,4.5 5.637,7.714 1.115,2.655 1.855,5.678 2.213,9.07 0.262,2.429 0.315,4.931 0.158,7.501 -0.041,0.797 -0.1,1.553 -0.179,2.267 L 15.422,0 Z m 11.757,-6.502 -0.277,0.219 -1.198,-0.02 v -0.128 c 0,-0.114 -0.006,-0.231 -0.018,-0.358 -0.042,-0.411 -0.142,-0.823 -0.297,-1.242 0.184,-0.103 0.462,-0.39 0.838,-0.858 0.393,-0.488 0.656,-0.89 0.784,-1.207 0.217,-0.086 0.527,-0.149 0.932,-0.191 0.204,-0.022 0.384,-0.035 0.539,-0.042 0.064,0.12 0.135,0.263 0.212,0.435 0.141,0.359 0.23,0.698 0.265,1.015 -0.149,0.545 -0.534,1.143 -1.155,1.792 -0.198,0.199 -0.406,0.393 -0.625,0.585 m 0.794,-0.246 c 0.615,-0.615 1.096,-1.324 1.441,-2.131 0.353,-0.833 0.528,-1.705 0.528,-2.615 0,-0.912 -0.175,-1.784 -0.528,-2.618 -0.345,-0.806 -0.826,-1.519 -1.441,-2.14 -0.622,-0.623 -1.336,-1.1 -2.137,-1.44 -0.835,-0.346 -1.709,-0.52 -2.619,-0.52 -0.91,0 -1.785,0.174 -2.617,0.52 -0.804,0.34 -1.518,0.817 -2.14,1.44 -0.613,0.621 -1.095,1.334 -1.44,2.14 -0.354,0.834 -0.53,1.706 -0.53,2.618 0,0.91 0.176,1.782 0.53,2.615 0.345,0.807 0.827,1.516 1.44,2.131 0.622,0.628 1.336,1.113 2.14,1.453 0.832,0.351 1.707,0.529 2.617,0.529 0.91,0 1.784,-0.178 2.619,-0.529 0.801,-0.34 1.515,-0.825 2.137,-1.453 m -3.315,1.58 -0.147,0.046 c 0.152,-0.056 0.372,-0.203 0.655,-0.439 0.163,-0.133 0.313,-0.265 0.446,-0.391 l 0.199,0.042 c 0.143,0.028 0.267,0.079 0.371,0.158 -0.133,0.127 -0.466,0.273 -0.994,0.435 -0.17,0.05 -0.346,0.098 -0.53,0.149 M 8.568,-8.241 C 7.839,-8.258 7.357,-8.318 7.117,-8.434 6.85,-8.545 6.597,-8.871 6.363,-9.407 6.266,-9.625 6.179,-9.85 6.112,-10.075 c -0.058,-0.218 -0.091,-0.403 -0.097,-0.552 0,-0.139 0.039,-0.311 0.117,-0.519 0.083,-0.206 0.198,-0.412 0.337,-0.624 0.135,-0.212 0.284,-0.404 0.448,-0.572 0.166,-0.177 0.329,-0.303 0.475,-0.383 0.276,-0.14 0.758,-0.194 1.453,-0.157 0.266,0.021 0.514,0.048 0.74,0.083 0.212,0.037 0.348,0.068 0.401,0.095 0.058,0.044 0.154,0.135 0.289,0.276 0.148,0.184 0.285,0.375 0.413,0.573 0.352,0.571 0.501,1.067 0.444,1.482 -0.049,0.406 -0.313,0.876 -0.784,1.422 -0.155,0.176 -0.317,0.345 -0.487,0.507 l -0.223,0.192 c -0.345,0.014 -0.703,0.018 -1.07,0.011 m -1.007,-4.982 c -0.126,-0.281 -0.278,-0.574 -0.455,-0.879 -0.339,-0.615 -0.6,-0.969 -0.783,-1.069 0.035,-0.063 0.124,-0.211 0.264,-0.446 0.118,-0.204 0.22,-0.367 0.298,-0.487 0.252,-0.36 0.492,-0.596 0.708,-0.709 0.445,-0.057 0.923,-0.062 1.431,-0.011 0.255,0.021 0.465,0.048 0.636,0.085 l 0.158,0.107 c 0.127,0.098 0.257,0.217 0.394,0.348 0.435,0.439 0.821,0.96 1.153,1.567 -0.15,0.375 -0.385,0.765 -0.709,1.167 -0.1,0.126 -0.202,0.251 -0.308,0.37 l -0.136,0.128 C 9.815,-13.11 9.411,-13.156 8.993,-13.19 8.15,-13.277 7.675,-13.288 7.561,-13.223 m 6.4,3.17 -0.055,0.359 c -0.034,0.135 -0.126,0.038 -0.274,-0.286 -0.071,-0.163 -0.134,-0.334 -0.192,-0.52 0.144,-0.372 0.216,-0.915 0.223,-1.62 0.006,-0.345 -0.003,-0.658 -0.031,-0.932 l 0.329,0.02 c 0.139,0.495 0.176,1.199 0.104,2.108 -0.021,0.283 -0.056,0.574 -0.104,0.871 m -0.244,-3.573 -0.277,0.181 c -0.232,-0.21 -0.475,-0.428 -0.729,-0.646 -0.509,-0.439 -0.841,-0.674 -0.998,-0.709 -0.124,-0.256 -0.267,-0.528 -0.422,-0.817 -0.324,-0.564 -0.575,-0.906 -0.752,-1.027 0.156,-0.091 0.356,-0.112 0.602,-0.063 0.241,0.035 0.456,0.122 0.649,0.264 0.281,0.21 0.578,0.514 0.889,0.91 0.445,0.575 0.79,1.21 1.038,1.907 M 6.28,-5.668 c 0.177,0.163 0.344,0.309 0.509,0.437 C 5.687,-5.395 4.829,-5.71 4.213,-6.177 4.024,-6.325 3.865,-6.478 3.737,-6.632 3.711,-6.689 3.682,-6.737 3.653,-6.78 l -0.032,-0.041 0.753,0.169 c 0.55,0.126 0.957,0.201 1.219,0.221 0.09,0.176 0.319,0.432 0.687,0.763 M 3.917,-7.151 C 3.388,-7.678 3.032,-8.263 2.848,-8.898 2.748,-9.224 2.707,-9.488 2.721,-9.694 l 0.995,-1.452 0.583,0.158 c 0.465,0.143 0.883,0.29 1.25,0.437 0.093,0.359 0.28,0.844 0.563,1.451 0.098,0.19 0.192,0.381 0.283,0.572 0.052,0.093 0.091,0.17 0.118,0.234 l -0.92,1.493 z m -2.52,-3.645 c -0.064,-0.17 -0.092,-0.539 -0.085,-1.112 0.009,-0.275 0.021,-0.542 0.044,-0.796 0.231,-0.789 0.532,-1.377 0.899,-1.757 0.113,-0.121 0.222,-0.212 0.326,-0.276 0.064,-0.028 0.111,-0.049 0.14,-0.063 l 0.826,0.477 c -0.283,0.697 -0.417,1.4 -0.403,2.109 0,0.232 0.018,0.444 0.054,0.636 l 0.041,0.232 -0.836,1.4 c -0.275,-0.087 -0.525,-0.251 -0.752,-0.499 -0.072,-0.085 -0.133,-0.171 -0.19,-0.253 z m 5.242,-5.647 c -0.324,0.459 -0.545,0.826 -0.666,1.103 -0.467,0.055 -0.968,0.197 -1.504,0.422 -0.163,0.071 -0.318,0.146 -0.467,0.224 l -0.179,0.097 c -0.376,-0.135 -0.638,-0.307 -0.795,-0.511 -0.056,-0.063 -0.095,-0.126 -0.117,-0.191 -0.013,-0.029 -0.02,-0.052 -0.02,-0.074 0.02,-0.224 0.218,-0.502 0.592,-0.828 0.128,-0.118 0.295,-0.252 0.5,-0.4 0.111,-0.091 0.274,-0.216 0.486,-0.371 0.254,-0.185 0.673,-0.367 1.26,-0.549 0.296,-0.095 0.568,-0.168 0.815,-0.224 l 0.551,0.699 c -0.14,0.176 -0.294,0.378 -0.456,0.603 M -13.539,-0.36 c 0.424,-1.41 0.903,-2.804 1.431,-4.174 1.828,-4.704 4.169,-8.858 7.022,-12.46 3.066,-3.883 6.658,-7.034 10.782,-9.451 -1.729,1.766 -3.13,3.925 -4.203,6.475 -1.145,2.712 -1.896,5.798 -2.259,9.259 -0.26,2.473 -0.313,5.006 -0.157,7.597 0.043,0.812 0.104,1.582 0.191,2.31 v 0.009 l 0.084,0.711 -3.992,5.669 c 0.183,0.086 0.371,0.166 0.561,0.242 1.842,0.771 3.736,1.355 5.677,1.75 1.985,0.403 4.001,0.603 6.048,0.603 2.043,0 4.057,-0.2 6.05,-0.603 1.939,-0.396 3.83,-0.979 5.666,-1.75 0.225,-0.09 0.449,-0.186 0.668,-0.284 l -3.972,-5.627 0.093,-0.711 v -0.01 c 0.089,-0.727 0.15,-1.497 0.194,-2.309 0.156,-2.591 0.099,-5.124 -0.159,-7.597 -0.368,-3.461 -1.119,-6.547 -2.258,-9.259 -1.045,-2.467 -2.385,-4.565 -4.025,-6.296 3.991,2.395 7.484,5.486 10.476,9.272 2.848,3.602 5.182,7.756 7.004,12.46 0.534,1.37 1.014,2.764 1.438,4.174 0.44,1.447 0.818,2.915 1.146,4.399 -1.372,1.234 -2.851,2.344 -4.44,3.326 -1.707,1.059 -3.513,1.961 -5.413,2.701 -1.935,0.751 -3.937,1.319 -6.004,1.705 -2.126,0.397 -4.282,0.594 -6.464,0.594 -2.189,0 -4.346,-0.197 -6.471,-0.594 -2.063,-0.386 -4.065,-0.954 -6.007,-1.705 -1.907,-0.74 -3.712,-1.642 -5.412,-2.701 -1.589,-0.982 -3.065,-2.092 -4.429,-3.326 0.319,-1.484 0.698,-2.951 1.134,-4.399 M 31.193,9.875 C 31.174,9.607 31.144,9.32 31.109,9.018 L 31.097,9.008 C 30.985,7.996 30.826,6.931 30.623,5.808 29.958,2.219 28.972,-1.266 27.666,-4.651 c -1.834,-4.726 -4.185,-8.904 -7.055,-12.535 -3.586,-4.525 -7.878,-8.069 -12.88,-10.625 -0.014,-0.009 -0.028,-0.02 -0.042,-0.032 l -0.033,-0.021 -0.032,0.009 c -0.007,0.015 -0.021,0.024 -0.041,0.033 -5.013,2.55 -9.314,6.096 -12.903,10.636 -2.872,3.631 -5.223,7.809 -7.052,12.535 -1.315,3.385 -2.301,6.87 -2.957,10.459 -0.212,1.123 -0.374,2.188 -0.487,3.2 v 0.01 c -0.041,0.302 -0.074,0.589 -0.096,0.858 l -0.019,0.297 0.361,0.012 h 0.019 c 0.34,0.025 0.696,0.067 1.069,0.125 1.214,0.212 2.42,0.559 3.613,1.037 1.673,0.68 3.213,1.594 4.619,2.746 1.729,1.44 3.19,3.211 4.384,5.308 l 0.096,-0.18 0.011,-0.011 c 0.084,-0.14 0.179,-0.293 0.285,-0.455 0.006,-0.015 0.017,-0.029 0.033,-0.042 0.401,-0.551 0.903,-1.06 1.504,-1.527 C 0.896,16.53 1.87,16.017 2.985,15.65 h -0.01 c 1.384,-0.465 2.942,-0.7 4.671,-0.7 1.724,0 3.283,0.235 4.672,0.7 1.095,0.367 2.065,0.88 2.914,1.536 0.591,0.467 1.094,0.976 1.504,1.526 v 0.012 c 0.191,0.267 0.326,0.49 0.412,0.666 1.194,-2.098 2.663,-3.864 4.406,-5.297 1.385,-1.152 2.916,-2.066 4.597,-2.746 1.194,-0.478 2.398,-0.825 3.614,-1.037 0.598,-0.091 1.083,-0.137 1.45,-0.137 L 31.193,9.886 Z"
         fill-rule="evenodd"
         id="path1800" />
      <path
         transform="matrix(1,0,0,-1,107.5735,415.2409)"
         d="M 0,0 -0.013,-0.21 0.631,0.078 C 0.59,0.127 0.542,0.168 0.488,0.204 0.418,0.245 0.341,0.275 0.264,0.297 0.182,0.316 0.122,0.318 0.084,0.3 0.054,0.288 0.035,0.259 0.025,0.213 0.019,0.188 0.011,0.116 0,0 m -0.197,-0.282 0.019,0.689 c 0.011,0.082 0.048,0.137 0.113,0.165 0.049,0.02 0.102,0.028 0.158,0.02 C 0.172,0.582 0.264,0.558 0.37,0.521 0.587,0.442 0.72,0.342 0.777,0.221 0.789,0.192 0.802,0.121 0.819,0.003 l 0.014,-0.104 0.005,-0.117 -0.94,-0.421 0.314,-0.598 C 0.23,-1.273 0.239,-1.293 0.236,-1.284 0.248,-1.305 0.253,-1.332 0.255,-1.368 L 0.259,-1.471 C 0.261,-1.506 0.258,-1.576 0.248,-1.675 l -0.012,-0.101 -0.357,0.633 c -0.029,0.055 -0.056,0.108 -0.08,0.161 -0.043,0.1 -0.067,0.23 -0.067,0.392 0,0.187 0.018,0.289 0.054,0.304 0,0.001 0.007,0.004 0.017,0.004"
         fill-rule="evenodd"
         id="path1801" />
      <path
         transform="matrix(1,0,0,-1,109.5493,414.9995)"
         d="m 0,0 -0.615,-0.239 c -0.087,-0.034 -0.147,-0.052 -0.183,-0.045 -0.053,0.006 -0.094,0.041 -0.118,0.104 -0.021,0.048 -0.029,0.115 -0.03,0.202 l 0.004,0.121 c 0.032,-0.042 0.067,-0.061 0.102,-0.065 0.034,-0.006 0.089,0.009 0.165,0.04 l 0.503,0.197 -0.499,0.4 0.049,0.31 L 0.127,0.431 0.497,0.577 0.626,0.247 0.141,0.058 0.035,0.147 Z"
         fill-rule="evenodd"
         id="path1802" />
      <path
         transform="matrix(1,0,0,-1,111.094,413.9238)"
         d="M 0,0 C 0,0.038 -0.01,0.08 -0.023,0.125 -0.064,0.246 -0.124,0.296 -0.201,0.269 -0.242,0.255 -0.284,0.21 -0.326,0.128 -0.367,0.048 -0.392,-0.025 -0.401,-0.09 l 0.204,-0.07 c 0.025,-0.008 0.038,-0.011 0.044,-0.008 l 0.029,0.024 z M -0.006,0.58 C 0.065,0.534 0.116,0.465 0.147,0.37 0.19,0.244 0.189,0.087 0.146,-0.098 l 0.538,0.178 0.11,-0.338 -0.81,-0.269 -0.157,0.037 -0.076,-0.116 -0.726,-0.239 -0.112,0.334 0.481,0.163 c -0.009,0.008 -0.014,0.019 -0.019,0.03 -0.017,0.051 -0.01,0.142 0.028,0.267 0.11,0.396 0.237,0.618 0.378,0.666 0.072,0.023 0.143,0.013 0.213,-0.035 m -0.436,0.645 0.289,-0.13 -0.125,-0.216 -0.182,0.078 -0.101,-0.173 -0.287,0.135 0.129,0.213 0.17,-0.079 z"
         fill-rule="evenodd"
         id="path1803" />
      <path
         transform="matrix(1,0,0,-1,112.304,412.25379)"
         d="m 0,0 -0.038,-0.299 -0.07,0.008 0.314,-0.876 C 0.228,-1.24 0.234,-1.353 0.229,-1.511 l -0.018,-0.244 -0.673,-0.194 -0.099,0.339 0.6,0.175 -0.441,1.169 c -0.065,0 -0.102,0.018 -0.116,0.062 -0.004,0.016 -0.002,0.042 0.006,0.07 l 0.082,0.301 c 0.018,-0.054 0.041,-0.087 0.076,-0.103 0.015,-0.012 0.052,-0.02 0.106,-0.029 z"
         fill-rule="evenodd"
         id="path1804" />
      <path
         transform="matrix(1,0,0,-1,112.9892,412.25379)"
         d="m 0,0 -0.046,-0.092 0.014,-0.04 C 0.06,-0.396 0.129,-0.611 0.171,-0.779 0.219,-0.948 0.239,-1.104 0.236,-1.246 0.235,-1.347 0.196,-1.505 0.12,-1.721 0.086,-1.54 0.05,-1.38 0.018,-1.242 c -0.042,0.157 -0.11,0.386 -0.207,0.689 -0.073,0.23 -0.137,0.407 -0.189,0.53 l 0.196,0.435 z"
         fill-rule="evenodd"
         id="path1805" />
      <path
         transform="matrix(1,0,0,-1,114.7169,413.1033)"
         d="M 0,0 0.364,0.075 C 0.334,0.183 0.291,0.264 0.237,0.319 0.152,0.406 0.054,0.452 -0.056,0.463 -0.068,0.465 -0.083,0.465 -0.095,0.463 -0.138,0.453 -0.165,0.405 -0.177,0.312 -0.191,0.203 -0.193,0.126 -0.181,0.08 -0.165,0.005 -0.106,-0.023 0,0 m -0.349,0.535 c 0.019,0.142 0.064,0.22 0.135,0.238 0.089,0.018 0.231,-0.027 0.429,-0.13 0.2,-0.106 0.313,-0.222 0.338,-0.342 0.004,-0.02 0,-0.111 -0.012,-0.27 l -0.03,-0.286 -0.56,-0.116 C -0.075,-0.376 -0.092,-0.38 -0.106,-0.38 l -0.035,-0.007 c -0.039,-0.004 -0.071,-0.001 -0.095,0.007 -0.075,0.02 -0.125,0.097 -0.152,0.223 -0.025,0.112 -0.009,0.342 0.039,0.692 M 0.092,1.279 -0.059,1.08 -0.224,1.179 -0.35,1.018 -0.615,1.19 l 0.147,0.195 0.163,-0.099 0.124,0.159 z"
         fill-rule="evenodd"
         id="path1806" />
      <path
         transform="matrix(1,0,0,-1,116.1244,412.8389)"
         d="M 0,0 0.414,0.072 0.474,-0.275 0.057,-0.349 C 0.047,-0.538 0,-0.718 -0.088,-0.889 c -0.085,-0.17 -0.179,-0.261 -0.282,-0.28 -0.091,-0.014 -0.214,0.048 -0.368,0.188 l -0.077,0.071 c -0.017,0.016 -0.025,0.027 -0.033,0.033 0.088,-0.021 0.175,-0.024 0.263,-0.012 0.109,0.019 0.208,0.083 0.295,0.193 0.088,0.108 0.15,0.244 0.188,0.409 -0.034,0.065 -0.079,0.136 -0.137,0.208 -0.052,0.06 -0.109,0.12 -0.175,0.182 l 0.159,0.262 C -0.14,0.253 -0.054,0.133 0,0"
         fill-rule="evenodd"
         id="path1807" />
      <path
         transform="matrix(1,0,0,-1,117.0166,411.3851)"
         d="M 0,0 1.227,0.51 1.117,0.171 0.176,-0.236 1.055,-0.991 c 0.077,-0.069 0.118,-0.118 0.121,-0.156 0,-0.011 0,-0.016 -0.002,-0.018 l 0.538,0.067 0.042,-0.354 -0.572,-0.07 -0.106,0.095 -0.055,-0.113 -1.494,-0.184 -0.045,0.35 1.364,0.168 -0.689,0.599 -0.046,-0.066 -0.195,0.143 c -0.026,0.018 -0.042,0.042 -0.046,0.069 -0.001,0.024 0.002,0.052 0.012,0.082 z"
         fill-rule="evenodd"
         id="path1808" />
      <path
         transform="matrix(1,0,0,-1,119.5654,411.0383)"
         d="m 0,0 -0.099,-0.283 -0.068,0.018 0.135,-0.921 c 0.003,-0.072 -0.012,-0.185 -0.049,-0.342 l -0.065,-0.234 -0.7,-0.054 -0.028,0.353 0.62,0.048 -0.196,1.234 c -0.062,0.015 -0.097,0.043 -0.098,0.083 -0.002,0.02 0.005,0.041 0.02,0.069 l 0.14,0.278 c 0.005,-0.054 0.023,-0.093 0.052,-0.117 0.013,-0.012 0.048,-0.029 0.1,-0.045 z"
         fill-rule="evenodd"
         id="path1809" />
      <path
         transform="matrix(1,0,0,-1,121.1163,414.03993)"
         d="M 0,0 -0.235,0.213 -0.047,0.38 0.095,0.252 0.249,0.384 0.48,0.169 0.293,0.002 0.153,0.132 Z M -0.367,1.343 C -0.365,1.014 -0.219,0.849 0.065,0.852 0.148,0.854 0.246,0.871 0.354,0.91 0.462,0.949 0.551,1.001 0.631,1.069 0.665,1.1 0.704,1.144 0.751,1.205 0.633,1.294 0.467,1.338 0.25,1.336 H 0.226 L 0.375,1.683 1.513,1.695 1.518,1.343 1.061,1.338 0.939,1.061 C 0.892,0.963 0.848,0.876 0.805,0.798 0.525,0.586 0.259,0.486 0.011,0.498 -0.142,0.495 -0.266,0.546 -0.365,0.65 -0.463,0.754 -0.513,0.89 -0.513,1.056 -0.515,1.233 -0.447,1.478 -0.303,1.789 -0.349,1.609 -0.37,1.46 -0.367,1.343"
         fill-rule="evenodd"
         id="path1810" />
      <path
         transform="matrix(1,0,0,-1,122.8547,411.41639)"
         d="M 0,0 0.192,0.159 0.331,0.024 0.489,0.148 0.713,-0.076 0.517,-0.234 0.378,-0.099 0.224,-0.224 Z m -0.262,-0.936 0.57,-0.019 -0.066,0.256 0.224,0.207 0.121,-0.474 0.399,-0.014 -0.011,-0.354 -0.573,0.02 -0.033,0.118 -0.104,-0.113 -0.541,0.018 z"
         fill-rule="evenodd"
         id="path1811" />
      <path
         transform="matrix(1,0,0,-1,124.2371,413.211)"
         d="m 0,0 0.157,0.122 0.216,-0.23 -0.196,-0.151 -0.133,0.14 -0.162,-0.122 -0.218,0.23 0.202,0.151 z M -0.439,0.814 0.162,0.778 C 0.169,0.919 0.131,1.054 0.048,1.185 L 0.261,1.437 C 0.368,1.292 0.415,1.145 0.406,0.991 0.399,0.901 0.365,0.785 0.305,0.647 0.284,0.598 0.249,0.52 0.201,0.42 l -0.664,0.043 z"
         fill-rule="evenodd"
         id="path1812" />
      <path
         transform="matrix(1,0,0,-1,125.1978,412.225)"
         d="m 0,0 c -0.045,-0.047 -0.07,-0.096 -0.077,-0.152 -0.004,-0.074 0.037,-0.115 0.131,-0.124 l 0.26,-0.025 C 0.307,-0.072 0.249,0.052 0.141,0.064 0.093,0.066 0.046,0.044 0,0 M 0.437,0.149 C 0.504,0.012 0.542,-0.144 0.545,-0.323 L 0.967,-0.364 0.933,-0.716 0.496,-0.674 C 0.467,-0.784 0.414,-0.893 0.341,-1.006 0.177,-1.252 0.024,-1.37 -0.112,-1.358 c -0.098,0.01 -0.226,0.14 -0.385,0.395 0.085,-0.041 0.162,-0.065 0.233,-0.072 0.115,-0.01 0.222,0.018 0.323,0.084 0.103,0.07 0.187,0.169 0.248,0.297 l -0.253,0.023 c -0.095,0.008 -0.155,0.017 -0.185,0.025 -0.064,0.019 -0.118,0.053 -0.153,0.106 -0.039,0.056 -0.054,0.115 -0.048,0.188 0.008,0.098 0.048,0.208 0.113,0.323 0.067,0.114 0.146,0.212 0.238,0.296 C 0.077,0.354 0.135,0.378 0.2,0.369 0.288,0.359 0.366,0.288 0.437,0.149"
         fill-rule="evenodd"
         id="path1813" />
      <path
         transform="matrix(1,0,0,-1,127.7298,413.1712)"
         d="m 0,0 -0.077,0.12 -0.082,-0.095 -1.492,0.222 0.052,0.35 1.36,-0.203 -0.505,0.764 -0.06,-0.053 -0.151,0.188 c -0.022,0.028 -0.029,0.055 -0.026,0.08 0.004,0.019 0.014,0.044 0.033,0.076 L -0.733,1.78 0.584,1.945 0.389,1.649 -0.627,1.507 0.019,0.545 C 0.073,0.459 0.099,0.4 0.095,0.364 0.095,0.357 0.092,0.35 0.087,0.345 L 0.623,0.264 0.57,-0.086 Z"
         fill-rule="evenodd"
         id="path1814" />
      <path
         transform="matrix(1,0,0,-1,129.2397,411.3911)"
         d="m 0,0 c -0.008,-0.057 -0.001,-0.098 0.017,-0.128 0.012,-0.017 0.041,-0.039 0.084,-0.073 l 0.206,-0.145 -0.17,-0.248 -0.062,0.039 -0.116,-0.924 c -0.016,-0.073 -0.062,-0.177 -0.141,-0.316 l -0.124,-0.21 -0.689,0.136 0.069,0.347 0.611,-0.12 0.14,1.24 c -0.056,0.032 -0.081,0.067 -0.073,0.111 0.003,0.015 0.017,0.037 0.037,0.06 z"
         fill-rule="evenodd"
         id="path1815" />
      <path
         transform="matrix(1,0,0,-1,130.0704,412.1557)"
         d="m 0,0 c -0.036,-0.269 -0.073,-0.488 -0.113,-0.662 -0.037,-0.172 -0.09,-0.322 -0.157,-0.448 -0.049,-0.091 -0.156,-0.214 -0.321,-0.373 0.057,0.189 0.099,0.346 0.129,0.475 0.041,0.193 0.085,0.43 0.13,0.709 0.039,0.253 0.065,0.437 0.073,0.556 L 0.117,0.555 0.089,0.105 0.005,0.044 Z"
         fill-rule="evenodd"
         id="path1816" />
      <path
         transform="matrix(1,0,0,-1,131.5128,412.8703)"
         d="M 0,0 C 0.248,-0.2 0.34,-0.416 0.276,-0.647 0.25,-0.74 0.202,-0.837 0.129,-0.935 l -0.155,-0.208 -0.724,0.2 0.17,0.319 0.591,-0.16 c 0.026,0.119 0.021,0.221 -0.009,0.301 -0.031,0.082 -0.099,0.165 -0.207,0.252 z"
         fill-rule="evenodd"
         id="path1817" />
      <path
         transform="matrix(1,0,0,-1,132.8059,412.3015)"
         d="m 0,0 -0.443,-1.445 c -0.017,-0.061 -0.023,-0.101 -0.022,-0.12 0.005,-0.021 0.04,-0.042 0.109,-0.062 l 0.288,-0.089 -0.107,-0.338 -0.546,0.168 c -0.029,0.005 -0.057,0.025 -0.083,0.046 -0.026,0.024 -0.033,0.063 -0.016,0.122 l 0.459,1.517 z"
         fill-rule="evenodd"
         id="path1818" />
      <path
         transform="matrix(1,0,0,-1,134.0063,413.1213)"
         d="M 0,0 C 0.061,0.069 0.11,0.098 0.147,0.086 0.172,0.078 0.195,0.044 0.218,-0.011 0.3,-0.205 0.32,-0.356 0.279,-0.473 0.265,-0.515 0.216,-0.593 0.132,-0.715 c -0.001,0.034 -0.004,0.058 -0.006,0.068 -0.018,0.104 -0.04,0.198 -0.068,0.282 -0.012,0.037 -0.026,0.057 -0.045,0.064 -0.024,0.008 -0.055,-0.013 -0.1,-0.066 -0.045,-0.056 -0.084,-0.096 -0.11,-0.124 -0.024,-0.024 -0.051,-0.044 -0.082,-0.064 l 0.025,-0.005 c 0.033,-0.013 0.112,-0.083 0.232,-0.215 l 0.215,-0.227 c 0.154,-0.163 0.326,-0.284 0.52,-0.371 L 0.421,-1.597 C 0.342,-1.54 0.262,-1.5 0.183,-1.471 c -0.212,0.074 -0.4,0.072 -0.561,-0.005 -0.059,-0.029 -0.093,-0.046 -0.104,-0.048 -0.019,-0.003 -0.053,0.003 -0.101,0.02 l -0.84,0.301 0.119,0.33 0.933,-0.33 c 0.092,0.029 0.164,0.04 0.22,0.036 -0.227,0.299 -0.401,0.471 -0.523,0.515 -0.029,0.009 -0.076,0.014 -0.141,0.017 0.259,0.105 0.474,0.256 0.65,0.451 z m -0.376,0.344 -0.143,0.287 0.23,0.088 0.085,-0.17 0.193,0.072 L 0.137,0.343 -0.099,0.246 -0.19,0.419 Z"
         fill-rule="evenodd"
         id="path1819" />
      <path
         transform="matrix(1,0,0,-1,135.1863,414.91279)"
         d="m 0,0 0.612,-0.259 0.004,0.006 c 0.006,0.007 0.012,0.014 0.017,0.024 0.005,0.014 0.005,0.034 0.002,0.057 L 0.543,0.218 C 0.379,0.143 0.204,0.076 0.016,0.021 Z M 1.453,1.144 C 1.435,1.104 1.446,1.047 1.483,0.976 L 1.614,0.74 1.344,0.584 1.307,0.653 1.276,0.627 1.044,0.469 C 0.98,0.426 0.893,0.378 0.784,0.326 0.772,0.32 0.76,0.315 0.747,0.307 L 0.803,0 C 0.813,-0.043 0.82,-0.087 0.828,-0.14 0.835,-0.2 0.831,-0.248 0.814,-0.291 0.797,-0.332 0.76,-0.38 0.707,-0.436 l -0.164,-0.177 -0.946,0.398 0.228,0.367 C -0.047,0.191 0.07,0.232 0.177,0.272 0.291,0.317 0.391,0.365 0.48,0.412 0.455,0.503 0.423,0.6 0.385,0.701 0.347,0.799 0.306,0.889 0.26,0.97 0.219,0.929 0.183,0.915 0.155,0.928 0.131,0.938 0.113,0.957 0.103,0.985 0.047,1.124 0.035,1.23 0.065,1.301 0.083,1.344 0.136,1.4 0.221,1.472 0.283,1.517 0.328,1.536 0.353,1.526 0.385,1.512 0.41,1.477 0.433,1.419 0.55,1.135 0.633,0.855 0.679,0.58 L 0.686,0.532 c 0.186,0.103 0.34,0.229 0.462,0.373 -0.024,0.049 -0.031,0.089 -0.019,0.118 0.01,0.021 0.026,0.038 0.046,0.05 0.024,0.013 0.059,0.029 0.101,0.044 l 0.21,0.084 C 1.466,1.169 1.455,1.152 1.453,1.144 M -0.901,-0.65 c 0.027,0.067 0.095,0.127 0.201,0.183 0.088,0.042 0.179,0.042 0.277,0 0.058,-0.025 0.077,-0.056 0.064,-0.098 -0.015,-0.03 -0.047,-0.062 -0.095,-0.097 -0.023,0.021 -0.045,0.037 -0.07,0.047 -0.088,0.038 -0.176,0.032 -0.252,-0.012 0.038,-0.089 0.11,-0.154 0.214,-0.197 0.035,-0.014 0.085,-0.025 0.152,-0.033 L -0.538,-0.99 c -0.177,0.048 -0.341,0.036 -0.49,-0.038 0.05,0.081 0.114,0.139 0.191,0.171 -0.077,0.057 -0.099,0.128 -0.064,0.207"
         fill-rule="evenodd"
         id="path1820" />
      <path
         transform="matrix(1,0,0,-1,137.1716,414.5867)"
         d="m 0,0 c -0.095,-0.26 -0.178,-0.469 -0.253,-0.628 -0.073,-0.161 -0.156,-0.293 -0.247,-0.4 -0.069,-0.08 -0.199,-0.178 -0.395,-0.296 0.094,0.166 0.17,0.311 0.227,0.437 0.08,0.173 0.172,0.393 0.279,0.663 0.091,0.234 0.155,0.411 0.19,0.529 L 0.232,0.517 0.11,0.084 0.013,0.04 Z"
         fill-rule="evenodd"
         id="path1821" />
      <path
         transform="matrix(1,0,0,-1,113.4947,416.6726)"
         d="M 0,0 V -1.415 L 0.953,0 H 1.581 L 0.706,-1.24 1.63,-3.186 H 1.022 L 0.383,-1.692 0,-2.223 V -3.186 H -0.468 V 0 Z"
         fill="#ffffff"
         fill-rule="evenodd"
         id="path1822" />
      <path
         transform="matrix(1,0,0,-1,115.833,416.6726)"
         d="m 0,0 v -1.726 c 0,-0.271 0.007,-0.448 0.019,-0.533 0.022,-0.133 0.07,-0.237 0.144,-0.315 0.076,-0.077 0.179,-0.116 0.308,-0.116 0.136,0 0.235,0.034 0.304,0.11 0.068,0.073 0.106,0.167 0.122,0.276 0.012,0.107 0.021,0.286 0.021,0.542 V 0 H 1.387 V -1.674 C 1.387,-2.053 1.374,-2.323 1.35,-2.484 1.323,-2.643 1.277,-2.776 1.209,-2.885 1.14,-2.993 1.049,-3.082 0.934,-3.143 0.821,-3.207 0.671,-3.244 0.489,-3.244 c -0.225,0 -0.393,0.037 -0.508,0.109 -0.115,0.068 -0.205,0.159 -0.271,0.273 -0.066,0.11 -0.111,0.229 -0.134,0.354 -0.03,0.18 -0.044,0.45 -0.044,0.809 V 0 Z"
         fill="#ffffff"
         fill-rule="evenodd"
         id="path1823" />
      <path
         transform="matrix(1,0,0,-1,120.543,416.6726)"
         d="m 0,0 -0.562,-3.186 h -0.499 l -0.464,2.38 -0.463,-2.38 H -2.496 L -3.053,0 h 0.481 L -2.22,-2.187 -1.795,0 h 0.558 L -0.831,-2.225 -0.472,0 Z"
         fill="#ffffff"
         fill-rule="evenodd"
         id="path1824" />
      <path
         transform="matrix(1,0,0,-1,121.8361,418.59663)"
         d="M 0,0 -0.319,1.18 -0.632,0 Z m -1.468,-1.262 0.905,3.186 h 0.499 l 0.93,-3.186 H 0.354 L 0.153,-0.538 H -0.78 l -0.188,-0.724 z"
         fill="#ffffff"
         fill-rule="evenodd"
         id="path1825" />
      <path
         transform="matrix(1,0,0,-1,0,595.276)"
         d="m 123.407,175.417 h -0.47 v 3.18601 h 0.47 z"
         fill="#ffffff"
         fill-rule="evenodd"
         id="path1826" />
      <path
         transform="matrix(1,0,0,-1,125.5398,417.2096)"
         d="m 0,0 h -0.691 v -2.649 h -0.47 V 0 H -1.852 V 0.537 H 0 Z"
         fill="#ffffff"
         fill-rule="evenodd"
         id="path1827" />
      <path
         transform="matrix(1,0,0,-1,126.7485,419.859)"
         d="M 0,0 V 3.186 H 1.594 V 2.649 H 0.47 V 1.892 H 1.441 V 1.353 H 0.47 V 0 Z"
         fill="#ffffff"
         fill-rule="evenodd"
         id="path1828" />
      <path
         transform="matrix(1,0,0,-1,0,595.276)"
         d="m 128.812,175.417 h -0.44701 v 0.612 h 0.44701 z"
         fill="#ffffff"
         fill-rule="evenodd"
         id="path1829" />
      <path
         transform="matrix(1,0,0,-1,130.5075,418.5971)"
         d="M 0,0 -0.32,1.181 -0.636,0 Z m -0.066,1.924 0.93,-3.186 H 0.354 L 0.15,-0.538 h -0.93 l -0.19,-0.724 h -0.501 l 0.906,3.186 z"
         fill="#ffffff"
         fill-rule="evenodd"
         id="path1830" />
    </g>
  </g>
</svg>
