<?xml version="1.0" encoding="UTF-8" standalone="no"?>
<!-- Created with Inkscape (http://www.inkscape.org/) -->

<svg
   width="83.58223mm"
   height="83.583954mm"
   viewBox="0 0 83.582231 83.583955"
   version="1.1"
   id="svg1"
   xmlns="http://www.w3.org/2000/svg"
   xmlns:svg="http://www.w3.org/2000/svg">
  <defs
     id="defs1">
    <clipPath
       id="clip_202">
      <path
         transform="matrix(1,0,0,-1,0,595.276)"
         d="m 587.757,144.153 h 48.886 v 48.88701 h -48.886 z"
         id="path198" />
    </clipPath>
  </defs>
  <g
     id="layer1"
     transform="translate(-46.167744,-95.114956)">
    <g
       clip-path="url(#clip_202)"
       id="g2434"
       transform="matrix(1.7097375,0,0,1.7097375,-958.74244,-592.603)">
      <path
         transform="matrix(1,0,0,-1,620.3362,466.04389)"
         d="M 0,0 V 9.764 H 3.406 V -0.253 c 0,-1.194 0.336,-2.123 1.009,-2.787 0.673,-0.665 1.556,-0.997 2.649,-0.997 1.111,0 1.997,0.332 2.663,0.997 0.664,0.664 0.996,1.593 0.996,2.787 V 9.764 h 3.406 V 0 c 0,-2.17 -0.665,-3.911 -1.993,-5.223 -1.33,-1.312 -3.019,-1.968 -5.072,-1.968 -2.069,0 -3.763,0.656 -5.084,1.968 C 0.66,-3.911 0,-2.17 0,0"
         fill="#ed1c2f"
         id="path2426" />
      <path
         transform="matrix(1,0,0,-1,635.2036,419.9161)"
         d="m 0,0 c 0,0 0.274,-0.101 0.504,-0.086 0,0 0.044,0.345 -0.101,0.504 -0.144,0.159 -2.118,2.219 -2.118,2.219 0,0 -0.447,0.245 -0.418,1.946 0.029,1.7 -0.598,2.536 -0.598,2.536 0,0 -5.719,10.079 -20.185,10.549 -14.466,0.47 -21.816,-12.884 -21.816,-12.884 0,0 -7.09,-13.488 1.643,-25.766 0,0 6.14,-9.166 18.677,-9.944 0,0 -20.925,4.929 -16.861,18.504 0,0 -4.583,0.259 -4.064,7.609 0.519,7.349 5.534,14.18 6.658,14.612 0,0 -2.075,-3.804 -0.346,-5.706 0,0 5.448,12.71 18.331,11.327 0,0 8.012,-0.346 15.448,-7.494 0,0 2.162,-1.384 2.162,-4.698 0,0 -0.461,-0.634 3.084,-3.228"
         fill="#ed1c2f"
         id="path2427" />
      <path
         transform="matrix(1,0,0,-1,635.6178,426.1416)"
         d="m 0,0 c 0,0 0.432,-2.219 -0.663,-2.94 0,0 -0.692,1.758 0.663,2.94 m 0.375,4.064 c 0,0 -2.652,-8.531 -4.785,-9.281 0,0 1.845,-6.447 0.865,-8.872 0,0 6.629,6.797 3.92,18.153"
         fill="#ed1c2f"
         id="path2428" />
      <path
         transform="matrix(1,0,0,-1,616.4487,449.2478)"
         d="m 0,0 c -6.081,0 -11.113,4.454 -11.974,10.256 0.154,-0.93 0.427,-1.916 0.859,-2.95 l 1.08,0.368 2.259,5.399 -1.425,5.308 -0.883,0.295 c 0.58,0.865 1.27,1.651 2.05,2.339 l 0.691,-0.906 5.836,-0.432 4.583,3.032 v 0.947 c 1.109,-0.289 2.156,-0.731 3.117,-1.3 l -0.596,-0.855 1.375,-5.689 4.29,-3.434 0.827,0.266 C 12.1,12.439 12.105,12.232 12.105,12.024 12.105,5.384 6.685,0 0,0 m -10.167,16.379 0.359,-0.211 0.651,-2.998 -1.346,-3.03 -0.46,0.032 c 0,0 -1.68,3.068 0.796,6.207 m 2.57,5.004 c -0.059,-0.047 -0.118,-0.095 -0.176,-0.143 0.058,0.048 0.117,0.096 0.176,0.143 m 8.468,1.608 -0.086,-0.408 -2.638,-1.566 -3.3,0.317 -0.115,0.446 c 0,0 2.378,2.566 6.139,1.211 m 6.953,-2.954 c 0,0 3.17,-1.478 3.031,-5.474 L 10.441,14.521 8.142,16.552 7.434,19.791 Z M 0,24.864 c -7.139,0 -12.926,-5.748 -12.926,-12.84 0,-7.091 5.787,-12.84 12.926,-12.84 7.139,0 12.927,5.749 12.927,12.84 0,7.092 -5.788,12.84 -12.927,12.84"
         fill="#ed1c2f"
         id="path2429" />
      <path
         transform="matrix(1,0,0,-1,614.6842,448.1421)"
         d="M 0,0 C 0,0 -3.448,-0.59 -5.61,2.772 L -5.293,3.043 -2.247,2.683 0.18,0.425 Z M -7.189,4.337 -7.765,3.584 c 0,0 3.21,-5.123 10.426,-4.66 l 0.003,1.141 -4.37,3.893 z"
         fill="#ed1c2f"
         id="path2430" />
      <path
         transform="matrix(1,0,0,-1,622.1785,446.7999)"
         d="M 0,0 -0.167,0.382 1.068,3.19 3.938,4.85 4.291,4.554 C 4.291,4.554 3.848,1.085 0,0 m 5.008,7.121 -5,-3.042 -1.966,-5.131 0.551,-0.771 c 0,0 5.838,1.571 7.505,8.607 z"
         fill="#ed1c2f"
         id="path2431" />
      <path
         transform="matrix(1,0,0,-1,619.5244,422.5677)"
         d="m 0,0 c -8.733,3.199 -14.439,-0.346 -14.439,-0.346 0,0 -4.67,-3.026 -8.388,-2.94 -3.718,0.087 -4.064,4.237 -4.064,4.237 -0.945,-7.854 7.004,-6.485 7.004,-6.485 -5.447,-10.895 3.286,-14.785 3.286,-14.785 0,0 -4.669,5.36 0.599,13.921 C -10.734,2.162 0,0 0,0"
         fill="#ed1c2f"
         id="path2432" />
      <path
         transform="matrix(1,0,0,-1,627.2488,416.6593)"
         d="M 0,0 C 0,0 3.055,0.259 0.865,2.882 -1.326,5.505 -6.082,6.888 -6.082,6.888 -4.41,-0.893 0,0 0,0"
         fill="#ed1c2f"
         id="path2433" />
      <path
         transform="matrix(1,0,0,-1,620.4792,436.01679)"
         d="M 0,0 -0.202,-2.151 C -0.296,-3.154 -1.016,-3.987 -1.994,-4.227 L -3.843,-4.68 c -0.999,-0.245 -2.042,0.184 -2.58,1.06 l -1.183,1.929 c -0.546,0.89 -0.444,2.031 0.25,2.811 l 1.296,1.455 c 0.664,0.746 1.725,0.995 2.651,0.622 L -1.471,2.416 C -0.501,2.025 0.098,1.042 0,0 m -0.115,4.009 -3.034,1.222 c -1.45,0.584 -3.11,0.195 -4.15,-0.972 L -9.328,1.98 c -1.086,-1.22 -1.245,-3.007 -0.39,-4.4 l 1.852,-3.019 c 0.842,-1.372 2.475,-2.044 4.039,-1.66 l 2.893,0.709 c 1.532,0.376 2.658,1.68 2.806,3.251 l 0.316,3.366 c 0.153,1.631 -0.783,3.17 -2.303,3.782"
         fill="#ffcb1f"
         id="path2434" />
    </g>
  </g>
</svg>
