<svg xmlns:inkscape="http://www.inkscape.org/namespaces/inkscape" xmlns:sodipodi="http://sodipodi.sourceforge.net/DTD/sodipodi-0.dtd" xmlns="http://www.w3.org/2000/svg" xmlns:svg="http://www.w3.org/2000/svg" width="370.6299340888491" height="269.810910567271" viewBox="0 0 102.02472 74.246628" version="1.1" id="svg1" inkscape:version="1.4.2 (f4327f4, 2025-05-13)" sodipodi:docname="Lesotho Football Association logo.svg">
  <sodipodi:namedview id="namedview1" pagecolor="#ffffff" bordercolor="#000000" borderopacity="0.25" inkscape:showpageshadow="2" inkscape:pageopacity="0.0" inkscape:pagecheckerboard="0" inkscape:deskcolor="#d1d1d1" inkscape:document-units="mm" inkscape:zoom="0.72604517" inkscape:cx="205.91005" inkscape:cy="233.45655" inkscape:window-width="1920" inkscape:window-height="1017" inkscape:window-x="-8" inkscape:window-y="-8" inkscape:window-maximized="1" inkscape:current-layer="layer1"/>
  <defs id="defs1">
    <clipPath clipPathUnits="userSpaceOnUse" id="clipPath15752">
      <path d="m 973.379,696.309 h 42.219 v 30.723 h -42.219 z" transform="scale(1.3333333)" id="path15752"/>
    </clipPath>
    <clipPath clipPathUnits="userSpaceOnUse" id="clipPath15750">
      <path d="M 0,0 H 1191 V 842 H 0 Z" transform="scale(1,-1.0002471)" id="path15750"/>
    </clipPath>
    <clipPath clipPathUnits="userSpaceOnUse" id="clipPath15756">
      <path d="m 973.379,696.309 h 42.219 v 30.723 h -42.219 z" transform="scale(1.3333333)" id="path15756"/>
    </clipPath>
    <clipPath clipPathUnits="userSpaceOnUse" id="clipPath15754">
      <path d="M 0,0 H 1191 V 842 H 0 Z" transform="scale(1,-1.0002471)" id="path15754"/>
    </clipPath>
    <clipPath clipPathUnits="userSpaceOnUse" id="clipPath15759">
      <path d="m 973.379,696.309 h 42.219 v 30.723 h -42.219 z" transform="scale(1.3333333)" id="path15759"/>
    </clipPath>
    <clipPath clipPathUnits="userSpaceOnUse" id="clipPath15757">
      <path d="M 0,0 H 1191 V 842 H 0 Z" id="path15757"/>
    </clipPath>
    <clipPath clipPathUnits="userSpaceOnUse" id="clipPath15762">
      <path d="m 973.379,696.309 h 42.219 v 30.723 h -42.219 z" transform="scale(1.3333333)" id="path15762"/>
    </clipPath>
    <clipPath clipPathUnits="userSpaceOnUse" id="clipPath15760">
      <path d="M 0,0 H 1191 V 842 H 0 Z" id="path15760"/>
    </clipPath>
    <clipPath clipPathUnits="userSpaceOnUse" id="clipPath15765">
      <path d="m 973.379,696.309 h 42.219 v 30.723 h -42.219 z" transform="scale(1.3333333)" id="path15765"/>
    </clipPath>
    <clipPath clipPathUnits="userSpaceOnUse" id="clipPath15763">
      <path d="M 0,0 H 1191 V 842 H 0 Z" id="path15763"/>
    </clipPath>
    <clipPath clipPathUnits="userSpaceOnUse" id="clipPath15768">
      <path d="m 973.379,696.309 h 42.219 v 30.723 h -42.219 z" transform="scale(1.3333333)" id="path15768"/>
    </clipPath>
    <clipPath clipPathUnits="userSpaceOnUse" id="clipPath15766">
      <path d="M 0,0 H 1191 V 842 H 0 Z" transform="scale(1,-1.0002471)" id="path15766"/>
    </clipPath>
    <clipPath clipPathUnits="userSpaceOnUse" id="clipPath15771">
      <path d="m 973.379,696.309 h 42.219 v 30.723 h -42.219 z" transform="scale(1.3333333)" id="path15771"/>
    </clipPath>
    <clipPath clipPathUnits="userSpaceOnUse" id="clipPath15769">
      <path d="M 0,0 H 1191 V 842 H 0 Z" transform="scale(1,-1.0002471)" id="path15769"/>
    </clipPath>
    <clipPath clipPathUnits="userSpaceOnUse" id="clipPath15774">
      <path d="m 973.379,696.309 h 42.219 v 30.723 h -42.219 z" transform="scale(1.3333333)" id="path15774"/>
    </clipPath>
    <clipPath clipPathUnits="userSpaceOnUse" id="clipPath15772">
      <path d="M 0,0 H 1191 V 842 H 0 Z" id="path15772"/>
    </clipPath>
    <clipPath clipPathUnits="userSpaceOnUse" id="clipPath15777">
      <path d="m 973.379,696.309 h 42.219 v 30.723 h -42.219 z" transform="scale(1.3333333)" id="path15777"/>
    </clipPath>
    <clipPath clipPathUnits="userSpaceOnUse" id="clipPath15775">
      <path d="M 0,0 H 1191 V 842 H 0 Z" id="path15775"/>
    </clipPath>
    <clipPath clipPathUnits="userSpaceOnUse" id="clipPath15780">
      <path d="m 973.379,696.309 h 42.219 v 30.723 h -42.219 z" transform="scale(1.3333333)" id="path15780"/>
    </clipPath>
    <clipPath clipPathUnits="userSpaceOnUse" id="clipPath15778">
      <path d="M 0,0 H 1191 V 842 H 0 Z" id="path15778"/>
    </clipPath>
    <clipPath clipPathUnits="userSpaceOnUse" id="clipPath15783">
      <path d="m 973.379,696.309 h 42.219 v 30.723 h -42.219 z" transform="scale(1.3333333)" id="path15783"/>
    </clipPath>
    <clipPath clipPathUnits="userSpaceOnUse" id="clipPath15781">
      <path d="M 0,0 H 1191 V 842 H 0 Z" id="path15781"/>
    </clipPath>
    <clipPath clipPathUnits="userSpaceOnUse" id="clipPath15786">
      <path d="m 973.379,696.309 h 42.219 v 30.723 h -42.219 z" transform="scale(1.3333333)" id="path15786"/>
    </clipPath>
    <clipPath clipPathUnits="userSpaceOnUse" id="clipPath15784">
      <path d="M 0,0 H 1191 V 842 H 0 Z" id="path15784"/>
    </clipPath>
    <clipPath clipPathUnits="userSpaceOnUse" id="clipPath15789">
      <path d="m 973.379,696.309 h 42.219 v 30.723 h -42.219 z" transform="scale(1.3333333)" id="path15789"/>
    </clipPath>
    <clipPath clipPathUnits="userSpaceOnUse" id="clipPath15787">
      <path d="M 0,0 H 1191 V 842 H 0 Z" transform="scale(1,-1.0002471)" id="path15787"/>
    </clipPath>
    <clipPath clipPathUnits="userSpaceOnUse" id="clipPath15792">
      <path d="m 973.379,696.309 h 42.219 v 30.723 h -42.219 z" transform="scale(1.3333333)" id="path15792"/>
    </clipPath>
    <clipPath clipPathUnits="userSpaceOnUse" id="clipPath15790">
      <path d="M 0,0 H 1191 V 842 H 0 Z" transform="scale(1,-1.0002471)" id="path15790"/>
    </clipPath>
    <clipPath clipPathUnits="userSpaceOnUse" id="clipPath15795">
      <path d="m 973.379,696.309 h 42.219 v 30.723 h -42.219 z" transform="scale(1.3333333)" id="path15795"/>
    </clipPath>
    <clipPath clipPathUnits="userSpaceOnUse" id="clipPath15793">
      <path d="M 0,0 H 1191 V 842 H 0 Z" transform="scale(1,-1.0002471)" id="path15793"/>
    </clipPath>
    <clipPath clipPathUnits="userSpaceOnUse" id="clipPath15798">
      <path d="m 973.379,696.309 h 42.219 v 30.723 h -42.219 z" transform="scale(1.3333333)" id="path15798"/>
    </clipPath>
    <clipPath clipPathUnits="userSpaceOnUse" id="clipPath15796">
      <path d="M 0,0 H 1191 V 842 H 0 Z" transform="scale(1,-1.0002471)" id="path15796"/>
    </clipPath>
    <clipPath clipPathUnits="userSpaceOnUse" id="clipPath15801">
      <path d="m 973.379,696.309 h 42.219 v 30.723 h -42.219 z" transform="scale(1.3333333)" id="path15801"/>
    </clipPath>
    <clipPath clipPathUnits="userSpaceOnUse" id="clipPath15799">
      <path d="M 0,0 H 1191 V 842 H 0 Z" transform="scale(1,-1.0002471)" id="path15799"/>
    </clipPath>
    <clipPath clipPathUnits="userSpaceOnUse" id="clipPath15804">
      <path d="m 973.379,696.309 h 42.219 v 30.723 h -42.219 z" transform="scale(1.3333333)" id="path15804"/>
    </clipPath>
    <clipPath clipPathUnits="userSpaceOnUse" id="clipPath15802">
      <path d="M 0,0 H 1191 V 842 H 0 Z" transform="scale(1,-1.0002471)" id="path15802"/>
    </clipPath>
    <clipPath clipPathUnits="userSpaceOnUse" id="clipPath15807">
      <path d="m 973.379,696.309 h 42.219 v 30.723 h -42.219 z" transform="scale(1.3333333)" id="path15807"/>
    </clipPath>
    <clipPath clipPathUnits="userSpaceOnUse" id="clipPath15805">
      <path d="M 0,0 H 1191 V 842 H 0 Z" transform="scale(1,-1.0002471)" id="path15805"/>
    </clipPath>
    <clipPath clipPathUnits="userSpaceOnUse" id="clipPath15810">
      <path d="m 973.379,696.309 h 42.219 v 30.723 h -42.219 z" transform="scale(1.3333333)" id="path15810"/>
    </clipPath>
    <clipPath clipPathUnits="userSpaceOnUse" id="clipPath15808">
      <path d="M 0,0 H 1191 V 842 H 0 Z" transform="scale(1,-1.0002471)" id="path15808"/>
    </clipPath>
    <clipPath clipPathUnits="userSpaceOnUse" id="clipPath15813">
      <path d="m 973.379,696.309 h 42.219 v 30.723 h -42.219 z" transform="scale(1.3333333)" id="path15813"/>
    </clipPath>
    <clipPath clipPathUnits="userSpaceOnUse" id="clipPath15811">
      <path d="M 0,0 H 1191 V 842 H 0 Z" transform="scale(1,-1.0002471)" id="path15811"/>
    </clipPath>
    <clipPath clipPathUnits="userSpaceOnUse" id="clipPath15816">
      <path d="m 973.379,696.309 h 42.219 v 30.723 h -42.219 z" transform="scale(1.3333333)" id="path15816"/>
    </clipPath>
    <clipPath clipPathUnits="userSpaceOnUse" id="clipPath15814">
      <path d="M 0,0 H 1191 V 842 H 0 Z" transform="scale(1,-1.0002471)" id="path15814"/>
    </clipPath>
  </defs>
  <g inkscape:label="Layer 1" inkscape:groupmode="layer" id="layer1" transform="translate(-50.6274,-86.870348)">
    <g id="g1" transform="matrix(6.8505595,0,0,6.8505595,-958.95961,-1094.9082)">
      <path id="path15749" d="m 147.51897,178.54964 h 14.64981 v 1.64959 h -14.64981 z" style="fill:#13a538;fill-opacity:1;fill-rule:nonzero;stroke:none;stroke-width:0.352778"/>
      <g id="g15751" clip-path="url(#clipPath15752)" transform="matrix(0.26458333,0,0,0.26458333,-196.01354,-73.134007)">
        <path d="m 973.793,-713.61 h 41.527 v -4.677 h -41.527 z" style="fill:none;stroke:#000000;stroke-width:0.550208;stroke-linecap:round;stroke-linejoin:miter;stroke-miterlimit:3.864;stroke-dasharray:none;stroke-opacity:1" transform="scale(1.3333333,-1.333004)" clip-path="url(#clipPath15750)" id="path15751"/>
      </g>
      <path id="path15753" d="m 147.46923,175.49317 h 14.65121 v 1.64959 h -14.65121 z" style="fill:#0069b4;fill-opacity:1;fill-rule:nonzero;stroke:none;stroke-width:0.352778"/>
      <g id="g15755" clip-path="url(#clipPath15756)" transform="matrix(0.26458333,0,0,0.26458333,-196.01354,-73.134007)">
        <path d="m 973.652,-704.944 h 41.531 v -4.677 h -41.531 z" style="fill:none;stroke:#000000;stroke-width:0.550208;stroke-linecap:round;stroke-linejoin:miter;stroke-miterlimit:3.864;stroke-dasharray:none;stroke-opacity:1" transform="scale(1.3333333,-1.333004)" clip-path="url(#clipPath15754)" id="path15755"/>
      </g>
      <g id="g15758" clip-path="url(#clipPath15759)" transform="matrix(0.26458333,0,0,0.26458333,-196.01354,-73.134007)">
        <path d="m 1001.152,696.535 c 0.192,0.61 -0.257,2.379 0.996,1.703 0.387,0.192 0.036,0.578 0.161,1 0.871,-0.258 1.32,0.672 1.933,1.157 -0.387,1.222 1.606,0.675 1.223,1.929 0.933,0 1.285,0.836 1.992,1.321 l 2.641,5.144 c -0.129,1.031 -1.16,1.289 -1.93,1.645 -0.066,0.8 0.277,1.898 -0.934,2.152 0,0 -2.324,1.277 -1.191,3.703 l -1.512,1.254 c -1.515,1.223 -3.445,1.383 -5.246,1.93 -0.805,-0.098 -1.867,-0.293 -2.383,0.515 -1.187,-0.484 -1.511,1.637 -2.574,1.028 -0.223,0 -0.383,0.257 -0.609,0.386 0.707,0.192 0.578,1.028 0.707,1.61 -0.289,0.511 -1.738,0.48 -0.934,1.316 -0.418,0.774 -1.125,1.254 -1.156,2.219 -0.324,0.547 -1.481,0.324 -2.094,0.484 -0.547,-1.418 -1.672,-0.609 -2.605,-0.933 -0.578,-0.836 -1.641,-1.028 -1.641,-2.09 -0.324,-0.258 -0.867,-0.356 -0.773,-0.836 l 0.097,-0.098 c -1.093,0.16 -0.933,-1.738 -2.254,-1.156 -0.351,-0.387 -0.418,-0.902 -0.609,-1.387 0.16,-0.386 0.481,-0.707 0.676,-1.058 -0.805,0.222 -1.449,-0.293 -1.61,-1.094 l -0.324,-0.774 c 0,0 -1.426,-4.359 -2.605,-4.859 -0.223,-0.383 -0.223,-0.996 0,-1.48 1.129,-1.219 3.5,-0.727 4.207,-2.496 l 4.062,-4.997 c -0.093,-1.128 0.965,-1.804 1.449,-2.703 0.645,-0.226 1.899,0.289 1.93,-0.773 0.356,-0.192 0.742,-0.258 1.16,-0.223 l 0.321,0.481 c 0.355,-0.547 0.515,-1.157 0.773,-1.703 1.094,-0.29 2.156,-1.094 3.316,-0.774 1.028,-1.414 2.829,-0.387 3.922,-1.769 z" style="fill:#000000;fill-opacity:1;fill-rule:nonzero;stroke:none" transform="scale(1.3333333)" clip-path="url(#clipPath15757)" id="path15758"/>
      </g>
      <g id="g15761" clip-path="url(#clipPath15762)" transform="matrix(0.26458333,0,0,0.26458333,-196.01354,-73.134007)">
        <path d="m 1000.508,696.918 c 0.258,0.582 -0.067,1.449 0.48,1.836 h 0.676 c 0.066,0.418 -0.191,1.027 0.387,1.156 0.613,-0.32 1.062,0.227 1.48,0.547 0.387,0.289 -0.191,0.742 0.227,1 1.48,-0.164 0.676,1.863 2.09,1.543 0.742,0.355 1.531,1.496 1.531,1.496 0,0 1.926,4.266 2.133,4.606 l -1.797,0.847 -0.094,1.867 c -1.16,0.161 -1.933,1.059 -2.383,2.09 0.032,0.676 -0.773,1.61 0.063,2.09 -1.446,1.965 -3.762,2.188 -5.953,2.93 -0.801,0.062 -2.024,-0.578 -2.606,0.547 -1.383,-0.707 -1.445,1.672 -2.637,0.898 -0.355,0.387 -1.222,0.547 -1.222,1.254 0.387,0.355 1.094,0.422 0.933,1.16 -0.453,0.449 -1.257,0.516 -1.418,1.156 0.774,0.711 -0.609,1.258 -0.675,1.997 v 0.32 c -1.641,0.871 -1.899,-1.543 -3.7,-0.707 -0.515,-0.547 -1.8,-0.867 -1.414,-1.93 -1.32,0.258 -0.226,-1.672 -1.547,-1.32 -0.511,-0.289 -0.707,-1.285 -1.609,-0.899 -0.32,-0.289 -0.387,-0.742 -0.226,-1.093 0.226,-0.356 0.711,-0.743 0.839,-1.223 -0.484,-1.031 -1.511,0.387 -1.836,-0.645 l -2.187,-5.308 c -0.289,-0.547 -1.481,-0.934 -0.902,-1.641 0.902,-0.609 2.191,-0.64 3.218,-1.156 l 2.094,-2.703 c 0.352,-0.227 0.996,-0.098 1.094,-0.676 -0.289,-1.738 2.441,-2.25 2.09,-4.019 0.418,-0.485 0.707,-0.903 1.16,-1.383 0.707,-0.067 1.769,0.222 1.93,-0.774 0.031,-0.16 0.191,-0.066 0.289,-0.097 0.16,0.226 0.257,0.449 0.546,0.484 1.321,-0.164 0.836,-2.125 2.254,-2.254 0.996,-0.934 2.477,0.516 3.153,-1.062 1.062,-0.192 2.414,0.195 3.023,-0.934 z" style="fill:#ffffff;fill-opacity:1;fill-rule:nonzero;stroke:none" transform="scale(1.3333333)" clip-path="url(#clipPath15760)" id="path15761"/>
      </g>
      <g id="g15764" clip-path="url(#clipPath15765)" transform="matrix(0.26458333,0,0,0.26458333,-196.01354,-73.134007)">
        <path d="m 993.945,706.859 c 1.352,0.129 2.477,0.676 3.731,1.032 0.226,0.289 0.226,0.609 0,0.898 -1.156,0.195 -2.09,-0.641 -3.25,-0.672 l -0.781,-1.055 c 0.203,0.762 1.359,2.18 1.554,2.887 0.676,1.063 1.125,2.414 1.61,3.637 l 2.539,2.699 c 0.097,0.387 -0.063,0.805 -0.45,0.871 -1.445,-0.742 -2.476,-1.965 -3.539,-3.09 -0.675,-0.609 -0.773,-2.605 -2.027,-1.8 l -0.449,0.062 2.219,2.125 c 0.097,0.352 -0.192,0.609 -0.45,0.77 -1.32,-0.512 -2.511,-1.899 -3.636,-2.86 -0.098,-1.351 1.511,-1.191 2.316,-1.64 -0.32,-0.645 -1.031,-1 -1.062,-1.676 0.257,-0.578 1.546,-0.867 0.839,-1.703 -0.293,1.32 -1.675,1.992 -2.64,2.926 -0.903,-0.547 -2.157,-0.418 -2.832,-1.317 -0.063,-0.324 0.16,-0.742 0.515,-0.676 1.125,0 1.953,1.438 3.25,-0.324 l -0.062,-0.387 c -0.035,-0.511 0.414,-1.058 0.93,-1.156 0.71,-0.32 1.222,0.902 1.675,0.449" style="fill:#000000;fill-opacity:1;fill-rule:nonzero;stroke:none" transform="scale(1.3333333)" clip-path="url(#clipPath15763)" id="path15764"/>
      </g>
      <g id="g15767" clip-path="url(#clipPath15768)" transform="matrix(0.26458333,0,0,0.26458333,-196.01354,-73.134007)">
        <path d="m 994.715,-710.058 c -0.32,0.031 -0.707,-0.289 -0.996,-0.614 0.066,0.16 0.418,0.868 0.996,0.614" style="fill:#ffffff;fill-opacity:1;fill-rule:nonzero;stroke:#ffffff;stroke-width:0.0800302;stroke-linecap:butt;stroke-linejoin:miter;stroke-miterlimit:3.864;stroke-dasharray:none;stroke-opacity:1" transform="scale(1.3333333,-1.333004)" clip-path="url(#clipPath15766)" id="path15767"/>
      </g>
      <g id="g15770" clip-path="url(#clipPath15771)" transform="matrix(0.26458333,0,0,0.26458333,-196.01354,-73.134007)">
        <path d="m 993.719,-711.539 -0.387,0.547 0.324,-0.227 z" style="fill:#ffffff;fill-opacity:1;fill-rule:nonzero;stroke:#ffffff;stroke-width:0.0800302;stroke-linecap:butt;stroke-linejoin:miter;stroke-miterlimit:3.864;stroke-dasharray:none;stroke-opacity:1" transform="scale(1.3333333,-1.333004)" clip-path="url(#clipPath15769)" id="path15770"/>
      </g>
      <g id="g15773" clip-path="url(#clipPath15774)" transform="matrix(0.26458333,0,0,0.26458333,-196.01354,-73.134007)">
        <path d="m 983.676,714.328 0.558,-0.012 -0.007,0.766 h -1.547 l -0.016,-3.781 1.016,-0.016 z" style="fill:#000000;fill-opacity:1;fill-rule:nonzero;stroke:none" transform="scale(1.3333333)" clip-path="url(#clipPath15772)" id="path15773"/>
      </g>
      <g id="g15776" clip-path="url(#clipPath15777)" transform="matrix(0.26458333,0,0,0.26458333,-196.01354,-73.134007)">
        <path d="m 1000.668,711.43 v 0.941 c 0,0 -0.184,0.024 -0.387,-0.008 -0.16,0.512 0.614,0.383 0.614,0.383 v 0.774 h -0.563 l -0.02,1.621 c 0,0 -1.082,0 -1.027,-0.012 0,0 -0.027,-0.832 0.008,-1.844 0.023,-0.726 -0.016,-1.668 0.465,-1.887 0.094,0.129 -0.125,-0.156 0.91,0.032" style="fill:#000000;fill-opacity:1;fill-rule:nonzero;stroke:none" transform="scale(1.3333333)" clip-path="url(#clipPath15775)" id="path15776"/>
      </g>
      <g id="g15779" clip-path="url(#clipPath15780)" transform="matrix(0.26458333,0,0,0.26458333,-196.01354,-73.134007)">
        <path d="m 988.633,713.133 c 0.035,0.258 0.164,0.449 0.074,0.867 h -1.785 c 0.324,0.293 1.164,0.293 1.164,0.293 -0.063,0.254 -0.223,0.769 -0.223,0.769 -0.773,0 -1.578,-0.16 -1.867,-0.929 -0.066,-0.582 -0.027,-0.988 0.359,-1.403 0.489,-0.519 1.86,-0.656 2.278,0.403" style="fill:#000000;fill-opacity:1;fill-rule:nonzero;stroke:none" transform="scale(1.3333333)" clip-path="url(#clipPath15778)" id="path15779"/>
      </g>
      <g id="g15782" clip-path="url(#clipPath15783)" transform="matrix(0.26458333,0,0,0.26458333,-196.01354,-73.134007)">
        <path d="m 1004.305,713.199 v 1.989 c 0,0 -1.071,0.078 -1.77,0.035 -0.351,-0.094 -0.515,-0.418 -0.613,-0.707 0.062,-0.52 0.371,-0.985 1.703,-0.875 0.121,0.011 0.027,-0.141 0.027,-0.141 -0.152,-0.078 -1.05,0.047 -1.05,0.047 v -0.801 c 0.582,-0.094 1.515,-0.289 1.707,0.453" style="fill:#000000;fill-opacity:1;fill-rule:nonzero;stroke:none" transform="scale(1.3333333)" clip-path="url(#clipPath15781)" id="path15782"/>
      </g>
      <g id="g15785" clip-path="url(#clipPath15786)" transform="matrix(0.26458333,0,0,0.26458333,-196.01354,-73.134007)">
        <path d="m 1002.953,714.496 c -0.109,-0.461 0.547,-0.238 0.547,-0.238 l -0.016,0.238 z" style="fill:#ffffff;fill-opacity:1;fill-rule:nonzero;stroke:none" transform="scale(1.3333333)" clip-path="url(#clipPath15784)" id="path15785"/>
      </g>
      <g id="g15788" clip-path="url(#clipPath15789)" transform="matrix(0.26458333,0,0,0.26458333,-196.01354,-73.134007)">
        <path d="m 989.746,-706.069 c 0,0.555 0.449,1.004 1.004,1.004 0.555,0 1.004,-0.449 1.004,-1.004 0,-0.555 -0.449,-1.008 -1.004,-1.008 -0.555,0 -1.004,0.453 -1.004,1.008" style="fill:#000000;fill-opacity:1;fill-rule:nonzero;stroke:#000000;stroke-width:0.0800302;stroke-linecap:butt;stroke-linejoin:miter;stroke-miterlimit:3.864;stroke-dasharray:none;stroke-opacity:1" transform="scale(1.3333333,-1.333004)" clip-path="url(#clipPath15787)" id="path15788"/>
      </g>
      <g id="g15791" clip-path="url(#clipPath15792)" transform="matrix(0.26458333,0,0,0.26458333,-196.01354,-73.134007)">
        <path d="m 986.855,-713.692 c 0,0.133 0.278,0.418 0.567,0.418 0.289,0 0.531,-0.285 0.531,-0.418 z" style="fill:#ffffff;fill-opacity:1;fill-rule:nonzero;stroke:#ffffff;stroke-width:0.0340129;stroke-linecap:butt;stroke-linejoin:miter;stroke-miterlimit:3.864;stroke-dasharray:none;stroke-opacity:1" transform="scale(1.3333333,-1.333004)" clip-path="url(#clipPath15790)" id="path15791"/>
      </g>
      <g id="g15794" clip-path="url(#clipPath15795)" transform="matrix(0.26458333,0,0,0.26458333,-196.01354,-73.134007)">
        <path d="m 991.285,-716.126 c 0,0.613 0.496,1.113 1.113,1.113 0.614,0 1.11,-0.5 1.11,-1.113 0,-0.614 -0.496,-1.11 -1.11,-1.11 -0.617,0 -1.113,0.496 -1.113,1.11" style="fill:#000000;fill-opacity:1;fill-rule:nonzero;stroke:#000000;stroke-width:0.112042;stroke-linecap:butt;stroke-linejoin:miter;stroke-miterlimit:9.567;stroke-dasharray:none;stroke-opacity:1" transform="scale(1.3333333,-1.333004)" clip-path="url(#clipPath15793)" id="path15794"/>
      </g>
      <g id="g15797" clip-path="url(#clipPath15798)" transform="matrix(0.26458333,0,0,0.26458333,-196.01354,-73.134007)">
        <path d="m 992.422,-715.56 0.523,-0.359 -0.218,-0.625 -0.633,-0.004 -0.199,0.641 z" style="fill:none;stroke:#000000;stroke-width:0.074028;stroke-linecap:butt;stroke-linejoin:miter;stroke-miterlimit:9.567;stroke-dasharray:none;stroke-opacity:1" transform="scale(1.3333333,-1.333004)" clip-path="url(#clipPath15796)" id="path15797"/>
      </g>
      <g id="g15800" clip-path="url(#clipPath15801)" transform="matrix(0.26458333,0,0,0.26458333,-196.01354,-73.134007)">
        <path d="m 992.426,-715.263 0.433,0.16 c 0.149,-0.078 0.371,-0.3 0.371,-0.3 v -0.411 l -0.285,-0.101 -0.523,0.351 z" style="fill:#ffffff;fill-opacity:1;fill-rule:nonzero;stroke:#000000;stroke-width:0.074028;stroke-linecap:butt;stroke-linejoin:miter;stroke-miterlimit:9.567;stroke-dasharray:none;stroke-opacity:1" transform="scale(1.3333333,-1.333004)" clip-path="url(#clipPath15799)" id="path15800"/>
      </g>
      <g id="g15803" clip-path="url(#clipPath15804)" transform="matrix(0.26458333,0,0,0.26458333,-196.01354,-73.134007)">
        <path d="m 992.426,-715.263 -0.457,0.157 c -0.18,-0.055 -0.332,-0.223 -0.383,-0.243 0,-0.078 0.019,-0.449 0.019,-0.449 l 0.29,-0.109 0.527,0.343 z" style="fill:#ffffff;fill-opacity:1;fill-rule:nonzero;stroke:#000000;stroke-width:0.074028;stroke-linecap:butt;stroke-linejoin:miter;stroke-miterlimit:9.567;stroke-dasharray:none;stroke-opacity:1" transform="scale(1.3333333,-1.333004)" clip-path="url(#clipPath15802)" id="path15803"/>
      </g>
      <g id="g15806" clip-path="url(#clipPath15807)" transform="matrix(0.26458333,0,0,0.26458333,-196.01354,-73.134007)">
        <path d="m 991.605,-715.798 -0.316,-0.367 c 0,-0.336 0.125,-0.45 0.125,-0.45 l 0.516,-0.183 0.164,0.25 -0.203,0.641 z" style="fill:#ffffff;fill-opacity:1;fill-rule:nonzero;stroke:#000000;stroke-width:0.074028;stroke-linecap:butt;stroke-linejoin:miter;stroke-miterlimit:9.567;stroke-dasharray:none;stroke-opacity:1" transform="scale(1.3333333,-1.333004)" clip-path="url(#clipPath15805)" id="path15806"/>
      </g>
      <g id="g15809" clip-path="url(#clipPath15810)" transform="matrix(0.26458333,0,0,0.26458333,-196.01354,-73.134007)">
        <path d="m 993.23,-715.814 0.278,-0.312 c 0,0 -0.055,-0.391 -0.117,-0.493 0.039,0.004 -0.485,-0.171 -0.485,-0.171 l -0.179,0.246 0.218,0.625 z" style="fill:#ffffff;fill-opacity:1;fill-rule:nonzero;stroke:#000000;stroke-width:0.074028;stroke-linecap:butt;stroke-linejoin:miter;stroke-miterlimit:9.567;stroke-dasharray:none;stroke-opacity:1" transform="scale(1.3333333,-1.333004)" clip-path="url(#clipPath15808)" id="path15809"/>
      </g>
      <g id="g15812" clip-path="url(#clipPath15813)" transform="matrix(0.26458333,0,0,0.26458333,-196.01354,-73.134007)">
        <path d="m 991.93,-716.798 0.273,-0.411 c 0.133,-0.043 0.43,-0.011 0.43,-0.011 l 0.273,0.43 -0.179,0.246 -0.633,-0.004 z" style="fill:#ffffff;fill-opacity:1;fill-rule:nonzero;stroke:#000000;stroke-width:0.074028;stroke-linecap:butt;stroke-linejoin:miter;stroke-miterlimit:9.567;stroke-dasharray:none;stroke-opacity:1" transform="scale(1.3333333,-1.333004)" clip-path="url(#clipPath15811)" id="path15812"/>
      </g>
      <g id="g15815" clip-path="url(#clipPath15816)" transform="matrix(0.26458333,0,0,0.26458333,-196.01354,-73.134007)">
        <path d="m 991.285,-716.126 c 0,0.613 0.496,1.113 1.113,1.113 0.614,0 1.11,-0.5 1.11,-1.113 0,-0.614 -0.496,-1.11 -1.11,-1.11 -0.617,0 -1.113,0.496 -1.113,1.11 z" style="fill:none;stroke:#000000;stroke-width:0.112042;stroke-linecap:butt;stroke-linejoin:miter;stroke-miterlimit:9.567;stroke-dasharray:none;stroke-opacity:1" transform="scale(1.3333333,-1.333004)" clip-path="url(#clipPath15814)" id="path15815"/>
      </g>
    </g>
  </g>
</svg>