<?xml version="1.0" encoding="UTF-8" standalone="no"?>
<!-- Created with Inkscape (http://www.inkscape.org/) -->

<svg
   width="71.114838mm"
   height="82.846245mm"
   viewBox="0 0 71.114838 82.846245"
   version="1.1"
   id="svg1"
   inkscape:version="1.4.2 (f4327f4, 2025-05-13)"
   sodipodi:docname="Liberia Football Association logo.svg"
   xmlns:inkscape="http://www.inkscape.org/namespaces/inkscape"
   xmlns:sodipodi="http://sodipodi.sourceforge.net/DTD/sodipodi-0.dtd"
   xmlns="http://www.w3.org/2000/svg"
   xmlns:svg="http://www.w3.org/2000/svg">
  <sodipodi:namedview
     id="namedview1"
     pagecolor="#ffffff"
     bordercolor="#000000"
     borderopacity="0.25"
     inkscape:showpageshadow="2"
     inkscape:pageopacity="0.0"
     inkscape:pagecheckerboard="0"
     inkscape:deskcolor="#d1d1d1"
     inkscape:document-units="mm"
     inkscape:zoom="0.72604517"
     inkscape:cx="80.573499"
     inkscape:cy="121.89324"
     inkscape:window-width="1920"
     inkscape:window-height="1017"
     inkscape:window-x="-8"
     inkscape:window-y="-8"
     inkscape:window-maximized="1"
     inkscape:current-layer="layer1" />
  <defs
     id="defs1">
    <clipPath
       clipPathUnits="userSpaceOnUse"
       id="clipPath16011">
      <path
         d="m 784.363,693.934 h 31.312 v 35.473 h -31.312 z"
         transform="scale(1.3333333)"
         id="path16011" />
    </clipPath>
    <clipPath
       clipPathUnits="userSpaceOnUse"
       id="clipPath16009">
      <path
         d="M 0,0 H 1191 V 842 H 0 Z"
         id="path16009" />
    </clipPath>
    <clipPath
       clipPathUnits="userSpaceOnUse"
       id="clipPath16014">
      <path
         d="m 784.363,693.934 h 31.312 v 35.473 h -31.312 z"
         transform="scale(1.3333333)"
         id="path16014" />
    </clipPath>
    <clipPath
       clipPathUnits="userSpaceOnUse"
       id="clipPath16012">
      <path
         d="M 0,0 H 1191 V 842 H 0 Z"
         id="path16012" />
    </clipPath>
    <clipPath
       clipPathUnits="userSpaceOnUse"
       id="clipPath16017">
      <path
         d="m 784.363,693.934 h 31.312 v 35.473 h -31.312 z"
         transform="scale(1.3333333)"
         id="path16017" />
    </clipPath>
    <clipPath
       clipPathUnits="userSpaceOnUse"
       id="clipPath16015">
      <path
         d="M 0,0 H 1191 V 842 H 0 Z"
         id="path16015" />
    </clipPath>
    <clipPath
       clipPathUnits="userSpaceOnUse"
       id="clipPath16020">
      <path
         d="m 784.359,693.934 h 31.316 v 35.473 h -31.316 z"
         transform="scale(1.3333333)"
         id="path16020" />
    </clipPath>
    <clipPath
       clipPathUnits="userSpaceOnUse"
       id="clipPath16018">
      <path
         d="M 0,0 H 1191 V 842 H 0 Z"
         id="path16018" />
    </clipPath>
    <clipPath
       clipPathUnits="userSpaceOnUse"
       id="clipPath16023">
      <path
         d="m 784.359,693.934 h 31.316 v 35.473 h -31.316 z"
         transform="scale(1.3333333)"
         id="path16023" />
    </clipPath>
    <clipPath
       clipPathUnits="userSpaceOnUse"
       id="clipPath16021">
      <path
         d="M 0,0 H 1191 V 842 H 0 Z"
         id="path16021" />
    </clipPath>
    <clipPath
       clipPathUnits="userSpaceOnUse"
       id="clipPath16026">
      <path
         d="m 784.359,693.934 h 31.316 v 35.473 h -31.316 z"
         transform="scale(1.3333333)"
         id="path16026" />
    </clipPath>
    <clipPath
       clipPathUnits="userSpaceOnUse"
       id="clipPath16024">
      <path
         d="M 0,0 H 1191 V 842 H 0 Z"
         id="path16024" />
    </clipPath>
    <clipPath
       clipPathUnits="userSpaceOnUse"
       id="clipPath16029">
      <path
         d="m 784.363,693.934 h 31.312 v 35.473 h -31.312 z"
         transform="scale(1.3333333)"
         id="path16029" />
    </clipPath>
    <clipPath
       clipPathUnits="userSpaceOnUse"
       id="clipPath16027">
      <path
         d="M 0,0 H 1191 V 842 H 0 Z"
         id="path16027" />
    </clipPath>
    <clipPath
       clipPathUnits="userSpaceOnUse"
       id="clipPath16032">
      <path
         d="m 784.363,693.934 h 31.312 v 35.473 h -31.312 z"
         transform="scale(1.3333333)"
         id="path16032" />
    </clipPath>
    <clipPath
       clipPathUnits="userSpaceOnUse"
       id="clipPath16030">
      <path
         d="M 0,0 H 1191 V 842 H 0 Z"
         id="path16030" />
    </clipPath>
    <clipPath
       clipPathUnits="userSpaceOnUse"
       id="clipPath16035">
      <path
         d="m 784.359,693.934 h 31.316 v 35.473 h -31.316 z"
         transform="scale(1.3333333)"
         id="path16035" />
    </clipPath>
    <clipPath
       clipPathUnits="userSpaceOnUse"
       id="clipPath16033">
      <path
         d="M 0,0 H 1191 V 842 H 0 Z"
         id="path16033" />
    </clipPath>
    <clipPath
       clipPathUnits="userSpaceOnUse"
       id="clipPath16038">
      <path
         d="m 784.359,693.934 h 31.316 v 35.473 h -31.316 z"
         transform="scale(1.3333333)"
         id="path16038" />
    </clipPath>
    <clipPath
       clipPathUnits="userSpaceOnUse"
       id="clipPath16036">
      <path
         d="M 0,0 H 1191 V 842 H 0 Z"
         id="path16036" />
    </clipPath>
    <clipPath
       clipPathUnits="userSpaceOnUse"
       id="clipPath16041">
      <path
         d="m 784.359,693.934 h 31.316 v 35.473 h -31.316 z"
         transform="scale(1.3333333)"
         id="path16041" />
    </clipPath>
    <clipPath
       clipPathUnits="userSpaceOnUse"
       id="clipPath16039">
      <path
         d="M 0,0 H 1191 V 842 H 0 Z"
         id="path16039" />
    </clipPath>
    <clipPath
       clipPathUnits="userSpaceOnUse"
       id="clipPath16044">
      <path
         d="m 784.359,693.934 h 31.316 v 35.473 h -31.316 z"
         transform="scale(1.3333333)"
         id="path16044" />
    </clipPath>
    <clipPath
       clipPathUnits="userSpaceOnUse"
       id="clipPath16042">
      <path
         d="M 0,0 H 1191 V 842 H 0 Z"
         id="path16042" />
    </clipPath>
    <clipPath
       clipPathUnits="userSpaceOnUse"
       id="clipPath16047">
      <path
         d="m 784.363,693.934 h 31.312 v 35.473 h -31.312 z"
         transform="scale(1.3333333)"
         id="path16047" />
    </clipPath>
    <clipPath
       clipPathUnits="userSpaceOnUse"
       id="clipPath16045">
      <path
         d="M 0,0 H 1191 V 842 H 0 Z"
         id="path16045" />
    </clipPath>
    <clipPath
       clipPathUnits="userSpaceOnUse"
       id="clipPath16050">
      <path
         d="m 784.359,693.934 h 31.316 v 35.473 h -31.316 z"
         transform="scale(1.3333333)"
         id="path16050" />
    </clipPath>
    <clipPath
       clipPathUnits="userSpaceOnUse"
       id="clipPath16048">
      <path
         d="M 0,0 H 1191 V 842 H 0 Z"
         id="path16048" />
    </clipPath>
    <clipPath
       clipPathUnits="userSpaceOnUse"
       id="clipPath16053">
      <path
         d="m 784.359,693.934 h 31.316 v 35.473 h -31.316 z"
         transform="scale(1.3333333)"
         id="path16053" />
    </clipPath>
    <clipPath
       clipPathUnits="userSpaceOnUse"
       id="clipPath16051">
      <path
         d="M 0,0 H 1191 V 842 H 0 Z"
         id="path16051" />
    </clipPath>
    <clipPath
       clipPathUnits="userSpaceOnUse"
       id="clipPath16056">
      <path
         d="m 784.359,693.934 h 31.316 v 35.473 h -31.316 z"
         transform="scale(1.3333333)"
         id="path16056" />
    </clipPath>
    <clipPath
       clipPathUnits="userSpaceOnUse"
       id="clipPath16054">
      <path
         d="M 0,0 H 1191 V 842 H 0 Z"
         id="path16054" />
    </clipPath>
    <clipPath
       clipPathUnits="userSpaceOnUse"
       id="clipPath16059">
      <path
         d="m 784.363,693.934 h 31.312 v 35.473 h -31.312 z"
         transform="scale(1.3333333)"
         id="path16059" />
    </clipPath>
    <clipPath
       clipPathUnits="userSpaceOnUse"
       id="clipPath16057">
      <path
         d="M 0,0 H 1191 V 842 H 0 Z"
         id="path16057" />
    </clipPath>
    <clipPath
       clipPathUnits="userSpaceOnUse"
       id="clipPath16062">
      <path
         d="m 784.359,693.934 h 31.316 v 35.473 h -31.316 z"
         transform="scale(1.3333333)"
         id="path16062" />
    </clipPath>
    <clipPath
       clipPathUnits="userSpaceOnUse"
       id="clipPath16060">
      <path
         d="M 0,0 H 1191 V 842 H 0 Z"
         id="path16060" />
    </clipPath>
    <clipPath
       clipPathUnits="userSpaceOnUse"
       id="clipPath16065">
      <path
         d="m 784.363,693.934 h 31.312 v 35.473 h -31.312 z"
         transform="scale(1.3333333)"
         id="path16065" />
    </clipPath>
    <clipPath
       clipPathUnits="userSpaceOnUse"
       id="clipPath16063">
      <path
         d="M 0,0 H 1191 V 842 H 0 Z"
         id="path16063" />
    </clipPath>
    <clipPath
       clipPathUnits="userSpaceOnUse"
       id="clipPath16068">
      <path
         d="m 784.359,693.934 h 31.316 v 35.473 h -31.316 z"
         transform="scale(1.3333333)"
         id="path16068" />
    </clipPath>
    <clipPath
       clipPathUnits="userSpaceOnUse"
       id="clipPath16066">
      <path
         d="M 0,0 H 1191 V 842 H 0 Z"
         id="path16066" />
    </clipPath>
    <clipPath
       clipPathUnits="userSpaceOnUse"
       id="clipPath16071">
      <path
         d="m 784.359,693.934 h 31.316 v 35.473 h -31.316 z"
         transform="scale(1.3333333)"
         id="path16071" />
    </clipPath>
    <clipPath
       clipPathUnits="userSpaceOnUse"
       id="clipPath16069">
      <path
         d="M 0,0 H 1191 V 842 H 0 Z"
         id="path16069" />
    </clipPath>
    <clipPath
       clipPathUnits="userSpaceOnUse"
       id="clipPath16074">
      <path
         d="m 784.359,693.934 h 31.316 v 35.473 h -31.316 z"
         transform="scale(1.3333333)"
         id="path16074" />
    </clipPath>
    <clipPath
       clipPathUnits="userSpaceOnUse"
       id="clipPath16072">
      <path
         d="M 0,0 H 1191 V 842 H 0 Z"
         id="path16072" />
    </clipPath>
    <clipPath
       clipPathUnits="userSpaceOnUse"
       id="clipPath16077">
      <path
         d="m 784.359,693.934 h 31.316 v 35.473 h -31.316 z"
         transform="scale(1.3333333)"
         id="path16077" />
    </clipPath>
    <clipPath
       clipPathUnits="userSpaceOnUse"
       id="clipPath16075">
      <path
         d="M 0,0 H 1191 V 842 H 0 Z"
         id="path16075" />
    </clipPath>
    <clipPath
       clipPathUnits="userSpaceOnUse"
       id="clipPath16080">
      <path
         d="m 784.363,693.934 h 31.312 v 35.473 h -31.312 z"
         transform="scale(1.3333333)"
         id="path16080" />
    </clipPath>
    <clipPath
       clipPathUnits="userSpaceOnUse"
       id="clipPath16078">
      <path
         d="M 0,0 H 1191 V 842 H 0 Z"
         id="path16078" />
    </clipPath>
    <clipPath
       clipPathUnits="userSpaceOnUse"
       id="clipPath16083">
      <path
         d="m 784.359,693.934 h 31.316 v 35.473 h -31.316 z"
         transform="scale(1.3333333)"
         id="path16083" />
    </clipPath>
    <clipPath
       clipPathUnits="userSpaceOnUse"
       id="clipPath16081">
      <path
         d="M 0,0 H 1191 V 842 H 0 Z"
         id="path16081" />
    </clipPath>
    <clipPath
       clipPathUnits="userSpaceOnUse"
       id="clipPath16086">
      <path
         d="m 784.359,693.934 h 31.316 v 35.473 h -31.316 z"
         transform="scale(1.3333333)"
         id="path16086" />
    </clipPath>
    <clipPath
       clipPathUnits="userSpaceOnUse"
       id="clipPath16084">
      <path
         d="M 0,0 H 1191 V 842 H 0 Z"
         id="path16084" />
    </clipPath>
    <clipPath
       clipPathUnits="userSpaceOnUse"
       id="clipPath16089">
      <path
         d="m 784.359,693.934 h 31.316 v 35.473 h -31.316 z"
         transform="scale(1.3333333)"
         id="path16089" />
    </clipPath>
    <clipPath
       clipPathUnits="userSpaceOnUse"
       id="clipPath16087">
      <path
         d="M 0,0 H 1191 V 842 H 0 Z"
         id="path16087" />
    </clipPath>
    <clipPath
       clipPathUnits="userSpaceOnUse"
       id="clipPath16092">
      <path
         d="m 784.359,693.934 h 31.316 v 35.473 h -31.316 z"
         transform="scale(1.3333333)"
         id="path16092" />
    </clipPath>
    <clipPath
       clipPathUnits="userSpaceOnUse"
       id="clipPath16090">
      <path
         d="M 0,0 H 1191 V 842 H 0 Z"
         id="path16090" />
    </clipPath>
  </defs>
  <g
     inkscape:label="Layer 1"
     inkscape:groupmode="layer"
     id="layer1"
     transform="translate(-83.872921,-116.15207)">
    <g
       id="g1"
       transform="matrix(6.6204264,0,0,6.6204264,-471.40164,-652.8242)">
      <g
         id="g16010"
         clip-path="url(#clipPath16011)"
         transform="matrix(0.26458333,0,0,0.26458333,-192.98459,-128.65241)">
        <path
           d="m 787.352,706.535 v 11.34 c 0.023,0.043 0.046,0.086 0.074,0.129 0.582,1.023 1.289,1.984 2.164,2.941 0.008,0.012 0.015,0.02 0.023,0.028 v -14.438 z"
           style="fill:#e41836;fill-opacity:1;fill-rule:nonzero;stroke:none"
           transform="scale(1.3333333)"
           clip-path="url(#clipPath16009)"
           id="path16010" />
      </g>
      <g
         id="g16013"
         clip-path="url(#clipPath16014)"
         transform="matrix(0.26458333,0,0,0.26458333,-192.98459,-128.65241)">
        <path
           d="m 791.965,706.535 v 16.668 c 0.086,0.074 0.176,0.149 0.265,0.223 0.676,0.562 1.348,1.09 1.997,1.582 v -18.473 z"
           style="fill:#e41836;fill-opacity:1;fill-rule:nonzero;stroke:none"
           transform="scale(1.3333333)"
           clip-path="url(#clipPath16012)"
           id="path16013" />
      </g>
      <g
         id="g16016"
         clip-path="url(#clipPath16017)"
         transform="matrix(0.26458333,0,0,0.26458333,-192.98459,-128.65241)">
        <path
           d="m 796.582,706.535 v 20.145 c 0.828,0.55 1.594,1.023 2.262,1.41 v -21.555 z"
           style="fill:#e41836;fill-opacity:1;fill-rule:nonzero;stroke:none"
           transform="scale(1.3333333)"
           clip-path="url(#clipPath16015)"
           id="path16016" />
      </g>
      <g
         id="g16019"
         clip-path="url(#clipPath16020)"
         transform="matrix(0.26458333,0,0,0.26458333,-192.98459,-128.65241)">
        <path
           d="m 801.195,706.535 v 21.555 c 0.668,-0.387 1.43,-0.86 2.262,-1.41 v -20.145 z"
           style="fill:#e41836;fill-opacity:1;fill-rule:nonzero;stroke:none"
           transform="scale(1.3333333)"
           clip-path="url(#clipPath16018)"
           id="path16019" />
      </g>
      <g
         id="g16022"
         clip-path="url(#clipPath16023)"
         transform="matrix(0.26458333,0,0,0.26458333,-192.98459,-128.65241)">
        <path
           d="m 805.809,706.535 v 18.473 c 0.652,-0.492 1.32,-1.02 2,-1.582 0.089,-0.074 0.175,-0.149 0.261,-0.223 v -16.668 z"
           style="fill:#e41836;fill-opacity:1;fill-rule:nonzero;stroke:none"
           transform="scale(1.3333333)"
           clip-path="url(#clipPath16021)"
           id="path16022" />
      </g>
      <g
         id="g16025"
         clip-path="url(#clipPath16026)"
         transform="matrix(0.26458333,0,0,0.26458333,-192.98459,-128.65241)">
        <path
           d="m 810.422,706.535 v 14.438 c 0.012,-0.008 0.019,-0.016 0.027,-0.028 0.875,-0.957 1.582,-1.918 2.164,-2.941 0.024,-0.043 0.047,-0.086 0.071,-0.129 v -11.34 z"
           style="fill:#e41836;fill-opacity:1;fill-rule:nonzero;stroke:none"
           transform="scale(1.3333333)"
           clip-path="url(#clipPath16024)"
           id="path16025" />
      </g>
      <g
         id="g16028"
         clip-path="url(#clipPath16029)"
         transform="matrix(0.26458333,0,0,0.26458333,-192.98459,-128.65241)">
        <path
           d="m 785.406,706.535 v 3.039 c 0,3.219 0.637,5.934 1.946,8.301 v -11.34 z"
           style="fill:#ffffff;fill-opacity:1;fill-rule:nonzero;stroke:none"
           transform="scale(1.3333333)"
           clip-path="url(#clipPath16027)"
           id="path16028" />
      </g>
      <g
         id="g16031"
         clip-path="url(#clipPath16032)"
         transform="matrix(0.26458333,0,0,0.26458333,-192.98459,-128.65241)">
        <path
           d="m 789.613,706.535 v 14.438 c 0.668,0.726 1.422,1.441 2.356,2.23 v -16.668 z"
           style="fill:#ffffff;fill-opacity:1;fill-rule:nonzero;stroke:none"
           transform="scale(1.3333333)"
           clip-path="url(#clipPath16030)"
           id="path16031" />
      </g>
      <g
         id="g16034"
         clip-path="url(#clipPath16035)"
         transform="matrix(0.26458333,0,0,0.26458333,-192.98459,-128.65241)">
        <path
           d="m 814.633,706.535 h -1.949 v 11.34 c 1.312,-2.367 1.949,-5.082 1.949,-8.301 z"
           style="fill:#ffffff;fill-opacity:1;fill-rule:nonzero;stroke:none"
           transform="scale(1.3333333)"
           clip-path="url(#clipPath16033)"
           id="path16034" />
      </g>
      <g
         id="g16037"
         clip-path="url(#clipPath16038)"
         transform="matrix(0.26458333,0,0,0.26458333,-192.98459,-128.65241)">
        <path
           d="m 803.457,706.535 v 20.145 c 0.738,-0.496 1.531,-1.055 2.352,-1.672 v -18.473 z"
           style="fill:#ffffff;fill-opacity:1;fill-rule:nonzero;stroke:none"
           transform="scale(1.3333333)"
           clip-path="url(#clipPath16036)"
           id="path16037" />
      </g>
      <g
         id="g16040"
         clip-path="url(#clipPath16041)"
         transform="matrix(0.26458333,0,0,0.26458333,-192.98459,-128.65241)">
        <path
           d="m 808.07,706.535 v 16.668 c 0.934,-0.789 1.688,-1.504 2.352,-2.23 v -14.438 z"
           style="fill:#ffffff;fill-opacity:1;fill-rule:nonzero;stroke:none"
           transform="scale(1.3333333)"
           clip-path="url(#clipPath16039)"
           id="path16040" />
      </g>
      <g
         id="g16043"
         clip-path="url(#clipPath16044)"
         transform="matrix(0.26458333,0,0,0.26458333,-192.98459,-128.65241)">
        <path
           d="m 798.844,706.535 v 21.555 c 0.433,0.25 0.828,0.461 1.176,0.637 0.343,-0.176 0.738,-0.387 1.175,-0.637 v -21.555 z"
           style="fill:#ffffff;fill-opacity:1;fill-rule:nonzero;stroke:none"
           transform="scale(1.3333333)"
           clip-path="url(#clipPath16042)"
           id="path16043" />
      </g>
      <g
         id="g16046"
         clip-path="url(#clipPath16047)"
         transform="matrix(0.26458333,0,0,0.26458333,-192.98459,-128.65241)">
        <path
           d="m 794.227,706.535 v 18.473 c 0.824,0.617 1.613,1.176 2.355,1.672 v -20.145 z"
           style="fill:#ffffff;fill-opacity:1;fill-rule:nonzero;stroke:none"
           transform="scale(1.3333333)"
           clip-path="url(#clipPath16045)"
           id="path16046" />
      </g>
      <g
         id="g16049"
         clip-path="url(#clipPath16050)"
         transform="matrix(0.26458333,0,0,0.26458333,-192.98459,-128.65241)">
        <path
           d="m 804.883,713.859 c 0,-2.632 -2.137,-4.765 -4.766,-4.765 -2.633,0 -4.765,2.133 -4.765,4.765 0,2.633 2.132,4.762 4.765,4.762 2.629,0 4.766,-2.129 4.766,-4.762"
           style="fill:#ffffff;fill-opacity:1;fill-rule:nonzero;stroke:none"
           transform="scale(1.3333333)"
           clip-path="url(#clipPath16048)"
           id="path16049" />
      </g>
      <g
         id="g16052"
         clip-path="url(#clipPath16053)"
         transform="matrix(0.26458333,0,0,0.26458333,-192.98459,-128.65241)">
        <path
           d="m 792.648,697.52 c 2.68,0 5.219,-0.797 7.372,-2.313 2.148,1.516 4.687,2.313 7.367,2.313 2.668,0 5.238,-0.821 7.246,-2.286 v 10.688 h -29.227 v -10.688 c 2.004,1.465 4.574,2.286 7.242,2.286"
           style="fill:#0069b4;fill-opacity:1;fill-rule:nonzero;stroke:none"
           transform="scale(1.3333333)"
           clip-path="url(#clipPath16051)"
           id="path16052" />
      </g>
      <g
         id="g16055"
         clip-path="url(#clipPath16056)"
         transform="matrix(0.26458333,0,0,0.26458333,-192.98459,-128.65241)">
        <path
           d="m 800.125,695.82 0.613,1.899 1.992,-0.004 -1.617,1.164 0.625,1.894 -1.613,-1.175 -1.609,1.175 0.625,-1.894 -1.618,-1.164 1.993,0.004 z"
           style="fill:#ffffff;fill-opacity:1;fill-rule:nonzero;stroke:none"
           transform="scale(1.3333333)"
           clip-path="url(#clipPath16054)"
           id="path16055" />
      </g>
      <g
         id="g16058"
         clip-path="url(#clipPath16059)"
         transform="matrix(0.26458333,0,0,0.26458333,-192.98459,-128.65241)">
        <path
           d="m 788.926,705.414 h -2.274 v -3.207 h 0.707 v 2.605 h 1.567 z"
           style="fill:#ffffff;fill-opacity:1;fill-rule:nonzero;stroke:none"
           transform="scale(1.3333333)"
           clip-path="url(#clipPath16057)"
           id="path16058" />
      </g>
      <g
         id="g16061"
         clip-path="url(#clipPath16062)"
         transform="matrix(0.26458333,0,0,0.26458333,-192.98459,-128.65241)">
        <path
           d="m 790.93,702.207 h 0.707 v 3.211 h -0.707 z"
           style="fill:#ffffff;fill-opacity:1;fill-rule:nonzero;stroke:none"
           transform="scale(1.3333333)"
           clip-path="url(#clipPath16060)"
           id="path16061" />
      </g>
      <g
         id="g16064"
         clip-path="url(#clipPath16065)"
         transform="matrix(0.26458333,0,0,0.26458333,-192.98459,-128.65241)">
        <path
           d="m 794.539,704.855 h 0.711 c 0.301,0 0.594,-0.058 0.594,-0.437 0,-0.387 -0.317,-0.434 -0.633,-0.434 h -0.672 z m 0,-1.351 h 0.641 c 0.258,0 0.531,-0.051 0.531,-0.375 0,-0.324 -0.262,-0.379 -0.531,-0.379 h -0.641 z m 0.836,-1.297 c 0.563,0 1.023,0.238 1.023,0.809 0,0.308 -0.175,0.543 -0.437,0.66 0.332,0.094 0.586,0.34 0.586,0.785 0,0.625 -0.485,0.957 -1.086,0.957 h -1.606 v -3.211 z"
           style="fill:#ffffff;fill-opacity:1;fill-rule:nonzero;stroke:none"
           transform="scale(1.3333333)"
           clip-path="url(#clipPath16063)"
           id="path16064" />
      </g>
      <g
         id="g16067"
         clip-path="url(#clipPath16068)"
         transform="matrix(0.26458333,0,0,0.26458333,-192.98459,-128.65241)">
        <path
           d="m 801.043,702.785 h -1.711 v 0.699 h 1.57 v 0.551 h -1.57 v 0.789 h 1.742 v 0.59 h -2.441 v -3.207 h 2.41 z"
           style="fill:#ffffff;fill-opacity:1;fill-rule:nonzero;stroke:none"
           transform="scale(1.3333333)"
           clip-path="url(#clipPath16066)"
           id="path16067" />
      </g>
      <g
         id="g16070"
         clip-path="url(#clipPath16071)"
         transform="matrix(0.26458333,0,0,0.26458333,-192.98459,-128.65241)">
        <path
           d="m 803.883,703.582 h 0.668 c 0.328,0 0.621,-0.055 0.621,-0.422 0,-0.34 -0.293,-0.398 -0.59,-0.398 h -0.699 z m 0.312,0.48 h -0.312 v 1.356 h -0.699 v -3.211 h 1.593 c 0.594,0 1.086,0.266 1.086,0.91 0,0.375 -0.191,0.668 -0.511,0.789 -0.125,0.067 -0.301,0.106 -0.301,0.106 0.265,0.093 0.39,0.297 0.609,0.633 0.133,0.199 0.395,0.574 0.485,0.773 h -0.778 c 0,0 -0.562,-0.852 -0.683,-1.023 -0.153,-0.211 -0.262,-0.333 -0.489,-0.333"
           style="fill:#ffffff;fill-opacity:1;fill-rule:nonzero;stroke:none"
           transform="scale(1.3333333)"
           clip-path="url(#clipPath16069)"
           id="path16070" />
      </g>
      <g
         id="g16073"
         clip-path="url(#clipPath16074)"
         transform="matrix(0.26458333,0,0,0.26458333,-192.98459,-128.65241)">
        <path
           d="m 808.012,702.207 h 0.707 v 3.211 h -0.707 z"
           style="fill:#ffffff;fill-opacity:1;fill-rule:nonzero;stroke:none"
           transform="scale(1.3333333)"
           clip-path="url(#clipPath16072)"
           id="path16073" />
      </g>
      <g
         id="g16076"
         clip-path="url(#clipPath16077)"
         transform="matrix(0.26458333,0,0,0.26458333,-192.98459,-128.65241)">
        <path
           d="m 812.172,702.992 -0.426,1.192 h 0.852 z m 1.586,2.426 h -0.738 l -0.25,-0.719 h -1.196 l -0.262,0.719 h -0.722 l 1.222,-3.215 h 0.727 z"
           style="fill:#ffffff;fill-opacity:1;fill-rule:nonzero;stroke:none"
           transform="scale(1.3333333)"
           clip-path="url(#clipPath16075)"
           id="path16076" />
      </g>
      <g
         id="g16079"
         clip-path="url(#clipPath16080)"
         transform="matrix(0.26458333,0,0,0.26458333,-192.98459,-128.65241)">
        <path
           d="m 796.117,723.117 h -1.863 v -2.633 h 0.574 v 2.137 h 1.289 z"
           style="fill:#010202;fill-opacity:1;fill-rule:nonzero;stroke:none"
           transform="scale(1.3333333)"
           clip-path="url(#clipPath16078)"
           id="path16079" />
      </g>
      <g
         id="g16082"
         clip-path="url(#clipPath16083)"
         transform="matrix(0.26458333,0,0,0.26458333,-192.98459,-128.65241)">
        <path
           d="m 800.773,720.969 h -1.281 v 0.609 h 1.113 v 0.461 h -1.113 v 1.078 h -0.574 v -2.633 h 1.855 z"
           style="fill:#010202;fill-opacity:1;fill-rule:nonzero;stroke:none"
           transform="scale(1.3333333)"
           clip-path="url(#clipPath16081)"
           id="path16082" />
      </g>
      <g
         id="g16085"
         clip-path="url(#clipPath16086)"
         transform="matrix(0.26458333,0,0,0.26458333,-192.98459,-128.65241)">
        <path
           d="m 804.441,721.129 -0.351,0.98 h 0.699 z m 1.301,1.988 h -0.605 l -0.207,-0.586 h -0.981 l -0.215,0.586 h -0.593 l 1.004,-2.637 h 0.593 z"
           style="fill:#010202;fill-opacity:1;fill-rule:nonzero;stroke:none"
           transform="scale(1.3333333)"
           clip-path="url(#clipPath16084)"
           id="path16085" />
      </g>
      <g
         id="g16088"
         clip-path="url(#clipPath16089)"
         transform="matrix(0.26458333,0,0,0.26458333,-192.98459,-128.65241)">
        <path
           d="m 802.516,717.773 c 0.781,-1.558 0.812,-3.382 0.089,-5.203 0.102,-0.429 0.309,-0.75 0.59,-0.902 0.258,-0.141 0.575,-0.148 0.946,-0.02 0.363,0.657 0.57,1.411 0.57,2.211 0,1.653 -0.879,3.106 -2.195,3.914 m -6.981,-3.601 c 0.559,0.867 1.422,1.558 2.531,2.027 0.891,0.375 1.661,0.492 1.879,0.52 0.114,0.113 0.465,0.5 0.465,0.996 0,0.156 -0.062,0.41 -0.355,0.734 -2.399,-0.031 -4.36,-1.91 -4.52,-4.277 m 4.582,-4.902 c 0.766,0 1.488,0.187 2.125,0.519 -0.57,0.02 -1.195,0.156 -1.801,0.406 -1.046,0.438 -2.023,1.192 -2.828,2.184 -0.562,0.117 -1.246,0.055 -1.484,-0.797 0.793,-1.383 2.285,-2.312 3.988,-2.312 m 0.153,7.292 c 0.23,-0.222 0.546,-0.621 0.582,-1.171 0.035,-0.528 -0.2,-1.071 -0.696,-1.606 0.399,-0.949 1.176,-1.359 2.117,-1.117 0.77,1.918 0.661,3.832 -0.316,5.398 -0.453,0.2 -0.941,0.325 -1.453,0.368 0.199,-0.297 0.25,-0.547 0.25,-0.719 0,-0.531 -0.301,-0.949 -0.484,-1.153 z m -1.797,-2.714 c 0.507,0.297 1.05,0.375 1.476,0.218 0.399,0.446 0.586,0.887 0.563,1.305 -0.035,0.488 -0.36,0.84 -0.543,1.004 -0.227,-0.031 -0.957,-0.148 -1.778,-0.496 -1.277,-0.539 -2.168,-1.352 -2.648,-2.41 0.043,-0.52 0.172,-1.016 0.375,-1.473 0.246,0.504 0.691,0.77 1.285,0.77 0.113,0 0.235,-0.008 0.359,-0.028 0.094,0.414 0.426,0.828 0.911,1.11 m 5.406,-2.618 c -0.313,-0.046 -0.598,0 -0.848,0.137 -0.328,0.18 -0.578,0.516 -0.715,0.953 -0.562,-0.132 -1.086,-0.066 -1.531,0.192 -0.433,0.258 -0.777,0.683 -0.988,1.242 h 0.004 c -0.324,0.105 -0.754,0.031 -1.156,-0.203 -0.426,-0.25 -0.715,-0.621 -0.762,-0.961 0.769,-0.945 1.699,-1.664 2.691,-2.074 0.793,-0.332 1.617,-0.454 2.274,-0.344 0.398,0.293 0.746,0.652 1.031,1.058 m -0.887,-1.382 c 0,0 -0.004,0 -0.004,-0.004 -0.812,-0.578 -1.8,-0.922 -2.871,-0.922 -2.722,0 -4.937,2.215 -4.937,4.937 0,2.723 2.215,4.938 4.937,4.938 2.723,0 4.938,-2.215 4.938,-4.938 0,-1.648 -0.817,-3.113 -2.063,-4.011"
           style="fill:#e41836;fill-opacity:1;fill-rule:nonzero;stroke:none"
           transform="scale(1.3333333)"
           clip-path="url(#clipPath16087)"
           id="path16088" />
      </g>
      <g
         id="g16091"
         clip-path="url(#clipPath16092)"
         transform="matrix(0.26458333,0,0,0.26458333,-192.98459,-128.65241)">
        <path
           d="m 812.613,718.004 c -0.582,1.023 -1.289,1.984 -2.164,2.941 -0.734,0.805 -1.574,1.59 -2.64,2.481 -3.121,2.597 -6.079,4.437 -7.789,5.301 -1.711,-0.864 -4.668,-2.704 -7.79,-5.301 -1.07,-0.891 -1.906,-1.676 -2.64,-2.481 -0.875,-0.957 -1.586,-1.918 -2.164,-2.941 -1.36,-2.395 -2.02,-5.152 -2.02,-8.43 v -3.039 h 29.227 v 3.039 c 0,3.278 -0.66,6.035 -2.02,8.43 M 792.648,697.52 c 2.68,0 5.219,-0.797 7.372,-2.313 2.152,1.516 4.687,2.313 7.371,2.313 2.664,0 5.234,-0.821 7.242,-2.286 v 10.688 h -29.227 v -10.688 c 2.004,1.465 4.574,2.286 7.242,2.286 m 14.743,-0.614 c -2.543,0 -5.157,-0.777 -7.371,-2.457 -2.215,1.68 -4.829,2.457 -7.372,2.457 -2.964,0 -5.828,-1.054 -7.855,-2.972 v 15.64 c 0,7.348 3.25,11.164 7.047,14.321 3.246,2.703 6.394,4.66 8.18,5.511 1.781,-0.851 4.933,-2.808 8.179,-5.511 3.793,-3.157 7.043,-6.973 7.043,-14.321 v -15.64 c -2.023,1.918 -4.89,2.972 -7.851,2.972"
           style="fill:#ebc185;fill-opacity:1;fill-rule:nonzero;stroke:none"
           transform="scale(1.3333333)"
           clip-path="url(#clipPath16090)"
           id="path16091" />
      </g>
    </g>
  </g>
</svg>
