<?xml version="1.0" encoding="UTF-8" standalone="no"?>
<!-- Created with Inkscape (http://www.inkscape.org/) -->

<svg
   width="83.581673mm"
   height="83.581604mm"
   viewBox="0 0 83.58167 83.581606"
   version="1.1"
   id="svg1"
   xmlns="http://www.w3.org/2000/svg"
   xmlns:svg="http://www.w3.org/2000/svg">
  <defs
     id="defs1" />
  <g
     id="layer1"
     transform="translate(-95.433183,-119.77489)">
    <path
       id="path7501"
       d="m 178.68129,161.56569 c 0,22.89733 -18.56213,41.45724 -41.45724,41.45724 -22.89733,0 -41.457305,-18.55991 -41.457305,-41.45724 0,-22.89733 18.559975,-41.45724 41.457305,-41.45724 22.89511,0 41.45724,18.55991 41.45724,41.45724"
       style="fill:#ffffff;fill-opacity:1;fill-rule:nonzero;stroke:#3fa535;stroke-width:0.667125;stroke-linecap:butt;stroke-linejoin:miter;stroke-miterlimit:4;stroke-dasharray:none;stroke-opacity:1" />
    <path
       id="path7502"
       d="M 137.21506,134.11953 V 148.4399"
       style="fill:none;stroke:#878787;stroke-width:0.334648;stroke-linecap:butt;stroke-linejoin:miter;stroke-miterlimit:10;stroke-dasharray:none;stroke-opacity:1" />
    <path
       id="path7503"
       d="m 137.0756,154.05548 2.28387,2.4816 2.92923,-0.0493 c 0.36096,-0.78883 3.35739,-7.14063 3.8224,-9.8287 -1.75579,-1.61455 -5.85852,-4.96536 -8.93553,-6.10837 -3.87236,1.54069 -7.22969,4.5938 -8.9877,6.20618 0.46752,2.69024 3.51163,8.94206 3.87236,9.73089 h 2.78146 z"
       style="fill:#878787;fill-opacity:1;fill-rule:nonzero;stroke:none;stroke-width:2.17304" />
    <path
       id="path7504"
       d="m 137.31417,134.99003 c 0,0 3.13786,-1.09305 9.24413,-0.19773 -1.58849,-2.33388 -5.98455,-2.58157 -9.24413,-2.58157 -3.25958,0 -7.98378,0.64536 -9.57227,2.38163 6.0063,-0.44536 9.57227,0.39792 9.57227,0.39792"
       style="fill:#878787;fill-opacity:1;fill-rule:nonzero;stroke:none;stroke-width:2.17304" />
    <path
       id="path7505"
       d="m 112.35053,156.83564 c 2.68155,-6.90156 6.54738,-10.06117 6.54738,-10.06117 0,0 -0.58888,-0.46506 -1.03658,-2.20127 -0.44781,-1.73848 -0.14784,-3.17919 -0.14784,-3.17919 -3.32696,0.0493 -8.29232,9.78084 -8.34233,15.5894 z"
       style="fill:#878787;fill-opacity:1;fill-rule:nonzero;stroke:none;stroke-width:2.17304" />
    <path
       id="path7506"
       d="m 156.63703,141.29557 c 0,0 0.0616,1.70146 -0.14784,2.87928 -0.20881,1.17997 -0.99308,2.58157 -0.99308,2.58157 0,0 5.46085,4.81549 6.50395,10.12856 l 3.077,0.19958 c -0.80619,-5.98018 -5.56082,-15.78929 -8.44009,-15.78929"
       style="fill:#878787;fill-opacity:1;fill-rule:nonzero;stroke:none;stroke-width:2.17304" />
    <path
       id="path7507"
       d="m 116.57049,165.92135 c 0,0 -3.42473,-4.17007 -4.12011,-7.54699 -0.69538,-3.37686 1.29078,-8.29011 3.02705,-9.73088 1.73842,-1.44072 2.48382,-2.13388 6.30616,-2.13388 3.8224,0 8.59002,0.44535 8.59002,0.44535 l 14.08784,-0.16077 c 0,0 5.41742,-0.39792 7.85553,-0.28458 2.5881,0.11704 5.11534,0.39546 5.11534,0.39546 0,0 4.25051,4.2157 4.69814,6.64735 0.44536,2.43379 -0.33016,6.06278 -1.76885,8.69431 -1.44071,2.63159 -2.78152,3.72458 -2.78152,3.72458"
       style="fill:none;stroke:#878787;stroke-width:0.334648;stroke-linecap:butt;stroke-linejoin:miter;stroke-miterlimit:10;stroke-dasharray:none;stroke-opacity:1" />
    <path
       id="path7508"
       d="m 164.53512,166.45004 c 0.41948,-1.94052 0.64106,-3.95712 0.64106,-6.02582 0,-15.58288 -12.56889,-28.21478 -28.0757,-28.21478 -15.5068,0 -28.07569,12.6319 -28.07569,28.21478 0,2.0687 0.21929,4.0853 0.64105,6.02582"
       style="fill:none;stroke:#878787;stroke-width:0.649742;stroke-linecap:butt;stroke-linejoin:miter;stroke-miterlimit:10;stroke-dasharray:none;stroke-opacity:1" />
    <path
       id="path7509"
       d="m 108.97422,159.21881 2.23391,-5.26312 5.71076,-11.56706 c 0,0 2.72928,-3.89847 5.31085,-5.38699 2.58157,-1.49073 5.36309,-3.00531 9.5831,-3.10312 4.22009,-0.0998 11.0717,0.14783 11.0717,0.14783 0,0 5.19357,0.43488 8.6704,2.61853 3.47469,2.18605 4.65466,3.62461 5.9954,6.10843 1.33865,2.4816 7.59478,16.06747 7.59478,16.06747 m -36.06378,2.46423 c 0,0 0.68885,-1.57112 1.88841,-3.227 0.45398,-0.63015 4.53509,-6.21924 4.53509,-6.21924 l 4.50041,0.0123 1.01046,2.89233 c 0,0 1.62108,2.17084 2.61416,3.8593 0.99308,1.68847 1.43856,2.7793 1.43856,2.7793"
       style="fill:none;stroke:#878787;stroke-width:0.334648;stroke-linecap:butt;stroke-linejoin:miter;stroke-miterlimit:10;stroke-dasharray:none;stroke-opacity:1" />
    <path
       id="path7510"
       d="m 142.97114,163.43907 c -1.88188,-3.13133 -3.46816,-5.45647 -5.88243,-7.89465 -2.41643,2.43818 -5.59556,7.72513 -5.73464,8.00546 4.95235,5.02843 5.84546,11.43241 5.84546,11.43241 0,0 0.63452,-3.50949 2.34689,-6.92553 0.8888,-1.77537 3.47689,-4.53078 3.42472,-4.61769"
       style="fill:#3fa535;fill-opacity:1;fill-rule:nonzero;stroke:none;stroke-width:2.17304" />
    <path
       id="path7511"
       d="m 137.14354,184.88743 c 0,0 -0.2544,0.81273 -1.39507,1.76885 -0.478,0.42626 -1.02567,0.9127 -1.80796,1.43419 0.68884,0.48231 1.63844,0.93006 3.13349,0.93006 1.4972,0 2.11872,-0.2045 3.34649,-0.91263 -0.78229,-0.50203 -1.38423,-1.06263 -1.86229,-1.48858 -1.14086,-0.95612 -1.41466,-1.73189 -1.41466,-1.73189"
       style="fill:#3fa535;fill-opacity:1;fill-rule:nonzero;stroke:none;stroke-width:2.17304" />
    <path
       id="path7512"
       d="m 143.38379,188.17633 c -0.004,0 -0.006,0 -0.0123,-0.002 0.002,0.002 0.006,0.002 0.0123,0.002"
       style="fill:#3fa535;fill-opacity:1;fill-rule:nonzero;stroke:#ffffff;stroke-width:1.26905;stroke-linecap:butt;stroke-linejoin:miter;stroke-miterlimit:10;stroke-dasharray:none;stroke-opacity:1" />
    <path
       id="path7513"
       d="m 147.51418,168.24261 c 2.26428,-0.98003 3.82019,-1.56022 6.62776,-2.01007 -0.96696,-3.68763 -1.86229,-5.80851 -3.01615,-7.89465 -2.90317,1.58412 -4.63297,2.92923 -6.81464,5.32392 0.87789,1.77975 1.54284,2.99231 1.89919,5.32613 0.43673,-0.25009 0.89532,-0.56916 1.30384,-0.74533"
       style="fill:#3fa535;fill-opacity:1;fill-rule:nonzero;stroke:none;stroke-width:2.17304" />
    <path
       id="path7514"
       d="m 138.09338,176.47167 c 0,0 3.34865,-4.71983 7.14931,-6.88857 -0.35665,-2.33382 -0.87142,-3.28564 -1.74932,-5.06317 -5.06533,5.25006 -5.39999,11.95174 -5.39999,11.95174"
       style="fill:#3fa535;fill-opacity:1;fill-rule:nonzero;stroke:none;stroke-width:2.17304" />
    <path
       id="path7515"
       d="m 155.42687,167.18127 c 0.20451,1.56459 0.64758,4.67418 0.35419,6.61039 -1.21034,7.96856 -4.73066,11.65403 -4.73066,11.65403 0,0 5.04143,-2.17521 8.3618,-6.75816 2.58595,-3.57465 4.53516,-8.97464 4.76553,-11.33896 -3.69853,-0.41948 -5.49349,-0.50202 -8.75086,-0.16754"
       style="fill:#3fa535;fill-opacity:1;fill-rule:nonzero;stroke:none;stroke-width:2.17304" />
    <path
       id="path7516"
       d="m 154.8128,172.87835 c 0.19773,-1.93184 -0.16754,-4.00276 -0.44781,-5.56735 -2.80542,0.45213 -3.63767,0.67801 -5.90202,1.65803 -0.40839,0.17617 -1.55368,0.7932 -1.99047,1.0431 0.28027,1.83839 0.41702,3.23562 0.35234,4.91324 -0.13059,3.35297 -0.65627,9.29188 -3.96581,12.47538 0.47801,0.17802 2.42074,-0.0185 3.0727,-0.11087 0.32154,-0.0493 2.37731,-0.49525 2.64458,-0.72797 1.84271,-1.59933 5.45432,-6.03235 6.23662,-13.68362"
       style="fill:#3fa535;fill-opacity:1;fill-rule:nonzero;stroke:none;stroke-width:2.17304" />
    <path
       id="path7517"
       d="m 137.81385,179.56241 c 0,0.39977 0.037,0.80619 0.0936,1.41466 0.12196,1.34511 0.43427,3.17698 1.39729,4.56121 0.59565,1.11695 1.40376,1.29947 2.36425,1.65803 3.30954,-3.18351 4.13311,-8.91163 4.13311,-11.93437 0,-1.68193 0.0369,-2.79667 -0.24332,-4.63722 -1.80581,1.22993 -2.71629,1.89919 -4.15054,3.33344 -1.6884,1.6884 -3.59418,4.37648 -3.59418,5.60425"
       style="fill:#3fa535;fill-opacity:1;fill-rule:nonzero;stroke:none;stroke-width:2.17304" />
    <path
       id="path7518"
       d="m 128.07675,168.83844 c 0.63236,-2.08614 1.05825,-3.43341 1.93615,-5.2131 -2.30771,-2.19695 -3.87452,-3.66594 -6.77769,-5.25006 -1.26473,1.89919 -2.49466,5.17614 -3.05311,7.89465 3.31385,0.44535 7.45786,2.31861 7.89465,2.56851"
       style="fill:#3fa535;fill-opacity:1;fill-rule:nonzero;stroke:none;stroke-width:2.17304" />
    <path
       id="path7519"
       d="m 136.41779,176.50924 c 0,0 -0.74533,-7.07539 -5.54776,-12.06471 -0.87789,1.77754 -1.3408,2.94229 -1.82533,5.10229 3.80281,2.16652 7.37309,6.96242 7.37309,6.96242"
       style="fill:#3fa535;fill-opacity:1;fill-rule:nonzero;stroke:none;stroke-width:2.17304" />
    <path
       id="path7520"
       d="m 118.54403,172.9344 c -0.12197,-1.95358 0.0868,-4.14832 0.26055,-5.73465 -3.1965,-0.51311 -5.01537,-0.23284 -8.7139,0.18664 1.02351,4.76547 3.00537,9.30278 6.66472,13.49674 2.49251,2.85538 6.44309,4.63728 6.44309,4.63728 0,0 -4.18965,-5.10228 -4.65465,-12.58625"
       style="fill:#3fa535;fill-opacity:1;fill-rule:nonzero;stroke:none;stroke-width:2.17304" />
    <path
       id="path7521"
       d="m 127.62967,177.36545 c -0.20451,-1.66887 -0.0758,-5.55213 0.2045,-7.39052 -0.43673,-0.25009 -1.73189,-0.92354 -2.1404,-1.09953 -2.26435,-0.98008 -2.96404,-1.13001 -5.77161,-1.58196 -0.17371,1.58627 -0.63237,3.52464 -0.44782,5.47385 0.80182,8.37708 5.36303,13.31206 6.33006,13.81403 0.31476,0.16323 1.78837,0.63236 3.1835,0.78229 0.52173,0.0554 1.97963,0.21498 2.4577,0.037 -3.03358,-3.5008 -3.38777,-6.53438 -3.81588,-10.03512"
       style="fill:#3fa535;fill-opacity:1;fill-rule:nonzero;stroke:none;stroke-width:2.17304" />
    <path
       id="path7522"
       d="m 136.41779,180.82837 c -0.004,-0.44535 0.21313,-1.21256 0.0554,-1.63845 -1.43419,-3.89194 -4.56336,-6.44093 -7.70776,-8.62045 -0.28273,1.84055 -0.39546,3.70721 -0.24331,5.3804 0.35419,3.89195 0.84316,8.10112 4.15269,11.28463 0.95828,-0.36096 1.3777,-0.41086 2.06655,-1.24951 0.9127,-0.93007 1.69278,-3.49859 1.67541,-5.15662"
       style="fill:#3fa535;fill-opacity:1;fill-rule:nonzero;stroke:none;stroke-width:2.17304" />
    <path
       id="path7523"
       d="m 108.84388,178.35484 -1.26252,1.71668 2.10345,-0.39115 z m 0.19526,-0.27842 0.98224,1.54722 0.59135,-0.11519 c 0.19772,-0.037 0.34741,-0.0936 0.44966,-0.15892 0.13675,-0.0869 0.20635,-0.19958 0.20635,-0.33879 0.002,-0.0825 -0.0616,-0.24578 -0.18479,-0.48478 l 0.13244,-0.085 0.92353,1.45809 -0.13243,0.085 c -0.12628,-0.14106 -0.28027,-0.2236 -0.4626,-0.25009 -0.18233,-0.0246 -0.50634,0.004 -0.9735,0.0912 l -4.88065,0.89527 -0.037,-0.0616 2.99224,-4.11573 c 0.28274,-0.3893 0.44351,-0.66495 0.478,-0.82363 0.0308,-0.12135 0.006,-0.25193 -0.0671,-0.39361 l 0.13244,-0.085 1.34727,2.12088 -0.1349,0.085 -0.0554,-0.0868 c -0.10841,-0.1694 -0.21066,-0.2735 -0.30614,-0.30861 -0.0696,-0.0246 -0.13921,-0.0123 -0.21066,0.0308 -0.0431,0.0308 -0.0825,0.0628 -0.12197,0.1041 -0.0185,0.0185 -0.0868,0.10841 -0.20635,0.26734 z"
       style="fill:#3fa535;fill-opacity:1;fill-rule:nonzero;stroke:none;stroke-width:2.17304" />
    <path
       id="path7524"
       d="m 102.48284,174.52813 1.74057,-0.81926 0.0628,0.14353 c -0.41086,0.26302 -0.69107,0.58641 -0.841,0.97134 -0.14968,0.38252 -0.1583,0.73012 -0.0246,1.03872 0.10657,0.23654 0.26056,0.39361 0.46261,0.46938 0.2045,0.0758 0.39792,0.0739 0.58025,-0.006 0.11765,-0.0493 0.21066,-0.12196 0.28027,-0.21067 0.0912,-0.12196 0.16323,-0.28458 0.21498,-0.48662 0.037,-0.14783 0.0758,-0.46691 0.11703,-0.9605 0.0616,-0.691 0.17802,-1.19297 0.36097,-1.50588 0.18479,-0.31107 0.45213,-0.5433 0.79751,-0.69754 0.44104,-0.19588 0.88879,-0.21066 1.34296,-0.0431 0.45644,0.16755 0.78876,0.48909 0.99955,0.96481 0.0671,0.14968 0.11334,0.29752 0.13921,0.44535 0.0246,0.14784 0.037,0.34311 0.0308,0.58457 -0.002,0.13675 0.0123,0.239 0.0431,0.31292 0.0246,0.0616 0.0825,0.11272 0.16323,0.15646 0.0825,0.0431 0.18479,0.0653 0.31045,0.0616 l 0.0554,0.12813 -1.99054,0.88442 -0.0554,-0.12812 c 0.51496,-0.35234 0.854,-0.74096 1.01699,-1.16254 0.16508,-0.42379 0.17186,-0.80404 0.0246,-1.14301 -0.11704,-0.26056 -0.2889,-0.43488 -0.51496,-0.51927 -0.22791,-0.085 -0.44536,-0.0807 -0.65627,0.0123 -0.12381,0.0554 -0.23037,0.13674 -0.32154,0.25008 -0.0893,0.11088 -0.16077,0.25009 -0.21066,0.41702 -0.0493,0.1694 -0.0936,0.44351 -0.12628,0.82794 -0.0431,0.53652 -0.10656,0.93438 -0.18911,1.19734 -0.0807,0.26303 -0.20204,0.49094 -0.36096,0.68232 -0.16077,0.19342 -0.36281,0.3431 -0.61044,0.45398 -0.41948,0.18664 -0.83884,0.20635 -1.25604,0.0616 -0.41948,-0.14784 -0.72359,-0.43242 -0.91048,-0.854 -0.0696,-0.15399 -0.11273,-0.31291 -0.13675,-0.47615 -0.0185,-0.12381 -0.0185,-0.28273 -0.004,-0.478 0.0123,-0.19342 0.006,-0.324 -0.0246,-0.38683 -0.0246,-0.0616 -0.0671,-0.0979 -0.12628,-0.11519 -0.0554,-0.0123 -0.17185,-0.004 -0.3431,0.037 z"
       style="fill:#3fa535;fill-opacity:1;fill-rule:nonzero;stroke:none;stroke-width:2.17304" />
    <path
       id="path7525"
       d="m 101.02303,170.02969 1.8297,-0.59134 0.0431,0.15029 c -0.44104,0.20882 -0.76061,0.49525 -0.95834,0.85616 -0.19773,0.36096 -0.25009,0.70406 -0.15215,1.02782 0.0739,0.24762 0.20636,0.42379 0.39793,0.52605 0.19341,0.0998 0.38437,0.12196 0.57778,0.0653 0.12197,-0.037 0.22361,-0.0955 0.30183,-0.17617 0.10657,-0.10841 0.2002,-0.25871 0.27843,-0.45398 0.0554,-0.14106 0.1349,-0.45397 0.239,-0.93875 0.14352,-0.67579 0.32585,-1.15823 0.5476,-1.44725 0.2236,-0.28458 0.51743,-0.48046 0.88012,-0.58887 0.4626,-0.13921 0.90832,-0.0955 1.33858,0.12812 0.43057,0.22607 0.71928,0.58641 0.86706,1.08647 0.0493,0.15646 0.0739,0.3086 0.0801,0.45829 0.006,0.14968 -0.006,0.34556 -0.0431,0.58456 -0.0185,0.1349 -0.0185,0.239 0.006,0.31538 0.0185,0.0628 0.0653,0.12197 0.14106,0.17617 0.0758,0.0554 0.17617,0.0893 0.29999,0.0979 l 0.0431,0.13675 -2.08829,0.62362 -0.037,-0.1349 c 0.55438,-0.28458 0.94091,-0.62584 1.15607,-1.02351 0.21744,-0.39977 0.27165,-0.77792 0.16755,-1.13211 -0.0825,-0.27411 -0.23038,-0.46753 -0.44536,-0.58026 -0.21312,-0.11272 -0.43057,-0.13674 -0.65189,-0.0714 -0.13058,0.0431 -0.24762,0.10841 -0.34987,0.20882 -0.1041,0.0979 -0.19096,0.22791 -0.26487,0.3893 -0.0715,0.15892 -0.14784,0.42564 -0.22792,0.80182 -0.11087,0.52789 -0.2236,0.91485 -0.33879,1.16476 -0.11518,0.25008 -0.26302,0.46075 -0.44535,0.63236 -0.18479,0.16939 -0.40408,0.29321 -0.66279,0.37144 -0.44105,0.13058 -0.85837,0.0979 -1.25605,-0.0998 -0.39546,-0.2002 -0.66058,-0.51927 -0.79314,-0.96266 -0.0493,-0.16077 -0.0739,-0.324 -0.0764,-0.48908 0,-0.12382 0.0185,-0.28274 0.0554,-0.47369 0.037,-0.19096 0.0493,-0.32154 0.0308,-0.38684 -0.0185,-0.0628 -0.0554,-0.10656 -0.10841,-0.13059 -0.0554,-0.0246 -0.1694,-0.0308 -0.34557,-0.006 z"
       style="fill:#3fa535;fill-opacity:1;fill-rule:nonzero;stroke:none;stroke-width:2.17304" />
    <path
       id="path7526"
       d="m 100.56135,165.82026 c 0.0653,0.46938 0.38006,0.79098 0.94744,0.96266 0.46691,0.14106 1.11042,0.15461 1.92968,0.0431 0.97565,-0.1349 1.6754,-0.38684 2.09913,-0.76055 0.29567,-0.25872 0.41702,-0.58211 0.36528,-0.96919 -0.037,-0.26056 -0.13675,-0.46691 -0.29998,-0.62362 -0.21067,-0.19773 -0.52174,-0.33262 -0.93438,-0.40223 -0.41086,-0.0696 -0.93438,-0.0616 -1.56896,0.0308 -0.75618,0.10225 -1.31247,0.24331 -1.67104,0.42133 -0.3585,0.17802 -0.59996,0.37575 -0.72796,0.59319 -0.12812,0.21744 -0.17371,0.45213 -0.13921,0.70844 m -0.26303,0.0825 c -0.14783,-0.81494 0.0308,-1.51679 0.52174,-2.10789 0.49525,-0.58887 1.16691,-0.94091 2.01444,-1.05825 0.72575,-0.0998 1.38854,0.004 1.99263,0.31107 0.79967,0.40408 1.26258,1.0691 1.39076,1.99263 0.12628,0.92576 -0.12381,1.68847 -0.75186,2.2904 -0.49525,0.47615 -1.12127,0.76493 -1.87751,0.86706 -0.84746,0.11765 -1.59064,-0.0431 -2.22954,-0.48663 -0.63668,-0.44104 -0.99093,-1.04525 -1.06047,-1.80796"
       style="fill:#3fa535;fill-opacity:1;fill-rule:nonzero;stroke:none;stroke-width:2.17304" />
    <path
       id="path7527"
       d="m 100.00265,157.05856 1.99923,0.0696 -0.006,0.14968 c -0.52605,0.0936 -0.93222,0.2889 -1.22124,0.58457 -0.28705,0.29752 -0.4392,0.63883 -0.45213,1.02782 -0.0123,0.32401 0.0825,0.62368 0.27842,0.9018 0.19773,0.27596 0.46322,0.48477 0.7932,0.62152 0.42133,0.17617 0.89526,0.27165 1.41897,0.29136 0.51742,0.0185 0.98877,-0.0246 1.41682,-0.12812 0.4281,-0.10226 0.75408,-0.2735 0.98008,-0.51743 0.22607,-0.24331 0.34557,-0.563 0.3585,-0.9605 0.0123,-0.32585 -0.0554,-0.62799 -0.20635,-0.90616 -0.14968,-0.27596 -0.41271,-0.57348 -0.79098,-0.88658 l 0.49771,0.0185 c 0.32585,0.30183 0.56054,0.6129 0.70191,0.93438 0.14106,0.31969 0.2045,0.69106 0.18911,1.11042 -0.0185,0.55439 -0.16078,1.04089 -0.42133,1.46246 -0.26056,0.42133 -0.628,0.74103 -1.09737,0.95834 -0.46938,0.21745 -0.96697,0.31723 -1.48852,0.29999 -0.54945,-0.0185 -1.06694,-0.16755 -1.55153,-0.44351 -0.48231,-0.27596 -0.85406,-0.63883 -1.11043,-1.08868 -0.25624,-0.44967 -0.375744,-0.92138 -0.358497,-1.41682 0.01232,-0.36527 0.112727,-0.74749 0.301827,-1.14738 0.11088,-0.23038 0.16755,-0.37821 0.1694,-0.44104 0.002,-0.0825 -0.0308,-0.15462 -0.0936,-0.21745 -0.0628,-0.0616 -0.16755,-0.1041 -0.311071,-0.12627 z"
       style="fill:#3fa535;fill-opacity:1;fill-rule:nonzero;stroke:none;stroke-width:2.17304" />
    <path
       id="path7528"
       d="m 106.2636,154.35946 0.15646,0.0246 -0.43673,2.67939 -0.154,-0.0246 0.0308,-0.16939 c 0.0246,-0.14968 0.0123,-0.27411 -0.0308,-0.3739 -0.0308,-0.0715 -0.0868,-0.13244 -0.17802,-0.1848 -0.0616,-0.0369 -0.23715,-0.0807 -0.52173,-0.12627 l -3.74633,-0.60859 c -0.29136,-0.0493 -0.47615,-0.0628 -0.55192,-0.0431 -0.0782,0.0123 -0.14968,0.0616 -0.21929,0.13675 -0.0671,0.0739 -0.11272,0.18479 -0.13674,0.32832 l -0.0308,0.16939 -0.15461,-0.0246 0.43488,-2.68154 0.15646,0.0246 -0.0308,0.16939 c -0.0246,0.14968 -0.0123,0.27411 0.0308,0.3739 0.0308,0.0714 0.0868,0.1349 0.17617,0.18664 0.0628,0.037 0.23653,0.0825 0.52173,0.12813 l 3.74633,0.60858 c 0.29136,0.0493 0.47615,0.0628 0.55438,0.0431 0.0758,-0.0185 0.14969,-0.0653 0.21744,-0.13921 0.0696,-0.0758 0.11519,-0.18664 0.13675,-0.33016 z"
       style="fill:#3fa535;fill-opacity:1;fill-rule:nonzero;stroke:none;stroke-width:2.17304" />
    <path
       id="path7529"
       d="m 105.49923,150.35867 -2.12741,0.13244 1.6515,1.36248 z m 0.33879,-0.0308 -0.55623,1.74717 0.46937,0.37821 c 0.15646,0.12628 0.29321,0.20635 0.4084,0.24331 0.15399,0.0493 0.28458,0.0308 0.39361,-0.0616 0.0653,-0.0493 0.14784,-0.20451 0.25194,-0.45398 l 0.14968,0.0493 -0.52358,1.64497 -0.14969,-0.0493 c 0.0246,-0.18664 -0.006,-0.3585 -0.10656,-0.51496 -0.0979,-0.1583 -0.32832,-0.38683 -0.69316,-0.68885 l -3.82241,-3.16613 0.0246,-0.0696 5.07623,-0.34741 c 0.48232,-0.037 0.79529,-0.0893 0.94091,-0.16324 0.11088,-0.0554 0.19527,-0.15646 0.25625,-0.30429 l 0.14968,0.0493 -0.7627,2.39468 -0.14969,-0.0493 0.0308,-0.0998 c 0.0616,-0.19095 0.0739,-0.33694 0.037,-0.43241 -0.0246,-0.0671 -0.0807,-0.11273 -0.16077,-0.13922 -0.0493,-0.0123 -0.0998,-0.0246 -0.15646,-0.0246 -0.0246,-0.004 -0.13921,0 -0.33879,0.0123 z"
       style="fill:#3fa535;fill-opacity:1;fill-rule:nonzero;stroke:none;stroke-width:2.17304" />
    <path
       id="path7530"
       d="m 109.30087,146.24183 0.11519,-0.2236 0.19342,0.29998 c 0.0955,-0.12196 0.21066,-0.19526 0.34556,-0.21744 0.13244,-0.0246 0.27411,0.006 0.41949,0.0807 0.13058,0.0671 0.23222,0.16508 0.30614,0.29135 0.0721,0.12628 0.0998,0.2544 0.0868,0.38438 -0.0246,0.20635 -0.12812,0.48231 -0.31045,0.83009 l -0.17802,-0.0912 c 0.10656,-0.23284 0.14537,-0.40655 0.11519,-0.52359 -0.0308,-0.11703 -0.10842,-0.20881 -0.23469,-0.27349 -0.0758,-0.037 -0.154,-0.0431 -0.23038,-0.0185 -0.0782,0.0308 -0.14352,0.0912 -0.19588,0.19095 z m -4.21355,-4.60248 1.77975,0.91264 -0.0696,0.13243 c -0.51496,-0.13674 -0.96703,-0.13489 -1.3538,0.0123 -0.38684,0.14538 -0.66933,0.39115 -0.84531,0.73665 -0.14784,0.2889 -0.19096,0.59997 -0.13244,0.9366 0.0616,0.33448 0.21313,0.63452 0.45213,0.89742 0.30861,0.33879 0.69538,0.62806 1.16254,0.86921 0.45829,0.23469 0.90401,0.39793 1.33428,0.48663 0.43241,0.0893 0.80182,0.0714 1.10827,-0.0493 0.30614,-0.12381 0.55191,-0.36281 0.73443,-0.71713 0.14783,-0.29135 0.21498,-0.59318 0.19773,-0.90616 -0.0185,-0.31477 -0.13059,-0.69532 -0.33879,-1.1408 l 0.44351,0.22791 c 0.16754,0.41271 0.24577,0.79314 0.23715,1.14302 -0.006,0.34987 -0.10841,0.71275 -0.30183,1.08652 -0.25194,0.4934 -0.58642,0.87574 -1.00177,1.14517 -0.41702,0.26919 -0.88442,0.40224 -1.4016,0.39977 -0.51742,-0.004 -1.0083,-0.12381 -1.47336,-0.36281 -0.48909,-0.25009 -0.89527,-0.60428 -1.21472,-1.06047 -0.32154,-0.45644 -0.50202,-0.94091 -0.54329,-1.45809 -0.0431,-0.51496 0.0493,-0.99308 0.27596,-1.43418 0.16754,-0.32401 0.42133,-0.62806 0.7627,-0.90833 0.2002,-0.16323 0.31292,-0.27164 0.34126,-0.32831 0.037,-0.0739 0.0431,-0.15215 0.006,-0.23469 -0.0308,-0.085 -0.10842,-0.16755 -0.22792,-0.25009 z"
       style="fill:#3fa535;fill-opacity:1;fill-rule:nonzero;stroke:none;stroke-width:2.17304" />
    <path
       id="path7531"
       d="m 110.52205,140.75012 -2.05786,-0.55869 1.12564,1.82096 z m 0.33017,0.0825 -1.08868,1.47545 0.32154,0.50819 c 0.10841,0.16939 0.21066,0.28889 0.3086,0.36281 0.13059,0.0955 0.26056,0.1195 0.39361,0.0696 0.0758,-0.0308 0.20451,-0.14537 0.38438,-0.34741 l 0.12627,0.0936 -1.02567,1.38854 -0.12627,-0.0936 c 0.085,-0.16939 0.10656,-0.3431 0.0653,-0.52358 -0.0431,-0.17802 -0.18664,-0.47184 -0.43673,-0.87358 l -2.59894,-4.22877 0.0431,-0.0616 4.91755,1.30384 c 0.46753,0.12381 0.78014,0.17371 0.94313,0.14968 0.12135,-0.0185 0.23653,-0.0868 0.34125,-0.2045 l 0.12628,0.0936 -1.49074,2.0209 -0.12812,-0.0936 0.0628,-0.085 c 0.1195,-0.16077 0.17802,-0.29321 0.17617,-0.39792 -0.002,-0.0715 -0.037,-0.13244 -0.10657,-0.18233 -0.0431,-0.0308 -0.0893,-0.0554 -0.14105,-0.0758 -0.0246,-0.0123 -0.13244,-0.0431 -0.32401,-0.0979 z m -4.33083,-3.91801 0.1195,-0.16323 c 0.0493,0.0308 0.0868,0.0616 0.1195,0.0825 0.25193,0.18479 0.40654,0.39792 0.46506,0.63889 0.0616,0.239 0.0246,0.44967 -0.11272,0.63021 -0.0979,0.1349 -0.27596,0.26303 -0.53221,0.38437 -0.25625,0.12382 -0.40839,0.21929 -0.46075,0.28705 -0.0431,0.0616 -0.0616,0.13059 -0.0431,0.20451 0.0123,0.0758 0.0758,0.16508 0.18233,0.26918 l -0.13244,0.17802 c -0.30183,-0.21067 -0.49093,-0.44351 -0.563,-0.69975 -0.0715,-0.2544 -0.037,-0.47801 0.10225,-0.66927 0.0431,-0.0616 0.0912,-0.10656 0.1349,-0.13674 0.0616,-0.0431 0.18048,-0.11088 0.35665,-0.19589 0.26303,-0.13243 0.42811,-0.24331 0.4934,-0.33447 0.037,-0.0431 0.0431,-0.10226 0.037,-0.17371 -0.0123,-0.0714 -0.0653,-0.17186 -0.16323,-0.30183"
       style="fill:#3fa535;fill-opacity:1;fill-rule:nonzero;stroke:none;stroke-width:2.17304" />
    <path
       id="path7532"
       d="m 111.54507,134.15322 c -0.34125,0.33017 -0.41517,0.77361 -0.21929,1.33428 0.16324,0.45829 0.53036,0.98655 1.10606,1.58196 0.68238,0.70838 1.29947,1.12342 1.85145,1.2473 0.38437,0.0868 0.71713,-0.006 0.9974,-0.27843 0.1891,-0.18233 0.29751,-0.38498 0.32585,-0.61043 0.037,-0.28705 -0.037,-0.61475 -0.22606,-0.98877 -0.18665,-0.3739 -0.50203,-0.79314 -0.94744,-1.25383 -0.5279,-0.54945 -0.97135,-0.91485 -1.32553,-1.09959 -0.35419,-0.18479 -0.65627,-0.26302 -0.90833,-0.239 -0.25009,0.0246 -0.46938,0.12813 -0.65411,0.30615 m -0.22175,-0.16509 c 0.57163,-0.5975 1.24077,-0.87136 2.00785,-0.81925 0.7693,0.0493 1.44946,0.38437 2.04487,1.00177 0.50818,0.52789 0.81488,1.12564 0.92354,1.79275 0.14537,0.88442 -0.11704,1.6515 -0.78883,2.29692 -0.67363,0.64974 -1.4364,0.89749 -2.29255,0.74534 -0.67586,-0.1195 -1.27995,-0.45398 -1.80797,-1.00392 -0.59565,-0.61716 -0.90179,-1.31254 -0.92138,-2.0883 -0.0185,-0.77577 0.25871,-1.41682 0.83447,-1.92531"
       style="fill:#3fa535;fill-opacity:1;fill-rule:nonzero;stroke:none;stroke-width:2.17304" />
    <path
       id="path7533"
       d="m 117.95712,129.35665 2.27303,3.88542 c 0.1195,0.2045 0.20204,0.32585 0.24762,0.36281 0.0431,0.037 0.0955,0.0554 0.15215,0.0554 0.0801,0.002 0.17802,-0.0308 0.28889,-0.0955 0.36959,-0.21498 0.56732,-0.51927 0.5975,-0.9127 0.0431,-0.5322 -0.16508,-1.19297 -0.63021,-1.98616 -0.3739,-0.63884 -0.7627,-1.09737 -1.16691,-1.37333 -0.31723,-0.21498 -0.6193,-0.31107 -0.90832,-0.28705 -0.20204,0.0185 -0.48663,0.1349 -0.854,0.35234 m 1.03873,5.69554 -0.0782,-0.1349 0.14784,-0.0868 c 0.13058,-0.0758 0.21744,-0.15893 0.26056,-0.24332 0.0431,-0.0868 0.0554,-0.17801 0.0431,-0.27595 -0.006,-0.0628 -0.0893,-0.22176 -0.24146,-0.48047 l -1.91662,-3.27479 c -0.14784,-0.2544 -0.2544,-0.40655 -0.31538,-0.45645 -0.0616,-0.0493 -0.14353,-0.0758 -0.24332,-0.0801 -0.10225,-0.004 -0.21744,0.0308 -0.34125,0.10225 l -0.14968,0.0868 -0.0782,-0.1349 2.00569,-1.17344 c 0.53467,-0.31292 1.01261,-0.48478 1.43419,-0.51496 0.51496,-0.037 0.99092,0.0893 1.43203,0.36959 0.44104,0.28027 0.81057,0.67579 1.10611,1.18213 0.20636,0.34987 0.3431,0.70191 0.41517,1.05609 0.0715,0.35419 0.0825,0.67364 0.037,0.9605 -0.0493,0.28705 -0.14352,0.54946 -0.28704,0.78883 -0.14106,0.239 -0.34742,0.48046 -0.6129,0.72143 -0.11704,0.10841 -0.32155,0.24578 -0.61044,0.41517 z"
       style="fill:#3fa535;fill-opacity:1;fill-rule:nonzero;stroke:none;stroke-width:2.17304" />
    <path
       id="path7534"
       d="m 123.46398,126.59798 0.84531,2.19043 0.0979,-0.037 c 0.30615,-0.1195 0.4891,-0.31292 0.5433,-0.58025 0.0554,-0.26734 0.0246,-0.61715 -0.10225,-1.04957 l 0.1349,-0.0493 1.0909,2.81626 -0.13675,0.0493 c -0.14784,-0.29567 -0.3043,-0.52358 -0.47123,-0.68454 -0.16754,-0.15831 -0.32585,-0.25009 -0.47122,-0.26918 -0.14784,-0.0246 -0.33694,0.0123 -0.56917,0.10225 l 0.58703,1.51679 c 0.11519,0.29567 0.19527,0.47122 0.24332,0.53036 0.0493,0.0554 0.11087,0.0955 0.1891,0.11272 0.0782,0.0185 0.18664,0.002 0.32585,-0.0493 l 0.2889,-0.11087 c 0.45213,-0.17617 0.76923,-0.43242 0.95175,-0.76924 0.18233,-0.33879 0.24331,-0.76923 0.17802,-1.29078 l 0.13059,-0.0493 0.4435,1.79496 -4.18527,1.6167 -0.0554,-0.14537 0.16077,-0.0628 c 0.13921,-0.0554 0.24331,-0.12627 0.30614,-0.21497 0.0493,-0.0616 0.0714,-0.14106 0.0696,-0.24578 0.002,-0.0739 -0.0493,-0.24578 -0.154,-0.51496 l -1.36686,-3.53985 c -0.0936,-0.24331 -0.15831,-0.3893 -0.19095,-0.44104 -0.0616,-0.0825 -0.13059,-0.13675 -0.21498,-0.16324 -0.1195,-0.037 -0.25625,-0.0308 -0.41517,0.0308 l -0.16077,0.0616 -0.0554,-0.14537 4.05487,-1.56681 0.61475,1.59071 -0.13675,0.0554 c -0.21928,-0.36282 -0.42379,-0.60428 -0.61474,-0.72581 -0.18911,-0.12197 -0.41517,-0.17802 -0.67364,-0.16755 -0.15215,0.002 -0.41086,0.0758 -0.77792,0.21744 z"
       style="fill:#3fa535;fill-opacity:1;fill-rule:nonzero;stroke:none;stroke-width:2.17304" />
    <path
       id="path7535"
       d="m 131.05335,124.46866 0.37574,2.34036 0.14784,-0.0246 c 0.22606,-0.037 0.40655,-0.1041 0.53652,-0.20451 0.13243,-0.0979 0.23222,-0.24577 0.30429,-0.43919 0.0721,-0.19527 0.0955,-0.44967 0.0782,-0.75839 l 0.13244,-0.0246 0.45829,2.85975 -0.13059,0.0246 c -0.1349,-0.5322 -0.32401,-0.86699 -0.56485,-1.00608 -0.239,-0.13674 -0.49525,-0.18479 -0.76493,-0.14106 l -0.14783,0.0246 0.28027,1.7428 c 0.0493,0.29135 0.0912,0.47122 0.13243,0.53898 0.037,0.0671 0.10657,0.12135 0.2002,0.16262 0.0936,0.0431 0.21313,0.0493 0.35665,0.0308 l 0.16939,-0.0308 0.0246,0.15646 -2.67933,0.43057 -0.0246,-0.15646 0.17185,-0.0246 c 0.14784,-0.0246 0.26303,-0.0739 0.3431,-0.14537 0.0616,-0.0493 0.0998,-0.12628 0.1195,-0.22607 0.0185,-0.0721 0.002,-0.25009 -0.0431,-0.53652 l -0.60181,-3.74633 c -0.0493,-0.29135 -0.0912,-0.47122 -0.13059,-0.53898 -0.037,-0.0696 -0.10409,-0.12381 -0.19773,-0.16508 -0.0936,-0.0431 -0.21313,-0.0493 -0.35665,-0.0246 l -0.1694,0.0246 -0.0246,-0.154 4.32437,-0.69537 0.26303,1.63413 -0.154,0.0246 c -0.0955,-0.37821 -0.23222,-0.64752 -0.40655,-0.80835 -0.17617,-0.16324 -0.40655,-0.25871 -0.69322,-0.2889 -0.15892,-0.0185 -0.44104,0.004 -0.84962,0.0715 z"
       style="fill:#3fa535;fill-opacity:1;fill-rule:nonzero;stroke:none;stroke-width:2.17304" />
    <path
       id="path7536"
       d="m 134.20519,123.67479 2.67933,-0.0431 0.004,0.15646 -0.13491,0.002 c -0.20203,0.004 -0.34125,0.0308 -0.41516,0.0782 -0.0739,0.0493 -0.12628,0.11273 -0.15646,0.19527 -0.0308,0.0825 -0.0431,0.28889 -0.037,0.61715 l 0.0431,2.82494 c 0.006,0.51743 0.0493,0.85831 0.12196,1.02352 0.0739,0.16754 0.19096,0.30429 0.35419,0.41086 0.16324,0.10841 0.36712,0.16077 0.61044,0.15645 0.28273,-0.004 0.51927,-0.0782 0.71496,-0.22175 0.19589,-0.14352 0.34126,-0.33879 0.43427,-0.58888 0.0936,-0.24762 0.13675,-0.67794 0.12628,-1.29078 l -0.037,-2.3512 c -0.004,-0.25871 -0.0308,-0.4435 -0.0825,-0.55191 -0.0493,-0.11088 -0.11273,-0.18665 -0.18665,-0.22792 -0.11518,-0.0628 -0.2778,-0.0936 -0.48908,-0.0893 l -0.002,-0.15646 1.79706,-0.0308 0.002,0.1583 h -0.10842 c -0.14537,0.002 -0.26487,0.037 -0.36096,0.1041 -0.0955,0.0672 -0.16508,0.16509 -0.20635,0.29752 -0.0308,0.0912 -0.0431,0.2544 -0.0431,0.48909 l 0.037,2.19043 c 0.0123,0.67801 -0.0246,1.16906 -0.0955,1.47114 -0.0758,0.30183 -0.26734,0.58025 -0.57594,0.83878 -0.30614,0.25625 -0.73018,0.38868 -1.26911,0.39792 -0.44781,0.006 -0.79529,-0.0493 -1.04303,-0.18233 -0.33695,-0.17617 -0.57779,-0.40408 -0.71928,-0.68669 -0.14353,-0.28027 -0.21744,-0.66058 -0.22607,-1.14086 l -0.0431,-2.82279 c -0.006,-0.33263 -0.0246,-0.53898 -0.0616,-0.6193 -0.037,-0.0807 -0.0912,-0.14353 -0.1737,-0.19096 -0.0825,-0.0431 -0.23469,-0.0653 -0.45398,-0.0616 z"
       style="fill:#3fa535;fill-opacity:1;fill-rule:nonzero;stroke:none;stroke-width:2.17304" />
    <path
       id="path7537"
       d="m 145.10841,124.4054 -0.23469,1.54285 -0.13675,-0.0185 c -0.0246,-0.36959 -0.0758,-0.6389 -0.15214,-0.80841 -0.0739,-0.17186 -0.19096,-0.31539 -0.34742,-0.43489 -0.0893,-0.0653 -0.25193,-0.11518 -0.49093,-0.15214 l -0.38253,-0.0616 -0.67148,4.40038 c -0.0431,0.29135 -0.0554,0.47615 -0.0369,0.55191 0.0185,0.0782 0.0653,0.14969 0.14105,0.21744 0.0758,0.0696 0.18665,0.11273 0.33448,0.1349 l 0.1694,0.0246 -0.0246,0.15646 -2.68592,-0.40839 0.0246,-0.15646 0.17186,0.0246 c 0.14783,0.0246 0.27349,0.0123 0.37143,-0.0308 0.0721,-0.0308 0.1349,-0.0893 0.18664,-0.17802 0.037,-0.0628 0.0782,-0.239 0.12197,-0.52358 l 0.66926,-4.40038 -0.36959,-0.0554 c -0.34556,-0.0493 -0.61043,-0.006 -0.79098,0.13059 -0.2544,0.19342 -0.4435,0.49525 -0.56485,0.90839 l -0.14353,-0.0246 0.23469,-1.54285 z"
       style="fill:#3fa535;fill-opacity:1;fill-rule:nonzero;stroke:none;stroke-width:2.17304" />
    <path
       id="path7538"
       d="m 147.92097,125.5534 -0.71275,2.23823 0.0979,0.0308 c 0.31292,0.0998 0.57595,0.0628 0.78667,-0.11088 0.21067,-0.1737 0.40408,-0.46753 0.57779,-0.88227 l 0.13921,0.0431 -0.91707,2.87928 -0.13922,-0.0431 c 0.0696,-0.32154 0.0912,-0.5975 0.0616,-0.82794 -0.0308,-0.23038 -0.0955,-0.39977 -0.19773,-0.50818 -0.10225,-0.10842 -0.27164,-0.2002 -0.50633,-0.27596 l -0.49525,1.54937 c -0.0955,0.30183 -0.14352,0.49094 -0.14106,0.56732 0.002,0.0739 0.0246,0.14352 0.0758,0.20635 0.0493,0.0628 0.14537,0.11704 0.28458,0.16324 l 0.29752,0.0936 c 0.46076,0.14783 0.86921,0.14783 1.22346,-0.002 0.35419,-0.14783 0.66926,-0.44781 0.94743,-0.89311 l 0.1349,0.0431 -0.78013,1.67762 -4.27651,-1.3647 0.0493,-0.14968 0.16508,0.0493 c 0.14353,0.0431 0.26734,0.0554 0.3739,0.0246 0.0758,-0.0185 0.14538,-0.0671 0.20882,-0.14968 0.0493,-0.0554 0.11519,-0.22175 0.20204,-0.49771 l 1.15392,-3.61377 c 0.0801,-0.25009 0.12135,-0.40408 0.12812,-0.46506 0.006,-0.10226 -0.0123,-0.18911 -0.0653,-0.26056 -0.0671,-0.10657 -0.18233,-0.1848 -0.3431,-0.23469 l -0.16324,-0.0493 0.0493,-0.14968 4.13964,1.32121 -0.51928,1.62323 -0.13921,-0.0431 c 0.0554,-0.41948 0.0493,-0.73671 -0.0246,-0.94965 -0.0714,-0.21313 -0.21313,-0.39793 -0.41948,-0.55439 -0.12196,-0.0912 -0.36959,-0.19772 -0.74318,-0.31722 z"
       style="fill:#3fa535;fill-opacity:1;fill-rule:nonzero;stroke:none;stroke-width:2.17304" />
    <path
       id="path7539"
       d="m 152.24312,129.67197 c 0.32401,0.16324 0.5821,0.24331 0.77792,0.239 0.19342,-0.002 0.36959,-0.0554 0.52605,-0.16323 0.15646,-0.10657 0.29136,-0.27165 0.40655,-0.49956 0.11518,-0.22792 0.16939,-0.43489 0.16077,-0.62153 -0.006,-0.18664 -0.0671,-0.35665 -0.17802,-0.50818 -0.11273,-0.15215 -0.33694,-0.31046 -0.66926,-0.47554 z m -0.14968,0.29567 -0.83231,1.65366 -0.0998,0.18664 c -0.0671,0.13675 -0.0893,0.25625 -0.0616,0.3585 0.0246,0.0998 0.10225,0.18233 0.22606,0.24332 0.18233,0.0936 0.37144,0.13243 0.57163,0.1195 0.2002,-0.0123 0.38253,-0.0825 0.55192,-0.21313 0.16755,-0.12813 0.30429,-0.29752 0.41086,-0.50819 0.12135,-0.24146 0.18048,-0.48231 0.17617,-0.72359 -0.004,-0.24146 -0.0739,-0.44535 -0.21067,-0.60859 -0.13921,-0.16508 -0.38252,-0.33447 -0.73227,-0.50818 m 1.3429,0.43427 c 0.38252,0.33447 0.62152,0.6302 0.71712,0.88011 0.13921,0.36096 0.11704,0.72359 -0.0696,1.09084 -0.19341,0.38683 -0.49524,0.63673 -0.90395,0.74971 -0.49771,0.13243 -1.07568,0.0308 -1.73195,-0.29752 l -2.35557,-1.18866 0.0696,-0.13921 c 0.21498,0.10841 0.37143,0.15892 0.46938,0.15215 0.0979,-0.004 0.18233,-0.037 0.24762,-0.0912 0.0671,-0.0554 0.16939,-0.22175 0.31107,-0.49956 l 1.68624,-3.34428 c 0.13922,-0.27842 0.21313,-0.46075 0.21745,-0.55007 0.006,-0.0868 -0.0185,-0.17186 -0.0739,-0.2544 -0.0554,-0.0825 -0.18911,-0.17617 -0.40224,-0.28273 l 0.0696,-0.14106 2.22301,1.11911 c 0.53221,0.26918 0.88227,0.51065 1.04957,0.72797 0.16754,0.21497 0.26302,0.46075 0.28458,0.73449 0.0246,0.27411 -0.0246,0.5279 -0.14352,0.76271 -0.12628,0.24762 -0.31723,0.4281 -0.57779,0.54083 -0.25871,0.11087 -0.62146,0.12196 -1.08653,0.0308"
       style="fill:#3fa535;fill-opacity:1;fill-rule:nonzero;stroke:none;stroke-width:2.17304" />
    <path
       id="path7540"
       d="m 159.16433,131.07357 c -0.38252,-0.28273 -0.83225,-0.28027 -1.35164,0.004 -0.42564,0.23716 -0.88443,0.68664 -1.3777,1.35159 -0.58457,0.79098 -0.89311,1.46899 -0.92354,2.03396 -0.0246,0.39361 0.12627,0.70629 0.43919,0.93876 0.21067,0.15645 0.43057,0.22791 0.65627,0.21928 0.28889,-0.0123 0.60181,-0.14105 0.93875,-0.38683 0.33879,-0.24578 0.69754,-0.62584 1.08,-1.14086 0.45398,-0.6129 0.74102,-1.11042 0.8649,-1.49067 0.12196,-0.38006 0.14968,-0.69322 0.085,-0.93444 -0.0671,-0.24331 -0.2045,-0.44104 -0.41086,-0.59565 m 0.12628,-0.24578 c 0.68454,0.46507 1.06478,1.08 1.14086,1.84486 0.0764,0.76708 -0.14106,1.49289 -0.64974,2.18174 -0.43488,0.58641 -0.97356,0.99093 -1.61455,1.20825 -0.84968,0.28889 -1.64719,0.15645 -2.3969,-0.39793 -0.74971,-0.55623 -1.12127,-1.26904 -1.11258,-2.13825 0.004,-0.68669 0.23469,-1.33643 0.68885,-1.94927 0.51065,-0.68885 1.14739,-1.10605 1.90794,-1.25383 0.76055,-0.14783 1.44071,0.0185 2.03612,0.50449"
       style="fill:#3fa535;fill-opacity:1;fill-rule:nonzero;stroke:none;stroke-width:2.17304" />
    <path
       id="path7541"
       d="m 162.82885,139.25748 -1.59285,1.26689 -3.20089,-3.31607 0.11273,-0.11088 0.1195,0.12382 c 0.1041,0.10841 0.21066,0.17617 0.31723,0.19957 0.0739,0.0185 0.1583,0.006 0.25194,-0.0308 0.0696,-0.0308 0.20635,-0.14105 0.41516,-0.3431 l 2.72936,-2.6359 c 0.21312,-0.2045 0.33693,-0.3431 0.36958,-0.41517 0.037,-0.0714 0.0431,-0.15646 0.0246,-0.25625 -0.0185,-0.0998 -0.0807,-0.20204 -0.18233,-0.30614 l -0.1195,-0.12381 0.11334,-0.11088 1.92309,1.99264 -0.11273,0.10841 -0.15645,-0.16323 c -0.1041,-0.10657 -0.21067,-0.17371 -0.31723,-0.19773 -0.0739,-0.0246 -0.15892,-0.0123 -0.25625,0.0308 -0.0671,0.0246 -0.20635,0.14106 -0.41517,0.34126 l -2.64237,2.55336 c -0.21313,0.20635 -0.33694,0.34741 -0.3739,0.42564 -0.037,0.0782 -0.037,0.16323 -0.006,0.2544 0.0246,0.0628 0.12381,0.18233 0.29567,0.36096 l 0.29998,0.31046 c 0.19096,0.19773 0.3893,0.32585 0.59566,0.38252 0.2045,0.0616 0.43673,0.0554 0.69759,-0.0123 0.26056,-0.0653 0.59566,-0.21313 1.00608,-0.44104 z"
       style="fill:#3fa535;fill-opacity:1;fill-rule:nonzero;stroke:none;stroke-width:2.17304" />
    <path
       id="path7542"
       d="m 168.25669,141.01789 -3.84408,2.34036 c -0.20451,0.12381 -0.32401,0.20881 -0.3585,0.25439 -0.037,0.0431 -0.0554,0.0955 -0.0493,0.15215 0,0.0801 0.0308,0.17617 0.0998,0.2889 0.22175,0.36281 0.53036,0.55623 0.92354,0.58025 0.53035,0.037 1.19081,-0.18664 1.97526,-0.66279 0.63236,-0.38684 1.08221,-0.7823 1.35164,-1.19082 0.20882,-0.32154 0.29999,-0.62799 0.27165,-0.91485 -0.0246,-0.20204 -0.14352,-0.48478 -0.36712,-0.84747 m -5.67817,1.1387 0.1349,-0.0825 0.0893,0.14784 c 0.0807,0.12812 0.16323,0.21313 0.24762,0.2544 0.0868,0.0431 0.18048,0.0554 0.27596,0.0431 0.0628,-0.0123 0.22175,-0.0955 0.47615,-0.25009 l 3.24215,-1.97311 c 0.25194,-0.15215 0.40224,-0.26056 0.44967,-0.324 0.0493,-0.0616 0.0758,-0.14353 0.0782,-0.24578 0.002,-0.10225 -0.037,-0.21498 -0.11088,-0.33879 l -0.0893,-0.14783 0.1349,-0.0825 1.20825,1.98617 c 0.324,0.53036 0.50202,1.00392 0.53898,1.4255 0.0431,0.51311 -0.0696,0.99308 -0.3431,1.43856 -0.27411,0.44535 -0.66064,0.82141 -1.1626,1.1278 -0.34557,0.21066 -0.69538,0.35419 -1.04957,0.43242 -0.35172,0.0764 -0.67363,0.0936 -0.9605,0.0493 -0.28704,-0.0431 -0.55191,-0.1349 -0.79313,-0.27165 -0.24147,-0.13921 -0.48478,-0.33879 -0.73234,-0.60181 -0.10841,-0.11519 -0.25194,-0.31539 -0.42564,-0.60182 z"
       style="fill:#3fa535;fill-opacity:1;fill-rule:nonzero;stroke:none;stroke-width:2.17304" />
    <path
       id="path7543"
       d="m 171.10769,146.46851 -2.17521,0.88443 0.037,0.0955 c 0.12381,0.30615 0.3197,0.48232 0.58888,0.53467 0.26918,0.0493 0.61715,0.0123 1.04957,-0.12196 l 0.0554,0.1349 -2.79883,1.1387 -0.0554,-0.1349 c 0.29321,-0.15215 0.51743,-0.31292 0.67579,-0.48478 0.15646,-0.16939 0.24578,-0.32831 0.26303,-0.47615 0.0185,-0.14783 -0.0185,-0.33694 -0.11273,-0.56485 l -1.50588,0.61043 c -0.29321,0.11951 -0.46939,0.20451 -0.52605,0.2544 -0.0554,0.0493 -0.0936,0.11273 -0.11088,0.19096 -0.0185,0.0782 0.002,0.18664 0.0616,0.324 l 0.11765,0.28705 c 0.18233,0.44967 0.44351,0.76271 0.78661,0.93875 0.34125,0.17802 0.77145,0.22792 1.293,0.154 l 0.0493,0.13243 -1.78622,0.47369 -1.69062,-4.15706 0.14537,-0.0616 0.0653,0.15831 c 0.0554,0.13921 0.13059,0.24146 0.21929,0.30429 0.0628,0.0431 0.14537,0.0671 0.24763,0.0653 0.0739,0 0.24331,-0.0554 0.51249,-0.16262 l 3.5138,-1.42988 c 0.24331,-0.0998 0.38868,-0.16508 0.43919,-0.20019 0.0825,-0.0616 0.1349,-0.13244 0.15892,-0.21744 0.037,-0.1195 0.0246,-0.25871 -0.0369,-0.41517 l -0.0653,-0.15892 0.14537,-0.0616 1.63844,4.02444 -1.5798,0.64321 -0.0554,-0.1349 c 0.3585,-0.22607 0.5975,-0.43488 0.71497,-0.62799 0.11703,-0.19096 0.16939,-0.41702 0.15646,-0.67586 -0.006,-0.15214 -0.085,-0.41086 -0.23284,-0.77576 z"
       style="fill:#3fa535;fill-opacity:1;fill-rule:nonzero;stroke:none;stroke-width:2.17304" />
    <path
       id="path7544"
       d="m 170.20904,156.21738 3.96143,0.87574 0.28889,2.09483 -0.15646,0.0246 -0.0246,-0.16754 c -0.0246,-0.15215 -0.0671,-0.26919 -0.13922,-0.35173 -0.0493,-0.0616 -0.1195,-0.0998 -0.21929,-0.12381 -0.0696,-0.0185 -0.24762,-0.006 -0.5322,0.0308 l -3.76801,0.51927 c -0.29136,0.037 -0.47184,0.0807 -0.54083,0.11765 -0.0696,0.037 -0.12628,0.1041 -0.16755,0.19773 -0.0431,0.0936 -0.0554,0.21067 -0.037,0.35666 l 0.0246,0.16754 -0.15461,0.0185 -0.37144,-2.6837 0.15646,-0.0246 0.0246,0.16755 c 0.0246,0.14968 0.0671,0.26733 0.13921,0.35234 0.0493,0.0554 0.12381,0.0979 0.2236,0.12135 0.0721,0.0185 0.25009,0.006 0.53652,-0.0308 l 4.23523,-0.58457 -5.48474,-1.25383 -0.0123,-0.0893 4.90018,-2.71845 -4.02666,0.55623 c -0.28027,0.037 -0.45213,0.0696 -0.51496,0.0893 -0.1349,0.0493 -0.24147,0.14106 -0.31292,0.26303 -0.0739,0.12134 -0.0936,0.29998 -0.0628,0.53651 l -0.15399,0.0246 -0.24332,-1.76016 0.15646,-0.0246 0.006,0.0493 c 0.0123,0.11519 0.0493,0.21744 0.10657,0.31107 0.0554,0.0912 0.12381,0.15831 0.2045,0.19958 0.0801,0.037 0.18911,0.0653 0.32401,0.0739 0.0308,0.002 0.17617,-0.0123 0.43057,-0.0493 l 3.61808,-0.49956 c 0.28889,-0.037 0.46691,-0.0782 0.53467,-0.11704 0.0671,-0.037 0.12381,-0.10225 0.16508,-0.19527 0.0431,-0.0936 0.0554,-0.21312 0.037,-0.35665 l -0.0246,-0.16323 0.15646,-0.0246 0.2889,2.10135 z"
       style="fill:#3fa535;fill-opacity:1;fill-rule:nonzero;stroke:none;stroke-width:2.17304" />
    <path
       id="path7545"
       d="m 170.41761,163.28889 2.03397,-0.64105 -1.93184,-0.92569 z m -0.32154,0.10842 0.1195,-1.82971 -0.54761,-0.2544 c -0.18048,-0.0825 -0.33263,-0.13059 -0.45397,-0.13675 -0.16078,-0.0123 -0.28459,0.037 -0.36959,0.15215 -0.0493,0.0653 -0.0936,0.23222 -0.1349,0.50202 l -0.15646,-0.0123 0.11272,-1.7232 0.15646,0.0123 c 0.0185,0.18664 0.0955,0.34556 0.22607,0.47615 0.13243,0.12813 0.4127,0.29567 0.84099,0.49956 l 4.47208,2.15347 -0.006,0.0714 -4.84154,1.56028 c -0.46075,0.14783 -0.75187,0.27596 -0.87352,0.38252 -0.0936,0.0825 -0.154,0.2002 -0.17802,0.3585 l -0.15646,-0.0123 0.16508,-2.50765 0.15646,0.0123 -0.006,0.1041 c -0.0123,0.20019 0.006,0.3431 0.0653,0.43057 0.0431,0.0616 0.1041,0.0912 0.1891,0.0955 0.0493,0.004 0.1041,0 0.15831,-0.0123 0.0246,-0.002 0.1349,-0.037 0.32585,-0.0936 z"
       style="fill:#3fa535;fill-opacity:1;fill-rule:nonzero;stroke:none;stroke-width:2.17304" />
    <path
       id="path7546"
       d="m 172.90401,171.71248 -1.94705,-0.45829 0.037,-0.14537 c 0.53467,0.0123 0.97134,-0.10225 1.31247,-0.33694 0.34125,-0.23469 0.55623,-0.53898 0.64542,-0.91701 0.0739,-0.31538 0.0431,-0.62805 -0.0979,-0.93875 -0.13921,-0.31292 -0.35665,-0.56732 -0.65404,-0.76493 -0.38006,-0.25624 -0.82579,-0.4435 -1.33643,-0.563 -0.50203,-0.1195 -0.97356,-0.17186 -1.41251,-0.15461 -0.43919,0.0185 -0.79313,0.12196 -1.06256,0.31723 -0.26734,0.19341 -0.44782,0.48231 -0.54145,0.87136 -0.0739,0.31723 -0.0653,0.62799 0.0246,0.92791 0.0936,0.29999 0.29321,0.64321 0.60181,1.02567 l -0.48478,-0.11519 c -0.26055,-0.36096 -0.43057,-0.71275 -0.50448,-1.05394 -0.0758,-0.34125 -0.0653,-0.71706 0.0308,-1.1278 0.12627,-0.53898 0.3585,-0.9887 0.69759,-1.34942 0.33879,-0.36281 0.76055,-0.60428 1.26467,-0.72581 0.50449,-0.12197 1.01046,-0.12197 1.51679,-0.002 0.53652,0.12813 1.01483,0.3739 1.43419,0.73881 0.42133,0.36528 0.71497,0.79314 0.87795,1.28641 0.16262,0.48909 0.18911,0.97572 0.0739,1.45815 -0.0825,0.35665 -0.25871,0.7106 -0.52173,1.06478 -0.154,0.20451 -0.23716,0.33879 -0.25194,0.40224 -0.0185,0.0782 -0.002,0.15461 0.0493,0.22853 0.0493,0.0739 0.14537,0.13675 0.28273,0.18664 z"
       style="fill:#3fa535;fill-opacity:1;fill-rule:nonzero;stroke:none;stroke-width:2.17304" />
    <path
       id="path7547"
       d="m 167.72689,174.13476 2.13172,0.0696 -1.51457,-1.51242 z m -0.34126,-0.004 0.7215,-1.68625 -0.43242,-0.42133 c -0.14352,-0.13921 -0.27164,-0.23284 -0.38252,-0.28027 -0.14968,-0.0628 -0.28274,-0.0554 -0.39977,0.0246 -0.0671,0.0431 -0.16508,0.18911 -0.29321,0.42811 l -0.14352,-0.0616 0.67795,-1.58849 0.14352,0.0616 c -0.0431,0.18479 -0.0246,0.3585 0.0554,0.52358 0.0825,0.16509 0.29136,0.41517 0.62583,0.74965 l 3.50511,3.51601 -0.0308,0.0671 -5.08492,-0.13675 c -0.48231,-0.0123 -0.79966,0.0123 -0.95181,0.0739 -0.11519,0.0431 -0.21067,0.13674 -0.28458,0.27842 l -0.14538,-0.0628 0.98656,-2.30993 0.14537,0.0628 -0.0431,0.0936 c -0.0782,0.18664 -0.10656,0.32832 -0.0807,0.42811 0.0185,0.0696 0.0671,0.12196 0.14783,0.15399 0.0431,0.0185 0.0979,0.037 0.15215,0.0431 0.0246,0.004 0.13921,0.0123 0.33879,0.0185 z"
       style="fill:#3fa535;fill-opacity:1;fill-rule:nonzero;stroke:none;stroke-width:2.17304" />
    <path
       id="path7548"
       d="m 169.89514,178.57475 -1.44725,2.25559 -0.13243,-0.085 0.0739,-0.11273 c 0.10842,-0.16939 0.16324,-0.29752 0.16324,-0.38683 0.002,-0.0893 -0.0246,-0.1694 -0.0758,-0.239 -0.0493,-0.0715 -0.21497,-0.19773 -0.4934,-0.3739 l -2.37731,-1.52548 c -0.43489,-0.27781 -0.74102,-0.43242 -0.91923,-0.46506 -0.18048,-0.0308 -0.3585,-0.006 -0.53898,0.0671 -0.18048,0.0758 -0.33694,0.21744 -0.46938,0.42379 -0.14968,0.23469 -0.21929,0.47554 -0.20881,0.71707 0.0123,0.24331 0.0936,0.47184 0.25008,0.68669 0.154,0.21744 0.48909,0.49094 1.00393,0.82141 l 1.98179,1.26904 c 0.21744,0.13921 0.38437,0.21744 0.50449,0.23715 0.1195,0.0185 0.21744,0.006 0.2932,-0.0308 0.11704,-0.0616 0.23038,-0.18048 0.34311,-0.35665 l 0.13243,0.085 -0.96918,1.51241 -0.13244,-0.085 0.0616,-0.0912 c 0.0782,-0.12196 0.11704,-0.24146 0.11519,-0.3585 -0.004,-0.11703 -0.0493,-0.22791 -0.1349,-0.33694 -0.0616,-0.0758 -0.18664,-0.17802 -0.38437,-0.30429 l -1.84492,-1.18429 c -0.57163,-0.36527 -0.9605,-0.66279 -1.17129,-0.89317 -0.20882,-0.23037 -0.33694,-0.54329 -0.38006,-0.94306 -0.0431,-0.39793 0.0782,-0.82357 0.36959,-1.27773 0.24146,-0.37821 0.48662,-0.63458 0.73012,-0.7693 0.33263,-0.18233 0.65626,-0.25624 0.96918,-0.21929 0.31292,0.037 0.67148,0.1848 1.07569,0.44536 l 2.37731,1.52332 c 0.28027,0.18048 0.4626,0.27595 0.54946,0.2932 0.085,0.0123 0.16939,0.002 0.2544,-0.0431 0.085,-0.0431 0.18664,-0.15646 0.30183,-0.3431 z"
       style="fill:#3fa535;fill-opacity:1;fill-rule:nonzero;stroke:none;stroke-width:2.17304" />
    <path
       id="path7549"
       d="m 114.84488,186.8234 -0.18233,-0.0616 0.24578,0.22175 0.43241,-0.47615 -0.34741,-0.27843 c -0.0246,0.21067 -0.0868,0.44782 -0.14783,0.59135 m 1.69062,0.95612 -0.57595,0.15646 0.31539,0.28705 -0.38438,0.42379 -0.76708,-0.69322 c 0.1195,0.31969 0.31723,0.91922 0.36959,1.10827 l -0.6432,0.18048 c -0.0246,-0.20882 -0.0998,-0.61715 -0.17186,-0.96481 l -0.44351,0.49094 -0.51496,-0.46753 0.478,-0.5279 c -0.39115,0.0671 -0.80182,0.0825 -1.1517,0.002 0.0308,-0.18665 0.0308,-0.49956 0.006,-0.69538 0.38253,0.14537 0.85184,0.18479 1.24952,0.1349 l -0.58703,-0.53221 0.38437,-0.4238 0.27165,0.24332 c 0.0554,-0.14969 0.0998,-0.3431 0.12135,-0.49771 l 0.39546,0.14537 -0.26303,-0.22607 c 0.0739,-0.1195 0.16324,-0.32154 0.20451,-0.47122 0.64105,0.52173 1.45815,1.12127 1.98185,1.39507 l -0.0308,0.63021 c -0.26733,-0.14784 -0.57163,-0.34126 -0.88442,-0.55438 l -0.478,0.53035 0.28458,0.25625 -0.0893,-0.18664 c 0.19341,-0.0714 0.48231,-0.19527 0.63667,-0.29136 z m 1.05394,-2.28165 c -0.239,0.11087 -0.46938,0.20882 -0.69107,0.29998 l 1.73195,1.5689 -2.84453,3.14439 -0.70838,-0.64105 2.29034,-2.53371 -2.49897,-2.26218 -2.32083,2.56635 -0.6758,-0.6129 2.87275,-3.17697 1.34727,1.21908 c 0.25625,-0.14352 0.52605,-0.31045 0.7215,-0.46075 z m -3.33997,3.45947 -0.34126,0.29998 1.83624,1.6624 -0.5821,0.64321 -1.59071,-1.43856 c -0.037,0.72797 0.29998,1.47983 1.03658,2.30993 -0.29321,0.002 -0.75624,0.12381 -1.02567,0.2544 -0.75624,-0.96488 -1.0192,-1.81234 -0.89318,-2.71851 -0.75186,0.2236 -1.62107,0.0554 -2.88358,-0.68669 0.10656,-0.24332 0.19342,-0.70407 0.19095,-0.9735 1.10174,0.71275 1.79275,0.89311 2.37516,0.73012 l -1.52116,-1.37554 0.5821,-0.64536 1.74057,1.57327 0.34125,-0.29998 z m -0.19773,-6.77554 c 0.22175,0.4934 0.46507,1.16907 0.49956,1.59933 l -1.02352,0.19773 c -0.0123,-0.41086 -0.21066,-1.11474 -0.41517,-1.6276 z m -2.79674,3.72674 0.23469,0.9844 c -0.87574,0.47369 -1.85361,0.94744 -2.72713,1.31684 l -0.31045,-1.05394 c 0.72359,-0.26918 1.83186,-0.74312 2.8032,-1.2473 m 0.91486,-2.2665 c 0.239,0.47369 0.48662,1.14523 0.53898,1.56681 l -1.02351,0.21067 c -0.0246,-0.39978 -0.23901,-1.09522 -0.46076,-1.58849 z"
       style="fill:#3fa535;fill-opacity:1;fill-rule:nonzero;stroke:none;stroke-width:2.17304" />
    <path
       id="path7550"
       d="m 123.84016,191.94589 -0.21313,0.44104 1.14301,0.55191 0.21313,-0.44104 z m 1.63413,-0.46076 -1.14301,-0.55438 -0.18911,0.39115 1.14302,0.55192 z m 1.22124,-0.28889 -2.67938,5.54123 c -0.24578,0.50634 -0.47801,0.71281 -0.854,0.70191 -0.38868,-0.006 -0.87789,-0.2236 -1.57543,-0.56054 0.0868,-0.26734 0.14537,-0.75624 0.12812,-1.05394 0.44782,0.25193 0.98225,0.50202 1.14086,0.57779 0.14352,0.0696 0.21929,0.0431 0.28705,-0.0979 l 1.28641,-2.6598 -1.96227,-0.94959 1.38861,-2.87275 2.42942,1.1756 z m -6.06931,-0.80404 -0.20204,0.41948 1.09306,0.5279 0.20204,-0.41949 z m 1.58418,-0.48663 -1.09306,-0.52789 -0.1891,0.38868 1.09305,0.53036 z m 1.14954,-0.324 -1.38207,2.85969 -1.89925,-0.91701 -1.8145,3.75501 -0.85615,-0.41517 3.19873,-6.61254 z"
       style="fill:#3fa535;fill-opacity:1;fill-rule:nonzero;stroke:none;stroke-width:2.17304" />
    <path
       id="path7551"
       d="m 130.32926,194.12461 3.67894,0.62368 0.18664,-1.10828 -3.67894,-0.62367 z m 0.13244,1.58633 c -0.10225,0.31538 -0.22175,0.62584 -0.36528,0.94307 0.15646,0.67585 0.48663,1.14738 0.93876,1.48857 l 0.48662,-2.86843 -2.30771,-0.39115 0.50203,-2.9575 5.64989,0.95828 -0.50203,2.9575 -2.35341,-0.39977 -0.16939,0.9953 2.60984,0.44104 -0.15215,0.89749 -2.60978,-0.44105 -0.21929,1.29947 c 0.38006,0.13059 0.79098,0.22607 1.22993,0.29999 0.34125,0.0671 1.532,0.26056 1.97964,0.32831 -0.17186,0.19527 -0.40224,0.62147 -0.4934,0.88006 l -1.69931,-0.28705 c -1.61239,-0.2735 -2.80757,-0.77577 -3.42688,-2.16215 -0.37144,0.58703 -0.8171,1.08437 -1.36902,1.39729 -0.12196,-0.21067 -0.39545,-0.58211 -0.56916,-0.7693 0.98002,-0.54083 1.5559,-1.80575 1.86445,-2.90096 z"
       style="fill:#3fa535;fill-opacity:1;fill-rule:nonzero;stroke:none;stroke-width:2.17304" />
    <path
       id="path7552"
       d="m 141.4012,194.81303 c 0.37821,0.39361 0.80835,0.94091 0.99961,1.32552 l -0.76493,0.48478 c -0.1737,-0.38006 -0.5821,-0.95397 -0.95612,-1.37333 z m 2.56851,-3.00968 c 0.41086,0.1891 0.94097,0.48909 1.21477,0.71928 l -0.43673,0.56054 0.64758,-0.085 0.11765,0.89533 -2.09704,0.27411 0.0308,0.24578 c 0.15892,0.51496 0.33448,0.96918 0.53652,1.36901 0.2544,-0.42564 0.52789,-1.03004 0.67801,-1.4842 l 0.92138,0.33263 c -0.29567,0.55623 -0.63452,1.16907 -0.91707,1.56459 l -0.5821,-0.22607 c 0.48046,0.86484 1.12127,1.47768 2.09482,1.96874 -0.20019,0.20204 -0.43057,0.55007 -0.51064,0.83662 -0.80404,-0.46506 -1.39729,-0.98218 -1.86667,-1.63191 l 0.17617,1.34942 c 0.0628,0.48478 -0.002,0.76055 -0.26918,0.95397 -0.26487,0.20204 -0.67148,0.29752 -1.28863,0.37821 -0.0758,-0.25871 -0.29567,-0.66495 -0.46075,-0.91054 0.40407,-0.037 0.79098,-0.0868 0.91485,-0.10225 0.13059,-0.0246 0.1737,-0.0739 0.15892,-0.19773 l -0.563,-4.32437 -1.94921,0.2544 -0.0955,-0.74971 -0.80619,0.10411 0.18048,1.39076 0.79751,-0.10411 0.11703,0.90402 -0.7975,0.1041 0.18233,1.40597 0.85399,-0.36959 0.17802,0.59566 1.26036,-0.99093 0.40839,0.76492 c -0.56732,0.53467 -1.20387,1.09306 -1.73411,1.52985 l -0.56485,-0.7454 c -0.70844,0.3431 -1.40813,0.66717 -1.9927,0.9366 l -0.37574,-0.89748 1.04741,-0.42811 -0.21744,-1.67762 -0.86268,0.11273 -0.1195,-0.90402 0.86483,-0.11272 -0.18048,-1.39076 -0.92132,0.12135 -0.1195,-0.91264 2.77283,-0.36096 0.0979,0.76486 1.85799,-0.24146 -0.18049,-1.39076 0.94744,-0.12197 0.18048,1.38861 1.306,-0.1694 c -0.26302,-0.23222 -0.72796,-0.52358 -1.11265,-0.71712 z"
       style="fill:#3fa535;fill-opacity:1;fill-rule:nonzero;stroke:none;stroke-width:2.17304" />
    <path
       id="path7553"
       d="m 154.79617,193.20797 c 0.59134,0.34556 1.20819,0.88005 1.53416,1.30384 l -0.55869,0.64536 c -0.30615,-0.42133 -0.93007,-0.99092 -1.50158,-1.3538 z m -2.7663,-2.04481 0.44103,0.0554 c 0.0246,-0.13675 0.0493,-0.2735 0.0493,-0.41271 l -0.47553,0.20451 z m 0.0493,-0.9714 0.006,0.28705 0.49771,-0.21313 0.0893,-0.0653 0.43057,-0.0123 c 0.0554,0.40224 0.0369,0.7823 -0.0431,1.13217 0.2236,0.037 0.41947,0.0936 0.58456,0.13922 l -0.21745,0.59996 c -0.15645,-0.0493 -0.34124,-0.0979 -0.54328,-0.14783 -0.10842,0.27349 -0.25441,0.52604 -0.43057,0.75408 l 1.51026,-0.64321 -0.96703,-2.27087 -1.2104,0.51742 z m -0.99093,0.90186 0.35665,0.0123 c 0.0493,-0.24762 0.0653,-0.48908 0.0493,-0.71059 l -1.00392,0.42811 0.96696,2.26865 0.62153,-0.26302 c -0.11519,-0.0782 -0.26488,-0.15215 -0.37822,-0.1848 0.23469,-0.23469 0.43489,-0.53036 0.57779,-0.85399 l -0.39977,-0.0653 c -0.0671,0.20205 -0.14969,0.39115 -0.2544,0.59135 -0.14783,-0.0912 -0.4127,-0.18049 -0.56916,-0.1848 0.0893,-0.15646 0.16508,-0.31538 0.22606,-0.46691 l -0.42626,-0.0246 z m 1.91225,2.93576 c -0.27165,-0.0653 -0.55623,-0.11704 -0.81273,-0.14353 l 0.2002,-0.40223 -1.36464,0.5821 -1.53638,-3.60293 1.4494,-0.61715 c -0.0246,-0.29136 -0.0696,-0.58888 -0.12135,-0.81919 l 1.07784,-0.29567 -0.037,0.72143 1.61892,-0.68885 1.53416,3.60293 -2.05355,0.87568 c 0.43488,0.0616 0.89317,0.16077 1.17781,0.29567 l -0.36281,0.74318 c -0.1737,-0.0893 -0.43488,-0.1694 -0.71712,-0.239 l 0.50633,1.18866 c 0.0782,0.18479 0.11088,0.19772 0.27165,0.12812 0.0696,-0.0308 0.35234,-0.14968 0.43673,-0.18664 0.13921,-0.0616 0.13921,-0.13921 -0.0431,-0.64105 0.19342,0.0554 0.57778,0.0431 0.82363,0.002 0.25193,0.82578 0.12381,1.11696 -0.37575,1.32775 -0.13675,0.0616 -0.52173,0.2236 -0.65848,0.28273 -0.69101,0.29321 -0.93438,0.12628 -1.23424,-0.58025 l -0.51927,-1.21687 z m -0.73012,0.59996 c 0.19095,0.70622 0.32831,1.42766 0.0936,2.00785 l -0.81273,-0.0782 c 0.2002,-0.51065 0.12381,-1.15823 -0.0616,-1.79706 z m -1.67978,-0.19773 c 0.3739,0.36528 0.7693,0.86705 0.98655,1.22777 l -0.55623,0.48231 c -0.20204,-0.36712 -0.59565,-0.88879 -0.95397,-1.26035 z m -2.41206,-0.32154 0.12135,-0.58641 c -0.36096,-0.2544 -0.90832,-0.53652 -1.37117,-0.72797 l 0.19096,-0.78882 0.25871,0.0979 c 0.0308,-0.51927 0.0308,-1.12564 -0.0185,-1.57543 l 0.89964,-0.0616 c -0.0493,0.65411 -0.1041,1.39507 -0.18911,1.93837 0.13675,0.0671 0.26734,0.13921 0.37575,0.20204 0.0696,-0.53652 0.11272,-1.07132 0.13059,-1.52332 l 0.8583,0.0123 c -0.12196,0.82141 -0.28889,1.80796 -0.48477,2.625 l 0.6193,-0.31046 c -0.14968,-0.16077 -0.30183,-0.30429 -0.45829,-0.43673 l 0.4934,-0.50202 c 0.51311,0.41702 1.067,0.99524 1.33859,1.42113 l -0.53221,0.55438 c -0.0714,-0.12381 -0.16323,-0.25625 -0.27842,-0.39792 l -0.37821,0.19773 1.35602,3.18129 -0.77361,0.33016 -1.3299,-3.12043 -0.98656,0.51249 -0.43242,-0.75839 z m 0.98219,1.11258 c 0.23715,0.7693 0.39792,1.58855 0.38498,2.17306 -0.18664,-0.0308 -0.57347,-0.0431 -0.77582,-0.0308 0.0308,-0.54576 -0.14969,-1.28426 -0.36528,-1.96227 z"
       style="fill:#3fa535;fill-opacity:1;fill-rule:nonzero;stroke:none;stroke-width:2.17304" />
    <path
       id="path7554"
       d="m 160.99047,186.12863 c 0.0801,0.3585 0.16939,0.70191 0.21744,0.9605 l 0.52789,-0.44967 -0.66495,-0.78229 -0.67148,0.56916 z m -0.51496,1.58196 0.5821,-0.49525 -0.4626,0.21067 c -0.0758,-0.2544 -0.21313,-0.63021 -0.33263,-0.88227 l -0.45213,0.38437 z m -2.61853,-1.13217 1.34733,-1.14517 c -0.40839,0.0616 -0.79973,0.0807 -1.13217,0.0653 -0.0308,0.32585 -0.10841,0.68885 -0.21498,1.07999 m 0.88011,1.26258 c 0.27843,0.11519 0.61475,0.29752 0.79967,0.45213 l -0.31045,0.478 0.64758,-0.55007 -0.66495,-0.7823 z m 2.19911,3.15523 2.1709,-1.84708 -0.22175,-0.25871 -2.17084,1.84492 z m 1.53854,-2.59241 -0.21067,-0.24763 -2.17305,1.84708 0.21066,0.24763 z m -3.77023,-0.53652 -0.70191,0.59565 0.66495,0.7823 0.42811,-0.36281 c -0.18911,-0.16078 -0.49094,-0.35235 -0.76493,-0.47369 z m 3.918,-0.84962 1.78838,2.10566 -0.7714,0.65405 -0.1195,-0.14352 -2.17299,1.84492 0.14106,0.16755 -0.73234,0.62368 -1.80796,-2.12957 z m -2.74456,-1.69715 0.1848,0.21744 -2.19912,1.86667 -0.20019,-0.23469 c -0.13675,0.40408 -0.31292,0.81272 -0.50818,1.21256 l 3.9788,-3.37909 c -0.39793,0.12197 -0.82788,0.23284 -1.25599,0.31723 m -3.1118,3.7876 c -0.2236,-0.0893 -0.62368,-0.21929 -0.88658,-0.25193 0.76708,-1.17344 1.27772,-2.62291 1.32337,-3.61377 l 0.70191,-0.59566 c 1.27772,0.0616 2.68801,-0.30675 3.85714,-0.88226 -0.0123,0.29998 0.0431,0.691 0.0936,0.97787 l -0.45398,0.17185 1.37555,1.62108 -4.34389,3.68984 -1.38855,-1.63198 z"
       style="fill:#3fa535;fill-opacity:1;fill-rule:nonzero;stroke:none;stroke-width:2.17304" />
  </g>
</svg>
