<?xml version="1.0" encoding="UTF-8" standalone="no"?>
<!-- Created with Inkscape (http://www.inkscape.org/) -->

<svg
   width="72.841202mm"
   height="96.083389mm"
   viewBox="0 0 72.841202 96.083393"
   version="1.1"
   id="svg1"
   xmlns="http://www.w3.org/2000/svg"
   xmlns:svg="http://www.w3.org/2000/svg">
  <defs
     id="defs1" />
  <g
     id="layer1"
     transform="translate(-57.925765,-60.309056)">
    <path
       id="path7943"
       d="m 58.135051,60.518092 0.04148,34.6399 c 0,33.965808 26.756657,57.315158 36.17113,61.009888 9.411859,-3.69473 36.168519,-27.04408 36.168519,-61.009888 l 0.0415,-34.6399 z"
       style="fill:#ffffff;fill-opacity:1;fill-rule:evenodd;stroke:#000000;stroke-width:0.418072;stroke-linecap:butt;stroke-linejoin:miter;stroke-miterlimit:2.414;stroke-dasharray:none;stroke-opacity:1" />
    <path
       id="path7944"
       d="m 125.46736,98.654669 c -1.67229,22.071601 -11.31409,39.881551 -31.201287,52.321781 -8.925853,-6.1352 -17.608704,-13.15099 -23.636788,-24.8387 6.576809,-4.99596 17.634828,-12.92109 24.222088,-17.91446 0.365822,-0.50662 0.768211,-0.64291 1.084378,-0.43626 0.318788,2.57638 0.07333,5.21543 0.01555,7.80492 0.329232,1.71408 0.987697,2.79318 2.46402,2.46394 7.117689,-5.0978 18.941309,-13.67095 26.430039,-19.027474 z"
       style="fill:#009641;fill-opacity:1;fill-rule:evenodd;stroke:none;stroke-width:2.61296" />
    <path
       id="path7945"
       d="M 80.93047,87.554542 V 89.3261 h 0.125397 c 0.190725,0 0.344935,-0.02963 0.46774,-0.08888 0.120212,-0.05185 0.22213,-0.15184 0.305678,-0.287384 0.08362,-0.135545 0.138508,-0.318493 0.164654,-0.551066 h 0.109768 v 2.166119 H 81.993939 C 81.95246,90.154551 81.842395,89.885684 81.664706,89.75488 81.484425,89.626742 81.280589,89.5586 81.055867,89.5586 H 80.93047 v 1.319521 c 0,0.219241 0.01333,0.357749 0.03926,0.412559 0.0237,0.05185 0.07037,0.104436 0.141099,0.143692 0.07036,0.04444 0.167246,0.06666 0.287385,0.06666 h 0.143691 v 0.114805 h -2.252363 v -0.114805 h 0.141099 c 0.125397,0 0.227315,-0.02222 0.303086,-0.06666 0.05481,-0.02963 0.09666,-0.08073 0.128064,-0.154062 0.02074,-0.05185 0.03407,-0.182948 0.03407,-0.399967 v -2.837175 c 0,-0.219241 -0.01333,-0.357748 -0.03407,-0.412558 -0.0237,-0.05185 -0.07037,-0.102214 -0.143692,-0.143692 -0.07037,-0.04444 -0.164653,-0.05926 -0.287384,-0.05926 h -0.1411 V 87.30989 h 3.634614 v 1.235899 h -0.130656 c -0.02889,-0.290347 -0.10451,-0.504403 -0.227315,-0.645132 -0.122805,-0.138508 -0.297902,-0.237759 -0.530401,-0.295532 -0.125397,-0.02963 -0.360563,-0.04444 -0.702905,-0.04444 z"
       style="fill:#000000;fill-opacity:1;fill-rule:evenodd;stroke:none;stroke-width:2.61296" />
    <path
       id="path7946"
       d="m 86.627359,98.363285 -0.642763,-1.484174 -0.661056,1.484174 h 1.303862 m 0.107103,0.235536 h -1.520742 l -0.182873,0.420707 c -0.05777,0.138507 -0.08622,0.253312 -0.08622,0.345156 0,0.119991 0.04666,0.211835 0.143692,0.266645 0.05777,0.03703 0.198577,0.05926 0.423299,0.07851 v 0.117768 h -1.431897 v -0.117768 c 0.154134,-0.02222 0.279606,-0.08888 0.378857,-0.193317 0.09933,-0.104436 0.224723,-0.321455 0.368415,-0.648095 l 1.541644,-3.441273 h 0.06 l 1.554709,3.535339 c 0.148951,0.334788 0.269163,0.545881 0.365822,0.632541 0.07333,0.06666 0.175097,0.102214 0.305679,0.114805 v 0.117768 h -2.085015 v -0.117768 h 0.08622 c 0.167245,0 0.284791,-0.02222 0.352711,-0.07407 0.04666,-0.03703 0.07036,-0.08073 0.07036,-0.146654 0,-0.03703 -0.0081,-0.07851 -0.02074,-0.117768 -0.0026,-0.01481 -0.03407,-0.09925 -0.09407,-0.237759 z"
       style="fill:#000000;fill-opacity:1;fill-rule:evenodd;stroke:none;stroke-width:2.61296" />
    <path
       id="path7947"
       d="m 89.568503,68.777119 0.833531,-0.08073 c 0.04666,0.279236 0.148951,0.483664 0.303086,0.616986 0.154136,0.13036 0.360564,0.19628 0.619283,0.19628 0.27694,0 0.483368,-0.05925 0.624467,-0.177763 0.1411,-0.114805 0.20902,-0.25109 0.20902,-0.407374 0,-0.09925 -0.02889,-0.185911 -0.08881,-0.253312 -0.05777,-0.07407 -0.159395,-0.133323 -0.308345,-0.18517 -0.09933,-0.03703 -0.32664,-0.09703 -0.684611,-0.185911 -0.457296,-0.114806 -0.781277,-0.253313 -0.96418,-0.417744 -0.261312,-0.232573 -0.391968,-0.517735 -0.391968,-0.854448 0,-0.214057 0.06296,-0.415522 0.182874,-0.603654 0.122805,-0.191096 0.300494,-0.331825 0.530401,-0.431076 0.232573,-0.09703 0.509514,-0.146655 0.833539,-0.146655 0.533067,0 0.93282,0.117768 1.201953,0.347379 0.269163,0.235536 0.410263,0.545881 0.423299,0.935479 l -0.854434,0.03703 c -0.03629,-0.219241 -0.114953,-0.376265 -0.235166,-0.470332 -0.122804,-0.09629 -0.303086,-0.143692 -0.543511,-0.143692 -0.248202,0 -0.444185,0.05185 -0.582693,0.154062 -0.09147,0.06666 -0.138507,0.151839 -0.138507,0.26146 0,0.102214 0.04444,0.188133 0.128064,0.258497 0.107102,0.0911 0.371006,0.18517 0.786498,0.282199 0.41804,0.09925 0.726385,0.201465 0.924984,0.305901 0.198576,0.104436 0.355378,0.248128 0.467739,0.431076 0.112361,0.182948 0.167246,0.407374 0.167246,0.674019 0,0.242943 -0.06518,0.470331 -0.201169,0.682166 -0.133248,0.211834 -0.32664,0.368118 -0.572249,0.473294 -0.24561,0.104436 -0.553955,0.154062 -0.922377,0.154062 -0.535659,0 -0.945885,-0.122953 -1.233313,-0.371081 -0.287458,-0.245906 -0.459889,-0.608839 -0.514773,-1.081763 m -3.733909,1.376998 v -4.238171 h 3.14338 v 0.71846 h -2.286331 v 0.938071 h 2.126944 V 68.2879 h -2.126826 v 1.15235 h 2.367332 v 0.713274 h -3.22438 m -2.869024,0 -1.512906,-4.238171 h 0.927598 l 1.073927,3.138114 1.037345,-3.138114 h 0.906696 l -1.518128,4.238171 H 82.96557 m -2.751441,-4.238171 h 0.857048 v 4.238171 h -0.857048 z m -3.39684,0.71846 v 2.806363 h 0.640169 c 0.237759,0 0.410263,-0.01481 0.517366,-0.04444 0.138506,-0.02963 0.25346,-0.0911 0.344934,-0.174801 0.09147,-0.08073 0.164579,-0.219241 0.22213,-0.407374 0.06,-0.191095 0.08881,-0.449593 0.08881,-0.77601 0,-0.328862 -0.02889,-0.579953 -0.08881,-0.755198 -0.05777,-0.1748 -0.13584,-0.313307 -0.240424,-0.412558 -0.10451,-0.09703 -0.237759,-0.162209 -0.397153,-0.198503 -0.117546,-0.02963 -0.352712,-0.03703 -0.702905,-0.03703 h -0.384117 m -0.857056,-0.718459 h 1.565161 c 0.352786,0 0.621875,0.02963 0.807408,0.0837 0.248202,0.07407 0.46248,0.201465 0.637577,0.389597 0.177689,0.185911 0.31353,0.415522 0.405004,0.684389 0.09407,0.274051 0.138507,0.605876 0.138507,1.003399 0,0.350342 -0.04148,0.650317 -0.130656,0.901407 -0.10451,0.308123 -0.256053,0.559214 -0.452037,0.749939 -0.148951,0.146655 -0.350119,0.256275 -0.600988,0.337009 -0.190725,0.05925 -0.441593,0.08888 -0.75776,0.08888 h -1.612194 v -4.238171 m -3.590195,4.238171 v -4.201581 h 0.854434 v 3.488306 h 2.129559 v 0.713275 H 72.37006 m -2.051172,-1.6749 -0.585285,-1.572982 -0.57225,1.572982 h 1.157535 m 1.575611,1.6749 H 70.964265 L 70.593259,69.192566 H 68.89745 l -0.347527,0.961551 h -0.909311 l 1.65139,-4.238171 h 0.904082 l 1.698416,4.238171 m -8.766459,0 v -4.238171 h 1.280347 l 0.770818,2.892504 0.75776,-2.892504 h 1.282961 v 4.238171 H 66.425585 V 66.82002 l -0.841368,3.334097 H 64.761136 L 63.922375,66.82002 v 3.334097 z"
       style="fill:#000000;fill-opacity:1;fill-rule:evenodd;stroke:none;stroke-width:2.61296" />
    <path
       id="path7948"
       d="m 64.685988,109.20188 c -0.195984,-1.09747 -0.368415,-2.221 -0.522624,-3.37069 6.417422,-4.85486 12.847902,-9.341307 19.278382,-14.217129 0.909303,-0.778603 1.27251,-0.51181 1.366577,0.812674 0.04666,0.747272 0.193391,1.476323 0.193391,2.194857 -6.751876,4.849676 -14.763189,10.611208 -20.315719,14.580288 m 2.858573,10.37604 c -0.384117,-0.9694 -0.74208,-1.96236 -1.068698,-2.98398 6.576802,-4.98811 16.307448,-11.87325 22.865962,-16.845731 0.911918,-0.78127 1.272511,-0.514773 1.366577,0.812601 0.07577,0.78393 0.188133,1.52336 0.177689,2.26811 -7.629826,5.47933 -17.587802,12.64141 -23.341523,16.749 M 63.105162,75.118525 h 30.307662 l 4.81045,15.400737 h 16.699386 l 5.27295,-15.400737 h 5.27294 l 0.0526,14.582878 c -6.63951,5.035143 -18.69046,13.814717 -25.19149,18.740097 -0.368416,0.31627 -0.692464,0.46218 -0.951117,0.43404 0.02074,-2.58157 0.06296,-5.1841 -0.14895,-7.80225 -0.329233,-1.714087 -0.9877,-2.793257 -2.464016,-2.464025 -0.867507,0.622171 -1.831687,1.314337 -2.871639,2.059015 0.133249,-2.667854 0.07836,-5.361781 -0.17243,-8.068818 -0.329232,-1.716675 -0.987697,-2.793253 -2.461398,-2.466613 -1.019057,0.731792 -2.12433,1.52069 -3.292323,2.35951 0.02592,-2.657412 0.01333,-5.346154 -0.146358,-8.024379 C 87.492177,82.74864 86.833712,81.674728 85.357396,82.001294 78.067253,87.221977 70.701331,92.521098 63.411188,97.731337 63.006185,90.971595 63.024479,83.77026 63.10551,75.118821"
       style="fill:#e30613;fill-opacity:1;fill-rule:evenodd;stroke:none;stroke-width:2.61296" />
    <path
       id="path7949"
       d="m 101.28565,76.482191 c -0.20902,0.5881 -0.39456,1.178422 -0.60358,1.766373 -0.0259,0.07407 -0.0444,0.107399 -0.10977,0.15184 -0.0704,0.04444 -0.17243,0.104436 -0.21946,0.138507 -0.06,0.04444 -0.12022,0.08073 -0.1751,0.11999 -0.0578,0.03703 -0.10977,0.07555 -0.1568,0.107399 -0.05259,0.03703 -0.09666,0.05925 -0.13851,0.08888 -0.04148,0.02963 -0.07836,0.04444 -0.109769,0.05925 -0.03111,0.01481 -0.05777,0.02963 -0.07836,0.02963 l 0.003,0.07407 c -0.0052,0.09925 -0.0052,0.201465 -0.003,0.302938 0.003,0.09925 0.003,0.201465 0.01037,0.302938 0.0052,0.09925 0.01333,0.201465 0.0237,0.302938 0.0081,0.09925 0.02074,0.201465 0.03629,0.300716 0.01555,0.102214 0.03111,0.201465 0.04963,0.300716 0.01852,0.09925 0.03926,0.201465 0.06296,0.300716 0.0237,0.09925 0.04963,0.198503 0.07836,0.297754 0.02592,0.09629 0.05777,0.19628 0.08881,0.295531 0.0341,0.09703 0.0652,0.193318 0.10191,0.290347 0.0363,0.09703 0.0758,0.193317 0.11762,0.287383 0.0415,0.09703 0.0862,0.191096 0.13066,0.284422 0.0467,0.09407 0.0941,0.18591 0.14369,0.279977 0.0496,0.0911 0.10192,0.182948 0.1568,0.274051 0.0548,0.08888 0.11237,0.179985 0.16984,0.268867 0.06,0.08592 0.12281,0.174801 0.18554,0.26146 0.0444,0.05925 0.0941,0.125175 0.1411,0.185911 0.008,-0.0074 0.0259,-0.0074 0.0341,-0.0074 0.0133,-0.0026 0.0259,-0.0074 0.0415,-0.0074 0.0156,-0.0026 0.0341,-0.0026 0.0526,-0.0074 0.0185,0 0.0393,-0.0026 0.06,-0.0026 0.0207,-0.0026 0.0444,-0.0053 0.0704,-0.0053 0.0237,0 0.0496,-0.0026 0.0758,-0.0026 0.0259,-0.0026 0.0548,-0.0026 0.0836,-0.0026 0.0289,0 0.06,-0.0027 0.0888,-0.0027 0.0704,0 0.14369,-0.0026 0.22213,-0.0026 0.0784,0 0.16199,-0.0074 0.24302,0 0.0415,0.0026 0.1228,-0.02222 0.16198,-0.0026 0.23776,0.09925 0.47034,0.279977 0.7395,0.47848 0.29523,0.219241 0.62447,0.462184 0.87534,0.702905 0.0548,0.05185 0.0966,0.263682 0.11754,0.331824 0.0207,0.07407 0.0393,0.138508 0.06,0.203687 0.0207,0.06666 0.0363,0.128138 0.0526,0.18517 0.0156,0.05926 0.0311,0.109621 0.0415,0.157025 0.0104,0.05185 0.0207,0.08888 0.0237,0.125175 0.005,0.03703 0.008,0.05925 0.008,0.0837 l 0.0681,0.02222 c 0.0941,0.03703 0.18814,0.06666 0.28739,0.09703 0.0967,0.02963 0.19339,0.05925 0.29264,0.0837 0.0967,0.02963 0.19339,0.05185 0.29524,0.07555 0.0966,0.02222 0.19598,0.03703 0.29523,0.05925 0.10192,0.01481 0.20117,0.03703 0.30309,0.04444 0.0993,0.01481 0.20117,0.02963 0.30308,0.03703 0.10192,0.0074 0.20384,0.01481 0.30835,0.02222 0.0993,0.0053 0.20117,0.0074 0.30568,0.0053 0.10192,0.0026 0.20643,0 0.31093,-0.0026 0.10192,-0.0074 0.20384,-0.0074 0.30835,-0.02222 0.10451,-0.0074 0.20902,-0.02222 0.31094,-0.02963 0.10192,-0.01481 0.20383,-0.02963 0.30834,-0.05185 0.10451,-0.02222 0.20902,-0.03703 0.31353,-0.06666 0.0993,-0.02222 0.20384,-0.05185 0.30568,-0.07851 0.10192,-0.02963 0.20643,-0.05926 0.30835,-0.0911 0.0733,-0.02222 0.14635,-0.05185 0.21946,-0.07555 -0.005,-0.0074 0,-0.02963 0,-0.03703 0,-0.01481 0.003,-0.02963 0.003,-0.04444 0.005,-0.01481 0.008,-0.02963 0.0104,-0.05185 0.005,-0.01481 0.0104,-0.03703 0.0185,-0.05925 0.003,-0.02222 0.008,-0.04444 0.0156,-0.06666 0.005,-0.02222 0.0133,-0.05185 0.0207,-0.07555 0.005,-0.02222 0.0133,-0.05185 0.0237,-0.07851 0.008,-0.02963 0.0156,-0.05925 0.0259,-0.08592 0.0207,-0.06666 0.0444,-0.138507 0.0681,-0.211834 0.0237,-0.07407 0.0496,-0.15184 0.0733,-0.229611 0.008,-0.01481 0.0133,-0.03703 0.0207,-0.05925 0.005,-0.02222 0.0104,-0.03703 0.0185,-0.05926 0.005,-0.02222 0.008,-0.04444 0.0185,-0.05925 0.063,-0.114806 1.4737,-1.097392 1.60174,-1.17583 0.0155,-0.0074 0.0392,0.0026 0.0578,0.0026 0.0207,0 0.0393,0.0027 0.06,0.0027 0.0156,0 0.0363,0 0.0548,0.0026 0.0393,0 0.0758,0 0.11496,0.0026 0.0363,0 0.0758,0 0.10977,0.0027 0.0758,0.0026 0.14636,0.0026 0.21428,0.0052 0.0681,0 0.13065,0.0053 0.19339,0.0074 0.0578,0.0026 0.11236,0.0074 0.15939,0.0074 0.0526,0.0026 0.0941,0.0074 0.12806,0.01481 0.0341,0.0074 0.063,0.01481 0.081,0.02222 l 0.0415,-0.05925 c 0.063,-0.08073 0.12281,-0.159246 0.18028,-0.242943 0.06,-0.0837 0.11755,-0.164431 0.17244,-0.25109 0.0548,-0.0837 0.10976,-0.169616 0.15939,-0.256275 0.0526,-0.08888 0.10451,-0.177764 0.15154,-0.266645 0.0474,-0.08888 0.0941,-0.179986 0.13851,-0.27183 0.0444,-0.0911 0.0836,-0.185911 0.1254,-0.277014 0.0415,-0.09407 0.0784,-0.191096 0.11754,-0.284421 0.0311,-0.09703 0.0681,-0.193318 0.0993,-0.290347 0.0341,-0.09925 0.063,-0.198502 0.0915,-0.297753 0.0259,-0.09925 0.0526,-0.198502 0.0758,-0.300716 0.0237,-0.102214 0.0444,-0.203687 0.063,-0.305901 0.0207,-0.102214 0.0363,-0.20665 0.0526,-0.311086 0.0133,-0.102214 0.0237,-0.208871 0.0341,-0.313307 0.0104,-0.104436 0.0185,-0.211835 0.0237,-0.318493 0.003,-0.104436 0.005,-0.214056 0.005,-0.321455 0,-0.07555 0,-0.151839 -0.003,-0.230351 -0.008,0.0026 -0.0259,-0.0074 -0.0341,-0.0074 -0.0104,-0.0053 -0.0237,-0.0074 -0.0393,-0.01481 -0.0133,-0.0074 -0.0289,-0.01481 -0.0444,-0.02963 -0.0185,-0.0074 -0.0341,-0.02222 -0.0526,-0.02963 -0.0207,-0.0074 -0.0393,-0.02963 -0.0578,-0.03703 -0.0207,-0.01481 -0.0415,-0.02963 -0.0652,-0.04444 -0.0207,-0.01481 -0.0444,-0.02963 -0.0682,-0.04444 -0.0237,-0.01481 -0.0496,-0.03703 -0.0704,-0.05185 -0.0578,-0.03703 -0.12021,-0.08592 -0.18288,-0.13036 -0.0155,-0.01481 -0.0341,-0.02222 -0.0496,-0.03703 -0.0156,-0.01481 -0.0311,-0.02963 -0.0496,-0.03703 -0.0156,-0.01481 -0.0311,-0.02222 -0.0467,-0.03703 -0.0155,-0.0074 -0.0341,-0.02222 -0.0496,-0.03703 -0.0156,-0.01481 -0.0311,-0.02222 -0.0496,-0.03703 -0.0156,-0.0074 -0.0363,-0.02222 -0.0496,-0.03703 -0.13584,-0.14147 -0.6872,-1.797704 -0.6689,-2.00154 0.003,-0.01481 0.0133,-0.03703 0.0185,-0.05185 0.008,-0.01481 0.0133,-0.03703 0.0207,-0.05185 0.005,-0.01481 0.0104,-0.03703 0.0185,-0.05185 0.005,-0.01481 0.0133,-0.03703 0.0185,-0.05185 0.005,-0.01481 0.0133,-0.03703 0.0185,-0.05185 0.005,-0.01481 0.0133,-0.03703 0.0185,-0.05185 0.0237,-0.07407 0.0496,-0.135545 0.0704,-0.201465 0.0237,-0.06666 0.0474,-0.125175 0.0652,-0.179985 0.0207,-0.05925 0.0415,-0.107399 0.06,-0.15184 0.0185,-0.04444 0.0363,-0.0837 0.0548,-0.114805 0.0133,-0.02963 0.0289,-0.05925 0.0415,-0.07407 l -0.0415,-0.05926 c -0.0578,-0.0837 -0.11495,-0.167393 -0.17769,-0.248127 -0.06,-0.08074 -0.12021,-0.162209 -0.18554,-0.237759 -0.063,-0.07851 -0.12806,-0.157024 -0.19598,-0.232573 -0.0652,-0.07555 -0.13584,-0.15184 -0.20643,-0.224426 -0.0704,-0.07407 -0.1411,-0.143692 -0.21687,-0.214057 -0.0733,-0.07407 -0.14636,-0.14147 -0.22472,-0.206649 -0.0784,-0.06666 -0.15681,-0.133323 -0.23776,-0.196281 -0.0784,-0.06666 -0.1594,-0.125175 -0.24302,-0.188132 -0.0836,-0.05926 -0.16725,-0.117769 -0.25346,-0.174801 -0.0862,-0.05925 -0.1751,-0.112583 -0.26391,-0.167394 -0.0888,-0.05185 -0.18028,-0.102213 -0.27175,-0.154061 -0.0915,-0.04444 -0.18554,-0.09703 -0.27961,-0.14147 -0.0941,-0.04444 -0.19072,-0.08888 -0.29005,-0.13036 -0.0967,-0.04444 -0.19339,-0.08073 -0.29523,-0.117768 -0.0993,-0.03703 -0.19858,-0.07407 -0.30309,-0.104436 -0.0733,-0.02222 -0.14636,-0.04444 -0.21946,-0.06666 -0.003,0.0074 -0.0185,0.02222 -0.0237,0.02963 -0.005,0.0074 -0.0156,0.02222 -0.0289,0.02963 -0.0104,0.0074 -0.0237,0.02222 -0.0393,0.03703 -0.0133,0.01481 -0.0289,0.02963 -0.0467,0.04444 -0.0133,0.01481 -0.0311,0.02963 -0.0526,0.04444 -0.0185,0.01481 -0.0393,0.02963 -0.06,0.04444 -0.0207,0.01481 -0.0415,0.03703 -0.0652,0.05185 -0.0237,0.01481 -0.0474,0.03703 -0.0704,0.05185 -0.0578,0.04444 -0.11754,0.08592 -0.18028,0.13036 -0.063,0.04444 -0.12806,0.09407 -0.19339,0.143692 -0.0207,0.01481 -0.0393,0.02963 -0.0578,0.04444 -0.0207,0.01481 -0.0393,0.02963 -0.06,0.04444 -0.0207,0.01481 -0.0467,0.03703 -0.0681,0.05185 -0.57225,-0.0074 -1.30125,-0.02222 -2.04072,-0.0074 -0.0363,-0.02963 -0.0784,-0.05925 -0.11754,-0.08592 -0.06,-0.04444 -0.12021,-0.09184 -0.17769,-0.133322 -0.063,-0.04444 -0.11762,-0.08888 -0.17243,-0.128138 -0.0548,-0.04444 -0.10451,-0.08073 -0.15154,-0.117768 -0.0496,-0.03703 -0.0915,-0.07407 -0.12807,-0.102214 -0.0393,-0.02963 -0.0704,-0.05925 -0.0941,-0.0837 -0.0259,-0.02963 -0.0444,-0.04444 -0.0578,-0.06666 l -0.0652,0.02963 c -0.0967,0.02963 -0.19339,0.05925 -0.29005,0.09407 -0.0967,0.03703 -0.18813,0.06666 -0.2822,0.107398 -0.0941,0.03703 -0.18813,0.07555 -0.28219,0.117769 -0.0888,0.04444 -0.18288,0.08592 -0.27176,0.130359 -0.0915,0.04444 -0.18028,0.09407 -0.26916,0.143692 -0.0915,0.05185 -0.17769,0.102214 -0.26391,0.154062 -0.0888,0.05185 -0.17509,0.10962 -0.25872,0.169615 -0.0836,0.05185 -0.16724,0.114806 -0.25087,0.177764 -0.0836,0.05925 -0.16198,0.122952 -0.24301,0.191095 -0.081,0.06666 -0.1594,0.13036 -0.23517,0.201465 -0.0784,0.07407 -0.15413,0.14147 -0.22998,0.214056 -0.0733,0.07407 -0.14369,0.146655 -0.21946,0.224427 -0.0682,0.07851 -0.1411,0.154061 -0.20902,0.237758 -0.0682,0.07851 -0.13325,0.162209 -0.20117,0.248128 -0.0652,0.0837 -0.12807,0.169615 -0.19073,0.256275 -0.0415,0.05925 -0.0862,0.128138 -0.12806,0.193317 0.008,0.0026 0.0185,0.02222 0.0207,0.02963 0.008,0.0074 0.0133,0.02222 0.0207,0.03703 0.008,0.01481 0.0156,0.02963 0.0237,0.04444 0.008,0.01481 0.0155,0.03703 0.0237,0.05926 0.008,0.01481 0.0185,0.03703 0.0289,0.05925 0.008,0.02222 0.0156,0.04444 0.0259,0.07407 0.0104,0.02222 0.0185,0.05185 0.0289,0.07555 0.0104,0.02963 0.0207,0.05185 0.0289,0.0837 0.0237,0.06666 0.0496,0.138508 0.0758,0.211835 0.0237,0.07407 0.0496,0.148877 0.0758,0.227389 0.0259,0.07851 0.0526,0.128137 0.081,0.206649 m 5.53423,-10.208792 -12.550012,8.784761 4.611862,14.671686 h 15.39883 l 5.07174,-14.637763 z"
       style="fill:#000000;fill-opacity:1;fill-rule:evenodd;stroke:none;stroke-width:2.61296" />
    <path
       id="path7950"
       d="m 106.70328,72.206615 c 3.86978,0 7.00794,3.138187 7.00794,7.007944 0,3.872423 -3.13816,7.010536 -7.00794,7.010536 -3.8724,0 -7.01056,-3.138113 -7.01056,-7.010536 0,-3.869757 3.13816,-7.007944 7.01056,-7.007944"
       style="fill:#ffffff;fill-opacity:1;fill-rule:evenodd;stroke:none;stroke-width:2.61296" />
    <path
       id="path7951"
       d="m 101.28565,76.482191 c -0.20902,0.5881 -0.39456,1.178422 -0.60358,1.766373 -0.0259,0.07407 -0.0444,0.107399 -0.10977,0.15184 -0.0704,0.04444 -0.17243,0.104436 -0.21946,0.138507 -0.06,0.04444 -0.11762,0.08073 -0.1751,0.11999 -0.0578,0.03703 -0.10977,0.07555 -0.1568,0.107399 -0.05259,0.03703 -0.09666,0.05925 -0.13851,0.08888 -0.04148,0.02963 -0.07836,0.04444 -0.109769,0.05925 -0.03111,0.01481 -0.05777,0.02963 -0.07836,0.02963 l 0.003,0.07407 c -0.0052,0.09925 -0.0052,0.201465 -0.003,0.302938 0.003,0.09925 0.003,0.201465 0.01037,0.302938 0.0052,0.09925 0.01333,0.201465 0.0237,0.302938 0.0081,0.09925 0.02074,0.201465 0.03629,0.300716 0.01555,0.102214 0.03111,0.201465 0.04963,0.300716 0.01852,0.102214 0.03926,0.201465 0.06518,0.300716 0.02074,0.09925 0.04666,0.198503 0.07577,0.297754 0.02592,0.09629 0.05777,0.19628 0.08881,0.295531 0.0311,0.09703 0.0652,0.193318 0.10191,0.290347 0.0363,0.09407 0.0758,0.193317 0.11762,0.287383 0.0415,0.09703 0.0836,0.191096 0.13066,0.284422 0.0467,0.09407 0.0941,0.18591 0.14369,0.279977 0.0496,0.0911 0.10192,0.182948 0.1568,0.274051 0.0548,0.08888 0.11237,0.179985 0.16984,0.268867 0.06,0.08592 0.12281,0.174801 0.18554,0.26146 0.0444,0.05925 0.0941,0.125175 0.1411,0.185911 0.008,-0.0074 0.0259,-0.0074 0.0341,-0.0074 0.0133,-0.0026 0.0259,-0.0074 0.0415,-0.0074 0.0156,0 0.0341,-0.0026 0.0526,-0.0074 0.0185,0 0.0393,0 0.06,-0.0026 0.0207,-0.0026 0.0444,-0.0053 0.0704,-0.0053 0.0237,0 0.0496,-0.0026 0.0758,-0.0026 0.0259,-0.0026 0.0548,-0.0026 0.0836,-0.0026 0.0289,0 0.0578,-0.0027 0.0888,-0.0027 0.0704,0 0.14369,-0.0026 0.22213,-0.0026 0.0784,0 0.1594,-0.0074 0.24302,0 0.0415,0.0026 0.1228,-0.02222 0.16198,-0.0026 0.23776,0.09925 0.47034,0.279977 0.7395,0.47848 0.29523,0.219241 0.62447,0.462184 0.87534,0.702905 0.0548,0.05185 0.0966,0.263682 0.11754,0.331824 0.0207,0.07407 0.0393,0.138508 0.06,0.203687 0.0207,0.06666 0.0363,0.128138 0.0526,0.18517 0.0156,0.05926 0.0311,0.109621 0.0415,0.157025 0.0104,0.04444 0.0207,0.0911 0.0237,0.125175 0.008,0.03703 0.008,0.05925 0.008,0.0837 l 0.0681,0.02222 c 0.0941,0.03703 0.18814,0.06666 0.28739,0.09703 0.0967,0.02963 0.19339,0.05925 0.29264,0.0837 0.0967,0.02963 0.19339,0.05185 0.29524,0.07555 0.0966,0.02222 0.19598,0.03703 0.29523,0.05925 0.0993,0.01481 0.20117,0.03703 0.30309,0.04444 0.0993,0.01481 0.20383,0.02963 0.30308,0.03703 0.10192,0.0074 0.20384,0.01481 0.30835,0.02222 0.0993,0.0053 0.20117,0.0074 0.30568,0.0053 0.10191,0.0026 0.20642,0 0.31093,-0.0026 0.0993,-0.0074 0.20384,-0.0074 0.30835,-0.02222 0.10451,-0.0074 0.20902,-0.02222 0.31094,-0.02963 0.10191,-0.01481 0.20383,-0.02963 0.30834,-0.05185 0.10451,-0.02222 0.20902,-0.03703 0.31353,-0.06666 0.0993,-0.02222 0.20384,-0.05185 0.30835,-0.07851 0.0993,-0.02963 0.20383,-0.05926 0.30568,-0.0911 0.0733,-0.02222 0.14635,-0.05185 0.21946,-0.07555 -0.005,-0.0074 0,-0.02963 0,-0.03703 0,-0.01481 0.003,-0.02963 0.003,-0.04444 0.005,-0.01481 0.008,-0.02963 0.0104,-0.05185 0.005,-0.01481 0.0104,-0.03703 0.0185,-0.05925 0.003,-0.02222 0.008,-0.04444 0.0155,-0.06666 0.005,-0.02222 0.0133,-0.05185 0.0207,-0.07555 0.005,-0.02222 0.0133,-0.05185 0.0237,-0.07851 0.008,-0.02963 0.0156,-0.05925 0.0259,-0.08592 0.0207,-0.06666 0.0444,-0.138507 0.0681,-0.211834 0.0237,-0.07407 0.0496,-0.15184 0.0733,-0.229611 0.008,-0.01481 0.0133,-0.03703 0.0207,-0.05925 0.005,-0.01481 0.0104,-0.03703 0.0185,-0.05926 0.005,-0.02222 0.008,-0.04444 0.0185,-0.05925 0.063,-0.114806 1.4737,-1.097392 1.60174,-1.17583 0.0155,-0.0074 0.0392,0.0026 0.0578,0.0026 0.0207,0 0.0393,0.0027 0.0578,0.0027 0.0185,0 0.0393,0 0.0578,0.0026 0.0393,0 0.0758,0 0.11496,0.0026 0.0363,0 0.0758,0 0.10977,0.0027 0.0758,0.0026 0.14636,0.0052 0.21428,0.0052 0.0681,0.0026 0.13065,0.0053 0.19339,0.0074 0.0578,0.0026 0.11236,0.0074 0.15939,0.0074 0.0526,0.0026 0.0941,0.0074 0.12807,0.01481 0.0341,0.0074 0.063,0.01481 0.081,0.02222 l 0.0415,-0.05925 c 0.063,-0.08073 0.12281,-0.159246 0.18029,-0.242943 0.06,-0.0837 0.11754,-0.164431 0.17243,-0.25109 0.0548,-0.0837 0.10976,-0.169616 0.15939,-0.256275 0.0526,-0.08888 0.10451,-0.177764 0.15154,-0.266645 0.0474,-0.08888 0.0941,-0.179986 0.13851,-0.27183 0.0444,-0.0911 0.0836,-0.185911 0.1254,-0.277014 0.0415,-0.09407 0.0784,-0.191096 0.11495,-0.284421 0.0341,-0.09703 0.0704,-0.193318 0.10192,-0.292569 0.0341,-0.09629 0.063,-0.19628 0.0915,-0.295531 0.0259,-0.09925 0.0526,-0.198502 0.0758,-0.300716 0.0237,-0.102214 0.0444,-0.201465 0.063,-0.305901 0.0207,-0.102214 0.0363,-0.203687 0.0526,-0.311086 0.0133,-0.102214 0.0237,-0.208871 0.0341,-0.313307 0.0104,-0.104436 0.0156,-0.211835 0.0237,-0.318493 0.003,-0.104436 0.005,-0.214056 0.005,-0.321455 0,-0.07555 0,-0.151839 -0.003,-0.230351 -0.0104,0.0026 -0.0259,-0.0074 -0.0341,-0.0074 -0.0104,-0.0053 -0.0237,-0.0074 -0.0392,-0.01481 -0.0133,-0.0074 -0.0289,-0.01481 -0.0444,-0.02963 -0.0185,-0.0074 -0.0363,-0.02222 -0.0526,-0.02963 -0.0185,-0.0074 -0.0393,-0.02963 -0.0578,-0.03703 -0.0207,-0.01481 -0.0415,-0.02963 -0.0652,-0.04444 -0.0207,-0.01481 -0.0444,-0.02963 -0.0681,-0.04444 -0.0237,-0.01481 -0.0496,-0.03703 -0.0704,-0.05185 -0.06,-0.03703 -0.12021,-0.08592 -0.18288,-0.13036 -0.0156,-0.01481 -0.0341,-0.02222 -0.0474,-0.03703 -0.0185,-0.01481 -0.0341,-0.02963 -0.0526,-0.03703 -0.0155,-0.01481 -0.0311,-0.02222 -0.0467,-0.03703 -0.0156,-0.0074 -0.0341,-0.02222 -0.0496,-0.03703 -0.0156,-0.01481 -0.0311,-0.02222 -0.0496,-0.03703 -0.0156,-0.0074 -0.0341,-0.02222 -0.0496,-0.03703 -0.13584,-0.14147 -0.6872,-1.797704 -0.6689,-2.00154 0.003,-0.01481 0.0133,-0.03703 0.0185,-0.05185 0.008,-0.01481 0.0133,-0.03703 0.0207,-0.05185 0.005,-0.01481 0.0104,-0.03703 0.0185,-0.05185 0.005,-0.01481 0.0133,-0.03703 0.0185,-0.05185 0.005,-0.01481 0.0133,-0.03703 0.0185,-0.05185 0.005,-0.01481 0.0133,-0.03703 0.0185,-0.05185 0.0237,-0.07407 0.0496,-0.135545 0.0704,-0.201465 0.0237,-0.06666 0.0444,-0.125175 0.0652,-0.179985 0.0207,-0.05925 0.0415,-0.107399 0.06,-0.154062 0.0185,-0.04444 0.0363,-0.08073 0.0548,-0.112583 0.0133,-0.02963 0.0289,-0.05925 0.0415,-0.07407 l -0.0415,-0.05926 c -0.0578,-0.0837 -0.11495,-0.167393 -0.17769,-0.248127 -0.06,-0.08074 -0.12021,-0.162209 -0.18287,-0.239981 -0.0652,-0.07851 -0.13066,-0.154061 -0.19858,-0.230351 -0.0652,-0.07555 -0.13584,-0.15184 -0.20643,-0.224426 -0.0704,-0.07407 -0.1411,-0.143692 -0.21687,-0.214057 -0.0733,-0.07407 -0.14636,-0.14147 -0.22472,-0.206649 -0.0784,-0.06666 -0.1568,-0.133323 -0.23776,-0.196281 -0.0784,-0.06666 -0.15939,-0.125175 -0.24302,-0.188132 -0.0836,-0.05926 -0.16724,-0.117769 -0.25346,-0.174801 -0.0862,-0.05185 -0.17509,-0.112583 -0.2639,-0.167394 -0.0888,-0.05185 -0.17769,-0.102213 -0.27176,-0.154061 -0.0915,-0.04444 -0.18554,-0.09703 -0.2796,-0.14147 -0.0941,-0.04444 -0.19073,-0.08888 -0.29005,-0.13036 -0.0967,-0.04444 -0.1934,-0.08073 -0.29265,-0.117768 -0.10191,-0.03703 -0.20117,-0.07407 -0.30568,-0.104436 -0.0733,-0.02222 -0.14635,-0.04444 -0.21946,-0.07407 -0.003,0.0074 -0.0185,0.02963 -0.0237,0.02963 -0.005,0.0074 -0.0155,0.02222 -0.0289,0.02963 -0.0104,0.0074 -0.0237,0.02222 -0.0393,0.03703 -0.0133,0.01481 -0.0289,0.02963 -0.0444,0.04444 -0.0156,0.01481 -0.0341,0.02963 -0.0526,0.04444 -0.0207,0.01481 -0.0415,0.02963 -0.063,0.04444 -0.0207,0.01481 -0.0415,0.03703 -0.0652,0.05185 -0.0237,0.01481 -0.0474,0.03703 -0.0704,0.05185 -0.0578,0.04444 -0.11755,0.08592 -0.18029,0.133323 -0.063,0.04444 -0.12806,0.0911 -0.19339,0.14147 -0.0207,0.01481 -0.0392,0.02963 -0.0578,0.04444 -0.0207,0.01481 -0.0393,0.02963 -0.06,0.04444 -0.0237,0.01481 -0.0467,0.03703 -0.0681,0.05185 -0.57225,-0.0074 -1.30125,-0.02222 -2.04071,-0.0074 -0.0393,-0.02963 -0.0784,-0.05925 -0.11755,-0.08592 -0.06,-0.04444 -0.12021,-0.09184 -0.17769,-0.135544 -0.063,-0.04444 -0.11762,-0.08666 -0.17243,-0.125175 -0.0548,-0.04444 -0.10451,-0.08073 -0.15154,-0.117768 -0.0496,-0.03703 -0.0915,-0.07407 -0.12806,-0.102214 -0.0393,-0.02963 -0.0704,-0.05925 -0.0941,-0.0837 -0.0259,-0.02963 -0.0444,-0.04444 -0.0548,-0.06666 l -0.0681,0.02963 c -0.0967,0.02963 -0.1934,0.05925 -0.29005,0.09407 -0.0941,0.03703 -0.18814,0.06666 -0.2822,0.107399 -0.0941,0.03703 -0.18814,0.07555 -0.2822,0.117768 -0.0888,0.04444 -0.18288,0.08592 -0.27176,0.13036 -0.0915,0.04444 -0.18028,0.09407 -0.26916,0.143692 -0.0915,0.05185 -0.17769,0.102214 -0.2639,0.154061 -0.0888,0.05185 -0.1751,0.109621 -0.25872,0.169616 -0.0836,0.05185 -0.16725,0.114805 -0.25087,0.177763 -0.0836,0.05926 -0.16199,0.122953 -0.24302,0.191096 -0.081,0.06666 -0.15939,0.130359 -0.23517,0.201465 -0.0784,0.07407 -0.15413,0.141469 -0.22998,0.214056 -0.0733,0.07407 -0.14369,0.146655 -0.21946,0.224426 -0.0681,0.07555 -0.1411,0.154062 -0.20902,0.237758 -0.0681,0.07851 -0.13325,0.162209 -0.20117,0.245906 -0.0652,0.08592 -0.12806,0.172579 -0.19072,0.258497 -0.0415,0.05926 -0.0862,0.128138 -0.12807,0.193318 0.008,0.0026 0.0185,0.02222 0.0207,0.02963 0.008,0.0074 0.0133,0.02222 0.0207,0.03703 0.008,0.01481 0.0156,0.02963 0.0237,0.04444 0.008,0.01481 0.0156,0.03703 0.0237,0.05185 0.008,0.02222 0.0185,0.04444 0.0289,0.06666 0.008,0.02222 0.0156,0.04444 0.0259,0.07407 0.0104,0.02222 0.0185,0.05185 0.0289,0.07555 0.0104,0.02963 0.0207,0.05185 0.0289,0.0837 0.0237,0.06666 0.0496,0.138507 0.0733,0.211834 0.0259,0.07407 0.0526,0.148877 0.0784,0.227389 0.0259,0.07555 0.0526,0.128138 0.081,0.20665 m 8.25694,3.503935 0.96418,0.318492 0.96418,0.318493 0.0289,0.0074 0.0259,0.0074 c 0.0578,0.0074 0.0496,0.0074 0.0967,-0.02963 0.003,-0.0052 0.005,-0.0074 0.0104,-0.01481 0.0941,-0.125175 0.22731,-0.360711 0.43374,-0.637725 0.003,-0.0026 0.005,-0.0074 0.008,-0.01481 0.0578,-0.09407 0.11236,-0.193317 0.15939,-0.297753 0.0467,-0.102214 0.0888,-0.208872 0.1254,-0.323677 0.0363,-0.112584 0.0652,-0.230352 0.0888,-0.352564 0.008,-0.02963 0.0104,-0.05925 0.0185,-0.09407 0.005,-0.02963 0.008,-0.06666 0.0133,-0.09629 0.003,-0.02963 0.0207,-0.06666 0.0104,-0.09925 -0.17509,-0.509588 -0.60617,-2.111234 -0.85182,-2.492758 -0.0156,-0.02963 -0.0444,-0.05185 -0.0652,-0.07407 -0.0237,-0.02963 -0.0444,-0.04444 -0.0681,-0.07407 -0.0888,-0.08888 -0.18028,-0.167394 -0.27434,-0.239981 -0.0941,-0.07407 -0.19073,-0.135544 -0.28746,-0.193317 -0.0993,-0.05926 -0.19858,-0.109621 -0.3005,-0.154062 -0.003,-0.0026 -0.0104,-0.0053 -0.0133,-0.0074 -0.32664,-0.109621 -0.59573,-0.20665 -0.74468,-0.256276 -0.005,-0.0026 -0.0104,-0.0026 -0.0156,-0.0026 -0.005,-0.0027 -0.0155,-0.0027 -0.0207,-0.0053 -0.008,0 -0.0133,-0.0026 -0.0207,-0.0026 -0.003,-0.0026 -0.0104,-0.0026 -0.0133,-0.0026 -0.003,0 -0.005,0 -0.008,0 l -1.28818,1.745413 c -0.0289,0.03703 -0.0311,0.05185 -0.0156,0.09925 l 0.91976,2.84547 0.0207,0.05926 0.0993,0.04444 m -2.70964,2.147898 v 0.01481 0.01481 0.01481 0.01481 0.01481 1.98843 0.02222 c -0.003,0.0074 0.005,0.06666 0.0393,0.07555 0.005,0.0053 0.0104,0.0074 0.0156,0.0074 0.005,0 0.0104,0.0026 0.0185,0.0074 0.14636,0.05185 0.41026,0.104436 0.7395,0.211835 0.005,0 0.0104,0.0026 0.0155,0.0026 0.10451,0.02963 0.21687,0.04444 0.32923,0.05926 0.11236,0.01481 0.22991,0.02222 0.35012,0.02222 0.11496,-0.0026 0.23776,-0.0074 0.36323,-0.02963 0.0311,-0.0026 0.063,-0.0074 0.0941,-0.01481 0.0311,-0.0074 0.063,-0.01481 0.0967,-0.01481 0.0311,-0.0074 0.0681,-0.0027 0.0967,-0.02222 0.81785,-0.556251 2.14784,-1.486767 1.98584,-1.382257 0.0104,-0.01481 0.0185,-0.02963 0.0259,-0.04444 0.0104,-0.01481 0.0207,-0.02963 0.0289,-0.04444 0.008,-0.01481 0.0185,-0.02963 0.0259,-0.04444 0.0104,-0.01481 0.0185,-0.02963 0.0259,-0.04444 0.008,-0.01481 0.0156,-0.02963 0.0237,-0.04444 0.008,-0.01481 0.0155,-0.02963 0.0237,-0.04444 0.005,-0.01481 0.0156,-0.02963 0.0237,-0.04444 0.008,-0.01481 0.0133,-0.02963 0.0207,-0.04444 0.0578,-0.112584 0.10451,-0.222204 0.14369,-0.334788 0.0415,-0.112583 0.0733,-0.224426 0.0993,-0.334787 0.0237,-0.109621 0.0415,-0.222204 0.0526,-0.331825 0.003,-0.0053 0.003,-0.01481 0.003,-0.01481 0.008,-0.345157 0.0156,-0.629578 0.0185,-0.789121 -0.003,-0.0026 -0.003,-0.0074 -0.003,-0.01481 -0.0185,-0.04444 -0.0156,-0.03703 -0.0474,-0.05185 -0.003,0 -0.008,-0.0027 -0.0104,-0.0027 -0.66632,-0.227389 -1.33,-0.451815 -1.9963,-0.676982 -0.005,-0.0026 -0.0104,-0.0052 -0.0156,-0.0052 -0.0526,-0.0074 -0.0444,-0.02222 -0.0992,0.0052 l -2.40915,1.753338 -0.0185,0.01481 -0.0207,0.01481 c -0.0415,0.03703 -0.0341,0.02963 -0.0393,0.0837 m -4.91497,-1.160201 c 0,0.0027 -0.0133,0.02222 -0.0133,0.02222 0,0.0026 0,0.0074 0,0.0074 0,0.0053 -0.003,0.0074 -0.003,0.01481 0,0.03703 0.003,0.07407 0.003,0.117769 0,0.0074 0.003,0.01481 0.003,0.02963 0.008,0.154061 0.0237,0.37108 0.0237,0.627356 0,0.0052 0.003,0.0074 0.003,0.01481 0.008,0.109621 0.0259,0.222204 0.0467,0.331825 0.0237,0.109621 0.0526,0.222204 0.0915,0.337009 0.0363,0.112584 0.0836,0.224426 0.1385,0.339973 0.0259,0.05185 0.0415,0.11999 0.0888,0.167393 0.0341,0.03703 0.0681,0.112584 0.10451,0.172579 0.28479,0.11999 0.9668,0.734014 1.86303,1.343001 0.0652,0.02222 0.13066,0.03703 0.19339,0.05185 0.0652,0.01481 0.12807,0.02963 0.19073,0.03703 0.1254,0.01481 0.24561,0.02963 0.36582,0.03703 0.11496,0.0027 0.23258,0 0.34494,-0.0074 0.11495,-0.01481 0.22472,-0.02963 0.33182,-0.05185 0.008,-0.0027 0.0104,-0.0027 0.0185,-0.0053 0.32664,-0.09925 0.60358,-0.179985 0.75253,-0.229611 0.005,0 0.0104,-0.0027 0.0156,-0.0053 0.0467,-0.03703 0.0289,-0.04444 0.0363,-0.08073 0,-0.682166 -0.003,-1.361296 -0.008,-2.043314 v -0.02222 -0.01481 -0.01481 -0.02222 -0.02222 -0.01481 c -0.005,-0.04444 -0.0104,-0.05185 -0.0415,-0.07407 l -0.0104,-0.0074 -0.0104,-0.0074 -0.0133,-0.0074 -0.0104,-0.0074 -0.0104,-0.0074 -0.0104,-0.0053 -0.0104,-0.0074 -0.0104,-0.0074 -0.0104,-0.0074 -0.0133,-0.0074 -0.0104,-0.0053 -0.0133,-0.0074 -1.03473,-0.752531 -0.55655,-0.405152 -0.55655,-0.405152 -0.0311,-0.02222 -0.0341,-0.02222 c -0.06,-0.04444 -0.11496,-0.01481 -0.18814,0.0053 -0.0392,0.0074 -0.0836,0.02222 -0.13325,0.03703 -0.59054,0.164431 -1.86826,0.579952 -1.88132,0.629578 m 1.95187,-5.858186 0.0156,0.02222 0.0156,0.02222 0.0156,0.02222 0.0156,0.02222 0.20384,0.282199 0.65587,0.904074 c 0.0967,0.107399 0.21687,0.316271 0.32923,0.410337 0.0289,0.02222 0.0548,0.04444 0.0915,0.04444 h 0.0185 0.0185 0.0207 1.42929 1.37702 0.0496 c 0.0467,0 0.0704,0.0027 0.10192,-0.03703 0.003,-0.0074 0.0104,-0.01481 0.0156,-0.02222 0.2796,-0.368117 1.34044,-1.737635 1.30386,-1.810814 -0.003,-0.0052 -0.005,-0.0074 -0.008,-0.01481 -0.003,-0.0027 -0.005,-0.0074 -0.008,-0.01481 -0.0915,-0.128138 -0.27434,-0.328862 -0.47292,-0.608839 -0.005,-0.0026 -0.008,-0.0074 -0.0133,-0.01481 -0.0704,-0.0837 -0.14895,-0.162209 -0.23258,-0.240721 -0.0836,-0.07555 -0.17243,-0.151839 -0.26916,-0.219241 -0.0496,-0.03703 -0.0993,-0.06666 -0.15154,-0.09925 -0.0496,-0.03703 -0.10451,-0.06666 -0.1594,-0.09407 -0.0237,-0.01481 -0.0496,-0.02963 -0.0758,-0.03703 -0.0237,-0.01481 -0.0496,-0.02222 -0.0758,-0.03703 -0.0259,-0.01481 -0.0496,-0.02963 -0.0784,-0.03703 -0.13066,-0.04444 -0.21428,-0.03703 -0.29265,-0.04444 -0.38152,-0.0052 -0.74469,-0.0074 -1.05824,-0.0074 -0.55922,0.0026 -0.97725,0.0074 -1.11835,-0.0027 -0.0155,0.0053 -0.0311,0.01481 -0.0467,0.01481 -0.0259,0.0074 -0.0578,0.02222 -0.081,0.03703 -0.0967,0.03703 -0.18813,0.0837 -0.27702,0.128138 -0.10976,0.05925 -0.21427,0.122953 -0.31093,0.193317 -0.0967,0.06666 -0.18814,0.140729 -0.27176,0.217019 -0.0836,0.07555 -0.16199,0.157025 -0.23516,0.239981 -0.003,0.0053 -0.008,0.0074 -0.0104,0.01481 -0.1437,0.196281 -0.26917,0.365896 -0.36323,0.494034 -0.005,0.0074 -0.0104,0.01481 -0.0156,0.02222 -0.005,0.0074 -0.008,0.01481 -0.0156,0.01481 -0.003,0.0074 -0.008,0.01481 -0.0133,0.02222 -0.005,0.0052 -0.008,0.0074 -0.0104,0.01481 -0.005,0.0074 -0.0104,0.0074 -0.0156,0.01481 -0.0548,0.104436 -0.0548,0.09703 0.003,0.182948 m 1.0086,2.009317 -0.8492,2.60512 -0.0156,0.04444 -0.0133,0.04444 -0.0156,0.04444 c -0.0311,0.07555 -0.10192,0.09925 -0.1751,0.11999 -0.38152,0.125175 -1.38748,0.451815 -1.83168,0.577731 -0.0237,0.0053 -0.0467,0.01481 -0.0681,0.01481 -0.0207,0.0053 -0.0393,0.01481 -0.0548,0.01481 -0.0889,0 -0.0758,-0.0026 -0.12806,-0.05185 -0.005,-0.0074 -0.0133,-0.02222 -0.0207,-0.02963 -0.008,-0.0074 -0.0156,-0.02222 -0.0237,-0.03703 -0.008,-0.0074 -0.0156,-0.02222 -0.0259,-0.03703 -0.008,-0.01481 -0.0185,-0.02963 -0.0259,-0.03703 -0.0104,-0.01481 -0.0185,-0.02963 -0.0289,-0.04444 -0.0104,-0.01481 -0.0207,-0.02963 -0.0289,-0.04444 -0.0392,-0.05185 -0.0784,-0.112584 -0.1228,-0.172579 -0.0415,-0.05925 -0.0888,-0.125175 -0.13584,-0.191095 -0.003,-0.0074 -0.003,-0.0074 -0.008,-0.01481 -0.0548,-0.09629 -0.10451,-0.193317 -0.15413,-0.300716 -0.0444,-0.104436 -0.0836,-0.211834 -0.11762,-0.323677 -0.0341,-0.114806 -0.063,-0.232574 -0.0836,-0.357749 -0.0185,-0.125174 -0.0341,-0.253312 -0.0392,-0.389597 0.22731,-0.699943 0.44677,-1.363962 0.6715,-2.061609 0.0207,-0.06666 0.0526,-0.148877 0.0967,-0.201465 0.0652,-0.07555 0.13065,-0.146655 0.19857,-0.211834 0.0888,-0.08592 0.18028,-0.167394 0.27694,-0.237759 0.0941,-0.07407 0.19073,-0.138507 0.28746,-0.193317 0.0993,-0.05925 0.19858,-0.107399 0.30309,-0.15184 0.003,-0.0027 0.008,-0.0053 0.0133,-0.0074 0.21428,-0.07407 0.39456,-0.146655 0.53307,-0.201465 0.0104,-0.0026 0.0207,-0.0052 0.0289,-0.0074 0.008,-0.0026 0.0185,-0.0074 0.0259,-0.0074 0.008,-0.0026 0.0156,-0.0052 0.0237,-0.0074 0.008,-0.0026 0.0185,-0.0053 0.0237,-0.0074 0.008,-0.0026 0.0156,-0.0074 0.0237,-0.0074 0.11236,-0.02222 0.10451,-0.04444 0.1751,0.05185 0.21946,0.284421 0.89101,1.131389 1.17321,1.549429 0.008,0.01481 0.0156,0.02222 0.0237,0.03703 0.008,0.01481 0.0156,0.02222 0.0237,0.03703 0.005,0.0074 0.0104,0.02222 0.0185,0.02963 0.003,0.0074 0.0104,0.02222 0.0156,0.02963 0.005,0.0074 0.0104,0.01481 0.0133,0.02963 0.0207,0.03703 0.0289,0.07407 0.0185,0.109621"
       style="fill:#000000;fill-opacity:1;fill-rule:evenodd;stroke:none;stroke-width:2.61296" />
    <path
       id="path7952"
       d="m 112.03037,70.262775 -0.0207,-0.01481 -0.0185,-0.01481 c -0.008,-0.0053 -0.0133,-0.0074 -0.0207,-0.01481 -0.008,-0.0053 -0.0133,-0.0074 -0.0207,-0.01481 -0.008,-0.0052 -0.0156,-0.0074 -0.0237,-0.0074 -0.008,-0.0052 -0.0156,-0.0074 -0.0237,-0.0074 -0.0104,-0.0026 -0.0185,-0.0074 -0.0289,-0.0074 -0.008,-0.0026 -0.0156,-0.0053 -0.0259,-0.0074 -0.0104,-0.0026 -0.0185,-0.0026 -0.0289,-0.0053 -0.0104,-0.0026 -0.0185,-0.0052 -0.0289,-0.0052 -0.008,-0.0026 -0.0185,-0.0053 -0.0289,-0.0074 -0.008,0 -0.0185,0 -0.0259,-0.0026 -0.0104,0 -0.0207,-0.0026 -0.0311,-0.0026 -0.008,0 -0.0185,0 -0.0259,0 h -0.0259 -0.0259 c -0.10451,-0.0027 -0.19857,0.03703 -0.29005,0.09925 -0.008,0.0026 -0.0133,0.0074 -0.0185,0.0074 -0.008,0.0053 -0.0133,0.0074 -0.0185,0.01481 l -2.31246,1.66964 c -0.008,0.0053 -0.0185,0.01481 -0.0259,0.01481 -0.0548,0.04444 -0.0888,0.06666 -0.12539,0.135544 -0.003,0.0052 -0.005,0.0074 -0.008,0.01481 -0.003,0.0053 -0.003,0.0074 -0.005,0.01481 -0.003,0.0053 -0.005,0.0074 -0.008,0.01481 0,0.0053 -0.003,0.0074 -0.005,0.01481 -0.003,0.0053 -0.005,0.0074 -0.005,0.01481 -0.003,0.0053 -0.005,0.0074 -0.005,0.01481 -0.003,0.0052 -0.003,0.0074 -0.003,0.01481 -0.003,0.0053 -0.003,0.0074 -0.003,0.01481 -0.003,0.0053 -0.003,0.01481 -0.003,0.01481 0,0.0052 -0.003,0.01481 -0.003,0.01481 v 0.01481 0.01481 c 0,0.0052 0,0.0074 0.003,0.01481 0,0.0053 0,0.0074 0,0.01481 0,0.0053 0.003,0.0074 0.003,0.01481 0,0.0053 0.003,0.0074 0.003,0.01481 0.003,0.0053 0.003,0.0074 0.005,0.01481 0,0.0074 0.003,0.0074 0.003,0.01481 0.003,0.0053 0.005,0.0074 0.008,0.01481 0,0.0052 0.003,0.0074 0.005,0.01481 0.003,0.0052 0.005,0.0074 0.008,0.01481 0,0.0026 0.005,0.0074 0.008,0.01481 0.003,0.0053 0.005,0.0074 0.008,0.01481 0.003,0.0053 0.005,0.0074 0.008,0.01481 0.003,0.0052 0.005,0.0074 0.0104,0.01481 0.003,0.0053 0.005,0.0074 0.0104,0.01481 0.003,0.0052 0.005,0.0074 0.0104,0.01481 0.003,0.0052 0.008,0.0074 0.0104,0.0074 0.06,0.05926 0.0967,0.07851 0.17243,0.104436 0.008,0.0026 0.0156,0.0053 0.0237,0.0074 0.008,0.0026 0.0155,0.0074 0.0237,0.0074 0.008,0 0.0156,0.0026 0.0237,0.0074 0.005,0.0026 0.0156,0.0052 0.0237,0.0074 0.005,0.0026 0.0133,0.0052 0.0207,0.0074 0.008,0.0026 0.0156,0.0052 0.0237,0.0074 0.005,0 0.0155,0.0052 0.0237,0.0074 0.008,0.0026 0.0133,0.0052 0.0207,0.0074 0.008,0.0027 0.0185,0.0053 0.0237,0.0074 0.008,0.0026 0.0155,0.0074 0.0237,0.0074 0.008,0.0027 0.0156,0.0053 0.0207,0.0074 0.008,0.0026 0.0156,0.0074 0.0237,0.0074 0.1751,0.07407 0.34753,0.148877 0.51737,0.232573 0.28479,0.143692 0.55654,0.302939 0.81785,0.483664 0.26132,0.177764 0.50952,0.373303 0.74208,0.585138 0.23516,0.211834 0.45463,0.439223 0.65846,0.679203 0.003,0.0026 0.008,0.0074 0.0133,0.01481 0.003,0.0053 0.008,0.0074 0.0104,0.01481 0.005,0.0052 0.008,0.0074 0.0156,0.01481 0.003,0.0052 0.008,0.0074 0.0104,0.01481 0.005,0.0074 0.0104,0.0074 0.0133,0.01481 0.005,0.0052 0.008,0.0074 0.0133,0.01481 0.003,0.0053 0.008,0.0074 0.0133,0.01481 0.003,0.0052 0.008,0.0074 0.0104,0.01481 0.005,0.0026 0.008,0.0074 0.0133,0.01481 0.005,0.0074 0.008,0.0074 0.0133,0.01481 0.003,0.0026 0.008,0.0074 0.0104,0.01481 0.005,0.0074 0.0104,0.01481 0.0156,0.01481 0.003,0.0053 0.005,0.0074 0.0104,0.01481 0.005,0.0052 0.0104,0.01481 0.0133,0.01481 0.005,0.0053 0.008,0.0074 0.0104,0.01481 0.005,0.0053 0.008,0.0074 0.0133,0.01481 0.0415,0.05185 0.0548,0.07555 0.12022,0.104436 0.0311,0.01481 0.0652,0.02963 0.0967,0.03703 0.0341,0.0074 0.0652,0.01481 0.0966,0.01481 0.0341,0.0026 0.0652,0.0026 0.0967,0 0.0341,-0.0027 0.063,-0.0074 0.0941,-0.01481 0.0311,-0.0074 0.063,-0.02222 0.0862,-0.03703 0.081,-0.05925 0.10711,-0.133323 0.1411,-0.219242 l 1.00338,-2.581566 c 0.0289,-0.102214 0.0311,-0.122953 0.0311,-0.22961 0.003,-0.0074 -0.003,-0.02222 -0.003,-0.03703 0,-0.0074 -0.003,-0.02222 -0.005,-0.03703 -0.003,-0.01481 -0.005,-0.02222 -0.008,-0.03703 -0.003,-0.01481 -0.005,-0.02222 -0.008,-0.03703 -0.005,-0.01481 -0.008,-0.02222 -0.0104,-0.03703 -0.005,-0.0074 -0.008,-0.02222 -0.0156,-0.03703 -0.003,-0.01481 -0.008,-0.02222 -0.0133,-0.03703 -0.0474,-0.0837 -0.0681,-0.107399 -0.14895,-0.167394 l -0.0207,-0.01481 z"
       style="fill:#ffffff;fill-opacity:1;fill-rule:evenodd;stroke:none;stroke-width:2.61296" />
    <path
       id="path7953"
       d="m 116.86343,81.411786 c 0.003,-0.0074 0.003,-0.01481 0.005,-0.02963 0.003,-0.0052 0.003,-0.01481 0.005,-0.02222 0,-0.0074 0,-0.01481 0,-0.02963 v -0.02963 c 0,-0.0074 0,-0.01481 0,-0.02963 0,-0.0074 -0.003,-0.01481 -0.003,-0.02963 0,-0.0074 -0.003,-0.02222 -0.003,-0.02963 -0.005,-0.0074 -0.005,-0.01481 -0.005,-0.02963 -0.003,-0.0074 -0.005,-0.01481 -0.008,-0.02963 -0.003,-0.0074 -0.003,-0.01481 -0.005,-0.02963 -0.003,-0.0074 -0.005,-0.01481 -0.008,-0.02963 -0.003,-0.0074 -0.003,-0.01481 -0.008,-0.02963 -0.003,-0.0074 -0.008,-0.01481 -0.0104,-0.02963 -0.0289,-0.09703 -0.0941,-0.172579 -0.18287,-0.242943 -0.008,-0.0053 -0.0133,-0.0074 -0.0185,-0.01481 -0.005,-0.0026 -0.0133,-0.0074 -0.0185,-0.01481 l -2.31507,-1.667048 c -0.008,-0.0053 -0.0185,-0.01481 -0.0259,-0.01481 -0.06,-0.03703 -0.0915,-0.05925 -0.16724,-0.07851 -0.005,0 -0.0104,-0.0027 -0.0156,-0.0027 -0.003,0 -0.0104,0 -0.0133,-0.0026 -0.008,0 -0.0133,0 -0.0185,0 -0.008,0 -0.0133,0 -0.0185,0 -0.008,0 -0.0133,0 -0.0185,0 -0.005,0 -0.0104,0 -0.0185,0 -0.005,0 -0.0104,0 -0.0156,0.0026 -0.005,0 -0.0104,0 -0.0155,0.0027 -0.005,0 -0.0133,0 -0.0156,0.0026 -0.005,0 -0.0104,0 -0.0185,0.0026 -0.003,0.0027 -0.008,0.0027 -0.0133,0.0053 -0.005,0 -0.0104,0.0026 -0.0133,0.0052 -0.005,0.0027 -0.0104,0.0027 -0.0155,0.0053 -0.005,0.0026 -0.008,0.0026 -0.0133,0.0052 -0.005,0.0053 -0.008,0.0053 -0.0133,0.0074 -0.005,0.0027 -0.0104,0.0053 -0.0133,0.0074 -0.005,0 -0.008,0.0053 -0.0133,0.0074 -0.005,0.0026 -0.008,0.0074 -0.0133,0.0074 -0.003,0.0026 -0.005,0.0053 -0.0104,0.0074 -0.003,0.0026 -0.008,0.0074 -0.0104,0.0074 -0.005,0.0026 -0.008,0.0074 -0.0104,0.0074 -0.005,0.0053 -0.008,0.0074 -0.0104,0.01481 -0.005,0.0052 -0.008,0.0074 -0.0133,0.01481 0,0.0026 -0.005,0.0074 -0.008,0.0074 -0.005,0.0053 -0.005,0.0074 -0.008,0.01481 -0.003,0.0053 -0.008,0.0074 -0.0104,0.01481 -0.003,0.0026 -0.005,0.0074 -0.008,0.01481 -0.003,0.0053 -0.005,0.0074 -0.008,0.01481 -0.005,0.0074 -0.0104,0.01481 -0.0133,0.02963 -0.005,1.201976 -0.31353,2.333365 -0.85443,3.321061 -0.063,0.122953 -0.13066,0.240721 -0.20117,0.357749 -0.003,0.0053 -0.008,0.01481 -0.0104,0.01481 -0.005,0.0074 -0.005,0.01481 -0.0104,0.01481 -0.003,0.0052 -0.008,0.0074 -0.0104,0.01481 -0.005,0.0052 -0.008,0.0074 -0.0104,0.01481 -0.003,0.0053 -0.008,0.0074 -0.0104,0.01481 -0.005,0.0053 -0.008,0.01481 -0.0104,0.01481 -0.005,0.0053 -0.008,0.0074 -0.0104,0.01481 -0.005,0.0052 -0.008,0.0074 -0.0104,0.01481 -0.005,0.0026 -0.008,0.0074 -0.0133,0.01481 -0.003,0.0053 -0.005,0.0074 -0.0104,0.01481 -0.003,0.0053 -0.005,0.0074 -0.0104,0.01481 -0.003,0.0026 -0.005,0.0074 -0.0104,0.01481 -0.003,0.0052 -0.008,0.0074 -0.0104,0.01481 -0.003,0.0053 -0.005,0.01481 -0.0104,0.01481 -0.003,0.0074 -0.008,0.01481 -0.0104,0.01481 -0.005,0.0052 -0.008,0.0074 -0.0133,0.01481 -0.0363,0.05185 -0.0526,0.07851 -0.06,0.148877 -0.003,0.02963 -0.005,0.06666 -0.003,0.102214 0.003,0.02963 0.005,0.06666 0.0133,0.09703 0.008,0.02963 0.0185,0.05925 0.0311,0.09407 0.0104,0.02963 0.0259,0.05925 0.0444,0.08073 0.0185,0.02963 0.0393,0.05185 0.0652,0.07407 0.0784,0.05926 0.15939,0.05926 0.25086,0.05926 l 2.76451,0.14147 c 0.1071,-0.0074 0.12806,-0.0074 0.22732,-0.04444 0.0133,-0.0027 0.0237,-0.0074 0.0341,-0.01481 0.0133,-0.0026 0.0237,-0.0074 0.0341,-0.01481 0.0104,-0.0026 0.0207,-0.0074 0.0311,-0.01481 0.0104,-0.0074 0.0185,-0.01481 0.0289,-0.02222 0.0104,-0.0052 0.0207,-0.01481 0.0289,-0.02222 0.0104,-0.0074 0.0185,-0.01481 0.0289,-0.02222 0.008,-0.0053 0.0185,-0.01481 0.0259,-0.02222 0.0652,-0.07407 0.081,-0.09629 0.11236,-0.193317 z"
       style="fill:#ffffff;fill-opacity:1;fill-rule:evenodd;stroke:none;stroke-width:2.61296" />
    <path
       id="path7954"
       d="m 102.29842,70.134267 c -0.0888,-0.05925 -0.1071,-0.06666 -0.20902,-0.102214 -0.0104,-0.0026 -0.0237,-0.0026 -0.0341,-0.0052 -0.0133,-0.0027 -0.0259,-0.0053 -0.0363,-0.0053 -0.0133,-0.0026 -0.0237,-0.0026 -0.0363,-0.0026 -0.0104,0 -0.0237,-0.0053 -0.0363,-0.0053 -0.0133,0 -0.0237,0 -0.0341,0.0027 -0.0133,0 -0.0259,0 -0.0392,0.0026 -0.008,0 -0.0237,0.0026 -0.0341,0.0026 l -2.092972,1.468473 c -0.0052,0.0053 -0.01333,0.01481 -0.01852,0.01481 -0.0081,0.0053 -0.01037,0.01481 -0.01555,0.02222 -0.0052,0.0074 -0.01037,0.01481 -0.01852,0.02222 -0.0052,0.0074 -0.01037,0.01481 -0.01555,0.02222 -0.003,0.0074 -0.01037,0.01481 -0.01333,0.02963 -0.0081,0.0074 -0.01037,0.01481 -0.01555,0.02222 -0.003,0.0074 -0.0081,0.01481 -0.01333,0.02963 -0.0052,0.0074 -0.0081,0.01481 -0.01037,0.02963 -0.0052,0.0074 -0.0081,0.01481 -0.01037,0.02963 -0.0052,0.0074 -0.0081,0.01481 -0.01037,0.02963 -0.0052,0.0074 -0.0052,0.01481 -0.0081,0.02963 -0.0052,0.0074 -0.0052,0.01481 -0.0081,0.02222 -0.03629,0.09703 -0.02592,0.198503 0.0081,0.305901 0,0.0074 0.003,0.01481 0.0052,0.02222 0.003,0.0074 0.0052,0.01481 0.0081,0.02222 0.003,0.0074 0.0052,0.01481 0.0081,0.02222 l 0.906702,2.714889 c 0.0237,0.06666 0.0392,0.102214 0.0888,0.159246 0.005,0.0026 0.008,0.0074 0.0104,0.0074 0.005,0.0026 0.008,0.0074 0.0104,0.0074 0.008,0.0026 0.0104,0.0074 0.0156,0.0074 0.008,0.0053 0.0104,0.0074 0.0133,0.01481 0.008,0.0026 0.0104,0.0074 0.0155,0.0074 0.003,0.0052 0.0104,0.0074 0.0133,0.0074 0.005,0.0052 0.0133,0.0052 0.0156,0.0074 0.005,0.0026 0.0104,0.0052 0.0156,0.0052 0.005,0.0027 0.0104,0.0053 0.0133,0.0074 0.005,0.0026 0.0104,0.0053 0.0155,0.0053 0.005,0.0026 0.0104,0.0026 0.0133,0.0052 0.005,0.0027 0.0104,0.0027 0.0156,0.0053 0.005,0 0.0104,0.0026 0.0156,0.0026 0.005,0.0026 0.008,0.0026 0.0156,0.0026 0.003,0.0027 0.0104,0.0027 0.0133,0.0027 0.005,0 0.0104,0 0.0155,0.0026 0.005,0 0.0104,0 0.0156,0 h 0.0133 c 0.003,0 0.0104,0 0.0133,0 0.008,-0.0026 0.0104,-0.0026 0.0185,-0.0053 0.005,0.0027 0.0104,0 0.0133,-0.0026 0.008,0 0.0104,0 0.0156,-0.0026 0.008,0 0.0133,-0.0026 0.0156,-0.0026 0.005,-0.0027 0.0104,-0.0027 0.0156,-0.0053 0.005,0 0.0104,-0.0026 0.0156,-0.0053 0.005,-0.0026 0.0104,-0.0026 0.0156,-0.0052 0.003,0 0.0104,-0.0053 0.0133,-0.0053 0.005,-0.0026 0.0104,-0.0052 0.0156,-0.0074 0.0133,-0.0052 0.0207,-0.01481 0.0311,-0.01481 0.0392,-0.05185 0.0784,-0.104436 0.11754,-0.157024 0.0682,-0.08592 0.13325,-0.167393 0.20117,-0.248128 0.0704,-0.08073 0.1411,-0.159246 0.21169,-0.237758 0.0733,-0.07555 0.14636,-0.151839 0.21687,-0.224426 0.0758,-0.07407 0.15154,-0.143692 0.22998,-0.214056 0.0758,-0.06666 0.1568,-0.135545 0.23776,-0.198503 0.0784,-0.06666 0.15939,-0.130359 0.24035,-0.193317 0.0836,-0.05926 0.16984,-0.11999 0.25087,-0.177763 0.0733,-0.05185 0.14895,-0.09925 0.22472,-0.146655 0,0 0.003,0 0.003,-0.0026 0.003,0 0.003,-0.0026 0.005,-0.0026 h 0.003 c 0,-0.0026 0.003,-0.0026 0.005,-0.0053 0.003,0 0.003,-0.0026 0.005,-0.0026 v 0 c 0.0704,-0.04444 0.1411,-0.08888 0.21161,-0.13036 0.27176,-0.159246 0.55396,-0.300716 0.84398,-0.423669 0.005,-0.0026 0.0133,-0.0052 0.0185,-0.0074 0.005,-0.0026 0.0133,-0.0052 0.0185,-0.0074 0.005,-0.0026 0.0133,-0.0052 0.0185,-0.0052 0.008,-0.0053 0.0104,-0.0053 0.0185,-0.0074 0.005,-0.0026 0.0104,-0.0026 0.0185,-0.0074 0.008,-0.0026 0.0104,-0.0026 0.0185,-0.0053 0.005,-0.0026 0.0104,-0.0052 0.0185,-0.0074 0.008,-0.0027 0.0104,-0.0053 0.0185,-0.0074 0.005,-0.0027 0.0133,-0.0053 0.0185,-0.0074 0.005,-0.0026 0.0133,-0.0026 0.0185,-0.0053 0.005,-0.0052 0.0133,-0.0074 0.0185,-0.0074 0.005,-0.0027 0.0133,-0.0074 0.0185,-0.0074 0.005,-0.0027 0.0133,-0.0053 0.0185,-0.0053 0.005,-0.0026 0.0133,-0.0074 0.0185,-0.0074 0.008,-0.0026 0.0156,-0.0052 0.0185,-0.0074 0.008,-0.0026 0.0133,-0.0052 0.0185,-0.0074 0.0652,-0.02222 0.0915,-0.02963 0.13591,-0.0837 0.0237,-0.02963 0.0444,-0.05185 0.063,-0.08073 0.0185,-0.02963 0.0341,-0.05926 0.0496,-0.08592 0.0104,-0.02963 0.0207,-0.05925 0.0289,-0.09407 0.008,-0.02963 0.0104,-0.05925 0.0104,-0.09407 0,-0.02963 0,-0.05925 -0.0104,-0.0911 -0.0311,-0.09407 -0.0941,-0.14147 -0.16724,-0.201465 z"
       style="fill:#ffffff;fill-opacity:1;fill-rule:evenodd;stroke:none;stroke-width:2.61296" />
    <path
       id="path7955"
       d="m 100.73967,82.914996 c 0,0 0,0 -0.003,-0.0026 m -0.11236,0.867484 c 0.0681,-0.0026 0.10977,-0.0026 0.18028,-0.03703 0.003,-0.0026 0.0104,-0.0052 0.0133,-0.0074 0.003,-0.0026 0.008,-0.0052 0.0133,-0.0074 0.005,-0.0027 0.0104,-0.0053 0.0156,-0.0074 0.005,-0.0053 0.0104,-0.0074 0.0155,-0.0074 0.003,-0.0053 0.0104,-0.0074 0.0133,-0.01481 0.005,-0.0027 0.0104,-0.0074 0.0133,-0.0074 0.005,-0.0026 0.008,-0.0074 0.0133,-0.0074 0.005,-0.0026 0.0104,-0.0074 0.0133,-0.01481 0.003,-0.0026 0.008,-0.0074 0.0104,-0.0074 0.003,-0.0053 0.008,-0.0074 0.0104,-0.01481 0.003,-0.0026 0.005,-0.0074 0.008,-0.0074 0.005,-0.0026 0.008,-0.0074 0.0104,-0.01481 0,-0.0053 0.005,-0.0074 0.008,-0.01481 0.003,-0.0053 0.005,-0.0074 0.008,-0.01481 0.003,-0.0052 0.005,-0.0074 0.008,-0.01481 0,-0.0053 0.003,-0.0074 0.005,-0.01481 0.003,-0.0074 0.003,-0.0074 0.005,-0.01481 0,-0.0053 0.003,-0.0074 0.005,-0.01481 0,-0.0026 0,-0.0074 0.003,-0.01481 0.003,-0.0074 0.003,-0.0074 0.003,-0.01481 0.003,-0.0052 0.003,-0.0074 0.003,-0.01481 0,-0.0053 0.003,-0.0074 0,-0.01481 0.003,-0.0053 0.003,-0.0074 0.005,-0.01481 v -0.01481 c 0,-0.0053 0,-0.01481 -0.003,-0.01481 0.003,-0.0074 0.003,-0.01481 0,-0.01481 0.003,-0.0052 0,-0.01481 0,-0.01481 -0.003,-0.0052 -0.003,-0.0074 -0.003,-0.01481 -0.0104,-0.08592 -0.0341,-0.122953 -0.0784,-0.188133 -0.003,-0.0074 -0.0104,-0.01481 -0.0156,-0.02222 -0.003,-0.0053 -0.008,-0.01481 -0.0133,-0.02222 -0.003,-0.0027 -0.008,-0.01481 -0.0104,-0.01481 -0.008,-0.0074 -0.0104,-0.01481 -0.0155,-0.02222 -0.005,-0.0074 -0.0104,-0.01481 -0.0133,-0.02222 -0.005,-0.0052 -0.008,-0.01481 -0.0133,-0.02222 -0.005,-0.0053 -0.008,-0.01481 -0.0133,-0.02222 -0.005,-0.0053 -0.0104,-0.01481 -0.0133,-0.02222 -0.005,-0.0052 -0.0104,-0.01481 -0.0156,-0.02222 -0.003,-0.0052 -0.008,-0.0074 -0.0104,-0.01481 -0.005,-0.0074 -0.0104,-0.01481 -0.0133,-0.02222 -0.005,-0.0074 -0.008,-0.01481 -0.0133,-0.01481 -0.005,-0.0074 -0.0133,-0.02222 -0.0207,-0.03703 0,0 -0.003,0 -0.003,-0.0026 0,0 0,0 -0.003,-0.0026 0,0 0,-0.0027 -0.003,-0.0053 -0.003,-0.0052 -0.008,-0.01481 -0.0133,-0.02222 0,0 0,-0.0053 -0.003,-0.0053 0,0 0,-0.0026 0,-0.0026 -0.003,0 -0.003,-0.0026 -0.005,-0.0052 0,-0.0027 0,-0.0027 0,-0.0027 -0.003,-0.0026 -0.003,-0.0026 -0.005,-0.0052 0,-0.0027 -0.003,-0.0053 -0.003,-0.0053 0,-0.0026 -0.003,-0.0026 -0.003,-0.0026 v -0.0026 c -0.003,-0.0027 -0.003,-0.0053 -0.005,-0.0074 v 0 c -0.003,-0.0026 -0.003,-0.0053 -0.005,-0.0074 -0.0548,-0.0911 -0.10451,-0.179986 -0.1568,-0.27183 -0.0496,-0.09407 -0.0941,-0.185911 -0.14369,-0.279977 -0.0415,-0.09407 -0.0862,-0.188133 -0.12806,-0.284421 -0.0415,-0.09407 -0.081,-0.191096 -0.11762,-0.287384 -0.0363,-0.09703 -0.0704,-0.193317 -0.10192,-0.290347 -0.0311,-0.09925 -0.06296,-0.198502 -0.08881,-0.295531 -0.02889,-0.09925 -0.05481,-0.198502 -0.07577,-0.297753 -0.02592,-0.09703 -0.0474,-0.198502 -0.06518,-0.297754 -0.01852,-0.102213 -0.03629,-0.201465 -0.04963,-0.302938 -0.01555,-0.09925 -0.02889,-0.201465 -0.03629,-0.300716 -0.01037,-0.102214 -0.01852,-0.203687 -0.0237,-0.302938 -0.0081,-0.09925 -0.01037,-0.19628 -0.01037,-0.292568 -0.0052,-0.02222 -0.01333,-0.04444 -0.02889,-0.06666 -0.01555,-0.02963 -0.03407,-0.05925 -0.05777,-0.08666 -0.01852,-0.02963 -0.04148,-0.05185 -0.06518,-0.07407 -0.02592,-0.02222 -0.05259,-0.03703 -0.08103,-0.05925 -0.0237,-0.01481 -0.05481,-0.02963 -0.08362,-0.03703 -0.02889,-0.0074 -0.06296,-0.02222 -0.09147,-0.02222 -0.09932,0 -0.164579,0.04444 -0.243017,0.09407 l -2.333368,1.494618 c -0.08103,0.06666 -0.09666,0.07851 -0.161987,0.164431 -0.0053,0.0074 -0.01037,0.02222 -0.01852,0.02963 -0.0053,0.0074 -0.01333,0.02222 -0.01555,0.03703 -0.0052,0.0074 -0.01037,0.02222 -0.01555,0.02963 -0.0053,0.01481 -0.01037,0.02222 -0.01333,0.03703 -0.0053,0.0074 -0.0081,0.02222 -0.01037,0.02963 -0.0026,0.01481 -0.0081,0.02222 -0.01037,0.03703 0,0.0074 -0.0026,0.02222 -0.0053,0.03703 -0.01333,0.09703 -0.01037,0.128138 0.01852,0.222204 l 0.0081,0.02963 0.642762,2.066868 0.0081,0.02222 0.0081,0.02963 0.0081,0.02222 0.0053,0.02222 c 0.0026,0.0052 0.0081,0.01481 0.0081,0.02222 0.0053,0.0074 0.0081,0.01481 0.01333,0.02222 0.0026,0.0074 0.0052,0.01481 0.01037,0.02222 0.0053,0.0074 0.01037,0.01481 0.01555,0.02222 0.0052,0.0074 0.01037,0.01481 0.01555,0.02222 0.0053,0.0074 0.01037,0.01481 0.01556,0.02222 0.0053,0.0053 0.01333,0.01481 0.01852,0.02222 0.0081,0.0074 0.01333,0.01481 0.01852,0.02222 0.0081,0.0074 0.01555,0.01481 0.02074,0.02222 0.0081,0.0052 0.01555,0.0074 0.0237,0.01481 0.0053,0.0074 0.01333,0.01481 0.02074,0.01481 0.0081,0.0074 0.01556,0.01481 0.02074,0.01481 0.0081,0.0074 0.01555,0.0074 0.0237,0.01481 0.0053,0.0053 0.01333,0.0074 0.02074,0.01481 0.08103,0.05925 0.177689,0.08592 0.290051,0.08888 z"
       style="fill:#ffffff;fill-opacity:1;fill-rule:evenodd;stroke:none;stroke-width:2.61296" />
    <path
       id="path7956"
       d="m 107.69646,89.547712 h 0.0237 c 0.008,0 0.0156,0 0.0259,0 0.008,-0.0026 0.0133,-0.0026 0.0237,-0.0053 0.008,0 0.0156,-0.0026 0.0237,-0.0026 0.0104,-0.0026 0.0185,-0.0052 0.0259,-0.0074 0.0104,-0.0026 0.0185,-0.0052 0.0259,-0.0074 0.0104,-0.0053 0.0185,-0.0053 0.0259,-0.0074 0.0104,-0.0026 0.0185,-0.0074 0.0259,-0.01481 0.0104,-0.0026 0.0185,-0.0053 0.0289,-0.0074 0.008,-0.0053 0.0185,-0.0074 0.0259,-0.01481 0.008,-0.0053 0.0156,-0.0074 0.0237,-0.01481 0.008,-0.0026 0.0185,-0.0074 0.0259,-0.01481 0.008,-0.0052 0.0156,-0.0074 0.0207,-0.01481 0.0104,-0.0053 0.0156,-0.0074 0.0237,-0.01481 0.008,-0.0052 0.0156,-0.0074 0.0237,-0.01481 0.0836,-0.05925 0.13324,-0.143692 0.17243,-0.253312 0,-0.0053 0.003,-0.01481 0.005,-0.02222 l 0.87273,-2.738368 c 0.003,-0.0074 0.005,-0.02222 0.008,-0.02963 0.0185,-0.06666 0.0311,-0.107399 0.0207,-0.18517 0,-0.0026 0,-0.0074 0,-0.0074 -0.003,-0.0074 -0.003,-0.01481 -0.005,-0.01481 -0.003,-0.0052 -0.003,-0.01481 -0.003,-0.01481 -0.003,-0.0052 -0.005,-0.01481 -0.005,-0.01481 -0.003,-0.0074 -0.005,-0.01481 -0.005,-0.01481 -0.003,-0.0074 -0.005,-0.0074 -0.008,-0.01481 -0.003,-0.0052 -0.005,-0.0074 -0.008,-0.01481 0,-0.0052 -0.003,-0.0074 -0.005,-0.01481 -0.005,-0.0026 -0.005,-0.0074 -0.008,-0.01481 -0.003,-0.0052 -0.005,-0.0074 -0.008,-0.01481 -0.003,-0.0053 -0.008,-0.0074 -0.0104,-0.01481 -0.003,-0.0053 -0.005,-0.0074 -0.008,-0.0074 -0.003,-0.0053 -0.008,-0.0074 -0.0104,-0.01481 -0.003,-0.0052 -0.008,-0.0074 -0.0104,-0.01481 -0.005,-0.0027 -0.008,-0.0074 -0.0104,-0.0074 -0.003,-0.0053 -0.008,-0.0074 -0.0104,-0.0074 -0.005,-0.0026 -0.008,-0.0074 -0.0133,-0.0074 -0.005,-0.0027 -0.008,-0.0074 -0.0133,-0.0074 -0.003,-0.0026 -0.008,-0.0053 -0.0104,-0.0074 -0.005,-0.0026 -0.0104,-0.0053 -0.0156,-0.0074 -0.003,-0.0026 -0.008,-0.0026 -0.0133,-0.0052 -0.003,-0.0027 -0.008,-0.0053 -0.0133,-0.0074 -0.005,-0.0026 -0.0104,-0.0026 -0.0156,-0.0053 -0.005,0 -0.0104,-0.0052 -0.0156,-0.0052 -0.003,-0.0027 -0.008,-0.0027 -0.0133,-0.0053 -0.008,-0.0026 -0.0104,-0.0026 -0.0185,-0.0052 0,0 -0.005,0 -0.008,-0.0027 -0.003,0.0027 -0.005,0.0027 -0.0104,0.0027 -0.10192,0.02963 -0.20383,0.06666 -0.30568,0.0911 -0.10451,0.02963 -0.20902,0.05185 -0.30834,0.07555 -0.10451,0.02222 -0.20902,0.04444 -0.31353,0.05925 -0.10192,0.01481 -0.20643,0.03703 -0.30835,0.05185 -0.10451,0.0074 -0.20642,0.02222 -0.31093,0.02963 -0.10192,0.0074 -0.20643,0.01481 -0.31094,0.02222 -0.10192,0.0026 -0.20643,0.0052 -0.30835,0.0052 -0.10451,-0.0026 -0.20642,-0.0052 -0.30834,-0.0074 -0.10192,-0.0026 -0.20384,-0.0074 -0.30575,-0.02222 -0.10192,-0.0074 -0.20384,-0.01481 -0.30309,-0.03703 -0.0548,-0.0074 -0.1071,-0.01481 -0.1594,-0.02222 -0.003,0 -0.003,0 -0.005,0 h -0.003 c -0.20643,-0.02963 -0.41545,-0.07407 -0.62188,-0.11999 -0.005,0 -0.0133,-0.0026 -0.0185,-0.0026 -0.005,-0.0026 -0.0133,-0.0053 -0.0207,-0.0074 -0.005,0 -0.0104,-0.0026 -0.0185,-0.0026 -0.005,0 -0.0104,-0.0026 -0.0185,-0.0053 -0.005,0 -0.0133,-0.0026 -0.0185,-0.0052 -0.008,0 -0.0133,0 -0.0207,-0.0027 -0.003,-0.0026 -0.0104,-0.0052 -0.0185,-0.0052 -0.005,-0.0026 -0.0133,-0.0026 -0.0185,-0.0053 -0.008,-0.0026 -0.0133,-0.0026 -0.0207,-0.0052 -0.005,-0.0027 -0.0104,-0.0027 -0.0185,-0.0074 -0.005,0 -0.0133,0 -0.0185,-0.0026 -0.005,-0.0027 -0.0133,-0.0027 -0.0207,-0.0053 -0.005,0 -0.0104,-0.0026 -0.0185,-0.0052 -0.005,0 -0.0104,-0.0027 -0.0185,-0.0053 -0.005,0 -0.0133,-0.0026 -0.0207,-0.0053 -0.005,0 -0.0104,-0.0026 -0.0185,-0.0052 -0.063,-0.01481 -0.0888,-0.02963 -0.15939,-0.0074 -0.0341,0.0052 -0.0652,0.01481 -0.0967,0.02963 -0.0311,0.0074 -0.063,0.02963 -0.0888,0.04444 -0.0289,0.01481 -0.0548,0.03703 -0.0784,0.05925 -0.0259,0.02222 -0.0467,0.04444 -0.0652,0.07407 -0.0185,0.02222 -0.0393,0.05185 -0.0474,0.08073 -0.0311,0.09407 -0.008,0.169616 0.0185,0.258497 l 0.72638,2.67304 c 0.0393,0.09703 0.0467,0.117768 0.10977,0.203687 0.008,0.0074 0.0185,0.01481 0.0259,0.02963 0.008,0.0074 0.0185,0.02222 0.0259,0.02963 0.008,0.0074 0.0185,0.01481 0.0259,0.02963 0.0104,0.0053 0.0185,0.01481 0.0289,0.02222 0.0104,0.0052 0.0185,0.01481 0.0289,0.01481 0.0104,0.0052 0.0207,0.01481 0.0311,0.02222 0.0104,0.0052 0.0207,0.0074 0.0311,0.01481 0.0862,0.03703 0.11755,0.04444 0.21688,0.04444 z"
       style="fill:#ffffff;fill-opacity:1;fill-rule:evenodd;stroke:none;stroke-width:2.61296" />
    <path
       id="path7957"
       d="m 91.967587,106.80156 1.170601,-2.84029 h 1.755907 v 0.11777 h -0.141099 c -0.125397,0 -0.229907,0.0222 -0.305679,0.0667 -0.05259,0.0296 -0.09407,0.0807 -0.128063,0.15184 -0.0237,0.0519 -0.03407,0.18295 -0.03407,0.39478 v 2.84288 c 0,0.21924 0.01037,0.35775 0.03407,0.41256 0.0237,0.0519 0.07036,0.10221 0.143692,0.14369 0.07036,0.0444 0.167245,0.0593 0.29005,0.0593 h 0.141099 v 0.11777 h -2.252363 v -0.11777 h 0.1411 c 0.125397,0 0.227314,-0.0222 0.305752,-0.0667 0.04963,-0.0296 0.09407,-0.0785 0.125397,-0.15184 0.0237,-0.0519 0.03629,-0.18295 0.03629,-0.39997 v -3.19566 l -1.653998,3.93249 h -0.07577 l -1.677514,-3.90376 v 3.03627 c 0,0.21184 0.0052,0.3422 0.01555,0.39182 0.02592,0.10444 0.08622,0.1911 0.180282,0.2585 0.09147,0.0667 0.235167,0.0992 0.431151,0.0992 v 0.11777 H 88.99627 v -0.11777 h 0.04444 c 0.09666,0.003 0.18554,-0.0148 0.266497,-0.0444 0.08103,-0.0296 0.146359,-0.0785 0.188132,-0.13036 0.04148,-0.0519 0.07333,-0.13332 0.09933,-0.23257 0.0026,-0.0222 0.0052,-0.13036 0.0052,-0.32368 v -2.72792 c 0,-0.21702 -0.01037,-0.35257 -0.03407,-0.40738 -0.0237,-0.0519 -0.07333,-0.10221 -0.143692,-0.14073 -0.07333,-0.0444 -0.169838,-0.0593 -0.287384,-0.0593 h -0.138507 v -0.11777 h 1.758516 z"
       style="fill:#000000;fill-opacity:1;fill-rule:evenodd;stroke:none;stroke-width:2.61296" />
  </g>
</svg>
