<?xml version="1.0" encoding="UTF-8"?>
<svg id="svg" width="342.91" height="343.12" version="1.1" viewBox="0 0 342.91 343.12" xmlns="http://www.w3.org/2000/svg">
 <g id="svgg" transform="translate(-28.499,-10.869)">
  <path d="m122.24 13.127 58.247 150.05-151.99-58.34 76.213 77.597-76.213 77.598 151.99-58.34-58.541 151.79 77.362-76.45 78.209 76.966-58.243-152.1 152.14 58.913-77.473-78.379 77.473-78.378-152.14 58.907 58.266-152.09-78.197 76.963m57.124-41.886-41.307 121.01 124.71-42.776-58.085 58.253 58.085 58.254-124.71-42.776 41.307 121.01-56.46-54.706-58.18 58.084 42.743-124.67-122.13 41.563 55.782-56.757-55.782-56.756 122.13 41.563-42.743-124.67 58.18 58.084m-43.227-32.747 37.241 108.8-108.81-36.606 41.119 42.331-41.119 42.332 108.81-36.606-36.478 109.02 42.464-41.061 41.892 40.238-36.17-107.93 109.08 36.398-41.119-42.389 41.119-42.389-109.08 36.397 36.172-107.87-41.892 40.181" fill="#ce132d" fill-rule="evenodd"/>
 </g>
</svg>
