<?xml version="1.0" encoding="UTF-8" standalone="no"?>
<!-- Created with Inkscape (http://www.inkscape.org/) -->

<svg
   width="67.08239mm"
   height="86.570625mm"
   viewBox="0 0 67.08239 86.570625"
   version="1.1"
   id="svg1"
   inkscape:version="1.4.2 (f4327f4, 2025-05-13)"
   sodipodi:docname="Football Federation of the Islamic Republic of Mauritania logo.svg"
   xmlns:inkscape="http://www.inkscape.org/namespaces/inkscape"
   xmlns:sodipodi="http://sodipodi.sourceforge.net/DTD/sodipodi-0.dtd"
   xmlns="http://www.w3.org/2000/svg"
   xmlns:svg="http://www.w3.org/2000/svg">
  <sodipodi:namedview
     id="namedview1"
     pagecolor="#ffffff"
     bordercolor="#000000"
     borderopacity="0.25"
     inkscape:showpageshadow="2"
     inkscape:pageopacity="0.0"
     inkscape:pagecheckerboard="0"
     inkscape:deskcolor="#d1d1d1"
     inkscape:document-units="mm"
     inkscape:zoom="0.72604517"
     inkscape:cx="139.79846"
     inkscape:cy="207.28738"
     inkscape:window-width="1920"
     inkscape:window-height="1017"
     inkscape:window-x="-8"
     inkscape:window-y="-8"
     inkscape:window-maximized="1"
     inkscape:current-layer="layer1" />
  <defs
     id="defs1">
    <linearGradient
       x1="0"
       y1="0"
       x2="1"
       y2="0"
       gradientUnits="userSpaceOnUse"
       gradientTransform="matrix(4.2753063,0,0,4.2742493,189.43487,154.37938)"
       spreadMethod="pad"
       id="linearGradient22978">
      <stop
         style="stop-opacity:1;stop-color:#ffed00"
         offset="0"
         id="stop22974" />
      <stop
         style="stop-opacity:1;stop-color:#ffed00"
         offset="0.45"
         id="stop22975" />
      <stop
         style="stop-opacity:1;stop-color:#ffdd00"
         offset="0.5"
         id="stop22976" />
      <stop
         style="stop-opacity:1;stop-color:#ffed00"
         offset="0.55"
         id="stop22977" />
      <stop
         style="stop-opacity:1;stop-color:#ffed00"
         offset="1"
         id="stop22978" />
    </linearGradient>
    <clipPath
       clipPathUnits="userSpaceOnUse"
       id="clipPath22981">
      <path
         d="m 118.492,319.555 h 28.52 v 36.836 h -28.52 z"
         transform="matrix(1.3333333,0,0,1.3333333,1608,0)"
         id="path22981" />
    </clipPath>
    <clipPath
       clipPathUnits="userSpaceOnUse"
       id="clipPath22979">
      <path
         d="M 0,0 H 1191 V 842 H 0 Z"
         id="path22979" />
    </clipPath>
    <clipPath
       clipPathUnits="userSpaceOnUse"
       id="clipPath22984">
      <path
         d="m 118.492,319.555 h 28.52 v 36.836 h -28.52 z"
         transform="matrix(1.3333333,0,0,1.3333333,1608,0)"
         id="path22984" />
    </clipPath>
    <linearGradient
       x1="0"
       y1="0"
       x2="1"
       y2="0"
       gradientUnits="userSpaceOnUse"
       gradientTransform="matrix(23.400469,0,0,23.394683,121.05782,335.72811)"
       spreadMethod="pad"
       id="linearGradient22983">
      <stop
         style="stop-opacity:1;stop-color:#16612b"
         offset="0"
         id="stop22981" />
      <stop
         style="stop-opacity:1;stop-color:#36a236"
         offset="0.5"
         id="stop22982" />
      <stop
         style="stop-opacity:1;stop-color:#16612b"
         offset="1"
         id="stop22983" />
    </linearGradient>
    <clipPath
       clipPathUnits="userSpaceOnUse"
       id="clipPath22987">
      <path
         d="m 118.492,319.555 h 28.52 v 36.836 h -28.52 z"
         transform="matrix(1.3333333,0,0,1.3333333,1608,0)"
         id="path22987" />
    </clipPath>
    <clipPath
       clipPathUnits="userSpaceOnUse"
       id="clipPath22985">
      <path
         d="M 0,0 H 1191 V 842 H 0 Z"
         transform="scale(1,-1.0002471)"
         id="path22985" />
    </clipPath>
    <linearGradient
       x1="0"
       y1="0"
       x2="1"
       y2="0"
       gradientUnits="userSpaceOnUse"
       gradientTransform="matrix(10.061061,0,0,10.058574,186.53119,159.55102)"
       spreadMethod="pad"
       id="linearGradient22991">
      <stop
         style="stop-opacity:1;stop-color:#ffed00"
         offset="0"
         id="stop22987" />
      <stop
         style="stop-opacity:1;stop-color:#ffed00"
         offset="0.46"
         id="stop22988" />
      <stop
         style="stop-opacity:1;stop-color:#ffdd00"
         offset="0.5"
         id="stop22989" />
      <stop
         style="stop-opacity:1;stop-color:#ffed00"
         offset="0.54"
         id="stop22990" />
      <stop
         style="stop-opacity:1;stop-color:#ffed00"
         offset="1"
         id="stop22991" />
    </linearGradient>
    <clipPath
       clipPathUnits="userSpaceOnUse"
       id="clipPath22994">
      <path
         d="m 118.492,319.555 h 28.52 v 36.836 h -28.52 z"
         transform="matrix(1.3333333,0,0,1.3333333,1608,0)"
         id="path22994" />
    </clipPath>
    <clipPath
       clipPathUnits="userSpaceOnUse"
       id="clipPath22992">
      <path
         d="M 0,0 H 1191 V 842 H 0 Z"
         id="path22992" />
    </clipPath>
    <clipPath
       clipPathUnits="userSpaceOnUse"
       id="clipPath22997">
      <path
         d="m 118.492,319.555 h 28.52 v 36.836 h -28.52 z"
         transform="matrix(1.3333333,0,0,1.3333333,1608,0)"
         id="path22997" />
    </clipPath>
    <clipPath
       clipPathUnits="userSpaceOnUse"
       id="clipPath22995">
      <path
         d="M 0,0 H 1191 V 842 H 0 Z"
         id="path22995" />
    </clipPath>
    <clipPath
       clipPathUnits="userSpaceOnUse"
       id="clipPath23000">
      <path
         d="m 118.492,319.555 h 28.52 v 36.836 h -28.52 z"
         transform="matrix(1.3333333,0,0,1.3333333,1608,0)"
         id="path23000" />
    </clipPath>
    <clipPath
       clipPathUnits="userSpaceOnUse"
       id="clipPath22998">
      <path
         d="M 0,0 H 1191 V 842 H 0 Z"
         id="path22998" />
    </clipPath>
    <clipPath
       clipPathUnits="userSpaceOnUse"
       id="clipPath23003">
      <path
         d="m 118.492,319.555 h 28.52 v 36.836 h -28.52 z"
         transform="matrix(1.3333333,0,0,1.3333333,1608,0)"
         id="path23003" />
    </clipPath>
    <clipPath
       clipPathUnits="userSpaceOnUse"
       id="clipPath23001">
      <path
         d="M 0,0 H 1191 V 842 H 0 Z"
         id="path23001" />
    </clipPath>
    <clipPath
       clipPathUnits="userSpaceOnUse"
       id="clipPath23006">
      <path
         d="m 118.492,319.555 h 28.52 v 36.836 h -28.52 z"
         transform="matrix(1.3333333,0,0,1.3333333,1608,0)"
         id="path23006" />
    </clipPath>
    <clipPath
       clipPathUnits="userSpaceOnUse"
       id="clipPath23004">
      <path
         d="M 0,0 H 1191 V 842 H 0 Z"
         id="path23004" />
    </clipPath>
    <clipPath
       clipPathUnits="userSpaceOnUse"
       id="clipPath23009">
      <path
         d="m 118.492,319.555 h 28.52 v 36.836 h -28.52 z"
         transform="matrix(1.3333333,0,0,1.3333333,1608,0)"
         id="path23009" />
    </clipPath>
    <clipPath
       clipPathUnits="userSpaceOnUse"
       id="clipPath23007">
      <path
         d="M 0,0 H 1191 V 842 H 0 Z"
         id="path23007" />
    </clipPath>
    <clipPath
       clipPathUnits="userSpaceOnUse"
       id="clipPath23012">
      <path
         d="m 118.492,319.555 h 28.52 v 36.836 h -28.52 z"
         transform="matrix(1.3333333,0,0,1.3333333,1608,0)"
         id="path23012" />
    </clipPath>
    <clipPath
       clipPathUnits="userSpaceOnUse"
       id="clipPath23010">
      <path
         d="M 0,0 H 1191 V 842 H 0 Z"
         id="path23010" />
    </clipPath>
    <clipPath
       clipPathUnits="userSpaceOnUse"
       id="clipPath23015">
      <path
         d="m 118.492,319.555 h 28.52 v 36.836 h -28.52 z"
         transform="matrix(1.3333333,0,0,1.3333333,1608,0)"
         id="path23015" />
    </clipPath>
    <clipPath
       clipPathUnits="userSpaceOnUse"
       id="clipPath23013">
      <path
         d="M 0,0 H 1191 V 842 H 0 Z"
         id="path23013" />
    </clipPath>
    <clipPath
       clipPathUnits="userSpaceOnUse"
       id="clipPath23018">
      <path
         d="m 118.492,319.555 h 28.52 v 36.836 h -28.52 z"
         transform="matrix(1.3333333,0,0,1.3333333,1608,0)"
         id="path23018" />
    </clipPath>
    <clipPath
       clipPathUnits="userSpaceOnUse"
       id="clipPath23016">
      <path
         d="M 0,0 H 1191 V 842 H 0 Z"
         id="path23016" />
    </clipPath>
    <clipPath
       clipPathUnits="userSpaceOnUse"
       id="clipPath23021">
      <path
         d="m 118.492,319.555 h 28.52 v 36.836 h -28.52 z"
         transform="matrix(1.3333333,0,0,1.3333333,1608,0)"
         id="path23021" />
    </clipPath>
    <clipPath
       clipPathUnits="userSpaceOnUse"
       id="clipPath23019">
      <path
         d="M 0,0 H 1191 V 842 H 0 Z"
         id="path23019" />
    </clipPath>
    <clipPath
       clipPathUnits="userSpaceOnUse"
       id="clipPath23024">
      <path
         d="m 118.492,319.555 h 28.52 v 36.836 h -28.52 z"
         transform="matrix(1.3333333,0,0,1.3333333,1608,0)"
         id="path23024" />
    </clipPath>
    <clipPath
       clipPathUnits="userSpaceOnUse"
       id="clipPath23022">
      <path
         d="M 0,0 H 1191 V 842 H 0 Z"
         transform="scale(1,-1.0002471)"
         id="path23022" />
    </clipPath>
    <clipPath
       clipPathUnits="userSpaceOnUse"
       id="clipPath23027">
      <path
         d="m 118.492,319.555 h 28.52 v 36.836 h -28.52 z"
         transform="matrix(1.3333333,0,0,1.3333333,1608,0)"
         id="path23027" />
    </clipPath>
    <clipPath
       clipPathUnits="userSpaceOnUse"
       id="clipPath23025">
      <path
         d="M 0,0 H 1191 V 842 H 0 Z"
         transform="scale(1,-1.0002471)"
         id="path23025" />
    </clipPath>
    <clipPath
       clipPathUnits="userSpaceOnUse"
       id="clipPath23030">
      <path
         d="m 118.492,319.555 h 28.52 v 36.836 h -28.52 z"
         transform="matrix(1.3333333,0,0,1.3333333,1608,0)"
         id="path23030" />
    </clipPath>
    <radialGradient
       fx="0"
       fy="0"
       cx="0"
       cy="0"
       r="1"
       gradientUnits="userSpaceOnUse"
       gradientTransform="matrix(6.659865,0,0,6.658219,132.80936,343.63059)"
       spreadMethod="pad"
       id="radialGradient23029">
      <stop
         style="stop-opacity:1;stop-color:#fbed80"
         offset="0"
         id="stop23027" />
      <stop
         style="stop-opacity:1;stop-color:#f39f00"
         offset="0.839196"
         id="stop23028" />
      <stop
         style="stop-opacity:1;stop-color:#f39f00"
         offset="1"
         id="stop23029" />
    </radialGradient>
    <clipPath
       clipPathUnits="userSpaceOnUse"
       id="clipPath23033">
      <path
         d="m 118.492,319.555 h 28.52 v 36.836 h -28.52 z"
         transform="matrix(1.3333333,0,0,1.3333333,1608,0)"
         id="path23033" />
    </clipPath>
    <clipPath
       clipPathUnits="userSpaceOnUse"
       id="clipPath23031">
      <path
         d="M 0,0 H 1191 V 842 H 0 Z"
         id="path23031" />
    </clipPath>
    <clipPath
       clipPathUnits="userSpaceOnUse"
       id="clipPath23036">
      <path
         d="m 118.492,319.555 h 28.52 v 36.836 h -28.52 z"
         transform="matrix(1.3333333,0,0,1.3333333,1608,0)"
         id="path23036" />
    </clipPath>
    <clipPath
       clipPathUnits="userSpaceOnUse"
       id="clipPath23034">
      <path
         d="M 0,0 H 1191 V 842 H 0 Z"
         id="path23034" />
    </clipPath>
    <clipPath
       clipPathUnits="userSpaceOnUse"
       id="clipPath23039">
      <path
         d="m 118.492,319.555 h 28.52 v 36.836 h -28.52 z"
         transform="matrix(1.3333333,0,0,1.3333333,1608,0)"
         id="path23039" />
    </clipPath>
    <linearGradient
       x1="0"
       y1="0"
       x2="1"
       y2="0"
       gradientUnits="userSpaceOnUse"
       gradientTransform="matrix(1.551252,0,0,1.550868,132.12795,323.66075)"
       spreadMethod="pad"
       id="linearGradient23038">
      <stop
         style="stop-opacity:1;stop-color:#f39f00"
         offset="0"
         id="stop23036" />
      <stop
         style="stop-opacity:1;stop-color:#fce531"
         offset="0.5"
         id="stop23037" />
      <stop
         style="stop-opacity:1;stop-color:#f39f00"
         offset="1"
         id="stop23038" />
    </linearGradient>
    <clipPath
       clipPathUnits="userSpaceOnUse"
       id="clipPath23042">
      <path
         d="m 118.492,319.555 h 28.52 v 36.836 h -28.52 z"
         transform="matrix(1.3333333,0,0,1.3333333,1608,0)"
         id="path23042" />
    </clipPath>
    <linearGradient
       x1="0"
       y1="0"
       x2="1"
       y2="0"
       gradientUnits="userSpaceOnUse"
       gradientTransform="matrix(4.499954,0,0,4.498841,130.59914,325.12035)"
       spreadMethod="pad"
       id="linearGradient23041">
      <stop
         style="stop-opacity:1;stop-color:#f39f00"
         offset="0"
         id="stop23039" />
      <stop
         style="stop-opacity:1;stop-color:#fce531"
         offset="0.5"
         id="stop23040" />
      <stop
         style="stop-opacity:1;stop-color:#f39f00"
         offset="1"
         id="stop23041" />
    </linearGradient>
    <clipPath
       clipPathUnits="userSpaceOnUse"
       id="clipPath23045">
      <path
         d="m 118.492,319.555 h 28.52 v 36.836 h -28.52 z"
         transform="matrix(1.3333333,0,0,1.3333333,1608,0)"
         id="path23045" />
    </clipPath>
    <clipPath
       clipPathUnits="userSpaceOnUse"
       id="clipPath23043">
      <path
         d="M 0,0 H 1191 V 842 H 0 Z"
         id="path23043" />
    </clipPath>
    <clipPath
       clipPathUnits="userSpaceOnUse"
       id="clipPath23048">
      <path
         d="m 118.492,319.555 h 28.52 v 36.836 h -28.52 z"
         transform="matrix(1.3333333,0,0,1.3333333,1608,0)"
         id="path23048" />
    </clipPath>
    <clipPath
       clipPathUnits="userSpaceOnUse"
       id="clipPath23046">
      <path
         d="M 0,0 H 1191 V 842 H 0 Z"
         id="path23046" />
    </clipPath>
    <clipPath
       clipPathUnits="userSpaceOnUse"
       id="clipPath23051">
      <path
         d="m 118.492,319.555 h 28.52 v 36.836 h -28.52 z"
         transform="matrix(1.3333333,0,0,1.3333333,1608,0)"
         id="path23051" />
    </clipPath>
    <clipPath
       clipPathUnits="userSpaceOnUse"
       id="clipPath23049">
      <path
         d="M 0,0 H 1191 V 842 H 0 Z"
         id="path23049" />
    </clipPath>
    <clipPath
       clipPathUnits="userSpaceOnUse"
       id="clipPath23054">
      <path
         d="m 118.492,319.555 h 28.52 v 36.836 h -28.52 z"
         transform="matrix(1.3333333,0,0,1.3333333,1608,0)"
         id="path23054" />
    </clipPath>
    <clipPath
       clipPathUnits="userSpaceOnUse"
       id="clipPath23052">
      <path
         d="M 0,0 H 1191 V 842 H 0 Z"
         id="path23052" />
    </clipPath>
    <clipPath
       clipPathUnits="userSpaceOnUse"
       id="clipPath23057">
      <path
         d="m 118.492,319.555 h 28.52 v 36.836 h -28.52 z"
         transform="matrix(1.3333333,0,0,1.3333333,1608,0)"
         id="path23057" />
    </clipPath>
    <clipPath
       clipPathUnits="userSpaceOnUse"
       id="clipPath23055">
      <path
         d="M 0,0 H 1191 V 842 H 0 Z"
         id="path23055" />
    </clipPath>
    <clipPath
       clipPathUnits="userSpaceOnUse"
       id="clipPath23060">
      <path
         d="m 118.492,319.555 h 28.52 v 36.836 h -28.52 z"
         transform="matrix(1.3333333,0,0,1.3333333,1608,0)"
         id="path23060" />
    </clipPath>
    <clipPath
       clipPathUnits="userSpaceOnUse"
       id="clipPath23058">
      <path
         d="M 0,0 H 1191 V 842 H 0 Z"
         id="path23058" />
    </clipPath>
    <clipPath
       clipPathUnits="userSpaceOnUse"
       id="clipPath23063">
      <path
         d="m 118.492,319.555 h 28.52 v 36.836 h -28.52 z"
         transform="matrix(1.3333333,0,0,1.3333333,1608,0)"
         id="path23063" />
    </clipPath>
    <clipPath
       clipPathUnits="userSpaceOnUse"
       id="clipPath23061">
      <path
         d="M 0,0 H 1191 V 842 H 0 Z"
         id="path23061" />
    </clipPath>
    <clipPath
       clipPathUnits="userSpaceOnUse"
       id="clipPath23066">
      <path
         d="m 118.492,319.555 h 28.52 v 36.836 h -28.52 z"
         transform="matrix(1.3333333,0,0,1.3333333,1608,0)"
         id="path23066" />
    </clipPath>
    <clipPath
       clipPathUnits="userSpaceOnUse"
       id="clipPath23064">
      <path
         d="M 0,0 H 1191 V 842 H 0 Z"
         id="path23064" />
    </clipPath>
    <clipPath
       clipPathUnits="userSpaceOnUse"
       id="clipPath23069">
      <path
         d="m 118.492,319.555 h 28.52 v 36.836 h -28.52 z"
         transform="matrix(1.3333333,0,0,1.3333333,1608,0)"
         id="path23069" />
    </clipPath>
    <clipPath
       clipPathUnits="userSpaceOnUse"
       id="clipPath23067">
      <path
         d="M 0,0 H 1191 V 842 H 0 Z"
         id="path23067" />
    </clipPath>
    <clipPath
       clipPathUnits="userSpaceOnUse"
       id="clipPath23072">
      <path
         d="m 118.492,319.555 h 28.52 v 36.836 h -28.52 z"
         transform="matrix(1.3333333,0,0,1.3333333,1608,0)"
         id="path23072" />
    </clipPath>
    <clipPath
       clipPathUnits="userSpaceOnUse"
       id="clipPath23070">
      <path
         d="M 0,0 H 1191 V 842 H 0 Z"
         id="path23070" />
    </clipPath>
    <clipPath
       clipPathUnits="userSpaceOnUse"
       id="clipPath23075">
      <path
         d="m 118.492,319.555 h 28.52 v 36.836 h -28.52 z"
         transform="matrix(1.3333333,0,0,1.3333333,1608,0)"
         id="path23075" />
    </clipPath>
    <clipPath
       clipPathUnits="userSpaceOnUse"
       id="clipPath23073">
      <path
         d="M 0,0 H 1191 V 842 H 0 Z"
         id="path23073" />
    </clipPath>
  </defs>
  <g
     inkscape:label="Layer 1"
     inkscape:groupmode="layer"
     id="layer1"
     transform="translate(-68.131629,-93.629033)">
    <g
       id="g1"
       transform="matrix(6.6680857,0,0,6.6680857,-1175.6806,-924.35147)">
      <path
         id="path22978"
         d="m 190.1899,152.66458 c -0.41451,0 -0.75494,0.34043 -0.75494,0.75671 v 1.91664 c 0,0.41487 0.34043,0.7553 0.75494,0.7553 h 2.76437 c 0.41627,0 0.75529,-0.34043 0.75529,-0.7553 v -1.91664 c 0,-0.41628 -0.33902,-0.75671 -0.75529,-0.75671 z"
         style="fill:url(#linearGradient22978);stroke:none;stroke-width:0.352778" />
      <g
         id="g22980"
         clip-path="url(#clipPath22981)"
         transform="matrix(0.26458333,0,0,0.26458333,-280.72009,39.925983)">
        <path
           d="m 125.484,322.398 c 0.075,0.024 1.375,0.012 1.575,0.012 -0.039,0.028 -0.067,0.02 -0.121,0.02 l -0.004,0.097 c 0.066,-0.015 0.05,-0.011 0.046,0.11 l -0.078,0.011 c 0.055,0.04 0.012,0.004 0.036,0.055 0.023,0.055 -0.004,-0.004 0.019,0.035 0.035,0.051 -0.004,0.032 -0.023,0.074 0.023,0.016 0.043,0.032 0.062,0.055 0.055,-0.004 0.031,-0.008 0.094,-0.012 0.008,0.075 -0.016,0.028 0.031,0.043 l -0.043,0.133 c 0,0.004 0,0.008 0,0.008 v 0.012 c 0,0 0,0.004 0,0.008 l -0.004,0.066 c -0.051,-0.016 -0.097,-0.035 -0.051,-0.09 -0.082,0.024 -0.054,0.02 -0.089,-0.043 0,0.047 -0.004,0.067 -0.004,0.094 0,0.004 0,0.043 0,0.043 l -0.012,0.125 c 0.004,0.066 0.035,0.019 0.02,0.105 -0.02,0.082 0.011,0.153 -0.02,0.25 0.035,0.016 0.016,0.008 0.062,0 -0.011,0.098 0.02,0.02 -0.062,0.063 0.047,0.023 0.016,0.019 0.031,0.058 0.039,-0.015 0.024,0.016 0.028,-0.058 l 0.054,0.035 c -0.015,0.02 0,0.039 -0.019,0.07 0,0 -0.004,0 -0.008,0 0,0 -0.004,0 -0.004,0 -0.004,0 -0.008,-0.004 -0.012,-0.004 l -0.047,0.063 c -0.003,0 -0.003,0.004 -0.003,0.004 -0.012,0.055 0.003,0.066 0.003,0.105 0,0 -0.003,0.035 -0.003,0.039 -0.008,0.036 -0.016,0.055 -0.016,0.078 -0.004,0.079 0.047,0.04 0.105,0.036 -0.004,0.047 -0.007,0.035 -0.031,0.047 l -0.047,0.015 c -0.023,0.012 -0.004,-0.027 -0.015,0.016 l -0.02,0.371 c 0.008,0.035 0.024,0.086 0.004,0.113 0.09,0.004 0.047,-0.012 0.078,0.035 -0.07,0.004 -0.043,-0.007 -0.078,0.028 0.09,0 0.047,-0.016 0.078,0.035 l -0.078,-0.016 0.012,0.059 c 0,0.004 0,0.008 0,0.008 -0.008,0.031 0.008,0.023 -0.043,0.039 l 0.015,0.066 c 0.004,0.004 0.004,0.008 0.004,0.012 0.004,0.004 0.004,0.008 0.008,0.012 0.066,0.14 0.012,0.078 0.008,0.226 0,0.008 0.004,0.039 0.004,0.043 l 0.117,0.231 c -0.066,-0.012 -0.063,-0.02 -0.031,0.058 h -0.078 c -0.004,0.012 -0.012,0.063 -0.016,0.102 0.07,-0.039 0.02,0.004 0.078,-0.016 0,-0.008 -0.004,-0.047 0.047,-0.074 -0.012,0.066 0,0.027 0,0.109 -0.133,0 -0.047,-0.004 -0.074,0.024 l -0.051,0.015 0.035,0.039 c 0.016,0.024 0.055,-0.027 0.012,0.047 0.039,-0.008 0.023,-0.015 0.047,-0.015 0.004,0 0.008,-0.004 0.008,-0.004 0.003,0.004 0.007,0.004 0.007,0.004 l 0.094,0.031 c -0.066,0.113 -0.031,0.23 -0.031,0.359 l -0.035,-0.058 c -0.012,-0.036 0.015,-0.043 0,-0.059 l -0.133,0.016 c -0.004,0.058 0.008,0.062 0.008,0.097 0,0.024 -0.012,0.051 -0.012,0.09 0.102,0.004 0.047,-0.012 0.062,0.035 -0.039,0.039 -0.015,0.032 -0.078,0.016 0.028,0.035 0.032,0.039 0.032,0.098 0.035,-0.063 -0.016,-0.024 0.046,-0.043 0,0.109 0,0.031 -0.019,0.058 l -0.02,0.024 c -0.023,0.035 -0.015,0.054 -0.039,0.093 0.004,0 0.008,0.004 0.012,0.008 l 0.078,0.012 c 0.078,-0.012 -0.058,-0.024 0.02,-0.004 0,0.004 0.004,0.008 0.004,0.008 -0.004,0.004 0,0.008 0,0.008 -0.008,0.031 0.007,0.027 -0.036,0.039 -0.023,0.007 -0.039,0.004 -0.062,-0.004 l 0.008,0.152 c 0.023,0.184 -0.047,0.375 0.035,0.426 0.016,0.008 0,0.004 0.031,0.008 v -0.075 c 0.082,0.02 0.016,0.028 0.11,0.032 -0.036,-0.039 -0.032,-0.02 -0.032,-0.09 0.02,0 0.121,-0.004 0.129,0 0.067,0.012 0.043,-0.027 0.047,0.062 -0.039,0.008 -0.035,0.008 -0.062,0.028 l 0.109,0.043 c -0.039,0.172 0,0.258 -0.008,0.297 l -0.012,0.171 c -0.003,0.114 0.02,0.29 0.004,0.375 0,0 0,0.004 0,0.004 l 0.008,0.528 c -0.004,0.027 -0.008,0.105 -0.012,0.121 -0.011,0.055 -0.015,0.035 -0.058,0.058 0.058,0.024 0.062,0.082 0.062,0.133 -0.004,0.043 -0.004,0.024 -0.004,0.047 0,0.039 0.004,0.07 0,0.117 -0.003,0.055 0.016,0.094 0.004,0.285 0,0.008 0,0.098 0.028,0.149 0.011,-0.02 0.015,-0.055 0.019,-0.059 0.02,-0.039 -0.015,-0.015 0.031,-0.031 l -0.007,0.184 c -0.012,0.062 -0.036,0.113 -0.055,0.16 l -0.16,0.015 c -0.02,-0.039 -0.016,-0.019 -0.016,-0.074 -0.07,0.016 -0.019,0.02 -0.082,0 l -0.055,-0.043 c -0.019,0.082 -0.027,0.031 -0.062,0.039 0,0.067 0.016,0.067 0.012,0.117 0,0.028 -0.012,0.063 -0.012,0.118 0.098,-0.008 0.047,0.011 0.137,0.023 0,0.004 0.007,0.004 0.011,0.004 l 0.055,0.004 c -0.012,0.055 -0.031,0.078 -0.031,0.148 l -0.063,0.032 0.063,0.031 -0.078,0.015 c 0.031,0.114 0.015,0.016 -0.008,0.059 -0.008,0.02 -0.016,0.047 -0.024,0.074 -0.039,-0.008 -0.027,-0.004 -0.062,-0.015 -0.004,0.062 -0.008,0.031 -0.012,0.089 -0.097,0 -0.062,0.02 -0.07,-0.042 -0.035,0.054 -0.039,0.039 -0.039,0.125 0.031,-0.016 0.062,-0.008 0.109,0.003 -0.031,0.129 -0.004,0.094 0.004,0.106 0.004,0.008 0.004,0 0.012,0.027 0.008,0.031 0.008,0.043 0.008,0.082 l -0.012,0.059 c 0,0 0,0.004 0,0.008 -0.012,0.043 0.023,0.058 0.055,0.078 0.05,0.031 -0.008,0.066 -0.051,0.113 0.047,0.008 0.019,-0.004 0.031,0.016 0.012,0.031 -0.008,0.019 -0.015,0.062 l -0.008,0.071 c -0.008,0.031 -0.008,0.031 -0.028,0.058 0.008,0 0.028,-0.004 0.032,-0.004 0.004,0 0.007,0.004 0.007,0.004 0.004,-0.004 0.008,0 0.008,0.004 -0.011,0.109 -0.011,-0.008 -0.027,0.078 -0.008,0.043 0.004,0.039 0,0.067 -0.004,0.136 -0.031,0.035 0.027,0.121 -0.027,0.058 0,0.027 -0.047,0.054 0.145,0.004 0.578,-0.027 0.672,0.016 0.02,0.086 -0.004,0.137 0.028,0.199 l -0.004,0.606 -1.399,0.004 v 0.273 c 0.156,-0.012 0.942,-0.027 1.039,0.012 0.012,0.008 0,0.066 0.039,0.125 l -0.004,0.57 c 0.016,0.082 -0.019,0.184 0.055,0.137 l 0.035,-0.032 c 0,-0.007 0.004,-0.007 0.008,-0.007 0,0.027 -0.004,0.074 0,0.101 0,0.004 0,0.008 0.004,0.016 l 0.004,0.09 c -0.008,0.054 0.027,0.054 -0.039,0.074 0,0.098 0.031,0.121 0.031,0.234 l -0.019,0.008 c -0.028,0.012 -0.02,-0.008 -0.028,0.024 0.051,0.003 0.024,-0.004 0.047,0.015 -0.035,0.067 0.004,0.18 0.012,0.219 0,0 0,0.004 0,0.004 0,0.004 0,0.008 0,0.008 0,0.043 0,0.047 0.035,0.078 l -0.063,0.015 c 0,0.067 -0.011,0.067 -0.015,0.11 -0.004,0.051 0.012,0.054 0.015,0.101 0,0.039 -0.011,0.086 -0.007,0.102 0.004,0.027 0.023,0.047 0.054,0.058 -0.023,0.059 -0.004,0.012 -0.023,0.024 l -0.024,0.008 c 0.016,0.031 0.004,0.074 0.016,0.117 0.016,0.051 0,0.047 0,0.105 l -0.051,-0.015 c -0.074,-0.039 -0.019,-0.071 -0.105,-0.074 -0.02,0.085 -0.02,0.066 0,0.148 -0.07,0.008 -0.024,-0.012 -0.063,0.027 0.043,0.02 0.024,-0.035 0.032,0.047 0.011,0.102 -0.016,0.028 -0.039,0.094 l -0.008,0.016 c 0,0.003 0,0.007 -0.004,0.007 l -0.02,0.11 c 0,0.039 -0.008,0.047 0.008,0.086 -0.059,-0.024 -0.012,0.015 -0.047,-0.043 v 0.058 c -0.043,-0.004 -0.086,-0.027 -0.097,0.016 l 0.011,0.109 c 0.004,0.032 0.035,0.012 0.004,0.039 -0.004,0 -0.012,0.004 -0.015,0.004 -0.047,0.004 -0.012,0 -0.039,-0.023 -0.016,-0.008 -0.02,-0.02 -0.032,-0.027 0.008,0.043 0.02,0.043 0.028,0.085 l -0.032,0.016 c -0.019,0.012 -0.004,-0.023 -0.015,0.012 v 0.195 c 0.066,-0.019 0.058,-0.012 0.058,-0.09 h 0.067 l -0.094,0.11 -0.012,0.144 c 0,0.047 -0.023,-0.051 0.016,0.031 0.055,0.118 -0.016,0.079 -0.047,0.075 v 0.086 c 0.043,0.019 0.016,0 0.02,0.035 0,0 -0.004,0.051 -0.008,0.054 l -0.008,0.036 c -0.012,0.035 -0.016,-0.012 -0.02,0.05 0.079,-0.007 0.032,-0.031 0.067,0.012 0.039,0.039 0.012,0.024 0.008,0.063 -0.004,0.019 -0.004,0.039 0.015,0.058 0.039,0.028 0.035,0 0.063,0.024 -0.043,0.039 -0.004,0.019 -0.078,0.011 0,0.059 0.004,0.036 -0.016,0.075 -0.027,-0.008 -0.047,-0.016 -0.078,-0.004 0.058,0.015 0.023,0.015 0.078,0.027 0.004,0.074 -0.012,0.098 0.027,0.137 0,-0.075 0.016,-0.047 0,-0.09 0.051,0.004 0.078,0.012 0.11,0.031 -0.032,-0.098 -0.035,0.024 -0.047,-0.09 0.031,0.028 0.066,0.028 0.086,0.071 0.031,0.074 -0.043,-0.008 0.078,0.089 0.027,0.024 0.035,0.059 0.043,0.137 0.058,-0.023 -0.004,-0.008 0.062,-0.047 0,0.145 0,0.164 -0.062,0.196 0.058,0.027 0.058,0.007 0.062,0.093 -0.144,-0.019 0.035,-0.019 -0.062,-0.047 -0.008,0.04 -0.067,0.157 -0.125,0.133 0.008,0.071 0.004,0.043 0.004,0.106 -0.004,0.051 0.011,0.062 0.011,0.117 -0.031,0.016 -0.003,0.004 -0.039,0.012 h -0.023 c 0.004,0.117 0.023,0 0.07,0.113 0.02,0.039 0.02,0.094 0.039,0.141 -0.004,0 -0.007,-0.004 -0.011,-0.004 l -0.098,-0.024 0.047,0.043 v 0.09 l -0.047,0.012 c 0.047,0 0.016,-0.004 0.051,0.011 0.023,0.008 0.011,0.008 0.027,0.02 -0.039,0.086 -0.023,0.23 -0.023,0.32 0.004,0.043 0.007,0.035 0.007,0.094 0.055,-0.027 0.063,0.004 0.118,0.016 0.05,0.011 0.07,-0.02 0.054,0.058 0.043,-0.019 0.004,-0.011 0.059,0 0.047,0.016 0.035,-0.011 0.035,0.074 0.059,-0.042 -0.004,-0.023 0.063,-0.042 -0.004,0.105 0.004,0.027 -0.024,0.054 l -0.043,0.016 c -0.004,-0.004 -0.008,0 -0.012,0.004 0.024,0.094 0,0.187 0,0.324 l -0.062,0.016 c -0.023,0.093 0.004,0.125 -0.016,0.175 0,0.004 0.004,0.004 0.008,0.004 0.113,0.008 -0.043,-0.031 0.039,-0.004 -0.012,0.098 -0.047,-0.023 -0.047,0.164 0.149,0 0.067,0.11 0.094,0.243 0.008,0.035 0.02,0.05 0,0.113 -0.016,0.043 0.004,0.019 -0.031,0.047 0.027,0.066 0.004,-0.016 0.027,0.031 0.016,0.039 0.012,-0.012 0,0.035 -0.008,0.063 -0.004,0.051 -0.058,0.035 -0.012,0.051 -0.004,0.032 -0.008,0.063 l -0.024,0.144 0.071,0.02 c 0,0.004 0.007,0.012 0.011,0.008 0,-0.004 0.008,0 0.012,0.004 0,0.07 -0.012,0.074 -0.016,0.148 -0.007,0.168 0.043,0.34 -0.031,0.371 0,0 0.016,0.012 0.024,0.02 0.027,0.031 0.023,0.047 0.023,0.078 0,0.004 0,0.008 0,0.012 l -0.004,0.054 c 0,0.008 0,0.012 0,0.016 0,0.047 0,0.023 -0.008,0.058 l -0.007,0.047 c 0,0.043 0.003,0.094 0.007,0.141 0.008,0.094 -0.015,0.082 -0.004,0.129 l 0.004,0.015 c 0.016,0.067 0,0.141 -0.004,0.184 -0.003,0.063 0.016,0.063 0.016,0.137 -0.059,0.019 -0.027,-0.035 -0.047,0.023 0.055,0.024 0.043,0.067 0.028,0.133 -0.012,0.051 -0.004,0.016 -0.016,0.047 l -0.059,0.074 c 0.024,0.008 0.039,-0.004 0.043,0.047 0,0.055 0.012,0.008 -0.027,0.047 l 0.078,-0.02 c -0.004,0.047 -0.008,0.035 -0.008,0.071 0,0.043 0.004,0.031 0.012,0.047 0.039,0.078 -0.047,0.078 -0.086,0.121 -0.117,0.129 0.012,0.222 -0.043,0.324 0.074,0.043 0.043,-0.028 0.074,0.066 0.032,0.11 0.004,0.254 -0.011,0.278 0.05,0.027 0.035,0.046 0.062,0.101 l -0.062,0.031 c 0,0.071 -0.032,0.114 -0.008,0.184 l 0.019,0.043 c 0.02,0.039 0.035,0.035 0.082,0.055 l -0.035,0.07 c -0.008,0.023 -0.008,0.035 -0.004,0.066 0.008,0.114 -0.062,0.063 -0.019,0.184 0.015,0.055 0.004,0.09 0.058,0.109 -0.031,0.028 -0.047,0.028 -0.035,0.078 0.028,0.114 0.02,-0.062 0.035,0.071 -0.066,0.019 -0.05,0.109 -0.078,0.164 l 0.051,0.035 c 0,0 0.008,0.004 0.012,0.008 -0.008,0.031 -0.02,0.043 -0.008,0.07 0.019,0.059 0.012,-0.055 0.023,0.047 -0.043,0.016 -0.027,-0.016 -0.043,0.062 -0.023,0.118 -0.004,0.172 0.008,0.266 0.012,0.078 -0.015,0.121 -0.008,0.184 0.008,0.047 0.024,0.136 -0.004,0.187 0.04,0.02 0.008,0.016 0.063,-0.015 -0.023,0.089 -0.063,0.011 -0.047,0.191 l -0.039,0.023 c -0.023,0.02 -0.008,0.004 -0.02,0.028 -0.054,0.09 0,0.148 -0.003,0.246 -0.004,0.086 -0.043,0.051 -0.028,0.172 0.016,0.086 0.012,0.094 -0.004,0.168 0.008,0.195 0.016,-0.145 0.016,0.117 0.031,-0.035 0.008,-0.024 0.062,-0.016 0,0.043 0,0.078 -0.003,0.117 l 0.019,0.293 c -0.004,0 -0.004,0.004 -0.004,0.008 -0.012,0.133 0,0.188 -0.004,0.254 l -0.008,0.063 c 0,0.004 0,0.007 0,0.007 l -0.007,0.098 c 0,0.004 0,0.008 0,0.012 l 0.007,0.027 c 0.008,0.039 0,-0.023 0.012,0.043 0.004,0.02 0.004,0.039 0.004,0.059 l -0.016,0.133 c 0,0.003 0,0.007 0,0.007 -0.003,0.008 -0.007,0.008 0,0.036 0.004,0.011 0.032,0.074 0.032,0.085 v 0.016 c -0.004,0.008 -0.02,0.008 -0.016,0.059 0.008,0.07 0.012,0.027 0.016,0.031 0.051,0.082 -0.024,-0.082 0.015,0.019 -0.054,0.02 -0.019,0.012 -0.047,0.059 -0.003,0.004 -0.003,0.008 -0.007,0.008 l -0.008,0.031 c 0,0 0,0.008 0,0.008 l 0.012,0.137 c 0.003,0.043 -0.032,0.066 -0.028,0.093 l 0.016,0.036 c -0.102,0.023 -0.09,0.015 -0.098,-0.043 -0.054,0.003 -0.054,0.027 -0.113,0.058 l -0.059,0.074 c -0.039,-0.035 -0.011,0.004 -0.031,-0.043 -0.031,0.024 -0.019,0.012 -0.012,0.059 -0.136,0.027 -0.066,0 -0.097,-0.008 -0.028,-0.008 -0.043,0.004 -0.039,0.059 l 0.011,0.086 c 0.012,0.043 0.032,-0.008 0.028,0.066 -0.004,0.051 -0.024,0.059 -0.016,0.11 l 0.016,0.058 c 0.011,0.039 -0.02,0.004 0.023,0.031 0.031,0.024 0.094,0.051 0.078,0.098 -0.051,-0.027 -0.039,-0.031 -0.082,-0.059 -0.176,-0.121 -0.347,-0.242 -0.511,-0.39 l -0.29,-0.227 c -0.093,-0.07 -0.187,-0.176 -0.265,-0.254 -0.172,-0.164 -0.68,-0.632 -0.809,-0.8 0,-0.004 -0.004,-0.008 -0.004,-0.012 l -1.011,-1.215 c -0.012,-0.02 -0.012,-0.023 -0.024,-0.039 -0.004,0 -0.004,-0.004 -0.008,-0.008 l -0.433,-0.637 c -0.004,-0.004 -0.012,-0.015 -0.012,-0.019 L 123.547,344 c 0,-0.004 -0.004,-0.008 -0.008,-0.008 l -0.418,-0.699 c -0.004,-0.004 -0.004,-0.008 -0.008,-0.012 0,0 0,-0.004 -0.004,-0.008 l -0.089,-0.168 c 0,0 -0.016,-0.027 -0.02,-0.039 l -0.113,-0.195 c -0.032,-0.059 -0.063,-0.117 -0.086,-0.172 -0.004,-0.011 -0.02,-0.047 -0.024,-0.051 -0.043,-0.097 -0.109,-0.199 -0.144,-0.296 -0.043,-0.125 -0.117,-0.223 -0.164,-0.332 -0.141,-0.329 -0.336,-0.743 -0.438,-1.09 -0.07,-0.242 -0.176,-0.528 -0.242,-0.77 -0.144,-0.543 -0.266,-1.086 -0.387,-1.637 -0.011,-0.062 -0.05,-0.121 -0.062,-0.195 -0.008,-0.07 -0.016,-0.148 -0.031,-0.215 -0.094,-0.402 -0.118,-0.918 -0.172,-1.34 -0.11,-0.851 -0.075,-2.648 -0.071,-3.441 v -7.008 c 0,-0.265 -0.027,-0.445 0.082,-0.676 0.016,-0.035 0.032,-0.066 0.04,-0.086 0.015,-0.039 0.015,-0.046 0.035,-0.082 0.015,-0.031 0.031,-0.058 0.047,-0.089 0.007,-0.012 0.011,-0.028 0.019,-0.039 0.023,-0.051 0.008,-0.012 0.02,-0.04 l 0.125,-0.21 c 0.004,-0.012 0.015,-0.028 0.019,-0.04 0.024,-0.039 0.031,-0.046 0.051,-0.074 0.016,-0.023 0.027,-0.054 0.047,-0.082 l 1.054,-1.504 c 0.083,-0.117 0.219,-0.23 0.286,-0.34 0.054,-0.058 0.074,-0.074 0.129,-0.144 l 0.054,-0.109 c 0.051,-0.063 0.016,0 0.043,-0.082 0.016,-0.039 0.008,-0.032 0.035,-0.067 0.036,-0.039 0.063,-0.082 0.106,-0.105 -0.024,-0.028 0.031,-0.043 -0.039,-0.016 -0.047,0.023 -0.348,0.367 -0.453,0.465 -0.164,0.156 -0.309,0.312 -0.481,0.449 -0.097,0.074 -0.152,0.121 -0.25,0.207 -0.086,0.074 -0.18,0.145 -0.258,0.211 -0.285,0.25 -1.011,0.754 -1.347,0.988 -0.086,0.059 -0.2,0.133 -0.285,0.192 -0.161,0.109 -0.809,0.523 -1.008,0.625 l -0.192,0.082 c -0.004,0.066 -0.004,0.078 0,0.164 v 4.523 c 0,1.582 0.016,3.168 0.016,4.743 0,0.55 0.008,1.175 0.051,1.73 0.008,0.094 -0.004,0.195 0.011,0.289 0.016,0.102 0.016,0.156 0.02,0.262 l 0.102,1.093 c 0.019,0.165 0.062,0.376 0.07,0.536 0.015,0.191 0.121,0.824 0.156,1.047 0.09,0.574 0.266,1.41 0.422,1.972 0.031,0.102 -0.004,0.063 0.039,0.231 0.387,1.535 1.023,3.168 1.77,4.57 0.668,1.25 1.566,2.527 2.507,3.559 l 0.442,0.468 c 0.359,0.379 0.722,0.692 1.101,1.032 0.875,0.781 2.008,1.55 3.051,2.152 0.067,0.039 0.145,0.101 0.227,0.101 0.019,-0.789 0,-1.597 0,-2.39 v -6.578 c 0,-0.063 0.113,-1.371 0.152,-1.383 l -0.492,0.062 c -0.035,-0.054 -0.028,0.192 -0.11,0.067 -0.222,-0.328 -0.378,-0.516 -0.523,-0.91 -0.059,-0.164 -0.066,-0.266 -0.109,-0.395 -0.09,-0.265 -0.121,-0.676 -0.121,-0.98 0,-0.301 0.023,-0.578 0.074,-0.864 0.234,-1.293 1.074,-2.328 2.172,-3.011 0.136,-0.086 0.277,-0.149 0.429,-0.223 0.852,-0.406 1.793,-0.582 2.766,-0.516 0.984,0.071 2.152,0.512 2.828,1.114 0.121,0.105 0.227,0.199 0.348,0.304 0.156,0.137 0.414,0.438 0.531,0.61 l 0.187,0.277 c 0.016,0.024 0.024,0.039 0.036,0.059 0.066,0.078 0.047,0.109 0.117,0.117 0.008,-0.028 0.004,-0.063 0.008,-0.113 0.015,-0.094 0.019,-0.063 -0.039,-0.098 0.027,-0.067 0.011,0.008 0.027,-0.035 0.023,-0.047 -0.039,-0.297 0.004,-0.406 l 0.015,-0.075 c -0.011,-0.113 -0.015,0.012 -0.031,-0.093 -0.023,-0.157 -0.019,-0.29 0.008,-0.45 0.012,-0.097 -0.008,-0.34 -0.008,-0.465 0,-0.16 0.028,-0.148 -0.047,-0.195 0.047,-0.051 0.024,0 0.047,-0.058 -0.019,-0.012 0,-0.008 -0.031,-0.012 -0.004,0 -0.031,0.008 -0.031,0.008 0,-0.11 0.015,-0.133 0.093,-0.188 0,-0.09 -0.054,-0.137 -0.027,-0.234 0.016,-0.078 0.024,0.015 0.024,-0.078 0,-0.082 -0.036,0.004 -0.024,-0.11 l 0.024,-0.16 c -0.024,-0.148 0,-0.086 0.019,-0.133 -0.07,-0.043 -0.055,-0.027 -0.051,-0.101 0.004,-0.032 0.008,-0.137 0.004,-0.164 -0.019,-0.082 -0.051,-0.032 -0.031,-0.075 0.02,-0.039 0.062,0 0.039,-0.074 -0.027,-0.07 0,0.055 -0.023,-0.027 l 0.015,-0.672 c -0.039,0.016 -0.027,0.012 -0.035,0.016 -0.094,0.047 0.047,-0.012 -0.027,0.015 0,-0.074 -0.016,-0.07 0.047,-0.086 -0.036,-0.054 0,-0.011 -0.047,-0.043 0.039,-0.007 0.047,-0.015 0.078,-0.027 -0.004,-0.059 -0.004,-0.031 -0.016,-0.066 l -0.015,-0.043 c 0.019,-0.102 0.007,-0.223 0,-0.309 -0.004,-0.004 -0.008,-0.004 -0.008,-0.004 h -0.024 c -0.004,0 -0.004,0.031 -0.011,0.004 0,-0.004 -0.004,0 -0.004,0 v -0.133 c 0.062,0.094 0.086,0.028 0.078,-0.043 l -0.016,-0.051 c -0.047,-0.085 -0.054,0.047 -0.062,-0.054 v -0.223 c 0.035,0.031 0.027,0.012 0.039,0.063 l 0.019,-0.043 c 0,0 0,-0.012 0,-0.02 l 0.004,-0.09 c 0,-0.058 0,-0.121 0,-0.179 -0.074,0.007 -0.054,-0.008 -0.054,0.086 l -0.008,-0.125 0.105,-0.016 c 0.02,-0.027 0.301,-0.016 0.363,-0.016 0.016,-0.019 0.004,-0.007 0.012,-0.035 h -0.777 l -0.008,-2.543 -0.023,-0.269 c -0.024,-0.153 -0.004,-0.145 0.007,-0.27 0.004,-0.07 -0.007,-0.211 -0.007,-0.308 0,-0.129 0.023,-0.29 0.015,-0.43 -0.004,-0.043 -0.019,-0.074 -0.015,-0.149 0.003,-0.058 0.019,-0.074 0.023,-0.132 l -0.004,-0.297 c -0.004,-0.094 -0.019,-0.067 -0.023,-0.117 -0.012,-0.075 0.058,-0.196 -0.008,-0.227 0.004,-0.023 0.055,-0.082 0.027,-0.121 -0.004,-0.008 -0.019,0.008 -0.019,-0.059 0.004,-0.031 0.004,-0.062 0.004,-0.097 0.007,-0.067 0.011,0.047 0.027,-0.016 0,-0.004 0.004,0 0.004,0 l -0.031,-0.297 c 0.007,-0.101 -0.02,-0.211 0.015,-0.324 0.039,-0.137 -0.031,-0.074 0.031,-0.199 -0.019,-0.012 -0.039,-0.028 -0.058,-0.039 0.012,-0.024 0.027,-0.211 0.031,-0.254 0.004,-0.114 -0.023,-0.078 -0.019,-0.235 0.007,-0.261 0.039,-0.074 0.07,-0.218 l -0.051,-0.125 c -0.004,-0.008 -0.004,-0.02 -0.004,-0.028 0,-0.011 0,-0.043 0,-0.058 l 0.078,-0.012 c -0.004,-0.004 -0.007,-0.004 -0.011,-0.008 0,0 -0.008,-0.004 -0.012,-0.008 l -0.055,-0.019 c 0.004,-0.129 -0.023,-0.176 -0.004,-0.317 0.02,-0.136 -0.019,-0.035 -0.019,-0.129 -0.004,-0.027 0.008,-0.066 0.008,-0.128 h 0.066 l -0.027,-0.067 c -0.02,0.035 0.015,0.016 -0.02,0.031 0,-0.101 -0.019,-0.171 -0.008,-0.253 0.016,-0.114 -0.008,-0.059 -0.019,-0.11 -0.012,-0.039 -0.004,-0.023 0.004,-0.051 0,-0.004 0.004,-0.007 0.004,-0.007 0,-0.004 0.003,-0.008 0.003,-0.012 0.036,-0.094 0.004,-0.211 0,-0.289 -0.003,-0.043 0,-0.09 0,-0.129 0,-0.028 -0.015,-0.039 -0.015,-0.094 0.027,-0.012 0.004,0.012 0.058,-0.012 l -0.023,-0.086 c -0.004,0 -0.016,0 -0.023,0 0.027,-0.043 0.015,-0.589 0.003,-0.675 -0.003,-0.024 -0.007,-0.106 0,-0.125 0.032,-0.102 0.028,0.05 0.043,-0.082 -0.05,-0.016 -0.019,0.027 -0.031,-0.055 l -0.027,-0.207 c 0.008,-0.137 0.039,-0.449 0.023,-0.559 -0.008,-0.05 -0.027,-0.121 -0.004,-0.175 l 0.059,-0.043 c -0.102,-0.047 -0.012,-0.051 -0.074,-0.118 -0.031,0.028 -0.047,0.024 -0.047,0.086 -0.008,-0.035 0,-0.054 -0.035,-0.074 l 0.062,-0.059 c -0.051,0.008 -0.027,0.004 -0.062,0.016 l 0.054,-0.039 c 0.036,-0.019 0.036,-0.008 0.043,-0.055 0,0 0.004,-0.086 0.008,-0.113 0.008,-0.144 -0.051,-0.008 -0.023,-0.137 0.015,-0.093 0.008,-0.14 0.011,-0.269 0.012,-0.188 -0.019,-0.277 0.032,-0.383 l 0.011,-0.023 c -0.023,-0.039 -0.027,-0.047 -0.046,-0.098 l 0.199,-0.047 c 0.176,-0.012 0.504,0.024 0.652,-0.004 0.031,-0.004 0.02,-0.004 0.039,-0.012 l -1.453,-0.007 c -0.043,-0.075 -0.047,-0.137 -0.078,-0.157 -0.027,0.02 -0.012,0 -0.008,0.051 0.012,0.074 0.102,0.258 0.137,0.36 0.039,0.125 0.078,0.25 0.109,0.386 0.317,1.328 -0.14,2.703 -1.097,3.633 -0.25,0.246 -0.879,0.699 -1.227,0.785 -0.121,0.098 -0.812,0.242 -1.023,0.262 -0.77,0.066 -1.469,-0.047 -2.137,-0.387 -0.211,-0.109 -0.633,-0.363 -0.758,-0.512 -0.102,-0.046 -0.34,-0.312 -0.414,-0.394 -0.547,-0.629 -0.859,-1.352 -0.941,-2.191 -0.051,-0.543 0.027,-1.153 0.222,-1.672 0.031,-0.075 0.102,-0.223 0.106,-0.278 l 0.019,-0.054 c -0.054,0.019 -0.047,0.027 -0.066,0.078 -0.016,0.035 -0.028,0.066 -0.043,0.094 z m 17.129,0.407 c 0.157,0.164 0.34,0.425 0.473,0.625 l 0.879,1.351 c 0.07,0.121 0.14,0.231 0.207,0.36 l 0.16,0.339 c 0.063,0.165 0.109,0.297 0.106,0.489 v 8.121 c 0,0.699 0.023,1.441 -0.024,2.133 -0.019,0.238 -0.051,0.789 -0.09,1.004 -0.027,0.14 -0.054,0.355 -0.062,0.48 -0.012,0.141 -0.055,0.324 -0.078,0.473 -0.086,0.609 -0.286,1.406 -0.477,2.008 l -0.273,0.82 c -0.028,0.094 -0.082,0.191 -0.11,0.297 -0.031,0.101 -0.078,0.187 -0.121,0.285 L 143,342.074 c 0,0.004 -0.012,0.031 -0.012,0.035 l -0.25,0.52 c -0.004,0 -0.004,0.004 -0.004,0.008 l -0.359,0.679 c -0.027,0.055 -0.008,0.012 -0.023,0.039 -0.016,0.032 -0.04,0.067 -0.051,0.086 -0.024,0.036 -0.028,0.032 -0.055,0.082 l -0.285,0.481 c -0.043,0.078 -0.094,0.121 -0.133,0.203 -0.047,0.086 -0.105,0.141 -0.16,0.223 -0.184,0.269 -0.383,0.527 -0.582,0.781 -0.004,0.004 -0.004,0.004 -0.008,0.008 l -0.199,0.25 c -0.024,0.027 -0.047,0.043 -0.07,0.07 -0.028,0.039 -0.024,0.039 -0.059,0.074 l -0.305,0.336 c -0.078,0.102 -0.16,0.164 -0.226,0.242 -0.231,0.274 -0.52,0.512 -0.781,0.758 l -0.149,0.121 c -0.066,0.051 -0.113,0.121 -0.187,0.164 l -0.11,0.09 c -0.035,0.031 -0.051,0.031 -0.09,0.063 -0.027,0.019 -0.043,0.047 -0.07,0.066 -0.043,0.031 0.008,-0.004 -0.047,0.027 l -0.336,0.243 c -0.004,0.004 -0.008,0.004 -0.011,0.007 l -1.145,0.715 c -0.004,0.004 -0.008,0.004 -0.012,0.008 l -0.121,0.047 c -0.004,0.004 -0.008,0.004 -0.008,0.008 -0.066,0.027 -0.148,0.062 -0.199,0.109 v -4.457 c 0.113,-0.41 -0.187,-0.488 -0.277,-0.398 -0.051,0.05 -0.164,0.054 -0.211,0.097 -0.09,0.082 0.117,0.657 0.082,0.754 l 0.023,9.633 c 0.137,-0.008 1.45,-0.867 1.532,-0.922 0.234,-0.164 0.476,-0.328 0.71,-0.508 0.196,-0.148 0.743,-0.558 0.864,-0.679 l 1.121,-1.024 0.59,-0.625 c 0.054,-0.054 0.086,-0.101 0.144,-0.156 0.055,-0.059 0.086,-0.109 0.141,-0.164 0.105,-0.109 0.187,-0.219 0.285,-0.336 0.09,-0.113 0.188,-0.227 0.27,-0.34 0.679,-0.894 1.128,-1.543 1.679,-2.57 0.578,-1.078 1.043,-2.188 1.434,-3.406 0.199,-0.61 0.367,-1.246 0.515,-1.875 0.137,-0.575 0.192,-0.973 0.297,-1.496 l 0.274,-2.137 0.105,-1.68 c 0.008,-0.406 0.028,-0.781 0.028,-1.187 0,-2.278 0.015,-4.571 0.003,-6.844 0,-0.113 0.02,-0.176 0.02,-0.285 -0.004,-0.211 -0.027,-1.879 0.02,-2.055 0.031,-0.105 0.011,-0.152 0.003,-0.262 l -0.593,-0.34 c -0.782,-0.48 -1.059,-0.66 -1.782,-1.238 l -0.39,-0.312 c -0.137,-0.102 -0.137,-0.125 -0.238,-0.215 l -1.168,-1.149 c -0.028,-0.003 -0.024,-0.003 -0.036,0 0.024,0.043 0.036,0.051 0.071,0.09 0.043,0.051 0.027,0.031 0.043,0.09 0.019,0.059 0.019,0.047 0.054,0.098 0.039,0.047 0.032,0.019 0.047,0.086"
           style="fill:#1fa138;fill-opacity:1;fill-rule:evenodd;stroke:none"
           transform="matrix(1.3333333,0,0,1.3333333,1608,0)"
           clip-path="url(#clipPath22979)"
           id="path22980" />
      </g>
      <g
         id="g22983"
         clip-path="url(#clipPath22984)"
         transform="matrix(0.26458333,0,0,0.26458333,-280.72009,39.925983)">
        <path
           d="M 139.023,322.398 H 139 v -0.003 h -15.504 c -0.082,0.113 -0.199,0.234 -0.297,0.339 -0.086,0.098 -0.203,0.243 -0.308,0.325 -0.067,0.113 -0.203,0.226 -0.286,0.339 l -1.054,1.508 c -0.02,0.028 -0.031,0.059 -0.051,0.082 -0.016,0.028 -0.023,0.039 -0.047,0.074 -0.004,0.012 -0.015,0.028 -0.019,0.04 l -0.122,0.21 c -0.007,0.012 -0.007,0.012 -0.007,0.012 0,0 0,0 -0.016,0.028 -0.008,0.011 -0.016,0.027 -0.019,0.039 -0.016,0.031 -0.036,0.058 -0.047,0.089 -0.02,0.036 -0.02,0.043 -0.035,0.086 -0.008,0.016 -0.024,0.051 -0.04,0.082 -0.109,0.231 -0.082,0.411 -0.082,0.676 v 7.008 c -0.004,0.793 -0.039,2.59 0.071,3.441 0.054,0.422 0.078,0.938 0.172,1.34 0.015,0.067 0.023,0.145 0.035,0.215 0.008,0.07 0.047,0.133 0.058,0.195 0.121,0.551 0.243,1.094 0.387,1.637 0.066,0.242 0.176,0.528 0.242,0.77 0.102,0.347 0.297,0.761 0.438,1.09 0.047,0.109 0.121,0.21 0.164,0.332 0.035,0.097 0.101,0.199 0.144,0.296 0.004,0.004 0.02,0.04 0.024,0.051 0.023,0.055 0.054,0.113 0.082,0.168 l 0.117,0.199 c 0.004,0.008 0.02,0.039 0.02,0.043 l 0.089,0.164 c 0.004,0.004 0.004,0.008 0.008,0.008 0,0.004 0,0.008 0.004,0.012 l 0.418,0.699 c 0.004,0 0.004,0.004 0.008,0.008 l 0.035,0.047 c 0,0.004 0.008,0.015 0.012,0.019 l 0.433,0.637 c 0,0.004 0.004,0.008 0.008,0.008 0.008,0.019 0.012,0.019 0.024,0.035 l 1.011,1.223 c 0,0 0.004,0.004 0.004,0.008 0.278,0.367 0.953,0.957 1.367,1.281 0.161,0.148 0.332,0.269 0.508,0.39 0.043,0.028 0.031,0.032 0.078,0.059 0.489,0.398 1.395,1.008 1.871,1.355 v -4.777 l -0.093,-0.254 v -0.101 h 8.023 -0.281 l 0.012,5.035 c 0.394,-0.168 1.234,-0.719 1.879,-1.235 0.003,-0.003 0.007,-0.003 0.011,-0.007 l 0.336,-0.243 c 0.027,-0.015 0.027,-0.015 0.027,-0.011 0,0 -0.003,0 0.02,-0.016 0.031,-0.023 0.043,-0.047 0.07,-0.066 0.039,-0.035 0.051,-0.032 0.09,-0.063 l 0.113,-0.09 c 0.071,-0.043 0.118,-0.113 0.184,-0.164 l 0.149,-0.121 c 0.261,-0.246 0.55,-0.484 0.781,-0.758 0.066,-0.078 0.148,-0.14 0.226,-0.242 l 0.305,-0.336 c 0.035,-0.035 0.031,-0.035 0.059,-0.074 0.023,-0.027 0.046,-0.039 0.07,-0.07 l 0.199,-0.25 c 0.004,0 0.004,-0.004 0.008,-0.008 0.199,-0.254 0.402,-0.512 0.582,-0.781 0.055,-0.082 0.113,-0.137 0.16,-0.223 0.039,-0.082 0.09,-0.125 0.133,-0.203 l 0.285,-0.481 c 0.027,-0.05 0.031,-0.046 0.055,-0.082 0.011,-0.019 0.035,-0.054 0.051,-0.086 0.003,-0.007 0.007,-0.007 0.007,-0.007 0,0 0,0 0.016,-0.032 l 0.355,-0.679 c 0.004,-0.004 0.004,-0.008 0.008,-0.008 l 0.25,-0.52 c 0,-0.004 0.012,-0.031 0.012,-0.031 l 0.203,-0.488 c 0.043,-0.098 0.09,-0.184 0.117,-0.285 0.032,-0.106 0.086,-0.2 0.114,-0.297 l 0.273,-0.82 c 0.191,-0.602 0.391,-1.399 0.477,-2.008 0.023,-0.149 0.066,-0.332 0.078,-0.473 0.008,-0.125 0.035,-0.344 0.062,-0.48 0.039,-0.215 0.074,-0.766 0.09,-1.004 0.047,-0.692 0.027,-1.434 0.027,-2.133 v -8.121 c 0,-0.192 -0.046,-0.324 -0.109,-0.489 l -0.164,-0.339 c -0.063,-0.129 -0.129,-0.239 -0.203,-0.356 l -0.879,-1.355 c -0.133,-0.2 -0.316,-0.461 -0.473,-0.625 -0.175,-0.157 -0.293,-0.395 -0.41,-0.41 z"
           transform="matrix(1.3333333,0,0,1.3333333,1608,0)"
           style="fill:url(#linearGradient22983);stroke:none"
           id="path22983" />
      </g>
      <g
         id="g22986"
         clip-path="url(#clipPath22987)"
         transform="matrix(0.26458333,0,0,0.26458333,-280.72009,39.925983)">
        <path
           d="m 122.891,-323.142 c -0.067,-0.11 -0.203,-0.223 -0.286,-0.34 l -1.054,-1.505 c -0.02,-0.027 -0.031,-0.058 -0.051,-0.082 -0.016,-0.027 -0.023,-0.035 -0.047,-0.074 -0.004,-0.012 -0.015,-0.027 -0.019,-0.039 l -0.122,-0.211 c -0.015,-0.027 0,0.012 -0.023,-0.039 -0.008,-0.012 -0.012,-0.027 -0.019,-0.039 -0.016,-0.031 -0.032,-0.059 -0.047,-0.09 -0.02,-0.035 -0.02,-0.043 -0.035,-0.082 -0.008,-0.02 -0.024,-0.051 -0.04,-0.086 -0.109,-0.23 -0.082,-0.41 -0.082,-0.676 v -7.009 c -0.004,-0.794 -0.039,-2.591 0.071,-3.443 0.054,-0.422 0.078,-0.937 0.172,-1.34 0.015,-0.066 0.023,-0.144 0.031,-0.215 0.012,-0.074 0.051,-0.133 0.062,-0.195 0.121,-0.551 0.243,-1.094 0.387,-1.637 0.066,-0.243 0.176,-0.528 0.242,-0.77 0.102,-0.348 0.297,-0.762 0.438,-1.09 0.047,-0.11 0.121,-0.207 0.164,-0.332 0.035,-0.098 0.101,-0.199 0.144,-0.297 0,-0.004 0.02,-0.039 0.024,-0.051 0.023,-0.055 0.054,-0.113 0.086,-0.172 l 0.113,-0.195 c 0.004,-0.012 0.02,-0.039 0.02,-0.043 l 0.089,-0.164 c 0.004,-0.004 0.004,-0.008 0.008,-0.012 0,0 0,-0.004 0.004,-0.008 l 0.418,-0.699 c 0.004,0 0.004,-0.004 0.008,-0.008 l 0.035,-0.047 c 0,-0.004 0.008,-0.016 0.012,-0.019 l 0.433,-0.637 c 0.004,-0.004 0.004,-0.008 0.008,-0.008 0.012,-0.02 0.012,-0.02 0.024,-0.039 l 1.011,-1.215 c 0,-0.004 0.004,-0.008 0.004,-0.012 0.278,-0.367 0.953,-0.957 1.367,-1.282 0.161,-0.148 0.332,-0.269 0.508,-0.39 0.043,-0.028 0.031,-0.032 0.078,-0.059 0.489,-0.399 1.395,-1.008 1.871,-1.356 v 4.775 l -0.093,0.254 v 0.109 h 8.023 -0.281 l 0.012,-5.04 c 0.394,0.168 1.234,0.723 1.879,1.235 0.003,0.003 0.007,0.003 0.011,0.007 l 0.336,0.243 c 0.055,0.031 0.004,-0.004 0.047,0.027 0.027,0.019 0.043,0.047 0.07,0.066 0.039,0.032 0.055,0.032 0.09,0.063 l 0.11,0.09 c 0.074,0.043 0.121,0.113 0.187,0.164 l 0.149,0.121 c 0.261,0.246 0.55,0.484 0.781,0.758 0.066,0.078 0.148,0.141 0.226,0.242 l 0.305,0.336 c 0.035,0.035 0.031,0.035 0.059,0.074 0.023,0.028 0.046,0.043 0.07,0.071 l 0.199,0.25 c 0.004,0.004 0.004,0.004 0.008,0.008 0.199,0.254 0.398,0.512 0.582,0.781 0.055,0.082 0.113,0.137 0.156,0.223 0.043,0.082 0.094,0.125 0.137,0.203 l 0.285,0.481 c 0.027,0.05 0.031,0.046 0.055,0.082 0.011,0.019 0.035,0.054 0.051,0.086 0.015,0.027 -0.004,-0.016 0.023,0.039 l 0.355,0.68 c 0.004,0.003 0.004,0.007 0.008,0.007 l 0.246,0.52 c 0.004,0.004 0.016,0.031 0.016,0.035 l 0.203,0.485 c 0.043,0.097 0.09,0.183 0.121,0.285 0.028,0.105 0.082,0.199 0.11,0.297 l 0.273,0.82 c 0.191,0.602 0.391,1.399 0.477,2.009 0.023,0.148 0.066,0.332 0.078,0.472 0.008,0.125 0.035,0.34 0.062,0.481 0.039,0.215 0.071,0.766 0.09,1.004 0.047,0.692 0.024,1.434 0.024,2.134 v 8.123 c 0,0.191 -0.043,0.324 -0.106,0.488 l -0.16,0.34 c -0.067,0.129 -0.133,0.238 -0.207,0.359 l -0.879,1.352 c -0.133,0.2 -0.316,0.461 -0.473,0.625 -0.175,0.157 -0.293,0.395 -0.41,0.411 l -3.183,-0.004 h -15.524 c -0.082,-0.11 -0.199,-0.231 -0.297,-0.336 -0.086,-0.098 -0.203,-0.239 -0.308,-0.328 z"
           style="fill:none;stroke:#009239;stroke-width:0.0720272;stroke-linecap:butt;stroke-linejoin:miter;stroke-miterlimit:2.613;stroke-dasharray:none;stroke-opacity:1"
           transform="matrix(1.3333333,0,0,-1.333004,1608,0)"
           clip-path="url(#clipPath22985)"
           id="path22986" />
      </g>
      <path
         id="path22991"
         d="m 192.68968,153.46116 0.0716,0.13229 h 2.15124 c 0.0194,0.0289 0.0497,0.0512 0.0663,0.0825 l 0.41063,0.40534 c 0.0356,0.0317 0.037,0.0399 0.084,0.0759 l 0.13759,0.11006 c 0.25505,0.20391 0.35277,0.26741 0.62865,0.43674 l 0.20919,0.11995 c 0.003,0.0388 0.01,0.0554 -0.001,0.0924 -0.0166,0.0607 -0.008,0.65053 -0.007,0.72637 0,0.037 -0.007,0.0607 -0.007,0.0977 0.004,0.80328 -10e-4,1.6122 -10e-4,2.41582 0,0.14323 -0.007,0.27552 -0.008,0.41875 l -0.0385,0.59267 -0.0967,0.75388 c -0.0371,0.18451 -0.0565,0.32632 -0.10478,0.52776 -0.0522,0.2219 -0.11289,0.44626 -0.18027,0.66146 -0.13935,0.42968 -0.30339,0.82126 -0.50729,1.20156 -0.19438,0.3623 -0.35278,0.58984 -0.59232,0.90664 -0.0289,0.0399 -0.0635,0.0801 -0.0952,0.11853 -0.0346,0.0427 -0.0635,0.0815 -0.10054,0.11995 -0.0194,0.0194 -0.0303,0.037 -0.0497,0.0564 -0.0205,0.0208 -0.0328,0.0374 -0.0508,0.0564 l -0.20814,0.22049 -0.39546,0.36266 c -0.0427,0.0413 -0.23566,0.18591 -0.3048,0.23812 -0.0825,0.0635 -0.16651,0.12136 -0.25048,0.17921 -0.0289,0.0194 -0.49212,0.32244 -0.54045,0.32526 l -0.008,-3.63925 c -0.0236,0.0413 -2.63913,0.0356 -2.68428,-0.007 -0.001,0.11854 0,0.23848 -0.003,0.47696 v 2.32198 c 0,0.27834 0.005,0.56339 0,0.84173 -0.0289,0 -0.0554,-0.0219 -0.0801,-0.0356 -0.36795,-0.21237 -0.76765,-0.48366 -1.07633,-0.75918 -0.1337,-0.11994 -0.26176,-0.23036 -0.387,-0.36407 l -0.15733,-0.1651 c -0.33197,-0.36406 -0.64876,-0.81456 -0.88442,-1.25553 -0.26352,-0.4946 -0.48789,-1.07068 -0.62442,-1.6122 -0.0152,-0.0593 -0.004,-0.0455 -0.0138,-0.0815 -0.055,-0.19826 -0.11713,-0.49318 -0.14888,-0.69568 -0.0123,-0.0772 -0.0497,-0.30197 -0.0536,-0.36935 -0.006,-0.0565 -0.0194,-0.13088 -0.0261,-0.18909 l -0.036,-0.38559 c -0.001,-0.0388 -0.001,-0.0564 -0.007,-0.0938 -0.005,-0.0318 -0.001,-0.0674 -0.004,-0.10054 -0.0152,-0.19579 -0.0194,-0.41628 -0.0194,-0.61031 0,-0.55562 -0.006,-1.11513 -0.004,-1.67463 l -0.001,-1.5942 v -0.0593 l 0.0691,-0.0275 c 0.0702,-0.036 0.29881,-0.18203 0.3556,-0.22048 0.03,-0.0208 0.0702,-0.0469 0.10055,-0.0677 0.11994,-0.0825 0.37323,-0.26035 0.47519,-0.34854 0.0275,-0.0233 0.0607,-0.0483 0.091,-0.0744 0.036,-0.0303 0.054,-0.0469 0.0882,-0.073 0.0607,-0.0483 0.11183,-0.10337 0.16968,-0.1584 0.0371,-0.0346 0.14323,-0.15593 0.15981,-0.16404 0.0109,-0.0219 0.0758,-0.0949 0.0949,-0.11712 l 1.99566,-0.003 0.073,-0.12805 c -0.43286,0.006 -0.87101,0 -1.30528,0 h -0.6544 c -0.0346,0 -0.13512,-0.01 -0.1584,0.007 l -0.22331,0.24694 c -0.29774,0.31398 -0.68368,0.61454 -1.06539,0.84455 l -0.30585,0.17357 c -0.037,0.0194 -0.0646,0.0402 -0.11572,0.0402 -0.001,0.0275 -0.003,0.055 -0.003,0.0854 v 0.0166 c 0,0.048 0.001,0.0991 0.001,0.14323 v 3.18311 c 0,0.16263 0.0123,0.31291 0.0166,0.47131 0.008,0.30727 0.0483,0.60784 0.0801,0.90417 0.0148,0.14041 0.0441,0.29351 0.0674,0.43004 0.0233,0.13758 0.0522,0.27128 0.0811,0.4064 0.0981,0.46425 0.29105,1.06503 0.4879,1.49366 0.11042,0.23848 0.21519,0.44662 0.3376,0.66005 0.13371,0.23177 0.4244,0.66145 0.61737,0.88335 0.31432,0.35983 0.38876,0.43568 0.74577,0.75671 0.3429,0.30727 0.79092,0.59796 1.19309,0.8255 0.21661,0.121 0.4438,0.2286 0.67804,0.33479 0.0787,0.036 0.65864,0.27128 0.72778,0.27834 h 0.005 c 0.0113,-0.003 0.0773,-0.0289 0.0952,-0.036 0.0332,-0.0109 0.0621,-0.0219 0.0924,-0.0328 0.0646,-0.0222 0.12241,-0.0441 0.18591,-0.0692 0.3362,-0.13088 0.72743,-0.30868 1.03611,-0.48507 0.45226,-0.25753 0.78846,-0.48366 1.18675,-0.82656 0.67909,-0.58314 1.28834,-1.37124 1.69615,-2.30434 0.19438,-0.44344 0.38876,-1.01671 0.48648,-1.4979 0.0138,-0.0688 0.0261,-0.13617 0.0427,-0.20672 0.0303,-0.13371 0.0483,-0.28364 0.0744,-0.41875 0.006,-0.036 0.008,-0.0759 0.0152,-0.1076 l 0.0469,-0.38311 c 0.003,-0.0205 0.003,-0.0385 0.006,-0.0579 0.0138,-0.0811 0.0191,-0.25471 0.0289,-0.33902 l 0.0247,-0.45896 10e-4,-3.18453 c 0,-0.1584 0.006,-0.32667 0,-0.48507 -0.0512,-0.004 -0.0374,0.001 -0.0773,-0.0194 -0.36653,-0.19685 -0.72072,-0.44626 -1.02658,-0.72319 -0.0303,-0.0279 -0.0854,-0.0868 -0.11994,-0.12136 -0.14464,-0.14076 -0.2921,-0.28399 -0.40499,-0.43427 z"
         style="fill:url(#linearGradient22991);stroke:none;stroke-width:0.352778" />
      <g
         id="g22993"
         clip-path="url(#clipPath22994)"
         transform="matrix(0.26458333,0,0,0.26458333,-280.72009,39.925983)">
        <path
           d="m 129.145,322.199 -5.661,0.008 c -0.05,0.063 -0.226,0.258 -0.277,0.34 -0.094,0.109 -0.477,0.629 -0.477,0.629 -0.113,0.101 -0.187,0.199 -0.195,0.258 0.106,-0.086 0.578,-0.602 0.664,-0.7 0.098,-0.105 0.215,-0.226 0.297,-0.339 h 5.551 c 0.015,-0.028 0.027,-0.059 0.043,-0.094 0.019,-0.051 0.012,-0.059 0.066,-0.074 l -0.019,0.05 c 0.004,-0.004 0.008,-0.011 0.008,-0.011 0.003,0.004 0.007,-0.008 0.007,-0.008 l 7.008,0.027 c -0.004,-0.055 -0.023,-0.031 0.008,-0.051 0.031,0.02 0.035,0.078 0.078,0.157 l 1.453,0.007 c 0.422,0.02 0.895,0 1.321,0 l 3.183,-0.003 c 0.117,0.015 0.789,0.929 0.965,1.085 -0.016,-0.062 0.012,-0.054 -0.023,-0.105 -0.04,-0.047 -0.579,-0.75 -0.676,-0.844 -0.102,-0.129 -0.164,-0.242 -0.219,-0.324 h -6.098 z"
           style="fill:#419f36;fill-opacity:1;fill-rule:evenodd;stroke:none"
           transform="matrix(1.3333333,0,0,1.3333333,1608,0)"
           clip-path="url(#clipPath22992)"
           id="path22993" />
      </g>
      <g
         id="g22996"
         clip-path="url(#clipPath22997)"
         transform="matrix(0.26458333,0,0,0.26458333,-280.72009,39.925983)">
        <path
           d="m 126.078,335.551 h 2.371 v 0.504 h -1.566 v 0.547 h 1.226 v 0.531 h -1.214 v 0.941 h -0.817 z"
           style="fill:#ffed00;fill-opacity:1;fill-rule:evenodd;stroke:none"
           transform="matrix(1.3333333,0,0,1.3333333,1608,0)"
           clip-path="url(#clipPath22995)"
           id="path22996" />
      </g>
      <g
         id="g22999"
         clip-path="url(#clipPath23000)"
         transform="matrix(0.26458333,0,0,0.26458333,-280.72009,39.925983)">
        <path
           d="m 128.895,335.551 h 2.375 v 0.504 h -1.571 v 0.547 h 1.231 v 0.531 h -1.215 v 0.941 h -0.82 z"
           style="fill:#ffed00;fill-opacity:1;fill-rule:evenodd;stroke:none"
           transform="matrix(1.3333333,0,0,1.3333333,1608,0)"
           clip-path="url(#clipPath22998)"
           id="path22999" />
      </g>
      <g
         id="g23002"
         clip-path="url(#clipPath23003)"
         transform="matrix(0.26458333,0,0,0.26458333,-280.72009,39.925983)">
        <path
           d="m 133.504,336.418 c -0.012,0.211 -0.32,0.223 -0.32,0.223 h -0.727 v -0.645 h 0.598 c 0,0 0.234,-0.019 0.351,0.078 0.074,0.063 0.117,0.121 0.098,0.344 m 0.273,0.578 c 0,0 0.559,-0.18 0.547,-0.676 -0.012,-0.699 -0.625,-0.769 -1.019,-0.769 h -1.633 v 2.523 h 0.769 v -0.98 h 0.551 l 0.535,0.98 h 0.864 z"
           style="fill:#ffed00;fill-opacity:1;fill-rule:nonzero;stroke:none"
           transform="matrix(1.3333333,0,0,1.3333333,1608,0)"
           clip-path="url(#clipPath23001)"
           id="path23002" />
      </g>
      <g
         id="g23005"
         clip-path="url(#clipPath23006)"
         transform="matrix(0.26458333,0,0,0.26458333,-280.72009,39.925983)">
        <path
           d="m 134.977,335.551 h 0.793 v 2.52 h -0.793 z"
           style="fill:#ffed00;fill-opacity:1;fill-rule:nonzero;stroke:none"
           transform="matrix(1.3333333,0,0,1.3333333,1608,0)"
           clip-path="url(#clipPath23004)"
           id="path23005" />
      </g>
      <g
         id="g23008"
         clip-path="url(#clipPath23009)"
         transform="matrix(0.26458333,0,0,0.26458333,-280.72009,39.925983)">
        <path
           d="m 136.465,335.551 v 2.523 h 0.676 l -0.008,-2.082 0.82,2.082 h 0.539 l 0.828,-2.094 v 2.094 h 0.758 v -2.523 h -1.195 l -0.598,1.554 -0.59,-1.554 z"
           style="fill:#ffed00;fill-opacity:1;fill-rule:nonzero;stroke:none"
           transform="matrix(1.3333333,0,0,1.3333333,1608,0)"
           clip-path="url(#clipPath23007)"
           id="path23008" />
      </g>
      <g
         id="g23011"
         clip-path="url(#clipPath23012)"
         transform="matrix(0.26458333,0,0,0.26458333,-280.72009,39.925983)">
        <path
           d="m 135.816,340.02 c -0.164,0 -0.347,-0.012 -0.519,-0.016 -0.203,-0.004 -0.262,-0.004 -0.442,-0.066 -0.246,-0.083 -0.5,-0.172 -0.75,-0.254 -0.261,-0.09 -0.511,-0.161 -0.73,-0.297 -0.18,-0.11 -0.453,-0.301 -0.535,-0.461 0.203,-0.024 0.703,0.054 0.914,0.101 0.644,0.141 1.25,0.395 1.781,0.762 0.067,0.043 0.246,0.145 0.281,0.231 m -3.597,-0.493 c -0.024,-0.015 -0.008,-0.004 -0.02,-0.035 l -0.031,-0.097 c 0.125,-0.02 -0.027,0.035 0.047,0 l 0.019,-0.047 c -0.058,0.031 0.008,0.019 -0.074,0.031 0.008,-0.031 0.016,-0.031 0.02,-0.039 0.019,-0.035 0.011,-0.11 -0.008,-0.16 0.055,-0.016 0.043,0 0.062,-0.008 -0.027,-0.012 -0.043,-0.004 -0.074,-0.031 0.02,-0.051 -0.004,-0.024 0.008,-0.075 0.004,-0.015 0.012,-0.031 0.02,-0.043 0.023,-0.046 0.023,-0.05 0.058,-0.066 0.031,-0.016 0.035,-0.012 0.074,-0.016 0.121,-0.011 0.27,-0.019 0.391,-0.019 0.094,0.144 0.207,0.25 0.332,0.348 l 0.309,0.207 c 0.007,0.003 0.054,0.031 0.058,0.031 0.039,0.035 0.02,-0.008 0.028,0.051 -0.235,0.086 -0.434,0.164 -0.633,0.25 l -0.438,0.23 c -0.086,0.051 -0.062,0.059 -0.164,0.039 l -0.031,-0.191 c 0,-0.004 0.004,-0.008 0.004,-0.008 0,0 0,-0.004 0,-0.008 -0.008,-0.066 0.051,0.055 -0.008,-0.016 l -0.023,-0.015 c 0,-0.004 0.007,-0.008 0.011,-0.008 l 0.047,-0.051 c 0,0 0,-0.004 0,-0.008 0,0 0.004,-0.003 0.004,-0.007 0.027,-0.063 0.039,-0.121 -0.004,-0.2 0,0.016 0.004,0.024 -0.008,0.036 0,0.003 -0.004,0.003 -0.007,0.007 l -0.028,0.004 c -0.004,-0.008 -0.023,-0.035 0.012,-0.066 0.019,-0.02 0.019,-0.008 0.047,-0.02 m -4.203,3.016 c 0.046,-0.285 0.234,-0.731 0.351,-0.965 0.242,-0.476 0.469,-0.781 0.805,-1.137 0.219,-0.23 0.801,-0.742 1.078,-0.843 -0.004,0.066 -0.039,0.172 -0.059,0.25 -0.074,0.328 -0.015,0.422 -0.125,0.527 -0.265,0.266 -0.507,0.555 -0.754,0.859 l -0.41,0.567 c -0.027,0.039 -0.047,0.066 -0.074,0.097 -0.047,0.055 -0.031,0.051 -0.058,0.094 -0.055,0.082 -0.629,0.504 -0.754,0.551 m 8.304,-0.41 c -0.34,-0.25 -0.5,-0.242 -0.863,-0.25 0.008,-0.449 0.035,-0.465 -0.109,-0.957 -0.043,-0.141 -0.09,-0.285 -0.141,-0.422 -0.023,-0.066 -0.121,-0.352 -0.121,-0.41 0.199,-0.004 0.394,0.011 0.602,0.015 0.312,0.004 0.273,0.004 0.445,0.164 0.203,0.192 0.383,0.395 0.582,0.661 0.082,0.113 0.445,0.664 0.449,0.796 0.004,0.082 -0.226,0.813 -0.266,0.965 -0.039,-0.011 -0.027,-0.007 -0.05,-0.031 l -0.098,-0.121 c -0.117,-0.141 -0.258,-0.285 -0.43,-0.41 m -4.394,-1.492 c 0.015,0.043 0.043,0.281 0.058,0.355 0.086,0.442 0.286,0.852 0.301,0.918 l -1.14,1.34 c -0.165,0.195 -0.125,0.18 -0.313,0.184 l -0.953,0.019 c -0.043,0.016 -0.324,0.047 -0.375,0.031 -0.246,-0.058 -0.598,-1.312 -0.606,-1.453 -0.011,-0.172 1.102,-1.488 1.274,-1.617 0.144,-0.113 0.961,-0.066 1.148,-0.055 l -0.078,0.008 c 0.133,0.004 0.582,0.024 0.676,0.07 z m 3.386,1.293 c -0.066,0.078 -0.32,0.254 -0.406,0.32 -0.543,0.414 -0.379,0.379 -0.679,0.269 -0.086,-0.031 -0.172,-0.062 -0.262,-0.097 -0.188,-0.071 -0.352,-0.129 -0.52,-0.192 -0.187,-0.07 -0.343,-0.121 -0.535,-0.195 -0.082,-0.031 -0.488,-0.168 -0.531,-0.199 -0.094,-0.07 -0.344,-0.938 -0.324,-1.113 -0.02,-0.047 -0.028,-0.122 -0.032,-0.192 -0.003,-0.101 0.004,-0.109 0.059,-0.16 0.074,-0.074 0.164,-0.137 0.246,-0.191 0.32,-0.215 0.785,-0.418 1.168,-0.551 0.109,-0.039 0.207,0.019 0.32,0.062 l 0.965,0.325 c 0.18,0.066 0.168,0.015 0.231,0.199 0.035,0.109 0.066,0.203 0.101,0.316 0.067,0.219 0.149,0.422 0.203,0.664 0.024,0.094 0.129,0.684 -0.004,0.735 m 1.926,-0.036 0.047,0.079 c 0.012,0.031 0.024,0.062 0.035,0.101 0.18,0.496 0.309,1.117 0.278,1.637 -0.02,0.34 -0.051,0.64 -0.129,0.961 -0.031,0.133 -0.207,0.762 -0.278,0.801 -0.058,-0.161 -0.132,-0.707 -0.144,-0.899 l 0.058,-0.457 c 0.016,-0.141 0.016,-0.359 0,-0.508 -0.011,-0.16 -0.031,-0.32 -0.066,-0.465 -0.031,-0.132 -0.09,-0.293 -0.047,-0.437 0.047,-0.149 0.196,-0.738 0.246,-0.813 m -2.945,2.735 c -0.121,0.039 -1.949,0.492 -2.117,0.496 l -0.684,-1.035 c -0.035,-0.071 -0.035,-0.047 -0.07,-0.098 -0.012,-0.012 -0.02,-0.031 -0.027,-0.051 l -0.172,-0.261 c -0.067,-0.098 -0.121,-0.114 -0.118,-0.235 l 0.391,-0.453 c 0.027,-0.035 0.051,-0.051 0.082,-0.09 l 0.32,-0.375 c 0.09,-0.129 0.36,-0.41 0.481,-0.574 l 2.019,0.719 z m 1.176,0.969 -0.801,-0.731 c -0.09,-0.07 -0.199,-0.141 -0.281,-0.226 -0.02,-0.043 0.078,-1.528 0.09,-1.723 0.011,-0.227 -0.028,-0.199 0.132,-0.317 l 0.52,-0.394 c 0.082,-0.063 0.172,-0.156 0.269,-0.195 0.102,-0.114 0.504,-0.02 0.696,0.082 0.281,0.152 0.48,0.375 0.664,0.605 0.109,0.137 0.101,0.106 0.14,0.297 0.055,0.238 0.106,0.48 0.114,0.746 0.004,0.266 -0.016,0.551 -0.067,0.797 -0.035,0.18 -0.007,0.168 -0.129,0.289 -0.254,0.254 -0.683,0.516 -1.019,0.699 -0.067,0.039 -0.219,0.141 -0.289,0.133 -0.031,-0.039 -0.02,-0.023 -0.039,-0.062 m -7.407,-0.704 c 0.063,0.004 0.278,0.129 0.348,0.168 0.199,0.11 0.137,0.067 0.235,0.293 0.109,0.25 0.226,0.461 0.367,0.688 0.183,0.289 0.441,0.641 0.707,0.875 0.074,0.058 0.066,0.078 0.074,0.187 0.004,0.082 0.016,0.176 0.016,0.262 -0.094,-0.035 -0.5,-0.402 -0.571,-0.48 -0.367,-0.395 -0.629,-0.727 -0.879,-1.231 -0.074,-0.148 -0.273,-0.59 -0.297,-0.762 m 2.379,-1.355 0.547,-0.016 0.844,1.27 c 0.07,0.105 0.133,0.207 0.207,0.316 0.066,0.094 0.066,0.082 0.027,0.188 -0.027,0.066 -0.05,0.137 -0.07,0.199 l -0.277,0.77 c -0.028,0.089 -0.067,0.187 -0.094,0.269 l -0.074,0.207 c -0.024,0.051 0.004,0.024 -0.039,0.055 -0.098,0.058 -1.176,0.094 -1.407,0.094 -0.273,0 -0.238,0.031 -0.394,-0.118 -0.371,-0.351 -0.781,-1.007 -0.996,-1.523 -0.078,-0.184 -0.051,-0.172 0.031,-0.371 0.145,-0.352 0.484,-1.028 0.75,-1.262 0.082,-0.07 0.836,-0.074 0.945,-0.078 m 4.602,3.777 c 0.531,0.039 0.383,0.274 0.887,-0.152 0.215,-0.18 0.441,-0.41 0.609,-0.613 0.09,-0.11 0.609,-0.793 0.582,-0.953 l -0.164,-0.758 c -0.055,0.023 -0.109,0.09 -0.152,0.129 -0.297,0.269 -0.809,0.582 -1.164,0.757 -0.098,0.043 -0.09,0.051 -0.121,0.161 l -0.145,0.414 c -0.023,0.062 -0.043,0.136 -0.066,0.199 -0.043,0.125 -0.278,0.742 -0.266,0.816 m -3.313,-0.754 c -0.035,0.043 -0.093,0.207 -0.093,0.282 0.226,0.308 0.609,0.605 1.015,0.847 0.106,0.063 0.192,0.106 0.297,0.164 0.172,0.094 0.153,0.075 0.34,0.02 0.547,-0.156 0.867,-0.203 1.406,-0.457 0.203,-0.098 0.215,-0.086 0.258,-0.207 l 0.477,-1.383 c 0.031,-0.086 0.015,-0.098 -0.039,-0.148 -0.039,-0.039 -0.067,-0.079 -0.114,-0.106 -0.066,-0.121 -0.648,-0.609 -0.816,-0.746 -0.109,-0.086 -0.109,-0.121 -0.266,-0.082 l -0.937,0.23 c -0.207,0.047 -0.434,0.11 -0.633,0.157 -0.5,0.113 -0.418,0.07 -0.496,0.281 -0.031,0.09 -0.067,0.184 -0.102,0.281 -0.07,0.207 -0.289,0.785 -0.297,0.867 m 2.614,-7.484 c -0.387,-0.125 -0.785,-0.211 -1.156,-0.238 -0.969,-0.071 -1.907,0.113 -2.75,0.539 -0.153,0.078 -0.297,0.144 -0.43,0.234 -0.555,0.36 -1.039,0.817 -1.414,1.356 -0.469,0.687 -0.758,1.5 -0.813,2.375 -0.004,0.07 -0.004,0.14 -0.004,0.214 l -0.004,0.051 v 0.024 c 0,0.367 0.043,0.726 0.125,1.07 0.02,0.066 0.032,0.125 0.047,0.191 0.047,0.164 0.102,0.325 0.164,0.485 0.121,0.297 0.266,0.562 0.442,0.832 0.078,0.125 0.133,0.117 0.168,0.172 l 0.273,0.386 c 0.129,0.129 0.211,0.231 0.34,0.348 0.117,0.102 0.25,0.219 0.375,0.309 0.258,0.199 0.539,0.375 0.848,0.515 1.625,0.746 3.347,0.633 4.824,-0.261 0.449,-0.286 0.848,-0.637 1.18,-1.047 0.003,-0.032 -0.004,-0.024 0.058,-0.082 0.051,-0.051 0.043,-0.071 0.094,-0.125 0.059,-0.059 0.078,-0.129 0.129,-0.172 0.504,-0.754 0.797,-1.656 0.797,-2.625 0,-2.102 -1.375,-3.887 -3.293,-4.551 m -1.574,9.254 c 0.023,-0.051 0.187,-0.184 0.238,-0.227 0.129,-0.109 0.148,-0.093 0.328,-0.136 0.25,-0.063 0.484,-0.125 0.73,-0.203 0.243,-0.075 0.454,-0.157 0.672,-0.258 0.235,-0.11 0.176,-0.125 0.344,-0.09 0.117,0.023 0.273,0.043 0.383,0.078 -0.059,0.137 -0.965,0.52 -1.172,0.586 -0.41,0.137 -1.043,0.273 -1.523,0.25"
           style="fill:#16612b;fill-opacity:1;fill-rule:evenodd;stroke:none"
           transform="matrix(1.3333333,0,0,1.3333333,1608,0)"
           clip-path="url(#clipPath23010)"
           id="path23011" />
      </g>
      <g
         id="g23014"
         clip-path="url(#clipPath23015)"
         transform="matrix(0.26458333,0,0,0.26458333,-280.72009,39.925983)">
        <path
           d="m 134.398,342.676 -2.019,-0.719 c -0.121,0.164 -0.391,0.445 -0.481,0.574 l -0.32,0.375 c -0.031,0.035 -0.055,0.055 -0.082,0.09 l -0.391,0.453 c -0.003,0.121 0.051,0.137 0.118,0.235 l 0.172,0.261 c 0.007,0.02 0.015,0.039 0.027,0.051 0.035,0.051 0.035,0.027 0.07,0.098 l 0.684,1.035 c 0.168,-0.008 1.996,-0.457 2.117,-0.496 z"
           style="fill:#3e8534;fill-opacity:1;fill-rule:evenodd;stroke:none"
           transform="matrix(1.3333333,0,0,1.3333333,1608,0)"
           clip-path="url(#clipPath23013)"
           id="path23014" />
      </g>
      <g
         id="g23017"
         clip-path="url(#clipPath23018)"
         transform="matrix(0.26458333,0,0,0.26458333,-280.72009,39.925983)">
        <path
           d="m 135.457,341.883 c 0.363,0.008 0.523,0 0.863,0.25 0.168,0.125 0.313,0.269 0.43,0.41 l 0.098,0.121 c 0.023,0.024 0.007,0.02 0.05,0.027 0.04,-0.148 0.27,-0.879 0.266,-0.961 -0.004,-0.132 -0.367,-0.683 -0.449,-0.796 -0.199,-0.27 -0.379,-0.469 -0.582,-0.661 -0.172,-0.16 -0.133,-0.16 -0.445,-0.164 -0.208,-0.004 -0.403,-0.019 -0.602,-0.015 0,0.058 0.098,0.344 0.121,0.41 0.051,0.137 0.098,0.281 0.141,0.422 0.144,0.492 0.117,0.508 0.109,0.957"
           style="fill:#65b230;fill-opacity:1;fill-rule:evenodd;stroke:none"
           transform="matrix(1.3333333,0,0,1.3333333,1608,0)"
           clip-path="url(#clipPath23016)"
           id="path23017" />
      </g>
      <g
         id="g23020"
         clip-path="url(#clipPath23021)"
         transform="matrix(0.26458333,0,0,0.26458333,-280.72009,39.925983)">
        <path
           d="m 135.043,347.32 c 0.531,0.039 0.383,0.274 0.887,-0.152 0.215,-0.18 0.441,-0.41 0.609,-0.613 0.09,-0.11 0.609,-0.793 0.582,-0.953 l -0.164,-0.758 c -0.055,0.023 -0.109,0.09 -0.152,0.129 -0.301,0.269 -0.809,0.582 -1.164,0.757 -0.098,0.043 -0.086,0.051 -0.121,0.165 l -0.145,0.41 c -0.023,0.062 -0.043,0.136 -0.066,0.199 -0.043,0.125 -0.278,0.742 -0.266,0.816"
           style="fill:#65b230;fill-opacity:1;fill-rule:evenodd;stroke:none"
           transform="matrix(1.3333333,0,0,1.3333333,1608,0)"
           clip-path="url(#clipPath23019)"
           id="path23020" />
      </g>
      <g
         id="g23023"
         clip-path="url(#clipPath23024)"
         transform="matrix(0.26458333,0,0,0.26458333,-280.72009,39.925983)">
        <path
           d="m 132.156,-339.224 c 0.035,-0.028 0.051,-0.02 0.078,-0.032 -0.019,-0.008 -0.007,0.008 -0.062,-0.008 0.019,-0.05 0.027,-0.125 0.008,-0.16 -0.004,-0.008 -0.012,-0.008 -0.024,-0.039 0.086,0.012 0.02,0 0.078,0.031 l -0.019,-0.046 c -0.074,-0.036 0.078,0.019 -0.047,0 l 0.027,-0.098 c 0.016,-0.031 0,-0.02 0.024,-0.035 -0.028,-0.012 -0.028,0 -0.047,-0.02 -0.035,-0.031 -0.016,-0.058 -0.016,-0.066 l 0.032,0.004 c 0.003,0.004 0.007,0.004 0.007,0.007 0.012,0.012 0.012,0.02 0.008,0.036 0.043,-0.079 0.031,-0.137 0.004,-0.2 0,-0.004 -0.004,-0.007 -0.004,-0.007 0,-0.004 0,-0.008 -0.004,-0.008 l -0.047,-0.051 c 0,0 -0.007,-0.004 -0.007,-0.008 l 0.023,-0.016 c 0.059,-0.07 0,0.051 0.008,-0.015 0,-0.004 0,-0.008 0,-0.008 0,0 -0.004,-0.004 -0.004,-0.008 l 0.031,-0.191 c 0.102,-0.024 0.078,-0.012 0.164,0.039 l 0.438,0.23 c 0.199,0.086 0.402,0.164 0.633,0.25 -0.012,0.059 0.011,0.016 -0.028,0.051 -0.004,0 -0.051,0.028 -0.062,0.031 l -0.305,0.208 c -0.125,0.097 -0.238,0.203 -0.332,0.347 -0.117,0 -0.27,-0.008 -0.391,-0.019 -0.039,-0.004 -0.043,0 -0.074,-0.016 -0.031,-0.015 -0.035,-0.019 -0.058,-0.066 -0.008,-0.012 -0.016,-0.028 -0.02,-0.043 -0.012,-0.051 0.012,-0.024 -0.012,-0.074"
           style="fill:#16612b;fill-opacity:1;fill-rule:evenodd;stroke:#16612b;stroke-width:0.016006;stroke-linecap:butt;stroke-linejoin:miter;stroke-miterlimit:2.613;stroke-dasharray:none;stroke-opacity:1"
           transform="matrix(1.3333333,0,0,-1.333004,1608,0)"
           clip-path="url(#clipPath23022)"
           id="path23023" />
      </g>
      <g
         id="g23026"
         clip-path="url(#clipPath23027)"
         transform="matrix(0.26458333,0,0,0.26458333,-280.72009,39.925983)">
        <path
           d="m 132.703,-348.539 c 2.719,0 4.934,2.164 4.934,4.821 0,2.657 -2.215,4.826 -4.934,4.826 -2.715,0 -4.93,-2.169 -4.93,-4.826 0,-2.657 2.485,-4.821 4.93,-4.821 z"
           style="fill:none;stroke:#16612b;stroke-width:0.0500189;stroke-linecap:butt;stroke-linejoin:miter;stroke-miterlimit:2.613;stroke-dasharray:none;stroke-opacity:1"
           transform="matrix(1.3333333,0,0,-1.333004,1608,0)"
           clip-path="url(#clipPath23025)"
           id="path23026" />
      </g>
      <g
         id="g23029"
         clip-path="url(#clipPath23030)"
         transform="matrix(0.26458333,0,0,0.26458333,-280.72009,39.925983)">
        <path
           d="m 132.84,338.93 c 0.082,0.156 0.355,0.347 0.535,0.457 0.219,0.136 0.469,0.207 0.73,0.297 0.25,0.082 0.508,0.171 0.75,0.254 0.18,0.062 0.239,0.062 0.442,0.066 0.172,0.004 0.351,0.016 0.519,0.016 -0.035,-0.082 -0.214,-0.188 -0.281,-0.231 -0.527,-0.367 -1.137,-0.621 -1.781,-0.762 -0.184,-0.039 -0.586,-0.105 -0.82,-0.105 -0.036,0 -0.071,0.004 -0.094,0.008 m -3.668,1.511 c -0.336,0.356 -0.563,0.661 -0.805,1.137 -0.117,0.234 -0.305,0.68 -0.351,0.965 0.125,-0.047 0.699,-0.469 0.754,-0.551 0.027,-0.043 0.011,-0.039 0.058,-0.094 0.027,-0.031 0.047,-0.058 0.074,-0.097 l 0.41,-0.567 c 0.247,-0.304 0.489,-0.593 0.754,-0.859 0.11,-0.105 0.051,-0.199 0.125,-0.527 0.02,-0.078 0.055,-0.184 0.059,-0.25 -0.277,0.101 -0.859,0.613 -1.078,0.843 m 4.324,-0.808 c -0.383,0.133 -0.848,0.336 -1.168,0.551 -0.082,0.054 -0.172,0.121 -0.246,0.191 -0.055,0.047 -0.062,0.059 -0.059,0.16 0.004,0.07 0.008,0.145 0.032,0.195 -0.02,0.172 0.226,1.04 0.328,1.11 0.039,0.031 0.441,0.168 0.527,0.199 0.192,0.074 0.348,0.125 0.535,0.195 0.168,0.063 0.332,0.121 0.52,0.196 0.086,0.031 0.172,0.062 0.262,0.093 0.3,0.114 0.136,0.145 0.679,-0.273 0.086,-0.062 0.34,-0.238 0.406,-0.316 0.133,-0.051 0.028,-0.641 0.004,-0.735 -0.054,-0.242 -0.132,-0.445 -0.203,-0.664 -0.035,-0.113 -0.066,-0.207 -0.101,-0.316 -0.063,-0.184 -0.047,-0.133 -0.235,-0.199 l -0.961,-0.325 c -0.089,-0.031 -0.164,-0.074 -0.246,-0.074 -0.023,0 -0.05,0.004 -0.074,0.012 m -3.324,0.785 c -0.172,0.133 -1.281,1.445 -1.274,1.617 0.008,0.141 0.36,1.395 0.606,1.457 0.051,0.012 0.332,-0.019 0.375,-0.035 l 0.953,-0.019 c 0.188,-0.004 0.148,0.011 0.313,-0.184 l 1.14,-1.336 c -0.015,-0.07 -0.215,-0.48 -0.301,-0.918 -0.015,-0.078 -0.043,-0.316 -0.054,-0.359 l -0.012,-0.2 c -0.094,-0.046 -0.543,-0.066 -0.672,-0.074 l 0.074,-0.004 c -0.093,-0.004 -0.332,-0.019 -0.574,-0.019 -0.25,0 -0.5,0.015 -0.574,0.074 m 6.82,2.293 c -0.043,0.144 0.016,0.305 0.047,0.437 0.035,0.145 0.055,0.305 0.066,0.465 0.012,0.149 0.016,0.367 0,0.508 l -0.058,0.457 c 0.012,0.192 0.086,0.738 0.144,0.899 0.071,-0.039 0.247,-0.668 0.278,-0.805 0.082,-0.317 0.109,-0.617 0.129,-0.957 0.031,-0.52 -0.102,-1.141 -0.278,-1.637 -0.011,-0.039 -0.023,-0.07 -0.035,-0.101 l -0.047,-0.079 c -0.05,0.075 -0.199,0.664 -0.246,0.813 m -1.594,-0.695 c -0.097,0.039 -0.187,0.132 -0.269,0.195 l -0.52,0.394 c -0.16,0.118 -0.121,0.09 -0.132,0.317 -0.012,0.195 -0.11,1.676 -0.09,1.723 0.086,0.085 0.191,0.156 0.281,0.226 l 0.801,0.731 c 0.019,0.043 0.008,0.023 0.035,0.062 0.078,0.008 0.226,-0.094 0.293,-0.133 0.336,-0.183 0.765,-0.445 1.023,-0.699 0.118,-0.121 0.09,-0.109 0.125,-0.285 0.051,-0.25 0.071,-0.535 0.063,-0.801 -0.004,-0.266 -0.055,-0.508 -0.106,-0.746 -0.043,-0.191 -0.035,-0.156 -0.144,-0.297 -0.184,-0.23 -0.383,-0.453 -0.664,-0.605 -0.129,-0.071 -0.356,-0.133 -0.524,-0.133 -0.074,0 -0.14,0.015 -0.172,0.051 m -4.957,1.527 c -0.105,0.004 -0.867,0.008 -0.945,0.078 -0.266,0.234 -0.605,0.91 -0.75,1.262 -0.082,0.199 -0.109,0.187 -0.031,0.375 0.215,0.512 0.625,1.168 0.996,1.519 0.156,0.149 0.125,0.118 0.394,0.118 0.231,0 1.309,-0.036 1.407,-0.094 0.043,-0.031 0.015,-0.004 0.039,-0.055 l 0.074,-0.207 c 0.027,-0.082 0.066,-0.18 0.094,-0.269 l 0.277,-0.77 c 0.02,-0.062 0.043,-0.133 0.07,-0.199 0.039,-0.106 0.039,-0.094 -0.027,-0.188 -0.07,-0.109 -0.137,-0.211 -0.207,-0.316 l -0.844,-1.27 z m 3.754,1.207 -0.937,0.23 c -0.203,0.051 -0.434,0.11 -0.633,0.157 -0.504,0.113 -0.418,0.07 -0.496,0.281 -0.031,0.09 -0.067,0.184 -0.102,0.281 -0.07,0.207 -0.289,0.785 -0.297,0.867 -0.031,0.043 -0.093,0.207 -0.093,0.282 0.23,0.308 0.609,0.605 1.015,0.847 0.106,0.063 0.192,0.106 0.301,0.164 0.168,0.094 0.149,0.075 0.34,0.02 0.543,-0.156 0.863,-0.203 1.402,-0.457 0.203,-0.094 0.215,-0.086 0.254,-0.207 l 0.485,-1.383 c 0.027,-0.086 0.011,-0.098 -0.039,-0.148 -0.043,-0.039 -0.071,-0.079 -0.118,-0.102 -0.066,-0.125 -0.652,-0.613 -0.816,-0.75 -0.082,-0.062 -0.102,-0.098 -0.168,-0.098 -0.023,0 -0.055,0.004 -0.098,0.016 m -5.836,0.91 c 0.25,0.504 0.512,0.836 0.879,1.231 0.074,0.078 0.477,0.445 0.571,0.48 0,-0.086 -0.012,-0.18 -0.016,-0.262 -0.008,-0.109 0,-0.129 -0.074,-0.187 -0.266,-0.234 -0.524,-0.586 -0.707,-0.875 -0.141,-0.227 -0.258,-0.438 -0.367,-0.688 -0.098,-0.226 -0.036,-0.183 -0.235,-0.293 -0.07,-0.039 -0.285,-0.164 -0.348,-0.168 0.024,0.172 0.223,0.614 0.297,0.762 m 6.379,1.852 c -0.215,0.101 -0.429,0.183 -0.672,0.258 -0.246,0.078 -0.48,0.14 -0.73,0.203 -0.18,0.043 -0.199,0.027 -0.324,0.136 -0.055,0.043 -0.219,0.176 -0.242,0.227 0.484,0.023 1.113,-0.113 1.519,-0.25 0.211,-0.066 1.117,-0.449 1.176,-0.586 -0.11,-0.035 -0.266,-0.055 -0.383,-0.078 -0.051,-0.012 -0.082,-0.016 -0.105,-0.016 -0.051,0 -0.075,0.028 -0.239,0.106"
           transform="matrix(1.3333333,0,0,1.3333333,1608,0)"
           style="fill:url(#radialGradient23029);stroke:none"
           id="path23029" />
      </g>
      <g
         id="g23032"
         clip-path="url(#clipPath23033)"
         transform="matrix(0.26458333,0,0,0.26458333,-280.72009,39.925983)">
        <path
           d="m 136.648,329.359 h -7.761 c -1.004,0 -1.825,-0.82 -1.825,-1.824 v -5.738 c 0,-1.004 0.821,-1.824 1.825,-1.824 h 7.761 c 1.004,0 1.829,0.82 1.829,1.824 v 5.738 c 0,1.004 -0.825,1.824 -1.829,1.824"
           style="fill:#e30613;fill-opacity:1;fill-rule:evenodd;stroke:none"
           transform="matrix(1.3333333,0,0,1.3333333,1608,0)"
           clip-path="url(#clipPath23031)"
           id="path23032" />
      </g>
      <g
         id="g23035"
         clip-path="url(#clipPath23036)"
         transform="matrix(0.26458333,0,0,0.26458333,-280.72009,39.925983)">
        <path
           d="m 127.047,322.301 h 11.43 v 4.945 h -11.43 z"
           style="fill:#36a237;fill-opacity:1;fill-rule:evenodd;stroke:none"
           transform="matrix(1.3333333,0,0,1.3333333,1608,0)"
           clip-path="url(#clipPath23034)"
           id="path23035" />
      </g>
      <g
         id="g23038"
         clip-path="url(#clipPath23039)"
         transform="matrix(0.26458333,0,0,0.26458333,-280.72009,39.925983)">
        <path
           d="m 132.688,323.445 c -0.028,0.012 -0.231,0.012 -0.395,0.008 -0.09,0 -0.172,0 -0.207,0 0.012,0.027 0.488,0.367 0.488,0.367 l -0.187,0.68 c 0.039,-0.016 0.265,-0.211 0.265,-0.211 0.051,-0.039 0.231,-0.195 0.27,-0.211 0,0 0.516,0.375 0.535,0.383 -0.008,-0.063 -0.215,-0.602 -0.223,-0.652 0.051,-0.024 0.438,-0.313 0.485,-0.348 l -0.617,-0.008 -0.176,-0.629 z"
           transform="matrix(1.3333333,0,0,1.3333333,1608,0)"
           style="fill:url(#linearGradient23038);stroke:none"
           id="path23038" />
      </g>
      <g
         id="g23041"
         clip-path="url(#clipPath23042)"
         transform="matrix(0.26458333,0,0,0.26458333,-280.72009,39.925983)">
        <path
           d="m 132.848,325.762 c -1.961,-0.008 -2.356,-1.961 -2.356,-1.961 0,0 -0.109,0.851 0.352,1.59 0.344,0.55 1.078,1.05 2.051,1.05 1.128,0 1.863,-0.75 2.128,-1.445 0.239,-0.617 0.18,-1.195 0.18,-1.195 0,0 -0.387,1.965 -2.355,1.961"
           transform="matrix(1.3333333,0,0,1.3333333,1608,0)"
           style="fill:url(#linearGradient23041);stroke:none"
           id="path23041" />
      </g>
      <g
         id="g23044"
         clip-path="url(#clipPath23045)"
         transform="matrix(0.26458333,0,0,0.26458333,-280.72009,39.925983)">
        <path
           d="m 126.113,330.145 h 0.524 v 2.687 h 0.73 c 0,-0.477 0.012,-0.969 0.012,-1.445 0.137,0 0.351,-0.004 0.512,-0.004 v 1.449 c 0.152,0.004 0.32,0 0.437,-0.016 0.207,-0.023 0.258,-0.328 0.266,-0.75 0.008,-0.351 0.004,-0.679 0.004,-0.679 l 0.535,-0.004 c 0,0 0.023,1.101 -0.051,1.316 -0.062,0.305 -0.238,0.442 -0.414,0.551 -0.219,0.137 -0.555,0.121 -0.91,0.121 h -1.645 z"
           style="fill:#ffed00;fill-opacity:1;fill-rule:evenodd;stroke:none"
           transform="matrix(1.3333333,0,0,1.3333333,1608,0)"
           clip-path="url(#clipPath23043)"
           id="path23044" />
      </g>
      <g
         id="g23047"
         clip-path="url(#clipPath23048)"
         transform="matrix(0.26458333,0,0,0.26458333,-280.72009,39.925983)">
        <path
           d="m 129.594,330.145 h 0.523 v 2.703 h 0.731 v -1.45 l 0.507,-0.015 c 0,0 0.016,1.137 0.016,1.465 0.195,0 0.426,0 0.641,0 0.117,0 0.222,-0.016 0.394,-0.137 0.192,-0.129 0.125,-1.324 0.125,-1.324 l 0.528,-0.004 v 0.402 c 0,0.434 0.035,0.895 -0.133,1.153 -0.133,0.203 -0.313,0.355 -0.574,0.421 -0.122,0.032 -0.622,0.028 -0.622,0.028 0,0 -1.89,-0.004 -2.128,-0.012 -0.008,-0.121 -0.008,-1.559 -0.008,-1.797 z"
           style="fill:#ffed00;fill-opacity:1;fill-rule:evenodd;stroke:none"
           transform="matrix(1.3333333,0,0,1.3333333,1608,0)"
           clip-path="url(#clipPath23046)"
           id="path23047" />
      </g>
      <g
         id="g23050"
         clip-path="url(#clipPath23051)"
         transform="matrix(0.26458333,0,0,0.26458333,-280.72009,39.925983)">
        <path
           d="m 134.406,331.383 h 0.524 c 0.004,0.765 0.004,1.305 -0.028,1.719 -0.019,0.289 -0.117,0.492 -0.238,0.691 -0.129,0.211 -0.328,0.437 -0.59,0.574 -0.238,0.125 -0.492,0.09 -0.84,0.082 -0.144,-0.004 -0.265,-0.035 -0.265,-0.035 0,0 0,-0.41 0,-0.519 0.101,0.019 0.308,0.046 0.433,0.05 0.262,0.02 0.403,-0.011 0.618,-0.179 0.203,-0.157 0.363,-0.446 0.371,-0.84 0.004,-0.567 0.007,-0.973 0.015,-1.543"
           style="fill:#ffed00;fill-opacity:1;fill-rule:evenodd;stroke:none"
           transform="matrix(1.3333333,0,0,1.3333333,1608,0)"
           clip-path="url(#clipPath23049)"
           id="path23050" />
      </g>
      <g
         id="g23053"
         clip-path="url(#clipPath23054)"
         transform="matrix(0.26458333,0,0,0.26458333,-280.72009,39.925983)">
        <path
           d="m 139.547,332.863 h -0.883 c -0.004,-0.16 0,-0.429 0,-0.664 0,-0.234 0,-0.433 0.059,-0.531 0.047,-0.074 0.105,-0.125 0.187,-0.168 0.059,-0.027 0.168,-0.055 0.278,-0.043 0.257,0.035 0.382,0.231 0.371,0.59 -0.008,0.25 -0.008,0.543 -0.012,0.816 m -2.75,0 c -0.434,0.008 -0.758,0.012 -0.867,-0.301 -0.028,-0.078 -0.016,-0.261 -0.016,-0.386 0,-0.383 0.016,-0.578 0.285,-0.688 0.094,-0.039 0.215,-0.031 0.297,0 0.086,0.032 0.164,0.055 0.211,0.117 0.148,0.207 0.098,0.895 0.09,1.258 m 3.273,-1.175 c -0.05,-0.352 -0.351,-0.594 -0.66,-0.708 -0.637,-0.234 -1.16,0.293 -1.269,0.762 v 1.121 h -0.821 v -1.121 c 0,-0.574 -0.859,-1.074 -1.511,-0.64 -0.348,0.23 -0.418,0.449 -0.418,1.046 0,0.176 -0.012,0.489 0.031,0.625 0.082,0.266 0.203,0.415 0.453,0.52 0.152,0.066 0.629,0.16 0.832,0.062 h 0.016 c -0.078,0.301 -0.309,0.614 -0.883,0.583 -0.098,-0.004 -0.188,-0.04 -0.285,-0.059 v 0.508 c 0.75,0.097 1.168,-0.035 1.48,-0.512 0.082,-0.125 0.184,-0.301 0.195,-0.488 0.493,0 0.911,0.078 1.149,-0.254 0.094,0.09 0.223,0.242 0.402,0.254 h 1.289 c 0,-0.387 0.008,-0.75 0.008,-1.133 0,-0.18 0.016,-0.41 -0.008,-0.566"
           style="fill:#ffed00;fill-opacity:1;fill-rule:evenodd;stroke:none"
           transform="matrix(1.3333333,0,0,1.3333333,1608,0)"
           clip-path="url(#clipPath23052)"
           id="path23053" />
      </g>
      <g
         id="g23056"
         clip-path="url(#clipPath23057)"
         transform="matrix(0.26458333,0,0,0.26458333,-280.72009,39.925983)">
        <path
           d="m 127.641,334.129 -0.379,0.375 -0.375,-0.375 0.375,-0.375 z"
           style="fill:#ffed00;fill-opacity:1;fill-rule:evenodd;stroke:none"
           transform="matrix(1.3333333,0,0,1.3333333,1608,0)"
           clip-path="url(#clipPath23055)"
           id="path23056" />
      </g>
      <g
         id="g23059"
         clip-path="url(#clipPath23060)"
         transform="matrix(0.26458333,0,0,0.26458333,-280.72009,39.925983)">
        <path
           d="m 128.32,334.129 -0.375,0.375 -0.375,-0.375 0.375,-0.375 z"
           style="fill:#ffed00;fill-opacity:1;fill-rule:evenodd;stroke:none"
           transform="matrix(1.3333333,0,0,1.3333333,1608,0)"
           clip-path="url(#clipPath23058)"
           id="path23059" />
      </g>
      <g
         id="g23062"
         clip-path="url(#clipPath23063)"
         transform="matrix(0.26458333,0,0,0.26458333,-280.72009,39.925983)">
        <path
           d="m 132.004,334.129 -0.379,0.375 -0.375,-0.375 0.375,-0.375 z"
           style="fill:#ffed00;fill-opacity:1;fill-rule:evenodd;stroke:none"
           transform="matrix(1.3333333,0,0,1.3333333,1608,0)"
           clip-path="url(#clipPath23061)"
           id="path23062" />
      </g>
      <g
         id="g23065"
         clip-path="url(#clipPath23066)"
         transform="matrix(0.26458333,0,0,0.26458333,-280.72009,39.925983)">
        <path
           d="m 132.684,334.129 -0.375,0.375 -0.375,-0.375 0.375,-0.375 z"
           style="fill:#ffed00;fill-opacity:1;fill-rule:evenodd;stroke:none"
           transform="matrix(1.3333333,0,0,1.3333333,1608,0)"
           clip-path="url(#clipPath23064)"
           id="path23065" />
      </g>
      <g
         id="g23068"
         clip-path="url(#clipPath23069)"
         transform="matrix(0.26458333,0,0,0.26458333,-280.72009,39.925983)">
        <path
           d="m 131.121,330.641 -0.375,0.375 -0.379,-0.375 0.379,-0.375 z"
           style="fill:#ffed00;fill-opacity:1;fill-rule:evenodd;stroke:none"
           transform="matrix(1.3333333,0,0,1.3333333,1608,0)"
           clip-path="url(#clipPath23067)"
           id="path23068" />
      </g>
      <g
         id="g23071"
         clip-path="url(#clipPath23072)"
         transform="matrix(0.26458333,0,0,0.26458333,-280.72009,39.925983)">
        <path
           d="m 131.805,330.641 -0.379,0.375 -0.375,-0.375 0.375,-0.375 z"
           style="fill:#ffed00;fill-opacity:1;fill-rule:evenodd;stroke:none"
           transform="matrix(1.3333333,0,0,1.3333333,1608,0)"
           clip-path="url(#clipPath23070)"
           id="path23071" />
      </g>
      <g
         id="g23074"
         clip-path="url(#clipPath23075)"
         transform="matrix(0.26458333,0,0,0.26458333,-280.72009,39.925983)">
        <path
           d="m 129.227,330.641 -0.379,0.375 -0.375,-0.375 0.375,-0.375 z"
           style="fill:#ffed00;fill-opacity:1;fill-rule:evenodd;stroke:none"
           transform="matrix(1.3333333,0,0,1.3333333,1608,0)"
           clip-path="url(#clipPath23073)"
           id="path23074" />
      </g>
    </g>
  </g>
</svg>
