<?xml version="1.0" encoding="UTF-8" standalone="no"?>
<!-- Created with Inkscape (http://www.inkscape.org/) -->

<svg
   width="99.096092mm"
   height="65.78064mm"
   viewBox="0 0 99.096092 65.78064"
   version="1.1"
   id="svg1"
   xmlns="http://www.w3.org/2000/svg"
   xmlns:svg="http://www.w3.org/2000/svg">
  <defs
     id="defs1">
    <clipPath
       clipPathUnits="userSpaceOnUse"
       id="clipPath8081">
      <path
         d="M -5.8184251,-21.406803 H 29.294576 V 1.9011975 H -5.8184251 Z"
         id="path8081" />
    </clipPath>
    <clipPath
       clipPathUnits="userSpaceOnUse"
       id="clipPath8108">
      <path
         d="M -35.113201,-9.8268002 H -2.0000001e-4 V 22.611201 H -35.113201 Z"
         id="path8108" />
    </clipPath>
  </defs>
  <g
     id="layer1"
     transform="translate(-136.03289,-167.01264)">
    <path
       id="path8078"
       d="m 166.36747,174.1568 -26.90704,-0.0848 c 0,0 -0.2512,0.796 -1.2136,1.21352 -0.96232,0.4208 -1.8852,0.336 -1.8852,0.336 l 0.3976,2.86736 3.84952,-0.1888 -2.7404,2.46944 c 0,0 0.4824,0.6688 2.05176,0.98208 0.84664,0.1696 1.46472,-0.016 2.11384,-0.3328 0.6208,-0.3016 1.6736,-0.6072 1.6736,-0.6072 0,0 0.80712,1.89368 3.36688,3.72248 2.78272,1.98968 7.1572,2.176 7.1572,2.176 0,0 -7.98128,2.76008 -13.2024,9.18632 -7.78368,9.58424 -4.5748,19.78376 -2.88712,23.85336 2.3848,5.75456 6.25408,8.09696 6.25408,8.09696 0,0 -2.65576,-6.968 -1.19104,-11.61344 1.46472,-4.64256 4.48456,-8.14488 8.59936,-9.97936 2.90688,-1.29824 6.8636,-1.29824 6.8636,-1.29824 h 50.21584 l -40.71624,-23.09984 c 0,0 -2.75448,0.3552 -4.56352,-0.4176 -2.44688,-1.04704 -2.63592,-2.04896 -2.63592,-2.04896 l 3.97648,-2.40736 z"
       style="fill:#e30f13;fill-opacity:1;fill-rule:nonzero;stroke:none;stroke-width:2.82222" />
    <path
       id="path8079"
       d="m 196.88323,198.146 -12.652,-7.17128 -24.87224,0.006 c 0,0 -6.13832,0.072 -10.50432,2.72064 -4.98688,3.02536 -6.96808,6.17216 -8.684,10.10632 -1.71592,3.93136 -1.92472,8.47232 -1.54936,11.78 0.3784,3.3048 0.96232,4.64536 2.26056,7.2164 1.29824,2.57384 3.508,5.05176 3.508,5.05176 0,0 -2.19,-3.87776 -2.98592,-6.4516 -0.7928,-2.57384 -0.96232,-6.00568 -0.4176,-8.76864 0.5448,-2.76016 1.8204,-7.48456 6.50808,-11.08288 3.52776,-2.70928 6.6548,-3.41768 10.79496,-3.41768 4.14304,0 38.59392,0.008 38.59392,0.008"
       style="fill:#3e4898;fill-opacity:1;fill-rule:nonzero;stroke:none;stroke-width:2.82222" />
    <path
       id="path8080"
       d="M 0,0 C 0,0 -0.363,0.697 -0.208,1.127 -0.052,1.557 0.182,1.761 0.5,1.865 0.819,1.968 1.327,1.839 1.683,1.646 2.039,1.453 2.269,1.157 2.714,1.127 c 0.444,-0.03 0.767,0.015 1.004,0.111 0.237,0.096 0.426,0.215 0.426,0.215 0,0 -0.23,-0.501 -0.545,-0.782 C 3.214,0.326 2.98,0.2 2.55,0.2 2.12,0.2 1.498,0.467 1.327,0.512 1.157,0.556 0.816,0.708 0.467,0.638 0.261,0.596 0.126,0.474 0.078,0.319 0.036,0.183 0,0 0,0"
       style="fill:#e30f13;fill-opacity:1;fill-rule:nonzero;stroke:none"
       transform="matrix(2.8222221,0,0,-2.8222221,152.45315,172.37824)"
       clip-path="url(#clipPath8081)" />
    <path
       id="path8082"
       d="m 169.94483,220.58008 c 0,6.64072 -5.3848,12.02552 -12.02552,12.02552 -6.64064,0 -12.02264,-5.3848 -12.02264,-12.02552 0,-6.64072 5.382,-12.02552 12.02264,-12.02552 6.64072,0 12.02552,5.3848 12.02552,12.02552 z"
       style="fill:none;stroke:#000000;stroke-width:0.375355;stroke-linecap:butt;stroke-linejoin:miter;stroke-miterlimit:4;stroke-dasharray:none;stroke-opacity:1" />
    <path
       id="path8083"
       d="m 154.41995,209.1416 0.5224,1.84008 2.90976,0.98496 2.9492,-1.0668 0.5024,-1.82032 c 0,0 -1.86264,-0.672 -3.5136,-0.5648 -1.65384,0.1048 -3.36976,0.6264 -3.36976,0.6264"
       style="fill:#000000;fill-opacity:1;fill-rule:nonzero;stroke:none;stroke-width:2.82222" />
    <path
       id="path8084"
       d="m 148.24731,213.59816 1.65384,1.10912 0.064,3.22296 -1.96712,2.50896 -2.02912,-0.04 c 0,0 -0.0848,-2.53432 0.336,-3.24552 0.4176,-0.7112 0.7312,-1.82032 1.0668,-2.21544 0.3328,-0.3976 0.87768,-1.34056 0.87768,-1.34056"
       style="fill:#000000;fill-opacity:1;fill-rule:nonzero;stroke:none;stroke-width:2.82222" />
    <path
       id="path8085"
       d="m 167.58099,213.49352 -1.61152,1.1712 -0.1888,3.30768 2.00944,2.4892 2.11384,-0.064 c 0,0 0,-1.59176 -0.2312,-2.59648 -0.2288,-1.00472 -0.858,-2.3424 -1.27568,-3.07624 -0.4176,-0.7312 -0.8156,-1.23328 -0.8156,-1.23328"
       style="fill:#000000;fill-opacity:1;fill-rule:nonzero;stroke:none;stroke-width:2.82222" />
    <path
       id="path8086"
       d="m 157.87227,215.6068 -4.5184,3.41208 1.65104,5.6896 h 5.75448 l 1.69616,-5.62752 z"
       style="fill:#000000;fill-opacity:1;fill-rule:nonzero;stroke:none;stroke-width:2.82222" />
    <path
       id="path8087"
       d="m 148.45643,227.99376 1.58888,-1.33776 2.95208,0.7928 1.82032,2.82504 -0.6912,1.778 c 0,0 -2.15336,-0.7536 -2.80248,-1.33768 -0.6488,-0.5872 -1.94728,-1.59176 -2.34528,-2.0292 -0.3976,-0.44 -0.5224,-0.6912 -0.5224,-0.6912"
       style="fill:#000000;fill-opacity:1;fill-rule:nonzero;stroke:none;stroke-width:2.82222" />
    <path
       id="path8088"
       d="m 167.49755,227.84728 -1.6736,-1.25592 -3.07616,0.858 -1.61152,2.72064 0.5448,1.82032 c 0,0 2.40728,-0.94264 2.8448,-1.23336 0.44,-0.2936 1.778,-1.5296 2.1336,-1.86264 0.3552,-0.336 0.83816,-1.04704 0.83816,-1.04704"
       style="fill:#000000;fill-opacity:1;fill-rule:nonzero;stroke:none;stroke-width:2.82222" />
    <path
       id="path8089"
       d="m 157.74675,210.57472 0.104,1.34904 0.016,3.97648 -3.32456,3.3472 -1.1204,-0.2088 -4.2672,-1.38008 m 7.00752,5.97184 -1.09784,1.00472 -2.45816,3.33864 m 7.0612,-4.56064 0.9624,1.1712 2.9916,3.99624 m -2.82504,-9.01984 1.50704,-0.46 4.0188,-1.318"
       style="fill:none;stroke:#000000;stroke-width:0.375355;stroke-linecap:butt;stroke-linejoin:miter;stroke-miterlimit:4;stroke-dasharray:none;stroke-opacity:1" />
    <path
       id="path8090"
       d="m 177.67491,216.92528 -0.344,-3.096 -0.98216,3.06216 h -0.8156 l -1.00472,-3.02264 -0.336,3.05648 h -1.19944 l 0.7112,-5.00944 h 1.28416 l 0.9736,3.29352 0.95112,-3.29352 h 1.24456 l 0.7224,5.00944 z"
       style="fill:#000000;fill-opacity:1;fill-rule:nonzero;stroke:none;stroke-width:2.82222" />
    <path
       id="path8091"
       d="m 183.12747,214.42112 c 0,-0.8664 -0.5472,-1.43088 -1.24456,-1.43088 -0.7,0 -1.24744,0.5648 -1.24744,1.43088 0,0.8664 0.5472,1.43088 1.24744,1.43088 0.6968,0 1.24456,-0.5648 1.24456,-1.43088 m -3.81,0 c 0,-1.50144 1.08656,-2.60488 2.56544,-2.60488 1.476,0 2.56256,1.10344 2.56256,2.60488 0,1.50144 -1.08656,2.60488 -2.56256,2.60488 -1.47888,0 -2.56544,-1.10344 -2.56544,-2.60488"
       style="fill:#000000;fill-opacity:1;fill-rule:nonzero;stroke:none;stroke-width:2.82222" />
    <path
       id="path8092"
       d="m 189.53587,211.91704 v 5.00944 h -1.30384 v -1.95296 h -1.78088 v 1.95296 h -1.30664 v -5.00944 h 1.30664 v 1.8824 h 1.78088 v -1.8824 z"
       style="fill:#000000;fill-opacity:1;fill-rule:nonzero;stroke:none;stroke-width:2.82222" />
    <path
       id="path8093"
       d="m 193.39899,213.04024 h -1.58608 v 3.88616 h -1.28696 v -5.00944 h 2.87872 z"
       style="fill:#000000;fill-opacity:1;fill-rule:nonzero;stroke:none;stroke-width:2.82222" />
    <path
       id="path8094"
       d="m 197.71131,214.42112 c 0,-0.8664 -0.5472,-1.43088 -1.24456,-1.43088 -0.7,0 -1.24744,0.5648 -1.24744,1.43088 0,0.8664 0.5472,1.43088 1.24744,1.43088 0.6968,0 1.24456,-0.5648 1.24456,-1.43088 m -3.81,0 c 0,-1.50144 1.08656,-2.60488 2.56544,-2.60488 1.476,0 2.56256,1.10344 2.56256,2.60488 0,1.50144 -1.08656,2.60488 -2.56256,2.60488 -1.47888,0 -2.56544,-1.10344 -2.56544,-2.60488"
       style="fill:#000000;fill-opacity:1;fill-rule:nonzero;stroke:none;stroke-width:2.82222" />
    <path
       id="path8095"
       d="m 204.00667,211.91704 v 5.00944 h -1.28408 v -3.88616 h -1.09784 v 0.85224 c -0.056,1.95304 0,3.11576 -1.73008,3.11856 -0.1776,0 -0.3752,-0.032 -0.5952,-0.0848 l 0.072,-1.15992 c 0.056,0.016 0.1184,0.016 0.1776,0.016 0.9652,0.032 0.776,-0.82976 0.7336,-1.89376 l -0.016,-1.95576 z"
       style="fill:#000000;fill-opacity:1;fill-rule:nonzero;stroke:none;stroke-width:2.82222" />
    <path
       id="path8096"
       d="m 209.50595,211.91704 h 1.28416 v 5.00944 h -1.28416 z m -1.82032,3.25408 c 0,-0.4712 -0.2768,-0.6488 -0.7168,-0.6488 h -0.8128 v 1.38848 h 0.8128 c 0.4344,0 0.7168,-0.2656 0.7168,-0.7392 m 1.31232,-0.032 c 0,1.174 -0.7448,1.7836 -1.94448,1.7836 h -2.1816 v -5.00944 h 1.28408 v 1.59456 h 1.06968 c 1.1204,0 1.77232,0.536 1.77232,1.63128"
       style="fill:#000000;fill-opacity:1;fill-rule:nonzero;stroke:none;stroke-width:2.82222" />
    <path
       id="path8097"
       d="m 215.96859,211.91704 v 5.00944 h -1.30672 v -1.95296 h -1.778 v 1.95296 h -1.30664 v -5.00944 h 1.30664 v 1.8824 h 1.778 v -1.8824 z"
       style="fill:#000000;fill-opacity:1;fill-rule:nonzero;stroke:none;stroke-width:2.82222" />
    <path
       id="path8098"
       d="m 174.49531,217.89416 0.82408,1.36032 0.81848,-1.36032 h 1.51552 l -1.51552,2.39608 1.64536,2.61904 h -1.53536 l -0.92848,-1.48168 -0.92288,1.48168 h -1.50424 l 1.64256,-2.55416 -1.53528,-2.46096 z"
       style="fill:#000000;fill-opacity:1;fill-rule:nonzero;stroke:none;stroke-width:2.82222" />
    <path
       id="path8099"
       d="m 181.91507,220.89056 h -2.37912 c 0.1496,0.6096 0.6184,0.98776 1.19096,0.98776 0.576,0 1.03576,-0.3784 1.18816,-0.98776 m -2.3876,-0.87208 h 2.39328 c -0.1496,-0.6152 -0.6184,-1.00184 -1.19384,-1.00184 -0.5784,0 -1.04704,0.3864 -1.19944,1.00184 m 3.7592,0.4288 c 0,1.50144 -1.08088,2.60496 -2.55976,2.60496 -1.48168,0 -2.56256,-1.10352 -2.56256,-2.60496 0,-1.50424 1.08088,-2.60488 2.56256,-2.60488 1.47888,0 2.55976,1.10064 2.55976,2.60488"
       style="fill:#000000;fill-opacity:1;fill-rule:nonzero;stroke:none;stroke-width:2.82222" />
    <path
       id="path8100"
       d="m 191.28659,221.9356 c 0.4344,0 0.672,-0.192 0.672,-0.5504 0,-0.3584 -0.2232,-0.5304 -0.672,-0.5304 h -0.93696 v 1.08088 z m -2.22112,-3.99344 h 3.8552 v 1.09504 h -2.57104 v 0.80992 h 1.19376 c 1.12048,0 1.73288,0.528 1.73288,1.49584 0,1.016 -0.7056,1.60864 -1.90504,1.60864 h -2.30576 z"
       style="fill:#000000;fill-opacity:1;fill-rule:nonzero;stroke:none;stroke-width:2.82222" />
    <path
       id="path8101"
       d="m 197.49515,220.89056 h -2.37912 c 0.152,0.6096 0.6184,0.98776 1.19376,0.98776 0.5728,0 1.03296,-0.3784 1.18536,-0.98776 m -2.3848,-0.87208 h 2.39048 c -0.1496,-0.6152 -0.6184,-1.00184 -1.19104,-1.00184 -0.5816,0 -1.04984,0.3864 -1.19944,1.00184 m 3.7564,0.4288 c 0,1.50144 -1.08088,2.60496 -2.55696,2.60496 -1.48448,0 -2.56536,-1.10352 -2.56536,-2.60496 0,-1.50424 1.08088,-2.60488 2.56536,-2.60488 1.47608,0 2.55696,1.10064 2.55696,2.60488"
       style="fill:#000000;fill-opacity:1;fill-rule:nonzero;stroke:none;stroke-width:2.82222" />
    <path
       id="path8102"
       d="m 207.86515,221.9356 c 0.4344,0 0.672,-0.192 0.672,-0.5504 0,-0.3584 -0.2232,-0.5304 -0.672,-0.5304 h -0.93696 v 1.08088 z m -2.22112,-3.99344 h 3.8552 v 1.09504 h -2.57104 v 0.80992 h 1.19376 c 1.12048,0 1.73288,0.528 1.73288,1.49584 0,1.016 -0.7056,1.60864 -1.90504,1.60864 h -2.30576 z"
       style="fill:#000000;fill-opacity:1;fill-rule:nonzero;stroke:none;stroke-width:2.82222" />
    <path
       id="path8103"
       d="m 214.07395,220.8488 h -2.37912 c 0.152,0.6096 0.6208,0.98776 1.19376,0.98776 0.5728,0 1.03296,-0.3784 1.18536,-0.98776 m -2.3848,-0.87208 h 2.39048 c -0.1496,-0.6152 -0.6184,-1.00184 -1.19104,-1.00184 -0.5816,0 -1.04984,0.3864 -1.19944,1.00184 m 3.7564,0.4288 c 0,1.50144 -1.08088,2.60496 -2.55696,2.60496 -1.48448,0 -2.56536,-1.10352 -2.56536,-2.60496 0,-1.50424 1.08088,-2.60488 2.56536,-2.60488 1.47608,0 2.55696,1.10064 2.55696,2.60488"
       style="fill:#000000;fill-opacity:1;fill-rule:nonzero;stroke:none;stroke-width:2.82222" />
    <path
       id="path8104"
       d="m 219.22739,219.06624 h -1.81752 v 3.88616 h -1.28696 v -5.00944 h 3.11016 z"
       style="fill:#000000;fill-opacity:1;fill-rule:nonzero;stroke:none;stroke-width:2.82222" />
    <path
       id="path8105"
       d="m 219.92595,217.94304 h 1.28696 v 2.94072 l 1.90496,-2.94072 h 1.22488 v 5.00944 h -1.28696 v -2.93512 l -1.89656,2.93512 h -1.23328 z"
       style="fill:#000000;fill-opacity:1;fill-rule:nonzero;stroke:none;stroke-width:2.82222" />
    <path
       id="path8106"
       d="m 226.18299,216.47632 h 0.87768 c 0.006,0.3304 0.144,0.4936 0.4744,0.4936 0.3304,0 0.48,-0.164 0.488,-0.4936 h 0.87488 c 0,0.7504 -0.4064,1.1656 -1.36312,1.1656 -0.95672,0 -1.35184,-0.4152 -1.35184,-1.1656 m -0.84952,1.46752 h 1.28416 v 2.9408 l 1.90496,-2.9408 h 1.22768 v 5.00664 h -1.28696 v -2.93224 l -1.89936,2.93224 h -1.23048 z"
       style="fill:#000000;fill-opacity:1;fill-rule:nonzero;stroke:none;stroke-width:2.82222" />
    <path
       id="path8107"
       d="m 0,0 v -1.775 h -0.462 v 0.692 H -1.093 V -1.775 H -1.556 V 0 h 0.463 v -0.667 h 0.631 V 0 Z"
       style="fill:#000000;fill-opacity:1;fill-rule:nonzero;stroke:none"
       transform="matrix(2.8222221,0,0,-2.8222221,235.12955,217.94304)"
       clip-path="url(#clipPath8108)" />
    <path
       id="path8109"
       d="m 174.51603,224.08752 0.82408,1.36032 0.8156,-1.36032 h 1.5184 l -1.5184,2.39608 1.64824,2.61904 h -1.53536 l -0.92848,-1.48168 -0.92288,1.48168 h -1.50424 l 1.64256,-2.55416 -1.53528,-2.46096 z"
       style="fill:#000000;fill-opacity:1;fill-rule:nonzero;stroke:none;stroke-width:2.82222" />
    <path
       id="path8110"
       d="m 181.86315,226.59904 c 0,-0.8664 -0.5472,-1.43088 -1.24456,-1.43088 -0.7,0 -1.24744,0.5648 -1.24744,1.43088 0,0.8664 0.5472,1.43088 1.24744,1.43088 0.6968,0 1.24456,-0.5648 1.24456,-1.43088 m -3.81,0 c 0,-1.50144 1.08656,-2.60488 2.56544,-2.60488 1.476,0 2.56256,1.10344 2.56256,2.60488 0,1.50144 -1.08656,2.60488 -2.56256,2.60488 -1.47888,0 -2.56544,-1.10344 -2.56544,-2.60488"
       style="fill:#000000;fill-opacity:1;fill-rule:nonzero;stroke:none;stroke-width:2.82222" />
    <path
       id="path8111"
       d="m 191.41211,228.06632 c 0.4344,0 0.672,-0.192 0.672,-0.5504 0,-0.3584 -0.2232,-0.5304 -0.672,-0.5304 h -0.93696 v 1.08088 z m -2.22112,-3.99344 h 3.8552 v 1.09504 h -2.57104 v 0.80992 h 1.19376 c 1.12048,0 1.73288,0.528 1.73288,1.49584 0,1.01312 -0.7056,1.60864 -1.90504,1.60864 h -2.30576 z"
       style="fill:#000000;fill-opacity:1;fill-rule:nonzero;stroke:none;stroke-width:2.82222" />
    <path
       id="path8112"
       d="m 197.71531,226.57816 c 0,-0.8664 -0.5472,-1.43088 -1.24456,-1.43088 -0.7,0 -1.24744,0.5648 -1.24744,1.43088 0,0.8664 0.5472,1.43088 1.24744,1.43088 0.6968,0 1.24456,-0.5648 1.24456,-1.43088 m -3.81,0 c 0,-1.50144 1.08656,-2.60488 2.56544,-2.60488 1.476,0 2.56256,1.10344 2.56256,2.60488 0,1.50144 -1.08656,2.60488 -2.56256,2.60488 -1.47888,0 -2.56544,-1.10344 -2.56544,-2.60488"
       style="fill:#000000;fill-opacity:1;fill-rule:nonzero;stroke:none;stroke-width:2.82222" />
    <path
       id="path8113"
       d="m 203.24747,226.57816 c 0,-0.8664 -0.5472,-1.43088 -1.24456,-1.43088 -0.7,0 -1.24744,0.5648 -1.24744,1.43088 0,0.8664 0.5472,1.43088 1.24744,1.43088 0.6968,0 1.24456,-0.5648 1.24456,-1.43088 m -3.81,0 c 0,-1.50144 1.08656,-2.60488 2.56544,-2.60488 1.476,0 2.56256,1.10344 2.56256,2.60488 0,1.50144 -1.08656,2.60488 -2.56256,2.60488 -1.47888,0 -2.56544,-1.10344 -2.56544,-2.60488"
       style="fill:#000000;fill-opacity:1;fill-rule:nonzero;stroke:none;stroke-width:2.82222" />
    <path
       id="path8114"
       d="m 204.01115,222.9448 -0.344,-3.096 -0.98216,3.06216 h -0.8156 l -1.00472,-3.02264 -0.336,3.05648 h -1.19944 l 0.7112,-5.00944 h 1.28416 l 0.9708,3.29352 0.95392,-3.29352 h 1.24456 l 0.7224,5.00944 z"
       style="fill:#000000;fill-opacity:1;fill-rule:nonzero;stroke:none;stroke-width:2.82222" />
    <path
       id="path8115"
       d="m 188.43099,217.97712 v 5.00664 h -1.28408 v -3.88336 h -1.09784 v 0.85224 c -0.056,1.95304 0,3.11576 -1.73008,3.11856 -0.1808,0 -0.3784,-0.032 -0.5952,-0.0872 l 0.072,-1.15712 c 0.056,0.016 0.1184,0.016 0.1776,0.016 0.9652,0.032 0.776,-0.82976 0.7336,-1.89376 l -0.016,-1.95576 z"
       style="fill:#000000;fill-opacity:1;fill-rule:nonzero;stroke:none;stroke-width:2.82222" />
    <path
       id="path8116"
       d="m 188.36835,224.04496 v 5.00944 h -1.28408 v -3.88616 h -1.09784 v 0.85224 c -0.056,1.95304 0,3.11576 -1.73008,3.11856 -0.1808,0 -0.3784,-0.032 -0.5952,-0.0848 l 0.072,-1.15992 c 0.056,0.016 0.1184,0.016 0.1776,0.016 0.9652,0.032 0.776,-0.82976 0.7336,-1.89376 l -0.016,-1.95576 z"
       style="fill:#000000;fill-opacity:1;fill-rule:nonzero;stroke:none;stroke-width:2.82222" />
  </g>
</svg>
