<?xml version="1.0" encoding="UTF-8" standalone="no"?>
<!-- Generator: Adobe Illustrator 13.0.0, SVG Export Plug-In . SVG Version: 6.00 Build 14948)  -->
<svg
   xmlns:dc="http://purl.org/dc/elements/1.1/"
   xmlns:cc="http://creativecommons.org/ns#"
   xmlns:rdf="http://www.w3.org/1999/02/22-rdf-syntax-ns#"
   xmlns:svg="http://www.w3.org/2000/svg"
   xmlns="http://www.w3.org/2000/svg"
   xmlns:sodipodi="http://sodipodi.sourceforge.net/DTD/sodipodi-0.dtd"
   xmlns:inkscape="http://www.inkscape.org/namespaces/inkscape"
   version="1.1"
   x="0px"
   y="0px"
   width="316"
   height="316"
   viewBox="0 0 531.325 531.326"
   enable-background="new 0 0 531.325 531.326"
   xml:space="preserve"
   id="svg2"
   sodipodi:version="0.32"
   inkscape:version="0.46"
   sodipodi:docname="Mozambique_Football_Federation [Converted].svg"
   inkscape:output_extension="org.inkscape.output.svg.inkscape"><metadata
   id="metadata347"><rdf:RDF><cc:Work
       rdf:about=""><dc:format>image/svg+xml</dc:format><dc:type
         rdf:resource="http://purl.org/dc/dcmitype/StillImage" /></cc:Work></rdf:RDF></metadata><defs
   id="defs345"><inkscape:perspective
     sodipodi:type="inkscape:persp3d"
     inkscape:vp_x="0 : 265.66299 : 1"
     inkscape:vp_y="0 : 1000 : 0"
     inkscape:vp_z="531.32501 : 265.66299 : 1"
     inkscape:persp3d-origin="265.66251 : 177.10866 : 1"
     id="perspective349" /></defs><sodipodi:namedview
   inkscape:window-height="750"
   inkscape:window-width="1280"
   inkscape:pageshadow="2"
   inkscape:pageopacity="0.0"
   guidetolerance="10.0"
   gridtolerance="10.0"
   objecttolerance="10.0"
   borderopacity="1.0"
   bordercolor="#666666"
   pagecolor="#ffffff"
   id="base"
   showgrid="false"
   inkscape:zoom="0.86952268"
   inkscape:cx="265.66251"
   inkscape:cy="265.66299"
   inkscape:window-x="-8"
   inkscape:window-y="-8"
   inkscape:current-layer="svg2" />

<g
   id="fondo_naranja">
	<path
   fill="#F1A72E"
   stroke="#000000"
   stroke-width="3"
   d="M482.162,295.163c0,119.569-96.931,216.5-216.499,216.5   c-119.569,0-216.5-96.931-216.5-216.5s96.931-275.5,216.5-275.5C385.231,19.663,482.162,175.594,482.162,295.163z"
   id="path8" />
</g>
<g
   id="fondo_negro">
	<path
   d="M354.597,105.326c-5.879-44.09-44.024-78.121-90.21-78.121c-46.639,0-85.077,34.703-90.371,79.423   c-69.313,33.938-117.05,105.158-117.05,187.535c0,115.257,93.439,208.696,208.696,208.696   c115.258,0,208.697-93.439,208.697-208.696C474.359,210.716,425.374,138.719,354.597,105.326z"
   id="path11" />
</g>
<g
   id="tipografia">
	<g
   id="g14">
		<path
   fill="#F1A72E"
   d="M131.013,213.699l-6.825,12.438l-5.699-3.127l2.796-5.096l-5.424-2.977l-2.496,4.548l-5.424-2.976    l2.495-4.548l-11.945-6.554l4.028-7.342L131.013,213.699z"
   id="path16" />
		<path
   fill="#F1A72E"
   d="M122.648,229.5l-5.283,12.965l-6.02-2.453l2.123-5.209l-5.73-2.335l-1.981,4.862l-5.73-2.335l1.981-4.862    l-6.599-2.688l-2.311,5.672l-6.02-2.453l5.472-13.428L122.648,229.5z"
   id="path18" />
		<path
   fill="#F1A72E"
   d="M115.837,246.572l-1.574,6.08c-1.016,3.923-1.885,6.53-2.606,7.819s-1.589,2.187-2.605,2.692    c-1.016,0.506-2.055,0.717-3.119,0.634c-1.064-0.084-3.086-0.511-6.064-1.282l-11.02-2.854c-2.825-0.731-4.679-1.353-5.562-1.863    c-0.885-0.511-1.511-1.163-1.878-1.958c-0.368-0.795-0.533-1.704-0.497-2.724c0.036-1.021,0.306-2.502,0.809-4.445l2.654-10.248    L115.837,246.572z M108.353,253.285l-20.692-5.358c-0.307,1.187-0.26,1.978,0.142,2.375c0.401,0.396,1.652,0.866,3.75,1.41    l12.221,3.165c1.425,0.369,2.35,0.559,2.775,0.572c0.425,0.012,0.773-0.121,1.046-0.397    C107.866,254.773,108.12,254.186,108.353,253.285z"
   id="path20" />
		<path
   fill="#F1A72E"
   d="M110.324,269.876l-1.686,13.898l-6.453-0.782l0.677-5.584l-6.142-0.745l-0.632,5.212l-6.143-0.745    l0.632-5.212l-7.073-0.858l-0.738,6.08l-6.453-0.782l1.746-14.395L110.324,269.876z"
   id="path22" />
		<path
   fill="#F1A72E"
   d="M108.26,288.204l0.048,5.944c0.032,3.963-0.1,6.646-0.397,8.052c-0.297,1.404-1.075,2.555-2.334,3.449    c-1.261,0.896-3.277,1.354-6.053,1.377c-2.533,0.021-4.239-0.278-5.115-0.895c-0.876-0.618-1.41-1.843-1.599-3.674    c-0.4,1.663-0.946,2.784-1.637,3.361c-0.69,0.575-1.325,0.937-1.905,1.081c-0.58,0.144-2.179,0.228-4.798,0.249l-8.557,0.069    l-0.064-7.813l10.778-0.088c1.736-0.014,2.81-0.159,3.222-0.437c0.412-0.276,0.613-0.996,0.604-2.157l-14.625,0.119l-0.068-8.374    L108.26,288.204z M102.766,296.625l-7.25,0.059c0.008,0.947,0.144,1.61,0.409,1.989c0.265,0.378,1.115,0.561,2.553,0.549    l1.792-0.014c1.033-0.009,1.71-0.198,2.029-0.567C102.618,298.271,102.773,297.6,102.766,296.625z"
   id="path24" />
		<path
   fill="#F1A72E"
   d="M110.948,325.78l-31.432,9.571l-1.262-8.453l5.682-1.309l-0.451-3.024l-5.816,0.407l-1.285-8.607    l32.778-0.547L110.948,325.78z M89.587,324.496c3.618-0.933,8.083-2.031,13.394-3.294c-6.306,0.122-10.913,0.271-13.818,0.45    L89.587,324.496z"
   id="path26" />
		<path
   fill="#F1A72E"
   d="M83.609,352.734l-0.359,0.107c0.203,0.674,0.16,1.359-0.129,2.059c-0.288,0.698-0.825,1.166-1.611,1.402    c-0.979,0.294-1.943,0.158-2.893-0.406c-0.949-0.565-1.587-1.389-1.913-2.471c-0.591-1.964,0.05-3.522,1.922-4.675l0.846,2.813    c-0.466,0.33-0.632,0.719-0.498,1.168c0.112,0.373,0.291,0.621,0.535,0.744c0.245,0.123,0.557,0.129,0.937,0.015    c0.419-0.126,0.694-0.349,0.826-0.666c0.133-0.318,0.12-0.738-0.038-1.261l-0.146-0.485l1.916-0.576    c-0.454-2.255-0.371-4.144,0.254-5.666c0.625-1.524,1.598-2.677,2.92-3.459c1.322-0.782,3.328-1.577,6.018-2.387l9.089-2.734    c2.241-0.674,3.946-1.104,5.113-1.288c1.167-0.184,2.383-0.053,3.649,0.395c1.265,0.446,2.398,1.253,3.398,2.419    s1.764,2.623,2.29,4.37c0.713,2.371,0.842,4.467,0.386,6.287c-0.456,1.819-1.299,3.179-2.527,4.076s-3.292,1.783-6.191,2.656    l-2.953,0.888l-2.413-8.02l5.397-1.624c1.569-0.472,2.521-0.855,2.858-1.148c0.336-0.293,0.414-0.739,0.233-1.339    c-0.204-0.678-0.571-1.036-1.1-1.076c-0.53-0.04-1.583,0.177-3.159,0.651l-14.463,4.352c-1.513,0.455-2.473,0.842-2.879,1.164    c-0.407,0.321-0.514,0.802-0.321,1.44c0.184,0.612,0.537,0.943,1.059,0.993c0.521,0.049,1.642-0.185,3.358-0.701l3.931-1.182    l2.413,8.02l-1.213,0.365c-2.99,0.899-5.19,1.366-6.599,1.401c-1.41,0.036-2.875-0.484-4.395-1.56    C85.636,356.72,84.455,355.032,83.609,352.734z"
   id="path28" />
		<path
   fill="#F1A72E"
   d="M125.69,369.009l-27.408,18.12l-3.615-7.744l5.074-2.872l-1.293-2.771l-5.459,2.046l-3.681-7.886    l31.267-9.853L125.69,369.009z M104.847,373.857c3.203-1.924,7.17-4.248,11.903-6.97c-6.011,1.911-10.384,3.365-13.119,4.363    L104.847,373.857z M131.117,369.183c-1.492,0.02-2.671-0.262-3.537-0.843c-0.866-0.582-1.442-1.181-1.729-1.797    c-0.401-0.858-0.634-1.874-0.699-3.051l-0.102-1.585c-0.052-1.021-0.176-1.742-0.374-2.166c-0.417-0.894-1.366-1.349-2.844-1.364    l0.562-3.745c2.979,0.227,4.859,1.174,5.637,2.841c0.406,0.869,0.654,1.908,0.745,3.116l0.106,1.319    c0.087,1.105,0.21,1.828,0.368,2.167c0.468,1.001,1.325,1.41,2.573,1.226L131.117,369.183z"
   id="path30" />
		<path
   fill="#F1A72E"
   d="M123.731,402.211c-2.732,1.79-4.709,2.993-5.929,3.61c-1.221,0.616-2.522,0.896-3.903,0.838    c-1.382-0.057-2.7-0.493-3.955-1.309c-1.254-0.816-2.381-1.987-3.38-3.512c-0.948-1.447-1.561-2.902-1.839-4.365    c-0.279-1.464-0.173-2.858,0.32-4.183c0.492-1.324,1.255-2.421,2.288-3.287c1.032-0.868,2.948-2.218,5.748-4.052l4.653-3.048    c2.731-1.79,4.708-2.993,5.929-3.61c1.22-0.617,2.521-0.896,3.903-0.839c1.381,0.057,2.699,0.493,3.954,1.31    c1.255,0.815,2.382,1.986,3.381,3.511c0.948,1.447,1.561,2.903,1.84,4.366c0.278,1.464,0.171,2.857-0.321,4.183    c-0.493,1.324-1.255,2.42-2.287,3.287c-1.033,0.867-2.948,2.218-5.747,4.052L123.731,402.211z M128.079,389.351    c1.265-0.828,2.028-1.43,2.288-1.803c0.26-0.374,0.245-0.781-0.045-1.224c-0.246-0.375-0.577-0.568-0.992-0.579    c-0.417-0.013-1.324,0.44-2.724,1.357l-12.7,8.32c-1.58,1.035-2.511,1.739-2.795,2.111c-0.284,0.373-0.27,0.797,0.043,1.273    c0.32,0.489,0.737,0.662,1.251,0.52c0.515-0.144,1.573-0.739,3.175-1.788L128.079,389.351z"
   id="path32" />
		<path
   fill="#F1A72E"
   d="M166.815,420.419l-22.467,23.484l-5.284-5.056l15.145-15.876l-17.268,13.846l-3.794-3.629L145.78,415.6    l-14.845,15.472l-5.284-5.055l22.466-23.484l7.847,7.507c-1.148,1.604-2.499,3.493-4.056,5.669l-4.866,6.798l11.879-9.637    L166.815,420.419z"
   id="path34" />
		<path
   fill="#F1A72E"
   d="M175.583,449.424c-1.831,2.705-3.191,4.577-4.078,5.617c-0.889,1.04-1.982,1.799-3.278,2.278    c-1.297,0.481-2.682,0.586-4.154,0.317c-1.472-0.27-2.963-0.914-4.473-1.936c-1.433-0.97-2.56-2.076-3.381-3.319    c-0.822-1.242-1.261-2.57-1.317-3.981c-0.057-1.412,0.224-2.718,0.843-3.915c0.618-1.199,1.865-3.184,3.741-5.955l3.118-4.607    c1.83-2.704,3.189-4.576,4.078-5.616c0.888-1.04,1.98-1.799,3.277-2.28c1.296-0.479,2.681-0.585,4.153-0.315    c1.473,0.269,2.964,0.913,4.474,1.936c1.432,0.969,2.559,2.076,3.381,3.318c0.821,1.243,1.26,2.57,1.316,3.982    c0.057,1.412-0.224,2.717-0.842,3.916c-0.619,1.198-1.865,3.183-3.741,5.954L175.583,449.424z M174.635,435.882    c0.848-1.253,1.32-2.102,1.416-2.546c0.096-0.445-0.075-0.815-0.513-1.111c-0.371-0.252-0.75-0.302-1.139-0.152    c-0.389,0.149-1.051,0.917-1.989,2.304L163.9,446.95c-1.059,1.563-1.646,2.572-1.765,3.025c-0.118,0.453,0.059,0.839,0.531,1.159    c0.484,0.327,0.935,0.326,1.355-0.004c0.419-0.331,1.167-1.288,2.24-2.875L174.635,435.882z"
   id="path36" />
		<path
   fill="#F1A72E"
   d="M185.175,470.189l-0.161,0.339c0.635,0.302,1.115,0.794,1.438,1.478c0.324,0.683,0.31,1.395-0.043,2.137    c-0.439,0.922-1.188,1.545-2.244,1.87c-1.056,0.323-2.095,0.243-3.115-0.242c-1.852-0.882-2.576-2.403-2.172-4.564l2.652,1.263    c-0.068,0.566,0.108,0.951,0.531,1.152c0.352,0.167,0.655,0.202,0.911,0.104c0.256-0.099,0.469-0.326,0.64-0.684    c0.188-0.396,0.208-0.748,0.062-1.06c-0.147-0.312-0.467-0.584-0.96-0.818l-0.458-0.218l0.859-1.807    c-1.975-1.178-3.318-2.508-4.026-3.994c-0.709-1.486-0.91-2.98-0.601-4.486c0.309-1.505,1.067-3.525,2.274-6.062l4.079-8.569    c1.006-2.114,1.832-3.665,2.48-4.654c0.647-0.987,1.561-1.8,2.743-2.438c1.18-0.638,2.539-0.935,4.075-0.893    c1.535,0.042,3.127,0.455,4.774,1.239c2.236,1.064,3.875,2.376,4.917,3.937s1.482,3.097,1.323,4.609s-0.89,3.637-2.191,6.371    l-1.325,2.784l-7.562-3.6l2.422-5.089c0.704-1.479,1.06-2.442,1.068-2.888c0.009-0.446-0.27-0.804-0.835-1.073    c-0.639-0.304-1.151-0.273-1.536,0.092c-0.386,0.366-0.932,1.292-1.639,2.778l-6.491,13.638c-0.679,1.427-1.037,2.397-1.071,2.915    c-0.036,0.518,0.248,0.919,0.851,1.206c0.578,0.274,1.06,0.236,1.446-0.117c0.387-0.354,0.967-1.34,1.737-2.959l1.764-3.706    l7.562,3.6l-0.544,1.144c-1.342,2.819-2.474,4.763-3.394,5.83c-0.921,1.068-2.29,1.805-4.107,2.208    C189.49,471.364,187.446,471.106,185.175,470.189z"
   id="path38" />
		<path
   fill="#F1A72E"
   d="M225.48,449.888l-4.892,32.49l-8.173-2.5l1.265-5.691l-2.924-0.895l-2.136,5.425l-8.322-2.546    l13.617-29.821L225.48,449.888z M215.126,468.615c0.715-3.667,1.646-8.17,2.792-13.507c-2.605,5.744-4.453,9.966-5.542,12.666    L215.126,468.615z"
   id="path40" />
		<path
   fill="#F1A72E"
   d="M258.12,455.351l-4.198,32.229l-7.251-0.945l2.804-21.762l-5.716,21.383l-5.206-0.679l-0.236-21.653    l-2.801,21.258l-7.251-0.944l4.198-32.228l10.769,1.402c0.024,1.972,0.055,4.295,0.088,6.97l0.105,8.359l3.866-14.8    L258.12,455.351z"
   id="path42" />
		<path
   fill="#F1A72E"
   d="M262.394,455.249l8.394-0.332c2.65-0.105,4.667,0.023,6.049,0.384c1.383,0.361,2.519,1.157,3.408,2.389    s1.39,3.253,1.501,6.063c0.075,1.9-0.169,3.237-0.731,4.01c-0.563,0.773-1.708,1.396-3.435,1.865    c1.945,0.365,3.283,1.045,4.011,2.039c0.728,0.996,1.133,2.548,1.217,4.66l0.119,3.006c0.087,2.192-0.099,3.824-0.556,4.9    c-0.457,1.075-1.223,1.829-2.297,2.26c-1.076,0.431-3.302,0.712-6.679,0.846l-9.714,0.385L262.394,455.249z M270.983,460.476    l0.287,7.245c0.365-0.028,0.649-0.047,0.854-0.055c0.841-0.033,1.369-0.259,1.584-0.678c0.214-0.418,0.283-1.593,0.207-3.524    c-0.04-1.019-0.164-1.729-0.37-2.132c-0.206-0.401-0.464-0.65-0.774-0.745C272.462,460.491,271.865,460.455,270.983,460.476z     M271.471,472.779l0.358,9.055c1.207-0.087,1.97-0.304,2.289-0.65s0.454-1.173,0.402-2.479l-0.12-3.02    c-0.055-1.386-0.237-2.219-0.548-2.501C273.543,472.904,272.748,472.769,271.471,472.779z"
   id="path44" />
		<path
   fill="#F1A72E"
   d="M294.694,452.359l5.143,32.091l-8.27,1.325l-5.143-32.091L294.694,452.359z"
   id="path46" />
		<path
   fill="#F1A72E"
   d="M322.374,459.755l-8.05,2.313l-1.557-5.417c-0.452-1.575-0.824-2.532-1.112-2.871    c-0.289-0.34-0.734-0.424-1.336-0.251c-0.681,0.196-1.044,0.559-1.09,1.087c-0.047,0.529,0.157,1.585,0.612,3.167l4.172,14.516    c0.437,1.519,0.812,2.482,1.129,2.894c0.316,0.411,0.795,0.523,1.436,0.34c0.615-0.177,0.951-0.525,1.007-1.047    c0.055-0.521-0.164-1.644-0.659-3.367l-1.134-3.944l8.049-2.313l0.352,1.221c0.932,3.243,1.365,5.608,1.301,7.095    c-0.064,1.487-0.728,2.964-1.99,4.432c-1.262,1.467-3.031,2.528-5.31,3.183c-2.368,0.681-4.444,0.811-6.227,0.391    c-1.783-0.42-3.145-1.321-4.081-2.702c-0.938-1.381-1.846-3.604-2.726-6.666l-2.624-9.128c-0.646-2.251-1.056-3.961-1.226-5.132    s-0.024-2.386,0.438-3.646c0.461-1.261,1.281-2.385,2.46-3.372c1.178-0.985,2.645-1.73,4.397-2.234    c2.38-0.685,4.478-0.787,6.291-0.309c1.814,0.479,3.163,1.337,4.045,2.576c0.883,1.239,1.743,3.313,2.58,6.225L322.374,459.755z"
   id="path48" />
		<path
   fill="#F1A72E"
   d="M335.527,438.644l17.862,27.577l-7.778,3.542l-2.823-5.102l-2.783,1.268l1.995,5.479l-7.921,3.606    l-9.558-31.358L335.527,438.644z M340.18,459.531c-1.894-3.221-4.18-7.21-6.856-11.968c1.854,6.028,3.267,10.415,4.239,13.159    L340.18,459.531z"
   id="path50" />
		<path
   fill="#F1A72E"
   d="M358.024,425.108l17.595,27.325l-6.2,3.992l-11.678-10.053l7.999,12.422l-5.886,3.789l-17.595-27.325    l5.938-3.823l11.863,9.766l-7.923-12.304L358.024,425.108z"
   id="path52" />
		<path
   fill="#F1A72E"
   d="M372.604,412.807l24.961,21.365l-6.451,5.606l-4.156-4.089l-2.309,2.006l3.47,4.686l-6.569,5.709    l-18.074-27.351L372.604,412.807z M382.999,431.512c-2.731-2.55-6.057-5.726-9.976-9.526c3.491,5.253,6.092,9.058,7.805,11.412    L382.999,431.512z"
   id="path54" />
		<path
   fill="#F1A72E"
   d="M384.576,400.609l3.81-4.993c2.459-3.222,4.271-5.287,5.436-6.195s2.313-1.399,3.445-1.472    c1.132-0.071,2.172,0.137,3.12,0.626c0.948,0.49,2.646,1.668,5.093,3.534l9.049,6.905c2.32,1.771,3.787,3.063,4.404,3.875    c0.617,0.814,0.94,1.658,0.971,2.533c0.03,0.876-0.17,1.777-0.599,2.703c-0.429,0.927-1.253,2.188-2.47,3.783l-6.422,8.415    L384.576,400.609z M394.078,397.325l16.993,12.967c0.743-0.974,1.007-1.722,0.79-2.243c-0.216-0.521-1.186-1.439-2.909-2.755    l-10.036-7.657c-1.17-0.894-1.949-1.428-2.336-1.604c-0.387-0.176-0.76-0.189-1.118-0.04    C395.104,396.143,394.643,396.587,394.078,397.325z"
   id="path56" />
		<path
   fill="#F1A72E"
   d="M398.7,381.272l6.944-12.155l5.645,3.225l-2.791,4.884l5.373,3.069l2.604-4.559l5.372,3.069l-2.604,4.559    l6.187,3.534l3.039-5.318l5.644,3.225l-7.193,12.59L398.7,381.272z"
   id="path58" />
		<path
   fill="#F1A72E"
   d="M411.495,356.258l4.786-13.356l6.118,2.193l-1.96,5.472l5.824,2.087l1.75-4.883l5.825,2.087l-1.75,4.884    l12.826,4.597l-2.826,7.884L411.495,356.258z"
   id="path60" />
		<path
   fill="#F1A72E"
   d="M421.392,320.924l21.23,4.602c2.407,0.522,4.082,0.967,5.022,1.334s1.841,1.045,2.702,2.033    c0.86,0.988,1.421,2.167,1.679,3.533c0.257,1.368,0.202,2.902-0.166,4.603c-0.408,1.882-1.082,3.476-2.022,4.781    c-0.94,1.305-1.991,2.205-3.153,2.7c-1.162,0.496-2.315,0.688-3.462,0.575s-3.512-0.558-7.097-1.334l-18.798-4.074l1.774-8.186    l23.821,5.163c1.387,0.301,2.29,0.418,2.708,0.351c0.419-0.067,0.678-0.33,0.777-0.79c0.113-0.525-0.024-0.91-0.418-1.152    c-0.392-0.243-1.38-0.536-2.963-0.88l-23.409-5.073L421.392,320.924z"
   id="path62" />
		<path
   fill="#F1A72E"
   d="M423.22,299.513l6.48,0.497l-0.383,4.985l25.924,1.99l-0.641,8.351l-25.924-1.99l-0.378,4.923    l-6.481-0.497L423.22,299.513z"
   id="path64" />
		<path
   fill="#F1A72E"
   d="M423.136,296.043l-0.591-13.987l6.494-0.273l0.237,5.619l6.183-0.261l-0.222-5.245l6.182-0.261    l0.222,5.245l7.118-0.301l-0.258-6.119l6.494-0.274l0.611,14.487L423.136,296.043z"
   id="path66" />
		<path
   fill="#F1A72E"
   d="M422.23,277.665l-1.452-8.274c-0.458-2.612-0.601-4.628-0.428-6.046s0.81-2.65,1.911-3.696    c1.102-1.046,3.038-1.813,5.809-2.298c1.873-0.329,3.23-0.266,4.072,0.188c0.841,0.454,1.61,1.506,2.308,3.154    c0.101-1.977,0.596-3.393,1.484-4.247s2.373-1.464,4.455-1.829l2.963-0.52c2.16-0.379,3.804-0.414,4.931-0.104    c1.127,0.309,1.976,0.967,2.546,1.974c0.571,1.008,1.147,3.177,1.732,6.506l1.68,9.575L422.23,277.665z M426.262,268.454    l7.141-1.253c-0.076-0.358-0.133-0.638-0.168-0.84c-0.146-0.829-0.439-1.322-0.883-1.479c-0.443-0.156-1.616-0.068-3.521,0.266    c-1.005,0.176-1.692,0.394-2.063,0.651c-0.37,0.258-0.582,0.547-0.635,0.867C426.079,266.986,426.123,267.582,426.262,268.454z     M438.389,266.326l8.927-1.566c-0.248-1.184-0.564-1.911-0.951-2.181c-0.387-0.271-1.224-0.293-2.511-0.067l-2.976,0.522    c-1.366,0.24-2.167,0.532-2.405,0.877C438.236,264.256,438.208,265.061,438.389,266.326z"
   id="path68" />
		<path
   fill="#F1A72E"
   d="M429.757,230.117c3.099-1.035,5.316-1.694,6.653-1.98c1.338-0.286,2.667-0.224,3.988,0.183    c1.321,0.407,2.485,1.165,3.49,2.274s1.797,2.528,2.374,4.256c0.549,1.642,0.771,3.205,0.667,4.691    c-0.103,1.486-0.561,2.808-1.374,3.963c-0.814,1.155-1.83,2.021-3.05,2.596c-1.22,0.576-3.416,1.394-6.591,2.454l-5.275,1.763    c-3.098,1.035-5.315,1.695-6.653,1.98c-1.337,0.286-2.666,0.225-3.987-0.182c-1.321-0.407-2.485-1.166-3.49-2.274    c-1.006-1.108-1.798-2.527-2.376-4.257c-0.548-1.64-0.77-3.204-0.666-4.69s0.562-2.807,1.376-3.962    c0.813-1.155,1.83-2.021,3.049-2.597c1.22-0.575,3.416-1.394,6.59-2.454L429.757,230.117z M422.277,241.445    c-1.435,0.479-2.326,0.866-2.672,1.161c-0.347,0.295-0.437,0.692-0.269,1.194c0.142,0.425,0.413,0.696,0.813,0.813    c0.399,0.118,1.392-0.089,2.979-0.62l14.4-4.81c1.791-0.599,2.871-1.042,3.24-1.33s0.464-0.702,0.283-1.243    c-0.185-0.554-0.544-0.827-1.078-0.821c-0.534,0.007-1.709,0.313-3.525,0.92L422.277,241.445z"
   id="path70" />
		<path
   fill="#F1A72E"
   d="M406.118,224.467l23.402-11.328l-2.205-4.557l5.851-2.832l5.854,12.095l-29.254,14.16L406.118,224.467z"
   id="path72" />
	</g>
</g>
<g
   id="detalle">
	<path
   fill="#F1A72E"
   d="M123.889,195.247l-14.237-7.89c0,0,7.273-7.171,15.109-13.488c7.836-6.315,17.588-11.933,17.588-11.933   s-4.985,7.897-9.812,16.604C127.712,187.249,123.889,195.247,123.889,195.247z"
   id="path75" />
	<path
   fill="#F1A72E"
   d="M404.392,195.386l14.245-7.875c0,0-7.268-7.179-15.097-13.504c-7.83-6.323-17.577-11.95-17.577-11.95   s4.979,7.902,9.797,16.614C400.576,187.384,404.392,195.386,404.392,195.386z"
   id="path77" />
</g>
<g
   id="pelota">
	<path
   fill="#F1A72E"
   d="M412.022,294.158c0,83.836-65.005,151.805-145.192,151.805s-145.192-67.969-145.192-151.805   c0-83.844,65.004-151.813,145.192-151.813S412.022,210.314,412.022,294.158z"
   id="path80" />
	<g
   id="g82">
		<path
   fill="none"
   d="M237.313,201.371c41.641,8.152,71.145,22.107,81.484,27.488c9.316-13.537,16.492-25.846,21.563-35.346    c-8.547-5.141-31.441-17.766-63.368-26.475c-37.501-10.217-63.163-8.422-67.057-8.061c-18.863,8.713-35.563,21.609-49.033,37.57    C173.831,195.26,200.688,194.203,237.313,201.371z"
   id="path84" />
		<path
   fill="none"
   d="M344.083,186.322c3.144-6.262,4.984-10.467,5.538-11.77c-23.285-17.672-51.885-28.129-82.791-28.129    c-11.946,0-23.543,1.572-34.631,4.504c11.903,0.855,27.806,3.055,46.76,8.221C311.836,168.111,335.004,180.836,344.083,186.322z"
   id="path86" />
		<path
   fill="none"
   d="M269.264,296.111c0.67,7.195,4.238,32.127,22.67,63.859c1.947,3.35,3.947,6.52,5.961,9.602    c4.278-3.252,27.484-21.656,55.143-58.799c25.662-34.471,40.008-64.715,44.066-73.795c-9.059-22.475-23.293-42.121-41.126-57.332    c-3.425,7.785-15.847,34.285-38.89,65.234C294.219,275.592,275.122,291.549,269.264,296.111z"
   id="path88" />
		<path
   fill="none"
   d="M302.412,376.225c19.452,27.551,39.348,42.611,39.583,42.787l-0.178,0.266    c39.787-26.164,66.305-72.451,66.305-125.119c0-16.283-2.57-31.939-7.243-46.596c-6.533,13.59-20.105,39.234-41.686,68.225    C330.611,354.16,307.119,372.693,302.412,376.225z"
   id="path90" />
		<path
   fill="none"
   d="M194.294,267.662c37.166,6.156,63.074,18.057,70.492,21.746c5.643-4.449,24.265-20.158,46.146-49.539    c1.082-1.455,2.105-2.885,3.139-4.318c-10.912-5.523-39.354-18.555-78.194-26.16c-49.785-9.744-81.815-3.732-82.133-3.67    l-0.005-0.02c-12.504,17.434-21.393,37.846-25.545,60.02C138.363,264.264,161.737,262.277,194.294,267.662z"
   id="path92" />
		<path
   fill="none"
   d="M285.265,364.209c-19.39-33.383-23.084-59.305-23.79-67.402c-6.895-3.398-32.483-15.135-68.4-21.082    c-0.655-0.107-1.272-0.186-1.922-0.287c-0.036,14.221,0.889,53.498,11.354,81.58c16.636,44.635,59.491,76.572,71.233,84.682    c22.068-1.115,42.819-7.557,61.111-18.109C327.253,417.387,304.455,397.234,285.265,364.209z"
   id="path94" />
		<path
   fill="none"
   d="M195.239,359.98c-11.388-30.563-12.02-71.988-11.893-85.658c-29.194-3.717-49.541-1.275-56.479-0.139    c-0.851,6.537-1.328,13.197-1.328,19.975c0,79.082,59.742,143.834,134.516,147.545    C242.032,427.854,209.739,398.891,195.239,359.98z"
   id="path96" />
		<path
   d="M415.924,294.158c0-85.957-66.884-155.891-149.094-155.891c-82.209,0-149.093,69.934-149.093,155.891    c0,85.953,66.883,155.883,149.093,155.883c1.57,0,3.121-0.074,4.678-0.121c-1.98-1.303-6.072-4.078-11.453-8.217    c-74.774-3.711-134.516-68.463-134.516-147.545c0-6.777,0.478-13.438,1.328-19.975c-1.679,0.271-2.605,0.473-2.653,0.484    l-1.653-7.971c0.284-0.064,2.216-0.494,5.632-0.977c4.152-22.174,13.041-42.586,25.545-60.02l-1.435-7.998    c0.389-0.076,3.4-0.633,8.599-1.154c13.47-15.961,30.17-28.857,49.033-37.57c-0.32,0.025-0.543,0.053-0.563,0.053l-0.897-8.104    c0.625-0.074,9.181-1.041,23.725,0c11.088-2.932,22.686-4.504,34.631-4.504c30.906,0,59.506,10.457,82.791,28.129    c0.111-0.266,0.178-0.418,0.186-0.439l7.172,3.209c-0.074,0.178-0.424,1.018-1.001,2.324    c17.833,15.211,32.067,34.857,41.126,57.332c0.779-1.748,1.219-2.793,1.241-2.852l7.171,3.207    c-0.185,0.457-1.708,4.139-4.637,10.229c4.673,14.656,7.243,30.313,7.243,46.596c0,52.668-26.518,98.955-66.305,125.119    l-4.345,6.383c-0.193-0.143-1.153-0.875-2.621-2.07c-18.292,10.553-39.043,16.994-61.111,18.109    c1.856,1.283,2.964,1.99,3.037,2.039l-3.521,6.133C352.494,446.34,415.924,377.861,415.924,294.158z"
   id="path98" />
		<path
   d="M183.346,274.322c0.023-2.566,0.071-4.264,0.084-4.609l7.796,0.297c-0.002,0.102-0.063,2.076-0.074,5.428    c0.65,0.102,1.268,0.18,1.922,0.287c35.917,5.947,61.505,17.684,68.4,21.082c-0.132-1.514-0.17-2.475-0.175-2.666l3.819-0.1    l-2.126-3.252c0.036-0.025,0.691-0.508,1.793-1.381c-7.418-3.689-33.327-15.59-70.492-21.746    c-32.557-5.385-55.931-3.398-66.102-1.941c-0.523,2.793-0.957,5.617-1.326,8.463C133.805,273.047,154.152,270.605,183.346,274.322    z"
   id="path100" />
		<path
   d="M122.56,266.697l1.653,7.971c0.048-0.012,0.975-0.213,2.653-0.484c0.369-2.846,0.803-5.67,1.326-8.463    C124.776,266.203,122.844,266.633,122.56,266.697z"
   id="path102" />
		<path
   d="M235.876,209.391c38.84,7.605,67.282,20.637,78.194,26.16c1.633-2.258,3.21-4.492,4.727-6.691    c-10.339-5.381-39.843-19.336-81.484-27.488c-36.625-7.168-63.482-6.111-76.412-4.822c-2.494,2.953-4.898,5.992-7.164,9.152    l0.005,0.02C154.061,205.658,186.091,199.646,235.876,209.391z"
   id="path104" />
		<path
   d="M152.303,197.703l1.435,7.998c2.266-3.16,4.67-6.199,7.164-9.152C155.703,197.07,152.691,197.627,152.303,197.703z"
   id="path106" />
		<path
   d="M276.991,167.039c31.927,8.709,54.821,21.334,63.368,26.475c1.402-2.623,2.639-5.025,3.724-7.191    c-9.079-5.486-32.247-18.211-65.124-27.174c-18.955-5.166-34.857-7.365-46.76-8.221c-7.695,2.039-15.127,4.752-22.264,8.051    C213.828,158.617,239.49,156.822,276.991,167.039z"
   id="path108" />
		<path
   d="M208.474,150.928l0.897,8.104c0.021,0,0.244-0.027,0.563-0.053c7.137-3.299,14.569-6.012,22.264-8.051    C217.655,149.887,209.099,150.854,208.474,150.928z"
   id="path110" />
		<path
   d="M348.346,189.01l-4.248,6.838c-0.056-0.035-1.387-0.918-3.738-2.334c-5.07,9.5-12.246,21.809-21.563,35.346    c2.387,1.238,3.751,2.023,4.01,2.172l-3.781,7.137c-0.074-0.043-1.836-1.039-4.955-2.617c-1.033,1.434-2.057,2.863-3.139,4.318    c-21.881,29.381-40.503,45.09-46.146,49.539c1.241,0.623,2.026,1.037,2.194,1.127l-1.735,3.506l3.855-0.102    c0,0.043,0.038,0.838,0.163,2.172c5.858-4.563,24.955-20.52,47.824-51.23c23.043-30.949,35.465-57.449,38.89-65.234    c-2.067-1.764-4.192-3.451-6.356-5.094c-0.554,1.303-2.395,5.508-5.538,11.77C346.609,187.852,348.107,188.85,348.346,189.01z"
   id="path112" />
		<path
   d="M356.979,177.322l-7.172-3.209c-0.008,0.021-0.074,0.174-0.186,0.439c2.164,1.643,4.289,3.33,6.356,5.094    C356.555,178.34,356.904,177.5,356.979,177.322z"
   id="path114" />
		<path
   d="M266.98,290.535c-0.168-0.09-0.953-0.504-2.194-1.127c-1.103,0.873-1.758,1.355-1.793,1.381l2.126,3.252h0.127    L266.98,290.535z"
   id="path116" />
		<path
   d="M322.807,231.031c-0.259-0.148-1.623-0.934-4.01-2.172c-1.517,2.199-3.094,4.434-4.727,6.691    c3.119,1.578,4.881,2.574,4.955,2.617L322.807,231.031z"
   id="path118" />
		<path
   d="M348.346,189.01c-0.238-0.16-1.736-1.158-4.263-2.688c-1.085,2.166-2.321,4.568-3.724,7.191    c2.352,1.416,3.683,2.299,3.738,2.334L348.346,189.01z"
   id="path120" />
		<path
   d="M297.895,369.572c1.498,2.293,3.004,4.514,4.518,6.652c4.707-3.531,28.199-22.064,56.781-60.438    c21.58-28.99,35.152-54.635,41.686-68.225c-1.143-3.584-2.382-7.127-3.775-10.584c-4.059,9.08-18.404,39.324-44.066,73.795    C325.379,347.916,302.173,366.32,297.895,369.572z"
   id="path122" />
		<path
   d="M405.516,237.334l-7.171-3.207c-0.022,0.059-0.462,1.104-1.241,2.852c1.394,3.457,2.633,7,3.775,10.584    C403.808,241.473,405.331,237.791,405.516,237.334z"
   id="path124" />
		<path
   d="M302.412,376.225c-0.453,0.34-0.795,0.59-0.887,0.658l-4.4-6.732c0.022-0.016,0.329-0.244,0.77-0.578    c-2.014-3.082-4.014-6.252-5.961-9.602c-18.432-31.732-22-56.664-22.67-63.859c-1.055,0.818-1.73,1.313-1.869,1.412l-2.205-3.371    l-1.798,3.627c-0.04-0.021-0.739-0.389-1.917-0.973c0.706,8.098,4.4,34.02,23.79,67.402c19.19,33.025,41.988,53.178,49.587,59.381    c2.367-1.365,4.684-2.814,6.966-4.313l0.178-0.266C341.76,418.836,321.864,403.775,302.412,376.225z"
   id="path126" />
		<path
   d="M337.473,425.66l4.345-6.383c-2.282,1.498-4.599,2.947-6.966,4.313C336.319,424.785,337.279,425.518,337.473,425.66z"
   id="path128" />
		<path
   d="M265.19,294.152l-0.071-0.111l-3.819,0.1c0.005,0.191,0.043,1.152,0.175,2.666c1.178,0.584,1.877,0.951,1.917,0.973    L265.19,294.152z"
   id="path130" />
		<path
   d="M267.395,297.523c0.139-0.1,0.814-0.594,1.869-1.412c-0.125-1.334-0.163-2.129-0.163-2.172l-3.855,0.102l-0.056,0.111    L267.395,297.523z"
   id="path132" />
		<polygon
   points="265.246,294.041 265.119,294.041 265.19,294.152   "
   id="polygon134" />
		<path
   d="M301.525,376.883c0.092-0.068,0.434-0.318,0.887-0.658c-1.514-2.139-3.02-4.359-4.518-6.652    c-0.44,0.334-0.747,0.563-0.77,0.578L301.525,376.883z"
   id="path136" />
		<path
   d="M273.74,441.699c-11.743-8.109-54.597-40.047-71.233-84.682c-10.465-28.082-11.39-67.359-11.354-81.58    c-2.667-0.426-5.27-0.797-7.807-1.115c-0.127,13.67,0.505,55.096,11.893,85.658c14.5,38.91,46.793,67.873,64.816,81.723    c2.245,0.113,4.502,0.182,6.775,0.182C269.148,441.885,271.449,441.816,273.74,441.699z"
   id="path138" />
		<path
   d="M272.763,450.727l0.493-0.855c-0.582,0.027-1.166,0.027-1.748,0.049C272.156,450.344,272.6,450.625,272.763,450.727z"
   id="path140" />
		<path
   d="M273.74,441.699c-2.291,0.117-4.592,0.186-6.91,0.186c-2.273,0-4.53-0.068-6.775-0.182    c5.381,4.139,9.473,6.914,11.453,8.217c0.582-0.021,1.166-0.021,1.748-0.049l3.521-6.133    C276.704,443.689,275.597,442.982,273.74,441.699z"
   id="path142" />
		<path
   d="M191.226,270.01l-7.796-0.297c-0.013,0.346-0.061,2.043-0.084,4.609c2.537,0.318,5.14,0.689,7.807,1.115    C191.163,272.086,191.224,270.111,191.226,270.01z"
   id="path144" />
	</g>
</g>
<g
   id="escudo">
	<polygon
   fill="#F1A72E"
   stroke="#000000"
   stroke-width="4"
   points="262.129,35.729 277.18,83.296 328.67,83.296 288.19,112.505    302.862,161.093 262.129,131.867 221.396,161.093 235.061,112.203 195.761,83.313 247.079,83.296  "
   id="polygon147" />
	<g
   id="g149">
		<g
   id="g151">
			<path
   fill="#EEA635"
   stroke="#000000"
   d="M237.098,91.521l-3.815,3.18l-7.631,31.797c0,0,4.452-1.908,15.898-1.908     s13.991,2.544,13.991,2.544s1.908,2.544,6.359,2.544c4.452,0,6.359-2.544,6.359-2.544s5.724-2.544,12.719-2.544     s18.442,2.544,18.442,2.544l-8.123-31.161l-3.086-3.877l-25.04-1.847L237.098,91.521z"
   id="path153" />
			<path
   fill="#EEA635"
   stroke="#000000"
   d="M237.225,91.248l-0.106,0.006l-3.978,3.314l-7.803,32.515l0.581-0.248     c0.044-0.019,4.55-1.883,15.774-1.883c11.094,0,13.742,2.429,13.768,2.452c0.05,0.074,2.023,2.636,6.582,2.636     c4.275,0,6.254-2.228,6.553-2.599c0.375-0.161,5.885-2.489,12.525-2.489c6.879,0,18.258,2.511,18.373,2.537l0.508,0.112     l-8.271-31.729l-3.215-4.038l-25.178-1.857L237.225,91.248z M263.33,90.611c0,0,24.587,1.815,24.862,1.836     c0.162,0.203,2.878,3.616,2.957,3.716c0.033,0.127,7.725,29.63,7.977,30.595c-2.283-0.483-11.884-2.441-18.004-2.441     c-6.982,0-12.791,2.545-12.849,2.571l-0.074,0.033l-0.05,0.065c-0.019,0.025-1.883,2.418-6.106,2.418s-6.087-2.393-6.105-2.418     c-0.137-0.141-2.798-2.67-14.245-2.67c-9.247,0-13.924,1.225-15.451,1.726c0.265-1.104,7.42-30.92,7.468-31.12     c0.151-0.126,3.5-2.916,3.653-3.044C237.574,91.867,263.33,90.611,263.33,90.611z"
   id="path155" />
			<path
   fill="#EEA635"
   stroke="#000000"
   d="M262.229,122.462l-6.554,4.717c0,0,1.908,2.543,6.359,2.543     c4.452,0,6.36-2.543,6.36-2.543L262.229,122.462z"
   id="path157" />
			<path
   fill="#EEA635"
   stroke="#000000"
   d="M262.043,122.204l-6.818,4.905l0.195,0.26c0.082,0.109,2.056,2.671,6.614,2.671     c4.559,0,6.532-2.562,6.614-2.671l0.189-0.253l-6.603-5.05L262.043,122.204z M262.224,122.857     c0.336,0.258,5.214,3.99,5.702,4.362c-0.574,0.593-2.428,2.185-5.891,2.185c-3.448,0-5.301-1.578-5.883-2.177     C256.666,126.857,261.879,123.105,262.224,122.857z"
   id="path159" />
			<path
   fill="#EEA635"
   stroke="#000000"
   d="M248.863,89.338c-5.736,0.574-10.436,2.193-11.207,2.468     c-0.075,0.331-6.012,26.452-6.214,27.348c1.597-0.267,7.428-1.098,15.503-0.56c8.079,0.539,13.465,2.454,14.932,3.031     c0.018-0.888,0.612-31.173,0.623-31.701C261.19,89.699,254.99,88.725,248.863,89.338z"
   id="path161" />
			<path
   fill="#EEA635"
   stroke="#000000"
   d="M262.513,121.646c1.592-0.539,7.518-2.369,15.631-2.754     c8.09-0.385,13.903,0.558,15.49,0.854c-0.186-0.896-5.623-27.128-5.691-27.46c-0.766-0.291-5.434-1.998-11.158-2.682     c-6.129-0.73-12.358,0.13-13.65,0.326l-0.208,10.593C262.75,109.536,262.524,121.107,262.513,121.646z"
   id="path163" />
			<path
   fill="#EEA635"
   stroke="#000000"
   d="M262.927,100.523l0.208-10.593l0,0C263.131,90.131,263.04,94.814,262.927,100.523z"
   id="path165" />
		</g>
		<g
   id="g167">
			<path
   fill="#EEA635"
   stroke="#000000"
   d="M249.008,88.999c-6.359,0.637-11.446,2.545-11.446,2.545l-6.36,27.981     c0,0,6.36-1.272,15.898-0.637c9.539,0.637,15.263,3.18,15.263,3.18l0.636-32.433C262.999,89.636,255.997,88.3,249.008,88.999z      M288.396,92.028c0,0-5.05-2.005-11.397-2.761c-6.975-0.833-14,0.368-14,0.368l-0.636,32.439c0,0,6.424-2.435,15.973-2.888     c9.549-0.454,15.883,0.938,15.883,0.938L288.396,92.028z"
   id="path169" />
			<path
   fill="#EEA635"
   stroke="#000000"
   d="M288.527,91.796l-0.16-0.063c-0.051-0.021-5.16-2.029-11.476-2.782     c-6.626-0.791-13.376,0.256-14.035,0.361c-0.657-0.119-7.385-1.293-14.025-0.629c-6.327,0.633-11.476,2.543-11.526,2.563     l-0.16,0.06l-6.506,28.627l0.481-0.097c0.063-0.012,6.434-1.255,15.815-0.63c8.449,0.563,13.927,2.65,14.96,3.073     c0.113,0.045,0.188,0.077,0.194,0.08l0.128,0.057l0.113-0.043c0.006-0.002,0.075-0.028,0.201-0.072     c1.152-0.403,7.211-2.394,15.675-2.796c9.391-0.446,15.738,0.919,15.8,0.932l0.479,0.105L288.527,91.796z M262.5,91.499     l-0.233,11.935c0.009-0.485,0.018-0.974,0.028-1.453l-0.077,3.894c0.009-0.488,0.02-0.976,0.029-1.462l-0.337,17.19     c-1.467-0.577-6.854-2.492-14.932-3.031c-8.075-0.538-13.906,0.294-15.504,0.559c0.203-0.894,6.14-27.016,6.215-27.347     c0.771-0.274,5.471-1.894,11.207-2.467c6.127-0.613,12.328,0.36,13.636,0.585c0,0.039-0.004,0.251-0.011,0.589l0.022-1.123     l-0.025,1.281c0.001-0.054,0.002-0.11,0.003-0.158l-0.065,3.285C262.473,92.88,262.488,92.112,262.5,91.499z M278.177,118.87     c-8.114,0.385-14.039,2.216-15.631,2.755c0.01-0.54,0.237-12.111,0.413-21.124c0.113-5.709,0.204-10.392,0.208-10.593     c1.292-0.197,7.521-1.057,13.649-0.326c5.725,0.684,10.394,2.391,11.159,2.682c0.067,0.332,5.506,26.563,5.692,27.461     C292.08,119.429,286.266,118.485,278.177,118.87z"
   id="path171" />
		</g>
	</g>
	<path
   fill="#F1A72E"
   stroke="#000000"
   stroke-width="2"
   d="M221.367,116.284l-2.535-0.212l-15.173,9.847l8.363,11.983l18.852-20.83   l3.38-2.271c0,0,1.162,1.372,2.218,4.013c1.238,3.09,0.963,3.175,1.892,7.13l4.699-2.801c0,0-0.887-3.856-1.363-5.811   c-0.477-1.953-0.475-1.953-0.423-2.587c0.053-0.634,5.492-4.649,5.544-5.283s-1.691-2.693-1.691-2.693l1.372-1.161   c0,0,4.174,3.536,9.033,6.492c6.118,3.577,13.731,3.691,13.731,3.691l1.931-7.55c0,0-6.355-0.219-10.467-2.776   c-3.416-2.125-6.571-5.028-6.571-5.028l0.264-3.17l3.663-0.038l16.167-11.281l-0.049-2.292l5.216-3.64l2.265,2.297l13.689-9.552   l2.334-0.078l26.507-20.708l-26.708,15.749l-2.019-2.464l-1.679,0.88l-1.268-0.104l-4.341-2.328l0.696,4.366l-5.808,4.197   l-5.224,1.075l-6.779,4.73l-2.425,0.141l-9.213,6.43l-1.933-0.203l-6.172,4.235l-0.41,1.98l-21.167,14.627l-0.848,4.604   l-6.864,5.812L221.367,116.284z"
   id="path173" />
	<path
   fill="#F1A72E"
   stroke="#000000"
   stroke-width="2"
   d="M226.234,100.922l-10.293-10.773c0,0,13.514-23.442,15.03-24.123   s8.777-1.78,8.777-1.78s-0.283-3.104,1.49-5.137c1.775-2.033,5.746-1.126,5.746-1.126l7.685,7.572l1.221,4.059l61.424,61.228   c0,0-0.494,1.238-1.417,2.174c-0.893,0.906-2.155,1.446-2.155,1.446l-61.36-61.45l-4.063-0.321l-3.864-2.913   c0,0,0.169,4.59-0.192,5.699C243.902,76.585,226.234,100.922,226.234,100.922z"
   id="path175" />
</g>
<g
   id="sincor"
   display="none">
	<path
   display="inline"
   fill="#F1A72E"
   stroke="#000000"
   stroke-width="3"
   d="M482.162,296.163   c0,119.569-96.931,216.5-216.499,216.5c-119.569,0-216.5-96.931-216.5-216.5s96.931-275.5,216.5-275.5   C385.231,20.663,482.162,176.594,482.162,296.163z"
   id="path178" />
	<ellipse
   display="inline"
   cx="264.387"
   cy="119.205"
   rx="91"
   ry="90"
   id="ellipse180" />
	<path
   display="inline"
   d="M56.966,296.163c0-115.258,93.439-208.696,208.696-208.696c115.258,0,208.697,93.438,208.697,208.696   c0,115.257-93.439,208.696-208.697,208.696C150.405,504.859,56.966,411.42,56.966,296.163z"
   id="path182" />
	<g
   display="inline"
   id="g184">
		
			<text
   transform="matrix(-0.481 0.8767 -0.8836 -0.4848 103.332 196.5864)"
   fill="#F1A72E"
   font-family="'Impact'"
   font-size="40.7998"
   id="text186">F</text>

		
			<text
   transform="matrix(-0.3773 0.9261 -0.9334 -0.3803 93.1885 215.6733)"
   fill="#F1A72E"
   font-family="'Impact'"
   font-size="40.7998"
   id="text188">E</text>

		
			<text
   transform="matrix(-0.2507 0.9681 -0.9757 -0.2527 84.7969 236.7915)"
   fill="#F1A72E"
   font-family="'Impact'"
   font-size="40.8012"
   id="text190">D</text>

		
			<text
   transform="matrix(-0.1204 0.9927 -1.0005 -0.1214 78.2646 264.2876)"
   fill="#F1A72E"
   font-family="'Impact'"
   font-size="40.7998"
   id="text192">E</text>

		<text
   transform="matrix(0.0082 1 -1.0079 0.0083 75.7456 286.7822)"
   fill="#F1A72E"
   font-family="'Impact'"
   font-size="40.8012"
   id="text194">R</text>

		
			<text
   transform="matrix(0.1476 0.989 -0.9969 0.1488 76.4209 314.6123)"
   fill="#F1A72E"
   font-family="'Impact'"
   font-size="40.7979"
   id="text196">A</text>

		
			<text
   transform="matrix(0.2881 0.9576 -0.9652 0.2904 80.7144 340.9434)"
   fill="#F1A72E"
   font-family="'Impact'"
   font-size="40.7998"
   id="text198">Ç</text>

		
			<text
   transform="matrix(0.423 0.9061 -0.9133 0.4263 89.4131 368.1289)"
   fill="#F1A72E"
   font-family="'Impact'"
   font-size="40.8024"
   id="text200">Ã</text>

		
			<text
   transform="matrix(0.548 0.8365 -0.8431 0.5523 101.0264 392.1309)"
   fill="#F1A72E"
   font-family="'Impact'"
   font-size="40.7998"
   id="text202">O</text>

		
			<text
   transform="matrix(0.7226 0.6913 -0.6968 0.7283 124.4316 424.8496)"
   fill="#F1A72E"
   font-family="'Impact'"
   font-size="40.7998"
   id="text204">M</text>

		
			<text
   transform="matrix(0.8282 0.5605 -0.5649 0.8347 150.7466 448.8789)"
   fill="#F1A72E"
   font-family="'Impact'"
   font-size="40.8014"
   id="text206">O</text>

		
			<text
   transform="matrix(0.9029 0.4298 -0.4332 0.91 174.4961 464.4141)"
   fill="#F1A72E"
   font-family="'Impact'"
   font-size="40.7998"
   id="text208">Ç</text>

		
			<text
   transform="matrix(0.9562 0.2926 -0.2949 0.9638 200.5371 476.2441)"
   fill="#F1A72E"
   font-family="'Impact'"
   font-size="40.7985"
   id="text210">A</text>

		
			<text
   transform="matrix(0.9916 0.1292 -0.1302 0.9994 226.5898 484.0186)"
   fill="#F1A72E"
   font-family="'Impact'"
   font-size="40.7998"
   id="text212">M</text>

		
			<text
   transform="matrix(0.9992 -0.0396 0.0399 1.0071 261.9951 487.791)"
   fill="#F1A72E"
   font-family="'Impact'"
   font-size="40.7998"
   id="text214">B</text>

		
			<text
   transform="matrix(0.9874 -0.1582 0.1594 0.9952 289.9014 486.042)"
   fill="#F1A72E"
   font-family="'Impact'"
   font-size="40.7998"
   id="text216">I</text>

		
			<text
   transform="matrix(0.9611 -0.2762 0.2784 0.9687 306.9658 483.3018)"
   fill="#F1A72E"
   font-family="'Impact'"
   font-size="40.7998"
   id="text218">C</text>

		
			<text
   transform="matrix(0.9101 -0.4144 0.4177 0.9173 334.3066 474.9102)"
   fill="#F1A72E"
   font-family="'Impact'"
   font-size="40.7998"
   id="text220">A</text>

		
			<text
   transform="matrix(0.8408 -0.5414 0.5457 0.8474 358.4355 463.498)"
   fill="#F1A72E"
   font-family="'Impact'"
   font-size="40.7998"
   id="text222">N</text>

		
			<text
   transform="matrix(0.7548 -0.6559 0.6611 0.7608 381.7373 447.9248)"
   fill="#F1A72E"
   font-family="'Impact'"
   font-size="40.7984"
   id="text224">A</text>

		
			<text
   transform="matrix(0.6066 -0.795 0.8013 0.6114 409.3896 421.666)"
   fill="#F1A72E"
   font-family="'Impact'"
   font-size="40.7998"
   id="text226">D</text>

		
			<text
   transform="matrix(0.4961 -0.8683 0.8752 0.5 426.082 398.8594)"
   fill="#F1A72E"
   font-family="'Impact'"
   font-size="40.7998"
   id="text228">E</text>

		
			<text
   transform="matrix(0.3374 -0.9414 0.9488 0.3401 441.5205 368.8115)"
   fill="#F1A72E"
   font-family="'Impact'"
   font-size="40.8013"
   id="text230">F</text>

		
			<text
   transform="matrix(0.2118 -0.9773 0.985 0.2135 448.7588 348.0869)"
   fill="#F1A72E"
   font-family="'Impact'"
   font-size="40.7998"
   id="text232">U</text>

		
			<text
   transform="matrix(0.0766 -0.9971 1.0049 0.0772 454.2021 320.5088)"
   fill="#F1A72E"
   font-family="'Impact'"
   font-size="40.8014"
   id="text234">T</text>

		
			<text
   transform="matrix(-0.0422 -0.9991 1.007 -0.0425 455.6777 296.3584)"
   fill="#F1A72E"
   font-family="'Impact'"
   font-size="40.7998"
   id="text236">E</text>

		
			<text
   transform="matrix(-0.1728 -0.985 0.9927 -0.1742 454.5332 273.7095)"
   fill="#F1A72E"
   font-family="'Impact'"
   font-size="40.7975"
   id="text238">B</text>

		
			<text
   transform="matrix(-0.3168 -0.9485 0.956 -0.3193 449.1455 245.6499)"
   fill="#F1A72E"
   font-family="'Impact'"
   font-size="40.7998"
   id="text240">O</text>

		
			<text
   transform="matrix(-0.4357 -0.9001 0.9072 -0.4391 439.7559 219.3652)"
   fill="#F1A72E"
   font-family="'Impact'"
   font-size="40.7998"
   id="text242">L</text>

	</g>
	<path
   display="inline"
   fill="#F1A72E"
   d="M412.022,294.158c0,83.836-65.005,151.805-145.192,151.805   s-145.192-67.969-145.192-151.805c0-83.844,65.004-151.813,145.192-151.813S412.022,210.314,412.022,294.158z"
   id="path244" />
	<g
   display="inline"
   id="g246">
		<path
   fill="none"
   d="M237.313,201.371c41.641,8.152,71.145,22.107,81.484,27.488c9.316-13.537,16.492-25.846,21.563-35.346    c-8.547-5.141-31.441-17.766-63.368-26.475c-37.501-10.217-63.163-8.422-67.057-8.061c-18.863,8.713-35.563,21.609-49.033,37.57    C173.831,195.26,200.688,194.203,237.313,201.371z"
   id="path248" />
		<path
   fill="none"
   d="M344.083,186.322c3.144-6.262,4.984-10.467,5.538-11.77c-23.285-17.672-51.885-28.129-82.791-28.129    c-11.946,0-23.543,1.572-34.631,4.504c11.903,0.855,27.806,3.055,46.76,8.221C311.836,168.111,335.004,180.836,344.083,186.322z"
   id="path250" />
		<path
   fill="none"
   d="M269.264,296.111c0.67,7.195,4.238,32.127,22.67,63.859c1.947,3.35,3.947,6.52,5.961,9.602    c4.278-3.252,27.484-21.656,55.143-58.799c25.662-34.471,40.008-64.715,44.066-73.795c-9.059-22.475-23.293-42.121-41.126-57.332    c-3.425,7.785-15.847,34.285-38.89,65.234C294.219,275.592,275.122,291.549,269.264,296.111z"
   id="path252" />
		<path
   fill="none"
   d="M302.412,376.225c19.452,27.551,39.348,42.611,39.583,42.787l-0.178,0.266    c39.787-26.164,66.305-72.451,66.305-125.119c0-16.283-2.57-31.939-7.243-46.596c-6.533,13.59-20.105,39.234-41.686,68.225    C330.611,354.16,307.119,372.693,302.412,376.225z"
   id="path254" />
		<path
   fill="none"
   d="M194.294,267.662c37.166,6.156,63.074,18.057,70.492,21.746c5.643-4.449,24.265-20.158,46.146-49.539    c1.082-1.455,2.105-2.885,3.139-4.318c-10.912-5.523-39.354-18.555-78.194-26.16c-49.785-9.744-81.815-3.732-82.133-3.67    l-0.005-0.02c-12.504,17.434-21.393,37.846-25.545,60.02C138.363,264.264,161.737,262.277,194.294,267.662z"
   id="path256" />
		<path
   fill="none"
   d="M285.265,364.209c-19.39-33.383-23.084-59.305-23.79-67.402c-6.895-3.398-32.483-15.135-68.4-21.082    c-0.655-0.107-1.272-0.186-1.922-0.287c-0.036,14.221,0.889,53.498,11.354,81.58c16.636,44.635,59.491,76.572,71.233,84.682    c22.068-1.115,42.819-7.557,61.111-18.109C327.253,417.387,304.455,397.234,285.265,364.209z"
   id="path258" />
		<path
   fill="none"
   d="M195.239,359.98c-11.388-30.563-12.02-71.988-11.893-85.658c-29.194-3.717-49.541-1.275-56.479-0.139    c-0.851,6.537-1.328,13.197-1.328,19.975c0,79.082,59.742,143.834,134.516,147.545    C242.032,427.854,209.739,398.891,195.239,359.98z"
   id="path260" />
		<path
   d="M415.924,294.158c0-85.957-66.884-155.891-149.094-155.891c-82.209,0-149.093,69.934-149.093,155.891    c0,85.953,66.883,155.883,149.093,155.883c1.57,0,3.121-0.074,4.678-0.121c-1.98-1.303-6.072-4.078-11.453-8.217    c-74.774-3.711-134.516-68.463-134.516-147.545c0-6.777,0.478-13.438,1.328-19.975c-1.679,0.271-2.605,0.473-2.653,0.484    l-1.653-7.971c0.284-0.064,2.216-0.494,5.632-0.977c4.152-22.174,13.041-42.586,25.545-60.02l-1.435-7.998    c0.389-0.076,3.4-0.633,8.599-1.154c13.47-15.961,30.17-28.857,49.033-37.57c-0.32,0.025-0.543,0.053-0.563,0.053l-0.897-8.104    c0.625-0.074,9.181-1.041,23.725,0c11.088-2.932,22.686-4.504,34.631-4.504c30.906,0,59.506,10.457,82.791,28.129    c0.111-0.266,0.178-0.418,0.186-0.439l7.172,3.209c-0.074,0.178-0.424,1.018-1.001,2.324    c17.833,15.211,32.067,34.857,41.126,57.332c0.779-1.748,1.219-2.793,1.241-2.852l7.171,3.207    c-0.185,0.457-1.708,4.139-4.637,10.229c4.673,14.656,7.243,30.313,7.243,46.596c0,52.668-26.518,98.955-66.305,125.119    l-4.345,6.383c-0.193-0.143-1.153-0.875-2.621-2.07c-18.292,10.553-39.043,16.994-61.111,18.109    c1.856,1.283,2.964,1.99,3.037,2.039l-3.521,6.133C352.494,446.34,415.924,377.861,415.924,294.158z"
   id="path262" />
		<path
   d="M183.346,274.322c0.023-2.566,0.071-4.264,0.084-4.609l7.796,0.297c-0.002,0.102-0.063,2.076-0.074,5.428    c0.65,0.102,1.268,0.18,1.922,0.287c35.917,5.947,61.505,17.684,68.4,21.082c-0.132-1.514-0.17-2.475-0.175-2.666l3.819-0.1    l-2.126-3.252c0.036-0.025,0.691-0.508,1.793-1.381c-7.418-3.689-33.327-15.59-70.492-21.746    c-32.557-5.385-55.931-3.398-66.102-1.941c-0.523,2.793-0.957,5.617-1.326,8.463C133.805,273.047,154.152,270.605,183.346,274.322    z"
   id="path264" />
		<path
   d="M122.56,266.697l1.653,7.971c0.048-0.012,0.975-0.213,2.653-0.484c0.369-2.846,0.803-5.67,1.326-8.463    C124.776,266.203,122.844,266.633,122.56,266.697z"
   id="path266" />
		<path
   d="M235.876,209.391c38.84,7.605,67.282,20.637,78.194,26.16c1.633-2.258,3.21-4.492,4.727-6.691    c-10.339-5.381-39.843-19.336-81.484-27.488c-36.625-7.168-63.482-6.111-76.412-4.822c-2.494,2.953-4.898,5.992-7.164,9.152    l0.005,0.02C154.061,205.658,186.091,199.646,235.876,209.391z"
   id="path268" />
		<path
   d="M152.303,197.703l1.435,7.998c2.266-3.16,4.67-6.199,7.164-9.152C155.703,197.07,152.691,197.627,152.303,197.703z"
   id="path270" />
		<path
   d="M276.991,167.039c31.927,8.709,54.821,21.334,63.368,26.475c1.402-2.623,2.639-5.025,3.724-7.191    c-9.079-5.486-32.247-18.211-65.124-27.174c-18.955-5.166-34.857-7.365-46.76-8.221c-7.695,2.039-15.127,4.752-22.264,8.051    C213.828,158.617,239.49,156.822,276.991,167.039z"
   id="path272" />
		<path
   d="M208.474,150.928l0.897,8.104c0.021,0,0.244-0.027,0.563-0.053c7.137-3.299,14.569-6.012,22.264-8.051    C217.655,149.887,209.099,150.854,208.474,150.928z"
   id="path274" />
		<path
   d="M348.346,189.01l-4.248,6.838c-0.056-0.035-1.387-0.918-3.738-2.334c-5.07,9.5-12.246,21.809-21.563,35.346    c2.387,1.238,3.751,2.023,4.01,2.172l-3.781,7.137c-0.074-0.043-1.836-1.039-4.955-2.617c-1.033,1.434-2.057,2.863-3.139,4.318    c-21.881,29.381-40.503,45.09-46.146,49.539c1.241,0.623,2.026,1.037,2.194,1.127l-1.735,3.506l3.855-0.102    c0,0.043,0.038,0.838,0.163,2.172c5.858-4.563,24.955-20.52,47.824-51.23c23.043-30.949,35.465-57.449,38.89-65.234    c-2.067-1.764-4.192-3.451-6.356-5.094c-0.554,1.303-2.395,5.508-5.538,11.77C346.609,187.852,348.107,188.85,348.346,189.01z"
   id="path276" />
		<path
   d="M356.979,177.322l-7.172-3.209c-0.008,0.021-0.074,0.174-0.186,0.439c2.164,1.643,4.289,3.33,6.356,5.094    C356.555,178.34,356.904,177.5,356.979,177.322z"
   id="path278" />
		<path
   d="M266.98,290.535c-0.168-0.09-0.953-0.504-2.194-1.127c-1.103,0.873-1.758,1.355-1.793,1.381l2.126,3.252h0.127    L266.98,290.535z"
   id="path280" />
		<path
   d="M322.807,231.031c-0.259-0.148-1.623-0.934-4.01-2.172c-1.517,2.199-3.094,4.434-4.727,6.691    c3.119,1.578,4.881,2.574,4.955,2.617L322.807,231.031z"
   id="path282" />
		<path
   d="M348.346,189.01c-0.238-0.16-1.736-1.158-4.263-2.688c-1.085,2.166-2.321,4.568-3.724,7.191    c2.352,1.416,3.683,2.299,3.738,2.334L348.346,189.01z"
   id="path284" />
		<path
   d="M297.895,369.572c1.498,2.293,3.004,4.514,4.518,6.652c4.707-3.531,28.199-22.064,56.781-60.438    c21.58-28.99,35.152-54.635,41.686-68.225c-1.143-3.584-2.382-7.127-3.775-10.584c-4.059,9.08-18.404,39.324-44.066,73.795    C325.379,347.916,302.173,366.32,297.895,369.572z"
   id="path286" />
		<path
   d="M405.516,237.334l-7.171-3.207c-0.022,0.059-0.462,1.104-1.241,2.852c1.394,3.457,2.633,7,3.775,10.584    C403.808,241.473,405.331,237.791,405.516,237.334z"
   id="path288" />
		<path
   d="M302.412,376.225c-0.453,0.34-0.795,0.59-0.887,0.658l-4.4-6.732c0.022-0.016,0.329-0.244,0.77-0.578    c-2.014-3.082-4.014-6.252-5.961-9.602c-18.432-31.732-22-56.664-22.67-63.859c-1.055,0.818-1.73,1.313-1.869,1.412l-2.205-3.371    l-1.798,3.627c-0.04-0.021-0.739-0.389-1.917-0.973c0.706,8.098,4.4,34.02,23.79,67.402c19.19,33.025,41.988,53.178,49.587,59.381    c2.367-1.365,4.684-2.814,6.966-4.313l0.178-0.266C341.76,418.836,321.864,403.775,302.412,376.225z"
   id="path290" />
		<path
   d="M337.473,425.66l4.345-6.383c-2.282,1.498-4.599,2.947-6.966,4.313C336.319,424.785,337.279,425.518,337.473,425.66z"
   id="path292" />
		<path
   d="M265.19,294.152l-0.071-0.111l-3.819,0.1c0.005,0.191,0.043,1.152,0.175,2.666c1.178,0.584,1.877,0.951,1.917,0.973    L265.19,294.152z"
   id="path294" />
		<path
   d="M267.395,297.523c0.139-0.1,0.814-0.594,1.869-1.412c-0.125-1.334-0.163-2.129-0.163-2.172l-3.855,0.102l-0.056,0.111    L267.395,297.523z"
   id="path296" />
		<polygon
   points="265.246,294.041 265.119,294.041 265.19,294.152   "
   id="polygon298" />
		<path
   d="M301.525,376.883c0.092-0.068,0.434-0.318,0.887-0.658c-1.514-2.139-3.02-4.359-4.518-6.652    c-0.44,0.334-0.747,0.563-0.77,0.578L301.525,376.883z"
   id="path300" />
		<path
   d="M273.74,441.699c-11.743-8.109-54.597-40.047-71.233-84.682c-10.465-28.082-11.39-67.359-11.354-81.58    c-2.667-0.426-5.27-0.797-7.807-1.115c-0.127,13.67,0.505,55.096,11.893,85.658c14.5,38.91,46.793,67.873,64.816,81.723    c2.245,0.113,4.502,0.182,6.775,0.182C269.148,441.885,271.449,441.816,273.74,441.699z"
   id="path302" />
		<path
   d="M272.763,450.727l0.493-0.855c-0.582,0.027-1.166,0.027-1.748,0.049C272.156,450.344,272.6,450.625,272.763,450.727z"
   id="path304" />
		<path
   d="M273.74,441.699c-2.291,0.117-4.592,0.186-6.91,0.186c-2.273,0-4.53-0.068-6.775-0.182    c5.381,4.139,9.473,6.914,11.453,8.217c0.582-0.021,1.166-0.021,1.748-0.049l3.521-6.133    C276.704,443.689,275.597,442.982,273.74,441.699z"
   id="path306" />
		<path
   d="M191.226,270.01l-7.796-0.297c-0.013,0.346-0.061,2.043-0.084,4.609c2.537,0.318,5.14,0.689,7.807,1.115    C191.163,272.086,191.224,270.111,191.226,270.01z"
   id="path308" />
	</g>
	<polygon
   display="inline"
   fill="#F1A72E"
   stroke="#000000"
   stroke-width="4"
   points="262.129,35.729 277.18,83.296 328.67,83.296    288.19,112.505 302.862,161.093 262.129,131.867 221.396,161.093 235.061,112.203 195.761,83.313 247.079,83.296  "
   id="polygon310" />
	<g
   display="inline"
   id="g312">
		<g
   id="g314">
			<path
   fill="#EEA635"
   stroke="#000000"
   d="M237.098,91.521l-3.815,3.18l-7.631,31.797c0,0,4.452-1.908,15.898-1.908     s13.991,2.544,13.991,2.544s1.908,2.544,6.359,2.544c4.452,0,6.359-2.544,6.359-2.544s5.724-2.544,12.719-2.544     s18.442,2.544,18.442,2.544l-8.123-31.161l-3.086-3.877l-25.04-1.847L237.098,91.521z"
   id="path316" />
			<path
   fill="#EEA635"
   stroke="#000000"
   d="M237.225,91.248l-0.106,0.006l-3.978,3.314l-7.803,32.515l0.581-0.248     c0.044-0.019,4.55-1.883,15.774-1.883c11.094,0,13.742,2.429,13.768,2.452c0.05,0.074,2.023,2.636,6.582,2.636     c4.275,0,6.254-2.228,6.553-2.599c0.375-0.161,5.885-2.489,12.525-2.489c6.879,0,18.258,2.511,18.373,2.537l0.508,0.112     l-8.271-31.729l-3.215-4.038l-25.178-1.857L237.225,91.248z M263.33,90.611c0,0,24.587,1.815,24.862,1.836     c0.162,0.203,2.878,3.616,2.957,3.716c0.033,0.127,7.725,29.63,7.977,30.595c-2.283-0.483-11.884-2.441-18.004-2.441     c-6.982,0-12.791,2.545-12.849,2.571l-0.074,0.033l-0.05,0.065c-0.019,0.025-1.883,2.418-6.106,2.418s-6.087-2.393-6.105-2.418     c-0.137-0.141-2.798-2.67-14.245-2.67c-9.247,0-13.924,1.225-15.451,1.726c0.265-1.104,7.42-30.92,7.468-31.12     c0.151-0.126,3.5-2.916,3.653-3.044C237.574,91.867,263.33,90.611,263.33,90.611z"
   id="path318" />
			<path
   fill="#EEA635"
   stroke="#000000"
   d="M262.229,122.462l-6.554,4.717c0,0,1.908,2.543,6.359,2.543     c4.452,0,6.36-2.543,6.36-2.543L262.229,122.462z"
   id="path320" />
			<path
   fill="#EEA635"
   stroke="#000000"
   d="M262.043,122.204l-6.818,4.905l0.195,0.26c0.082,0.109,2.056,2.671,6.614,2.671     c4.559,0,6.532-2.562,6.614-2.671l0.189-0.253l-6.603-5.05L262.043,122.204z M262.224,122.857     c0.336,0.258,5.214,3.99,5.702,4.362c-0.574,0.593-2.428,2.185-5.891,2.185c-3.448,0-5.301-1.578-5.883-2.177     C256.666,126.857,261.879,123.105,262.224,122.857z"
   id="path322" />
			<path
   fill="#EEA635"
   stroke="#000000"
   d="M248.863,89.338c-5.736,0.574-10.436,2.193-11.207,2.468     c-0.075,0.331-6.012,26.452-6.214,27.348c1.597-0.267,7.428-1.098,15.503-0.56c8.079,0.539,13.465,2.454,14.932,3.031     c0.018-0.888,0.612-31.173,0.623-31.701C261.19,89.699,254.99,88.725,248.863,89.338z"
   id="path324" />
			<path
   fill="#EEA635"
   stroke="#000000"
   d="M262.513,121.646c1.592-0.539,7.518-2.369,15.631-2.754     c8.09-0.385,13.903,0.558,15.49,0.854c-0.186-0.896-5.623-27.128-5.691-27.46c-0.766-0.291-5.434-1.998-11.158-2.682     c-6.129-0.73-12.358,0.13-13.65,0.326l-0.208,10.593C262.75,109.536,262.524,121.107,262.513,121.646z"
   id="path326" />
			<path
   fill="#EEA635"
   stroke="#000000"
   d="M262.927,100.523l0.208-10.593l0,0C263.131,90.131,263.04,94.814,262.927,100.523z"
   id="path328" />
		</g>
		<g
   id="g330">
			<path
   fill="#EEA635"
   stroke="#000000"
   d="M249.008,88.999c-6.359,0.637-11.446,2.545-11.446,2.545l-6.36,27.981     c0,0,6.36-1.272,15.898-0.637c9.539,0.637,15.263,3.18,15.263,3.18l0.636-32.433C262.999,89.636,255.997,88.3,249.008,88.999z      M288.396,92.028c0,0-5.05-2.005-11.397-2.761c-6.975-0.833-14,0.368-14,0.368l-0.636,32.439c0,0,6.424-2.435,15.973-2.888     c9.549-0.454,15.883,0.938,15.883,0.938L288.396,92.028z"
   id="path332" />
			<path
   fill="#EEA635"
   stroke="#000000"
   d="M288.527,91.796l-0.16-0.063c-0.051-0.021-5.16-2.029-11.476-2.782     c-6.626-0.791-13.376,0.256-14.035,0.361c-0.657-0.119-7.385-1.293-14.025-0.629c-6.327,0.633-11.476,2.543-11.526,2.563     l-0.16,0.06l-6.506,28.627l0.481-0.097c0.063-0.012,6.434-1.255,15.815-0.63c8.449,0.563,13.927,2.65,14.96,3.073     c0.113,0.045,0.188,0.077,0.194,0.08l0.128,0.057l0.113-0.043c0.006-0.002,0.075-0.028,0.201-0.072     c1.152-0.403,7.211-2.394,15.675-2.796c9.391-0.446,15.738,0.919,15.8,0.932l0.479,0.105L288.527,91.796z M262.5,91.499     l-0.233,11.935c0.009-0.485,0.018-0.974,0.028-1.453l-0.077,3.894c0.009-0.488,0.02-0.976,0.029-1.462l-0.337,17.19     c-1.467-0.577-6.854-2.492-14.932-3.031c-8.075-0.538-13.906,0.294-15.504,0.559c0.203-0.894,6.14-27.016,6.215-27.347     c0.771-0.274,5.471-1.894,11.207-2.467c6.127-0.613,12.328,0.36,13.636,0.585c0,0.039-0.004,0.251-0.011,0.589l0.022-1.123     l-0.025,1.281c0.001-0.054,0.002-0.11,0.003-0.158l-0.065,3.285C262.473,92.88,262.488,92.112,262.5,91.499z M278.177,118.87     c-8.114,0.385-14.039,2.216-15.631,2.755c0.01-0.54,0.237-12.111,0.413-21.124c0.113-5.709,0.204-10.392,0.208-10.593     c1.292-0.197,7.521-1.057,13.649-0.326c5.725,0.684,10.394,2.391,11.159,2.682c0.067,0.332,5.506,26.563,5.692,27.461     C292.08,119.429,286.266,118.485,278.177,118.87z"
   id="path334" />
		</g>
	</g>
	<path
   display="inline"
   fill="#F1A72E"
   stroke="#000000"
   stroke-width="2"
   d="M221.367,116.284l-2.535-0.212l-15.173,9.847   l8.363,11.983l18.852-20.83l3.38-2.271c0,0,1.162,1.372,2.218,4.013c1.238,3.09,0.963,3.175,1.892,7.13l4.699-2.801   c0,0-0.887-3.856-1.363-5.811c-0.477-1.953-0.475-1.953-0.423-2.587c0.053-0.634,5.492-4.649,5.544-5.283s-1.691-2.693-1.691-2.693   l1.372-1.161c0,0,4.174,3.536,9.033,6.492c6.118,3.577,13.731,3.691,13.731,3.691l1.931-7.55c0,0-6.355-0.219-10.467-2.776   c-3.416-2.125-6.571-5.028-6.571-5.028l0.264-3.17l3.663-0.038l16.167-11.281l-0.049-2.292l5.216-3.64l2.265,2.297l13.689-9.552   l2.334-0.078l26.507-20.708l-26.708,15.749l-2.019-2.464l-1.679,0.88l-1.268-0.104l-4.341-2.328l0.696,4.366l-5.808,4.197   l-5.224,1.075l-6.779,4.73l-2.425,0.141l-9.213,6.43l-1.933-0.203l-6.172,4.235l-0.41,1.98l-21.167,14.627l-0.848,4.604   l-6.864,5.812L221.367,116.284z"
   id="path336" />
	<path
   display="inline"
   fill="#F1A72E"
   stroke="#000000"
   stroke-width="2"
   d="M226.234,100.922l-10.293-10.773   c0,0,13.514-23.442,15.03-24.123s8.777-1.78,8.777-1.78s-0.283-3.104,1.49-5.137c1.775-2.033,5.746-1.126,5.746-1.126l7.685,7.572   l1.221,4.059l61.424,61.228c0,0-0.494,1.238-1.417,2.174c-0.893,0.906-2.155,1.446-2.155,1.446l-61.36-61.45l-4.063-0.321   l-3.864-2.913c0,0,0.169,4.59-0.192,5.699C243.902,76.585,226.234,100.922,226.234,100.922z"
   id="path338" />
	<path
   display="inline"
   fill="#F1A72E"
   d="M123.889,195.247l-14.237-7.89c0,0,7.273-7.171,15.109-13.488   c7.836-6.315,17.588-11.933,17.588-11.933s-4.985,7.897-9.812,16.604C127.712,187.249,123.889,195.247,123.889,195.247z"
   id="path340" />
	<path
   display="inline"
   fill="#F1A72E"
   d="M404.392,195.386l14.245-7.875c0,0-7.268-7.179-15.097-13.504   c-7.83-6.323-17.577-11.95-17.577-11.95s4.979,7.902,9.797,16.614C400.576,187.384,404.392,195.386,404.392,195.386z"
   id="path342" />
</g>
</svg>