<?xml version="1.0" encoding="UTF-8" standalone="no"?>
<!-- Created with Inkscape (http://www.inkscape.org/) -->

<svg
   width="26.458334mm"
   height="44.628532mm"
   viewBox="0 0 26.458334 44.628532"
   version="1.1"
   id="svg17806"
   inkscape:version="1.1 (c68e22c387, 2021-05-23)"
   sodipodi:docname="Myanmar football crest.svg"
   xmlns:inkscape="http://www.inkscape.org/namespaces/inkscape"
   xmlns:sodipodi="http://sodipodi.sourceforge.net/DTD/sodipodi-0.dtd"
   xmlns:xlink="http://www.w3.org/1999/xlink"
   xmlns="http://www.w3.org/2000/svg"
   xmlns:svg="http://www.w3.org/2000/svg">
  <sodipodi:namedview
     id="namedview17808"
     pagecolor="#ffffff"
     bordercolor="#666666"
     borderopacity="1.0"
     inkscape:pageshadow="2"
     inkscape:pageopacity="0.0"
     inkscape:pagecheckerboard="0"
     inkscape:document-units="mm"
     showgrid="false"
     fit-margin-top="0"
     fit-margin-left="0"
     fit-margin-right="0"
     fit-margin-bottom="0"
     inkscape:zoom="0.76435185"
     inkscape:cx="617.51666"
     inkscape:cy="592.00485"
     inkscape:window-width="1920"
     inkscape:window-height="1017"
     inkscape:window-x="-8"
     inkscape:window-y="-8"
     inkscape:window-maximized="1"
     inkscape:current-layer="layer1" />
  <defs
     id="defs17803" />
  <g
     inkscape:label="Layer 1"
     inkscape:groupmode="layer"
     id="layer1"
     transform="translate(77.267628,8.1219578)">
    <g
       id="g17614"
       transform="matrix(0.10724427,0,0,0.10724427,-85.696548,-13.623621)">
      <g
         id="g17572">
        <path
           id="rect16976"
           style="opacity:1;fill:#ffffff;fill-opacity:1;stroke:none;stroke-width:1;stroke-linecap:round;stroke-miterlimit:4;stroke-dasharray:none;paint-order:fill markers stroke"
           d="m 117.50179,153.01947 c 0,0 0.055,0.51634 0.0664,1.43359 0.0114,0.91726 -0.02,2.23472 -0.18945,3.83789 -0.0847,0.80159 -0.20313,1.67578 -0.36914,2.60547 -0.16602,0.9297 -0.37905,1.91643 -0.65039,2.94531 -0.27135,1.02889 -0.60125,2.10007 -1.00196,3.19922 -0.40071,1.09916 -0.87166,2.22472 -1.42578,3.36524 -0.55411,1.14051 -1.19227,2.29431 -1.92383,3.44726 -0.73156,1.15296 -1.55718,2.30493 -2.49023,3.44141 -0.93305,1.13648 -1.97228,2.25852 -3.13086,3.34961 -1.15858,1.09108 -2.43756,2.15119 -3.8457,3.16797 -1.40815,1.01677 -2.94716,1.99074 -4.62891,2.90429 -1.68175,0.91356 -3.50497,1.76742 -5.48438,2.54883 -1.9794,0.78141 -4.11492,1.48902 -6.41601,2.10938 -2.30109,0.62035 -4.7692,1.1536 -7.41602,1.58398 v 151.14844 c 0,0 0.0489,0.68354 0.20899,1.93164 0.16009,1.2481 0.43231,3.06082 0.8789,5.32031 0.44659,2.25949 1.06824,4.96583 1.92774,8 0.42975,1.51709 0.91793,3.11488 1.47461,4.78125 0.55668,1.66637 1.18144,3.40143 1.88086,5.1875 0.69941,1.78607 1.47408,3.62382 2.33203,5.5 0.85794,1.87618 1.79975,3.78986 2.83203,5.72657 1.03228,1.9367 2.15454,3.89759 3.37695,5.86523 1.22242,1.96763 2.54431,3.94313 3.97266,5.91211 1.42835,1.96898 2.96319,3.93036 4.61328,5.87109 1.65009,1.94074 3.4151,3.85929 5.30273,5.74219 1.88763,1.8829 3.8981,3.72991 6.03907,5.52539 2.14097,1.79548 4.41215,3.54028 6.82226,5.21875 l 83.52149,52.75 81.84374,-50.33789 c 0,0 0.55151,-0.37531 1.52344,-1.11328 0.97192,-0.73797 2.36355,-1.83769 4.04492,-3.2832 1.68137,-1.44552 3.65291,-3.23675 5.78125,-5.35938 1.06417,-1.06131 2.16822,-2.20675 3.29492,-3.43164 1.1267,-1.22489 2.27522,-2.5294 3.43164,-3.91406 1.15642,-1.38466 2.31933,-2.84805 3.47266,-4.38867 1.15333,-1.54063 2.29859,-3.15878 3.41601,-4.85157 1.11743,-1.69278 2.20714,-3.46159 3.25586,-5.30273 1.04872,-1.84115 2.05476,-3.75454 3.00196,-5.74024 0.9472,-1.98569 1.83556,-4.04347 2.64843,-6.16992 0.81287,-2.12645 1.55154,-4.32254 2.19727,-6.58594 0.64573,-2.26338 1.19875,-4.59369 1.64453,-6.99023 0.44578,-2.39654 0.78306,-4.85887 0.9961,-7.38477 l 0.9746,-158.73437 c 0,0 -0.46732,-0.11146 -1.2871,-0.36914 -0.8198,-0.25769 -1.99092,-0.66239 -3.39844,-1.25195 -1.40752,-0.58956 -3.05125,-1.36375 -4.81446,-2.35938 -0.8816,-0.49781 -1.79369,-1.05082 -2.7207,-1.66406 -0.92701,-0.61324 -1.86908,-1.2855 -2.8125,-2.02344 -0.94342,-0.73794 -1.88754,-1.54215 -2.81836,-2.41406 -0.93081,-0.87192 -1.84907,-1.81296 -2.73828,-2.82813 -0.88921,-1.01516 -1.74976,-2.1038 -2.56836,-3.27148 -0.81859,-1.16768 -1.59548,-2.41466 -2.31445,-3.74414 -0.71898,-1.32948 -1.38035,-2.74164 -1.97071,-4.24219 -0.59033,-1.50055 -1.10829,-3.08864 -1.54101,-4.76953 -0.43272,-1.68089 -0.77931,-3.45371 -1.02539,-5.32422 -0.24608,-1.8705 -0.3934,-3.83881 -0.42383,-5.9082 -14.63513,-0.12096 -29.70412,-0.11842 -44.91015,-0.0723 -15.20602,0.0462 -30.54724,0.1353 -45.72656,0.1875 -15.17932,0.0522 -30.19693,0.0677 -44.75195,-0.0352 -7.27752,-0.0514 -14.43984,-0.13159 -21.44922,-0.25195 -7.00939,-0.12037 -13.86664,-0.28079 -20.53321,-0.49024 z" />
        <g
           id="g16952"
           transform="translate(0.14545206)">
          <g
             id="g2764"
             transform="matrix(0.52086974,0,0,0.5389278,93.196214,199.61641)">
            <path
               id="path1193"
               style="fill:#ec0631;fill-opacity:1;stroke-width:0.32"
               d="m 142.40085,71.06702 0.004,0.44141 0.004,0.43945 0.4707,1.76172 0.47266,1.75976 0.35742,3.38867 0.35742,3.38868 -0.34765,3.79882 -0.34766,3.80079 -0.86328,4.77539 -0.86328,4.77343 0.35742,2.08399 0.35742,2.08398 1.02735,2.08985 1.02929,2.08984 1.98438,1.94336 1.98242,1.94336 2.20898,1.17383 2.20899,1.17382 4.47851,1.33204 4.48047,1.33203 3.25,1.26562 3.25,1.26563 2.57227,1.54687 2.57226,1.54688 1.66016,1.32031 1.6582,1.32227 h 0.2793 0.27734 v -0.41797 -0.41602 l -1.07226,-3.18359 -1.07227,-3.1836 -1.13671,-2.8789 -1.13868,-2.88086 -0.38672,-2.36524 -0.38671,-2.36718 0.21484,-2.1875 0.2168,-2.1875 0.63476,-2.29102 0.63477,-2.29297 0.42578,-0.8125 0.42578,-0.8125 -2.75586,-1.62109 -2.75586,-1.6211 -3.375,-3.36132 -3.37695,-3.35938 -2.90821,-3.8457 -2.9082,-3.84766 -2.0664,-1.91406 -2.06446,-1.91211 -1.80468,-1.07422 -1.80469,-1.07226 -1.86133,-0.75196 -1.86133,-0.75195 -1.34765,-0.2168 z m 41.81445,10.32031 -0.0664,0.0801 -0.0664,0.082 -2.57617,8.31836 -2.57617,8.32031 -0.64454,2.24024 -0.64453,2.24023 -0.21289,1.17969 -0.21094,1.17969 0.36133,1.09375 0.36133,1.09375 0.81445,0.76562 0.81641,0.76758 1.97461,-0.0371 1.97461,-0.0391 2.40039,-0.23047 2.40039,-0.23047 1.91992,1.0293 1.91992,1.02734 1.59961,0.83984 1.59961,0.83985 4.16016,0.0469 4.16016,0.0449 1.5996,0.48633 1.60157,0.48633 0.83008,0.0273 0.83007,0.0293 0.38672,-3.2793 0.38477,-3.28124 0.16015,-0.54297 0.16016,-0.54297 -3.83008,-2.56446 -3.82812,-2.5664 -1.61133,-1.61133 -1.61133,-1.61133 -0.93164,-1.35937 -0.92969,-1.36133 -2.31445,-4 -2.3125,-4 -1.01172,-1.07422 -1.01172,-1.07422 -1.24609,-0.79883 -1.24609,-0.79883 -1.76563,-0.60742 z m 30.35352,12.52734 -0.0586,0.0566 -0.0566,0.0586 0.47266,1.75976 0.47461,1.75977 -0.125,2.39844 -0.125,2.40039 -1.24024,5.02734 -1.24218,5.02735 0.31054,0.89257 0.3125,0.89258 1.27539,0.36719 1.27344,0.36523 5.05664,0.68555 5.0586,0.68555 0.97851,0.19531 0.98047,0.19727 -0.37695,-0.70508 -0.37696,-0.70313 0.0996,-0.40625 0.0996,-0.40429 9.28125,1.50195 9.2793,1.50391 0.76172,0.0391 0.76172,0.0391 -0.18946,-1.17383 -0.1914,-1.17187 -1.04102,-1.07617 -1.04297,-1.07618 -4.00976,-1.26172 -4.00781,-1.26171 -2.66016,-1.28711 -2.6582,-1.28711 -1.50196,-1.00391 -1.5,-1.00195 -4.32031,-4.36914 -4.32031,-4.3711 -2.7168,-1.64648 z m 36.04687,14.73047 -0.42773,1.01172 -0.42774,1.01172 0.0195,1.75977 0.0195,1.75976 0.51757,0.98047 0.51758,0.97852 0.98828,0.96679 0.98829,0.96485 2.79492,1.52539 2.79492,1.52539 2.60937,1.73047 2.61133,1.73047 0.99414,1.5 0.99219,1.5 0.33789,1.25195 0.33594,1.25 -0.01,2.60742 -0.01,2.60938 -0.7793,3.03906 -0.78125,3.04101 -1.15039,2.66797 -1.15039,2.66797 v 0.17188 0.16992 l 3.11914,-2.81641 3.12109,-2.8164 2.82422,-2.74219 2.82422,-2.74414 0.80273,-1.5625 0.80274,-1.56445 0.17383,-1.67774 0.17383,-1.67773 -0.8086,-1.76563 -0.80859,-1.76562 -1.26953,-1.26954 -1.27149,-1.27148 -1.7207,-1.29297 -1.72266,-1.29492 -5.4414,-3.48242 -5.43946,-3.48242 -3.57226,-2.59766 z m -110.45508,3.07618 v 2.74414 2.74414 l -0.51171,3.44922 -0.51368,3.44921 0.13672,3.36133 0.13672,3.35938 0.64649,1.75976 0.64648,1.75977 0.19727,0.48047 0.19726,0.48047 -1.60742,1.23828 -1.60742,1.23828 0.16211,0.42187 0.16211,0.42383 1.61914,2.22461 1.61718,2.22461 0.98047,2.09375 0.98047,2.0957 0.1836,1.7793 0.18359,1.7793 h -0.44531 -0.44336 l -5.40235,-0.97071 -5.40234,-0.97265 -0.11914,0.12109 -0.12109,0.11914 2.85742,5.9336 2.85937,5.93554 1.58203,3.63672 1.58399,3.63672 0.96875,3.04102 0.96875,3.03906 0.40039,2.50586 0.39844,2.5039 -0.18555,4.61524 -0.1875,4.61523 0.30273,4.00586 0.30274,4.00391 0.65625,3.39648 0.65625,3.39649 1.10547,3.39843 1.10547,3.39844 1.88867,3.83985 1.88867,3.84179 1.50781,2.23828 1.50586,2.24024 1.79688,2.05859 1.79882,2.0586 2.32422,1.84765 2.32618,1.84961 2.11523,1.18164 2.11523,1.1836 2.35157,0.91211 2.34961,0.91406 2.16992,0.50195 2.16992,0.50391 3.04102,0.41601 3.04101,0.41797 0.92773,0.0371 0.92774,0.0371 -2.17969,-1.64844 -2.17773,-1.65039 -2.39258,-2.26953 -2.39258,-2.27148 -1.98633,-2.5586 -1.98633,-2.56054 -1.10156,-1.91993 -1.10156,-1.91992 -0.85352,-1.92773 -0.85351,-1.92578 -0.52149,-1.91407 -0.51953,-1.91211 -0.18164,-3.65234 -0.18164,-3.65234 0.43945,-4.1875 0.43946,-4.18946 -0.01,-3.19921 -0.008,-3.19922 -0.42188,-1.76172 -0.42187,-1.75977 -0.93359,-1.99023 -0.9336,-1.99219 -1.50976,-1.53711 -1.50782,-1.53906 -3.47851,-2.39063 -3.47852,-2.39062 -1,-1.39258 -1.00195,-1.39258 0.01,-2.44726 0.008,-2.44727 0.55664,-1.03515 0.55469,-1.03321 0.93945,-0.48633 0.93945,-0.48437 h 1.11133 1.11328 l 0.69531,-0.88086 0.69532,-0.87891 -0.12696,-2.88086 -0.12695,-2.88086 -0.86328,-1.87109 -0.86133,-1.87109 -1.26562,-1.51368 -1.26563,-1.51171 -1.26953,-2.37696 -1.26758,-2.375 -0.84961,-2.71875 -0.84765,-2.7207 -0.65625,-3.83984 -0.65625,-3.83985 0.16406,-4 0.16406,-4 0.54688,-1.75586 0.54687,-1.7539 -1.89062,-1.76563 -1.89063,-1.76562 -2.62305,-2.35352 z m 45.59961,0.0312 -2.08007,0.65429 -2.08008,0.6543 -0.48047,0.008 -0.47852,0.01 -0.41015,0.25976 -0.40821,0.25977 1.47657,6.20312 1.47851,6.20313 0.58594,1.13281 0.58594,1.13086 1.54492,1.48047 1.54687,1.48047 1.43946,0.8125 1.43945,0.81445 1.2793,0.31445 1.28125,0.31446 0.875,0.19726 0.875,0.19532 2.80468,2.41406 2.80469,2.41406 1.67969,1.11719 1.67773,1.11719 2.15821,1.01171 2.16015,1.00977 1.92188,0.55078 1.92187,0.55078 2.44727,0.0234 2.44531,0.0215 2.03516,-0.6289 2.0332,-0.62891 1.68164,-1.0625 1.68164,-1.06055 -4.24219,-1.55273 -4.24218,-1.55273 -2.45508,-1.22852 -2.45703,-1.22852 -1.14453,-1.17773 -1.14453,-1.17969 -0.34961,-1.29492 -0.34961,-1.29687 0.19922,-1.2461 0.20117,-1.24804 0.48828,-0.94532 0.48828,-0.94531 1.08984,-1.20508 1.08789,-1.20508 0.30078,-0.78906 0.29883,-0.79101 -0.39843,-0.94532 -0.4004,-0.94726 -1.45507,-1.33594 -1.45508,-1.33789 -1.36133,-0.69336 -1.36133,-0.69531 -1.31054,-0.47266 -1.31055,-0.47265 -4.9082,-0.26758 -4.90821,-0.26953 -2.29101,-1.11719 -2.29297,-1.11719 -1.11914,-0.20898 z m 48.48047,6.43554 v 0.3418 0.3418 l 1.45117,1.78125 1.45118,1.78125 -0.13672,0.13476 -0.13477,0.13672 -6.62109,-0.52734 -6.61914,-0.52735 -0.17188,0.17188 -0.17187,0.17383 -0.76367,4.0957 -0.76172,4.0957 -0.20899,2.17383 -0.20703,2.17188 0.43555,0.81445 0.43554,0.81445 0.9668,0.5 0.9668,0.5 h 2.16406 2.16602 v 1.5293 1.53125 l 0.51758,0.51758 0.51953,0.51953 0.92773,0.18555 0.92774,0.18554 0.14843,0.24024 0.15039,0.24218 -2.0625,0.51758 -2.06054,0.51758 h -1.31641 -1.31445 l -0.61524,0.33008 -0.61523,0.32812 -0.50781,0.98047 -0.50586,0.97852 0.16406,0.42969 0.16406,0.42773 1.37891,0.32812 1.3789,0.32813 2.29688,-0.13867 2.29687,-0.14063 2.08594,-0.78515 2.08594,-0.78516 1.85742,-1.18555 1.85742,-1.1875 1.30469,-1.15429 1.30664,-1.1543 2.375,-2.69922 2.37305,-2.69922 2.40039,-1.91015 2.40039,-1.91016 1.91992,-0.91016 1.91992,-0.91015 h 1.21485 1.21679 l 0.90625,0.46679 0.90625,0.46875 0.8086,0.96289 0.81054,0.9629 0.34766,1.625 0.34961,1.625 0.0254,2.30273 0.0254,2.30469 0.72852,-1.59961 0.72656,-1.59961 0.41015,-1.72266 0.40821,-1.72461 -0.19727,-2.10156 -0.19531,-2.09961 -0.8125,-1.66211 -0.8125,-1.66015 -1.4043,-1.29493 -1.40625,-1.29492 -1.54882,-0.77539 -1.54883,-0.77539 -1.59961,-0.52148 -1.59961,-0.51954 -3.03906,-0.63085 -3.04102,-0.62891 -5.22852,-0.81445 -5.22851,-0.81446 h -0.61133 z m -18.22851,1.875 -0.67774,0.10352 -0.67773,0.10156 -0.77735,1.91992 -0.77929,1.91992 -0.94922,1.82813 -0.95117,1.82617 v 1.32422 1.32617 l 0.52734,1.10938 0.52539,1.10742 1.21289,1.01953 1.21289,1.01758 2.82032,1.6582 2.82226,1.6582 0.0801,0.0234 0.0801,0.0215 v -0.42579 -0.42578 l -1.56055,-1.00976 -1.56055,-1.01172 -0.38086,-0.92188 -0.38086,-0.92187 0.47071,-1.08008 0.47265,-1.08203 1.47657,-1.75977 1.47656,-1.75976 0.36133,-1.18945 0.35937,-1.18946 -0.55078,-1.4414 -0.55078,-1.44141 -0.92773,-0.7832 -0.92969,-0.78125 -1.12305,-0.36914 z m -61.44532,1.59571 0.15039,1.38476 0.15235,1.38477 0.52148,4.1582 0.52344,4.16016 0.91797,3.75976 0.91797,3.76172 1.09375,2.83203 1.0957,2.83399 0.70899,1.40625 0.71093,1.4082 1.76172,2.7207 1.76172,2.71875 1.63867,1.89844 1.63867,1.89844 2.02149,1.66797 2.02344,1.66992 2,0.98437 2,0.98633 1.73828,0.48633 1.73633,0.48828 2.08007,-0.13672 2.08008,-0.13476 2.83594,-1.02735 2.83594,-1.02734 1.95703,-1.31641 1.95703,-1.3164 0.9668,-1.38868 0.96679,-1.38867 -0.0156,-2.61133 -0.0137,-2.61132 -1.03516,-2.60743 -1.03516,-2.60546 -1.29882,-2.00977 -1.30079,-2.01172 -1.74414,-1.70312 -1.74414,-1.70313 -2.3125,-1.56055 -2.3125,-1.56054 -3.19336,-1.59766 -3.19336,-1.59961 -5.75976,-2.64062 -5.75977,-2.64258 -3.36133,-1.70703 -3.35937,-1.70899 -1.67773,-0.99609 z m 152.29688,5.0957 -3.91211,0.86523 -3.91016,0.86524 -4.80078,1.77539 -4.80078,1.77344 -3.51953,1.09179 -3.51953,1.09375 -1.31641,0.63281 -1.3164,0.63086 -4.60352,4.0879 -4.60351,4.08593 -3.83985,3.31641 -3.83984,3.3164 -1.91992,1.43555 -1.91993,1.43555 -2.00781,0.91992 -2.00586,0.91992 -2.15429,0.50977 -2.15235,0.50976 -3.36133,0.004 -3.35937,0.004 -2.86328,-0.54102 -2.86524,-0.54297 -4.65234,-1.58203 -4.65235,-1.58203 -2.5625,-0.47266 -2.56445,-0.47265 -5.58984,-0.50196 -5.58985,-0.50195 -2.22656,-0.46875 -2.22656,-0.46875 -0.2168,0.34961 -0.21484,0.34961 -0.22461,6.36328 -0.22266,6.36328 0.33985,1.26563 0.33984,1.26367 1.48242,1.65039 1.48242,1.64844 1.88477,0.95117 1.88281,0.94922 1.83008,0.46289 1.83008,0.46289 4.79883,-0.11133 4.80078,-0.11133 3.19922,-0.85937 3.20117,-0.86133 6.48047,-2.55274 6.48047,-2.55468 6.22851,-2.04492 6.22852,-2.04688 2.75,-1.28906 2.75,-1.28906 2.23242,-1.48438 2.23047,-1.48242 3.95312,-3.75195 3.95313,-3.75196 2.35547,-1.16406 2.35742,-1.16211 2.24023,-0.52539 2.24024,-0.52539 3.03906,0.1543 3.04102,0.15429 0.53125,0.22071 0.53125,0.22265 1.66406,-3.30469 1.66406,-3.30273 1.42578,-2.15625 1.42774,-2.1582 1.84961,-1.8418 1.8496,-1.84375 2.02149,-1.18945 2.02344,-1.18946 -0.54297,-0.20703 z m 6.53125,2.63476 -1.49024,0.50782 -1.49023,0.50781 -2.80664,2.44141 -2.80664,2.4414 -1.67188,1.72461 -1.67187,1.72656 -1.1875,1.78907 -1.1875,1.78906 -0.41992,1.2168 -0.41797,1.21679 0.41406,1.19922 0.41406,1.19922 1.69532,2.64062 1.69336,2.64063 h 0.24804 0.24805 l 0.85937,-2 0.85938,-2 0.99219,-1.65234 0.99218,-1.65235 0.83008,-0.38672 0.83008,-0.38867 1.00391,-0.42969 1.00586,-0.42968 0.7207,1.92578 0.7207,1.92773 -0.39843,1.3418 -0.39649,1.34375 -2.24023,5.70508 -2.24219,5.70312 0.73828,0.78711 0.73828,0.78516 1.75,0.50781 1.74805,0.50781 2.39062,-0.15234 2.39063,-0.1543 0.53125,-0.70508 0.5332,-0.70703 2.0625,-4.77148 2.0625,-4.77149 0.27539,-0.008 0.27539,-0.008 -0.125,2.32031 -0.125,2.32031 -1.38281,2.98047 -1.38281,2.98047 0.11328,0.0996 0.11133,0.0977 1.28125,0.65039 v 0.002 l 1.27929,0.64844 0.90625,-1.96875 0.9043,-1.96875 0.99414,-2.88086 0.9961,-2.87891 0.0195,-3.68164 0.0195,-3.67969 -0.74414,-2.35937 -0.7461,-2.36133 -0.63476,-3.70508 -0.63282,-3.70507 -0.6582,-1.52735 -0.65625,-1.52734 -1.36914,-1.26172 -1.37109,-1.26367 -1.23438,-0.3418 -1.23242,-0.34375 -1.46289,-0.002 z m -61.36328,3.83985 -1.78516,1.83984 -1.78515,1.83985 -0.73633,1.57421 -0.73828,1.57227 -0.0137,1.65625 -0.0156,1.65625 0.38281,1.16016 0.38281,1.16015 0.9629,0.81055 0.96289,0.81055 h 1.23632 1.23438 l 0.78515,-0.29883 0.78516,-0.29883 1.21289,-1.06055 1.21289,-1.0625 1.35156,-2.8789 1.35157,-2.88086 -0.84961,-1.56641 -0.84961,-1.5664 -1.15039,-1.23438 -1.15039,-1.23242 h -1.39258 z m -9.28125,10.32422 -2.9668,1.95703 -2.9668,1.95898 -0.008,0.17969 -0.008,0.18164 1.19922,0.58398 1.19922,0.58594 2.87109,1.25782 2.86914,1.25585 1.76953,0.43165 h 0.002 l 1.76953,0.42968 1.9414,0.0274 1.94336,0.0254 1.6211,-0.48047 1.62304,-0.48242 1.23633,-1.23829 1.23438,-1.23632 0.72851,-1.29688 0.72656,-1.29883 -2.0625,1.38477 -2.06445,1.38281 -1.18164,0.39063 -1.17969,0.39062 -1.23828,-0.16601 -1.23633,-0.16602 -1.51953,-0.73633 -1.51758,-0.73437 -2.39257,-2.29492 z m -46.40235,1.75195 0.55664,0.76172 0.55665,0.76172 0.68554,1.43945 0.68555,1.44141 0.13867,1.62109 0.13867,1.62109 -0.375,1.8086 -0.375,1.80859 -0.95898,1.91602 -0.95703,1.91797 -1.5586,1.40039 -1.55859,1.40234 -2.18359,1.14063 -2.18164,1.14062 -2.72071,0.94336 -2.7207,0.94531 -2.95898,0.72266 -2.96094,0.72266 v 0.23632 0.23633 l 2.30273,1.0625 2.30274,1.06055 1.77734,0.58594 1.77734,0.58789 3.04102,-0.0957 3.03906,-0.0937 2.16797,-1.07422 2.16797,-1.07421 1.83203,-1.96094 1.83203,-1.95899 1.00781,-1.91211 1.00782,-1.9121 0.875,-2.48438 0.875,-2.48438 -0.17774,-3.91601 -0.17773,-3.91406 -0.39453,-1.18946 -0.39453,-1.1875 -0.91602,-0.87695 -0.91602,-0.87695 -2.14062,-0.13672 z m 91.17188,1.94531 -2.15625,0.78906 -2.1582,0.78711 -1.8418,1.08008 -1.84375,1.08203 -4.47852,4.49805 -4.48046,4.5 -1.91993,1.29688 -1.91992,1.29687 -1.60156,0.79883 -1.59961,0.80078 -2.08008,0.66797 -2.08008,0.66797 -1.89843,0.33593 -1.89844,0.33594 -2.74024,0.006 -2.74218,0.004 -0.44532,0.2832 -0.44531,0.28125 0.2207,1.94141 0.21875,1.94336 -2.63476,1.32422 -2.63281,1.32421 -3.06055,0.78516 -3.06055,0.78516 -3.35937,0.18164 -3.36133,0.18164 -3.67969,-0.59961 -3.67969,-0.60156 h -3.09375 -3.09375 l -0.17773,0.17968 -0.17969,0.17969 1.45508,3.4336 1.45703,3.43359 0.49024,2.4668 0.49218,2.46679 0.95899,2.03516 0.95703,2.0332 1.91406,1.88672 1.91602,1.88477 h -0.29688 -0.29883 l -1.86328,-0.64063 -1.86132,-0.64062 -0.11133,0.11132 -0.11133,0.11133 1.14258,4.73242 1.14062,4.73438 0.77344,3.79492 0.77344,3.79688 0.69336,1.61523 0.69531,1.61328 1.24805,1.06836 1.24804,1.06836 1.50586,0.38477 1.50586,0.38476 0.5957,0.22461 0.59375,0.22461 -1.3457,1.21484 -1.34375,1.21485 0.75,0.82031 0.75,0.81836 2.44141,1.82422 2.43945,1.82422 3.16016,1.62304 3.16015,1.62305 2.20117,0.82813 2.20118,0.82812 3.02343,0.82422 3.02344,0.82422 3.55274,0.61719 3.55078,0.61914 0.14258,0.14258 0.14257,0.14257 0.59375,2.13867 0.5918,2.14063 0.14258,0.14063 0.14062,0.14257 2.39844,-1.61718 2.39649,-1.61915 0.3789,-0.0898 0.37891,-0.0879 1.66797,4.06641 1.66797,4.0664 1.29101,-1.29101 1.29102,-1.29102 4.72656,3.67774 4.72461,3.67968 1.88086,1 1.8789,1.00196 1.36524,0.28906 v 0.002 l 1.36523,0.28906 2.24024,-0.12304 2.24023,-0.12305 1.66797,-0.36719 1.66797,-0.36523 1.05273,-0.70899 1.05078,-0.70703 0.68555,-1.26953 0.68555,-1.26758 0.19531,-0.65234 0.19531,-0.65234 -3.4414,-0.004 -3.43946,-0.006 -1.91992,-0.41992 -1.91992,-0.41992 -2.29102,-0.90821 -2.29101,-0.9082 -2.28125,-1.36523 -2.2832,-1.36719 -2.62696,-2.13086 -2.62695,-2.13086 -5.70117,-5.4668 -5.69922,-5.46679 -2.18945,-1.45313 -2.1875,-1.45508 -1.72071,-0.76172 -1.7207,-0.76171 -5.43164,-1.97266 -5.42969,-1.97266 -2.27344,-1.09179 -2.27539,-1.0918 -1.6582,-1.49219 -1.66016,-1.49219 -0.92382,-1.34374 -0.92578,-1.34571 -0.70704,-2.05273 -0.70507,-2.05469 0.0117,-2.87891 0.0117,-2.88086 0.83399,-2.60156 0.83593,-2.60156 1.64258,-2.51758 1.64453,-2.51953 2.92383,-2.87891 2.92578,-2.88086 2.64063,-1.91992 2.64062,-1.91992 8.54883,-5.51758 8.54883,-5.51953 4.64063,-2.37305 4.63867,-2.37304 2.81836,-1.16211 2.8164,-1.16406 2.5,-0.36329 2.5,-0.36523 2.25196,0.40234 2.25,0.40235 1.87304,0.89062 1.8711,0.88867 3.4707,2.61133 3.4707,2.60938 2.20313,1.28906 2.20508,1.28711 2.06445,0.92578 2.06445,0.92578 3.47461,1.12305 3.47266,1.12305 3.23828,0.66015 3.23633,0.66016 h 0.16601 0.16602 l 0.96094,-1.67969 0.95898,-1.68164 -0.66602,-3.09961 -0.66796,-3.10156 -1.39844,0.96289 -1.40039,0.96289 -1.66992,0.76367 -1.66993,0.76367 -2.39843,0.3711 -2.40039,0.37109 -2.33399,-0.21094 -2.33398,-0.21093 -2.14649,-0.65821 -2.14648,-0.65625 -1.85352,-0.98047 -1.85351,-0.98047 -1.69336,-1.82812 -1.69336,-1.83008 -0.55469,-2.03906 -0.55469,-2.03906 -1.32226,-3.75977 -1.32422,-3.75976 h -0.41602 -0.41406 l -0.0371,1.19921 -0.0391,1.20118 -0.20117,0.92773 -0.20313,0.92969 -1.3789,-1.9668 -1.37891,-1.96875 -1.125,-0.85742 -1.12305,-0.85547 -1.65625,-0.13476 z m 0,12.7793 -2.08008,0.51953 -2.08008,0.51758 -5.43945,2.70312 -5.43945,2.70118 -3.92188,2.25195 -3.91992,2.25195 -3.2793,2.20508 -3.27929,2.20313 -3.03907,2.33593 -3.04101,2.33594 -4.18555,4.1875 -4.18555,4.18555 -1.35351,2.73437 -1.35547,2.73633 -0.35742,2.30273 -0.35547,2.30469 0.36719,1.98047 0.36914,1.98047 0.8125,1.66016 0.81054,1.6582 1.35352,1.53906 1.35547,1.53711 1.82031,1.17773 1.82227,1.17774 1.70117,0.65625 1.70117,0.65625 3.17188,0.99414 3.17382,0.99414 3.05274,1.44727 3.05273,1.44531 3.17578,2.11328 3.17579,2.11328 3.39843,3.40039 3.39844,3.39844 2.45313,2.60937 2.45507,2.60938 2.34571,1.65625 2.3457,1.6543 1.58984,0.8125 1.58789,0.81054 2.08789,0.78711 2.08985,0.78516 1.60156,0.43359 h 0.002 l 1.60157,0.43164 2.49218,0.0215 2.49414,0.0215 1.26563,-0.64648 1.26758,-0.64649 0.81445,-1.23242 0.81641,-1.23047 0.62695,-1.65234 0.62695,-1.65039 -0.40234,-0.125 -0.40234,-0.12695 -4.79883,-0.20313 -4.80078,-0.20117 -3.36133,-0.4375 -3.36328,-0.43555 -1.71485,-0.67578 -1.71289,-0.67578 -1.38672,-0.95313 -1.38672,-0.95507 -1.99804,-2.23047 -1.99805,-2.23242 -1.7793,-1.17383 -1.77929,-1.17578 -1.83008,-1.40039 -1.83008,-1.40235 -1.16016,-1.75 -1.1621,-1.74805 -1.47657,-1.30078 -1.47851,-1.30078 -2.25196,-1.06836 -2.25,-1.07031 -4.80078,-1.50391 -4.79882,-1.50586 -2.36719,-1.12109 -2.36719,-1.12305 -1.43945,-1.32226 -1.44141,-1.32227 -0.43164,-1.03125 -0.43359,-1.02929 0.004,-1.20899 0.002,-1.21094 0.76953,-1.65429 0.76953,-1.65235 1.76562,-1.91992 1.76563,-1.91992 0.50195,-0.9707 0.50195,-0.97071 v -0.44922 -0.44726 l -0.79101,-1.48828 -0.79102,-1.48828 h 0.26172 0.25977 l 1.76953,0.60937 1.76953,0.60938 5.88086,-3.84766 5.88086,-3.84766 5.87109,-3.67578 5.87305,-3.67578 3.24805,-1.55078 3.24804,-1.55078 3.95899,-1.32227 3.95898,-1.32422 1.4375,0.36329 1.4375,0.36132 1.96289,0.98633 1.96289,0.98438 6.60157,3.63086 6.60156,3.6289 4.42187,2.25196 4.41992,2.25 h 1.00782 1.00781 l 0.5,-0.56055 0.5,-0.5586 0.83008,-2.05468 0.82812,-2.05469 -0.13086,-0.13086 -0.13086,-0.13086 -3.97265,-1.07812 -3.97266,-1.07813 -2.63086,-0.96094 -2.63086,-0.95898 -4.23437,-2.19922 -4.23438,-2.19922 -3.82422,-2.52344 -3.82226,-2.52539 -1.91406,-0.77343 -1.91211,-0.77149 -2.57422,-0.16015 z m -125.99805,3.9082 0.13477,2.81055 0.13281,2.80859 0.70117,1.43555 0.70117,1.43555 2.69922,2.75781 2.69727,2.75586 1.12695,2.23828 1.12695,2.23633 0.54493,2.68554 0.54687,2.6875 -0.41601,6.90821 -0.41602,6.91015 0.1875,4.44922 0.1875,4.45118 0.82227,3.19726 0.82422,3.19727 1.12695,2.375 1.12695,2.375 1.41992,1.98828 1.41992,1.99023 2.15821,1.97656 2.16015,1.97852 2.34766,1.46484 2.34961,1.46289 2.92383,1.26172 2.92187,1.25977 2.90235,0.76953 2.90039,0.77148 2.23828,0.28516 2.24023,0.28516 2.49414,0.041 2.49219,0.041 3.10742,-0.33789 3.10743,-0.33789 3.63085,-0.80469 3.63282,-0.80664 3.96093,-1.26563 3.96094,-1.26757 3.44727,-1.45508 3.44726,-1.45703 0.7793,-0.3086 0.78125,-0.30859 -0.94141,-0.57031 -0.93945,-0.56836 -2.62109,-1.36133 -2.61914,-1.36133 -2.66016,1.30664 -2.66016,1.3086 -2.44531,0.61523 -2.44531,0.61719 -2.99414,0.21484 -2.99414,0.21484 -3.8125,-0.3789 -3.8125,-0.38086 -2.34766,-0.59961 -2.34765,-0.60156 -3.48633,-1.78321 -3.48438,-1.78125 -3.3457,-2.21093 -3.3457,-2.20899 -2.12696,-2.29687 -2.12695,-2.29883 -1.04297,-2.11524 -1.04101,-2.11718 v -3.25196 -3.25 l 0.60937,-0.67578 0.60937,-0.67578 h 0.75977 0.76172 l 1.16406,0.48633 1.16602,0.48828 0.93359,-0.88672 0.93555,-0.88672 0.79101,-1.55078 0.79102,-1.55078 0.6543,-2.44922 0.65234,-2.44922 0.0234,-3.52148 0.0234,-3.51953 -0.55274,-1.2793 -0.55273,-1.28125 -0.78907,-1.14258 -0.78906,-1.14453 -1.19531,-0.66797 -1.19727,-0.66797 -1.43945,-0.20507 -1.43945,-0.20313 -2.28907,0.43945 -2.28906,0.44141 -0.21289,-1.98828 -0.21289,-1.99024 -0.89062,-1.875 -0.89258,-1.875 -1.59571,-1.48632 -1.59765,-1.48633 -1.08985,-0.56446 -1.08984,-0.5664 -2.58008,-1.01367 -2.57812,-1.01367 -2.82032,-1.66016 z m 46.44336,6.57032 -1.82226,0.006 -1.82227,0.006 -8.87891,3.35157 -8.87695,3.35156 1.52149,0.51758 1.52148,0.51758 1.38672,0.70703 1.38672,0.70703 1.43359,1.43359 1.4336,1.43359 0.96679,2.06446 0.96485,2.06445 0.17578,2.54492 0.17382,2.54493 -0.39453,2.00976 -0.39648,2.01172 -0.94141,2.08398 -0.9414,2.08399 -2.87891,4.34961 -2.88086,4.34961 -0.18555,1.15039 -0.1875,1.15234 1.20704,2.17969 1.20507,2.17969 2.75391,2.72851 2.75195,2.72852 2.5586,1.31054 2.56054,1.3125 1.75977,0.57618 1.75976,0.57617 2.08008,0.18359 2.08008,0.1836 2.08008,-0.21875 2.08008,-0.21875 1.42968,-0.51172 1.42969,-0.51172 1.31641,-0.77149 1.31836,-0.77148 1.20898,-1.33984 1.20899,-1.3379 0.93359,-1.99609 0.93555,-1.99609 0.18554,-1.57617 0.1875,-1.57618 -0.39257,-1.90625 -0.39063,-1.9082 -0.80273,-2.55859 -0.80274,-2.56055 -1.55078,-3.44336 -1.55078,-3.44336 -0.53125,-1.67773 -0.53125,-1.67578 -0.2207,-4.64063 -0.22266,-4.63867 -0.82617,-1.60156 -0.82813,-1.59961 -0.85742,-0.79883 -0.85937,-0.80078 -1.56836,-3.05274 -1.56836,-3.05078 -1.14258,-1.10937 z m 84.78906,0.38476 -0.69726,0.69531 -0.69727,0.69727 -0.10742,6.79101 -0.10937,6.79297 0.14843,-0.16015 0.14649,-0.16016 3.82617,-5.62891 3.82617,-5.62695 -1.77539,-1.31055 -1.77344,-1.31054 -1.39453,-0.39063 z m -6.54492,2.33594 -0.38476,0.38281 -0.38477,0.38477 v 0.87109 0.87305 l 0.37305,1.60937 v 0.002 l 0.37109,1.61133 0.2207,-0.13672 0.22071,-0.13671 1.0625,-2.4375 1.0625,-2.4375 -0.45508,-0.28907 -0.45508,-0.28711 -0.8164,-0.006 z m -2.33203,1.61719 -1.13867,0.4707 -1.13867,0.47265 -1.09961,0.45508 -1.09961,0.45508 0.8418,2.56445 0.84179,2.56641 1.19141,-2.84766 1.19336,-2.84765 0.20508,-0.64453 z m 18.43945,1.56054 -0.1582,0.15625 -0.15625,0.15821 -0.55859,2.73242 -0.5586,2.73437 h 0.25196 0.25195 l 1.92578,-2.3164 1.92774,-2.31641 -1.4629,-0.57422 z m -25.84179,2.20703 -1.03711,0.60352 -1.03711,0.60156 -0.0977,0.99219 -0.0976,0.99219 0.53906,1.23242 0.54101,1.23242 0.85743,-2.71875 0.85937,-2.7207 -0.26367,-0.10742 z m 31.67773,0.01 -0.55273,0.10547 -0.55274,0.10742 -0.23632,1.75586 -0.23633,1.75586 -0.16211,0.96094 -0.16406,0.95898 0.94335,-1.11914 0.94336,-1.12109 0.37696,-0.89453 0.3789,-0.89258 -0.36914,-0.8086 z m 2.88867,1.66797 v 3.0293 3.02734 h 0.28321 0.2832 l 1.35937,-2.25 1.35938,-2.25 -0.12891,-0.12891 -0.13086,-0.13086 -1.51367,-0.64843 z m -39.30078,0.57031 -1.07031,0.54102 -1.07031,0.54297 -0.5586,0.49023 -0.56054,0.49219 v 0.58398 0.58399 l 0.52343,1.30664 0.52149,1.30664 0.22266,-0.25977 0.22265,-0.26172 1.06055,-2.48633 1.06054,-2.48632 -0.17578,-0.17774 z m 45.65039,1.58984 -0.16211,0.16211 -0.16211,0.16211 -1.41406,6.32617 -1.41211,6.32422 v 0.26172 0.25977 h 0.20703 0.20703 l 1.35547,-1.10938 1.35547,-1.11133 1.1836,-1.7832 1.18359,-1.7832 1.41602,-3.23633 1.41601,-3.23828 -0.10351,-0.10352 -0.10352,-0.10351 -2.48437,-0.51367 z m -62.8164,6.76758 -2.33399,4.86719 -2.33203,4.86719 0.40625,0.39843 0.40625,0.4004 2.39844,1.75781 2.40039,1.75781 0.48047,-0.0606 0.48047,-0.0586 1.11914,-2.23242 1.12109,-2.23242 -0.0117,-2.08789 -0.01,-2.08789 -0.58399,-1.11915 -0.58398,-1.12109 -1.47852,-1.52344 z m -120.49414,7.04883 v 0.10156 0.10352 l 0.50781,1.73828 0.50781,1.73633 0.7832,1.35742 0.78321,1.35547 1.18945,0.81445 1.18945,0.81445 1.2793,-0.0898 1.2793,-0.0918 -0.0254,-1.5996 -0.0254,-1.59961 -0.70704,-2.32032 -0.70898,-2.32031 h -3.02539 z m 146.67187,6.91797 -0.55664,2.79883 -0.55469,2.79687 -0.97461,3.18946 -0.97265,3.1875 0.21679,0.875 0.2168,0.875 1.80469,1.75195 1.80469,1.7539 0.42382,-1.43359 0.42383,-1.43164 0.18555,-2.56055 0.18359,-2.56054 -0.50586,-2.87891 -0.50586,-2.88086 -0.59375,-1.74023 z m -12.91211,0.94727 -1.59961,1.57617 -1.59961,1.57422 v 0.21289 0.21093 l 1.51953,0.66993 1.51954,0.66992 0.0801,0.0117 0.0801,0.01 v -2.46875 z m -125.62695,1.74023 -2.70703,0.37695 -2.70508,0.37696 -0.10352,0.0703 -0.10351,0.0703 0.86133,1.82227 0.86132,1.82031 1.00196,0.43359 1.00195,0.4336 0.64063,-0.16602 0.63867,-0.16601 0.88086,-0.3379 0.8789,-0.33593 v -0.46094 -0.45899 l -0.36328,-1.50195 -0.36328,-1.50195 -0.20898,-0.23633 z m 131.86719,0.56836 -1.61133,2.36523 -1.61133,2.36719 1.61133,1.17188 1.61133,1.16992 0.24023,0.0156 0.24024,0.0176 -0.0371,-1.52148 -0.0391,-1.51953 -0.20117,-2.03321 z m 34.24023,4.58203 -0.90234,0.86133 -0.90039,0.86328 -1.09571,2.24023 -1.09375,2.24024 -1.13086,4.28711 -1.1289,4.28711 -0.75781,1.87304 -0.75586,1.87305 h 1.02539 1.02539 l 1.48828,-0.50781 1.48633,-0.50586 0.99218,-1.12891 0.99024,-1.1289 0.36914,-0.84375 0.37109,-0.84571 0.008,-6.78125 z m -163.51953,1.9043 -1.28125,0.2832 -1.2793,0.28125 -1.81836,0.36523 -1.8164,0.36719 0.48828,1.66211 0.48828,1.66211 0.6543,1.07227 0.65625,1.07226 0.99414,0.60742 0.99414,0.60547 0.79883,-0.002 h 0.80078 l 1.17382,-0.32617 1.17383,-0.32617 0.70117,-0.56836 0.70313,-0.56641 -1.29102,-2.54492 -1.28906,-2.54492 -0.42578,-0.54883 z m -10.35938,0.875 -2.18164,2.2539 -2.17968,2.25391 -0.95118,0.23242 -0.95312,0.23047 -2.21484,-0.37891 -2.21289,-0.38086 -0.14454,0.14454 -0.14453,0.14453 -0.47656,3.14258 -0.47656,3.14257 0.20312,2.08008 0.20313,2.08008 0.35351,1.43945 0.35352,1.44141 0.70508,1.61719 0.70507,1.61914 2.51563,3.96093 2.51367,3.96094 0.21094,2.02735 0.20898,2.02734 1.00196,2.03516 1.0039,2.0371 2.19532,2.07227 2.19531,2.07031 2.87305,1.77735 2.87304,1.77734 2.5293,1.26758 2.5293,1.26953 3.04101,1.13477 3.03906,1.13476 3.20118,0.80664 3.19921,0.8086 3.03907,0.49218 3.04101,0.49024 0.95899,0.11914 0.96093,0.11719 5.75977,0.0488 5.75977,0.0469 4.32031,-0.5 4.32031,-0.49805 4.16016,-0.79687 4.16015,-0.79883 8.16016,-2.10547 8.16016,-2.10352 3.83984,-0.91601 3.83984,-0.91602 7.90625,-1.45117 7.90821,-1.44922 3.61132,-0.32617 3.61329,-0.32617 1.64648,-0.16602 1.64648,-0.16406 0.17969,-1.33984 0.17969,-1.3418 0.21094,-2.4668 0.20898,-2.46484 -1.07617,0.13281 -1.07617,0.13281 -5.2793,0.17188 -5.2793,0.17187 -3.19531,0.48438 -3.19531,0.48437 -12.64453,2.55469 -12.64649,2.55274 -4.16015,0.625 -4.15821,0.625 -3.84179,0.39257 -3.83985,0.39258 -6.24023,-0.0195 -6.23828,-0.0195 -3.8086,-0.67773 -3.80664,-0.67774 -3.28711,-1.09961 -3.28906,-1.10156 -2.02344,-1.01172 -2.02539,-1.01172 -2.65625,-1.75586 -2.65429,-1.75586 -2.16016,-2.1289 -2.1582,-2.12891 -1.30078,-1.91992 -1.30274,-1.91992 -0.89258,-1.76172 -0.89257,-1.75977 -3.9668,-10.06836 -3.96875,-10.07031 -0.12305,-0.12305 z m 152.9043,4.10351 -0.41992,0.46094 -0.41797,0.46094 -1.16797,1.63281 -1.16601,1.63477 1.17578,0.83593 1.17578,0.83789 0.10351,-0.10351 0.10547,-0.10547 0.4668,-2.66406 0.46875,-2.66407 -0.16211,-0.16406 z m -62.57422,2.68164 -2.54492,2.26367 -2.54687,2.26172 -0.48047,0.47266 -0.47852,0.4707 2.24024,-0.8457 2.23828,-0.84375 1.76172,-0.65625 1.75976,-0.6543 0.79102,-0.29297 0.79297,-0.29492 -1.51172,-0.93945 -1.51172,-0.94141 h -0.25391 z m -75.05078,1.54688 -0.38086,0.14258 -0.3789,0.14257 -3.28125,1.07227 -3.2793,1.07227 v 0.23046 0.23243 l 1.95117,3.61914 1.95117,3.62109 1.07422,1.46289 1.07227,1.46094 1.53515,1.42773 1.53516,1.42969 1.24219,0.76172 1.24218,0.76172 1.15821,0.41406 1.1582,0.41406 0.57031,0.0137 0.57032,0.0137 1.18945,-0.49414 1.18945,-0.49219 1.83985,-1.95899 1.83984,-1.95703 v -0.38476 -0.38672 l -2.63867,-1.62695 -2.64063,-1.62696 -2.24023,-1.7832 -2.24024,-1.78516 -1.38476,-1.65429 -1.38477,-1.65235 -0.63476,-1.24609 z m 147.70313,1.33398 -1.69727,2.26758 -1.69727,2.26758 0.10547,0.0937 0.10547,0.0918 1.59961,0.8125 1.59961,0.8125 0.20117,-0.2129 0.19922,-0.21289 0.21094,-2.96093 0.21289,-2.95899 h -0.41992 z m -53.26954,10.34571 -0.99609,3.22656 -0.99414,3.22656 -0.29101,0.76563 -0.29102,0.76562 2.10547,-0.2168 2.10547,-0.21484 1.71289,-0.64063 1.71093,-0.64062 1.4668,-1.11914 1.46485,-1.11914 0.33984,-0.63477 0.33984,-0.63476 -0.41406,-0.11719 -0.41406,-0.11914 -3.92188,-1.26367 z m -4.21874,0.2832 -1.00782,0.26953 -1.00781,0.27148 -9.59961,2.28516 -9.59961,2.28711 -0.0859,0.0801 -0.084,0.0801 -1.10742,3.28906 -1.10742,3.28906 2.3125,-0.21875 2.3125,-0.21875 2.8789,-0.65625 2.88086,-0.65625 3.19922,-1.24805 3.19922,-1.24804 2.24023,-1.53711 2.24024,-1.53906 0.88086,-1.25977 0.88281,-1.25977 0.28516,-1.0039 z m -73.12891,2.45508 -0.20703,1.03515 -0.20703,1.03711 -0.80274,1.3711 -0.80469,1.37109 -1.49023,1.02539 -1.48828,1.02539 -2.22266,0.67774 -2.22461,0.67968 4.1211,1.93946 4.11914,1.9414 2.16211,0.71289 2.16211,0.71289 1.51953,0.25586 1.51758,0.25586 1.59961,0.0312 1.5996,0.0312 2.12696,-0.44922 2.125,-0.45117 1.27539,-0.65039 1.27539,-0.65039 1.30664,-1.48633 1.30859,-1.48633 0.66602,-1.77734 0.66601,-1.7793 -0.14062,-0.36718 -0.14258,-0.36524 -2.99219,-0.39844 -2.99414,-0.39648 -2.40039,-0.48242 -2.40039,-0.48242 -4.07617,-1.27149 -4.07617,-1.27148 -0.43945,-0.16797 z m 48.30859,3.16015 -10.03711,0.68164 -10.03906,0.68164 -2.07812,0.19141 -2.08008,0.18945 -0.0293,1.96485 -0.0293,1.96679 -0.64453,1.45508 -0.64453,1.45703 -1,1.13868 -1,1.13671 0.71289,-0.10742 0.71485,-0.10742 5.67382,-0.81445 5.67383,-0.81641 2.73633,-0.79297 2.73633,-0.79297 2.09961,-0.95117 2.10156,-0.95312 1.96875,-1.41407 1.96875,-1.41211 0.86719,-0.91601 0.86523,-0.91602 -0.26758,-0.43554 z m 44.95899,0.90821 -0.75782,0.94336 -0.75585,0.94336 -1.0918,2.08007 -1.09375,2.08008 -0.54102,2.08008 -0.54101,2.08008 0.15039,3.35937 0.15039,3.36133 1.00195,2.70117 1.00391,2.70117 1.28711,2.16602 1.28711,2.16797 1.86523,2.33203 1.86523,2.33008 10.69532,10.88086 10.69726,10.88086 2.27149,2.93945 2.27343,2.94141 1.39844,2.40625 1.40039,2.40625 0.20703,-0.70703 0.20899,-0.70704 0.0293,-2.08007 0.0312,-2.08008 -0.46485,-3.03907 -0.46289,-3.04101 -0.80469,-2.34375 -0.80273,-2.3418 -1.10938,-2.29687 -1.11132,-2.29688 -1.95899,-3.04101 -1.95898,-3.03907 -0.9375,-1.95703 -0.93555,-1.95508 -0.52148,-2.0332 -0.52149,-2.03125 0.13086,-2.73828 0.13281,-2.73633 1.02735,-2.19922 1.02929,-2.19726 1.65235,-2.03516 1.65039,-2.03711 0.80469,-0.52539 0.80273,-0.52734 -3.49805,-1.1582 -3.5,-1.15821 -2.71875,-1.6582 -2.7207,-1.65625 -1.12109,1.29101 -1.11914,1.29297 -1.63868,-2.03125 -1.64062,-2.02929 -0.83203,-1.59961 -0.83399,-1.60157 -0.40625,-0.50781 -0.4082,-0.50781 -0.7207,-0.38281 -0.71875,-0.38282 -0.72071,0.36719 -0.7207,0.36914 -1.3164,1.26758 -1.31836,1.26758 -1.36524,-2.48828 z m -133.90039,2.35546 -2.64063,0.70508 -2.63867,0.70703 -0.14258,0.36915 -0.14062,0.36718 0.70312,1.89258 0.70313,1.89063 1.19336,1.19921 1.19335,1.20118 h 1.00782 1.00781 l 1.07227,-0.44727 1.07031,-0.44727 0.20508,-0.33203 0.20507,-0.33203 -1.3457,-3.30078 -1.34375,-3.30078 -0.0547,-0.0859 z m 3.48242,8.97071 -2.66016,1.13867 -2.66015,1.13867 -0.11329,0.11524 -0.11523,0.11328 0.38672,0.74804 0.38672,0.7461 0.65429,0.7207 0.65625,0.7207 h 1.00196 1.00195 l 1.66211,-0.83007 1.66211,-0.82813 v -0.30078 -0.30273 l -0.80469,-1.58985 -0.80469,-1.58984 h -0.12695 z m 107.62304,5.54297 -0.0508,0.0293 -0.0527,0.0293 0.60547,3.67969 0.60547,3.67969 0.006,0.0801 0.008,0.0801 1.51953,-0.008 1.51953,-0.006 1.38281,-0.62695 1.38086,-0.62696 2.06055,-1.97851 2.05859,-1.97852 -0.18554,-0.18554 -0.1875,-0.1875 -5.33399,-0.99024 z m -104.35351,0.14648 -2.77539,1.55469 -2.77344,1.55664 -0.01,0.3418 -0.008,0.34375 1.17969,1.37695 1.17969,1.37891 0.98047,0.4414 0.98047,0.44336 1.02539,-0.14062 1.02343,-0.14063 1.08008,-0.51172 1.08008,-0.51367 1.0957,-0.92383 1.09571,-0.92578 -1.88477,-1.70508 -1.88476,-1.70507 -0.69141,-0.43555 z m 100.51367,0.79102 -10.30078,3.55078 -10.30078,3.55078 0.28125,0.33984 0.2832,0.33789 -0.61328,2.71094 -0.61328,2.71094 -0.008,0.39844 -0.008,0.40039 h 0.42188 0.41992 l 1.89844,-0.33594 1.90039,-0.33594 2.07812,-0.66797 2.08008,-0.66992 1.91992,-0.95898 1.92188,-0.95899 1.76953,-1.19922 1.76953,-1.20117 1.94336,-2.07617 1.94141,-2.07812 0.71484,-1.47657 0.71484,-1.47656 -0.10742,-0.2832 z m -126.20898,4.32422 -0.76172,0.18945 -0.75977,0.19141 1.35742,3.96484 1.35743,3.9668 0.64062,1.24218 0.63867,1.24219 1.06836,0.99219 1.06836,0.99414 1.43945,0.97656 1.44141,0.97461 1.00781,1.07227 1.00977,1.07031 2.07227,3.19922 2.07226,3.19922 3.63867,3.54101 3.63867,3.53906 4.27149,2.16797 4.27148,2.16797 2.6543,1.73047 2.65625,1.73047 2.19336,0.98828 2.19336,0.98828 2.8789,0.76758 2.88086,0.76953 2.72071,0.30469 2.71875,0.30664 4.32031,-0.13867 4.32031,-0.13672 3.13086,-0.47656 3.13281,-0.47657 3.42774,-0.83398 3.42773,-0.83398 4.96094,-1.61133 4.95898,-1.61328 4.96094,-1.84571 4.95899,-1.8457 12.32031,-4.87109 12.32031,-4.86915 3.35938,-1.0957 3.36133,-1.09375 3.94726,-0.80273 3.94727,-0.80274 4.65429,-0.48828 4.65625,-0.48633 7.61524,0.0996 7.61523,0.10157 -0.53906,-0.60743 -0.53711,-0.60937 -3.49609,-3.1582 -3.4961,-3.15821 -1.67187,-1.10937 -1.67188,-1.10938 -1.85937,-0.48437 -1.85938,-0.48438 h -1.87304 -1.875 l -4.21875,0.65235 -4.21875,0.65234 -4,0.79687 -4,0.79493 -4.16016,1.14062 -4.16016,1.13867 -10.24023,3.35547 -10.23828,3.35742 -4.23828,1.24024 -4.23829,1.24219 -3.92187,0.79296 -3.92187,0.79297 -4.32032,0.49024 -4.32031,0.48828 -5.43945,0.20508 -5.43946,0.20312 -4.96093,-0.34179 -4.96094,-0.3418 -3.13867,-0.79688 -3.14063,-0.79687 -2.58984,-1.11914 -2.58985,-1.11914 -2.52148,-1.52344 -2.51953,-1.52344 -2.63086,-2.11719 -2.62891,-2.11718 -3.71093,-3.89453 -3.71094,-3.89258 -2.5,-0.64063 -2.5,-0.63867 -0.50781,0.004 -0.50977,0.004 -3.59375,-1.8164 -3.59375,-1.81836 -1.75195,-0.14453 z m 31.64648,1.67578 -3.03125,2 -3.0293,2 -0.008,0.19726 -0.008,0.19532 3.2793,2.39257 3.27929,2.39063 1.91992,1.28711 1.91993,1.28515 1.11914,0.57422 1.11719,0.57617 0.80273,0.24219 0.80273,0.24414 1.2793,0.0215 1.28125,0.0195 1.30469,-0.5918 1.30664,-0.59375 1.11914,-1.15234 1.11914,-1.15235 0.86133,-1.58398 0.86328,-1.58398 -0.24805,-0.15235 -0.24609,-0.1543 -8.08399,-3.23046 -8.08203,-3.23047 h -0.32031 z m 70.78906,1.85937 -12.35742,2.48242 -12.35937,2.48243 0.24609,0.66796 0.24414,0.66797 v 2.08008 2.08008 l -1.34375,2.80078 -1.3457,2.79883 h 0.13281 0.13281 l 1.69336,-0.67188 1.69141,-0.66992 5.2793,-1.89844 5.28125,-1.89843 2.8789,-1.41211 2.88086,-1.41016 2.23242,-1.71875 2.23047,-1.71875 1.57422,-2 1.57227,-2 -0.33203,-0.33008 z m -49.98632,5.50195 v 0.74024 0.74219 l -0.47852,1.61133 -0.47852,1.61132 -1.30664,1.48633 -1.30664,1.48438 -2.1914,1.06054 -2.19141,1.0586 0.2168,0.33007 0.21679,0.33008 4.64063,0.7168 4.63867,0.71875 0.48047,0.11523 0.48047,0.11524 4.95898,-0.0762 4.96094,-0.0742 1.78711,-0.82422 1.78711,-0.82422 1.21289,-1.21094 1.21289,-1.21289 1.05859,-2.26953 1.06055,-2.26953 0.48242,-1.67969 0.48438,-1.67969 h -10.86328 z m 100.38671,13.68555 -2.11328,0.1875 -2.11328,0.18945 -8.08008,0.38477 -8.08007,0.38477 v 4.74414 4.74218 h 0.49804 0.49805 l 3.95312,-0.94336 3.95313,-0.94531 2.60742,-1.00586 2.60742,-1.00586 2.30274,-1.54492 2.30078,-1.54297 1.0293,-1.07031 1.02929,-1.07031 -0.19531,-0.75196 z m 4.72071,0.9668 -1.49024,3.39453 -1.49218,3.39258 h 0.18164 0.18164 l 4.43554,-2.45899 4.4375,-2.45703 v -0.54101 -0.54102 l -1.20117,-0.18359 -1.19922,-0.18555 -1.92578,-0.20898 z m -31.39844,0.68555 -9.62695,5.05078 -9.62696,5.05078 0.14649,2.24023 0.14844,2.24024 0.16406,1.35937 0.16601,1.35938 h 0.25782 0.25781 l 4.32226,-1.86133 4.32032,-1.86133 2.46093,-1.5332 2.46094,-1.53321 1.87891,-1.74023 1.8789,-1.74023 0.66016,-1.36524 0.66211,-1.36719 -0.004,-1.73828 -0.006,-1.74023 -0.25976,-0.41016 z m 62.0625,3.14453 -0.21289,3.63867 -0.21484,3.63867 0.31835,4 0.31641,4 0.64063,2.49023 0.64062,2.49024 0.66797,1.50976 0.66602,1.50977 0.79687,1.35938 0.79688,1.35937 h 0.0723 0.0742 l -0.23828,-3.43945 -0.23633,-3.43946 -0.30859,-5.75976 -0.3086,-5.75977 -0.66601,-1.92187 -0.66602,-1.91992 -1.07031,-1.87696 z m -174.16602,1.66797 -2.57617,1.29492 -2.57422,1.29492 1.15039,1.4043 1.1504,1.40429 0.86328,0.58594 0.86132,0.58399 0.48047,0.21874 0.47852,0.2168 0.96094,0.0215 0.96093,0.0215 1.87305,-0.88281 1.87305,-0.88281 -2.75,-2.64063 z m 151.98438,1.60937 -8.72656,1.75586 -8.72461,1.75586 -5.63867,1.42578 -5.63672,1.42773 -4.5918,1.49219 -4.5918,1.49219 -4,1.59375 -4,1.59375 -14.8789,7.30859 -14.88086,7.3086 -3.68555,1.4375 -3.68359,1.4375 -3.31641,0.98437 -3.31445,0.98438 -3.08008,0.61718 -3.08008,0.61719 -4,0.37305 -4,0.37305 -2.8789,-0.21875 -2.88086,-0.21875 0.16015,0.16015 0.16016,0.15821 6.56055,2.86523 6.55859,2.86523 1.60156,1.03125 1.59961,1.0293 1.59961,-0.1582 1.59961,-0.16016 4,-2.04492 4,-2.04297 4.16016,-1.23047 4.16015,-1.23047 1.45899,0.01 1.45898,0.0117 1.32813,0.67773 1.32812,0.67774 h 1.14844 1.14844 l 1.02539,-0.52735 1.02343,-0.52929 2.72071,-1.81641 2.71875,-1.81836 3.20117,-1.7793 3.19922,-1.77929 4.16015,-1.83203 4.16016,-1.83399 5.91992,-1.91797 5.91992,-1.91601 0.88868,-0.32813 0.88867,-0.32812 1.8125,-1.69922 1.81054,-1.69922 1.57227,-0.85547 1.57227,-0.85547 1.64648,-0.4375 1.64844,-0.43945 2.67383,-0.004 2.67382,-0.004 1.9668,0.50586 1.9668,0.50781 1.82617,0.9707 1.82812,0.9707 1.85157,1.67579 1.85351,1.67578 0.70117,0.22265 0.70118,0.22071 4.375,-2.26758 4.37304,-2.26953 1.70703,-1.0918 1.70899,-1.0918 0.51172,-0.78125 0.51172,-0.78125 -0.21289,-0.84179 -0.21094,-0.8418 -1.80274,-1.99414 -1.80273,-1.99414 -1.99219,-2.44141 -1.99219,-2.44336 -0.99218,-0.83398 -0.99414,-0.83594 h -0.7793 z m -62.70898,5.05078 -0.4004,0.14063 -0.40039,0.13867 -11.45507,3.94531 -11.45508,3.94336 0.21875,0.50977 0.21875,0.51171 0.46679,1.2793 0.46875,1.2793 -0.16796,1.68164 -0.16797,1.68164 -0.82422,1.79688 -0.82227,1.79687 v 0.12305 0.12109 h 0.42383 0.42383 l 2.2168,-0.75586 2.21484,-0.75391 1.95898,-0.98828 1.95899,-0.99023 3.45898,-2.3125 3.45899,-2.31445 3.10351,-3.0625 3.10352,-3.0625 0.99609,-1.75977 0.9961,-1.75977 0.002,-0.5957 z m -83.49805,0.38867 -2.43164,1.47657 -2.43164,1.47656 1.13672,0.77148 1.13671,0.77344 0.72266,0.29102 0.72461,0.29101 0.25586,0.0195 0.25586,0.0195 0.86523,-0.45117 0.86328,-0.45312 1.04688,-1.08985 1.04492,-1.08789 -1.26758,-1.01953 -1.26758,-1.01758 h -0.32617 z m 5.02539,3.83985 -1.96484,1.66015 -1.9629,1.65821 -0.45312,0.40429 -0.45117,0.4043 0.45117,0.55078 0.45312,0.54883 1.24805,0.90625 1.24805,0.90625 h 1.21094 1.21093 l 0.83008,-0.31445 0.83008,-0.31641 1.58594,-1.48242 1.58593,-1.48438 -0.1621,-0.25976 -0.16016,-0.26172 -2.40625,-1.45899 -2.4043,-1.46093 h -0.3457 z m 8.75781,4.46875 -1.57226,1.68554 -1.57227,1.68555 -1.23438,1.39063 -1.23632,1.39062 0.78515,0.5957 0.78516,0.59571 3.03906,1.59375 3.04102,1.59179 2.71875,0.80469 2.7207,0.80274 1.68945,0.0176 1.69141,0.0176 1.0293,-0.43164 1.02929,-0.43164 1.18164,-1.30859 1.18165,-1.31055 0.5332,-1.03125 0.5332,-1.03125 0.58789,-1.70703 0.58789,-1.70898 -2.7832,-0.01 -2.78125,-0.0117 -3.24023,-0.29101 -3.24024,-0.29297 -1.79297,-0.63086 -1.79297,-0.63086 -0.94531,-0.67188 z m 41.58203,0.89258 -10.33398,1.57031 -10.33399,1.57031 -0.19531,2.40039 -0.19726,2.40039 -0.56055,1.10938 -0.5625,1.10742 -0.75,1.0039 -0.75,1.00196 -1.45117,0.91797 -1.45118,0.91601 -0.002,0.40039 v 0.40039 l 6.48047,-0.0117 6.48047,-0.01 2.5332,-0.45313 2.53516,-0.45117 1.97461,-0.97265 1.97461,-0.97266 1.47851,-1.30078 1.48047,-1.30274 1.05078,-2.13476 1.05274,-2.13672 v -2.29883 -2.30078 l -0.22657,-0.22656 z m 107.1211,0.56054 -0.66993,0.95899 -0.66796,0.95898 -1.71875,1.66406 -1.7168,1.66602 -1.9043,1.15625 -1.9043,1.15625 -2.57226,0.93945 -2.57227,0.9375 -3.91015,0.76953 -3.91211,0.76758 -1.03906,0.1836 -1.04102,0.18359 -0.92773,-2.04297 -0.92579,-2.04297 -1.37695,-1.49414 -1.375,-1.49219 -0.86328,-0.44726 -0.86328,-0.44531 -1.3711,-0.3086 -1.36914,-0.30664 -1.77343,0.32617 -1.77344,0.32813 -1.13086,0.57812 -1.12891,0.57618 -0.59765,0.66015 -0.59766,0.66211 -0.16406,1.45313 -0.16406,1.45312 h 1.25976 1.26172 l 0.62109,0.46094 0.6211,0.46094 -0.64063,0.62109 -0.64062,0.62305 -4.26953,0.84179 -4.27149,0.8418 -4.29492,1.43555 -4.29687,1.43554 -4.07227,1.79297 -4.07422,1.79102 -3.67969,1.9375 -3.67968,1.93945 -2.24024,1.43359 -2.24023,1.4336 -2.28321,1.88672 -2.28125,1.88672 -1.60351,1.84375 -1.60156,1.84179 -1.4375,2.06641 -1.4375,2.06445 -1.44922,2.89844 -1.45117,2.89648 -0.74805,2.38282 -0.74805,2.38281 0.0254,4 0.0254,4 0.83008,2.24023 0.83203,2.24024 1.11914,2.71875 1.11914,2.7207 0.96289,4.53711 0.96094,4.53516 0.79883,1.97851 0.79883,1.97657 1.53711,2.54101 1.53515,2.54102 2.33203,2.625 2.33008,2.625 0.79492,1.60156 0.79297,1.59961 0.002,1.51172 0.004,1.51367 -0.86718,0.56641 -0.86524,0.56835 h -1.5625 -1.56055 l -0.80664,-0.93945 -0.80859,-0.9375 0.21484,-1.90039 0.2168,-1.90234 -1.54101,0.23047 -1.54102,0.23046 -0.97461,0.4043 -0.97461,0.40625 -0.83594,0.99414 -0.83789,0.99414 -0.34179,1.59766 -0.3418,1.59765 0.31445,1.69141 0.31641,1.69336 0.93945,1.91992 0.94141,1.91992 1.1582,1.26172 1.1582,1.26172 0.0781,4.01758 0.0781,4.01758 1.01172,2.67773 1.01367,2.67578 0.85938,1.48438 0.85937,1.48242 1.06641,1.67969 1.06445,1.68164 h 0.14258 0.14453 l 2.00586,-2.48047 2.00586,-2.48047 3.61524,-3.72265 3.61718,-3.72266 0.62305,-1.41016 0.625,-1.41211 0.20899,-1.30664 0.20898,-1.30859 -0.36328,-1.69336 -0.36328,-1.69531 0.3457,-0.34375 0.3457,-0.34375 2.14258,2.33789 2.14258,2.33789 1.17187,-0.97852 1.17188,-0.97656 0.66797,-1.38281 0.66992,-1.38086 v -2.26563 -2.26562 l -0.67383,-2.19336 -0.67383,-2.19336 -0.77734,-1.85352 -0.77539,-1.85547 0.16016,-0.25976 0.16211,-0.26172 2.00781,-0.56055 2.00976,-0.55859 0.2461,-0.14844 0.24804,-0.14844 -1.86523,-2.03515 -1.86328,-2.0332 -0.91211,-1.86133 -0.91016,-1.86133 -0.15234,-2.125 -0.15235,-2.12305 0.85157,-1.86133 0.85156,-1.85937 -1.8457,-1.65039 -1.84571,-1.65039 1.86719,-0.91406 1.86524,-0.91407 1.38085,-1.21484 1.38282,-1.2168 0.72851,-1.50781 0.73047,-1.50781 0.0176,-2.08789 0.0156,-2.08985 -0.57617,-1.49414 -0.57617,-1.49414 -1.39258,-1.2832 -1.39062,-1.2832 -1.28516,-0.6543 -1.2832,-0.65625 -1.43164,-0.32031 -1.43164,-0.32032 -1.58985,0.47071 -1.58789,0.47265 -1.50586,1.32422 -1.50586,1.32617 0.88086,0.91797 0.87891,0.91797 -0.63672,0.85352 -0.63672,0.85351 -0.52539,0.33203 -0.52539,0.33008 -0.70508,-0.62695 -0.70312,-0.625 -0.75195,-1.60156 -0.75196,-1.59961 -0.002,-1.81836 -0.004,-1.82032 0.46485,-2.17968 0.46484,-2.18164 0.8125,-2.36914 0.8125,-2.36914 1.14844,-2.0879 1.14843,-2.08789 1.37305,-1.78515 1.375,-1.78711 2.21289,-2.08594 2.21094,-2.08789 2.22852,-1.47266 2.22851,-1.47265 2.39063,-1.19727 2.39257,-1.19726 2.82032,-1.08985 2.82226,-1.08984 2.94727,-0.81055 2.94726,-0.8125 4.16016,-0.17578 4.16016,-0.17383 2.93359,0.51172 2.93555,0.51172 3.14453,1.16211 3.14453,1.16211 2.53125,0.93164 2.5293,0.93164 2.31836,0.3457 2.31835,0.34375 2.29493,-0.38672 2.29297,-0.38671 2.13867,-1.08008 2.13672,-1.08203 2.16797,-1.63672 2.16796,-1.63672 0.85352,-1.12109 0.85547,-1.11915 0.13476,-1.88085 0.13672,-1.87891 -0.86523,-2.16992 -0.86524,-2.16797 -2.41796,-5.28125 -2.41602,-5.2793 -0.14258,-0.16015 z m -138.14258,19.61328 -1.38281,0.22071 -1.38282,0.2207 -4.96093,0.95898 -4.95899,0.95899 -0.13281,0.13086 -0.13086,0.13086 0.61133,0.67968 0.61133,0.67774 1.28125,0.88476 1.2832,0.88477 1.4375,0.50391 1.4375,0.50195 2.09375,0.0156 2.0918,0.0156 1.79492,-0.4668 1.79297,-0.46875 3.23828,-1.19726 3.24023,-1.19727 -0.10547,-0.31445 -0.10547,-0.31445 -1.86523,-1.03321 -1.86719,-1.0332 -2.01172,-0.37891 z m 13.55469,6.08399 -3.04102,0.0117 -3.03906,0.01 -1.91992,0.51367 -1.91993,0.51172 -1.86328,0.86719 -1.86133,0.86719 1.17579,1.37109 1.17578,1.3711 1.30078,0.66211 1.30078,0.66406 1.46484,0.21679 1.46485,0.21875 1.60156,-0.24218 1.59961,-0.24024 2.24023,-1.18164 2.24024,-1.18164 2.71875,-1.04101 2.7207,-1.04297 -1.59961,-0.68946 -1.60156,-0.6914 -2.07813,-0.48633 z m 33.16992,0.35351 -2.05469,0.35743 -2.05664,0.35742 -1.6582,0.94922 -1.66016,0.94726 -1.50977,1.95508 -1.51171,1.95313 -2.79493,3.39453 -2.79492,3.39257 -0.004,0.20118 -0.006,0.20117 1.51953,0.64648 1.51953,0.64649 0.64062,0.15625 0.64063,0.15429 1.46289,0.0371 1.46094,0.0371 1.73828,-0.5 1.73828,-0.50195 1.68164,-1.14063 1.68359,-1.13867 1.07618,-1.47851 1.07617,-1.48047 0.56445,-1.11914 0.56445,-1.11914 1.87696,-2.91016 1.87695,-2.9082 v -0.17578 -0.17383 l -2.53516,-0.36914 z m 61.3457,2.46485 -3.44141,0.38086 -3.4414,0.38281 -2.53516,0.66406 -2.53515,0.66406 -2.60157,1.07813 -2.60351,1.07617 -2.4961,1.47656 -2.49804,1.47657 -2.58203,2.0332 -2.58204,2.03125 -1.94921,2.0293 -1.94922,2.02929 -1.19922,1.50782 -1.20117,1.50976 3.15039,-0.1875 3.14843,-0.1875 1.2793,0.35352 1.28125,0.35351 2.08008,1.25391 2.08008,1.25586 0.20898,0.0312 0.20899,0.0293 0.88476,-1.51954 0.88477,-1.51953 1.07812,-1.4414 1.07813,-1.43946 2.30859,-2.3457 2.30664,-2.34766 2.56055,-1.69726 2.56055,-1.69727 1.61523,-0.81054 1.61719,-0.8086 3.19922,-1.11328 3.19921,-1.11328 3.34376,-0.6582 3.34374,-0.65821 0.80079,-0.10937 0.80078,-0.10742 -2.24024,-0.55078 -2.24023,-0.54883 -3.46289,-0.37891 z m -84.35937,2.61523 -1.87891,0.54102 -1.87891,0.54297 -3.46484,1.49023 -3.46484,1.49024 1.06445,0.45312 1.06641,0.45117 1.91992,0.58399 1.91992,0.58398 3.03906,-0.0879 3.04102,-0.0879 1.75976,-0.82617 1.75977,-0.82422 1.26367,-1.11133 1.26367,-1.11133 -1.57812,-0.92383 -1.57617,-0.92382 -2.12891,-0.1211 z m 10.96289,11.85742 -1.91993,0.20899 -1.91992,0.21094 -1.12109,0.54296 -1.11914,0.54297 0.0859,4.47266 0.0859,4.4707 0.16016,0.72071 0.16016,0.7207 h 0.41601 0.41602 l 1.73828,-0.51563 1.73828,-0.51562 1.59961,-0.80078 1.59961,-0.80078 1.68555,-1.28711 1.68554,-1.28711 1.4336,-1.90821 1.43554,-1.9082 v -0.25195 -0.25196 l -1.67968,-0.67968 -1.67969,-0.67774 -2.40039,-0.5039 z m 9.78125,9.88477 -3.13086,2.10156 -3.13086,2.10156 -1.59961,0.69727 -1.59961,0.69727 -2.16797,0.16796 -2.16797,0.16602 0.1543,0.51758 0.15234,0.51562 1.31055,5.75977 1.3125,5.75976 0.31445,1.20118 0.31641,1.19922 h 0.27929 0.2793 l 1.93555,-0.60157 1.9375,-0.60351 1.39062,-0.81446 1.38868,-0.81445 1.32226,-1.43359 1.32227,-1.4336 0.77539,-1.54882 0.77734,-1.54883 0.38281,-1.1836 0.38282,-1.18164 -0.86719,-4.73828 -0.86524,-4.73828 -0.10351,-0.12109 z m 4.61914,19.65625 -5.35938,2.92383 -5.36133,2.92383 0.002,0.16992 v 0.17187 l 2.16015,0.90821 2.15821,0.90625 v 2.61328 2.61133 l 0.90625,1.8457 0.90625,1.8457 1.60742,1.65039 h 0.002 l 1.60742,1.65235 1.10938,-1.73633 1.10937,-1.73828 1.10547,-2.16993 1.10547,-2.16992 0.50391,-1.96875 0.5039,-1.96679 -0.20898,-1.58008 -0.20899,-1.57813 -0.6582,-1.40039 -0.6582,-1.39844 -1.16602,-1.25781 z" />
          </g>
          <g
             id="g10323"
             transform="translate(0.03701307)">
            <path
               id="path4719"
               style="fill:#ec0631;fill-opacity:1;stroke:none;stroke-width:1;stroke-linecap:round;stroke-miterlimit:4;stroke-dasharray:none;paint-order:fill markers stroke"
               d="m 246.63211,187.49178 -1.45508,0.0137 -1.45703,0.0117 -0.86133,0.31055 -0.86133,0.30859 -0.66406,0.39063 -0.66406,0.38867 -0.7168,0.66406 -0.7168,0.66602 -0.56055,0.86133 -0.56054,0.86328 -0.31641,0.95703 -0.31836,0.95508 -0.0547,6.58594 -0.0566,6.58398 h 1.97461 1.97656 v -1.96484 -1.96485 h 4.00196 4.00195 v 1.96485 1.96484 h 1.90039 1.90039 l -0.0508,-6.65625 -0.0527,-6.6582 -0.31445,-0.84375 -0.31641,-0.8418 -0.39062,-0.71875 -0.39063,-0.7168 -0.96289,-0.92968 -0.96094,-0.92969 -0.72656,-0.36328 -0.72656,-0.36328 -0.80078,-0.26953 z m -2.32813,3.84766 h 0.94531 0.94532 l 0.72851,0.3457 0.72656,0.34375 0.46485,0.49024 0.46679,0.49219 0.32227,0.72656 0.32422,0.72656 0.0664,2.36524 0.0664,2.36523 h -4.01953 -4.02149 l 0.004,-2.4375 0.002,-2.4375 0.29688,-0.6543 0.29687,-0.65429 0.46289,-0.49219 0.46485,-0.49024 0.72851,-0.34375 z" />
            <path
               id="path4717"
               style="fill:#ec0631;fill-opacity:1;stroke:none;stroke-width:1;stroke-linecap:round;stroke-miterlimit:4;stroke-dasharray:none;paint-order:fill markers stroke"
               d="m 185.37039,187.49178 -1.45508,0.0137 -1.45508,0.0117 -0.86133,0.31055 -0.86133,0.30859 -0.66406,0.39063 -0.66406,0.38867 -0.7168,0.66406 -0.71679,0.66602 -0.56055,0.86133 -0.56055,0.86328 -0.31836,0.95703 -0.3164,0.95508 -0.0566,6.58594 -0.0567,6.58398 h 1.97657 1.97656 v -1.96484 -1.96485 h 4.00195 4 v 1.96485 1.96484 h 1.90235 1.90039 l -0.0508,-6.65625 -0.0527,-6.6582 -0.31641,-0.84375 -0.31445,-0.8418 -0.39063,-0.71875 -0.39062,-0.7168 -0.96289,-0.92968 -0.96289,-0.92969 -0.72657,-0.36328 -0.7246,-0.36328 -0.80079,-0.26953 z m -2.32813,3.84766 h 0.94531 0.94727 l 0.72656,0.3457 0.72852,0.34375 0.46484,0.49024 0.4668,0.49219 0.32226,0.72656 0.32422,0.72656 0.0664,2.36524 0.0664,2.36523 h -4.02148 -4.01953 l 0.004,-2.4375 0.002,-2.4375 0.29687,-0.6543 0.29493,-0.65429 0.46484,-0.49219 0.46484,-0.49024 0.72657,-0.34375 z" />
            <path
               id="path4715"
               style="fill:#ec0631;fill-opacity:1;stroke:none;stroke-width:1;stroke-linecap:round;stroke-miterlimit:4;stroke-dasharray:none;paint-order:fill markers stroke"
               d="m 158.23172,187.40781 0.002,3.23828 0.002,3.23828 0.21484,1.01758 0.21484,1.01953 0.44922,0.88672 0.44727,0.88867 0.64648,0.73828 0.64453,0.73829 0.88282,0.58789 0.88281,0.58789 0.78906,0.25 0.79102,0.25 v 3.10156 h -0.002 v 3.10156 h 1.89257 1.89063 v -3.09375 -3.0957 l 0.76357,-0.26953 0.76368,-0.27344 0.72851,-0.4668 0.72852,-0.46875 0.625,-0.64843 0.625,-0.64844 0.42968,-0.64649 0.43165,-0.64648 0.32226,-0.80078 0.32227,-0.80078 0.0508,-3.89258 0.0508,-3.89258 h -1.90234 -1.90235 l -0.002,3.38281 v 3.38477 l -0.33985,0.73047 -0.34179,0.73047 -0.49219,0.49218 -0.49414,0.49414 -0.65625,0.30079 -0.65625,0.30078 -1.01953,-0.008 -1.01758,-0.006 -0.59961,-0.31055 -0.59766,-0.31055 -0.44921,-0.37695 -0.44922,-0.37891 -0.40625,-0.83007 -0.40821,-0.83008 -0.0488,-3.38282 -0.0488,-3.38281 h -1.87891 z" />
            <path
               id="path4713"
               style="fill:#ec0631;fill-opacity:1;stroke:none;stroke-width:1;stroke-linecap:round;stroke-miterlimit:4;stroke-dasharray:none;paint-order:fill markers stroke"
               d="m 195.33718,187.4 v 9.82617 9.82617 h 1.89258 1.89063 v -6.50781 -6.50586 l 0.19531,0.21289 0.19727,0.21289 3.67382,6.29492 3.67383,6.29297 h 2.02344 2.02344 v -9.82226 -9.82227 h -1.89063 -1.89258 v 6.5 6.5 l -0.10742,-0.10742 -0.10937,-0.10547 -3.72071,-6.35742 -3.7207,-6.35742 -2.06445,-0.0391 z" />
            <path
               id="path4711"
               style="fill:#ec0631;fill-opacity:1;stroke:none;stroke-width:1;stroke-linecap:round;stroke-miterlimit:4;stroke-dasharray:none;paint-order:fill markers stroke"
               d="m 256.5989,187.3745 v 9.83594 9.83398 h 1.89063 1.89258 v -1.95703 -1.95898 l 0.47265,-0.0859 0.47266,-0.0859 1.79101,0.043 1.79102,0.043 0.85742,1.96484 0.85547,1.96289 2.05664,0.041 2.05664,0.041 -0.0684,-0.11329 -0.0684,-0.11328 -1.04101,-2.4707 -1.04102,-2.4707 0.40821,-0.28125 0.40625,-0.28321 0.75781,-0.7832 0.75781,-0.7832 0.44922,-0.90821 0.44531,-0.9082 0.21289,-0.79492 0.21094,-0.79297 0.002,-1.07031 0.002,-1.07032 -0.23047,-0.89453 -0.23047,-0.89453 -0.46094,-0.87304 -0.46094,-0.87305 -0.87304,-0.875 -0.87305,-0.875 -0.66016,-0.38477 -0.66015,-0.38672 -0.93946,-0.33398 -0.9414,-0.33398 -4.61914,-0.0527 z m 3.85547,3.88281 2.41016,0.006 2.4082,0.006 0.82227,0.40235 0.82226,0.40234 0.37696,0.44726 0.37695,0.44922 0.31836,0.59961 0.3164,0.59766 v 1.0918 1.09179 l -0.3164,0.59961 -0.31836,0.59766 -0.37305,0.44531 -0.375,0.44336 -0.75195,0.37695 -0.75391,0.375 h -2.51953 -2.51953 l 0.0371,-3.96679 z" />
            <path
               id="path4709"
               style="fill:#ec0631;fill-opacity:1;stroke:none;stroke-width:1;stroke-linecap:round;stroke-miterlimit:4;stroke-dasharray:none;paint-order:fill markers stroke"
               d="m 228.30398,187.12298 -0.92969,0.14844 -0.92968,0.14844 -0.60157,0.30273 -0.60156,0.30078 -0.45117,0.3379 -0.45117,0.33789 -0.70899,-0.50586 -0.71289,-0.50586 -0.80273,-0.23242 -0.80274,-0.23438 -0.94531,-0.006 -0.94531,-0.008 -0.80078,0.25586 -0.80078,0.25391 -0.79883,0.55078 -0.79883,0.54883 -0.61328,0.89648 -0.61133,0.89453 -0.18555,0.54688 -0.18359,0.54492 -0.0469,7.67773 h 0.002 l -0.0449,7.67578 h 1.89453 1.89649 v -7.12695 -7.12695 l 0.23437,-0.58203 0.23242,-0.58204 0.47461,-0.29492 0.47656,-0.29297 h 0.63672 0.63867 l 0.48047,0.29297 0.48243,0.29492 0.20898,0.5 0.21094,0.50196 v 7.20703 7.20898 h 1.89062 1.89258 v -7.12695 -7.12695 l 0.23242,-0.58399 0.23242,-0.58203 0.47657,-0.29297 0.47461,-0.29492 h 0.60742 0.60937 l 0.43555,0.22656 0.43555,0.22461 0.28515,0.4668 0.28321,0.46484 v 7.3125 7.3125 h 1.89648 1.89648 l -0.041,-7.75781 -0.041,-7.75586 -0.54882,-1.10937 -0.54883,-1.11133 -0.66992,-0.58985 -0.67188,-0.58984 -0.75195,-0.36914 -0.75195,-0.36719 -0.86329,-0.14062 z" />
            <path
               id="path4707"
               style="fill:#ec0631;fill-opacity:1;stroke:none;stroke-width:1;stroke-linecap:round;stroke-miterlimit:4;stroke-dasharray:none;paint-order:fill markers stroke"
               d="m 150.01882,187.12298 -0.92968,0.14844 -0.92969,0.14844 -0.60156,0.30273 -0.60157,0.30078 -0.45117,0.3379 -0.45117,0.33789 -0.71094,-0.50586 -0.71093,-0.50586 -0.80274,-0.23242 -0.80273,-0.23438 -0.94532,-0.006 -0.94726,-0.008 -0.79883,0.25586 -0.80078,0.25391 -0.79883,0.55078 -0.79883,0.54883 -0.61328,0.89648 -0.61328,0.89453 -0.18359,0.54688 -0.1836,0.54492 -0.0469,7.67773 -0.0449,7.67578 h 1.89649 1.89648 v -7.12695 -7.12695 l 0.23242,-0.58203 0.23243,-0.58204 0.47656,-0.29492 0.47461,-0.29297 h 0.63867 0.63672 l 0.48242,0.29297 0.48047,0.29492 0.21094,0.5 0.20898,0.50196 v 7.20703 7.20898 h 1.89063 1.89257 v -7.12695 -7.12695 l 0.23243,-0.58399 0.23242,-0.58203 0.47656,-0.29297 0.47461,-0.29492 h 0.60937 0.60743 l 0.4375,0.22656 0.43554,0.22461 0.28321,0.4668 0.2832,0.46484 0.002,7.3125 v 7.3125 h 1.89648 1.89649 l -0.041,-7.75781 -0.041,-7.75586 -0.54883,-1.10937 -0.54883,-1.11133 -0.67187,-0.58985 -0.66992,-0.58984 -0.75196,-0.36914 -0.75195,-0.36719 -0.86133,-0.14062 z" />
          </g>
          <g
             id="g10180"
             transform="matrix(1.2447258,0,0,1.2447258,-31.856748,-51.368276)">
            <g
               id="g10314">
              <path
                 id="path4749"
                 style="fill:#ec0631;fill-opacity:1;stroke:none;stroke-width:1.46138;stroke-linecap:round;stroke-miterlimit:4;stroke-dasharray:none;paint-order:fill markers stroke"
                 d="m 227.46571,213.05327 -0.8049,0.61367 -0.8049,0.61367 -0.39675,0.87626 -0.39673,0.87339 -0.006,3.3509 -0.006,3.34805 h 0.85056 0.85342 v -1.06178 -1.06464 h 2.12358 2.12927 v 1.06464 1.06178 h 0.85057 0.84772 l -0.003,-3.34805 -0.006,-3.3509 -0.39671,-0.87339 -0.39673,-0.87626 -0.8049,-0.61367 -0.80205,-0.61367 h -1.41571 z m 0.78207,1.59553 h 0.63079 0.63364 l 0.66505,0.59654 0.66789,0.59655 0.10844,1.52987 0.11136,1.52989 h -2.18636 -2.18351 l 0.11136,-1.52989 0.10843,-1.52987 0.66503,-0.59655 z" />
              <path
                 id="path4747"
                 style="fill:#ec0631;fill-opacity:1;stroke:none;stroke-width:1.46138;stroke-linecap:round;stroke-miterlimit:4;stroke-dasharray:none;paint-order:fill markers stroke"
                 d="m 189.77139,213.05327 -0.8049,0.61367 -0.80205,0.61367 -0.39673,0.87626 -0.3996,0.87339 -0.003,3.3509 -0.006,3.34805 h 0.85057 0.85056 v -1.06178 -1.06464 h 2.12643 2.12642 v 1.06464 1.06178 h 0.85057 0.85343 l -0.009,-3.34805 -0.006,-3.3509 -0.39663,-0.87339 -0.39675,-0.87626 -0.8049,-0.61367 -0.80205,-0.61367 h -1.41572 z m 0.78492,1.59553 h 0.63079 0.63079 l 0.6679,0.59654 0.66504,0.59655 0.11136,1.52987 0.10844,1.52989 h -2.18351 -2.18351 l 0.10844,-1.52989 0.11135,-1.52987 0.66505,-0.59655 z" />
              <path
                 id="path4745"
                 style="fill:#ec0631;fill-opacity:1;stroke:none;stroke-width:1.46138;stroke-linecap:round;stroke-miterlimit:4;stroke-dasharray:none;paint-order:fill markers stroke"
                 d="m 147.62249,213.05326 -0.8049,0.61368 -0.8049,0.61366 -0.39675,0.87626 -0.39673,0.87339 -0.006,3.3509 -0.003,3.34806 h 0.85057 0.85056 v -1.06178 -1.06465 h 2.12643 2.12643 v 1.06465 1.06178 h 0.85056 0.85057 l -0.006,-3.34806 -0.003,-3.3509 -0.3996,-0.87339 -0.39673,-0.87626 -0.80205,-0.61366 -0.8049,-0.61368 h -1.41571 z m 0.78492,1.59553 h 0.6308 0.63079 l 0.66789,0.59654 0.66505,0.59655 0.11135,1.52988 0.10844,1.52989 h -2.18351 -2.18351 l 0.10844,-1.52989 0.10843,-1.52988 0.6679,-0.59655 z" />
              <path
                 id="path4743"
                 style="fill:#ec0631;fill-opacity:1;stroke:none;stroke-width:1.46138;stroke-linecap:round;stroke-miterlimit:4;stroke-dasharray:none;paint-order:fill markers stroke"
                 d="m 217.14154,212.94766 v 4.8922 4.88935 h 3.18821 3.19107 v -0.95618 -0.95903 h -2.34049 -2.33764 v -1.06178 -1.06178 h 1.59267 1.59554 v -0.95903 -0.95618 h -1.59554 -1.59267 v -1.06465 -1.06178 h 2.33764 2.34049 v -0.85057 -0.85057 h -3.19107 z" />
              <path
                 id="path4741"
                 style="fill:#ec0631;fill-opacity:1;stroke:none;stroke-width:1.46138;stroke-linecap:round;stroke-miterlimit:4;stroke-dasharray:none;paint-order:fill markers stroke"
                 d="m 208.16618,212.94766 v 0.85057 0.85056 h 1.48992 1.48992 v 4.04164 4.03878 h 0.84772 0.85343 v -4.03878 -4.04164 h 1.48706 1.48707 v -0.85056 -0.85057 h -3.82756 z" />
              <path
                 id="path4739"
                 style="fill:#ec0631;fill-opacity:1;stroke:none;stroke-width:1.46138;stroke-linecap:round;stroke-miterlimit:4;stroke-dasharray:none;paint-order:fill markers stroke"
                 d="m 196.82218,212.94767 v 4.89219 4.88935 h 3.29667 3.29667 v -0.95618 -0.95903 h -2.4461 -2.44609 v -3.93317 -3.93316 h -0.84771 z" />
              <path
                 id="path4737"
                 style="fill:#ec0631;fill-opacity:1;stroke:none;stroke-width:1.46138;stroke-linecap:round;stroke-miterlimit:4;stroke-dasharray:none;paint-order:fill markers stroke"
                 d="m 177.77395,212.94753 v 4.89219 4.88936 h 0.84485 0.84487 l 0.0599,-3.34806 0.0571,-3.3509 1.9152,3.34805 1.91236,3.34804 h 0.90477 l 0.9048,0.003 v -4.88941 -4.89219 h -0.85057 -0.85057 l -0.009,3.24244 -0.009,3.24244 -0.30542,-0.40245 -0.3054,-0.40532 -1.61551,-2.83999 -1.61266,-2.83712 h -0.94476 z" />
              <path
                 id="path4735"
                 style="fill:#ec0631;fill-opacity:1;stroke:none;stroke-width:1.46138;stroke-linecap:round;stroke-miterlimit:4;stroke-dasharray:none;paint-order:fill markers stroke"
                 d="m 163.06262,212.94766 v 4.89219 4.88936 h 0.85057 0.85057 v -4.88936 -4.89219 h -0.85057 z" />
              <path
                 id="path4733"
                 style="fill:#ec0631;fill-opacity:1;stroke:none;stroke-width:1.46138;stroke-linecap:round;stroke-miterlimit:4;stroke-dasharray:none;paint-order:fill markers stroke"
                 d="m 153.72585,212.94766 v 0.85057 0.85056 h 1.48992 1.48706 v 4.04164 4.03878 h 0.85058 0.85342 v -4.03878 -4.04164 h 1.48707 1.48992 v -0.85056 -0.85057 h -3.83041 z" />
              <path
                 id="path4731"
                 style="fill:#ec0631;fill-opacity:1;stroke:none;stroke-width:1.46138;stroke-linecap:round;stroke-miterlimit:4;stroke-dasharray:none;paint-order:fill markers stroke"
                 d="m 135.24148,212.94753 v 4.89219 4.88936 h 0.84487 0.84485 l 0.0599,-3.34806 0.0571,-3.3509 1.91521,3.34805 1.91235,3.34804 h 0.9048 l 0.9048,0.003 v -4.88941 -4.89219 h -0.85057 -0.85057 l -0.009,3.24244 -0.009,3.24244 -0.3054,-0.40245 -0.30542,-0.40532 -1.61265,-2.83999 -1.61551,-2.83712 H 136.183 Z" />
              <path
                 id="path4729"
                 style="fill:#ec0631;fill-opacity:1;stroke:none;stroke-width:1.46138;stroke-linecap:round;stroke-miterlimit:4;stroke-dasharray:none;paint-order:fill markers stroke"
                 d="m 236.74449,212.73358 -0.72213,0.48237 -0.72213,0.48523 -0.37104,0.73925 -0.37391,0.73925 v 3.7762 3.77333 h 0.95617 0.95618 v -3.78476 -3.78474 l 0.25688,-0.25403 0.25403,-0.25689 h 0.60225 0.5994 l 0.20835,0.54517 0.20836,0.54516 v 3.49647 3.49362 h 0.84772 0.85342 v -3.78476 -3.78474 l 0.25403,-0.25403 0.25403,-0.25689 h 0.55373 0.55372 l 0.25403,0.25689 0.25688,0.25403 v 3.78474 3.78476 h 0.84772 0.85342 v -3.88466 -3.88179 l -0.39102,-0.72783 -0.38819,-0.72213 -0.72213,-0.38818 -0.72784,-0.39104 h -0.47379 -0.47952 l -0.83631,0.33681 -0.83629,0.33395 -0.64507,-0.33395 -0.64505,-0.33681 h -0.61938 z" />
              <path
                 id="path4727"
                 style="fill:#ec0631;fill-opacity:1;stroke:none;stroke-width:1.46138;stroke-linecap:round;stroke-miterlimit:4;stroke-dasharray:none;paint-order:fill markers stroke"
                 d="m 170.45084,212.52176 -0.82203,0.24833 -0.82488,0.24832 -0.85628,0.73069 -0.85628,0.73354 -0.46239,0.88197 -0.46524,0.87911 -0.009,1.38431 -0.009,1.38147 0.59082,1.00184 0.58799,1.0047 0.73354,0.55944 0.73354,0.55943 0.91051,0.28258 0.91051,0.28542 0.33966,0.0117 0.3368,0.0146 0.99899,-0.30255 1.00185,-0.2997 0.68787,-0.52517 0.68502,-0.52234 0.61653,-1.13028 0.61366,-1.13029 -0.006,-1.18166 -0.006,-1.18167 -0.31684,-0.745 -0.31683,-0.7421 -0.60795,-0.72213 -0.60796,-0.72212 -1.0732,-0.4995 -1.07321,-0.49949 -0.71927,-0.003 z m -0.47381,1.91521 h 1.03895 1.03609 l 0.69359,0.42814 0.69358,0.43099 0.34252,0.71928 0.34251,0.71928 v 0.92477 l -0.003,0.92478 -0.42242,0.69359 -0.42243,0.69358 -0.69353,0.41958 -0.69072,0.42529 h -0.87341 -0.87341 l -0.70213,-0.47952 -0.70502,-0.47951 -0.41386,-0.55945 -0.41673,-0.56228 -0.0117,-1.03324 -0.0117,-1.03325 0.36535,-0.70214 0.36819,-0.6993 0.67932,-0.41386 z" />
            </g>
          </g>
          <g
             id="g10890"
             style="opacity:1;fill:#ec0631;fill-opacity:1">
            <path
               id="path10553"
               style="fill:#ec0631;fill-opacity:1;stroke:none;stroke-width:1px;stroke-linecap:butt;stroke-linejoin:miter;stroke-opacity:1"
               d="m -51.990234,-51.300781 c 0,0 3.442889,33.053413 -38.90625,39.939453 V 139.78711 c 0,0 3.100297,43.72648 41.662109,70.58203 l 83.521484,52.75 81.843091,-50.33742 c 0,0 35.30123,-24.102 38.70964,-64.5161 l 0.97383,-158.735053 c 0,0 -29.94589,-7.058919 -30.43281,-40.169239 -58.540542,-0.48382 -124.0385651,1.013496 -177.371094,-0.662109 z m 48.4453121,5.832031 c 44.3724379,-0.134192 89.1632049,0.321838 127.2226519,0.429688 0,0 -1.7059,27.754449 27.26563,37.0058589 V 134.875 c 0,0 -1.70298,46.50068 -35.78713,71.33342 l -80.138746,50.02645 -77.02139,-47.93214 c 0,0 -39.251189,-27.1991 -43.382813,-67.48242 V -7.9179688 c 0,0 36.151537,-10.3299972 37.873047,-37.1855472 14.432772,-0.210872 29.177938,-0.320503 43.9687501,-0.365234 z"
               transform="translate(169.34695,204.32025)"
               sodipodi:nodetypes="ccccccccccscccccccccs" />
          </g>
          <path
             id="path10770"
             style="opacity:1;fill:#ec0631;fill-opacity:1;stroke:none;stroke-width:1px;stroke-linecap:butt;stroke-linejoin:miter;stroke-opacity:1"
             d="m 129.06375,170.92377 c 0,0 -0.34491,24.44408 -33.742191,33.74023 v 133.58984 c 0,0 1.377683,42.6938 42.349611,66.79493 l 68.46875,43.57031 70.81641,-43.9336 c 0,0 23.37104,-12.65942 33.10937,-42.36132 0,0 3.65117,-12.41623 4.625,-29.21485 V 205.05072 c 0,0 -23.30973,-3.73737 -28.45313,-34.12695 z m 77.20312,5.15625 h 78.23633 c 0,0 1.94764,25.3192 25.07617,31.89257 V 341.6308 c 0,0 -4.38229,39.44043 -30.67578,57.21289 l -72.76367,45.48242 -52.97461,-32.73633 -20.6582,-13.08398 c 0,0 -29.95512,-25.47797 -32.36524,-57.49805 V 207.41986 c 0,0 25.47944,-4.13218 30.98828,-31.33203 h 75.00977 z" />
        </g>
        <g
           id="g16833"
           transform="matrix(0.09199789,0,0,0.09199789,174.90384,81.576331)"
           style="opacity:1">
          <rect
             width="1247.7417"
             height="800"
             fill="#fecb00"
             id="rect2"
             x="-329.87329"
             y="-329.09485"
             style="stroke-width:67.9799" />
          <rect
             width="1247.7417"
             height="533.33331"
             y="-62.428192"
             fill="#34b233"
             id="rect4"
             x="-329.87329"
             style="stroke-width:67.9799" />
          <rect
             width="1247.7417"
             height="266.66666"
             y="204.23848"
             fill="#ea2839"
             id="rect6"
             x="-329.87329"
             style="stroke-width:67.9799" />
          <g
             transform="matrix(294.8,0,0,294.8,293.99756,99.038475)"
             id="g17">
            <polygon
               id="pt"
               points="-0.3249197,0 0,-1 0.3249197,0 "
               fill="#ffffff" />
            <use
               xlink:href="#pt"
               transform="rotate(-144)"
               id="use9"
               x="0"
               y="0"
               width="100%"
               height="100%" />
            <use
               xlink:href="#pt"
               transform="rotate(-72)"
               id="use11"
               x="0"
               y="0"
               width="100%"
               height="100%" />
            <use
               xlink:href="#pt"
               transform="rotate(72)"
               id="use13"
               x="0"
               y="0"
               width="100%"
               height="100%" />
            <use
               xlink:href="#pt"
               transform="rotate(144)"
               id="use15"
               x="0"
               y="0"
               width="100%"
               height="100%" />
          </g>
        </g>
      </g>
    </g>
  </g>
</svg>
