<svg xmlns="http://www.w3.org/2000/svg" xml:space="preserve" width="736.00281" height="741.22552" viewBox="0 0 736.00279 741.22553"><defs><clipPath id="a" clipPathUnits="userSpaceOnUse"><path d="M0 595.28h841.89V0H0Z"/></clipPath></defs><g clip-path="url(#a)" transform="matrix(1.33333 0 0 -1.33333 -179.487 770.145)"><path d="M0 0c1.082-152.425-121.607-276.87-274.033-277.952-152.427-1.078-276.87 121.609-277.953 274.035a284.13 284.13 0 0 0 0 3.917c-1.081 152.427 121.609 276.871 274.036 277.953C-125.522 279.034-1.08 156.344 0 3.917A213.1 213.1 0 0 0 0 0" style="fill:#fff;fill-opacity:1;fill-rule:nonzero;stroke:none" transform="translate(686.608 299.648)"/><path d="M0 0c32.464 0 58.777-26.295 58.777-58.73 0-32.434-26.313-58.729-58.777-58.729S-58.78-91.164-58.78-58.73C-58.78-26.295-32.464 0 0 0" style="fill:#fcf6f6;fill-opacity:1;fill-rule:nonzero;stroke:none" transform="translate(410.883 262.028)"/><path d="M0 0c10.144 1.234 18.434 5.904 25.219 13.354C15.762 10.84 9.154 3.068 0 0m41.377 44.301c5.18 10.033.88 31.51-7.268 39.271.463-13.605 5.763-25.25 7.268-39.271M37.041 55.33c-.342 2.52-.604 5.275-1.103 7.986-1.996 10.866-7.515 16.161-18.436 18.002-2.043.346-3.475.094-5.098-1.457-5.769-5.5-10.015-11.312-6.493-19.826.473-1.146.704-2.535.573-3.76-.885-8.404 3.684-12.904 10.942-15.472 2.709-.959 5.002-3.561 8.284-2.371 4.429 1.603 11.311 11.818 11.331 16.898m-52.515-22.779c.744-5.319-.129-10.09-1.94-14.696-1.078-2.744-.524-4.535 1.946-6.494 11.063-8.785 20.056-8.759 30.904.223 7.3 6.047 7.132 14.451 7.622 22.701.116 1.949-1.615 2.11-2.813 2.94-8.465 5.845-16.688 8.127-25.466.23-2.561-2.301-6.433-3.144-10.253-4.904m-41.393-4.199c-.241-4.434 3.899-9.977 11.727-15.698 9.268-6.771 24.144-1.181 27.211 9.825 1.979 7.099.044 11.599-5.561 16.484-7.11 6.199-12.81 13.223-23.898 8.777-2.766-1.107-4.936-1.797-5.885-4.519-1.681-4.828-3.085-9.744-3.594-14.869m-3.977-3.184c-.53.162-1.358.617-1.537.436-.761-.772-.204-1.377.542-1.833 5.314-8.886 12.476-15.804 22.115-20.154-6.634 7.592-14.422 14.053-21.12 21.551m30.62 61.41c.703.061 1.404.123 2.105.19 3.098-4.924 3.807-11.823 12.453-11.534 6.053.202 12.163-1.679 18.269-2.472.604-.078 1.376.904 2.028 1.443 7.762 6.428 8.361 8.615 4.33 17.746-1.286 2.899-3.072 5.574-4.625 8.356-.594 4.318 2.029 4.552 5.103 3.853 2.954-.67 5.727-1.992 7.792-4.211 2.61-2.804 3.333.166 4.714 1.252 13.461-9.267 21.328-22.252 23.71-38.158 3.513-23.467-3.484-43.104-23.68-56.729C1.991-7.162-20.476-12.088-41.429.51c-40.02 24.051-43.492 68.806-11.591 100.484 1.693-2.771-1.494-3.389-2.24-5.08-9.008-10.336-14.327-22.213-15.599-36.336 3.659.994 4.762 3.815 5.919 6.057 3.11 6.021 5.444 12.447 8.616 18.433 1.752 3.303 3.084 6.452 2.707 10.198 3.474-.106 4.203-2.707 4.864-5.368-.955-.435-2.253-.617-2.811-1.353-4.779-6.336-9.087-13.443-10.076-21.033-.873-6.696 3.933-12.688 8.983-17.52.641-.613 1.299-.824 2.251-.582 8.547 2.192 18.433 2.529 19.656 14.588.02.203.105.44.24.584 6.952 7.584 6.031 15.256.286 22.992z" style="fill:#050202;fill-opacity:1;fill-rule:nonzero;stroke:none" transform="translate(425.066 149.02)"/><path d="M0 0c.077-.379.171-.754.281-1.111.569-1.342 2.127-2.313 1.573-4.098-1.851-.168-3.699-.342-5.546-.508-2.719-.023-4.266 1.207-4.4 4.035-.163 3.375 1.588 5.377 4.256 6.649C-1.087 4.148-1.625 1.291 0 0" style="fill:#050202;fill-opacity:1;fill-rule:nonzero;stroke:none" transform="translate(388.134 245.284)"/><path d="m0 0-6.949-6.639c-3.73 4.307-.508 7.635 2.305 9.879C-2.492 4.959.139 3.574 0 0" style="fill:#050202;fill-opacity:1;fill-rule:nonzero;stroke:none" transform="translate(404.29 251.456)"/><path d="M0 0c-3.504 15.257-7.906 30.317-9.898 45.902-.468.181-.804.398-.79.703-.014-.305.322-.522.79-.703l-.344 1.358c-.365 2.118-.733 4.231-1.099 6.346-.404.222-.617.447-.626.675.009-.228.222-.453.626-.672-.012.456-.019.915-.028 1.376.006.819.014 1.642.019 2.461-.426.246-.629.483-.619.714-.01-.231.193-.468.619-.711.011.464.021.928.035 1.392 4.355 17.309 3.432 33.952-6.314 49.45-2.553 4.055-5.319 7.953-9.139 10.923-6.829-4.854-9.02-3.681-10.694 6.022-3.711-2.42-6.208-5.043-4.442-9.345-1.69-2.134-3.634 1.038-5.666-2.504.415-8.009.378-17.634-3.363-26.729-4.282-3.762-7.869-7.986-9.139-13.749-3.566-4.017-2.337-10.43-6.958-13.918-.717-.079-1.418-.109-2.042.094.624-.203 1.324-.173 2.039-.094-.643 1.784-2.039 1.24-3.316 1.082 2.294 3.316 4.071 6.525.743 10.425-.88 1.033.544 2.735 1.521 3.912 2.41 2.913 2.261 6.427 1.689 9.755-.482 2.814.536 3.899 3.284 4.221-1.88 4.275-7.369 6.196-7.315 11.656.787.213 1.385.562 1.928.492 14.961-1.867 21.364 5.899 16.439 20.206-2.009 5.843-2.33 11.579.238 17.205 1.574 3.444 3.768 4.776 8.106 3.015 7.599-3.078 13.462-8.589 18.058-14.498 7.727-9.936 15.387-20.314 18.46-33.031 3.063-.607 3.558-2.347 3.605-4.308-.047 1.961-.542 3.698-3.605 4.308 1.096-5.147 2.189-10.294 3.287-15.44-.413-2.368-.573-4.73.157-7.07-.087-3.098.822-6.278-.181-9.305 1.003 3.027.094 6.207.18 9.301-1.536-3.509-1.097-7.174-.859-10.823l-.206-2.559c.837-.89 1.258-1.77 1.245-2.642.013.872-.408 1.752-1.245 2.64-.669-1.728-.622-3.472-.113-5.227-1.22-10.092 0-19.941 2.966-29.61 3.231-10.524 4.076-21.587 8.46-33.032C.483-8 .848-3.678 0 0m-3.988 2.436c-.027.453-.391.894-1.074 1.316.043-.908.083-1.818.125-2.725C-6.08-.301-7.43-.135-8.844.482V.479c0-.002-.311.316-.311.316-2.467.631-4.933 1.268-7.405 1.896-.765.067-1.527.137-2.288.207-5.22 9.354-8.109 19.371-8.55 30.081.448-.023.837-.128 1.153-.34-.313.212-.703.317-1.152.339.622-.44 1.237-.88 1.851-1.318 1.377-2.374 3.332-.298 5.462-.351 1.399-9.656 5.732-18.673 3.528-28.618 2.468-.628 4.934-1.265 7.401-1.898-4.357 8.823-3.399 18.768-5.896 27.983-.499 1.84-.894 3.71-1.336 5.566-1.242.317-1.341 1.688-2.246 2.528.905-.837 1.004-2.211 2.246-2.525l1.324 2.356c6.366-7.076 6.128-16.432 8.534-24.868.746-2.62.992-5.382 1.467-8.077.686-.426 1.047-.867 1.074-1.32M-8.881-.35c.144-1.591 1.456-2.806 2.053-4.582-.597 1.776-1.909 2.995-2.053 4.582m-23.317 52.768c.068 1.271.138 2.54.209 3.812.107.656.22 1.311.327 1.967-.058.358-.005.634.126.854-.131-.218-.183-.494-.126-.853 1.367.523 2.359-.351 3.433-.919-.794-5.141 3.868-9.881 1.285-15.672-3.746 3.014-4.271 7.024-5.254 10.811m-3.684-9.622c2.004-.306.585-2.794 2.133-3.385a5.008 5.008 0 0 0 .002 0c.325-1.222.654-2.445.981-3.665-.828-7.719 3.528-14.694 3.509-22.49-9.326 4.449-13.501 23.796-6.625 29.54m-7.105 7.841-.44-2.154c.147.719.293 1.438.437 2.154-.198.907-.04 2.16-1.574 1.802.946 3.213-1.022 5.607-2.334 8.185l2.241 2.239c3.309-2.383 6.464-4.842 5.724-9.647-.376-2.453-1.101-4.237-4.054-2.579m-3.95 10.066c0 .432-.053.922-.06 1.362.007-.44.06-.93.06-1.362m5.996 10.199c-.411-.587-.823-1.177-1.233-1.767l-.08.141c-.241.327-.54.388-.892.183l-2.139 2.402c-.742 1.477-1.889 2.83-1.403 4.674-2.815 1.547-3.724 3.892-4.047 6.484.323-2.592 1.232-4.937 4.047-6.481 1.395.828 2.395 2.493 4.514 2.078 2.366-2.195.221-5.235 1.233-7.714m6.985 25.801c-7.457 3.296-8.611 5.424-6.908 12.749 6.24-.569 7.894-3.618 6.908-12.749m7.896-31.735c.914.218 1.346.85 1.736 1.584-.39-.734-.822-1.366-1.736-1.584l-1.966-1.915c.448-.807.585-1.385.513-1.803.069.418-.065.994-.513 1.803-.854.715-1.708 1.427-2.563 2.138.036 1.446-.815 2.247-2.021 2.795-1.78 7.413-4.987 14.556-4.425 22.504 5.869-7.674 7.43-17.019 10.975-25.522m.7 30.384c-1.864 4.48-3.064 9.234-4.538 13.822 6.274.256 14.969-12.824 15.81-25.168-4.783 3.766-9.251 6.477-11.272 11.346m10.005-20.6v-7.65c-8.212 2.596-13.482 14.226-9.495 20.887 3.803-1.306 5.845-4.472 7.932-7.586.095-2-.289-4.133 1.563-5.651m-4.563-31.087c1.297 1.873 2.86 3.967 2.129 6.634-3.501 2.818-3.613 6.276-1.824 11.15 4.709-3.611 1.411-7.741 1.907-11.12l-.08-.033c.73-2.667-.835-4.758-2.132-6.631m-22.674-15.047c-3.036 5.835-2.68 11.354-4.616 16.125-7.654-1.649-10.135 5.51-14.416 9.038-3.125 2.571.592 6.633 1.698 9.849.681 1.986 2.553 3.55 5.017 1.613.611.046 1.224.09 1.831.133.198 1.658-.918 2.61-1.931 3.617.567 1.192 1.311 2.556 2.803 1.764 2.545-1.354 1.841-4 1.983-6.263h-.001l-.007-.178c-.949.354-1.898.708-2.847 1.06-.607-.043-1.22-.087-1.831-.133-.087-1.087.119-2.063 1.022-2.784-.238-2.102-.583-4.219.728-5.979 2.111-1.346 3.768.813 5.663.411.169 1.31.341 2.621.508 3.932-.167-1.311-.341-2.622-.508-3.932.629-1.701.952-3.593 2.805-4.52-.388-1.608-.156-3.04 1.21-4.148-.107-.378-.014-.695.281-.95.097-3.687-1.041-7.479.96-10.997-.097-2.073-.19-4.148-.352-7.658M-56.933 8.003c4.356-6.626 9.018-13.058 13.662-19.747-3.312-2.518-4.563.396-6.275 1.887-2.19 1.914-2.664 5.769-6.423 5.916 1.386.836.336 1.63-.218 2.435-3.544 4.139-5.029 10.241-11.273 11.793-5.322 3.677-3.215 10.491-6.365 15.083.148.803.299 1.604.449 2.408 1.803-.502 3.424-.493 4.328 1.537.309.368.592.627.852.776-.26-.149-.543-.408-.851-.776.823-.201 1.648-.408 2.472-.614-.031-8.403 5.433-14.289 9.642-20.698m1.866-22.657c-3.483-2.268-5.428 1.746-7.688 3.73-.297.264-.719.385-1.086.57a.151.151 0 0 1-.013-.029l-1.213 1.215c-.211.691-.012 1.801-1.289 1.397.593 2.183-1.487 3.205-2.168 4.832-1.182 2.818-2.254 5.652.781 8.075 6.132.785 6.493-5.765 10.219-8.042.147-.725.486-1.221 1.3-1.145.141-.765.213-1.56.47-2.289.983-2.769 4.397-5.9.687-8.314m-14.42-2.889c-1.182.684-2.299 1.633-3.817.904h-.001c-.281 4.918 3.128 6.918 6.819 8.696-.112-.987-.167-1.909 1.298-1.272-.036-.459-.157-.959.017-1.316.394-.824.847-.098 1.287.051-1.074-2.979.607-8.12-5.603-7.063m-11.855-16.465c-4.163-3.512-6.333-7.91-5.481-13.701-3.04.137-3.773 2.836-3.385 3.857 2.488 6.606 2.781 14.079 7.732 20.788.268 1.47-2.849.746-3.355 2.714.819 1.016 1.733 2.155 2.648 3.289.961-.373 1.926-.746 2.889-1.115-.288-2.959-.669-5.859.449-8.824.932-2.482.824-5.055-1.497-7.008m-18.745-7.361c-1.24 6.848 3.462 7.627 9.478 9.078-3.141-4.299-7.534-5.418-9.478-9.078m1.073 48.812c.379.115.824.182 1.348.199a5.074 5.074 0 0 1-1.348-.199m-.523-.202c-1.427-.717-1.644-2.274-1.626-3.997-.018 1.723.199 3.28 1.626 3.997m-7.284-34.298c-.804 3.25 2.616 1.953 2.978 4.422-.077 1.465-3.842.586-2.867 4.375 2.274 3.68 7.197.035 10.805 1.627-1.619 3.01-1.619 3.01-8.362 2.695-2.63 4.606 4.231 7.688 2.093 12.178.791.778 1.152 1.701.937 2.813l.136.441v-.002c1.276.707.354 3.088 2.893 3.233 2.306-4.623 4.693-9.418 7.086-14.213.573.306 1.146.617 1.721.927-1.305 5.872-4.296 11.059-7.422 16.189-3.581 7.462-10.659 8.649-17.7 10.696-1.422-4.22.566-6.752 2.176-9.38.779.668 1.558 1.337 2.388 2.043-.828-.706-1.607-1.375-2.388-2.043-.062-2.549-.121-5.092-.185-7.637-6.532 3.466-5.438-4.153-9.036-6.262-3.719 5.812-4.43 12.89-7.629 18.85 1.185 5.882 3.917 11.829-1.472 17.806 3.971.668 3.828 6.909 8.751 4.372 1.478 4.428-8.776 5.361-2.137 10.406 2.788-2.715 6.614-3.536 10.039-5.131-.054-4.062-1.151-6.864-5.792-6.595-.136-1.981-.001-4.087 1.702-4.38 4.979-.854 6.945 3.782 9.999 6.294 1.911-.443 3.054-1.587 3.966-3.349-2.068-4.704-4.611-8.776-10.91-7.715l-.149-1.6c3.554-4.066 7.148-5.473 11.708-1.091 4.483 4.306 8.416 1.186 12.03-1.857 4.943 1.965 5.477 7.597 9.35 10.353 2.287-.712 2.48-3.227 3.927-4.638.501.004 1 .006 1.5.013-.5-.004-.999-.009-1.498-.016-.297-1.712.107-3.234 1.215-4.57v.001c2.407-7.605-2.439-11.49-8.099-14.75 1.414-2.61 4.497-3.376 4.662-6.282.004-.457.004-.912.006-1.369-.244-.746-.485-1.494-.729-2.242-1.637.357-3.275.726-4.687-.828 1.618-3.094 3.235-6.184 4.86-9.276-3.849-.66-6.524 2.721-10.115 2.93v-.002c-.831-.893-.563-1.731.12-2.549.308-3.408-1.466-6.699.022-10.307.757-1.832-1.536-3.332-3.399-3.892-4.166-1.254-8.392-2.611-12.494-.688m-4.868 16.233c-1.443-.865-2.89-.297-4.185.508-1.672 1.045-1.967 2.634-1.57 4.441.66 3.016 3.378 4.586 4.906 6.992v-.004c.28-.845.563-1.691.846-2.535.17-1.648.15-3.348.561-4.932.427-1.642 1.448-3.263-.558-4.47m-1.753-7.328c-.178-2.203-2.454-3.002-4.412-2.358-3.762 1.237-4.127 4.416-3.737 7.977 3.263-1.514 8.594-.063 8.149-5.619M-132.596 46.26c-1.689-1.466-1.886-3.98-3.041-5.822 1.155 1.842 1.352 4.356 3.041 5.822-.195 1.185-.392 2.37-.588 3.553-1.055.923-1.196 2.04-1.174 3.193-.022-1.153.119-2.27 1.174-3.193.055 1.849.624 3.803-1.119 5.271.004.388-.093.748-.292 1.081a2170 2170 0 0 0-2.551.04c-.988-.803-2.266-1.49-1.242-3.1.083-1.002.282-2.028.066-2.97.216.942.016 1.968-.066 2.97-1.412-1.303-1.091-2.942-.886-4.56-.526-.818-1.054-1.634-1.58-2.453a1.65 1.65 0 0 1-1.154-.454 1.274 1.274 0 0 1-1.138.482c.119.441.037.842-.247 1.205l1.521 3.263c.096 2-.437 4.077-.264 6.069-.173-1.992.362-4.069.264-6.068 1.931 3.007.967 6.361 1.155 9.579.323.146.428.388.316.726.959.662 1.919 1.323 2.877 1.982.65 1.997 1.937 4.126 2.146 6.063-.209-1.937-1.496-4.07-2.146-6.067l.256-.268h.001l.121-6.399a2170 2170 0 0 1 2.551-.04c.323 1.054.342 2.282 1.594 2.808l5.698-10.022c-1.005-2.182-2.012-4.364-3.303-7.163l-1.99 4.472m-4.827-2.541c-.254.111-.548.324-.783.385.235-.061.529-.277.783-.385m-4.139 1.631c.192-.064.34-.017.454.117-.114-.134-.262-.181-.454-.117m-7.73 5.961c-3.438 3.147-4.479 6.924-2.984 11.367 4.185 1.086 5.74-2.437 6.524-4.92.713-2.257.497-5.883-3.54-6.447m-1.029-14.946c-.459-3.254-2.23-5.6-6.494-2.962 1.241 4.4 1.878 9.075.745 13.789-.631-.045-1.106 1.056-1.601 1.41.495-.354.97-1.455 1.601-1.41.445 3.336 1.523 5.27 4.858 2.186 2.07-4.209 1.503-8.686.891-13.013m-15.815-15.255c-4.468 5.015-.569 11.492-4.02 15.912 2.204 3.33 6.523-1.721 8.584 2.166l1.468 1.768c-.548-.661-1.007-1.212-1.465-1.768.48-1.184.96-2.37 1.437-3.556-.016-1.016-.033-2.029-.051-3.042.122-.836.185-1.653-.143-2.373.328.72.265 1.537.142 2.37-.989-.903-1.053-2.042-.832-3.254-.157-.798-.314-1.595-.47-2.396-1.381-1.731-2.762-3.464-4.65-5.827m-6.93.118c-.754-4.321-2.274-7.855-4.918-11.391-2.324 2.26-.681 5.192-2.064 7.296l-.319 1.223c.246 3.004-.867 6.155.151 9.076-1.016-2.921.096-6.072-.149-9.076 1.695 3.54.806 7.368 1.237 11.051 2.98 4.914 1.393 10.884 3.648 16.317 4.526-1.703 1.296-6.148 3.299-8.495-1.11-5.271.05-10.634-.885-16.001m.721 36.19h-.002c.309.222.373.503.193.839l-.259.039v.004c2.329.949 3.811-.051 5.035-2.023 1.504-2.43 3.157-4.765 4.746-7.144-1.09-.105-1.306-.915-1.45-1.789-4.489-1.938-7.371.387-9.87 3.723l1.607 6.351m-2.203 38.321c3.88-3.389-1.728-6.526-.717-9.968-.338-.319-.423-.694-.256-1.125l-.617-1.183c-.409-.005-.613-.212-.614-.622-.324-2.081-.278-4.009.192-5.949-.471 1.94-.516 3.868-.194 5.947-6.683 4.664-8.621 12.116-5.253 20.953 4.101-1.207 4.709-5.651 7.459-8.055zm5.525.7-.087-.007c.435-3.807-1.351-6.327-3.691-8.531 2.34 2.204 4.125 4.724 3.688 8.531-8.658 5.803-9.103 9.66-2.405 17.347 2.012 2.311 3.367 5.194 5.978 7.608 1.348-8.663-.788-16.837-3.483-24.948m1.213-22.709c-.047-.038-.107-.072-.154-.112.047.04.107.074.154.112m6.384-5.201c-1.686.684-3.029 1.712-3.535 3.589.507-1.877 1.849-2.905 3.535-3.589M-165.33 87.793c3.435-3.621 4.758-7.637 2.301-12.355-.709-.275-1.417-.553-2.126-.828-.202.216-.416.226-.641.033-6.006 4.598-5.908 7.361.466 13.15m1.565-29.941c-2.821 1.843-4.908 4.337-6.476 7.295a9261.71 9261.71 0 0 1 1.506 4.93c1.903-1.317 3.769-2.691 5.721-3.928 2.12-1.35 3.998-1.409 5.026 1.387.548-.791 1.094-1.58 1.641-2.373 1.807.912 2.041 2.827 2.709 4.466-.668-1.639-.902-3.554-2.709-4.466-.96-1.845-1.922-3.689-2.881-5.534l-4.537-1.777m6.577 34.794c2.522-3.476 4.459-3.43 6.325.411 1.591-4.479 1.964-8.461-4.018-9.854-2.959 1.988-6.137 3.699-8.354 6.627l-.225 2.206-1.594.017 1.596-.017c1.796 1.829.448 4.519 1.734 6.676 2.496-1.4 3.094-4.08 4.536-6.066m.843 7.485c-5.896 5.913-6.223 13.733-.84 18.669 1.734-1.4 3.169-2.562 4.706-3.805-1.125-4.951-3.567-9.461-3.866-14.864m-30.714-12.375c2.994-7.971 11.588-13.355 9.964-23.449l-2.18-.569c.344-.873.51-1.944.924-2.742-.414.798-.58 1.869-.924 2.742-9.549 5.495-8.248 14.866-7.784 24.018m4.415-87.199-.003-.012zm-1.558 45.259c-5.982 3.609 1.252 7.913-1.449 11.449 5.326-2.483 5.326-2.483 1.449-11.449M-190.987.57c-.56 4.188-1.23 8.353-.421 12.59 1.188 6.224 3.026 12.349 2.236 18.845-.354 2.913 2.596 4.465 3.187 7.588 3.863-2.908 3.206-6.511 2.939-9.677-.865-10.291-2.038-20.556-3.097-30.814l-.002.002c0-.002.002-.002.002-.006l-.001-.012c.07-.068.132-.121.2-.186l-.248-.058c-2.321-1.436-4.292-2.035-4.795 1.728m44.206 66.976c-2.582-.459-4.846 1.048-5.486 4.024-.078 4.614 3.663 6.545 6.438 9.159.294 1.358.552 2.729 1.056 4.012-.504-1.283-.762-2.654-1.056-4.013.305-.206.64-.279 1.001-.222h.001c.442-.988.886-1.976 1.329-2.968.053-1.471.296-2.962.118-4.405-.288-2.344-.882-5.138-3.401-5.587M-199.316 12.148c-.579 1.341-.178 2.976-.726 4.329.548-1.353.147-2.988.726-4.329 2.203 16.826 6.435 33.561 2.236 50.672-2.559 16.555-.72 32.836 5.043 48.338 5.485 14.753 14.761 27.114 28.245 35.863 10.555.501 14.994-2.919 17.27-13.487 1.118-5.194 1.912-10.459 3.114-15.63 1.025-4.409 2.656-9.012 6.304-11.583 5.304-3.739 5.94-7.813 3.971-13.528a27.102 27.102 0 0 1-1.48-9.376c.043-2.089-.451-5.99-4.777-3.947-.373 3.05-2.565 5.085-4.151 7.457-1.671 6.451-3.341 12.905-5.01 19.354-.154 3.825-.059 7.68-.518 11.468-.848 6.995-.984 6.98-7.531 9.11-2.539-.462-2.839-3.695-5.249-4.346-1.32 2.77-1.32 2.77.357 7.902-5.108-.755-8.87-2.605-9.966-8.108-.268-1.344-1.164-3.14-2.27-3.651-13.957-6.423-13.838-20.364-17.066-32.292-1.778-6.571-.345-13.592.055-20.37 1.077-18.291-3.362-35.952-5.582-53.872-.942-7.615-.835-15.325 2.612-22.532-.271-2.123.139-4.494-2.16-5.869-3.474 9.193-3.118 18.853-3.447 28.427M-136.222 75.848c-.485-.151-.953-.255-1.372-.237.419-.018.887.086 1.372.237m7.923 11.846c.83-5.802 8.075-8.077 7.654-15.07-3.468-.757-4.689-4.492-6.804-7.84-3.713 3.569-3.248 8.171-4.869 11.907.221 2.945.448 5.89.661 8.836.16 2.221 1.226 3.01 3.358 2.167m3.345 2.457-.061-.028.061.028m7.737-18.832c3.415.756 6.147-.318 7.589-3.187 1.08-2.147-.358-3.983-2.405-5.244-3.058 1.997-3.713 5.375-5.184 8.431m-2.371-6.215c3.628-1.986 5.164-4.912 5.334-8.792-1.597 2.834-7.34 3.195-5.334 8.792m4.672-13.647c1.032-1.669 1.385-3.865-.138-4.557-4.154-1.891-5.564 2.232-8.381 4.246 3.182.686 5.687 4.895 8.519.311m32.733 85.889c-.242-.123-.478-.246-.715-.366.237.12.473.243.715.366m-31.458-20.483c4.087 5.263 4.524 11.905 8.29 17.109 1.446 1.995-.825 3.485-1.328 5.228-.693 2.397-2.235 4.632-1.546 7.359 3.074 2.106 5.565-1.441 8.428-.885 1.016 3.781 1.016 3.781-7.975 8.399 8.615 1.417 17.595-1.892 29.552-10.888.074-4.178-1.718-3.544-4.256-1.782-2.069 1.435-2.894 5.012-7.326 3.826 2.109-3.088 4.008-5.877 5.91-8.664h.001c.057-1.44.883-2.966-.477-4.246-2.285 2.909-4.057 6.294-8.109 8.92-.284-6.122 6.289-9.827 3.701-15.49-2.506-.978-2.638 3.501-5.508 2.165-1.605-4.917 3.864-9.68 1.588-15.584-2.458 2.267-1.299 5.588-5.865 6.526 2.509-7.168-2.418-13.026-3.191-21.299a8128.4 8128.4 0 0 1 7.827 5.914l2.242-3.616c-.111-.826-.27-1.649-.337-2.48-.146-1.801.605-3.855-1.574-5.037-2.474-1.343-2.384 2.793-4.54 2.078-.458-7.314-3.058-10.112-8.945-9.598-.674.967-1.491 1.157-2.475.461.45-.547.901-1.093 1.349-1.64 2.235-5.98 2.235-5.98-.523-11.526-4.181 3.324-7.166 6.734-3.603 12.085-1.505 1.911-3.265 2.134-5.483 1.908v-6.804c-2.971.859-2.097 3.845-3.639 5.048-.949.914-1.417 1.816-1.397 2.701-.02-.885.448-1.786 1.397-2.701.047 1.776.097 3.55.143 5.324.572 1.301.75 2.561-.393 3.679l-2.373.083 2.373-.083c-1.163 1.503-1.657 3.216-1.607 5.1 2.35 6.599 5.465 12.994 9.669 18.41m-16.57 36.438c12.222.981 19.932-4.454 19.24-13.059-7.45 2.903-18.527 10.338-19.24 13.059m35.954-110.638c-1.162 2.155 1.03 3.17 3.67 3.749 1.008-2.836 1.873-5.427 6.478-6.453-5.328-1.349-8.463-.426-10.148 2.704m-2.018-7.307c.599-4.383 3.283-3.401 5.226-4.061-1.755-4.232-4.338-4.519-7.608-2.71-.684 2.383 1.792 3.241 2.382 6.771m2.781 41.329c-1.531.648-2.057 2.548-3.916 1.936-1.94-1.85.435-5.038-1.998-6.882-4.386 5.183-1.972 9.103 2.389 12.972 2.119-2.146 5.08-3.681 3.525-8.026m4.992-18.269-2.335-4.989-4.633 5.029c2.24 1.432 4.163.09 6.968-.04m.25 8.043c-.305-5.946-7.262 1.7-9.19-3.032.679 2.441 1.322 4.89 2.066 7.31.17.548.691.988 1.132 1.583 3.091-.996 6.145-2.872 5.992-5.861m3.346 8.047c-.253.113-.546.33-.781.393.231-.063.529-.28.781-.393m-2.469 20.566c6.433-4.859.386-9.318-.681-13.947-4.298 4.919 2.297 9.125.681 13.947m1.819 12.212c-.159 3.175 3.202 4.21 4.79 6.478-1.585-2.268-4.949-3.303-4.786-6.478 4.64-2.414 1.891-5.696 1.973-10.045-4.895 3.384-2.42 6.855-2.756 9.725.35-.111.608-.003.779.32m-18.018-58.756c-.019-.012-.033-.017-.053-.03-.336-3.816 6.898-6.123 1.783-11.2-3.719 3.384-8.448 6.029-6.943 12.209 2.497 1.811 3.118-2.337 5.16-1.007.003.023.002.05.004.075.009.013.02.018.03.027-.986 4.669-5.891 9.405.803 14.115 1.414-2.118 2.885-4.446 4.487-6.681 1.782-2.474.804-4.631-.318-7.012-1.533-3.239-3.475 1.22-4.972-.422.006-.024.015-.051.019-.074m32.506-6.016c-4.325 3.613-4.714 8.927-1.062 14.644 2.147-4.767 5.589-9.413 1.062-14.644m67.446 44.625c0-.222 0-.444.009-.663-.009.219-.009.441-.009.663m18.74-99.235C7.871-.504 6.741 12.895 3.669 25.65 1.645 34.052-.648 42.667.324 51.484c.79 7.175 2.212 14.277 3.321 21.414 1.806 11.646-.141 22.398-6.969 32.277-3.343 4.835-7.349 9.111-9.855 14.709-3.911 8.739-9.164 16.886-16.261 23.548-8.513 7.991-21.584 6.572-25.493-2.643-1.97-2.31-1.914-4.979-1.357-7.732.076-1.681.155-3.362.232-5.043-.252-2.809-.16-5.577 1.014-8.209-.177-3.15-.056-6.346-.598-9.429-.777-4.423-3.529-6.648-8.255-6.868-4.905-.232-7.643 1.454-7.813 6.547.426 1.459 1.479 1.466 2.668 1.155 3.502-4.385 3.502-4.385 6.166-1.189-.947 1.539-.871 4.006-3.58 3.958-.337.249-.676.497-1.014.745l-3.211 5.614c.108.654.005 1.181-.78 1.295l-.028.044c-.067 2.076-.127 4.154-.193 6.234 0-.002.214.276.214.276.787.113 1.574.224 2.362.335 2.14-.742 3.311-.506 2.134 2.11-.22.466-.439.933-.656 1.4-.366 1.867-1.043 3.581-2.462 4.924.143 1.21-.259 2.155-1.354 2.754-.077.759-.157 1.517-.232 2.277l-1.133 1.383c.376-.462.757-.924 1.133-1.383l1.304-.181c2.753-.068 3.447.565 2.166 1.946-2 2.159-4.187 4.573-6.801 5.642-4.681 1.914-3.658 4.628-1.707 8.153-2.686 0-5.115.511-7.224-.099-5.494-1.594-11-1.258-15.961.851-3.775 1.604-7.107 1.451-10.353.053-3.303-1.424-6.141-.871-9.245.166-8.402 2.81-13.357 1.016-18.446-6.685 2.812-3.333 7.04-4.494 10.652-6.588 11.386-6.602 13.656-15.871 6.427-26.753-1.741-2.624-3.73-5.086-5.605-7.624l-.01-.048s-.359-.06-.359-.065c-3.943-.811-5.624 1.401-5.851 4.825-.305 4.662-.229 9.346-.329 14.023-.357 16.658-15.714 27.898-29.793 21.812-2.342-.419-4.248-1.629-6.181-2.994-24.776-17.481-38.586-56.749-30.538-87.055 1.218-6.925 1.726-13.899 1.033-20.911-.75-7.59-1.657-15.162-2.494-22.746-2.142-13.41-2.092-26.66 2.874-39.553-.137-.902-.026-1.656 1.082-1.82.458-3.832 2.108-7.506 6.144-7.438 3.385.055 2.966 3.872 2.982 6.567l1.564 8.851c1.573 2.475 3.145 4.952 4.718 7.43 8.299 9.693 13.848 22.063 26.632 27.397.843.086 1.264.585 1.367 1.394.36.371.72.744 1.08 1.118l.204.256c.302.338.606.671.907 1.007-.002 0 .316.377.316.377.328.708.655 1.419.981 2.127.435.19.607.517.515.984l1.856 1.712c.388.137.602.411.645.821l.273-.08s-.159.22-.156.22c.779.94 1.563 1.88 2.343 2.821 2.099 2.113 4.196 4.225 6.293 6.341 0-.003.32.261.32.261 3.912-3.554 2.874-7.854 1.782-12.282 5.223-.173 4.467-3.988 4.381-7.308-.14-5.429-1.977-11.003 1.508-16.092l.132-.425c-.178-1.067.155-1.95.959-2.668 1.631-6.364 3.026-12.803 4.991-19.065 1.078-3.437.048-4.988-2.925-6.455-3.658-1.807-7.542-3.537-9.71-7.396 4.725-3.518 6.264 5.033 11.03 2.222-4.27-3.818-7.638-8.16-12.853-10.283 1.7-2.768-1.489-3.383-2.235-5.08l1.645-1.647c3.476-.105 4.205-2.707 4.865-5.365 2.552 1.334 6.941-6.451 8.132 1.639-2.72-.022-4.264 1.211-4.399 4.037-.162 3.375 1.587 5.379 4.255 6.646 2.75-.816 2.211-3.675 3.836-4.96 2.799 5.019-.732 11.792 4.695 16.232 1.638 1.336-1.033 2.463-1.714 3.607 2.441 2.745 4.369 1.375 5.99-.47 1.129-1.285 1.97-3.014.373-4.543-4.067-3.893-7.672-7.91-6.652-14.227.07-.428-1.573-1.133-2.418-1.707.576-1.35 2.135-2.32 1.582-4.105 1.613-1.493 3.231-2.983 4.85-4.473.7.061 1.402.121 2.106.186 1.656 2.941.802 5.996.401 9.027-3.734 4.305-.511 7.633 2.301 9.877 2.154 1.719 4.782.332 4.644-3.242 3.241-1.721 4.426-4.993 6.071-7.944 1.231-2.213 2.929-3.992 5.151-4.982 3.055 2.207-.74 4.633 1.279 7.08 2.375-.902 2.772-3.649 4.153-5.424 2.2-2.832 5.032-4.42 8.276-2.826 4.103 2.027.642 4.592-.178 6.891-.625 1.759-1.828 3.531.353 5.085-.591 4.315 2.032 4.553 5.107 3.852 2.951-.672 5.726-1.992 7.792-4.211 2.605-2.803 3.331.168 4.71 1.254-2.841 3.344-5.687 6.682-8.517 10.029-3.015 3.569-2.644 6.26 1.718 8.555 2.067 1.092 4.052 1.061 6.149 1.121 8.756.254 17.49 1.166 25.971 3.19 7.714 1.839 8.606 6.003 3.495 11.959-3.939 4.584-9.206 7.595-13.558 11.657-8.311 7.754-14.389 16.908-15.528 28.514-.378 3.834-1.485 9.139 2.99 10.82 3.746 1.406 5.974-3.187 8.343-5.783 1.279-1.401 2.362-3.029 3.293-4.687 3.553-6.318 6.791-12.821 10.544-19.014 5.968-9.85 14.512-17.123 24.826-21.964 3.817-1.79 7.856-2.979 11.431-5.448 5.522-3.81 10.899-8.135 18.067-8.777 1.811 3.207 1.082 6.535-.321 8.773" style="fill:#338a81;fill-opacity:1;fill-rule:nonzero;stroke:none" transform="translate(510.788 291.265)"/><path d="M0 0c-.535-2.089.308-3.21 2.366-3.516.048.534.1 1.067.147 1.599C1.388-1.681 1.941.764 0 0" style="fill:#338a81;fill-opacity:1;fill-rule:nonzero;stroke:none" transform="translate(393.214 318.785)"/><path d="m0 0-5.449 9.469L5.593 27.475l-.048.082-16.078-9.246-5.035 8.751 30.05 17.286 5.181-9.004-11.112-18.66.049-.086 16.414 9.443 5.036-8.754Z" style="fill:#e30613;fill-opacity:1;fill-rule:nonzero;stroke:none" transform="translate(205.32 165.686)"/><path d="m0 0-4.079 9.873 32.035 13.234 4.077-9.869z" style="fill:#e30613;fill-opacity:1;fill-rule:nonzero;stroke:none" transform="translate(185.666 202.595)"/><path d="M0 0c3.565-1.514 5.777-4.744 6.747-8.404C9.372-18.305 3.293-26.443-6.23-28.969c-12.764-3.385-20.252 4.223-22.255 11.776-2.265 8.539.95 15.166 8.435 18.757l2.625-9.9c-2.342-1.023-3.53-3.547-2.883-5.986 1.878-7.086 9.276-4.873 11.575-4.262 3.142.832 8.296 3.555 6.629 9.842-.633 2.392-2.501 4.51-5.124 4.363l1.207-4.549-7.178-1.906-3.633 13.701L1.607 7.758l1.729-6.526z" style="fill:#e30613;fill-opacity:1;fill-rule:nonzero;stroke:none" transform="translate(201.088 254.79)"/><path d="m0 0-2.427 28.586 8.851.752 1.523-17.943 4.305.363-1.383 16.301 8.221.697 1.385-16.299 4.304.367-1.569 18.475 8.851.751 2.472-29.114z" style="fill:#e30613;fill-opacity:1;fill-rule:nonzero;stroke:none" transform="translate(167.399 265.122)"/><path d="m0 0 .459 5.565c.164 1.985.05 4.72-3.048 4.978-2.178.177-3.535-.927-3.871-4.993L-6.87.567Zm-15.974-9.398 1.672 20.273c.499 6.048 4.268 10.996 10.8 10.461 3.582-.298 7.221-2.253 8.233-5.893 1.354 2.812 4.695 4.339 9.034 4.37 1.703.005 5.821-.284 7.498.553l-.878-10.645c-1.787-.388-3.593-.434-5.395-.434-3.314-.016-6.772-.025-7.119-4.234L7.403-.61l12.048-.993-.879-10.645Z" style="fill:#e30613;fill-opacity:1;fill-rule:nonzero;stroke:none" transform="translate(180.847 314.631)"/><path d="m0 0 2.234 10.445 33.891-7.249-2.233-10.442Z" style="fill:#e30613;fill-opacity:1;fill-rule:nonzero;stroke:none" transform="translate(169.548 345.907)"/><path d="m0 0-11.104.602-.032-.092 8.968-6.695Zm-23.801-.554 3.453 9.847 36.878.444L12.869-.705l-5.154.264-3.644-10.398 4.159-3.104-3.549-10.122Z" style="fill:#e30613;fill-opacity:1;fill-rule:nonzero;stroke:none" transform="translate(201.023 376.2)"/><path d="m0 0 16.442 21.16 7.016-5.451-9.889-12.726L16.98.333l8.489 10.925 6.518-5.064-8.49-10.924 10.426-8.103-6.553-8.433Z" style="fill:#e30613;fill-opacity:1;fill-rule:nonzero;stroke:none" transform="translate(208.664 439.263)"/><path d="M0 0c2 1.845 3.851 5.996-1.383 11.67-5.233 5.675-9.521 4.166-11.52 2.323-2-1.845-3.85-5.996 1.383-11.671C-6.287-3.353-1.999-1.842 0 0m-18.761 20.345c7.743 7.143 18.054 6.348 25.231-1.433C13.645 11.131 13.604.79 5.86-6.353c-7.747-7.142-18.055-6.348-25.232 1.435-7.175 7.781-7.134 18.121.611 25.263" style="fill:#e30613;fill-opacity:1;fill-rule:nonzero;stroke:none" transform="translate(261.972 459.267)"/><path d="M0 0c2.303 1.444 4.882 5.189.774 11.725-4.107 6.537-8.599 5.837-10.902 4.388-2.302-1.446-4.88-5.188-.773-11.727C-6.793-2.147-2.302-1.447 0 0m-14.727 23.432c8.921 5.606 18.913 2.939 24.544-6.024 5.632-8.961 3.703-19.12-5.218-24.726-8.921-5.607-18.913-2.939-24.545 6.023-5.633 8.96-3.701 19.119 5.219 24.727" style="fill:#e30613;fill-opacity:1;fill-rule:nonzero;stroke:none" transform="translate(293.833 483.644)"/><path d="m0 0-8.978-3.696-3.381 8.214L15.47 15.976l3.383-8.213-8.978-3.696 9.814-23.835-9.875-4.065Z" style="fill:#e30613;fill-opacity:1;fill-rule:nonzero;stroke:none" transform="translate(314.964 515.177)"/><path d="m0 0 6.103 1.402c2.177.501 3.927 1.55 3.329 4.152-.455 1.988-1.888 2.804-4.349 2.239l-6.529-1.501Zm-2.893 12.585 5.489 1.26c2.175.502 3.406 1.431 2.905 3.608-.391 1.704-1.95 1.992-4.08 1.502l-5.489-1.262zm-13.431 10.758 18.499 4.253c8.895 2.044 11.94-2.535 12.733-5.989.784-3.406-.449-5.632-2.641-7.58 3.266-.344 6.661-2.105 7.801-7.072C21.625.189 16.562-4.66 10.602-6.03l-19.161-4.404z" style="fill:#e30613;fill-opacity:1;fill-rule:nonzero;stroke:none" transform="translate(356.233 510.845)"/><path d="m0 0-3.711 10.486-.096-.006L-6.544-.372Zm-9.651 21.768 10.42.592 14.569-33.886-11.049-.627-1.734 4.859-11.002-.626-1.268-5.032-10.71-.608z" style="fill:#e30613;fill-opacity:1;fill-rule:nonzero;stroke:none" transform="translate(400.349 521.383)"/><path d="m0 0 10.625-1.045-2.521-25.651 15.266-1.502-.871-8.84-25.893 2.548z" style="fill:#e30613;fill-opacity:1;fill-rule:nonzero;stroke:none" transform="translate(421.86 543.88)"/><path d="m0 0 10.361-2.594-6.264-25.009 14.884-3.726-2.16-8.618-25.241 6.322z" style="fill:#e30613;fill-opacity:1;fill-rule:nonzero;stroke:none" transform="translate(457.7 539.545)"/><path d="m0 0 3.114 10.678-.083.052-8.559-7.211Zm4.883 23.308 8.803-5.606-7.967-36.02-9.337 5.945 1.431 4.959-9.296 5.918-3.972-3.342-9.053 5.761z" style="fill:#e30613;fill-opacity:1;fill-rule:nonzero;stroke:none" transform="translate(532.398 485.083)"/><path d="M0 0c-.582-.652-.992-1.329-1.229-1.962-.81-2.076.638-3.953 2.124-5.278 1.304-1.163 3.685-2.505 5.399-.584 1.195 1.341.395 2.705-2.93 7.948-3.062 4.809-6.736 10.102-2.083 15.32 5.329 5.98 12.735 3.996 18.06-.753 5.62-5.007 8.677-11.571 3.274-18.072l-7.539 6.72c1.019.849 1.165 1.89.902 2.906-.233 1.052-.979 2.042-1.778 2.753-1.085.969-3.12 2.262-4.411.812-1.505-1.977 1.838-5.671 4.594-9.949 2.755-4.278 4.862-9.214.63-13.96C9-20.839.865-17.489-4.895-12.353-7.831-9.736-15.266-1.22-7.972 7.107z" style="fill:#e30613;fill-opacity:1;fill-rule:nonzero;stroke:none" transform="translate(554.16 467.892)"/><path d="M0 0c-.679-.555-1.187-1.16-1.52-1.749-1.121-1.924.023-4.002 1.286-5.539 1.109-1.35 3.252-3.045 5.24-1.411 1.389 1.139.811 2.611-1.665 8.302-2.28 5.225-5.093 11.019.308 15.455 6.192 5.081 13.195 1.98 17.725-3.536 4.773-5.814 6.781-12.77.44-18.355L15.407.97c1.137.681 1.442 1.686 1.338 2.731-.066 1.075-.65 2.168-1.329 2.993-.922 1.124-2.733 2.716-4.232 1.485-1.79-1.722.937-5.887 2.999-10.537 2.061-4.653 3.379-9.851-1.536-13.887-6.977-5.729-14.496-1.163-19.393 4.802-2.493 3.037-8.523 12.597-.029 19.695z" style="fill:#e30613;fill-opacity:1;fill-rule:nonzero;stroke:none" transform="translate(578.595 443.544)"/><path d="M0 0c1.343-2.365 4.969-5.104 11.679-1.291 6.71 3.816 6.208 8.334 4.865 10.698-1.347 2.364-4.969 5.105-11.679 1.29C-1.849 6.879-1.345 2.362 0 0m24.055 13.678c5.21-9.159 2.104-19.023-7.098-24.255-9.198-5.23-19.265-2.855-24.469 6.305-5.21 9.158-2.105 19.021 7.096 24.253 9.201 5.232 19.267 2.855 24.471-6.303" style="fill:#e30613;fill-opacity:1;fill-rule:nonzero;stroke:none" transform="translate(599.725 406.81)"/><path d="M0 0c1.13.6 4.433 2.773 2.984 6.947-1.644 4.725-6.756 4.644-11.158 3.113-4.402-1.53-8.465-4.639-6.821-9.361 1.18-3.394 4.027-3.895 7.306-3.424l3.443-9.906c-6.605-2.294-15.484.629-18.818 10.217-3.679 10.595 1.708 19.2 11.385 22.565 10.318 3.587 19.415-.552 22.92-10.642C14.32.505 11.32-6.091 3.41-9.814Z" style="fill:#e30613;fill-opacity:1;fill-rule:nonzero;stroke:none" transform="translate(631.116 369.834)"/><path d="m0 0 2.159-10.46-33.944-7.011-2.161 10.46z" style="fill:#e30613;fill-opacity:1;fill-rule:nonzero;stroke:none" transform="translate(648.593 354.719)"/><path d="m0 0 10.406 3.929-.007.095L-.51 6.533Zm21.564 10.106.811-10.408-33.578-15.279-.863 11.036 4.826 1.837L-8.1 8.28l-5.056 1.164-.834 10.697z" style="fill:#e30613;fill-opacity:1;fill-rule:nonzero;stroke:none" transform="translate(631.982 314.336)"/><path d="m0 0 .662 9.686 8.862-.603-2.051-30.024-8.862.603.662 9.686-25.713 1.756.724 10.654z" style="fill:#e30613;fill-opacity:1;fill-rule:nonzero;stroke:none" transform="translate(645.623 289.384)"/><path d="m0 0-1.991-10.494-34.061 6.467 1.992 10.494z" style="fill:#e30613;fill-opacity:1;fill-rule:nonzero;stroke:none" transform="translate(651.427 259.9)"/><path d="M0 0c-.863-2.576-.482-7.105 6.838-9.553 7.32-2.449 10.346.942 11.21 3.518.862 2.58.48 7.109-6.84 9.556C3.888 5.967.86 2.576 0 0m26.241-8.773C22.902-18.764 13.49-23.039 3.449-19.684-6.586-16.328-11.536-7.25-8.195 2.742c3.339 9.99 12.754 14.266 22.788 10.908 10.04-3.357 14.989-12.431 11.648-22.423" style="fill:#e30613;fill-opacity:1;fill-rule:nonzero;stroke:none" transform="translate(616.751 231.706)"/><path d="m0 0-5.282-9.559-21.114.137-.047-.082 16.228-8.975-4.886-8.837-30.331 16.771 5.027 9.09 21.712.143.047.083-16.569 9.165 4.886 8.834z" style="fill:#e30613;fill-opacity:1;fill-rule:nonzero;stroke:none" transform="translate(632.012 196.446)"/><path d="m0 0 1.221 11.061-.089.035-7.189-8.582Zm.779 23.807 9.643-4-1.621-36.86-10.226 4.24.553 5.131-10.181 4.227-3.334-3.981-9.912 4.11L.779 23.805z" style="fill:#e30613;fill-opacity:1;fill-rule:nonzero;stroke:none" transform="translate(337.01 80.19)"/><path d="m0 0 5.536-1.039c2.193-.414 3.693-.055 4.106 2.139.325 1.72-.992 2.609-3.139 3.015L.97 5.152Zm-2.384-12.691 6.155-1.157C5.967-14.26 7.99-14 8.483-11.375c.377 2.004-.609 3.324-3.089 3.793l-6.586 1.238zm-5.619 27.927 18.655-3.506c8.972-1.685 9.929-7.103 9.274-10.584-.646-3.437-2.666-4.984-5.453-5.892 2.854-1.623 5.26-4.596 4.319-9.606-1.281-6.822-7.861-9.238-13.874-8.111l-19.323 3.635z" style="fill:#e30613;fill-opacity:1;fill-rule:nonzero;stroke:none" transform="translate(370.218 79.284)"/><path d="M0 0c.328-9.609-4.709-14.395-15.284-14.754-10.58-.359-15.975 4.072-16.302 13.68l-.723 21.252 10.673.367.641-18.879c.122-3.543.27-7.957 5.462-7.779 5.046.17 4.899 4.586 4.779 8.129l-.642 18.873 10.672.361z" style="fill:#e30613;fill-opacity:1;fill-rule:nonzero;stroke:none" transform="translate(430.084 67.995)"/><path d="M0 0c2.044-9.342-1.374-13.922-9.863-15.781-8.583-1.881-13.473 2.066-15.094 9.463l-.625 2.847 9.389 2.059.427-1.945c.573-2.61 1.104-5.028 3.898-4.413 2.704.588 1.798 3.821 1.466 5.338l-4.781 21.819 10.432 2.285z" style="fill:#e30613;fill-opacity:1;fill-rule:nonzero;stroke:none" transform="translate(464.494 73.692)"/><path d="m0 0-7.073 8.582-.09-.037 1.144-11.131zm-16.519 17.15 9.587 4.123L18.356-5.576 8.189-9.949 4.897-5.977l-10.122-4.351.531-5.164-9.855-4.24z" style="fill:#e30613;fill-opacity:1;fill-rule:nonzero;stroke:none" transform="translate(491.367 83.751)"/><path d="M0 0a8.186 8.186 0 0 0 8.183-8.184A8.185 8.185 0 0 0 0-16.365c-4.518 0-8.184 3.666-8.184 8.181A8.186 8.186 0 0 0 0 0" style="fill:#e30613;fill-opacity:1;fill-rule:nonzero;stroke:none" transform="translate(561.695 138.378)"/><path d="M0 0a8.183 8.183 0 0 0 0-16.365A8.183 8.183 0 0 0 0 0" style="fill:#e30613;fill-opacity:1;fill-rule:nonzero;stroke:none" transform="translate(258.884 138.378)"/><path d="M0 0c-152.434 0-275.998-123.573-275.998-275.995 0-152.434 123.574-275.998 275.998-275.998 152.412 0 275.986 123.574 275.986 276.007C275.986-123.563 152.412.01-.01.01Zm0-16.664c35.016 0 68.979-6.853 100.939-20.373 30.879-13.06 58.615-31.762 82.44-55.585 23.822-23.822 42.521-51.558 55.585-82.438 13.515-31.96 20.372-65.921 20.372-100.938 0-35.019-6.854-68.981-20.372-100.944-13.064-30.875-31.763-58.614-55.585-82.436-23.822-23.822-51.561-42.523-82.44-55.584C68.979-528.481 35.016-535.337 0-535.337c-35.019 0-68.98 6.856-100.941 20.375-30.88 13.061-58.617 31.762-82.438 55.584-23.824 23.822-42.524 51.561-55.586 82.436-13.518 31.961-20.372 65.925-20.372 100.944 0 35.017 6.854 68.978 20.372 100.938 13.062 30.88 31.762 58.617 55.586 82.438 23.821 23.823 51.558 42.525 82.438 55.585C-68.98-23.517-35.019-16.664 0-16.664" style="fill:#e30613;fill-opacity:1;fill-rule:nonzero;stroke:none" transform="translate(410.613 575.646)"/><path d="M0 0c-108.402 0-196.282-87.879-196.282-196.281 0-108.403 87.877-196.278 196.282-196.278 108.403 0 196.279 87.875 196.279 196.278C196.279-87.877 108.401 0 0 0m0-7.69c50.374 0 97.73-19.617 133.355-55.238 35.622-35.619 55.24-82.978 55.24-133.357 0-50.374-19.618-97.731-55.24-133.356C97.734-365.262 50.377-384.879 0-384.879c-50.375 0-97.731 19.617-133.357 55.238-35.621 35.619-55.237 82.978-55.237 133.356 0 50.374 19.617 97.731 55.237 133.357C-97.737-27.306-50.377-7.69 0-7.69" style="fill:#e30613;fill-opacity:1;fill-rule:nonzero;stroke:none" transform="translate(410.613 495.93)"/></g></svg>