<?xml version="1.0" encoding="utf-8"?>
<!-- Generator: Adobe Illustrator 13.0.0, SVG Export Plug-In . SVG Version: 6.00 Build 14948)  -->
<!DOCTYPE svg PUBLIC "-//W3C//DTD SVG 1.0//EN" "http://www.w3.org/TR/2001/REC-SVG-20010904/DTD/svg10.dtd">
<svg version="1.0" id="HQFL" xmlns="http://www.w3.org/2000/svg" xmlns:xlink="http://www.w3.org/1999/xlink" x="0px" y="0px"
	 width="266.011px" height="440.896px" viewBox="0 0 266.011 440.896" enable-background="new 0 0 266.011 440.896"
	 xml:space="preserve">
<rect fill="#004B94" width="266.011" height="31.046"/>
<rect y="31.046" fill="#FFFFFF" width="266.011" height="8.399"/>
<rect y="39.446" fill="#E32219" width="266.011" height="54.705"/>
<rect y="94.151" fill="#FFFFFF" width="266.011" height="8.401"/>
<rect y="102.552" fill="#004B94" width="266.011" height="31.158"/>
<circle fill="#FFFFFF" cx="72.426" cy="66.747" r="25.171"/>
<polygon fill="#E32219" points="77.546,59.47 94.49,59.47 80.643,69.387 86.056,85.7 72.2,75.417 58.643,85.092 63.884,69.191 
	50.64,59.47 67.077,59.47 72.319,44.27 "/>
<polygon fill="#009036" points="133.183,440.896 266.011,351.27 266.011,133.71 0,133.71 0,351.27 "/>
<path fill="#004B94" d="M226.95,215.721c-1.028-2.062-2.127-4.081-3.286-6.063c-13.301-22.761-34.913-40.082-60.655-47.775
	c-1.725-0.516-3.47-0.985-5.232-1.414c-1.668-0.406-3.353-0.771-5.055-1.095c-6.391-1.22-12.976-1.884-19.716-1.884
	c-4.247,0-8.427,0.283-12.544,0.776c-28.061,3.359-52.743,17.823-69.527,38.87c-1.427,1.79-2.799,3.624-4.108,5.505
	c-11.822,16.982-18.78,37.593-18.78,59.808c0,11.084,1.74,21.762,4.938,31.801c4.907,15.392,13.283,29.242,24.192,40.655
	c14.298,14.956,32.947,25.711,53.909,30.183c2.313,0.496,4.654,0.908,7.021,1.246c4.87,0.694,9.841,1.075,14.9,1.075
	c24.64,0,47.304-8.554,65.23-22.824c2.294-1.826,4.505-3.742,6.635-5.745c10.193-9.594,18.467-21.189,24.191-34.159
	c1.206-2.734,2.291-5.527,3.266-8.374c3.634-10.632,5.633-22.011,5.633-33.858C237.963,245.667,233.984,229.803,226.95,215.721z"/>
<path fill="#FFFFFF" d="M218.881,211.651l-10.722,4.467l-17.261-7.679l-28.588-41.408
	C186.229,174.394,206.333,190.524,218.881,211.651z"/>
<polygon fill="#FFFFFF" points="152.478,303.327 131.25,300.969 104.351,251.016 115.502,228.718 167.35,231.354 182.582,260.991 
	"/>
<polygon fill="#FFFFFF" points="59.357,312.237 47.838,293.037 73.22,250.085 98.818,255.207 123.559,301.153 110.886,323.334 "/>
<polygon fill="#FFFFFF" points="128.646,165.836 153.148,165.836 184.209,210.824 169.843,224.611 115.72,221.86 103.001,203.787 
	"/>
<path fill="#FFFFFF" d="M122.121,163.24l-26.864,39.755l-20.638,13.681L54.901,200.41C71.073,180.093,94.97,166.201,122.121,163.24z
	"/>
<path fill="#FFFFFF" d="M33.192,262.449c0-20.972,6.517-40.443,17.611-56.527l19.714,16.265l-0.891,20.496l-28.862,48.844
	l-2.922,1.021C34.828,283.045,33.192,272.937,33.192,262.449z"/>
<path fill="#FFFFFF" d="M58.555,328.838l2.114-9.302l50.425,10.859l11.045,11.895l-8.741,18.028
	C91.795,355.997,72.697,344.678,58.555,328.838z"/>
<path fill="#FFFFFF" d="M133.007,362.264c-4.247,0-8.424-0.298-12.532-0.814l8.158-16.829l23.092-8.658l39.683,7.355
	C174.975,355.219,154.803,362.264,133.007,362.264z"/>
<path fill="#FFFFFF" d="M198.519,337.661l-41.438-7.68l2.11-24.255l31.627-44.479l12.836-3.474l22.258,41.09
	C219.99,313.918,210.517,327.193,198.519,337.661z"/>
<path fill="#FFFFFF" d="M228.919,290.009L209.308,253.8v-30.728l12.879-5.368c6.787,13.468,10.632,28.663,10.632,44.744
	C232.819,272.008,231.442,281.25,228.919,290.009z"/>
</svg>
