<?xml version="1.0" encoding="UTF-8" standalone="no"?>
<!-- Created with Inkscape (http://www.inkscape.org/) -->

<svg
   width="109.16414"
   height="121.55765"
   viewBox="0 0 28.883011 32.162127"
   version="1.1"
   id="svg22745"
   inkscape:version="1.1 (c68e22c387, 2021-05-23)"
   sodipodi:docname="Oman Football Association logo.svg"
   xmlns:inkscape="http://www.inkscape.org/namespaces/inkscape"
   xmlns:sodipodi="http://sodipodi.sourceforge.net/DTD/sodipodi-0.dtd"
   xmlns="http://www.w3.org/2000/svg"
   xmlns:svg="http://www.w3.org/2000/svg">
  <sodipodi:namedview
     id="namedview22747"
     pagecolor="#ffffff"
     bordercolor="#666666"
     borderopacity="1.0"
     inkscape:pageshadow="2"
     inkscape:pageopacity="0.0"
     inkscape:pagecheckerboard="0"
     inkscape:document-units="mm"
     showgrid="false"
     fit-margin-top="0"
     fit-margin-left="0"
     fit-margin-right="0"
     fit-margin-bottom="0"
     units="px"
     inkscape:zoom="2.8220782"
     inkscape:cx="13.642428"
     inkscape:cy="66.794746"
     inkscape:window-width="1366"
     inkscape:window-height="745"
     inkscape:window-x="-8"
     inkscape:window-y="-8"
     inkscape:window-maximized="1"
     inkscape:current-layer="layer1" />
  <defs
     id="defs22742">
    <linearGradient
       x1="0"
       y1="0"
       x2="1"
       y2="0"
       gradientUnits="userSpaceOnUse"
       gradientTransform="matrix(25.490386,21.388961,21.388961,-25.490386,444.972,562.28136)"
       spreadMethod="pad"
       id="linearGradient1401">
      <stop
         style="stop-opacity:1;stop-color:#fffccc"
         offset="0"
         id="stop1391" />
      <stop
         style="stop-opacity:1;stop-color:#ad5f29"
         offset="0.185393"
         id="stop1393" />
      <stop
         style="stop-opacity:1;stop-color:#c58756"
         offset="0.522472"
         id="stop1395" />
      <stop
         style="stop-opacity:1;stop-color:#fffccc"
         offset="0.769663"
         id="stop1397" />
      <stop
         style="stop-opacity:1;stop-color:#ca812d"
         offset="1"
         id="stop1399" />
    </linearGradient>
    <clipPath
       clipPathUnits="userSpaceOnUse"
       id="clipPath1411">
      <path
         d="m 441.911,551.897 h 30.569 v 34.04 h -30.569 z"
         id="path1409" />
    </clipPath>
    <linearGradient
       x1="0"
       y1="0"
       x2="1"
       y2="0"
       gradientUnits="userSpaceOnUse"
       gradientTransform="matrix(-1.3e-6,29.24045,29.24045,1.3e-6,457.21463,553.01982)"
       spreadMethod="pad"
       id="linearGradient1439">
      <stop
         style="stop-opacity:1;stop-color:#fffccc"
         offset="0"
         id="stop1429" />
      <stop
         style="stop-opacity:1;stop-color:#ab5b2b"
         offset="0.185393"
         id="stop1431" />
      <stop
         style="stop-opacity:1;stop-color:#fffccc"
         offset="0.522472"
         id="stop1433" />
      <stop
         style="stop-opacity:1;stop-color:#fffccc"
         offset="0.769663"
         id="stop1435" />
      <stop
         style="stop-opacity:1;stop-color:#c6812c"
         offset="1"
         id="stop1437" />
    </linearGradient>
    <clipPath
       clipPathUnits="userSpaceOnUse"
       id="clipPath1449">
      <path
         d="m 441.911,551.897 h 30.569 v 34.04 h -30.569 z"
         id="path1447" />
    </clipPath>
    <linearGradient
       x1="0"
       y1="0"
       x2="1"
       y2="0"
       gradientUnits="userSpaceOnUse"
       gradientTransform="matrix(6.9724413,0,0,-6.9724413,457.50052,579.01057)"
       spreadMethod="pad"
       id="linearGradient1497">
      <stop
         style="stop-opacity:1;stop-color:#565353"
         offset="0"
         id="stop1485" />
      <stop
         style="stop-opacity:1;stop-color:#565353"
         offset="0.003958"
         id="stop1487" />
      <stop
         style="stop-opacity:1;stop-color:#565353"
         offset="0.01573587"
         id="stop1489" />
      <stop
         style="stop-opacity:1;stop-color:#d3d2d2"
         offset="0.40807"
         id="stop1491" />
      <stop
         style="stop-opacity:1;stop-color:#d3d2d2"
         offset="0.42532184"
         id="stop1493" />
      <stop
         style="stop-opacity:1;stop-color:#e9e9e9"
         offset="1"
         id="stop1495" />
    </linearGradient>
    <linearGradient
       x1="0"
       y1="0"
       x2="1"
       y2="0"
       gradientUnits="userSpaceOnUse"
       gradientTransform="matrix(12.109912,0,0,-12.109912,452.54305,578.27187)"
       spreadMethod="pad"
       id="linearGradient1525">
      <stop
         style="stop-opacity:1;stop-color:#565353"
         offset="0"
         id="stop1513" />
      <stop
         style="stop-opacity:1;stop-color:#565353"
         offset="0.003958"
         id="stop1515" />
      <stop
         style="stop-opacity:1;stop-color:#565353"
         offset="0.01573587"
         id="stop1517" />
      <stop
         style="stop-opacity:1;stop-color:#d3d2d2"
         offset="0.40807"
         id="stop1519" />
      <stop
         style="stop-opacity:1;stop-color:#d3d2d2"
         offset="0.42532184"
         id="stop1521" />
      <stop
         style="stop-opacity:1;stop-color:#e9e9e9"
         offset="1"
         id="stop1523" />
    </linearGradient>
    <linearGradient
       x1="0"
       y1="0"
       x2="1"
       y2="0"
       gradientUnits="userSpaceOnUse"
       gradientTransform="matrix(13.721405,0,0,-13.721405,449.09573,576.55499)"
       spreadMethod="pad"
       id="linearGradient1549">
      <stop
         style="stop-opacity:1;stop-color:#952328"
         offset="0"
         id="stop1541" />
      <stop
         style="stop-opacity:1;stop-color:#ed1c24"
         offset="0.10970066"
         id="stop1543" />
      <stop
         style="stop-opacity:1;stop-color:#ed1c24"
         offset="0.546012"
         id="stop1545" />
      <stop
         style="stop-opacity:1;stop-color:#ffffff"
         offset="1"
         id="stop1547" />
    </linearGradient>
    <linearGradient
       x1="0"
       y1="0"
       x2="1"
       y2="0"
       gradientUnits="userSpaceOnUse"
       gradientTransform="matrix(17.897133,0,0,-17.897133,447.49643,572.60311)"
       spreadMethod="pad"
       id="linearGradient1573">
      <stop
         style="stop-opacity:1;stop-color:#952328"
         offset="0"
         id="stop1565" />
      <stop
         style="stop-opacity:1;stop-color:#ed1c24"
         offset="0.10970066"
         id="stop1567" />
      <stop
         style="stop-opacity:1;stop-color:#ed1c24"
         offset="0.546012"
         id="stop1569" />
      <stop
         style="stop-opacity:1;stop-color:#ffffff"
         offset="1"
         id="stop1571" />
    </linearGradient>
    <linearGradient
       x1="0"
       y1="0"
       x2="1"
       y2="0"
       gradientUnits="userSpaceOnUse"
       gradientTransform="matrix(18.870915,0,0,-18.870915,447.3417,568.73644)"
       spreadMethod="pad"
       id="linearGradient1597">
      <stop
         style="stop-opacity:1;stop-color:#952328"
         offset="0"
         id="stop1589" />
      <stop
         style="stop-opacity:1;stop-color:#ed1c24"
         offset="0.10970066"
         id="stop1591" />
      <stop
         style="stop-opacity:1;stop-color:#ed1c24"
         offset="0.546012"
         id="stop1593" />
      <stop
         style="stop-opacity:1;stop-color:#ffffff"
         offset="1"
         id="stop1595" />
    </linearGradient>
    <linearGradient
       x1="0"
       y1="0"
       x2="1"
       y2="0"
       gradientUnits="userSpaceOnUse"
       gradientTransform="matrix(12.70715,0,0,-12.70715,448.004,565.64949)"
       spreadMethod="pad"
       id="linearGradient1625">
      <stop
         style="stop-opacity:1;stop-color:#0b713b"
         offset="0"
         id="stop1613" />
      <stop
         style="stop-opacity:1;stop-color:#0b713b"
         offset="0.003958"
         id="stop1615" />
      <stop
         style="stop-opacity:1;stop-color:#33b540"
         offset="0.23425013"
         id="stop1617" />
      <stop
         style="stop-opacity:1;stop-color:#33b540"
         offset="0.441718"
         id="stop1619" />
      <stop
         style="stop-opacity:1;stop-color:#33b540"
         offset="0.71650739"
         id="stop1621" />
      <stop
         style="stop-opacity:1;stop-color:#33b540"
         offset="1"
         id="stop1623" />
    </linearGradient>
    <linearGradient
       x1="0"
       y1="0"
       x2="1"
       y2="0"
       gradientUnits="userSpaceOnUse"
       gradientTransform="matrix(9.4291884,0,0,-9.4291884,450.85079,562.23775)"
       spreadMethod="pad"
       id="linearGradient1653">
      <stop
         style="stop-opacity:1;stop-color:#0b713b"
         offset="0"
         id="stop1641" />
      <stop
         style="stop-opacity:1;stop-color:#0b713b"
         offset="0.003958"
         id="stop1643" />
      <stop
         style="stop-opacity:1;stop-color:#33b540"
         offset="0.23425013"
         id="stop1645" />
      <stop
         style="stop-opacity:1;stop-color:#33b540"
         offset="0.441718"
         id="stop1647" />
      <stop
         style="stop-opacity:1;stop-color:#33b540"
         offset="0.71650739"
         id="stop1649" />
      <stop
         style="stop-opacity:1;stop-color:#33b540"
         offset="1"
         id="stop1651" />
    </linearGradient>
    <clipPath
       clipPathUnits="userSpaceOnUse"
       id="clipPath1663">
      <path
         d="m 441.911,551.897 h 30.569 v 34.04 h -30.569 z"
         id="path1661" />
    </clipPath>
  </defs>
  <g
     inkscape:label="Layer 1"
     inkscape:groupmode="layer"
     id="layer1"
     transform="translate(-173.86861,-105.90108)">
    <g
       id="g1379"
       transform="matrix(0.94483334,0,0,-0.94483334,-243.66324,659.51389)">
      <g
         id="g1381">
        <g
           id="g1387">
          <g
             id="g1389">
            <path
               d="m 443.128,582.367 -0.729,-3.282 c -0.052,-0.172 -1.107,-4.328 0.055,-9.702 v 0 c 1.084,-4.984 4.373,-11.99 13.885,-17.031 v 0 l 0.852,-0.455 0.854,0.455 c 9.521,5.041 12.805,12.047 13.89,17.031 v 0 c 0.401,1.847 0.539,3.551 0.545,4.997 v 0 0.209 c -0.011,2.646 -0.456,4.386 -0.484,4.496 v 0 l -0.573,3.282 c -0.403,1.897 -8.802,3.57 -13.687,3.57 v 0 c -4.879,0 -14.21,-1.673 -14.608,-3.57"
               style="fill:url(#linearGradient1401);stroke:none"
               id="path1403" />
          </g>
        </g>
      </g>
    </g>
    <g
       id="g1405"
       transform="matrix(0.94483334,0,0,-0.94483334,-243.66324,659.51389)">
      <g
         id="g1407"
         clip-path="url(#clipPath1411)">
        <g
           id="g1413"
           transform="translate(457.2083,582.1816)">
          <path
             d="M 0,0 C -6.569,0 -13.535,-2.308 -13.671,-3.795 -14.131,-8.91 -13.609,-21.121 0,-28.881 13.642,-21.108 14.142,-8.865 13.676,-3.768 13.541,-2.296 6.574,0 0,0"
             style="fill:#ffffff;fill-opacity:1;fill-rule:nonzero;stroke:none"
             id="path1415" />
        </g>
      </g>
    </g>
    <g
       id="g1417"
       transform="matrix(0.94483334,0,0,-0.94483334,-243.66324,659.51389)">
      <g
         id="g1419">
        <g
           id="g1425">
          <g
             id="g1427">
            <path
               d="m 443.268,578.389 c -0.472,-5.216 0.056,-17.463 13.94,-25.37 v 0 c 13.918,7.923 14.424,20.203 13.952,25.398 v 0 c -0.135,1.502 -7.242,3.843 -13.952,3.843 v 0 c -6.703,0 -13.805,-2.352 -13.94,-3.871 m 0.697,-0.334 c 0.128,1.442 6.876,3.677 13.243,3.677 v 0 c 6.372,0 13.126,-2.223 13.255,-3.649 v 0 c 0.45,-4.941 -0.038,-16.8 -13.255,-24.333 v 0 c -13.188,7.519 -13.692,19.348 -13.243,24.305"
               style="fill:url(#linearGradient1439);stroke:none"
               id="path1441" />
          </g>
        </g>
      </g>
    </g>
    <g
       id="g1443"
       transform="matrix(0.94483334,0,0,-0.94483334,-243.66324,659.51389)">
      <g
         id="g1445"
         clip-path="url(#clipPath1449)">
        <g
           id="g1451"
           transform="translate(453.5418,557.6229)">
          <path
             d="m 0,0 c 0.012,-0.044 0.028,-0.09 0.051,-0.129 0.022,-0.039 0.062,-0.073 0.101,-0.095 0.039,-0.023 0.09,-0.04 0.146,-0.04 0.068,0 0.112,0.017 0.157,0.04 0.04,0.022 0.073,0.056 0.096,0.095 0.022,0.039 0.045,0.085 0.05,0.129 0.011,0.057 0.023,0.102 0.023,0.158 0,0.05 -0.012,0.1 -0.023,0.151 C 0.596,0.36 0.573,0.404 0.551,0.444 0.528,0.483 0.495,0.511 0.455,0.539 0.41,0.562 0.366,0.573 0.298,0.573 0.242,0.573 0.191,0.562 0.152,0.539 0.113,0.511 0.073,0.483 0.051,0.444 0.028,0.404 0.012,0.36 0,0.309 -0.01,0.258 -0.016,0.208 -0.016,0.158 -0.016,0.102 -0.01,0.057 0,0 m -0.325,0.439 c 0.034,0.084 0.079,0.156 0.135,0.218 0.062,0.062 0.135,0.109 0.213,0.143 0.084,0.033 0.18,0.044 0.275,0.044 C 0.405,0.844 0.495,0.833 0.579,0.8 0.662,0.766 0.736,0.719 0.792,0.657 0.848,0.595 0.899,0.523 0.927,0.439 0.96,0.355 0.978,0.265 0.978,0.158 0.978,0.051 0.96,-0.039 0.927,-0.129 0.899,-0.213 0.848,-0.28 0.792,-0.342 0.736,-0.398 0.662,-0.449 0.579,-0.476 0.495,-0.511 0.405,-0.527 0.298,-0.527 c -0.095,0 -0.191,0.016 -0.275,0.051 -0.078,0.027 -0.151,0.078 -0.213,0.134 -0.056,0.062 -0.101,0.129 -0.135,0.213 -0.034,0.09 -0.051,0.18 -0.051,0.287 0,0.107 0.017,0.197 0.051,0.281"
             style="fill:#231f20;fill-opacity:1;fill-rule:nonzero;stroke:none"
             id="path1453" />
        </g>
        <g
           id="g1455"
           transform="translate(454.6201,558.1964)">
          <path
             d="m 0,0 v 0.237 h 0.208 v 0.101 c 0,0.118 0.033,0.213 0.112,0.286 0.068,0.073 0.18,0.11 0.326,0.11 0.034,0 0.062,0 0.095,-0.003 0.034,0 0.062,-0.006 0.09,-0.006 V 0.456 C 0.792,0.459 0.752,0.464 0.702,0.464 0.651,0.464 0.617,0.452 0.601,0.428 0.573,0.407 0.567,0.369 0.567,0.316 V 0.237 H 0.814 V 0 H 0.567 V -1.067 H 0.208 V 0 Z"
             style="fill:#231f20;fill-opacity:1;fill-rule:nonzero;stroke:none"
             id="path1457" />
        </g>
        <g
           id="g1459"
           transform="translate(456.3497,557.7359)">
          <path
             d="m 0,0 c -0.023,-0.012 -0.051,-0.012 -0.073,-0.023 -0.028,0 -0.056,-0.005 -0.084,-0.005 -0.029,-0.005 -0.056,-0.012 -0.084,-0.017 -0.028,0 -0.057,-0.011 -0.085,-0.017 -0.022,-0.011 -0.045,-0.022 -0.067,-0.039 -0.017,-0.012 -0.034,-0.028 -0.045,-0.051 -0.011,-0.022 -0.018,-0.051 -0.018,-0.083 0,-0.034 0.007,-0.057 0.018,-0.086 0.011,-0.016 0.028,-0.033 0.045,-0.049 0.022,-0.013 0.045,-0.023 0.072,-0.023 0.029,-0.005 0.057,-0.011 0.085,-0.011 0.073,0 0.124,0.011 0.163,0.039 0.039,0.017 0.067,0.05 0.09,0.084 0.017,0.028 0.028,0.062 0.028,0.096 0.006,0.033 0.006,0.061 0.006,0.084 V 0.028 C 0.04,0.016 0.022,0.005 0,0 m -0.708,0.504 c 0.034,0.057 0.084,0.102 0.135,0.135 0.062,0.036 0.124,0.058 0.202,0.075 0.067,0.011 0.141,0.016 0.214,0.016 0.061,0 0.134,-0.002 0.197,-0.01 C 0.106,0.708 0.169,0.692 0.224,0.667 0.275,0.639 0.32,0.601 0.359,0.556 0.393,0.504 0.41,0.438 0.41,0.359 v -0.68 c 0,-0.056 0.005,-0.112 0.016,-0.168 0,-0.05 0.011,-0.089 0.028,-0.118 H 0.09 c 0,0.018 -0.011,0.04 -0.011,0.062 0,0.022 -0.007,0.04 -0.013,0.063 -0.049,-0.057 -0.123,-0.096 -0.201,-0.119 -0.073,-0.029 -0.152,-0.039 -0.236,-0.039 -0.062,0 -0.118,0.005 -0.174,0.023 -0.05,0.016 -0.101,0.039 -0.14,0.066 -0.039,0.04 -0.073,0.073 -0.096,0.123 -0.022,0.051 -0.033,0.107 -0.033,0.175 0,0.072 0.016,0.14 0.044,0.185 0.023,0.045 0.056,0.084 0.096,0.113 0.045,0.027 0.085,0.05 0.14,0.067 0.051,0.011 0.107,0.022 0.163,0.028 0.05,0.012 0.107,0.022 0.158,0.022 0.05,0.006 0.101,0.017 0.14,0.023 C -0.034,0.196 0,0.214 0.022,0.23 0.045,0.252 0.056,0.28 0.051,0.314 0.051,0.354 0.045,0.387 0.04,0.41 0.022,0.432 0.005,0.449 -0.011,0.46 -0.034,0.477 -0.063,0.482 -0.09,0.482 -0.118,0.488 -0.146,0.488 -0.18,0.488 -0.247,0.488 -0.304,0.477 -0.343,0.449 -0.382,0.415 -0.41,0.365 -0.416,0.291 H -0.77 c 0,0.091 0.023,0.158 0.062,0.213"
             style="fill:#231f20;fill-opacity:1;fill-rule:nonzero;stroke:none"
             id="path1461" />
        </g>
        <path
           d="m 457.45,557.129 h -0.393 v 0.388 h 0.393 z"
           style="fill:#231f20;fill-opacity:1;fill-rule:nonzero;stroke:none"
           id="path1463" />
        <g
           id="g1465"
           transform="translate(458.0726,557.6229)">
          <path
             d="m 0,0 c 0.012,-0.044 0.029,-0.09 0.051,-0.129 0.027,-0.039 0.062,-0.073 0.101,-0.095 0.038,-0.023 0.09,-0.04 0.146,-0.04 0.068,0 0.112,0.017 0.157,0.04 0.039,0.022 0.073,0.056 0.101,0.095 0.022,0.039 0.039,0.085 0.05,0.129 0.006,0.057 0.018,0.102 0.018,0.158 0,0.05 -0.012,0.1 -0.018,0.151 C 0.595,0.36 0.578,0.404 0.556,0.444 0.528,0.483 0.494,0.511 0.455,0.539 0.41,0.562 0.366,0.573 0.298,0.573 0.242,0.573 0.19,0.562 0.152,0.539 0.113,0.511 0.078,0.483 0.051,0.444 0.029,0.404 0.012,0.36 0,0.309 -0.011,0.258 -0.016,0.208 -0.016,0.158 -0.016,0.102 -0.011,0.057 0,0 m -0.326,0.439 c 0.034,0.084 0.08,0.156 0.141,0.218 0.056,0.062 0.13,0.109 0.208,0.143 C 0.107,0.833 0.202,0.844 0.298,0.844 0.404,0.844 0.494,0.833 0.584,0.8 0.669,0.766 0.736,0.719 0.792,0.657 0.854,0.595 0.898,0.523 0.932,0.439 0.96,0.355 0.977,0.265 0.977,0.158 0.977,0.051 0.96,-0.039 0.932,-0.129 0.898,-0.213 0.854,-0.28 0.792,-0.342 0.736,-0.398 0.669,-0.449 0.584,-0.476 0.494,-0.511 0.404,-0.527 0.298,-0.527 c -0.096,0 -0.191,0.016 -0.275,0.051 -0.078,0.027 -0.152,0.078 -0.208,0.134 -0.061,0.062 -0.107,0.129 -0.141,0.213 -0.028,0.09 -0.05,0.18 -0.05,0.287 0,0.107 0.022,0.197 0.05,0.281"
             style="fill:#231f20;fill-opacity:1;fill-rule:nonzero;stroke:none"
             id="path1467" />
        </g>
        <g
           id="g1469"
           transform="translate(459.6339,558.4332)">
          <path
             d="m 0,0 v -0.176 h 0.006 c 0.044,0.068 0.101,0.118 0.161,0.156 0.069,0.037 0.153,0.053 0.237,0.053 0.078,0 0.152,-0.01 0.225,-0.044 0.066,-0.034 0.118,-0.091 0.157,-0.17 0.039,0.056 0.09,0.107 0.157,0.152 0.062,0.046 0.14,0.062 0.231,0.062 0.072,0 0.14,-0.005 0.196,-0.022 0.056,-0.016 0.112,-0.045 0.145,-0.08 0.046,-0.039 0.079,-0.09 0.101,-0.146 0.029,-0.061 0.041,-0.134 0.041,-0.219 v -0.87 h -0.36 v 0.736 c 0,0.05 0,0.09 -0.006,0.128 -0.005,0.034 -0.017,0.068 -0.028,0.102 -0.017,0.022 -0.04,0.05 -0.067,0.067 C 1.168,-0.26 1.128,-0.249 1.077,-0.249 1.022,-0.249 0.988,-0.26 0.954,-0.276 0.921,-0.299 0.893,-0.321 0.882,-0.355 0.865,-0.383 0.853,-0.417 0.842,-0.461 0.836,-0.496 0.836,-0.535 0.836,-0.58 V -1.304 H 0.477 v 0.729 0.114 c 0,0.037 -0.011,0.078 -0.022,0.106 -0.012,0.034 -0.034,0.056 -0.063,0.079 -0.026,0.016 -0.072,0.027 -0.134,0.027 -0.011,0 -0.039,0 -0.068,-0.011 C 0.167,-0.266 0.14,-0.282 0.112,-0.305 0.085,-0.327 0.067,-0.355 0.039,-0.394 0.028,-0.434 0.016,-0.484 0.016,-0.546 V -1.304 H -0.342 V 0 Z"
             style="fill:#231f20;fill-opacity:1;fill-rule:nonzero;stroke:none"
             id="path1471" />
        </g>
      </g>
    </g>
    <g
       id="g1473"
       transform="matrix(0.94483334,0,0,-0.94483334,-243.66324,659.51389)">
      <g
         id="g1475">
        <g
           id="g1481">
          <g
             id="g1483">
            <path
               d="m 457.501,580.447 c 1.886,-0.043 5.822,-1.786 6.972,-2.873 v 0 c -0.758,0.722 -3.093,2.794 -6.972,2.873 z"
               style="fill:url(#linearGradient1497);stroke:none"
               id="path1499" />
          </g>
        </g>
      </g>
    </g>
    <g
       id="g1501"
       transform="matrix(0.94483334,0,0,-0.94483334,-243.66324,659.51389)">
      <g
         id="g1503">
        <g
           id="g1509">
          <g
             id="g1511">
            <path
               d="m 455.827,580.306 c -1.818,-0.275 -3.284,-1.131 -3.284,-1.131 v 0 c 0.505,0.26 5.502,0.39 12.11,-2.95 v 0 c -2.778,2.374 -7.243,4.094 -8.642,4.094 v 0 c -0.069,0 -0.13,-0.004 -0.184,-0.013"
               style="fill:url(#linearGradient1525);stroke:none"
               id="path1527" />
          </g>
        </g>
      </g>
    </g>
    <g
       id="g1529"
       transform="matrix(0.94483334,0,0,-0.94483334,-243.66324,659.51389)">
      <g
         id="g1531">
        <g
           id="g1537">
          <g
             id="g1539">
            <path
               d="m 451.285,578.346 c -0.572,-0.454 -1.213,-0.914 -2.19,-2.317 v 0 c 0.338,0.482 4.307,2.081 13.722,-1.382 v 0 c -3.388,2.843 -8.704,3.815 -10.738,3.815 v 0 c -0.419,0 -0.699,-0.041 -0.794,-0.116"
               style="fill:url(#linearGradient1549);stroke:none"
               id="path1551" />
          </g>
        </g>
      </g>
    </g>
    <g
       id="g1553"
       transform="matrix(0.94483334,0,0,-0.94483334,-243.66324,659.51389)">
      <g
         id="g1555">
        <g
           id="g1561">
          <g
             id="g1563">
            <path
               d="m 448.535,575.113 c -0.342,-0.674 -0.848,-1.881 -1.039,-3.04 v 0 c 0.393,2.378 9.656,2.439 17.898,-2.403 v 0 c -4.288,4.593 -11.033,5.866 -14.557,5.866 v 0 c -1.311,0 -2.176,-0.177 -2.302,-0.423"
               style="fill:url(#linearGradient1573);stroke:none"
               id="path1575" />
          </g>
        </g>
      </g>
    </g>
    <g
       id="g1577"
       transform="matrix(0.94483334,0,0,-0.94483334,-243.66324,659.51389)">
      <g
         id="g1579">
        <g
           id="g1585">
          <g
             id="g1587">
            <path
               d="m 447.349,570.818 c -0.027,-0.718 0,-1.976 0.417,-3.323 v 0 c -0.147,0.494 4.384,5.603 18.447,-2.081 v 0 c -5.064,5.152 -10.972,6.644 -14.809,6.644 v 0 c -2.425,10e-4 -4.021,-0.596 -4.055,-1.24"
               style="fill:url(#linearGradient1597);stroke:none"
               id="path1599" />
          </g>
        </g>
      </g>
    </g>
    <g
       id="g1601"
       transform="matrix(0.94483334,0,0,-0.94483334,-243.66324,659.51389)">
      <g
         id="g1603">
        <g
           id="g1609">
          <g
             id="g1611">
            <path
               d="m 448.018,566.736 c 0.297,-0.719 0.954,-2.233 2.184,-3.413 v 0 c -0.691,0.667 -0.539,4.413 10.509,1.295 v 0 c -4.184,2.605 -7.352,3.358 -9.478,3.358 v 0 c -2.284,0 -3.366,-0.869 -3.215,-1.24"
               style="fill:url(#linearGradient1625);stroke:none"
               id="path1627" />
          </g>
        </g>
      </g>
    </g>
    <g
       id="g1629"
       transform="matrix(0.94483334,0,0,-0.94483334,-243.66324,659.51389)">
      <g
         id="g1631">
        <g
           id="g1637">
          <g
             id="g1639">
            <path
               d="m 452.571,563.946 c -1.488,-0.176 -2.229,-0.909 -1.33,-1.564 v 0 c 1.431,-1.044 3.092,-1.624 3.964,-1.871 v 0 c -1.096,0.314 -2.842,2.357 5.075,1.005 v 0 c -1.837,1.711 -5.706,2.449 -7.324,2.449 v 0 c -0.148,0 -0.278,-0.006 -0.385,-0.019"
               style="fill:url(#linearGradient1653);stroke:none"
               id="path1655" />
          </g>
        </g>
      </g>
    </g>
    <g
       id="g1657"
       transform="matrix(0.94483334,0,0,-0.94483334,-243.66324,659.51389)">
      <g
         id="g1659"
         clip-path="url(#clipPath1663)">
        <g
           id="g1665"
           transform="translate(444.7165,581.5087)">
          <path
             d="M 0,0 C -0.034,0.07 -0.078,0.119 -0.134,0.14 -0.191,0.159 -0.236,0.159 -0.286,0.138 -0.332,0.115 -0.364,0.075 -0.376,0.025 c -0.011,-0.06 0,-0.124 0.034,-0.191 0.033,-0.067 0.078,-0.118 0.14,-0.138 0.05,-0.025 0.101,-0.02 0.146,0 C 0.04,-0.253 0.073,-0.141 0,0 m 0.23,0.119 c 0.124,-0.26 0.051,-0.487 -0.196,-0.605 -0.118,-0.062 -0.225,-0.073 -0.337,-0.043 -0.101,0.031 -0.179,0.093 -0.247,0.18 l -0.112,-0.056 c -0.056,-0.031 -0.079,-0.065 -0.084,-0.105 0,-0.033 0.017,-0.077 0.05,-0.139 l 0.32,-0.629 -0.23,-0.118 -0.381,0.758 c -0.096,0.185 -0.051,0.331 0.146,0.427 l 0.089,0.039 0.112,0.062 c -0.029,0.193 0.057,0.337 0.253,0.432 0.129,0.064 0.253,0.067 0.376,0.022 C 0.095,0.3 0.18,0.225 0.23,0.119"
             style="fill:#231f20;fill-opacity:1;fill-rule:nonzero;stroke:none"
             id="path1667" />
        </g>
        <g
           id="g1669"
           transform="translate(446.7885,581.8195)">
          <path
             d="m 0,0 -1.308,-0.477 0.033,0.258 0.635,0.238 c -0.062,0.119 -0.14,0.2 -0.241,0.248 -0.085,0.042 -0.163,0.05 -0.22,0.031 l -0.084,0.213 c 0.158,0.056 0.298,0.056 0.433,-0.011 0.14,-0.068 0.263,-0.202 0.359,-0.393 l 0.315,0.112 z"
             style="fill:#231f20;fill-opacity:1;fill-rule:nonzero;stroke:none"
             id="path1671" />
        </g>
        <g
           id="g1673"
           transform="translate(447.2371,582.1921)">
          <path
             d="m 0,0 0.074,-0.227 -0.539,-0.168 -0.068,0.23 z"
             style="fill:#231f20;fill-opacity:1;fill-rule:nonzero;stroke:none"
             id="path1675" />
        </g>
        <g
           id="g1677"
           transform="translate(447.7937,583.4084)">
          <path
             d="m 0,0 -0.224,-0.062 -0.068,0.236 0.224,0.062 z m 0.072,-0.606 c -0.016,0.061 -0.044,0.101 -0.089,0.135 -0.051,0.033 -0.096,0.044 -0.158,0.027 -0.112,-0.034 -0.157,-0.146 -0.122,-0.263 0.022,-0.071 0.066,-0.137 0.139,-0.186 0.057,-0.039 0.101,-0.056 0.124,-0.05 0.029,0.011 0.056,0.045 0.084,0.107 0.034,0.083 0.039,0.159 0.022,0.23 M 0.707,-1.1 0.449,-1.174 C 0.32,-1.207 0.185,-1.218 0.039,-1.201 -0.073,-1.291 -0.197,-1.353 -0.32,-1.387 l -0.185,-0.056 -0.068,0.227 0.068,0.02 c 0.095,0.028 0.179,0.056 0.23,0.085 -0.141,0.078 -0.23,0.19 -0.269,0.325 -0.035,0.129 -0.018,0.241 0.05,0.342 0.056,0.09 0.145,0.152 0.27,0.186 0.117,0.033 0.229,0.028 0.325,-0.022 0.112,-0.049 0.185,-0.135 0.219,-0.265 0.039,-0.138 0.022,-0.274 -0.056,-0.416 0.061,0.007 0.146,0.023 0.247,0.052 l 0.135,0.038 z m -1.045,1.004 -0.224,-0.061 -0.067,0.236 0.225,0.061 z"
             style="fill:#231f20;fill-opacity:1;fill-rule:nonzero;stroke:none"
             id="path1679" />
        </g>
        <g
           id="g1681"
           transform="translate(448.9668,582.7462)">
          <path
             d="m 0,0 c 0.044,-0.188 -0.039,-0.337 -0.241,-0.388 l -0.253,-0.061 -0.056,0.229 0.158,0.038 c 0.095,0.025 0.151,0.097 0.122,0.204 -0.039,0.143 -0.089,0.337 -0.145,0.564 -0.073,0.261 -0.124,0.455 -0.146,0.567 l 0.246,0.065 C -0.286,1.105 -0.236,0.903 -0.157,0.606 -0.09,0.348 -0.039,0.148 0,0"
             style="fill:#231f20;fill-opacity:1;fill-rule:nonzero;stroke:none"
             id="path1683" />
        </g>
        <g
           id="g1685"
           transform="translate(449.6242,582.5721)">
          <path
             d="m 0,0 -0.253,-0.059 -0.365,1.536 0.253,0.052 z"
             style="fill:#231f20;fill-opacity:1;fill-rule:nonzero;stroke:none"
             id="path1687" />
        </g>
        <g
           id="g1689"
           transform="translate(450.8302,583.9249)">
          <path
             d="m 0,0 -0.23,-0.045 -0.044,0.241 0.235,0.045 z M 0.051,-0.635 C 0.034,-0.561 0,-0.505 -0.05,-0.461 c -0.045,0.028 -0.09,0.04 -0.14,0.028 -0.057,-0.007 -0.09,-0.033 -0.118,-0.078 -0.028,-0.056 -0.04,-0.118 -0.022,-0.196 0.016,-0.076 0.05,-0.133 0.1,-0.169 0.04,-0.033 0.09,-0.044 0.14,-0.033 0.107,0.019 0.169,0.123 0.141,0.274 m 0.247,0.051 C 0.348,-0.865 0.22,-1.07 -0.05,-1.12 c -0.146,-0.025 -0.264,0 -0.365,0.081 -0.101,0.07 -0.157,0.163 -0.179,0.284 -0.057,0.277 0.078,0.48 0.347,0.535 0.146,0.023 0.264,0 0.371,-0.083 0.096,-0.067 0.152,-0.163 0.174,-0.281 m -0.64,0.517 -0.236,-0.045 -0.044,0.247 0.23,0.039 z"
             style="fill:#231f20;fill-opacity:1;fill-rule:nonzero;stroke:none"
             id="path1691" />
        </g>
        <g
           id="g1693"
           transform="translate(451.241,582.5645)">
          <path
             d="M 0,0 C 0.303,0.052 0.493,0.305 0.443,0.605 L 0.337,1.282 0.595,1.324 0.656,0.923 C 0.69,0.793 0.802,0.698 0.903,0.715 L 1.172,0.755 1.206,0.521 0.96,0.484 C 0.858,0.471 0.779,0.508 0.712,0.597 0.747,0.22 0.539,-0.088 0.19,-0.172 0.145,-0.131 0.084,-0.071 0,0"
             style="fill:#231f20;fill-opacity:1;fill-rule:nonzero;stroke:none"
             id="path1695" />
        </g>
        <g
           id="g1697"
           transform="translate(452.9411,583.3888)">
          <path
             d="m 0,0 0.029,-0.233 -0.557,-0.076 -0.027,0.227 z"
             style="fill:#231f20;fill-opacity:1;fill-rule:nonzero;stroke:none"
             id="path1699" />
        </g>
        <g
           id="g1701"
           transform="translate(454.614,583.3325)">
          <path
             d="m 0,0 -1.673,-0.174 -0.022,0.236 0.983,0.104 C -0.746,0.295 -0.808,0.39 -0.903,0.454 -0.993,0.514 -1.094,0.542 -1.206,0.527 -1.33,0.514 -1.448,0.463 -1.56,0.373 L -1.673,0.565 -1.089,1.288 -0.887,1.132 -1.19,0.769 c 0.377,0.04 0.618,-0.154 0.725,-0.581 l 0.443,0.045 z"
             style="fill:#231f20;fill-opacity:1;fill-rule:nonzero;stroke:none"
             id="path1703" />
        </g>
        <g
           id="g1705"
           transform="translate(455.153,583.678)">
          <path
             d="m 0,0 c 0.012,-0.193 -0.095,-0.32 -0.302,-0.337 l -0.259,-0.017 -0.017,0.23 0.163,0.012 c 0.096,0.008 0.163,0.073 0.151,0.182 -0.011,0.149 -0.028,0.345 -0.044,0.584 -0.023,0.266 -0.039,0.463 -0.045,0.581 l 0.252,0.022 C -0.089,1.142 -0.072,0.932 -0.05,0.629 -0.028,0.364 -0.011,0.157 0,0"
             style="fill:#231f20;fill-opacity:1;fill-rule:nonzero;stroke:none"
             id="path1707" />
        </g>
        <path
           d="m 456.889,582.471 h -0.236 v 0.247 h 0.236 z m -0.354,-0.006 -0.236,-0.005 v 0.247 l 0.23,0.006 z m 1.376,0.975 -0.198,-0.004 c -0.101,0 -0.173,0.034 -0.24,0.107 -0.051,0.05 -0.085,0.112 -0.102,0.176 -0.062,0.284 -0.185,0.424 -0.365,0.422 -0.134,-0.003 -0.23,-0.092 -0.28,-0.261 l 0.465,0.009 0.005,-0.301 c 0,-0.191 -0.061,-0.354 -0.184,-0.489 -0.123,-0.134 -0.276,-0.205 -0.456,-0.206 -0.173,0 -0.325,0.063 -0.454,0.195 -0.129,0.135 -0.19,0.295 -0.197,0.486 -0.005,0.061 -0.005,0.16 -0.016,0.3 l 0.258,0.003 c 0,-0.042 0,-0.104 0.006,-0.172 0.006,-0.07 0.006,-0.112 0.006,-0.131 0,-0.127 0.05,-0.233 0.14,-0.314 0.079,-0.071 0.163,-0.102 0.257,-0.102 0.097,0.004 0.18,0.037 0.259,0.11 0.085,0.078 0.124,0.186 0.124,0.32 v 0.056 l -0.523,-0.005 c 0,0.247 0.051,0.435 0.152,0.569 0.107,0.126 0.247,0.194 0.427,0.194 0.191,0.005 0.343,-0.07 0.45,-0.218 0.061,-0.085 0.112,-0.203 0.151,-0.355 0.034,-0.106 0.095,-0.157 0.196,-0.151 h 0.112 z"
           style="fill:#231f20;fill-opacity:1;fill-rule:nonzero;stroke:none"
           id="path1709" />
        <g
           id="g1711"
           transform="translate(458.5957,584.4861)">
          <path
             d="M 0,0 -0.237,0.006 -0.232,0.253 0.01,0.244 Z m -0.006,-0.772 c -0.005,-0.193 -0.123,-0.312 -0.332,-0.3 l -0.387,0.008 0.011,0.239 0.287,-0.012 c 0.094,0 0.168,0.056 0.174,0.164 0,0.095 0.006,0.179 0.006,0.247 v 0.241 L 0.01,-0.199 C 0,-0.584 -0.006,-0.775 -0.006,-0.772"
             style="fill:#231f20;fill-opacity:1;fill-rule:nonzero;stroke:none"
             id="path1713" />
        </g>
        <g
           id="g1715"
           transform="translate(459.471,583.3497)">
          <path
             d="m 0,0 -0.298,0.019 c -0.067,0.006 -0.128,0.031 -0.168,0.078 -0.05,0.057 -0.079,0.13 -0.073,0.22 L -0.472,1.608 -0.214,1.591 -0.269,0.407 C -0.276,0.317 -0.235,0.25 -0.168,0.25 l 0.18,-0.012 z"
             style="fill:#231f20;fill-opacity:1;fill-rule:nonzero;stroke:none"
             id="path1717" />
        </g>
        <g
           id="g1719"
           transform="translate(460.3293,583.5143)">
          <path
             d="M 0,0 C 0.012,0.079 -0.005,0.141 -0.044,0.186 -0.078,0.234 -0.117,0.258 -0.173,0.258 -0.224,0.265 -0.269,0.248 -0.307,0.208 -0.348,0.169 -0.371,0.113 -0.382,0.034 c -0.005,-0.078 0.011,-0.14 0.052,-0.191 0.033,-0.045 0.072,-0.067 0.128,-0.072 C -0.101,-0.235 -0.011,-0.157 0,0 m 0.438,-0.275 -0.252,0.021 c -0.084,-0.144 -0.219,-0.2 -0.415,-0.183 -0.18,0.011 -0.304,0.101 -0.377,0.253 l -0.281,0.027 0.023,0.236 0.213,-0.022 c 0.029,0.28 0.214,0.443 0.488,0.421 0.14,-0.014 0.254,-0.074 0.332,-0.179 0.067,-0.094 0.101,-0.2 0.09,-0.321 l 0.202,-0.02 z"
             style="fill:#231f20;fill-opacity:1;fill-rule:nonzero;stroke:none"
             id="path1721" />
        </g>
        <g
           id="g1723"
           transform="translate(461.8568,584.8398)">
          <path
             d="m 0,0 c -0.011,0 -0.016,0 -0.028,-0.002 -0.022,-0.006 -0.034,-0.026 -0.034,-0.043 -0.005,-0.025 0,-0.05 0.017,-0.075 0.062,0.01 0.085,0.036 0.089,0.067 C 0.051,-0.022 0.034,-0.005 0,0 m 0.118,-0.061 c -0.01,-0.119 -0.14,-0.191 -0.354,-0.169 -0.039,0.008 -0.072,0.017 -0.106,0.028 0,0 -0.012,0.028 -0.029,0.09 0.124,-0.034 0.203,-0.046 0.253,-0.028 -0.021,0.034 -0.027,0.062 -0.021,0.098 0.004,0.053 0.026,0.092 0.072,0.112 0.028,0.009 0.051,0.015 0.072,0.015 C 0.079,0.073 0.124,0 0.118,-0.061"
             style="fill:#231f20;fill-opacity:1;fill-rule:nonzero;stroke:none"
             id="path1725" />
        </g>
        <g
           id="g1727"
           transform="translate(461.9695,583.7868)">
          <path
             d="m 0,0 c -0.085,0.073 -0.197,0.121 -0.349,0.14 -0.094,0.015 -0.19,0.003 -0.274,-0.025 0.134,-0.05 0.247,-0.168 0.348,-0.347 C -0.168,-0.174 -0.079,-0.092 0,0 m 0.354,-0.749 -0.494,0.067 c -0.102,0.011 -0.175,0.062 -0.231,0.147 -0.151,-0.06 -0.297,-0.08 -0.432,-0.063 l -0.421,0.057 0.034,0.23 0.415,-0.054 c 0.09,-0.008 0.186,-0.002 0.286,0.025 -0.151,0.237 -0.314,0.366 -0.488,0.4 l 0.028,0.196 C -0.753,0.369 -0.55,0.404 -0.326,0.379 -0.057,0.34 0.185,0.211 0.331,0.023 0.207,-0.151 0.05,-0.302 -0.135,-0.418 -0.107,-0.44 -0.062,-0.454 0.006,-0.463 L 0.382,-0.51 Z"
             style="fill:#231f20;fill-opacity:1;fill-rule:nonzero;stroke:none"
             id="path1729" />
        </g>
        <g
           id="g1731"
           transform="translate(462.9291,583.2599)">
          <path
             d="m 0,0 c -0.034,-0.192 -0.169,-0.295 -0.376,-0.264 l -0.258,0.042 0.039,0.236 0.163,-0.028 c 0.096,-0.014 0.174,0.033 0.191,0.137 0.022,0.149 0.051,0.345 0.083,0.581 0.046,0.269 0.074,0.46 0.091,0.581 L 0.185,1.243 C 0.169,1.131 0.135,0.924 0.096,0.62 0.051,0.356 0.022,0.154 0,0"
             style="fill:#231f20;fill-opacity:1;fill-rule:nonzero;stroke:none"
             id="path1733" />
        </g>
        <g
           id="g1735"
           transform="translate(463.4623,582.8472)">
          <path
             d="M 0,0 -0.252,0.045 0.011,1.594 0.264,1.55 Z"
             style="fill:#231f20;fill-opacity:1;fill-rule:nonzero;stroke:none"
             id="path1737" />
        </g>
        <g
           id="g1739"
           transform="translate(465.3552,582.4544)">
          <path
             d="m 0,0 -1.056,0.229 0.168,0.209 0.668,-0.146 c 0.011,0.129 -0.012,0.247 -0.072,0.339 -0.051,0.081 -0.107,0.126 -0.175,0.144 L -0.41,0.999 C -0.225,0.96 -0.09,0.853 -0.023,0.69 0.05,0.521 0.056,0.292 0,0"
             style="fill:#231f20;fill-opacity:1;fill-rule:nonzero;stroke:none"
             id="path1741" />
        </g>
        <g
           id="g1743"
           transform="translate(466.2193,582.2292)">
          <path
             d="M 0,0 -0.292,0.079 C -0.354,0.09 -0.404,0.133 -0.444,0.185 -0.477,0.247 -0.494,0.329 -0.466,0.416 L -0.163,1.668 0.089,1.606 -0.191,0.452 C -0.214,0.368 -0.185,0.292 -0.118,0.275 L 0.056,0.23 Z"
             style="fill:#231f20;fill-opacity:1;fill-rule:nonzero;stroke:none"
             id="path1745" />
        </g>
        <g
           id="g1747"
           transform="translate(467.6897,581.8083)">
          <path
             d="m 0,0 -0.28,0.078 -1.213,0.359 0.067,0.225 1.028,-0.304 c 0.034,0.293 -0.062,0.473 -0.286,0.54 -0.141,0.04 -0.253,0.045 -0.333,0.011 l -0.038,0.22 c 0.118,0.053 0.264,0.05 0.449,0 0.185,-0.056 0.32,-0.166 0.393,-0.332 0.062,-0.14 0.079,-0.308 0.046,-0.505 L 0.062,0.224 Z"
             style="fill:#231f20;fill-opacity:1;fill-rule:nonzero;stroke:none"
             id="path1749" />
        </g>
        <g
           id="g1751"
           transform="translate(468.6671,582.6086)">
          <path
             d="m 0,0 -0.218,0.075 0.083,0.233 0.219,-0.076 z m -0.331,0.114 -0.22,0.076 0.08,0.237 0.218,-0.079 z m 0.1,-0.847 C -0.292,-0.918 -0.438,-1 -0.64,-0.929 l -0.365,0.129 0.078,0.218 0.276,-0.089 c 0.089,-0.034 0.174,0 0.213,0.101 0.028,0.09 0.05,0.168 0.072,0.23 0.029,0.095 0.056,0.174 0.074,0.236 l 0.247,-0.091 c -0.123,-0.361 -0.186,-0.543 -0.186,-0.538"
             style="fill:#231f20;fill-opacity:1;fill-rule:nonzero;stroke:none"
             id="path1753" />
        </g>
        <g
           id="g1755"
           transform="translate(469.1172,581.8027)">
          <path
             d="M 0,0 C -0.068,-0.045 -0.187,-0.017 -0.27,0.006 L 0.15,1.105 0.392,1.011 Z M 0.437,-0.194 C 0.387,-0.32 0.291,-0.404 0.15,-0.444 0.005,-0.486 -0.147,-0.469 -0.321,-0.404 l -0.197,0.081 0.09,0.216 0.101,-0.039 c 0.107,-0.04 0.202,-0.056 0.298,-0.048 0.129,0.019 0.218,0.082 0.269,0.206 0,0.007 0.119,0.314 0.354,0.917 L 0.83,0.831 Z m -0.786,-0.744 -0.404,0.158 0.095,0.092 0.096,-0.042 c -0.006,0.031 0,0.057 0.012,0.079 0.032,0.095 0.128,0.14 0.212,0.104 0.046,-0.017 0.079,-0.054 0.095,-0.11 l -0.089,-0.062 c -0.011,0.023 -0.028,0.046 -0.045,0.057 -0.028,0.005 -0.051,-0.006 -0.062,-0.037 -0.017,-0.042 0,-0.075 0.062,-0.098 l 0.073,-0.034 z"
             style="fill:#231f20;fill-opacity:1;fill-rule:nonzero;stroke:none"
             id="path1757" />
        </g>
        <g
           id="g1759"
           transform="translate(469.9411,580.9099)">
          <path
             d="M 0,0 -0.23,0.105 0.422,1.538 0.657,1.426 Z"
             style="fill:#231f20;fill-opacity:1;fill-rule:nonzero;stroke:none"
             id="path1761" />
        </g>
      </g>
    </g>
  </g>
</svg>
