<?xml version="1.0" encoding="UTF-8" standalone="no"?>
<!-- Created with Inkscape (http://www.inkscape.org/) -->

<svg
   width="96.340126mm"
   height="72.454277mm"
   viewBox="0 0 96.340124 72.454277"
   version="1.1"
   id="svg1"
   xmlns="http://www.w3.org/2000/svg"
   xmlns:svg="http://www.w3.org/2000/svg">
  <defs
     id="defs1">
    <clipPath
       id="clip_39">
      <path
         transform="matrix(1,0,0,-1,0,595.276)"
         d="m 279.716,81.262 h 47.227 v 35.518 h -47.227 z"
         id="path36" />
    </clipPath>
  </defs>
  <g
     id="layer1"
     transform="translate(-51.211018,-90.709129)">
    <g
       clip-path="url(#clip_39)"
       id="g951"
       transform="matrix(2.0399375,0,0,2.0399375,-519.39214,-885.39303)">
      <path
         transform="matrix(1,0,0,-1,317.7917,491.8093)"
         d="m 0,0 c -0.936,4.633 -6.29,9.218 -13.58,11.122 -8.973,2.344 -17.48,-0.262 -19.002,-5.82 -0.796,-2.906 0.283,-5.595 3.157,-8.713 5.731,-5.3 13.57,-7.594 13.57,-7.594 -6.352,1.705 -9.412,3.643 -10.276,4.185 -6.019,3.779 -9.686,8.957 -7.997,13.546 2.169,5.893 11.81,8.227 21.581,5.374 C -2.245,9.093 3.394,2.011 1.181,-3.866 0.51,-5.648 -1.096,-8.508 -9.934,-9.501 l 0.46,0.704 c 6.738,1.058 8.552,3.676 9.385,5.614 C 0.338,-2.191 0.216,-1.069 0,0"
         id="path876" />
      <path
         transform="matrix(1,0,0,-1,314.7731,497.09883)"
         d="m 0,0 c 0.855,0.756 1.487,1.646 1.838,2.652 1.683,4.822 -3.696,10.522 -12.016,12.731 -8.32,2.209 -16.429,0.091 -18.112,-4.731 -0.469,-1.346 -0.374,-2.753 0.152,-4.146 0.417,-1.108 2.683,-6.286 13,-9.838 l -0.2,0.358 c -11.206,4.616 -11.303,10.443 -11.38,11.566 -0.039,0.562 0.067,1.121 0.257,1.664 1.468,4.209 8.772,5.977 16.313,3.949 C -2.606,12.178 2.318,7.123 0.85,2.915 0.061,0.655 -2.435,-0.961 -5.721,-1.604 L -5.65,-2.331 C -3.36,-1.861 -1.372,-1.213 0,0"
         fill="#0d9c4a"
         id="path877" />
      <path
         transform="matrix(1,0,0,-1,295.6648,507.5483)"
         d="m 0,0 c -0.95,0 -1.634,0.15 -1.696,0.164 l 0.068,0.299 c 0.033,-0.008 3.334,-0.73 5.601,1.081 2.247,1.795 1.775,3.424 1.77,3.44 l 0.292,0.09 C 6.058,5 6.572,3.229 4.164,1.305 2.832,0.241 1.203,0 0,0"
         fill="#ed1d24"
         id="path878" />
      <path
         transform="matrix(1,0,0,-1,309.9791,507.4826)"
         d="m 0,0 c -1.724,0 -3.668,0.405 -5.022,1.883 -1.045,1.141 -1.234,2.364 -1.241,2.416 l 0.302,0.044 C -5.959,4.332 -5.773,3.149 -4.786,2.078 -3.479,0.661 -1.355,0.076 1.356,0.386 L 1.391,0.082 C 0.957,0.032 0.487,0 0,0"
         fill="#ed1d24"
         id="path879" />
      <path
         transform="matrix(1,0,0,-1,297.3927,500.186)"
         d="m 0,0 c -7.74,3.458 -12.745,10.001 -11.178,14.613 0.504,1.486 1.629,2.589 3.181,3.288 -2.298,-0.573 -3.973,-1.835 -4.591,-3.729 C -14.031,9.75 -9.17,3.562 -1.729,0.351 -0.055,-0.371 1.606,-0.88 3.193,-1.187 2.143,-0.874 1.073,-0.48 0,0"
         fill="#ed1d24"
         id="path880" />
      <path
         transform="matrix(1,0,0,-1,296.1238,486.4228)"
         d="M 0,0 C -0.15,0.095 -0.07,0.016 0.073,-0.063 0.058,-0.044 0.035,-0.023 0,0"
         fill="#0d9c4a"
         id="path881" />
      <path
         transform="matrix(1,0,0,-1,306.2697,491.0114)"
         d="m 0,0 c -0.051,-0.119 -0.204,-0.221 -0.34,-0.323 -0.136,-0.102 -0.255,0.051 -0.221,0.221 0.034,0.17 0.391,0.527 0.391,0.527 L -0.034,0.391 C -0.034,0.391 0.051,0.119 0,0 m -0.017,-0.85 c 0,0 -0.323,-0.238 -0.459,-0.323 -0.136,-0.085 -0.187,0.017 -0.255,0.238 -0.068,0.221 0,0 -0.17,0.051 -0.17,0.051 -0.119,0.17 -0.017,0.272 0.102,0.102 0.565,-0.022 0.629,0 0.391,0.136 0.272,-0.238 0.272,-0.238 m -0.561,-1.036 c -0.204,-0.017 -0.493,-0.119 -0.663,-0.136 -0.17,-0.017 -0.475,0.051 -0.475,0.051 0.068,0 0.798,0.408 1.053,0.424 0.255,0.017 0.374,0.085 0.476,-0.085 l 0.102,-0.169 c 0,0 -0.289,-0.068 -0.493,-0.085 m -1.903,0.323 0.153,0.56 c 0,0 0.407,0.17 0.543,0.153 0,0 0.323,-0.153 0.255,-0.306 -0.068,-0.153 -0.186,-0.187 -0.322,-0.255 -0.136,-0.068 -0.629,-0.152 -0.629,-0.152 m -0.238,1.121 c 0,0 0.238,0.561 0.357,0.697 0,0 0.221,-0.357 0.119,-0.527 -0.102,-0.17 -0.306,-0.357 -0.306,-0.357 z m 0.085,-0.985 c -0.085,-0.052 -0.17,-0.341 -0.34,-0.374 -0.17,-0.034 -0.289,0.203 -0.289,0.203 l -0.068,0.289 c 0.017,0.051 0.459,0.204 0.595,0.17 0.136,-0.034 0.187,-0.238 0.102,-0.288 m -0.221,1.053 c 0,-0.102 -0.085,-0.357 -0.085,-0.357 l -0.272,0.102 c 0,0 -0.085,0.357 -0.051,0.408 0.034,0.051 0.085,0.136 0.204,0.187 0,0 0.204,-0.238 0.204,-0.34 m -0.714,1.105 c -0.051,0.425 0.204,0.544 0.306,0.73 0.102,0.187 0.102,0.374 0.102,0.374 l 0.306,-0.424 c 0,0 -0.051,-0.289 -0.085,-0.374 C -2.974,0.952 -3.195,0.493 -3.263,0.323 -3.331,0.153 -3.518,0.306 -3.569,0.731 m 0.017,-1.581 c -0.017,-0.221 -0.527,-0.221 -0.527,-0.221 0.034,0.085 0.306,0.323 0.374,0.374 0.068,0.051 0.17,0.068 0.153,-0.153 m -0.476,-1.087 c -0.187,0.016 -0.442,0.016 -0.493,0.034 -0.051,0.017 -0.102,0.407 -0.102,0.407 0,0 0.323,-0.017 0.51,-0.051 0.187,-0.034 0.425,-0.051 0.425,-0.051 l 0.068,-0.288 c 0,0 -0.221,-0.069 -0.408,-0.051 m -1.138,1.07 c 0,0.051 0.068,0.578 0.407,0.697 0.34,0.119 0.51,0.051 0.51,0.051 0,0 -0.136,-0.374 -0.306,-0.527 -0.17,-0.153 -0.611,-0.221 -0.611,-0.221 m -0.442,1.309 c 0.085,0.238 0.187,0.374 0.187,0.374 0,0 0.357,-0.221 0.305,-0.527 -0.05,-0.306 -0.305,-0.612 -0.305,-0.612 -0.017,0.153 -0.272,0.527 -0.187,0.765 m -0.238,1.189 c 0.102,0.17 0.272,0.51 0.34,0.595 0.068,0.085 0.272,-0.068 0.323,-0.255 C -5.133,1.784 -4.945,1.563 -5.234,1.427 -5.523,1.292 -5.71,1.156 -5.71,1.156 c 0,0 -0.238,0.305 -0.136,0.475 M -5.88,-0.442 c -0.187,-0.731 -0.442,-0.951 -0.731,-1.02 0,0 -0.425,1.462 0.34,1.887 0,0 0.578,-0.136 0.391,-0.867 m -1.037,2.209 c 0,0 -0.187,0.374 0.085,0.442 l 0.272,0.068 c 0,0 -0.017,-0.34 -0.187,-0.425 z M -7.104,0.102 c 0,0 -0.425,0.153 -0.357,0.561 0.068,0.408 0.153,0.612 0.187,0.68 0.034,0.068 0.289,-0.119 0.34,-0.391 0.051,-0.272 -0.17,-0.85 -0.17,-0.85 m -0.493,4.724 c -0.017,0.272 0.255,0.527 0.408,0.527 0.153,0 0.306,-0.221 0.306,-0.221 0,0 0.034,-0.815 0.068,-1.002 0.034,-0.187 -0.289,0.119 -0.289,0.119 0,0 -0.17,-0.136 -0.323,-0.051 -0.153,0.085 -0.153,0.357 -0.17,0.628 m -0.221,-1.75 c 0,0 -0.102,0.153 -0.136,0.357 -0.034,0.204 -0.068,0.204 -0.085,0.408 -0.017,0.204 -0.17,0.374 -0.271,0.204 -0.102,-0.17 0.034,-0.238 0.136,-0.391 0.101,-0.153 0.017,-0.204 -0.119,-0.204 -0.136,0 -0.17,0.238 -0.238,0.374 -0.068,0.136 0,0.272 -0.102,0.765 -0.102,0.492 0.204,0.152 0.204,0.152 0,0 0.34,-0.221 0.407,-0.288 C -7.954,4.385 -7.631,3.994 -7.546,3.62 -7.461,3.246 -7.818,3.076 -7.818,3.076 M -7.58,1.835 c 0,0 -0.204,0.034 -0.204,0.187 v 0.459 c 0,0 0.221,-0.085 0.238,-0.238 C -7.529,2.09 -7.58,1.835 -7.58,1.835 m -0.612,0.221 -0.05,0.187 c 0,0 0.22,-0.119 0.271,-0.357 0.051,-0.238 0.085,-0.679 0.085,-0.747 0,-0.068 0.068,-0.323 0.068,-0.323 0,0 -0.391,0.255 -0.391,0.492 0,0.239 0.068,0.561 0.017,0.748 m 0.306,-3.449 c 0,0 -0.56,0.22 -0.543,0.764 0.017,0.544 0.102,1.105 0.102,1.105 0,0 0.492,-0.153 0.611,-0.561 0.119,-0.408 0.085,-1.071 -0.17,-1.308 m -0.968,2.634 c -0.17,0.085 -0.187,0.067 -0.306,0.136 -0.119,0.068 -0.187,0.237 -0.136,0.424 0.051,0.187 0.17,0.323 0.17,0.323 0.068,0.085 0.289,0.017 0.357,-0.068 0.068,-0.085 0.306,-0.459 0.34,-0.509 C -8.396,1.496 -8.48,1.275 -8.497,1.224 -8.514,1.172 -8.684,1.156 -8.854,1.241 m 0.085,-1.53 c 0,0 -0.272,-0.102 -0.374,0.068 -0.102,0.17 -0.17,0.289 -0.119,0.408 0.051,0.119 0.119,0.204 0.068,0.357 -0.051,0.153 -0.034,0.272 -0.034,0.272 0,0 0.442,0.017 0.459,-0.187 0.017,-0.204 0.051,-0.408 0.051,-0.493 0,-0.085 -0.051,-0.425 -0.051,-0.425 m -0.782,-0.527 c -0.187,0.085 -0.374,0.204 -0.425,0.238 -0.051,0.034 -0.102,0.221 -0.102,0.221 l -0.085,0.272 c 0,0 0.425,0.017 0.544,-0.119 C -9.5,-0.34 -9.33,-0.51 -9.33,-0.51 l 0.068,-0.17 0.068,-0.187 c 0,0 -0.17,-0.034 -0.357,0.051 m -0.748,-1.139 c -0.323,-0.135 -0.561,0.052 -0.561,0.052 0,0 0.187,0.322 0.34,0.373 0.153,0.051 0.289,0.068 0.289,0.068 l 0.408,-0.101 c 0,0 -0.153,-0.255 -0.476,-0.392 m -0.612,1.207 c 0,0 0.051,0.17 0.153,0.102 0.102,-0.068 0.459,-0.391 0.459,-0.391 0,0 -0.102,-0.102 -0.238,-0.085 -0.136,0.017 -0.187,0.068 -0.238,0.136 -0.051,0.068 -0.136,0.238 -0.136,0.238 m -0.034,1.088 c 0,0 -0.493,0.357 -0.493,0.799 0,0.441 -0.017,0.594 0.017,0.662 0.035,0.068 0.272,-0.119 0.357,-0.305 0.085,-0.188 0.136,-0.51 0.153,-0.595 0.017,-0.085 -0.034,-0.561 -0.034,-0.561 m -0.493,-0.493 0.204,-0.119 c 0,0 0.102,-0.221 0.102,-0.34 0,-0.119 -0.22,-0.255 -0.22,-0.255 -0.086,0.017 -0.086,0.714 -0.086,0.714 m 0.357,-1.581 c -0.068,-0.169 -0.153,-0.101 -0.323,-0.067 -0.17,0.033 -0.254,0.153 -0.34,0.356 -0.084,0.204 0.052,0.272 0.239,0.272 0.186,0 0.509,-0.153 0.509,-0.153 0,0 -0.017,-0.237 -0.085,-0.408 m -0.934,1.207 c -0.187,0.085 -0.187,0.748 -0.187,0.748 0.153,0.204 0.34,-0.017 0.391,-0.051 0.051,-0.034 0.085,-0.323 0.085,-0.578 0,-0.255 -0.102,-0.204 -0.289,-0.119 m -0.051,-0.833 c 0.017,-0.221 -0.425,-0.187 -0.578,-0.085 -0.153,0.102 -0.527,0.408 -0.153,0.408 0.374,0 0.782,-0.017 0.782,-0.017 0,0 -0.068,-0.085 -0.051,-0.306 m -1.088,-0.662 c -0.289,0.051 -0.476,0.136 -0.612,0.17 -0.136,0.034 -0.51,0.152 -0.51,0.152 0,0 0.255,0.221 0.459,0.137 0.204,-0.085 0.629,-0.103 0.68,-0.119 0.051,-0.018 0.391,-0.136 0.391,-0.136 0,0 -0.119,-0.255 -0.408,-0.204 m -1.343,1.41 c 0,0 0.204,0.068 0.425,0 0.221,-0.068 0.544,-0.034 0.544,-0.034 l 0.187,-0.034 c 0,0 0.017,-0.221 -0.153,-0.238 -0.17,-0.017 -0.357,-0.051 -0.357,-0.204 0,-0.153 -0.391,0.017 -0.408,0.119 -0.017,0.102 -0.238,0.391 -0.238,0.391 m 0.204,0.952 c 0.034,0.136 0.408,-0.391 0.493,-0.476 0.085,-0.085 0,-0.289 0,-0.289 0,0 -0.374,0.153 -0.459,0.255 -0.085,0.102 -0.034,0.51 -0.034,0.51 m 0.323,0.459 c 0,0 0.612,-0.051 0.595,-0.204 -0.017,-0.153 -0.204,-0.51 -0.204,-0.51 0,0 -0.425,0.663 -0.391,0.714 M -13.205,0 c 0.102,0.085 0.017,0.391 0.017,0.391 0.102,0.119 0.306,-0.119 0.323,-0.17 0.017,-0.051 0.119,-0.374 0.306,-0.493 0.187,-0.119 0.051,-0.238 0.051,-0.238 0,0 -0.153,0.102 -0.476,0.255 -0.323,0.153 -0.323,0.17 -0.221,0.255 m 0.068,1.547 c 0,0 0.323,-0.051 0.272,-0.17 -0.051,-0.119 -0.153,-0.289 -0.153,-0.289 l -0.136,0.17 c 0,0 -0.17,0.305 0.017,0.289 m 0.561,0.628 v 0.238 c 0,0 0.782,-0.102 0.816,-0.425 0.034,-0.322 -0.153,-0.408 -0.153,-0.408 0,0 -0.646,0.102 -0.68,0.187 -0.034,0.085 0.017,0.408 0.017,0.408 m 0.918,-1.461 c 0.051,-0.119 -0.238,0.068 -0.357,0.136 -0.119,0.068 -0.374,0.204 -0.391,0.391 -0.017,0.186 0.306,0.119 0.357,0.102 l 0.153,-0.119 c 0,0 0.187,-0.391 0.238,-0.51 m 0.39,2.226 c 0.052,-0.017 0.272,-0.187 0.357,-0.187 0,0 0.238,-0.051 0.238,-0.17 0,-0.119 0,-0.187 -0.017,-0.442 -0.017,-0.255 -0.136,-0.085 -0.306,0.051 -0.17,0.136 -0.204,0.136 -0.356,0.323 -0.153,0.187 0.033,0.442 0.084,0.425 m 0.153,0.833 c 0.187,0 0.391,-0.068 0.476,-0.187 0.085,-0.119 0.306,-0.34 0.085,-0.459 0,0 -0.459,0.068 -0.544,0.255 -0.084,0.187 -0.204,0.391 -0.017,0.391 m 0.765,-1.564 c 0,0 0.323,-0.187 0.425,-0.306 0.102,-0.119 0.238,-0.306 0.238,-0.458 0,-0.153 -0.136,-0.018 -0.289,0.016 -0.153,0.035 -0.306,0.153 -0.493,0.239 -0.187,0.084 0.119,0.509 0.119,0.509 m 0.272,0.918 c 0,0 0.323,-0.068 0.391,-0.187 0.068,-0.119 0.136,-0.697 0.136,-0.697 -0.034,-0.017 -0.17,-0.068 -0.17,-0.068 0,0 -0.255,0.102 -0.408,0.357 -0.153,0.255 0.051,0.595 0.051,0.595 m 0.102,-2.192 c 0,0 0.255,0.237 0.255,0 0,-0.238 0.051,-0.238 0.085,-0.391 0.034,-0.153 0.255,-0.34 0.085,-0.357 -0.17,-0.017 -0.391,0.051 -0.476,0.051 -0.085,0 -0.289,-0.034 -0.17,0.136 0.119,0.17 0.238,0.289 0.238,0.289 z m 0.85,2.277 C -9.007,3.229 -8.786,3.11 -8.667,3.025 -8.548,2.94 -8.463,2.6 -8.463,2.6 -8.582,2.651 -8.939,2.685 -9.075,2.77 -9.211,2.855 -9.245,3.195 -9.126,3.212 m 2.379,0.629 c 0.153,0.221 0.306,0.748 0.544,0.782 0.238,0.033 0.544,0.067 0.544,0.067 L -5.846,4.13 c 0,0 -0.34,0.017 -0.391,-0.017 C -6.288,4.079 -6.509,3.586 -6.526,3.535 -6.543,3.484 -6.628,3.076 -6.628,3.076 c 0,0 -0.272,0.544 -0.119,0.765 m 0.544,-0.527 c 0,0 -0.136,0.153 0,0.289 0.136,0.136 0.323,0.374 0.323,0.374 0,0 0.034,-0.374 -0.119,-0.493 -0.153,-0.119 -0.204,-0.17 -0.204,-0.17 M -6.356,2.243 C -6.39,2.294 -6.067,1.988 -6.084,1.818 -6.101,1.648 -6.22,1.461 -6.254,1.343 -6.288,1.224 -6.39,0.901 -6.39,0.901 c 0,0 -0.187,0.289 -0.119,0.476 0.068,0.186 0.17,0.305 0.17,0.492 0,0.187 0.017,0.323 -0.017,0.374 m 1.139,0.952 c 0,0 0.084,-0.289 -0.102,-0.374 C -5.506,2.736 -5.693,2.702 -5.761,2.685 -5.829,2.668 -6.016,2.6 -6.016,2.6 c 0,0 0,0.272 0.204,0.34 0.204,0.068 0.595,0.255 0.595,0.255 M -4.691,2.94 c 0.255,0.153 0.561,0.153 0.561,0.153 0,0 -0.17,-0.68 -0.272,-0.714 -0.102,-0.034 -0.442,-0.221 -0.442,-0.221 0,0 -0.101,0.629 0.153,0.782 m 0.527,-2.634 c 0,0 -0.153,-0.034 -0.289,-0.034 -0.136,0 -0.391,0.085 -0.391,0.085 0,0 0.069,0.34 0.136,0.459 0.068,0.119 0.085,0.272 0.187,0.136 0.102,-0.136 0.357,-0.646 0.357,-0.646 m 0.119,1.444 c -0.119,-0.136 -0.68,-0.339 -0.68,-0.339 0,0 0.119,0.544 0.357,0.662 0.238,0.119 0.374,0.136 0.374,0.136 0,0 0.068,-0.323 -0.051,-0.459 m 0.578,2.04 c 0.323,0.051 0.289,-0.136 0.289,-0.136 0,0 -0.102,-0.374 -0.34,-0.425 C -3.756,3.178 -3.943,3.11 -3.943,3.11 c 0.017,0.051 0.153,0.629 0.476,0.68 m 0.391,-0.884 c 0.102,-0.119 0.17,-0.221 0.034,-0.408 -0.136,-0.187 0,0 -0.238,-0.153 C -3.518,2.192 -3.382,2.192 -3.569,2.09 -3.756,1.988 -3.79,2.549 -3.79,2.549 c 0,0 0.238,0.204 0.425,0.357 0.187,0.153 0.187,0.119 0.289,0 M -2.685,1.088 C -2.532,1.36 -1.886,1.427 -1.886,1.427 -1.869,1.308 -2.056,1.02 -2.107,0.952 -2.158,0.884 -2.481,0.765 -2.6,0.697 -2.719,0.629 -2.838,0.816 -2.685,1.088 m 0.085,1.036 0.527,0.289 h 0.458 c 0,0 -0.085,-0.17 -0.203,-0.306 C -1.937,1.971 -1.903,1.648 -1.954,1.666 -2.005,1.682 -2.209,1.767 -2.362,1.7 -2.515,1.631 -2.668,1.682 -2.668,1.784 c 0,0.102 -0.051,0.289 0.068,0.34 m 0.782,-2.039 c -0.153,-0.068 -0.17,0.289 -0.187,0.357 -0.017,0.068 0.373,0.102 0.373,0.102 0,0 -0.034,-0.391 -0.186,-0.459 m 0.56,0.493 c 0.017,-0.085 0.187,-0.68 0.187,-0.68 0,0 -0.527,-0.221 -0.629,-0.289 -0.101,-0.068 -0.067,0.238 0.018,0.374 0.084,0.136 0.424,0.595 0.424,0.595 M -1.411,1.547 -1.19,1.563 C -1.173,1.377 -1.309,1.19 -1.445,1.172 -1.58,1.156 -1.411,1.547 -1.411,1.547 m 0.901,-0.714 0.136,-0.17 c 0,0 -0.17,-0.374 -0.408,-0.561 -0.238,-0.187 -0.289,0.697 -0.289,0.697 z m 2.158,-1.462 c 0,0.136 -0.101,0.153 -0.169,0.136 C 1.411,-0.51 1.003,-0.714 0.527,-0.816 0.051,-0.918 0.408,-0.867 0.408,-0.748 c 0,0.119 -0.102,0.17 -0.187,0.289 -0.085,0.119 0.017,0.136 0.051,0.238 0.034,0.102 0.153,0.136 0.578,0.238 0.425,0.102 0.085,0.17 -0.051,0.17 C 0.663,0.187 0.493,0.119 0.306,0.085 0.119,0.051 0.221,0.238 0.323,0.391 0.425,0.544 0.561,0.612 0.408,0.578 0.255,0.544 0.119,0.578 0.051,0.578 -0.017,0.578 0,0.833 0,0.884 c 0,0.051 0.238,0.119 0.238,0.119 0,0 0.323,0.051 0.476,0.119 0.153,0.068 -0.085,0.204 -0.323,0.204 -0.238,0 -0.578,-0.068 -0.646,-0.085 -0.068,-0.017 -0.255,0.051 -0.442,0.152 -0.187,0.103 0.085,0.323 0.136,0.323 0.051,0 0.272,0.153 0.493,0.204 C 0.153,1.971 -0.221,2.09 -0.34,2.022 -0.459,1.955 -0.578,2.09 -0.527,2.141 -0.476,2.192 -0.408,2.26 -0.442,2.43 -0.476,2.6 -0.646,2.243 -0.714,2.158 -0.782,2.073 -0.935,2.056 -1.02,2.005 c -0.085,-0.05 0.034,0.17 0.068,0.289 0.034,0.119 -0.272,0.357 -0.391,0.612 -0.119,0.255 -0.119,-0.102 -0.204,-0.153 -0.085,-0.051 -0.22,0.034 -0.254,0.119 -0.034,0.085 0.135,0.323 0.238,0.374 0.101,0.051 -0.085,0.289 -0.153,0.425 C -1.785,3.807 -1.818,3.535 -1.801,3.365 -1.785,3.195 -1.954,3.229 -2.005,3.178 -2.056,3.127 -2.158,3.212 -2.243,3.178 -2.328,3.144 -2.566,3.008 -2.668,2.974 -2.77,2.94 -2.838,3.093 -2.77,3.178 c 0.068,0.085 0.289,0.323 0.289,0.323 0,0 0.374,0.17 0.476,0.221 0.102,0.051 0.017,0.255 0.017,0.255 0,0 -0.357,-0.068 -0.527,-0.068 -0.17,0 -0.068,0.153 0.017,0.323 0.085,0.17 0.034,0.288 0.034,0.288 0,0 -0.187,-0.186 -0.255,-0.339 -0.068,-0.153 -0.255,-0.187 -0.204,-0.17 0.051,0.017 0.051,0.34 0.017,0.561 C -2.94,4.793 -3.059,4.487 -3.144,4.266 -3.229,4.045 -3.569,4.079 -3.569,4.079 c 0,0 -0.017,0.391 -0.017,0.611 0,0.221 -0.221,0.205 -0.204,0.119 0.017,-0.084 0.068,-0.119 0.102,-0.39 0.034,-0.272 -0.425,-0.646 -0.68,-0.816 -0.255,-0.17 -0.696,-0.034 -0.696,-0.034 0,0 0.153,0.102 0.237,0.187 0.086,0.085 0.374,0.272 0.561,0.306 0.187,0.034 0.255,0.17 0.306,0.272 0.051,0.102 -0.187,0 -0.272,0.017 -0.085,0.017 -0.068,0.119 -0.17,0.289 -0.102,0.169 0,0 -0.17,-0.17 -0.169,-0.17 -0.373,-0.391 -0.373,-0.391 0,0 -0.289,-0.221 -0.442,-0.34 -0.153,-0.119 -0.187,-0.034 -0.187,0.153 0,0.187 0.187,0.391 0.238,0.476 0.051,0.085 0.391,0.306 0.475,0.357 0.086,0.05 0.51,0.271 0.612,0.339 0.102,0.068 -0.238,0.068 -0.289,0 C -4.589,4.996 -4.98,4.911 -5.116,4.86 c -0.135,-0.051 -0.22,-0.017 -0.22,0.035 0,0.05 -0.051,0.373 0.017,0.509 0.068,0.136 0.102,0.17 0.102,0.17 h -0.306 c -0.051,0 -0.136,0.187 -0.238,0.289 -0.102,0.102 0,-0.221 0,-0.272 0,-0.051 -0.102,-0.51 -0.102,-0.51 L -5.948,5.048 C -6.033,5.014 -6.186,4.962 -6.373,4.962 c -0.187,0 -0.221,0.086 -0.238,0.357 -0.017,0.272 0.119,0.374 0.255,0.476 0.136,0.102 0.051,0.221 -0.085,0.153 C -6.577,5.88 -6.679,5.71 -6.798,5.642 -6.917,5.574 -7.138,6.084 -7.189,6.203 -7.24,6.322 -7.376,6.22 -7.325,6.118 -7.274,6.016 -7.444,5.812 -7.563,5.812 c -0.119,0 -0.289,0.153 -0.357,0.238 -0.068,0.085 -0.068,-0.272 0.102,-0.493 0.17,-0.221 -0.017,-0.408 -0.017,-0.408 0,0 -0.254,-0.101 -0.407,-0.135 -0.154,-0.035 -0.238,0.101 -0.374,0.186 -0.136,0.085 0,0.493 0.051,0.663 0.051,0.17 -0.17,0 -0.204,-0.085 C -8.803,5.693 -8.939,5.625 -9.041,5.608 -9.143,5.591 -9.16,5.523 -9.126,5.438 -9.092,5.353 -8.99,5.132 -9.007,4.996 -9.024,4.86 -9.126,4.843 -9.245,4.86 c -0.119,0.018 -0.34,0.119 -0.391,0.136 -0.051,0.018 -0.238,0.102 -0.374,0.068 -0.136,-0.034 0,0 0.068,-0.068 0.068,-0.068 0.425,-0.17 0.595,-0.34 0.17,-0.169 0.476,-0.645 0.493,-0.781 0.017,-0.136 -0.136,-0.204 -0.136,-0.204 0,0 -0.221,0.204 -0.374,0.442 -0.153,0.238 -0.391,0.272 -0.595,0.357 -0.04,0.016 -0.079,0.036 -0.114,0.055 0.062,-0.084 -0.039,-0.14 -0.039,-0.14 l -0.17,-0.068 c -0.17,-0.068 -0.085,-0.153 -0.085,-0.153 0,0 0.204,-0.102 0.323,-0.136 0.119,-0.034 0.425,-0.272 0.425,-0.272 l 0.255,-0.34 c 0,0 -0.187,-0.017 -0.442,0.034 -0.255,0.051 -0.391,0.17 -0.595,0.459 -0.204,0.289 -0.289,0.595 -0.442,0.866 -0.153,0.273 0,0 0.017,-0.169 0.017,-0.17 -0.017,-0.255 -0.017,-0.476 0,-0.221 -0.153,-0.085 -0.306,-0.017 -0.153,0.068 -0.136,0.391 -0.136,0.527 0,0.135 -0.204,0 -0.204,0 0,0 0.068,-0.425 0.103,-0.527 0.034,-0.102 0.05,-0.238 -0.103,-0.306 -0.152,-0.068 -0.152,0.34 -0.169,0.425 -0.017,0.085 -0.051,0.187 -0.204,0.187 -0.153,0 0.017,-0.374 0.118,-0.476 0.103,-0.102 -0.033,-0.119 -0.237,-0.17 -0.204,-0.051 -0.153,0.051 -0.238,0.17 -0.085,0.119 -0.17,0 -0.17,0 0,0 0.051,-0.187 0.136,-0.323 0.085,-0.136 0.289,-0.238 0.425,-0.289 0.136,-0.051 0.289,-0.357 0.17,-0.459 -0.119,-0.102 -0.204,0.119 -0.255,0.238 -0.051,0.119 -0.238,0.085 -0.408,0.068 -0.17,-0.017 -0.119,0.034 -0.187,0.136 -0.068,0.102 0,0.408 0,0.408 0,0 -0.153,0.034 -0.221,-0.051 -0.068,-0.085 -0.068,-0.272 -0.051,-0.374 0.017,-0.102 0.136,-0.374 0.119,-0.476 -0.017,-0.102 -0.119,0 -0.374,0.187 -0.255,0.187 0,0 -0.051,-0.051 -0.051,-0.051 -0.034,-0.221 -0.017,-0.323 0.017,-0.102 0.085,-0.289 0.051,-0.391 -0.034,-0.102 -0.153,0.102 -0.187,0.221 -0.034,0.119 -0.221,0.119 -0.187,0.017 0.034,-0.102 0.051,-0.153 0.051,-0.323 0,-0.17 -0.17,-0.085 -0.255,-0.068 -0.085,0.017 -0.187,0.204 -0.255,0.323 -0.068,0.119 -0.17,-0.017 -0.153,-0.068 0.017,-0.051 0.051,-0.153 0.119,-0.238 0.068,-0.085 0.017,-0.136 -0.068,-0.152 -0.085,-0.018 -0.306,0.084 -0.306,0.084 l -0.119,-0.136 c 0,0 0.187,-0.034 0.306,-0.085 0.119,-0.051 0.255,-0.102 0.357,-0.136 0.102,-0.034 0.119,-0.204 0.051,-0.475 -0.068,-0.272 0,0 -0.102,0 -0.102,0 -0.34,-0.017 -0.51,0.034 -0.17,0.051 -0.254,0.085 -0.475,0.119 -0.222,0.033 -0.272,-0.289 -0.272,-0.289 0,0 0.34,-0.068 0.459,-0.136 0.118,-0.068 0.203,-0.357 0.203,-0.357 0,0 -0.169,-0.459 -0.339,-0.493 -0.17,-0.034 -0.205,0.017 -0.391,0.085 -0.187,0.068 -0.17,-0.085 -0.068,-0.119 0.102,-0.034 0.272,-0.136 0.374,-0.204 0.102,-0.068 0.119,-0.238 0.152,-0.408 0.034,-0.17 -0.05,-0.34 -0.136,-0.34 -0.084,0 -0.407,0.136 -0.458,0.17 -0.051,0.034 -0.459,0.153 -0.527,0.221 -0.068,0.068 -0.187,0.068 -0.187,0.017 0,-0.051 -0.034,-0.136 -0.17,-0.221 -0.136,-0.085 -0.136,-0.187 0.085,-0.136 0.221,0.051 0.204,0.034 0.408,0.034 0.204,0 0.765,-0.289 0.765,-0.289 l 0.407,-0.187 c 0,0 -0.084,-0.187 -0.204,-0.238 -0.119,-0.051 -0.543,-0.204 -0.696,-0.221 -0.153,-0.017 -0.408,-0.05 -0.544,-0.034 -0.136,0.017 -0.034,-0.118 0.153,-0.203 0.187,-0.085 0.323,0.017 0.595,0.153 0.272,0.135 0.272,0.017 0.373,-0.051 0.103,-0.069 -0.016,-0.238 -0.067,-0.289 -0.051,-0.051 -0.238,-0.136 -0.442,-0.136 -0.204,0 -0.255,-0.136 -0.085,-0.17 0.17,-0.034 0.374,-0.051 0.56,0.068 0.187,0.119 0.273,0.289 0.493,0.34 0.221,0.051 0.238,-0.119 0.187,-0.221 -0.051,-0.102 -0.238,-0.374 -0.17,-0.306 0.068,0.068 0.374,0.238 0.374,0.238 0,0 0.408,0.017 0.51,0.017 0.102,0 0.731,-0.017 1.037,0.051 0.306,0.068 0.442,0.255 0.442,0.255 0,0 0.407,-0.34 0.509,-0.374 0.103,-0.034 0,-0.306 0,-0.306 0,0 -0.119,-0.238 0.017,-0.204 0.136,0.034 -0.017,0.204 0.256,0.476 0.271,0.272 0.22,0.051 0.305,0.051 0.085,0 0.187,-0.017 0.34,0.068 0.153,0.085 0.357,0.068 0.493,-0.017 0.136,-0.085 -0.051,-0.272 -0.153,-0.34 -0.102,-0.068 0,-0.272 0,-0.272 0,0 0.085,0.119 0.17,0.255 0.085,0.136 0.357,0.187 0.476,0.238 0.119,0.051 0.663,-0.017 0.833,-0.068 0.17,-0.051 0.645,-0.204 0.832,-0.527 0.187,-0.323 0.374,-0.731 0.306,-1.241 -0.068,-0.51 -0.459,-0.85 -0.798,-1.07 -0.34,-0.221 -1.377,-0.51 -1.649,-0.629 -0.272,-0.119 -0.391,-0.408 -0.391,-0.408 0.238,-0.102 1.003,-0.119 1.258,-0.119 0.255,0 0.764,0.102 0.764,0.102 0,0 0.392,-0.476 0.731,-0.629 0.34,-0.153 1.054,-0.051 1.054,-0.051 l 0.697,1.564 c 0,0 -0.306,0.39 -0.357,0.577 -0.051,0.188 -0.272,0.629 -0.255,0.867 0.017,0.238 -0.119,0.544 0,0.833 0.119,0.289 0.425,0.646 0.425,0.646 0,0 0.646,0.306 1.071,0.272 0.424,-0.034 0.424,-0.119 0.458,-0.357 0.034,-0.238 0.255,-0.323 0.374,-0.34 0.119,-0.017 0.068,0.17 -0.017,0.357 -0.085,0.187 -0.272,0.272 -0.238,0.391 0.034,0.119 0.204,0.068 0.272,0 0.068,-0.068 0.306,-0.102 0.697,-0.068 0.391,0.034 0.289,-0.153 0.289,-0.153 0,0 0.136,-0.204 0.272,-0.255 0.136,-0.051 -0.017,0.238 0.017,0.323 0.034,0.085 0.442,0.34 0.578,0.34 0.136,0 0.136,-0.085 0.136,-0.085 0,0 0.407,-0.102 0.51,-0.136 0.102,-0.034 0.441,-0.017 0.696,0.051 0.255,0.068 0.391,-0.051 0.493,-0.102 0.102,-0.051 0.391,-0.221 0.476,-0.272 0.085,-0.051 0.17,0.119 -0.068,0.221 -0.238,0.102 -0.136,0.153 -0.051,0.391 0.085,0.238 0,0 0.306,-0.136 0.306,-0.136 0.238,-0.119 0.306,-0.289 0.068,-0.17 0.17,-0.017 0.442,0.153 0.102,0.063 -0.323,0.085 -0.391,0.136 -0.068,0.051 -0.119,0.187 -0.085,0.374 0.034,0.186 0.374,-0.051 0.493,-0.068 0.119,-0.017 0.373,-0.068 0.425,-0.068 0.051,0 0.288,0.186 0.288,0.186 0,0 -0.407,0.051 -0.798,0.085 -0.391,0.034 -0.816,0.273 -0.782,0.34 0.034,0.068 0.374,0.255 0.374,0.255 0,0 0.561,0.119 0.85,0.221 0.289,0.102 0.305,-0.034 0.424,-0.102 0.119,-0.068 -0.068,0.187 -0.068,0.323"
         fill="#0d9c4a"
         id="path882" />
      <path
         transform="matrix(1,0,0,-1,281.007,512.6259)"
         d="M 0,0 H -0.408 V 0.408 C 0.113,0.453 0,0 0,0 M 0.226,1.201 H -1.11 c 0,0 0.091,-2.016 0.045,-2.13 -0.045,-0.113 -0.226,-0.317 -0.226,-0.317 0.747,-0.09 0.861,0.635 0.861,0.635 h 1.064 v 1.426 c 0,0.386 -0.408,0.386 -0.408,0.386"
         fill="#0d9c4a"
         id="path883" />
      <path
         transform="matrix(1,0,0,-1,283.6344,512.6366)"
         d="M 0,0 V 0.803 C 0,1.256 -0.521,1.211 -0.521,1.211 H -1.427 V 0.35 c 0,0 0.249,0.046 0.543,0.046 0.295,0 0.34,-0.159 0.34,-0.159 V -0.035 H -1.45 c -0.204,0 -0.294,0.182 -0.294,0.182 -0.023,-0.861 0.34,-0.748 0.34,-0.748 H 0 v 0.552 C -0.017,-0.02 -0.027,-0.001 -0.027,-0.001 -0.033,-0.001 -0.021,0 0,0"
         fill="#0d9c4a"
         id="path884" />
      <path
         transform="matrix(1,0,0,-1,317.9528,511.4253)"
         d="m 0,0 h -0.906 v -0.861 c 0,0 0.249,0.046 0.544,0.046 0.294,0 0.339,-0.159 0.339,-0.159 v -0.272 h -0.906 c -0.203,0 -0.294,0.181 -0.294,0.181 -0.023,-0.86 0.34,-0.747 0.34,-0.747 h 1.404 v 1.404 C 0.521,0.045 0,0 0,0"
         fill="#0d9c4a"
         id="path885" />
      <path
         transform="matrix(1,0,0,-1,284.9455,512.6245)"
         d="M 0,0 C 0,0.344 0.166,0.357 0.229,0.357 0.293,0.357 0.433,0.217 0.433,0 Z m 1.058,0 v 0.65 c 0,0.497 -0.395,0.612 -0.497,0.612 h -0.714 c -0.421,0 -0.472,-0.421 -0.472,-0.523 V 0 c 0,0 -0.555,-0.01 -0.686,-0.012 v -0.049 c 0.083,-0.146 0.334,-0.576 0.419,-0.576 h 1.95 v 0.458 L 0.956,0 Z"
         fill="#0d9c4a"
         id="path886" />
      <path
         transform="matrix(1,0,0,-1,313.0888,512.6245)"
         d="M 0,0 C 0,0.344 0.166,0.357 0.229,0.357 0.293,0.357 0.433,0.217 0.433,0 Z m 1.058,0 v 0.65 c 0,0.497 -0.395,0.612 -0.497,0.612 h -0.714 c -0.421,0 -0.471,-0.421 -0.471,-0.523 V 0 c 0,0 -0.392,-0.007 -0.595,-0.01 v -0.208 c 0.109,-0.182 0.264,-0.419 0.327,-0.419 h 1.95 v 0.45 L 0.952,0 Z"
         fill="#0d9c4a"
         id="path887" />
      <path
         transform="matrix(1,0,0,-1,284.8435,510.9668)"
         d="M 0,0 C 0.116,0 0.21,0.111 0.21,0.248 0.21,0.385 0.116,0.496 0,0.496 -0.116,0.496 -0.21,0.385 -0.21,0.248 -0.21,0.111 -0.116,0 0,0"
         fill="#0d9c4a"
         id="path888" />
      <path
         transform="matrix(1,0,0,-1,285.3151,510.9668)"
         d="M 0,0 C 0.116,0 0.21,0.111 0.21,0.248 0.21,0.385 0.116,0.496 0,0.496 -0.116,0.496 -0.21,0.385 -0.21,0.248 -0.21,0.111 -0.116,0 0,0"
         fill="#0d9c4a"
         id="path889" />
      <path
         transform="matrix(1,0,0,-1,289.2919,510.9668)"
         d="M 0,0 C 0.116,0 0.21,0.111 0.21,0.248 0.21,0.385 0.116,0.496 0,0.496 -0.116,0.496 -0.21,0.385 -0.21,0.248 -0.21,0.111 -0.116,0 0,0"
         fill="#0d9c4a"
         id="path890" />
      <path
         transform="matrix(1,0,0,-1,289.7636,510.9668)"
         d="M 0,0 C 0.116,0 0.21,0.111 0.21,0.248 0.21,0.385 0.116,0.496 0,0.496 -0.116,0.496 -0.211,0.385 -0.211,0.248 -0.211,0.111 -0.116,0 0,0"
         fill="#0d9c4a"
         id="path891" />
      <path
         transform="matrix(1,0,0,-1,298.3799,513.4801)"
         d="m 0,0 c -0.116,0 -0.21,-0.111 -0.21,-0.248 0,-0.137 0.094,-0.248 0.21,-0.248 0.116,0 0.21,0.111 0.21,0.248 C 0.21,-0.111 0.116,0 0,0"
         fill="#0d9c4a"
         id="path892" />
      <path
         transform="matrix(1,0,0,-1,298.8514,513.4801)"
         d="m 0,0 c -0.116,0 -0.21,-0.111 -0.21,-0.248 0,-0.137 0.094,-0.248 0.21,-0.248 0.116,0 0.21,0.111 0.21,0.248 C 0.21,-0.111 0.116,0 0,0"
         fill="#0d9c4a"
         id="path893" />
      <path
         transform="matrix(1,0,0,-1,302.3438,513.4801)"
         d="m 0,0 c -0.116,0 -0.21,-0.111 -0.21,-0.248 0,-0.137 0.094,-0.248 0.21,-0.248 0.116,0 0.21,0.111 0.21,0.248 C 0.21,-0.111 0.116,0 0,0"
         fill="#0d9c4a"
         id="path894" />
      <path
         transform="matrix(1,0,0,-1,300.9673,510.9037)"
         d="M 0,0 C 0.116,0 0.21,0.111 0.21,0.248 0.21,0.385 0.116,0.495 0,0.495 -0.116,0.495 -0.21,0.385 -0.21,0.248 -0.21,0.111 -0.116,0 0,0"
         fill="#0d9c4a"
         id="path895" />
      <path
         transform="matrix(1,0,0,-1,313.2716,510.9037)"
         d="M 0,0 C 0.116,0 0.21,0.111 0.21,0.248 0.21,0.385 0.116,0.495 0,0.495 -0.116,0.495 -0.21,0.385 -0.21,0.248 -0.21,0.111 -0.116,0 0,0"
         fill="#0d9c4a"
         id="path896" />
      <path
         transform="matrix(1,0,0,-1,323.0521,510.9037)"
         d="M 0,0 C 0.116,0 0.21,0.111 0.21,0.248 0.21,0.385 0.116,0.495 0,0.495 -0.116,0.495 -0.21,0.385 -0.21,0.248 -0.21,0.111 -0.116,0 0,0"
         fill="#0d9c4a"
         id="path897" />
      <path
         transform="matrix(1,0,0,-1,323.6128,510.9037)"
         d="M 0,0 C 0.116,0 0.21,0.111 0.21,0.248 0.21,0.385 0.116,0.495 0,0.495 -0.116,0.495 -0.21,0.385 -0.21,0.248 -0.21,0.111 -0.116,0 0,0"
         fill="#0d9c4a"
         id="path898" />
      <path
         transform="matrix(1,0,0,-1,302.8156,513.4801)"
         d="m 0,0 c -0.116,0 -0.21,-0.111 -0.21,-0.248 0,-0.137 0.094,-0.248 0.21,-0.248 0.116,0 0.21,0.111 0.21,0.248 C 0.21,-0.111 0.116,0 0,0"
         fill="#0d9c4a"
         id="path899" />
      <path
         transform="matrix(1,0,0,-1,286.9849,510.6616)"
         d="m 0,0 h -0.472 l 0.039,-1.963 h -0.549 v -0.179 l 0.268,-0.471 h 0.982 v 2.269 C 0.268,-0.013 0,0 0,0"
         fill="#0d9c4a"
         id="path900" />
      <path
         transform="matrix(1,0,0,-1,296.7399,510.6616)"
         d="m 0,0 h -0.472 l 0.038,-1.963 h -0.504 c -0.001,-0.075 -0.004,-0.155 -0.009,-0.24 l 0.233,-0.41 h 0.982 v 2.269 C 0.268,-0.013 0,0 0,0"
         fill="#0d9c4a"
         id="path901" />
      <path
         transform="matrix(1,0,0,-1,311.8695,512.6349)"
         d="M 0,0 V 1.629 C 0,1.961 -0.268,1.973 -0.268,1.973 H -0.739 L -0.701,0.01 h -0.591 v -0.104 l 0.31,-0.546 H 0 v 0.432 c -0.068,0.113 -0.119,0.205 -0.119,0.205 -0.011,0 0.041,0.002 0.119,0.003"
         fill="#0d9c4a"
         id="path902" />
      <path
         transform="matrix(1,0,0,-1,304.3069,512.5862)"
         d="m 0,0 c 0,0 0.051,0.306 0.306,0.306 h 1.746 c 0.242,0 0.281,-0.115 0.281,-0.344 z m 3.033,-0.038 v 0.407 c 0,0.472 -0.407,0.829 -0.841,0.829 H 0.369 c 0,0 -0.318,-0.178 -0.331,-0.421 0,0 0.016,1.148 -0.025,1.148 h -0.672 l 0.039,-1.963 h -0.578 v -0.127 l 0.297,-0.523 h 3.934 v 0.493 l -0.089,0.157 z"
         fill="#0d9c4a"
         id="path903" />
      <path
         transform="matrix(1,0,0,-1,303.1086,512.6245)"
         d="M 0,0 V 0.969 C 0,1.3 -0.268,1.313 -0.268,1.313 H -0.739 L -0.701,0 h -0.65 l 0.37,-0.65 H 0 v 0.523 L -0.072,0 Z"
         fill="#0d9c4a"
         id="path904" />
      <path
         transform="matrix(1,0,0,-1,308.3346,511.3117)"
         d="m 0,0 h -0.472 l 0.039,-1.313 H -0.994 V -1.47 l 0.28,-0.493 h 0.867 l -0.13,0.65 h 0.245 v 0.969 C 0.268,-0.013 0,0 0,0"
         fill="#0d9c4a"
         id="path905" />
      <path
         transform="matrix(1,0,0,-1,309.3226,511.3117)"
         d="m 0,0 h -0.42 l 0.034,-1.313 H -0.72 v -0.65 h 0.892 l -0.121,0.65 h 0.188 v 0.969 C 0.239,-0.013 0,0 0,0"
         fill="#0d9c4a"
         id="path906" />
      <path
         transform="matrix(1,0,0,-1,310.5778,512.6245)"
         d="M 0,0 V 0.969 C 0,1.3 -0.238,1.313 -0.238,1.313 H -0.659 L -0.625,0 H -1.016 V -0.65 H 0 v 0.545 L -0.059,0 Z"
         fill="#0d9c4a"
         id="path907" />
      <path
         transform="matrix(1,0,0,-1,287.4693,513.2618)"
         d="M 0,0 H 0.65 V 2.562 L 0,2.588 Z"
         fill="#0d9c4a"
         id="path908" />
      <path
         transform="matrix(1,0,0,-1,315.124,510.6616)"
         d="m 0,0 h -0.472 l 0.038,-1.963 H -0.977 V -2.15 l 0.263,-0.463 h 0.982 v 2.269 C 0.268,-0.013 0,0 0,0"
         fill="#0d9c4a"
         id="path909" />
      <path
         transform="matrix(1,0,0,-1,315.6083,513.2618)"
         d="M 0,0 H 0.65 V 2.562 L 0,2.588 Z"
         fill="#0d9c4a"
         id="path910" />
      <path
         transform="matrix(1,0,0,-1,289.6487,512.65)"
         d="m 0,0 h -0.51 c 0,0 0.051,0.459 0.51,0.459 z m -0.548,1.236 c -0.293,0 -0.51,-0.153 -0.51,-0.484 V -0.586 H 0.663 L 0.637,1.236 Z"
         fill="#0d9c4a"
         id="path911" />
      <path
         transform="matrix(1,0,0,-1,291.395,512.5862)"
         d="m 0,0 v 1.198 h -0.574 v -1.886 c 0,-0.306 -0.293,-0.523 -0.382,-0.549 -0.089,-0.025 -0.051,-0.191 -0.051,-0.191 0.816,0 1.007,0.472 1.007,0.829 v 0.57 C -0.008,-0.011 -0.013,0 -0.013,0 Z"
         fill="#0d9c4a"
         id="path912" />
      <path
         transform="matrix(1,0,0,-1,295.8017,512.6245)"
         d="m 0,0 c 0.011,0.998 -0.324,1.224 -0.838,1.224 -0.484,0 -2.18,-0.013 -2.23,0 -0.426,0.106 -0.09,0.624 0.025,0.701 0,0 -0.561,0.101 -0.726,-0.395 -0.166,-0.498 -0.102,-0.995 0.395,-1.097 h 2.307 c 0.242,0 0.408,-0.178 0.408,-0.395 H -4.407 V 0.009 c 0.054,-0.12 0.265,-0.586 0.332,-0.608 0.076,-0.026 4.04,0.038 4.04,0.038 0.012,0.114 0.02,0.22 0.026,0.321 L -0.145,0 Z"
         fill="#0d9c4a"
         id="path913" />
      <path
         transform="matrix(1,0,0,-1,301.0948,512.65)"
         d="m 0,0 h -0.599 v 0.854 c 0,0.357 -0.191,0.421 -0.383,0.421 h -1.172 c 0,0 -0.179,0.063 -0.179,-0.192 V 0.051 h -0.446 c 0,0 -0.153,0.025 -0.153,0.204 v 0.892 l 0.09,0.128 h -0.651 c -0.114,0 -0.152,-0.128 -0.152,-0.306 V -0.28 c 0,0 -0.039,-0.294 0.216,-0.294 h 1.925 c 0,0 -0.153,0.204 -0.153,0.281 v 0.612 c 0,0.204 0.446,0.191 0.446,-0.039 V -0.586 H 0.612 V 1.287 H 0 Z"
         fill="#0d9c4a"
         id="path914" />
      <path
         transform="matrix(1,0,0,-1,323.4641,512.5991)"
         d="m 0,0 h -0.994 c 0,0.714 -0.408,1.237 -0.688,1.237 H -3.39 c -0.166,0 -0.166,-0.153 -0.166,-0.153 V 0.319 l 0.114,0.14 h 1.505 c 0.229,0 0.318,-0.484 0.318,-0.484 h -2.128 c -0.383,0 -0.332,0.165 -0.332,0.42 v 1.568 h -0.688 c -0.032,0.032 0.026,-1.644 0.026,-2.052 0,-0.408 0.242,-0.523 0.662,-0.523 H 0.612 V 1.224 H 0 Z"
         fill="#0d9c4a"
         id="path915" />
      <path
         transform="matrix(1,0,0,-1,325.0957,512.8412)"
         d="M 0,0 C -0.179,0.179 -0.14,0.688 -0.14,0.688 V 2.116 H -0.752 V 0.624 C -0.599,-0.026 0,0 0,0"
         fill="#0d9c4a"
         id="path916" />
      <path
         transform="matrix(1,0,0,-1,325.6437,510.67433)"
         d="m 0,0 h -0.331 c -0.064,0 0.025,-1.568 0.025,-1.797 0,-0.23 -0.025,-0.459 -0.268,-0.548 -0.242,-0.09 -0.637,0.114 -0.637,0.114 0,0 0.039,-0.395 0.701,-0.471 0.663,-0.077 0.892,0.471 0.892,0.471 v 1.912 C 0.395,-0.064 0.166,0 0,0"
         fill="#0d9c4a"
         id="path917" />
      <path
         transform="matrix(1,0,0,-1,326.2555,510.6489)"
         d="M 0,0 -0.025,-2.536 H 0.688 V 0 Z"
         fill="#0d9c4a"
         id="path918" />
      <path
         transform="matrix(1,0,0,-1,324.8364,513.589)"
         d="M 0,0 C 0.094,-0.009 0.212,0.11 0.094,0.127 H -0.17 c 0,0 -0.102,-0.153 -0.008,-0.221 l -0.128,-0.169 0.179,0.059 c 0,0 0.212,-0.102 0.238,-0.051 C 0.136,-0.204 0.145,-0.11 0.042,-0.11 -0.059,-0.11 -0.094,0.009 0,0"
         fill="#0d9c4a"
         id="path919" />
      <path
         transform="matrix(1,0,0,-1,290.8611,484.4922)"
         d="m 0,0 c -0.075,-0.007 -0.159,-0.036 -0.252,-0.087 -0.044,-0.024 -0.069,-0.043 -0.074,-0.057 -0.006,-0.015 0,-0.037 0.016,-0.067 l 0.307,-0.559 c 0.041,0.017 0.067,0.029 0.079,0.035 0.013,0.006 0.024,0.012 0.036,0.018 0.098,0.054 0.168,0.11 0.209,0.169 0.075,0.108 0.074,0.231 -0.003,0.371 C 0.246,-0.046 0.14,0.013 0,0 m -0.032,-1.657 c 0.077,0.052 0.12,0.096 0.126,0.132 0.007,0.036 -0.014,0.098 -0.062,0.186 l -0.51,0.929 c -0.041,0.075 -0.08,0.118 -0.116,0.129 -0.035,0.011 -0.093,-10e-4 -0.173,-0.037 l -0.022,0.04 0.565,0.311 c 0.182,0.099 0.34,0.14 0.475,0.123 C 0.386,0.138 0.486,0.072 0.549,-0.044 0.629,-0.19 0.634,-0.325 0.563,-0.449 0.492,-0.573 0.376,-0.679 0.216,-0.768 0.193,-0.78 0.163,-0.796 0.126,-0.815 0.09,-0.833 0.063,-0.848 0.045,-0.857 l 0.214,-0.39 c 0.044,-0.08 0.085,-0.124 0.121,-0.131 0.036,-0.008 0.099,0.009 0.188,0.05 l 0.022,-0.04 -0.6,-0.329 z"
         fill="#ed1d24"
         id="path920" />
      <path
         transform="matrix(1,0,0,-1,292.3827,484.70503)"
         d="m 0,0 c -0.074,-0.062 -0.131,-0.122 -0.173,-0.178 -0.08,-0.108 -0.104,-0.204 -0.07,-0.288 0.027,-0.067 0.069,-0.108 0.126,-0.122 0.037,-0.009 0.074,-0.006 0.109,0.008 0.049,0.019 0.09,0.052 0.124,0.097 0.034,0.046 0.042,0.089 0.025,0.131 z m -0.356,-0.289 c 0.05,0.072 0.161,0.187 0.334,0.344 L -0.06,0.15 C -0.09,0.225 -0.119,0.275 -0.145,0.298 -0.19,0.338 -0.252,0.341 -0.332,0.31 -0.369,0.295 -0.401,0.271 -0.428,0.238 -0.454,0.204 -0.46,0.17 -0.446,0.135 -0.442,0.126 -0.434,0.112 -0.422,0.092 -0.41,0.073 -0.403,0.06 -0.4,0.054 c 0.016,-0.041 0.014,-0.076 -0.007,-0.103 -0.011,-0.016 -0.028,-0.028 -0.049,-0.037 -0.033,-0.013 -0.063,-0.012 -0.09,0.003 -0.026,0.014 -0.045,0.035 -0.056,0.062 -0.021,0.051 -0.01,0.118 0.031,0.2 0.041,0.083 0.124,0.149 0.247,0.198 0.144,0.058 0.259,0.05 0.348,-0.022 0.048,-0.041 0.091,-0.109 0.13,-0.207 l 0.179,-0.445 c 0.017,-0.042 0.032,-0.071 0.044,-0.085 0.021,-0.025 0.047,-0.031 0.078,-0.019 0.017,0.007 0.03,0.015 0.039,0.025 0.009,0.009 0.023,0.03 0.042,0.061 L 0.559,-0.373 C 0.547,-0.411 0.531,-0.445 0.511,-0.475 0.481,-0.519 0.445,-0.551 0.402,-0.568 0.351,-0.588 0.309,-0.586 0.273,-0.563 0.237,-0.539 0.209,-0.505 0.189,-0.461 0.153,-0.533 0.119,-0.588 0.089,-0.628 0.037,-0.695 -0.019,-0.74 -0.079,-0.765 -0.143,-0.79 -0.207,-0.79 -0.271,-0.764 c -0.065,0.026 -0.111,0.074 -0.139,0.142 -0.043,0.107 -0.025,0.219 0.054,0.333"
         id="path921" />
      <path
         transform="matrix(1,0,0,-1,293.0088,485.143)"
         d="M 0,0 C 0.068,0.029 0.112,0.059 0.13,0.088 0.148,0.118 0.147,0.164 0.127,0.227 L -0.227,1.34 C -0.243,1.39 -0.258,1.423 -0.272,1.439 -0.297,1.466 -0.333,1.473 -0.38,1.458 -0.39,1.455 -0.401,1.45 -0.413,1.444 -0.425,1.437 -0.44,1.429 -0.457,1.418 l -0.012,0.038 c 0.094,0.06 0.205,0.135 0.335,0.227 0.005,10e-4 0.009,0 0.012,-0.004 C -0.12,1.675 -0.116,1.665 -0.111,1.65 L 0.323,0.285 C 0.344,0.219 0.369,0.18 0.398,0.167 0.427,0.155 0.478,0.158 0.551,0.175 L 0.561,0.143 0.01,-0.032 Z"
         id="path922" />
      <path
         transform="matrix(1,0,0,-1,293.6572,484.0288)"
         d="m 0,0 c -0.015,-0.048 -0.019,-0.105 -0.015,-0.171 l 0.49,0.12 C 0.447,0.024 0.419,0.078 0.388,0.111 0.334,0.17 0.262,0.189 0.173,0.167 0.085,0.145 0.027,0.089 0,0 M 0.534,0.225 C 0.635,0.17 0.702,0.073 0.736,-0.066 l -0.737,-0.18 c 0.051,-0.178 0.124,-0.298 0.218,-0.362 0.093,-0.064 0.19,-0.083 0.291,-0.059 0.081,0.02 0.144,0.058 0.19,0.114 0.045,0.057 0.082,0.129 0.11,0.219 L 0.852,-0.338 C 0.844,-0.444 0.807,-0.55 0.741,-0.655 0.674,-0.76 0.578,-0.828 0.452,-0.859 0.306,-0.894 0.18,-0.867 0.074,-0.777 c -0.106,0.091 -0.177,0.208 -0.212,0.351 -0.038,0.155 -0.025,0.301 0.039,0.436 0.065,0.136 0.171,0.222 0.319,0.258 0.109,0.027 0.214,0.012 0.314,-0.043"
         id="path923" />
      <path
         transform="matrix(1,0,0,-1,294.7001,484.33833)"
         d="m 0,0 0.039,0.007 c 0.033,-0.087 0.069,-0.152 0.108,-0.194 0.069,-0.079 0.157,-0.109 0.263,-0.091 0.059,0.01 0.102,0.034 0.131,0.072 0.029,0.039 0.038,0.084 0.03,0.136 C 0.565,-0.037 0.55,-0.007 0.525,0.02 0.5,0.047 0.46,0.071 0.406,0.092 L 0.261,0.145 C 0.156,0.18 0.076,0.221 0.022,0.265 -0.033,0.31 -0.066,0.369 -0.078,0.44 -0.093,0.528 -0.074,0.605 -0.021,0.673 0.032,0.74 0.106,0.782 0.201,0.798 0.243,0.805 0.29,0.805 0.343,0.798 0.395,0.79 0.425,0.787 0.431,0.788 0.445,0.791 0.455,0.794 0.46,0.799 0.466,0.804 0.471,0.812 0.474,0.821 L 0.502,0.826 0.566,0.499 0.53,0.492 C 0.501,0.566 0.47,0.621 0.436,0.659 0.374,0.73 0.297,0.757 0.205,0.741 0.15,0.732 0.11,0.708 0.084,0.669 0.058,0.63 0.049,0.587 0.057,0.542 0.069,0.469 0.134,0.414 0.252,0.376 L 0.422,0.319 C 0.605,0.256 0.707,0.164 0.727,0.043 0.743,-0.049 0.721,-0.131 0.662,-0.202 0.602,-0.272 0.517,-0.317 0.404,-0.336 0.357,-0.344 0.303,-0.345 0.24,-0.34 0.178,-0.334 0.142,-0.332 0.131,-0.334 0.121,-0.336 0.114,-0.341 0.108,-0.348 0.102,-0.356 0.098,-0.365 0.095,-0.375 l -0.03,-0.006 z"
         id="path924" />
      <path
         transform="matrix(1,0,0,-1,296.059,483.41133)"
         d="m 0,0 0.01,-0.086 -0.242,-0.027 0.076,-0.684 c 0.006,-0.061 0.017,-0.105 0.031,-0.135 0.025,-0.053 0.065,-0.076 0.121,-0.069 0.028,0.003 0.052,0.013 0.072,0.029 0.019,0.015 0.04,0.039 0.064,0.072 L 0.166,-0.923 0.144,-0.962 C 0.109,-1.021 0.07,-1.066 0.027,-1.094 c -0.044,-0.028 -0.087,-0.045 -0.129,-0.05 -0.094,-0.01 -0.162,0.024 -0.204,0.103 -0.024,0.043 -0.04,0.105 -0.049,0.185 l -0.083,0.719 -0.129,-0.015 c -0.004,0.002 -0.008,0.004 -0.01,0.006 -0.002,0.003 -0.003,0.006 -0.004,0.01 -0.001,0.008 0,0.014 0.003,0.019 0.003,0.004 0.014,0.016 0.031,0.034 0.049,0.051 0.084,0.092 0.105,0.123 0.021,0.031 0.069,0.112 0.145,0.242 0.01,0.001 0.017,0.001 0.019,0 0.002,-10e-4 0.004,-0.007 0.005,-0.017 l 0.033,-0.292 z"
         id="path925" />
      <path
         transform="matrix(1,0,0,-1,296.3536,482.8562)"
         d="M 0,0 C 0.022,0.026 0.051,0.041 0.086,0.043 0.12,0.045 0.15,0.036 0.176,0.013 0.202,-0.009 0.216,-0.038 0.218,-0.073 0.221,-0.107 0.211,-0.137 0.188,-0.162 0.166,-0.188 0.138,-0.202 0.103,-0.205 0.068,-0.207 0.038,-0.198 0.013,-0.175 -0.013,-0.153 -0.027,-0.124 -0.029,-0.09 -0.032,-0.056 -0.022,-0.026 0,0 m -0.076,-1.607 c 0.085,0.014 0.137,0.032 0.158,0.055 0.021,0.022 0.028,0.08 0.021,0.173 l -0.04,0.569 c -0.004,0.051 -0.01,0.087 -0.019,0.106 -0.014,0.032 -0.04,0.046 -0.078,0.044 -0.009,-0.001 -0.018,-0.002 -0.026,-0.005 -0.008,-0.002 -0.032,-0.01 -0.07,-0.024 l -0.003,0.037 0.05,0.021 c 0.136,0.055 0.23,0.096 0.283,0.123 0.022,0.011 0.036,0.017 0.042,0.017 0.002,-0.005 0.003,-0.011 0.004,-0.018 l 0.061,-0.855 c 0.007,-0.091 0.021,-0.147 0.045,-0.168 0.023,-0.022 0.074,-0.033 0.152,-0.034 l 0.002,-0.033 -0.579,-0.042 z"
         id="path926" />
      <path
         transform="matrix(1,0,0,-1,296.9412,484.411)"
         d="M 0,0 C 0.056,0.008 0.096,0.023 0.118,0.044 0.14,0.066 0.151,0.113 0.15,0.186 L 0.141,0.793 C 0.14,0.844 0.135,0.879 0.125,0.9 0.11,0.93 0.078,0.944 0.031,0.943 0.024,0.943 0.017,0.943 0.01,0.942 0.002,0.941 -0.008,0.94 -0.018,0.938 L -0.019,0.98 C 0.013,0.99 0.09,1.016 0.212,1.057 L 0.323,1.096 C 0.329,1.096 0.332,1.094 0.333,1.09 0.335,1.086 0.335,1.08 0.336,1.073 L 0.338,0.898 C 0.41,0.967 0.467,1.015 0.508,1.041 0.569,1.081 0.633,1.102 0.7,1.103 0.754,1.103 0.804,1.089 0.849,1.058 0.936,0.999 0.98,0.891 0.982,0.736 L 0.99,0.178 C 0.991,0.121 1.003,0.08 1.027,0.055 1.05,0.029 1.088,0.017 1.142,0.017 L 1.143,-0.017 0.633,-0.024 0.632,0.009 C 0.69,0.018 0.73,0.035 0.753,0.06 0.776,0.084 0.787,0.137 0.786,0.218 L 0.778,0.728 C 0.777,0.797 0.764,0.853 0.738,0.898 0.712,0.943 0.664,0.965 0.596,0.964 0.55,0.963 0.502,0.946 0.454,0.914 0.428,0.895 0.393,0.864 0.351,0.821 L 0.361,0.152 C 0.362,0.095 0.375,0.057 0.401,0.038 0.427,0.018 0.467,0.008 0.522,0.008 L 0.523,-0.026 0,-0.034 Z"
         id="path927" />
      <path
         transform="matrix(1,0,0,-1,298.4323,483.53163)"
         d="m 0,0 c -0.028,-0.042 -0.049,-0.095 -0.063,-0.16 l 0.504,-0.024 c -0.005,0.08 -0.017,0.14 -0.037,0.18 C 0.369,0.068 0.305,0.106 0.214,0.11 0.123,0.115 0.052,0.078 0,0 m 0.576,0.063 c 0.081,-0.081 0.118,-0.193 0.11,-0.336 l -0.757,0.037 c -0.002,-0.184 0.034,-0.321 0.105,-0.408 0.072,-0.088 0.159,-0.135 0.263,-0.14 0.083,-0.004 0.155,0.014 0.214,0.055 0.059,0.041 0.115,0.1 0.168,0.178 L 0.72,-0.567 C 0.682,-0.667 0.617,-0.757 0.523,-0.839 0.429,-0.921 0.317,-0.958 0.188,-0.952 c -0.15,0.007 -0.263,0.07 -0.339,0.187 -0.076,0.117 -0.11,0.249 -0.103,0.396 0.008,0.16 0.062,0.296 0.163,0.407 0.1,0.112 0.226,0.164 0.378,0.156 C 0.399,0.189 0.496,0.145 0.576,0.063"
         id="path928" />
      <path
         transform="matrix(1,0,0,-1,299.817,484.4939)"
         d="M 0,0 C 0.097,-0.003 0.159,0.006 0.186,0.027 0.212,0.049 0.233,0.112 0.248,0.216 L 0.397,1.265 C 0.409,1.351 0.404,1.409 0.382,1.439 0.359,1.47 0.304,1.494 0.215,1.513 L 0.221,1.558 1.512,1.375 1.471,1.027 1.404,1.037 C 1.403,1.15 1.381,1.224 1.34,1.26 1.298,1.296 1.21,1.324 1.075,1.343 L 0.743,1.39 C 0.711,1.395 0.689,1.392 0.678,1.382 0.668,1.373 0.66,1.352 0.656,1.319 L 0.579,0.779 0.93,0.729 C 1.034,0.714 1.102,0.72 1.134,0.747 1.167,0.773 1.199,0.832 1.229,0.923 L 1.286,0.915 1.207,0.355 1.15,0.363 C 1.145,0.46 1.131,0.525 1.106,0.559 1.082,0.594 1.019,0.618 0.917,0.633 L 0.565,0.683 0.49,0.153 C 0.477,0.064 0.483,0.005 0.507,-0.023 0.53,-0.052 0.587,-0.076 0.678,-0.096 l -0.006,-0.045 -0.678,0.096 z"
         fill="#ed1d24"
         id="path929" />
      <path
         transform="matrix(1,0,0,-1,301.7085,483.8385)"
         d="m 0,0 c -0.093,-0.055 -0.156,-0.17 -0.192,-0.344 -0.027,-0.139 -0.022,-0.275 0.017,-0.408 0.038,-0.133 0.114,-0.211 0.226,-0.233 0.087,-0.018 0.163,0.009 0.226,0.079 0.064,0.071 0.109,0.172 0.135,0.302 0.027,0.136 0.023,0.269 -0.013,0.401 C 0.362,-0.072 0.287,0.005 0.173,0.029 0.111,0.041 0.054,0.031 0,0 M -0.193,0.008 C -0.073,0.095 0.065,0.123 0.221,0.092 0.375,0.061 0.493,-0.016 0.574,-0.138 0.655,-0.26 0.679,-0.405 0.645,-0.574 0.613,-0.729 0.537,-0.854 0.416,-0.949 0.294,-1.044 0.155,-1.076 -0.001,-1.045 c -0.15,0.031 -0.266,0.111 -0.347,0.242 -0.082,0.131 -0.106,0.28 -0.073,0.447 0.032,0.155 0.108,0.276 0.228,0.364"
         id="path930" />
      <path
         transform="matrix(1,0,0,-1,302.942,484.1092)"
         d="m 0,0 c -0.095,-0.051 -0.165,-0.162 -0.209,-0.334 -0.035,-0.138 -0.036,-0.274 -0.004,-0.408 0.032,-0.135 0.103,-0.217 0.214,-0.245 0.087,-0.022 0.163,0.001 0.23,0.069 0.067,0.067 0.117,0.166 0.15,0.295 0.034,0.133 0.036,0.267 0.007,0.4 C 0.358,-0.09 0.287,-0.009 0.174,0.02 0.113,0.035 0.055,0.029 0,0 M -0.193,0.017 C -0.068,0.099 0.071,0.12 0.225,0.081 0.378,0.042 0.492,-0.041 0.566,-0.166 0.641,-0.292 0.658,-0.439 0.615,-0.605 0.576,-0.759 0.493,-0.88 0.367,-0.969 0.241,-1.058 0.101,-1.082 -0.054,-1.043 c -0.148,0.038 -0.259,0.124 -0.334,0.259 -0.075,0.135 -0.092,0.285 -0.05,0.449 0.039,0.154 0.121,0.271 0.245,0.352"
         id="path931" />
      <path
         transform="matrix(1,0,0,-1,304.3942,484.3896)"
         d="m 0,0 -0.024,-0.083 -0.234,0.069 -0.196,-0.66 c -0.017,-0.058 -0.025,-0.103 -0.024,-0.136 0.003,-0.058 0.031,-0.095 0.084,-0.111 0.028,-0.008 0.054,-0.008 0.078,-0.001 0.024,0.007 0.053,0.021 0.087,0.041 l 0.023,-0.034 -0.036,-0.027 c -0.055,-0.041 -0.108,-0.067 -0.159,-0.076 -0.051,-0.009 -0.097,-0.008 -0.138,0.004 -0.09,0.027 -0.14,0.085 -0.148,0.175 -0.005,0.048 0.004,0.111 0.027,0.189 l 0.203,0.694 -0.125,0.037 c -0.003,0.003 -0.005,0.007 -0.006,0.009 -0.001,0.003 -0.001,0.007 0,0.011 0.002,0.007 0.006,0.013 0.01,0.016 0.005,0.003 0.019,0.01 0.041,0.019 0.066,0.028 0.114,0.053 0.146,0.073 0.031,0.02 0.107,0.076 0.227,0.167 C -0.154,0.373 -0.148,0.37 -0.147,0.368 -0.145,0.366 -0.146,0.36 -0.149,0.35 L -0.232,0.068 Z"
         id="path932" />
      <path
         transform="matrix(1,0,0,-1,304.6039,485.5208)"
         d="M 0,0 C 0.046,-0.034 0.089,-0.058 0.128,-0.071 0.234,-0.106 0.325,-0.092 0.402,-0.029 0.479,0.033 0.536,0.121 0.573,0.233 0.611,0.346 0.621,0.458 0.605,0.569 0.59,0.68 0.529,0.753 0.423,0.788 0.369,0.806 0.311,0.807 0.249,0.791 0.187,0.775 0.148,0.742 0.131,0.691 L -0.06,0.114 C -0.067,0.072 -0.047,0.034 0,0 M 0.018,1.504 0.031,1.542 C 0.124,1.533 0.209,1.529 0.286,1.531 0.363,1.532 0.405,1.532 0.41,1.53 0.41,1.525 0.409,1.52 0.408,1.516 L 0.179,0.825 C 0.211,0.855 0.251,0.879 0.302,0.899 0.39,0.933 0.479,0.935 0.57,0.905 0.681,0.868 0.76,0.79 0.808,0.67 0.855,0.55 0.854,0.415 0.804,0.265 0.751,0.105 0.655,-0.015 0.515,-0.096 0.375,-0.176 0.222,-0.189 0.056,-0.134 c -0.084,0.028 -0.161,0.072 -0.231,0.132 -0.07,0.06 -0.1,0.107 -0.089,0.14 L 0.133,1.337 C 0.148,1.381 0.152,1.414 0.146,1.437 0.14,1.459 0.115,1.478 0.071,1.492 Z"
         id="path933" />
      <path
         transform="matrix(1,0,0,-1,306.1793,485.4665)"
         d="m 0,0 c -0.096,0.004 -0.179,-0.001 -0.248,-0.015 -0.132,-0.026 -0.214,-0.081 -0.246,-0.165 -0.025,-0.068 -0.021,-0.127 0.011,-0.175 0.022,-0.032 0.05,-0.055 0.086,-0.068 0.049,-0.019 0.102,-0.022 0.157,-0.012 0.056,0.011 0.091,0.038 0.107,0.08 z m -0.458,0.027 c 0.085,0.019 0.245,0.029 0.479,0.029 l 0.036,0.095 c 0.028,0.076 0.04,0.132 0.037,0.167 -0.007,0.06 -0.05,0.105 -0.13,0.134 -0.038,0.015 -0.078,0.019 -0.12,0.012 C -0.198,0.457 -0.225,0.435 -0.238,0.4 -0.241,0.391 -0.245,0.376 -0.25,0.353 -0.254,0.33 -0.257,0.316 -0.259,0.31 -0.275,0.268 -0.299,0.244 -0.333,0.238 -0.353,0.234 -0.373,0.236 -0.395,0.245 -0.428,0.257 -0.45,0.278 -0.46,0.307 -0.469,0.335 -0.469,0.363 -0.459,0.39 -0.439,0.442 -0.387,0.485 -0.301,0.518 -0.215,0.551 -0.11,0.544 0.015,0.497 0.16,0.443 0.24,0.359 0.257,0.246 0.265,0.184 0.251,0.104 0.214,0.005 L 0.046,-0.443 C 0.03,-0.487 0.021,-0.518 0.021,-0.536 0.02,-0.569 0.035,-0.591 0.065,-0.603 0.083,-0.609 0.098,-0.612 0.111,-0.611 0.124,-0.61 0.148,-0.604 0.183,-0.594 L 0.161,-0.652 C 0.127,-0.673 0.092,-0.687 0.057,-0.695 c -0.052,-0.013 -0.1,-0.011 -0.143,0.005 -0.051,0.019 -0.081,0.049 -0.092,0.09 -0.01,0.042 -0.008,0.086 0.007,0.132 -0.075,-0.028 -0.138,-0.046 -0.187,-0.055 -0.083,-0.015 -0.155,-0.011 -0.216,0.012 -0.064,0.024 -0.111,0.067 -0.141,0.13 -0.031,0.063 -0.033,0.129 -0.007,0.198 0.041,0.108 0.129,0.178 0.264,0.21"
         id="path934" />
      <path
         transform="matrix(1,0,0,-1,306.3654,486.212)"
         d="m 0,0 c 0.071,-0.021 0.124,-0.026 0.156,-0.015 0.033,0.011 0.062,0.047 0.087,0.109 L 0.682,1.175 C 0.702,1.224 0.712,1.259 0.711,1.281 0.709,1.318 0.685,1.346 0.64,1.364 0.63,1.368 0.618,1.372 0.605,1.374 0.592,1.377 0.575,1.38 0.555,1.383 L 0.57,1.419 C 0.68,1.406 0.815,1.392 0.973,1.38 0.978,1.378 0.98,1.374 0.98,1.369 0.979,1.364 0.976,1.354 0.969,1.34 L 0.431,0.012 C 0.405,-0.052 0.399,-0.098 0.413,-0.126 0.428,-0.154 0.469,-0.184 0.536,-0.218 l -0.013,-0.031 -0.536,0.218 z"
         id="path935" />
      <path
         transform="matrix(1,0,0,-1,307.0009,486.4674)"
         d="m 0,0 c 0.071,-0.023 0.123,-0.03 0.156,-0.02 0.033,0.01 0.063,0.045 0.09,0.106 L 0.72,1.152 C 0.742,1.2 0.752,1.235 0.753,1.257 0.752,1.294 0.729,1.322 0.684,1.342 0.674,1.347 0.663,1.351 0.65,1.354 0.637,1.357 0.62,1.36 0.6,1.364 L 0.616,1.4 C 0.726,1.383 0.86,1.365 1.017,1.347 1.023,1.345 1.025,1.341 1.024,1.336 1.023,1.332 1.019,1.322 1.013,1.307 L 0.431,-0.002 C 0.403,-0.065 0.395,-0.111 0.409,-0.139 0.422,-0.167 0.462,-0.199 0.528,-0.235 l -0.013,-0.03 -0.528,0.235 z"
         id="path936" />
      <path
         transform="matrix(1,0,0,-1,309.2489,486.8826)"
         d="M 0,0 0.069,0.727 -0.496,0.264 Z m -1.226,-0.06 0.022,0.04 c 0.059,-0.023 0.111,-0.024 0.158,-0.004 0.047,0.021 0.146,0.093 0.298,0.216 L 0.266,1.013 0.309,0.99 0.196,-0.521 c -0.007,-0.1 -0.005,-0.166 0.006,-0.196 0.011,-0.031 0.04,-0.063 0.087,-0.097 l -0.021,-0.04 -0.55,0.292 0.022,0.04 c 0.066,-0.028 0.11,-0.043 0.133,-0.044 0.022,-0.002 0.042,0.013 0.059,0.044 0.005,0.011 0.012,0.031 0.019,0.062 0.007,0.03 0.012,0.063 0.015,0.099 l 0.024,0.254 -0.57,0.303 c -0.131,-0.112 -0.21,-0.18 -0.238,-0.206 -0.027,-0.025 -0.046,-0.046 -0.056,-0.065 -0.019,-0.036 -0.017,-0.069 0.005,-0.099 0.014,-0.018 0.044,-0.043 0.093,-0.074 l -0.022,-0.04 z"
         fill="#ed1d24"
         id="path937" />
      <path
         transform="matrix(1,0,0,-1,309.8341,487.5101)"
         d="m 0,0 0.033,-0.021 c -0.034,-0.087 -0.052,-0.158 -0.053,-0.216 -0.002,-0.105 0.042,-0.187 0.132,-0.246 0.049,-0.032 0.098,-0.044 0.145,-0.036 0.047,0.009 0.085,0.036 0.114,0.08 0.018,0.028 0.027,0.06 0.028,0.097 0,0.037 -0.013,0.081 -0.038,0.134 L 0.29,-0.071 C 0.237,0.026 0.206,0.11 0.196,0.18 0.187,0.25 0.202,0.315 0.242,0.376 0.29,0.451 0.357,0.495 0.442,0.508 0.527,0.521 0.609,0.501 0.69,0.448 0.725,0.425 0.76,0.393 0.793,0.352 0.827,0.311 0.846,0.289 0.852,0.285 0.864,0.278 0.874,0.274 0.881,0.273 c 0.008,0 0.016,0.003 0.025,0.007 L 0.93,0.265 0.754,-0.019 0.723,0.001 C 0.752,0.075 0.767,0.137 0.768,0.188 0.77,0.281 0.732,0.354 0.654,0.405 0.608,0.435 0.562,0.445 0.516,0.434 0.471,0.422 0.435,0.397 0.41,0.359 0.37,0.297 0.38,0.213 0.441,0.104 L 0.526,-0.053 C 0.618,-0.223 0.63,-0.359 0.563,-0.462 0.512,-0.541 0.44,-0.586 0.349,-0.597 0.257,-0.609 0.163,-0.584 0.068,-0.521 c -0.04,0.026 -0.081,0.062 -0.123,0.108 -0.041,0.047 -0.067,0.073 -0.076,0.079 -0.008,0.005 -0.017,0.007 -0.027,0.005 -0.009,-0.001 -0.019,-0.005 -0.027,-0.011 l -0.026,0.017 z"
         id="path938" />
      <path
         transform="matrix(1,0,0,-1,310.6328,488.04353)"
         d="m 0,0 0.031,-0.024 c -0.041,-0.083 -0.065,-0.153 -0.07,-0.211 -0.011,-0.104 0.026,-0.189 0.11,-0.255 0.047,-0.037 0.095,-0.053 0.142,-0.048 0.048,0.005 0.088,0.028 0.12,0.069 0.021,0.027 0.033,0.058 0.036,0.095 0.003,0.037 -0.006,0.082 -0.027,0.136 L 0.283,-0.095 C 0.239,0.007 0.214,0.093 0.211,0.163 0.207,0.234 0.227,0.297 0.272,0.355 0.327,0.425 0.397,0.463 0.483,0.469 0.568,0.475 0.649,0.449 0.725,0.39 0.758,0.364 0.79,0.329 0.82,0.285 0.85,0.241 0.868,0.218 0.873,0.214 0.884,0.205 0.893,0.2 0.901,0.199 0.908,0.199 0.917,0.2 0.926,0.204 L 0.949,0.186 0.75,-0.082 0.721,-0.059 C 0.756,0.012 0.776,0.073 0.781,0.123 0.791,0.216 0.759,0.291 0.686,0.349 0.642,0.383 0.597,0.397 0.55,0.389 0.504,0.382 0.467,0.36 0.439,0.323 0.393,0.265 0.397,0.18 0.448,0.068 L 0.52,-0.096 C 0.597,-0.274 0.598,-0.411 0.523,-0.507 0.465,-0.582 0.39,-0.621 0.298,-0.624 0.205,-0.628 0.114,-0.595 0.025,-0.525 c -0.038,0.029 -0.076,0.069 -0.114,0.118 -0.037,0.05 -0.061,0.078 -0.07,0.085 -0.007,0.006 -0.016,0.009 -0.026,0.008 -0.009,-0.001 -0.019,-0.004 -0.028,-0.009 l -0.024,0.019 z"
         id="path939" />
      <path
         transform="matrix(1,0,0,-1,312.0146,488.4011)"
         d="m 0,0 c -0.108,0.005 -0.224,-0.055 -0.35,-0.181 -0.1,-0.1 -0.171,-0.216 -0.212,-0.348 -0.042,-0.133 -0.022,-0.239 0.059,-0.32 0.063,-0.063 0.141,-0.083 0.233,-0.059 0.092,0.024 0.185,0.083 0.279,0.177 0.098,0.098 0.168,0.211 0.21,0.341 0.043,0.13 0.023,0.236 -0.059,0.318 C 0.115,-0.028 0.062,-0.003 0,0 m -0.157,0.113 c 0.149,0.006 0.279,-0.046 0.392,-0.159 0.111,-0.111 0.167,-0.24 0.167,-0.387 0,-0.146 -0.061,-0.28 -0.183,-0.402 -0.112,-0.112 -0.245,-0.174 -0.398,-0.186 -0.154,-0.011 -0.288,0.039 -0.4,0.152 -0.108,0.108 -0.16,0.239 -0.155,0.393 0.004,0.155 0.066,0.292 0.186,0.412 0.112,0.112 0.243,0.171 0.391,0.177"
         id="path940" />
      <path
         transform="matrix(1,0,0,-1,313.2142,489.7431)"
         d="m 0,0 c -0.001,-0.088 -0.026,-0.15 -0.076,-0.185 -0.022,-0.015 -0.047,-0.022 -0.076,-0.02 -0.029,0.002 -0.054,0.019 -0.076,0.051 -0.016,0.022 -0.023,0.048 -0.019,0.076 0.004,0.029 0.018,0.057 0.042,0.086 l 0.039,0.044 c 0.029,0.033 0.043,0.065 0.043,0.096 -0.002,0.031 -0.015,0.064 -0.039,0.099 -0.052,0.075 -0.129,0.115 -0.229,0.121 -0.101,0.006 -0.206,-0.029 -0.314,-0.104 -0.098,-0.069 -0.167,-0.16 -0.206,-0.271 -0.039,-0.111 -0.025,-0.215 0.042,-0.311 0.047,-0.068 0.112,-0.113 0.193,-0.134 0.047,-0.013 0.111,-0.018 0.193,-0.017 l 0.003,-0.039 c -0.105,-0.018 -0.195,-0.022 -0.269,-0.013 -0.143,0.018 -0.251,0.079 -0.323,0.183 -0.071,0.101 -0.094,0.22 -0.068,0.354 0.025,0.135 0.107,0.25 0.245,0.346 0.135,0.095 0.281,0.133 0.438,0.116 C -0.3,0.46 -0.176,0.386 -0.084,0.255 -0.027,0.173 0.001,0.088 0,0"
         id="path941" />
      <path
         transform="matrix(1,0,0,-1,314.0162,490.0072)"
         d="M 0,0 C 0.032,-0.011 0.056,-0.033 0.071,-0.065 0.085,-0.095 0.087,-0.127 0.075,-0.159 0.063,-0.192 0.042,-0.215 0.01,-0.23 c -0.031,-0.014 -0.062,-0.016 -0.094,-0.004 -0.033,0.012 -0.056,0.033 -0.07,0.064 -0.015,0.032 -0.017,0.064 -0.005,0.096 0.012,0.032 0.033,0.055 0.064,0.069 C -0.064,0.01 -0.032,0.011 0,0 m -1.528,-0.504 c 0.043,-0.074 0.079,-0.117 0.108,-0.128 0.028,-0.011 0.085,0.003 0.169,0.042 l 0.517,0.242 c 0.046,0.022 0.078,0.04 0.092,0.055 0.025,0.025 0.029,0.054 0.013,0.089 -0.004,0.008 -0.008,0.015 -0.013,0.022 -0.005,0.007 -0.021,0.026 -0.048,0.057 l 0.034,0.016 0.037,-0.039 c 0.1,-0.107 0.172,-0.181 0.216,-0.221 0.018,-0.016 0.029,-0.027 0.031,-0.033 -0.004,-0.004 -0.009,-0.007 -0.015,-0.01 l -0.777,-0.363 c -0.082,-0.038 -0.13,-0.072 -0.141,-0.102 -0.012,-0.03 -0.004,-0.081 0.023,-0.153 l -0.03,-0.015 -0.246,0.527 z"
         id="path942" />
      <path
         transform="matrix(1,0,0,-1,313.5307,491.5528)"
         d="M 0,0 C -0.051,0.082 -0.101,0.148 -0.15,0.198 -0.246,0.292 -0.338,0.33 -0.425,0.309 -0.496,0.291 -0.542,0.256 -0.564,0.201 -0.579,0.166 -0.582,0.13 -0.573,0.093 c 0.013,-0.051 0.039,-0.097 0.079,-0.137 0.039,-0.04 0.081,-0.055 0.126,-0.044 z M -0.233,0.395 C -0.17,0.335 -0.073,0.208 0.058,0.014 L 0.157,0.038 C 0.236,0.056 0.289,0.077 0.317,0.1 0.362,0.139 0.375,0.2 0.355,0.283 0.346,0.322 0.327,0.357 0.298,0.388 0.268,0.419 0.235,0.43 0.199,0.421 0.19,0.419 0.174,0.413 0.153,0.404 0.132,0.395 0.118,0.39 0.112,0.388 0.069,0.378 0.035,0.385 0.011,0.409 -0.003,0.423 -0.012,0.441 -0.018,0.464 -0.026,0.499 -0.021,0.528 -0.003,0.552 0.016,0.576 0.039,0.592 0.067,0.598 0.121,0.611 0.186,0.591 0.261,0.539 0.336,0.486 0.39,0.395 0.421,0.265 0.457,0.115 0.432,0.002 0.347,-0.075 0.301,-0.117 0.226,-0.15 0.124,-0.174 l -0.466,-0.112 c -0.045,-0.011 -0.075,-0.021 -0.091,-0.031 -0.027,-0.018 -0.037,-0.042 -0.03,-0.074 0.004,-0.018 0.011,-0.032 0.019,-0.042 0.008,-0.011 0.026,-0.027 0.054,-0.051 l -0.061,-0.015 c -0.036,0.018 -0.067,0.039 -0.093,0.063 -0.04,0.036 -0.065,0.077 -0.076,0.122 -0.013,0.052 -0.005,0.095 0.024,0.126 0.028,0.032 0.066,0.055 0.112,0.068 -0.065,0.047 -0.115,0.088 -0.15,0.124 -0.059,0.061 -0.095,0.123 -0.111,0.186 -0.016,0.067 -0.006,0.13 0.029,0.19 0.035,0.06 0.089,0.099 0.161,0.116 0.112,0.027 0.219,-0.007 0.322,-0.101"
         id="path943" />
      <path
         transform="matrix(1,0,0,-1,314.0584,492.6105)"
         d="M 0,0 -0.086,-0.002 -0.09,0.242 -0.779,0.232 C -0.839,0.231 -0.885,0.225 -0.916,0.214 -0.97,0.194 -0.997,0.156 -0.996,0.1 c 0.001,-0.029 0.008,-0.053 0.021,-0.074 0.014,-0.021 0.037,-0.045 0.066,-0.071 l -0.025,-0.032 -0.037,0.026 c -0.056,0.04 -0.096,0.083 -0.12,0.129 -0.024,0.046 -0.037,0.09 -0.037,0.133 -0.002,0.094 0.039,0.158 0.122,0.194 0.044,0.019 0.107,0.029 0.188,0.03 l 0.724,0.014 -0.003,0.13 c 0.003,0.004 0.005,0.007 0.007,0.009 0.003,0.002 0.006,0.003 0.01,0.003 0.008,0 0.014,-0.001 0.018,-0.005 C -0.057,0.583 -0.047,0.572 -0.03,0.553 0.016,0.499 0.054,0.46 0.082,0.436 0.111,0.412 0.187,0.356 0.31,0.269 0.31,0.258 0.309,0.252 0.307,0.25 0.306,0.248 0.3,0.247 0.29,0.247 L -0.004,0.241 Z"
         id="path944" />
      <path
         transform="matrix(1,0,0,-1,314.5403,493.1056)"
         d="m 0,0 c 0.021,-0.027 0.029,-0.058 0.023,-0.093 -0.005,-0.034 -0.021,-0.061 -0.048,-0.081 -0.027,-0.021 -0.059,-0.029 -0.093,-0.024 -0.034,0.005 -0.061,0.022 -0.081,0.049 -0.021,0.028 -0.028,0.058 -0.023,0.092 0.005,0.035 0.021,0.062 0.048,0.083 0.028,0.02 0.058,0.027 0.092,0.022 C -0.048,0.043 -0.021,0.027 0,0 M -1.553,0.421 C -1.558,0.335 -1.551,0.28 -1.534,0.255 -1.516,0.229 -1.461,0.21 -1.369,0.197 l 0.564,-0.083 c 0.051,-0.008 0.087,-0.01 0.108,-0.005 0.034,0.007 0.054,0.029 0.06,0.067 0.001,0.009 0.001,0.017 0.001,0.026 0,0.008 -0.003,0.033 -0.008,0.074 l 0.036,-0.005 0.009,-0.054 c 0.025,-0.144 0.045,-0.245 0.06,-0.303 0.006,-0.023 0.008,-0.039 0.007,-0.045 -0.005,-0.001 -0.011,0 -0.018,0.001 l -0.849,0.124 C -1.488,0.008 -1.546,0.005 -1.572,-0.013 -1.598,-0.032 -1.62,-0.078 -1.638,-0.154 l -0.033,0.005 0.085,0.574 z"
         id="path945" />
      <path
         transform="matrix(1,0,0,-1,313.6904,493.9643)"
         d="M 0,0 C -0.04,0.1 -0.144,0.181 -0.31,0.242 -0.443,0.291 -0.579,0.307 -0.716,0.29 -0.853,0.272 -0.942,0.21 -0.981,0.102 -1.012,0.019 -0.998,-0.06 -0.937,-0.134 c 0.06,-0.074 0.152,-0.134 0.277,-0.18 0.129,-0.048 0.262,-0.064 0.397,-0.048 0.136,0.015 0.224,0.077 0.264,0.187 C 0.023,-0.116 0.023,-0.058 0,0 m 0.037,0.19 c 0.068,-0.133 0.075,-0.273 0.02,-0.422 -0.055,-0.148 -0.149,-0.253 -0.282,-0.314 -0.133,-0.061 -0.28,-0.062 -0.441,-0.002 -0.149,0.055 -0.261,0.15 -0.336,0.284 -0.075,0.135 -0.085,0.277 -0.03,0.427 0.053,0.143 0.151,0.245 0.293,0.305 0.142,0.061 0.293,0.062 0.452,0.003 C -0.139,0.416 -0.03,0.322 0.037,0.19"
         id="path946" />
      <path
         transform="matrix(1,0,0,-1,312.5157,494.375)"
         d="m 0,0 c -0.025,-0.051 -0.035,-0.092 -0.03,-0.123 0.006,-0.03 0.039,-0.066 0.1,-0.106 l 0.508,-0.333 c 0.042,-0.028 0.074,-0.043 0.097,-0.046 0.033,-0.004 0.063,0.014 0.088,0.053 0.004,0.006 0.008,0.012 0.012,0.019 0.003,0.007 0.007,0.015 0.012,0.025 L 0.822,-0.533 C 0.812,-0.566 0.79,-0.644 0.757,-0.768 L 0.726,-0.882 C 0.723,-0.887 0.72,-0.889 0.715,-0.887 0.711,-0.886 0.707,-0.884 0.701,-0.88 L 0.554,-0.783 C 0.571,-0.882 0.579,-0.956 0.577,-1.004 0.576,-1.078 0.557,-1.142 0.52,-1.198 0.491,-1.243 0.451,-1.276 0.4,-1.296 0.303,-1.335 0.189,-1.311 0.059,-1.226 l -0.467,0.306 c -0.048,0.031 -0.089,0.045 -0.123,0.039 -0.033,-0.005 -0.066,-0.03 -0.096,-0.074 l -0.028,0.018 0.28,0.427 0.028,-0.018 c -0.025,-0.054 -0.034,-0.096 -0.026,-0.129 0.007,-0.032 0.045,-0.071 0.113,-0.116 l 0.427,-0.28 c 0.057,-0.037 0.112,-0.058 0.163,-0.061 0.052,-0.004 0.096,0.023 0.133,0.08 0.026,0.039 0.039,0.088 0.039,0.145 -0.001,0.033 -0.007,0.079 -0.019,0.138 l -0.559,0.367 c -0.048,0.031 -0.088,0.041 -0.118,0.031 -0.03,-0.011 -0.061,-0.039 -0.092,-0.084 l -0.028,0.019 0.286,0.436 z"
         id="path947" />
      <path
         transform="matrix(1,0,0,-1,304.1998,508.2661)"
         d="M 0,0 C -0.091,0.072 -0.217,0.129 -0.373,0.099 -0.514,0.071 -0.682,0.043 -0.822,0.006 l -0.431,0.388 c 0.005,0.098 -0.016,0.24 -0.082,0.425 l 0.479,0.882 C -0.695,1.681 -0.435,1.65 -0.297,1.638 -0.172,1.626 -0.086,1.754 -0.04,1.928 0.151,1.7 0.369,1.442 0.518,1.271 0.497,1.183 0.514,1.066 0.556,0.954 0.374,0.538 0.152,0.137 0,0 m -1.442,1.049 c -0.214,0.295 -0.734,0.253 -0.883,0.234 l -0.699,0.564 c 0.081,0.168 0.082,0.371 0.013,0.599 -0.013,0.042 -0.031,0.073 -0.053,0.098 0.169,0.177 0.344,0.355 0.503,0.515 0.059,-0.039 0.124,-0.068 0.194,-0.081 0.259,-0.048 0.534,-0.001 0.68,0.06 L -1.099,2.169 C -1.123,2.032 -1.074,1.885 -1.036,1.798 Z m 0.325,3.046 C -1.052,4.062 -0.979,4.042 -0.917,4.031 -0.783,3.683 -0.592,3.146 -0.498,2.685 -0.693,2.658 -0.902,2.46 -0.988,2.37 l -0.6,0.884 c 0,0.067 -0.008,0.147 -0.034,0.226 z M 2.117,0.18 1.795,0.659 C 1.808,0.73 1.76,0.844 1.655,1.04 1.5,1.328 0.927,1.375 0.691,1.383 0.53,1.567 0.252,1.897 -0.004,2.202 -0.003,2.241 -0.003,2.28 -0.006,2.319 -0.021,2.578 -0.119,2.65 -0.289,2.675 -0.383,3.174 -0.591,3.756 -0.732,4.121 -0.648,4.489 -0.727,5.212 -1.027,5.049 -1.36,4.868 -1.389,4.473 -1.279,4.246 -1.276,4.241 -1.273,4.236 -1.27,4.231 L -1.729,3.671 C -1.776,3.723 -1.839,3.766 -1.922,3.795 -2.355,3.946 -2.863,3.96 -2.898,3.703 -2.919,3.551 -2.845,3.348 -2.714,3.195 -2.844,3.064 -3.06,2.845 -3.283,2.61 -3.432,2.596 -3.583,2.51 -3.583,2.51 -4.041,2.226 -4.209,1.775 -4.149,1.541 -4.25,1.359 -4.476,1.048 -4.647,0.821 -4.72,0.897 -4.822,0.971 -4.965,1.02 -5.398,1.171 -5.626,0.981 -5.573,0.746 -5.519,0.512 -5.241,0.226 -4.88,0.1 -4.716,0.043 -4.62,0.082 -4.561,0.158 l 0.333,-0.325 0.091,0.117 c 0,0 -0.121,0.12 -0.359,0.358 0.016,0.066 0.022,0.135 0.025,0.19 0,0 -0.011,0.063 -0.053,0.148 0.145,0.19 0.384,0.512 0.521,0.741 0.236,-0.072 0.606,0.077 0.82,0.255 0.015,0.013 0.027,0.026 0.04,0.04 L -2.496,1.16 C -2.605,0.999 -2.565,0.767 -2.49,0.578 l -0.348,-0.699 c -0.364,0.119 -0.716,-0.159 -0.716,-0.159 0.221,-0.201 0.664,-0.081 0.857,-0.015 0.058,0.02 0.094,0.035 0.094,0.035 -0.018,0.017 -0.036,0.03 -0.055,0.044 l 0.284,0.569 c 0.016,-0.023 0.031,-0.044 0.045,-0.06 0.12,-0.138 0.753,-0.091 0.953,-0.062 l 0.34,-0.306 c -0.071,-0.045 -0.1,-0.1 -0.051,-0.172 0.143,-0.211 1.088,-0.054 1.259,0.048 0,0 -0.013,0.024 -0.038,0.057 C 0.261,-0.025 0.45,0.22 0.682,0.733 0.715,0.694 0.75,0.662 0.787,0.64 1.011,0.508 1.381,0.487 1.616,0.541 c 0.004,0 0.007,0.001 0.011,0.002 L 1.907,0.126 C 1.873,0.116 1.841,0.105 1.812,0.095 1.544,-0.003 1.864,-0.22 1.864,-0.22 2.113,-0.28 3.14,-0.043 3.14,-0.043 2.919,0.257 2.47,0.254 2.117,0.18"
         id="path948" />
      <path
         transform="matrix(1,0,0,-1,308.3298,498.8876)"
         d="m 0,0 c 0,-2.341 -1.995,-4.238 -4.456,-4.238 -2.462,0 -4.457,1.897 -4.457,4.238 0,2.341 1.995,4.238 4.457,4.238 C -1.995,4.238 0,2.341 0,0"
         fill="#ffffff"
         id="path949" />
      <path
         transform="matrix(1,0,0,-1,303.8734,494.7514)"
         d="m 0,0 c -2.401,0 -4.354,-1.856 -4.354,-4.136 0,-2.281 1.953,-4.136 4.354,-4.136 2.401,0 4.354,1.855 4.354,4.136 C 4.354,-1.856 2.401,0 0,0 m 0,-8.476 c -2.514,0 -4.558,1.947 -4.558,4.34 0,2.393 2.044,4.34 4.558,4.34 2.513,0 4.558,-1.947 4.558,-4.34 0,-2.393 -2.045,-4.34 -4.558,-4.34"
         id="path950" />
      <path
         transform="matrix(1,0,0,-1,306.8221,501.0239)"
         d="m 0,0 c -0.355,0.174 -1.154,0.373 -1.522,0.459 -0.049,0.313 -0.186,1.172 -0.255,1.504 0.469,0.656 1.008,1.345 1.182,1.478 C -0.262,3.433 0.255,3.227 0.513,3.115 0.65,2.79 0.991,1.77 0.925,1.085 l 0.04,0.113 C 0.788,0.881 0.395,0.236 0,0 m -4.597,0.818 c 0,0 0.002,-0.033 0.022,-0.093 -0.337,-0.05 -1.191,-0.147 -1.771,0.036 -0.231,0.33 -0.401,1.016 -0.51,1.334 0.023,0.132 0.21,1.058 0.965,1.755 0.376,0.057 0.871,0.004 1.126,-0.032 C -4.491,3.409 -3.961,2.567 -3.902,2.243 -4.079,1.946 -4.597,0.818 -4.597,0.818 m 0.999,4.265 C -2.737,5.191 -1.852,4.961 -1.548,4.87 -1.191,4.494 -0.905,3.778 -0.809,3.517 -1.125,3.205 -1.68,2.448 -1.908,2.132 c -0.331,0.078 -1.409,0.162 -1.8,0.18 -0.095,0.394 -0.623,1.22 -0.852,1.567 0.186,0.38 0.762,0.962 0.962,1.204 M 1.136,1.271 C 1.175,2.047 0.788,2.999 0.675,3.259 0.675,3.626 0.653,4.039 0.643,4.215 0.736,4.218 0.815,4.211 0.837,4.196 L 0.981,4.34 C 0.898,4.423 0.707,4.427 0.566,4.416 0.159,5.027 -0.546,5.395 -0.722,5.475 h -0.001 l 0.154,-0.106 c 0,0.36 -0.425,0.694 -0.441,0.703 L -1.115,5.897 c 0.003,-0.001 0.289,-0.18 0.29,-0.42 C -1.021,5.438 -1.373,5.215 -1.562,5.088 -1.924,5.191 -2.737,5.383 -3.56,5.293 -3.638,5.43 -3.843,5.64 -4.087,5.781 -4.119,5.799 -4.16,5.81 -4.205,5.816 L -3.857,6.224 -4.012,6.357 -4.516,5.75 -4.314,5.822 C -4.759,5.81 -5.545,5.436 -5.855,5.084 -5.884,5.051 -5.909,5.014 -5.933,4.976 L -6.137,5.117 -6.253,4.949 -6.032,4.796 -6.008,4.83 C -6.148,4.498 -6.145,4.087 -6.135,3.898 -6.755,3.269 -6.972,2.522 -7.037,2.231 -7.189,2.156 -7.435,1.974 -7.435,1.974 c 0.17,-1.496 0.798,-2.226 0.798,-2.226 l 0.34,-0.119 0.061,0.892 c 0.239,-0.053 0.502,-0.071 0.752,-0.071 0.43,0 0.822,0.054 0.997,0.082 0.045,-0.079 0.108,-0.171 0.196,-0.275 0.228,-0.268 0.793,-0.609 1.022,-0.742 0.001,-0.274 -0.011,-0.831 -0.109,-1.142 -0.233,-0.075 -0.88,-0.241 -1.44,0.032 v -0.153 c 0,0 1.665,-0.561 2.702,-0.255 0,0 -0.756,0.104 -1.069,0.313 0.107,0.341 0.12,0.903 0.12,1.192 0.305,0.127 1.196,0.509 1.487,0.761 0.628,-0.147 1.283,-0.335 1.508,-0.452 0.02,-0.169 0.027,-0.461 -0.109,-0.709 0,0 0.221,0.017 0.408,0.085 0.187,0.068 0.935,1.036 1.088,1.818 z"
         id="path951" />
    </g>
  </g>
</svg>
