<?xml version="1.0" encoding="UTF-8" standalone="no"?>
<!-- Created with Inkscape (http://www.inkscape.org/) -->

<svg
   width="89.499023mm"
   height="122.24596mm"
   viewBox="0 0 89.499023 122.24596"
   version="1.1"
   id="svg1"
   xmlns="http://www.w3.org/2000/svg"
   xmlns:svg="http://www.w3.org/2000/svg">
  <defs
     id="defs1">
    <clipPath
       clipPathUnits="userSpaceOnUse"
       id="clipPath1985">
      <path
         d="M -12.684898,-34.653903 H 12.685103 V -9.0250002e-4 h -25.370001 z"
         id="path1985" />
    </clipPath>
    <clipPath
       clipPathUnits="userSpaceOnUse"
       id="clipPath1996">
      <path
         d="M -24.662803,-16.1986 H 0.70719752 v 34.653 H -24.662803 Z"
         id="path1996" />
    </clipPath>
  </defs>
  <g
     id="layer1"
     transform="translate(-56.562946,-78.868488)">
    <path
       id="path1984"
       d="m 0,0 c -6.099,0 -11.978,-1.287 -11.978,-1.287 v -17.168 c 0,-7.442 5.09,-13.695 11.978,-15.468 6.888,1.773 11.978,8.026 11.978,15.468 V -1.287 C 11.978,-1.287 6.099,0 0,0"
       style="fill:#1f376a;fill-opacity:1;fill-rule:nonzero;stroke:none"
       transform="matrix(3.5277776,0,0,-3.5277776,101.31243,78.865304)"
       clip-path="url(#clipPath1985)" />
    <path
       id="path1986"
       d="m 90.041525,159.9756 c 3.5419,1.1889 7.3307,1.8344 11.271205,1.8344 3.9406,0 7.7329,-0.645 11.2713,-1.8344 l -11.2713,-8.188 z"
       style="fill:#6fc9e8;fill-opacity:1;fill-rule:nonzero;stroke:none;stroke-width:3.52778" />
    <path
       id="path1987"
       d="m 65.973625,126.111 c 0,0.12 -0.0035,0.236 -0.0035,0.356 0,8.0892 2.71992,15.5434 7.29192,21.5018 l 4.35328,-13.3985 z"
       style="fill:#6fc9e8;fill-opacity:1;fill-rule:nonzero;stroke:none;stroke-width:3.52778" />
    <path
       id="path1988"
       d="m 72.002255,106.7114 h 14.66497 l 4.5932,-14.135796 c -7.94812,2.3566 -14.72498,7.4224 -19.25817,14.135796"
       style="fill:#6fc9e8;fill-opacity:1;fill-rule:nonzero;stroke:none;stroke-width:3.52778" />
    <path
       id="path1989"
       d="m 111.36623,92.577004 4.5932,14.135796 h 14.6649 c -4.5332,-6.713396 -11.3135,-11.782796 -19.2581,-14.135796"
       style="fill:#6fc9e8;fill-opacity:1;fill-rule:nonzero;stroke:none;stroke-width:3.52778" />
    <path
       id="path1990"
       d="m 136.65233,126.111 -11.6417,8.4596 4.3533,13.3985 c 4.572,-5.9584 7.2919,-13.4126 7.2919,-21.5018 0,-0.12 -0.004,-0.236 -0.004,-0.356"
       style="fill:#6fc9e8;fill-opacity:1;fill-rule:nonzero;stroke:none;stroke-width:3.52778" />
    <path
       id="path1991"
       d="m 83.393445,180.5298 h 2.94569 v -2.2084 h 4.42379 l 0.536,-1.6439 v -0.01 h -4.96009 v -1.644 h 6.11719 l 0.568,-1.7427 h -9.63088 z"
       style="fill:#ffffff;fill-opacity:1;fill-rule:nonzero;stroke:none;stroke-width:3.52778" />
    <path
       id="path1992"
       d="m 111.05903,180.5298 h 2.9457 v -2.2084 h 4.4238 l 0.536,-1.6439 v -0.01 h -4.96 v -1.644 h 6.1172 l 0.568,-1.7427 h -9.6308 z"
       style="fill:#ffffff;fill-opacity:1;fill-rule:nonzero;stroke:none;stroke-width:3.52778" />
    <path
       id="path1993"
       d="m 104.55733,175.9007 c 0,0.05 -0.007,0.275 -0.02,0.321 -0.07,0.346 -0.43,0.547 -1.0055,0.547 h -2.4941 -1.227705 v -0.07 -1.6792 h 3.721805 c 0.649,0 1.0231,0.268 1.0231,0.699 z m -0.363,-2.6211 h -7.327205 v 7.2989 h 2.9457 v -2.1554 h 4.381505 c 1.9968,0 3.2985,-1.0654 3.2985,-2.5718 v -0.176 c 0,-1.5099 -1.2912,-2.3953 -3.2985,-2.3953"
       style="fill:#ffffff;fill-opacity:1;fill-rule:nonzero;stroke:none;stroke-width:3.52778" />
    <path
       id="path1994"
       d="m 92.702925,124.072 -2.032,6.2547 -6.57931,20.2424 13.93121,-10.1212 -2.032,-6.2547 5.323405,3.8664 17.2191,12.5095 -5.3234,-16.3759 h -6.5758 l 5.3199,-3.8665 17.2226,-12.5094 h -17.2226 l -2.032,6.2547 -2.032,-6.2547 -6.5758,-20.242396 -5.323405,16.375896 5.323405,3.8665 h -6.579305 -21.28308 l 13.93119,10.1211 z"
       style="fill:#ffffff;fill-opacity:1;fill-rule:nonzero;stroke:none;stroke-width:3.52778" />
    <path
       id="path1995"
       d="M 0,0 V 0 C 0,-7.442 -5.09,-13.694 -11.978,-15.467 -18.866,-13.694 -23.956,-7.442 -23.956,0 v 16.452 h -0.707 V 0 c 0,-1.901 0.317,-3.765 0.943,-5.542 0.605,-1.717 1.484,-3.317 2.614,-4.755 1.118,-1.423 2.451,-2.649 3.962,-3.643 1.536,-1.011 3.215,-1.756 4.99,-2.213 l 0.176,-0.045 0.176,0.045 c 1.776,0.457 3.455,1.202 4.991,2.213 1.51,0.994 2.843,2.22 3.961,3.643 1.13,1.438 2.01,3.038 2.614,4.755 C 0.39,-3.765 0.707,-1.901 0.707,0 V 16.452 H 0 Z"
       style="fill:#c71626;fill-opacity:1;fill-rule:nonzero;stroke:none"
       transform="matrix(3.5277776,0,0,-3.5277776,143.56783,143.9715)"
       clip-path="url(#clipPath1996)" />
  </g>
</svg>
