<?xml version="1.0" encoding="UTF-8"?>
<svg xmlns="http://www.w3.org/2000/svg" width="300" height="300" viewBox="0 0 402.48 402.48" xmlns:xlink="http://www.w3.org/1999/xlink">
  <path style="fill:#00408d;" d="M201.168 0 C312.048 0 402.48 90.4317 402.48 201.24 C402.48 312.048 312.048 402.48 201.168 402.48 C90.4322 402.48 0 312.048 0 201.24 C0 90.4317 90.4322 0 201.168 0 Z" transform="translate(0, 0)"/>
  <path style="fill:#bcdbee;" d="M141.624 0 C219.744 0 283.392 63.6479 283.392 141.696 C283.392 219.744 219.744 283.392 141.624 283.392 C63.6479 283.392 0 219.744 0 141.696 C0 63.6479 63.6479 0 141.624 0 Z" transform="translate(59.544, 59.544)"/>
  <path style="fill:#ffffff;" d="M0 32.1118 L1.3682 23.688 L23.544 11.52 L3.8159 8.352 L5.1123 0 L37.3682 5.1118 L36.0723 13.4638 L13.896 25.7041 L33.624 28.7998 L32.2559 37.2241 L0 32.1118 Z" transform="translate(350.856, 209.448)"/>
  <path style="fill:#ffffff;" d="M19.44 36.2163 C14.9761 36.5762 11.0161 35.4961 7.416 32.8321 C3.312 29.8081 1.0078 25.416 0.5039 19.728 C0 14.0401 1.5122 9.2881 5.0401 5.6162 C8.064 2.376 11.8799 0.5762 16.272 0.2163 C18.2881 0 20.376 0.2163 22.6079 0.8643 C24.7681 1.4404 26.7119 2.376 28.2959 3.5283 C32.3999 6.5523 34.7041 10.9444 35.208 16.7041 C35.7119 22.3921 34.2002 27.0723 30.6719 30.8164 C27.5762 33.9844 23.8321 35.8565 19.44 36.2163 Z" transform="translate(352.872, 167.184)"/>
  <path style="fill:#00408d;" d="M10.1519 18.5756 C12.4561 18.3598 14.3277 17.4956 15.9116 15.8398 C17.856 13.8237 18.7197 11.3759 18.5039 8.5678 C18.2881 6.6235 17.6397 4.8955 16.416 3.3838 C15.1196 1.9438 13.6079 0.9355 11.7359 0.4316 C10.6558 0.1435 9.5757 0 8.5679 0.1435 C6.336 0.2876 4.4639 1.2236 2.8081 2.8076 C0.8638 4.8237 0 7.2719 0.2158 10.1518 C0.5039 13.0317 1.728 15.2636 4.0318 16.9199 C5.9038 18.2158 7.9199 18.792 10.1519 18.5756 Z" transform="translate(361.368, 176.04)"/>
  <path style="fill:#ffffff;" d="M2.52 17.712 L0 9.5757 L31.248 0 L33.6963 8.1358 L2.52 17.712 Z" transform="translate(348.336, 147.312)"/>
  <path style="fill:#ffffff;" d="M29.5201 23.4722 L26.856 16.9205 L3.168 26.4961 L0 18.6485 L23.688 9.0723 L21.0962 2.6641 L27.648 0 L36.0718 20.8081 L29.5201 23.4722 Z" transform="translate(342.288, 121.104)"/>
  <path style="fill:#ffffff;" d="M18.5761 35.8559 L13.6801 28.2959 L17.2802 23.3999 L10.872 13.6079 L4.8964 14.7597 L0 7.2719 L34.2724 0 L39.312 7.7758 L18.5761 35.8559 Z" transform="translate(321.696, 97.6319)"/>
  <path style="fill:#00408d;" d="M3.8877 8.6402 L10.728 0 L0 2.6641 L3.8877 8.6402 Z" transform="translate(339.264, 106.992)"/>
  <path style="fill:#ffffff;" d="M5.6158 28.1518 L0 21.8159 L24.2637 0 L29.9517 6.3359 L5.6158 28.1518 Z" transform="translate(313.992, 75.024)"/>
  <path style="fill:#ffffff;" d="M13.6079 34.1279 C10.8003 33.1201 8.4961 31.896 6.6963 30.312 C3.6001 27.5762 1.6562 24.1919 0.936 20.0879 C0 14.832 1.3682 10.1524 4.896 6.0479 C8.4243 1.9443 12.8882 0 18.2163 0.2163 C22.3921 0.3604 26.064 1.8003 29.2319 4.5361 C30.96 5.9761 32.4722 8.064 33.9121 10.8003 L27.2163 18.4321 C27.2881 17.208 27.144 16.1279 26.8559 15.1919 C26.2803 13.4639 25.3442 12.0962 24.0478 10.9443 C22.3921 9.5039 20.52 8.7119 18.4321 8.6402 C15.7681 8.5684 13.4639 9.648 11.52 11.8799 C9.6479 14.0401 8.9282 16.416 9.3603 19.0801 C9.7202 21.168 10.728 22.896 12.3843 24.336 C13.6802 25.4883 15.2642 26.208 16.9922 26.4961 C17.9282 26.7119 19.0083 26.6402 20.3042 26.4238 L13.6079 34.1279 Z" transform="translate(298.44, 58.6797)"/>
  <path style="fill:#ffffff;" d="M34.3437 27.3598 C32.1841 31.248 29.0161 33.9121 24.8398 35.4238 C20.0161 37.1518 15.1201 36.5761 10.0801 33.768 C5.1118 31.0317 2.0161 27.144 0.936 22.1758 C0 17.8559 0.5757 13.6797 2.7358 9.792 C3.7437 8.0639 5.1118 6.4082 6.7681 4.9678 C8.5679 3.456 10.3677 2.376 12.2397 1.728 C17.064 0 21.96 0.5761 27 3.312 C32.04 6.1201 35.064 10.0078 36.144 14.9761 C37.1519 19.2959 36.5039 23.4717 34.3437 27.3598 Z" transform="translate(263.952, 33.0479)"/>
  <path style="fill:#00408d;" d="M17.5683 13.8242 C18.7202 11.8081 19.0083 9.7202 18.5039 7.5601 C17.9282 4.752 16.416 2.7363 13.896 1.3682 C12.2402 0.4321 10.3681 0 8.4961 0.2163 C6.5522 0.4321 4.896 1.1523 3.3843 2.376 C2.5923 3.0962 1.872 3.96 1.3681 4.896 C0.2881 6.8398 0 8.856 0.4321 11.0879 C1.0083 13.896 2.52 15.9844 5.04 17.352 C7.56 18.7202 10.1523 18.936 12.7441 18 C14.9043 17.208 16.4883 15.8398 17.5683 13.8242 Z" transform="translate(273.024, 42.2637)"/>
  <path style="fill:#ffffff;" d="M25.3438 25.9199 C23.832 31.2481 20.52 34.0562 15.4082 34.272 C13.6079 34.416 11.8081 34.2002 9.936 33.624 C5.9761 32.544 2.6641 30.312 0 26.9278 L5.3999 21.3838 C7.2002 24.2642 9.2881 26.064 11.6641 26.7842 C12.6719 27.0723 13.6802 27.0723 14.5439 26.7842 C15.5518 26.4961 16.2002 25.8482 16.4878 24.8399 C16.7759 23.9038 16.4878 22.9678 15.7681 22.104 C15.1919 21.4561 14.1118 20.6641 12.6001 19.6563 C10.728 18.5039 9.5762 17.7119 9.144 17.3521 C8.4238 16.7759 7.7759 16.128 7.3438 15.48 C6.0479 13.6079 5.832 11.3042 6.624 8.4961 C7.4878 5.6162 9 3.4561 11.3042 2.0161 C13.9678 0.3599 16.9922 0 20.376 0.9361 C23.7598 1.9439 26.856 3.7442 29.5918 6.336 L24.5518 11.8081 C23.1118 9.8643 21.5278 8.6402 19.728 8.1358 C18.8638 7.9199 18 7.9199 17.208 8.1358 C16.272 8.4239 15.6958 9 15.4082 9.8643 C15.1919 10.6563 15.48 11.52 16.3438 12.4561 C16.7759 12.8159 18 13.6802 20.0879 15.0479 C22.752 16.7041 24.48 18.5039 25.272 20.376 C25.9199 22.0322 25.9922 23.8321 25.3438 25.9199 Z" transform="translate(233.352, 20.5918)"/>
  <path style="fill:#ffffff;" d="M24.9121 24.336 C24.2642 29.8081 21.3843 33.1197 16.3443 34.1997 C14.6162 34.5601 12.7442 34.6319 10.8721 34.3438 C6.7681 33.9116 3.168 32.1841 0 29.3037 L4.4639 22.9678 C6.6963 25.5601 9.0723 27 11.4483 27.2881 C12.6001 27.4322 13.5361 27.2881 14.3281 26.856 C15.336 26.4239 15.8399 25.7036 15.9839 24.6241 C16.1279 23.688 15.6963 22.8238 14.832 22.104 C14.1123 21.5279 12.96 20.8799 11.3042 20.1597 C9.2881 19.2959 7.9922 18.7198 7.4883 18.4322 C6.6963 17.9278 6.0479 17.4239 5.4722 16.8482 C3.96 15.1919 3.312 12.96 3.6719 10.0801 C4.0322 7.0562 5.2559 4.6797 7.272 2.9517 C9.648 0.8638 12.6001 0 16.0562 0.4322 C19.584 0.8638 22.896 2.1597 26.064 4.3199 L21.8882 10.5117 C20.1602 8.856 18.4321 7.92 16.5601 7.6319 C15.624 7.5601 14.832 7.7036 14.0401 8.064 C13.1763 8.4961 12.6719 9.1441 12.6001 10.0078 C12.4561 10.8721 12.8882 11.6641 13.896 12.3838 C14.3281 12.7437 15.6963 13.3921 18 14.3999 C20.8799 15.6241 22.8242 17.1358 23.9043 18.9361 C24.8399 20.376 25.2002 22.1758 24.9121 24.336 Z" transform="translate(206.064, 14.3999)"/>
  <path style="fill:#ffffff;" d="M33.9839 31.7519 L24.9122 32.3281 L22.3921 26.8559 L10.7998 27.6479 L8.9278 33.4799 L0 34.1284 L10.2242 0.6479 L19.44 0 L33.9839 31.7519 Z" transform="translate(170.496, 15.1197)"/>
  <path style="fill:#00408d;" d="M6.9839 10.1519 L2.8081 0 L0 10.6558 L6.9839 10.1519 Z" transform="translate(183.168, 25.4878)"/>
  <path style="fill:#ffffff;" d="M30.312 25.7041 L13.2481 33.336 L0 3.4561 L7.7037 0 L18.1441 23.3999 L27.4317 19.2241 L30.312 25.7041 Z" transform="translate(115.992, 31.6797)"/>
  <path style="fill:#ffffff;" d="M33.1919 22.3203 L17.3521 32.1841 L0 4.5361 L7.2002 0 L20.8081 21.6718 L29.4483 16.2719 L33.1919 22.3203 Z" transform="translate(93.168, 44.1358)"/>
  <path style="fill:#ffffff;" d="M38.0161 15.48 L31.392 21.6719 L25.9199 18.9356 L17.352 26.9278 L19.5839 32.6158 L13.0317 38.7359 L0 6.2637 L6.768 0 L38.0161 15.48 Z" transform="translate(69.9122, 62.208)"/>
  <path style="fill:#00408d;" d="M9.6479 5.1836 L0 0 L4.4638 10.0078 L9.6479 5.1836 Z" transform="translate(80.1363, 72.792)"/>
  <path style="fill:#ffffff;" d="M33.5522 9.5762 C35.4961 11.0161 36.7202 12.7441 37.1518 14.7603 C37.728 17.7124 36.8638 20.8081 34.416 24.1201 L26.4238 35.1362 L0 15.9844 L7.416 5.7603 C11.0161 0.792 15.1201 0 19.728 3.312 C21.0962 4.3203 22.104 5.4004 22.6079 6.624 C23.04 7.6323 23.2558 8.8564 23.1118 10.1523 C25.0561 8.3521 26.9282 7.5601 28.7998 7.7041 C30.456 7.8481 32.04 8.4961 33.5522 9.5762 Z" transform="translate(41.8321, 87.7676)"/>
  <path style="fill:#00408d;" d="M7.4883 1.1523 C5.9761 0 4.4643 0.144 3.0244 1.5122 C2.5923 1.9443 1.9443 2.8081 1.0801 4.0322 L0 5.4721 L5.6162 9.5044 L6.6963 7.9922 C7.9922 6.1919 8.6401 4.8242 8.7842 3.8159 C8.8564 2.7363 8.4243 1.8003 7.4883 1.1523 Z" transform="translate(62.4239, 102.744)"/>
  <path style="fill:#00408d;" d="M5.832 0.8643 C4.6079 0 3.3838 0 2.2319 0.792 C1.7998 1.0801 1.3677 1.5122 0.936 2.1602 L0 3.4561 L5.1841 7.2002 L6.1201 5.9761 C6.9839 4.752 7.272 3.6719 7.0557 2.7359 C6.9121 2.0161 6.48 1.3682 5.832 0.8643 Z" transform="translate(52.0562, 97.1997)"/>
  <path style="fill:#ffffff;" d="M15.9121 3.0245 L12.9599 9.3604 L36.144 20.1602 L32.5439 27.8643 L9.3603 17.0645 L6.4799 23.3282 L0 20.3765 L9.5039 0 L15.9121 3.0245 Z" transform="translate(27.504, 111.312)"/>
  <path style="fill:#ffffff;" d="M22.3203 1.0078 C26.6401 2.0161 30.0962 4.3199 32.688 7.9922 C35.6401 12.0962 36.5039 16.9922 35.208 22.5362 C33.9121 28.1519 31.0322 32.1118 26.5679 34.5601 C22.6079 36.648 18.5039 37.2241 14.1841 36.2158 C12.2402 35.7842 10.2959 34.9199 8.3521 33.6958 C6.48 32.3999 4.9683 30.96 3.7441 29.3042 C0.792 25.2002 0 20.3042 1.2959 14.7598 C2.5923 9.1441 5.4722 5.1118 9.936 2.7359 C13.8242 0.5762 18 0 22.3203 1.0078 Z" transform="translate(17.856, 141.696)"/>
  <path style="fill:#00408d;" d="M11.4482 0.5762 C9.2163 0 7.1279 0.2881 5.184 1.3682 C2.664 2.7363 1.08 4.752 0.4321 7.4883 C0 9.4321 0.144 11.2324 0.8642 13.0322 C1.5839 14.832 2.7363 16.2725 4.3921 17.2803 C5.2563 17.9282 6.2641 18.3604 7.3442 18.5762 C9.4321 19.0801 11.52 18.792 13.5361 17.7842 C16.0561 16.4883 17.6401 14.4004 18.288 11.6641 C18.936 8.8564 18.4321 6.2642 16.7763 4.0322 C15.4082 2.2324 13.6801 1.0801 11.4482 0.5762 Z" transform="translate(26.712, 150.768)"/>
  <path style="fill:#ffffff;" d="M17.208 0.0722 C21.6001 0 25.56 1.3681 28.9438 4.248 C32.832 7.56 34.7759 12.0961 34.9199 17.8559 C34.9917 23.5439 33.1919 28.1518 29.4477 31.6079 C26.1357 34.56 22.248 36.144 17.8559 36.2163 C15.768 36.2163 13.6797 35.8559 11.5918 35.1362 C9.4321 34.3442 7.56 33.3359 6.0478 32.04 C2.1597 28.728 0.2158 24.1919 0.0718 18.4321 C0 12.6718 1.7998 8.1362 5.5439 4.6801 C8.8559 1.6562 12.7441 0.144 17.208 0.0722 Z" transform="translate(13.5362, 184.824)"/>
  <path style="fill:#00408d;" d="M9.0722 0 C6.768 0.0723 4.8242 0.792 3.1679 2.3042 C1.0083 4.2481 0 6.624 0.0722 9.4321 C0.0722 11.376 0.6479 13.1763 1.8003 14.688 C2.9521 16.272 4.3921 17.3521 6.1919 18 C7.2719 18.3604 8.352 18.5762 9.3603 18.5039 C11.5923 18.5039 13.5361 17.7119 15.2641 16.2002 C17.4243 14.3281 18.4321 12.0239 18.3603 9.1441 C18.3603 6.2642 17.208 3.8882 15.0483 2.0879 C13.3203 0.648 11.3042 0 9.0722 0 Z" transform="translate(21.816, 193.68)"/>
  <path style="fill:#ffffff;" d="M6.9121 1.9438 L9.2158 11.8799 L14.6162 10.6557 L12.5278 1.584 L19.4399 0 L21.5278 9 L34.1279 6.1201 L36 14.3999 L4.1758 21.7441 L0 3.5278 L6.9121 1.9438 Z" transform="translate(16.5601, 226.944)"/>
  <path style="fill:#ffffff;" d="M12.0957 0 C18.7197 0 24.1196 5.3999 24.1196 12.0239 C24.1196 18.7197 18.7197 24.1201 12.0957 24.1201 C5.3999 24.1201 0 18.7197 0 12.0239 C0 5.3999 5.3999 0 12.0957 0 Z" transform="translate(40.1763, 270.36)"/>
  <path style="fill:#ffffff;" d="M36.0718 23.4717 L22.6802 36.3599 L0 12.8877 L13.3921 0 L18.2881 5.0401 L11.0879 12.0958 L14.9038 16.0557 L21.7441 9.4317 L26.7119 14.544 L19.8721 21.168 L23.9038 25.3438 L31.1758 18.3599 L36.0718 23.4717 Z" transform="translate(305.352, 304.92)"/>
  <path style="fill:#ffffff;" d="M41.1123 21.2402 L32.6162 27.4321 L18.6479 22.0322 L26.064 32.184 L19.1523 37.2241 L0 10.8002 L10.6562 3.0244 C13.8242 0.7202 16.7759 0 19.6562 0.7919 C21.96 1.4399 23.832 2.7363 25.3442 4.8242 C27 7.1279 27.6479 9.5039 27.2881 11.8803 C27.0723 13.4643 26.2803 14.976 24.9839 16.416 L41.1123 21.2402 Z" transform="translate(280.44, 326.016)"/>
  <path style="fill:#00408d;" d="M7.7759 1.7998 C7.128 0.8638 6.1919 0.2876 5.0401 0.1436 C3.96 0 2.7359 0.5039 1.2959 1.5117 L0 2.4478 L4.752 9.0718 L6.0479 8.1358 C7.4878 7.0557 8.3521 5.9756 8.4961 4.9678 C8.712 3.8159 8.4961 2.7359 7.7759 1.7998 Z" transform="translate(291.096, 334.584)"/>
  <path style="fill:#ffffff;" d="M34.7759 11.5196 C36.4322 15.6958 36.5762 19.7998 35.064 24.0479 C33.4082 28.7998 29.8799 32.3277 24.5523 34.4878 C19.2241 36.5757 14.3281 36.5757 9.792 34.272 C5.7603 32.2559 2.9522 29.232 1.2959 25.128 C0.5039 23.1836 0.1441 21.168 0.0723 18.8638 C0 16.5596 0.2881 14.4717 1.0078 12.5996 C2.6641 7.7759 6.1919 4.3199 11.52 2.1597 C16.8482 0 21.7442 0.0718 26.2803 2.376 C30.312 4.3916 33.1201 7.416 34.7759 11.5196 Z" transform="translate(250.272, 342)"/>
  <path style="fill:#00408d;" d="M17.856 6.0484 C16.9917 3.96 15.5518 2.376 13.5361 1.3682 C11.0161 0.0723 8.4238 0 5.832 1.0083 C4.0317 1.8003 2.5918 2.9522 1.5117 4.5362 C0.4316 6.1201 0 7.9199 0 9.8643 C0.0718 10.9439 0.2881 12.0239 0.648 13.0322 C1.5117 15.0484 2.9522 16.6323 4.9678 17.6402 C7.416 19.0083 10.0078 19.0801 12.6719 18 C15.3359 16.9199 17.1357 15.0484 18 12.3843 C18.7197 10.2959 18.7197 8.1362 17.856 6.0484 Z" transform="translate(259.056, 350.784)"/>
  <path style="fill:#ffffff;" d="M26.4961 9.0717 C27.0723 12.0239 26.856 14.5439 25.8482 16.7041 C24.5523 19.5117 21.8159 21.312 17.7119 22.104 L12.5279 23.1118 L14.6162 33.6958 L6.2642 35.352 L0 3.312 L13.3198 0.7197 C17.064 0 20.1602 0.5039 22.5362 2.3759 C24.624 3.8881 25.9199 6.1919 26.4961 9.0717 Z" transform="translate(219.168, 353.736)"/>
  <path style="fill:#00408d;" d="M8.208 3.312 C7.9199 2.1597 7.416 1.2237 6.5522 0.648 C5.7602 0.0718 4.4638 0 2.8081 0.2881 L0 0.8638 L1.584 8.7837 L4.3203 8.2798 C6.1201 7.9199 7.3442 7.272 7.8481 6.336 C8.2802 5.544 8.4243 4.5362 8.208 3.312 Z" transform="translate(228.816, 361.296)"/>
  <path style="fill:#ffffff;" d="M33.9838 33.4082 L24.9838 33.0478 L23.04 27.2881 L11.3037 26.8559 L8.8559 32.4722 L0 32.1841 L13.6079 0 L22.8237 0.2881 L33.9838 33.4082 Z" transform="translate(182.808, 357.552)"/>
  <path style="fill:#00408d;" d="M7.0561 10.5117 L3.9599 0 L0 10.2959 L7.0561 10.5117 Z" transform="translate(196.704, 367.776)"/>
  <path style="fill:#ffffff;" d="M34.7041 20.52 C33.8398 23.9038 32.7597 26.6401 31.4638 28.584 C29.4477 31.6079 26.8559 33.6958 23.688 34.7759 C20.664 35.856 17.352 35.9282 13.7519 34.9922 C7.9917 33.5522 3.9599 30.4561 1.872 25.7041 C0.2881 22.104 0 18.2881 1.0078 14.1118 C2.1601 9.5039 4.5361 5.9761 8.0639 3.5278 C12.0957 0.7202 16.8481 0 22.4638 1.3682 C26.208 2.3042 29.1601 4.104 31.248 6.624 C32.832 8.4961 33.9121 10.8721 34.56 13.896 L25.9199 15.1201 C25.6318 13.5361 25.1279 12.168 24.4077 11.2319 C23.3999 9.8638 22.0317 8.9282 20.3037 8.4961 C16.7041 7.6318 13.7519 8.856 11.4477 12.2397 C10.5117 13.4639 9.936 14.7603 9.5761 16.2002 C8.7842 19.2241 9.144 21.96 10.584 24.48 C11.5918 26.3521 13.248 27.5762 15.624 28.1519 C17.7119 28.6558 19.5117 28.4399 21.0957 27.5762 C22.104 26.9282 22.896 25.9199 23.5439 24.4082 L16.7758 22.6802 L18.3598 16.416 L34.7041 20.52 Z" transform="translate(145.224, 351.072)"/>
  <path style="fill:#ffffff;" d="M29.0161 43.9199 L21.456 40.104 L16.6318 15.1923 L7.56 32.976 L0 29.1601 L14.7602 0 L22.392 3.8881 L27.2158 28.8003 L36.288 10.9443 L43.8481 14.832 L29.0161 43.9199 Z" transform="translate(103.104, 334.224)"/>
  <path style="fill:#ffffff;" d="M6.8399 31.3921 L0 26.4238 L19.2237 0 L26.064 4.9678 L6.8399 31.3921 Z" transform="translate(86.4722, 325.152)"/>
  <path style="fill:#ffffff;" d="M22.896 27.9361 C19.0801 31.896 14.8321 32.832 10.1519 30.6719 C8.5679 29.8799 7.0562 28.8721 5.6163 27.5039 C2.6641 24.6958 0.792 21.168 0 16.9199 L7.4161 14.544 C7.6319 18 8.6402 20.52 10.3682 22.2481 C11.1602 22.9678 12.024 23.4722 12.96 23.6162 C13.9683 23.832 14.9039 23.544 15.6241 22.8242 C16.272 22.104 16.4883 21.168 16.2002 20.0161 C15.9839 19.2241 15.48 18 14.544 16.416 C13.4639 14.4722 12.816 13.2481 12.6001 12.7442 C12.2403 11.8799 11.9522 11.0161 11.8799 10.2959 C11.6641 8.064 12.5279 5.832 14.544 3.7442 C16.6319 1.584 19.0079 0.4321 21.7442 0.2158 C24.8399 0 27.7203 1.0801 30.2403 3.5278 C32.7603 5.9761 34.6319 9.0718 35.856 12.6719 L28.8003 15.0479 C28.44 12.7442 27.648 10.9439 26.2803 9.5762 C25.6319 9 24.8399 8.5679 24.0479 8.4238 C23.0401 8.208 22.3199 8.4238 21.6719 9.0718 C21.0962 9.7202 20.9522 10.584 21.3121 11.8081 C21.4561 12.312 22.1041 13.6802 23.3282 15.8399 C24.9122 18.5762 25.5601 20.9522 25.4161 22.9678 C25.2002 24.7681 24.4083 26.4238 22.896 27.9361 Z" transform="translate(63, 309.384)"/>
  <path style="fill:#ffffff;" d="M12.024 0 C5.3999 0 0 5.3999 0 12.0239 C0 18.7197 5.3999 24.1201 12.024 24.1201 C18.648 24.1201 24.0479 18.7197 24.0479 12.0239 C24.0479 5.3999 18.648 0 12.024 0 Z" transform="translate(338.184, 270.36)"/>
  <path style="fill:#00408d;" d="M14.6158 18.4321 L10.2237 18.4321 L10.2237 16.9921 C9.792 17.5678 9.3599 17.9277 8.9278 18.2158 C8.208 18.5761 7.3438 18.7919 6.336 18.7919 C4.8238 18.7919 3.3838 18.288 2.232 17.208 C0.792 15.9121 0 14.2558 0 12.1679 C0 10.0078 0.792 8.2797 2.232 7.0561 C3.4561 5.976 4.752 5.4721 6.336 5.4721 C7.1997 5.4721 8.064 5.6879 8.7837 6.0478 C9.2876 6.2641 9.7198 6.624 10.2237 7.1279 L10.2237 0 L14.6158 0 L14.6158 18.4321 Z" transform="translate(205.992, 247.32)"/>
  <path style="fill:#bcdbee;" d="M5.7598 2.8799 C5.7598 2.0879 5.4722 1.44 4.896 0.8638 C4.3199 0.2881 3.6719 0 2.8799 0 C2.0162 0 1.2959 0.3599 0.7198 1.0078 C0.2881 1.584 0 2.1597 0 2.8799 C0 3.6001 0.2881 4.1758 0.7198 4.752 C1.2959 5.3999 2.0162 5.688 2.8799 5.688 C3.6719 5.688 4.3199 5.4717 4.896 4.896 C5.4722 4.3199 5.7598 3.6719 5.7598 2.8799 Z" transform="translate(210.6, 256.608)"/>
  <path style="fill:#00408d;" d="M13.7519 7.416 L4.4638 7.416 C4.4638 9.2881 5.3999 10.2241 7.1997 10.2241 C8.1357 10.2241 8.8559 9.8638 9.3598 9.0718 L13.6079 9.0718 C13.248 10.2241 12.7441 11.0879 12.0957 11.6641 C10.872 12.8159 9.2881 13.3921 7.2719 13.3921 C4.6797 13.3921 2.7358 12.6001 1.4399 11.0161 C0.5039 9.8638 0 8.4238 0 6.7681 C0 4.7519 0.6479 3.168 1.7998 1.8721 C3.0239 0.6479 4.7519 0 6.9839 0 C9.6479 0 11.5918 1.0078 12.8159 2.9521 C13.4638 4.104 13.7519 5.3999 13.7519 6.8398 L13.7519 7.416 Z" transform="translate(190.224, 252.864)"/>
  <path style="fill:#bcdbee;" d="M5.04 2.0879 C4.7519 0.7197 3.8882 0 2.52 0 C1.7998 0 1.1518 0.2158 0.7202 0.648 C0.3598 1.0078 0.0718 1.5117 0 2.0879 L5.04 2.0879 Z" transform="translate(194.832, 255.672)"/>
  <path style="fill:#00408d;" d="M14.6157 18.4321 L10.2241 18.4321 L10.2241 16.9921 C9.792 17.5678 9.3599 17.9277 8.9277 18.2158 C8.1357 18.5761 7.272 18.7919 6.3359 18.7919 C4.8237 18.7919 3.3838 18.288 2.2319 17.208 C0.7197 15.9121 0 14.2558 0 12.1679 C0 10.0078 0.792 8.2797 2.2319 7.0561 C3.4561 5.976 4.752 5.4721 6.3359 5.4721 C7.1997 5.4721 8.064 5.6879 8.7837 6.0478 C9.2881 6.2641 9.7197 6.624 10.2241 7.1279 L10.2241 0 L14.6157 0 L14.6157 18.4321 Z" transform="translate(173.16, 247.32)"/>
  <path style="fill:#bcdbee;" d="M5.7598 2.8799 C5.7598 2.0879 5.4722 1.44 4.896 0.8638 C4.3198 0.2881 3.6719 0 2.8799 0 C2.0161 0 1.2959 0.3599 0.7197 1.0078 C0.2158 1.584 0 2.1597 0 2.8799 C0 3.6001 0.2158 4.1758 0.7197 4.752 C1.2959 5.3999 2.0161 5.688 2.8799 5.688 C3.6719 5.688 4.3198 5.4717 4.896 4.896 C5.4722 4.3199 5.7598 3.6719 5.7598 2.8799 Z" transform="translate(177.768, 256.608)"/>
  <path style="fill:#00408d;" d="M13.1763 12.8164 L8.7842 12.8164 L8.7842 6.4804 C8.7842 5.4004 8.6402 4.6084 8.4243 4.248 C8.064 3.7441 7.4883 3.456 6.7681 3.456 C6.0484 3.456 5.5445 3.7441 5.0401 4.1762 C4.6802 4.6084 4.4644 5.2563 4.4644 6.1201 L4.4644 12.8164 L0 12.8164 L0 0.2881 L4.4644 0.2881 L4.4644 1.872 C4.9683 1.2964 5.4004 0.8642 5.832 0.6484 C6.5523 0.2163 7.416 0 8.4961 0 C9.792 0 10.9444 0.3603 11.7363 1.0801 C12.7442 1.9443 13.1763 3.1684 13.1763 4.8242 L13.1763 12.8164 Z" transform="translate(157.464, 252.936)"/>
  <path style="fill:#00408d;" d="M13.3198 7.9199 C13.3198 10.2959 12.2397 11.8081 10.08 12.6001 C9.144 12.8881 7.9917 13.0322 6.6958 13.0322 C4.104 13.0322 2.2319 12.3842 1.08 11.1601 C0.3598 10.2959 0 9.288 0 7.9199 L0 0 L4.4638 0 L4.4638 7.0561 C4.4638 7.8481 4.6079 8.4243 5.04 8.7841 C5.3999 9.2163 5.976 9.4321 6.6958 9.4321 C7.416 9.4321 7.9917 9.2163 8.352 8.7841 C8.7119 8.4243 8.9277 7.8481 8.9277 7.0561 L8.9277 0 L13.3198 0 L13.3198 7.9199 Z" transform="translate(141.12, 253.224)"/>
  <path style="fill:#00408d;" d="M15.0478 6.6958 C15.0478 8.4238 14.4717 9.9356 13.3916 11.1597 C11.9517 12.6719 10.0078 13.3916 7.5596 13.3916 C5.04 13.3916 3.0957 12.6719 1.728 11.1597 C0.5757 9.9356 0 8.3516 0 6.5518 C0 4.9678 0.5757 3.5279 1.728 2.232 C3.168 0.7197 5.1118 0 7.7036 0 C10.0796 0 11.9517 0.7197 13.3198 2.232 C14.4717 3.5279 15.0478 4.9678 15.0478 6.6958 Z" transform="translate(123.552, 252.792)"/>
  <path style="fill:#bcdbee;" d="M5.832 2.8799 C5.832 2.0879 5.6157 1.3677 5.04 0.792 C4.4639 0.2881 3.7437 0 2.9517 0 C2.0161 0 1.2959 0.2881 0.7197 1.0078 C0.2158 1.5118 0 2.1597 0 2.8799 C0 3.6001 0.2158 4.2481 0.7197 4.752 C1.2959 5.4717 2.0161 5.7598 2.9517 5.7598 C3.7437 5.7598 4.4639 5.4717 5.04 4.9678 C5.6157 4.3921 5.832 3.6719 5.832 2.8799 Z" transform="translate(128.16, 256.608)"/>
  <path style="fill:#00408d;" d="M10.5118 4.0317 L4.752 4.0317 L4.752 7.1279 L10.0079 7.1279 L10.0079 11.1601 L4.752 11.1601 L4.752 18.4321 L0 18.4321 L0 0 L10.5118 0 L10.5118 4.0317 Z" transform="translate(111.096, 247.32)"/>
  <path style="fill:#00408d;" d="M13.6797 14.6158 L11.8076 18.9361 L0 18.9361 L0 18.648 L6.4077 10.2959 C7.3437 9.0718 7.7758 7.9917 7.7758 6.9117 C7.7758 5.9761 7.416 5.1841 6.6958 4.608 C5.9756 4.104 5.04 3.816 3.8877 3.816 C3.1679 3.816 2.3037 4.0318 1.2959 4.3921 L1.2959 0.4317 C2.52 0.1441 3.7436 0 5.04 0 C7.1997 0 8.9277 0.504 10.2959 1.6558 C11.5918 2.8081 12.312 4.1758 12.312 5.9761 C12.312 7.5601 11.7358 9.1441 10.728 10.6558 L7.9917 14.6158 L13.6797 14.6158 Z" transform="translate(279.72, 246.816)"/>
  <path style="fill:#00408d;" d="M13.3921 6.9839 C13.3921 8.208 13.1763 9.3599 12.6001 10.4399 C12.168 11.4477 11.3042 12.5996 10.0801 14.1118 L6.2642 18.8638 L1.1524 18.8638 L5.9043 13.0317 C4.2481 12.8159 2.8804 12.2397 1.8721 11.376 C0.5762 10.2959 0 8.8559 0 7.0557 C0 4.896 0.648 3.168 1.9444 1.8721 C3.2403 0.6479 4.8243 0 6.7681 0 C8.6402 0 10.2242 0.6479 11.4483 1.8721 C12.7442 3.168 13.3921 4.896 13.3921 6.9839 Z" transform="translate(263.088, 246.96)"/>
  <path style="fill:#bcdbee;" d="M4.7519 2.376 C4.7519 1.7998 4.5356 1.2241 4.0317 0.7202 C3.5996 0.2881 3.0239 0 2.3759 0 C1.728 0 1.1518 0.2881 0.7197 0.7202 C0.2158 1.2241 0 1.7998 0 2.376 C0 3.0239 0.2158 3.6001 0.7197 4.104 C1.1518 4.5361 1.728 4.8242 2.3759 4.8242 C3.0239 4.8242 3.5996 4.5361 4.0317 4.104 C4.5356 3.6001 4.7519 3.0239 4.7519 2.376 Z" transform="translate(267.408, 251.28)"/>
  <path style="fill:#00408d;" d="M13.1757 13.104 C13.1757 14.9039 12.6001 16.4161 11.3042 17.5679 C10.0078 18.7198 8.4238 19.2959 6.5522 19.2959 C4.7519 19.2959 3.1679 18.7198 1.872 17.5679 C0.5761 16.3438 0 14.9039 0 13.104 C0 11.376 0.6479 9.9361 2.0161 8.7837 C1.0078 7.9917 0.5039 6.9117 0.5039 5.6158 C0.5039 3.96 1.1518 2.5918 2.3042 1.584 C3.456 0.504 4.896 0 6.5522 0 C8.2802 0 9.7202 0.504 10.872 1.584 C12.0239 2.5918 12.6001 3.96 12.6001 5.6158 C12.6001 7.0557 12.1679 8.1358 11.1601 8.7837 C12.5278 9.9361 13.1757 11.3038 13.1757 13.104 Z" transform="translate(246.312, 246.816)"/>
  <path style="fill:#bcdbee;" d="M4.6802 2.3042 C4.6802 1.7281 4.4639 1.1519 3.96 0.648 C3.5278 0.2164 2.9522 0 2.3042 0 C1.728 0 1.1519 0.2164 0.7197 0.648 C0.2158 1.1519 0 1.7281 0 2.3042 C0 2.9522 0.2158 3.5279 0.7197 3.96 C1.1519 4.3921 1.728 4.6802 2.3042 4.6802 C2.9522 4.6802 3.5278 4.3921 3.96 3.96 C4.4639 3.5279 4.6802 2.9522 4.6802 2.3042 Z" transform="translate(250.56, 257.616)"/>
  <path style="fill:#bcdbee;" d="M3.8882 1.9438 C3.8882 1.3681 3.7441 0.936 3.312 0.5761 C2.9521 0.2158 2.52 0 1.9443 0 C1.4399 0 1.0083 0.2158 0.5761 0.5761 C0.2163 0.936 0 1.3681 0 1.9438 C0 2.4477 0.2163 2.8798 0.5761 3.312 C1.0083 3.6718 1.4399 3.8877 1.9443 3.8877 C2.52 3.8877 2.9521 3.6718 3.312 3.312 C3.7441 2.8798 3.8882 2.4477 3.8882 1.9438 Z" transform="translate(250.92, 250.632)"/>
  <path style="fill:#00408d;" d="M7.1997 18.4321 L3.168 18.4321 L3.168 7.0561 L1.6557 7.9921 C1.0078 8.352 0.5039 8.5678 0 8.6401 L0 4.392 C1.8721 3.312 3.168 1.872 3.8877 0 L7.1997 0 L7.1997 18.4321 Z" transform="translate(233.64, 247.32)"/>
  <path style="fill:#00408d;" d="M39.8877 92.8081 L59.1118 54.6479 C59.1118 54.6479 59.1118 55.0083 59.1118 81.8642 L100.512 81.8642 C100.512 79.6323 100.512 71.7841 100.512 43.9199 L98.7119 43.9199 C98.7119 43.9199 98.7119 43.9199 98.7119 0 C98.7119 0 98.7119 0 49.1757 0 C49.1757 0 49.1757 0 0 92.8081 L39.8877 92.8081 Z" transform="translate(137.016, 145.224)"/>
  <path style="fill:#bcdbee;" d="M9.792 0 C9.792 0 9.792 0 9.792 16.1997 C9.792 16.1997 2.8081 16.8481 0 16.9199 C2.4477 12.5278 9.792 0 9.792 0 Z" transform="translate(196.848, 180.36)"/>
  <path style="fill:#00408d;" d="M75.3842 32.7602 L76.8242 27.4321 C76.8242 27.4321 61.7041 18.936 58.5361 12.168 C58.5361 12.168 57.0962 9.8642 56.0879 4.896 C55.5122 2.1601 50.5439 0 47.2319 2.3042 C47.2319 2.3042 46.5122 2.5918 45 3.456 C43.56 4.3921 45.5761 0.6479 40.7519 0.6479 C38.2319 0.6479 27.7202 0.4321 21.6718 7.0561 C12.6001 16.7759 13.248 20.5918 0 21.168 C0 22.8242 0 31.9678 0 43.56 C6.624 41.688 15.3359 30.6719 18.3598 26.208 L18.3598 26.1362 L18.4321 26.1362 C31.9682 8.8559 37.1518 10.584 38.4482 11.52 C39.0239 11.9521 39.1679 12.7441 38.7358 13.3921 C38.3042 14.04 37.4399 14.1841 36.792 13.8242 L36.936 13.896 C36.8637 13.896 32.7602 12.456 20.664 27.792 C19.9438 28.9438 9.144 44.4961 0 46.5122 C0 54 0 62.352 0 70.272 C9 70.0561 16.3442 66.0239 21.8159 58.248 C26.1362 52.1279 27.6479 45.936 27.6479 45.936 L27.6479 45.8642 L27.7202 45.792 C31.3921 33.8398 35.4961 26.9282 39.9599 25.3442 C42.3359 24.48 43.8481 25.4883 43.9922 25.56 C44.6401 25.9922 44.8559 26.8559 44.4238 27.5039 C43.9922 28.1518 43.1279 28.2959 42.4799 27.936 L42.5522 27.936 C42.4799 27.936 41.9038 27.6479 40.7519 28.0801 C38.8081 28.8721 34.7758 32.3999 30.3842 46.584 C30.2402 47.2319 28.6562 53.4961 24.1919 59.7602 C18.2158 68.2558 9.8637 72.8642 0 73.0801 C0 89.5679 0 103.536 0 103.536 C23.04 103.536 37.5122 85.3921 40.1762 71.4961 C42.8398 57.6001 53.0639 52.7759 62.7119 61.3442 C65.3759 63.4321 72.144 62.4238 72.144 62.4238 C73.4399 61.0561 73.2241 58.3921 71.4238 58.3921 C68.4721 58.3921 67.6801 57.6719 67.6801 57.6719 C60.4082 51.2641 65.8081 51.3359 77.5439 51.8398 C80.208 47.9521 81.2881 45.6479 81.2881 45.6479 C82.728 43.2002 86.3281 37.8721 86.3281 37.8721 C86.3281 34.9922 81.5039 35.6401 75.3842 32.7602 Z" transform="translate(241.416, 123.552)"/>
  <path style="fill:#00408d;" d="M40.104 86.3282 C41.1123 84.3121 42.624 81.5044 44.7842 77.4004 C44.7842 77.4004 44.7842 77.4004 60.1924 77.4004 C60.1924 77.4004 60.1924 77.4004 74.4483 50.688 L58.752 50.3282 L66.2403 36.3604 C66.2403 36.3604 66.8159 36.3604 82.6563 36.3604 C82.6563 36.3604 82.6563 36.3604 101.592 0 C101.592 0 101.592 0 43.7764 0 C43.7764 0 43.7764 0 0 86.3282 L40.104 86.3282 Z" transform="translate(75.6719, 151.704)"/>
</svg>
