<?xml version="1.0"?>
<svg xmlns="http://www.w3.org/2000/svg" width="278" height="359" viewBox="0 0 278 359" enable-background="new 0 0 278 359">
<path display="none" fill-rule="evenodd" clip-rule="evenodd" fill="#FFFFFF" d="M134.331,358.619c-44.712,0-89.425,0-134.137,0
				c0-80.387,0-160.773,0-241.16c0.098,0.013,0.193,0.025,0.29,0.038c0.086,2.72,0.165,5.438,0.261,8.158
				c0.061,1.702,0.145,3.404,0.219,5.106c0.003,0.061,0.007,0.12,0.012,0.18c0.097,1.4,0.2,2.8,0.291,4.2
				c0.084,1.313,0.148,2.626,0.232,3.938c0.053,0.834,0.116,1.668,0.189,2.501c0.154,1.755,0.322,3.508,0.479,5.263
				c0.081,0.923,0.146,1.847,0.227,2.769c0.058,0.654,0.125,1.308,0.197,1.96c0.154,1.395,0.318,2.787,0.472,4.182
				c0.141,1.275,0.257,2.555,0.414,3.828c0.203,1.658,0.438,3.313,0.655,4.968c0.262,1.982,0.493,3.97,0.787,5.947
				c0.368,2.479,0.778,4.95,1.186,7.423c0.437,2.65,0.86,5.301,1.344,7.943c0.478,2.609,1.024,5.209,1.535,7.813
				c0.889,4.539,1.903,9.051,3.004,13.543c0.873,3.563,1.807,7.113,2.74,10.664c1.275,4.85,2.713,9.652,4.236,14.43
				c1.469,4.609,3.022,9.189,4.691,13.732c1.834,4.99,3.789,9.932,5.869,14.826c2.057,4.842,4.26,9.617,6.586,14.336
				c1.89,3.834,3.896,7.609,5.983,11.34c2.19,3.916,4.485,7.768,6.913,11.539c4,6.213,8.293,12.217,12.979,17.938
				c2.94,3.588,6.025,7.043,9.243,10.383c2.533,2.629,5.208,5.111,7.954,7.516c2.183,1.914,4.427,3.75,6.739,5.502
				c3.84,2.914,7.854,5.559,12.045,7.941c3.515,1.996,7.141,3.76,10.884,5.279c4.461,1.809,9.042,3.246,13.758,4.242
				c3.715,0.785,7.453,1.377,11.249,1.57C134.028,358.465,134.226,358.416,134.331,358.619z"/>
			<path display="none" fill-rule="evenodd" clip-rule="evenodd" fill="#FFFFFF" d="M277.806,112.97c0,81.884,0,163.765,0,245.649
				c-44.713,0-89.425,0-134.137,0c0.1-0.053,0.196-0.139,0.301-0.148c0.832-0.074,1.67-0.109,2.499-0.201
				c1.662-0.184,3.33-0.328,4.978-0.605c2.646-0.447,5.271-1.004,7.87-1.701c5.005-1.346,9.843-3.129,14.522-5.346
				c5.201-2.463,10.142-5.369,14.857-8.666c5.034-3.523,9.755-7.428,14.198-11.66c2.229-2.125,4.35-4.365,6.486-6.584
				c2.532-2.631,4.874-5.43,7.183-8.256c3.463-4.242,6.689-8.658,9.761-13.189c2.701-3.984,5.238-8.074,7.674-12.227
				c2.511-4.285,4.853-8.66,7.106-13.08c1.208-2.369,2.329-4.783,3.471-7.186c2.143-4.508,4.112-9.094,5.995-13.715
				c2.244-5.506,4.305-11.078,6.23-16.703c1.733-5.055,3.362-10.146,4.823-15.287c1.118-3.932,2.203-7.873,3.231-11.83
				c1.293-4.967,2.464-9.963,3.498-14.99c0.643-3.127,1.292-6.252,1.895-9.387c0.473-2.461,0.885-4.932,1.307-7.402
				c0.412-2.411,0.825-4.822,1.195-7.24c0.347-2.271,0.639-4.551,0.951-6.827c0.282-2.069,0.577-4.137,0.835-6.209
				c0.261-2.104,0.491-4.21,0.721-6.316c0.189-1.751,0.368-3.503,0.531-5.257c0.19-2.052,0.368-4.104,0.538-6.158
				c0.131-1.577,0.249-3.155,0.357-4.734c0.129-1.879,0.252-3.756,0.357-5.636c0.129-2.327,0.251-4.655,0.351-6.983
				c0.089-2.092,0.164-4.184,0.207-6.276c0.04-1.944,0.032-3.89,0.046-5.835C277.698,112.974,277.752,112.97,277.806,112.97z"/>
			<path display="none" fill-rule="evenodd" clip-rule="evenodd" fill="#FFFFFF" d="M0.194,99.502c0-33.04,0-66.08,0-99.121
				c44.354,0,88.707,0,133.061,0c-0.175,0.25-0.438,0.138-0.661,0.147c-2.061,0.089-4.122,0.166-6.183,0.247
				c-0.12,0.004-0.239,0.009-0.358,0.019c-1.874,0.159-3.749,0.314-5.622,0.479c-1.486,0.131-2.978,0.242-4.458,0.421
				c-2.014,0.244-4.024,0.521-6.029,0.828c-2.742,0.418-5.49,0.813-8.213,1.335c-3.104,0.595-6.196,1.269-9.273,1.995
				c-3.63,0.856-7.223,1.864-10.783,2.978c-9.06,2.831-17.839,6.342-26.232,10.791c-3.092,1.638-6.122,3.381-9.077,5.257
				c-5.922,3.758-11.483,7.987-16.627,12.757c-3.185,2.952-6.167,6.102-8.923,9.459c-3.211,3.911-6.109,8.041-8.634,12.435
				c-2.702,4.703-4.972,9.603-6.76,14.723c-1.488,4.261-2.681,8.603-3.457,13.052c-0.256,1.469-0.497,2.94-0.712,4.416
				c-0.19,1.298-0.363,2.601-0.49,3.906c-0.124,1.278-0.18,2.563-0.266,3.845C0.396,99.48,0.295,99.491,0.194,99.502z"/>
			<path display="none" fill-rule="evenodd" clip-rule="evenodd" fill="#FFFFFF" d="M144.746,0.381c44.336,0,88.672,0,133.06,0
				c0,33.759,0,67.518,0,101.276c-0.056,0.003-0.11,0-0.164-0.011c0.015-2.634-0.227-5.25-0.531-7.863
				c-0.276-2.373-0.645-4.729-1.085-7.075c-0.689-3.672-1.642-7.278-2.804-10.825c-2.02-6.156-4.698-12.016-8.029-17.575
				c-3.223-5.38-6.96-10.379-11.211-14.984c-4.044-4.382-8.418-8.415-13.143-12.06c-5.743-4.431-11.847-8.3-18.26-11.682
				c-2.776-1.464-5.602-2.83-8.47-4.106c-4.725-2.104-9.542-3.965-14.449-5.597c-5.328-1.771-10.729-3.275-16.205-4.524
				c-3.142-0.717-6.296-1.361-9.469-1.921c-2.821-0.498-5.648-0.954-8.495-1.284c-2.342-0.271-4.678-0.592-7.021-0.829
				c-2.198-0.221-4.403-0.393-6.608-0.526c-2.06-0.125-4.123-0.174-6.183-0.255c-0.24-0.01-0.481-0.003-0.719-0.025
				C144.886,0.507,144.817,0.428,144.746,0.381z"/>
			<path fill-rule="evenodd" clip-rule="evenodd" fill="#A49264" d="M144.746,0.381c0.071,0.047,0.14,0.126,0.214,0.133
				c0.237,0.022,0.479,0.016,0.719,0.025c2.06,0.081,4.123,0.13,6.183,0.255c2.205,0.134,4.41,0.306,6.608,0.526
				c2.344,0.237,4.68,0.559,7.021,0.829c2.847,0.33,5.674,0.786,8.495,1.284c3.173,0.56,6.327,1.204,9.469,1.921
				c5.476,1.249,10.877,2.754,16.205,4.524c4.907,1.632,9.725,3.492,14.449,5.597c2.868,1.276,5.693,2.643,8.47,4.106
				c6.413,3.382,12.517,7.251,18.26,11.682c4.725,3.645,9.099,7.678,13.143,12.06c4.251,4.605,7.988,9.604,11.211,14.984
				c3.331,5.56,6.01,11.419,8.029,17.575c1.162,3.547,2.114,7.153,2.804,10.825c0.44,2.347,0.809,4.702,1.085,7.075
				c0.305,2.613,0.546,5.229,0.531,7.863c-0.007,0.059-0.023,0.117-0.023,0.177c-0.002,3.631-0.002,7.263-0.002,10.894
				c0,0.089,0.019,0.177,0.028,0.266c-0.014,1.945-0.006,3.891-0.046,5.835c-0.043,2.093-0.118,4.185-0.207,6.276
				c-0.1,2.328-0.222,4.656-0.351,6.983c-0.105,1.88-0.229,3.757-0.357,5.636c-0.108,1.579-0.227,3.157-0.357,4.734
				c-0.17,2.054-0.348,4.106-0.538,6.158c-0.163,1.754-0.342,3.506-0.531,5.257c-0.229,2.106-0.46,4.213-0.721,6.316
				c-0.258,2.072-0.553,4.14-0.835,6.209c-0.313,2.276-0.604,4.556-0.951,6.827c-0.37,2.418-0.783,4.829-1.195,7.24
				c-0.422,2.471-0.834,4.941-1.307,7.402c-0.603,3.135-1.252,6.26-1.895,9.387c-1.034,5.027-2.205,10.023-3.498,14.99
				c-1.028,3.957-2.113,7.898-3.231,11.83c-1.461,5.141-3.09,10.232-4.823,15.287c-1.926,5.625-3.986,11.197-6.23,16.703
				c-1.883,4.621-3.853,9.207-5.995,13.715c-1.142,2.402-2.263,4.816-3.471,7.186c-2.254,4.42-4.596,8.795-7.106,13.08
				c-2.436,4.152-4.973,8.242-7.674,12.227c-3.071,4.531-6.298,8.947-9.761,13.189c-2.309,2.826-4.65,5.625-7.183,8.256
				c-2.137,2.219-4.257,4.459-6.486,6.584c-4.443,4.232-9.164,8.137-14.198,11.66c-4.716,3.297-9.656,6.203-14.857,8.666
				c-4.68,2.217-9.518,4-14.522,5.346c-2.599,0.697-5.224,1.254-7.87,1.701c-1.647,0.277-3.315,0.422-4.978,0.605
				c-0.829,0.092-1.667,0.127-2.499,0.201c-0.104,0.01-0.201,0.096-0.301,0.148c-3.112,0-6.225,0-9.338,0
				c-0.105-0.203-0.303-0.154-0.473-0.162c-3.796-0.193-7.534-0.785-11.249-1.57c-4.716-0.996-9.297-2.434-13.758-4.242
				c-3.743-1.52-7.369-3.283-10.884-5.279c-4.191-2.383-8.205-5.027-12.045-7.941c-2.313-1.752-4.557-3.588-6.739-5.502
				c-2.746-2.404-5.421-4.887-7.954-7.516c-3.218-3.34-6.303-6.795-9.243-10.383c-4.687-5.721-8.979-11.725-12.979-17.938
				c-2.428-3.771-4.723-7.623-6.913-11.539c-2.088-3.73-4.094-7.506-5.983-11.34c-2.326-4.719-4.529-9.494-6.586-14.336
				c-2.08-4.895-4.035-9.836-5.869-14.826c-1.669-4.543-3.223-9.123-4.691-13.732c-1.523-4.777-2.961-9.58-4.236-14.43
				c-0.934-3.551-1.867-7.102-2.74-10.664c-1.101-4.492-2.115-9.004-3.004-13.543c-0.511-2.604-1.058-5.203-1.535-7.813
				c-0.483-2.643-0.907-5.293-1.344-7.943c-0.407-2.473-0.817-4.944-1.186-7.423c-0.294-1.978-0.525-3.965-0.787-5.947
				c-0.218-1.655-0.452-3.31-0.655-4.968c-0.157-1.273-0.273-2.553-0.414-3.828c-0.153-1.395-0.317-2.787-0.472-4.182
				c-0.072-0.652-0.14-1.306-0.197-1.96c-0.081-0.922-0.146-1.846-0.227-2.769c-0.156-1.755-0.324-3.508-0.479-5.263
				c-0.073-0.833-0.137-1.667-0.189-2.501c-0.084-1.313-0.148-2.626-0.232-3.938c-0.091-1.4-0.194-2.8-0.291-4.2
				c-0.005-0.06-0.009-0.119-0.012-0.18c-0.074-1.702-0.158-3.404-0.219-5.106c-0.096-2.72-0.175-5.438-0.261-8.158
				c0.021-0.234,0.066-0.471,0.058-0.704c-0.054-1.536-0.116-3.071-0.188-4.607c-0.004-0.1-0.104-0.195-0.159-0.293
				c0-3.173,0-6.345,0-9.517c0.057-0.157,0.142-0.31,0.164-0.472c0.041-0.288,0.003-0.593,0.074-0.871
				c0.135-0.522,0.136-1.038,0.063-1.563c0.086-1.282,0.142-2.566,0.266-3.845c0.127-1.306,0.3-2.608,0.49-3.906
				c0.215-1.476,0.456-2.947,0.712-4.416c0.776-4.449,1.969-8.791,3.457-13.052c1.788-5.12,4.058-10.02,6.76-14.723
				c2.524-4.394,5.423-8.523,8.634-12.435c2.756-3.357,5.738-6.507,8.923-9.459c5.144-4.77,10.705-8.999,16.627-12.757
				c2.955-1.876,5.985-3.619,9.077-5.257c8.394-4.449,17.173-7.96,26.232-10.791c3.561-1.113,7.153-2.121,10.783-2.978
				c3.077-0.727,6.169-1.4,9.273-1.995c2.723-0.521,5.471-0.917,8.213-1.335c2.005-0.307,4.016-0.584,6.029-0.828
				c1.48-0.179,2.972-0.29,4.458-0.421c1.873-0.165,3.748-0.32,5.622-0.479c0.119-0.01,0.238-0.015,0.358-0.019
				c2.061-0.081,4.122-0.158,6.183-0.247c0.224-0.01,0.486,0.103,0.661-0.147C137.085,0.381,140.915,0.381,144.746,0.381z
				 M272.765,83.884l0.014,0.015c-0.03-0.322-0.022-0.652-0.1-0.964c-0.173-0.725-0.387-1.44-0.584-2.159
				c-1.191-4.328-2.776-8.513-4.658-12.583c-2.1-4.541-4.583-8.864-7.441-12.972c-2.566-3.687-5.369-7.183-8.456-10.445
				c-2.426-2.565-4.945-5.035-7.63-7.335c-2.27-1.946-4.598-3.816-7.008-5.589c-5.092-3.745-10.465-7.032-16.063-9.956
				c-3.366-1.759-6.789-3.396-10.293-4.854c-2.206-0.917-4.439-1.768-6.662-2.64c-0.145-0.056-0.31-0.226-0.477-0.02
				c-0.302-0.174-0.586-0.4-0.911-0.514c-1.784-0.626-3.576-1.234-5.373-1.827c-0.326-0.107-0.688-0.11-1.033-0.161l0.014,0.009
				c-0.09-0.065-0.181-0.131-0.27-0.196c-0.365-0.124-0.726-0.263-1.095-0.37c-1.486-0.438-2.973-0.875-4.464-1.296
				c-2.838-0.799-5.696-1.521-8.585-2.123c-2.536-0.529-5.071-1.059-7.613-1.549c-1.521-0.293-3.053-0.525-4.584-0.756
				c-1.443-0.216-2.891-0.398-4.338-0.587c-1.744-0.226-3.484-0.472-5.232-0.652c-1.719-0.178-3.445-0.287-5.169-0.421
				c-0.922-0.071-1.844-0.139-2.767-0.193c-0.922-0.055-1.845-0.091-2.768-0.135c-0.382-0.053-0.762-0.137-1.146-0.154
				c-1.574-0.07-3.151-0.027-4.729-0.141c-1.514-0.109-3.04-0.045-4.561-0.039c-0.191,0.001-0.382,0.108-0.573,0.166
				c-0.194-0.053-0.389-0.154-0.582-0.15c-0.836,0.017-1.67,0.076-2.506,0.096c-1.406,0.032-2.813,0.016-4.219,0.076
				c-1.999,0.088-3.996,0.223-5.995,0.345c-0.894,0.055-1.789,0.106-2.681,0.197c-2.048,0.207-4.094,0.431-6.14,0.663
				c-1.631,0.185-3.266,0.353-4.887,0.599c-2.389,0.361-4.767,0.787-7.149,1.183c-3.387,0.563-6.739,1.289-10.075,2.088
				c-6.857,1.645-13.596,3.685-20.196,6.172c-6.387,2.406-12.582,5.222-18.571,8.495c-4.729,2.585-9.267,5.469-13.621,8.641
				c-4.213,3.071-8.172,6.444-11.888,10.098c-1.513,1.486-2.931,3.072-4.369,4.635c-2.271,2.467-4.332,5.108-6.268,7.843
				c-3.465,4.894-6.43,10.074-8.816,15.582c-2.048,4.724-3.665,9.589-4.854,14.598c-0.564,2.382-1.019,4.785-1.397,7.2
				c-0.218,1.386-0.394,2.778-0.543,4.172c-0.119,1.099-0.181,2.203-0.245,3.307c-0.109,1.878-0.267,3.757-0.283,5.637
				c-0.026,2.84,0.038,5.681,0.088,8.521c0.047,2.661,0.118,5.321,0.192,7.981c0.046,1.643,0.106,3.286,0.184,4.929
				c0.106,2.297,0.225,4.596,0.355,6.893c0.11,1.938,0.236,3.875,0.37,5.812c0.104,1.519,0.224,3.037,0.352,4.554
				c0.174,2.053,0.36,4.104,0.544,6.155c0.133,1.487,0.269,2.974,0.408,4.46c0.059,0.624,0.124,1.247,0.198,1.87
				c0.159,1.333,0.329,2.664,0.49,3.997c0.143,1.186,0.262,2.373,0.418,3.557c0.203,1.538,0.438,3.071,0.651,4.607
				c0.203,1.448,0.373,2.901,0.601,4.345c0.376,2.388,0.776,4.77,1.184,7.15c0.493,2.881,0.943,5.771,1.518,8.637
				c0.958,4.766,1.964,9.523,3.018,14.27c0.712,3.201,1.521,6.383,2.323,9.564c1.314,5.209,2.753,10.387,4.359,15.514
				c1.447,4.613,2.997,9.195,4.568,13.771c2.078,6.045,4.429,11.988,6.943,17.867c2.493,5.826,5.134,11.586,8.073,17.201
				c1.621,3.1,3.285,6.176,4.985,9.232c2.21,3.971,4.595,7.84,7.087,11.641s5.111,7.512,7.858,11.137
				c3.289,4.342,6.774,8.52,10.485,12.504c2.59,2.781,5.284,5.461,8.093,8.025c2.851,2.604,5.803,5.084,8.883,7.408
				c5.672,4.283,11.678,8.014,18.126,11.023c5.322,2.486,10.821,4.436,16.543,5.777c4.021,0.941,8.091,1.533,12.199,1.855
				c1.696,0.135,3.404,0.158,5.106,0.18c1.105,0.014,2.209-0.086,3.313-0.107c1.615-0.031,3.219-0.189,4.824-0.348
				c2.142-0.211,4.262-0.535,6.374-0.936c2.817-0.531,5.598-1.221,8.337-2.066c5.123-1.578,10.055-3.625,14.806-6.115
				c2.464-1.291,4.874-2.672,7.22-4.17c3.885-2.479,7.611-5.174,11.167-8.113c2.283-1.887,4.518-3.83,6.663-5.867
				c3.451-3.279,6.74-6.713,9.862-10.309c2.588-2.982,5.08-6.041,7.461-9.189c3.065-4.059,5.948-8.242,8.69-12.523
				c3.615-5.645,6.95-11.449,10.058-17.383c2.037-3.893,3.96-7.846,5.796-11.84c1.922-4.182,3.742-8.406,5.463-12.674
				c2.168-5.373,4.171-10.809,6.033-16.297c1.764-5.201,3.397-10.445,4.908-15.727c1.331-4.646,2.604-9.311,3.708-14.016
				c0.988-4.211,1.929-8.434,2.865-12.656c0.438-1.98,0.847-3.967,1.218-5.961c0.53-2.844,1.023-5.695,1.516-8.547
				c0.41-2.38,0.822-4.761,1.188-7.148c0.351-2.3,0.644-4.608,0.959-6.914c0.283-2.069,0.578-4.137,0.837-6.208
				c0.263-2.103,0.503-4.207,0.718-6.315c0.221-2.168,0.398-4.34,0.595-6.511c0.067-0.743,0.134-1.486,0.197-2.23
				c0.111-1.278,0.224-2.557,0.323-3.836c0.02-0.267-0.013-0.537-0.021-0.806c0.056-0.134,0.153-0.265,0.162-0.401
				c0.08-1.13,0.146-2.261,0.211-3.392c0.069-1.222,0.133-2.442,0.201-3.663c0.006-0.119,0.043-0.235,0.05-0.354
				c0.04-0.744,0.086-1.488,0.104-2.233c0.004-0.133-0.107-0.268-0.166-0.401c0.221-0.132,0.185-0.353,0.197-0.558
				c0.1-1.757,0.215-3.513,0.295-5.271c0.078-1.698,0.135-3.398,0.17-5.1c0.071-3.492,0.139-6.985,0.174-10.479
				c0.015-1.461-0.075-2.922-0.085-4.384c-0.017-2.957-0.191-5.904-0.566-8.836c-0.227-1.771-0.492-3.538-0.738-5.307
				c-0.008-0.148,0.004-0.301-0.023-0.444c-0.244-1.248-0.469-2.502-0.753-3.741c-0.15-0.653-0.184-1.354-0.621-1.919
				c0.028-0.045,0.057-0.09,0.085-0.134C272.856,83.91,272.811,83.897,272.765,83.884z"/>
			<path fill-rule="evenodd" clip-rule="evenodd" fill="#FFFFFF" d="M274.206,140.541c0.009,0.269,0.041,0.539,0.021,0.806
				c-0.1,1.279-0.212,2.558-0.323,3.836c-0.063,0.744-0.13,1.487-0.197,2.23c-0.196,2.171-0.374,4.343-0.595,6.511
				c-0.215,2.108-0.455,4.213-0.718,6.315c-0.259,2.071-0.554,4.139-0.837,6.208c-0.315,2.306-0.608,4.614-0.959,6.914
				c-0.365,2.388-0.777,4.769-1.188,7.148c-0.492,2.852-0.985,5.703-1.516,8.547c-0.371,1.994-0.779,3.98-1.218,5.961
				c-0.937,4.223-1.877,8.445-2.865,12.656c-1.104,4.705-2.377,9.369-3.708,14.016c-1.511,5.281-3.145,10.525-4.908,15.727
				c-1.862,5.488-3.865,10.924-6.033,16.297c-1.721,4.268-3.541,8.492-5.463,12.674c-1.836,3.994-3.759,7.947-5.796,11.84
				c-3.107,5.934-6.442,11.738-10.058,17.383c-2.742,4.281-5.625,8.465-8.69,12.523c-2.381,3.148-4.873,6.207-7.461,9.189
				c-3.122,3.596-6.411,7.029-9.862,10.309c-2.146,2.037-4.38,3.98-6.663,5.867c-3.556,2.939-7.282,5.635-11.167,8.113
				c-2.346,1.498-4.756,2.879-7.22,4.17c-4.751,2.49-9.683,4.537-14.806,6.115c-2.739,0.846-5.52,1.535-8.337,2.066
				c-2.112,0.4-4.232,0.725-6.374,0.936c-1.605,0.158-3.209,0.316-4.824,0.348c-1.104,0.021-2.208,0.121-3.313,0.107
				c-1.702-0.021-3.41-0.045-5.106-0.18c-4.108-0.322-8.179-0.914-12.199-1.855c-5.722-1.342-11.221-3.291-16.543-5.777
				c-6.448-3.01-12.454-6.74-18.126-11.023c-3.08-2.324-6.032-4.805-8.883-7.408c-2.809-2.564-5.503-5.244-8.093-8.025
				c-3.711-3.984-7.196-8.162-10.485-12.504c-2.747-3.625-5.366-7.336-7.858-11.137s-4.877-7.67-7.087-11.641
				c-1.7-3.057-3.364-6.133-4.985-9.232c-2.939-5.615-5.58-11.375-8.073-17.201c-2.515-5.879-4.865-11.822-6.943-17.867
				c-1.571-4.576-3.121-9.158-4.568-13.771c-1.606-5.127-3.045-10.305-4.359-15.514c-0.803-3.182-1.611-6.363-2.323-9.564
				c-1.054-4.746-2.06-9.504-3.018-14.27c-0.574-2.865-1.024-5.756-1.518-8.637c-0.407-2.381-0.808-4.763-1.184-7.15
				c-0.228-1.443-0.397-2.896-0.601-4.345c-0.214-1.536-0.448-3.069-0.651-4.607c-0.156-1.184-0.275-2.371-0.418-3.557
				c-0.161-1.333-0.331-2.664-0.49-3.997c-0.074-0.623-0.14-1.246-0.198-1.87c-0.14-1.486-0.275-2.973-0.408-4.46
				c-0.184-2.052-0.37-4.103-0.544-6.155c-0.128-1.517-0.247-3.035-0.352-4.554c-0.134-1.937-0.26-3.874-0.37-5.812
				c-0.131-2.297-0.249-4.596-0.355-6.893c-0.077-1.643-0.138-3.286-0.184-4.929c-0.074-2.66-0.146-5.32-0.192-7.981
				c-0.05-2.84-0.114-5.681-0.088-8.521c0.017-1.88,0.174-3.759,0.283-5.637c0.064-1.104,0.126-2.208,0.245-3.307
				c0.149-1.394,0.325-2.786,0.543-4.172c0.379-2.415,0.833-4.818,1.397-7.2c1.188-5.009,2.806-9.874,4.854-14.598
				c2.387-5.508,5.352-10.688,8.816-15.582c1.936-2.734,3.996-5.376,6.268-7.843c1.438-1.563,2.856-3.148,4.369-4.635
				c3.716-3.653,7.675-7.026,11.888-10.098c4.354-3.172,8.893-6.056,13.621-8.641c5.989-3.273,12.185-6.089,18.571-8.495
				c6.601-2.487,13.339-4.527,20.196-6.172c3.336-0.799,6.688-1.525,10.075-2.088c2.383-0.396,4.761-0.821,7.149-1.183
				c1.621-0.246,3.256-0.414,4.887-0.599c2.046-0.232,4.092-0.456,6.14-0.663c0.892-0.091,1.787-0.143,2.681-0.197
				c1.999-0.122,3.996-0.257,5.995-0.345c1.405-0.061,2.813-0.044,4.219-0.076c0.836-0.02,1.67-0.079,2.506-0.096
				c0.193-0.004,0.388,0.098,0.582,0.15c0.786,1.72,1.784,3.315,2.882,4.849c2.367,3.307,5.209,6.164,8.327,8.754
				c4.111,3.414,8.591,6.277,13.289,8.805c7.339,3.946,15.031,7.045,22.968,9.558c3.737,1.184,7.507,2.196,11.427,2.58
				c3.348,0.328,6.686,0.411,10.017-0.111c1.301-0.204,2.577-0.522,3.794-1.042c1.055-0.451,2.027-1.026,2.808-1.887
				c1.021-1.128,1.415-2.461,1.309-3.965c-0.103-1.461-0.606-2.795-1.251-4.086c-0.793-1.586-1.813-3.023-2.879-4.432
				c-2.228-2.944-4.759-5.607-7.493-8.083c0.167-0.206,0.332-0.036,0.477,0.02c2.223,0.872,4.456,1.723,6.662,2.64
				c3.504,1.459,6.927,3.096,10.293,4.854c5.599,2.924,10.972,6.211,16.063,9.956c2.41,1.772,4.738,3.643,7.008,5.589
				c2.685,2.3,5.204,4.77,7.63,7.335c3.087,3.263,5.89,6.759,8.456,10.445c2.858,4.107,5.342,8.431,7.441,12.972
				c1.882,4.07,3.467,8.255,4.658,12.583c0.197,0.719,0.411,1.435,0.584,2.159c0.077,0.312,0.069,0.642,0.1,0.964
				c-0.162-0.172-0.337-0.332-0.48-0.517c-3.32-4.23-7.021-8.083-11.298-11.361c-1.688-1.293-3.413-2.528-5.352-3.43
				c-1.226-0.571-2.482-1.006-3.854-1.098c-2.052-0.138-3.672,0.613-4.908,2.234c-0.531,0.695-0.923,1.467-1.237,2.278
				c-0.818,2.116-1.148,4.329-1.236,6.578c-0.078,1.972-0.055,3.943,0.139,5.915c0.237,2.414,0.594,4.806,1.231,7.146
				c1.598,5.86,3.64,11.566,6.029,17.147c2.701,6.305,5.85,12.375,9.719,18.052c2.79,4.093,5.902,7.914,9.61,11.218
				C272.121,138.936,273.183,139.717,274.206,140.541z M164.836,44.021c-2.586,1.403-4.751,3.323-6.641,5.543
				c-3.669,4.309-5.567,9.371-6.039,14.961c-0.229,2.71-0.138,5.432,0.275,8.14c0.45,2.958,1.101,5.863,1.998,8.715
				c1.89,6.004,4.68,11.572,8.184,16.784c3.182,4.731,6.86,9.048,11.021,12.955c2.972,2.79,6.128,5.346,9.499,7.637
				c4.993,3.395,10.315,6.146,16.031,8.111c3.31,1.138,6.691,1.984,10.16,2.488c1.719,0.25,3.441,0.405,5.172,0.449
				c1.945,0.049,3.876-0.142,5.796-0.467c2.279-0.384,4.48-1.022,6.592-1.961c4.075-1.813,7.467-4.494,10.134-8.065
				c0.676-0.904,1.227-1.902,1.834-2.857c0.157-0.251,0.332-0.494,0.47-0.755c2.067-3.924,3.156-8.123,3.426-12.532
				c0.255-4.182-0.227-8.294-1.335-12.338c-1.589-5.807-3.996-11.258-7.104-16.4c-5.282-8.742-12.076-16.11-20.294-22.165
				c-6.582-4.849-13.744-8.549-21.608-10.84c-5.198-1.515-10.478-2.098-15.875-1.385c-2.831,0.374-5.572,1.07-8.202,2.182
				C167.121,42.73,165.916,43.257,164.836,44.021z M124.294,154.973c-0.098-0.063-0.189-0.144-0.296-0.188
				c-1.212-0.507-2.417-1.032-3.641-1.509c-5.664-2.208-11.483-3.868-17.465-4.959c-2.528-0.461-5.064-0.869-7.627-1.077
				c-2.232-0.182-4.467-0.39-6.705-0.47c-4.366-0.156-8.726,0.006-13.075,0.465c-2.705,0.285-5.396,0.663-8.066,1.174
				c-6.206,1.187-12.244,2.958-18.1,5.336c-0.937,0.381-1.848,0.824-2.771,1.238c-1.034,0.324-2.323,0.947-2.917,1.423
				c0.058,0.737,0.13,1.51,0.177,2.284c0.09,1.492,0.163,2.986,0.249,4.479c0.058,1.016,0.123,2.03,0.191,3.044
				c0.151,2.236,0.317,4.474,0.458,6.711c0.154,2.447,0.287,4.896,0.432,7.343c0.061,1.016,0.124,2.029,0.192,3.043
				c0.151,2.268,0.313,4.535,0.458,6.803c0.094,1.463,0.165,2.926,0.251,4.389c0.058,0.984,0.119,1.971,0.187,2.953
				c0.15,2.238,0.333,4.473,0.451,6.711c0.113,2.123,0.358,4.227,0.711,6.322c0.827,4.924,2.324,9.637,4.468,14.141
				c3.339,7.012,7.963,13.047,13.873,18.092c5.578,4.762,11.874,8.227,18.842,10.492c0.604,0.195,1.144,0.186,1.74-0.008
				c9.793-3.186,18.083-8.643,24.811-16.439c5.112-5.928,8.745-12.674,10.965-20.18c0.995-3.361,1.653-6.793,1.965-10.283
				c0.236-2.65,0.374-5.309,0.54-7.965c0.152-2.447,0.284-4.895,0.428-7.344c0.058-0.984,0.122-1.969,0.187-2.953
				c0.165-2.506,0.337-5.012,0.497-7.52c0.083-1.281,0.137-2.566,0.22-3.851c0.15-2.297,0.323-4.593,0.468-6.89
				c0.152-2.417,0.276-4.837,0.427-7.254c0.078-1.253,0.193-2.504,0.272-3.757c0.053-0.832,0.072-1.666,0.108-2.533
				C126.197,155.811,125.308,155.255,124.294,154.973z M256.078,197.693c0.028-0.002,0.056-0.002,0.084-0.002
				c-0.078-1.584-0.16-3.164-0.235-4.748c-0.101-2.121-0.393-4.219-0.732-6.313c-0.499-3.068-1.207-6.09-2.107-9.064
				c-1.651-5.459-3.884-10.666-6.804-15.569c-3.018-5.069-6.626-9.661-11.035-13.605c-3.729-3.336-7.847-6.067-12.44-8.067
				c-4.535-1.975-9.283-3.109-14.21-3.426c-3.017-0.194-6.03-0.058-9.026,0.459c-3.949,0.682-7.69,1.943-11.238,3.798
				c-5.771,3.018-10.522,7.236-14.549,12.313c-1.88,2.372-3.548,4.885-5.032,7.523c-2.62,4.659-4.631,9.567-6.052,14.719
				c-0.945,3.431-1.623,6.908-2.031,10.449c-0.25,2.172-0.306,4.35-0.415,6.525c-0.039,0.773,0.064,1.553,0.075,2.328
				c0.04,2.635,0.334,5.242,0.724,7.846c0.555,3.699,1.415,7.326,2.551,10.887c2.232,6.998,5.408,13.535,9.691,19.516
				c2.728,3.809,5.836,7.273,9.43,10.297c3.503,2.947,7.335,5.352,11.55,7.145c4.903,2.088,10.032,3.078,15.342,3.184
				c0.865,0.018,1.73-0.082,2.597-0.104c1.979-0.051,3.924-0.338,5.861-0.717c4.901-0.955,9.431-2.82,13.626-5.514
				c5.081-3.258,9.246-7.461,12.737-12.357c2.315-3.252,4.269-6.709,5.881-10.357c1.318-2.982,2.42-6.041,3.284-9.189
				c0.879-3.199,1.558-6.436,1.969-9.732c0.249-1.986,0.445-3.977,0.503-5.979C256.097,199.191,256.078,198.441,256.078,197.693z
				 M145.009,76.067c-0.079-1.252-0.166-2.503-0.234-3.755c-0.098-1.795-0.41-3.562-0.805-5.308
				c-1.104-4.884-3.032-9.429-5.749-13.637c-2.848-4.412-6.379-8.205-10.43-11.53c-4.869-3.997-10.273-7.091-16.073-9.512
				c-3.949-1.648-8.019-2.92-12.198-3.841c-1.896-0.418-3.801-0.774-5.729-1.005c-1.156-0.139-2.313-0.28-3.472-0.369
				c-1.608-0.125-3.218-0.241-4.829-0.284c-1.162-0.031-2.328,0.07-3.493,0.098c-2.483,0.058-4.941,0.348-7.396,0.718
				c-2.867,0.432-5.693,1.049-8.478,1.848c-7.009,2.011-13.559,4.994-19.498,9.26c-3.739,2.685-7.075,5.793-9.913,9.426
				c-2.202,2.818-4.018,5.867-5.399,9.168c-1.264,3.016-2.153,6.134-2.61,9.377c-0.259,1.837-0.457,3.676-0.464,5.53
				c-0.005,1.104,0.085,2.208,0.119,3.313c0.046,1.497,0.273,2.97,0.539,4.44c0.896,4.973,2.736,9.576,5.382,13.868
				c2.579,4.184,5.787,7.828,9.467,11.075c3.72,3.281,7.81,6.019,12.186,8.337c4.584,2.429,9.387,4.317,14.381,5.712
				c2.587,0.723,5.205,1.326,7.867,1.707c1.507,0.216,3.017,0.411,4.531,0.557c1.486,0.142,2.978,0.249,4.469,0.295
				c1.582,0.051,3.165,0.006,4.75-0.1c2.207-0.146,4.398-0.382,6.585-0.722c3.34-0.521,6.611-1.314,9.834-2.323
				c4.407-1.38,8.618-3.213,12.642-5.48c5.548-3.127,10.474-7.02,14.605-11.887c2.373-2.796,4.357-5.843,5.899-9.175
				C143.815,86.858,144.984,81.597,145.009,76.067z M65.589,269.969c-0.467-1.391-1.254-2.402-2.381-3.16
				c-1.086-0.732-2.296-1.143-3.568-1.381c-2.014-0.375-4.04-0.447-6.07-0.16c-1.371,0.193-2.684,0.564-3.868,1.326
				c-2.513,1.611-2.941,5.752,0.063,7.619c0.797,0.496,1.649,0.84,2.548,1.082c1.447,0.391,2.944,0.488,4.418,0.721
				c1.091,0.174,2.188,0.316,3.266,0.553c0.543,0.119,1.088,0.352,1.558,0.65c1.003,0.637,1.051,1.668,0.172,2.479
				c-0.427,0.393-0.938,0.645-1.488,0.799c-2.272,0.635-4.547,0.615-6.798-0.102c-1.212-0.387-2.159-1.137-2.798-2.252
				c-0.071-0.125-0.165-0.236-0.263-0.375c-1.142,0.324-2.243,0.65-3.348,1.057c0.048,0.182,0.063,0.299,0.107,0.404
				c0.526,1.254,1.389,2.221,2.511,2.971c0.982,0.654,2.064,1.074,3.204,1.352c2.147,0.523,4.327,0.551,6.507,0.318
				c1.369-0.146,2.703-0.492,3.915-1.195c1.433-0.83,2.334-2.035,2.563-3.691c0.273-1.986-0.395-3.617-2.126-4.668
				c-0.747-0.455-1.543-0.807-2.395-0.98c-1.345-0.275-2.702-0.488-4.055-0.727c-1.352-0.238-2.709-0.455-4.054-0.73
				c-0.458-0.094-0.915-0.291-1.323-0.527c-0.751-0.432-0.898-1.221-0.37-1.908c0.194-0.254,0.459-0.486,0.742-0.629
				c0.422-0.213,0.877-0.389,1.337-0.494c1.385-0.322,2.795-0.295,4.194-0.141c0.676,0.074,1.35,0.262,1.997,0.479
				c1.033,0.346,1.815,1.018,2.299,2.012c0.051,0.104,0.105,0.205,0.182,0.355C63.382,270.75,64.431,270.342,65.589,269.969z
				 M157.667,265.607c0,5.715-0.001,11.336,0,16.955c0,0.268,0.013,0.535,0.021,0.805c0,0.027,0.015,0.055,0.031,0.078
				c0.016,0.025,0.041,0.043,0.062,0.064c1.268,0.127,2.686,0.092,3.299-0.092c0-1.451,0-2.912,0-4.377c0-1.436-0.002-2.871,0-4.305
				c0.002-1.449,0.004-2.898,0.007-4.549c4.258,4.545,8.338,8.979,12.429,13.348c1.103,0,2.144,0,3.219,0
				c0.019-0.234,0.051-0.439,0.051-0.643c0.002-5.563,0.003-11.125-0.002-16.688c0-0.197-0.044-0.393-0.072-0.629
				c-1.007,0-1.961-0.002-2.916,0.004c-0.114,0-0.229,0.031-0.382,0.053c-0.018,0.219-0.048,0.422-0.05,0.625
				c-0.005,0.779-0.001,1.557-0.001,2.332c0,2.99,0.001,5.982-0.005,8.973c-0.001,0.211,0.086,0.465-0.196,0.68
				c-3.935-4.244-7.851-8.467-11.715-12.635C160.152,265.607,158.963,265.607,157.667,265.607z M168.088,304.586
				c-0.632-1.857-1.838-3.027-3.489-3.771c-1.238-0.557-2.549-0.813-3.896-0.963c-1.918-0.213-3.819-0.174-5.704,0.24
				c-0.996,0.219-1.956,0.549-2.807,1.139c-1.901,1.313-2.34,3.494-1.856,5.131c0.352,1.189,1.152,2.01,2.187,2.621
				c1.337,0.789,2.821,1.115,4.34,1.326c1.716,0.24,3.432,0.469,5.142,0.742c0.736,0.119,1.458,0.352,2.084,0.783
				c0.947,0.654,1.02,1.623,0.188,2.428c-0.168,0.164-0.367,0.307-0.571,0.426c-0.546,0.318-1.133,0.535-1.754,0.656
				c-1.666,0.324-3.334,0.305-4.99-0.025c-1.649-0.326-3.03-1.088-3.874-2.627c-0.054-0.098-0.154-0.17-0.252-0.271
				c-1.106,0.289-2.188,0.605-3.264,1.039c0.045,0.182,0.061,0.33,0.116,0.463c0.423,1.014,1.081,1.85,1.952,2.523
				c1.795,1.391,3.889,1.938,6.095,2.104c1.16,0.086,2.336,0.07,3.499,0.002c1.438-0.086,2.837-0.396,4.142-1.049
				c1.696-0.842,2.777-2.143,2.991-4.07c0.177-1.584-0.235-2.975-1.498-4.014c-0.433-0.357-0.941-0.639-1.447-0.887
				c-1.305-0.643-2.729-0.852-4.145-1.074c-1.593-0.25-3.192-0.465-4.775-0.758c-0.669-0.123-1.329-0.355-1.95-0.633
				c-1.107-0.492-0.989-1.619-0.375-2.211c0.171-0.164,0.359-0.33,0.572-0.424c0.435-0.189,0.88-0.385,1.342-0.48
				c1.749-0.361,3.515-0.34,5.254,0.029c1.456,0.311,2.69,1,3.326,2.459c0.032,0.074,0.112,0.127,0.195,0.217
				C165.909,305.309,166.953,304.963,168.088,304.586z M123.952,300.309c-0.001,2.059,0,4.145,0,6.23c0,2.115,0,4.23,0,6.463
				c-0.193-0.148-0.292-0.203-0.366-0.285c-1.466-1.574-2.929-3.154-4.39-4.736c-0.771-0.832-1.532-1.676-2.305-2.508
				c-1.525-1.645-3.061-3.279-4.58-4.928c-0.268-0.291-0.563-0.408-0.948-0.398c-0.688,0.016-1.376-0.006-2.064,0.01
				c-0.319,0.008-0.638,0.068-0.969,0.107c-0.021,0.174-0.047,0.289-0.047,0.404c0.007,5.771,0.016,11.543,0.026,17.314
				c0,0.029,0.011,0.059,0.026,0.082c0.017,0.025,0.045,0.041,0.066,0.061c0.95,0.113,2.518,0.096,3.269-0.053
				c0-4.332,0-8.684,0-13.254c4.266,4.543,8.338,8.98,12.469,13.377c0.535,0,1.043,0.008,1.55-0.004
				c0.528-0.014,1.064,0.064,1.581-0.055c0.03-0.139,0.065-0.225,0.065-0.309c-0.002-5.803-0.007-11.605-0.014-17.406
				c0-0.025-0.025-0.055-0.041-0.08c-0.015-0.023-0.033-0.045-0.051-0.068C126.233,300.098,124.713,300.102,123.952,300.309z
				 M99.292,283.996c1.761-0.031,2.513-0.084,3.903-0.455c3.026-0.807,5.216-2.59,6.282-5.592c0.537-1.512,0.676-3.072,0.469-4.68
				c-0.487-3.779-2.468-6.313-6.109-7.52c-1.114-0.367-2.267-0.535-3.429-0.607c-2.291-0.141-4.539,0.078-6.668,1.006
				c-2.322,1.014-3.888,2.738-4.642,5.158c-0.476,1.527-0.646,3.088-0.409,4.689c0.518,3.496,2.369,5.926,5.68,7.207
				C95.951,283.814,97.608,283.994,99.292,283.996z M152.837,265.639c-0.218-0.02-0.442-0.061-0.666-0.061
				c-4.938-0.004-9.874-0.004-14.81,0c-0.195,0-0.391,0.045-0.598,0.068c-0.015,0.182-0.032,0.299-0.032,0.414
				c-0.002,5.656-0.002,11.311,0.002,16.965c0,0.168,0.053,0.336,0.082,0.508c0.162,0.014,0.28,0.033,0.398,0.033
				c5.146,0.002,10.291,0.002,15.438-0.002c0.166,0,0.332-0.055,0.524-0.088c0-0.914,0.002-1.779-0.003-2.645
				c0-0.084-0.038-0.166-0.071-0.301c-0.296-0.012-0.587-0.031-0.879-0.033c-3.649-0.002-7.3,0.002-10.95-0.006
				c-0.314,0-0.652,0.094-0.949-0.111c0-1.508,0-2.992,0-4.527c1.225-0.086,2.413-0.031,3.601-0.041
				c1.197-0.01,2.395,0.008,3.59-0.004c1.188-0.012,2.374,0.053,3.548-0.043c0.145-1.051,0.119-2.383-0.063-3.008
				c-1.18,0-2.375,0-3.569,0c-1.166,0-2.334,0.008-3.5,0c-1.188-0.008-2.377,0.035-3.549-0.029
				c-0.148-0.949-0.132-3.424,0.026-4.102c0.315,0,0.642,0,0.968,0c3.561,0,7.121,0.004,10.681-0.004
				c0.256,0,0.537,0.09,0.781-0.133C152.837,267.57,152.837,266.645,152.837,265.639z M142.481,303.258
				c-0.23,0.271-0.318,0.387-0.417,0.488c-2.202,2.322-4.405,4.645-6.611,6.965c-1.69,1.775-3.387,3.547-5.078,5.326
				c-0.122,0.127-0.226,0.273-0.334,0.406c0.005,0.576-0.058,1.137,0.041,1.701c0.184,0.023,0.299,0.047,0.414,0.047
				c5.806-0.006,11.609-0.016,17.413-0.023c0.026,0,0.058-0.016,0.081-0.031c0.024-0.016,0.041-0.041,0.105-0.109
				c0.035-0.898,0.066-1.842-0.025-2.859c-0.361-0.006-0.684-0.018-1.005-0.018c-3.561-0.002-7.122,0-10.683-0.008
				c-0.179-0.002-0.417,0.129-0.55-0.154c0.073-0.094,0.138-0.191,0.218-0.277c2.247-2.402,4.494-4.807,6.745-7.205
				c1.477-1.568,2.962-3.129,4.441-4.693c0.123-0.131,0.254-0.256,0.357-0.402c0.084-0.119,0.188-0.262,0.189-0.395
				c0.008-0.586,0.076-1.18-0.051-1.791c-0.25-0.027-0.453-0.07-0.657-0.07c-5.266-0.004-10.532-0.004-15.799,0.002
				c-0.196,0-0.393,0.063-0.645,0.107c0,0.523-0.024,0.998,0.006,1.473c0.032,0.49-0.152,1.01,0.179,1.521
				C134.636,303.258,138.461,303.258,142.481,303.258z M215.581,265.602c-2.918,5.947-5.811,11.844-8.701,17.74
				c-0.01,0.021,0.005,0.059,0.01,0.086c0.006,0.029,0.015,0.055,0.022,0.084c1.028,0.105,3.014,0.08,3.651-0.045
				c0.67-1.322,1.205-2.715,1.892-3.99c3.473,0,6.874,0,10.301,0c0.633,1.371,1.254,2.721,1.884,4.088
				c1.147,0,2.251,0.002,3.355-0.002c0.081,0,0.161-0.041,0.285-0.074c-0.051-0.156-0.081-0.299-0.142-0.426
				c-2.824-5.826-5.652-11.65-8.472-17.461C218.284,265.602,216.973,265.602,215.581,265.602z M129.692,265.611
				c-2.248,4.684-4.493,9.363-6.732,14.031c-0.088-0.023-0.135-0.021-0.144-0.039c-2.229-4.656-4.454-9.314-6.688-13.99
				c-1.224,0-2.44,0-3.668,0c0.212,0.74,8.203,17.289,8.647,17.922c1.19,0,2.383,0,3.556,0c0.854-1.467,8.53-17.221,8.731-17.924
				C132.168,265.611,130.948,265.611,129.692,265.611z M70.56,265.574c0,5.904,0,11.674,0.001,17.443
				c0,0.119,0.011,0.236,0.021,0.355c0.002,0.027,0.016,0.057,0.031,0.08c0.017,0.023,0.042,0.041,0.064,0.063
				c1.374,0.125,15.708,0.08,16.413-0.059c0.027-0.992,0.063-1.992-0.024-3.066c-0.348,0-0.642,0-0.935,0
				c-3.678,0-7.356,0.002-11.034-0.008c-0.313,0-0.655,0.107-0.983-0.141c0-0.975,0-1.959,0-2.943c0-0.957,0-1.914,0-2.869
				c0-0.988,0-1.975,0-2.963c0-0.955,0.009-1.912-0.002-2.869c-0.012-0.98,0.052-1.961-0.047-2.973
				c-0.211-0.02-0.384-0.047-0.557-0.047C72.558,265.574,71.606,265.574,70.56,265.574z M191.087,283.35
				c0.299,0.068,0.527,0.141,0.764,0.172c1.754,0.232,3.518,0.305,5.28,0.178c1.016-0.072,2.013-0.262,2.966-0.65
				c1.508-0.613,2.504-1.697,2.997-3.242c0.274-0.861,0.398-1.746,0.398-2.648c-0.004-3.65,0-7.299-0.005-10.947
				c0-0.199-0.04-0.396-0.065-0.635c-0.616,0-1.182-0.01-1.746,0.002c-0.558,0.014-1.12-0.059-1.739,0.061c0,0.34,0,0.635,0,0.93
				c0,3.23,0.001,6.463-0.001,9.691c-0.001,0.418-0.008,0.84-0.041,1.256c-0.124,1.572-0.851,2.428-2.4,2.838
				c-0.202,0.053-0.405,0.111-0.611,0.137c-1.402,0.16-2.802,0.154-4.195-0.113c-0.517-0.098-1.035-0.184-1.601-0.283
				C191.087,281.205,191.087,282.244,191.087,283.35z M186.698,283.541c0.019-0.211,0.037-0.326,0.037-0.441
				c-0.003-5.771-0.008-11.543-0.013-17.313c0-0.027-0.02-0.055-0.034-0.078c-0.017-0.025-0.037-0.047-0.105-0.131
				c-1.073,0.006-2.197-0.021-3.368,0.018c-0.015,0.207-0.033,0.35-0.033,0.492c-0.001,5.652-0.002,11.303,0.002,16.955
				c0.001,0.166,0.056,0.334,0.086,0.498C184.421,283.541,185.521,283.541,186.698,283.541z"/>
			<path fill-rule="evenodd" clip-rule="evenodd" fill="#FEFEFE" d="M149.219,3.61c0.923,0.044,1.846,0.08,2.768,0.135
				c0.923,0.055,1.845,0.122,2.767,0.193c1.724,0.134,3.45,0.243,5.169,0.421c1.748,0.181,3.488,0.427,5.232,0.652
				c1.447,0.188,2.895,0.371,4.338,0.587c1.531,0.23,3.063,0.463,4.584,0.756c2.542,0.49,5.077,1.02,7.613,1.549
				c2.889,0.602,5.747,1.324,8.585,2.123c1.491,0.421,2.978,0.858,4.464,1.296c0.369,0.107,0.729,0.246,1.095,0.37
				c0.089,0.065,0.18,0.131,0.27,0.196l-0.014-0.009c0.248,0.251,0.492,0.505,0.744,0.752c1.025,1.004,2.086,1.973,3.07,3.015
				c1.604,1.698,3.047,3.529,4.239,5.546c0.549,0.93,0.966,1.912,1.193,2.979c0.374,1.767-0.344,3.23-1.734,4.074
				c-0.456,0.276-0.948,0.507-1.451,0.691c-1.271,0.468-2.599,0.668-3.947,0.738c-1.912,0.1-3.818,0.046-5.724-0.169
				c-2.081-0.235-4.132-0.607-6.144-1.202c-4.586-1.356-9.068-2.994-13.424-4.971c-4.609-2.091-9.032-4.512-13.101-7.544
				c-2.865-2.136-5.49-4.524-7.674-7.368C150.989,6.926,149.952,5.359,149.219,3.61z"/>
			<path fill-rule="evenodd" clip-rule="evenodd" fill="#FEFEFE" d="M274.215,90.162c0.246,1.769,0.512,3.535,0.738,5.307
				c0.375,2.932,0.55,5.879,0.566,8.836c0.01,1.462,0.1,2.923,0.085,4.384c-0.035,3.494-0.103,6.987-0.174,10.479
				c-0.035,1.701-0.092,3.401-0.17,5.1c-0.08,1.758-0.195,3.514-0.295,5.271c-0.013,0.205,0.023,0.426-0.197,0.558
				c-1.335-1.016-2.583-2.131-3.757-3.328c-2.989-3.051-5.467-6.489-7.638-10.154c-3.563-6.018-6.246-12.421-8.412-19.06
				c-1.188-3.635-1.899-7.337-1.959-11.162c-0.025-1.559,0.065-3.107,0.392-4.636c0.22-1.028,0.548-2.018,1.12-2.911
				c0.555-0.864,1.304-1.487,2.313-1.725c0.707-0.165,1.423-0.127,2.134,0.04c1.391,0.328,2.626,0.987,3.799,1.77
				c4.403,2.941,8.053,6.65,11.117,10.952C273.96,89.997,274.101,90.069,274.215,90.162z"/>
			<path fill-rule="evenodd" clip-rule="evenodd" fill="#02583F" d="M149.219,3.61c0.733,1.749,1.771,3.315,2.919,4.812
				c2.184,2.844,4.809,5.232,7.674,7.368c4.068,3.032,8.491,5.453,13.101,7.544c4.355,1.977,8.838,3.614,13.424,4.971
				c2.012,0.595,4.063,0.967,6.144,1.202c1.905,0.215,3.812,0.269,5.724,0.169c1.349-0.07,2.677-0.271,3.947-0.738
				c0.503-0.185,0.995-0.415,1.451-0.691c1.391-0.844,2.108-2.308,1.734-4.074c-0.228-1.067-0.645-2.05-1.193-2.979
				c-1.192-2.017-2.635-3.848-4.239-5.546c-0.984-1.042-2.045-2.011-3.07-3.015c-0.252-0.247-0.496-0.501-0.744-0.752
				c0.345,0.051,0.707,0.054,1.033,0.161c1.797,0.593,3.589,1.201,5.373,1.827c0.325,0.113,0.609,0.34,0.911,0.514
				c2.734,2.476,5.266,5.139,7.493,8.083c1.065,1.408,2.086,2.846,2.879,4.432c0.645,1.291,1.148,2.625,1.251,4.086
				c0.106,1.504-0.288,2.837-1.309,3.965c-0.78,0.86-1.753,1.436-2.808,1.887c-1.217,0.52-2.493,0.838-3.794,1.042
				c-3.331,0.522-6.669,0.439-10.017,0.111c-3.92-0.384-7.689-1.396-11.427-2.58c-7.937-2.513-15.629-5.611-22.968-9.558
				c-4.698-2.527-9.178-5.391-13.289-8.805c-3.118-2.59-5.96-5.447-8.327-8.754c-1.098-1.533-2.096-3.129-2.882-4.849
				c0.191-0.058,0.382-0.165,0.573-0.166c1.521-0.006,3.047-0.07,4.561,0.039c1.578,0.113,3.155,0.07,4.729,0.141
				C148.457,3.474,148.837,3.558,149.219,3.61z"/>
			<path fill-rule="evenodd" clip-rule="evenodd" fill="#02583F" d="M274.215,90.162c-0.114-0.093-0.255-0.165-0.337-0.28
				c-3.064-4.302-6.714-8.011-11.117-10.952c-1.173-0.782-2.408-1.441-3.799-1.77c-0.711-0.167-1.427-0.205-2.134-0.04
				c-1.01,0.237-1.759,0.86-2.313,1.725c-0.572,0.894-0.9,1.883-1.12,2.911c-0.326,1.528-0.417,3.077-0.392,4.636
				c0.06,3.825,0.771,7.527,1.959,11.162c2.166,6.639,4.85,13.042,8.412,19.06c2.171,3.665,4.648,7.104,7.638,10.154
				c1.174,1.197,2.422,2.313,3.757,3.328c0.059,0.134,0.17,0.269,0.166,0.401c-0.019,0.745-0.064,1.489-0.104,2.233
				c-0.007,0.119-0.044,0.235-0.05,0.354c-0.068,1.221-0.132,2.441-0.201,3.663c-0.064,1.131-0.131,2.262-0.211,3.392
				c-0.009,0.137-0.106,0.268-0.162,0.401c-1.023-0.824-2.085-1.605-3.065-2.479c-3.708-3.304-6.82-7.125-9.61-11.218
				c-3.869-5.677-7.018-11.747-9.719-18.052c-2.39-5.581-4.432-11.287-6.029-17.147c-0.638-2.34-0.994-4.731-1.231-7.146
				c-0.193-1.972-0.217-3.943-0.139-5.915c0.088-2.249,0.418-4.462,1.236-6.578c0.314-0.812,0.706-1.583,1.237-2.278
				c1.236-1.621,2.856-2.372,4.908-2.234c1.372,0.092,2.629,0.526,3.854,1.098c1.938,0.901,3.663,2.137,5.352,3.43
				c4.277,3.278,7.978,7.131,11.298,11.361c0.144,0.185,0.318,0.345,0.48,0.517l-0.014-0.015c0.019,0.058,0.034,0.116,0.053,0.174
				c0.438,0.564,0.471,1.266,0.621,1.919c0.284,1.239,0.509,2.493,0.753,3.741C274.219,89.861,274.207,90.014,274.215,90.162z"/>
			<path fill-rule="evenodd" clip-rule="evenodd" fill="#FFFFFF" d="M272.817,84.058c-0.019-0.058-0.034-0.116-0.053-0.174
				c0.046,0.014,0.092,0.026,0.138,0.04C272.874,83.968,272.846,84.013,272.817,84.058z"/>
			<path fill-rule="evenodd" clip-rule="evenodd" fill="#02583F" d="M196.103,11.889c-0.09-0.065-0.181-0.131-0.27-0.196
				C195.922,11.758,196.013,11.823,196.103,11.889z"/>
			<path fill-rule="evenodd" clip-rule="evenodd" fill="#1D4095" d="M46.548,154.982c0.924-0.414,1.835-0.857,2.771-1.238
				c5.855-2.378,11.894-4.149,18.1-5.336c2.67-0.511,5.361-0.889,8.066-1.174c4.35-0.459,8.709-0.621,13.075-0.465
				c2.238,0.08,4.473,0.288,6.705,0.47c2.563,0.208,5.099,0.616,7.627,1.077c5.981,1.091,11.801,2.751,17.465,4.959
				c1.224,0.477,2.429,1.002,3.641,1.509c0.106,0.045,0.198,0.125,0.296,0.188c-0.112,1.549-0.232,3.098-0.336,4.647
				c-0.128,1.937-0.243,3.875-0.365,5.813c-0.12,1.908-0.24,3.816-0.361,5.725c-0.117,1.848-0.236,3.695-0.354,5.544
				c-0.122,1.938-0.243,3.876-0.365,5.813c-0.118,1.879-0.237,3.758-0.356,5.635c-0.12,1.908-0.239,3.816-0.36,5.725
				c-0.119,1.877-0.238,3.756-0.358,5.635c-0.119,1.877-0.251,3.756-0.355,5.635c-0.104,1.881-0.384,3.736-0.721,5.59
				c-0.833,4.584-2.298,8.959-4.34,13.141c-1.805,3.695-4.03,7.121-6.663,10.287c-2.886,3.469-6.169,6.502-9.848,9.111
				c-4.1,2.908-8.536,5.152-13.29,6.777c-0.538,0.184-1.025,0.17-1.565-0.012c-4.159-1.398-8.07-3.303-11.74-5.703
				c-3.57-2.334-6.801-5.072-9.687-8.217c-1.416-1.545-2.739-3.162-3.962-4.865c-2.598-3.609-4.685-7.494-6.274-11.648
				c-1.081-2.824-1.92-5.717-2.461-8.688c-0.319-1.76-0.55-3.539-0.741-5.318c-0.146-1.363-0.165-2.744-0.244-4.117
				c-0.063-1.072-0.124-2.146-0.197-3.219c-0.154-2.266-0.323-4.529-0.47-6.793c-0.094-1.432-0.154-2.865-0.234-4.297
				c-0.06-1.043-0.126-2.088-0.194-3.131c-0.104-1.551-0.217-3.098-0.315-4.648c-0.081-1.282-0.144-2.565-0.22-3.849
				c-0.057-0.954-0.119-1.908-0.186-2.861c-0.094-1.341-0.206-2.68-0.29-4.021c-0.092-1.461-0.155-2.925-0.238-4.387
				c-0.058-1.015-0.125-2.027-0.192-3.041c-0.104-1.58-0.208-3.159-0.319-4.738C46.654,155.992,46.596,155.487,46.548,154.982z
				 M112.775,223.215c-0.527,0.049-0.937,0.371-1.378,0.607c-2.36,1.27-4.843,1.639-7.462,1.033
				c-0.998-0.23-1.934-0.611-2.825-1.111c-2.189-1.227-4.518-1.68-7.006-1.248c-1.313,0.229-2.514,0.729-3.68,1.359
				c-2.267,1.227-4.668,1.588-7.203,1.039c-1.124-0.244-2.157-0.688-3.158-1.234c-2.475-1.354-5.083-1.67-7.811-0.955
				c-0.99,0.26-1.889,0.732-2.795,1.197c-3.262,1.666-6.539,1.672-9.812,0.012c-0.399-0.203-0.789-0.424-1.19-0.625
				c-0.146-0.07-0.31-0.105-0.563-0.189c0.076,0.223,0.097,0.338,0.151,0.434c0.618,1.094,1.248,2.18,1.862,3.273
				c0.17,0.305,0.402,0.488,0.729,0.617c1.914,0.758,3.879,0.949,5.897,0.564c1.185-0.227,2.283-0.676,3.339-1.26
				c2.495-1.383,5.132-1.711,7.892-0.973c0.929,0.248,1.789,0.658,2.633,1.119c1.887,1.031,3.897,1.455,6.05,1.244
				c1.578-0.154,3.008-0.688,4.396-1.432c3.199-1.715,6.455-1.756,9.728-0.188c0.432,0.207,0.839,0.463,1.272,0.664
				c2.683,1.246,5.416,1.332,8.195,0.344c0.441-0.158,0.775-0.395,1.005-0.826c0.479-0.895,1.01-1.764,1.504-2.652
				c0.128-0.229,0.197-0.49,0.293-0.738c0.012-0.061,0.023-0.121,0.034-0.182C112.841,223.145,112.809,223.18,112.775,223.215z
				 M69.785,190.816c-0.239,0.295-0.413,0.498-0.573,0.711c-4.719,6.293-9.438,12.586-14.154,18.881
				c-1.137,1.516-1.14,1.537-0.765,3.352c1.417,6.867,8.961,10.426,15.165,7.158c0.396-0.209,0.788-0.432,1.196-0.615
				c2.107-0.955,4.29-1.211,6.561-0.709c1.122,0.25,2.15,0.699,3.155,1.244c2.475,1.342,5.085,1.654,7.813,0.941
				c0.961-0.25,1.84-0.689,2.712-1.156c2.303-1.232,4.73-1.59,7.291-1.012c1.059,0.242,2.038,0.66,2.989,1.178
				c3.059,1.662,6.23,1.879,9.397,0.432c3.736-1.707,5.767-4.697,6.177-8.791c0.056-0.555-0.102-0.982-0.449-1.393
				c-0.31-0.363-0.581-0.76-0.868-1.143c-4.631-6.172-9.261-12.344-13.895-18.514c-0.134-0.178-0.297-0.334-0.472-0.527
				c-0.161,0.205-0.273,0.346-0.381,0.488c-1.793,2.393-3.585,4.787-5.382,7.178c-0.132,0.176-0.297,0.326-0.506,0.551
				c-1.581-3.166-3.109-6.238-4.652-9.305c-1.554-3.09-3.072-6.199-4.708-9.375c-0.209,0.398-0.362,0.68-0.505,0.967
				c-2.808,5.611-5.613,11.225-8.425,16.836c-0.138,0.275-0.23,0.59-0.531,0.857C73.906,196.297,71.88,193.602,69.785,190.816z
				 M107.872,231.154c-0.558,0-0.946-0.012-1.333,0c-1.902,0.066-3.669-0.41-5.33-1.316c-0.314-0.172-0.627-0.35-0.953-0.498
				c-2.018-0.922-4.12-1.16-6.302-0.773c-1.191,0.211-2.299,0.635-3.347,1.232c-1.289,0.736-2.673,1.197-4.151,1.324
				c-2.234,0.191-4.315-0.283-6.295-1.367c-3.402-1.861-6.868-1.879-10.28-0.033c-1.923,1.041-3.928,1.564-6.107,1.42
				c-0.224-0.016-0.447-0.002-0.805-0.002c0.195,0.262,0.306,0.43,0.434,0.58c0.582,0.684,1.154,1.377,1.757,2.041
				c5.447,6.012,12.003,10.367,19.62,13.143c0.448,0.164,0.842,0.174,1.291,0.008c2.104-0.779,4.162-1.66,6.149-2.703
				c5.904-3.1,10.964-7.234,15.174-12.406C107.538,231.625,107.665,231.436,107.872,231.154z M86.678,167.843
				c-0.535-0.833-0.717-1.754-1.288-2.541c-0.216,0.48-0.396,0.891-0.586,1.295c-0.188,0.4-0.301,0.841-0.611,1.214
				c-0.896,0.019-1.783-0.208-2.804-0.196c0.599,0.824,1.121,1.543,1.645,2.265c-0.438,0.848-1.152,1.462-1.564,2.37
				c0.978-0.091,1.863-0.173,2.78-0.258c0.388,0.858,0.754,1.671,1.146,2.537c0.577-0.787,0.739-1.73,1.279-2.53
				c0.44,0.035,0.885,0.065,1.327,0.108c0.442,0.042,0.884,0.097,1.415,0.155c-0.45-0.912-1.129-1.561-1.587-2.368
				c0.459-0.635,0.9-1.235,1.332-1.844c0.088-0.124,0.136-0.276,0.232-0.477C88.442,167.667,87.583,167.753,86.678,167.843z
				 M100.462,152.958c-1.103,0.099-1.986,0.178-2.879,0.258c-0.332-0.738-0.632-1.418-0.944-2.093
				c-0.063-0.136-0.173-0.249-0.292-0.416c-0.401,0.884-0.768,1.691-1.124,2.479c-0.955,0.069-1.817-0.289-2.804-0.123
				c0.563,0.787,1.075,1.504,1.578,2.208c-0.483,0.848-1.156,1.492-1.586,2.371c0.963-0.101,1.849-0.192,2.79-0.291
				c0.38,0.834,0.756,1.654,1.2,2.627c0.448-0.98,0.826-1.809,1.197-2.624c0.956,0.097,1.841,0.187,2.807,0.284
				c-0.474-0.881-1.123-1.552-1.604-2.366C99.321,154.548,99.838,153.828,100.462,152.958z M70.519,157.626
				c0.957-0.093,1.831-0.179,2.753-0.269c0.389,0.853,0.77,1.687,1.172,2.57c0.556-0.841,0.739-1.809,1.283-2.567
				c0.921,0.092,1.796,0.18,2.817,0.282c-0.621-0.862-1.157-1.605-1.698-2.355c0.553-0.759,1.074-1.478,1.639-2.253
				c-0.994-0.129-1.888,0.23-2.813,0.15c-0.484-0.785-0.68-1.702-1.24-2.498c-0.4,0.876-0.771,1.687-1.139,2.492
				c-0.93,0.1-1.796-0.284-2.776-0.122c0.477,0.82,1.099,1.469,1.544,2.26c-0.271,0.383-0.539,0.74-0.785,1.111
				C71.034,156.791,70.695,157.099,70.519,157.626z"/>
			<path fill-rule="evenodd" clip-rule="evenodd" fill="#8DC640" d="M256.078,197.693c0,0.748,0.019,1.498-0.004,2.244
				c-0.058,2.002-0.254,3.992-0.503,5.979c-0.411,3.297-1.09,6.533-1.969,9.732c-0.864,3.148-1.966,6.207-3.284,9.189
				c-1.612,3.648-3.565,7.105-5.881,10.357c-3.491,4.896-7.656,9.1-12.737,12.357c-4.195,2.693-8.725,4.559-13.626,5.514
				c-1.938,0.379-3.883,0.666-5.861,0.717c-0.866,0.021-1.731,0.121-2.597,0.104c-5.31-0.105-10.438-1.096-15.342-3.184
				c-4.215-1.793-8.047-4.197-11.55-7.145c-3.594-3.023-6.702-6.488-9.43-10.297c-4.283-5.98-7.459-12.518-9.691-19.516
				c-1.136-3.561-1.996-7.188-2.551-10.887c-0.39-2.604-0.684-5.211-0.724-7.846c-0.011-0.775-0.114-1.555-0.075-2.328
				c0.109-2.176,0.165-4.354,0.415-6.525c0.408-3.541,1.086-7.019,2.031-10.449c1.421-5.151,3.432-10.06,6.052-14.719
				c1.484-2.639,3.152-5.151,5.032-7.523c4.026-5.077,8.778-9.296,14.549-12.313c3.548-1.854,7.289-3.116,11.238-3.798
				c2.996-0.517,6.01-0.653,9.026-0.459c4.927,0.316,9.675,1.451,14.21,3.426c4.594,2,8.711,4.731,12.44,8.067
				c4.409,3.944,8.018,8.536,11.035,13.605c2.92,4.903,5.152,10.11,6.804,15.569c0.9,2.975,1.608,5.996,2.107,9.064
				c0.34,2.094,0.632,4.191,0.732,6.313c0.075,1.584,0.157,3.164,0.235,4.748C256.134,197.691,256.106,197.691,256.078,197.693z
				 M212.43,237.795c1.559,0.012,3.102-0.117,4.643-0.352c2.647-0.404,5.18-1.172,7.604-2.299c4.537-2.109,8.264-5.248,11.38-9.123
				c3.16-3.928,5.471-8.33,7.127-13.086c1.112-3.195,1.894-6.467,2.345-9.822c0.275-2.047,0.428-4.098,0.466-6.16
				c0.032-1.734-0.133-3.459-0.289-5.186c-0.188-2.088-0.547-4.145-1.015-6.182c-1.193-5.186-3.089-10.103-5.791-14.697
				c-2.257-3.84-4.96-7.318-8.307-10.285c-2.637-2.339-5.533-4.266-8.761-5.695c-3.395-1.504-6.955-2.339-10.65-2.582
				c-2.184-0.145-4.366-0.017-6.521,0.362c-3.234,0.57-6.281,1.686-9.127,3.332c-4.268,2.468-7.718,5.822-10.586,9.799
				c-2.984,4.136-5.142,8.679-6.629,13.548c-0.742,2.43-1.294,4.9-1.652,7.418c-0.229,1.6-0.39,3.203-0.464,4.813
				c-0.107,2.361,0.017,4.717,0.291,7.068c0.198,1.693,0.454,3.375,0.821,5.035c1.254,5.641,3.306,10.975,6.296,15.93
				c2.888,4.787,6.445,8.98,11.004,12.27C199.933,235.736,205.845,237.787,212.43,237.795z"/>
			<path fill-rule="evenodd" clip-rule="evenodd" fill="#8DC640" d="M145.009,76.067c-0.024,5.529-1.193,10.791-3.514,15.801
				c-1.542,3.332-3.526,6.379-5.899,9.175c-4.132,4.867-9.058,8.76-14.605,11.887c-4.023,2.268-8.234,4.101-12.642,5.48
				c-3.223,1.009-6.494,1.803-9.834,2.323c-2.187,0.34-4.378,0.575-6.585,0.722c-1.585,0.105-3.168,0.15-4.75,0.1
				c-1.491-0.046-2.982-0.153-4.469-0.295c-1.515-0.146-3.024-0.341-4.531-0.557c-2.662-0.381-5.28-0.984-7.867-1.707
				c-4.994-1.395-9.797-3.283-14.381-5.712c-4.376-2.318-8.466-5.056-12.186-8.337c-3.68-3.247-6.888-6.892-9.467-11.075
				c-2.646-4.292-4.485-8.896-5.382-13.868c-0.266-1.471-0.493-2.943-0.539-4.44c-0.034-1.104-0.124-2.209-0.119-3.313
				c0.007-1.854,0.205-3.693,0.464-5.53c0.457-3.243,1.347-6.361,2.61-9.377c1.382-3.301,3.197-6.35,5.399-9.168
				c2.838-3.633,6.174-6.741,9.913-9.426c5.939-4.266,12.489-7.249,19.498-9.26c2.784-0.799,5.61-1.416,8.478-1.848
				c2.454-0.37,4.912-0.66,7.396-0.718c1.165-0.027,2.331-0.129,3.493-0.098c1.611,0.043,3.221,0.159,4.829,0.284
				c1.159,0.089,2.315,0.23,3.472,0.369c1.928,0.23,3.833,0.587,5.729,1.005c4.18,0.921,8.249,2.192,12.198,3.841
				c5.8,2.421,11.204,5.515,16.073,9.512c4.051,3.325,7.582,7.118,10.43,11.53c2.717,4.208,4.646,8.753,5.749,13.637
				c0.395,1.746,0.707,3.513,0.805,5.308C144.843,73.564,144.93,74.815,145.009,76.067z M84.925,36.811
				c-1.563-0.07-3.678,0.144-5.781,0.415c-2.487,0.322-4.938,0.846-7.353,1.544c-4.655,1.347-9.044,3.273-13.075,5.972
				c-4.412,2.952-8.106,6.603-10.773,11.232c-2.296,3.985-3.487,8.296-3.726,12.874c-0.097,1.854,0.034,3.699,0.292,5.542
				c0.4,2.865,1.236,5.595,2.465,8.203c2.125,4.515,5.225,8.282,9.006,11.497c4.186,3.56,8.909,6.219,14.029,8.191
				c5.196,2.003,10.575,3.156,16.132,3.467c2.692,0.15,5.382-0.011,8.054-0.359c2.457-0.321,4.879-0.833,7.265-1.522
				c6.312-1.823,12.088-4.663,17.117-8.933c3.771-3.203,6.776-6.992,8.734-11.564c1.355-3.167,2.054-6.48,2.157-9.92
				c0.035-1.135-0.014-2.267-0.116-3.402c-0.131-1.432-0.34-2.848-0.667-4.242c-1.268-5.391-3.89-10.061-7.607-14.134
				c-3.448-3.776-7.526-6.727-12.053-9.068c-3.007-1.556-6.144-2.798-9.397-3.732C95.009,37.543,90.304,36.802,84.925,36.811z"/>
			<path fill-rule="evenodd" clip-rule="evenodd" fill="#8DC640" d="M238.853,116.453c-0.607,0.955-1.158,1.953-1.834,2.857
				c-2.667,3.571-6.059,6.253-10.134,8.065c-2.111,0.938-4.313,1.577-6.592,1.961c-1.92,0.325-3.851,0.516-5.796,0.467
				c-1.73-0.044-3.453-0.199-5.172-0.449c-3.469-0.504-6.851-1.351-10.16-2.488c-5.716-1.966-11.038-4.717-16.031-8.111
				c-3.371-2.291-6.527-4.847-9.499-7.637c-4.161-3.907-7.84-8.224-11.021-12.955c-3.504-5.212-6.294-10.78-8.184-16.784
				c-0.897-2.852-1.548-5.757-1.998-8.715c-0.413-2.708-0.505-5.43-0.275-8.14c0.472-5.59,2.37-10.652,6.039-14.961
				c1.89-2.22,4.055-4.14,6.641-5.543c0.239,0.172,0.471,0.358,0.72,0.516c2.645,1.66,5.304,3.301,7.935,4.982
				c1.254,0.8,2.455,1.678,3.682,2.521c-0.307,0.184-0.608,0.377-0.922,0.549c-1.343,0.738-2.572,1.641-3.688,2.686
				c-3.462,3.248-5.343,7.299-5.864,11.971c-0.248,2.229-0.188,4.483,0.178,6.708c0.633,3.851,1.784,7.547,3.419,11.09
				c2.323,5.037,5.41,9.567,9.15,13.652c2.001,2.186,4.167,4.2,6.492,6.046c5.109,4.057,10.716,7.165,16.982,9.045
				c2.494,0.748,5.035,1.286,7.631,1.477c2.239,0.166,4.472,0.033,6.681-0.463c5.313-1.193,9.449-4.034,12.312-8.687
				c0.358-0.582,0.692-1.178,1.038-1.769c1.092,1.527,2.219,3.03,3.267,4.587c1.551,2.302,3.046,4.644,4.567,6.965
				C238.544,116.093,238.705,116.269,238.853,116.453z"/>
			<path fill-rule="evenodd" clip-rule="evenodd" fill="#02583E" d="M177.172,52.04c-1.227-0.844-2.428-1.722-3.682-2.521
				c-2.631-1.682-5.29-3.322-7.935-4.982c-0.249-0.157-0.48-0.344-0.72-0.516c1.08-0.764,2.285-1.29,3.494-1.801
				c2.63-1.111,5.371-1.808,8.202-2.182c5.397-0.713,10.677-0.13,15.875,1.385c7.864,2.291,15.026,5.991,21.608,10.84
				c8.218,6.055,15.012,13.423,20.294,22.165c3.107,5.143,5.515,10.594,7.104,16.4c1.108,4.044,1.59,8.156,1.335,12.338
				c-0.27,4.409-1.358,8.608-3.426,12.532c-0.138,0.261-0.313,0.504-0.47,0.755c-0.147-0.185-0.309-0.36-0.438-0.557
				c-1.521-2.321-3.017-4.663-4.567-6.965c-1.048-1.557-2.175-3.06-3.267-4.587c0.041-0.141,0.07-0.288,0.129-0.422
				c2.077-4.703,2.363-9.584,1.391-14.569c-0.706-3.626-1.997-7.062-3.626-10.369c-2.868-5.829-6.722-10.931-11.415-15.407
				c-4.209-4.012-8.902-7.33-14.161-9.815c-4.263-2.014-8.68-3.529-13.428-3.904c-3.198-0.252-6.325,0.081-9.375,1.064
				C179.103,51.241,178.145,51.663,177.172,52.04z"/>
			<path fill-rule="evenodd" clip-rule="evenodd" fill="#ED4238" d="M46.548,154.982c0.048,0.505,0.106,1.01,0.142,1.516
				c0.111,1.579,0.216,3.158,0.319,4.738c0.067,1.014,0.135,2.026,0.192,3.041c0.083,1.462,0.146,2.926,0.238,4.387
				c0.084,1.341,0.196,2.68,0.29,4.021c0.066,0.953,0.129,1.907,0.186,2.861c0.076,1.283,0.139,2.566,0.22,3.849
				c0.099,1.551,0.212,3.098,0.315,4.648c0.068,1.043,0.135,2.088,0.194,3.131c0.08,1.432,0.141,2.865,0.234,4.297
				c0.146,2.264,0.315,4.527,0.47,6.793c0.073,1.072,0.135,2.146,0.197,3.219c0.079,1.373,0.099,2.754,0.244,4.117
				c0.191,1.779,0.422,3.559,0.741,5.318c0.541,2.971,1.38,5.863,2.461,8.688c1.59,4.154,3.677,8.039,6.274,11.648
				c1.223,1.703,2.546,3.32,3.962,4.865c2.886,3.145,6.116,5.883,9.687,8.217c3.67,2.4,7.581,4.305,11.74,5.703
				c0.54,0.182,1.027,0.195,1.565,0.012c4.754-1.625,9.19-3.869,13.29-6.777c3.679-2.609,6.962-5.643,9.848-9.111
				c2.633-3.166,4.858-6.592,6.663-10.287c2.042-4.182,3.507-8.557,4.34-13.141c0.337-1.854,0.616-3.709,0.721-5.59
				c0.104-1.879,0.236-3.758,0.355-5.635c0.12-1.879,0.239-3.758,0.358-5.635c0.121-1.908,0.24-3.816,0.36-5.725
				c0.119-1.877,0.238-3.756,0.356-5.635c0.122-1.938,0.243-3.875,0.365-5.813c0.117-1.849,0.236-3.696,0.354-5.544
				c0.121-1.908,0.241-3.816,0.361-5.725c0.122-1.938,0.237-3.877,0.365-5.813c0.104-1.55,0.224-3.099,0.336-4.647
				c1.014,0.282,1.903,0.838,2.903,1.263c-0.036,0.867-0.056,1.701-0.108,2.533c-0.079,1.253-0.194,2.504-0.272,3.757
				c-0.15,2.417-0.274,4.837-0.427,7.254c-0.145,2.297-0.317,4.593-0.468,6.89c-0.083,1.284-0.137,2.569-0.22,3.851
				c-0.16,2.508-0.332,5.014-0.497,7.52c-0.064,0.984-0.129,1.969-0.187,2.953c-0.144,2.449-0.275,4.896-0.428,7.344
				c-0.166,2.656-0.304,5.314-0.54,7.965c-0.312,3.49-0.97,6.922-1.965,10.283c-2.22,7.506-5.853,14.252-10.965,20.18
				c-6.728,7.797-15.018,13.254-24.811,16.439c-0.597,0.193-1.137,0.203-1.74,0.008c-6.968-2.266-13.264-5.73-18.842-10.492
				c-5.91-5.045-10.534-11.08-13.873-18.092c-2.144-4.504-3.641-9.217-4.468-14.141c-0.353-2.096-0.598-4.199-0.711-6.322
				c-0.118-2.238-0.301-4.473-0.451-6.711c-0.067-0.982-0.129-1.969-0.187-2.953c-0.086-1.463-0.157-2.926-0.251-4.389
				c-0.146-2.268-0.307-4.535-0.458-6.803c-0.068-1.014-0.132-2.027-0.192-3.043c-0.145-2.447-0.277-4.896-0.432-7.343
				c-0.141-2.237-0.307-4.475-0.458-6.711c-0.068-1.014-0.134-2.028-0.191-3.044c-0.086-1.492-0.159-2.986-0.249-4.479
				c-0.047-0.774-0.119-1.547-0.177-2.284C44.225,155.93,45.514,155.307,46.548,154.982z"/>
			<path fill-rule="evenodd" clip-rule="evenodd" fill="#045A41" d="M65.589,269.969c-1.158,0.373-2.207,0.781-3.322,1.055
				c-0.076-0.15-0.131-0.252-0.182-0.355c-0.483-0.994-1.266-1.666-2.299-2.012c-0.647-0.217-1.321-0.404-1.997-0.479
				c-1.399-0.154-2.81-0.182-4.194,0.141c-0.46,0.105-0.915,0.281-1.337,0.494c-0.283,0.143-0.548,0.375-0.742,0.629
				c-0.528,0.688-0.381,1.477,0.37,1.908c0.408,0.236,0.865,0.434,1.323,0.527c1.345,0.275,2.702,0.492,4.054,0.73
				c1.353,0.238,2.71,0.451,4.055,0.727c0.852,0.174,1.647,0.525,2.395,0.98c1.731,1.051,2.399,2.682,2.126,4.668
				c-0.229,1.656-1.13,2.861-2.563,3.691c-1.212,0.703-2.546,1.049-3.915,1.195c-2.18,0.232-4.359,0.205-6.507-0.318
				c-1.14-0.277-2.222-0.697-3.204-1.352c-1.122-0.75-1.984-1.717-2.511-2.971c-0.044-0.105-0.06-0.223-0.107-0.404
				c1.104-0.406,2.206-0.732,3.348-1.057c0.098,0.139,0.191,0.25,0.263,0.375c0.639,1.115,1.586,1.865,2.798,2.252
				c2.251,0.717,4.525,0.736,6.798,0.102c0.551-0.154,1.062-0.406,1.488-0.799c0.879-0.811,0.831-1.842-0.172-2.479
				c-0.47-0.299-1.015-0.531-1.558-0.65c-1.077-0.236-2.175-0.379-3.266-0.553c-1.474-0.232-2.971-0.33-4.418-0.721
				c-0.898-0.242-1.751-0.586-2.548-1.082c-3.005-1.867-2.576-6.008-0.063-7.619c1.185-0.762,2.497-1.133,3.868-1.326
				c2.03-0.287,4.057-0.215,6.07,0.16c1.272,0.238,2.482,0.648,3.568,1.381C64.335,267.566,65.122,268.578,65.589,269.969z"/>
			<path fill-rule="evenodd" clip-rule="evenodd" fill="#045A40" d="M157.667,265.607c1.296,0,2.485,0,3.779,0
				c3.864,4.168,7.78,8.391,11.715,12.635c0.282-0.215,0.195-0.469,0.196-0.68c0.006-2.99,0.005-5.982,0.005-8.973
				c0-0.775-0.004-1.553,0.001-2.332c0.002-0.203,0.032-0.406,0.05-0.625c0.153-0.021,0.268-0.053,0.382-0.053
				c0.955-0.006,1.909-0.004,2.916-0.004c0.028,0.236,0.072,0.432,0.072,0.629c0.005,5.563,0.004,11.125,0.002,16.688
				c0,0.203-0.032,0.408-0.051,0.643c-1.075,0-2.116,0-3.219,0c-4.091-4.369-8.171-8.803-12.429-13.348
				c-0.003,1.65-0.005,3.1-0.007,4.549c-0.002,1.434,0,2.869,0,4.305c0,1.465,0,2.926,0,4.377c-0.613,0.184-2.031,0.219-3.299,0.092
				c-0.021-0.021-0.046-0.039-0.062-0.064c-0.017-0.023-0.031-0.051-0.031-0.078c-0.009-0.27-0.021-0.537-0.021-0.805
				C157.666,276.943,157.667,271.322,157.667,265.607z"/>
			<path fill-rule="evenodd" clip-rule="evenodd" fill="#8FC743" d="M168.088,304.586c-1.135,0.377-2.179,0.723-3.224,1.07
				c-0.083-0.09-0.163-0.143-0.195-0.217c-0.636-1.459-1.87-2.148-3.326-2.459c-1.739-0.369-3.505-0.391-5.254-0.029
				c-0.462,0.096-0.907,0.291-1.342,0.48c-0.213,0.094-0.401,0.26-0.572,0.424c-0.614,0.592-0.732,1.719,0.375,2.211
				c0.621,0.277,1.281,0.51,1.95,0.633c1.583,0.293,3.183,0.508,4.775,0.758c1.416,0.223,2.84,0.432,4.145,1.074
				c0.506,0.248,1.015,0.529,1.447,0.887c1.263,1.039,1.675,2.43,1.498,4.014c-0.214,1.928-1.295,3.229-2.991,4.07
				c-1.305,0.652-2.704,0.963-4.142,1.049c-1.163,0.068-2.339,0.084-3.499-0.002c-2.206-0.166-4.3-0.713-6.095-2.104
				c-0.871-0.674-1.529-1.51-1.952-2.523c-0.056-0.133-0.071-0.281-0.116-0.463c1.076-0.434,2.157-0.75,3.264-1.039
				c0.098,0.102,0.198,0.174,0.252,0.271c0.844,1.539,2.225,2.301,3.874,2.627c1.656,0.33,3.324,0.35,4.99,0.025
				c0.621-0.121,1.208-0.338,1.754-0.656c0.204-0.119,0.403-0.262,0.571-0.426c0.831-0.805,0.759-1.773-0.188-2.428
				c-0.626-0.432-1.348-0.664-2.084-0.783c-1.71-0.273-3.426-0.502-5.142-0.742c-1.519-0.211-3.003-0.537-4.34-1.326
				c-1.034-0.611-1.835-1.432-2.187-2.621c-0.483-1.637-0.045-3.818,1.856-5.131c0.851-0.59,1.811-0.92,2.807-1.139
				c1.885-0.414,3.786-0.453,5.704-0.24c1.348,0.15,2.658,0.406,3.896,0.963C166.25,301.559,167.456,302.729,168.088,304.586z"/>
			<path fill-rule="evenodd" clip-rule="evenodd" fill="#8FC743" d="M123.952,300.309c0.761-0.207,2.281-0.211,3.278-0.035
				c0.018,0.023,0.036,0.045,0.051,0.068c0.016,0.025,0.041,0.055,0.041,0.08c0.007,5.801,0.012,11.604,0.014,17.406
				c0,0.084-0.035,0.17-0.065,0.309c-0.517,0.119-1.053,0.041-1.581,0.055c-0.507,0.012-1.015,0.004-1.55,0.004
				c-4.131-4.396-8.203-8.834-12.469-13.377c0,4.57,0,8.922,0,13.254c-0.751,0.148-2.318,0.166-3.269,0.053
				c-0.021-0.02-0.05-0.035-0.066-0.061c-0.016-0.023-0.026-0.053-0.026-0.082c-0.011-5.771-0.02-11.543-0.026-17.314
				c0-0.115,0.026-0.23,0.047-0.404c0.331-0.039,0.649-0.1,0.969-0.107c0.688-0.016,1.376,0.006,2.064-0.01
				c0.385-0.01,0.681,0.107,0.948,0.398c1.52,1.648,3.055,3.283,4.58,4.928c0.772,0.832,1.533,1.676,2.305,2.508
				c1.461,1.582,2.924,3.162,4.39,4.736c0.074,0.082,0.173,0.137,0.366,0.285c0-2.232,0-4.348,0-6.463
				C123.952,304.453,123.951,302.367,123.952,300.309z"/>
			<path fill-rule="evenodd" clip-rule="evenodd" fill="#045A40" d="M99.292,283.996c-1.684-0.002-3.341-0.182-4.923-0.793
				c-3.311-1.281-5.162-3.711-5.68-7.207c-0.237-1.602-0.066-3.162,0.409-4.689c0.754-2.42,2.319-4.145,4.642-5.158
				c2.129-0.928,4.377-1.146,6.668-1.006c1.162,0.072,2.314,0.24,3.429,0.607c3.642,1.207,5.622,3.74,6.109,7.52
				c0.207,1.607,0.068,3.168-0.469,4.68c-1.066,3.002-3.256,4.785-6.282,5.592C101.805,283.912,101.053,283.965,99.292,283.996z
				 M99.264,280.928c1.235,0.01,2.443-0.141,3.6-0.607c1.789-0.725,2.933-2.018,3.401-3.889c0.211-0.844,0.283-1.711,0.202-2.582
				c-0.283-3.049-2.023-4.557-4.104-5.215c-2.056-0.648-4.128-0.654-6.17,0.025c-2.195,0.732-3.548,2.23-3.932,4.561
				c-0.152,0.926-0.141,1.84,0.022,2.76c0.373,2.123,1.556,3.572,3.558,4.365C96.942,280.783,98.091,280.928,99.264,280.928z"/>
			<path fill-rule="evenodd" clip-rule="evenodd" fill="#055A41" d="M152.837,265.639c0,1.006,0,1.932,0,2.852
				c-0.244,0.223-0.525,0.133-0.781,0.133c-3.56,0.008-7.12,0.004-10.681,0.004c-0.326,0-0.652,0-0.968,0
				c-0.158,0.678-0.175,3.152-0.026,4.102c1.172,0.064,2.36,0.021,3.549,0.029c1.166,0.008,2.334,0,3.5,0c1.194,0,2.39,0,3.569,0
				c0.182,0.625,0.207,1.957,0.063,3.008c-1.174,0.096-2.36,0.031-3.548,0.043c-1.195,0.012-2.393-0.006-3.59,0.004
				c-1.188,0.01-2.376-0.045-3.601,0.041c0,1.535,0,3.02,0,4.527c0.297,0.205,0.635,0.111,0.949,0.111
				c3.65,0.008,7.301,0.004,10.95,0.006c0.292,0.002,0.583,0.021,0.879,0.033c0.033,0.135,0.071,0.217,0.071,0.301
				c0.005,0.865,0.003,1.73,0.003,2.645c-0.192,0.033-0.358,0.088-0.524,0.088c-5.146,0.004-10.292,0.004-15.438,0.002
				c-0.118,0-0.236-0.02-0.398-0.033c-0.029-0.172-0.082-0.34-0.082-0.508c-0.004-5.654-0.004-11.309-0.002-16.965
				c0-0.115,0.018-0.232,0.032-0.414c0.207-0.023,0.402-0.068,0.598-0.068c4.936-0.004,9.872-0.004,14.81,0
				C152.395,265.578,152.619,265.619,152.837,265.639z"/>
			<path fill-rule="evenodd" clip-rule="evenodd" fill="#8FC743" d="M142.481,303.258c-4.021,0-7.846,0-11.664,0
				c-0.331-0.512-0.146-1.031-0.179-1.521c-0.03-0.475-0.006-0.949-0.006-1.473c0.252-0.045,0.448-0.107,0.645-0.107
				c5.267-0.006,10.533-0.006,15.799-0.002c0.204,0,0.407,0.043,0.657,0.07c0.127,0.611,0.059,1.205,0.051,1.791
				c-0.002,0.133-0.105,0.275-0.189,0.395c-0.104,0.146-0.234,0.271-0.357,0.402c-1.479,1.564-2.965,3.125-4.441,4.693
				c-2.251,2.398-4.498,4.803-6.745,7.205c-0.08,0.086-0.145,0.184-0.218,0.277c0.133,0.283,0.371,0.152,0.55,0.154
				c3.561,0.008,7.122,0.006,10.683,0.008c0.321,0,0.644,0.012,1.005,0.018c0.092,1.018,0.061,1.961,0.025,2.859
				c-0.064,0.068-0.081,0.094-0.105,0.109c-0.023,0.016-0.055,0.031-0.081,0.031c-5.804,0.008-11.607,0.018-17.413,0.023
				c-0.115,0-0.23-0.023-0.414-0.047c-0.099-0.564-0.036-1.125-0.041-1.701c0.108-0.133,0.212-0.279,0.334-0.406
				c1.691-1.779,3.388-3.551,5.078-5.326c2.206-2.32,4.409-4.643,6.611-6.965C142.163,303.645,142.251,303.529,142.481,303.258z"/>
			<path fill-rule="evenodd" clip-rule="evenodd" fill="#045A40" d="M215.581,265.602c1.392,0,2.703,0,4.086,0
				c2.819,5.811,5.647,11.635,8.472,17.461c0.061,0.127,0.091,0.27,0.142,0.426c-0.124,0.033-0.204,0.074-0.285,0.074
				c-1.104,0.004-2.208,0.002-3.355,0.002c-0.63-1.367-1.251-2.717-1.884-4.088c-3.427,0-6.828,0-10.301,0
				c-0.687,1.275-1.222,2.668-1.892,3.99c-0.638,0.125-2.623,0.15-3.651,0.045c-0.008-0.029-0.017-0.055-0.022-0.084
				c-0.005-0.027-0.02-0.064-0.01-0.086C209.771,277.445,212.663,271.549,215.581,265.602z M217.675,268.555
				c-0.132,0.16-0.179,0.199-0.202,0.248c-1.119,2.375-2.237,4.752-3.348,7.131c-0.056,0.117-0.049,0.264-0.073,0.402
				c1.612,0.125,6.521,0.08,7.239-0.08C220.098,273.715,218.912,271.188,217.675,268.555z"/>
			<path fill-rule="evenodd" clip-rule="evenodd" fill="#045A40" d="M129.692,265.611c1.256,0,2.476,0,3.703,0
				c-0.201,0.703-7.878,16.457-8.731,17.924c-1.173,0-2.365,0-3.556,0c-0.444-0.633-8.436-17.182-8.647-17.922
				c1.228,0,2.444,0,3.668,0c2.233,4.676,4.459,9.334,6.688,13.99c0.009,0.018,0.056,0.016,0.144,0.039
				C125.199,274.975,127.444,270.295,129.692,265.611z"/>
			<path fill-rule="evenodd" clip-rule="evenodd" fill="#065B42" d="M70.56,265.574c1.047,0,1.998,0,2.948,0.004
				c0.173,0,0.346,0.027,0.557,0.047c0.099,1.012,0.035,1.992,0.047,2.973c0.011,0.957,0.002,1.914,0.002,2.869
				c0,0.988,0,1.975,0,2.963c0,0.955,0,1.912,0,2.869c0,0.984,0,1.969,0,2.943c0.328,0.248,0.67,0.141,0.983,0.141
				c3.678,0.01,7.356,0.008,11.034,0.008c0.293,0,0.587,0,0.935,0c0.087,1.074,0.052,2.074,0.024,3.066
				c-0.705,0.139-15.039,0.184-16.413,0.059c-0.022-0.021-0.048-0.039-0.064-0.063c-0.016-0.023-0.029-0.053-0.031-0.08
				c-0.01-0.119-0.021-0.236-0.021-0.355C70.56,277.248,70.56,271.479,70.56,265.574z"/>
			<path fill-rule="evenodd" clip-rule="evenodd" fill="#055A41" d="M191.087,283.35c0-1.105,0-2.145,0-3.256
				c0.565,0.1,1.084,0.186,1.601,0.283c1.394,0.268,2.793,0.273,4.195,0.113c0.206-0.025,0.409-0.084,0.611-0.137
				c1.55-0.41,2.276-1.266,2.4-2.838c0.033-0.416,0.04-0.838,0.041-1.256c0.002-3.229,0.001-6.461,0.001-9.691
				c0-0.295,0-0.59,0-0.93c0.619-0.119,1.182-0.047,1.739-0.061c0.564-0.012,1.13-0.002,1.746-0.002
				c0.025,0.238,0.065,0.436,0.065,0.635c0.005,3.648,0.001,7.297,0.005,10.947c0,0.902-0.124,1.787-0.398,2.648
				c-0.493,1.545-1.489,2.629-2.997,3.242c-0.953,0.389-1.95,0.578-2.966,0.65c-1.763,0.127-3.526,0.055-5.28-0.178
				C191.614,283.49,191.386,283.418,191.087,283.35z"/>
			<path fill-rule="evenodd" clip-rule="evenodd" fill="#055B41" d="M186.698,283.541c-1.177,0-2.277,0-3.429,0
				c-0.03-0.164-0.085-0.332-0.086-0.498c-0.004-5.652-0.003-11.303-0.002-16.955c0-0.143,0.019-0.285,0.033-0.492
				c1.171-0.039,2.295-0.012,3.368-0.018c0.068,0.084,0.089,0.105,0.105,0.131c0.015,0.023,0.034,0.051,0.034,0.078
				c0.005,5.77,0.01,11.541,0.013,17.313C186.735,283.215,186.717,283.33,186.698,283.541z"/>
			<path fill-rule="evenodd" clip-rule="evenodd" fill="#FEFEFF" d="M69.785,190.816c2.095,2.785,4.121,5.48,6.19,8.234
				c0.301-0.268,0.394-0.582,0.531-0.857c2.812-5.611,5.617-11.225,8.425-16.836c0.143-0.287,0.296-0.568,0.505-0.967
				c1.636,3.176,3.154,6.285,4.708,9.375c1.543,3.066,3.071,6.139,4.652,9.305c0.209-0.225,0.374-0.375,0.506-0.551
				c1.797-2.391,3.589-4.785,5.382-7.178c0.107-0.143,0.22-0.283,0.381-0.488c0.175,0.193,0.338,0.35,0.472,0.527
				c4.634,6.17,9.264,12.342,13.895,18.514c0.287,0.383,0.559,0.779,0.868,1.143c0.348,0.41,0.505,0.838,0.449,1.393
				c-0.41,4.094-2.44,7.084-6.177,8.791c-3.167,1.447-6.339,1.23-9.397-0.432c-0.951-0.518-1.931-0.936-2.989-1.178
				c-2.561-0.578-4.988-0.221-7.291,1.012c-0.872,0.467-1.751,0.906-2.712,1.156c-2.728,0.713-5.338,0.4-7.813-0.941
				c-1.005-0.545-2.033-0.994-3.155-1.244c-2.271-0.502-4.453-0.246-6.561,0.709c-0.408,0.184-0.8,0.406-1.196,0.615
				c-6.204,3.268-13.748-0.291-15.165-7.158c-0.375-1.814-0.372-1.836,0.765-3.352c4.717-6.295,9.436-12.588,14.154-18.881
				C69.372,191.314,69.546,191.111,69.785,190.816z"/>
			<path fill-rule="evenodd" clip-rule="evenodd" fill="#FEFEFE" d="M107.872,231.154c-0.207,0.281-0.334,0.471-0.479,0.648
				c-4.21,5.172-9.27,9.307-15.174,12.406c-1.987,1.043-4.045,1.924-6.149,2.703c-0.449,0.166-0.843,0.156-1.291-0.008
				c-7.617-2.775-14.173-7.131-19.62-13.143c-0.603-0.664-1.175-1.357-1.757-2.041c-0.128-0.15-0.238-0.318-0.434-0.58
				c0.357,0,0.581-0.014,0.805,0.002c2.18,0.145,4.185-0.379,6.107-1.42c3.412-1.846,6.878-1.828,10.28,0.033
				c1.979,1.084,4.061,1.559,6.295,1.367c1.479-0.127,2.862-0.588,4.151-1.324c1.048-0.598,2.155-1.021,3.347-1.232
				c2.182-0.387,4.284-0.148,6.302,0.773c0.326,0.148,0.639,0.326,0.953,0.498c1.661,0.906,3.428,1.383,5.33,1.316
				C106.926,231.143,107.314,231.154,107.872,231.154z"/>
			<path fill-rule="evenodd" clip-rule="evenodd" fill="#FBFBFD" d="M112.84,223.291c-0.096,0.248-0.165,0.51-0.293,0.738
				c-0.494,0.889-1.025,1.758-1.504,2.652c-0.229,0.432-0.563,0.668-1.005,0.826c-2.779,0.988-5.513,0.902-8.195-0.344
				c-0.434-0.201-0.841-0.457-1.272-0.664c-3.272-1.568-6.528-1.527-9.728,0.188c-1.389,0.744-2.818,1.277-4.396,1.432
				c-2.152,0.211-4.163-0.213-6.05-1.244c-0.844-0.461-1.704-0.871-2.633-1.119c-2.76-0.738-5.396-0.41-7.892,0.973
				c-1.056,0.584-2.154,1.033-3.339,1.26c-2.019,0.385-3.983,0.193-5.897-0.564c-0.326-0.129-0.559-0.313-0.729-0.617
				c-0.614-1.094-1.244-2.18-1.862-3.273c-0.055-0.096-0.075-0.211-0.151-0.434c0.253,0.084,0.417,0.119,0.563,0.189
				c0.401,0.201,0.791,0.422,1.19,0.625c3.272,1.66,6.55,1.654,9.812-0.012c0.906-0.465,1.805-0.938,2.795-1.197
				c2.728-0.715,5.336-0.398,7.811,0.955c1.001,0.547,2.034,0.99,3.158,1.234c2.535,0.549,4.937,0.188,7.203-1.039
				c1.166-0.631,2.367-1.131,3.68-1.359c2.488-0.432,4.816,0.021,7.006,1.248c0.892,0.5,1.827,0.881,2.825,1.111
				c2.619,0.605,5.102,0.236,7.462-1.033c0.441-0.236,0.851-0.559,1.378-0.607C112.798,223.24,112.819,223.266,112.84,223.291z"/>
			<path fill-rule="evenodd" clip-rule="evenodd" fill="#FAEB05" d="M86.678,167.843c0.905-0.09,1.765-0.176,2.716-0.27
				c-0.097,0.2-0.145,0.353-0.232,0.477c-0.432,0.608-0.873,1.209-1.332,1.844c0.458,0.808,1.137,1.456,1.587,2.368
				c-0.531-0.059-0.973-0.113-1.415-0.155c-0.442-0.043-0.887-0.073-1.327-0.108c-0.54,0.8-0.702,1.743-1.279,2.53
				c-0.392-0.866-0.758-1.679-1.146-2.537c-0.917,0.085-1.803,0.167-2.78,0.258c0.412-0.908,1.126-1.522,1.564-2.37
				c-0.523-0.722-1.046-1.44-1.645-2.265c1.021-0.012,1.907,0.215,2.804,0.196c0.311-0.373,0.424-0.813,0.611-1.214
				c0.19-0.404,0.37-0.814,0.586-1.295C85.961,166.089,86.143,167.01,86.678,167.843z"/>
			<path fill-rule="evenodd" clip-rule="evenodd" fill="#FAEB05" d="M100.462,152.958c-0.624,0.87-1.141,1.59-1.661,2.313
				c0.481,0.814,1.131,1.485,1.604,2.366c-0.966-0.098-1.851-0.188-2.807-0.284c-0.371,0.815-0.749,1.644-1.197,2.624
				c-0.444-0.973-0.82-1.793-1.2-2.627c-0.941,0.099-1.827,0.19-2.79,0.291c0.43-0.879,1.103-1.523,1.586-2.371
				c-0.503-0.704-1.015-1.421-1.578-2.208c0.986-0.166,1.849,0.192,2.804,0.123c0.356-0.787,0.723-1.595,1.124-2.479
				c0.119,0.167,0.229,0.28,0.292,0.416c0.313,0.675,0.612,1.354,0.944,2.093C98.476,153.136,99.359,153.057,100.462,152.958z"/>
			<path fill-rule="evenodd" clip-rule="evenodd" fill="#FAEB05" d="M70.519,157.626c0.177-0.527,0.516-0.835,0.757-1.198
				c0.246-0.371,0.514-0.729,0.785-1.111c-0.445-0.791-1.067-1.439-1.544-2.26c0.98-0.162,1.847,0.222,2.776,0.122
				c0.368-0.806,0.738-1.616,1.139-2.492c0.561,0.796,0.756,1.713,1.24,2.498c0.925,0.08,1.818-0.279,2.813-0.15
				c-0.564,0.775-1.086,1.494-1.639,2.253c0.541,0.75,1.077,1.493,1.698,2.355c-1.021-0.103-1.896-0.19-2.817-0.282
				c-0.544,0.759-0.728,1.727-1.283,2.567c-0.402-0.884-0.783-1.718-1.172-2.57C72.35,157.447,71.476,157.533,70.519,157.626z"/>
			<path fill-rule="evenodd" clip-rule="evenodd" fill="#FBFBFD" d="M112.775,223.215c0.033-0.035,0.065-0.07,0.099-0.105
				c-0.011,0.061-0.022,0.121-0.034,0.182C112.819,223.266,112.798,223.24,112.775,223.215z"/>
			<path fill-rule="evenodd" clip-rule="evenodd" fill="#FFFFFF" d="M212.43,237.795c-6.585-0.008-12.497-2.059-17.816-5.895
				c-4.559-3.289-8.116-7.482-11.004-12.27c-2.99-4.955-5.042-10.289-6.296-15.93c-0.367-1.66-0.623-3.342-0.821-5.035
				c-0.274-2.352-0.398-4.707-0.291-7.068c0.074-1.609,0.234-3.213,0.464-4.813c0.358-2.518,0.91-4.988,1.652-7.418
				c1.487-4.869,3.645-9.412,6.629-13.548c2.868-3.977,6.318-7.331,10.586-9.799c2.846-1.646,5.893-2.762,9.127-3.332
				c2.155-0.379,4.338-0.507,6.521-0.362c3.695,0.243,7.256,1.078,10.65,2.582c3.228,1.43,6.124,3.356,8.761,5.695
				c3.347,2.967,6.05,6.445,8.307,10.285c2.702,4.595,4.598,9.512,5.791,14.697c0.468,2.037,0.827,4.094,1.015,6.182
				c0.156,1.727,0.321,3.451,0.289,5.186c-0.038,2.063-0.19,4.113-0.466,6.16c-0.451,3.355-1.232,6.627-2.345,9.822
				c-1.656,4.756-3.967,9.158-7.127,13.086c-3.116,3.875-6.843,7.014-11.38,9.123c-2.424,1.127-4.956,1.895-7.604,2.299
				C215.531,237.678,213.988,237.807,212.43,237.795z"/>
			<path fill-rule="evenodd" clip-rule="evenodd" fill="#FFFFFF" d="M84.925,36.811c5.379-0.009,10.084,0.732,14.702,2.06
				c3.254,0.935,6.391,2.177,9.397,3.732c4.526,2.342,8.604,5.292,12.053,9.068c3.718,4.073,6.34,8.743,7.607,14.134
				c0.327,1.395,0.536,2.811,0.667,4.242c0.103,1.136,0.151,2.268,0.116,3.402c-0.104,3.439-0.802,6.753-2.157,9.92
				c-1.958,4.572-4.963,8.361-8.734,11.564c-5.029,4.27-10.806,7.109-17.117,8.933c-2.386,0.689-4.808,1.201-7.265,1.522
				c-2.672,0.349-5.361,0.51-8.054,0.359c-5.557-0.311-10.936-1.464-16.132-3.467c-5.12-1.973-9.844-4.632-14.029-8.191
				c-3.781-3.215-6.881-6.982-9.006-11.497c-1.229-2.608-2.064-5.338-2.465-8.203c-0.258-1.843-0.389-3.688-0.292-5.542
				c0.238-4.578,1.43-8.889,3.726-12.874c2.667-4.63,6.361-8.28,10.773-11.232c4.031-2.698,8.42-4.625,13.075-5.972
				c2.415-0.698,4.865-1.222,7.353-1.544C81.247,36.954,83.361,36.74,84.925,36.811z"/>
			<path fill-rule="evenodd" clip-rule="evenodd" fill="#FFFFFF" d="M177.172,52.04c0.973-0.377,1.931-0.799,2.924-1.118
				c3.05-0.983,6.177-1.316,9.375-1.064c4.748,0.375,9.165,1.891,13.428,3.904c5.259,2.485,9.952,5.804,14.161,9.815
				c4.693,4.477,8.547,9.578,11.415,15.407c1.629,3.308,2.92,6.743,3.626,10.369c0.973,4.985,0.687,9.866-1.391,14.569
				c-0.059,0.134-0.088,0.281-0.129,0.422c-0.346,0.591-0.68,1.187-1.038,1.769c-2.862,4.652-6.998,7.493-12.312,8.687
				c-2.209,0.496-4.441,0.629-6.681,0.463c-2.596-0.19-5.137-0.729-7.631-1.477c-6.267-1.88-11.873-4.988-16.982-9.045
				c-2.325-1.846-4.491-3.86-6.492-6.046c-3.74-4.085-6.827-8.615-9.15-13.652c-1.635-3.543-2.786-7.239-3.419-11.09
				c-0.365-2.225-0.426-4.479-0.178-6.708c0.521-4.672,2.402-8.723,5.864-11.971c1.115-1.045,2.345-1.947,3.688-2.686
				C176.563,52.417,176.865,52.224,177.172,52.04z"/>
			<path fill-rule="evenodd" clip-rule="evenodd" fill="#FDFEFD" d="M99.264,280.928c-1.173,0-2.321-0.145-3.423-0.582
				c-2.002-0.793-3.185-2.242-3.558-4.365c-0.163-0.92-0.175-1.834-0.022-2.76c0.384-2.33,1.736-3.828,3.932-4.561
				c2.042-0.68,4.114-0.674,6.17-0.025c2.081,0.658,3.821,2.166,4.104,5.215c0.081,0.871,0.009,1.738-0.202,2.582
				c-0.469,1.871-1.612,3.164-3.401,3.889C101.707,280.787,100.499,280.938,99.264,280.928z"/>
			<path fill-rule="evenodd" clip-rule="evenodd" fill="#FAFCFB" d="M217.675,268.555c1.237,2.633,2.423,5.16,3.616,7.701
				c-0.718,0.16-5.627,0.205-7.239,0.08c0.024-0.139,0.018-0.285,0.073-0.402c1.11-2.379,2.229-4.756,3.348-7.131
				C217.496,268.754,217.543,268.715,217.675,268.555z"/>
</svg>
