<?xml version="1.0" encoding="utf-8"?>
<!-- Generator: Adobe Illustrator 15.0.0, SVG Export Plug-In . SVG Version: 6.00 Build 0)  -->
<!DOCTYPE svg PUBLIC "-//W3C//DTD SVG 1.1//EN" "http://www.w3.org/Graphics/SVG/1.1/DTD/svg11.dtd">
<svg version="1.1" id="Layer_1" xmlns="http://www.w3.org/2000/svg" xmlns:xlink="http://www.w3.org/1999/xlink" x="0px" y="0px"
	 width="370.085665759" height="270.207709329" viewBox="0 0 684.817 500" enable-background="new 0 0 684.817 500" xml:space="preserve">
<path fill="#FFFFFF" d="M357.417,120.677c-57.333,0-103.983,46.667-103.983,104c0,57.349,46.65,103.982,103.983,103.982
	c57.351,0,104-46.633,104-103.982C461.417,167.344,414.768,120.677,357.417,120.677"/>
<path d="M409.11,120.611c38.221,19.058,64.538,58.535,64.538,104.067c0,64.083-52.13,116.249-116.23,116.249
	c-1.256,0-2.531-0.054-3.805-0.105c-0.838-0.018-1.658-0.07-2.479-0.104c-0.192-0.018-0.4-0.018-0.594-0.035H146.388
	c-0.017,0-0.017,0-0.017-0.018H47.54L0,453.333h353.106v-0.052c128.569-0.611,232.95-102.042,232.95-226.632
	c0-38.273-9.877-74.381-27.277-106.039H409.11z M351.031,0v0.018C222.304,0.472,117.714,101.972,117.714,226.65
	c0,38.202,12.67,73.962,32.949,105.306h162.06c-41.954-17.557-71.519-59.023-71.519-107.278c0-64.101,52.129-116.23,116.213-116.23
	c10.698,0,21.029,1.466,30.855,4.188h0.453l-0.018,0.052h165.533c0.018,0.018,0.018,0.035,0.035,0.052
	c-0.018-0.018-0.035-0.052-0.054-0.069h83.316L684.817,0H351.031z"/>
<path fill="#0094D4" d="M145.043,120.472h58.709l7.958-16.074h-56.928C151.327,109.616,148.081,114.991,145.043,120.472
	 M127.94,160.367h56.108l7.958-16.091h-58.272C131.606,149.564,129.668,154.922,127.94,160.367 M122.653,180.314h51.553
	l7.941-16.108h-55.393C125.183,169.495,123.822,174.852,122.653,180.314 M117.819,220.175h36.684l7.941-16.073h-43.561
	C118.325,209.407,117.976,214.765,117.819,220.175 M119.319,200.245h45.043l7.941-16.091h-50.436
	C120.82,189.459,119.965,194.817,119.319,200.245 M245.794,24.642c-9.616,4.747-18.848,10.14-27.661,16.074h25.026l7.958-16.074
	H245.794z M192.618,60.664h40.698l7.923-16.073h-28.638C205.637,49.581,198.953,54.957,192.618,60.664 M157.417,100.559h56.179
	l7.958-16.108h-51.867C165.358,89.634,161.256,94.992,157.417,100.559 M172.985,80.611h50.471l7.94-16.091H188.43
	C183.02,69.633,177.854,75.009,172.985,80.611 M135.34,140.419h58.569l7.94-16.073h-58.883
	C140.227,129.599,137.679,134.957,135.34,140.419 M14.241,419.564h41.745l7.958-16.073H21.03L14.241,419.564z M5.829,439.511h40.314
	l7.958-16.09H12.618L5.829,439.511z M22.67,399.634h43.194l7.923-16.092H29.459L22.67,399.634z M0,453.333h39.32l4.555-9.231H3.892
	L0,453.333z M125.584,278.709l7.313-14.8h-11.152C122.827,268.918,124.119,273.839,125.584,278.709 M31.083,379.704h44.625
	l7.958-16.09H37.854L31.083,379.704z M117.714,226.65c0,4.537,0.228,9.022,0.559,13.473h26.387l7.941-16.074h-34.852
	C117.731,224.922,117.714,225.777,117.714,226.65 M120.978,260.052h13.822l7.958-16.09h-24.137
	C119.145,249.407,119.948,254.765,120.978,260.052 M39.477,359.756H85.55l7.958-16.091H46.266L39.477,359.756z"/>
<path fill="#8BD0C0" d="M241.449,232.269h-27.034l-3.962,7.906h31.798C241.902,237.575,241.641,234.922,241.449,232.269
	 M241.868,212.322h-17.452l-3.979,7.905h20.873C241.396,217.575,241.588,214.939,241.868,212.322 M174.433,312.025l-3.961,7.906
	h120.453c-3.507-2.461-6.875-5.097-10.087-7.906H174.433z M262.81,292.077h-78.377L180.472,300h88.517
	C266.824,297.453,264.765,294.817,262.81,292.077 M251.361,272.13h-56.946l-3.961,7.922h64.834
	C253.875,277.469,252.548,274.834,251.361,272.13 M244.52,252.2h-40.087l-3.961,7.923h46.265
	C245.917,257.504,245.148,254.886,244.52,252.2 M270.419,120.559h35.462c6.58-3.281,13.508-5.934,20.716-7.923h-52.199
	L270.419,120.559z M286.649,132.583h-22.251l-3.979,7.888h17.015C280.367,137.697,283.438,135.044,286.649,132.583 M245.794,192.391
	h-11.379l-3.962,7.923h13.352C244.363,197.627,245.043,194.992,245.794,192.391 M253.648,172.444h-9.232l-3.979,7.923H250
	C251.117,177.662,252.338,175.044,253.648,172.444 M266.423,152.496h-12.024l-3.962,7.924h10.192
	C262.461,157.697,264.381,155.061,266.423,152.496 M120.489,419.616H257.33l3.421-7.904H124.45L120.489,419.616z M300.419,60.733
	h358.936l3.298-7.906H304.38L300.419,60.733z M110.506,439.564h138.167l3.438-7.923H114.468L110.506,439.564z M310.401,40.786
	h357.313l3.298-7.905H314.363L310.401,40.786z M280.419,100.611h362.198l3.316-7.923H284.38L280.419,100.611z M324.363,12.932
	l-3.962,7.923h355.672l3.315-7.923H324.363z M290.401,80.664h360.577l3.315-7.924H294.38L290.401,80.664z M130.489,399.687h135.497
	l3.438-7.906H134.45L130.489,399.687z M140.489,379.756h134.154l3.438-7.924H144.45L140.489,379.756z M150.471,359.808h132.845
	l3.42-7.922H154.451L150.471,359.808z M338.692,339.878l0.418-0.42L338.692,339.878z"/>
<path d="M357.417,119.005c-58.255,0-105.655,47.417-105.655,105.672c0,58.272,47.399,105.654,105.655,105.654
	c58.272,0,105.672-47.382,105.672-105.654C463.089,166.423,415.69,119.005,357.417,119.005 M357.749,319.686
	c-4.118,0.192-12.111-0.716-18.638-1.605l-21.379-36.946c2.583-4.031,5.236-7.888,7.697-11.186c1.675-2.199,4.433-5.794,7.469-9.651
	h48.516c1.292,2.827,2.67,5.549,3.997,7.574c2.479,3.875,6.945,8.917,11.029,13.334l-18.726,36.7
	C369.808,319.076,362.234,319.46,357.749,319.686 M320.419,135.952c3.159,1.972,9.965,6.125,15.236,8.778
	c5.951,2.967,17.347,7.313,20.995,8.673v27.993l-40.995,30.296c-2.321-0.837-5.079-1.885-8.325-3.124
	c-6.3-2.46-11.902-5.114-15.811-7.121l-5.062-42.269c0.908-0.89,1.85-1.798,2.757-2.583c3.281-2.932,14.346-11.274,20.768-15.288
	C312.339,139.843,316.335,137.854,320.419,135.952 M412.723,146.004c3.019,2.216,10.104,8.412,15.392,13.752l-4.031,42.234
	c-3.229,1.554-6.771,3.141-9.773,4.188c-5.218,1.815-10.645,3.229-16.194,4.241l-38.324-29.546V152.95l37.032-16.667
	C403.333,140.105,410.524,144.416,412.723,146.004 M452.513,233.072c-0.122,4.782-0.471,9.86-1.238,13.438
	c-1.258,5.811-5.428,14.973-7.365,18.586c-1.134,2.111-2.827,4.573-4.416,6.72l-40.209,7.817
	c-4.136-4.433-8.761-9.633-11.257-13.455c-1.431-2.217-2.949-5.322-4.328-8.464l16.004-44.381
	c5.357-1.029,10.575-2.426,15.637-4.188c3.055-1.082,6.579-2.635,9.809-4.188L452.513,233.072z M290.594,204.503
	c3.961,2.007,9.458,4.625,15.602,6.998l9.302,3.298l14.817,43.718c-3.02,3.84-5.76,7.364-7.383,9.546
	c-2.443,3.264-5.061,7.033-7.592,10.995l-39.79-6.544c-1.536-3.055-3.596-7.366-5.725-12.426
	c-3.542-8.377-6.248-19.146-7.138-25.865L290.594,204.503z M259.512,234.101c0.837,6.981,3.63,18.237,7.435,27.208
	c2.251,5.341,4.416,9.843,5.968,12.949l-1.693,5.794c-9.424-14.607-15.253-31.762-16.178-50.191L259.512,234.101z M441.816,273.98
	c1.71-2.305,3.577-5.026,4.851-7.384c1.833-3.385,6.282-12.948,7.679-19.406c0.891-4.049,1.223-9.703,1.345-14.886l4.17-3.735
	c-0.75,19.913-7.206,38.413-17.782,53.875L441.816,273.98z M437.801,161.135l-5.672-1.746c-5.55-5.846-14.118-13.402-17.574-15.933
	c-2.601-1.885-11.692-7.277-18.796-11.449l-1.169-2.845C411.693,135.847,426.58,146.981,437.801,161.135 M322.112,128.43
	l-2.355,4.363c-4.38,2.042-8.831,4.223-11.449,5.864c-6.195,3.875-17.365,12.199-21.187,15.585c-1.501,1.361-3.142,2.967-4.537,4.38
	l-5.462,2.443C288.744,146.423,304.258,135.009,322.112,128.43 M329.11,323.195l7.207-2.322c6.964,0.995,16.667,2.199,21.589,1.938
	c4.852-0.227,13.315-0.663,21.972-2.077l4.188,2.933c-8.498,2.285-17.416,3.525-26.648,3.525
	C347.609,327.191,338.115,325.777,329.11,323.195"/>
<polygon fill="#FFFFFF" points="527.645,195.219 544.66,195.184 530.89,205.184 536.196,221.344 522.426,211.362 508.673,221.397 
	513.927,205.201 500.14,195.253 517.173,195.236 522.374,179.041 "/>
<polygon fill="#FFFFFF" points="520.908,152.461 537.941,152.426 524.171,162.444 529.458,178.622 515.708,168.604 501.955,178.657 
	507.208,162.461 493.421,152.496 510.436,152.479 515.656,136.301 "/>
<polygon fill="#FFFFFF" points="528.029,236.179 545.043,236.144 531.292,246.144 536.597,262.322 522.81,252.321 509.093,262.357 
	514.329,246.161 500.542,236.213 517.557,236.196 522.757,220 "/>
<polygon fill="#FFFFFF" points="524.677,277.749 541.693,277.697 527.923,287.696 533.229,303.875 519.459,293.875 505.707,303.927 
	510.978,287.731 497.173,277.766 514.189,277.766 519.407,261.554 "/>
<polygon fill="#FFFFFF" points="503.892,314.346 520.908,314.31 507.138,324.311 512.444,340.489 498.674,330.472 484.939,340.524 
	490.193,324.329 476.406,314.381 493.421,314.364 498.622,298.167 "/>
<polygon fill="#FFFFFF" points="476.981,346.213 493.997,346.178 480.227,356.178 485.533,372.339 471.763,362.338 458.028,372.391 
	463.264,356.196 449.495,346.231 466.51,346.231 471.728,330.036 "/>
<polygon fill="#FFFFFF" points="437.609,370.542 454.625,370.507 440.855,380.524 446.144,396.667 432.391,386.684 418.656,396.72 
	423.91,380.542 410.105,370.577 427.122,370.559 432.339,354.38 "/>
<polygon fill="#FFFFFF" points="399.198,380.838 416.231,380.786 402.461,390.786 407.766,406.964 393.998,396.981 380.262,407.016 
	385.515,390.838 371.71,380.856 388.726,380.856 393.944,364.661 "/>
<polygon fill="#FFFFFF" points="357.452,383.42 374.468,383.369 360.715,393.368 366.022,409.547 352.234,399.546 338.499,409.599 
	343.752,393.404 329.948,383.438 346.963,383.438 352.182,367.226 "/>
<polygon fill="#FFFFFF" points="310.157,383.42 327.19,383.369 313.421,393.368 318.709,409.547 304.957,399.546 291.205,409.599 
	296.458,393.404 282.67,383.438 299.686,383.438 304.904,367.226 "/>
<path d="M10.401,465.237c-0.349-1.275-1.064-2.583-2.565-2.583c-1.204,0-2.251,0.872-2.251,2.128c0,3.648,8.673,1.274,8.673,8.15
	c0,2.252-1.693,5.619-6.248,5.619c-3.525,0-6.056-1.709-6.631-5.322l3.699-0.541c0.349,1.589,1.152,2.74,2.897,2.74
	c1.448,0,2.669-0.768,2.669-2.356c0-3.7-8.69-1.553-8.69-7.87c0-3.315,2.81-5.689,6.003-5.689c3.124,0,5.48,2.007,5.793,5.13
	L10.401,465.237z"/>
<path d="M15.952,471.624c0-3.542,1.937-6.929,5.846-6.929c3.892,0,5.829,3.387,5.829,6.929c0,3.525-1.972,6.928-5.829,6.928
	C17.906,478.551,15.952,475.149,15.952,471.624 M24.032,471.624c0-1.657-0.349-4.346-2.234-4.346c-1.92,0-2.234,2.688-2.234,4.346
	c0,1.658,0.314,4.346,2.234,4.346C23.683,475.969,24.032,473.282,24.032,471.624"/>
<rect x="29.861" y="459.792" width="3.525" height="18.481"/>
<path d="M35.584,471.624c0-3.542,1.955-6.929,5.847-6.929c3.892,0,5.847,3.387,5.847,6.929c0,3.525-1.972,6.928-5.847,6.928
	C37.574,478.551,35.584,475.149,35.584,471.624 M43.666,471.624c0-1.657-0.332-4.346-2.234-4.346s-2.234,2.688-2.234,4.346
	c0,1.658,0.332,4.346,2.234,4.346S43.666,473.282,43.666,471.624"/>
<path d="M52.984,466.353c1.117-0.926,2.496-1.658,3.979-1.658c1.64,0,2.722,0.594,3.385,1.815c1.222-0.977,2.479-1.815,4.119-1.815
	c2.059,0,3.717,1.361,3.717,3.962v9.616h-3.508v-8.377c0-1.047,0.07-2.374-1.414-2.374c-1.1,0-2.059,0.681-2.67,1.57v9.181h-3.508
	v-8.377c0-1.047,0.07-2.374-1.413-2.374c-1.1,0-2.077,0.681-2.688,1.57v9.181h-3.507v-13.299h3.507V466.353z"/>
<path d="M70.349,471.624c0-3.542,1.938-6.929,5.846-6.929c3.893,0,5.812,3.387,5.812,6.929c0,3.525-1.955,6.928-5.812,6.928
	C72.304,478.551,70.349,475.149,70.349,471.624 M78.43,471.624c0-1.657-0.349-4.346-2.234-4.346c-1.919,0-2.233,2.688-2.233,4.346
	c0,1.658,0.314,4.346,2.233,4.346C78.081,475.969,78.43,473.282,78.43,471.624"/>
<path d="M87.731,466.353c1.117-0.926,2.478-1.658,3.961-1.658c1.448,0,3.491,0.873,3.491,4.154v9.424h-3.525v-8.01
	c0-1.048,0.07-2.741-1.449-2.741c-1.012,0-1.815,0.733-2.478,1.432v9.319h-3.525v-13.299h3.525V466.353z"/>
<rect x="104.852" y="459.792" width="3.7" height="18.481"/>
<path d="M117.208,468.867c-0.174-0.926-0.471-1.589-1.519-1.589c-0.837,0-1.431,0.611-1.431,1.466c0,2.287,6.423,0.628,6.423,5.62
	c0,2.827-2.339,4.188-5.044,4.188c-2.723,0-4.451-1.308-4.817-4.065l3.299-0.367c0.07,0.961,0.559,1.851,1.641,1.851
	c0.872,0,1.71-0.401,1.71-1.414c0-2.338-6.439-0.437-6.439-5.619c0-2.67,2.286-4.241,4.886-4.241c2.339,0,4.224,1.483,4.608,3.771
	L117.208,468.867z"/>
<rect x="122.845" y="459.792" width="3.525" height="18.481"/>
<path d="M136.458,477.051c-1.309,0.942-2.094,1.5-3.805,1.5c-2.303,0-4.171-1.57-4.171-3.926c0-3.753,4.939-4.521,7.767-4.817
	c0.244-1.867-0.367-2.53-1.675-2.53c-1.117,0-1.938,0.507-2.129,1.658l-3.351-0.506c0.785-2.827,2.67-3.735,5.445-3.735
	c3.595,0,5.235,1.711,5.235,4.189v6.613c0,0.961,0.036,1.902,0.472,2.775h-3.421L136.458,477.051z M136.248,472.2
	c-1.449,0.262-4.328,0.401-4.328,2.355c0,0.768,0.384,1.414,1.222,1.414c1.449,0,2.443-0.855,3.106-1.729V472.2z"/>
<path d="M145.987,466.353c1.117-0.926,2.495-1.658,3.961-1.658c1.449,0,3.49,0.873,3.49,4.154v9.424h-3.508v-8.01
	c0-1.048,0.07-2.741-1.448-2.741c-1.029,0-1.833,0.733-2.495,1.432v9.319h-3.509v-13.299h3.509V466.353z"/>
<path d="M164.154,477.157c-1.082,0.959-1.902,1.395-3.368,1.395c-2.688,0-5.166-1.657-5.166-7.26c0-4.921,2.95-6.597,4.887-6.597
	c1.414,0,2.269,0.716,3.263,1.589v-6.492h3.525v18.481h-2.827L164.154,477.157z M161.414,467.47c-1.937,0-2.338,2.479-2.338,3.944
	c0,1.588,0.297,4.153,2.409,4.153c1.064,0,1.745-0.698,2.286-1.519v-5.131C163.142,468.168,162.444,467.47,161.414,467.47"/>
<path d="M175.899,468.867c-0.175-0.926-0.472-1.589-1.519-1.589c-0.837,0-1.413,0.611-1.413,1.466c0,2.287,6.422,0.628,6.422,5.62
	c0,2.827-2.356,4.188-5.062,4.188c-2.723,0-4.467-1.308-4.816-4.065l3.298-0.367c0.07,0.961,0.576,1.851,1.658,1.851
	c0.873,0,1.692-0.401,1.692-1.414c0-2.338-6.439-0.437-6.439-5.619c0-2.67,2.303-4.241,4.904-4.241c2.321,0,4.188,1.483,4.607,3.771
	L175.899,468.867z"/>
<polygon points="200.052,462.932 192.252,462.932 192.252,467.348 198.273,467.348 198.273,470.489 192.252,470.489 
	192.252,478.273 188.569,478.273 188.569,459.792 200.052,459.792 "/>
<path d="M200.646,471.624c0-3.542,1.937-6.929,5.847-6.929c3.892,0,5.829,3.387,5.829,6.929c0,3.525-1.955,6.928-5.829,6.928
	C202.618,478.551,200.646,475.149,200.646,471.624 M208.726,471.624c0-1.657-0.332-4.346-2.233-4.346
	c-1.903,0-2.234,2.688-2.234,4.346c0,1.658,0.332,4.346,2.234,4.346C208.395,475.969,208.726,473.282,208.726,471.624"/>
<path d="M214.049,471.624c0-3.542,1.938-6.929,5.847-6.929c3.892,0,5.829,3.387,5.829,6.929c0,3.525-1.972,6.928-5.829,6.928
	C216.004,478.551,214.049,475.149,214.049,471.624 M222.13,471.624c0-1.657-0.349-4.346-2.234-4.346
	c-1.902,0-2.234,2.688-2.234,4.346c0,1.658,0.332,4.346,2.234,4.346C221.781,475.969,222.13,473.282,222.13,471.624"/>
<path d="M231.815,464.974h2.723v2.915h-2.723v6.771c0,0.645,0.192,1.309,1.309,1.309c0.611,0,0.995-0.227,1.414-0.506v2.687
	c-0.733,0.21-1.501,0.401-2.252,0.401c-2.199,0-3.997-1.221-3.997-4.118v-6.544h-1.623v-2.915h1.623v-3.315h3.526V464.974z"/>
<path d="M236.371,459.792h3.507v6.492c0.995-0.873,1.85-1.589,3.281-1.589c1.92,0,4.852,1.676,4.852,6.597
	c0,5.603-2.461,7.26-5.148,7.26c-1.466,0-2.303-0.436-3.368-1.395l-0.314,1.116h-2.809V459.792z M239.878,474.416
	c0.541,0.82,1.239,1.554,2.269,1.554c2.112,0,2.444-2.618,2.444-4.206c0-1.466-0.419-3.944-2.356-3.944
	c-1.03,0-1.746,0.716-2.356,1.466V474.416z"/>
<path d="M257.592,477.051c-1.309,0.942-2.094,1.5-3.769,1.5c-2.304,0-4.171-1.57-4.171-3.926c0-3.753,4.921-4.521,7.749-4.817
	c0.245-1.867-0.384-2.53-1.675-2.53c-1.117,0-1.938,0.507-2.112,1.658l-3.385-0.506c0.785-2.827,2.688-3.735,5.48-3.735
	c3.56,0,5.218,1.711,5.218,4.189v6.613c0,0.961,0.052,1.902,0.471,2.775h-3.421L257.592,477.051z M257.4,472.2
	c-1.449,0.262-4.329,0.401-4.329,2.355c0,0.768,0.402,1.414,1.222,1.414c1.448,0,2.443-0.855,3.106-1.729V472.2z"/>
<rect x="263.666" y="459.792" width="3.525" height="18.481"/>
<rect x="269.896" y="459.792" width="3.508" height="18.481"/>
<polygon points="294.625,462.932 286.824,462.932 286.824,467.348 292.828,467.348 292.828,470.489 286.824,470.489 
	286.824,478.273 283.124,478.273 283.124,459.792 294.625,459.792 "/>
<path d="M298.761,472.461c-0.139,1.605,0.855,3.508,2.653,3.508c1.256,0,1.955-1.013,2.199-2.13l3.246,0.594
	c-0.75,2.618-3.281,4.118-5.794,4.118c-3.892,0-5.847-3.402-5.847-6.928c0-3.542,1.938-6.929,5.847-6.929
	c3.333,0,5.898,1.589,5.794,7.767H298.761z M303.438,470.245c0-1.501-0.593-2.967-2.287-2.967c-1.588,0-2.234,1.536-2.269,2.967
	H303.438z"/>
<path d="M317.155,477.157c-1.064,0.959-1.884,1.395-3.368,1.395c-2.688,0-5.148-1.657-5.148-7.26c0-4.921,2.949-6.597,4.852-6.597
	c1.431,0,2.286,0.716,3.298,1.589v-6.492h3.49v18.481h-2.81L317.155,477.157z M314.433,467.47c-1.955,0-2.356,2.479-2.356,3.944
	c0,1.588,0.314,4.153,2.426,4.153c1.047,0,1.728-0.698,2.286-1.519v-5.131C316.161,468.168,315.445,467.47,314.433,467.47"/>
<path d="M326.004,472.461c-0.123,1.605,0.855,3.508,2.67,3.508c1.238,0,1.937-1.013,2.199-2.13l3.246,0.594
	c-0.75,2.618-3.281,4.118-5.811,4.118c-3.875,0-5.847-3.402-5.847-6.928c0-3.542,1.955-6.929,5.847-6.929
	c3.351,0,5.916,1.589,5.811,7.767H326.004z M330.681,470.245c0-1.501-0.576-2.967-2.287-2.967c-1.588,0-2.233,1.536-2.268,2.967
	H330.681z"/>
<path d="M339.913,467.294c1.344-1.587,2.443-2.6,4.048-2.6h0.663v3.508c-0.331-0.069-0.663-0.139-1.011-0.139
	c-0.908,0-3.7,0.82-3.7,4.363v5.846h-3.525v-13.299h3.525V467.294z"/>
<path d="M353.717,477.051c-1.292,0.942-2.077,1.5-3.769,1.5c-2.305,0-4.172-1.57-4.172-3.926c0-3.753,4.922-4.521,7.748-4.817
	c0.228-1.867-0.384-2.53-1.675-2.53c-1.134,0-1.937,0.507-2.111,1.658l-3.386-0.506c0.785-2.827,2.688-3.735,5.479-3.735
	c3.578,0,5.218,1.711,5.218,4.189v6.613c0,0.961,0.053,1.902,0.454,2.775h-3.403L353.717,477.051z M353.525,472.2
	c-1.447,0.262-4.327,0.401-4.327,2.355c0,0.768,0.401,1.414,1.222,1.414c1.448,0,2.443-0.855,3.105-1.729V472.2z"/>
<path d="M363.665,464.974h2.724v2.915h-2.724v6.771c0,0.645,0.192,1.309,1.327,1.309c0.594,0,0.978-0.227,1.396-0.506v2.687
	c-0.733,0.21-1.501,0.401-2.251,0.401c-2.199,0-3.997-1.221-3.997-4.118v-6.544h-1.623v-2.915h1.623v-3.315h3.524V464.974z"/>
<path d="M371.747,463.02h-3.526v-3.229h3.526V463.02z M371.747,478.273h-3.526v-13.299h3.526V478.273z"/>
<path d="M373.909,471.624c0-3.542,1.956-6.929,5.848-6.929s5.847,3.387,5.847,6.929c0,3.525-1.99,6.928-5.847,6.928
	C375.881,478.551,373.909,475.149,373.909,471.624 M381.991,471.624c0-1.657-0.332-4.346-2.234-4.346
	c-1.903,0-2.234,2.688-2.234,4.346c0,1.658,0.331,4.346,2.234,4.346C381.659,475.969,381.991,473.282,381.991,471.624"/>
<path d="M391.309,466.353c1.1-0.926,2.479-1.658,3.962-1.658c1.448,0,3.49,0.873,3.49,4.154v9.424h-3.508v-8.01
	c0-1.048,0.052-2.741-1.466-2.741c-1.013,0-1.815,0.733-2.479,1.432v9.319h-3.524v-13.299h3.524V466.353z"/>
<polygon points="150.279,488.552 144.556,488.552 144.556,491.781 148.971,491.781 148.971,494.084 144.556,494.084 
	144.556,499.792 141.85,499.792 141.85,486.248 150.279,486.248 "/>
<path d="M150.96,494.921c0-2.6,1.431-5.096,4.292-5.096c2.862,0,4.276,2.496,4.276,5.096c0,2.583-1.431,5.079-4.276,5.079
	C152.409,500,150.96,497.504,150.96,494.921 M156.894,494.921c0-1.221-0.244-3.193-1.641-3.193c-1.396,0-1.623,1.973-1.623,3.193
	c0,1.223,0.228,3.194,1.623,3.194C156.649,498.116,156.894,496.144,156.894,494.921"/>
<path d="M166.824,498.796c-0.821,0.663-1.833,1.204-2.915,1.204c-1.047,0-2.548-0.646-2.548-3.036v-6.911h2.565v5.863
	c0,0.785-0.052,2.007,1.065,2.007c0.75,0,1.343-0.523,1.833-1.046v-6.824h2.583v9.738h-2.583V498.796z"/>
<path d="M174.154,491.048c0.82-0.681,1.85-1.223,2.915-1.223c1.064,0,2.565,0.646,2.565,3.072v6.894h-2.583v-5.865
	c0-0.785,0.052-2.023-1.047-2.023c-0.75,0-1.343,0.54-1.85,1.064v6.824h-2.565v-9.738h2.565V491.048z"/>
<path d="M187.714,498.988c-0.786,0.698-1.379,1.013-2.461,1.013c-1.972,0-3.77-1.204-3.77-5.322c0-3.612,2.147-4.853,3.561-4.853
	c1.047,0,1.675,0.524,2.408,1.169v-4.747h2.565v13.544h-2.059L187.714,498.988z M185.725,491.868c-1.431,0-1.728,1.815-1.728,2.897
	c0,1.169,0.245,3.036,1.78,3.036c0.768,0,1.257-0.488,1.675-1.1v-3.752C186.981,492.391,186.475,491.868,185.725,491.868"/>
<path d="M194.451,495.533c-0.087,1.187,0.628,2.583,1.954,2.583c0.925,0,1.431-0.75,1.623-1.588l2.374,0.453
	c-0.541,1.938-2.408,3.02-4.241,3.02c-2.845,0-4.293-2.496-4.293-5.079c0-2.6,1.431-5.096,4.293-5.096
	c2.443,0,4.311,1.169,4.241,5.707H194.451z M197.888,493.911c0-1.084-0.436-2.183-1.675-2.183c-1.169,0-1.623,1.152-1.675,2.183
	H197.888z"/>
<path d="M208.203,498.988c-0.785,0.698-1.396,1.013-2.496,1.013c-1.954,0-3.769-1.204-3.769-5.322c0-3.612,2.164-4.853,3.577-4.853
	c1.047,0,1.658,0.524,2.391,1.169v-4.747h2.583v13.544h-2.077L208.203,498.988z M206.196,491.868c-1.431,0-1.728,1.815-1.728,2.897
	c0,1.169,0.227,3.036,1.78,3.036c0.768,0,1.274-0.488,1.658-1.1v-3.752C207.47,492.391,206.946,491.868,206.196,491.868"/>
<polygon points="223.77,497.663 225.864,497.663 225.864,499.792 218.953,499.792 218.953,497.663 221.048,497.663 221.048,488.778 
	218.953,488.778 218.953,487.295 221.815,486.248 223.77,486.248 "/>
<path d="M230.332,496.458c0.419,0.769,0.89,1.257,1.815,1.257c1.658,0,2.391-1.937,2.356-3.315
	c-0.803,0.453-1.571,0.785-2.496,0.785c-1.675,0-4.102-1.273-4.102-4.328c0-3.316,2.688-4.816,4.468-4.816
	c2.548,0,5.043,1.867,5.043,6.876c0,4.816-2.391,7.085-5.235,7.085c-1.658,0-3.229-0.978-4.102-2.355L230.332,496.458z
	 M232.583,488.325c-1.379,0-2.007,1.117-2.007,2.392c0,1.064,0.611,2.182,1.798,2.182c0.925,0,1.57-0.455,2.216-1.047
	C234.625,490.524,234.258,488.325,232.583,488.325"/>
<polygon points="247.557,487.731 242.251,499.792 239.215,499.792 244.346,488.552 238.761,488.552 238.761,486.248 
	247.557,486.248 "/>
<path d="M251.204,496.458c0.437,0.769,0.89,1.257,1.833,1.257c1.641,0,2.374-1.937,2.339-3.315
	c-0.803,0.453-1.553,0.785-2.496,0.785c-1.675,0-4.101-1.273-4.101-4.328c0-3.316,2.688-4.816,4.467-4.816
	c2.565,0,5.044,1.867,5.044,6.876c0,4.816-2.391,7.085-5.219,7.085c-1.675,0-3.245-0.978-4.101-2.355L251.204,496.458z
	 M253.456,488.325c-1.379,0-2.007,1.117-2.007,2.392c0,1.064,0.61,2.182,1.797,2.182c0.925,0,1.571-0.455,2.217-1.047
	C255.498,490.524,255.149,488.325,253.456,488.325"/>
<path fill="#FFDD00" d="M223.456,80.611h66.981l6.509-13.002h-67.085L223.456,80.611z M213.596,100.559h66.858l6.51-13.001h-66.946
	L213.596,100.559z M193.91,140.419h66.544l6.51-12.966h-66.649L193.91,140.419z M203.752,120.489h66.684l6.527-12.985h-66.789
	L203.752,120.489z M233.316,60.664h67.138l6.509-12.967h-67.243L233.316,60.664z M133.403,299.948h47.086l6.493-12.967H128.29
	C129.843,291.361,131.553,295.689,133.403,299.948 M243.159,40.716h67.277l6.51-12.968h-67.382L243.159,40.716z M150.646,331.956
	h13.787l2.565-5.097h-19.582C148.464,328.57,149.546,330.262,150.646,331.956 M184.049,160.367h66.422l6.493-12.967h-66.492
	L184.049,160.367z M290.995,7.801c-12.792,3.351-25.166,7.679-36.998,12.984h66.439l6.492-12.984H290.995z M143.333,319.896h27.155
	l6.51-12.968H136.58C138.691,311.327,140.925,315.655,143.333,319.896 M65.846,399.669h64.643l6.51-12.985H72.252L65.846,399.669z
	 M55.969,419.6h64.538l6.509-12.968H62.392L55.969,419.6z M39.32,453.333h64.258l3.106-6.126H42.356L39.32,453.333z M46.125,439.546
	h64.381l6.492-12.966h-64.45L46.125,439.546z M85.533,359.791h64.956l6.51-13.001H91.955L85.533,359.791z M75.69,379.739h64.799
	l6.527-13.002H82.112L75.69,379.739z M144.66,240.14h65.812l6.509-12.985h-65.917L144.66,240.14z M164.346,200.262h66.125
	l6.51-13.002h-66.212L164.346,200.262z M154.502,220.192h65.969l6.51-12.984h-66.074L154.502,220.192z M174.188,180.314h66.266
	l6.51-12.984h-66.353L174.188,180.314z M134.782,260.071h65.689l6.509-12.967h-65.777L134.782,260.071z M125.584,278.709
	c0.14,0.453,0.262,0.872,0.385,1.308h64.502l6.527-12.983h-65.637L125.584,278.709z"/>
</svg>
