<?xml version="1.0" encoding="UTF-8" standalone="no"?>
<!-- Created with Inkscape (http://www.inkscape.org/) -->

<svg
   width="64.389496mm"
   height="83.778641mm"
   viewBox="0 0 64.389496 83.778641"
   version="1.1"
   id="svg1"
   inkscape:version="1.4.2 (f4327f4, 2025-05-13)"
   sodipodi:docname="Football Federation of Sri Lanka logo.svg"
   xmlns:inkscape="http://www.inkscape.org/namespaces/inkscape"
   xmlns:sodipodi="http://sodipodi.sourceforge.net/DTD/sodipodi-0.dtd"
   xmlns="http://www.w3.org/2000/svg"
   xmlns:svg="http://www.w3.org/2000/svg">
  <sodipodi:namedview
     id="namedview1"
     pagecolor="#ffffff"
     bordercolor="#000000"
     borderopacity="0.25"
     inkscape:showpageshadow="2"
     inkscape:pageopacity="0.0"
     inkscape:pagecheckerboard="0"
     inkscape:deskcolor="#d1d1d1"
     inkscape:document-units="mm"
     inkscape:zoom="0.72604517"
     inkscape:cx="185.25018"
     inkscape:cy="161.83566"
     inkscape:window-width="1920"
     inkscape:window-height="1017"
     inkscape:window-x="-8"
     inkscape:window-y="-8"
     inkscape:window-maximized="1"
     inkscape:current-layer="layer1" />
  <defs
     id="defs1">
    <clipPath
       clipPathUnits="userSpaceOnUse"
       id="clipPath29830">
      <path
         d="m 915.445,140.988 h 28.504 v 37.082 h -28.504 z"
         transform="matrix(1.3333333,0,0,1.3333333,1608,0)"
         id="path29830" />
    </clipPath>
    <clipPath
       clipPathUnits="userSpaceOnUse"
       id="clipPath29828">
      <path
         d="M 0,0 H 1191 V 842 H 0 Z"
         id="path29828" />
    </clipPath>
    <clipPath
       clipPathUnits="userSpaceOnUse"
       id="clipPath29833">
      <path
         d="m 915.434,140.988 h 28.527 v 37.082 h -28.527 z"
         transform="matrix(1.3333333,0,0,1.3333333,1608,0)"
         id="path29833" />
    </clipPath>
    <clipPath
       clipPathUnits="userSpaceOnUse"
       id="clipPath29831">
      <path
         d="M 0,0 H 1191 V 842 H 0 Z"
         id="path29831" />
    </clipPath>
    <clipPath
       clipPathUnits="userSpaceOnUse"
       id="clipPath29836">
      <path
         d="m 915.434,140.988 h 28.527 v 37.082 h -28.527 z"
         transform="matrix(1.3333333,0,0,1.3333333,1608,0)"
         id="path29836" />
    </clipPath>
    <clipPath
       clipPathUnits="userSpaceOnUse"
       id="clipPath29834">
      <path
         d="M 0,0 H 1191 V 842 H 0 Z"
         id="path29834" />
    </clipPath>
    <clipPath
       clipPathUnits="userSpaceOnUse"
       id="clipPath29839">
      <path
         d="m 915.434,140.988 h 28.527 v 37.082 h -28.527 z"
         transform="matrix(1.3333333,0,0,1.3333333,1608,0)"
         id="path29839" />
    </clipPath>
    <clipPath
       clipPathUnits="userSpaceOnUse"
       id="clipPath29837">
      <path
         d="M 0,0 H 1191 V 842 H 0 Z"
         id="path29837" />
    </clipPath>
    <clipPath
       clipPathUnits="userSpaceOnUse"
       id="clipPath29842">
      <path
         d="m 915.434,140.988 h 28.527 v 37.082 h -28.527 z"
         transform="matrix(1.3333333,0,0,1.3333333,1608,0)"
         id="path29842" />
    </clipPath>
    <clipPath
       clipPathUnits="userSpaceOnUse"
       id="clipPath29840">
      <path
         d="M 0,0 H 1191 V 842 H 0 Z"
         id="path29840" />
    </clipPath>
    <clipPath
       clipPathUnits="userSpaceOnUse"
       id="clipPath29845">
      <path
         d="m 915.434,140.988 h 28.527 v 37.082 h -28.527 z"
         transform="matrix(1.3333333,0,0,1.3333333,1608,0)"
         id="path29845" />
    </clipPath>
    <clipPath
       clipPathUnits="userSpaceOnUse"
       id="clipPath29843">
      <path
         d="M 0,0 H 1191 V 842 H 0 Z"
         id="path29843" />
    </clipPath>
    <clipPath
       clipPathUnits="userSpaceOnUse"
       id="clipPath29848">
      <path
         d="m 915.434,140.988 h 28.527 v 37.082 h -28.527 z"
         transform="matrix(1.3333333,0,0,1.3333333,1608,0)"
         id="path29848" />
    </clipPath>
    <clipPath
       clipPathUnits="userSpaceOnUse"
       id="clipPath29846">
      <path
         d="M 0,0 H 1191 V 842 H 0 Z"
         id="path29846" />
    </clipPath>
    <clipPath
       clipPathUnits="userSpaceOnUse"
       id="clipPath29851">
      <path
         d="m 915.434,140.988 h 28.527 v 37.082 h -28.527 z"
         transform="matrix(1.3333333,0,0,1.3333333,1608,0)"
         id="path29851" />
    </clipPath>
    <clipPath
       clipPathUnits="userSpaceOnUse"
       id="clipPath29849">
      <path
         d="M 0,0 H 1191 V 842 H 0 Z"
         id="path29849" />
    </clipPath>
    <clipPath
       clipPathUnits="userSpaceOnUse"
       id="clipPath29854">
      <path
         d="m 915.434,140.988 h 28.527 v 37.082 h -28.527 z"
         transform="matrix(1.3333333,0,0,1.3333333,1608,0)"
         id="path29854" />
    </clipPath>
    <clipPath
       clipPathUnits="userSpaceOnUse"
       id="clipPath29852">
      <path
         d="M 0,0 H 1191 V 842 H 0 Z"
         id="path29852" />
    </clipPath>
    <clipPath
       clipPathUnits="userSpaceOnUse"
       id="clipPath29857">
      <path
         d="m 915.434,140.988 h 28.527 v 37.082 h -28.527 z"
         transform="matrix(1.3333333,0,0,1.3333333,1608,0)"
         id="path29857" />
    </clipPath>
    <clipPath
       clipPathUnits="userSpaceOnUse"
       id="clipPath29855">
      <path
         d="M 0,0 H 1191 V 842 H 0 Z"
         id="path29855" />
    </clipPath>
    <clipPath
       clipPathUnits="userSpaceOnUse"
       id="clipPath29860">
      <path
         d="m 915.434,140.988 h 28.527 v 37.082 h -28.527 z"
         transform="matrix(1.3333333,0,0,1.3333333,1608,0)"
         id="path29860" />
    </clipPath>
    <clipPath
       clipPathUnits="userSpaceOnUse"
       id="clipPath29858">
      <path
         d="M 0,0 H 1191 V 842 H 0 Z"
         id="path29858" />
    </clipPath>
    <clipPath
       clipPathUnits="userSpaceOnUse"
       id="clipPath29863">
      <path
         d="m 915.434,140.988 h 28.527 v 37.082 h -28.527 z"
         transform="matrix(1.3333333,0,0,1.3333333,1608,0)"
         id="path29863" />
    </clipPath>
    <clipPath
       clipPathUnits="userSpaceOnUse"
       id="clipPath29861">
      <path
         d="M 0,0 H 1191 V 842 H 0 Z"
         id="path29861" />
    </clipPath>
    <clipPath
       clipPathUnits="userSpaceOnUse"
       id="clipPath29866">
      <path
         d="m 915.434,140.988 h 28.527 v 37.082 h -28.527 z"
         transform="matrix(1.3333333,0,0,1.3333333,1608,0)"
         id="path29866" />
    </clipPath>
    <clipPath
       clipPathUnits="userSpaceOnUse"
       id="clipPath29864">
      <path
         d="M 0,0 H 1191 V 842 H 0 Z"
         id="path29864" />
    </clipPath>
    <clipPath
       clipPathUnits="userSpaceOnUse"
       id="clipPath29869">
      <path
         d="m 915.434,140.988 h 28.527 v 37.082 h -28.527 z"
         transform="matrix(1.3333333,0,0,1.3333333,1608,0)"
         id="path29869" />
    </clipPath>
    <clipPath
       clipPathUnits="userSpaceOnUse"
       id="clipPath29867">
      <path
         d="M 0,0 H 1191 V 842 H 0 Z"
         id="path29867" />
    </clipPath>
    <clipPath
       clipPathUnits="userSpaceOnUse"
       id="clipPath29872">
      <path
         d="m 915.434,140.988 h 28.527 v 37.082 h -28.527 z"
         transform="matrix(1.3333333,0,0,1.3333333,1608,0)"
         id="path29872" />
    </clipPath>
    <clipPath
       clipPathUnits="userSpaceOnUse"
       id="clipPath29870">
      <path
         d="M 0,0 H 1191 V 842 H 0 Z"
         id="path29870" />
    </clipPath>
    <clipPath
       clipPathUnits="userSpaceOnUse"
       id="clipPath29875">
      <path
         d="m 915.434,140.988 h 28.527 v 37.082 h -28.527 z"
         transform="matrix(1.3333333,0,0,1.3333333,1608,0)"
         id="path29875" />
    </clipPath>
    <clipPath
       clipPathUnits="userSpaceOnUse"
       id="clipPath29873">
      <path
         d="M 0,0 H 1191 V 842 H 0 Z"
         id="path29873" />
    </clipPath>
    <clipPath
       clipPathUnits="userSpaceOnUse"
       id="clipPath29878">
      <path
         d="m 915.434,140.988 h 28.527 v 37.082 h -28.527 z"
         transform="matrix(1.3333333,0,0,1.3333333,1608,0)"
         id="path29878" />
    </clipPath>
    <clipPath
       clipPathUnits="userSpaceOnUse"
       id="clipPath29876">
      <path
         d="M 0,0 H 1191 V 842 H 0 Z"
         id="path29876" />
    </clipPath>
    <clipPath
       clipPathUnits="userSpaceOnUse"
       id="clipPath29881">
      <path
         d="m 915.434,140.988 h 28.527 v 37.082 h -28.527 z"
         transform="matrix(1.3333333,0,0,1.3333333,1608,0)"
         id="path29881" />
    </clipPath>
    <clipPath
       clipPathUnits="userSpaceOnUse"
       id="clipPath29879">
      <path
         d="M 0,0 H 1191 V 842 H 0 Z"
         id="path29879" />
    </clipPath>
    <clipPath
       clipPathUnits="userSpaceOnUse"
       id="clipPath29884">
      <path
         d="m 915.434,140.988 h 28.527 v 37.082 h -28.527 z"
         transform="matrix(1.3333333,0,0,1.3333333,1608,0)"
         id="path29884" />
    </clipPath>
    <clipPath
       clipPathUnits="userSpaceOnUse"
       id="clipPath29882">
      <path
         d="M 0,0 H 1191 V 842 H 0 Z"
         id="path29882" />
    </clipPath>
    <clipPath
       clipPathUnits="userSpaceOnUse"
       id="clipPath29887">
      <path
         d="m 915.434,140.988 h 28.527 v 37.082 h -28.527 z"
         transform="matrix(1.3333333,0,0,1.3333333,1608,0)"
         id="path29887" />
    </clipPath>
    <clipPath
       clipPathUnits="userSpaceOnUse"
       id="clipPath29885">
      <path
         d="M 0,0 H 1191 V 842 H 0 Z"
         id="path29885" />
    </clipPath>
    <clipPath
       clipPathUnits="userSpaceOnUse"
       id="clipPath29890">
      <path
         d="m 915.434,140.988 h 28.527 v 37.082 h -28.527 z"
         transform="matrix(1.3333333,0,0,1.3333333,1608,0)"
         id="path29890" />
    </clipPath>
    <clipPath
       clipPathUnits="userSpaceOnUse"
       id="clipPath29888">
      <path
         d="M 0,0 H 1191 V 842 H 0 Z"
         id="path29888" />
    </clipPath>
    <clipPath
       clipPathUnits="userSpaceOnUse"
       id="clipPath29893">
      <path
         d="m 915.434,140.988 h 28.527 v 37.082 h -28.527 z"
         transform="matrix(1.3333333,0,0,1.3333333,1608,0)"
         id="path29893" />
    </clipPath>
    <clipPath
       clipPathUnits="userSpaceOnUse"
       id="clipPath29891">
      <path
         d="M 0,0 H 1191 V 842 H 0 Z"
         id="path29891" />
    </clipPath>
    <clipPath
       clipPathUnits="userSpaceOnUse"
       id="clipPath29896">
      <path
         d="m 915.434,140.988 h 28.527 v 37.082 h -28.527 z"
         transform="matrix(1.3333333,0,0,1.3333333,1608,0)"
         id="path29896" />
    </clipPath>
    <clipPath
       clipPathUnits="userSpaceOnUse"
       id="clipPath29894">
      <path
         d="M 0,0 H 1191 V 842 H 0 Z"
         id="path29894" />
    </clipPath>
    <clipPath
       clipPathUnits="userSpaceOnUse"
       id="clipPath29899">
      <path
         d="m 915.434,140.988 h 28.527 v 37.082 h -28.527 z"
         transform="matrix(1.3333333,0,0,1.3333333,1608,0)"
         id="path29899" />
    </clipPath>
    <clipPath
       clipPathUnits="userSpaceOnUse"
       id="clipPath29897">
      <path
         d="M 0,0 H 1191 V 842 H 0 Z"
         id="path29897" />
    </clipPath>
    <clipPath
       clipPathUnits="userSpaceOnUse"
       id="clipPath29902">
      <path
         d="m 915.434,140.988 h 28.527 v 37.082 h -28.527 z"
         transform="matrix(1.3333333,0,0,1.3333333,1608,0)"
         id="path29902" />
    </clipPath>
    <clipPath
       clipPathUnits="userSpaceOnUse"
       id="clipPath29900">
      <path
         d="M 0,0 H 1191 V 842 H 0 Z"
         id="path29900" />
    </clipPath>
    <clipPath
       clipPathUnits="userSpaceOnUse"
       id="clipPath29905">
      <path
         d="m 915.434,140.988 h 28.527 v 37.082 h -28.527 z"
         transform="matrix(1.3333333,0,0,1.3333333,1608,0)"
         id="path29905" />
    </clipPath>
    <clipPath
       clipPathUnits="userSpaceOnUse"
       id="clipPath29903">
      <path
         d="M 0,0 H 1191 V 842 H 0 Z"
         id="path29903" />
    </clipPath>
    <clipPath
       clipPathUnits="userSpaceOnUse"
       id="clipPath29908">
      <path
         d="m 915.434,140.988 h 28.527 v 37.082 h -28.527 z"
         transform="matrix(1.3333333,0,0,1.3333333,1608,0)"
         id="path29908" />
    </clipPath>
    <clipPath
       clipPathUnits="userSpaceOnUse"
       id="clipPath29906">
      <path
         d="M 0,0 H 1191 V 842 H 0 Z"
         id="path29906" />
    </clipPath>
    <clipPath
       clipPathUnits="userSpaceOnUse"
       id="clipPath29911">
      <path
         d="m 915.434,140.988 h 28.527 v 37.082 h -28.527 z"
         transform="matrix(1.3333333,0,0,1.3333333,1608,0)"
         id="path29911" />
    </clipPath>
    <clipPath
       clipPathUnits="userSpaceOnUse"
       id="clipPath29909">
      <path
         d="M 0,0 H 1191 V 842 H 0 Z"
         id="path29909" />
    </clipPath>
    <clipPath
       clipPathUnits="userSpaceOnUse"
       id="clipPath29914">
      <path
         d="m 915.434,140.988 h 28.527 v 37.082 h -28.527 z"
         transform="matrix(1.3333333,0,0,1.3333333,1608,0)"
         id="path29914" />
    </clipPath>
    <clipPath
       clipPathUnits="userSpaceOnUse"
       id="clipPath29912">
      <path
         d="M 0,0 H 1191 V 842 H 0 Z"
         id="path29912" />
    </clipPath>
    <clipPath
       clipPathUnits="userSpaceOnUse"
       id="clipPath29917">
      <path
         d="m 915.434,140.988 h 28.527 v 37.082 h -28.527 z"
         transform="matrix(1.3333333,0,0,1.3333333,1608,0)"
         id="path29917" />
    </clipPath>
    <clipPath
       clipPathUnits="userSpaceOnUse"
       id="clipPath29915">
      <path
         d="M 0,0 H 1191 V 842 H 0 Z"
         id="path29915" />
    </clipPath>
    <clipPath
       clipPathUnits="userSpaceOnUse"
       id="clipPath29920">
      <path
         d="m 915.434,140.988 h 28.527 v 37.082 h -28.527 z"
         transform="matrix(1.3333333,0,0,1.3333333,1608,0)"
         id="path29920" />
    </clipPath>
    <clipPath
       clipPathUnits="userSpaceOnUse"
       id="clipPath29918">
      <path
         d="M 0,0 H 1191 V 842 H 0 Z"
         id="path29918" />
    </clipPath>
    <clipPath
       clipPathUnits="userSpaceOnUse"
       id="clipPath29923">
      <path
         d="m 915.434,140.988 h 28.527 v 37.082 h -28.527 z"
         transform="matrix(1.3333333,0,0,1.3333333,1608,0)"
         id="path29923" />
    </clipPath>
    <clipPath
       clipPathUnits="userSpaceOnUse"
       id="clipPath29921">
      <path
         d="M 0,0 H 1191 V 842 H 0 Z"
         id="path29921" />
    </clipPath>
    <clipPath
       clipPathUnits="userSpaceOnUse"
       id="clipPath29926">
      <path
         d="m 915.434,140.988 h 28.527 v 37.082 h -28.527 z"
         transform="matrix(1.3333333,0,0,1.3333333,1608,0)"
         id="path29926" />
    </clipPath>
    <clipPath
       clipPathUnits="userSpaceOnUse"
       id="clipPath29924">
      <path
         d="M 0,0 H 1191 V 842 H 0 Z"
         id="path29924" />
    </clipPath>
    <clipPath
       clipPathUnits="userSpaceOnUse"
       id="clipPath29929">
      <path
         d="m 915.434,140.988 h 28.527 v 37.082 h -28.527 z"
         transform="matrix(1.3333333,0,0,1.3333333,1608,0)"
         id="path29929" />
    </clipPath>
    <clipPath
       clipPathUnits="userSpaceOnUse"
       id="clipPath29927">
      <path
         d="M 0,0 H 1191 V 842 H 0 Z"
         id="path29927" />
    </clipPath>
  </defs>
  <g
     inkscape:label="Layer 1"
     inkscape:groupmode="layer"
     id="layer1"
     transform="translate(-56.138312,-105.70445)">
    <g
       id="g1"
       transform="matrix(6.4042598,0,0,6.4042598,-753.81371,-809.30416)">
      <g
         id="g29829"
         clip-path="url(#clipPath29830)"
         transform="matrix(0.26458333,0,0,0.26458333,-621.92781,93.137567)">
        <path
           d="m 943.93,162.012 c 0,0.472 -0.004,0.945 -0.004,1.418 -0.004,0.75 0.004,1.504 -0.012,2.258 -0.008,0.394 0.012,0.789 -0.019,1.179 -0.071,0.926 -0.45,1.727 -1.008,2.457 -0.703,0.918 -1.567,1.68 -2.489,2.371 -1.199,0.895 -2.484,1.641 -3.808,2.325 -1.313,0.679 -2.633,1.339 -3.895,2.105 -0.968,0.59 -1.918,1.215 -2.843,1.871 -0.141,0.102 -0.164,0.102 -0.305,0 -1.492,-1.051 -3.055,-2 -4.664,-2.867 -0.727,-0.391 -1.453,-0.777 -2.184,-1.16 -0.726,-0.379 -1.445,-0.766 -2.14,-1.199 -1.141,-0.711 -2.231,-1.485 -3.184,-2.442 -0.594,-0.598 -1.137,-1.234 -1.496,-2.008 -0.199,-0.429 -0.344,-0.882 -0.356,-1.363 -0.031,-1.215 -0.035,-2.426 -0.039,-3.641 -0.004,-2.769 -0.011,-5.539 -0.015,-8.308 -0.004,-1.664 -0.004,-3.332 -0.008,-4.996 0,-1.129 -0.008,-2.262 -0.016,-3.391 0,-0.117 0.047,-0.195 0.153,-0.238 0.285,-0.113 0.547,-0.278 0.808,-0.438 1.504,-0.937 3.016,-1.855 4.61,-2.633 0.918,-0.445 1.851,-0.859 2.82,-1.195 0.344,-0.117 0.687,-0.254 1.039,-0.359 0.754,-0.219 1.516,-0.414 2.289,-0.543 0.57,-0.094 1.141,-0.184 1.723,-0.199 0.093,0 0.738,-0.032 0.863,-0.028 h 0.277 c 0.911,0 1.805,0.129 2.692,0.321 0.761,0.164 1.511,0.371 2.25,0.621 0.824,0.281 1.629,0.609 2.418,0.976 0.273,0.129 0.558,0.242 0.828,0.379 1.101,0.555 2.191,1.133 3.254,1.762 0.672,0.398 1.347,0.797 2.035,1.168 0.109,0.062 0.223,0.113 0.332,0.168 0.066,0.035 0.109,0.086 0.102,0.168 0,0.633 0,1.265 0,1.894 0,1.192 0,2.383 0,3.571 0,1.187 0,2.371 0,3.558 0,0.039 -0.012,0.078 0.007,0.117 v 0.02 c -0.019,0.039 -0.007,0.078 -0.007,0.117 0,1.731 0,3.461 0,5.192 0,0.078 0,0.156 0,0.23 0,0.172 0,0.344 0,0.52 -0.004,0.082 0.007,0.164 -0.008,0.242"
           style="fill:#28357c;fill-opacity:1;fill-rule:nonzero;stroke:none"
           transform="matrix(1.3333333,0,0,1.3333333,1608,0)"
           clip-path="url(#clipPath29828)"
           id="path29829" />
      </g>
      <g
         id="g29832"
         clip-path="url(#clipPath29833)"
         transform="matrix(0.26458333,0,0,0.26458333,-621.92781,93.137567)">
        <path
           d="m 943.93,161.031 c 0,-0.039 -0.004,-0.082 -0.004,-0.121 0,-1.707 0,-3.41 0,-5.121 0,-0.023 -0.016,-0.059 0.019,-0.078 v 5.32 c -0.004,0.008 -0.007,0.008 -0.015,0"
           style="fill:#d9dcee;fill-opacity:1;fill-rule:nonzero;stroke:none"
           transform="matrix(1.3333333,0,0,1.3333333,1608,0)"
           clip-path="url(#clipPath29831)"
           id="path29832" />
      </g>
      <g
         id="g29835"
         clip-path="url(#clipPath29836)"
         transform="matrix(0.26458333,0,0,0.26458333,-621.92781,93.137567)">
        <path
           d="m 943.945,155.691 c -0.023,-0.015 -0.019,-0.039 -0.019,-0.062 0.004,-1.203 0.004,-2.406 0.004,-3.609 0.004,-0.012 0.011,-0.008 0.015,0 z"
           style="fill:#515ea8;fill-opacity:1;fill-rule:nonzero;stroke:none"
           transform="matrix(1.3333333,0,0,1.3333333,1608,0)"
           clip-path="url(#clipPath29834)"
           id="path29835" />
      </g>
      <g
         id="g29838"
         clip-path="url(#clipPath29839)"
         transform="matrix(0.26458333,0,0,0.26458333,-621.92781,93.137567)">
        <path
           d="m 943.945,152.02 c -0.004,0 -0.011,0 -0.015,0 0,-0.852 0,-1.704 -0.004,-2.551 0,-0.34 0.004,-0.68 0.004,-1.024 0.004,-0.007 0.011,-0.007 0.015,0 z"
           style="fill:#4553a0;fill-opacity:1;fill-rule:nonzero;stroke:none"
           transform="matrix(1.3333333,0,0,1.3333333,1608,0)"
           clip-path="url(#clipPath29837)"
           id="path29838" />
      </g>
      <g
         id="g29841"
         clip-path="url(#clipPath29842)"
         transform="matrix(0.26458333,0,0,0.26458333,-621.92781,93.137567)">
        <path
           d="m 943.945,148.445 c -0.004,0 -0.011,0 -0.015,0 0,-0.644 0,-1.289 0,-1.933 0.008,0.004 0.011,0.004 0.015,0.008 z"
           style="fill:#374899;fill-opacity:1;fill-rule:nonzero;stroke:none"
           transform="matrix(1.3333333,0,0,1.3333333,1608,0)"
           clip-path="url(#clipPath29840)"
           id="path29841" />
      </g>
      <g
         id="g29844"
         clip-path="url(#clipPath29845)"
         transform="matrix(0.26458333,0,0,0.26458333,-621.92781,93.137567)">
        <path
           d="m 943.93,161.773 c 0,-0.175 0,-0.347 0,-0.523 0.008,-0.008 0.011,-0.008 0.015,0 v 0.523 c -0.004,0.008 -0.007,0.008 -0.015,0"
           style="fill:#d1d6eb;fill-opacity:1;fill-rule:nonzero;stroke:none"
           transform="matrix(1.3333333,0,0,1.3333333,1608,0)"
           clip-path="url(#clipPath29843)"
           id="path29844" />
      </g>
      <g
         id="g29847"
         clip-path="url(#clipPath29848)"
         transform="matrix(0.26458333,0,0,0.26458333,-621.92781,93.137567)">
        <path
           d="m 943.93,161.773 c 0.008,0 0.011,0 0.015,0 v 0.239 l -0.007,0.004 h -0.008 c 0,-0.082 0,-0.164 0,-0.243"
           style="fill:#eeeff7;fill-opacity:1;fill-rule:nonzero;stroke:none"
           transform="matrix(1.3333333,0,0,1.3333333,1608,0)"
           clip-path="url(#clipPath29846)"
           id="path29847" />
      </g>
      <g
         id="g29850"
         clip-path="url(#clipPath29851)"
         transform="matrix(0.26458333,0,0,0.26458333,-621.92781,93.137567)">
        <path
           d="m 943.945,161.25 h -0.015 c 0,-0.074 -0.016,-0.145 0,-0.219 0.008,0 0.011,0 0.015,0 z"
           style="fill:#fcfcfe;fill-opacity:1;fill-rule:nonzero;stroke:none"
           transform="matrix(1.3333333,0,0,1.3333333,1608,0)"
           clip-path="url(#clipPath29849)"
           id="path29850" />
      </g>
      <g
         id="g29853"
         clip-path="url(#clipPath29854)"
         transform="matrix(0.26458333,0,0,0.26458333,-621.92781,93.137567)">
        <path
           d="m 916.609,157.027 c 0,-1.363 0.004,-2.73 0,-4.093 0,-1.676 -0.004,-3.352 -0.007,-5.028 0,-0.222 0,-0.449 -0.004,-0.672 0,-0.046 0.007,-0.078 0.054,-0.105 1.09,-0.68 2.188,-1.348 3.313,-1.977 1.281,-0.714 2.605,-1.343 3.976,-1.867 1.055,-0.406 2.129,-0.754 3.247,-0.93 0.546,-0.089 1.097,-0.16 1.652,-0.195 2.008,-0.121 3.941,0.219 5.824,0.895 1.621,0.578 3.164,1.32 4.68,2.133 1.148,0.617 2.258,1.312 3.402,1.941 0.043,0.027 0.055,0.055 0.055,0.105 0,1.598 0,3.196 0,4.797 -0.004,1.184 0.008,2.375 -0.004,3.563 -0.024,1.789 -0.004,3.582 -0.012,5.375 -0.004,1.57 0,3.144 -0.015,4.715 0,0.378 0,0.754 -0.012,1.132 -0.02,0.524 -0.238,0.981 -0.5,1.418 -0.324,0.536 -0.754,0.981 -1.196,1.414 -0.894,0.864 -1.902,1.579 -2.957,2.227 -0.746,0.461 -1.523,0.848 -2.293,1.258 -0.828,0.445 -1.675,0.851 -2.488,1.316 -0.5,0.285 -1.004,0.563 -1.488,0.871 -0.699,0.438 -1.391,0.887 -2.07,1.356 -0.039,0.031 -0.071,0.043 -0.121,0.008 -1.473,-1.012 -3.012,-1.918 -4.59,-2.762 -0.598,-0.32 -1.196,-0.645 -1.797,-0.949 -1,-0.508 -1.969,-1.067 -2.903,-1.688 -1.089,-0.723 -2.078,-1.566 -2.906,-2.578 -0.347,-0.426 -0.605,-0.906 -0.746,-1.441 -0.062,-0.239 -0.055,-0.496 -0.055,-0.746 -0.007,-2.122 -0.015,-4.243 -0.019,-6.36 -0.004,-1.043 0,-2.09 0,-3.133 z"
           style="fill:#ffffff;fill-opacity:1;fill-rule:nonzero;stroke:none"
           transform="matrix(1.3333333,0,0,1.3333333,1608,0)"
           clip-path="url(#clipPath29852)"
           id="path29853" />
      </g>
      <g
         id="g29856"
         clip-path="url(#clipPath29857)"
         transform="matrix(0.26458333,0,0,0.26458333,-621.92781,93.137567)">
        <path
           d="m 917.332,157.184 c 0,-2.684 0,-5.364 -0.004,-8.047 0,-0.387 0.02,-0.774 -0.012,-1.164 -0.007,-0.09 0.039,-0.168 0.129,-0.207 0.285,-0.118 0.539,-0.289 0.797,-0.457 0.547,-0.364 1.106,-0.704 1.66,-1.047 0.383,-0.239 0.77,-0.473 1.164,-0.692 0.817,-0.449 1.641,-0.879 2.496,-1.246 0.551,-0.238 1.106,-0.449 1.668,-0.652 0.618,-0.219 1.254,-0.371 1.891,-0.516 0.328,-0.078 0.664,-0.121 0.996,-0.168 0.688,-0.093 1.375,-0.133 2.071,-0.097 1.074,0.058 2.121,0.261 3.152,0.558 0.465,0.137 0.918,0.297 1.371,0.465 0.633,0.238 1.242,0.524 1.851,0.813 0.719,0.335 1.411,0.718 2.098,1.105 0.762,0.43 1.5,0.898 2.25,1.348 0.344,0.203 0.688,0.414 1.047,0.59 0.086,0.046 0.125,0.105 0.125,0.207 -0.004,2.711 0.008,5.425 -0.008,8.136 -0.008,1.617 -0.004,3.239 -0.008,4.856 -0.004,1.543 -0.004,3.09 -0.011,4.633 0,0.41 0.004,0.816 -0.082,1.218 -0.125,0.594 -0.391,1.121 -0.731,1.618 -0.359,0.519 -0.789,0.968 -1.273,1.371 -0.692,0.566 -1.43,1.066 -2.196,1.527 -0.753,0.457 -1.55,0.84 -2.339,1.23 -1.114,0.551 -2.239,1.079 -3.313,1.707 -0.773,0.45 -1.535,0.918 -2.281,1.415 -0.106,0.074 -0.164,0.074 -0.27,0.003 -0.691,-0.464 -1.406,-0.89 -2.125,-1.308 -0.8,-0.461 -1.621,-0.879 -2.441,-1.297 -0.586,-0.297 -1.176,-0.574 -1.762,-0.867 -0.676,-0.336 -1.336,-0.703 -1.98,-1.102 -0.899,-0.551 -1.754,-1.164 -2.496,-1.918 -0.434,-0.441 -0.782,-0.945 -1.047,-1.508 -0.266,-0.558 -0.344,-1.148 -0.352,-1.757 -0.019,-2.918 -0.012,-5.832 -0.035,-8.75"
           style="fill:#28357c;fill-opacity:1;fill-rule:nonzero;stroke:none"
           transform="matrix(1.3333333,0,0,1.3333333,1608,0)"
           clip-path="url(#clipPath29855)"
           id="path29856" />
      </g>
      <g
         id="g29859"
         clip-path="url(#clipPath29860)"
         transform="matrix(0.26458333,0,0,0.26458333,-621.92781,93.137567)">
        <path
           d="m 922.168,161.844 c -0.254,-4.61 0.781,-7.485 0.781,-7.485 -2.117,0.703 -1.832,7.465 -1.832,7.465 0,0 0.395,0.235 1.051,0.02 m 0.898,-0.262 c 0.258,0.668 -1.128,0.781 -1.504,0.777 -0.378,-0.004 -1.593,-0.152 -1.347,-0.777 0.066,-0.172 0.25,-0.277 0.488,-0.191 0.188,0.066 0.133,0.261 0.098,0.339 -0.016,0.043 -0.024,0.028 0.011,0.063 0.313,0.301 1.301,0.305 1.637,0.012 0.059,-0.047 0.043,-0.032 0.016,-0.094 -0.031,-0.09 -0.063,-0.258 0.109,-0.32 0.238,-0.086 0.422,0.019 0.492,0.191 m -2.062,2.313 c -0.102,-0.04 -0.215,0.011 -0.25,0.113 -0.039,0.101 0.012,0.215 0.113,0.25 0.274,0.105 0.539,0.156 0.797,0.152 0.262,0 0.512,-0.055 0.754,-0.152 0.098,-0.043 0.144,-0.156 0.105,-0.258 -0.043,-0.098 -0.156,-0.145 -0.257,-0.102 -0.196,0.079 -0.395,0.122 -0.602,0.125 -0.211,0 -0.43,-0.043 -0.66,-0.128 m -0.051,-0.504 c -0.101,-0.036 -0.215,0.019 -0.25,0.121 -0.035,0.101 0.016,0.211 0.121,0.25 0.289,0.101 0.571,0.148 0.844,0.148 0.273,0 0.539,-0.055 0.793,-0.152 0.101,-0.039 0.152,-0.153 0.113,-0.254 -0.039,-0.098 -0.152,-0.149 -0.254,-0.109 -0.211,0.082 -0.429,0.125 -0.652,0.125 -0.23,0.003 -0.469,-0.04 -0.715,-0.129 m -0.051,-0.5 c -0.105,-0.036 -0.214,0.019 -0.246,0.121 -0.035,0.105 0.02,0.215 0.121,0.25 0.309,0.101 0.606,0.148 0.891,0.148 0.293,0 0.57,-0.055 0.836,-0.152 0.101,-0.035 0.156,-0.149 0.117,-0.25 -0.035,-0.102 -0.148,-0.153 -0.25,-0.117 -0.226,0.082 -0.461,0.129 -0.703,0.129 -0.246,0.003 -0.5,-0.04 -0.766,-0.129 m -0.054,-0.504 c -0.102,-0.032 -0.211,0.027 -0.243,0.129 -0.031,0.105 0.024,0.214 0.129,0.246 0.321,0.101 0.633,0.148 0.938,0.148 0.305,-0.004 0.598,-0.055 0.879,-0.152 0.101,-0.035 0.156,-0.145 0.121,-0.246 -0.035,-0.102 -0.149,-0.157 -0.25,-0.121 -0.242,0.082 -0.492,0.129 -0.754,0.129 -0.262,0 -0.531,-0.043 -0.82,-0.133 m 0.793,5.082 c 0.226,-0.02 0.156,-0.407 0.156,-0.407 0,0 0.031,-0.007 0.199,-0.007 0.168,0 0.285,-0.098 0.168,-0.282 -0.121,-0.183 -0.328,-0.152 -0.336,-0.14 l -0.012,-0.207 c 0,0 0.149,0.012 0.653,0 0.504,-0.008 0.605,-0.375 0.465,-0.586 -0.137,-0.215 -0.305,-0.328 -0.485,-0.301 -0.179,0.031 -0.207,0.25 -0.137,0.426 0.067,0.172 -0.031,0.172 -0.042,0.164 -0.344,-0.078 -0.286,-0.328 -0.293,-0.324 0.214,-0.418 -0.063,-0.766 -0.055,-0.766 0.183,0.086 0.625,0.047 0.766,-0.125 0.136,-0.172 0.109,-0.461 -0.098,-0.539 -0.211,-0.078 -0.379,0.086 -0.399,0.164 -0.019,0.078 -0.129,0.258 -0.195,0.078 -0.07,-0.183 -0.355,-0.176 -0.355,-0.176 0,0 -0.289,-0.007 -0.36,0.176 -0.066,0.18 -0.176,0 -0.195,-0.078 -0.02,-0.078 -0.188,-0.242 -0.395,-0.164 -0.211,0.078 -0.238,0.367 -0.101,0.539 0.14,0.172 0.586,0.211 0.765,0.125 0.008,0 -0.269,0.348 -0.05,0.766 -0.012,-0.004 0.047,0.246 -0.301,0.324 -0.008,0.008 -0.106,0.008 -0.039,-0.164 0.07,-0.176 0.039,-0.395 -0.137,-0.426 -0.18,-0.027 -0.348,0.086 -0.484,0.301 -0.137,0.211 -0.039,0.578 0.465,0.586 0.503,0.012 0.652,0 0.652,0 l -0.012,0.207 c -0.008,-0.012 -0.215,-0.043 -0.336,0.14 -0.117,0.184 0,0.282 0.168,0.282 0.168,0 0.199,0.007 0.199,0.007 0,0 -0.07,0.387 0.161,0.407 m 5.402,-6.832 c 0,-0.004 -0.18,-1.164 0.246,-0.43 0.106,0.188 0.203,0.348 0.281,0.445 0.032,0.047 0.02,0.129 0.032,0.106 0.011,-0.016 0,-0.113 -0.016,-0.238 -0.031,-0.239 -0.07,-0.555 0.027,-0.782 0.02,-0.043 0.063,-0.058 0.106,-0.043 0.039,0.02 0.054,0.067 0.039,0.106 -0.082,0.183 -0.043,0.48 -0.016,0.699 0.016,0.152 0.031,0.273 -0.004,0.336 -0.07,0.125 -0.172,0.074 -0.293,-0.086 -0.082,-0.105 -0.179,-0.273 -0.293,-0.465 -0.007,-0.015 0.043,0.324 0.047,0.324 0.004,0.043 -0.023,0.086 -0.066,0.09 -0.043,0.008 -0.082,-0.019 -0.09,-0.062 m -0.484,-3.989 c -0.036,-0.027 -0.082,-0.019 -0.11,0.012 -0.027,0.035 -0.019,0.086 0.016,0.113 0,0 0.41,0.305 0.801,0.567 0.207,0.137 0.375,0.195 0.468,0.199 0.043,0.004 0.075,-0.004 0.102,-0.016 0.043,-0.023 0.062,-0.058 0.059,-0.105 0,-0.039 -0.02,-0.082 -0.067,-0.125 -0.07,-0.07 -0.164,-0.242 -0.195,-0.355 0.035,0.023 0.07,0.046 0.101,0.07 0.239,0.168 0.454,0.316 0.786,0.344 0.261,0.023 0.335,-0.051 0.304,-0.172 -0.019,-0.078 -0.113,-0.172 -0.215,-0.266 -0.039,-0.039 -0.066,-0.07 -0.078,-0.094 0.047,-0.011 0.137,0 0.281,0.039 0.227,0.059 0.45,0.082 0.618,0.067 0.191,-0.016 0.332,-0.082 0.363,-0.196 0.012,-0.042 -0.016,-0.085 -0.059,-0.097 -0.039,-0.012 -0.082,0.015 -0.093,0.055 -0.012,0.046 -0.098,0.074 -0.223,0.082 -0.152,0.011 -0.356,-0.008 -0.566,-0.063 -0.168,-0.047 -0.286,-0.055 -0.36,-0.039 -0.047,0.008 -0.082,0.031 -0.105,0.066 -0.02,0.036 -0.024,0.075 -0.012,0.118 0.016,0.054 0.063,0.113 0.129,0.175 0.082,0.078 0.16,0.153 0.168,0.192 0,0.004 -0.039,-0.016 -0.137,-0.024 -0.293,-0.023 -0.492,-0.16 -0.711,-0.316 -0.035,-0.024 -0.07,-0.047 -0.109,-0.074 -0.063,-0.043 -0.11,-0.059 -0.149,-0.055 -0.062,0.008 -0.093,0.047 -0.101,0.105 -0.004,0.032 0.004,0.071 0.015,0.118 0.032,0.125 0.133,0.308 0.215,0.406 -0.078,-0.02 -0.195,-0.07 -0.343,-0.168 -0.391,-0.262 -0.793,-0.563 -0.793,-0.563 m -0.188,0.543 c -0.012,0.243 0.117,0.317 0.141,0.329 v 0.003 h 0.004 c 0.019,0.008 0.039,0.008 0.058,0 0.02,-0.003 0.039,-0.019 0.055,-0.039 0.016,-0.023 0.027,-0.05 0.031,-0.086 0.008,-0.058 -0.008,-0.125 -0.055,-0.199 -0.054,-0.082 -0.105,-0.137 -0.148,-0.16 -0.016,-0.008 -0.027,-0.012 -0.035,-0.012 -0.004,0.004 -0.012,0.008 -0.016,0.016 -0.019,0.027 -0.031,0.074 -0.035,0.148 m -1.41,0.247 c 0.383,0.882 0.914,0.691 0.914,0.691 0,0 0.012,-0.176 0,-0.527 0.039,0.175 0.297,0.367 0.543,0.636 0.246,0.274 0.52,0.383 0.586,0.629 0.07,0.246 0.016,0.504 -0.082,0.477 -0.449,-0.395 -1.348,-0.082 -1.348,-0.082 0,0 -0.054,-0.192 -0.039,-0.422 -0.207,0.121 -0.492,0.148 -0.847,0.109 -0.352,-0.043 -0.543,-0.148 -0.719,-0.207 0.148,0.164 0.176,0.93 0.176,0.93 0,0 -0.696,0.433 -0.219,0.488 0.476,0.055 0.844,-0.504 0.844,-0.504 0,0 0,0.422 -0.051,0.817 0.418,-0.203 0.406,-0.899 0.406,-0.899 0,0 0,-0.012 0.203,0 -0.121,0.231 0,0.723 0.301,0.871 -0.07,-0.64 0.328,-0.828 0.328,-0.828 0,0 0,0.16 -0.109,0.598 0.394,0.066 0.449,-0.461 0.613,-0.395 0.16,0.067 0.176,0.34 0.082,0.778 -1.609,0.554 -2.152,1.425 -2.344,2.121 -0.328,1.527 1.512,2.726 1.922,2.886 -0.125,-0.46 -0.07,-2.054 -0.07,-2.054 0,0 0.097,0.355 0.082,0.734 -0.012,0.383 0.121,1.133 0.219,1.43 0.093,0.301 0.191,0.723 0.191,1.527 -0.016,0.801 -0.844,0.641 -1.297,0.692 -0.449,0.054 -0.543,0.668 -0.461,0.984 0.543,0.039 0.871,-0.492 0.871,-0.492 0,0 -0.218,0.355 -0.23,0.476 0.695,0.016 0.855,-0.394 1.008,-0.57 -0.043,0.188 -0.286,0.609 -0.286,0.609 0,0 1.129,-0.023 1.934,-0.023 0.34,-0.109 0.367,-0.613 0.242,-0.75 -0.121,-0.137 -0.379,-0.586 0.028,-0.656 0.41,-0.067 0.75,-0.489 0.777,-0.828 -0.723,-0.028 -1.336,0.406 -1.336,0.406 0,0 0.355,-0.664 0.437,-1.238 1.184,-1.184 1.321,-1.989 1.661,-2.793 0,0.711 -0.746,2.003 -1.075,2.371 -0.328,0.367 -0.382,0.558 -0.421,0.707 1.55,-0.067 3.636,-1.469 4.574,-2.067 0.941,-0.601 1.976,-0.191 2.031,0.051 0.055,0.246 0.203,0.34 0.844,0.871 0.695,0.504 0.722,0.985 0.722,0.985 0,0 -0.015,0.992 0,1.402 0.012,0.406 -0.246,0.598 -0.437,0.461 -0.191,-0.137 -0.461,-0.219 -0.723,-0.203 -0.816,0.066 -0.816,1.222 -0.816,1.222 0,0 0.437,0.016 0.504,-0.148 0.07,-0.164 0.285,-0.273 0.285,-0.273 0,0 -0.176,0.234 -0.191,0.453 0.656,0.05 0.695,-0.125 0.941,-0.477 0.027,0.16 -0.191,0.504 -0.191,0.504 0,0 0.152,0 0.886,0.023 0.11,-0.105 0.055,-0.394 0.055,-0.394 0,0 0.066,0.137 0.773,0.234 0.711,0.094 0.672,-0.41 0.52,-0.816 -0.149,-0.41 -0.012,-0.641 0.203,-0.793 -0.34,-0.121 -0.531,-0.449 -0.367,-0.477 0.844,0.016 1.062,-0.476 1.117,-0.679 -0.219,0.136 -0.68,0.054 -1.008,-0.164 -0.586,-0.489 -0.164,-1.594 0.082,-2.125 0.246,-0.532 0.477,-0.965 0.707,-1.864 0.231,-0.898 -0.488,-1.418 -0.816,-1.582 0.832,-0.98 0.586,-1.726 0.258,-2.152 -0.953,-1.004 -2.805,-0.789 -3.239,-0.68 -0.683,0.274 -1.007,0.219 -1.375,0.164 -0.531,-0.109 -0.902,-0.707 -0.902,-0.707 0,0 -0.121,0.192 -0.094,0.653 -0.679,-0.407 -0.246,-0.938 -0.148,-1.075 -0.695,-0.273 -1.051,0.204 -1.078,0.516 -0.094,-0.449 0.136,-0.98 0.476,-1.074 0.34,-0.094 0.789,0.148 1.117,0.461 -0.066,-0.164 0.04,-0.844 0.04,-0.844 0,0 0.464,0.668 0.613,0.832 -0.039,-0.164 0.054,-0.531 0.137,-0.668 0.289,0.383 0.136,0.625 -0.012,0.859 0.476,0.012 0.722,-0.234 0.777,-0.64 0.121,0.543 1.195,0.886 1.387,0.859 -0.203,-0.164 -0.231,-0.519 -0.231,-0.519 0,0 0.844,0.558 1.539,0.75 0.696,0.191 0.993,-0.328 0.899,-0.614 -0.094,-0.285 -0.383,-0.449 -0.652,-0.273 -0.274,0.176 -0.207,0.449 -0.125,0.613 -0.204,-0.012 -1.008,-0.531 -2.34,-1.265 -1.336,-0.735 -2.602,-0.571 -3.094,-0.411 -1.594,0.668 -1.336,1.825 -1.227,2.219 -0.558,0.422 -0.257,1.242 -0.109,1.297 0.031,-0.437 0.344,-0.656 0.668,-0.887 0.262,0.395 1.457,0.778 2.453,0.805 0.992,0.027 1.742,-0.371 2.219,-0.477 1.605,0.012 1.539,1.129 1.512,1.672 -0.137,0.071 -0.68,-0.039 -1.387,-0.269 -0.711,-0.235 -2.766,0.23 -3.746,0.422 -0.864,0.168 -1.899,0.293 -2.133,0.32 -0.066,0.539 -0.199,0.715 -0.363,0.703 0,0 -0.004,0 -0.004,0 -0.18,-0.023 -0.356,-0.293 -0.528,-0.555 l -0.007,-0.011 -0.004,-0.004 -0.004,-0.008 c 0.015,0.062 0.031,0.129 0.047,0.195 0.097,0.422 0,0.508 -0.188,0.434 -0.121,-0.047 -0.285,-0.207 -0.437,-0.36 -0.071,-0.07 -0.125,-0.148 -0.172,-0.226 0.066,0.191 0.41,0.598 0.406,0.641 -0.004,0.097 -0.387,0.039 -0.59,-0.118 -0.215,-0.168 -0.625,-0.906 -0.629,-0.91 -0.019,-0.035 -0.008,-0.082 0.032,-0.105 0.035,-0.02 0.082,-0.008 0.105,0.031 0,0.004 0.398,0.711 0.59,0.859 0.066,0.055 0.137,0.086 0.203,0.114 -0.137,-0.18 -0.316,-0.461 -0.316,-0.731 0,-0.164 0.023,-0.23 0.093,-0.23 0.063,0 0.09,0.054 0.129,0.144 0.047,0.11 0.129,0.289 0.258,0.422 0.141,0.141 0.293,0.289 0.387,0.324 0.023,0.012 0.023,-0.05 -0.024,-0.254 -0.027,-0.105 -0.047,-0.187 -0.062,-0.257 -0.043,-0.18 -0.067,-0.282 -0.051,-0.325 0.203,-0.488 0.731,1.633 0.949,0.387 0.02,-0.109 0.032,-0.312 0.024,-0.418 -0.004,-0.09 -0.024,-0.187 -0.047,-0.265 -0.133,0.093 -0.246,0.07 -0.352,-0.028 -0.136,-0.125 -0.238,-0.39 -0.34,-0.66 -0.027,-0.066 -0.05,-0.137 -0.074,-0.187 -0.078,-0.192 -0.051,-0.336 -0.078,-0.317 -0.012,0.008 -0.008,0.16 -0.004,0.457 0.008,0.27 -0.051,0.371 -0.144,0.375 -0.125,0.004 -0.274,-0.246 -0.414,-0.484 -0.122,-0.199 -0.11,-0.242 -0.094,-0.008 0.019,0.277 -0.008,0.383 -0.106,0.395 0,0 -0.004,0 -0.007,0 -0.059,0.003 -0.114,-0.036 -0.188,-0.09 -0.031,-0.024 -0.07,-0.051 -0.109,-0.075 -0.047,-0.031 -0.082,-0.058 -0.114,-0.078 -0.039,-0.031 -0.066,-0.05 -0.07,-0.05 -0.023,0 0.024,0.054 0.016,0.21 -0.016,0.211 -0.028,0.333 -0.047,0.403 -0.043,0.14 -0.102,0.148 -0.203,0.082 l -0.004,-0.004 0.043,-0.063 -0.043,0.063 c -0.094,-0.063 -0.449,-0.492 -0.449,-0.492 -0.032,-0.035 -0.024,-0.082 0.007,-0.11 0.036,-0.027 0.082,-0.023 0.11,0.008 0.004,0 0.289,0.348 0.394,0.446 0.012,-0.063 0.024,-0.172 0.035,-0.34 0.02,-0.278 0.04,-0.368 0.153,-0.36 0.047,0.004 0.09,0.035 0.152,0.078 0.031,0.024 0.067,0.047 0.106,0.075 0.312,0.203 0.195,0.343 0.168,-0.09 -0.004,-0.082 -0.012,-0.164 -0.016,-0.231 0,0 -0.004,-0.004 -0.004,-0.004 -0.012,-0.14 -0.016,-0.222 0.039,-0.254 -0.004,0 0.008,-0.003 0.008,-0.003 0.078,-0.036 0.141,0.054 0.266,0.257 0.023,0.043 0.054,0.098 0.089,0.153 0.122,0.203 0.243,0.41 0.278,0.41 0,0 -0.004,-0.059 -0.008,-0.215 -0.008,-0.352 0.008,-0.543 0.066,-0.586 0.098,-0.07 0.192,0.067 0.317,0.383 0.027,0.07 0.051,0.129 0.074,0.191 0.098,0.25 0.191,0.5 0.301,0.602 0.043,0.043 0.097,0.051 0.16,0.004 H 930 c 0.027,-0.07 -0.012,-0.235 -0.012,-0.301 0,-0.066 -0.109,-0.355 -0.109,-0.355 0,0 0.121,0 0.203,-0.067 0.137,-0.113 0.035,-0.777 -0.242,-1.012 -0.133,-0.113 -0.281,-0.257 -0.442,-0.433 -0.246,-0.262 -0.082,-0.211 -0.113,0.273 -0.012,0.211 0,0.559 -0.168,0.364 -0.019,-0.028 -0.055,-0.071 -0.117,-0.122 -0.008,-0.003 -0.012,-0.007 -0.02,-0.011 0,0.008 0.004,0.015 0.004,0.023 0,0.211 -0.023,0.301 -0.136,0.301 -0.071,0 -0.157,-0.063 -0.301,-0.168 -0.027,-0.023 -0.063,-0.051 -0.109,-0.082 -0.133,-0.098 -0.129,-0.199 -0.153,-0.168 -0.008,0.012 0.012,0.012 0.016,0.043 0.004,0.051 0.015,0.117 0.015,0.191 0,0.204 -0.039,0.293 -0.164,0.286 -0.074,-0.004 -0.175,-0.071 -0.336,-0.188 0.016,0.035 0.032,0.07 0.047,0.109 0.043,0.121 0.055,0.207 0.047,0.262 -0.008,0.047 -0.027,0.078 -0.058,0.102 -0.004,0 -0.004,0.004 -0.008,0.004 -0.035,0.019 -0.074,0.023 -0.114,0.015 -0.058,-0.012 -0.128,-0.054 -0.195,-0.109 -0.082,-0.067 -0.609,-0.492 -0.609,-0.492 -0.031,-0.028 -0.039,-0.075 -0.012,-0.11 0.027,-0.035 0.078,-0.039 0.109,-0.011 0.004,0 0.372,0.296 0.61,0.492 0.164,0.136 0.133,0.047 0.082,-0.102 -0.047,-0.125 -0.098,-0.222 -0.133,-0.285 -0.07,-0.125 -0.016,-0.258 0.242,-0.062 l 0.039,0.027 c 0.164,0.121 0.258,0.187 0.297,0.191 0.004,0 0,-0.039 0,-0.129 0,-0.07 -0.008,-0.129 -0.015,-0.172 -0.008,-0.07 -0.016,-0.117 0.011,-0.156 0.059,-0.078 0.145,-0.031 0.375,0.137 0.035,0.023 0.074,0.055 0.11,0.078 0.117,0.09 0.187,0.141 0.207,0.141 0.015,0 -0.024,-0.043 -0.024,-0.145 0,-0.101 -0.008,-0.16 -0.012,-0.191 -0.007,-0.055 -0.011,-0.082 0.043,-0.11 0,0 0.004,0 0.004,-0.004 0.055,-0.023 0.075,0 0.106,0.043 0.019,0.024 0.058,0.071 0.133,0.129 0.011,0.008 0.019,0.016 0.027,0.024 0,-0.043 0,-0.094 0.004,-0.153 0.008,-0.117 0.008,-0.218 0.004,-0.296 0,-0.125 -0.004,-0.211 0.043,-0.254 0.07,-0.063 0.16,-0.008 0.336,0.179 0.156,0.172 0.3,0.309 0.429,0.418 0.102,0.09 0.188,0.184 0.332,0.137 0.137,-0.351 -0.015,-0.773 -0.328,-1.141 0.438,-0.109 0.735,-0.859 0.559,-0.929 -0.192,0.437 -0.828,0.289 -1.102,0.355 0.012,-0.34 -0.765,-1.008 -0.765,-1.008 v 0.383 c 0,0.383 -0.188,0.586 -0.325,0.504 -0.136,-0.394 -0.546,-0.547 -0.859,-0.547 0.164,0.453 -0.164,0.817 -0.433,0.817 -0.34,-0.817 -1.051,-0.407 -1.254,-0.188 0.164,-0.015 0.668,0.121 0.722,0.379 -0.258,-0.027 -1.949,0.422 -1.949,0.422 0,0 0.164,-0.215 0.098,-0.352 -0.071,-0.136 -0.684,-0.246 -0.766,0.082 -0.082,0.325 0.137,0.598 0.426,0.883 0.285,0.289 0.391,0.192 0.391,0.192 z m 1.254,-0.254 c 0.008,-0.102 0.027,-0.18 0.062,-0.227 0.032,-0.047 0.071,-0.074 0.118,-0.082 0.043,-0.008 0.085,0 0.132,0.023 0.071,0.04 0.141,0.11 0.211,0.219 0.067,0.106 0.086,0.207 0.078,0.293 -0.007,0.067 -0.027,0.121 -0.062,0.168 -0.035,0.047 -0.082,0.078 -0.133,0.094 -0.148,0.051 -0.422,-0.156 -0.406,-0.488 m -3.567,6.652 c 0,0 0.231,-0.18 0.071,-0.32 -0.16,-0.141 0,-0.184 0.058,-0.192 0.063,-0.012 0.082,-0.039 -0.027,-0.133 -0.113,-0.089 -0.082,-0.238 0.059,-0.25 0.019,-0.031 0.109,-0.05 -0.032,-0.179 -0.14,-0.133 0.114,-0.364 0.383,-0.324 0.274,0.042 0.664,0.351 0.945,1.175 0.282,0.715 0.583,1.117 0.786,1.227 0.199,0.109 0.5,0.555 0.5,0.844 0,0.293 -0.282,0.703 -0.852,0.382 -0.574,-0.32 -0.848,-0.836 -0.945,-0.953 -0.102,-0.121 -0.172,-0.164 -0.184,0.028 -0.008,0.191 0.012,0.363 -0.312,0.242 -0.321,-0.121 -0.5,-0.11 -0.301,-0.34 0.203,-0.231 0.312,-0.484 0.113,-0.816 -0.203,-0.332 -0.351,-0.25 -0.262,-0.391 m 1.266,-5.566 c 0,0 1.785,0.296 2.152,0.16 0.039,-0.039 0.122,-0.11 0.27,-0.028 0.152,0.082 0.531,0.41 0.531,0.711 -0.105,-0.043 -1.008,-0.109 -1.156,0 0,-0.191 0.027,-0.492 -0.231,-0.41 -0.343,0.098 -1.292,0.328 -1.566,-0.433 m 9.121,9.789 c 0,0 0.367,-1.227 0.141,-1.594 -0.223,-0.363 -0.977,-0.895 -0.942,-1.356 0.036,-0.461 0.438,-0.812 1.204,-1.086 0.398,-0.082 1.39,-0.41 1.664,0.555 0.035,0.25 -0.133,1.192 -0.391,1.699 0.035,0.129 0.176,0.024 0.316,-0.07 0.145,-0.094 0.379,-0.152 0.532,-0.152 0.156,0 0.144,0.164 -0.047,0.375 -0.188,0.211 -0.66,0.472 -0.66,0.472 0,0 -0.153,1.438 -0.543,1.899 -0.457,0.023 -1.497,0.023 -1.497,0.023 0,0 0.129,-0.308 0.2,-0.437 0.07,-0.129 -0.012,-0.106 -0.188,0.117 -0.176,0.223 -0.222,0.32 -0.222,0.32 l -0.508,-0.012 0.414,-0.542 c 0,0 0.008,-0.211 -0.063,-0.094 -0.07,0.117 -0.613,0.648 -1.023,0.648 0.117,-0.543 0.461,-1.039 0.965,-0.875 0.508,0.164 0.601,0.164 0.648,0.11"
           style="fill:#f2bb09;fill-opacity:1;fill-rule:evenodd;stroke:none"
           transform="matrix(1.3333333,0,0,1.3333333,1608,0)"
           clip-path="url(#clipPath29858)"
           id="path29859" />
      </g>
      <g
         id="g29862"
         clip-path="url(#clipPath29863)"
         transform="matrix(0.26458333,0,0,0.26458333,-621.92781,93.137567)">
        <path
           d="m 921.254,149.609 c 0.027,0.055 0.066,0.102 0.117,0.137 0.047,0.035 0.106,0.059 0.168,0.074 0.066,0.02 0.133,0.028 0.203,0.028 0.047,0 0.102,-0.004 0.153,-0.012 0.054,-0.008 0.105,-0.024 0.152,-0.047 0.047,-0.023 0.086,-0.051 0.117,-0.094 0.031,-0.039 0.051,-0.086 0.051,-0.148 0,-0.067 -0.024,-0.117 -0.063,-0.16 -0.043,-0.039 -0.097,-0.075 -0.164,-0.102 -0.07,-0.027 -0.144,-0.047 -0.23,-0.07 -0.086,-0.02 -0.172,-0.043 -0.262,-0.067 -0.09,-0.023 -0.176,-0.05 -0.262,-0.082 -0.086,-0.035 -0.164,-0.074 -0.23,-0.128 -0.066,-0.051 -0.121,-0.114 -0.164,-0.192 -0.043,-0.078 -0.063,-0.172 -0.063,-0.285 0,-0.121 0.028,-0.231 0.078,-0.32 0.055,-0.09 0.125,-0.168 0.211,-0.227 0.082,-0.062 0.18,-0.109 0.289,-0.137 0.106,-0.027 0.215,-0.043 0.325,-0.043 0.125,0 0.246,0.012 0.363,0.039 0.113,0.032 0.219,0.075 0.309,0.141 0.089,0.063 0.16,0.141 0.214,0.238 0.051,0.098 0.079,0.219 0.079,0.356 h -0.512 c -0.004,-0.07 -0.02,-0.129 -0.047,-0.176 -0.024,-0.047 -0.059,-0.086 -0.102,-0.113 -0.043,-0.028 -0.093,-0.047 -0.148,-0.055 -0.055,-0.016 -0.113,-0.019 -0.18,-0.019 -0.043,0 -0.086,0.003 -0.129,0.015 -0.043,0.008 -0.082,0.024 -0.117,0.047 -0.035,0.02 -0.062,0.051 -0.086,0.082 -0.023,0.035 -0.035,0.078 -0.035,0.129 0,0.047 0.012,0.086 0.027,0.117 0.02,0.027 0.055,0.055 0.11,0.078 0.051,0.028 0.125,0.051 0.219,0.075 0.093,0.027 0.214,0.058 0.367,0.097 0.043,0.008 0.105,0.024 0.187,0.047 0.078,0.023 0.156,0.063 0.239,0.113 0.078,0.051 0.144,0.121 0.203,0.207 0.058,0.086 0.086,0.2 0.086,0.332 0,0.114 -0.02,0.215 -0.063,0.309 -0.047,0.094 -0.109,0.176 -0.191,0.246 -0.086,0.066 -0.192,0.121 -0.317,0.16 -0.125,0.039 -0.269,0.055 -0.433,0.055 -0.133,0 -0.262,-0.016 -0.387,-0.047 -0.125,-0.031 -0.234,-0.082 -0.332,-0.152 -0.094,-0.071 -0.172,-0.16 -0.227,-0.27 -0.054,-0.105 -0.082,-0.234 -0.082,-0.383 h 0.516 c 0,0.082 0.016,0.149 0.043,0.207"
           style="fill:#ffffff;fill-opacity:1;fill-rule:nonzero;stroke:none"
           transform="matrix(1.3333333,0,0,1.3333333,1608,0)"
           clip-path="url(#clipPath29861)"
           id="path29862" />
      </g>
      <g
         id="g29865"
         clip-path="url(#clipPath29866)"
         transform="matrix(0.26458333,0,0,0.26458333,-621.92781,93.137567)">
        <path
           d="m 924.152,148.883 c 0.121,0 0.211,-0.028 0.274,-0.082 0.058,-0.055 0.09,-0.141 0.09,-0.262 0,-0.117 -0.032,-0.203 -0.09,-0.258 -0.063,-0.051 -0.153,-0.078 -0.274,-0.078 h -0.582 v 0.68 z m 0.188,-1.094 c 0.109,0 0.207,0.02 0.293,0.055 0.086,0.035 0.16,0.082 0.222,0.14 0.063,0.063 0.11,0.133 0.145,0.211 0.031,0.082 0.047,0.168 0.047,0.262 0,0.141 -0.031,0.262 -0.09,0.367 -0.059,0.102 -0.156,0.184 -0.293,0.235 v 0.007 c 0.066,0.02 0.121,0.047 0.164,0.082 0.043,0.04 0.078,0.082 0.106,0.133 0.027,0.051 0.046,0.106 0.058,0.168 0.012,0.059 0.02,0.121 0.024,0.184 0.004,0.035 0.004,0.082 0.007,0.133 0,0.054 0.008,0.105 0.012,0.16 0.008,0.051 0.016,0.105 0.027,0.152 0.012,0.051 0.032,0.09 0.055,0.125 h -0.527 c -0.031,-0.078 -0.051,-0.168 -0.055,-0.273 -0.008,-0.106 -0.019,-0.207 -0.031,-0.305 -0.02,-0.125 -0.059,-0.219 -0.117,-0.277 -0.055,-0.059 -0.153,-0.09 -0.285,-0.09 h -0.532 v 0.945 h -0.531 v -2.414 z"
           style="fill:#ffffff;fill-opacity:1;fill-rule:nonzero;stroke:none"
           transform="matrix(1.3333333,0,0,1.3333333,1608,0)"
           clip-path="url(#clipPath29864)"
           id="path29865" />
      </g>
      <g
         id="g29868"
         clip-path="url(#clipPath29869)"
         transform="matrix(0.26458333,0,0,0.26458333,-621.92781,93.137567)">
        <path
           d="m 925.48,147.789 h 0.531 v 2.414 h -0.531 z"
           style="fill:#ffffff;fill-opacity:1;fill-rule:nonzero;stroke:none"
           transform="matrix(1.3333333,0,0,1.3333333,1608,0)"
           clip-path="url(#clipPath29867)"
           id="path29868" />
      </g>
      <g
         id="g29871"
         clip-path="url(#clipPath29872)"
         transform="matrix(0.26458333,0,0,0.26458333,-621.92781,93.137567)">
        <path
           d="m 927.945,147.789 v 1.965 h 1.176 v 0.449 h -1.707 v -2.414 z"
           style="fill:#ffffff;fill-opacity:1;fill-rule:nonzero;stroke:none"
           transform="matrix(1.3333333,0,0,1.3333333,1608,0)"
           clip-path="url(#clipPath29870)"
           id="path29871" />
      </g>
      <g
         id="g29874"
         clip-path="url(#clipPath29875)"
         transform="matrix(0.26458333,0,0,0.26458333,-621.92781,93.137567)">
        <path
           d="m 930.652,149.27 -0.304,-0.887 h -0.008 l -0.313,0.887 z m -0.031,-1.481 0.902,2.414 h -0.55 l -0.184,-0.539 h -0.902 l -0.188,0.539 h -0.535 l 0.914,-2.414 z"
           style="fill:#ffffff;fill-opacity:1;fill-rule:nonzero;stroke:none"
           transform="matrix(1.3333333,0,0,1.3333333,1608,0)"
           clip-path="url(#clipPath29873)"
           id="path29874" />
      </g>
      <g
         id="g29877"
         clip-path="url(#clipPath29878)"
         transform="matrix(0.26458333,0,0,0.26458333,-621.92781,93.137567)">
        <path
           d="m 932.258,147.789 1.008,1.621 h 0.007 v -1.621 h 0.497 v 2.414 h -0.532 l -1,-1.617 h -0.008 v 1.617 h -0.5 v -2.414 z"
           style="fill:#ffffff;fill-opacity:1;fill-rule:nonzero;stroke:none"
           transform="matrix(1.3333333,0,0,1.3333333,1608,0)"
           clip-path="url(#clipPath29876)"
           id="path29877" />
      </g>
      <g
         id="g29880"
         clip-path="url(#clipPath29881)"
         transform="matrix(0.26458333,0,0,0.26458333,-621.92781,93.137567)">
        <path
           d="m 934.766,147.789 v 1 l 0.941,-1 h 0.664 l -0.941,0.953 1.031,1.461 h -0.664 l -0.727,-1.086 -0.304,0.309 v 0.777 h -0.532 v -2.414 z"
           style="fill:#ffffff;fill-opacity:1;fill-rule:nonzero;stroke:none"
           transform="matrix(1.3333333,0,0,1.3333333,1608,0)"
           clip-path="url(#clipPath29879)"
           id="path29880" />
      </g>
      <g
         id="g29883"
         clip-path="url(#clipPath29884)"
         transform="matrix(0.26458333,0,0,0.26458333,-621.92781,93.137567)">
        <path
           d="m 937.906,149.27 -0.301,-0.887 h -0.007 l -0.317,0.887 z m -0.027,-1.481 0.898,2.414 h -0.547 l -0.183,-0.539 h -0.902 l -0.188,0.539 h -0.535 l 0.91,-2.414 z"
           style="fill:#ffffff;fill-opacity:1;fill-rule:nonzero;stroke:none"
           transform="matrix(1.3333333,0,0,1.3333333,1608,0)"
           clip-path="url(#clipPath29882)"
           id="path29883" />
      </g>
      <g
         id="g29886"
         clip-path="url(#clipPath29887)"
         transform="matrix(0.26458333,0,0,0.26458333,-621.92781,93.137567)">
        <path
           d="m 922.602,150.965 v 0.445 h -1.164 v 0.555 h 1.011 v 0.414 h -1.011 v 0.996 h -0.532 v -2.41 z"
           style="fill:#ffffff;fill-opacity:1;fill-rule:nonzero;stroke:none"
           transform="matrix(1.3333333,0,0,1.3333333,1608,0)"
           clip-path="url(#clipPath29885)"
           id="path29886" />
      </g>
      <g
         id="g29889"
         clip-path="url(#clipPath29890)"
         transform="matrix(0.26458333,0,0,0.26458333,-621.92781,93.137567)">
        <path
           d="m 923.371,152.473 c 0.024,0.097 0.063,0.183 0.113,0.261 0.051,0.075 0.121,0.137 0.204,0.184 0.082,0.047 0.183,0.07 0.304,0.07 0.117,0 0.219,-0.023 0.305,-0.07 0.082,-0.047 0.148,-0.109 0.203,-0.184 0.051,-0.078 0.09,-0.164 0.109,-0.261 0.028,-0.094 0.039,-0.192 0.039,-0.293 0,-0.106 -0.011,-0.211 -0.039,-0.309 -0.019,-0.098 -0.058,-0.187 -0.109,-0.266 -0.055,-0.078 -0.121,-0.136 -0.203,-0.183 -0.086,-0.047 -0.188,-0.07 -0.305,-0.07 -0.121,0 -0.222,0.023 -0.304,0.07 -0.083,0.047 -0.153,0.105 -0.204,0.183 -0.05,0.079 -0.089,0.168 -0.113,0.266 -0.023,0.098 -0.035,0.203 -0.035,0.309 0,0.101 0.012,0.199 0.035,0.293 m -0.484,-0.797 c 0.054,-0.153 0.133,-0.289 0.234,-0.403 0.102,-0.113 0.223,-0.203 0.371,-0.269 0.149,-0.066 0.317,-0.098 0.5,-0.098 0.188,0 0.352,0.032 0.5,0.098 0.145,0.066 0.27,0.156 0.371,0.269 0.102,0.114 0.18,0.25 0.235,0.403 0.05,0.156 0.078,0.324 0.078,0.504 0,0.175 -0.028,0.34 -0.078,0.492 -0.055,0.152 -0.133,0.281 -0.235,0.394 -0.101,0.114 -0.226,0.204 -0.371,0.266 -0.148,0.066 -0.312,0.098 -0.5,0.098 -0.183,0 -0.351,-0.032 -0.5,-0.098 -0.148,-0.062 -0.269,-0.152 -0.371,-0.266 -0.101,-0.113 -0.18,-0.242 -0.234,-0.394 -0.055,-0.152 -0.082,-0.317 -0.082,-0.492 0,-0.18 0.027,-0.348 0.082,-0.504"
           style="fill:#ffffff;fill-opacity:1;fill-rule:nonzero;stroke:none"
           transform="matrix(1.3333333,0,0,1.3333333,1608,0)"
           clip-path="url(#clipPath29888)"
           id="path29889" />
      </g>
      <g
         id="g29892"
         clip-path="url(#clipPath29893)"
         transform="matrix(0.26458333,0,0,0.26458333,-621.92781,93.137567)">
        <path
           d="m 926,152.473 c 0.023,0.097 0.062,0.183 0.113,0.261 0.051,0.075 0.117,0.137 0.203,0.184 0.082,0.047 0.184,0.07 0.305,0.07 0.117,0 0.219,-0.023 0.305,-0.07 0.082,-0.047 0.148,-0.109 0.199,-0.184 0.055,-0.078 0.09,-0.164 0.113,-0.261 0.024,-0.094 0.039,-0.192 0.039,-0.293 0,-0.106 -0.015,-0.211 -0.039,-0.309 -0.023,-0.098 -0.058,-0.187 -0.113,-0.266 -0.051,-0.078 -0.117,-0.136 -0.199,-0.183 -0.086,-0.047 -0.188,-0.07 -0.305,-0.07 -0.121,0 -0.223,0.023 -0.305,0.07 -0.086,0.047 -0.152,0.105 -0.203,0.183 -0.051,0.079 -0.09,0.168 -0.113,0.266 -0.023,0.098 -0.035,0.203 -0.035,0.309 0,0.101 0.012,0.199 0.035,0.293 m -0.484,-0.797 c 0.054,-0.153 0.132,-0.289 0.23,-0.403 0.106,-0.113 0.227,-0.203 0.375,-0.269 0.149,-0.066 0.313,-0.098 0.5,-0.098 0.184,0 0.352,0.032 0.5,0.098 0.145,0.066 0.27,0.156 0.371,0.269 0.102,0.114 0.18,0.25 0.231,0.403 0.054,0.156 0.082,0.324 0.082,0.504 0,0.175 -0.028,0.34 -0.082,0.492 -0.051,0.152 -0.129,0.281 -0.231,0.394 -0.101,0.114 -0.226,0.204 -0.371,0.266 -0.148,0.066 -0.316,0.098 -0.5,0.098 -0.187,0 -0.351,-0.032 -0.5,-0.098 -0.148,-0.062 -0.269,-0.152 -0.375,-0.266 -0.098,-0.113 -0.176,-0.242 -0.23,-0.394 -0.055,-0.152 -0.082,-0.317 -0.082,-0.492 0,-0.18 0.027,-0.348 0.082,-0.504"
           style="fill:#ffffff;fill-opacity:1;fill-rule:nonzero;stroke:none"
           transform="matrix(1.3333333,0,0,1.3333333,1608,0)"
           clip-path="url(#clipPath29891)"
           id="path29892" />
      </g>
      <g
         id="g29895"
         clip-path="url(#clipPath29896)"
         transform="matrix(0.26458333,0,0,0.26458333,-621.92781,93.137567)">
        <path
           d="m 927.977,151.41 v -0.449 h 1.976 v 0.449 h -0.723 v 1.965 h -0.531 v -1.965 z"
           style="fill:#ffffff;fill-opacity:1;fill-rule:nonzero;stroke:none"
           transform="matrix(1.3333333,0,0,1.3333333,1608,0)"
           clip-path="url(#clipPath29894)"
           id="path29895" />
      </g>
      <g
         id="g29898"
         clip-path="url(#clipPath29899)"
         transform="matrix(0.26458333,0,0,0.26458333,-621.92781,93.137567)">
        <path
           d="m 931.328,152.961 c 0.055,0 0.102,-0.004 0.149,-0.012 0.046,-0.011 0.089,-0.027 0.125,-0.054 0.039,-0.02 0.066,-0.055 0.086,-0.094 0.023,-0.043 0.035,-0.094 0.035,-0.156 0,-0.125 -0.035,-0.211 -0.106,-0.266 -0.07,-0.051 -0.164,-0.078 -0.277,-0.078 h -0.578 v 0.66 z m -0.027,-1.023 c 0.094,0 0.172,-0.02 0.23,-0.067 0.063,-0.043 0.09,-0.117 0.09,-0.219 0,-0.054 -0.008,-0.101 -0.027,-0.14 -0.024,-0.035 -0.047,-0.063 -0.082,-0.082 -0.035,-0.02 -0.074,-0.035 -0.117,-0.043 -0.043,-0.008 -0.09,-0.012 -0.137,-0.012 h -0.496 v 0.563 z m 0.066,-0.973 c 0.113,0 0.219,0.008 0.313,0.027 0.093,0.024 0.175,0.055 0.242,0.102 0.07,0.047 0.121,0.105 0.16,0.183 0.035,0.078 0.055,0.172 0.055,0.285 0,0.122 -0.028,0.223 -0.082,0.305 -0.055,0.078 -0.137,0.145 -0.246,0.195 0.148,0.043 0.257,0.118 0.332,0.227 0.074,0.106 0.109,0.234 0.109,0.387 0,0.121 -0.023,0.226 -0.07,0.316 -0.047,0.09 -0.11,0.16 -0.192,0.219 -0.078,0.055 -0.172,0.094 -0.273,0.121 -0.102,0.027 -0.207,0.043 -0.317,0.043 h -1.168 v -2.41 z"
           style="fill:#ffffff;fill-opacity:1;fill-rule:nonzero;stroke:none"
           transform="matrix(1.3333333,0,0,1.3333333,1608,0)"
           clip-path="url(#clipPath29897)"
           id="path29898" />
      </g>
      <g
         id="g29901"
         clip-path="url(#clipPath29902)"
         transform="matrix(0.26458333,0,0,0.26458333,-621.92781,93.137567)">
        <path
           d="m 933.844,152.441 -0.305,-0.882 h -0.008 l -0.312,0.882 z m -0.032,-1.476 0.903,2.41 h -0.551 l -0.184,-0.539 h -0.902 l -0.187,0.539 h -0.536 l 0.915,-2.41 z"
           style="fill:#ffffff;fill-opacity:1;fill-rule:nonzero;stroke:none"
           transform="matrix(1.3333333,0,0,1.3333333,1608,0)"
           clip-path="url(#clipPath29900)"
           id="path29901" />
      </g>
      <g
         id="g29904"
         clip-path="url(#clipPath29905)"
         transform="matrix(0.26458333,0,0,0.26458333,-621.92781,93.137567)">
        <path
           d="m 935.453,150.965 v 1.965 h 1.176 v 0.445 h -1.707 v -2.41 z"
           style="fill:#ffffff;fill-opacity:1;fill-rule:nonzero;stroke:none"
           transform="matrix(1.3333333,0,0,1.3333333,1608,0)"
           clip-path="url(#clipPath29903)"
           id="path29904" />
      </g>
      <g
         id="g29907"
         clip-path="url(#clipPath29908)"
         transform="matrix(0.26458333,0,0,0.26458333,-621.92781,93.137567)">
        <path
           d="m 937.457,150.965 v 1.965 h 1.176 v 0.445 h -1.707 v -2.41 z"
           style="fill:#ffffff;fill-opacity:1;fill-rule:nonzero;stroke:none"
           transform="matrix(1.3333333,0,0,1.3333333,1608,0)"
           clip-path="url(#clipPath29906)"
           id="path29907" />
      </g>
      <g
         id="g29910"
         clip-path="url(#clipPath29911)"
         transform="matrix(0.26458333,0,0,0.26458333,-621.92781,93.137567)">
        <path
           d="m 927.477,170.363 v 0.16 h -0.465 v 0.188 h 0.426 v 0.152 h -0.426 v 0.215 h 0.472 v 0.16 h -0.664 v -0.875 z"
           style="fill:#ffffff;fill-opacity:1;fill-rule:nonzero;stroke:none"
           transform="matrix(1.3333333,0,0,1.3333333,1608,0)"
           clip-path="url(#clipPath29909)"
           id="path29910" />
      </g>
      <g
         id="g29913"
         clip-path="url(#clipPath29914)"
         transform="matrix(0.26458333,0,0,0.26458333,-621.92781,93.137567)">
        <path
           d="m 927.816,171.023 c 0.008,0.02 0.024,0.036 0.039,0.051 0.02,0.012 0.04,0.02 0.063,0.028 0.023,0.003 0.051,0.007 0.074,0.007 0.02,0 0.035,0 0.055,-0.004 0.019,-0.003 0.039,-0.007 0.058,-0.015 0.016,-0.008 0.032,-0.02 0.043,-0.035 0.008,-0.012 0.016,-0.032 0.016,-0.055 0,-0.023 -0.008,-0.043 -0.023,-0.059 -0.016,-0.011 -0.036,-0.023 -0.059,-0.035 -0.023,-0.008 -0.055,-0.019 -0.086,-0.023 -0.027,-0.008 -0.062,-0.02 -0.094,-0.028 -0.031,-0.007 -0.062,-0.015 -0.093,-0.031 -0.032,-0.012 -0.059,-0.023 -0.086,-0.043 -0.024,-0.019 -0.043,-0.043 -0.059,-0.07 -0.016,-0.031 -0.023,-0.063 -0.023,-0.106 0,-0.043 0.011,-0.082 0.031,-0.117 0.019,-0.031 0.043,-0.058 0.074,-0.082 0.031,-0.019 0.066,-0.039 0.106,-0.051 0.039,-0.007 0.078,-0.015 0.117,-0.015 0.047,0 0.09,0.008 0.133,0.015 0.043,0.012 0.078,0.028 0.113,0.051 0.031,0.024 0.058,0.055 0.078,0.086 0.019,0.039 0.027,0.082 0.027,0.133 h -0.187 c 0,-0.027 -0.004,-0.051 -0.016,-0.066 -0.008,-0.016 -0.019,-0.032 -0.039,-0.039 -0.012,-0.012 -0.031,-0.016 -0.051,-0.024 -0.019,-0.004 -0.043,-0.004 -0.066,-0.004 -0.016,0 -0.031,0 -0.047,0.004 -0.016,0.004 -0.027,0.008 -0.043,0.016 -0.012,0.011 -0.023,0.019 -0.031,0.031 -0.008,0.012 -0.012,0.027 -0.012,0.047 0,0.019 0.004,0.031 0.012,0.043 0.004,0.012 0.019,0.019 0.035,0.027 0.02,0.012 0.047,0.02 0.082,0.028 0.035,0.011 0.078,0.023 0.133,0.035 0.015,0.004 0.039,0.011 0.066,0.019 0.032,0.008 0.059,0.024 0.09,0.039 0.027,0.02 0.051,0.043 0.074,0.078 0.02,0.032 0.032,0.071 0.032,0.121 0,0.04 -0.008,0.075 -0.024,0.11 -0.016,0.035 -0.039,0.066 -0.07,0.09 -0.031,0.027 -0.07,0.043 -0.113,0.058 -0.047,0.016 -0.098,0.02 -0.161,0.02 -0.046,0 -0.093,-0.004 -0.14,-0.016 -0.043,-0.012 -0.082,-0.031 -0.117,-0.058 -0.036,-0.024 -0.067,-0.055 -0.086,-0.094 -0.02,-0.039 -0.028,-0.086 -0.028,-0.141 h 0.188 c 0,0.028 0.004,0.055 0.015,0.074"
           style="fill:#ffffff;fill-opacity:1;fill-rule:nonzero;stroke:none"
           transform="matrix(1.3333333,0,0,1.3333333,1608,0)"
           clip-path="url(#clipPath29912)"
           id="path29913" />
      </g>
      <g
         id="g29916"
         clip-path="url(#clipPath29917)"
         transform="matrix(0.26458333,0,0,0.26458333,-621.92781,93.137567)">
        <path
           d="m 928.449,170.523 v -0.16 h 0.715 v 0.16 h -0.262 v 0.715 h -0.191 v -0.715 z"
           style="fill:#ffffff;fill-opacity:1;fill-rule:nonzero;stroke:none"
           transform="matrix(1.3333333,0,0,1.3333333,1608,0)"
           clip-path="url(#clipPath29915)"
           id="path29916" />
      </g>
      <g
         id="g29919"
         clip-path="url(#clipPath29920)"
         transform="matrix(0.26458333,0,0,0.26458333,-621.92781,93.137567)">
        <path
           d="m 929.934,171.238 v -0.554 h -0.215 v -0.133 c 0.027,0 0.058,0 0.086,-0.008 0.027,-0.004 0.054,-0.016 0.078,-0.027 0.019,-0.012 0.039,-0.032 0.055,-0.055 0.015,-0.02 0.027,-0.047 0.031,-0.082 h 0.14 v 0.859 z"
           style="fill:#ffffff;fill-opacity:1;fill-rule:nonzero;stroke:none"
           transform="matrix(1.3333333,0,0,1.3333333,1608,0)"
           clip-path="url(#clipPath29918)"
           id="path29919" />
      </g>
      <g
         id="g29922"
         clip-path="url(#clipPath29923)"
         transform="matrix(0.26458333,0,0,0.26458333,-621.92781,93.137567)">
        <path
           d="m 930.754,170.812 c 0.016,-0.007 0.031,-0.019 0.043,-0.035 0.012,-0.015 0.019,-0.031 0.027,-0.05 0.004,-0.02 0.008,-0.039 0.008,-0.063 0,-0.016 -0.004,-0.039 -0.008,-0.055 -0.008,-0.019 -0.015,-0.039 -0.027,-0.054 -0.012,-0.016 -0.027,-0.028 -0.043,-0.035 -0.02,-0.008 -0.039,-0.012 -0.059,-0.012 -0.023,0 -0.039,0.004 -0.058,0.012 -0.016,0.007 -0.032,0.019 -0.039,0.035 -0.012,0.015 -0.02,0.031 -0.028,0.05 -0.008,0.02 -0.008,0.04 -0.008,0.059 0,0.02 0,0.039 0.008,0.059 0.004,0.019 0.012,0.035 0.024,0.05 0.011,0.016 0.023,0.028 0.039,0.039 0.019,0.008 0.039,0.012 0.062,0.012 0.02,0 0.043,-0.004 0.059,-0.012 m -0.149,0.282 c 0.024,0.019 0.047,0.031 0.079,0.031 0.031,0 0.058,-0.008 0.078,-0.027 0.019,-0.02 0.035,-0.043 0.05,-0.067 0.012,-0.027 0.02,-0.058 0.024,-0.086 0.008,-0.031 0.012,-0.058 0.012,-0.082 l -0.004,-0.004 c -0.024,0.036 -0.051,0.059 -0.082,0.075 -0.032,0.015 -0.067,0.023 -0.11,0.023 -0.039,0 -0.074,-0.008 -0.109,-0.023 -0.035,-0.016 -0.066,-0.039 -0.09,-0.067 -0.023,-0.023 -0.039,-0.055 -0.051,-0.09 -0.011,-0.031 -0.015,-0.066 -0.015,-0.101 0,-0.043 0.008,-0.086 0.023,-0.121 0.012,-0.039 0.031,-0.071 0.059,-0.102 0.027,-0.027 0.058,-0.051 0.097,-0.066 0.036,-0.016 0.079,-0.024 0.122,-0.024 0.066,0 0.121,0.012 0.16,0.039 0.043,0.024 0.078,0.059 0.101,0.102 0.028,0.043 0.043,0.09 0.055,0.144 0.008,0.051 0.016,0.106 0.016,0.161 0,0.05 -0.008,0.105 -0.02,0.156 -0.012,0.055 -0.031,0.101 -0.059,0.144 -0.027,0.043 -0.062,0.079 -0.105,0.106 -0.043,0.027 -0.094,0.039 -0.156,0.039 -0.035,0 -0.071,-0.004 -0.102,-0.016 -0.031,-0.008 -0.062,-0.023 -0.086,-0.043 -0.023,-0.023 -0.043,-0.047 -0.058,-0.078 -0.016,-0.027 -0.028,-0.062 -0.032,-0.097 h 0.164 c 0.008,0.027 0.02,0.05 0.039,0.074"
           style="fill:#ffffff;fill-opacity:1;fill-rule:nonzero;stroke:none"
           transform="matrix(1.3333333,0,0,1.3333333,1608,0)"
           clip-path="url(#clipPath29921)"
           id="path29922" />
      </g>
      <g
         id="g29925"
         clip-path="url(#clipPath29926)"
         transform="matrix(0.26458333,0,0,0.26458333,-621.92781,93.137567)">
        <path
           d="m 931.438,170.727 c 0.019,0 0.039,-0.004 0.058,-0.012 0.02,-0.008 0.035,-0.02 0.047,-0.035 0.012,-0.016 0.016,-0.035 0.016,-0.059 0,-0.039 -0.012,-0.066 -0.036,-0.086 -0.027,-0.019 -0.054,-0.027 -0.085,-0.027 -0.043,0 -0.079,0.012 -0.102,0.043 -0.02,0.027 -0.031,0.062 -0.031,0.109 h -0.164 c 0,-0.047 0.007,-0.086 0.023,-0.121 0.012,-0.035 0.031,-0.066 0.059,-0.094 0.027,-0.027 0.058,-0.047 0.093,-0.062 0.036,-0.016 0.075,-0.02 0.122,-0.02 0.031,0 0.066,0.004 0.101,0.016 0.035,0.008 0.066,0.023 0.094,0.047 0.027,0.019 0.051,0.043 0.066,0.074 0.016,0.027 0.028,0.062 0.028,0.102 0,0.039 -0.012,0.078 -0.032,0.109 -0.019,0.031 -0.05,0.055 -0.09,0.066 0.047,0.012 0.083,0.035 0.11,0.071 0.027,0.035 0.043,0.078 0.043,0.125 0,0.047 -0.008,0.086 -0.028,0.121 -0.019,0.035 -0.042,0.066 -0.07,0.09 -0.031,0.023 -0.062,0.039 -0.101,0.054 -0.039,0.012 -0.079,0.016 -0.121,0.016 -0.047,0 -0.094,-0.004 -0.133,-0.02 -0.039,-0.015 -0.075,-0.035 -0.102,-0.062 -0.027,-0.024 -0.047,-0.059 -0.062,-0.098 -0.016,-0.035 -0.024,-0.082 -0.024,-0.133 h 0.168 c 0,0.024 0.004,0.047 0.012,0.067 0.004,0.023 0.015,0.039 0.027,0.054 0.012,0.016 0.028,0.028 0.047,0.036 0.016,0.011 0.039,0.015 0.063,0.015 0.039,0 0.074,-0.011 0.101,-0.039 0.027,-0.023 0.039,-0.054 0.039,-0.097 0,-0.032 -0.004,-0.055 -0.019,-0.075 -0.012,-0.015 -0.028,-0.027 -0.047,-0.039 -0.02,-0.008 -0.043,-0.011 -0.067,-0.011 -0.023,0 -0.043,0 -0.066,0 v -0.125 c 0.02,0.003 0.039,0.003 0.063,0"
           style="fill:#ffffff;fill-opacity:1;fill-rule:nonzero;stroke:none"
           transform="matrix(1.3333333,0,0,1.3333333,1608,0)"
           clip-path="url(#clipPath29924)"
           id="path29925" />
      </g>
      <g
         id="g29928"
         clip-path="url(#clipPath29929)"
         transform="matrix(0.26458333,0,0,0.26458333,-621.92781,93.137567)">
        <path
           d="m 932.223,170.812 c 0.019,-0.007 0.031,-0.019 0.043,-0.035 0.011,-0.015 0.019,-0.031 0.027,-0.05 0.004,-0.02 0.008,-0.039 0.008,-0.063 0,-0.016 -0.004,-0.039 -0.008,-0.055 -0.008,-0.019 -0.016,-0.039 -0.027,-0.054 -0.012,-0.016 -0.028,-0.028 -0.043,-0.035 -0.02,-0.008 -0.039,-0.012 -0.059,-0.012 -0.023,0 -0.039,0.004 -0.059,0.012 -0.015,0.007 -0.027,0.019 -0.039,0.035 -0.011,0.015 -0.019,0.031 -0.027,0.05 -0.004,0.02 -0.008,0.04 -0.008,0.059 0,0.02 0.004,0.039 0.008,0.059 0.004,0.019 0.012,0.035 0.023,0.05 0.012,0.016 0.024,0.028 0.043,0.039 0.016,0.008 0.036,0.012 0.059,0.012 0.024,0 0.043,-0.004 0.059,-0.012 m -0.145,0.282 c 0.02,0.019 0.043,0.031 0.074,0.031 0.032,0 0.059,-0.008 0.078,-0.027 0.02,-0.02 0.04,-0.043 0.051,-0.067 0.012,-0.027 0.02,-0.058 0.028,-0.086 0.003,-0.031 0.007,-0.058 0.007,-0.082 v -0.004 c -0.027,0.036 -0.054,0.059 -0.086,0.075 -0.031,0.015 -0.066,0.023 -0.109,0.023 -0.039,0 -0.074,-0.008 -0.109,-0.023 -0.035,-0.016 -0.063,-0.039 -0.09,-0.067 -0.024,-0.023 -0.039,-0.055 -0.051,-0.09 -0.008,-0.031 -0.016,-0.066 -0.016,-0.101 0,-0.043 0.008,-0.086 0.024,-0.121 0.012,-0.039 0.035,-0.071 0.062,-0.102 0.024,-0.027 0.055,-0.051 0.094,-0.066 0.035,-0.016 0.078,-0.024 0.121,-0.024 0.067,0 0.121,0.012 0.164,0.039 0.039,0.024 0.075,0.059 0.098,0.102 0.027,0.043 0.047,0.09 0.055,0.144 0.011,0.051 0.015,0.106 0.015,0.161 0,0.05 -0.008,0.105 -0.019,0.156 -0.012,0.055 -0.031,0.101 -0.059,0.144 -0.027,0.043 -0.062,0.079 -0.105,0.106 -0.039,0.027 -0.094,0.039 -0.157,0.039 -0.035,0 -0.07,-0.004 -0.101,-0.016 -0.031,-0.008 -0.059,-0.023 -0.086,-0.043 -0.023,-0.023 -0.043,-0.047 -0.059,-0.078 -0.015,-0.027 -0.027,-0.062 -0.031,-0.097 h 0.164 c 0.008,0.027 0.02,0.05 0.043,0.074"
           style="fill:#ffffff;fill-opacity:1;fill-rule:nonzero;stroke:none"
           transform="matrix(1.3333333,0,0,1.3333333,1608,0)"
           clip-path="url(#clipPath29927)"
           id="path29928" />
      </g>
    </g>
  </g>
</svg>
