<?xml version="1.0" encoding="UTF-8" standalone="no"?>
<!-- Created with Inkscape (http://www.inkscape.org/) -->

<svg
   width="83.527206mm"
   height="83.528023mm"
   viewBox="0 0 83.527208 83.528025"
   version="1.1"
   id="svg1"
   xmlns="http://www.w3.org/2000/svg"
   xmlns:svg="http://www.w3.org/2000/svg">
  <defs
     id="defs1">
    <clipPath
       clipPathUnits="userSpaceOnUse"
       id="clipPath20024">
      <path
         d="m 847.13,487.625 h 32.669 v 32.669 H 847.13 Z"
         transform="translate(-879.4942,-503.95912)"
         id="path20024" />
    </clipPath>
    <clipPath
       clipPathUnits="userSpaceOnUse"
       id="clipPath20026">
      <path
         d="m 847.13,487.625 h 32.669 v 32.669 H 847.13 Z"
         transform="matrix(0.99943198,0.03370117,0.03370117,-0.99943198,-878.84403,487.30896)"
         id="path20026" />
    </clipPath>
    <clipPath
       clipPathUnits="userSpaceOnUse"
       id="clipPath20028">
      <path
         d="m 847.13,487.625 h 32.669 v 32.669 H 847.13 Z"
         transform="matrix(0.9905519,-0.13713854,-0.13713854,-0.9905519,-784.97605,630.34597)"
         id="path20028" />
    </clipPath>
    <clipPath
       clipPathUnits="userSpaceOnUse"
       id="clipPath20036">
      <path
         d="m 847.13,487.625 h 32.669 v 32.669 H 847.13 Z"
         transform="matrix(0.27398943,-0.96173268,-0.96173268,-0.27398943,249.44159,981.20409)"
         id="path20036" />
    </clipPath>
    <clipPath
       clipPathUnits="userSpaceOnUse"
       id="clipPath20038">
      <path
         d="m 847.13,487.625 h 32.669 v 32.669 H 847.13 Z"
         transform="matrix(0.06565405,-0.99784244,-0.99784244,-0.06565405,447.52683,907.36716)"
         id="path20038" />
    </clipPath>
    <clipPath
       clipPathUnits="userSpaceOnUse"
       id="clipPath20051">
      <path
         d="m 847.13,487.625 h 32.669 v 32.669 H 847.13 Z"
         transform="matrix(-0.98444179,-0.17571092,-0.17571092,0.98444179,939.61355,-331.71501)"
         id="path20051" />
    </clipPath>
    <clipPath
       clipPathUnits="userSpaceOnUse"
       id="clipPath20053">
      <path
         d="m 847.13,487.625 h 32.669 v 32.669 H 847.13 Z"
         transform="matrix(-0.99891015,0.0466745,0.0466745,0.99891015,840.18415,-531.01)"
         id="path20053" />
    </clipPath>
    <clipPath
       clipPathUnits="userSpaceOnUse"
       id="clipPath20055">
      <path
         d="m 847.13,487.625 h 32.669 v 32.669 H 847.13 Z"
         transform="matrix(-0.97202785,0.23486568,0.23486568,0.97202785,722.21992,-680.00036)"
         id="path20055" />
    </clipPath>
    <clipPath
       clipPathUnits="userSpaceOnUse"
       id="clipPath20063">
      <path
         d="m 847.13,487.625 h 32.669 v 32.669 H 847.13 Z"
         transform="matrix(-0.28871167,0.95741608,0.95741608,0.28871167,-231.95717,-959.4086)"
         id="path20063" />
    </clipPath>
    <clipPath
       clipPathUnits="userSpaceOnUse"
       id="clipPath20065">
      <path
         d="m 847.13,487.625 h 32.669 v 32.669 H 847.13 Z"
         transform="matrix(-0.08993903,0.99594727,0.99594727,0.08993903,-422.84151,-892.53859)"
         id="path20065" />
    </clipPath>
    <clipPath
       clipPathUnits="userSpaceOnUse"
       id="clipPath20067">
      <path
         d="m 847.13,487.625 h 32.669 v 32.669 H 847.13 Z"
         transform="matrix(0.09696614,0.99528771,0.99528771,-0.09696614,-584.1263,-797.79082)"
         id="path20067" />
    </clipPath>
    <clipPath
       clipPathUnits="userSpaceOnUse"
       id="clipPath20069">
      <path
         d="m 847.13,487.625 h 32.669 v 32.669 H 847.13 Z"
         transform="matrix(0.25672984,0.96648319,0.96648319,-0.25672984,-707.87023,-692.38466)"
         id="path20069" />
    </clipPath>
    <clipPath
       clipPathUnits="userSpaceOnUse"
       id="clipPath20074">
      <path
         d="m 847.13,487.625 h 32.669 v 32.669 H 847.13 Z"
         transform="translate(-863.11742,-516.17881)"
         id="path20074" />
    </clipPath>
    <clipPath
       clipPathUnits="userSpaceOnUse"
       id="clipPath20076">
      <path
         d="m 847.13,487.625 h 32.669 v 32.669 H 847.13 Z"
         transform="translate(-854.5657,-512.31601)"
         id="path20076" />
    </clipPath>
    <clipPath
       clipPathUnits="userSpaceOnUse"
       id="clipPath20078">
      <path
         d="m 847.13,487.625 h 32.669 v 32.669 H 847.13 Z"
         transform="translate(-863.85542,-516.18391)"
         id="path20078" />
    </clipPath>
    <clipPath
       clipPathUnits="userSpaceOnUse"
       id="clipPath20080">
      <path
         d="m 847.13,487.625 h 32.669 v 32.669 H 847.13 Z"
         transform="translate(-872.18912,-512.51092)"
         id="path20080" />
    </clipPath>
    <clipPath
       clipPathUnits="userSpaceOnUse"
       id="clipPath20082">
      <path
         d="m 847.13,487.625 h 32.669 v 32.669 H 847.13 Z"
         transform="translate(-863.51972,-512.49191)"
         id="path20082" />
    </clipPath>
    <clipPath
       clipPathUnits="userSpaceOnUse"
       id="clipPath20084">
      <path
         d="m 847.13,487.625 h 32.669 v 32.669 H 847.13 Z"
         transform="translate(-871.53865,-510.08812)"
         id="path20084" />
    </clipPath>
    <clipPath
       clipPathUnits="userSpaceOnUse"
       id="clipPath20086">
      <path
         d="m 847.13,487.625 h 32.669 v 32.669 H 847.13 Z"
         transform="translate(-875.31542,-505.54391)"
         id="path20086" />
    </clipPath>
    <clipPath
       clipPathUnits="userSpaceOnUse"
       id="clipPath20088">
      <path
         d="m 847.13,487.625 h 32.669 v 32.669 H 847.13 Z"
         transform="translate(-872.10085,-501.07991)"
         id="path20088" />
    </clipPath>
    <clipPath
       clipPathUnits="userSpaceOnUse"
       id="clipPath20090">
      <path
         d="m 847.13,487.625 h 32.669 v 32.669 H 847.13 Z"
         transform="translate(-873.34015,-496.84191)"
         id="path20090" />
    </clipPath>
    <clipPath
       clipPathUnits="userSpaceOnUse"
       id="clipPath20092">
      <path
         d="m 847.13,487.625 h 32.669 v 32.669 H 847.13 Z"
         transform="translate(-864.02522,-505.54391)"
         id="path20092" />
    </clipPath>
    <clipPath
       clipPathUnits="userSpaceOnUse"
       id="clipPath20094">
      <path
         d="m 847.13,487.625 h 32.669 v 32.669 H 847.13 Z"
         transform="translate(-858.7477,-500.95972)"
         id="path20094" />
    </clipPath>
    <clipPath
       clipPathUnits="userSpaceOnUse"
       id="clipPath20096">
      <path
         d="m 847.13,487.625 h 32.669 v 32.669 H 847.13 Z"
         transform="translate(-854.8672,-496.95541)"
         id="path20096" />
    </clipPath>
    <clipPath
       clipPathUnits="userSpaceOnUse"
       id="clipPath20098">
      <path
         d="m 847.13,487.625 h 32.669 v 32.669 H 847.13 Z"
         transform="translate(-875.6557,-503.98751)"
         id="path20098" />
    </clipPath>
    <clipPath
       clipPathUnits="userSpaceOnUse"
       id="clipPath20100">
      <path
         d="m 847.13,487.625 h 32.669 v 32.669 H 847.13 Z"
         transform="translate(-858.0664,-493.04541)"
         id="path20100" />
    </clipPath>
    <clipPath
       clipPathUnits="userSpaceOnUse"
       id="clipPath20102">
      <path
         d="m 847.13,487.625 h 32.669 v 32.669 H 847.13 Z"
         transform="translate(-859.3348,-516.59051)"
         id="path20102" />
    </clipPath>
    <clipPath
       clipPathUnits="userSpaceOnUse"
       id="clipPath20104">
      <path
         d="m 847.13,487.625 h 32.669 v 32.669 H 847.13 Z"
         transform="translate(-857.72192,-515.89391)"
         id="path20104" />
    </clipPath>
    <clipPath
       clipPathUnits="userSpaceOnUse"
       id="clipPath20106">
      <path
         d="m 847.13,487.625 h 32.669 v 32.669 H 847.13 Z"
         transform="translate(-858.62275,-515.89391)"
         id="path20106" />
    </clipPath>
    <clipPath
       clipPathUnits="userSpaceOnUse"
       id="clipPath20108">
      <path
         d="m 847.13,487.625 h 32.669 v 32.669 H 847.13 Z"
         transform="translate(-859.43035,-512.09482)"
         id="path20108" />
    </clipPath>
    <clipPath
       clipPathUnits="userSpaceOnUse"
       id="clipPath20110">
      <path
         d="m 847.13,487.625 h 32.669 v 32.669 H 847.13 Z"
         transform="translate(-859.43035,-511.05491)"
         id="path20110" />
    </clipPath>
    <clipPath
       clipPathUnits="userSpaceOnUse"
       id="clipPath20112">
      <path
         d="m 847.13,487.625 h 32.669 v 32.669 H 847.13 Z"
         transform="translate(-858.8467,-509.03872)"
         id="path20112" />
    </clipPath>
    <clipPath
       clipPathUnits="userSpaceOnUse"
       id="clipPath20114">
      <path
         d="m 847.13,487.625 h 32.669 v 32.669 H 847.13 Z"
         transform="translate(-859.64252,-504.17851)"
         id="path20114" />
    </clipPath>
    <clipPath
       clipPathUnits="userSpaceOnUse"
       id="clipPath20116">
      <path
         d="m 847.13,487.625 h 32.669 v 32.669 H 847.13 Z"
         transform="translate(-860.0458,-504.67732)"
         id="path20116" />
    </clipPath>
    <clipPath
       clipPathUnits="userSpaceOnUse"
       id="clipPath20118">
      <path
         d="m 847.13,487.625 h 32.669 v 32.669 H 847.13 Z"
         transform="translate(-859.52582,-501.48311)"
         id="path20118" />
    </clipPath>
    <clipPath
       clipPathUnits="userSpaceOnUse"
       id="clipPath20120">
      <path
         d="m 847.13,487.625 h 32.669 v 32.669 H 847.13 Z"
         transform="translate(-860.96912,-502.44881)"
         id="path20120" />
    </clipPath>
    <clipPath
       clipPathUnits="userSpaceOnUse"
       id="clipPath20122">
      <path
         d="m 847.13,487.625 h 32.669 v 32.669 H 847.13 Z"
         transform="translate(-862.30615,-500.70851)"
         id="path20122" />
    </clipPath>
    <clipPath
       clipPathUnits="userSpaceOnUse"
       id="clipPath20124">
      <path
         d="m 847.13,487.625 h 32.669 v 32.669 H 847.13 Z"
         transform="translate(-862.90045,-503.51002)"
         id="path20124" />
    </clipPath>
    <clipPath
       clipPathUnits="userSpaceOnUse"
       id="clipPath20126">
      <path
         d="m 847.13,487.625 h 32.669 v 32.669 H 847.13 Z"
         transform="translate(-863.5465,-503.83691)"
         id="path20126" />
    </clipPath>
    <clipPath
       clipPathUnits="userSpaceOnUse"
       id="clipPath20128">
      <path
         d="m 847.13,487.625 h 32.669 v 32.669 H 847.13 Z"
         transform="translate(-864.5452,-503.04311)"
         id="path20128" />
    </clipPath>
    <clipPath
       clipPathUnits="userSpaceOnUse"
       id="clipPath20130">
      <path
         d="m 847.13,487.625 h 32.669 v 32.669 H 847.13 Z"
         transform="translate(-863.16092,-505.24661)"
         id="path20130" />
    </clipPath>
    <clipPath
       clipPathUnits="userSpaceOnUse"
       id="clipPath20132">
      <path
         d="m 847.13,487.625 h 32.669 v 32.669 H 847.13 Z"
         transform="translate(-863.04055,-506.36621)"
         id="path20132" />
    </clipPath>
    <clipPath
       clipPathUnits="userSpaceOnUse"
       id="clipPath20134">
      <path
         d="m 847.13,487.625 h 32.669 v 32.669 H 847.13 Z"
         transform="translate(-863.7493,-507.04372)"
         id="path20134" />
    </clipPath>
    <clipPath
       clipPathUnits="userSpaceOnUse"
       id="clipPath20136">
      <path
         d="m 847.13,487.625 h 32.669 v 32.669 H 847.13 Z"
         transform="translate(-865.0546,-507.03311)"
         id="path20136" />
    </clipPath>
    <clipPath
       clipPathUnits="userSpaceOnUse"
       id="clipPath20138">
      <path
         d="m 847.13,487.625 h 32.669 v 32.669 H 847.13 Z"
         transform="translate(-864.47365,-506.33152)"
         id="path20138" />
    </clipPath>
    <clipPath
       clipPathUnits="userSpaceOnUse"
       id="clipPath20140">
      <path
         d="m 847.13,487.625 h 32.669 v 32.669 H 847.13 Z"
         transform="translate(-864.27992,-505.71721)"
         id="path20140" />
    </clipPath>
    <clipPath
       clipPathUnits="userSpaceOnUse"
       id="clipPath20142">
      <path
         d="m 847.13,487.625 h 32.669 v 32.669 H 847.13 Z"
         transform="translate(-863.06905,-507.18341)"
         id="path20142" />
    </clipPath>
    <clipPath
       clipPathUnits="userSpaceOnUse"
       id="clipPath20144">
      <path
         d="m 847.13,487.625 h 32.669 v 32.669 H 847.13 Z"
         transform="translate(-866.17945,-506.77841)"
         id="path20144" />
    </clipPath>
    <clipPath
       clipPathUnits="userSpaceOnUse"
       id="clipPath20146">
      <path
         d="m 847.13,487.625 h 32.669 v 32.669 H 847.13 Z"
         transform="translate(-866.0572,-505.67332)"
         id="path20146" />
    </clipPath>
    <clipPath
       clipPathUnits="userSpaceOnUse"
       id="clipPath20148">
      <path
         d="m 847.13,487.625 h 32.669 v 32.669 H 847.13 Z"
         transform="translate(-865.867,-503.73031)"
         id="path20148" />
    </clipPath>
    <clipPath
       clipPathUnits="userSpaceOnUse"
       id="clipPath20150">
      <path
         d="m 847.13,487.625 h 32.669 v 32.669 H 847.13 Z"
         transform="translate(-866.6569,-502.71412)"
         id="path20150" />
    </clipPath>
    <clipPath
       clipPathUnits="userSpaceOnUse"
       id="clipPath20152">
      <path
         d="m 847.13,487.625 h 32.669 v 32.669 H 847.13 Z"
         transform="translate(-867.6226,-502.21531)"
         id="path20152" />
    </clipPath>
    <clipPath
       clipPathUnits="userSpaceOnUse"
       id="clipPath20154">
      <path
         d="m 847.13,487.625 h 32.669 v 32.669 H 847.13 Z"
         transform="translate(-868.25935,-501.99281)"
         id="path20154" />
    </clipPath>
    <clipPath
       clipPathUnits="userSpaceOnUse"
       id="clipPath20156">
      <path
         d="m 847.13,487.625 h 32.669 v 32.669 H 847.13 Z"
         transform="translate(-867.88795,-501.24971)"
         id="path20156" />
    </clipPath>
    <clipPath
       clipPathUnits="userSpaceOnUse"
       id="clipPath20158">
      <path
         d="m 847.13,487.625 h 32.669 v 32.669 H 847.13 Z"
         transform="translate(-866.704,-499.83831)"
         id="path20158" />
    </clipPath>
    <clipPath
       clipPathUnits="userSpaceOnUse"
       id="clipPath20160">
      <path
         d="m 847.13,487.625 h 32.669 v 32.669 H 847.13 Z"
         transform="translate(-867.9304,-500.22061)"
         id="path20160" />
    </clipPath>
    <clipPath
       clipPathUnits="userSpaceOnUse"
       id="clipPath20162">
      <path
         d="m 847.13,487.625 h 32.669 v 32.669 H 847.13 Z"
         transform="translate(-865.59452,-500.33701)"
         id="path20162" />
    </clipPath>
    <clipPath
       clipPathUnits="userSpaceOnUse"
       id="clipPath20164">
      <path
         d="m 847.13,487.625 h 32.669 v 32.669 H 847.13 Z"
         transform="translate(-867.3772,-498.55431)"
         id="path20164" />
    </clipPath>
    <clipPath
       clipPathUnits="userSpaceOnUse"
       id="clipPath20166">
      <path
         d="m 847.13,487.625 h 32.669 v 32.669 H 847.13 Z"
         transform="translate(-867.72032,-496.84191)"
         id="path20166" />
    </clipPath>
    <clipPath
       clipPathUnits="userSpaceOnUse"
       id="clipPath20168">
      <path
         d="m 847.13,487.625 h 32.669 v 32.669 H 847.13 Z"
         transform="translate(-867.48475,-496.67601)"
         id="path20168" />
    </clipPath>
    <clipPath
       clipPathUnits="userSpaceOnUse"
       id="clipPath20170">
      <path
         d="m 847.13,487.625 h 32.669 v 32.669 H 847.13 Z"
         transform="translate(-864.7783,-497.44011)"
         id="path20170" />
    </clipPath>
    <clipPath
       clipPathUnits="userSpaceOnUse"
       id="clipPath20172">
      <path
         d="m 847.13,487.625 h 32.669 v 32.669 H 847.13 Z"
         transform="translate(-865.2562,-497.07931)"
         id="path20172" />
    </clipPath>
    <clipPath
       clipPathUnits="userSpaceOnUse"
       id="clipPath20174">
      <path
         d="m 847.13,487.625 h 32.669 v 32.669 H 847.13 Z"
         id="path20174" />
    </clipPath>
    <clipPath
       clipPathUnits="userSpaceOnUse"
       id="clipPath20176">
      <path
         d="m 847.13,487.625 h 32.669 v 32.669 H 847.13 Z"
         transform="translate(-870.2755,-499.98601)"
         id="path20176" />
    </clipPath>
    <clipPath
       clipPathUnits="userSpaceOnUse"
       id="clipPath20178">
      <path
         d="m 847.13,487.625 h 32.669 v 32.669 H 847.13 Z"
         transform="translate(-869.17112,-498.91511)"
         id="path20178" />
    </clipPath>
    <clipPath
       clipPathUnits="userSpaceOnUse"
       id="clipPath20180">
      <path
         d="m 847.13,487.625 h 32.669 v 32.669 H 847.13 Z"
         transform="translate(-869.51155,-498.15101)"
         id="path20180" />
    </clipPath>
    <clipPath
       clipPathUnits="userSpaceOnUse"
       id="clipPath20182">
      <path
         d="m 847.13,487.625 h 32.669 v 32.669 H 847.13 Z"
         transform="translate(-870.62575,-499.53701)"
         id="path20182" />
    </clipPath>
    <clipPath
       clipPathUnits="userSpaceOnUse"
       id="clipPath20184">
      <path
         d="m 847.13,487.625 h 32.669 v 32.669 H 847.13 Z"
         transform="translate(-870.45835,-499.14851)"
         id="path20184" />
    </clipPath>
  </defs>
  <g
     id="layer1"
     transform="translate(-117.9862,-100.25879)">
    <path
       id="path20023"
       d="m 0,0 c 0,-8.853 -7.176,-16.029 -16.029,-16.029 -8.853,0 -16.029,7.176 -16.029,16.029 0,8.853 7.176,16.029 16.029,16.029 C -7.176,16.029 0,8.853 0,0"
       style="fill:#ffffff;fill-opacity:1;fill-rule:nonzero;stroke:#ae8f00;stroke-width:0.611;stroke-linecap:butt;stroke-linejoin:miter;stroke-miterlimit:10;stroke-dasharray:none;stroke-opacity:1"
       transform="matrix(2.5568274,0,0,-2.5568274,200.73408,142.02329)"
       clip-path="url(#clipPath20024)" />
    <path
       id="path20025"
       d="m 0.8098936,0.00331655 -0.001554,-2.04027385 -0.73865174,-0.00146 0.0025056,-0.4220303 1.95828914,-0.00432 -0.00251,0.4220302 -0.7269397,-0.00106 0.00155,2.04027386 z m 0,0"
       style="fill:#000000;fill-opacity:1;fill-rule:nonzero;stroke:none"
       aria-label="T"
       transform="matrix(2.555375,-0.08616805,0.08616805,2.555375,155.80479,109.57432)"
       clip-path="url(#clipPath20026)" />
    <path
       id="path20027"
       d="M 2.4599913,0.00378711 1.9147723,-0.00354286 1.7183374,-0.56787343 0.7255849,-0.56056643 0.53091936,-0.00124197 -0.00108453,0.001429 0.95920158,-2.462133 1.4795974,-2.463193 Z M 1.5444018,-0.96969158 1.2168908,-1.8826214 0.86988736,-0.97095156 Z m 0,0"
       style="fill:#000000;fill-opacity:1;fill-rule:nonzero;stroke:none"
       aria-label="A"
       transform="matrix(2.5326702,0.35063959,-0.35063959,2.5326702,161.12888,109.345)"
       clip-path="url(#clipPath20028)" />
    <path
       id="path20029"
       d="m 172.73629,105.38558 1.19848,0.41965 -1.25842,3.77532 c -0.17975,0.50154 -0.35224,0.85393 -0.50952,1.07861 -0.26236,0.29933 -0.58416,0.50951 -0.95887,0.6291 -0.35948,0.11958 -0.79398,0.0899 -1.28835,-0.0899 -0.58416,-0.17974 -0.98126,-0.49429 -1.19855,-0.92886 -0.20221,-0.43414 -0.19496,-0.98873 0.029,-1.64791 l 1.16855,0.26961 c -0.10509,0.35949 -0.14206,0.61388 -0.11959,0.74913 0.0746,0.26236 0.24715,0.44211 0.50951,0.53923 0.2544,0.0826 0.46458,0.0747 0.6291,-0.029 0.17975,-0.11958 0.34427,-0.41964 0.50952,-0.89893 z m 0,0"
       style="fill:#000000;fill-opacity:1;fill-rule:nonzero;stroke:none;stroke-width:2.55683"
       aria-label="J" />
    <path
       id="path20030"
       d="m 173.71748,112.58422 2.78652,-5.63306 1.13862,0.56967 -2.78653,5.63305 z m 0,0"
       style="fill:#000000;fill-opacity:1;fill-rule:nonzero;stroke:none;stroke-width:2.55683"
       aria-label="I" />
    <path
       id="path20031"
       d="m 176.51154,113.98498 3.62552,-5.12369 1.01873,0.71897 -1.58804,2.27716 3.68538,-0.77898 1.4083,0.98872 -3.3559,0.6291 -0.17974,4.55431 -1.34836,-0.95879 0.32977,-3.38577 -1.49817,0.26962 -1.07861,1.5281 z m 0,0"
       style="fill:#000000;fill-opacity:1;fill-rule:nonzero;stroke:none;stroke-width:2.55683"
       aria-label="K" />
    <path
       id="path20032"
       d="m 181.95725,118.2022 4.37456,-4.49437 0.89893,0.86892 -4.37456,4.49437 z m 0,0"
       style="fill:#000000;fill-opacity:1;fill-rule:nonzero;stroke:none;stroke-width:2.55683"
       aria-label="I" />
    <path
       id="path20033"
       d="m 185.64277,118.92878 0.80899,0.86893 c -0.26237,0.33701 -0.41167,0.64432 -0.44936,0.92886 -0.0217,0.29933 0.0899,0.60663 0.32977,0.92887 0.2399,0.31455 0.48705,0.50951 0.74905,0.56894 0.27687,0.058 0.51677,0.0145 0.71898,-0.11959 0.0971,-0.0826 0.16452,-0.20221 0.20945,-0.35948 0.0362,-0.14206 0.0145,-0.31455 -0.058,-0.50952 -0.0435,-0.14205 -0.17974,-0.47182 -0.41964,-0.9888 -0.26237,-0.63707 -0.38195,-1.14608 -0.35948,-1.5281 0.0362,-0.51677 0.25439,-0.9288 0.65881,-1.22849 0.2544,-0.19496 0.5472,-0.29933 0.86893,-0.29933 0.33702,-0.0145 0.66679,0.0747 0.9888,0.26962 0.33702,0.17974 0.65882,0.46457 0.9588,0.83899 0.4566,0.62185 0.66679,1.19101 0.6291,1.70785 -0.0435,0.51676 -0.28483,0.9588 -0.71897,1.31835 l -0.77906,-0.95879 c 0.21743,-0.2399 0.32977,-0.47183 0.32977,-0.68926 0,-0.2399 -0.11234,-0.49429 -0.32977,-0.77898 -0.22468,-0.29933 -0.46457,-0.48705 -0.71897,-0.56967 -0.14205,-0.0145 -0.26961,0.0145 -0.3892,0.0899 -0.14206,0.10509 -0.22468,0.23193 -0.2399,0.3892 0,0.20221 0.12756,0.59141 0.38993,1.16862 0.27686,0.57692 0.43413,1.03367 0.47907,1.37822 0.0362,0.33702 0,0.64432 -0.11959,0.92887 -0.10509,0.29933 -0.29933,0.56967 -0.59938,0.80899 -0.29933,0.21743 -0.64432,0.33701 -1.01874,0.35948 -0.35948,0.0362 -0.71897,-0.0435 -1.0786,-0.2399 -0.34499,-0.20221 -0.67404,-0.52473 -0.9888,-0.9588 -0.4798,-0.64432 -0.71173,-1.24348 -0.68926,-1.79779 0.0362,-0.53923 0.31455,-1.04867 0.83892,-1.5281 z m 0,0"
       style="fill:#000000;fill-opacity:1;fill-rule:nonzero;stroke:none;stroke-width:2.55683"
       aria-label="S" />
    <path
       id="path20034"
       d="m 188.57157,126.91393 4.67419,-2.30716 -0.83893,-1.70785 0.9588,-0.47907 2.18729,4.49445 -0.9588,0.47907 -0.80899,-1.64791 -4.67426,2.30709 z m 0,0"
       style="fill:#000000;fill-opacity:1;fill-rule:nonzero;stroke:none;stroke-width:2.55683"
       aria-label="T" />
    <path
       id="path20035"
       d="M 2.4637166,-0.00465678 1.9260826,5.8137655e-4 1.7083465,-0.56103636 0.73287342,-0.55868445 0.52404069,0.00325785 8.8781041e-4,4.3651753e-4 0.95678652,-2.4566847 1.4718799,-2.4683445 Z M 1.5454539,-0.97299423 1.2196038,-1.8822237 0.87742496,-0.98053442 Z m 0,0"
       style="fill:#000000;fill-opacity:1;fill-rule:nonzero;stroke:none"
       aria-label="A"
       transform="matrix(0.70054377,2.4589847,-2.4589847,0.70054377,190.04032,129.81033)"
       clip-path="url(#clipPath20036)" />
    <path
       id="path20037"
       d="m 0.25838626,0.00639196 -0.002138,-2.46639926 0.48174026,-0.00354 1.00778188,1.64001591 0.00247,-1.64400971 0.457584,0.00662 0.00214,2.46639928 L 1.7153005,-0.0034457 0.71690392,-1.6076118 0.71673959,0.00131751 Z m 0,0"
       style="fill:#000000;fill-opacity:1;fill-rule:nonzero;stroke:none"
       aria-label="N"
       transform="matrix(0.16786608,2.551311,-2.551311,0.16786608,191.87043,136.46343)"
       clip-path="url(#clipPath20038)" />
    <path
       id="path20045"
       d="m 190.83387,151.76057 5.90267,2.15735 -1.46817,4.01501 -1.01874,-0.35949 1.04867,-2.84646 -1.37829,-0.50951 -0.89886,2.4869 -0.9888,-0.35948 0.89893,-2.48691 -2.51691,-0.92886 z m 0,0"
       style="fill:#000000;fill-opacity:1;fill-rule:nonzero;stroke:none;stroke-width:2.55683"
       aria-label="F" />
    <path
       id="path20046"
       d="m 191.44804,158.72699 c 0.53922,0.35948 0.93633,0.72658 1.19848,1.10861 0.19496,0.27686 0.33701,0.58416 0.41964,0.92886 0.0746,0.35949 0.0899,0.6965 0.029,1.01874 -0.0826,0.41964 -0.26237,0.83892 -0.53923,1.25842 -0.50227,0.77905 -1.13861,1.24341 -1.9176,1.40822 -0.77905,0.15728 -1.59558,-0.029 -2.45697,-0.56894 -0.85392,-0.5617 -1.37829,-1.22849 -1.55811,-2.00747 -0.17974,-0.77905 -0.0145,-1.55057 0.47907,-2.30716 0.50227,-0.80152 1.13862,-1.28089 1.9176,-1.43823 0.77906,-0.14206 1.58804,0.058 2.42704,0.59938 z m -0.65882,1.10861 c -0.59938,-0.40443 -1.13861,-0.5617 -1.61805,-0.4798 -0.47907,0.0971 -0.85392,0.36746 -1.13854,0.80899 -0.27686,0.41964 -0.34427,0.85399 -0.20946,1.31835 0.11959,0.45733 0.49429,0.88393 1.10861,1.28843 0.59938,0.39717 1.12361,0.55445 1.58804,0.47907 0.47908,-0.058 0.85393,-0.31455 1.13862,-0.74912 0.27686,-0.46458 0.35948,-0.9288 0.2399,-1.40823 -0.11959,-0.46458 -0.4943,-0.88393 -1.10861,-1.25842 z m 0,0"
       style="fill:#000000;fill-opacity:1;fill-rule:nonzero;stroke:none;stroke-width:2.55683"
       aria-label="O" />
    <path
       id="path20047"
       d="m 186.91605,165.36371 c 0.43414,0.47979 0.72658,0.92886 0.86893,1.34836 0.11958,0.31455 0.17974,0.65881 0.17974,1.01873 0,0.35949 -0.0746,0.69651 -0.20946,1.01874 -0.17974,0.35949 -0.44936,0.71897 -0.80906,1.07868 -0.68201,0.63707 -1.42323,0.93633 -2.21722,0.89886 -0.79398,-0.0217 -1.5431,-0.40443 -2.24722,-1.13862 -0.6965,-0.74158 -1.04867,-1.5131 -1.04867,-2.30708 0,-0.80153 0.34427,-1.52064 1.01874,-2.15736 0.68201,-0.64432 1.42323,-0.94379 2.21721,-0.89886 0.79406,0.0362 1.54311,0.41965 2.24723,1.13855 z m -0.9588,0.92886 c -0.47907,-0.52401 -0.9588,-0.80145 -1.43823,-0.83892 -0.4943,-0.0435 -0.92887,0.11959 -1.28843,0.47907 -0.35948,0.33702 -0.52401,0.74913 -0.50951,1.22849 0,0.47907 0.25439,0.9888 0.74912,1.5281 0.50154,0.51676 0.98873,0.79399 1.46817,0.839 0.4566,0.0362 0.87639,-0.11959 1.25842,-0.4798 0.3747,-0.35949 0.55445,-0.77906 0.53923,-1.25842 -0.0217,-0.47907 -0.28484,-0.98134 -0.77906,-1.49817 z m 0,0"
       style="fill:#000000;fill-opacity:1;fill-rule:nonzero;stroke:none;stroke-width:2.55683"
       aria-label="O" />
    <path
       id="path20048"
       d="m 177.79243,168.95175 2.75659,4.43444 1.61805,-1.01867 0.56894,0.89886 -4.25469,2.66672 -0.56894,-0.89893 1.58804,-0.98873 -2.75659,-4.43451 z m 0,0"
       style="fill:#000000;fill-opacity:1;fill-rule:nonzero;stroke:none;stroke-width:2.55683"
       aria-label="T" />
    <path
       id="path20049"
       d="m 176.19699,177.07171 -2.33709,0.9288 c -0.45661,0.17974 -0.80899,0.29933 -1.04867,0.35948 -0.2399,0.058 -0.47908,0.058 -0.71897,0 -0.2399,-0.058 -0.44936,-0.17249 -0.6291,-0.32977 -0.19497,-0.14205 -0.34427,-0.34499 -0.44936,-0.59938 -0.11959,-0.28484 -0.15003,-0.5617 -0.0899,-0.83892 0.058,-0.28484 0.20221,-0.53923 0.41964,-0.77906 -0.41964,0.058 -0.76405,-0.0145 -1.04874,-0.20946 -0.27687,-0.17974 -0.48705,-0.43414 -0.6291,-0.74905 -0.0971,-0.28483 -0.13481,-0.56967 -0.11959,-0.86892 0.0217,-0.28484 0.11234,-0.53923 0.26961,-0.77906 0.14206,-0.2399 0.35949,-0.44211 0.65882,-0.59938 0.20221,-0.1051 0.67404,-0.29933 1.40823,-0.59939 l 2.00747,-0.77906 z m -1.58804,-0.50951 -0.53923,-1.3783 -0.77906,0.32978 c -0.43413,0.17974 -0.6965,0.29933 -0.77898,0.35948 -0.21743,0.0971 -0.35949,0.22468 -0.41964,0.3892 -0.0746,0.17975 -0.0899,0.35949 -0.029,0.53923 0.0826,0.19496 0.19496,0.32977 0.32977,0.3892 0.14205,0.0747 0.32977,0.0747 0.56967,0 0.10509,-0.0217 0.43413,-0.14205 0.98873,-0.35948 z m -0.9288,-2.33717 -0.59938,-1.55803 -1.0786,0.44935 c -0.41965,0.15728 -0.67404,0.26962 -0.77906,0.32977 -0.15727,0.0971 -0.26961,0.22468 -0.32977,0.38921 -0.058,0.17974 -0.0435,0.3747 0.029,0.59938 0.058,0.15728 0.16452,0.27686 0.29933,0.35949 0.11959,0.0971 0.26962,0.15002 0.44936,0.15002 0.17974,0 0.53923,-0.11234 1.07867,-0.32977 z m 0,0"
       style="fill:#000000;fill-opacity:1;fill-rule:nonzero;stroke:none;stroke-width:2.55683"
       aria-label="B" />
    <path
       id="path20050"
       d="M 2.4631571,-6.5184012e-4 1.9160086,-0.00307959 1.7181988,-0.56216021 0.72978866,-0.56002021 0.52300519,-0.00173085 -0.00107051,-4.038032e-5 0.96159613,-2.4589898 1.4741354,-2.4627394 Z M 1.5418254,-0.97456724 1.2150289,-1.8780772 0.87519438,-0.97451326 Z m 0,0"
       style="fill:#000000;fill-opacity:1;fill-rule:nonzero;stroke:none"
       aria-label="A"
       transform="matrix(-2.5170479,0.44926253,-0.44926253,-2.5170479,168.04442,173.48403)"
       clip-path="url(#clipPath20051)" />
    <path
       id="path20052"
       d="m 0.25840149,-0.00124806 0.003291,-2.44031314 0.50445101,-1.076e-4 9.7743e-4,2.02950995 1.23186257,0.001098 -0.00427,0.41080317943 z m 0,0"
       style="fill:#000000;fill-opacity:1;fill-rule:nonzero;stroke:none"
       aria-label="L"
       transform="matrix(-2.5540409,-0.11933867,0.11933867,-2.5540409,161.2539,174.60489)"
       clip-path="url(#clipPath20053)" />
    <path
       id="path20054"
       d="M 0.2532947,3.3315321e-4 0.2554807,-2.4355033 l 0.50594327,-0.00169 -0.004637,2.02652542 1.23068533,0.004036 0.00245,0.409311 z m 0,0"
       style="fill:#000000;fill-opacity:1;fill-rule:nonzero;stroke:none"
       aria-label="L"
       transform="matrix(-2.4853074,-0.60051101,0.60051101,-2.4853074,155.3055,174.25076)"
       clip-path="url(#clipPath20055)" />
    <path
       id="path20059"
       d="m 140.62361,168.21017 -3.89513,4.94387 -3.3559,-2.63671 0.65954,-0.86893 2.36703,1.85766 0.89893,-1.13854 -2.06748,-1.61805 0.68925,-0.83892 2.06741,1.61797 1.64798,-2.09741 z m 0,0"
       style="fill:#000000;fill-opacity:1;fill-rule:nonzero;stroke:none;stroke-width:2.55683"
       aria-label="F" />
    <path
       id="path20060"
       d="m 136.21157,164.57719 -4.73412,4.13488 -3.05621,-3.50564 0.80899,-0.71897 2.21729,2.54684 1.04867,-0.89893 -2.06741,-2.36703 0.80899,-0.68925 2.0674,2.36709 1.28843,-1.13861 -2.30716,-2.63671 0.77905,-0.68926 z m 0,0"
       style="fill:#000000;fill-opacity:1;fill-rule:nonzero;stroke:none;stroke-width:2.55683"
       aria-label="E" />
    <path
       id="path20061"
       d="m 126.74332,162.89181 -1.13854,-2.06748 c -0.25439,-0.44211 -0.40442,-0.79399 -0.44935,-1.07861 -0.0747,-0.3747 -0.058,-0.74912 0.058,-1.10868 0.10509,-0.35948 0.29933,-0.6965 0.59938,-1.01873 0.28484,-0.31455 0.67404,-0.61388 1.16855,-0.89886 0.46458,-0.2544 0.88386,-0.42689 1.25842,-0.50952 0.47979,-0.0747 0.92132,-0.058 1.31835,0.058 0.29933,0.10509 0.59939,0.28483 0.89886,0.53922 0.20221,0.22468 0.41167,0.53199 0.6291,0.92887 l 1.16855,2.09741 z m 0.32977,-1.67792 3.62552,-2.00754 -0.44936,-0.80899 c -0.17974,-0.31455 -0.31455,-0.53923 -0.41964,-0.65954 -0.15727,-0.15727 -0.31455,-0.26961 -0.47907,-0.32977 -0.15728,-0.058 -0.37471,-0.0435 -0.65882,0.029 -0.29933,0.058 -0.66678,0.20946 -1.1086,0.44936 -0.41965,0.2399 -0.71898,0.46458 -0.89894,0.65881 -0.17974,0.17975 -0.29933,0.38196 -0.35948,0.59939 -0.0747,0.22468 -0.0652,0.44936 0.029,0.68926 0.058,0.16452 0.20946,0.44935 0.44936,0.86892 z m 0,0"
       style="fill:#000000;fill-opacity:1;fill-rule:nonzero;stroke:none;stroke-width:2.55683"
       aria-label="D" />
    <path
       id="path20062"
       d="M 0.24543421,3.3002512e-5 0.24108264,-2.4615144 l 1.82398856,-7.697e-4 0.00838,0.4186872 -1.32337991,0.00485 -0.003011,0.5376511 1.23807521,-0.00609 -0.00622,0.4265236 -1.23807521,0.00609 0.008035,0.66338163 1.37164211,-0.002536 -0.00284,0.41530387 z m 0,0"
       style="fill:#000000;fill-opacity:1;fill-rule:nonzero;stroke:none"
       aria-label="E"
       transform="matrix(-0.73818593,-2.4479478,2.4479478,-0.73818593,129.37388,154.51876)"
       clip-path="url(#clipPath20063)" />
    <path
       id="path20064"
       d="M 0.24691787,-5.2030716e-5 0.24544436,-2.4593703 l 1.05884494,0.00149 c 0.2501221,-9.456e-4 0.4360718,0.024671 0.5581124,0.073933 0.1196497,0.043163 0.2154494,0.1224125 0.2844811,0.2374859 0.075394,0.1097648 0.1107492,0.2394467 0.106328,0.3861279 0.00648,0.1888481 -0.048599,0.3427211 -0.1588715,0.4563106 -0.1126632,0.1074903 -0.2722944,0.1813231 -0.4783664,0.2156627 0.09499,0.055644 0.1796451,0.12800398 0.2515753,0.21098147 0.069539,0.0768784 0.1635139,0.20891233 0.2824508,0.39026625 L 2.4590317,-3.1646351e-4 1.8585278,0.0042872 1.5080798,-0.5450832 C 1.3833074,-0.72696411 1.2941144,-0.84679982 1.2458097,-0.89822773 1.2033405,-0.94912865 1.1534548,-0.98304967 1.1025151,-1.0052994 1.0483941,-1.0248949 0.96377749,-1.0325362 0.84574745,-1.0284868 l -0.0933701,-0.00843 6.2043e-4,1.03550238 z M 0.75214473,-1.425232 1.1171156,-1.4275726 c 0.2347426,0.00649 0.37956,-0.00102 0.4371064,-0.019359 0.063382,-0.017809 0.1103112,-0.048871 0.1378696,-0.093448 0.028085,-0.050413 0.045554,-0.1135507 0.051877,-0.1835782 -0.00111,-0.085407 -0.021312,-0.1548883 -0.063781,-0.2057892 -0.042469,-0.050901 -0.106944,-0.086139 -0.1899796,-0.1112876 -0.032887,0.00585 -0.150653,0.00699 -0.3532997,0.00339 l -0.38831335,2.326e-4 z m 0,0"
       style="fill:#000000;fill-opacity:1;fill-rule:nonzero;stroke:none"
       aria-label="R"
       transform="matrix(-0.22995858,-2.5464653,2.5464653,-0.22995858,127.60181,148.56158)"
       clip-path="url(#clipPath20065)" />
    <path
       id="path20066"
       d="M 2.4605057,-0.00317411 1.9194381,0.00244258 1.7109961,-0.56596161 0.73383279,-0.56495511 0.52950599,-0.00343377 1.0196595e-4,0.00104661 0.96138108,-2.4592273 1.467458,-2.461435 Z M 1.5417898,-0.97334906 1.229277,-1.8848411 0.88181429,-0.9796962 Z m 0,0"
       style="fill:#000000;fill-opacity:1;fill-rule:nonzero;stroke:none"
       aria-label="A"
       transform="matrix(0.2479257,-2.5447788,2.5447788,0.2479257,127.04034,141.88036)"
       clip-path="url(#clipPath20067)" />
    <path
       id="path20068"
       d="m 0.81231256,0.00305114 0.004232,-2.03814874 -0.73902132,0.00231 -0.0033656,-0.4234861 1.94984126,-0.00869 0.00337,0.4234861 -0.7276953,-7.024e-4 -0.00423,2.03814867 z m 0,0"
       style="fill:#000000;fill-opacity:1;fill-rule:nonzero;stroke:none"
       aria-label="T"
       transform="matrix(0.6564139,-2.4711309,2.4711309,0.6564139,127.6482,135.8107)"
       clip-path="url(#clipPath20069)" />
    <path
       id="path20070"
       d="m 129.50731,129.67799 -5.8128,-2.39703 0.47907,-1.16855 5.8128,2.39703 z m 0,0"
       style="fill:#000000;fill-opacity:1;fill-rule:nonzero;stroke:none;stroke-width:2.55683"
       aria-label="I" />
    <path
       id="path20071"
       d="m 127.76945,125.57311 c -0.53923,-0.33702 -0.94379,-0.69651 -1.22848,-1.07868 -0.17974,-0.27686 -0.31455,-0.58416 -0.41964,-0.92886 -0.0971,-0.35949 -0.11959,-0.69651 -0.058,-1.01874 0.0826,-0.41964 0.25439,-0.83892 0.50951,-1.25842 0.47907,-0.79398 1.10861,-1.28842 1.88766,-1.46816 0.77898,-0.17975 1.60298,0 2.4569,0.53923 0.87646,0.53922 1.41577,1.19855 1.61805,1.97753 0.19496,0.76405 0.058,1.52811 -0.41964,2.30716 -0.47908,0.80152 -1.10861,1.28842 -1.88767,1.46817 -0.77905,0.16452 -1.59551,-0.0145 -2.45697,-0.53923 z m 0.6291,-1.13862 c 0.62186,0.38196 1.18348,0.53199 1.67792,0.44936 0.47907,-0.0971 0.84646,-0.36673 1.10861,-0.80899 0.25439,-0.41964 0.31455,-0.85392 0.17974,-1.31835 -0.14205,-0.47908 -0.52401,-0.9064 -1.13854,-1.28843 -0.61461,-0.3747 -1.15362,-0.51676 -1.61798,-0.41964 -0.45733,0.0826 -0.82399,0.34427 -1.10868,0.77898 -0.27686,0.46458 -0.34426,0.9214 -0.20946,1.3783 0.14206,0.44211 0.50952,0.854 1.10861,1.22848 z m 0,0"
       style="fill:#000000;fill-opacity:1;fill-rule:nonzero;stroke:none;stroke-width:2.55683"
       aria-label="O" />
    <path
       id="path20072"
       d="m 134.46633,120.97379 -4.52445,-4.37457 0.86893,-0.86892 4.82407,1.04867 -3.02628,-2.9064 0.80899,-0.83892 4.52437,4.37456 -0.86892,0.89886 -4.73413,-1.01874 2.93641,2.84647 z m 0,0"
       style="fill:#000000;fill-opacity:1;fill-rule:nonzero;stroke:none;stroke-width:2.55683"
       aria-label="N" />
    <path
       id="path20073"
       d="m 0,0 v -3.362 l -3.676,-2.151 h -4.075 l -0.2,2.264 1.431,1.181 2.037,1.115 2.791,0.827 z"
       style="fill:#e30613;fill-opacity:1;fill-rule:nonzero;stroke:none"
       transform="matrix(2.5568274,0,0,-2.5568274,158.86151,110.77961)"
       clip-path="url(#clipPath20074)" />
    <path
       id="path20075"
       d="m 0,0 0.192,-2.004 c 0,0 -0.836,-1.122 -1.344,-2.023 -0.509,-0.902 -1.047,-2.179 -1.047,-2.179 h -0.92 l 0.619,2.366 1.263,2.367 z"
       style="fill:#e30613;fill-opacity:1;fill-rule:nonzero;stroke:none"
       transform="matrix(2.5568274,0,0,-2.5568274,136.99621,120.65612)"
       clip-path="url(#clipPath20076)" />
    <path
       id="path20077"
       d="M 0,0 V -3.254 L 3.452,-5.518 H 7.754 L 7.8,-3.123 5.624,-1.542 3.821,-0.749 1.931,-0.184 Z"
       style="fill:#e30613;fill-opacity:1;fill-rule:nonzero;stroke:none"
       transform="matrix(2.5568274,0,0,-2.5568274,160.74845,110.76657)"
       clip-path="url(#clipPath20078)" />
    <path
       id="path20079"
       d="m 0,0 -0.042,-2.27 c 0,0 0.819,-1.03 1.415,-2.065 0.595,-1.035 0.962,-2.066 0.962,-2.066 H 3.283 L 2.84,-4.533 2.126,-2.959 1.09,-1.212 Z"
       style="fill:#e30613;fill-opacity:1;fill-rule:nonzero;stroke:none"
       transform="matrix(2.5568274,0,0,-2.5568274,182.05625,120.15777)"
       clip-path="url(#clipPath20080)" />
    <path
       id="path20081"
       d="m 0,0 -3.626,-2.29 1.585,-4.092 h 4 l 1.416,4.108 z"
       style="fill:#e30613;fill-opacity:1;fill-rule:nonzero;stroke:none"
       transform="matrix(2.5568274,0,0,-2.5568274,159.8901,120.2064)"
       clip-path="url(#clipPath20082)" />
    <path
       id="path20083"
       d="m 0,0 -3.956,-0.042 -1.492,-4.417 2.462,-3.934 3.483,-0.047 c 0,0 0.454,0.946 0.988,2.064 0.534,1.117 0.945,2.228 0.945,2.228 0,0 -0.461,1.102 -1.04,2.101 C 0.81,-1.048 0,0 0,0 Z m -16.173,-0.073 c 0,0 -0.808,-1.119 -1.337,-2.027 -0.528,-0.908 -1.064,-2.122 -1.064,-2.122 0,0 0.362,-1.293 0.693,-2.186 0.33,-0.894 0.987,-2.126 0.987,-2.126 l 4.234,-0.014 2.006,4.237 -1.698,4.238 z"
       style="fill:none;stroke:#e30613;stroke-width:0.272;stroke-linecap:butt;stroke-linejoin:miter;stroke-miterlimit:10;stroke-dasharray:none;stroke-opacity:1"
       transform="matrix(2.5568274,0,0,-2.5568274,180.39312,126.35245)"
       clip-path="url(#clipPath20084)" />
    <path
       id="path20085"
       d="m 0,0 h -0.736 l -1.839,-4.273 -0.581,-3.831 h 1.289 c 0,0 0.522,0.761 0.806,1.341 0.284,0.579 0.594,1.443 0.594,1.443 0,0 0.211,0.629 0.354,1.33 0.142,0.701 0.184,1.316 0.184,1.316 0,0 0.032,0.759 0.032,1.346 C 0.103,-0.621 0,0 0,0 Z"
       style="fill:none;stroke:#009641;stroke-width:0.272;stroke-linecap:butt;stroke-linejoin:miter;stroke-miterlimit:10;stroke-dasharray:none;stroke-opacity:1"
       transform="matrix(2.5568274,0,0,-2.5568274,190.04966,137.97124)"
       clip-path="url(#clipPath20086)" />
    <path
       id="path20087"
       d="m 0,0 h -4.894 l -0.748,-5.836 1.832,-0.361 3.143,2.225 z"
       style="fill:#009641;fill-opacity:1;fill-rule:nonzero;stroke:none"
       transform="matrix(2.5568274,0,0,-2.5568274,181.83056,149.38492)"
       clip-path="url(#clipPath20088)" />
    <path
       id="path20089"
       d="m 0,0 h -1.519 l -3.919,-2.787 -0.077,-1.459 1.188,0.504 0.902,0.509 1.305,0.913 1.517,1.485 z"
       style="fill:#009641;fill-opacity:1;fill-rule:nonzero;stroke:none"
       transform="matrix(2.5568274,0,0,-2.5568274,184.99925,160.22074)"
       clip-path="url(#clipPath20090)" />
    <path
       id="path20091"
       d="M 0,0 H -2.32 L -4.499,-4.669 -3,-7.075 l 2.489,5.514 z m -12.439,0 h 0.615 c 0,0 0.479,-1.564 0.764,-2.292 0.285,-0.728 0.963,-2.122 0.963,-2.122 0,0 0.066,-0.925 0.198,-1.826 0.131,-0.901 0.325,-1.768 0.325,-1.768 h -1.104 c 0,0 -1,1.649 -1.326,2.886 -0.264,1.001 -0.527,2.081 -0.541,3.155 -0.014,1.048 0.106,1.967 0.106,1.967 z"
       style="fill:none;stroke:#009641;stroke-width:0.272;stroke-linecap:butt;stroke-linejoin:miter;stroke-miterlimit:10;stroke-dasharray:none;stroke-opacity:1"
       transform="matrix(2.5568274,0,0,-2.5568274,161.18258,137.97124)"
       clip-path="url(#clipPath20092)" />
    <path
       id="path20093"
       d="m 0,0 h -4.135 c 0,0 0.087,-0.994 0.191,-1.811 0.095,-0.754 0.403,-1.868 0.403,-1.868 l 3.782,-2.518 1.895,2.858 z"
       style="fill:#009641;fill-opacity:1;fill-rule:nonzero;stroke:none"
       transform="matrix(2.5568274,0,0,-2.5568274,147.68889,149.69222)"
       clip-path="url(#clipPath20094)" />
    <path
       id="path20095"
       d="M 0,0 H -1.401 L 0.138,-1.839 2.08,-3.336 3.79,-4.183 4.305,-3.325 3.994,-2.674 Z"
       style="fill:#009641;fill-opacity:1;fill-rule:nonzero;stroke:none"
       transform="matrix(2.5568274,0,0,-2.5568274,137.76708,159.93054)"
       clip-path="url(#clipPath20096)" />
    <path
       id="path20097"
       d="m 0,0 c 0,-6.736 -5.461,-12.196 -12.196,-12.196 -6.736,0 -12.197,5.46 -12.197,12.196 0,6.736 5.461,12.196 12.197,12.196 C -5.461,12.196 0,6.736 0,0 Z"
       style="fill:none;stroke:#ae8f00;stroke-width:0.272;stroke-linecap:butt;stroke-linejoin:miter;stroke-miterlimit:10;stroke-dasharray:none;stroke-opacity:1"
       transform="matrix(2.5568274,0,0,-2.5568274,190.91968,141.95066)"
       clip-path="url(#clipPath20098)" />
    <path
       id="path20099"
       d="m 0,0 c 0,0 1.226,2.113 1.247,2.177 0.021,0.063 0.679,1.21 0.679,1.21 l 0.701,0.997 c 0,0 0.127,0.382 0,0.658 C 2.499,5.318 2.436,6.337 2.372,6.634 2.308,6.931 1.948,7.737 1.799,7.843 1.65,7.95 1.226,8.098 0.992,8.438 0.759,8.777 0.271,9.732 0.271,9.945 c 0,0.212 -0.34,0.704 -0.467,0.861 -0.127,0.157 -0.658,1.07 -0.7,1.452 -0.043,0.382 0.042,2.992 0.106,3.672 0.063,0.679 0.148,1.485 0.276,1.804 0.127,0.318 0.085,0.933 0.276,1.188 0.191,0.255 0.424,0.573 0.403,0.955 -0.021,0.382 -0.064,1.274 -0.064,1.571 0,0.297 -0.106,0.658 -0.233,0.721 -0.128,0.064 -0.396,0.428 -0.488,0.213 -0.093,-0.215 -0.107,-0.219 -0.288,-0.321 -0.181,-0.102 -0.54,0.023 -0.54,0.13 0,0.106 -0.106,0.092 -0.149,0.258 -0.042,0.166 0,0.357 0,0.357 0,0 -0.23,0.219 -0.285,0.332 -0.054,0.114 0.222,0.368 0.222,0.368 0,0 0.275,0.17 0.212,0.276 -0.064,0.106 -0.297,0.255 -0.17,0.446 0.127,0.191 0.361,-0.149 0.467,0 0.106,0.149 0.148,0.149 0.106,0.403 -0.042,0.255 -0.127,0.451 0.064,0.502 0.191,0.05 0.318,-0.014 0.488,-0.099 0,0 0.021,-0.1 0.17,0.099 0.148,0.199 0.36,0.284 0.53,0.22 0.17,-0.064 0.234,-0.446 0.319,-0.319 0.084,0.128 0.339,0.34 0.339,0.34 0,0 0.276,0.021 0.319,-0.127 C 1.226,25.098 1.247,24.971 1.311,24.928 1.375,24.886 1.65,24.907 1.735,24.865 1.82,24.822 1.905,24.652 1.841,24.546 1.778,24.44 1.672,24.207 1.672,24.207 l 0.254,-0.064 0.234,0.021 c 0,0 0.191,-0.127 0.191,-0.191 0,-0.063 0.212,-0.226 0.085,-0.325 C 2.308,23.549 1.979,23.569 2.011,23.4 c 0.032,-0.169 0.043,-0.262 0.043,-0.262 0,0 0.063,-0.247 -0.043,-0.29 C 1.905,22.806 1.721,22.698 1.675,22.561 1.629,22.424 1.373,22.275 1.3,22.434 1.226,22.594 1.226,22.764 1.141,22.721 1.056,22.679 0.78,22.615 0.823,22.679 0.865,22.742 0.459,22.995 0.535,22.741 0.61,22.488 0.63,22.543 0.738,22.403 0.845,22.262 0.844,21.766 0.844,21.596 v -1.167 c 0,0 0.34,0.127 0.382,-0.085 0.042,-0.212 0.042,-0.339 -0.127,-0.403 -0.17,-0.064 -0.425,-0.276 -0.213,-0.34 0.213,-0.063 0.382,-0.042 0.51,-0.106 0.127,-0.064 0,-0.212 0.148,-0.339 0.149,-0.128 0.106,-0.107 0.191,-0.234 0.085,-0.127 0.106,-0.382 0.106,-0.382 0,0 -0.106,-0.212 -0.127,-0.318 0,0 0.106,-0.425 0,-0.552 C 1.608,17.543 1.268,17.288 1.268,17.203 1.268,17.118 1.141,17.076 1.29,16.885 1.438,16.694 1.587,16.46 1.438,16.375 1.29,16.29 1.12,16.099 1.12,15.972 c 0,-0.127 0,-0.488 0.106,-0.658 0.106,-0.17 0.403,-1.125 0.403,-1.443 0,-0.318 -0.127,-1.252 -0.042,-1.358 0.085,-0.107 0.636,-0.425 0.764,-0.595 0.127,-0.169 0.382,-0.339 0.488,-0.467 0.106,-0.127 0.446,-0.318 0.573,-0.339 0.127,-0.021 0.722,0.17 0.934,0 0.212,-0.17 0.446,-0.306 0.446,-0.306 0,0 0.297,-0.119 0.36,0.136 0.064,0.255 0,0.297 0,0.297 l -0.467,0.064 c 0,0 -0.403,0.361 -0.382,0.509 0.022,0.149 0.17,0.425 0.17,0.425 l 0.043,0.318 c 0,0 -0.255,-0.011 -0.255,0.132 v 0.377 c 0,0 0.127,0.128 0.148,0.191 0.022,0.064 0.064,0.382 0.064,0.382 l 0.234,0.149 0.021,0.785 -0.17,0.977 c 0,0 -0.042,0.53 0.212,0.339 0.255,-0.191 0.411,-0.403 0.411,-0.403 l 0.266,0.064 0.172,0.191 v 0.36 l 0.149,0.064 0.106,0.212 0.255,0.022 0.127,0.382 h 0.488 v -0.298 c 0,0 0.446,0 0.446,-0.084 v -0.276 c 0,0 0.382,0.063 0.382,0 v -0.446 c 0,0 0.233,0 0.297,-0.064 l 0.064,-0.063 c 0,0 0.191,0.212 0.233,0.275 0.042,0.064 0.318,0.149 0.361,0 0.042,-0.148 0,-0.53 0,-0.53 l -0.191,-0.7 c 0,0 -0.106,-0.298 0,-0.446 C 8.442,13.998 8.697,13.68 8.76,13.595 8.824,13.51 8.93,13.043 8.888,12.937 8.845,12.831 8.506,12.687 8.506,12.687 v -0.556 c 0,0 -0.361,-0.213 -0.34,-0.319 0.021,-0.106 0,-0.866 0.064,-1.006 0.063,-0.14 0.17,-0.373 0.297,-0.543 0.127,-0.17 0.21,-0.34 0.37,-0.34 0.16,0 0.649,0.128 0.712,0.064 0.064,-0.064 0.276,-0.318 0.276,-0.318 0,0 0.403,-0.064 0.467,-0.128 0.064,-0.063 -0.042,-0.382 0.106,-0.488 0.149,-0.106 0.616,-0.212 0.892,-0.53 0.275,-0.319 0.551,-0.955 0.551,-0.955 0,0 0.276,-0.17 0.319,-0.234 0.042,-0.064 0.17,-0.424 0.17,-0.424 0,0 0.233,-0.043 0.254,-0.128 0.021,-0.085 0.17,-0.403 0.17,-0.403 0,0 -0.021,-0.424 0.106,-0.573 0.127,-0.149 0.212,-0.382 0.212,-0.382 0,0 0.276,-1.04 0.361,-1.189 C 13.578,4.087 13.748,3.471 13.833,3.28 13.918,3.089 13.769,2.665 13.663,2.516 13.557,2.368 13.047,1.965 12.814,1.943 12.581,1.922 12.008,1.965 11.774,2.219 11.541,2.474 11.201,3.132 11.116,3.217 11.031,3.302 10.734,3.45 10.67,3.514 c -0.063,0.064 -0.318,0.424 -0.318,0.488 0,0.064 -0.212,0.531 -0.212,0.531 L 9.949,4.872 10.034,3.641 c 0,0 -0.064,-1.125 -0.021,-1.252 0.042,-0.127 0.297,-0.594 0.36,-0.806 0.064,-0.213 0.234,-0.786 0.234,-0.934 0,-0.149 0.1,-0.688 0.1,-0.688 0,0 -1.246,-0.566 -1.947,-0.744 C 8.059,-0.962 6.723,-1.257 6.171,-1.254 5.619,-1.252 4.19,-1.212 3.753,-1.145 3.316,-1.078 2.391,-0.9 1.953,-0.762 1.516,-0.625 0,0 0,0"
       style="fill:#ffffff;fill-opacity:1;fill-rule:nonzero;stroke:#ae8f00;stroke-width:0.272;stroke-linecap:butt;stroke-linejoin:miter;stroke-miterlimit:10;stroke-dasharray:none;stroke-opacity:1"
       transform="matrix(2.5568274,0,0,-2.5568274,145.9469,169.92773)"
       clip-path="url(#clipPath20100)" />
    <path
       id="path20101"
       d="m 0,0 c 0,0 -0.127,0.701 -0.976,0.7 -0.595,0 -1.168,-0.467 -1.168,-0.7 0,0 0.743,0.227 1.072,0.227 C -0.743,0.227 0,0 0,0"
       style="fill:#ae8f00;fill-opacity:1;fill-rule:nonzero;stroke:none"
       transform="matrix(2.5568274,0,0,-2.5568274,149.18996,109.72696)"
       clip-path="url(#clipPath20102)" />
    <path
       id="path20103"
       d="M 0,0 C 0.064,0.17 0.191,0.467 0.541,0.424"
       style="fill:#ae8f00;fill-opacity:1;fill-rule:nonzero;stroke:none"
       transform="matrix(2.5568274,0,0,-2.5568274,145.06616,111.50808)"
       clip-path="url(#clipPath20104)" />
    <path
       id="path20105"
       d="m 0,0 0.095,-0.34 -0.201,-0.148 c 0,0 -0.35,-0.011 -0.35,0 0,0.011 0.371,0.242 0.371,0.242 z"
       style="fill:#ae8f00;fill-opacity:1;fill-rule:nonzero;stroke:none"
       transform="matrix(2.5568274,0,0,-2.5568274,147.36941,111.50808)"
       clip-path="url(#clipPath20106)" />
    <path
       id="path20107"
       d="m 0,0 v 0.106 c 0,0 -0.308,-0.074 -0.52,-0.244 -0.212,-0.17 -0.329,-0.509 -0.329,-0.509 0,0 0.276,0.265 0.425,0.376 C -0.276,-0.159 0,0 0,0"
       style="fill:#ae8f00;fill-opacity:1;fill-rule:nonzero;stroke:none"
       transform="matrix(2.5568274,0,0,-2.5568274,149.43428,121.22166)"
       clip-path="url(#clipPath20108)" />
    <path
       id="path20109"
       d="m 0,0 c 0,0 -0.308,-0.255 -0.52,-0.478 -0.212,-0.222 -0.488,-0.615 -0.467,-0.721 0.021,-0.106 0.117,-0.106 0.244,-0.053 0.128,0.053 0.158,0.063 0.249,0.212 0.091,0.149 -0.015,0.371 0.07,0.456 C -0.34,-0.499 0,0 0,0"
       style="fill:#ae8f00;fill-opacity:1;fill-rule:nonzero;stroke:none"
       transform="matrix(2.5568274,0,0,-2.5568274,149.43428,123.88055)"
       clip-path="url(#clipPath20110)" />
    <path
       id="path20111"
       d="m 0,0 c 0,0 0.062,-1.634 0.09,-1.931 0.027,-0.297 0.047,-1.419 0,-1.564 -0.048,-0.145 -0.079,-0.325 0.069,-0.293 0.149,0.031 0.382,0.042 0.361,0.212 -0.021,0.17 0.066,0.562 0.001,0.859 -0.065,0.298 -0.164,1.03 -0.226,1.412 C 0.233,-0.923 0.116,-0.159 0.09,-0.064 0.064,0.032 0,0 0,0"
       style="fill:#ae8f00;fill-opacity:1;fill-rule:nonzero;stroke:none"
       transform="matrix(2.5568274,0,0,-2.5568274,147.94198,129.03562)"
       clip-path="url(#clipPath20112)" />
    <path
       id="path20113"
       d="M 0,0 C 0,0 0.053,0.488 -0.117,0.637 -0.286,0.785 -0.301,1.048 -0.501,0.927 -0.7,0.806 -0.87,0.576 -1.114,0.479 -1.358,0.382 -1.73,0.393 -1.624,0.308 c 0.107,-0.085 0.542,-0.202 0.648,-0.117 0.106,0.085 0.127,0.332 0.339,0.288 0.213,-0.044 0.276,-0.065 0.425,-0.277 0.148,-0.213 0.185,-0.361 0.22,-0.34 C 0.042,-0.117 0,0 0,0"
       style="fill:#ae8f00;fill-opacity:1;fill-rule:nonzero;stroke:none"
       transform="matrix(2.5568274,0,0,-2.5568274,149.97677,141.46231)"
       clip-path="url(#clipPath20114)" />
    <path
       id="path20115"
       d="M 0,0 C 0,0 0.127,-0.785 0.064,-1.008 0,-1.231 -0.138,-1.486 -0.255,-1.549 c -0.116,-0.064 -0.371,-0.202 -0.52,-0.138 -0.148,0.063 -0.382,0.223 -0.509,0.286 -0.127,0.064 -0.255,0.032 -0.18,-0.01 0.074,-0.043 0.52,-0.414 0.605,-0.435 0.084,-0.022 0.35,-0.096 0.541,0 0.191,0.095 0.311,0.18 0.4,0.318 0.088,0.138 0.226,0.361 0.183,0.499 C 0.223,-0.891 0.202,-0.255 0.149,-0.138 0.096,-0.021 0,0 0,0"
       style="fill:#ae8f00;fill-opacity:1;fill-rule:nonzero;stroke:none"
       transform="matrix(2.5568274,0,0,-2.5568274,151.0079,140.18694)"
       clip-path="url(#clipPath20116)" />
    <path
       id="path20117"
       d="M 0,0 C 0,0 0.562,0.18 0.743,0.658 0.923,1.135 1.125,1.836 1.135,2.027 1.146,2.218 1.146,2.625 1.401,2.49 1.655,2.356 1.91,2.207 2.037,1.73 2.165,1.252 2.175,0.424 2.144,-0.053 c -0.032,-0.478 0,-0.669 -0.181,-0.934 -0.18,-0.265 -0.339,-0.53 -0.509,-0.509 -0.17,0.021 -0.388,0.01 -0.375,0.212 0.014,0.202 0.279,0.456 0.343,0.615 0.064,0.16 0.35,0.835 0.318,1.192 C 1.708,0.881 1.772,1.507 1.666,1.687 1.56,1.868 1.38,2.048 1.358,1.719 1.337,1.39 1.135,0.75 0.966,0.523 0.796,0.297 0.435,-0.159 0.255,-0.159 0.074,-0.159 0,0 0,0"
       style="fill:#ae8f00;fill-opacity:1;fill-rule:nonzero;stroke:none"
       transform="matrix(2.5568274,0,0,-2.5568274,149.67838,148.35401)"
       clip-path="url(#clipPath20118)" />
    <path
       id="path20119"
       d="m 0,0 c 0,0 -0.208,-0.789 -0.364,-0.909 -0.156,-0.12 -0.326,-0.428 -0.421,-0.449 -0.096,-0.022 -0.064,-0.191 0,-0.244 0.063,-0.053 0.212,-0.319 0.244,-0.319 0.032,0 0.223,0.149 0.318,0.329 0.096,0.181 0.181,0.679 0.223,0.945 C 0.042,-0.382 0,0 0,0"
       style="fill:#ae8f00;fill-opacity:1;fill-rule:nonzero;stroke:none"
       transform="matrix(2.5568274,0,0,-2.5568274,153.36869,145.88486)"
       clip-path="url(#clipPath20120)" />
    <path
       id="path20121"
       d="m 0,0 c 0,0 0.414,-0.541 0.955,-0.573 0.541,-0.032 0.966,-0.032 1.114,0.053 0.149,0.085 0.266,0.053 0.266,0.053 0,0 -0.266,-0.35 -0.467,-0.393 C 1.666,-0.902 1.04,-1.008 0.817,-0.966 0.594,-0.923 0.361,-0.828 0.212,-0.541 0.064,-0.255 0,0 0,0"
       style="fill:#ae8f00;fill-opacity:1;fill-rule:nonzero;stroke:none"
       transform="matrix(2.5568274,0,0,-2.5568274,156.78722,150.33451)"
       clip-path="url(#clipPath20122)" />
    <path
       id="path20123"
       d="m 0,0 c 0,-0.053 0.626,-1.092 0.955,-1.517 0.329,-0.425 0.987,-0.987 0.987,-0.987 0,0 -0.499,0.732 -0.817,1.188 C 0.806,-0.86 0.562,-0.371 0.424,-0.18 0.286,0.011 0,0 0,0"
       style="fill:#ae8f00;fill-opacity:1;fill-rule:nonzero;stroke:none"
       transform="matrix(2.5568274,0,0,-2.5568274,158.30677,143.17154)"
       clip-path="url(#clipPath20124)" />
    <path
       id="path20125"
       d="m 0,0 c -0.028,0.027 -0.229,0.02 -0.25,-0.056 -0.022,-0.076 0.153,-0.299 0.236,-0.341 0.082,-0.043 0.406,-0.149 0.406,-0.149 0,0 -0.101,0.096 -0.197,0.212 C 0.1,-0.217 0,-0.056 0,-0.056 Z"
       style="fill:#ae8f00;fill-opacity:1;fill-rule:nonzero;stroke:none"
       transform="matrix(2.5568274,0,0,-2.5568274,159.95859,142.33573)"
       clip-path="url(#clipPath20126)" />
    <path
       id="path20127"
       d="m 0,0 c 0.021,-0.053 0.287,-0.753 0.371,-0.838 0.085,-0.085 0.351,-0.51 0.393,-0.557 0.043,-0.048 0.064,0.132 0.064,0.175 0,0.042 -0.435,0.594 -0.478,0.711 C 0.308,-0.393 0.127,-0.042 0.096,0 0.064,0.042 0,0 0,0"
       style="fill:#ae8f00;fill-opacity:1;fill-rule:nonzero;stroke:none"
       transform="matrix(2.5568274,0,0,-2.5568274,162.5121,144.36531)"
       clip-path="url(#clipPath20128)" />
    <path
       id="path20129"
       d="m 0,0 c -0.036,-0.057 -0.312,-0.195 -0.252,-0.344 0.06,-0.149 0.284,-0.297 0.31,-0.315 0.026,-0.018 0.086,0.143 0.074,0.189 -0.012,0.046 -0.074,0.404 -0.074,0.404 z"
       style="fill:#ae8f00;fill-opacity:1;fill-rule:nonzero;stroke:none"
       transform="matrix(2.5568274,0,0,-2.5568274,158.97269,138.73138)"
       clip-path="url(#clipPath20130)" />
    <path
       id="path20131"
       d="m 0,0 c 0,0 -0.223,-0.127 -0.265,-0.191 -0.043,-0.064 -0.021,-0.255 0,-0.318 0.021,-0.064 0.244,-0.191 0.265,-0.202 0.021,-0.011 0,0.149 0,0.149 0,0 -0.202,0.148 -0.202,0.206 0,0.059 0.211,0.239 0.211,0.239 z"
       style="fill:#ae8f00;fill-opacity:1;fill-rule:nonzero;stroke:none"
       transform="matrix(2.5568274,0,0,-2.5568274,158.66495,135.86876)"
       clip-path="url(#clipPath20132)" />
    <path
       id="path20133"
       d="M 0,0 C 0,0 0.403,-0.042 0.477,-0.064 0.552,-0.085 0.711,0 0.711,0 c 0,0 0.053,0.318 -0.053,0.318 -0.106,0 -0.552,-0.127 -0.552,-0.127 z"
       style="fill:#ae8f00;fill-opacity:1;fill-rule:nonzero;stroke:none"
       transform="matrix(2.5568274,0,0,-2.5568274,160.47709,134.13648)"
       clip-path="url(#clipPath20134)" />
    <path
       id="path20135"
       d="m 0,0 0.775,-0.057 c 0,0 0.085,0.206 0,0.269 -0.085,0.064 -0.457,0.117 -0.457,0.117 0,0 -0.244,0.064 -0.244,0 C 0.074,0.265 0,0 0,0"
       style="fill:#ae8f00;fill-opacity:1;fill-rule:nonzero;stroke:none"
       transform="matrix(2.5568274,0,0,-2.5568274,163.81451,134.16359)"
       clip-path="url(#clipPath20136)" />
    <path
       id="path20137"
       d="M 0,0 C 0,0 0.761,-0.041 0.708,0.033 0.655,0.107 0.439,0.256 0.439,0.256 Z"
       style="fill:#ae8f00;fill-opacity:1;fill-rule:nonzero;stroke:none"
       transform="matrix(2.5568274,0,0,-2.5568274,162.32917,135.95747)"
       clip-path="url(#clipPath20138)" />
    <path
       id="path20139"
       d="m 0,0 h 0.149 c 0,0 0.201,0.142 0.254,0.151 0.053,0.008 0.319,0 0.319,0 0,0 0.091,-0.112 0.183,-0.091 0.092,0.021 0.188,0 0.188,0 0,0 -0.015,0.195 -0.188,0.248 -0.173,0.053 -0.666,0.053 -0.711,0 C 0.149,0.255 0,0.152 0,0.152 Z"
       style="fill:#ae8f00;fill-opacity:1;fill-rule:nonzero;stroke:none"
       transform="matrix(2.5568274,0,0,-2.5568274,161.83379,137.52812)"
       clip-path="url(#clipPath20140)" />
    <path
       id="path20141"
       d="M 0,0 C 0,0 0.479,0.486 0.68,0.571 0.882,0.656 1.253,0.805 1.572,0.815 1.89,0.826 2.346,0.773 2.601,0.646 2.856,0.518 3.11,0.179 3.11,0.179 v 0.229 c 0,0 -0.18,0.407 -0.806,0.535 -0.626,0.127 -1.08,0.053 -1.262,0 C 0.861,0.89 0.428,0.688 0.225,0.444 0.022,0.2 0,0 0,0"
       style="fill:#ae8f00;fill-opacity:1;fill-rule:nonzero;stroke:none"
       transform="matrix(2.5568274,0,0,-2.5568274,158.73779,133.77932)"
       clip-path="url(#clipPath20142)" />
    <path
       id="path20143"
       d="m 0,0 0.074,-0.909 c 0,0 0.223,0.028 0.276,0.124 0.053,0.095 0.011,0.467 0,0.509 -0.01,0.043 -0.162,0.361 -0.162,0.361 z"
       style="fill:#ae8f00;fill-opacity:1;fill-rule:nonzero;stroke:none"
       transform="matrix(2.5568274,0,0,-2.5568274,166.69054,134.8148)"
       clip-path="url(#clipPath20144)" />
    <path
       id="path20145"
       d="m 0,0 c 0,0 -0.065,-0.391 -0.16,-0.476 -0.095,-0.085 -0.502,-0.212 -0.622,-0.191 -0.062,0.011 -0.257,0.131 -0.494,0.13 -0.224,-0.001 -0.489,-0.123 -0.592,-0.132 -0.213,-0.019 -0.446,0.061 -0.489,0.132 -0.042,0.072 -0.269,0.156 -0.269,0.156 0,0 0.057,-0.26 0.227,-0.401 0.17,-0.14 0.382,-0.363 0.647,-0.363 0.266,0 0.881,-0.021 1.019,0 0.138,0.022 0.298,0.107 0.494,0.255 0.196,0.149 0.302,0.311 0.312,0.463 C 0.084,-0.274 0,0 0,0"
       style="fill:#ae8f00;fill-opacity:1;fill-rule:nonzero;stroke:none"
       transform="matrix(2.5568274,0,0,-2.5568274,166.37802,137.64031)"
       clip-path="url(#clipPath20146)" />
    <path
       id="path20147"
       d="m 0,0 c 0,0 -0.292,-0.308 -0.271,-0.439 0.021,-0.132 0.005,-0.28 0.135,-0.333 0.13,-0.053 0.342,0.006 0.4,0.104 0.059,0.097 0.069,0.204 0,0.342 -0.068,0.137 -0.121,0.18 -0.143,0.222 C 0.1,-0.061 0,0 0,0"
       style="fill:#ae8f00;fill-opacity:1;fill-rule:nonzero;stroke:none"
       transform="matrix(2.5568274,0,0,-2.5568274,165.8917,142.60825)"
       clip-path="url(#clipPath20148)" />
    <path
       id="path20149"
       d="m 0,0 c 0,0 -0.099,0.042 -0.198,0 -0.099,-0.042 -0.173,-0.435 -0.28,-0.573 -0.106,-0.138 -0.371,-0.722 -0.371,-0.722 h 0.17 c 0,0 0.355,0.538 0.39,0.587 0.034,0.05 0.183,0.252 0.289,0.379 C 0.106,-0.202 0,0 0,0"
       style="fill:#ae8f00;fill-opacity:1;fill-rule:nonzero;stroke:none"
       transform="matrix(2.5568274,0,0,-2.5568274,167.91135,145.20648)"
       clip-path="url(#clipPath20150)" />
    <path
       id="path20151"
       d="m 0,0 -1.532,-0.987 c 0,0 -0.346,-0.124 -0.357,-0.269 -0.011,-0.145 0.064,-0.325 0.202,-0.251 0.138,0.074 0.339,0.255 0.477,0.372 C -1.072,-1.019 0,0 0,0"
       style="fill:#ae8f00;fill-opacity:1;fill-rule:nonzero;stroke:none"
       transform="matrix(2.5568274,0,0,-2.5568274,170.38042,146.48185)"
       clip-path="url(#clipPath20152)" />
    <path
       id="path20153"
       d="m 0,0 c 0,0 -0.127,0.135 -0.255,0.083 -0.127,-0.052 -0.424,-0.296 -0.509,-0.349 -0.085,-0.053 -0.244,-0.286 -0.308,-0.307 -0.063,-0.022 0.382,-0.025 0.536,0.072 0.154,0.097 0.462,0.267 0.483,0.32 C -0.032,-0.128 0,0 0,0"
       style="fill:#ae8f00;fill-opacity:1;fill-rule:nonzero;stroke:none"
       transform="matrix(2.5568274,0,0,-2.5568274,172.00854,147.0508)"
       clip-path="url(#clipPath20154)" />
    <path
       id="path20155"
       d="m 0,0 c 0,0 -0.059,-0.446 -0.168,-0.807 -0.108,-0.36 -0.363,-1.103 -0.341,-1.146 0.021,-0.042 -0.022,-0.594 0.116,-0.668 0.138,-0.074 0.489,-0.223 0.711,-0.372 0.223,-0.148 0.351,-0.413 0.457,-0.689 0.106,-0.276 0.191,-0.743 0.254,-0.807 0.064,-0.063 0.181,-0.039 0.202,0.081 0.021,0.121 0.106,0.365 0,0.598 -0.106,0.234 -0.297,0.51 -0.403,0.637 -0.106,0.127 -0.149,0.308 -0.085,0.393 0.064,0.085 0.201,0.488 0.138,0.636 C 0.817,-1.995 0.626,-1.878 0.478,-1.687 0.329,-1.496 0.233,-0.998 0.223,-0.722 0.212,-0.446 0,0 0,0"
       style="fill:#ae8f00;fill-opacity:1;fill-rule:nonzero;stroke:none"
       transform="matrix(2.5568274,0,0,-2.5568274,171.05888,148.95071)"
       clip-path="url(#clipPath20156)" />
    <path
       id="path20157"
       d="m 0,0 c 0,0 -0.291,0.157 -0.365,0.147 -0.075,-0.009 0,-0.147 0,-0.147 0,0 0.445,-0.34 0.488,-0.382 0.042,-0.042 0.254,-0.265 0.254,-0.265 0,0 0.17,-0.181 0.16,-0.064 -0.011,0.117 -0.06,0.371 -0.06,0.371 l 0.06,0.308 c 0,0 -0.034,0.106 -0.06,0.106 -0.025,0 -0.322,-0.053 -0.322,-0.053 z"
       style="fill:#ae8f00;fill-opacity:1;fill-rule:nonzero;stroke:none"
       transform="matrix(2.5568274,0,0,-2.5568274,168.03173,152.55941)"
       clip-path="url(#clipPath20158)" />
    <path
       id="path20159"
       d="m 0,0 c 0,0 -0.261,-0.467 -0.21,-0.584 0.051,-0.117 -0.161,-0.446 -0.098,-0.488 0.064,-0.043 0.212,-0.234 0.255,-0.265 0.042,-0.032 0.159,-0.202 0.233,-0.234 0.075,-0.032 0.351,-0.053 0.372,0 0.021,0.053 0.085,0.327 0.063,0.339 C 0.594,-1.221 0.52,-1.019 0.446,-0.945 0.371,-0.87 0.236,-0.743 0.15,-0.648 0.064,-0.552 0,-0.329 0,-0.297 Z"
       style="fill:#ffffff;fill-opacity:1;fill-rule:nonzero;stroke:none"
       transform="matrix(2.5568274,0,0,-2.5568274,171.16745,151.58199)"
       clip-path="url(#clipPath20160)" />
    <path
       id="path20161"
       d="m 0,0 c 0,0 -0.19,-0.183 -0.179,-0.351 0.01,-0.169 -0.085,-0.85 -0.096,-0.998 -0.01,-0.147 -0.063,-1.007 -0.063,-1.007 V -2.78 l 0.116,-0.17 c 0,0 0.075,-0.021 0.117,0 0.043,0.021 0.053,0.265 0.053,0.265 0,0 0.072,1.55 0.052,1.592 -0.02,0.042 0.076,0.541 0.076,0.584 0,0.042 0.01,0.276 0,0.307 C 0.065,-0.17 0,0 0,0"
       style="fill:#ae8f00;fill-opacity:1;fill-rule:nonzero;stroke:none"
       transform="matrix(2.5568274,0,0,-2.5568274,165.19498,151.28432)"
       clip-path="url(#clipPath20162)" />
    <path
       id="path20163"
       d="m 0,0 -0.444,-0.976 -0.229,-0.42 c 0,0 0.144,-0.017 0.176,0 C -0.466,-1.38 0.009,-0.393 0,-0.361 -0.009,-0.329 0,0 0,0"
       style="fill:#ae8f00;fill-opacity:1;fill-rule:nonzero;stroke:none"
       transform="matrix(2.5568274,0,0,-2.5568274,169.75299,155.8424)"
       clip-path="url(#clipPath20164)" />
    <path
       id="path20165"
       d="M 0,0 -0.539,0.205 -0.841,0.316 H -2.104 L -1.833,0 -1.912,-0.442 -2.126,-0.76 -2.255,-0.972 0,-1.05 Z"
       style="fill:#ae8f00;fill-opacity:1;fill-rule:nonzero;stroke:none"
       transform="matrix(2.5568274,0,0,-2.5568274,170.63032,160.22074)"
       clip-path="url(#clipPath20166)" />
    <path
       id="path20167"
       d="m 0,0 -0.444,0.166 h -0.448 -0.502 v -0.474 l -0.23,-0.286 H -0.626 -0.064 0 Z"
       style="fill:#ffffff;fill-opacity:1;fill-rule:nonzero;stroke:none"
       transform="matrix(2.5568274,0,0,-2.5568274,170.02797,160.64487)"
       clip-path="url(#clipPath20168)" />
    <path
       id="path20169"
       d="m 0,0 -0.533,-0.36 -2.629,-0.011 v 0.792 c 0,0 -0.17,0.086 -0.17,-0.008 0,-0.095 -0.053,-2.917 -0.053,-2.917 v -0.52 l -0.944,-2.155 0.942,-0.287 0.161,2.325 0.064,1.493 h 3.481 l -0.17,0.237 -0.584,-0.022 h -2.659 v 0.835 h 2.686 l 0.589,0.672 z"
       style="fill:#ae8f00;fill-opacity:1;fill-rule:nonzero;stroke:none"
       transform="matrix(2.5568274,0,0,-2.5568274,163.10808,158.69118)"
       clip-path="url(#clipPath20170)" />
    <path
       id="path20171"
       d="m 0,0 c -0.199,-0.032 -0.488,-0.18 -0.478,-0.403 0.011,-0.223 0.16,-0.52 0.372,-0.52 0.212,0 0.446,0.223 0.424,0.461 C 0.297,-0.223 0.115,0.018 0,0"
       style="fill:#ae8f00;fill-opacity:1;fill-rule:nonzero;stroke:none"
       transform="matrix(2.5568274,0,0,-2.5568274,164.32997,159.61374)"
       clip-path="url(#clipPath20172)" />
    <path
       id="path20173"
       d="m 861.935,495.381 h 5.624 v -0.149 h -5.624 z"
       style="fill:#ae8f00;fill-opacity:1;fill-rule:nonzero;stroke:none"
       transform="matrix(2.5568274,0,0,-2.5568274,-2047.9808,1430.5598)"
       clip-path="url(#clipPath20174)" />
    <path
       id="path20175"
       d="m 0,0 -0.244,-0.18 -0.149,-0.445 0.075,-0.149 0.122,0.207 0.111,0.314 z"
       style="fill:#ae8f00;fill-opacity:1;fill-rule:nonzero;stroke:none"
       transform="matrix(2.5568274,0,0,-2.5568274,177.16347,152.18181)"
       clip-path="url(#clipPath20176)" />
    <path
       id="path20177"
       d="m 0,0 -0.027,-0.039 -0.174,-0.259 -0.085,-0.286 0.143,-0.127 0.186,0.265 h 0.202 v 0.223 c 0,0 -0.267,-0.053 -0.245,-0.01 C 0.022,-0.191 0,0 0,0"
       style="fill:#ae8f00;fill-opacity:1;fill-rule:nonzero;stroke:none"
       transform="matrix(2.5568274,0,0,-2.5568274,174.33977,154.91992)"
       clip-path="url(#clipPath20178)" />
    <path
       id="path20179"
       d="M 0,0 -0.095,-1.071 -0.149,-1.689 0.159,-2.207 0.658,-2.77 c 0,0 0.456,-0.116 0.541,-0.148 0.085,-0.032 0.403,0.074 0.541,0.148 0.138,0.075 0.382,0.213 0.276,0.361 -0.106,0.149 -0.223,0.474 -0.445,0.72 -0.223,0.246 -0.624,0.575 -0.624,0.575 v 0.18 c 0,0 0.273,0.382 0.326,0.488 0.053,0.106 0.128,0.329 0.128,0.393 0,0.064 -0.011,0.456 -0.011,0.456 L 1.189,0.318 c 0,0 0.084,-0.413 0.042,-0.488 C 1.189,-0.244 0.96,-0.626 0.947,-0.669 0.934,-0.711 0.87,-0.977 0.764,-0.993 0.658,-1.008 0.488,-1.059 0.371,-1.071 0.255,-1.082 0.159,-1.098 0.117,-1 0.074,-0.902 0.053,-0.17 0.053,-0.17 Z"
       style="fill:#ae8f00;fill-opacity:1;fill-rule:nonzero;stroke:none"
       transform="matrix(2.5568274,0,0,-2.5568274,175.21014,156.87361)"
       clip-path="url(#clipPath20180)" />
    <path
       id="path20181"
       d="m 0,0 c 0,0 -0.112,-0.049 -0.167,-0.118 -0.056,-0.069 -0.215,-0.285 -0.183,-0.331 0.032,-0.046 -0.074,-0.1 -0.074,-0.1 0,0 0.01,0.108 0,0.224 C -0.435,-0.208 -0.212,0 -0.212,0 Z"
       style="fill:#ae8f00;fill-opacity:1;fill-rule:nonzero;stroke:none"
       transform="matrix(2.5568274,0,0,-2.5568274,178.059,153.32984)"
       clip-path="url(#clipPath20182)" />
    <path
       id="path20183"
       d="M 0,0 0.04,-0.233 H 0.167 L 0.274,-0.16 V 0.064 Z"
       style="fill:#ae8f00;fill-opacity:1;fill-rule:nonzero;stroke:none"
       transform="matrix(2.5568274,0,0,-2.5568274,177.63095,154.32314)"
       clip-path="url(#clipPath20184)" />
  </g>
</svg>
