<?xml version="1.0" encoding="UTF-8"?>
<svg id="Layer_2" data-name="Layer 2" xmlns="http://www.w3.org/2000/svg" width="275" height="361.2431" viewBox="0 0 275 361.2431">
  <g id="Layer_1-2" data-name="Layer 1">
    <path d="M88.8228,109.1151c1.5209-1.4537,2.9653-2.9251,4.3756-4.403,16.7649-18.0835,24.9095-36.5677,28.6326-46.6299H15.9323v87.3884c18.8465-3.2954,47.6508-12.2307,72.8905-36.3555Z" fill="#e01e36"/>
    <path d="M172.4758,92.4358c-1.8145,5.0777-5.7084,17.7549-3.8495,33.5582.9198,6.8826,2.6493,12.6591,4.3779,17.0845.4164,1.066.8578,2.1222,1.324,3.1673,3.3646-7.4539,8.3228-15.4225,15.6274-22.8101,1.5131-1.5302,3.0449-2.9473,4.584-4.2689,8.7595-7.8841,17.6693-11.7726,22.9145-13.9814,14.4344-6.0785,27.7956-7.0316,37.0442-6.7193,1.5801-.0034,3.1618.0168,4.7467.0886v-40.4726h-61.3878c-5.4885,4.1331-18.5004,15.0972-25.3815,34.3536Z" fill="#e01e36"/>
    <path d="M150.1637,255.7034c2.9706-26.829,20.3866-49.6067,44.8602-58.5545,29.3418-10.7275,55.0175,3.4594,61.0107,7.1743,2.3091-12.3531,3.13-23.5895,3.2104-32.977v-57.1887c-8.4442-.4541-16.8165.3567-24.9627,2.4661-7.364,1.907-21.0712,5.4555-33.2453,17.7688-10.8282,10.9513-15.2415,23.5702-17.0357,32.2278l-3.5181,16.9679-10.3578-13.8925c-4.813-6.4566-8.7281-13.5037-11.6361-20.9466-4.2036-10.7611-8.4259-28.0866-4.6671-49.5139,3.0268-17.2536,10.6437-30.9726,18.5628-41.1531h-33.3617c-5.7824,17.1544-17.2069,41.0536-39.4333,62.2983-29.3029,28.008-62.8593,37.6127-83.6577,40.8854v12.9807c-.13,21.7975,3.6322,54.7627,22.2961,88.2923,28.4338,51.0806,75.0722,73.3789,96.2892,81.2486,24.2857-8.3034,66.7557-28.7036,96.3129-75.2603,4.2761-6.7362,7.9323-13.4766,11.0582-20.1433-.1869-.2273-.3813-.4621-.5877-.7081-4.5967-5.4767-9.2562-11.5058-15.8568-14.5774-6.8159-3.1719-12.7809-3.3298-15.7815-3.3667-3.9251-.0481-14.2808-.1752-23.6107,7.0832-5.7616,4.4824-8.809,9.9741-10.3887,13.6943,1.653.1642,4.7691.698,7.9743,2.7749.7855.5089,4.8512,3.2325,6.985,8.6924.3496.8948,2.7994,7.4682-.3105,14.4356-2.1319,4.7765-5.7575,7.2303-8.5099,9.0409-8.8993,5.8541-18.3959,5.9965-26.1043,6.0156-9.2997.0227-16.6532-1.6315-20.6448-2.7101-18.4673-4.9901-30.7452-15.4515-36.3212-20.8836-8.1627-7.9521-13.5511-16.4348-17.098-23.6816,7.3814,3.9166,18.7747,8.8841,33.4682,11.3331,14.5577,2.4263,26.8425,1.4615,35.0618.1771ZM106.2479,197.1489c-8.0276,11.8053-21.2495,6.611-21.2495,6.611,0,0-7.0833,8.0277-20.7774,0,0,0,9.4443-1.8887,16.0552-8.4999,1.8889-13.2219,16.9997-34.9438,41.5549-32.5826-8.972.9443-13.222,12.7497-13.222,12.7497,0,0,5.6666,9.9164-2.3611,21.7218Z" fill="#102c53"/>
    <path d="M121.831,162.6774c-24.5551-2.3611-39.666,19.3607-41.5549,32.5826-6.6109,6.6111-16.0552,8.4999-16.0552,8.4999,13.6942,8.0277,20.7774,0,20.7774,0,0,0,13.2219,5.1943,21.2495-6.611,8.0277-11.8053,2.3611-21.7218,2.3611-21.7218,0,0,4.25-11.8054,13.222-12.7497Z" fill="#fff"/>
    <path d="M275,58.0822V0H0v58.0822h.0106c.0071,38.1887.0139,76.3774.021,114.5662.075,3.0181.2186,6.129.4282,9.3112.7792,23.3228,5.9557,55.4666,24.1529,88.1579.2589.4651.5307.9091.7923,1.3698,3.0031,5.5932,6.5225,11.4595,10.7192,17.5072,5.12,7.3778,17.5198,24.0933,38.2493,40.3742,22.2965,17.5116,44.39,26.8052,60.2072,31.8744,12.6195-3.8138,29.7738-10.368,48.1658-21.9579,25.7067-16.1996,41.2271-34.2943,46.749-41.0826,9.7976-12.0443,16.9394-23.9247,22.2544-34.7031,18.4894-34.9143,22.878-68.7217,23.0781-92.0862v-.2135c.2373-6.3179.2054-12.1885.0009-17.4929V58.0822h.1711ZM98.7317,267.8748c5.5759,5.4321,17.8538,15.8936,36.3212,20.8836,3.9917,1.0786,11.3452,2.7328,20.6448,2.7101,7.7084-.0191,17.2051-.1615,26.1043-6.0156,2.7524-1.8106,6.378-4.2644,8.5099-9.0409,3.1099-6.9674.6602-13.5408.3105-14.4356-2.1338-5.4599-6.1996-8.1835-6.985-8.6924-3.2052-2.0769-6.3213-2.6107-7.9743-2.7749,1.5798-3.7202,4.6271-9.2119,10.3887-13.6943,9.3299-7.2584,19.6856-7.1313,23.6107-7.0832,3.0006.0369,8.9656.1948,15.7815,3.3667,6.6006,3.0716,11.2601,9.1007,15.8568,14.5774.2064.246.4009.4808.5877.7081-3.1258,6.6668-6.782,13.4071-11.0582,20.1433-29.5571,46.5568-72.0272,66.957-96.3129,75.2603-21.217-7.8697-67.8555-30.168-96.2892-81.2486-18.6639-33.5296-22.4262-66.4949-22.2961-88.2923v-12.9807c20.7984-3.2728,54.3548-12.8775,83.6577-40.8854,22.2264-21.2447,33.6509-45.1439,39.4333-62.2983h33.3617c-7.9191,10.1805-15.536,23.8995-18.5628,41.1531-3.7588,21.4273.4634,38.7528,4.6671,49.5139,2.9079,7.4428,6.8231,14.49,11.6361,20.9466l10.3578,13.8925,3.5181-16.9679c1.7942-8.6576,6.2075-21.2765,17.0357-32.2278,12.1741-12.3133,25.8813-15.8619,33.2453-17.7688,8.1463-2.1094,16.5185-2.9202,24.9627-2.4661v57.1887c-.0804,9.3874-.9013,20.6239-3.2104,32.977-5.9931-3.7149-31.6689-17.9019-61.0107-7.1743-24.4736,8.9477-41.8896,31.7255-44.8602,58.5545-8.2192,1.2844-20.5041,2.2492-35.0618-.1771-14.6936-2.449-26.0868-7.4166-33.4682-11.3331,3.5469,7.2468,8.9353,15.7295,17.098,23.6816ZM259.245,58.0822v40.4726c-1.5848-.0719-3.1666-.0921-4.7467-.0886-9.2487-.3123-22.6099.6408-37.0442,6.7193-5.2452,2.2088-14.155,6.0973-22.9145,13.9814-1.5391,1.3215-3.071,2.7387-4.584,4.2689-7.3046,7.3876-12.2628,15.3563-15.6274,22.8101-.4662-1.0451-.9076-2.1014-1.324-3.1673-1.7287-4.4254-3.4581-10.2019-4.3779-17.0845-1.8589-15.8033,2.035-28.4805,3.8495-33.5582,6.881-19.2564,19.8929-30.2205,25.3815-34.3536h61.3878ZM121.831,58.0822c-3.7231,10.0623-11.8677,28.5465-28.6326,46.6299-1.4103,1.4779-2.8547,2.9493-4.3756,4.403-25.2397,24.1248-54.044,33.0601-72.8905,36.3555V58.0822h105.8987Z" fill="#fff"/>
    <path d="M123.8673,256.3232c-.3381,4.4446-1.2182,8.0809-2.0364,10.7134-1.3754,4.425-3.0152,7.4265-3.3645,8.0572-1.2103,2.1849-2.445,3.9238-3.4424,5.1984,1.4995.8906,3.1148,1.7813,4.8464,2.6489,3.0898,1.548,6.0403,2.7667,8.7597,3.7327,2.4249-3.0624,5.8395-8.1484,8.047-15.1878,1.8689-5.9593,2.2059-11.1921,2.1534-14.8085-1.6879.0836-3.444.1286-5.2637.1251-3.4547-.0067-6.6972-.188-9.6995-.4793Z" fill="#90734b"/>
    <g>
      <polygon points="41.1184 14.3016 14.1663 14.3016 14.1663 21.5014 24.0425 21.5014 24.0425 48.7526 31.2423 48.7526 31.2423 21.5014 41.1184 21.5014 41.1184 14.3016" fill="#102c53"/>
      <polygon points="68.558 14.3016 68.558 29.7633 53.4614 29.7633 53.4614 14.3016 46.2614 14.3016 46.2614 48.7526 53.4614 48.7526 53.4614 36.9631 68.558 36.9631 68.558 48.7526 75.7579 48.7526 75.7579 14.3016 68.558 14.3016" fill="#102c53"/>
      <rect x="119.0052" y="14.3016" width="7.1998" height="34.4512" fill="#102c53"/>
      <polygon points="138.9791 41.5528 138.9791 14.3016 131.7792 14.3016 131.7792 48.7526 132.3946 48.7526 138.9791 48.7526 152.4551 48.7526 152.4551 41.5528 138.9791 41.5528" fill="#102c53"/>
      <polygon points="214.1968 14.3016 214.1968 34.3919 200.9328 14.3016 198.6836 14.3016 193.733 14.3016 193.733 48.7526 200.9328 48.7526 200.9328 29.1737 214.1968 48.7526 216.5097 48.7526 221.3966 48.7526 221.3966 14.3016 214.1968 14.3016" fill="#102c53"/>
      <path d="M112.4207,34.6238c-.1483-3.587-.353-5.7391-1.3161-8.3225-.2404-.645-1.371-3.5778-4.0258-6.6579-3.3912-3.9348-7.3456-5.8775-9.7599-6.8129,0,0-6.5753,2.0903-10.6785,7.6645-4.1032,5.5741-4.8774,9.9095-4.8774,11.9998v16.2578h7.587v-5.2864h15.6385v5.2864h7.4321c.2301-5.7345.1489-10.5252,0-14.1288ZM89.35,36.2664v-1.449c-.0229-1.5916.1337-5.8117,3.0193-9.8321,1.6804-2.3413,3.6521-3.7307,4.9496-4.4902,1.337,1.017,3.4541,2.8971,5.1557,5.8807,1.9193,3.3657,2.3846,6.5133,2.514,8.248v1.6426h-15.6385Z" fill="#102c53"/>
      <path d="M187.3947,34.6238c-.1483-3.587-.353-5.7391-1.3161-8.3225-.2404-.645-1.3711-3.5778-4.0258-6.6579-3.3912-3.9348-7.3457-5.8775-9.7599-6.8129,0,0-6.5753,2.0903-10.6785,7.6645-4.1032,5.5741-4.8774,9.9095-4.8774,11.9998v16.2578h7.587v-5.2864h15.6384v5.2864h7.4322c.23-5.7345.1489-10.5252,0-14.1288ZM164.324,36.2664v-1.449c-.0229-1.5916.1337-5.8117,3.0193-9.8321,1.6804-2.3413,3.652-3.7307,4.9496-4.4902,1.337,1.017,3.4541,2.8971,5.1557,5.8807,1.9194,3.3657,2.3847,6.5133,2.5139,8.248v1.6426h-15.6384Z" fill="#102c53"/>
      <path d="M256.4147,22.8414c-2.8544-4.8638-7.2304-6.7316-8.4611-7.2357-2.2452-.9196-4.2567-1.1975-5.6019-1.2837h-7.1428v-.0204h-7.1998v34.4511h7.1998v-.0026h7.3179c.6457-.0906,1.5577-.2346,2.6438-.4606.2009-.0418,1.2002-.2498,1.8508-.4314,1.8847-.526,3.2724-1.5094,4.0832-2.0839,3.1627-2.2412,4.8977-5.1528,5.1934-5.6603.674-1.1564,2.367-4.1449,2.4508-8.4027.084-4.2618-1.4908-7.4328-2.3341-8.8697ZM251.1046,36.3208c-.3481.748-.8369,1.7739-1.8673,2.8009-1.0401,1.0368-2.0947,1.5388-2.8009,1.8673-1.2116.5637-2.3086.8138-3.0926.9336-2.7116.0146-5.4232.029-8.1348.0435v-20.817h7.3179c.7668.0194,2.0102.1472,3.3845.7585,1.1363.5055,1.8733,1.1244,2.334,1.5172,1.2915,1.1009,2.118,2.3203,2.626,3.2678.4151.7743,1.2859,2.4446,1.3421,4.7848.0551,2.2936-.7026,3.9707-1.1087,4.8432Z" fill="#102c53"/>
    </g>
  </g>
</svg>