<?xml version="1.0" encoding="UTF-8" standalone="no"?>
<!-- Created with Inkscape (http://www.inkscape.org/) -->

<svg
   width="80.350288mm"
   height="86.59549mm"
   viewBox="0 0 80.350289 86.595488"
   version="1.1"
   id="svg1"
   xmlns="http://www.w3.org/2000/svg"
   xmlns:svg="http://www.w3.org/2000/svg">
  <defs
     id="defs1">
    <clipPath
       id="clip_31">
      <path
         transform="matrix(1,0,0,-1,0,595.276)"
         d="m 427.629,75.407 h 43.823 v 47.228 h -43.823 z"
         id="path28" />
    </clipPath>
  </defs>
  <g
     id="layer1"
     transform="translate(-40.158608,-80.689674)">
    <g
       clip-path="url(#clip_31)"
       id="g844"
       transform="matrix(1.8335625,0,0,1.8335625,-743.92589,-785.92714)">
      <path
         transform="matrix(1,0,0,-1,462.8394,511.135)"
         d="m 0,0 c 0.03,0.025 0.056,0.05 0.084,0.071 1.277,0.966 2.434,2.059 3.44,3.305 2.937,3.638 4.377,7.777 4.153,12.47 -0.058,1.213 -0.25,2.405 -0.562,3.578 -0.603,2.264 -1.617,4.331 -3.013,6.21 -0.086,0.116 -0.071,0.16 0.038,0.24 0.904,0.675 1.8,1.358 2.705,2.031 0.111,0.083 0.109,0.127 0.028,0.23 -1.243,1.573 -2.664,2.963 -4.257,4.179 -2.34,1.788 -4.921,3.116 -7.723,4.014 -2.398,0.768 -4.86,1.178 -7.375,1.253 -1.505,0.046 -3.005,-0.035 -4.499,-0.238 -1.65,-0.225 -3.268,-0.591 -4.844,-1.124 -3.947,-1.336 -7.394,-3.468 -10.271,-6.498 -0.543,-0.571 -1.052,-1.173 -1.537,-1.794 -0.072,-0.092 -0.057,-0.132 0.029,-0.192 0.166,-0.116 0.326,-0.242 0.487,-0.364 0.747,-0.566 1.491,-1.134 2.241,-1.695 0.107,-0.08 0.114,-0.13 0.034,-0.233 -0.146,-0.188 -0.281,-0.386 -0.412,-0.585 -2.291,-3.49 -3.322,-7.308 -2.987,-11.482 0.113,-1.409 0.394,-2.783 0.848,-4.119 1.226,-3.614 3.398,-6.556 6.372,-8.923 0.096,-0.076 0.126,-0.116 0.038,-0.231 -0.674,-0.881 -1.338,-1.77 -2.009,-2.654 -0.068,-0.089 -0.069,-0.131 0.027,-0.202 2.214,-1.641 4.633,-2.885 7.248,-3.746 2.131,-0.702 4.318,-1.123 6.558,-1.272 1.481,-0.099 2.958,-0.083 4.434,0.054 1.474,0.137 2.927,0.396 4.358,0.778 3.031,0.809 5.831,2.112 8.388,3.935 0.139,0.099 0.121,0.153 0.034,0.268 C 1.367,-1.827 0.686,-0.914 0,0 m -13.344,38.494 c 4.16,-0.008 8.082,-0.852 11.799,-2.601 2.584,-1.215 4.908,-2.811 6.96,-4.802 C 6.421,30.116 7.319,29.049 8.17,27.94 8.271,27.808 8.177,27.78 8.107,27.727 7.202,27.045 6.297,26.361 5.387,25.685 5.274,25.601 5.272,25.547 5.347,25.437 6.789,23.306 7.767,20.978 8.267,18.454 8.572,16.914 8.673,15.357 8.576,13.789 8.306,9.442 6.673,5.655 3.854,2.361 3.126,1.512 2.327,0.734 1.467,0.018 1.251,-0.162 1.251,-0.161 1.415,-0.379 2.06,-1.239 2.703,-2.099 3.349,-2.958 3.408,-3.036 3.444,-3.081 3.335,-3.164 1.252,-4.74 -0.996,-6.018 -3.442,-6.945 c -1.809,-0.684 -3.667,-1.176 -5.58,-1.467 -1.335,-0.203 -2.676,-0.309 -4.027,-0.321 -4.212,-0.038 -8.227,0.821 -12.042,2.612 -1.843,0.865 -3.546,1.954 -5.153,3.198 -0.103,0.079 -0.063,0.125 -0.01,0.195 0.673,0.891 1.342,1.783 2.019,2.67 0.085,0.111 0.071,0.16 -0.029,0.247 -2.833,2.446 -4.891,5.416 -6.052,8.988 -0.429,1.319 -0.698,2.669 -0.82,4.051 -0.09,1.019 -0.1,2.039 -0.023,3.058 0.179,2.37 0.795,4.624 1.831,6.763 0.364,0.751 0.771,1.479 1.236,2.172 0.085,0.125 0.082,0.183 -0.044,0.277 -0.904,0.675 -1.798,1.362 -2.701,2.038 -0.121,0.09 -0.12,0.142 -0.033,0.26 0.801,1.073 1.652,2.103 2.602,3.048 1.09,1.085 2.266,2.066 3.534,2.936 2.948,2.024 6.18,3.382 9.673,4.122 1.454,0.308 2.926,0.49 4.412,0.561 0.453,0.021 0.907,0.007 1.305,0.031"
         id="path787" />
      <path
         transform="matrix(1,0,0,-1,445.6967,479.6745)"
         d="m 0,0 c -0.052,-0.011 -0.105,-0.021 -0.157,-0.032 -3.619,-0.732 -6.798,-2.321 -9.468,-4.887 -2.263,-2.175 -3.817,-4.775 -4.589,-7.828 -0.138,-0.547 -0.264,-1.1 -0.3,-1.667 0.192,-0.385 0.443,-0.733 0.683,-1.087 0.232,-0.367 0.465,-0.733 0.698,-1.1 0.006,-0.013 0.012,-0.025 0.018,-0.038 -0.218,-0.33 -0.435,-0.661 -0.67,-1.017 h 0.212 11.951 c 0.03,0 0.06,0.002 0.09,-0.001 0.09,-0.009 0.114,0.023 0.092,0.114 -0.072,0.296 -0.094,0.6 -0.107,0.904 10e-4,0.017 0.002,0.033 0.003,0.05 0.002,0.008 0.004,0.015 0.005,0.022 0.164,-0.114 0.247,-0.287 0.32,-0.46 0.254,-0.609 0.326,-1.25 0.319,-1.904 -0.075,0.079 -0.101,0.185 -0.264,0.185 -4.385,-0.008 -8.77,-0.007 -13.155,-0.003 -0.143,0 -0.18,-0.033 -0.157,-0.176 0.28,-1.689 0.808,-3.297 1.613,-4.808 1.767,-3.316 4.379,-5.767 7.711,-7.459 2.989,-1.518 6.173,-2.186 9.521,-2.094 1.515,0.041 3.007,0.242 4.472,0.628 3.552,0.936 6.621,2.696 9.115,5.412 2.173,2.365 3.554,5.128 4.09,8.304 0.018,0.109 0.046,0.194 -0.137,0.194 -4.307,-0.005 -8.614,-0.005 -12.921,-0.002 -0.104,0 -0.157,-0.033 -0.208,-0.123 -0.098,-0.174 -0.175,-0.366 -0.339,-0.495 -0.189,0.994 0.217,1.762 0.909,2.423 -0.006,-0.177 -0.015,-0.352 -0.063,-0.516 -0.053,-0.181 0.013,-0.198 0.171,-0.198 3.857,0.004 7.713,0.003 11.57,0.004 0.063,0 0.128,-0.018 0.201,0.023 -0.254,0.334 -0.506,0.664 -0.757,0.994 0.004,0.012 0.008,0.025 0.012,0.037 0.271,0.366 0.543,0.732 0.814,1.098 0.115,0.15 0.237,0.296 0.345,0.452 0.147,0.213 0.334,0.399 0.445,0.637 -0.002,0.059 0.003,0.119 -0.006,0.178 -0.307,2.059 -0.992,3.984 -2.06,5.771 -1.507,2.521 -3.545,4.512 -6.053,6.027 C 11.178,-0.753 8.144,0.142 4.894,0.325 3.993,0.376 3.094,0.359 2.194,0.292 1.581,0.247 0.974,0.157 0.366,0.075 m 16.777,-31.536 c 0.685,-0.914 1.367,-1.827 2.055,-2.735 0.087,-0.116 0.105,-0.17 -0.034,-0.269 -2.557,-1.823 -5.357,-3.125 -8.389,-3.934 -1.431,-0.382 -2.884,-0.641 -4.357,-0.778 -1.476,-0.138 -2.954,-0.154 -4.434,-0.055 -2.241,0.15 -4.427,0.57 -6.558,1.272 -2.615,0.861 -5.035,2.105 -7.249,3.746 -0.095,0.071 -0.094,0.114 -0.027,0.203 0.672,0.883 1.336,1.773 2.01,2.654 0.088,0.115 0.057,0.155 -0.038,0.23 -2.975,2.367 -5.147,5.309 -6.373,8.923 -0.453,1.336 -0.735,2.711 -0.847,4.119 -0.335,4.174 0.695,7.992 2.987,11.483 0.131,0.199 0.265,0.397 0.411,0.585 0.08,0.103 0.073,0.153 -0.033,0.232 -0.75,0.561 -1.495,1.129 -2.241,1.695 -0.162,0.123 -0.321,0.248 -0.487,0.364 -0.086,0.06 -0.101,0.1 -0.03,0.192 0.486,0.622 0.994,1.223 1.537,1.795 2.878,3.03 6.324,5.162 10.272,6.497 1.576,0.533 3.194,0.9 4.844,1.124 1.493,0.204 2.994,0.284 4.499,0.239 2.515,-0.076 4.976,-0.485 7.374,-1.254 2.802,-0.898 5.383,-2.225 7.724,-4.013 1.592,-1.216 3.013,-2.607 4.256,-4.179 0.082,-0.103 0.084,-0.147 -0.027,-0.23 -0.905,-0.674 -1.802,-1.357 -2.706,-2.031 -0.108,-0.081 -0.123,-0.125 -0.038,-0.24 1.396,-1.88 2.411,-3.946 3.013,-6.211 0.312,-1.172 0.505,-2.364 0.563,-3.578 0.224,-4.692 -1.216,-8.832 -4.154,-12.47 -1.006,-1.246 -2.162,-2.339 -3.439,-3.304 -0.028,-0.022 -0.054,-0.046 -0.084,-0.072"
         fill="#fcfcfc"
         id="path788" />
      <path
         transform="matrix(1,0,0,-1,454.1377,499.0429)"
         d="M 0,0 C 0.164,0.13 0.241,0.322 0.339,0.495 0.39,0.586 0.444,0.619 0.547,0.619 4.854,0.616 9.161,0.615 13.469,0.621 c 0.182,0 0.154,-0.086 0.136,-0.194 -0.536,-3.176 -1.917,-5.94 -4.09,-8.305 -2.493,-2.715 -5.563,-4.476 -9.115,-5.412 -1.465,-0.386 -2.957,-0.587 -4.472,-0.628 -3.348,-0.091 -6.532,0.576 -9.521,2.095 -3.332,1.692 -5.945,4.143 -7.711,7.458 -0.805,1.512 -1.333,3.119 -1.613,4.808 -0.023,0.143 0.014,0.177 0.157,0.176 4.385,-0.003 8.77,-0.004 13.155,0.004 0.163,0 0.189,-0.107 0.264,-0.185 0.034,-0.07 0.062,-0.142 0.104,-0.207 0.343,-0.538 0.774,-0.996 1.282,-1.38 0.424,-0.32 0.878,-0.591 1.391,-0.749 0.047,-0.022 0.093,-0.048 0.142,-0.066 0.544,-0.189 1.105,-0.29 1.68,-0.311 0.478,-0.018 0.952,0.009 1.416,0.133 0.249,0.01 0.476,0.104 0.706,0.181 0.762,0.256 1.435,0.667 2.013,1.223 0.229,0.22 0.469,0.44 0.607,0.738"
         fill="#6f8946"
         id="path789" />
      <path
         transform="matrix(1,0,0,-1,431.1828,494.08833)"
         d="m 0,0 c 0.036,0.567 0.162,1.119 0.3,1.667 0.772,3.053 2.325,5.652 4.589,7.828 2.67,2.566 5.849,4.155 9.468,4.887 0.052,0.01 1.583,0.287 2.351,0.324 0.9,0.067 1.799,0.083 2.7,0.033 3.25,-0.183 6.284,-1.078 9.075,-2.763 2.508,-1.515 4.546,-3.507 6.053,-6.028 1.068,-1.786 1.753,-3.711 2.06,-5.77 C 36.605,0.119 36.6,0.059 36.602,0 H 25.901 C 25.899,0.011 25.897,0.022 25.896,0.033 28.592,1.42 31.288,2.808 34.007,4.208 33.893,4.251 33.829,4.206 33.765,4.182 32.24,3.63 30.717,3.074 29.193,2.52 27.199,1.796 25.203,1.072 23.208,0.349 23.059,0.56 22.91,0.772 22.76,0.983 c 0.65,0.676 1.3,1.35 1.947,2.026 1.469,1.535 2.938,3.07 4.405,4.606 0.457,0.478 0.928,0.944 1.365,1.441 0.003,0.003 0.009,0.003 0.014,0.005 C 30.488,9.062 30.485,9.063 30.472,9.067 29.91,8.605 29.343,8.14 28.777,7.676 27.065,6.272 25.353,4.869 23.643,3.464 23.012,2.946 22.384,2.424 21.755,1.903 c -0.195,0.12 -0.39,0.241 -0.585,0.361 0.014,0.039 0.027,0.079 0.041,0.118 1.23,3.259 2.459,6.517 3.687,9.777 0.024,0.062 0.076,0.122 0.043,0.202 C 24.873,12.319 24.855,12.246 24.823,12.185 23.675,10.039 22.528,7.893 21.383,5.745 20.859,4.764 20.339,3.78 19.818,2.798 19.577,2.838 19.336,2.879 19.095,2.92 19.028,3.98 18.96,5.04 18.894,6.099 c -0.053,0.864 -0.103,1.727 -0.156,2.59 -0.068,1.102 -0.136,2.203 -0.206,3.304 -0.036,0.586 -0.076,1.171 -0.114,1.756 -0.005,0 -0.01,0 -0.015,0 C 18.162,10.136 17.922,6.524 17.681,2.912 17.398,2.853 17.115,2.795 16.832,2.736 15.883,4.463 14.935,6.19 13.987,7.917 c -0.777,1.413 -1.553,2.827 -2.332,4.239 -0.029,0.053 -0.037,0.14 -0.137,0.139 0.034,-0.074 0.065,-0.137 0.091,-0.201 C 12.568,9.661 13.526,7.228 14.486,4.795 14.83,3.921 15.179,3.05 15.526,2.177 15.303,2.024 15.081,1.87 14.858,1.717 14.604,1.934 14.351,2.152 14.096,2.367 11.69,4.382 9.283,6.397 6.877,8.413 6.624,8.624 6.37,8.835 6.109,9.054 6.096,8.987 6.136,8.973 6.158,8.95 6.764,8.324 7.369,7.697 7.977,7.072 9.017,6.002 10.058,4.933 11.1,3.864 12.071,2.868 13.044,1.875 14.016,0.88 13.907,0.724 13.797,0.567 13.687,0.411 L 13.551,0.454 C 10.019,1.567 6.487,2.68 2.955,3.794 2.824,3.835 2.824,3.835 2.713,3.815 5.475,2.554 8.237,1.292 10.998,0.031 10.994,0.021 10.99,0.01 10.985,0 Z"
         fill="#2484c6"
         id="path790" />
      <path
         transform="matrix(1,0,0,-1,451.929,498.6805)"
         d="m 0,0 c 0.018,0.003 0.036,0.004 0.053,0.008 0.334,0.085 0.667,0.171 1.001,0.257 0.068,0.017 0.109,0.06 0.148,0.117 0.226,0.336 0.455,0.67 0.686,1.002 0.039,0.055 0.07,0.111 0.086,0.174 0.082,0.317 0.157,0.635 0.245,0.95 C 2.245,2.598 2.218,2.636 2.146,2.677 1.866,2.834 1.587,2.994 1.312,3.158 1.241,3.201 1.184,3.192 1.112,3.163 0.671,2.988 0.229,2.816 -0.215,2.646 -0.297,2.615 -0.351,2.57 -0.379,2.48 -0.5,2.082 -0.627,1.686 -0.757,1.291 -0.777,1.227 -0.774,1.18 -0.741,1.124 -0.528,0.774 -0.317,0.422 -0.106,0.07 -0.081,0.029 -0.063,-0.017 0,0 m -4.914,0.149 c 0.066,-0.003 0.139,-0.018 0.203,0.071 0.254,0.354 0.517,0.701 0.781,1.047 0.048,0.063 0.063,0.115 0.035,0.193 -0.167,0.476 -0.33,0.954 -0.49,1.433 C -4.408,2.964 -4.44,3.001 -4.517,3.012 -4.971,3.08 -5.424,3.151 -5.876,3.226 -5.974,3.242 -6.03,3.211 -6.082,3.132 -6.332,2.761 -6.583,2.392 -6.839,2.026 -6.888,1.954 -6.896,1.903 -6.851,1.821 -6.584,1.337 -6.323,0.849 -6.067,0.359 -6.021,0.272 -5.962,0.242 -5.873,0.234 -5.558,0.207 -5.244,0.178 -4.914,0.149 m 2.549,-1.729 c 0.268,0 0.537,0.002 0.806,-10e-4 0.075,-0.001 0.131,0.011 0.183,0.078 0.251,0.327 0.506,0.649 0.764,0.97 0.05,0.061 0.052,0.105 0.011,0.172 -0.227,0.37 -0.45,0.743 -0.674,1.116 C -1.306,0.807 -1.333,0.846 -1.411,0.843 -2.078,0.812 -2.745,0.786 -3.412,0.763 -3.487,0.761 -3.529,0.733 -3.572,0.675 -3.785,0.381 -4.002,0.089 -4.22,-0.202 -4.269,-0.266 -4.281,-0.31 -4.223,-0.383 c 0.295,-0.367 0.583,-0.74 0.871,-1.113 0.049,-0.062 0.1,-0.087 0.18,-0.086 0.269,0.005 0.538,0.002 0.807,0.002 m 0.756,7.626 c 0,0.016 0,0.032 0,0.047 -0.071,0 -0.143,-0.004 -0.214,0.001 C -1.919,6.101 -1.956,6.08 -1.948,5.967 -1.911,5.45 -1.884,4.932 -1.857,4.413 -1.854,4.341 -1.827,4.294 -1.771,4.251 -1.41,3.967 -1.048,3.684 -0.692,3.394 -0.614,3.33 -0.544,3.316 -0.45,3.342 0.008,3.469 0.466,3.597 0.927,3.712 1.037,3.74 1.083,3.797 1.117,3.893 1.204,4.14 1.29,4.387 1.39,4.628 1.434,4.732 1.425,4.792 1.337,4.868 0.943,5.205 0.551,5.546 0.169,5.897 0.054,6.002 -0.064,6.048 -0.213,6.047 -0.679,6.045 -1.144,6.046 -1.609,6.046 M -2.687,4.508 C -2.713,4.975 -2.742,5.433 -2.761,5.891 -2.766,6.004 -2.812,6.058 -2.913,6.098 -3.234,6.223 -3.553,6.354 -3.87,6.488 -3.96,6.526 -4.028,6.528 -4.115,6.47 -4.672,6.103 -5.233,5.742 -5.795,5.382 -5.868,5.335 -5.897,5.295 -5.882,5.197 c 0.072,-0.459 0.134,-0.919 0.19,-1.381 0.011,-0.094 0.046,-0.133 0.133,-0.154 0.34,-0.084 0.681,-0.168 1.019,-0.263 0.107,-0.031 0.191,-0.02 0.286,0.035 0.47,0.268 0.941,0.536 1.417,0.794 0.126,0.068 0.201,0.139 0.15,0.28 m -4.372,0.495 c 0.11,0.156 0.219,0.313 0.329,0.469 0.067,0.068 0.133,0.136 0.199,0.204 0.651,0.195 1.269,0.462 1.823,0.86 0.247,0.177 0.472,0.383 0.548,0.7 0.082,0.031 0.164,0.062 0.245,0.092 0.283,0.059 0.567,0.117 0.85,0.176 0.471,0.037 0.942,0.043 1.413,0.009 0.241,-0.041 0.482,-0.082 0.724,-0.123 0.139,-0.08 0.311,-0.068 0.445,-0.161 0.005,-0.014 0.008,-0.031 0.03,-0.023 L -0.457,7.208 C -0.298,6.822 -0.048,6.502 0.27,6.238 0.714,5.871 1.215,5.678 1.802,5.779 1.872,5.711 1.944,5.643 2.014,5.575 2.164,5.364 2.313,5.152 2.462,4.941 2.71,4.486 2.915,4.014 3.033,3.507 3.122,3.148 3.121,2.778 3.168,2.414 3.219,2.321 3.305,2.372 3.372,2.372 6.995,2.369 10.617,2.369 14.24,2.368 14.491,2.038 14.742,1.708 14.997,1.374 14.924,1.333 14.858,1.351 14.796,1.351 10.939,1.35 7.083,1.351 3.226,1.347 3.068,1.347 3.002,1.364 3.055,1.545 3.103,1.709 3.112,1.884 3.118,2.061 2.426,1.4 2.019,0.632 2.209,-0.362 2.071,-0.661 1.831,-0.881 1.602,-1.1 1.024,-1.656 0.35,-2.067 -0.412,-2.324 c -0.229,-0.077 -0.457,-0.171 -0.705,-0.18 -1.043,0.569 -2.125,0.614 -3.239,0.243 -0.513,0.159 -0.966,0.429 -1.39,0.75 -0.508,0.384 -0.94,0.842 -1.283,1.379 -0.041,0.065 -0.069,0.138 -0.103,0.207 0.007,0.654 -0.065,1.295 -0.319,1.904 -0.073,0.173 -0.157,0.346 -0.32,0.46 -0.016,0.362 0.04,0.716 0.105,1.069 0.031,0.108 0.061,0.217 0.092,0.325 0.116,0.415 0.319,0.791 0.515,1.17"
         id="path791" />
      <path
         transform="matrix(1,0,0,-1,444.87,493.6775)"
         d="m 0,0 c -0.196,-0.379 -0.399,-0.756 -0.515,-1.17 -0.031,-0.108 -0.061,-0.216 -0.092,-0.325 -4.109,0.001 -8.218,0.001 -12.326,0.001 -0.024,0 -0.048,-0.003 -0.072,-0.004 -0.239,0.354 -0.49,0.702 -0.682,1.087 h 10.985 c 0.004,0.011 0.009,0.021 0.013,0.032 -2.761,1.26 -5.523,2.522 -8.285,3.783 0.111,0.02 0.111,0.02 0.242,-0.021 3.532,-1.114 7.064,-2.227 10.596,-3.34 z"
         fill="#ffcb05"
         id="path792" />
      <path
         transform="matrix(1,0,0,-1,454.962,495.1734)"
         d="m 0,0 c -0.118,0.507 -0.323,0.979 -0.571,1.434 1.995,0.723 3.99,1.447 5.985,2.171 1.524,0.554 3.047,1.11 4.571,1.662 0.065,0.024 0.129,0.069 0.243,0.026 C 7.509,3.893 4.812,2.505 2.116,1.118 2.118,1.107 2.12,1.096 2.122,1.085 h 10.7 C 12.711,0.847 12.525,0.661 12.377,0.448 12.27,0.292 12.148,0.146 12.033,-0.004 11.4,-0.002 10.768,0.002 10.135,0.002 6.757,0.002 3.378,0.001 0,0"
         fill="#ffcb05"
         id="path793" />
      <path
         transform="matrix(1,0,0,-1,431.8654,495.1758)"
         d="m 0,0 c 0.024,0.002 0.048,0.004 0.071,0.004 4.109,0 8.218,0 12.326,0 -0.065,-0.354 -0.121,-0.708 -0.104,-1.069 -0.002,-0.008 -0.004,-0.015 -0.006,-0.023 -0.078,-10e-4 -0.155,-0.004 -0.233,-0.004 -3.708,0 -7.416,0 -11.124,-10e-4 C 0.853,-1.093 0.776,-1.097 0.698,-1.1 0.465,-0.733 0.233,-0.367 0,0"
         fill="#ed1d24"
         id="path794" />
      <path
         transform="matrix(1,0,0,-1,454.962,495.1734)"
         d="m 0,0 c 3.378,0.001 6.757,0.002 10.135,0.002 0.633,0 1.265,-0.004 1.898,-0.006 -0.271,-0.366 -0.543,-0.732 -0.814,-1.098 -0.072,0.003 -0.143,0.007 -0.215,0.007 C 7.381,-1.094 3.758,-1.094 0.135,-1.094 0.089,-0.729 0.089,-0.359 0,0"
         fill="#ed1d24"
         id="path795" />
      <path
         transform="matrix(1,0,0,-1,444.1501,496.3135)"
         d="m 0,0 c -1.809,0.001 -3.617,0.002 -5.426,0.003 -2.048,0 -4.095,-0.002 -6.142,-0.003 -0.006,0.013 -0.012,0.025 -0.019,0.038 0.078,0.002 0.155,0.007 0.233,0.007 3.708,0.001 7.416,0.001 11.124,0.001 0.077,0 0.155,0.003 0.232,0.004 C 0.001,0.033 0.001,0.017 0,0"
         fill="#1485c7"
         id="path796" />
      <path
         transform="matrix(1,0,0,-1,455.0966,496.267)"
         d="m 0,0 c 3.623,0 7.247,-0.001 10.869,-0.001 0.072,0 0.144,-0.005 0.215,-0.007 C 11.08,-0.021 11.076,-0.033 11.072,-0.046 7.45,-0.045 3.827,-0.045 0.204,-0.041 0.137,-0.041 0.051,-0.092 0,0"
         fill="#1485c7"
         id="path797" />
      <path
         transform="matrix(1,0,0,-1,447.5734,500.94129)"
         d="M 0,0 C 1.114,0.37 2.196,0.326 3.239,-0.244 2.774,-0.367 2.3,-0.395 1.823,-0.377 1.247,-0.355 0.687,-0.254 0.143,-0.065 0.094,-0.048 0.047,-0.022 0,0"
         fill="#fcfcfc"
         id="path798" />
      <path
         transform="matrix(1,0,0,-1,451.446,491.4519)"
         d="M 0,0 C -0.134,0.094 -0.306,0.081 -0.445,0.161 0.076,1.144 0.596,2.127 1.12,3.109 2.265,5.256 3.412,7.403 4.56,9.549 4.592,9.61 4.61,9.682 4.678,9.725 4.711,9.645 4.659,9.584 4.635,9.522 3.407,6.263 2.178,3.004 0.948,-0.255 0.933,-0.294 0.921,-0.333 0.907,-0.373 0.817,-0.328 0.729,-0.278 0.636,-0.24 0.436,-0.158 0.25,-0.037 0.026,-0.021 L 0.03,-0.023 C 0.02,-0.015 0.01,-0.008 0,0"
         fill="#ffcb05"
         id="path799" />
      <path
         transform="matrix(1,0,0,-1,448.0145,491.352)"
         d="m 0,0 c -0.082,-0.031 -0.163,-0.062 -0.245,-0.093 -0.374,-0.109 -0.716,-0.291 -1.061,-0.466 -0.347,0.873 -0.695,1.744 -1.04,2.617 -0.96,2.433 -1.918,4.867 -2.877,7.3 C -5.248,9.422 -5.28,9.484 -5.314,9.559 -5.213,9.56 -5.206,9.473 -5.177,9.42 -4.398,8.007 -3.622,6.594 -2.845,5.181 -1.897,3.454 -0.948,1.727 0,0"
         fill="#ffcb05"
         id="path800" />
      <path
         transform="matrix(1,0,0,-1,453.9433,493.105)"
         d="M 0,0 C -0.071,0.068 -0.142,0.135 -0.213,0.203 -0.437,0.487 -0.73,0.694 -1.006,0.92 -0.377,1.44 0.251,1.963 0.882,2.481 2.593,3.886 4.305,5.289 6.016,6.692 6.583,7.157 7.149,7.622 7.712,8.083 7.724,8.079 7.727,8.078 7.73,8.077 7.726,8.076 7.719,8.076 7.717,8.072 7.279,7.575 6.809,7.11 6.352,6.631 4.884,5.095 3.416,3.56 1.947,2.026 1.299,1.349 0.649,0.675 0,0"
         fill="#ffcb05"
         id="path801" />
      <path
         transform="matrix(1,0,0,-1,450.2773,491.1678)"
         d="m 0,0 c -0.472,0.035 -0.943,0.028 -1.414,-0.009 0.241,3.612 0.482,7.225 0.723,10.837 0.004,0 0.009,0 0.014,0 0.039,-0.585 0.078,-1.17 0.115,-1.755 C -0.493,7.971 -0.424,6.87 -0.356,5.768 -0.303,4.905 -0.253,4.042 -0.2,3.179 -0.135,2.119 -0.067,1.06 0,0"
         fill="#ffcb05"
         id="path802" />
      <path
         transform="matrix(1,0,0,-1,445.3984,493.0043)"
         d="M 0,0 C -0.066,-0.068 -0.133,-0.136 -0.199,-0.204 -1.171,0.791 -2.145,1.784 -3.115,2.78 -4.158,3.848 -5.198,4.918 -6.239,5.988 -6.846,6.613 -7.452,7.24 -8.057,7.866 -8.08,7.889 -8.12,7.903 -8.107,7.97 -7.845,7.751 -7.592,7.54 -7.339,7.329 -4.932,5.313 -2.526,3.298 -0.12,1.282 0.136,1.068 0.388,0.85 0.643,0.633 0.424,0.426 0.185,0.241 0,0"
         fill="#ffcb05"
         id="path803" />
      <path
         transform="matrix(1,0,0,-1,452.9373,492.1853)"
         d="m 0,0 c 0.276,-0.226 0.569,-0.433 0.793,-0.716 -0.586,-0.101 -1.087,0.092 -1.531,0.459 -0.319,0.263 -0.568,0.584 -0.727,0.97 0.223,-0.016 0.41,-0.138 0.61,-0.22 0.092,-0.038 0.18,-0.088 0.27,-0.132 C -0.39,0.241 -0.195,0.12 0,0"
         fill="#fcfcfc"
         id="path804" />
      <path
         transform="matrix(1,0,0,-1,445.3984,493.0043)"
         d="M 0,0 C 0.185,0.241 0.424,0.426 0.643,0.633 0.865,0.786 1.088,0.94 1.311,1.093 1.655,1.268 1.997,1.45 2.371,1.559 2.294,1.243 2.07,1.037 1.823,0.859 1.269,0.461 0.651,0.195 0,0"
         fill="#fcfcfc"
         id="path805" />
      <path
         transform="matrix(1,0,0,-1,449.2421,494.1727)"
         d="m 0,0 c 0.051,-0.14 -0.024,-0.212 -0.151,-0.28 -0.475,-0.258 -0.947,-0.525 -1.416,-0.794 -0.095,-0.055 -0.179,-0.066 -0.286,-0.035 -0.338,0.096 -0.679,0.179 -1.02,0.263 -0.087,0.021 -0.121,0.06 -0.132,0.155 -0.056,0.461 -0.118,0.922 -0.19,1.381 -0.016,0.097 0.014,0.137 0.087,0.184 0.562,0.36 1.123,0.721 1.68,1.088 0.087,0.058 0.155,0.056 0.245,0.018 0.317,-0.134 0.636,-0.265 0.957,-0.39 0.1,-0.039 0.147,-0.093 0.152,-0.206 C -0.055,0.925 -0.026,0.467 0,0"
         fill="#fcfcfc"
         id="path806" />
      <path
         transform="matrix(1,0,0,-1,450.3202,492.6341)"
         d="M 0,0 C 0.465,0 0.93,-0.001 1.395,0.001 1.545,0.002 1.663,-0.044 1.777,-0.15 2.16,-0.5 2.552,-0.841 2.946,-1.179 3.033,-1.254 3.043,-1.314 2.999,-1.419 2.899,-1.66 2.813,-1.907 2.726,-2.153 2.692,-2.249 2.646,-2.307 2.536,-2.334 2.075,-2.45 1.617,-2.577 1.159,-2.704 1.065,-2.73 0.995,-2.716 0.917,-2.653 c -0.357,0.29 -0.718,0.574 -1.08,0.857 -0.055,0.044 -0.082,0.091 -0.085,0.163 -0.027,0.518 -0.054,1.036 -0.091,1.553 -0.008,0.114 0.029,0.135 0.125,0.128 C -0.143,0.042 -0.072,0.047 0,0.047 0,0.031 0,0.016 0,0"
         fill="#fcfcfc"
         id="path807" />
      <path
         transform="matrix(1,0,0,-1,449.5637,500.2603)"
         d="m 0,0 c -0.269,0 -0.538,0.003 -0.806,-0.002 -0.08,-0.002 -0.132,0.024 -0.18,0.086 -0.288,0.373 -0.577,0.746 -0.872,1.113 -0.057,0.073 -0.046,0.117 0.003,0.181 0.219,0.291 0.435,0.583 0.649,0.877 0.042,0.058 0.084,0.086 0.159,0.088 0.668,0.023 1.335,0.049 2.001,0.08 C 1.032,2.426 1.059,2.387 1.09,2.335 1.314,1.962 1.537,1.589 1.765,1.219 1.805,1.152 1.803,1.108 1.754,1.047 1.495,0.726 1.24,0.403 0.989,0.077 0.938,0.01 0.881,-0.002 0.806,-0.001 0.537,0.002 0.269,0 0,0"
         fill="#fcfcfc"
         id="path808" />
      <path
         transform="matrix(1,0,0,-1,447.0146,498.5318)"
         d="m 0,0 c -0.329,0.03 -0.644,0.059 -0.959,0.086 -0.088,0.007 -0.147,0.037 -0.193,0.125 -0.256,0.49 -0.518,0.977 -0.785,1.461 -0.045,0.082 -0.037,0.134 0.013,0.205 0.255,0.366 0.507,0.736 0.756,1.107 0.053,0.078 0.109,0.11 0.206,0.093 C -0.509,3.002 -0.056,2.932 0.397,2.863 0.474,2.852 0.506,2.815 0.53,2.744 0.69,2.265 0.852,1.788 1.019,1.311 1.047,1.233 1.032,1.181 0.984,1.118 0.721,0.772 0.457,0.425 0.203,0.072 0.139,-0.018 0.066,-0.003 0,0"
         fill="#fcfcfc"
         id="path809" />
      <path
         transform="matrix(1,0,0,-1,451.929,498.6805)"
         d="m 0,0 c -0.063,-0.017 -0.081,0.029 -0.106,0.07 -0.211,0.352 -0.422,0.704 -0.635,1.054 -0.033,0.056 -0.036,0.103 -0.016,0.167 0.13,0.395 0.257,0.791 0.378,1.189 0.028,0.09 0.082,0.135 0.164,0.166 0.444,0.17 0.886,0.342 1.327,0.517 0.072,0.029 0.129,0.038 0.2,-0.005 C 1.587,2.994 1.866,2.834 2.146,2.677 2.218,2.636 2.245,2.598 2.219,2.508 2.131,2.193 2.056,1.875 1.974,1.558 1.958,1.495 1.927,1.439 1.888,1.384 1.657,1.052 1.428,0.718 1.202,0.382 1.163,0.325 1.122,0.282 1.054,0.265 0.72,0.179 0.387,0.093 0.053,0.008 0.036,0.004 0.018,0.003 0,0"
         fill="#fcfcfc"
         id="path810" />
      <path
         transform="matrix(1,0,0,-1,451.446,491.4519)"
         d="M 0,0 C 0.01,-0.008 0.02,-0.015 0.03,-0.023 0.008,-0.031 0.005,-0.014 0,0"
         fill="#fcfcfc"
         id="path811" />
      <path
         transform="matrix(1,0,0,-1,461.5965,481.9357)"
         d="M 0,0 C -0.082,-0.006 -0.165,0.018 -0.212,0.094 -0.261,0.175 -0.193,0.241 -0.151,0.302 0.041,0.581 0.24,0.855 0.43,1.136 0.489,1.223 0.533,1.223 0.605,1.154 0.708,1.057 0.768,0.943 0.736,0.804 0.662,0.477 0.491,0.215 0.195,0.044 0.121,0.002 0.095,0 0,0"
         fill="#fcfcfc"
         id="path812" />
      <path
         transform="matrix(1,0,0,-1,444.1501,496.3135)"
         d="m 0,0 c 0.012,-0.304 0.035,-0.607 0.107,-0.904 0.022,-0.091 -0.003,-0.123 -0.093,-0.114 -0.029,0.004 -0.059,0.001 -0.089,0.001 h -11.951 -0.213 c 0.235,0.356 0.453,0.687 0.671,1.017 2.047,0.001 4.094,0.003 6.142,0.003 C -3.617,0.002 -1.809,0.001 0,0"
         fill="#282425"
         id="path813" />
      <path
         transform="matrix(1,0,0,-1,442.8228,477.289)"
         d="m 0,0 c -0.014,-0.003 -0.029,-0.005 -0.044,-0.008 v -0.545 c 0,-0.427 0,-0.427 0.412,-0.292 0.005,0.002 0.011,0.002 0.017,0.003 0.073,0.016 0.079,0.047 0.041,0.112 C 0.281,-0.489 0.141,-0.244 0,0 m -2.011,-0.829 c -0.041,0.271 -0.144,0.552 -0.361,0.778 -0.119,0.125 -0.305,0.14 -0.46,0.06 -0.058,-0.03 -0.074,-0.058 -0.046,-0.123 0.155,-0.358 0.305,-0.718 0.461,-1.076 0.011,-0.027 0.007,-0.081 0.078,-0.067 0.175,0.033 0.33,0.211 0.328,0.428 m 1.814,0.871 c 0,0.382 -0.001,0.764 0.001,1.146 0,0.043 -0.027,0.108 0.038,0.123 0.063,0.014 0.071,-0.056 0.093,-0.092 0.472,-0.8 0.937,-1.603 1.415,-2.4 C 1.436,-1.325 1.492,-1.519 1.713,-1.54 1.758,-1.544 1.763,-1.6 1.77,-1.642 1.782,-1.706 1.736,-1.704 1.696,-1.715 1.415,-1.791 1.134,-1.868 0.853,-1.947 0.796,-1.963 0.769,-1.954 0.752,-1.891 c -0.016,0.055 -0.023,0.092 0.043,0.107 0.175,0.04 0.156,0.136 0.089,0.265 -0.255,0.487 -0.251,0.484 -0.779,0.344 -0.128,-0.034 -0.178,-0.088 -0.161,-0.218 0.013,-0.1 0.004,-0.203 0.018,-0.303 0.02,-0.148 0.072,-0.272 0.262,-0.231 0.083,0.018 0.083,-0.048 0.099,-0.094 0.026,-0.072 -0.03,-0.075 -0.078,-0.083 -0.4,-0.075 -0.759,-0.26 -1.125,-0.424 -0.101,-0.045 -0.165,-0.038 -0.248,0.043 -0.326,0.315 -0.661,0.621 -0.994,0.928 -0.036,0.034 -0.071,0.104 -0.13,0.061 -0.064,-0.045 0.007,-0.098 0.023,-0.138 0.114,-0.281 0.237,-0.558 0.358,-0.836 0.057,-0.133 0.136,-0.229 0.3,-0.165 0.066,0.025 0.082,-0.02 0.103,-0.063 0.033,-0.065 -0.013,-0.082 -0.059,-0.101 -0.284,-0.121 -0.569,-0.242 -0.852,-0.363 -0.051,-0.022 -0.09,-0.027 -0.116,0.034 -0.025,0.058 -0.019,0.095 0.045,0.122 0.134,0.056 0.145,0.157 0.094,0.279 -0.332,0.776 -0.663,1.552 -0.992,2.329 -0.057,0.132 -0.143,0.211 -0.291,0.153 -0.07,-0.027 -0.082,0.012 -0.102,0.053 -0.025,0.053 -0.015,0.085 0.046,0.108 0.405,0.155 0.786,0.368 1.21,0.476 0.161,0.041 0.308,0.011 0.446,-0.072 0.46,-0.28 0.651,-0.949 0.399,-1.425 -0.038,-0.07 -0.011,-0.095 0.028,-0.131 0.302,-0.28 0.601,-0.563 0.909,-0.837 0.195,-0.173 0.35,-0.123 0.429,0.133 0.022,0.073 0.034,0.152 0.034,0.228 0.003,0.585 0.002,1.169 0.002,1.754 z"
         fill="#282425"
         id="path814" />
      <path
         transform="matrix(1,0,0,-1,462.5117,480.5767)"
         d="M 0,0 C 0.024,0.004 0.066,0.007 0.105,0.02 0.345,0.097 0.64,0.497 0.646,0.746 0.648,0.848 0.604,0.927 0.536,1 0.469,1.071 0.424,1.08 0.362,0.987 0.198,0.739 0.021,0.5 -0.144,0.253 -0.18,0.2 -0.273,0.152 -0.226,0.079 -0.186,0.016 -0.097,0.002 0,0 m -0.915,-1.359 c 0.094,0 0.121,0.002 0.195,0.044 0.296,0.171 0.467,0.433 0.541,0.76 0.032,0.139 -0.028,0.253 -0.131,0.35 -0.072,0.069 -0.117,0.069 -0.176,-0.018 -0.19,-0.281 -0.388,-0.555 -0.58,-0.834 -0.042,-0.061 -0.11,-0.127 -0.061,-0.208 0.047,-0.076 0.13,-0.1 0.212,-0.094 m 1.113,0.998 c 0.264,-0.623 -0.123,-1.342 -0.74,-1.403 -0.191,-0.019 -0.369,0.027 -0.526,0.134 -0.291,0.197 -0.577,0.4 -0.864,0.603 -0.034,0.024 -0.099,0.04 -0.05,0.106 0.032,0.042 0.055,0.093 0.125,0.044 0.141,-0.099 0.234,-0.016 0.312,0.094 0.314,0.442 0.626,0.885 0.937,1.329 0.171,0.244 0.338,0.49 0.509,0.734 0.078,0.111 0.108,0.216 -0.027,0.304 -0.062,0.042 -0.05,0.076 -0.013,0.13 0.044,0.064 0.077,0.03 0.115,0.003 C 0.272,1.507 0.57,1.299 0.865,1.086 1.113,0.906 1.168,0.651 1.104,0.37 0.996,-0.1 0.682,-0.35 0.198,-0.361"
         fill="#282425"
         id="path815" />
      <path
         transform="matrix(1,0,0,-1,437.4419,481.753)"
         d="M 0,0 C -0.013,0.06 -0.026,0.136 -0.046,0.21 -0.118,0.484 -0.264,0.724 -0.418,0.956 -0.66,1.319 -0.915,1.672 -1.288,1.915 -1.449,2.019 -1.616,2.078 -1.805,1.97 -1.876,1.929 -1.901,1.903 -1.845,1.825 c 0.491,-0.695 0.979,-1.393 1.466,-2.09 0.09,-0.129 0.181,-0.112 0.278,-0.012 C -0.03,-0.205 -0.01,-0.113 0,0 m 0.405,0.211 c -0.01,-0.252 -0.132,-0.537 -0.416,-0.739 -0.237,-0.17 -0.477,-0.337 -0.717,-0.503 -0.043,-0.03 -0.084,-0.09 -0.147,-0.011 -0.061,0.077 -0.006,0.101 0.041,0.136 0.127,0.095 0.078,0.197 0.009,0.295 -0.323,0.465 -0.647,0.929 -0.972,1.393 C -1.95,1.002 -2.106,1.22 -2.26,1.44 -2.347,1.563 -2.447,1.648 -2.6,1.537 -2.663,1.492 -2.679,1.546 -2.708,1.581 -2.745,1.624 -2.73,1.65 -2.689,1.678 c 0.301,0.204 0.595,0.42 0.904,0.61 0.242,0.148 0.508,0.14 0.774,0.042 0.686,-0.252 1.417,-1.296 1.416,-2.119"
         fill="#282425"
         id="path816" />
      <path
         transform="matrix(1,0,0,-1,463.1115,483.2341)"
         d="m 0,0 c -0.007,-0.165 0.187,-0.325 0.406,-0.268 0.163,0.042 0.308,0.126 0.44,0.229 0.47,0.373 0.866,0.816 1.192,1.319 0.08,0.124 0.145,0.258 0.169,0.408 C 2.249,1.957 2.068,2.126 1.805,2.066 1.657,2.032 1.524,1.964 1.407,1.873 0.902,1.484 0.476,1.022 0.15,0.473 0.074,0.345 0.013,0.209 0,0 M -0.344,0.403 C -0.328,0.726 -0.162,1.09 0.082,1.421 0.38,1.826 0.735,2.165 1.219,2.337 1.584,2.466 1.936,2.482 2.252,2.192 2.557,1.912 2.622,1.564 2.515,1.196 2.259,0.313 1.695,-0.301 0.812,-0.579 0.197,-0.773 -0.347,-0.338 -0.344,0.403"
         fill="#282425"
         id="path817" />
      <path
         transform="matrix(1,0,0,-1,450.0101,477.0173)"
         d="m 0,0 c 0,-0.072 -0.005,-0.143 0.001,-0.215 0.023,-0.284 0.028,-0.573 0.171,-0.831 0.139,-0.25 0.412,-0.261 0.578,-0.029 0.067,0.092 0.112,0.195 0.144,0.304 0.161,0.545 0.172,1.103 0.152,1.663 C 1.038,1.101 1.007,1.308 0.916,1.498 0.776,1.79 0.478,1.809 0.299,1.542 0.242,1.458 0.202,1.366 0.17,1.269 0.031,0.857 0.026,0.427 0,0 M -0.585,0.101 C -0.588,0.663 -0.482,1.132 -0.192,1.559 0.212,2.156 1.052,2.085 1.39,1.475 1.791,0.751 1.717,-0.465 1.212,-1.123 0.783,-1.682 0.025,-1.62 -0.324,-0.994 c -0.2,0.358 -0.274,0.745 -0.261,1.095"
         fill="#282425"
         id="path818" />
      <path
         transform="matrix(1,0,0,-1,435.9247,483.0301)"
         d="M 0,0 C -0.011,0.289 -0.104,0.468 -0.201,0.647 -0.225,0.692 -0.3,0.742 -0.217,0.795 -0.143,0.843 -0.128,0.76 -0.1,0.725 0.075,0.498 0.242,0.266 0.42,0.042 0.484,-0.039 0.47,-0.08 0.397,-0.145 0,-0.497 -0.392,-0.854 -0.787,-1.209 c -0.041,-0.037 -0.075,-0.097 -0.144,-0.023 -0.056,0.061 -0.021,0.091 0.021,0.127 0.131,0.112 0.06,0.212 -0.022,0.305 -0.289,0.326 -0.58,0.65 -0.871,0.974 -0.263,0.293 -0.527,0.584 -0.792,0.876 -0.103,0.115 -0.213,0.2 -0.362,0.065 -0.044,-0.04 -0.069,-0.014 -0.102,0.02 -0.047,0.049 -0.029,0.081 0.012,0.117 0.156,0.139 0.311,0.279 0.466,0.418 0.236,0.211 0.474,0.419 0.704,0.636 0.071,0.067 0.109,0.076 0.177,-0.003 0.177,-0.209 0.364,-0.41 0.546,-0.615 C -1.131,1.661 -1.077,1.639 -1.123,1.587 -1.165,1.54 -1.196,1.552 -1.243,1.588 -1.341,1.666 -1.44,1.743 -1.549,1.804 -1.797,1.942 -2.124,1.845 -2.27,1.603 -2.298,1.557 -2.272,1.539 -2.25,1.514 -2.004,1.239 -1.756,0.965 -1.511,0.688 -1.452,0.62 -1.422,0.66 -1.393,0.711 -1.346,0.796 -1.361,0.882 -1.394,0.969 -1.453,1.128 -1.555,1.261 -1.655,1.394 -1.682,1.43 -1.706,1.457 -1.658,1.498 -1.61,1.538 -1.587,1.512 -1.556,1.478 -1.198,1.079 -0.838,0.68 -0.479,0.281 -0.451,0.25 -0.413,0.222 -0.456,0.177 -0.5,0.13 -0.541,0.155 -0.578,0.191 -0.686,0.294 -0.8,0.389 -0.936,0.456 -1,0.487 -1.064,0.523 -1.138,0.515 -1.185,0.509 -1.238,0.499 -1.261,0.454 -1.285,0.405 -1.233,0.38 -1.208,0.352 c 0.221,-0.243 0.445,-0.483 0.665,-0.726 0.102,-0.113 0.194,-0.112 0.302,-0.005 C -0.109,-0.251 0.008,-0.12 0,0"
         fill="#282425"
         id="path819" />
      <path
         transform="matrix(1,0,0,-1,460.0185,480.8606)"
         d="M 0,0 C 0.223,0.013 0.393,0.166 0.563,0.331 0.624,0.391 0.661,0.562 0.775,0.475 0.846,0.421 0.722,0.319 0.678,0.245 0.557,0.04 0.423,-0.158 0.303,-0.364 0.252,-0.451 0.21,-0.479 0.11,-0.427 c -0.469,0.246 -0.942,0.483 -1.413,0.724 -0.047,0.025 -0.121,0.037 -0.071,0.127 0.035,0.061 0.072,0.065 0.128,0.036 0.152,-0.08 0.223,0.028 0.279,0.135 0.195,0.367 0.384,0.738 0.574,1.109 0.192,0.375 0.381,0.753 0.574,1.129 C 0.247,2.961 0.263,3.074 0.109,3.145 0.035,3.18 0.057,3.216 0.082,3.271 0.115,3.344 0.158,3.309 0.195,3.29 0.667,3.051 1.138,2.809 1.61,2.571 1.68,2.535 1.689,2.5 1.653,2.431 1.522,2.184 1.397,1.934 1.269,1.685 1.249,1.646 1.234,1.586 1.168,1.622 1.119,1.649 1.138,1.691 1.152,1.732 1.208,1.889 1.26,2.047 1.249,2.218 1.237,2.408 0.957,2.689 0.776,2.693 0.717,2.695 0.713,2.649 0.696,2.614 0.541,2.313 0.388,2.01 0.234,1.709 0.215,1.672 0.178,1.628 0.206,1.595 0.234,1.56 0.289,1.558 0.338,1.567 0.493,1.597 0.58,1.714 0.669,1.825 0.725,1.895 0.77,1.972 0.82,2.046 0.845,2.084 0.869,2.11 0.919,2.081 0.967,2.054 0.946,2.026 0.93,1.994 0.681,1.506 0.434,1.019 0.185,0.531 0.172,0.505 0.166,0.46 0.11,0.488 0.046,0.519 0.065,0.552 0.085,0.601 0.15,0.767 0.22,0.933 0.209,1.118 0.206,1.159 0.211,1.208 0.192,1.24 0.165,1.284 0.123,1.337 0.078,1.347 0.025,1.358 0.016,1.284 -0.004,1.245 -0.148,0.965 -0.292,0.684 -0.431,0.401 -0.523,0.213 -0.508,0.18 -0.318,0.086 -0.226,0.04 -0.133,0.003 0,0"
         fill="#282425"
         id="path820" />
      <path
         transform="matrix(1,0,0,-1,439.649,480.2513)"
         d="M 0,0 C 0.004,0.165 -0.044,0.319 -0.094,0.472 -0.11,0.52 -0.129,0.568 -0.07,0.593 0.003,0.622 0.004,0.546 0.02,0.513 0.148,0.245 0.265,-0.029 0.397,-0.294 0.443,-0.385 0.413,-0.419 0.341,-0.46 c -0.46,-0.262 -0.918,-0.528 -1.378,-0.791 -0.047,-0.028 -0.093,-0.078 -0.148,0.003 -0.054,0.08 0,0.102 0.051,0.133 0.132,0.083 0.096,0.188 0.036,0.294 -0.308,0.537 -0.617,1.073 -0.925,1.609 -0.107,0.186 -0.212,0.373 -0.323,0.556 -0.076,0.124 -0.166,0.228 -0.332,0.129 -0.063,-0.037 -0.081,0.014 -0.106,0.055 -0.033,0.053 -0.002,0.072 0.038,0.096 0.47,0.27 0.938,0.541 1.406,0.814 0.058,0.033 0.083,0.01 0.11,-0.037 0.144,-0.254 0.29,-0.506 0.436,-0.759 0.02,-0.035 0.052,-0.067 -0.007,-0.101 -0.05,-0.029 -0.075,-0.006 -0.1,0.03 C -0.979,1.678 -1.065,1.776 -1.167,1.86 -1.383,2.035 -1.741,2.002 -1.917,1.798 -1.952,1.756 -1.926,1.735 -1.909,1.707 -1.728,1.392 -1.545,1.079 -1.367,0.762 -1.318,0.677 -1.279,0.709 -1.236,0.759 -1.147,0.864 -1.173,0.986 -1.203,1.1 -1.235,1.219 -1.289,1.334 -1.336,1.449 -1.353,1.492 -1.397,1.534 -1.338,1.572 -1.276,1.612 -1.254,1.557 -1.231,1.517 -0.966,1.058 -0.701,0.6 -0.437,0.141 -0.417,0.105 -0.368,0.066 -0.442,0.025 -0.514,-0.014 -0.523,0.048 -0.547,0.081 -0.633,0.196 -0.72,0.309 -0.832,0.4 -0.888,0.445 -0.944,0.493 -1.018,0.5 -1.07,0.506 -1.134,0.52 -1.168,0.469 -1.201,0.42 -1.144,0.384 -1.123,0.347 c 0.157,-0.274 0.316,-0.547 0.474,-0.82 0.081,-0.14 0.175,-0.166 0.323,-0.076 C -0.114,-0.42 0.013,-0.254 0,0"
         fill="#282425"
         id="path821" />
      <path
         transform="matrix(1,0,0,-1,446.0626,479.599)"
         d="m 0,0 c -0.12,-0.033 -0.224,-0.144 -0.366,-0.075 -0.017,0.089 -0.021,0.154 0.097,0.197 0.131,0.048 0.139,0.279 0.014,0.316 -0.126,0.036 -0.091,0.099 -0.067,0.163 0.057,0.15 0.006,0.177 -0.144,0.186 -0.29,0.017 -0.519,0.177 -0.687,0.405 -0.524,0.713 -0.64,1.503 -0.376,2.338 0.16,0.506 0.529,0.749 0.97,0.694 0.093,-0.012 0.187,-0.04 0.273,-0.077 C -0.154,4.09 -0.093,4.125 -0.09,4.266 -0.089,4.31 -0.121,4.368 -0.042,4.373 0.029,4.377 0.023,4.315 0.031,4.272 0.094,3.951 0.156,3.629 0.214,3.307 0.221,3.269 0.264,3.209 0.186,3.189 0.117,3.171 0.113,3.23 0.096,3.273 0.016,3.474 -0.082,3.663 -0.247,3.81 -0.529,4.061 -0.839,4 -1.004,3.66 -1.124,3.415 -1.129,3.151 -1.105,2.888 c 0.044,-0.476 0.146,-0.941 0.362,-1.371 0.1,-0.2 0.228,-0.386 0.48,-0.41 C -0.01,1.084 0.154,1.224 0.267,1.431 0.334,1.554 0.383,1.687 0.445,1.826 0.621,1.431 0.398,1.016 -0.086,0.806 0.165,0.565 0.197,0.26 0,0"
         fill="#282425"
         id="path822" />
      <path
         transform="matrix(1,0,0,-1,433.1819,484.1059)"
         d="m 0,0 c 0.29,-0.265 0.575,-0.528 0.861,-0.788 0.1,-0.093 0.207,-0.121 0.312,-0.008 0.047,0.051 0.079,0.028 0.119,-0.007 C 1.348,-0.851 1.311,-0.879 1.277,-0.916 1.056,-1.15 0.836,-1.385 0.617,-1.622 0.579,-1.663 0.551,-1.684 0.502,-1.634 c -0.04,0.04 -0.054,0.072 -0.006,0.114 0.133,0.119 0.069,0.218 -0.033,0.314 -0.606,0.566 -1.211,1.134 -1.818,1.699 -0.103,0.096 -0.217,0.187 -0.354,0.05 -0.039,-0.038 -0.061,-0.057 -0.111,-0.01 -0.058,0.053 -0.039,0.083 0.005,0.129 0.192,0.204 0.38,0.412 0.57,0.618 0.167,0.179 0.336,0.356 0.5,0.537 0.062,0.069 0.106,0.091 0.184,0.012 C -0.38,1.647 -0.187,1.478 -0.002,1.3 0.027,1.272 0.109,1.257 0.047,1.181 -0.017,1.103 -0.054,1.17 -0.098,1.2 -0.275,1.319 -0.444,1.457 -0.685,1.388 -0.864,1.337 -0.961,1.189 -1.083,1.069 -1.124,1.028 -1.072,1.008 -1.05,0.987 c 0.269,-0.254 0.541,-0.505 0.808,-0.76 0.058,-0.056 0.087,-0.034 0.125,0.019 0.075,0.104 0.065,0.21 0.017,0.321 -0.052,0.122 -0.14,0.22 -0.219,0.325 -0.027,0.037 -0.098,0.064 -0.029,0.127 0.06,0.054 0.083,-0.004 0.114,-0.033 C 0.133,0.645 0.499,0.303 0.866,-0.039 0.898,-0.07 0.949,-0.091 0.901,-0.151 0.854,-0.209 0.823,-0.168 0.786,-0.14 0.677,-0.057 0.566,0.025 0.439,0.079 0.284,0.146 0.139,0.134 0,0"
         fill="#282425"
         id="path823" />
      <path
         transform="matrix(1,0,0,-1,454.9221,478.5174)"
         d="M 0,0 C 0.018,0.351 0.162,0.739 0.262,1.136 0.353,1.5 0.455,1.861 0.549,2.224 0.583,2.354 0.616,2.489 0.429,2.54 0.362,2.558 0.384,2.615 0.393,2.659 0.407,2.733 0.457,2.708 0.504,2.695 0.797,2.616 1.09,2.538 1.384,2.462 1.441,2.447 1.481,2.433 1.469,2.356 1.455,2.278 1.412,2.272 1.355,2.29 1.221,2.333 1.142,2.267 1.11,2.151 0.906,1.399 0.668,0.656 0.525,-0.111 c -0.062,-0.327 0.153,-0.546 0.44,-0.472 0.16,0.042 0.261,0.164 0.338,0.302 0.114,0.205 0.174,0.429 0.233,0.654 0.125,0.465 0.253,0.929 0.371,1.396 0.04,0.158 0.1,0.336 -0.136,0.413 C 1.7,2.206 1.749,2.264 1.752,2.305 1.757,2.357 1.795,2.352 1.832,2.342 2.032,2.287 2.233,2.231 2.434,2.179 2.483,2.166 2.518,2.147 2.487,2.097 2.469,2.065 2.498,1.987 2.411,2.009 2.217,2.057 2.154,1.915 2.113,1.778 2.02,1.471 1.943,1.159 1.857,0.85 1.745,0.449 1.659,0.039 1.492,-0.344 1.295,-0.798 0.904,-0.985 0.481,-0.839 0.17,-0.732 -0.002,-0.455 0,0"
         fill="#282425"
         id="path824" />
      <path
         transform="matrix(1,0,0,-1,454.5947,476.3858)"
         d="M 0,0 C 0.034,0.478 -0.256,0.585 -0.623,0.626 -0.686,0.633 -0.707,0.616 -0.717,0.556 -0.776,0.203 -0.836,-0.149 -0.901,-0.5 c -0.017,-0.093 0.012,-0.11 0.098,-0.109 0.18,0.003 0.26,0.128 0.329,0.262 0.043,0.084 0.067,0.177 0.101,0.266 0.015,0.04 0.007,0.108 0.083,0.081 0.057,-0.019 0.033,-0.067 0.026,-0.106 -0.062,-0.351 -0.125,-0.703 -0.188,-1.054 -0.027,-0.152 -0.055,-0.305 -0.083,-0.457 -0.006,-0.032 0.003,-0.077 -0.052,-0.074 -0.058,0.004 -0.061,0.043 -0.056,0.089 0.014,0.136 0.027,0.272 0.003,0.409 -0.013,0.073 -0.039,0.137 -0.081,0.195 -0.055,0.075 -0.132,0.148 -0.219,0.128 -0.055,-0.012 -0.05,-0.12 -0.061,-0.187 -0.053,-0.311 -0.103,-0.622 -0.157,-0.933 -0.023,-0.136 0.002,-0.24 0.156,-0.268 0.076,-0.014 0.075,-0.062 0.067,-0.119 -0.012,-0.074 -0.067,-0.057 -0.111,-0.049 -0.304,0.054 -0.608,0.111 -0.913,0.165 -0.057,0.01 -0.101,0.013 -0.089,0.094 0.011,0.074 0.039,0.081 0.106,0.071 0.169,-0.026 0.215,0.098 0.239,0.226 0.079,0.421 0.154,0.842 0.229,1.265 0.068,0.386 0.133,0.774 0.202,1.16 0.027,0.156 0.03,0.291 -0.176,0.317 -0.073,0.009 -0.052,0.063 -0.043,0.11 0.012,0.065 0.053,0.065 0.106,0.055 C -0.969,0.962 -0.552,0.893 -0.138,0.812 -0.001,0.786 0.198,0.825 0.255,0.709 0.306,0.604 0.228,0.435 0.204,0.296 0.178,0.143 0.15,-0.009 0.118,-0.161 0.112,-0.195 0.125,-0.252 0.056,-0.248 -0.021,-0.243 0.002,-0.187 0,-0.143 -0.001,-0.096 0,-0.048 0,0"
         fill="#282425"
         id="path825" />
      <path
         transform="matrix(1,0,0,-1,458.2458,477.03993)"
         d="m 0,0 c -0.176,-0.018 -0.271,-0.174 -0.387,-0.31 -0.051,-0.059 -0.058,-0.219 -0.168,-0.158 -0.091,0.051 0.018,0.153 0.045,0.226 0.07,0.19 0.155,0.374 0.231,0.561 0.031,0.076 0.059,0.11 0.155,0.068 C 0.393,0.161 0.914,-0.055 1.435,-0.273 1.502,-0.302 1.52,-0.328 1.484,-0.406 1.38,-0.632 1.289,-0.865 1.191,-1.094 1.174,-1.131 1.173,-1.194 1.106,-1.178 1.032,-1.16 1.067,-1.108 1.075,-1.064 1.094,-0.953 1.121,-0.842 1.128,-0.729 1.139,-0.567 1.1,-0.428 0.931,-0.347 0.822,-0.295 0.783,-0.315 0.737,-0.424 0.45,-1.116 0.155,-1.804 -0.138,-2.493 -0.173,-2.575 -0.207,-2.657 -0.242,-2.739 -0.3,-2.874 -0.312,-2.998 -0.143,-3.06 c 0.073,-0.026 0.047,-0.07 0.034,-0.114 -0.018,-0.062 -0.059,-0.058 -0.109,-0.037 -0.295,0.127 -0.59,0.252 -0.886,0.378 -0.042,0.018 -0.093,0.026 -0.054,0.098 0.025,0.046 0.042,0.09 0.103,0.062 0.169,-0.079 0.248,0.029 0.302,0.155 0.336,0.78 0.668,1.562 1,2.345 C 0.289,-0.073 0.192,0.002 0,0"
         fill="#282425"
         id="path826" />
      <path
         transform="matrix(1,0,0,-1,448.0702,477.2731)"
         d="M 0,0 C -0.104,0.315 -0.202,0.611 -0.316,0.955 -0.366,0.732 -0.405,0.559 -0.443,0.386 -0.472,0.253 -0.564,0.075 -0.511,-0.001 -0.447,-0.095 -0.261,-0.005 -0.127,-0.006 -0.091,-0.007 -0.056,-0.003 0,0 M -0.161,2.244 C 0.018,1.71 0.188,1.198 0.359,0.687 0.507,0.247 0.651,-0.194 0.806,-0.63 0.854,-0.764 0.877,-0.926 1.055,-0.974 1.103,-0.987 1.09,-1.044 1.089,-1.084 1.087,-1.143 1.043,-1.142 0.999,-1.144 0.72,-1.157 0.44,-1.172 0.16,-1.184 0.112,-1.185 0.049,-1.208 0.04,-1.12 c -0.007,0.07 0.027,0.098 0.089,0.104 0.149,0.016 0.173,0.097 0.128,0.226 -0.059,0.168 -0.065,0.382 -0.176,0.495 -0.115,0.117 -0.329,-0.014 -0.498,0.011 -0.159,0.024 -0.21,-0.055 -0.225,-0.191 -0.012,-0.1 -0.035,-0.199 -0.044,-0.299 -0.012,-0.145 0.016,-0.267 0.202,-0.267 0.073,0 0.085,-0.046 0.084,-0.108 -0.001,-0.071 -0.047,-0.069 -0.097,-0.072 -0.178,-0.009 -0.357,-0.021 -0.535,-0.029 -0.037,-10e-4 -0.093,-0.025 -0.105,0.03 -0.01,0.046 -0.03,0.107 0.033,0.142 0.18,0.1 0.204,0.285 0.243,0.457 0.205,0.886 0.406,1.773 0.607,2.66 0.014,0.063 0.017,0.129 0.093,0.205"
         fill="#282425"
         id="path827" />
      <path
         transform="matrix(1,0,0,-1,465.3337,485.396)"
         d="M 0,0 C 0.319,0.029 0.528,0.143 0.739,0.254 0.79,0.282 0.848,0.35 0.904,0.261 0.958,0.174 0.862,0.163 0.825,0.135 0.568,-0.059 0.306,-0.245 0.049,-0.438 -0.017,-0.488 -0.055,-0.49 -0.11,-0.424 -0.468,0.008 -0.83,0.435 -1.189,0.865 -1.22,0.902 -1.276,0.936 -1.206,0.997 -1.149,1.047 -1.119,1.025 -1.077,0.98 -0.95,0.845 -0.838,0.93 -0.735,1.015 -0.285,1.388 0.162,1.764 0.61,2.14 0.806,2.305 1,2.472 1.195,2.639 1.293,2.723 1.34,2.816 1.232,2.925 1.181,2.978 1.196,3.014 1.246,3.055 1.305,3.104 1.328,3.057 1.358,3.021 1.564,2.774 1.771,2.528 1.978,2.281 2.012,2.24 2.052,2.208 1.989,2.149 1.928,2.091 1.901,2.126 1.865,2.169 1.766,2.286 1.657,2.27 1.553,2.183 0.912,1.649 0.273,1.112 -0.368,0.577 -0.476,0.486 -0.484,0.403 -0.385,0.294 -0.256,0.154 -0.152,-0.015 0,0"
         fill="#282425"
         id="path828" />
      <path
         transform="matrix(1,0,0,-1,447.3478,474.73213)"
         d="M 0,0 C -0.002,0.145 0.025,0.284 0.103,0.409 0.202,0.567 0.319,0.596 0.48,0.504 0.521,0.481 0.561,0.455 0.601,0.429 0.715,0.352 0.818,0.309 0.851,0.504 0.858,0.546 0.875,0.582 0.931,0.581 0.995,0.58 0.986,0.532 0.991,0.493 1.016,0.299 0.986,0.114 0.881,-0.053 0.799,-0.182 0.68,-0.213 0.542,-0.146 0.467,-0.11 0.397,-0.064 0.326,-0.022 0.238,0.031 0.166,0.037 0.15,-0.089 0.142,-0.15 0.145,-0.216 0.057,-0.209 -0.044,-0.201 0.015,-0.119 0.001,-0.071 -0.005,-0.049 0,-0.024 0,0"
         fill="#282425"
         id="path829" />
      <path
         transform="matrix(1,0,0,-1,441.2203,514.9557)"
         d="M 0,0 C 0.283,0.412 0.538,0.782 0.793,1.152 0.901,1.31 1.013,1.464 1.114,1.626 1.176,1.725 1.237,1.742 1.347,1.695 1.532,1.614 1.725,1.553 1.916,1.484 1.969,1.464 2.037,1.464 2.011,1.371 1.987,1.284 1.943,1.3 1.878,1.32 1.732,1.363 1.667,1.261 1.626,1.151 1.495,0.807 1.372,0.459 1.245,0.112 1.089,-0.317 0.932,-0.748 0.775,-1.177 0.722,-1.321 0.688,-1.458 0.884,-1.523 0.936,-1.54 0.944,-1.574 0.924,-1.62 0.903,-1.668 0.879,-1.702 0.817,-1.678 0.51,-1.564 0.203,-1.452 -0.104,-1.34 c -0.05,0.018 -0.058,0.046 -0.041,0.095 0.015,0.046 0.036,0.083 0.086,0.063 0.18,-0.07 0.255,0.041 0.306,0.179 C 0.49,-0.346 0.729,0.313 0.969,0.971 0.976,0.992 0.975,1.015 0.951,1.052 0.763,0.781 0.575,0.51 0.386,0.239 0.091,-0.186 -0.205,-0.613 -0.503,-1.037 -0.534,-1.08 -0.548,-1.168 -0.625,-1.14 c -0.068,0.024 -0.024,0.097 -0.02,0.143 0.064,0.796 0.133,1.593 0.2,2.389 0.007,0.077 0.013,0.154 -0.009,0.238 -0.065,-0.18 -0.131,-0.36 -0.197,-0.54 -0.18,-0.498 -0.362,-0.995 -0.542,-1.493 -0.056,-0.154 -0.086,-0.305 0.102,-0.396 0.061,-0.03 0.047,-0.065 0.029,-0.116 -0.024,-0.068 -0.063,-0.056 -0.111,-0.038 -0.184,0.068 -0.368,0.136 -0.553,0.201 -0.047,0.017 -0.079,0.04 -0.056,0.089 0.017,0.036 0.013,0.102 0.09,0.083 0.204,-0.049 0.275,0.097 0.331,0.243 0.128,0.333 0.247,0.67 0.369,1.005 0.153,0.419 0.303,0.839 0.457,1.258 0.052,0.14 0.06,0.259 -0.114,0.314 -0.062,0.019 -0.057,0.052 -0.038,0.107 0.023,0.064 0.056,0.067 0.108,0.049 C -0.35,2.313 -0.122,2.228 0.108,2.147 0.187,2.118 0.168,2.063 0.162,2.002 0.107,1.372 0.054,0.742 0,0.112 -0.001,0.095 0,0.077 0,0"
         id="path830" />
      <path
         transform="matrix(1,0,0,-1,445.1665,514.7011)"
         d="M 0,0 C -0.003,0.139 -0.015,0.276 -0.069,0.404 -0.168,0.64 -0.393,0.696 -0.59,0.536 -0.709,0.44 -0.791,0.315 -0.856,0.18 -1.094,-0.317 -1.225,-0.846 -1.293,-1.391 -1.319,-1.605 -1.331,-1.819 -1.259,-2.027 -1.168,-2.29 -0.914,-2.354 -0.711,-2.168 -0.626,-2.09 -0.559,-2 -0.507,-1.899 -0.197,-1.303 -0.078,-0.657 0,0 m 0.508,-0.438 c -0.027,-0.641 -0.195,-1.233 -0.625,-1.726 -0.418,-0.477 -1.035,-0.515 -1.406,-0.093 -0.174,0.199 -0.26,0.442 -0.285,0.7 -0.079,0.799 0.093,1.524 0.655,2.13 0.523,0.564 1.39,0.323 1.583,-0.41 0.052,-0.197 0.088,-0.395 0.078,-0.601"
         id="path831" />
      <path
         transform="matrix(1,0,0,-1,462.8079,513.1832)"
         d="m 0,0 c 0.007,0.191 -0.057,0.352 -0.118,0.514 -0.017,0.046 -0.047,0.088 0.02,0.117 0.062,0.028 0.07,-0.028 0.087,-0.06 0.147,-0.272 0.289,-0.546 0.437,-0.817 0.039,-0.071 0.016,-0.099 -0.044,-0.138 -0.456,-0.292 -0.91,-0.588 -1.364,-0.884 -0.047,-0.031 -0.088,-0.067 -0.131,0.005 -0.026,0.042 -0.057,0.076 0.01,0.113 0.179,0.097 0.111,0.224 0.033,0.345 -0.27,0.421 -0.543,0.84 -0.815,1.26 -0.176,0.27 -0.35,0.54 -0.527,0.808 -0.082,0.124 -0.18,0.219 -0.337,0.111 -0.068,-0.047 -0.08,0.014 -0.107,0.045 -0.04,0.046 -0.012,0.076 0.027,0.101 0.454,0.295 0.909,0.59 1.363,0.887 0.067,0.044 0.092,0.002 0.124,-0.047 C -1.191,2.125 -1.037,1.891 -0.886,1.655 -0.862,1.619 -0.816,1.582 -0.881,1.54 -0.94,1.501 -0.968,1.547 -0.997,1.584 -1.075,1.683 -1.165,1.77 -1.267,1.844 -1.484,2 -1.824,1.95 -1.995,1.747 -2.036,1.698 -2.009,1.671 -1.987,1.638 c 0.194,-0.3 0.391,-0.597 0.582,-0.9 0.05,-0.08 0.084,-0.056 0.13,-0.004 0.077,0.088 0.062,0.189 0.036,0.288 -0.039,0.144 -0.103,0.279 -0.176,0.409 -0.026,0.045 -0.047,0.087 0.012,0.121 0.056,0.032 0.072,-0.02 0.093,-0.053 C -1.018,1.05 -0.726,0.6 -0.435,0.151 -0.412,0.116 -0.381,0.088 -0.438,0.049 -0.49,0.013 -0.509,0.043 -0.538,0.075 -0.616,0.165 -0.693,0.257 -0.777,0.341 -0.845,0.407 -0.923,0.467 -1.019,0.487 -1.076,0.499 -1.146,0.507 -1.184,0.451 -1.218,0.402 -1.159,0.365 -1.137,0.329 -0.976,0.078 -0.815,-0.172 -0.649,-0.42 -0.508,-0.629 -0.458,-0.635 -0.25,-0.487 -0.076,-0.364 0.022,-0.206 0,0"
         id="path832" />
      <path
         transform="matrix(1,0,0,-1,454.5811,514.9634)"
         d="M 0,0 C -0.009,0.113 -0.021,0.214 -0.025,0.315 -0.027,0.36 -0.077,0.432 0.017,0.44 0.087,0.447 0.076,0.38 0.086,0.337 0.158,0.03 0.229,-0.277 0.3,-0.585 0.346,-0.782 0.394,-0.978 0.438,-1.176 0.447,-1.219 0.473,-1.277 0.407,-1.298 0.332,-1.322 0.342,-1.25 0.326,-1.211 c -0.055,0.138 -0.101,0.28 -0.192,0.401 -0.046,0.061 -0.093,0.124 -0.174,0.146 -0.095,0.027 -0.155,0.017 -0.125,-0.105 0.077,-0.324 0.154,-0.648 0.229,-0.973 0.033,-0.141 0.123,-0.171 0.255,-0.145 0.343,0.067 0.517,0.274 0.548,0.671 0.008,0.095 0.004,0.191 0.005,0.287 0.001,0.043 0.025,0.067 0.066,0.065 C 0.979,-0.865 0.977,-0.9 0.981,-0.929 1.027,-1.248 1.071,-1.566 1.12,-1.884 1.132,-1.961 1.086,-1.977 1.033,-1.989 0.505,-2.111 -0.022,-2.233 -0.55,-2.353 -0.596,-2.363 -0.655,-2.39 -0.672,-2.3 c -0.014,0.071 0.015,0.1 0.074,0.113 0.151,0.034 0.163,0.143 0.135,0.264 -0.188,0.823 -0.377,1.647 -0.57,2.469 -0.029,0.126 -0.095,0.225 -0.25,0.191 -0.07,-0.015 -0.097,0.003 -0.106,0.075 -0.009,0.076 0.032,0.085 0.091,0.099 0.354,0.079 0.707,0.163 1.061,0.245 0.017,0.004 0.035,0.005 0.053,0.009 C -0.017,1.196 0.19,1.332 0.304,1.241 0.411,1.157 0.403,0.927 0.443,0.76 0.472,0.638 0.499,0.516 0.525,0.394 0.535,0.348 0.59,0.288 0.512,0.261 0.423,0.231 0.428,0.32 0.404,0.367 0.349,0.473 0.306,0.586 0.239,0.682 0.09,0.898 -0.269,0.964 -0.487,0.827 -0.536,0.796 -0.518,0.758 -0.509,0.718 c 0.079,-0.342 0.16,-0.683 0.236,-1.026 0.022,-0.101 0.07,-0.096 0.138,-0.051 C -0.001,-0.268 -0.019,-0.122 0,0"
         id="path833" />
      <path
         transform="matrix(1,0,0,-1,458.0479,515.7121)"
         d="m 0,0 c -0.008,-0.055 -0.014,-0.151 -0.038,-0.243 -0.109,-0.427 -0.39,-0.6 -0.814,-0.49 -0.146,0.038 -0.219,0.01 -0.231,-0.142 -0.003,-0.036 -0.001,-0.076 -0.047,-0.083 -0.062,-0.01 -0.059,0.043 -0.072,0.081 -0.114,0.349 -0.23,0.699 -0.343,1.049 -0.012,0.039 -0.049,0.095 0.023,0.119 0.067,0.021 0.079,-0.041 0.098,-0.08 0.109,-0.222 0.244,-0.424 0.437,-0.581 0.214,-0.174 0.427,-0.2 0.566,-0.074 0.14,0.126 0.142,0.408 0.003,0.612 -0.087,0.126 -0.207,0.211 -0.348,0.27 -0.192,0.079 -0.388,0.15 -0.573,0.244 -0.513,0.26 -0.797,0.923 -0.639,1.474 0.098,0.343 0.383,0.496 0.736,0.39 0.126,-0.037 0.249,-0.093 0.194,0.131 C -1.057,2.715 -1.045,2.751 -1,2.757 -0.964,2.762 -0.953,2.733 -0.943,2.703 -0.835,2.382 -0.726,2.062 -0.616,1.742 -0.603,1.703 -0.575,1.667 -0.644,1.648 -0.702,1.631 -0.714,1.664 -0.735,1.703 -0.783,1.792 -0.832,1.88 -0.888,1.964 -0.948,2.054 -1.024,2.13 -1.109,2.197 -1.322,2.364 -1.511,2.379 -1.636,2.239 -1.758,2.102 -1.73,1.836 -1.575,1.669 -1.423,1.504 -1.213,1.447 -1.014,1.371 -0.697,1.251 -0.4,1.108 -0.216,0.802 -0.075,0.567 -0.004,0.313 0,0"
         id="path834" />
      <path
         transform="matrix(1,0,0,-1,437.1523,510.8462)"
         d="m 0,0 c -0.148,-0.018 -0.258,-0.108 -0.364,-0.205 -0.052,-0.049 -0.1,-0.103 -0.147,-0.156 -0.03,-0.035 -0.062,-0.03 -0.094,-0.009 -0.032,0.021 -0.027,0.052 -0.01,0.078 0.152,0.235 0.305,0.47 0.457,0.704 0.043,0.067 0.083,0.018 0.119,-0.005 C 0.435,0.1 0.908,-0.21 1.385,-0.515 1.459,-0.562 1.464,-0.6 1.418,-0.669 1.279,-0.876 1.146,-1.088 1.008,-1.297 c -0.02,-0.03 -0.034,-0.085 -0.091,-0.06 -0.064,0.029 -0.039,0.075 -0.021,0.121 0.066,0.159 0.138,0.314 0.133,0.495 -0.004,0.153 -0.111,0.218 -0.218,0.28 -0.082,0.047 -0.096,-0.047 -0.124,-0.089 -0.355,-0.543 -0.708,-1.087 -1.061,-1.632 -0.11,-0.17 -0.217,-0.341 -0.327,-0.511 -0.071,-0.111 -0.081,-0.213 0.046,-0.29 0.057,-0.035 0.068,-0.066 0.03,-0.126 -0.046,-0.073 -0.083,-0.036 -0.128,-0.006 -0.264,0.172 -0.529,0.343 -0.793,0.515 -0.039,0.025 -0.09,0.047 -0.041,0.105 0.026,0.031 0.031,0.099 0.103,0.05 0.181,-0.126 0.273,0.006 0.357,0.134 0.275,0.417 0.547,0.837 0.82,1.256 0.162,0.249 0.327,0.497 0.484,0.75 0.038,0.06 0.139,0.118 0.082,0.195 C 0.204,-0.035 0.103,-0.004 0,0"
         id="path835" />
      <path
         transform="matrix(1,0,0,-1,458.1435,513.1244)"
         d="M 0,0 C -0.002,-0.127 0.042,-0.245 0.075,-0.365 0.086,-0.406 0.133,-0.448 0.062,-0.485 -0.017,-0.526 -0.015,-0.452 -0.031,-0.42 -0.142,-0.203 -0.247,0.017 -0.358,0.234 -0.399,0.315 -0.403,0.363 -0.303,0.41 0.202,0.65 0.702,0.897 1.203,1.146 1.28,1.185 1.313,1.171 1.349,1.095 1.456,0.863 1.572,0.635 1.683,0.405 1.698,0.372 1.739,0.336 1.679,0.3 1.627,0.269 1.604,0.303 1.578,0.336 1.511,0.42 1.447,0.507 1.375,0.586 1.311,0.658 1.231,0.711 1.138,0.741 1.022,0.778 0.917,0.728 0.842,0.66 0.782,0.606 0.869,0.533 0.898,0.473 1.229,-0.212 1.562,-0.895 1.896,-1.578 1.93,-1.647 1.966,-1.716 2.006,-1.782 2.064,-1.877 2.142,-1.934 2.258,-1.878 2.314,-1.851 2.354,-1.852 2.388,-1.916 2.428,-1.992 2.374,-2.01 2.327,-2.033 2.044,-2.171 1.76,-2.307 1.478,-2.448 1.425,-2.474 1.39,-2.479 1.365,-2.421 c -0.019,0.042 -0.05,0.084 0.018,0.114 0.218,0.095 0.131,0.246 0.063,0.386 C 1.138,-1.285 0.827,-0.65 0.517,-0.014 0.484,0.055 0.459,0.13 0.416,0.193 0.37,0.261 0.38,0.385 0.268,0.386 0.147,0.386 0.011,0.223 0,0.09 -0.002,0.06 0,0.03 0,0"
         id="path836" />
      <path
         transform="matrix(1,0,0,-1,452.9241,516.9415)"
         d="m 0,0 c 0,-0.161 -0.002,-0.322 0.001,-0.483 0.001,-0.068 -0.009,-0.107 -0.095,-0.113 -0.546,-0.043 -1.092,-0.095 -1.639,-0.139 -0.047,-0.004 -0.12,-0.047 -0.142,0.052 -0.022,0.099 0.042,0.105 0.109,0.116 0.12,0.02 0.145,0.103 0.144,0.21 -0.003,0.401 -0.061,0.796 -0.091,1.195 -0.033,0.451 -0.084,0.902 -0.125,1.353 -0.013,0.142 -0.06,0.248 -0.227,0.229 -0.087,-0.009 -0.076,0.05 -0.086,0.101 -0.015,0.078 0.043,0.071 0.088,0.075 0.315,0.027 0.63,0.052 0.945,0.077 0.051,0.004 0.102,0.019 0.111,-0.067 C -0.998,2.524 -1.04,2.515 -1.098,2.509 -1.264,2.492 -1.296,2.383 -1.284,2.242 c 0.066,-0.778 0.129,-1.556 0.202,-2.333 0.01,-0.112 -0.025,-0.27 0.151,-0.305 0.261,-0.051 0.525,0.052 0.625,0.242 0.091,0.172 0.118,0.361 0.146,0.549 0.006,0.042 0.005,0.084 0.013,0.125 0.009,0.049 0.001,0.122 0.08,0.114 C 0.005,0.628 -0.022,0.561 -0.022,0.519 -0.019,0.346 -0.02,0.173 -0.02,0 Z"
         id="path837" />
      <path
         transform="matrix(1,0,0,-1,438.5999,515.2077)"
         d="m 0,0 c -0.016,0.009 -0.037,0.021 -0.057,0.032 -0.279,0.147 -0.557,0.294 -0.835,0.442 -0.038,0.02 -0.097,0.034 -0.049,0.102 0.027,0.039 0.035,0.091 0.104,0.054 0.167,-0.089 0.255,0.013 0.325,0.144 0.27,0.502 0.538,1.006 0.806,1.509 C 0.417,2.514 0.535,2.747 0.66,2.977 0.73,3.106 0.739,3.215 0.588,3.288 0.527,3.318 0.535,3.351 0.562,3.402 0.594,3.461 0.627,3.454 0.677,3.427 0.954,3.278 1.233,3.131 1.511,2.984 1.56,2.958 1.606,2.94 1.564,2.865 1.53,2.802 1.504,2.8 1.443,2.831 1.279,2.914 1.202,2.796 1.139,2.678 0.867,2.176 0.599,1.673 0.332,1.17 0.209,0.939 0.091,0.706 -0.033,0.475 -0.102,0.348 -0.11,0.238 0.04,0.165 0.082,0.144 0.108,0.12 0.076,0.072 0.058,0.043 0.051,0.004 0,0"
         id="path838" />
      <path
         transform="matrix(1,0,0,-1,450.113,516.5514)"
         d="m 0,0 c 0.003,-0.272 0.003,-0.272 -0.263,-0.282 -0.184,-0.007 -0.369,-0.011 -0.553,-0.022 -0.085,-0.005 -0.111,0.025 -0.118,0.109 -0.038,0.471 -0.04,0.471 0.427,0.482 0.059,0.001 0.119,0.007 0.178,0.012 C -0.004,0.328 -0.004,0.328 0,0"
         id="path839" />
      <path
         transform="matrix(1,0,0,-1,447.8182,515.0863)"
         d="m 0,0 c 0,0.036 0.001,0.072 0,0.108 -0.011,0.27 -0.134,0.403 -0.397,0.438 -0.06,0.009 -0.098,0.017 -0.107,-0.066 -0.044,-0.385 -0.092,-0.769 -0.142,-1.153 -0.012,-0.093 0.013,-0.125 0.11,-0.129 0.238,-0.008 0.372,0.068 0.453,0.294 C -0.025,-0.346 0.006,-0.175 0,0 M 0.542,-0.178 C 0.519,-0.477 0.454,-0.836 0.06,-1.022 0.002,-1.049 0.004,-1.079 0.022,-1.134 0.15,-1.536 0.273,-1.94 0.397,-2.343 0.421,-2.42 0.461,-2.484 0.539,-2.517 0.603,-2.545 0.571,-2.599 0.565,-2.641 0.558,-2.69 0.513,-2.68 0.479,-2.677 c -0.172,0.019 -0.343,0.042 -0.515,0.057 -0.096,0.009 -0.107,0.079 -0.128,0.147 -0.131,0.432 -0.261,0.864 -0.395,1.295 -0.016,0.05 -0.004,0.141 -0.091,0.128 -0.079,-0.012 -0.055,-0.095 -0.062,-0.149 -0.037,-0.271 -0.069,-0.543 -0.101,-0.816 -0.02,-0.165 -0.041,-0.333 0.195,-0.361 0.07,-0.009 0.039,-0.061 0.039,-0.098 -0.001,-0.053 -0.031,-0.07 -0.083,-0.063 -0.319,0.04 -0.638,0.08 -0.957,0.119 -0.04,0.005 -0.07,0.012 -0.064,0.062 0.006,0.05 0.01,0.104 0.075,0.1 0.196,-0.013 0.237,0.11 0.256,0.269 0.1,0.816 0.204,1.631 0.306,2.447 0.016,0.132 -0.014,0.242 -0.165,0.269 -0.068,0.012 -0.088,0.038 -0.08,0.106 0.01,0.07 0.05,0.066 0.102,0.06 C -0.793,0.848 -0.393,0.822 -0.004,0.734 0.369,0.65 0.545,0.367 0.542,-0.178"
         id="path840" />
      <path
         transform="matrix(1,0,0,-1,442.646,503.3296)"
         d="m 0,0 c 0.603,0 1.206,-0.005 1.809,0.004 0.145,0.001 0.182,-0.043 0.178,-0.182 -0.009,-0.347 -0.001,-0.693 -0.004,-1.04 0,-0.051 0.032,-0.128 -0.065,-0.137 -0.095,-0.008 -0.099,0.061 -0.11,0.128 -0.105,0.59 -0.439,0.88 -1.031,0.922 -0.275,0.019 -0.548,0.016 -0.822,0.024 -0.118,0.004 -0.156,-0.038 -0.155,-0.155 0.005,-0.549 0.004,-1.098 0,-1.648 -0.001,-0.103 0.035,-0.13 0.135,-0.132 0.526,-0.007 0.875,0.269 0.977,0.782 0.009,0.041 0.022,0.081 0.028,0.122 0.008,0.055 0.012,0.111 0.09,0.102 0.073,-0.008 0.057,-0.066 0.057,-0.11 0.001,-0.71 0.002,-1.421 0.001,-2.132 0,-0.05 0.016,-0.116 -0.069,-0.117 -0.082,-10e-4 -0.068,0.064 -0.076,0.115 -0.01,0.065 -0.023,0.129 -0.037,0.193 -0.116,0.512 -0.433,0.773 -0.96,0.791 -0.077,0.003 -0.146,0 -0.144,-0.107 0.011,-0.536 -0.029,-1.074 0.021,-1.61 0.025,-0.271 0.157,-0.381 0.429,-0.395 0.03,-0.001 0.06,10e-4 0.089,-0.002 0.055,-0.005 0.133,0.022 0.129,-0.076 -0.002,-0.084 -0.073,-0.063 -0.121,-0.063 -0.741,-0.001 -1.481,-0.001 -2.222,0 -0.048,0 -0.119,-0.022 -0.122,0.062 -0.004,0.098 0.074,0.074 0.129,0.077 0.419,0.024 0.518,0.118 0.519,0.532 0.003,1.134 0.002,2.269 0,3.403 -0.001,0.368 -0.12,0.488 -0.49,0.51 -0.042,0.002 -0.084,0 -0.124,0.009 -0.035,0.008 -0.04,0.043 -0.034,0.073 0.018,0.076 0.083,0.056 0.132,0.056 C -1.284,0 -0.705,0 -0.125,0 Z"
         fill="#ffcb05"
         id="path841" />
      <path
         transform="matrix(1,0,0,-1,446.9874,503.3296)"
         d="M 0,0 C 0.603,0 1.206,-0.004 1.809,0.003 1.954,0.005 1.992,-0.041 1.988,-0.18 1.979,-0.532 1.986,-0.884 1.984,-1.236 c 0,-0.051 0.015,-0.113 -0.069,-0.12 -0.08,-0.006 -0.085,0.053 -0.091,0.105 -0.094,0.716 -0.55,0.937 -1.282,0.967 -0.191,0.008 -0.382,-0.003 -0.573,0.003 -0.103,0.003 -0.151,-0.021 -0.15,-0.138 0.004,-0.555 0.004,-1.11 0,-1.666 -0.001,-0.104 0.039,-0.129 0.136,-0.13 0.535,-0.007 0.882,0.289 0.983,0.844 0.012,0.062 -0.023,0.171 0.091,0.157 0.107,-0.013 0.057,-0.116 0.057,-0.177 0.004,-0.675 0.003,-1.35 10e-4,-2.025 0,-0.053 0.034,-0.137 -0.05,-0.149 -0.099,-0.014 -0.086,0.076 -0.095,0.138 -0.09,0.628 -0.35,0.89 -0.945,0.956 -0.126,0.014 -0.182,-0.014 -0.179,-0.159 0.009,-0.507 0.002,-1.015 0.009,-1.523 0.003,-0.279 0.147,-0.409 0.433,-0.433 0.072,-0.006 0.216,0.069 0.207,-0.078 -0.006,-0.109 -0.136,-0.057 -0.208,-0.057 -0.687,-0.004 -1.374,-0.004 -2.06,0 -0.065,0.001 -0.182,-0.058 -0.19,0.06 -0.009,0.131 0.114,0.072 0.177,0.075 0.338,0.018 0.443,0.114 0.469,0.454 0.05,0.65 0.019,1.301 0.02,1.951 10e-4,0.537 0.027,1.074 -0.019,1.611 -0.025,0.286 -0.145,0.407 -0.441,0.43 -0.048,0.004 -0.096,0.001 -0.144,0.002 -0.041,0.002 -0.067,0.019 -0.067,0.064 -0.001,0.043 0.018,0.069 0.061,0.071 C -1.887,0 -1.839,0 -1.792,0 -1.194,0 -0.597,0 0,0"
         fill="#ffcb05"
         id="path842" />
      <path
         transform="matrix(1,0,0,-1,451.5521,503.3296)"
         d="M 0,0 C 0.645,0 1.29,-0.006 1.934,0.004 2.105,0.007 2.148,-0.049 2.142,-0.21 2.131,-0.52 2.14,-0.831 2.138,-1.141 2.137,-1.195 2.164,-1.269 2.073,-1.284 1.975,-1.299 1.977,-1.223 1.958,-1.161 1.869,-0.86 1.763,-0.572 1.467,-0.402 1.201,-0.249 0.913,-0.281 0.629,-0.29 0.533,-0.293 0.573,-0.394 0.573,-0.452 0.57,-1.228 0.571,-2.004 0.571,-2.78 c 0,-0.43 -0.003,-0.86 0.001,-1.29 0.003,-0.37 0.137,-0.502 0.51,-0.514 0.036,-0.001 0.072,0 0.108,-0.003 C 1.235,-4.592 1.246,-4.623 1.245,-4.663 1.243,-4.698 1.224,-4.718 1.19,-4.72 1.154,-4.723 1.118,-4.724 1.082,-4.724 c -0.716,0 -1.432,-10e-4 -2.149,0.002 -0.055,0 -0.149,-0.042 -0.153,0.065 -0.004,0.108 0.091,0.069 0.148,0.072 0.373,0.019 0.498,0.146 0.498,0.522 0.001,1.2 -0.001,2.4 0.004,3.6 0,0.136 -0.029,0.2 -0.177,0.182 -0.1,-0.012 -0.204,0.005 -0.304,-0.008 -0.5,-0.064 -0.745,-0.289 -0.88,-0.8 -0.012,-0.046 -0.022,-0.092 -0.034,-0.139 -0.013,-0.051 -0.05,-0.06 -0.096,-0.055 -0.048,0.004 -0.057,0.037 -0.057,0.075 0,0.376 -0.002,0.752 0.002,1.128 0.002,0.119 0.102,0.078 0.164,0.078 C -1.301,0.001 -0.651,0 0,0"
         fill="#ffcb05"
         id="path843" />
      <path
         transform="matrix(1,0,0,-1,456.1583,508.05329)"
         d="m 0,0 h -1.881 c -0.042,0 -0.084,-0.001 -0.125,0.001 -0.042,0.001 -0.087,-0.004 -0.091,0.058 -0.005,0.065 0.033,0.082 0.088,0.081 0.527,-0.011 0.569,0.212 0.566,0.65 -0.008,1.081 -0.002,2.162 -0.003,3.243 0,0.42 -0.102,0.526 -0.52,0.552 -0.053,0.004 -0.136,-0.026 -0.129,0.073 0.006,0.094 0.086,0.064 0.139,0.065 0.746,0.001 1.493,0.001 2.239,0 0.061,0 0.152,0.02 0.145,-0.081 C 0.422,4.553 0.337,4.593 0.284,4.585 0.195,4.573 0.105,4.571 0.018,4.554 -0.165,4.519 -0.266,4.408 -0.273,4.223 -0.282,4.002 -0.28,3.781 -0.28,3.56 -0.281,2.628 -0.281,1.697 -0.28,0.765 -0.28,0.354 -0.221,0.292 0.195,0.282 0.44,0.277 0.686,0.269 0.929,0.29 1.328,0.324 1.616,0.54 1.809,0.886 1.93,1.1 2.018,1.328 2.086,1.563 2.107,1.636 2.144,1.664 2.214,1.651 2.283,1.637 2.269,1.582 2.264,1.537 2.215,1.081 2.161,0.625 2.116,0.169 2.103,0.037 2.054,-0.005 1.917,-0.004 1.278,0.004 0.639,0 0,0"
         fill="#ffcb05"
         id="path844" />
    </g>
  </g>
</svg>
