<?xml version="1.0" encoding="UTF-8" standalone="no"?>
<svg
   xmlns:dc="http://purl.org/dc/elements/1.1/"
   xmlns:cc="http://creativecommons.org/ns#"
   xmlns:rdf="http://www.w3.org/1999/02/22-rdf-syntax-ns#"
   xmlns:svg="http://www.w3.org/2000/svg"
   xmlns="http://www.w3.org/2000/svg"
   xmlns:sodipodi="http://sodipodi.sourceforge.net/DTD/sodipodi-0.dtd"
   xmlns:inkscape="http://www.inkscape.org/namespaces/inkscape"
   width="81.272186mm"
   height="84.666656mm"
   viewBox="0 0 81.272186 84.666657"
   version="1.1"
   id="svg20413"
   inkscape:version="1.0.1 (3bc2e813f5, 2020-09-07)"
   sodipodi:docname="Togolese Football Federation logo.svg">
  <defs
     id="defs20407">
    <clipPath
       id="clip39">
      <path
         d="m 315.55469,559.10156 c -4.60938,0.0703 -6.75,4.7461 -6.6875,7.21485 0.0781,3.14843 2.5625,7.09765 6.64453,7.30468 4.08594,0.20703 7.22656,-3.67578 7.17578,-7.07812 -0.0508,-3.37891 -2.34766,-7.44141 -7.01563,-7.44141 -0.0391,0 -0.0781,0 -0.11718,0"
         id="path3502" />
    </clipPath>
    <radialGradient
       id="radial1"
       gradientUnits="userSpaceOnUse"
       cx="0"
       cy="0"
       fx="0"
       fy="0"
       r="7.0898852"
       gradientTransform="translate(315.77612,566.36484)">
      <stop
         offset="0"
         style="stop-color:rgb(100%,100%,100%);stop-opacity:1;"
         id="stop3505" />
      <stop
         offset="0.5"
         style="stop-color:rgb(100%,100%,100%);stop-opacity:1;"
         id="stop3507" />
      <stop
         offset="0.625"
         style="stop-color:rgb(99.607849%,99.607849%,99.607849%);stop-opacity:1;"
         id="stop3509" />
      <stop
         offset="0.628906"
         style="stop-color:rgb(98.823547%,98.823547%,98.823547%);stop-opacity:1;"
         id="stop3511" />
      <stop
         offset="0.632813"
         style="stop-color:rgb(98.039246%,98.039246%,98.039246%);stop-opacity:1;"
         id="stop3513" />
      <stop
         offset="0.636719"
         style="stop-color:rgb(97.647095%,97.647095%,97.647095%);stop-opacity:1;"
         id="stop3515" />
      <stop
         offset="0.640625"
         style="stop-color:rgb(96.862793%,96.862793%,96.862793%);stop-opacity:1;"
         id="stop3517" />
      <stop
         offset="0.644531"
         style="stop-color:rgb(96.470642%,96.470642%,96.470642%);stop-opacity:1;"
         id="stop3519" />
      <stop
         offset="0.648438"
         style="stop-color:rgb(95.68634%,95.68634%,95.68634%);stop-opacity:1;"
         id="stop3521" />
      <stop
         offset="0.652344"
         style="stop-color:rgb(94.902039%,94.902039%,94.902039%);stop-opacity:1;"
         id="stop3523" />
      <stop
         offset="0.65625"
         style="stop-color:rgb(94.117737%,94.117737%,94.117737%);stop-opacity:1;"
         id="stop3525" />
      <stop
         offset="0.660156"
         style="stop-color:rgb(93.725586%,93.725586%,93.725586%);stop-opacity:1;"
         id="stop3527" />
      <stop
         offset="0.664063"
         style="stop-color:rgb(92.941284%,92.941284%,92.941284%);stop-opacity:1;"
         id="stop3529" />
      <stop
         offset="0.667969"
         style="stop-color:rgb(92.156982%,92.156982%,92.156982%);stop-opacity:1;"
         id="stop3531" />
      <stop
         offset="0.671875"
         style="stop-color:rgb(91.372681%,91.372681%,91.372681%);stop-opacity:1;"
         id="stop3533" />
      <stop
         offset="0.675781"
         style="stop-color:rgb(90.98053%,90.98053%,90.98053%);stop-opacity:1;"
         id="stop3535" />
      <stop
         offset="0.679688"
         style="stop-color:rgb(90.196228%,90.196228%,90.196228%);stop-opacity:1;"
         id="stop3537" />
      <stop
         offset="0.683594"
         style="stop-color:rgb(89.411926%,89.411926%,89.411926%);stop-opacity:1;"
         id="stop3539" />
      <stop
         offset="0.6875"
         style="stop-color:rgb(88.627625%,88.627625%,88.627625%);stop-opacity:1;"
         id="stop3541" />
      <stop
         offset="0.691406"
         style="stop-color:rgb(88.235474%,88.235474%,88.235474%);stop-opacity:1;"
         id="stop3543" />
      <stop
         offset="0.695313"
         style="stop-color:rgb(87.451172%,87.451172%,87.451172%);stop-opacity:1;"
         id="stop3545" />
      <stop
         offset="0.699219"
         style="stop-color:rgb(86.66687%,86.66687%,86.66687%);stop-opacity:1;"
         id="stop3547" />
      <stop
         offset="0.703125"
         style="stop-color:rgb(86.274719%,86.274719%,86.274719%);stop-opacity:1;"
         id="stop3549" />
      <stop
         offset="0.707031"
         style="stop-color:rgb(85.490417%,85.490417%,85.490417%);stop-opacity:1;"
         id="stop3551" />
      <stop
         offset="0.710938"
         style="stop-color:rgb(84.706116%,84.706116%,84.706116%);stop-opacity:1;"
         id="stop3553" />
      <stop
         offset="0.714844"
         style="stop-color:rgb(83.921814%,83.921814%,83.921814%);stop-opacity:1;"
         id="stop3555" />
      <stop
         offset="0.71875"
         style="stop-color:rgb(83.137512%,83.137512%,83.137512%);stop-opacity:1;"
         id="stop3557" />
      <stop
         offset="0.722656"
         style="stop-color:rgb(82.35321%,82.35321%,82.35321%);stop-opacity:1;"
         id="stop3559" />
      <stop
         offset="0.726563"
         style="stop-color:rgb(81.568909%,81.568909%,81.568909%);stop-opacity:1;"
         id="stop3561" />
      <stop
         offset="0.730469"
         style="stop-color:rgb(80.784607%,80.784607%,80.784607%);stop-opacity:1;"
         id="stop3563" />
      <stop
         offset="0.734375"
         style="stop-color:rgb(80.000305%,80.000305%,80.000305%);stop-opacity:1;"
         id="stop3565" />
      <stop
         offset="0.738281"
         style="stop-color:rgb(79.608154%,79.608154%,79.216003%);stop-opacity:1;"
         id="stop3567" />
      <stop
         offset="0.742188"
         style="stop-color:rgb(78.823853%,78.823853%,78.431702%);stop-opacity:1;"
         id="stop3569" />
      <stop
         offset="0.746094"
         style="stop-color:rgb(78.431702%,78.431702%,78.039551%);stop-opacity:1;"
         id="stop3571" />
      <stop
         offset="0.75"
         style="stop-color:rgb(77.6474%,77.6474%,77.255249%);stop-opacity:1;"
         id="stop3573" />
      <stop
         offset="0.753906"
         style="stop-color:rgb(76.863098%,76.863098%,76.470947%);stop-opacity:1;"
         id="stop3575" />
      <stop
         offset="0.757813"
         style="stop-color:rgb(76.078796%,76.078796%,75.686646%);stop-opacity:1;"
         id="stop3577" />
      <stop
         offset="0.761719"
         style="stop-color:rgb(75.294495%,75.294495%,75.294495%);stop-opacity:1;"
         id="stop3579" />
      <stop
         offset="0.765625"
         style="stop-color:rgb(74.510193%,74.510193%,74.510193%);stop-opacity:1;"
         id="stop3581" />
      <stop
         offset="0.769531"
         style="stop-color:rgb(73.725891%,73.725891%,73.725891%);stop-opacity:1;"
         id="stop3583" />
      <stop
         offset="0.773438"
         style="stop-color:rgb(72.941589%,72.941589%,72.941589%);stop-opacity:1;"
         id="stop3585" />
      <stop
         offset="0.777344"
         style="stop-color:rgb(72.549438%,72.157288%,72.157288%);stop-opacity:1;"
         id="stop3587" />
      <stop
         offset="0.78125"
         style="stop-color:rgb(71.765137%,71.372986%,71.372986%);stop-opacity:1;"
         id="stop3589" />
      <stop
         offset="0.785156"
         style="stop-color:rgb(70.980835%,70.588684%,70.588684%);stop-opacity:1;"
         id="stop3591" />
      <stop
         offset="0.789063"
         style="stop-color:rgb(70.196533%,70.196533%,70.196533%);stop-opacity:1;"
         id="stop3593" />
      <stop
         offset="0.792969"
         style="stop-color:rgb(69.412231%,69.412231%,69.020081%);stop-opacity:1;"
         id="stop3595" />
      <stop
         offset="0.796875"
         style="stop-color:rgb(68.62793%,68.62793%,68.235779%);stop-opacity:1;"
         id="stop3597" />
      <stop
         offset="0.800781"
         style="stop-color:rgb(67.843628%,67.451477%,67.451477%);stop-opacity:1;"
         id="stop3599" />
      <stop
         offset="0.804688"
         style="stop-color:rgb(67.059326%,67.059326%,67.059326%);stop-opacity:1;"
         id="stop3601" />
      <stop
         offset="0.808594"
         style="stop-color:rgb(66.275024%,66.275024%,66.275024%);stop-opacity:1;"
         id="stop3603" />
      <stop
         offset="0.8125"
         style="stop-color:rgb(65.490723%,65.490723%,65.098572%);stop-opacity:1;"
         id="stop3605" />
      <stop
         offset="0.816406"
         style="stop-color:rgb(64.706421%,64.706421%,64.31427%);stop-opacity:1;"
         id="stop3607" />
      <stop
         offset="0.820313"
         style="stop-color:rgb(63.922119%,63.922119%,63.529968%);stop-opacity:1;"
         id="stop3609" />
      <stop
         offset="0.824219"
         style="stop-color:rgb(63.137817%,63.137817%,62.745667%);stop-opacity:1;"
         id="stop3611" />
      <stop
         offset="0.828125"
         style="stop-color:rgb(62.353516%,62.353516%,61.961365%);stop-opacity:1;"
         id="stop3613" />
      <stop
         offset="0.832031"
         style="stop-color:rgb(61.177063%,61.177063%,61.177063%);stop-opacity:1;"
         id="stop3615" />
      <stop
         offset="0.835938"
         style="stop-color:rgb(60.392761%,60.392761%,60.392761%);stop-opacity:1;"
         id="stop3617" />
      <stop
         offset="0.839844"
         style="stop-color:rgb(60.00061%,59.608459%,59.608459%);stop-opacity:1;"
         id="stop3619" />
      <stop
         offset="0.84375"
         style="stop-color:rgb(59.216309%,58.824158%,58.824158%);stop-opacity:1;"
         id="stop3621" />
      <stop
         offset="0.847656"
         style="stop-color:rgb(58.432007%,58.432007%,58.039856%);stop-opacity:1;"
         id="stop3623" />
      <stop
         offset="0.851563"
         style="stop-color:rgb(57.647705%,57.647705%,57.255554%);stop-opacity:1;"
         id="stop3625" />
      <stop
         offset="0.855469"
         style="stop-color:rgb(56.863403%,56.863403%,56.471252%);stop-opacity:1;"
         id="stop3627" />
      <stop
         offset="0.859375"
         style="stop-color:rgb(56.079102%,56.079102%,55.686951%);stop-opacity:1;"
         id="stop3629" />
      <stop
         offset="0.863281"
         style="stop-color:rgb(55.2948%,55.2948%,54.902649%);stop-opacity:1;"
         id="stop3631" />
      <stop
         offset="0.867188"
         style="stop-color:rgb(54.510498%,54.510498%,54.118347%);stop-opacity:1;"
         id="stop3633" />
      <stop
         offset="0.871094"
         style="stop-color:rgb(53.726196%,53.726196%,53.334045%);stop-opacity:1;"
         id="stop3635" />
      <stop
         offset="0.875"
         style="stop-color:rgb(52.941895%,52.941895%,52.549744%);stop-opacity:1;"
         id="stop3637" />
      <stop
         offset="0.878906"
         style="stop-color:rgb(52.157593%,52.157593%,51.765442%);stop-opacity:1;"
         id="stop3639" />
      <stop
         offset="0.882813"
         style="stop-color:rgb(50.98114%,50.98114%,50.588989%);stop-opacity:1;"
         id="stop3641" />
      <stop
         offset="0.886719"
         style="stop-color:rgb(50.196838%,50.196838%,49.803162%);stop-opacity:1;"
         id="stop3643" />
      <stop
         offset="0.890625"
         style="stop-color:rgb(49.411011%,49.411011%,49.411011%);stop-opacity:1;"
         id="stop3645" />
      <stop
         offset="0.894531"
         style="stop-color:rgb(48.626709%,48.234558%,48.234558%);stop-opacity:1;"
         id="stop3647" />
      <stop
         offset="0.898438"
         style="stop-color:rgb(47.842407%,47.450256%,47.450256%);stop-opacity:1;"
         id="stop3649" />
      <stop
         offset="0.902344"
         style="stop-color:rgb(46.665955%,46.665955%,46.273804%);stop-opacity:1;"
         id="stop3651" />
      <stop
         offset="0.90625"
         style="stop-color:rgb(45.881653%,45.881653%,45.489502%);stop-opacity:1;"
         id="stop3653" />
      <stop
         offset="0.910156"
         style="stop-color:rgb(45.097351%,45.097351%,44.7052%);stop-opacity:1;"
         id="stop3655" />
      <stop
         offset="0.914063"
         style="stop-color:rgb(43.920898%,43.920898%,43.528748%);stop-opacity:1;"
         id="stop3657" />
      <stop
         offset="0.917969"
         style="stop-color:rgb(43.136597%,43.136597%,42.744446%);stop-opacity:1;"
         id="stop3659" />
      <stop
         offset="0.921875"
         style="stop-color:rgb(41.960144%,41.960144%,41.960144%);stop-opacity:1;"
         id="stop3661" />
      <stop
         offset="0.925781"
         style="stop-color:rgb(41.175842%,41.175842%,41.175842%);stop-opacity:1;"
         id="stop3663" />
      <stop
         offset="0.929688"
         style="stop-color:rgb(40.391541%,40.391541%,40.391541%);stop-opacity:1;"
         id="stop3665" />
      <stop
         offset="0.933594"
         style="stop-color:rgb(39.607239%,39.215088%,39.215088%);stop-opacity:1;"
         id="stop3667" />
      <stop
         offset="0.9375"
         style="stop-color:rgb(38.822937%,38.430786%,38.430786%);stop-opacity:1;"
         id="stop3669" />
      <stop
         offset="0.941406"
         style="stop-color:rgb(37.646484%,37.646484%,37.254333%);stop-opacity:1;"
         id="stop3671" />
      <stop
         offset="0.945313"
         style="stop-color:rgb(36.862183%,36.862183%,36.470032%);stop-opacity:1;"
         id="stop3673" />
      <stop
         offset="0.949219"
         style="stop-color:rgb(36.077881%,36.077881%,35.68573%);stop-opacity:1;"
         id="stop3675" />
      <stop
         offset="0.953125"
         style="stop-color:rgb(35.293579%,35.293579%,34.901428%);stop-opacity:1;"
         id="stop3677" />
      <stop
         offset="0.957031"
         style="stop-color:rgb(34.117126%,34.117126%,33.724976%);stop-opacity:1;"
         id="stop3679" />
      <stop
         offset="0.960938"
         style="stop-color:rgb(33.332825%,33.332825%,32.940674%);stop-opacity:1;"
         id="stop3681" />
      <stop
         offset="0.964844"
         style="stop-color:rgb(32.156372%,32.156372%,31.764221%);stop-opacity:1;"
         id="stop3683" />
      <stop
         offset="0.96875"
         style="stop-color:rgb(31.37207%,31.37207%,30.979919%);stop-opacity:1;"
         id="stop3685" />
      <stop
         offset="0.972656"
         style="stop-color:rgb(30.587769%,30.587769%,30.195618%);stop-opacity:1;"
         id="stop3687" />
      <stop
         offset="0.976563"
         style="stop-color:rgb(29.411316%,29.411316%,29.019165%);stop-opacity:1;"
         id="stop3689" />
      <stop
         offset="0.980469"
         style="stop-color:rgb(28.627014%,28.234863%,28.234863%);stop-opacity:1;"
         id="stop3691" />
      <stop
         offset="0.984375"
         style="stop-color:rgb(27.450562%,27.058411%,26.66626%);stop-opacity:1;"
         id="stop3693" />
      <stop
         offset="0.988281"
         style="stop-color:rgb(26.66626%,26.274109%,25.881958%);stop-opacity:1;"
         id="stop3695" />
      <stop
         offset="0.992188"
         style="stop-color:rgb(25.489807%,25.489807%,25.097656%);stop-opacity:1;"
         id="stop3697" />
      <stop
         offset="0.996094"
         style="stop-color:rgb(24.313354%,24.313354%,23.921204%);stop-opacity:1;"
         id="stop3699" />
      <stop
         offset="1"
         style="stop-color:rgb(23.921204%,23.921204%,23.529053%);stop-opacity:1;"
         id="stop3701" />
    </radialGradient>
  </defs>
  <sodipodi:namedview
     id="base"
     pagecolor="#ffffff"
     bordercolor="#666666"
     borderopacity="1.0"
     inkscape:pageopacity="0.0"
     inkscape:pageshadow="2"
     inkscape:zoom="0.35"
     inkscape:cx="141.7556"
     inkscape:cy="116.83063"
     inkscape:document-units="mm"
     inkscape:current-layer="layer1"
     inkscape:document-rotation="0"
     showgrid="false"
     inkscape:window-width="1267"
     inkscape:window-height="728"
     inkscape:window-x="83"
     inkscape:window-y="0"
     inkscape:window-maximized="0" />
  <metadata
     id="metadata20410">
    <rdf:RDF>
      <cc:Work
         rdf:about="">
        <dc:format>image/svg+xml</dc:format>
        <dc:type
           rdf:resource="http://purl.org/dc/dcmitype/StillImage" />
        <dc:title></dc:title>
      </cc:Work>
    </rdf:RDF>
  </metadata>
  <g
     inkscape:label="Layer 1"
     inkscape:groupmode="layer"
     id="layer1"
     transform="translate(-68.327163,-117.25523)">
    <path
       style="fill:#38a647;fill-opacity:1;fill-rule:nonzero;stroke:none;stroke-width:2.86697"
       d="m 108.82319,200.31983 c 0,0 8.45534,-7.3579 17.52664,-17.96346 H 91.47574 c 8.98169,10.59443 17.34745,17.96346 17.34745,17.96346"
       id="path13026" />
    <path
       style="fill:#ffeb00;fill-opacity:1;fill-rule:nonzero;stroke:none;stroke-width:2.86697"
       d="m 79.481488,166.61041 c 3.538908,5.55479 8.029772,11.09837 11.994252,15.74596 h 34.87409 c 4.18848,-4.87156 8.48895,-9.88885 12.17347,-15.74596 z m 0,0"
       id="path13028" />
    <path
       style="fill:#38a647;fill-opacity:1;fill-rule:nonzero;stroke:none;stroke-width:2.86697"
       d="m 108.82319,150.96522 v 15.64519 h 29.70011 c 2.5086,-4.00931 5.81234,-11.49033 7.49222,-15.64519 z m 0,0"
       id="path13030" />
    <path
       style="clip-rule:nonzero;fill:#ffeb00;fill-opacity:1;fill-rule:nonzero;stroke:none;stroke-width:2.86697"
       d="m 108.82319,135.61122 v 15.354 h 37.19233 c 2.04943,-4.46848 2.20623,-11.05351 2.20623,-15.33157 z m 0,0"
       id="path13032" />
    <path
       style="clip-rule:nonzero;fill:#38a647;fill-opacity:1;fill-rule:nonzero;stroke:none;stroke-width:2.86697"
       d="m 143.48452,118.64452 h -34.66133 v 16.98913 h 39.37617 c -0.32475,-16.82115 -4.71484,-16.98913 -4.71484,-16.98913"
       id="path13036" />
    <path
       style="clip-rule:nonzero;fill:#e30511;fill-opacity:1;fill-rule:nonzero;stroke:none;stroke-width:2.86697"
       d="M 108.82319,118.64452 H 74.161894 c 0,0 -4.446053,1.63512 -4.446053,20.18087 0,9.04886 3.95328,18.65774 9.765647,27.78502 h 29.341702 z m 0,0"
       id="path13040" />
    <path
       style="fill:#ffffff;fill-opacity:1;fill-rule:nonzero;stroke:none;stroke-width:2.86697"
       d="m 87.332072,137.4591 -4.12128,-2.19506 -4.143669,2.13906 0.817514,-4.59167 -3.31494,-3.28131 4.625235,-0.63876 2.083061,-4.16608 2.038218,4.19964 4.61406,0.69403 -3.359752,3.23653 z m 0,0"
       id="path13044" />
    <path
       style="clip-rule:nonzero;fill:#000000;fill-opacity:1;fill-rule:nonzero;stroke:none;stroke-width:2.86697"
       d="m 143.11493,120.03323 c 0.67193,0.52663 3.69571,3.76291 3.69571,18.81451 v 0.12353 c -0.0228,23.88778 -32.35426,53.99106 -38.20024,59.24346 -5.77873,-5.27483 -37.505881,-35.37811 -37.505881,-59.38901 0,-14.83885 2.79981,-18.20979 3.44935,-18.79216 z m -69.165822,-2.77735 -0.201546,0.0569 c -1.276698,0.40309 -5.420399,3.11332 -5.420399,21.51351 0,27.53862 37.752277,60.90086 39.353757,62.30079 l 0.90712,0.79481 0.91833,-0.78425 c 1.63509,-1.39993 40.0593,-34.76217 40.0929,-62.15522 0.0228,-19.03857 -4.75964,-21.40154 -5.72275,-21.67029 l -0.19042,-0.0569 z m 0,0"
       id="path13046" />
    <path
       style="fill:#000000;fill-opacity:1;fill-rule:nonzero;stroke:none;stroke-width:2.86697"
       d="m 85.260225,146.48561 0.560022,-2.13907 0.571156,0.14547 -0.335964,1.28794 0.660795,0.16824 0.313534,-1.23196 0.571156,0.14548 -0.313615,1.24307 1.209521,0.30232 -0.223896,0.86235 z m 0,0"
       id="path13050" />
    <path
       style="fill:#000000;fill-opacity:1;fill-rule:nonzero;stroke:none;stroke-width:2.86697"
       d="m 86.066556,143.58497 0.862334,-2.16142 0.548807,0.21292 -0.537593,1.35508 0.593587,0.23486 0.503947,-1.27672 0.548807,0.2243 -0.503947,1.26551 0.64958,0.25762 0.559942,-1.38864 0.548807,0.21293 -0.884723,2.21741 z m 0,0"
       id="path13052" />
    <path
       style="fill:#000000;fill-opacity:1;fill-rule:nonzero;stroke:none;stroke-width:2.86697"
       d="m 89.975049,140.94203 0.179198,-0.29094 c 0.324831,-0.57132 0.23511,-1.05276 -0.30232,-1.35507 -0.526376,-0.3137 -0.996727,-0.14547 -1.321501,0.40309 l -0.179197,0.29094 z m -2.598199,-0.50386 0.604801,-1.03033 c 0.582372,-0.99676 1.287906,-1.51192 2.329421,-0.90712 0.996735,0.5827 0.929534,1.51184 0.358393,2.47496 l -0.615935,1.04154 z m 0,0"
       id="path13054" />
    <path
       style="fill:#000000;fill-opacity:1;fill-rule:nonzero;stroke:none;stroke-width:2.86697"
       d="m 89.560685,136.94395 1.467094,-1.80311 0.459168,0.36977 -0.918319,1.11988 0.492731,0.40309 0.873541,-1.06388 0.447952,0.36977 -0.862333,1.06397 0.548726,0.44779 0.951924,-1.16475 0.447953,0.36978 -1.500658,1.8478 z m 0,0"
       id="path13056" />
    <path
       style="fill:#000000;fill-opacity:1;fill-rule:nonzero;stroke:none;stroke-width:2.86697"
       d="m 93.234004,134.73774 0.167981,-0.15684 c 0.212762,-0.19018 0.470384,-0.43642 0.223896,-0.69404 -0.190331,-0.21293 -0.459168,-0.0406 -0.705575,0.1796 l -0.167981,0.15685 z m -1.523081,-0.34702 1.153527,-1.06389 c 0.425523,-0.40309 0.951925,-0.53718 1.310295,-0.14547 0.279808,0.30232 0.313535,0.64934 0.06745,1.0079 h 0.01138 c 0.257702,-0.14548 0.425603,0.0244 0.806347,0.17879 l 0.806347,0.4031 -0.671929,0.62739 -0.515162,-0.28038 c -0.492813,-0.269 -0.67201,-0.29094 -0.90716,-0.065 l -0.134419,0.12353 0.828728,0.89591 -0.638364,0.60464 z m 0,0"
       id="path13058" />
    <path
       style="fill:#000000;fill-opacity:1;fill-rule:nonzero;stroke:none;stroke-width:2.86697"
       d="m 96.078593,131.62434 v 0.008 l 0.313616,1.24309 0.694278,-0.45917 z m -0.806348,-0.23486 0.89593,-0.59327 2.788588,1.88145 -0.806348,0.53719 -0.571156,-0.42585 -1.030331,0.69403 0.156848,0.69404 -0.750354,0.49249 z m 0,0"
       id="path13060" />
    <path
       style="fill:#000000;fill-opacity:1;fill-rule:nonzero;stroke:none;stroke-width:2.86697"
       d="m 98.41922,130.22448 -0.727924,0.34702 -0.268673,-0.54856 2.251035,-1.09754 0.268674,0.54857 -0.727924,0.35839 1.086322,2.23985 -0.783912,0.39172 z m 0,0"
       id="path13062" />
    <path
       style="fill:#000000;fill-opacity:1;fill-rule:nonzero;stroke:none;stroke-width:2.86697"
       d="m 100.34546,128.67892 0.82872,-0.30232 1.07512,2.91177 -0.82873,0.3137 z m 0,0"
       id="path13064" />
    <path
       style="fill:#000000;fill-opacity:1;fill-rule:nonzero;stroke:none;stroke-width:2.86697"
       d="m 104.24277,130.14606 c 0.52638,-0.12352 0.61594,-0.63877 0.50395,-1.14231 -0.12329,-0.52662 -0.42561,-0.91833 -0.95193,-0.79481 -0.51516,0.12353 -0.62715,0.61602 -0.50395,1.1311 0.11207,0.50387 0.43674,0.91834 0.95193,0.80618 m -0.58237,-2.54224 c 1.05273,-0.23487 1.74708,0.2243 1.97105,1.19831 0.22389,0.96311 -0.20155,1.69111 -1.25431,1.93744 -1.04152,0.24624 -1.74705,-0.2243 -1.97104,-1.18709 -0.2239,-0.97433 0.19033,-1.70225 1.2543,-1.94866"
       id="path13066" />
    <path
       style="fill:#000000;fill-opacity:1;fill-rule:nonzero;stroke:none;stroke-width:2.86697"
       d="m 106.3258,127.15587 1.11989,-0.065 1.23191,2.04943 h 0.0113 l -0.13442,-2.10543 0.80635,-0.0406 0.16798,3.10218 -1.08633,0.0569 -1.27668,-2.04942 h -0.0114 l 0.14563,2.11663 -0.80634,0.0406 z m 0,0"
       id="path13068" />
    <path
       style="fill:#000000;fill-opacity:1;fill-rule:nonzero;stroke:none;stroke-width:2.86697"
       d="m 112.57492,127.89501 -0.80635,-0.1341 0.10066,-0.60464 2.48621,0.40309 -0.11207,0.61602 -0.79513,-0.1341 -0.41439,2.45261 -0.86232,-0.1341 z m 0,0"
       id="path13070" />
    <path
       style="fill:#000000;fill-opacity:1;fill-rule:nonzero;stroke:none;stroke-width:2.86697"
       d="m 115.83387,130.63879 c 0.50394,0.16823 0.86232,-0.2243 1.01909,-0.71679 0.16798,-0.50386 0.10096,-1.00789 -0.40317,-1.17596 -0.51517,-0.16822 -0.85116,0.20155 -1.01913,0.71679 -0.15685,0.48193 -0.10096,1.0079 0.40317,1.17588 m 0.80635,-2.47496 c 1.0303,0.33565 1.37747,1.09746 1.07512,2.03822 -0.30241,0.94069 -1.04154,1.35508 -2.07185,1.01911 -1.03033,-0.33563 -1.38871,-1.09753 -1.07511,-2.03822 0.3024,-0.95198 1.03029,-1.35515 2.07184,-1.01911"
       id="path13072" />
    <path
       style="fill:#000000;fill-opacity:1;fill-rule:nonzero;stroke:none;stroke-width:2.86697"
       d="m 120.42551,133.23703 c -0.55994,-0.1349 -0.92954,-0.32507 -1.19832,-0.47054 -0.7727,-0.41447 -1.4783,-1.26552 -0.92953,-2.29584 0.54881,-1.03033 1.5343,-1.01911 2.60942,-0.44779 0.19033,0.10076 0.58237,0.33564 0.81751,0.5827 l -0.38074,0.55994 c -0.1792,-0.25762 -0.43674,-0.44779 -0.61594,-0.54857 -0.63837,-0.33564 -1.28791,-0.35839 -1.62389,0.27956 -0.28013,0.5372 -0.0561,1.07511 0.51517,1.37751 0.10066,0.0569 0.21268,0.10076 0.3024,0.10076 l 0.29118,-0.53799 -0.45917,-0.24625 0.28014,-0.51524 1.19831,0.63877 z m 0,0"
       id="path13074" />
    <path
       style="fill:#000000;fill-opacity:1;fill-rule:nonzero;stroke:none;stroke-width:2.86697"
       d="m 122.48615,134.16651 c 0.41439,0.32507 0.88472,0.0813 1.19831,-0.32509 0.32474,-0.42584 0.43673,-0.91832 0.0113,-1.24307 -0.42552,-0.32508 -0.86232,-0.10076 -1.1983,0.32507 -0.31354,0.40309 -0.43674,0.91834 -0.0113,1.24309 m 1.59027,-2.04944 c 0.86233,0.66072 0.94072,1.48949 0.32475,2.28463 -0.6048,0.77286 -1.44469,0.90712 -2.29581,0.24624 -0.85114,-0.66071 -0.92953,-1.5007 -0.32483,-2.28462 0.61593,-0.78424 1.43348,-0.91834 2.29584,-0.24625"
       id="path13076" />
    <path
       style="fill:#000000;fill-opacity:1;fill-rule:nonzero;stroke:none;stroke-width:2.86697"
       d="m 126.01387,133.83054 0.61594,0.63877 -1.80308,1.72468 0.95196,0.98555 -0.44796,0.42584 -1.55666,-1.62382 z m 0,0"
       id="path13078" />
    <path
       style="fill:#000000;fill-opacity:1;fill-rule:nonzero;stroke:none;stroke-width:2.86697"
       d="m 128.48888,137.70542 v -0.008 l -1.24312,0.35839 0.4816,0.67209 z m 0.21268,-0.81747 0.62715,0.88468 -1.79186,2.83344 -0.56002,-0.78424 0.39196,-0.58189 -0.71671,-1.00797 -0.69436,0.16823 -0.51517,-0.72817 z m 0,0"
       id="path13080" />
    <path
       style="fill:#000000;fill-opacity:1;fill-rule:nonzero;stroke:none;stroke-width:2.86697"
       d="m 130.40394,139.49732 0.42552,0.77286 -2.73258,1.4895 -0.4256,-0.77287 z m 0,0"
       id="path13082" />
    <path
       style="fill:#000000;fill-opacity:1;fill-rule:nonzero;stroke:none;stroke-width:2.86697"
       d="m 129.12721,142.0507 c -0.0228,0.25762 0.0228,0.58269 0.15685,0.91834 0.11207,0.25762 0.26868,0.48192 0.49281,0.39171 0.5376,-0.2243 -0.40317,-1.52305 0.63837,-1.95979 0.69436,-0.29094 1.17592,0.34701 1.43349,0.96312 0.12328,0.29093 0.20155,0.59325 0.2239,0.82868 l -0.61594,0.19018 c 0,-0.24625 -0.0561,-0.49249 -0.14563,-0.72817 -0.0895,-0.21292 -0.24625,-0.538 -0.50395,-0.43642 -0.45917,0.19017 0.44795,1.50071 -0.58237,1.93745 -0.73922,0.3137 -1.22071,-0.269 -1.5007,-0.94069 -0.12329,-0.29093 -0.2239,-0.66071 -0.25746,-0.96319 z m 0,0"
       id="path13084" />
    <path
       style="fill:#000000;fill-opacity:1;fill-rule:nonzero;stroke:none;stroke-width:2.86697"
       d="m 132.48696,144.20099 0.6048,2.25097 -0.57115,0.15685 -0.36961,-1.39992 -0.61593,0.16822 0.34718,1.32151 -0.57116,0.14546 -0.34718,-1.3215 -0.68315,0.17879 0.39196,1.45593 -0.57115,0.14547 -0.61594,-2.29584 z m 0,0"
       id="path13086" />
    <path
       style="fill:#000000;fill-opacity:1;fill-rule:nonzero;stroke:none;stroke-width:2.86697"
       d="m 96.683346,175.00977 0.257459,0.19017 c 0.492813,0.38033 0.963139,0.33563 1.332716,-0.15685 0.380744,-0.50387 0.279808,-0.97433 -0.201547,-1.34394 l -0.246244,-0.19017 z m 0.851126,-2.48626 0.89593,0.68348 c 0.862325,0.64933 1.265507,1.37749 0.53751,2.34069 -0.705573,0.91826 -1.567859,0.77287 -2.407794,0.1341 l -0.907145,-0.68347 z m 0,0"
       id="path13088" />
    <path
       style="fill:#000000;fill-opacity:1;fill-rule:nonzero;stroke:none;stroke-width:2.86697"
       d="m 100.07668,174.39383 1.92626,1.04154 -0.29119,0.51524 -1.1871,-0.64934 -0.31353,0.57133 1.1311,0.60463 -0.28013,0.51525 -1.131103,-0.60464 -0.335965,0.61602 1.243118,0.67209 -0.28013,0.51524 -1.971044,-1.0751 z m 0,0"
       id="path13090" />
    <path
       style="fill:#000000;fill-opacity:1;fill-rule:nonzero;stroke:none;stroke-width:2.86697"
       d="m 103.51481,176.06252 1.98226,0.61602 -0.16798,0.55994 -1.19832,-0.36977 -0.20154,0.64933 1.14232,0.35839 -0.16798,0.55995 -1.14233,-0.3584 -0.36961,1.19831 -0.79513,-0.24625 z m 0,0"
       id="path13092" />
    <path
       style="fill:#000000;fill-opacity:1;fill-rule:nonzero;stroke:none;stroke-width:2.86697"
       d="m 106.68416,179.48937 c 0.49274,0.0813 0.77271,-0.36977 0.85112,-0.87346 0.0895,-0.52663 -0.0333,-1.00798 -0.52638,-1.08632 -0.50393,-0.0894 -0.77269,0.32507 -0.86231,0.86234 -0.078,0.50386 0.0333,1.00789 0.53759,1.09744 m 0.41438,-2.56459 c 1.01913,0.15685 1.4447,0.85113 1.2767,1.83668 -0.15685,0.97432 -0.79513,1.48948 -1.79186,1.33271 -1.00791,-0.16822 -1.44467,-0.86233 -1.27669,-1.84787 0.15685,-0.97434 0.78392,-1.50063 1.79185,-1.32152"
       id="path13094" />
    <path
       style="fill:#000000;fill-opacity:1;fill-rule:nonzero;stroke:none;stroke-width:2.86697"
       d="m 110.23429,179.8142 c 0.49281,0.008 0.71671,-0.47054 0.72792,-0.97432 0.0113,-0.53719 -0.16798,-0.99676 -0.67193,-1.01911 -0.50394,-0.008 -0.71671,0.43641 -0.73914,0.97433 -0.0113,0.51525 0.1792,0.99667 0.68315,1.0191 m 0.0674,-2.60936 c 1.03031,0.0325 1.54547,0.66071 1.51187,1.65739 -0.0228,0.98554 -0.59358,1.59034 -1.60146,1.55669 -1.01918,-0.0244 -1.54552,-0.6607 -1.51196,-1.64625 0.0333,-0.99676 0.58238,-1.59026 1.6015,-1.56783"
       id="path13096" />
    <path
       style="fill:#000000;fill-opacity:1;fill-rule:nonzero;stroke:none;stroke-width:2.86697"
       d="m 112.49651,177.74235 -0.75035,0.1349 -0.11207,-0.60463 2.32941,-0.4031 0.11207,0.60463 -0.76149,0.1341 0.43674,2.45261 -0.81751,0.14547 z m 0,0"
       id="path13098" />
    <path
       style="fill:#000000;fill-opacity:1;fill-rule:nonzero;stroke:none;stroke-width:2.86697"
       d="m 115.58748,178.97422 0.23511,-0.0894 c 0.28014,-0.0894 0.55994,-0.23487 0.45917,-0.53719 -0.11207,-0.3137 -0.42561,-0.24625 -0.69436,-0.15685 l -0.23512,0.0894 z m -0.42561,-1.22066 0.2239,-0.0813 c 0.25746,-0.0894 0.50395,-0.24625 0.41439,-0.49249 -0.0895,-0.269 -0.3584,-0.21292 -0.61594,-0.11215 l -0.22388,0.065 z m -1.17591,-0.89598 1.34389,-0.47055 c 0.54872,-0.17961 1.04154,-0.0894 1.20952,0.41447 0.13442,0.38033 0.0113,0.64933 -0.28013,0.87347 h 0.0113 c 0.41439,-0.0569 0.69436,0.0894 0.81755,0.44779 0.23511,0.70542 -0.32483,1.06397 -0.85114,1.24317 l -1.2431,0.42584 z m 0,0"
       id="path13100" />
    <path
       style="fill:#000000;fill-opacity:1;fill-rule:nonzero;stroke:none;stroke-width:2.86697"
       d="m 118.07369,175.8609 0.2239,1.26551 0.68314,-0.36977 z m -0.75035,-0.32508 0.89593,-0.48193 2.531,2.16143 -0.80635,0.43722 -0.51516,-0.47055 -1.03031,0.54857 0.10066,0.70542 -0.73914,0.40309 z m 0,0"
       id="path13102" />
    <path
       style="fill:#000000;fill-opacity:1;fill-rule:nonzero;stroke:none;stroke-width:2.86697"
       d="m 119.30558,174.40497 0.66079,-0.4925 1.47831,2.00466 1.04151,-0.76149 0.3584,0.49249 -1.70227,1.25431 z m 0,0"
       id="path13104" />
    <path
       style="fill:#000000;fill-opacity:1;fill-rule:nonzero;stroke:none;stroke-width:2.86697"
       d="m 121.13104,173.01633 0.61594,-0.55995 1.69106,1.8366 0.94071,-0.87348 0.41438,0.44779 -1.54548,1.4335 z m 0,0"
       id="path13106" />
    <g
       clip-path="url(#clip39)"
       clip-rule="nonzero"
       id="g13112"
       transform="matrix(2.8669774,0,0,2.8669774,-795.96569,-1470.3328)">
      <path
         style="fill:url(#radial1);fill-rule:nonzero;stroke:none"
         d="m 308.80469,559.10156 v 14.72656 h 13.93359 v -14.72656 z m 0,0"
         id="path13108" />
      <path
         style="fill:#000000;fill-opacity:1;fill-rule:evenodd;stroke:none"
         d="m 321.61719,566.46875 c -0.0703,-0.99219 -0.22657,-2.30859 -0.58985,-3.24609 l 0.24219,0.043 -0.125,-1.875 -2.30469,-1.94921 -1.23047,1.23046 c -0.84375,-0.50781 -1.8789,-0.65625 -3.375,-0.5039 l 0.008,-0.0156 -0.89063,-0.62109 -1.52344,0.32031 -0.93359,1.42188 0.4375,1.60937 c -0.59375,0.80078 -1.14453,1.7461 -1.28906,2.24219 l 0.1875,0.0547 c 0.14062,-0.47657 0.69531,-1.42969 1.28125,-2.21094 l 2.03515,-0.45313 0.62891,-2.14453 c 1.52734,-0.16797 2.55469,-0.0156 3.39063,0.5 l 1.14453,1.92578 2.08984,0.38282 c 0.38281,0.91015 0.55078,2.26172 0.62109,3.28125 l -2.09375,2.09375 0.85157,1.40625 c -0.44532,0.76172 -1.23047,1.35547 -2.34375,1.76953 l -1.83203,-0.72266 v -1.14844 h -0.19532 v 1.16016 l -1.59765,1.03516 c -1.5586,-0.61328 -2.10938,-1.30469 -2.5625,-1.98047 v -2.19141 l 0.82812,-0.65234 -0.12109,-0.15235 -0.78906,0.6211 -1.42969,-1.14063 -1.5625,1.07422 0.74219,2.61328 h 2.21484 c 0.43359,0.64063 1.01172,1.33203 2.48047,1.9375 l -0.0859,0.0586 0.86719,1.30078 1.07812,0.49219 1.61328,-0.41016 0.45313,-1.72656 c 1.09375,-0.41407 1.88672,-1 2.35937,-1.75 l 0.17969,0.30078 h 1.69141 l 1.04687,-2.71094 z m 0,0"
         id="path13110" />
    </g>
    <path
       style="fill:#f08542;fill-opacity:1;fill-rule:nonzero;stroke:#000000;stroke-width:0.111812;stroke-linecap:butt;stroke-linejoin:miter;stroke-miterlimit:4;stroke-opacity:1"
       d="m 108.36404,172.13155 -0.75035,-6.67467 -1.59027,-7.80577 -2.02705,-6.62989 c -0.89593,-1.33265 -2.4974,-4.51326 -2.84459,-4.86044 -0.16798,-0.16823 -0.4816,-0.48192 -0.98552,-0.32507 -0.425605,0.11214 -0.82873,0.54856 -0.739139,0.79481 l 1.030309,1.67989 -1.019093,-1.6239 c -0.403174,-0.70541 -0.929535,-0.96311 -1.43349,-0.64934 -0.604802,0.36977 -0.515162,0.91834 -0.257784,1.39994 l 1.007918,1.70225 -1.500666,-2.64302 c 0,0 -0.447953,-0.30232 -1.108716,0.0569 -0.503947,0.28037 -0.694359,1.04154 -0.358395,1.53435 l 1.052722,1.81424 -1.198307,-2.02708 c 0,0 -0.750353,-0.68348 -1.455911,-0.20155 -0.515162,0.33564 -0.615935,0.88477 -0.302319,1.44472 0.324749,0.54855 1.847854,3.60612 1.847854,3.60612 l 1.332684,2.22864 1.455879,1.35507 -1.455879,-1.35507 -1.063905,0.51524 1.97105,1.97101 c 0,0 0.918319,0.54857 0.963099,0.54857 0.0447,0 1.030332,-0.0813 1.030332,-0.0813 l 0.112067,1.45585 0.0788,10.11283 z m 0,0"
       id="path13116" />
    <path
       style="fill:#000000;fill-opacity:1;fill-rule:nonzero;stroke:#000000;stroke-width:0.111812;stroke-linecap:butt;stroke-linejoin:miter;stroke-miterlimit:4;stroke-opacity:1"
       d="m 112.94447,157.7631 -6.92104,-0.11215 -2.02705,-6.62989 5.66675,-3.97567 5.53238,4.16608 z m 0,0"
       id="path13118" />
    <path
       style="fill:#858585;fill-opacity:1;fill-rule:nonzero;stroke:#000000;stroke-width:0.111812;stroke-linecap:butt;stroke-linejoin:miter;stroke-miterlimit:4;stroke-opacity:1"
       d="m 127.33535,159.76775 -6.47309,-1.0751 -7.91779,-0.92955 -6.92104,-0.11215 c -1.55669,0.43641 -5.07322,0.97433 -5.50998,1.19831 -0.21267,0.10076 -0.59358,0.31369 -0.61593,0.82869 -0.01137,0.43641 0.28013,0.9632 0.53759,0.95199 l 1.91506,-0.45917 -1.85907,0.47054 c -0.795126,0.15685 -1.198308,0.58269 -1.063906,1.16466 0.167983,0.69403 0.716706,0.76148 1.243096,0.6721 l 1.93744,-0.42586 -2.967742,0.60464 c 0,0 -0.447952,0.33565 -0.291186,1.07511 0.100608,0.55994 0.772708,0.97425 1.343888,0.80618 l 2.04944,-0.43641 -2.29583,0.51524 c 0,0 -0.884744,0.50387 -0.649577,1.32151 0.167982,0.58269 0.660707,0.86234 1.287877,0.72816 0.62715,-0.13408 3.99812,-0.63876 3.99812,-0.63876 l 2.54217,-0.57132 1.72469,-0.97425 -1.72469,0.97425 0.15685,1.16474 2.48621,-1.26551 c 0,0 0.79513,-0.70542 0.81756,-0.75012 0.0113,-0.0325 0.23511,-1.00789 0.23511,-1.00789 l 1.41107,0.34702 9.77685,3.57249 z m 0,0"
       id="path13120" />
    <path
       style="fill:#f08542;fill-opacity:1;fill-rule:nonzero;stroke:#000000;stroke-width:0.111812;stroke-linecap:butt;stroke-linejoin:miter;stroke-miterlimit:4;stroke-opacity:1"
       d="m 121.29905,138.90373 -2.811,5.05085 -3.29254,7.25705 -2.25104,6.55147 c -0.0674,1.61269 -0.63836,5.11797 -0.55994,5.59957 0.0333,0.24624 0.11207,0.67209 0.6048,0.85112 0.40318,0.14548 0.99671,0.0325 1.07512,-0.21292 l 0.14564,-1.97109 -0.13442,1.92623 c -0.078,0.79563 0.19033,1.3103 0.78392,1.35516 0.7167,0.065 0.95191,-0.43723 1.03033,-0.97433 l 0.19032,-1.97109 -0.34718,3.02368 c 0,0 0.19033,0.51524 0.94072,0.60464 0.57116,0.065 1.16471,-0.43642 1.18712,-1.03032 l 0.21269,-2.09422 -0.2239,2.35184 c 0,0 0.21276,0.99668 1.06391,1.01911 0.6048,0.0244 1.01913,-0.3584 1.08633,-0.98555 0.0674,-0.64934 0.62715,-4.00931 0.62715,-4.00931 l 0.23511,-2.58695 -0.38074,-1.94865 0.38074,1.94865 1.16471,0.20155 -0.43674,-2.74378 c 0,0 -0.4256,-0.98555 -0.45916,-1.00798 -0.0333,-0.0325 -0.88473,-0.54857 -0.88473,-0.54857 l 0.77271,-1.23195 5.47638,-6.73067 z m 0,0"
       id="path13122" />
    <path
       style="fill:#858585;fill-opacity:1;fill-rule:nonzero;stroke:#000000;stroke-width:0.111812;stroke-linecap:butt;stroke-linejoin:miter;stroke-miterlimit:4;stroke-opacity:1"
       d="m 100.28946,137.21269 3.49413,4.45727 5.87954,5.37559 5.53238,4.16608 c 1.51187,0.55994 4.68122,2.19499 5.1628,2.27341 0.23511,0.0325 0.67193,0.10075 0.98552,-0.31371 0.26868,-0.347 0.34718,-0.94067 0.13442,-1.08622 l -1.83667,-0.75012 1.79186,0.71679 c 0.73914,0.32507 1.31029,0.2243 1.54547,-0.32507 0.26866,-0.66071 -0.13442,-1.04154 -0.61594,-1.27673 l -1.81425,-0.78425 2.75497,1.24309 c 0,0 0.56002,-0.008 0.87353,-0.69403 0.23511,-0.51525 -0.0561,-1.24309 -0.61592,-1.44464 l -1.91506,-0.8512 2.16145,0.94076 c 0,0 1.00791,0.10076 1.29908,-0.69404 0.20154,-0.57131 -0.0228,-1.08631 -0.61594,-1.34385 -0.58236,-0.25762 -3.60614,-1.83667 -3.60614,-1.83667 l -2.38541,-1.03033 -1.98223,-0.23487 1.98223,0.23487 0.54881,-1.04154 -2.755,-0.4364 c 0,0 -1.05271,0.10076 -1.0975,0.13408 -0.0333,0.0244 -0.78392,0.6721 -0.78392,0.6721 l -0.94072,-1.11989 -5.64435,-8.0074 z m 0,0"
       id="path13124" />
    <path
       style="fill:#c5c5c5;fill-opacity:1;fill-rule:nonzero;stroke:#000000;stroke-width:0.111812;stroke-linecap:butt;stroke-linejoin:miter;stroke-miterlimit:4;stroke-opacity:1"
       d="m 91.374967,157.57269 5.689146,-2.6206 6.932267,-3.93087 5.66675,-3.97567 c 0.99673,-1.26552 3.52773,-3.7629 3.75173,-4.19972 0.11207,-0.21292 0.30232,-0.60464 0.0113,-1.04145 -0.24625,-0.3584 -0.79513,-0.61602 -0.99671,-0.45917 l -1.27672,1.51184 1.23191,-1.47828 c 0.54881,-0.60464 0.62715,-1.17588 0.16799,-1.56784 -0.54873,-0.45916 -1.03031,-0.20154 -1.39989,0.19018 l -1.3103,1.47827 2.03825,-2.23984 c 0,0 0.16798,-0.52662 -0.39196,-1.04146 -0.42561,-0.39171 -1.19831,-0.33564 -1.56786,0.13409 l -1.39992,1.56792 1.55668,-1.76946 c 0,0 0.41439,-0.92955 -0.25746,-1.44472 -0.48158,-0.38033 -1.03033,-0.31369 -1.45587,0.16823 -0.43682,0.47054 -2.86699,2.86699 -2.86699,2.86699 l -1.71348,1.94867 -0.83993,1.80302 0.83993,-1.80302 -0.81754,-0.85113 -1.26549,2.48616 c 0,0 -0.2351,1.04154 -0.22388,1.08632 0.0113,0.0406 0.40317,0.9519 0.40317,0.9519 l -1.35511,0.54857 -9.138488,2.93421 z m 0,0"
       id="path13126" />
    <path
       style="fill:#f08542;fill-opacity:1;fill-rule:nonzero;stroke:#000000;stroke-width:0.111812;stroke-linecap:butt;stroke-linejoin:miter;stroke-miterlimit:4;stroke-opacity:1"
       d="m 103.99638,151.02122 c -0.89593,-1.33265 -2.4974,-4.51326 -2.84459,-4.86044 -0.16799,-0.16823 -0.4816,-0.47055 -0.98552,-0.33564 -0.414391,0.12353 -0.828731,0.55994 -0.739141,0.80619 l 1.041511,1.6799 -1.030295,-1.62391 c -0.403174,-0.70541 -0.929535,-0.96311 -1.43349,-0.64934 -0.615935,0.38115 -0.515162,0.91834 -0.257784,1.39994 l 1.007918,1.70225 -1.500666,-2.64302 c 0,0 -0.459168,-0.31369 -1.119923,0.0569 -0.492732,0.28037 -0.683144,1.04154 -0.34718,1.53435 l 1.052722,1.81425 -1.198306,-2.02709 c 0,0 -0.761569,-0.68348 -1.455912,-0.20155 -0.503946,0.33564 -0.615935,0.88478 -0.291185,1.44472 0.313615,0.54855 1.836671,3.60613 1.836671,3.60613 l 1.321477,2.22863 1.467086,1.35507 -1.467086,-1.35507 -1.063912,0.51524 1.982264,1.97101 c 0,0 0.918319,0.54857 0.963098,0.54857 0.0447,0 1.030332,-0.0894 1.030332,-0.0894"
       id="path13128" />
  </g>
</svg>
