<?xml version="1.0" encoding="UTF-8" standalone="no"?>
<!-- Created with Inkscape (http://www.inkscape.org/) -->

<svg
   width="61.722103mm"
   height="83.442093mm"
   viewBox="0 0 61.722103 83.442093"
   version="1.1"
   id="svg1"
   inkscape:version="1.4.2 (f4327f4, 2025-05-13)"
   sodipodi:docname="Federation of Uganda Football Associations logo.svg"
   xmlns:inkscape="http://www.inkscape.org/namespaces/inkscape"
   xmlns:sodipodi="http://sodipodi.sourceforge.net/DTD/sodipodi-0.dtd"
   xmlns="http://www.w3.org/2000/svg"
   xmlns:svg="http://www.w3.org/2000/svg">
  <sodipodi:namedview
     id="namedview1"
     pagecolor="#ffffff"
     bordercolor="#000000"
     borderopacity="0.25"
     inkscape:showpageshadow="2"
     inkscape:pageopacity="0.0"
     inkscape:pagecheckerboard="0"
     inkscape:deskcolor="#d1d1d1"
     inkscape:document-units="mm"
     inkscape:zoom="1.0267829"
     inkscape:cx="-96.90461"
     inkscape:cy="123.20033"
     inkscape:window-width="1920"
     inkscape:window-height="1017"
     inkscape:window-x="-8"
     inkscape:window-y="-8"
     inkscape:window-maximized="1"
     inkscape:current-layer="layer1" />
  <defs
     id="defs1">
    <clipPath
       clipPathUnits="userSpaceOnUse"
       id="clipPath33113">
      <path
         d="m 913.883,412.777 h 26.008 v 35.164 h -26.008 z"
         transform="matrix(1.3333333,0,0,1.3333333,1608,0)"
         id="path33113" />
    </clipPath>
    <clipPath
       clipPathUnits="userSpaceOnUse"
       id="clipPath33111">
      <path
         d="M 0,0 H 1191 V 842 H 0 Z"
         id="path33111" />
    </clipPath>
    <clipPath
       clipPathUnits="userSpaceOnUse"
       id="clipPath33116">
      <path
         d="m 913.883,412.777 h 26.008 v 35.164 h -26.008 z"
         transform="matrix(1.3333333,0,0,1.3333333,1608,0)"
         id="path33116" />
    </clipPath>
    <clipPath
       clipPathUnits="userSpaceOnUse"
       id="clipPath33114">
      <path
         d="M 0,0 H 1191 V 842 H 0 Z"
         id="path33114" />
    </clipPath>
    <clipPath
       clipPathUnits="userSpaceOnUse"
       id="clipPath33119">
      <path
         d="m 913.883,412.777 h 26.008 v 35.164 h -26.008 z"
         transform="matrix(1.3333333,0,0,1.3333333,1608,0)"
         id="path33119" />
    </clipPath>
    <clipPath
       clipPathUnits="userSpaceOnUse"
       id="clipPath33117">
      <path
         d="M 0,0 H 1191 V 842 H 0 Z"
         id="path33117" />
    </clipPath>
    <clipPath
       clipPathUnits="userSpaceOnUse"
       id="clipPath33122">
      <path
         d="m 913.883,412.777 h 26.008 v 35.164 h -26.008 z"
         transform="matrix(1.3333333,0,0,1.3333333,1608,0)"
         id="path33122" />
    </clipPath>
    <clipPath
       clipPathUnits="userSpaceOnUse"
       id="clipPath33120">
      <path
         d="M 0,0 H 1191 V 842 H 0 Z"
         id="path33120" />
    </clipPath>
    <clipPath
       clipPathUnits="userSpaceOnUse"
       id="clipPath33125">
      <path
         d="m 913.883,412.777 h 26.008 v 35.164 h -26.008 z"
         transform="matrix(1.3333333,0,0,1.3333333,1608,0)"
         id="path33125" />
    </clipPath>
    <clipPath
       clipPathUnits="userSpaceOnUse"
       id="clipPath33123">
      <path
         d="M 0,0 H 1191 V 842 H 0 Z"
         id="path33123" />
    </clipPath>
    <clipPath
       clipPathUnits="userSpaceOnUse"
       id="clipPath33128">
      <path
         d="m 913.883,412.777 h 26.008 v 35.164 h -26.008 z"
         transform="matrix(1.3333333,0,0,1.3333333,1608,0)"
         id="path33128" />
    </clipPath>
    <clipPath
       clipPathUnits="userSpaceOnUse"
       id="clipPath33126">
      <path
         d="M 0,0 H 1191 V 842 H 0 Z"
         id="path33126" />
    </clipPath>
    <clipPath
       clipPathUnits="userSpaceOnUse"
       id="clipPath33131">
      <path
         d="m 913.883,412.777 h 26.008 v 35.164 h -26.008 z"
         transform="matrix(1.3333333,0,0,1.3333333,1608,0)"
         id="path33131" />
    </clipPath>
    <clipPath
       clipPathUnits="userSpaceOnUse"
       id="clipPath33129">
      <path
         d="M 0,0 H 1191 V 842 H 0 Z"
         id="path33129" />
    </clipPath>
    <clipPath
       clipPathUnits="userSpaceOnUse"
       id="clipPath33134">
      <path
         d="m 913.883,412.777 h 26.008 v 35.164 h -26.008 z"
         transform="matrix(1.3333333,0,0,1.3333333,1608,0)"
         id="path33134" />
    </clipPath>
    <clipPath
       clipPathUnits="userSpaceOnUse"
       id="clipPath33132">
      <path
         d="M 0,0 H 1191 V 842 H 0 Z"
         id="path33132" />
    </clipPath>
    <clipPath
       clipPathUnits="userSpaceOnUse"
       id="clipPath33137">
      <path
         d="m 913.883,412.777 h 26.008 v 35.164 h -26.008 z"
         transform="matrix(1.3333333,0,0,1.3333333,1608,0)"
         id="path33137" />
    </clipPath>
    <clipPath
       clipPathUnits="userSpaceOnUse"
       id="clipPath33135">
      <path
         d="M 0,0 H 1191 V 842 H 0 Z"
         id="path33135" />
    </clipPath>
    <clipPath
       clipPathUnits="userSpaceOnUse"
       id="clipPath33140">
      <path
         d="m 913.883,412.777 h 26.008 v 35.164 h -26.008 z"
         transform="matrix(1.3333333,0,0,1.3333333,1608,0)"
         id="path33140" />
    </clipPath>
    <clipPath
       clipPathUnits="userSpaceOnUse"
       id="clipPath33138">
      <path
         d="M 0,0 H 1191 V 842 H 0 Z"
         id="path33138" />
    </clipPath>
    <clipPath
       clipPathUnits="userSpaceOnUse"
       id="clipPath33143">
      <path
         d="m 913.883,412.777 h 26.008 v 35.164 h -26.008 z"
         transform="matrix(1.3333333,0,0,1.3333333,1608,0)"
         id="path33143" />
    </clipPath>
    <clipPath
       clipPathUnits="userSpaceOnUse"
       id="clipPath33141">
      <path
         d="M 0,0 H 1191 V 842 H 0 Z"
         id="path33141" />
    </clipPath>
    <clipPath
       clipPathUnits="userSpaceOnUse"
       id="clipPath33146">
      <path
         d="m 913.883,412.777 h 26.008 v 35.164 h -26.008 z"
         transform="matrix(1.3333333,0,0,1.3333333,1608,0)"
         id="path33146" />
    </clipPath>
    <clipPath
       clipPathUnits="userSpaceOnUse"
       id="clipPath33144">
      <path
         d="M 0,0 H 1191 V 842 H 0 Z"
         id="path33144" />
    </clipPath>
    <clipPath
       clipPathUnits="userSpaceOnUse"
       id="clipPath33149">
      <path
         d="m 913.883,412.777 h 26.008 v 35.164 h -26.008 z"
         transform="matrix(1.3333333,0,0,1.3333333,1608,0)"
         id="path33149" />
    </clipPath>
    <clipPath
       clipPathUnits="userSpaceOnUse"
       id="clipPath33147">
      <path
         d="M 0,0 H 1191 V 842 H 0 Z"
         id="path33147" />
    </clipPath>
    <clipPath
       clipPathUnits="userSpaceOnUse"
       id="clipPath33152">
      <path
         d="m 913.883,412.777 h 26.008 v 35.164 h -26.008 z"
         transform="matrix(1.3333333,0,0,1.3333333,1608,0)"
         id="path33152" />
    </clipPath>
    <clipPath
       clipPathUnits="userSpaceOnUse"
       id="clipPath33150">
      <path
         d="M 0,0 H 1191 V 842 H 0 Z"
         id="path33150" />
    </clipPath>
    <clipPath
       clipPathUnits="userSpaceOnUse"
       id="clipPath33155">
      <path
         d="m 913.883,412.777 h 26.008 v 35.164 h -26.008 z"
         transform="matrix(1.3333333,0,0,1.3333333,1608,0)"
         id="path33155" />
    </clipPath>
    <clipPath
       clipPathUnits="userSpaceOnUse"
       id="clipPath33153">
      <path
         d="M 0,0 H 1191 V 842 H 0 Z"
         id="path33153" />
    </clipPath>
    <clipPath
       clipPathUnits="userSpaceOnUse"
       id="clipPath33158">
      <path
         d="m 913.883,412.777 h 26.008 v 35.164 h -26.008 z"
         transform="matrix(1.3333333,0,0,1.3333333,1608,0)"
         id="path33158" />
    </clipPath>
    <clipPath
       clipPathUnits="userSpaceOnUse"
       id="clipPath33156">
      <path
         d="M 0,0 H 1191 V 842 H 0 Z"
         id="path33156" />
    </clipPath>
    <clipPath
       clipPathUnits="userSpaceOnUse"
       id="clipPath33161">
      <path
         d="m 913.883,412.777 h 26.008 v 35.164 h -26.008 z"
         transform="matrix(1.3333333,0,0,1.3333333,1608,0)"
         id="path33161" />
    </clipPath>
    <clipPath
       clipPathUnits="userSpaceOnUse"
       id="clipPath33159">
      <path
         d="M 0,0 H 1191 V 842 H 0 Z"
         id="path33159" />
    </clipPath>
    <clipPath
       clipPathUnits="userSpaceOnUse"
       id="clipPath33164">
      <path
         d="m 913.883,412.777 h 26.008 v 35.164 h -26.008 z"
         transform="matrix(1.3333333,0,0,1.3333333,1608,0)"
         id="path33164" />
    </clipPath>
    <clipPath
       clipPathUnits="userSpaceOnUse"
       id="clipPath33162">
      <path
         d="M 0,0 H 1191 V 842 H 0 Z"
         id="path33162" />
    </clipPath>
    <clipPath
       clipPathUnits="userSpaceOnUse"
       id="clipPath33167">
      <path
         d="m 913.883,412.777 h 26.008 v 35.164 h -26.008 z"
         transform="matrix(1.3333333,0,0,1.3333333,1608,0)"
         id="path33167" />
    </clipPath>
    <clipPath
       clipPathUnits="userSpaceOnUse"
       id="clipPath33165">
      <path
         d="M 0,0 H 1191 V 842 H 0 Z"
         id="path33165" />
    </clipPath>
    <clipPath
       clipPathUnits="userSpaceOnUse"
       id="clipPath33170">
      <path
         d="m 913.883,412.777 h 26.008 v 35.164 h -26.008 z"
         transform="matrix(1.3333333,0,0,1.3333333,1608,0)"
         id="path33170" />
    </clipPath>
    <clipPath
       clipPathUnits="userSpaceOnUse"
       id="clipPath33168">
      <path
         d="M 0,0 H 1191 V 842 H 0 Z"
         id="path33168" />
    </clipPath>
    <clipPath
       clipPathUnits="userSpaceOnUse"
       id="clipPath33173">
      <path
         d="m 913.883,412.777 h 26.008 v 35.164 h -26.008 z"
         transform="matrix(1.3333333,0,0,1.3333333,1608,0)"
         id="path33173" />
    </clipPath>
    <clipPath
       clipPathUnits="userSpaceOnUse"
       id="clipPath33171">
      <path
         d="M 0,0 H 1191 V 842 H 0 Z"
         id="path33171" />
    </clipPath>
    <clipPath
       clipPathUnits="userSpaceOnUse"
       id="clipPath33176">
      <path
         d="m 913.883,412.777 h 26.008 v 35.164 h -26.008 z"
         transform="matrix(1.3333333,0,0,1.3333333,1608,0)"
         id="path33176" />
    </clipPath>
    <clipPath
       clipPathUnits="userSpaceOnUse"
       id="clipPath33174">
      <path
         d="M 0,0 H 1191 V 842 H 0 Z"
         id="path33174" />
    </clipPath>
    <clipPath
       clipPathUnits="userSpaceOnUse"
       id="clipPath33179">
      <path
         d="m 913.883,412.777 h 26.008 v 35.164 h -26.008 z"
         transform="matrix(1.3333333,0,0,1.3333333,1608,0)"
         id="path33179" />
    </clipPath>
    <clipPath
       clipPathUnits="userSpaceOnUse"
       id="clipPath33177">
      <path
         d="M 0,0 H 1191 V 842 H 0 Z"
         id="path33177" />
    </clipPath>
    <clipPath
       clipPathUnits="userSpaceOnUse"
       id="clipPath33182">
      <path
         d="m 913.883,412.777 h 26.008 v 35.164 h -26.008 z"
         transform="matrix(1.3333333,0,0,1.3333333,1608,0)"
         id="path33182" />
    </clipPath>
    <clipPath
       clipPathUnits="userSpaceOnUse"
       id="clipPath33180">
      <path
         d="M 0,0 H 1191 V 842 H 0 Z"
         id="path33180" />
    </clipPath>
    <clipPath
       clipPathUnits="userSpaceOnUse"
       id="clipPath33185">
      <path
         d="m 913.883,412.777 h 26.008 v 35.164 h -26.008 z"
         transform="matrix(1.3333333,0,0,1.3333333,1608,0)"
         id="path33185" />
    </clipPath>
    <clipPath
       clipPathUnits="userSpaceOnUse"
       id="clipPath33183">
      <path
         d="M 0,0 H 1191 V 842 H 0 Z"
         id="path33183" />
    </clipPath>
    <clipPath
       clipPathUnits="userSpaceOnUse"
       id="clipPath33188">
      <path
         d="m 913.883,412.777 h 26.008 v 35.164 h -26.008 z"
         transform="matrix(1.3333333,0,0,1.3333333,1608,0)"
         id="path33188" />
    </clipPath>
    <clipPath
       clipPathUnits="userSpaceOnUse"
       id="clipPath33186">
      <path
         d="M 0,0 H 1191 V 842 H 0 Z"
         id="path33186" />
    </clipPath>
    <clipPath
       clipPathUnits="userSpaceOnUse"
       id="clipPath33191">
      <path
         d="m 913.883,412.777 h 26.008 v 35.164 h -26.008 z"
         transform="matrix(1.3333333,0,0,1.3333333,1608,0)"
         id="path33191" />
    </clipPath>
    <clipPath
       clipPathUnits="userSpaceOnUse"
       id="clipPath33189">
      <path
         d="M 0,0 H 1191 V 842 H 0 Z"
         id="path33189" />
    </clipPath>
    <clipPath
       clipPathUnits="userSpaceOnUse"
       id="clipPath33194">
      <path
         d="m 913.883,412.777 h 26.008 v 35.164 h -26.008 z"
         transform="matrix(1.3333333,0,0,1.3333333,1608,0)"
         id="path33194" />
    </clipPath>
    <clipPath
       clipPathUnits="userSpaceOnUse"
       id="clipPath33192">
      <path
         d="M 0,0 H 1191 V 842 H 0 Z"
         id="path33192" />
    </clipPath>
    <clipPath
       clipPathUnits="userSpaceOnUse"
       id="clipPath33197">
      <path
         d="m 913.883,412.777 h 26.008 v 35.164 h -26.008 z"
         transform="matrix(1.3333333,0,0,1.3333333,1608,0)"
         id="path33197" />
    </clipPath>
    <clipPath
       clipPathUnits="userSpaceOnUse"
       id="clipPath33195">
      <path
         d="M 0,0 H 1191 V 842 H 0 Z"
         id="path33195" />
    </clipPath>
    <clipPath
       clipPathUnits="userSpaceOnUse"
       id="clipPath33200">
      <path
         d="m 913.883,412.777 h 26.008 v 35.164 h -26.008 z"
         transform="matrix(1.3333333,0,0,1.3333333,1608,0)"
         id="path33200" />
    </clipPath>
    <clipPath
       clipPathUnits="userSpaceOnUse"
       id="clipPath33198">
      <path
         d="M 0,0 H 1191 V 842 H 0 Z"
         id="path33198" />
    </clipPath>
    <clipPath
       clipPathUnits="userSpaceOnUse"
       id="clipPath33203">
      <path
         d="m 913.883,412.777 h 26.008 v 35.164 h -26.008 z"
         transform="matrix(1.3333333,0,0,1.3333333,1608,0)"
         id="path33203" />
    </clipPath>
    <clipPath
       clipPathUnits="userSpaceOnUse"
       id="clipPath33201">
      <path
         d="M 0,0 H 1191 V 842 H 0 Z"
         id="path33201" />
    </clipPath>
    <clipPath
       clipPathUnits="userSpaceOnUse"
       id="clipPath33206">
      <path
         d="m 913.883,412.777 h 26.008 v 35.164 h -26.008 z"
         transform="matrix(1.3333333,0,0,1.3333333,1608,0)"
         id="path33206" />
    </clipPath>
    <clipPath
       clipPathUnits="userSpaceOnUse"
       id="clipPath33204">
      <path
         d="M 0,0 H 1191 V 842 H 0 Z"
         id="path33204" />
    </clipPath>
    <clipPath
       clipPathUnits="userSpaceOnUse"
       id="clipPath33209">
      <path
         d="m 913.883,412.777 h 26.008 v 35.164 h -26.008 z"
         transform="matrix(1.3333333,0,0,1.3333333,1608,0)"
         id="path33209" />
    </clipPath>
    <clipPath
       clipPathUnits="userSpaceOnUse"
       id="clipPath33207">
      <path
         d="M 0,0 H 1191 V 842 H 0 Z"
         id="path33207" />
    </clipPath>
    <clipPath
       clipPathUnits="userSpaceOnUse"
       id="clipPath33212">
      <path
         d="m 913.883,412.777 h 26.008 v 35.164 h -26.008 z"
         transform="matrix(1.3333333,0,0,1.3333333,1608,0)"
         id="path33212" />
    </clipPath>
    <clipPath
       clipPathUnits="userSpaceOnUse"
       id="clipPath33210">
      <path
         d="M 0,0 H 1191 V 842 H 0 Z"
         id="path33210" />
    </clipPath>
    <clipPath
       clipPathUnits="userSpaceOnUse"
       id="clipPath33215">
      <path
         d="m 913.883,412.777 h 26.008 v 35.164 h -26.008 z"
         transform="matrix(1.3333333,0,0,1.3333333,1608,0)"
         id="path33215" />
    </clipPath>
    <clipPath
       clipPathUnits="userSpaceOnUse"
       id="clipPath33213">
      <path
         d="M 0,0 H 1191 V 842 H 0 Z"
         id="path33213" />
    </clipPath>
    <clipPath
       clipPathUnits="userSpaceOnUse"
       id="clipPath33218">
      <path
         d="m 913.883,412.777 h 26.008 v 35.164 h -26.008 z"
         transform="matrix(1.3333333,0,0,1.3333333,1608,0)"
         id="path33218" />
    </clipPath>
    <clipPath
       clipPathUnits="userSpaceOnUse"
       id="clipPath33216">
      <path
         d="M 0,0 H 1191 V 842 H 0 Z"
         id="path33216" />
    </clipPath>
    <clipPath
       clipPathUnits="userSpaceOnUse"
       id="clipPath33221">
      <path
         d="m 913.883,412.777 h 26.008 v 35.164 h -26.008 z"
         transform="matrix(1.3333333,0,0,1.3333333,1608,0)"
         id="path33221" />
    </clipPath>
    <clipPath
       clipPathUnits="userSpaceOnUse"
       id="clipPath33219">
      <path
         d="M 0,0 H 1191 V 842 H 0 Z"
         id="path33219" />
    </clipPath>
    <clipPath
       clipPathUnits="userSpaceOnUse"
       id="clipPath33224">
      <path
         d="m 913.883,412.777 h 26.008 v 35.164 h -26.008 z"
         transform="matrix(1.3333333,0,0,1.3333333,1608,0)"
         id="path33224" />
    </clipPath>
    <clipPath
       clipPathUnits="userSpaceOnUse"
       id="clipPath33222">
      <path
         d="M 0,0 H 1191 V 842 H 0 Z"
         id="path33222" />
    </clipPath>
    <clipPath
       clipPathUnits="userSpaceOnUse"
       id="clipPath33227">
      <path
         d="m 913.883,412.777 h 26.008 v 35.164 h -26.008 z"
         transform="matrix(1.3333333,0,0,1.3333333,1608,0)"
         id="path33227" />
    </clipPath>
    <clipPath
       clipPathUnits="userSpaceOnUse"
       id="clipPath33225">
      <path
         d="M 0,0 H 1191 V 842 H 0 Z"
         id="path33225" />
    </clipPath>
    <clipPath
       clipPathUnits="userSpaceOnUse"
       id="clipPath33230">
      <path
         d="m 913.883,412.777 h 26.008 v 35.164 h -26.008 z"
         transform="matrix(1.3333333,0,0,1.3333333,1608,0)"
         id="path33230" />
    </clipPath>
    <clipPath
       clipPathUnits="userSpaceOnUse"
       id="clipPath33228">
      <path
         d="M 0,0 H 1191 V 842 H 0 Z"
         id="path33228" />
    </clipPath>
    <clipPath
       clipPathUnits="userSpaceOnUse"
       id="clipPath33233">
      <path
         d="m 913.883,412.777 h 26.008 v 35.164 h -26.008 z"
         transform="matrix(1.3333333,0,0,1.3333333,1608,0)"
         id="path33233" />
    </clipPath>
    <clipPath
       clipPathUnits="userSpaceOnUse"
       id="clipPath33231">
      <path
         d="M 0,0 H 1191 V 842 H 0 Z"
         id="path33231" />
    </clipPath>
    <clipPath
       clipPathUnits="userSpaceOnUse"
       id="clipPath33236">
      <path
         d="m 913.883,412.777 h 26.008 v 35.164 h -26.008 z"
         transform="matrix(1.3333333,0,0,1.3333333,1608,0)"
         id="path33236" />
    </clipPath>
    <clipPath
       clipPathUnits="userSpaceOnUse"
       id="clipPath33234">
      <path
         d="M 0,0 H 1191 V 842 H 0 Z"
         id="path33234" />
    </clipPath>
    <clipPath
       clipPathUnits="userSpaceOnUse"
       id="clipPath33239">
      <path
         d="m 913.883,412.777 h 26.008 v 35.164 h -26.008 z"
         transform="matrix(1.3333333,0,0,1.3333333,1608,0)"
         id="path33239" />
    </clipPath>
    <clipPath
       clipPathUnits="userSpaceOnUse"
       id="clipPath33237">
      <path
         d="M 0,0 H 1191 V 842 H 0 Z"
         id="path33237" />
    </clipPath>
    <clipPath
       clipPathUnits="userSpaceOnUse"
       id="clipPath33242">
      <path
         d="m 913.883,412.777 h 26.008 v 35.164 h -26.008 z"
         transform="matrix(1.3333333,0,0,1.3333333,1608,0)"
         id="path33242" />
    </clipPath>
    <clipPath
       clipPathUnits="userSpaceOnUse"
       id="clipPath33240">
      <path
         d="M 0,0 H 1191 V 842 H 0 Z"
         id="path33240" />
    </clipPath>
    <clipPath
       clipPathUnits="userSpaceOnUse"
       id="clipPath33245">
      <path
         d="m 913.883,412.777 h 26.008 v 35.164 h -26.008 z"
         transform="matrix(1.3333333,0,0,1.3333333,1608,0)"
         id="path33245" />
    </clipPath>
    <clipPath
       clipPathUnits="userSpaceOnUse"
       id="clipPath33243">
      <path
         d="M 0,0 H 1191 V 842 H 0 Z"
         id="path33243" />
    </clipPath>
    <clipPath
       clipPathUnits="userSpaceOnUse"
       id="clipPath33248">
      <path
         d="m 913.883,412.777 h 26.008 v 35.164 h -26.008 z"
         transform="matrix(1.3333333,0,0,1.3333333,1608,0)"
         id="path33248" />
    </clipPath>
    <clipPath
       clipPathUnits="userSpaceOnUse"
       id="clipPath33246">
      <path
         d="M 0,0 H 1191 V 842 H 0 Z"
         id="path33246" />
    </clipPath>
    <clipPath
       clipPathUnits="userSpaceOnUse"
       id="clipPath33251">
      <path
         d="m 913.883,412.777 h 26.008 v 35.164 h -26.008 z"
         transform="matrix(1.3333333,0,0,1.3333333,1608,0)"
         id="path33251" />
    </clipPath>
    <clipPath
       clipPathUnits="userSpaceOnUse"
       id="clipPath33249">
      <path
         d="M 0,0 H 1191 V 842 H 0 Z"
         id="path33249" />
    </clipPath>
    <clipPath
       clipPathUnits="userSpaceOnUse"
       id="clipPath33254">
      <path
         d="m 913.883,412.777 h 26.008 v 35.164 h -26.008 z"
         transform="matrix(1.3333333,0,0,1.3333333,1608,0)"
         id="path33254" />
    </clipPath>
    <clipPath
       clipPathUnits="userSpaceOnUse"
       id="clipPath33252">
      <path
         d="M 0,0 H 1191 V 842 H 0 Z"
         id="path33252" />
    </clipPath>
    <clipPath
       clipPathUnits="userSpaceOnUse"
       id="clipPath33257">
      <path
         d="m 913.883,412.777 h 26.008 v 35.164 h -26.008 z"
         transform="matrix(1.3333333,0,0,1.3333333,1608,0)"
         id="path33257" />
    </clipPath>
    <clipPath
       clipPathUnits="userSpaceOnUse"
       id="clipPath33255">
      <path
         d="M 0,0 H 1191 V 842 H 0 Z"
         id="path33255" />
    </clipPath>
    <clipPath
       clipPathUnits="userSpaceOnUse"
       id="clipPath33260">
      <path
         d="m 913.883,412.777 h 26.008 v 35.164 h -26.008 z"
         transform="matrix(1.3333333,0,0,1.3333333,1608,0)"
         id="path33260" />
    </clipPath>
    <clipPath
       clipPathUnits="userSpaceOnUse"
       id="clipPath33258">
      <path
         d="M 0,0 H 1191 V 842 H 0 Z"
         id="path33258" />
    </clipPath>
    <clipPath
       clipPathUnits="userSpaceOnUse"
       id="clipPath33263">
      <path
         d="m 913.883,412.777 h 26.008 v 35.164 h -26.008 z"
         transform="matrix(1.3333333,0,0,1.3333333,1608,0)"
         id="path33263" />
    </clipPath>
    <clipPath
       clipPathUnits="userSpaceOnUse"
       id="clipPath33261">
      <path
         d="M 0,0 H 1191 V 842 H 0 Z"
         id="path33261" />
    </clipPath>
    <clipPath
       clipPathUnits="userSpaceOnUse"
       id="clipPath33266">
      <path
         d="m 913.883,412.777 h 26.008 v 35.164 h -26.008 z"
         transform="matrix(1.3333333,0,0,1.3333333,1608,0)"
         id="path33266" />
    </clipPath>
    <clipPath
       clipPathUnits="userSpaceOnUse"
       id="clipPath33264">
      <path
         d="M 0,0 H 1191 V 842 H 0 Z"
         id="path33264" />
    </clipPath>
    <clipPath
       clipPathUnits="userSpaceOnUse"
       id="clipPath33269">
      <path
         d="m 913.883,412.777 h 26.008 v 35.164 h -26.008 z"
         transform="matrix(1.3333333,0,0,1.3333333,1608,0)"
         id="path33269" />
    </clipPath>
    <clipPath
       clipPathUnits="userSpaceOnUse"
       id="clipPath33267">
      <path
         d="M 0,0 H 1191 V 842 H 0 Z"
         id="path33267" />
    </clipPath>
    <clipPath
       clipPathUnits="userSpaceOnUse"
       id="clipPath33272">
      <path
         d="m 913.883,412.777 h 26.008 v 35.164 h -26.008 z"
         transform="matrix(1.3333333,0,0,1.3333333,1608,0)"
         id="path33272" />
    </clipPath>
    <clipPath
       clipPathUnits="userSpaceOnUse"
       id="clipPath33270">
      <path
         d="M 0,0 H 1191 V 842 H 0 Z"
         id="path33270" />
    </clipPath>
    <clipPath
       clipPathUnits="userSpaceOnUse"
       id="clipPath33275">
      <path
         d="m 913.883,412.777 h 26.008 v 35.164 h -26.008 z"
         transform="matrix(1.3333333,0,0,1.3333333,1608,0)"
         id="path33275" />
    </clipPath>
    <clipPath
       clipPathUnits="userSpaceOnUse"
       id="clipPath33273">
      <path
         d="M 0,0 H 1191 V 842 H 0 Z"
         id="path33273" />
    </clipPath>
    <clipPath
       clipPathUnits="userSpaceOnUse"
       id="clipPath33278">
      <path
         d="m 913.883,412.777 h 26.008 v 35.164 h -26.008 z"
         transform="matrix(1.3333333,0,0,1.3333333,1608,0)"
         id="path33278" />
    </clipPath>
    <clipPath
       clipPathUnits="userSpaceOnUse"
       id="clipPath33276">
      <path
         d="M 0,0 H 1191 V 842 H 0 Z"
         id="path33276" />
    </clipPath>
    <clipPath
       clipPathUnits="userSpaceOnUse"
       id="clipPath33281">
      <path
         d="m 913.883,412.777 h 26.008 v 35.164 h -26.008 z"
         transform="matrix(1.3333333,0,0,1.3333333,1608,0)"
         id="path33281" />
    </clipPath>
    <clipPath
       clipPathUnits="userSpaceOnUse"
       id="clipPath33279">
      <path
         d="M 0,0 H 1191 V 842 H 0 Z"
         id="path33279" />
    </clipPath>
    <clipPath
       clipPathUnits="userSpaceOnUse"
       id="clipPath33284">
      <path
         d="m 913.883,412.777 h 26.008 v 35.164 h -26.008 z"
         transform="matrix(1.3333333,0,0,1.3333333,1608,0)"
         id="path33284" />
    </clipPath>
    <clipPath
       clipPathUnits="userSpaceOnUse"
       id="clipPath33282">
      <path
         d="M 0,0 H 1191 V 842 H 0 Z"
         id="path33282" />
    </clipPath>
    <clipPath
       clipPathUnits="userSpaceOnUse"
       id="clipPath33287">
      <path
         d="m 913.883,412.777 h 26.008 v 35.164 h -26.008 z"
         transform="matrix(1.3333333,0,0,1.3333333,1608,0)"
         id="path33287" />
    </clipPath>
    <clipPath
       clipPathUnits="userSpaceOnUse"
       id="clipPath33285">
      <path
         d="M 0,0 H 1191 V 842 H 0 Z"
         id="path33285" />
    </clipPath>
  </defs>
  <g
     inkscape:label="Layer 1"
     inkscape:groupmode="layer"
     id="layer1"
     transform="translate(-75.527179,-118.76838)">
    <g
       id="g1"
       transform="matrix(6.7271724,0,0,6.7271724,-741.44584,-797.8789)">
      <g
         id="g33112"
         clip-path="url(#clipPath33113)"
         transform="matrix(0.26458333,0,0,0.26458333,-626.40385,-9.3594733)">
        <path
           d="m 936.645,412.781 c 1.199,-0.015 2.382,0.789 2.886,1.965 0.149,0.344 0.278,0.692 0.313,1.07 0.058,9.688 0.008,19.372 0.027,29.055 0,0.152 -0.019,0.305 0.02,0.457 -0.711,0.41 -1.481,0.676 -2.25,0.942 -1.618,0.554 -3.274,0.953 -4.965,1.207 -1.078,0.164 -2.156,0.324 -3.246,0.355 -0.465,0.051 -0.93,-0.02 -1.391,0.063 -0.754,0.085 -1.516,0.031 -2.269,0.031 -0.153,0.004 -0.305,-0.02 -0.454,-0.031 -0.007,-0.02 0.063,-0.04 0.012,-0.04 -0.398,-0.019 -0.801,0.024 -1.199,-0.027 -2.016,-0.113 -4,-0.433 -5.953,-0.922 -1.387,-0.347 -2.731,-0.804 -4.039,-1.375 -0.188,-0.082 -0.254,-0.179 -0.254,-0.383 0.004,-9.546 0.004,-19.089 0.004,-28.632 0,-1.25 0.39,-2.328 1.453,-3.078 0.539,-0.379 1.137,-0.606 1.801,-0.649 0.109,0.027 0.222,0.012 0.332,0.012 6.281,0.004 12.562,0.004 18.839,0 0.11,0 0.223,0.023 0.333,-0.02"
           style="fill:#0064ad;fill-opacity:1;fill-rule:evenodd;stroke:none"
           transform="matrix(1.3333333,0,0,1.3333333,1608,0)"
           clip-path="url(#clipPath33111)"
           id="path33112" />
      </g>
      <g
         id="g33115"
         clip-path="url(#clipPath33116)"
         transform="matrix(0.26458333,0,0,0.26458333,-626.40385,-9.3594733)">
        <path
           d="m 936.684,413.633 c 0.371,0.09 0.746,0.152 1.078,0.371 0.898,0.586 1.254,1.461 1.258,2.484 0.011,4.617 0.003,9.231 0.003,13.848 v 8.141 c 0,0.371 0,0.371 -0.363,0.246 -2.73,-0.961 -5.531,-1.618 -8.406,-1.938 -0.82,-0.09 -1.649,-0.18 -2.481,-0.148 -0.871,-0.039 -1.742,-0.039 -2.609,0 -1.418,0 -2.82,0.168 -4.211,0.418 -0.101,0.101 -0.25,-0.004 -0.359,0.074 -1.16,0.164 -2.289,0.473 -3.414,0.812 -0.809,0.247 -1.598,0.551 -2.375,0.895 -0.067,-0.125 -0.039,-0.238 -0.039,-0.344 0,-7.238 0,-14.476 0,-21.711 0,-0.469 0.019,-0.929 0.172,-1.379 0.339,-0.992 1.078,-1.5 2.062,-1.714 0.078,-0.016 0.156,-0.04 0.234,-0.059 0.09,-0.067 0.196,-0.035 0.293,-0.035 6.289,0 12.575,0 18.864,0 0.097,0 0.203,-0.035 0.293,0.039"
           style="fill:#ffffff;fill-opacity:1;fill-rule:evenodd;stroke:none"
           transform="matrix(1.3333333,0,0,1.3333333,1608,0)"
           clip-path="url(#clipPath33114)"
           id="path33115" />
      </g>
      <g
         id="g33118"
         clip-path="url(#clipPath33119)"
         transform="matrix(0.26458333,0,0,0.26458333,-626.40385,-9.3594733)">
        <path
           d="m 925.047,447.027 c -0.449,-0.035 -0.902,-0.074 -1.352,-0.113 -2.988,-0.254 -5.898,-0.832 -8.683,-1.984 -0.192,-0.078 -0.25,-0.172 -0.25,-0.375 0.008,-1.344 0.008,-2.692 0,-4.035 -0.004,-0.208 0.066,-0.301 0.254,-0.379 1.871,-0.762 3.808,-1.282 5.8,-1.614 1.368,-0.226 2.743,-0.39 4.125,-0.445 0.039,-0.004 0.079,-0.02 0.118,-0.031 0.296,-0.082 0.597,-0.028 0.898,-0.028 0.039,0 0.078,-0.003 0.117,-0.007 0.793,-0.012 1.582,0 2.371,-0.004 0.059,0 0.121,-0.012 0.168,0.039 0.836,0.074 1.676,0.129 2.508,0.226 2.578,0.301 5.098,0.871 7.512,1.852 0.301,0.121 0.402,0.266 0.398,0.59 -0.011,1.234 0.004,2.469 0.035,3.703 0.004,0.273 -0.097,0.387 -0.332,0.484 -2.086,0.864 -4.257,1.41 -6.48,1.746 -2.301,0.348 -4.609,0.457 -6.934,0.368 -0.09,-0.004 -0.179,0.007 -0.269,0.011 z"
           style="fill:#ffffff;fill-opacity:1;fill-rule:evenodd;stroke:none"
           transform="matrix(1.3333333,0,0,1.3333333,1608,0)"
           clip-path="url(#clipPath33117)"
           id="path33118" />
      </g>
      <g
         id="g33121"
         clip-path="url(#clipPath33122)"
         transform="matrix(0.26458333,0,0,0.26458333,-626.40385,-9.3594733)">
        <path
           d="m 934.938,425.344 c 0.378,2.41 -0.149,4.605 -1.649,6.527 -1.484,1.899 -3.461,2.969 -5.851,3.172 -2.227,0.191 -4.231,-0.453 -5.985,-1.855 -0.051,-0.043 -0.055,-0.079 -0.043,-0.126 -0.211,-0.664 -0.137,-1.328 -0.023,-1.992 0.019,-0.113 0.07,-0.211 0.144,-0.297 0.215,-0.117 0.34,0.063 0.477,0.161 0.754,0.554 1.531,1.086 2.277,1.656 0.211,0.16 0.395,0.176 0.641,0.082 0.386,-0.149 0.773,-0.289 1.16,-0.438 0.199,-0.074 0.281,-0.187 0.285,-0.402 0.004,-0.508 0.074,-1.008 0.059,-1.512 -0.008,-0.203 -0.067,-0.336 -0.235,-0.457 -0.64,-0.457 -1.265,-0.933 -1.91,-1.39 -0.34,-0.246 -0.64,-0.586 -1.125,-0.504 -0.031,-0.149 0.098,-0.211 0.176,-0.293 0.297,-0.313 0.594,-0.629 0.867,-0.965 0.348,-0.418 0.805,-0.731 1.266,-1.023 0.969,-0.622 2.008,-1.106 3.113,-1.442 0.078,-0.023 0.152,-0.058 0.234,-0.023 0.141,0.086 0.176,0.238 0.223,0.382 0.266,0.809 0.52,1.622 0.789,2.426 0.07,0.207 0.18,0.34 0.391,0.426 0.496,0.199 1.011,0.352 1.515,0.539 0.145,0.055 0.25,0.027 0.336,-0.105 0.297,-0.446 0.582,-0.903 0.938,-1.305 0.121,-0.133 0.078,-0.281 0.031,-0.43 -0.211,-0.636 -0.383,-1.281 -0.59,-1.918 -0.031,-0.093 -0.07,-0.187 -0.035,-0.293 0.156,-0.172 0.328,-0.035 0.477,-0.004 0.742,0.145 1.414,0.426 1.863,1.086 0.039,0.118 0.113,0.215 0.184,0.317"
           style="fill:#282425;fill-opacity:1;fill-rule:evenodd;stroke:none"
           transform="matrix(1.3333333,0,0,1.3333333,1608,0)"
           clip-path="url(#clipPath33120)"
           id="path33121" />
      </g>
      <g
         id="g33124"
         clip-path="url(#clipPath33125)"
         transform="matrix(0.26458333,0,0,0.26458333,-626.40385,-9.3594733)">
        <path
           d="m 919.652,431.34 c -0.468,-0.574 -0.636,-1.266 -0.836,-1.961 -0.496,-1.727 -0.586,-3.449 -0.019,-5.16 0.949,-2.852 2.867,-4.762 5.777,-5.543 2.918,-0.781 5.535,-0.102 7.805,1.902 0.09,0.078 0.195,0.145 0.297,0.207 0.644,0.375 1.144,0.891 1.508,1.539 -0.102,0.129 -0.188,0.016 -0.258,-0.031 -0.942,-0.621 -2,-0.797 -3.098,-0.813 -0.871,-0.011 -1.742,-0.039 -2.598,0.172 -2.636,0.653 -4.968,1.836 -6.773,3.918 -0.758,0.871 -1.359,1.848 -1.664,2.969 -0.211,0.766 -0.273,1.551 -0.105,2.344 0.031,0.148 0.109,0.316 -0.036,0.457"
           style="fill:#282425;fill-opacity:1;fill-rule:evenodd;stroke:none"
           transform="matrix(1.3333333,0,0,1.3333333,1608,0)"
           clip-path="url(#clipPath33123)"
           id="path33124" />
      </g>
      <g
         id="g33127"
         clip-path="url(#clipPath33128)"
         transform="matrix(0.26458333,0,0,0.26458333,-626.40385,-9.3594733)">
        <path
           d="m 919.652,431.34 c -0.039,-0.36 -0.082,-0.715 -0.113,-1.074 -0.113,-1.477 0.434,-2.754 1.238,-3.938 1.289,-1.89 3.078,-3.133 5.153,-4.019 1.664,-0.707 3.386,-1.067 5.199,-0.918 0.93,0.074 1.84,0.222 2.66,0.714 0.129,0.079 0.207,0.254 0.395,0.219 0.203,0.371 0.535,0.649 0.66,1.082 0.168,0.571 0.109,1.129 0.07,1.696 -0.055,0 -0.094,-0.024 -0.125,-0.063 -0.23,-0.414 -0.426,-0.848 -0.773,-1.187 -0.543,-0.532 -1.211,-0.797 -1.922,-0.977 -0.828,-0.211 -1.68,-0.184 -2.508,-0.102 -1.844,0.188 -3.551,0.809 -5.09,1.879 -1.195,0.832 -2.125,1.887 -2.851,3.137 -0.493,0.84 -0.84,1.731 -0.942,2.699 -0.086,0.809 0.129,1.563 0.563,2.25 0.058,0.09 0.16,0.172 0.074,0.297 -0.817,-0.191 -1.285,-0.758 -1.574,-1.504 -0.028,-0.078 -0.094,-0.117 -0.114,-0.191"
           style="fill:#ffed00;fill-opacity:1;fill-rule:evenodd;stroke:none"
           transform="matrix(1.3333333,0,0,1.3333333,1608,0)"
           clip-path="url(#clipPath33126)"
           id="path33127" />
      </g>
      <g
         id="g33130"
         clip-path="url(#clipPath33131)"
         transform="matrix(0.26458333,0,0,0.26458333,-626.40385,-9.3594733)">
        <path
           d="m 921.34,433.035 c -0.16,-0.371 -0.43,-0.687 -0.547,-1.082 -0.176,-0.601 -0.262,-1.203 -0.117,-1.82 0.73,-3.098 2.656,-5.184 5.488,-6.516 1.688,-0.793 3.469,-1.07 5.309,-0.929 1.078,0.085 2.07,0.46 2.793,1.332 0.25,0.3 0.453,0.632 0.562,1.011 0.02,0.106 -0.035,0.106 -0.109,0.074 -0.563,-0.761 -1.34,-1.082 -2.262,-1.125 -0.23,0.028 -0.461,0.004 -0.691,-0.007 -0.895,-0.043 -1.766,0.101 -2.637,0.273 -0.098,0.02 -0.195,0.066 -0.297,0.016 -0.52,0.113 -1.016,0.308 -1.496,0.523 -0.727,0.324 -1.449,0.672 -2.086,1.156 -0.402,0.305 -0.805,0.598 -1.125,0.997 -0.297,0.359 -0.633,0.687 -0.953,1.027 -0.09,0.336 -0.371,0.539 -0.555,0.808 -0.355,0.532 -0.679,1.071 -0.879,1.68 -0.031,0.102 -0.062,0.215 -0.148,0.293 -0.188,0.645 -0.344,1.297 -0.149,1.973 0.028,0.109 0.063,0.234 -0.031,0.343 -0.023,-0.011 -0.047,-0.019 -0.07,-0.027"
           style="fill:#e63616;fill-opacity:1;fill-rule:evenodd;stroke:none"
           transform="matrix(1.3333333,0,0,1.3333333,1608,0)"
           clip-path="url(#clipPath33129)"
           id="path33130" />
      </g>
      <g
         id="g33133"
         clip-path="url(#clipPath33134)"
         transform="matrix(0.26458333,0,0,0.26458333,-626.40385,-9.3594733)">
        <path
           d="m 936.715,420.195 c -0.141,0.172 -0.274,0.348 -0.418,0.508 -0.125,0.137 -0.156,0.254 -0.024,0.414 0.141,0.176 0.25,0.379 0.422,0.645 -0.297,-0.102 -0.519,-0.157 -0.722,-0.254 -0.188,-0.09 -0.293,-0.039 -0.403,0.113 -0.136,0.184 -0.285,0.356 -0.457,0.574 -0.066,-0.304 0.004,-0.55 0.012,-0.797 0.004,-0.132 -0.031,-0.203 -0.16,-0.246 -0.238,-0.078 -0.469,-0.172 -0.738,-0.269 0.218,-0.145 0.449,-0.168 0.664,-0.223 0.207,-0.047 0.32,-0.121 0.3,-0.359 -0.015,-0.215 0.016,-0.438 0.032,-0.703 0.211,0.187 0.312,0.394 0.425,0.582 0.114,0.191 0.231,0.211 0.422,0.14 0.196,-0.07 0.403,-0.113 0.606,-0.172 0.012,0.016 0.027,0.032 0.039,0.047"
           style="fill:#0064aa;fill-opacity:1;fill-rule:evenodd;stroke:none"
           transform="matrix(1.3333333,0,0,1.3333333,1608,0)"
           clip-path="url(#clipPath33132)"
           id="path33133" />
      </g>
      <g
         id="g33136"
         clip-path="url(#clipPath33137)"
         transform="matrix(0.26458333,0,0,0.26458333,-626.40385,-9.3594733)">
        <path
           d="m 932.465,416.203 c -0.059,0.309 -0.082,0.527 -0.145,0.738 -0.062,0.2 0.004,0.293 0.18,0.375 0.207,0.094 0.406,0.211 0.617,0.325 -0.086,0.093 -0.183,0.054 -0.265,0.089 -0.219,0.102 -0.547,-0.039 -0.68,0.2 -0.113,0.211 -0.102,0.488 -0.149,0.734 -0.003,0.027 -0.015,0.055 -0.031,0.117 -0.176,-0.172 -0.242,-0.379 -0.32,-0.574 -0.086,-0.207 -0.195,-0.301 -0.434,-0.23 -0.203,0.058 -0.418,0.07 -0.718,0.117 0.23,-0.219 0.39,-0.395 0.57,-0.539 0.152,-0.125 0.172,-0.246 0.078,-0.414 -0.109,-0.203 -0.199,-0.414 -0.316,-0.668 0.285,0.07 0.48,0.215 0.679,0.328 0.157,0.09 0.25,0.07 0.364,-0.051 0.156,-0.168 0.332,-0.32 0.57,-0.547"
           style="fill:#0064ac;fill-opacity:1;fill-rule:evenodd;stroke:none"
           transform="matrix(1.3333333,0,0,1.3333333,1608,0)"
           clip-path="url(#clipPath33135)"
           id="path33136" />
      </g>
      <g
         id="g33139"
         clip-path="url(#clipPath33140)"
         transform="matrix(0.26458333,0,0,0.26458333,-626.40385,-9.3594733)">
        <path
           d="m 922.801,416.445 c -0.098,0.219 -0.153,0.356 -0.215,0.496 -0.199,0.45 -0.199,0.45 0.172,0.789 0.109,0.102 0.215,0.204 0.383,0.364 -0.317,-0.039 -0.563,-0.059 -0.801,-0.098 -0.156,-0.027 -0.242,0.008 -0.301,0.164 -0.082,0.223 -0.195,0.438 -0.312,0.688 -0.122,-0.223 -0.137,-0.446 -0.157,-0.657 -0.031,-0.269 -0.179,-0.347 -0.414,-0.367 -0.16,-0.015 -0.418,0.063 -0.453,-0.133 -0.031,-0.164 0.231,-0.211 0.371,-0.277 0.254,-0.117 0.309,-0.269 0.219,-0.527 -0.055,-0.168 -0.102,-0.348 -0.074,-0.586 0.199,0.187 0.375,0.344 0.539,0.511 0.097,0.102 0.18,0.126 0.308,0.043 0.211,-0.132 0.438,-0.246 0.735,-0.41"
           style="fill:#0064ad;fill-opacity:1;fill-rule:evenodd;stroke:none"
           transform="matrix(1.3333333,0,0,1.3333333,1608,0)"
           clip-path="url(#clipPath33138)"
           id="path33139" />
      </g>
      <g
         id="g33142"
         clip-path="url(#clipPath33143)"
         transform="matrix(0.26458333,0,0,0.26458333,-626.40385,-9.3594733)">
        <path
           d="m 928.051,415.805 c -0.18,0.14 -0.352,0.289 -0.539,0.418 -0.137,0.097 -0.18,0.187 -0.114,0.351 0.094,0.223 0.153,0.453 0.254,0.766 -0.265,-0.188 -0.464,-0.317 -0.648,-0.465 -0.125,-0.098 -0.215,-0.098 -0.344,0.004 -0.176,0.137 -0.332,0.312 -0.582,0.363 0.008,-0.238 0.106,-0.441 0.18,-0.648 0.054,-0.164 0.015,-0.254 -0.121,-0.352 -0.192,-0.137 -0.41,-0.246 -0.582,-0.453 0.277,-0.055 0.527,-0.047 0.773,-0.039 0.133,0.004 0.199,-0.043 0.231,-0.176 0.058,-0.234 0.136,-0.465 0.214,-0.719 0.168,0.192 0.196,0.418 0.254,0.625 0.063,0.215 0.172,0.29 0.387,0.266 0.199,-0.019 0.406,-0.004 0.606,-0.004 0.011,0.02 0.023,0.039 0.031,0.063"
           style="fill:#0064ac;fill-opacity:1;fill-rule:evenodd;stroke:none"
           transform="matrix(1.3333333,0,0,1.3333333,1608,0)"
           clip-path="url(#clipPath33141)"
           id="path33142" />
      </g>
      <g
         id="g33145"
         clip-path="url(#clipPath33146)"
         transform="matrix(0.26458333,0,0,0.26458333,-626.40385,-9.3594733)">
        <path
           d="m 918.488,420.59 c 0.289,0.164 0.637,0.16 0.969,0.332 -0.258,0.101 -0.473,0.203 -0.695,0.269 -0.172,0.055 -0.227,0.145 -0.2,0.313 0.016,0.105 0.02,0.219 0.02,0.328 -0.004,0.082 0.113,0.195 -0.039,0.242 -0.105,0.035 -0.164,-0.066 -0.207,-0.14 -0.219,-0.36 -0.477,-0.512 -0.875,-0.246 -0.113,0.07 -0.258,0.082 -0.422,0.132 0.047,-0.218 0.199,-0.371 0.316,-0.519 0.184,-0.231 0.161,-0.399 -0.039,-0.59 -0.086,-0.082 -0.156,-0.18 -0.234,-0.27 0.031,-0.218 0.176,-0.07 0.27,-0.086 0.453,0.207 0.699,-0.019 0.863,-0.414 0.012,-0.027 0.039,-0.043 0.062,-0.066 0.18,-0.074 0.164,0.055 0.176,0.164 0.016,0.184 -0.047,0.375 0.035,0.551"
           style="fill:#0064ac;fill-opacity:1;fill-rule:evenodd;stroke:none"
           transform="matrix(1.3333333,0,0,1.3333333,1608,0)"
           clip-path="url(#clipPath33144)"
           id="path33145" />
      </g>
      <g
         id="g33148"
         clip-path="url(#clipPath33149)"
         transform="matrix(0.26458333,0,0,0.26458333,-626.40385,-9.3594733)">
        <path
           d="m 918.488,420.59 c -0.144,-0.141 -0.043,-0.317 -0.062,-0.477 -0.02,-0.105 0.019,-0.23 -0.149,-0.238 0.016,-0.066 0.024,-0.156 0.114,-0.152 0.07,0.004 0.066,0.089 0.07,0.144 0.016,0.242 0.019,0.485 0.027,0.723"
           style="fill:#1a698e;fill-opacity:1;fill-rule:evenodd;stroke:none"
           transform="matrix(1.3333333,0,0,1.3333333,1608,0)"
           clip-path="url(#clipPath33147)"
           id="path33148" />
      </g>
      <g
         id="g33151"
         clip-path="url(#clipPath33152)"
         transform="matrix(0.26458333,0,0,0.26458333,-626.40385,-9.3594733)">
        <path
           d="m 934.719,425.105 c 0.051,-0.003 0.093,-0.019 0.109,-0.074 0.027,0.024 0.055,0.047 0.086,0.071 0.008,0.082 0.016,0.16 0.024,0.242 -0.114,-0.043 -0.2,-0.11 -0.219,-0.239"
           style="fill:#b04533;fill-opacity:1;fill-rule:evenodd;stroke:none"
           transform="matrix(1.3333333,0,0,1.3333333,1608,0)"
           clip-path="url(#clipPath33150)"
           id="path33151" />
      </g>
      <g
         id="g33154"
         clip-path="url(#clipPath33155)"
         transform="matrix(0.26458333,0,0,0.26458333,-626.40385,-9.3594733)">
        <path
           d="m 917.352,420.355 c -0.09,0.028 -0.204,-0.027 -0.27,0.086 -0.047,-0.05 -0.133,-0.097 -0.102,-0.168 0.04,-0.074 0.125,-0.015 0.188,0 0.062,0.016 0.121,0.055 0.184,0.082"
           style="fill:#1f7dae;fill-opacity:1;fill-rule:evenodd;stroke:none"
           transform="matrix(1.3333333,0,0,1.3333333,1608,0)"
           clip-path="url(#clipPath33153)"
           id="path33154" />
      </g>
      <g
         id="g33157"
         clip-path="url(#clipPath33158)"
         transform="matrix(0.26458333,0,0,0.26458333,-626.40385,-9.3594733)">
        <path
           d="m 926.426,439.926 c 0.031,1.062 0.039,2.125 -0.004,3.183 -0.024,0.661 -0.504,1.125 -1.172,1.172 -0.445,0.028 -0.891,0.028 -1.336,0.02 -1.059,-0.028 -1.555,-0.574 -1.512,-1.645 0,-0.816 0.008,-1.636 -0.007,-2.457 -0.004,-0.258 0.078,-0.332 0.328,-0.308 0.199,0.019 0.402,0.004 0.605,0.004 0.348,0 0.348,0 0.348,0.335 0,0.77 0,1.54 0,2.305 0.004,0.098 -0.031,0.203 0.035,0.297 0.195,0.367 1.004,0.492 1.297,0.203 0.129,-0.129 0.117,-0.297 0.117,-0.453 0.004,-0.801 0,-1.602 0.004,-2.398 0,-0.102 -0.031,-0.204 0.027,-0.297 0.082,0.152 0.035,0.316 0.035,0.472 0.008,0.696 0.004,1.395 0.004,2.09 0.004,-0.761 0.008,-1.523 -0.004,-2.285 -0.003,-0.211 0.059,-0.289 0.274,-0.273 0.211,0.015 0.422,0.004 0.637,0.004 0.066,0.003 0.175,-0.028 0.199,0.031 0.058,0.133 0.086,-0.031 0.125,0"
           style="fill:#0064ac;fill-opacity:1;fill-rule:evenodd;stroke:none"
           transform="matrix(1.3333333,0,0,1.3333333,1608,0)"
           clip-path="url(#clipPath33156)"
           id="path33157" />
      </g>
      <g
         id="g33160"
         clip-path="url(#clipPath33161)"
         transform="matrix(0.26458333,0,0,0.26458333,-626.40385,-9.3594733)">
        <path
           d="m 933.605,439.926 c 0.282,0.957 0.567,1.91 0.848,2.867 0.129,0.453 0.25,0.91 0.375,1.367 -0.414,0.106 -0.836,0.02 -1.25,0.043 -0.094,0.004 -0.113,-0.058 -0.121,-0.137 -0.008,-0.089 -0.027,-0.179 -0.09,-0.254 -0.058,-0.253 -0.211,-0.363 -0.472,-0.304 -0.032,0.008 -0.063,0 -0.09,0 -0.25,0.004 -0.532,-0.063 -0.743,0.027 -0.222,0.098 -0.164,0.426 -0.253,0.641 -0.016,0.043 -0.043,0.066 -0.086,0.066 -0.348,-0.078 -0.7,-0.012 -1.047,-0.039 -0.086,-0.008 -0.211,0.063 -0.25,-0.09 0.394,-1.355 0.793,-2.715 1.187,-4.07 0.02,-0.066 0.032,-0.137 0.11,-0.172 0.519,0.055 1.039,0.008 1.558,0.024 0.11,0.003 0.219,-0.028 0.324,0.031"
           style="fill:#0064ad;fill-opacity:1;fill-rule:evenodd;stroke:none"
           transform="matrix(1.3333333,0,0,1.3333333,1608,0)"
           clip-path="url(#clipPath33159)"
           id="path33160" />
      </g>
      <g
         id="g33163"
         clip-path="url(#clipPath33164)"
         transform="matrix(0.26458333,0,0,0.26458333,-626.40385,-9.3594733)">
        <path
           d="m 928.391,440.949 c -0.039,0.692 -0.039,0.684 0.648,0.696 0.328,0.003 0.66,-0.059 0.984,0.039 -0.496,0.074 -0.996,0.011 -1.492,0.035 0.5,-0.024 1,0.039 1.496,-0.031 0.078,0.324 0.071,0.648 0.004,0.972 -0.078,-0.222 -0.008,-0.445 -0.035,-0.637 0,0.118 -0.004,0.266 0,0.418 0.004,0.118 -0.019,0.188 -0.164,0.188 -0.43,-0.004 -0.859,-0.004 -1.23,0 0.437,0.031 0.933,-0.051 1.425,0.035 -0.445,0.094 -0.898,0.035 -1.343,0.035 -0.231,0 -0.321,0.051 -0.309,0.301 0.02,0.391 0,0.781 -0.004,1.172 -0.168,-0.117 -0.016,-0.301 -0.086,-0.426 0.024,0.102 0.008,0.219 0.004,0.332 0,0.11 -0.078,0.129 -0.164,0.129 -0.273,0 -0.547,-0.004 -0.82,0 -0.2,0 -0.192,-0.141 -0.196,-0.273 0,-0.661 0,-1.317 0,-1.973 0,-0.578 0.008,-1.156 -0.004,-1.731 -0.003,-0.238 0.051,-0.347 0.321,-0.339 0.808,0.015 1.621,0.007 2.429,0 0.192,0 0.282,0.043 0.266,0.254 -0.016,0.191 -0.012,0.382 -0.004,0.574 0.008,0.16 -0.055,0.211 -0.211,0.211 -0.465,-0.008 -0.929,-0.004 -1.398,-0.004 -0.039,0 -0.078,0.004 -0.117,0.023"
           style="fill:#0064ac;fill-opacity:1;fill-rule:evenodd;stroke:none"
           transform="matrix(1.3333333,0,0,1.3333333,1608,0)"
           clip-path="url(#clipPath33162)"
           id="path33163" />
      </g>
      <g
         id="g33166"
         clip-path="url(#clipPath33167)"
         transform="matrix(0.26458333,0,0,0.26458333,-626.40385,-9.3594733)">
        <path
           d="m 921.812,440.918 c -0.484,0.008 -0.968,0.035 -1.449,0.016 -0.336,-0.012 -0.246,0.203 -0.258,0.378 -0.007,0.188 -0.027,0.344 0.266,0.336 0.461,-0.007 0.926,-0.062 1.383,0.036 -0.465,0.078 -0.934,0.004 -1.309,0.031 0.285,0.008 0.664,0.012 1.043,0 0.223,-0.012 0.301,0.082 0.27,0.281 -0.028,0.188 0.078,0.402 -0.035,0.563 -0.125,0.175 -0.336,0.019 -0.508,0.046 -0.285,0.047 -0.574,0.008 -0.86,0.02 -0.043,0.004 0.024,0.059 0,0.023 -0.007,-0.011 0,-0.019 0.024,-0.015 0.457,0.019 0.918,-0.063 1.375,0.031 -0.445,0.098 -0.899,0.035 -1.348,0.035 -0.238,0.004 -0.304,0.067 -0.308,0.305 0,0.41 0.066,0.82 -0.039,1.226 -0.059,-0.453 -0.008,-0.906 -0.028,-1.324 0,0.328 -0.008,0.696 0.004,1.063 0.004,0.187 -0.055,0.254 -0.242,0.242 -0.293,-0.023 -0.59,0.012 -0.879,-0.02 -0.133,-1.324 -0.039,-2.652 -0.066,-3.98 -0.004,-0.156 0.031,-0.277 0.207,-0.313 0.851,-0.007 1.699,0.004 2.543,-0.007 0.195,0 0.281,0.047 0.257,0.254 -0.031,0.257 0.043,0.519 -0.043,0.773"
           style="fill:#0064ad;fill-opacity:1;fill-rule:evenodd;stroke:none"
           transform="matrix(1.3333333,0,0,1.3333333,1608,0)"
           clip-path="url(#clipPath33165)"
           id="path33166" />
      </g>
      <g
         id="g33169"
         clip-path="url(#clipPath33170)"
         transform="matrix(0.26458333,0,0,0.26458333,-626.40385,-9.3594733)">
        <path
           d="m 928.391,440.949 c 0.386,-0.121 0.777,-0.039 1.168,-0.051 0.625,-0.019 0.523,0.067 0.523,-0.539 0,-0.476 0.082,-0.429 -0.434,-0.429 -0.738,-0.004 -1.476,0.004 -2.214,-0.008 -0.196,0 -0.27,0.047 -0.266,0.254 0.008,1.254 0.008,2.508 0,3.762 -0.004,0.191 0.066,0.261 0.246,0.238 0.039,-0.004 0.082,0 0.121,0 0.223,-0.004 0.488,0.062 0.653,-0.035 0.199,-0.118 0.019,-0.414 0.105,-0.641 0.086,0.23 -0.035,0.465 0.078,0.672 -0.019,0.129 -0.121,0.09 -0.191,0.09 -0.293,0.004 -0.586,-0.008 -0.879,0.008 -0.192,0.007 -0.239,-0.067 -0.235,-0.247 0.004,-1.312 0.004,-2.628 0,-3.941 -0.004,-0.187 0.051,-0.242 0.239,-0.242 0.879,0.012 1.757,0.008 2.636,0.004 0.168,-0.004 0.227,0.039 0.231,0.218 0.035,0.883 0.039,0.883 -0.84,0.883 -0.312,0 -0.625,0.004 -0.941,0.004"
           style="fill:#00699d;fill-opacity:1;fill-rule:evenodd;stroke:none"
           transform="matrix(1.3333333,0,0,1.3333333,1608,0)"
           clip-path="url(#clipPath33168)"
           id="path33169" />
      </g>
      <g
         id="g33172"
         clip-path="url(#clipPath33173)"
         transform="matrix(0.26458333,0,0,0.26458333,-626.40385,-9.3594733)">
        <path
           d="m 919.031,439.926 c -0.109,0.078 -0.125,0.191 -0.125,0.32 0.004,1.102 0,2.203 0.004,3.309 0,0.066 -0.004,0.144 0.024,0.207 0.113,0.258 0.117,0.254 -0.024,0.41 -0.004,0.039 -0.043,0.043 -0.066,0.066 -0.086,-0.043 -0.047,-0.125 -0.047,-0.187 -0.004,-1.332 -0.004,-2.668 0,-4 0,-0.059 -0.039,-0.145 0.055,-0.18 0.046,0.051 0.132,-0.004 0.179,0.055"
           style="fill:#005697;fill-opacity:1;fill-rule:evenodd;stroke:none"
           transform="matrix(1.3333333,0,0,1.3333333,1608,0)"
           clip-path="url(#clipPath33171)"
           id="path33172" />
      </g>
      <g
         id="g33175"
         clip-path="url(#clipPath33176)"
         transform="matrix(0.26458333,0,0,0.26458333,-626.40385,-9.3594733)">
        <path
           d="m 922.824,446.055 c -0.258,-0.008 -0.457,-0.008 -0.48,-0.282 -0.004,-0.05 0,-0.105 0.066,-0.113 0.047,-0.004 0.078,0.028 0.082,0.074 0.008,0.149 0.11,0.18 0.231,0.172 0.129,-0.008 0.308,0.071 0.332,-0.152 0.027,-0.227 -0.16,-0.192 -0.289,-0.203 -0.243,-0.02 -0.454,-0.059 -0.411,-0.383 0.032,-0.211 0.176,-0.254 0.352,-0.25 0.188,0 0.398,-0.039 0.481,0.207 0.019,0.051 0.023,0.102 -0.036,0.129 -0.039,0.019 -0.078,-0.004 -0.093,-0.047 -0.028,-0.09 -0.086,-0.145 -0.176,-0.129 -0.133,0.02 -0.344,-0.098 -0.367,0.141 -0.024,0.219 0.179,0.172 0.308,0.183 0.219,0.02 0.414,0.059 0.399,0.34 -0.02,0.289 -0.227,0.324 -0.399,0.313"
           style="fill:#0c6da0;fill-opacity:1;fill-rule:evenodd;stroke:none"
           transform="matrix(1.3333333,0,0,1.3333333,1608,0)"
           clip-path="url(#clipPath33174)"
           id="path33175" />
      </g>
      <g
         id="g33178"
         clip-path="url(#clipPath33179)"
         transform="matrix(0.26458333,0,0,0.26458333,-626.40385,-9.3594733)">
        <path
           d="m 923.711,442.832 c -0.117,-0.086 -0.059,-0.207 -0.059,-0.309 -0.007,-0.769 -0.011,-1.539 0,-2.304 0.004,-0.223 -0.05,-0.317 -0.285,-0.297 -0.211,0.019 -0.426,0.019 -0.637,-0.004 -0.253,-0.02 -0.308,0.09 -0.304,0.316 0.012,0.707 0.004,1.418 0,2.125 0,0.098 -0.016,0.2 -0.024,0.297 -0.007,-0.879 -0.015,-1.758 -0.023,-2.636 0,-0.137 0.062,-0.176 0.183,-0.172 0.286,0.004 0.571,0.015 0.852,-0.004 0.223,-0.012 0.293,0.054 0.289,0.285 -0.008,0.902 0.004,1.801 0.008,2.703"
           style="fill:#005989;fill-opacity:1;fill-rule:evenodd;stroke:none"
           transform="matrix(1.3333333,0,0,1.3333333,1608,0)"
           clip-path="url(#clipPath33177)"
           id="path33178" />
      </g>
      <g
         id="g33181"
         clip-path="url(#clipPath33182)"
         transform="matrix(0.26458333,0,0,0.26458333,-626.40385,-9.3594733)">
        <path
           d="m 928.438,445.02 c 0.183,-0.168 0.398,-0.133 0.593,-0.047 0.184,0.078 0.149,0.265 0.149,0.425 0,0.079 0,0.161 -0.004,0.243 -0.004,0.136 0.027,0.297 -0.141,0.363 -0.183,0.074 -0.375,0.082 -0.558,0 -0.106,-0.047 -0.137,-0.137 -0.059,-0.266 0.121,0.149 0.277,0.184 0.453,0.164 0.137,-0.019 0.16,-0.113 0.16,-0.218 -0.004,-0.153 -0.109,-0.059 -0.176,-0.067 -0.144,-0.015 -0.304,0.055 -0.425,-0.086 -0.02,-0.051 0.004,-0.082 0.047,-0.105 0.101,-0.031 0.203,0.015 0.3,0 0.086,-0.016 0.164,-0.047 0.157,-0.149 -0.004,-0.093 -0.086,-0.101 -0.157,-0.109 -0.082,-0.008 -0.164,0 -0.242,-0.02 -0.058,-0.023 -0.121,-0.043 -0.097,-0.128"
           style="fill:#0e6ea1;fill-opacity:1;fill-rule:evenodd;stroke:none"
           transform="matrix(1.3333333,0,0,1.3333333,1608,0)"
           clip-path="url(#clipPath33180)"
           id="path33181" />
      </g>
      <g
         id="g33184"
         clip-path="url(#clipPath33185)"
         transform="matrix(0.26458333,0,0,0.26458333,-626.40385,-9.3594733)">
        <path
           d="m 925.051,445.5 c 0.039,0.133 -0.051,0.336 0.148,0.383 0.153,0.031 0.375,0.113 0.438,-0.164 0.008,-0.039 0.039,-0.074 0.086,-0.059 0.078,0.028 0.066,0.098 0.054,0.152 -0.035,0.208 -0.199,0.239 -0.367,0.243 -0.195,0 -0.433,0.027 -0.476,-0.246 -0.032,-0.207 -0.024,-0.422 -0.008,-0.633 0.012,-0.184 0.152,-0.254 0.32,-0.258 0.188,-0.008 0.395,-0.039 0.512,0.164 0.027,0.051 0.047,0.121 -0.008,0.168 -0.047,0.043 -0.09,0.02 -0.117,-0.039 -0.102,-0.219 -0.301,-0.156 -0.445,-0.109 -0.18,0.054 -0.11,0.253 -0.137,0.398"
           style="fill:#2171a1;fill-opacity:1;fill-rule:evenodd;stroke:none"
           transform="matrix(1.3333333,0,0,1.3333333,1608,0)"
           clip-path="url(#clipPath33183)"
           id="path33184" />
      </g>
      <g
         id="g33187"
         clip-path="url(#clipPath33188)"
         transform="matrix(0.26458333,0,0,0.26458333,-626.40385,-9.3594733)">
        <path
           d="m 926.762,445.965 c -0.27,0.094 -0.492,0.055 -0.715,0.047 -0.09,-0.004 -0.086,-0.098 -0.086,-0.168 0,-0.129 0,-0.262 0,-0.391 0,-0.547 0.191,-0.66 0.777,-0.441 -0.152,0.129 -0.316,0.058 -0.465,0.07 -0.097,0.012 -0.175,0.012 -0.179,0.145 0,0.132 0.051,0.171 0.179,0.179 0.137,0.008 0.289,-0.054 0.442,0.078 -0.156,0.078 -0.301,0.043 -0.43,0.047 -0.121,0.004 -0.187,0.031 -0.191,0.168 0,0.149 0.058,0.192 0.199,0.192 0.137,0 0.289,-0.043 0.469,0.074"
           style="fill:#0070a7;fill-opacity:1;fill-rule:evenodd;stroke:none"
           transform="matrix(1.3333333,0,0,1.3333333,1608,0)"
           clip-path="url(#clipPath33186)"
           id="path33187" />
      </g>
      <g
         id="g33190"
         clip-path="url(#clipPath33191)"
         transform="matrix(0.26458333,0,0,0.26458333,-626.40385,-9.3594733)">
        <path
           d="m 921.754,442.664 h -1.633 c 0.41,-0.191 0.863,0.133 1.18,-0.277 0.023,0.175 0.14,0.261 0.304,0.199 0.172,-0.066 0.102,-0.223 0.067,-0.34 -0.051,-0.16 0.172,-0.383 -0.067,-0.476 -0.148,-0.063 -0.339,-0.02 -0.511,-0.02 -0.301,-0.004 -0.602,-0.004 -0.903,-0.066 h 1.563 c 0.074,0.324 0.07,0.652 0,0.98"
           style="fill:#005b95;fill-opacity:1;fill-rule:evenodd;stroke:none"
           transform="matrix(1.3333333,0,0,1.3333333,1608,0)"
           clip-path="url(#clipPath33189)"
           id="path33190" />
      </g>
      <g
         id="g33193"
         clip-path="url(#clipPath33194)"
         transform="matrix(0.26458333,0,0,0.26458333,-626.40385,-9.3594733)">
        <path
           d="m 931.016,446.031 c -0.055,-0.34 -0.293,-0.25 -0.473,-0.254 -0.188,-0.004 -0.258,-0.054 -0.125,-0.226 0.133,-0.164 0.258,-0.332 0.387,-0.5 0.05,-0.067 0.105,-0.129 0.199,-0.094 0.086,0.035 0.058,0.117 0.07,0.184 0.031,0.191 -0.097,0.421 0.149,0.554 -0.059,0.106 -0.188,0.164 -0.207,0.336"
           style="fill:#006faf;fill-opacity:1;fill-rule:evenodd;stroke:none"
           transform="matrix(1.3333333,0,0,1.3333333,1608,0)"
           clip-path="url(#clipPath33192)"
           id="path33193" />
      </g>
      <g
         id="g33196"
         clip-path="url(#clipPath33197)"
         transform="matrix(0.26458333,0,0,0.26458333,-626.40385,-9.3594733)">
        <path
           d="m 923.941,444.965 c 0.219,0.074 0.239,0.305 0.356,0.457 0.078,0.098 0.137,0.211 0.234,0.351 0.067,-0.296 -0.027,-0.566 0.102,-0.804 0.097,0.32 0.062,0.644 0.058,0.965 0,0.058 -0.046,0.078 -0.105,0.078 -0.082,0.004 -0.125,-0.051 -0.164,-0.114 -0.125,-0.203 -0.246,-0.414 -0.371,-0.617 -0.024,-0.035 -0.051,-0.148 -0.106,-0.015 -0.148,-0.102 -0.101,-0.2 -0.004,-0.301"
           style="fill:#036b9f;fill-opacity:1;fill-rule:evenodd;stroke:none"
           transform="matrix(1.3333333,0,0,1.3333333,1608,0)"
           clip-path="url(#clipPath33195)"
           id="path33196" />
      </g>
      <g
         id="g33199"
         clip-path="url(#clipPath33200)"
         transform="matrix(0.26458333,0,0,0.26458333,-626.40385,-9.3594733)">
        <path
           d="m 923.406,445.484 c 0,-0.14 0,-0.281 0,-0.422 0,-0.078 0.008,-0.144 0.11,-0.144 0.093,0 0.113,0.066 0.113,0.144 0,0.293 0.004,0.586 0,0.879 0,0.082 -0.039,0.133 -0.129,0.129 -0.082,-0.008 -0.094,-0.066 -0.094,-0.129 -0.004,-0.152 0,-0.304 0,-0.457"
           style="fill:#0071ac;fill-opacity:1;fill-rule:evenodd;stroke:none"
           transform="matrix(1.3333333,0,0,1.3333333,1608,0)"
           clip-path="url(#clipPath33198)"
           id="path33199" />
      </g>
      <g
         id="g33202"
         clip-path="url(#clipPath33203)"
         transform="matrix(0.26458333,0,0,0.26458333,-626.40385,-9.3594733)">
        <path
           d="m 926.426,439.926 c -0.09,0.078 -0.028,0.191 -0.094,0.359 0.035,-0.355 -0.137,-0.363 -0.359,-0.363 -0.746,0.008 -0.746,0 -0.746,0.738 0,0.664 0,1.328 -0.071,1.992 v -2.765 c 0.426,-0.035 0.852,-0.11 1.27,0.039"
           style="fill:#00578b;fill-opacity:1;fill-rule:evenodd;stroke:none"
           transform="matrix(1.3333333,0,0,1.3333333,1608,0)"
           clip-path="url(#clipPath33201)"
           id="path33202" />
      </g>
      <g
         id="g33205"
         clip-path="url(#clipPath33206)"
         transform="matrix(0.26458333,0,0,0.26458333,-626.40385,-9.3594733)">
        <path
           d="m 930.117,445.016 c 0.106,0.418 0.071,0.484 -0.316,0.597 -0.051,0.016 -0.102,0.02 -0.149,0.035 -0.074,0.028 -0.109,0.094 -0.105,0.164 0.008,0.086 0.086,0.067 0.144,0.075 0.157,0.019 0.321,-0.039 0.543,0.078 -0.304,0.094 -0.558,0.074 -0.796,0.031 -0.122,-0.023 -0.04,-0.383 0.109,-0.457 0.07,-0.035 0.152,-0.055 0.23,-0.066 0.219,-0.035 0.282,-0.164 0.239,-0.364 -0.012,-0.078 0.019,-0.113 0.101,-0.093"
           style="fill:#0073a9;fill-opacity:1;fill-rule:evenodd;stroke:none"
           transform="matrix(1.3333333,0,0,1.3333333,1608,0)"
           clip-path="url(#clipPath33204)"
           id="path33205" />
      </g>
      <g
         id="g33208"
         clip-path="url(#clipPath33209)"
         transform="matrix(0.26458333,0,0,0.26458333,-626.40385,-9.3594733)">
        <path
           d="m 919.031,439.926 c -0.066,-0.008 -0.136,0.015 -0.179,-0.055 0.957,-0.008 1.914,-0.016 2.871,-0.019 0.058,0 0.156,-0.004 0.152,0.054 -0.012,0.34 0.113,0.684 -0.063,1.012 0.004,-0.242 -0.003,-0.488 0.016,-0.727 0.016,-0.218 -0.07,-0.273 -0.277,-0.273 -0.84,0.012 -1.68,0.008 -2.52,0.008"
           style="fill:#005d88;fill-opacity:1;fill-rule:evenodd;stroke:none"
           transform="matrix(1.3333333,0,0,1.3333333,1608,0)"
           clip-path="url(#clipPath33207)"
           id="path33208" />
      </g>
      <g
         id="g33211"
         clip-path="url(#clipPath33212)"
         transform="matrix(0.26458333,0,0,0.26458333,-626.40385,-9.3594733)">
        <path
           d="m 927.492,445.242 c 0.035,-0.043 0.059,-0.09 0.094,-0.117 0.086,-0.074 0.152,-0.227 0.293,-0.156 0.117,0.054 0.062,0.199 0.062,0.301 -0.007,0.242 0.039,0.492 -0.066,0.73 -0.117,-0.262 -0.039,-0.547 -0.086,-0.816 -0.117,-0.059 -0.144,0.148 -0.297,0.058"
           style="fill:#006095;fill-opacity:1;fill-rule:evenodd;stroke:none"
           transform="matrix(1.3333333,0,0,1.3333333,1608,0)"
           clip-path="url(#clipPath33210)"
           id="path33211" />
      </g>
      <g
         id="g33214"
         clip-path="url(#clipPath33215)"
         transform="matrix(0.26458333,0,0,0.26458333,-626.40385,-9.3594733)">
        <path
           d="m 918.848,444.238 c 0.019,-0.023 0.043,-0.043 0.066,-0.066 0.277,0 0.563,-0.004 0.844,0.008 0.183,0.008 0.25,-0.059 0.246,-0.242 -0.008,-0.379 -0.004,-0.762 0.055,-1.145 0,0.48 0,0.957 0,1.437 -0.403,0.051 -0.809,0.04 -1.211,0.008"
           style="fill:#00538a;fill-opacity:1;fill-rule:evenodd;stroke:none"
           transform="matrix(1.3333333,0,0,1.3333333,1608,0)"
           clip-path="url(#clipPath33213)"
           id="path33214" />
      </g>
      <g
         id="g33217"
         clip-path="url(#clipPath33218)"
         transform="matrix(0.26458333,0,0,0.26458333,-626.40385,-9.3594733)">
        <path
           d="m 930.117,445.016 c -0.035,0.031 -0.066,0.062 -0.101,0.093 -0.18,-0.011 -0.383,-0.129 -0.496,0.125 -0.02,0.043 -0.071,0.055 -0.098,0.024 -0.024,-0.024 -0.035,-0.074 -0.031,-0.11 0.019,-0.179 0.156,-0.226 0.3,-0.234 0.149,-0.004 0.309,-0.039 0.426,0.102"
           style="fill:#307baa;fill-opacity:1;fill-rule:evenodd;stroke:none"
           transform="matrix(1.3333333,0,0,1.3333333,1608,0)"
           clip-path="url(#clipPath33216)"
           id="path33217" />
      </g>
      <g
         id="g33220"
         clip-path="url(#clipPath33221)"
         transform="matrix(0.26458333,0,0,0.26458333,-626.40385,-9.3594733)">
        <path
           d="m 933.367,443.812 c 0.031,0.02 0.098,0.04 0.094,0.055 -0.02,0.375 0.242,0.313 0.465,0.309 0.301,-0.004 0.601,-0.012 0.902,-0.016 0.039,0.129 -0.066,0.098 -0.121,0.098 -0.359,0.004 -0.719,0.004 -1.078,0 -0.32,-0.004 -0.184,-0.293 -0.262,-0.446"
           style="fill:#005589;fill-opacity:1;fill-rule:evenodd;stroke:none"
           transform="matrix(1.3333333,0,0,1.3333333,1608,0)"
           clip-path="url(#clipPath33219)"
           id="path33220" />
      </g>
      <g
         id="g33223"
         clip-path="url(#clipPath33224)"
         transform="matrix(0.26458333,0,0,0.26458333,-626.40385,-9.3594733)">
        <path
           d="m 933.605,439.926 c -0.523,0 -1.046,0.004 -1.57,-0.004 -0.105,0 -0.223,0.043 -0.312,-0.051 0.589,-0.008 1.179,-0.016 1.769,-0.019 0.051,0 0.102,0.011 0.113,0.074"
           style="fill:#005a86;fill-opacity:1;fill-rule:evenodd;stroke:none"
           transform="matrix(1.3333333,0,0,1.3333333,1608,0)"
           clip-path="url(#clipPath33222)"
           id="path33223" />
      </g>
      <g
         id="g33226"
         clip-path="url(#clipPath33227)"
         transform="matrix(0.26458333,0,0,0.26458333,-626.40385,-9.3594733)">
        <path
           d="m 923.941,444.965 c -0.035,0.101 -0.101,0.199 0.004,0.301 0,0.211 0.008,0.422 0.008,0.632 0,0.047 -0.004,0.106 -0.074,0.098 -0.024,0 -0.059,-0.031 -0.063,-0.047 -0.004,-0.32 -0.035,-0.64 0.024,-0.961 0,-0.015 0.066,-0.015 0.101,-0.023"
           style="fill:#005682;fill-opacity:1;fill-rule:evenodd;stroke:none"
           transform="matrix(1.3333333,0,0,1.3333333,1608,0)"
           clip-path="url(#clipPath33225)"
           id="path33226" />
      </g>
      <g
         id="g33229"
         clip-path="url(#clipPath33230)"
         transform="matrix(0.26458333,0,0,0.26458333,-626.40385,-9.3594733)">
        <path
           d="m 930.426,444.113 c 0.316,0.133 0.644,0.032 0.965,0.067 0.113,0.011 0.242,-0.055 0.332,0.062 -0.387,0.008 -0.778,0.012 -1.164,0.016 -0.09,0 -0.2,0.004 -0.133,-0.145"
           style="fill:#005588;fill-opacity:1;fill-rule:evenodd;stroke:none"
           transform="matrix(1.3333333,0,0,1.3333333,1608,0)"
           clip-path="url(#clipPath33228)"
           id="path33229" />
      </g>
      <g
         id="g33232"
         clip-path="url(#clipPath33233)"
         transform="matrix(0.26458333,0,0,0.26458333,-626.40385,-9.3594733)">
        <path
           d="m 928.523,445.441 c -0.031,0.032 -0.062,0.063 -0.093,0.09 -0.082,-0.172 -0.102,-0.343 0.008,-0.511 0.027,0.046 0.066,0.066 0.117,0.066 0.066,0.125 0.039,0.242 -0.032,0.355"
           style="fill:#0072b7;fill-opacity:1;fill-rule:evenodd;stroke:none"
           transform="matrix(1.3333333,0,0,1.3333333,1608,0)"
           clip-path="url(#clipPath33231)"
           id="path33232" />
      </g>
      <g
         id="g33235"
         clip-path="url(#clipPath33236)"
         transform="matrix(0.26458333,0,0,0.26458333,-626.40385,-9.3594733)">
        <path
           d="m 926.977,431.074 c 0,-0.129 0.023,-0.265 -0.004,-0.39 -0.106,-0.536 0.156,-0.844 0.578,-1.133 0.699,-0.477 1.359,-1.012 2.031,-1.531 0.113,-0.086 0.203,-0.118 0.352,-0.059 0.535,0.211 1.078,0.402 1.625,0.59 0.16,0.054 0.246,0.117 0.25,0.312 0.011,0.563 0.039,1.129 0.07,1.696 0.008,0.152 -0.055,0.242 -0.172,0.324 -0.875,0.637 -1.746,1.277 -2.617,1.918 -0.086,0.066 -0.16,0.113 -0.293,0.062 -0.527,-0.203 -1.063,-0.39 -1.598,-0.566 -0.195,-0.067 -0.261,-0.16 -0.242,-0.375 0.027,-0.277 0.008,-0.563 0.008,-0.848 z"
           style="fill:#ffffff;fill-opacity:1;fill-rule:evenodd;stroke:none"
           transform="matrix(1.3333333,0,0,1.3333333,1608,0)"
           clip-path="url(#clipPath33234)"
           id="path33235" />
      </g>
      <g
         id="g33238"
         clip-path="url(#clipPath33239)"
         transform="matrix(0.26458333,0,0,0.26458333,-626.40385,-9.3594733)">
        <path
           d="m 921.59,430.746 c 0.066,-0.434 0.273,-0.812 0.469,-1.195 0.293,-0.586 0.675,-1.102 1.113,-1.586 0.297,-0.168 0.519,-0.055 0.769,0.14 0.762,0.59 1.543,1.153 2.321,1.711 0.164,0.118 0.234,0.227 0.222,0.446 -0.031,0.554 -0.027,1.113 -0.023,1.668 0.004,0.172 -0.035,0.277 -0.215,0.34 -0.523,0.183 -1.043,0.375 -1.558,0.582 -0.149,0.058 -0.211,-0.04 -0.29,-0.098 -0.941,-0.668 -1.875,-1.34 -2.808,-2.008"
           style="fill:#ffffff;fill-opacity:1;fill-rule:evenodd;stroke:none"
           transform="matrix(1.3333333,0,0,1.3333333,1608,0)"
           clip-path="url(#clipPath33237)"
           id="path33238" />
      </g>
      <g
         id="g33241"
         clip-path="url(#clipPath33242)"
         transform="matrix(0.26458333,0,0,0.26458333,-626.40385,-9.3594733)">
        <path
           d="m 928.832,424.262 c 0.258,-0.164 0.566,-0.164 0.848,-0.215 0.843,-0.156 1.703,-0.207 2.562,-0.152 0.086,0.003 0.16,0.015 0.215,0.085 0.231,0.754 0.457,1.508 0.695,2.258 0.051,0.164 0.032,0.266 -0.09,0.399 -0.367,0.394 -0.636,0.859 -0.921,1.312 -0.11,0.172 -0.2,0.231 -0.411,0.145 -0.55,-0.219 -1.113,-0.414 -1.675,-0.61 -0.141,-0.046 -0.203,-0.117 -0.25,-0.257 -0.317,-0.993 -0.645,-1.977 -0.973,-2.965"
           style="fill:#ffffff;fill-opacity:1;fill-rule:evenodd;stroke:none"
           transform="matrix(1.3333333,0,0,1.3333333,1608,0)"
           clip-path="url(#clipPath33240)"
           id="path33241" />
      </g>
      <g
         id="g33244"
         clip-path="url(#clipPath33245)"
         transform="matrix(0.26458333,0,0,0.26458333,-626.40385,-9.3594733)">
        <path
           d="m 932.215,429.566 c 0,-0.312 0.008,-0.625 -0.008,-0.937 -0.004,-0.117 0.051,-0.191 0.109,-0.27 0.364,-0.496 0.743,-0.984 1.098,-1.484 0.109,-0.152 0.223,-0.219 0.402,-0.199 0.09,0.012 0.18,0.004 0.274,0.004 0.637,0 0.652,0 0.598,0.648 -0.122,1.406 -0.567,2.699 -1.356,3.875 -0.117,0.172 -0.176,0.168 -0.363,0.055 -0.559,-0.328 -0.785,-0.789 -0.715,-1.418 0.012,-0.09 0.004,-0.18 0.004,-0.274 -0.016,0 -0.031,0 -0.043,0"
           style="fill:#ffffff;fill-opacity:1;fill-rule:evenodd;stroke:none"
           transform="matrix(1.3333333,0,0,1.3333333,1608,0)"
           clip-path="url(#clipPath33243)"
           id="path33244" />
      </g>
      <g
         id="g33247"
         clip-path="url(#clipPath33248)"
         transform="matrix(0.26458333,0,0,0.26458333,-626.40385,-9.3594733)">
        <path
           d="m 926.742,434.707 c -0.742,0.008 -1.469,-0.102 -2.183,-0.297 -0.184,-0.047 -0.239,-0.125 -0.161,-0.297 0.004,-0.008 0.008,-0.019 0.008,-0.027 0.071,-0.633 0.403,-1.016 1.043,-1.121 0.145,-0.027 0.293,-0.086 0.422,-0.16 0.543,-0.309 1.078,-0.289 1.633,-0.024 0.328,0.153 0.676,0.266 1.027,0.364 0.223,0.062 0.34,0.187 0.395,0.402 0.027,0.105 0.054,0.215 0.086,0.32 0.144,0.477 0.144,0.477 -0.321,0.598 -0.64,0.168 -1.289,0.25 -1.949,0.242"
           style="fill:#ffffff;fill-opacity:1;fill-rule:evenodd;stroke:none"
           transform="matrix(1.3333333,0,0,1.3333333,1608,0)"
           clip-path="url(#clipPath33246)"
           id="path33247" />
      </g>
      <g
         id="g33250"
         clip-path="url(#clipPath33251)"
         transform="matrix(0.26458333,0,0,0.26458333,-626.40385,-9.3594733)">
        <path
           d="m 924.613,420.109 c 0,0.086 -0.054,0.141 -0.09,0.196 -0.125,0.211 -0.261,0.41 -0.382,0.621 -0.481,0.851 -1.231,1.336 -2.161,1.566 -0.085,0.02 -0.175,0.051 -0.265,0.063 -0.172,0.031 -0.336,0.23 -0.5,0.133 -0.293,-0.176 -0.559,-0.399 -0.828,-0.61 -0.09,-0.07 -0.024,-0.144 0.027,-0.211 0.965,-1.246 2.188,-2.14 3.672,-2.683 0.074,-0.028 0.156,-0.071 0.199,0.046 0.11,0.293 0.219,0.586 0.328,0.879"
           style="fill:#ffffff;fill-opacity:1;fill-rule:evenodd;stroke:none"
           transform="matrix(1.3333333,0,0,1.3333333,1608,0)"
           clip-path="url(#clipPath33249)"
           id="path33250" />
      </g>
      <g
         id="g33253"
         clip-path="url(#clipPath33254)"
         transform="matrix(0.26458333,0,0,0.26458333,-626.40385,-9.3594733)">
        <path
           d="m 931.375,420.266 c -0.77,-0.149 -1.547,-0.176 -2.328,-0.168 -0.168,0.004 -0.199,-0.032 -0.137,-0.176 0.043,-0.106 0.074,-0.211 0.106,-0.317 0.172,-0.515 0.175,-0.519 0.664,-0.316 0.605,0.254 1.183,0.555 1.695,0.977"
           style="fill:#fdfcfd;fill-opacity:1;fill-rule:evenodd;stroke:none"
           transform="matrix(1.3333333,0,0,1.3333333,1608,0)"
           clip-path="url(#clipPath33252)"
           id="path33253" />
      </g>
      <g
         id="g33256"
         clip-path="url(#clipPath33257)"
         transform="matrix(0.26458333,0,0,0.26458333,-626.40385,-9.3594733)">
        <path
           d="m 926.496,420.426 c -0.641,0.219 -1.273,0.453 -1.902,0.73 0.004,-0.043 0.004,-0.062 0.008,-0.078 0.226,-0.535 0.609,-0.766 1.203,-0.66 0.222,0.043 0.461,0.008 0.691,0.008"
           style="fill:#fbfafa;fill-opacity:1;fill-rule:evenodd;stroke:none"
           transform="matrix(1.3333333,0,0,1.3333333,1608,0)"
           clip-path="url(#clipPath33255)"
           id="path33256" />
      </g>
      <g
         id="g33259"
         clip-path="url(#clipPath33260)"
         transform="matrix(0.26458333,0,0,0.26458333,-626.40385,-9.3594733)">
        <path
           d="m 918.879,427.988 c -0.098,-0.414 -0.117,-0.761 -0.102,-1.105 0.008,-0.223 0.219,-0.102 0.336,-0.117 0.121,-0.02 0.125,0.058 0.094,0.152 -0.102,0.332 -0.203,0.664 -0.328,1.07"
           style="fill:#f4f3f4;fill-opacity:1;fill-rule:evenodd;stroke:none"
           transform="matrix(1.3333333,0,0,1.3333333,1608,0)"
           clip-path="url(#clipPath33258)"
           id="path33259" />
      </g>
      <g
         id="g33262"
         clip-path="url(#clipPath33263)"
         transform="matrix(0.26458333,0,0,0.26458333,-626.40385,-9.3594733)">
        <path
           d="m 921.23,423.578 c 0.032,-0.383 0.047,-0.398 0.422,-0.465 -0.144,0.164 -0.273,0.305 -0.422,0.465"
           style="fill:#e8e2e4;fill-opacity:1;fill-rule:evenodd;stroke:none"
           transform="matrix(1.3333333,0,0,1.3333333,1608,0)"
           clip-path="url(#clipPath33261)"
           id="path33262" />
      </g>
      <g
         id="g33265"
         clip-path="url(#clipPath33266)"
         transform="matrix(0.26458333,0,0,0.26458333,-626.40385,-9.3594733)">
        <path
           d="m 932.297,442.531 c -0.078,-0.187 0.027,-0.355 0.066,-0.527 0.078,-0.32 0.157,-0.641 0.293,-0.965 0.114,0.453 0.231,0.906 0.344,1.359 0.023,0.102 -0.062,0.11 -0.125,0.133 -0.191,0.055 -0.387,0.059 -0.578,0"
           style="fill:#f6fafb;fill-opacity:1;fill-rule:evenodd;stroke:none"
           transform="matrix(1.3333333,0,0,1.3333333,1608,0)"
           clip-path="url(#clipPath33264)"
           id="path33265" />
      </g>
      <g
         id="g33268"
         clip-path="url(#clipPath33269)"
         transform="matrix(0.26458333,0,0,0.26458333,-626.40385,-9.3594733)">
        <path
           d="m 932.297,442.531 c 0.191,0 0.387,0 0.578,0 -0.191,0.102 -0.387,0.11 -0.578,0"
           style="fill:#005385;fill-opacity:1;fill-rule:evenodd;stroke:none"
           transform="matrix(1.3333333,0,0,1.3333333,1608,0)"
           clip-path="url(#clipPath33267)"
           id="path33268" />
      </g>
      <g
         id="g33271"
         clip-path="url(#clipPath33272)"
         transform="matrix(0.26458333,0,0,0.26458333,-626.40385,-9.3594733)">
        <path
           d="m 930.027,442.664 h -1.566 c 0,-0.023 -0.004,-0.043 -0.004,-0.066 0.379,0 0.762,-0.024 1.137,0.007 0.324,0.028 0.418,-0.097 0.375,-0.39 -0.016,-0.09 -0.004,-0.18 0.062,-0.27 v 0.715 z"
           style="fill:#005a94;fill-opacity:1;fill-rule:evenodd;stroke:none"
           transform="matrix(1.3333333,0,0,1.3333333,1608,0)"
           clip-path="url(#clipPath33270)"
           id="path33271" />
      </g>
      <g
         id="g33274"
         clip-path="url(#clipPath33275)"
         transform="matrix(0.26458333,0,0,0.26458333,-626.40385,-9.3594733)">
        <path
           d="m 930.027,441.688 c -0.203,0.128 -0.425,0.042 -0.64,0.054 -0.313,0.016 -0.625,0.004 -0.934,-0.058 h 1.57 z"
           style="fill:#004f87;fill-opacity:1;fill-rule:evenodd;stroke:none"
           transform="matrix(1.3333333,0,0,1.3333333,1608,0)"
           clip-path="url(#clipPath33273)"
           id="path33274" />
      </g>
      <g
         id="g33277"
         clip-path="url(#clipPath33278)"
         transform="matrix(0.26458333,0,0,0.26458333,-626.40385,-9.3594733)">
        <path
           d="m 928.312,442.789 v 0.465 c -0.007,0 -0.019,0 -0.027,0 v -0.465 c 0.008,0 0.02,0 0.027,0"
           style="fill:#00699d;fill-opacity:1;fill-rule:evenodd;stroke:none"
           transform="matrix(1.3333333,0,0,1.3333333,1608,0)"
           clip-path="url(#clipPath33276)"
           id="path33277" />
      </g>
      <g
         id="g33280"
         clip-path="url(#clipPath33281)"
         transform="matrix(0.26458333,0,0,0.26458333,-626.40385,-9.3594733)">
        <path
           d="m 920.047,440.969 v 0.586 c -0.008,0 -0.02,0 -0.031,0 v -0.586 c 0.011,0 0.023,0 0.031,0"
           style="fill:#00548a;fill-opacity:1;fill-rule:evenodd;stroke:none"
           transform="matrix(1.3333333,0,0,1.3333333,1608,0)"
           clip-path="url(#clipPath33279)"
           id="path33280" />
      </g>
      <g
         id="g33283"
         clip-path="url(#clipPath33284)"
         transform="matrix(0.26458333,0,0,0.26458333,-626.40385,-9.3594733)">
        <path
           d="m 928.523,445.441 c -0.027,-0.121 -0.039,-0.242 0.032,-0.355 0.011,0 0.023,-0.004 0.031,-0.004 0.152,0 0.332,-0.078 0.434,0.106 0.039,0.07 0.039,0.171 -0.02,0.226 -0.145,0.133 -0.312,0.109 -0.477,0.027"
           style="fill:#ecf4f8;fill-opacity:1;fill-rule:evenodd;stroke:none"
           transform="matrix(1.3333333,0,0,1.3333333,1608,0)"
           clip-path="url(#clipPath33282)"
           id="path33283" />
      </g>
      <g
         id="g33286"
         clip-path="url(#clipPath33287)"
         transform="matrix(0.26458333,0,0,0.26458333,-626.40385,-9.3594733)">
        <path
           d="m 930.906,445.125 c 0.074,0.539 0.071,0.547 -0.355,0.48 0.113,-0.152 0.219,-0.296 0.355,-0.48"
           style="fill:#f1f6f7;fill-opacity:1;fill-rule:evenodd;stroke:none"
           transform="matrix(1.3333333,0,0,1.3333333,1608,0)"
           clip-path="url(#clipPath33285)"
           id="path33286" />
      </g>
    </g>
  </g>
</svg>
