<?xml version="1.0" encoding="UTF-8"?>
<svg enable-background="new 0 0 174.84 365.25" version="1.1" viewBox="0 0 174.84 365.25" width="174.84" height="365.25" xml:space="preserve" xmlns="http://www.w3.org/2000/svg">
<style type="text/css">
	.st0{fill:url(#XMLID_2_);}
	.st1{fill:url(#XMLID_3_);}
	.st2{fill:url(#XMLID_4_);}
	.st3{fill:url(#XMLID_5_);}
	.st4{fill:url(#XMLID_6_);}
	.st5{fill:url(#XMLID_7_);}
	.st6{fill:url(#XMLID_9_);}
	.st7{fill:url(#XMLID_15_);}
	.st8{fill:url(#XMLID_17_);}
	.st9{fill:url(#XMLID_18_);}
	.st10{fill:none;stroke:#FFFFFF;stroke-width:0.4973;stroke-miterlimit:10;}
	.st11{fill:url(#XMLID_19_);}
	.st12{fill:url(#XMLID_20_);}
	.st13{fill:url(#XMLID_21_);}
	.st14{fill:url(#XMLID_22_);}
	.st15{fill:url(#XMLID_23_);}
	.st16{fill:url(#XMLID_24_);}
	.st17{fill:url(#XMLID_25_);}
	.st18{fill:#FFFFFF;}
	.st19{fill:url(#XMLID_26_);}
	.st20{fill:url(#XMLID_27_);}
	.st21{fill:url(#XMLID_30_);}
	.st22{fill:url(#XMLID_42_);}
	.st23{fill:url(#XMLID_43_);}
	.st24{fill:url(#XMLID_44_);}
	.st25{fill:url(#XMLID_45_);}
	.st26{fill:url(#XMLID_46_);}
	.st27{fill:url(#XMLID_47_);}
	.st28{fill:url(#XMLID_48_);}
	.st29{fill:#006CB7;}
	.st30{fill:#FFCD00;}
</style>

	
		<linearGradient id="XMLID_2_" x1="-386.65" x2="-423.2" y1="165.66" y2="41.809" gradientTransform="matrix(-1 0 0 1 -261.43 0)" gradientUnits="userSpaceOnUse">
		<stop stop-color="#FFE700" offset=".29"/>
		<stop stop-color="#FFCE00" offset=".6981"/>
		<stop stop-color="#FDCA00" offset=".7065"/>
		<stop stop-color="#EFAE00" offset=".7825"/>
		<stop stop-color="#E49A00" offset=".8577"/>
		<stop stop-color="#DE8E00" offset=".9309"/>
		<stop stop-color="#DC8A00" offset="1"/>
	</linearGradient>
	<path id="XMLID_211_" class="st0" d="m137.54 58.73c0.99-0.89 9.62-8.59 15.46-10.99 0.13-0.05 0.26-0.08 0.4-0.1 0.52-0.05 1.84-0.18 2.29-0.18 2.4 0 3.21 2.34 3.21 4.74l0.02 0.8s-19.42 7.53-23.37 84.28c-0.03 0.56 0.34 0.97 0.77 1.33 2.61 2.12 6.2 6.85 12.69 17.33 0.46 0.75-17.81-12.34-26.7-14.88-0.65-0.19-1.08-0.79-1.01-1.47 0.89-9.23 7.02-69.26 16.09-80.67 0.03-0.08 0.09-0.13 0.15-0.19z"/>
	<g id="XMLID_195_">
		<radialGradient id="XMLID_3_" cx="162.03" cy="218.57" r="36.598" gradientUnits="userSpaceOnUse">
			<stop stop-color="#DC8A00" offset=".029"/>
			<stop stop-color="#DE8E00" offset=".1129"/>
			<stop stop-color="#E49A00" offset=".2019"/>
			<stop stop-color="#EFAE00" offset=".2933"/>
			<stop stop-color="#FDCA00" offset=".3858"/>
			<stop stop-color="#FFCE00" offset=".396"/>
			<stop stop-color="#FFE700" offset=".71"/>
		</radialGradient>
		<path id="XMLID_209_" class="st1" d="m121.52 139.21c-0.53-0.37-0.55 2.37-0.15 2.88 7.02 8.87 12.8 14.09 17.83 22.63h0.01c0.2 0.31 4.72 7.55 8.13 19.71 1.74 5.97 3.41 13.14 5.03 21.98 0.47 2.58-0.45 3.31-2.41 3.55-3.39 0.4-11.2 1.02-19.76 1.42 0.02 0.8 0.02 2.04-0.08 3.59 8.08 0.61 21.02 0.96 21.02 0.96 2.65 0.12 3.77 0 3.77 0s2.28 0.08 4.03-2.07c1.23-1.52 1.23-3.15 1.23-3.15 0.43-41.6-29.99-65.47-38.65-71.5z"/>
	</g>
	<g id="XMLID_171_">
		<radialGradient id="XMLID_4_" cx="9.923" cy="220.02" r="38.583" gradientUnits="userSpaceOnUse">
			<stop stop-color="#DC8A00" offset=".175"/>
			<stop stop-color="#DE8E00" offset=".2385"/>
			<stop stop-color="#E49A00" offset=".306"/>
			<stop stop-color="#EFAE00" offset=".3752"/>
			<stop stop-color="#FDCA00" offset=".4452"/>
			<stop stop-color="#FFCE00" offset=".4529"/>
			<stop stop-color="#FFE700" offset=".71"/>
		</radialGradient>
		<path id="XMLID_192_" class="st2" d="m44.22 211.38c-8.46-0.4-15.58-1.03-19.02-1.44-1.96-0.23-2.89-0.97-2.41-3.55 1.85-10.08 3.76-17.99 5.77-24.42 3.05-9.9 6.47-15.72 6.98-16.56 5.13-8.96 11.03-14.22 18.25-23.34 0.4-0.51 0.38-3.24-0.15-2.88-8.66 6.03-39.08 29.9-38.66 71.48 0 0 0 1.63 1.23 3.15 1.74 2.15 4.03 2.07 4.03 2.07s1.12 0.12 3.77 0c0 0 12.52-0.36 20.3-0.99-0.11-1.61-0.1-2.86-0.09-3.52z"/>
		<radialGradient id="XMLID_5_" cx="48.198" cy="214.67" r=".2017" gradientUnits="userSpaceOnUse">
			<stop stop-color="#DC8A00" offset=".175"/>
			<stop stop-color="#DE8E00" offset=".2385"/>
			<stop stop-color="#E49A00" offset=".306"/>
			<stop stop-color="#EFAE00" offset=".3752"/>
			<stop stop-color="#FDCA00" offset=".4452"/>
			<stop stop-color="#FFCE00" offset=".4529"/>
			<stop stop-color="#FFE700" offset=".71"/>
		</radialGradient>
		<path id="XMLID_172_" class="st3" d="m48.29 212.23c0-0.23 0.01-0.45 0.02-0.67h-0.09c-0.01 0.56 0 1.61 0.09 2.97 0.02 0 0.04-0.01 0.06-0.01-0.04-0.77-0.08-1.52-0.08-2.29z"/>
	</g>
	<linearGradient id="XMLID_6_" x1="52.122" x2="1.2456" y1="187.64" y2="147.31" gradientUnits="userSpaceOnUse">
		<stop stop-color="#FFE700" offset="0"/>
		<stop stop-color="#FFCE00" offset=".6367"/>
		<stop stop-color="#FDCA00" offset=".6468"/>
		<stop stop-color="#EFAE00" offset=".7383"/>
		<stop stop-color="#E49A00" offset=".8288"/>
		<stop stop-color="#DE8E00" offset=".9169"/>
		<stop stop-color="#DC8A00" offset="1"/>
	</linearGradient>
	<path id="XMLID_168_" class="st4" d="m35.28 175.09c9.02 4.69 16.29 6.04 16.29 6.04 0.59 0.07 1.15 0.14 1.72 0.22-1.57 3.49-3.56 8.1-5.01 12.04-6.4-2.2-11.9-4.84-16.62-7.77 1.17-4.18 2.46-7.72 3.62-10.53zm-19.98-15.86c-5.25-6.32-9.71-14.37-12.14-24.59 0 0-1.25 15.25 8.36 31.03 1.22-2.26 2.52-4.44 3.78-6.44z"/>
	<linearGradient id="XMLID_7_" x1="174.11" x2="124.41" y1="147.23" y2="186.62" gradientUnits="userSpaceOnUse">
		<stop stop-color="#DC8A00" offset="0"/>
		<stop stop-color="#DE8E00" offset=".0691"/>
		<stop stop-color="#E49A00" offset=".1423"/>
		<stop stop-color="#EFAE00" offset=".2175"/>
		<stop stop-color="#FDCA00" offset=".2935"/>
		<stop stop-color="#FFCE00" offset=".3019"/>
		<stop stop-color="#FFE700" offset="1"/>
	</linearGradient>
	<path id="XMLID_160_" class="st5" d="m121.78 181.37c0.63-0.08 1.26-0.17 1.91-0.24 0 0 7.24-1.34 16.23-6 1.19 2.86 2.47 6.41 3.62 10.53-4.74 2.93-10.25 5.58-16.68 7.78l-0.19 0.04c-1.47-4.07-3.37-8.61-4.89-12.11zm41.97-15.73c9.59-15.77 8.34-31 8.34-31-2.43 10.21-6.88 18.25-12.12 24.57 1.29 2.02 2.59 4.21 3.78 6.43z"/>
	<linearGradient id="XMLID_9_" x1="147.12" x2="172.12" y1="92.332" y2="92.332" gradientUnits="userSpaceOnUse">
		<stop stop-color="#00487C" offset="0"/>
		<stop stop-color="#006CB7" offset="1"/>
	</linearGradient>
	<path id="XMLID_158_" class="st6" d="m172.21 25.7v-1.3s-24.85 13.24-35.37 35.38c0 0 9.36-8.22 15.56-10.67 0 0 0.99-0.29 1.55-0.29 2.4 0 4.34 1.94 4.34 4.34 0 0-0.23 81.09-0.48 83.59-1.5 4.48-3.24 8.46-5.12 12.03 1.03 1.34 4.5 5.93 7.95 11.49 4.61-5.66 8.5-12.74 10.78-21.59 0.55-2.15 0.8-4.36 0.8-6.58l-0.01-106.4z"/>
	
		<linearGradient id="XMLID_15_" x1="-420.42" x2="-438.78" y1="52.341" y2="18.811" gradientTransform="matrix(-1 0 0 1 -262.07 0)" gradientUnits="userSpaceOnUse">
		<stop stop-color="#006CB7" offset="0"/>
		<stop stop-color="#00487C" offset=".814"/>
	</linearGradient>
	<path id="XMLID_157_" class="st7" d="m134.5 64.23c3.21-8.05 9.99-22.02 21.07-32 1.24-1.12 2.37-2.09 3.43-2.97 0.67-0.6 1.54-1.28 2.52-1.99 2.05-1.54 3.71-2.59 5.05-3.26 1.8-1.01 3.44-1.76 4.44-1.89 1.41-0.18 1.21 1.23 1.21 2.63 0 0.03-0.01 14.21-0.01 14.21l0.08 21.22s-6.26-13.78-13.97-12.95c-9.67 1.04-15.75 9.75-15.75 9.75l-5.95 7.49c-1.05 1.13-2.69 1.19-2.12-0.24z"/>
	<linearGradient id="XMLID_17_" x1="50.03" x2="13.484" y1="165.66" y2="41.809" gradientUnits="userSpaceOnUse">
		<stop stop-color="#FFE700" offset=".29"/>
		<stop stop-color="#FFCE00" offset=".6981"/>
		<stop stop-color="#FDCA00" offset=".7065"/>
		<stop stop-color="#EFAE00" offset=".7825"/>
		<stop stop-color="#E49A00" offset=".8577"/>
		<stop stop-color="#DE8E00" offset=".9309"/>
		<stop stop-color="#DC8A00" offset="1"/>
	</linearGradient>
	<path id="XMLID_153_" class="st8" d="m37.72 58.73c-0.99-0.89-9.62-8.59-15.46-10.99-0.13-0.05-0.26-0.08-0.4-0.1-0.52-0.05-1.84-0.18-2.29-0.18-2.4 0-3.21 2.34-3.21 4.74l-0.02 0.8s19.42 7.53 23.37 84.28c0.03 0.56-0.34 0.97-0.77 1.33-2.61 2.12-6.2 6.85-12.69 17.33-0.46 0.75 17.81-12.34 26.7-14.88 0.65-0.19 1.08-0.79 1.01-1.47-0.89-9.23-7.02-69.26-16.09-80.67-0.04-0.08-0.09-0.13-0.15-0.19z"/>
	<radialGradient id="XMLID_18_" cx="86.906" cy="162.85" r="25.758" gradientUnits="userSpaceOnUse">
		<stop stop-color="#FFCE00" offset=".401"/>
		<stop stop-color="#FDCA00" offset=".4176"/>
		<stop stop-color="#EFAE00" offset=".5685"/>
		<stop stop-color="#E49A00" offset=".7177"/>
		<stop stop-color="#DE8E00" offset=".863"/>
		<stop stop-color="#DC8A00" offset="1"/>
	</radialGradient>
	<path id="XMLID_142_" class="st9" d="m87.61 143.86c0.04-0.26-7.88 17.72-14.55 32.18 4.37-1.67 9.31-2.69 14.27-2.69 5.1 0 10.06 0.96 14.54 2.72l-14.26-32.21zm0 26.07c-2.96 0-8.32 1.03-8.32 1.03l8.3-19.28 8.4 19.3c-0.01-0.01-5.41-1.05-8.38-1.05z"/>
	<path id="XMLID_141_" class="st10" d="m53.79 140.88"/>
	
		<linearGradient id="XMLID_19_" x1="-1201.4" x2="-1041.1" y1="173.06" y2="152.1" gradientTransform="translate(1121)" gradientUnits="userSpaceOnUse">
		<stop stop-color="#FFE700" offset=".29"/>
		<stop stop-color="#FFCE00" offset=".6981"/>
		<stop stop-color="#FDCA00" offset=".7065"/>
		<stop stop-color="#EFAE00" offset=".7825"/>
		<stop stop-color="#E49A00" offset=".8577"/>
		<stop stop-color="#DE8E00" offset=".9309"/>
		<stop stop-color="#DC8A00" offset="1"/>
	</linearGradient>
	<path id="XMLID_139_" class="st11" d="m7.6 185.9c2.5-10 15.63-42.88 43.82-54.43 0.91-0.37 1.8 0.05 1.78 0.71l0.71 6.97c0.08 0.84-0.32 2.96-1.14 3.15-3.31 0.77-15.45 6.88-24.4 13.25-1.51 1.09-21.22 32.17-20.77 30.35z"/>
	
		<linearGradient id="XMLID_20_" x1="-1638.4" x2="-1478.1" y1="173.06" y2="152.1" gradientTransform="matrix(-1 0 0 1 -1382.8 0)" gradientUnits="userSpaceOnUse">
		<stop stop-color="#FFE700" offset=".29"/>
		<stop stop-color="#FFCE00" offset=".6981"/>
		<stop stop-color="#FDCA00" offset=".7065"/>
		<stop stop-color="#EFAE00" offset=".7825"/>
		<stop stop-color="#E49A00" offset=".8577"/>
		<stop stop-color="#DE8E00" offset=".9309"/>
		<stop stop-color="#DC8A00" offset="1"/>
	</linearGradient>
	<path id="XMLID_73_" class="st12" d="m167.64 185.9c-2.5-10-15.63-42.88-43.82-54.43-0.91-0.37-1.8 0.05-1.78 0.71l-0.71 6.97c-0.08 0.84 0.32 2.96 1.14 3.15 3.31 0.77 15.45 6.88 24.4 13.25 1.52 1.09 21.23 32.17 20.77 30.35z"/>
	<linearGradient id="XMLID_21_" x1="94.135" x2="94.135" y1="185.98" y2="185.98" gradientUnits="userSpaceOnUse">
		<stop stop-color="#006CB7" offset="0"/>
		<stop stop-color="#00487C" offset=".814"/>
	</linearGradient>
	<path id="XMLID_72_" class="st13" d="m94.14 185.98"/>
	<linearGradient id="XMLID_22_" x1="62.493" x2="131.31" y1="101.34" y2="91.373" gradientUnits="userSpaceOnUse">
		<stop stop-color="#006CB7" offset="0"/>
		<stop stop-color="#00487C" offset=".814"/>
	</linearGradient>
	<path id="XMLID_69_" class="st14" d="m73.23 175.91c5.99-12.58 12.5-27.51 12.59-27.71l1.75-4.01 0.02 0.04v-142.02c-0.14 0.11-0.23 0.18-0.3 0.26-0.24 0.27-0.47 0.53-0.69 0.8-6.66 8.27-9.88 17.72-9.6 28.34 0.16 6.15 0.4 12.3 0.8 18.44 0.36 5.52 0.7 11.03 1.05 16.55s0.75 11.03 1.06 16.55c0.33 5.91 0.49 11.83 0.61 17.74 0.18 8.96-0.75 17.8-2.56 26.56-1.67 8.05-4.02 15.9-6.75 23.65-1.52 4.33-3.01 8.68-4.9 12.86-2.02 4.49-4.35 8.83-6.66 13.18-2.06 4.15-6.29 13.07-8.87 21.38 3.91-10.37 12.12-18.63 22.45-22.61z"/>
	<linearGradient id="XMLID_23_" x1="105.76" x2="51.626" y1="106.69" y2="165.67" gradientUnits="userSpaceOnUse">
		<stop stop-color="#006CB7" offset="0"/>
		<stop stop-color="#00487C" offset=".814"/>
	</linearGradient>
	<path id="XMLID_68_" class="st15" d="m123.19 197.39c1.49 3.61 2.45 7.5 2.79 11.56 0.05-0.23 0.06-0.48 0.05-0.79-0.45-11.3-11.87-33.76-11.95-33.9-1.02-1.95-2.03-3.9-3.04-5.85-0.8-1.56-1.65-3.1-2.3-4.72-4.15-10.37-7.9-20.88-10.51-31.76-2.27-9.5-3.63-19.11-3.58-28.89 0.02-3.54 0.12-7.09 0.23-10.63 0.2-6.58 0.61-13.15 1.03-19.71 0.4-6.37 0.88-12.74 1.29-19.11 0.38-5.95 0.7-11.89 0.88-17.85 0.1-3.31 0.25-6.61-0.1-9.92-0.92-8.7-4.23-16.36-9.82-23.05-0.15-0.18-0.56-0.55-0.58-0.54v142.01l14.23 31.92c9.67 3.91 17.4 11.59 21.38 21.23z"/>
	<g id="XMLID_64_">
		<radialGradient id="XMLID_24_" cx="87.212" cy="212.23" r="38.995" gradientUnits="userSpaceOnUse">
			<stop stop-color="#006CB7" offset="0"/>
			<stop stop-color="#00487C" offset="1"/>
		</radialGradient>
		<path id="XMLID_67_" class="st16" d="m123.26 197.36c-5.85-14.16-19.78-24.13-36.05-24.13-21.54 0-38.99 17.46-38.99 38.99 0 9.57 3.46 18.34 9.18 25.12 7.15 8.48 17.85 13.87 29.81 13.87 21.54 0 38.99-17.46 38.99-38.99 0.01-5.26-1.04-10.28-2.94-14.86z"/>
		<radialGradient id="XMLID_25_" cx="49.475" cy="221.73" r="55.594" gradientUnits="userSpaceOnUse">
			<stop stop-color="#006CB7" offset="0"/>
			<stop stop-color="#005897" offset=".5548"/>
			<stop stop-color="#00487C" offset="1"/>
		</radialGradient>
		<path id="XMLID_65_" class="st17" d="m87.21 251.22c21.54 0 38.99-17.46 38.99-38.99 0-5.27-1.05-10.29-2.94-14.87l-0.16-0.18s3.41 41.37-28.77 46.22c0 0-34.53 4.41-34.24-29.39 0 0 0.2-13.52 8-20.72 5.23-4.62 12.15-7.43 19.75-7.43 11.16 0 20.86 6.06 25.88 15-3.13-11.91-14.69-20.76-28.47-20.76-10.44 0-19.6 5.08-24.8 12.72h-0.01s-14.61 18.08-3.05 44.52c7.16 8.49 17.86 13.88 29.82 13.88z"/>
	</g>
	<circle id="XMLID_63_" class="st18" cx="87.21" cy="212.25" r="27.13"/>
	<linearGradient id="XMLID_26_" x1="65.159" x2="109.26" y1="211.85" y2="211.85" gradientUnits="userSpaceOnUse">
		<stop stop-color="#006CB7" offset="0"/>
		<stop stop-color="#00487C" offset=".814"/>
	</linearGradient>
	<path id="XMLID_38_" class="st19" d="m79.52 233.23c-3.69-1.38-6.92-3.71-9.37-6.7l0.72-4.29 8.04 1.83 4.52 6.9-3.91 2.26zm7.49-42.77h0.54 0.06c0.16 0 0.33 0.01 0.49 0.01h0.04 0.01l0.48 0.03 0.15 0.01c0.13 0.01 0.25 0.02 0.38 0.03l0.2 0.02c0.13 0.01 0.27 0.03 0.4 0.04l0.14 0.02 0.3 0.04c0.14 0.02 0.27 0.04 0.41 0.06l0.11 0.02 0.26 0.04 0.08 0.01h0.02l0.14 0.03 0.08 0.01h0.01c0.1 0.02 0.19 0.04 0.29 0.06l0.26 0.06 0.4 0.1 2.44 5.05-7.62 3.16-7.68-3.01 2.34-5.09 0.4-0.1 0.26-0.06 0.29-0.06h0.01l0.08-0.02 0.14-0.03h0.02l0.08-0.02 0.26-0.05 0.11-0.02c0.13-0.02 0.27-0.05 0.4-0.07l0.3-0.04 0.14-0.02c0.13-0.02 0.27-0.03 0.4-0.05l0.2-0.02c0.13-0.01 0.25-0.03 0.38-0.04l0.15-0.01c0.16-0.01 0.32-0.03 0.48-0.04h0.01 0.04c0.16-0.01 0.33-0.02 0.49-0.02h0.06c0.21-0.02 0.39-0.03 0.57-0.03zm-21.85 21.27c0.14-3.86 1.27-7.47 3.15-10.58l5.12-0.65 0.57 8.23-5.31 6.32-3.53-3.32zm21.98-7.38 8.32 5.92-3.06 9.76-10.22 0.1-1.63-4.85-1.63-4.84 4.11-3.04 4.11-3.05zm18.77-3.57c1.94 3.07 3.14 6.66 3.35 10.52l-3.46 3.39-5.43-6.21 0.41-8.24 5.13 0.54zm-1.35 25.42c-2.4 3.04-5.58 5.44-9.24 6.88l-3.96-2.18 4.39-6.99 8.01-1.99 0.8 4.28z"/>
	<linearGradient id="XMLID_27_" x1="86.72" x2="86.72" y1="183.68" y2="241.42" gradientUnits="userSpaceOnUse">
		<stop stop-color="#FFE700" offset=".29"/>
		<stop stop-color="#FFCE00" offset=".6981"/>
		<stop stop-color="#FDCA00" offset=".7065"/>
		<stop stop-color="#EFAE00" offset=".7825"/>
		<stop stop-color="#E49A00" offset=".8577"/>
		<stop stop-color="#DE8E00" offset=".9309"/>
		<stop stop-color="#DC8A00" offset="1"/>
	</linearGradient>
	<path id="XMLID_35_" class="st20" d="m86.72 241.42c-15.92 0-28.87-12.95-28.87-28.87s12.95-28.87 28.87-28.87 28.87 12.95 28.87 28.87-12.95 28.87-28.87 28.87zm0-54.37c-14.06 0-25.5 11.44-25.5 25.5s11.44 25.5 25.5 25.5 25.5-11.44 25.5-25.5-11.44-25.5-25.5-25.5z"/>
	<g id="XMLID_33_">
		<linearGradient id="XMLID_30_" x1="125.07" x2="138.16" y1="190.36" y2="190.36" gradientUnits="userSpaceOnUse">
			<stop stop-color="#00487C" offset=".0283"/>
			<stop stop-color="#00497D" offset=".4573"/>
			<stop stop-color="#004B81" offset=".6118"/>
			<stop stop-color="#004F87" offset=".722"/>
			<stop stop-color="#005591" offset=".811"/>
			<stop stop-color="#005C9D" offset=".8873"/>
			<stop stop-color="#0065AB" offset=".9536"/>
			<stop stop-color="#006CB7" offset="1"/>
		</linearGradient>
		<path id="XMLID_34_" class="st21" d="m139.28 187.24c-2.56 1.32-6.32 2.6-10.81 2.09-1.19-0.13-2.35-0.23-3.5-0.31 0.6 1.51 1.18 3.03 1.71 4.49 4.59-1.32 9.29-3.15 12.91-5.66 0.3-0.21 0.02-0.78-0.31-0.61z"/>
	</g>
	<g id="XMLID_31_">
		<linearGradient id="XMLID_42_" x1="3.0366" x2="38.414" y1="92.344" y2="92.344" gradientUnits="userSpaceOnUse">
			<stop stop-color="#006CB7" offset="0"/>
			<stop stop-color="#00487C" offset=".814"/>
		</linearGradient>
		<path id="XMLID_32_" class="st22" d="m22.57 148.78c-1.88-3.57-3.62-7.55-5.12-12.02-0.25-2.5-0.48-83.59-0.48-83.59 0-2.4 1.94-4.34 4.34-4.34 0.56 0 1.55 0.29 1.55 0.29 6.19 2.45 15.56 10.67 15.56 10.67-10.53-22.15-35.38-35.39-35.38-35.39v1.31 106.39c0 2.22 0.24 4.43 0.8 6.58 2.29 8.86 6.18 15.95 10.8 21.61 3.76-6.1 7.38-10.81 7.93-11.51z"/>
	</g>
	<g id="XMLID_28_">
		<linearGradient id="XMLID_43_" x1="33.991" x2="73.124" y1="190.15" y2="191.04" gradientUnits="userSpaceOnUse">
			<stop stop-color="#006CB7" offset="0"/>
			<stop stop-color="#0065AB" offset=".0464"/>
			<stop stop-color="#005C9D" offset=".1127"/>
			<stop stop-color="#005591" offset=".189"/>
			<stop stop-color="#004F87" offset=".278"/>
			<stop stop-color="#004B81" offset=".3882"/>
			<stop stop-color="#00497D" offset=".5427"/>
			<stop stop-color="#00487C" offset=".9717"/>
		</linearGradient>
		<path id="XMLID_29_" class="st23" d="m49.98 189.03c-1.1 0.08-2.22 0.17-3.36 0.3-4.49 0.51-8.25-0.77-10.81-2.09-0.33-0.17-0.61 0.4-0.3 0.61 3.58 2.48 8.21 4.3 12.74 5.61 0.52-1.42 1.11-2.92 1.73-4.43z"/>
	</g>
	<g id="XMLID_14_">
		<linearGradient id="XMLID_44_" x1="54.766" x2="4.0511" y1="174.38" y2="224.43" gradientUnits="userSpaceOnUse">
			<stop stop-color="#006CB7" offset="0"/>
			<stop stop-color="#00487C" offset=".814"/>
		</linearGradient>
		<path id="XMLID_16_" class="st24" d="m44.28 214.28h-24.12c-2.86 0.03-2.46-3.85-2.46-3.85-0.01-0.7 1.32-18.94 13.14-40.66 5.37-9.87 12.56-19.78 22.68-27.86 0.85-0.68 0.45-2.53 0.37-3.2-12.9 3.43-35.16 17.25-45.66 45.07-3.76 9.97-6.02 21.74-5.8 35.48 0 0.08 0.01 0.16 0.01 0.24 0.26 5.04 5.56 8.96 9.55 8.96h35.36c-2.23-5.3-2.89-10.77-3.07-14.18z"/>
	</g>
	<g id="XMLID_12_">
		<linearGradient id="XMLID_45_" x1="170.34" x2="119.61" y1="223.96" y2="173.94" gradientUnits="userSpaceOnUse">
			<stop stop-color="#00487C" offset=".186"/>
			<stop stop-color="#006CB7" offset="1"/>
		</linearGradient>
		<path id="XMLID_13_" class="st25" d="m167.03 183.79c-10.5-27.82-32.76-41.64-45.66-45.07-0.08 0.67-0.48 2.52 0.37 3.2 10.12 8.08 17.3 17.99 22.68 27.86 11.82 21.72 13.15 39.96 13.14 40.66 0 0 0.4 3.88-2.46 3.85h-24.93c-0.17 3.44-0.85 8.72-3.12 14.19h36.22c3.99 0 9.29-3.92 9.55-8.96 0-0.08 0.01-0.16 0.01-0.24 0.22-13.75-2.04-25.52-5.8-35.49z"/>
	</g>
	<linearGradient id="XMLID_46_" x1="16.905" x2="-1.4543" y1="52.341" y2="18.811" gradientUnits="userSpaceOnUse">
		<stop stop-color="#006CB7" offset="0"/>
		<stop stop-color="#00487C" offset=".814"/>
	</linearGradient>
	<path id="XMLID_11_" class="st26" d="m40.75 64.23c-3.21-8.05-9.99-22.02-21.07-32-1.24-1.12-2.37-2.09-3.43-2.97-0.67-0.6-1.54-1.28-2.52-1.99-2.05-1.54-3.71-2.59-5.05-3.26-1.8-1.01-3.44-1.76-4.44-1.89-1.41-0.18-1.21 1.23-1.21 2.63 0 0.03 0.01 14.21 0.01 14.21l-0.07 21.22s6.26-13.78 13.97-12.95c9.67 1.04 15.75 9.75 15.75 9.75l5.95 7.49c1.05 1.13 2.68 1.19 2.11-0.24z"/>
	<linearGradient id="XMLID_47_" x1="34.208" x2="55.192" y1="176.17" y2="176.17" gradientUnits="userSpaceOnUse">
		<stop stop-color="#006CB7" offset="0"/>
		<stop stop-color="#00487C" offset=".814"/>
	</linearGradient>
	<path id="XMLID_10_" class="st27" d="m38.47 168.35c-0.82 1.47-2.48 4.72-4.27 9.46 4.42 2.59 9.69 5.24 13.59 5.81 1.6 0.23 3.04 0.34 4.32 0.36 1.26-2.89 2.41-5.39 3.07-6.8-3.89-1.13-10.14-3.61-16.71-8.83z"/>
	<linearGradient id="XMLID_48_" x1="126.05" x2="140.93" y1="176.2" y2="176.2" gradientUnits="userSpaceOnUse">
		<stop stop-color="#00487C" offset="0"/>
		<stop stop-color="#006CB7" offset="1"/>
	</linearGradient>
	<path id="XMLID_8_" class="st28" d="m136.72 168.4c-6.62 5.24-12.9 7.71-16.79 8.83 0.7 1.55 1.79 3.99 2.97 6.76 1.33-0.02 2.85-0.12 4.55-0.37 3.89-0.57 9.13-3.19 13.54-5.77-1.68-4.45-3.31-7.69-4.27-9.45z"/>


<rect class="st30" x="2.42" y="357.21" width="170.43" height="4.88"/>
<path d="m100.17 345.65c-1.4151-0.46336-2.7962-1.4098-3.9199-2.6864l-0.99392-1.1291-0.49392-1.3201-0.49393-1.3201-0.14516-1.7212-0.14517-1.7212 0.29539-1.4212c0.16246-0.78168 0.49712-1.8918 0.74369-2.4671l0.4483-1.0458 1.1195-1.1968 1.1195-1.1968 2.5616-1.2118 3.5843-0.55724 1.5888 0.26326 1.5888 0.26328 2.5208 1.1608 2.029 2.0402 1.2038 2.4835 0.51798 3.3986-0.26439 1.6674-0.26438 1.6674-0.56742 1.2445-0.56742 1.2445-1.0141 1.1002-1.0141 1.1002-3.1751 1.5631-5.3007 0.113zm5.3584-2.9371c1.1214-0.46843 2.1287-1.4138 2.7098-2.5434l0.44901-0.87276 0.22283-1.4118 0.22281-1.4118-0.18964-1.3226c-0.23466-1.6366-0.57638-2.5356-1.3487-3.5482l-0.59863-0.78484-1.9711-1.0056-1.3452 4e-3c-1.626 4e-3 -2.3509 0.26213-3.4524 1.2293l-0.83802 0.7358-1.1259 2.5285 0.012 4.3286 0.5385 1.1994c0.67786 1.5098 1.339 2.2318 2.5591 2.795l0.96192 0.44395 2.3 0.01 0.89408-0.37348zm-72.448 2.0079 0.64822-0.77036-1.3964-0.31714-1.3964-0.31715-1.0138-0.59415c-0.55761-0.32678-1.398-1.043-1.8676-1.5916l-0.85378-0.99745-0.35613-1.1084c-0.19588-0.60965-0.42601-1.6076-0.51141-2.2177l-0.15527-1.1093 0.37712-1.472 0.37711-1.472 0.63735-0.96311 0.63736-0.96311 1.0978-0.72718c1.0045-0.66534 1.5498-0.87001 3.471-1.3027l0.66131-0.14893v-0.23386c0-0.12863-0.21643-0.36903-0.48095-0.53422-0.26453-0.1652-0.48096-0.38256-0.48096-0.483v-0.18263h5.531v0.16485c0 0.0907-0.22512 0.40449-0.50027 0.69737l-0.50027 0.53251 1.2296 0.26371c2.5167 0.53975 4.1915 1.7335 5.2642 3.7523l0.63889 1.2024-9e-3 2.2846-9e-3 2.2845-0.64165 1.2332c-0.3529 0.67827-0.99755 1.5891-1.4325 2.0241l-0.79089 0.79088-1.2038 0.54453c-0.66213 0.29949-1.6097 0.61811-2.1057 0.70804-1.042 0.18893-1.0803 0.29915-0.40338 1.1597l0.49841 0.63362h-5.6087l0.64822-0.77037zm0.49287-13.362c-0.23423-0.23423-1.3276 0.20583-2.0759 0.83551l-0.77419 0.65144-0.88292 1.9437v2.8858l0.44813 0.98675c0.24647 0.54272 0.75811 1.276 1.137 1.6296l0.68887 0.64283 1.4429 0.3789 0.0651-4.9202c0.0358-2.7061 0.0138-4.9716-0.0489-5.0343zm4.3715 9.674c1.6269-0.67978 2.5188-1.9418 2.8276-4.0012l0.16696-1.1134-0.78144-2.6881-0.78885-0.78884-0.78884-0.78884-1.7766-0.54528v5.1478c0 2.8313 0.0576 5.1478 0.12797 5.1478 0.0704 0 0.52633-0.16645 1.0132-0.36989zm10.793 4.1574c0.0986-0.16532 0.48249-0.68235 0.85315-1.1489l0.67394-0.84834 0.84439-2.094c0.46441-1.1517 0.84438-2.1497 0.84438-2.2178 0-0.0681-0.51989-0.12372-1.1553-0.12372h-1.1553l-3.9849-9.018-0.82012-1.1428c-0.45107-0.62855-0.82013-1.1967-0.82013-1.2625 0-0.0658 1.4141-0.11968 3.1424-0.11968h3.1424l-0.19509 0.54107c-0.10731 0.29759-0.19137 0.92159-0.18682 1.3866l8e-3 0.84557 1.4127 3.3031c0.77698 1.8167 1.4451 3.2707 1.4847 3.2311 0.0396-0.0396 0.63309-1.5277 1.3189-3.307l1.2469-3.235 0.0404-2.7655h2.9499c1.6224 0 2.9499 0.0653 2.9499 0.14502 0 0.0798-0.4702 0.668-1.0449 1.3072l-1.0449 1.1622-1.1484 3.0816c-0.63162 1.6948-1.286 3.4062-1.4543 3.803-0.69245 1.6332-2.0806 5.7089-2.2045 6.4727l-0.13306 0.81999 0.7407 1.4848h-6.4844zm17.241-0.41382 0.60115-0.71441 0.26191-1.2213 0.26191-1.2212v-11.519h-0.85543c-0.47048 0-1.3257 0.11843-1.9006 0.26317l-1.0452 0.26317-0.66943 0.69875c-0.3682 0.3843-0.76231 0.69874-0.87583 0.69874h-0.20638l0.12136-0.78155c0.0668-0.42986 0.18848-1.512 0.27052-2.4048l0.14915-1.6232h13.669l2e-3 0.30059c1e-3 0.16533 0.10681 1.2138 0.23513 2.33s0.17998 2.0827 0.11481 2.1479c-0.0652 0.0652-0.46857-0.21595-0.89644-0.62472l-0.77794-0.74322-0.96192-0.26104c-0.52905-0.14358-1.3781-0.26166-1.8868-0.26239l-0.92486-2e-3 0.1974 12.866 0.30113 0.72144c0.16562 0.3968 0.52921 0.96493 0.80799 1.2625l0.50685 0.54107h-7.1005l0.60114-0.71441zm12.293 0.24939c0.23147-0.25578 0.56814-0.87802 0.74816-1.3828l0.32729-0.91773 0.0106-6.2767 0.0106-6.2767-0.27379-0.81744c-0.15059-0.44959-0.47524-1.0408-0.72144-1.3139-0.24621-0.27305-0.44765-0.57065-0.44765-0.66132v-0.16485h12.483l0.12136 0.78155c0.0667 0.42986 0.18958 1.5391 0.27294 2.4649l0.15157 1.6834-1.6062-1.4986-1.6349-0.54546h-4.4973v4.0172l2.2244 0.15741c2.7583 0.19518 3.7009 0.4503 4.9162 1.3307l0.95435 0.69132 0.45543 0.92974 0.45542 0.92975-0.022 3.1262-0.49538 1.1082-0.49539 1.1082-0.82665 0.63051c-0.45466 0.34679-1.2927 0.79497-1.8624 0.99595l-1.0358 0.36544h-9.6332zm8.8603-2.7696c1.0719-0.70232 1.4668-2.5054 0.84671-3.8662l-0.2873-0.63055-0.66268-0.34268-0.66267-0.34269h-3.1501v5.8412l1.6686-0.13989 1.6686-0.13988zm26.983 1.6626 1.0763-1.572 1.9167-5.9429c1.0542-3.2686 1.9838-6.2252 2.0659-6.5701l0.14914-0.62717-0.37822-0.90519c-0.20801-0.49786-0.37822-0.94609-0.37822-0.99607 0-0.05 1.6348-0.0909 3.6329-0.0909h3.6329l-0.18688 0.42084c-0.10278 0.23145-0.23312 0.87616-0.28962 1.4327l-0.10274 1.0118 1.9748 5.962 1.9748 5.962 0.60554 1.0822c0.33305 0.59518 0.88199 1.3797 1.2199 1.7435l0.61432 0.66131h-6.2967l0.22802-1.8036-1.4266-4.6894c-0.7846-2.5791-1.5638-5.2717-1.7316-5.9836l-0.30503-1.2942-0.54225 2.1359c-0.29823 1.1747-1.048 3.7591-1.6662 5.7431l-1.124 3.6072-0.0135 0.87939c-7e-3 0.48366 0.0595 0.99769 0.14888 1.1423l0.16247 0.26287h-6.0372l1.0763-1.572zm20.456 0.352c0.78153-1.0647 1.8334-3.2686 2.3731-4.9723l0.17141-0.54107h-2.3431l-3.9849-9.018-0.82012-1.1428c-0.45107-0.62855-0.82013-1.1967-0.82013-1.2625 0-0.0658 1.4184-0.11968 3.152-0.11968h3.152l-0.16281 0.42083c-0.0895 0.23146-0.22017 0.70498-0.29029 1.0523l-0.12749 0.63143 0.88665 2.2161c0.48765 1.2188 1.1799 2.8729 1.5384 3.6757l0.65177 1.4596 1.2896-3.3452 1.2896-3.3452 0.0217-1.3825 0.0217-1.3825 5.8917-4.8e-4v0.19549c0 0.10752-0.33473 0.51333-0.74386 0.9018-0.40912 0.38847-1.0135 1.2349-1.3431 1.881-0.75206 1.4742-4.6529 12.032-4.8165 13.036l-0.12126 0.74433 0.39233 0.75866 0.39231 0.75866h-6.5462zm-49.311-25.654-0.48096-0.90114-2.146-1.0822h-13.638l0.47004-0.66131c0.25852-0.36373 0.58994-1.0942 0.73647-1.6232l0.26643-0.96191 1e-3 -5.8454 1e-3 -5.8454-0.5306-2.1072-0.45614-0.41279c-0.25108-0.22705-0.45634-0.50425-0.45634-0.61602v-0.2032h3.2465c1.7856 0 3.246 0.0271 3.2454 0.0601-4.8e-4 0.0331-0.27109 0.59249-0.60119 1.2432l-0.60019 1.183v12.904h6.2803l-0.074-6.6733-0.0741-6.6733-0.54108-0.91554c-0.29759-0.50356-0.54107-0.96347-0.54107-1.022 0-0.0585 1.4609-0.1065 3.2465-0.1065h3.2465v0.16486c0 0.0907-0.20144 0.38827-0.44765 0.66132-0.2462 0.27305-0.57085 0.86431-0.72144 1.3139l-0.27379 0.81744v12.433h2.8858v0.23598c0 0.56987-1.2586 5.5355-1.4029 5.5349-0.0881-2.4e-4 -0.37664-0.40616-0.64117-0.90179zm46.756 0.0243c-0.32144-0.48822-0.88974-1.1126-1.2629-1.3875l-0.67847-0.49981-7.077-0.0703c-3.8923-0.0387-7.077-0.12426-7.077-0.1901 0-0.0659 0.24348-0.44882 0.54108-0.85106l0.54107-0.73135 0.0705-6.9561 0.0705-6.9561-0.53922-1.1404c-0.29656-0.62721-0.58081-1.2215-0.63164-1.3207l-0.0924-0.18037h3.2665c1.7966 0 3.2665 0.0584 3.2665 0.12998 0 0.0715-0.22389 0.43282-0.49755 0.80294-0.27365 0.37014-0.59572 1.0962-0.7157 1.6135l-0.21815 0.94053-5e-3 5.9518-5e-3 5.9519h6.4929l-5e-3 -5.8316-5e-3 -5.8316-0.24306-1.0822c-0.13368-0.59519-0.45568-1.3754-0.71556-1.7337s-0.4725-0.71007-0.4725-0.78156c0-0.0715 1.4609-0.12998 3.2465-0.12998 1.7856 0 3.2465 0.0584 3.2465 0.12998 0 0.0715-0.21517 0.42319-0.47816 0.78156l-0.47817 0.65158-0.24327 1.2953-0.24328 1.2953v11.237h3.1777l-0.11388 0.30059c-0.0626 0.16533-0.35647 1.3828-0.65298 2.7054-0.2965 1.3226-0.61608 2.4881-0.71017 2.5899l-0.17106 0.1851zm-94.219-1.7858c-2.2328-0.4388-4.3068-1.8906-5.6417-3.9492l-0.62377-0.96192-0.39977-1.5631-0.39978-1.5631 0.24976-3.8477 1.0903-2.8822 2.6908-2.6908 2.8822-1.1179 4.8462-0.21415 1.3602 0.28239c0.74814 0.15531 1.404 0.35627 1.4575 0.44657 0.0535 0.0903 0.17471 1.1922 0.26941 2.4487l0.17218 2.2846-0.80629-0.75464c-0.44347-0.41504-1.1851-0.95397-1.648-1.1976l-0.84167-0.44299-3.6449-0.01-2.3161 1.4429-0.69307 1.2325-0.69307 1.2325-0.149 1.5957-0.14901 1.5957 0.41341 1.5272 0.4134 1.5272 1.4937 1.8122 1.9578 0.88924h2.8858l2.1643-0.97695 2.1035-2.0185-0.15979 1.6834c-0.0879 0.92584-0.22112 2.0755-0.29608 2.5548l-0.1363 0.87149-0.8759 0.25904c-2.3552 0.69652-5.0188 0.88908-6.9764 0.50435zm15.909-0.077c-0.55735-0.1812-1.4975-0.61319-2.0892-0.95995l-1.0758-0.63047-0.85207-1.0398c-0.46864-0.57192-1.0976-1.5723-1.3978-2.2231l-0.54568-1.1832v-6.2626l1.5778-3.205 1.2067-1.0849 1.2067-1.0849 2.7422-1.0717 5.2905-0.016 1.4411 0.56986 1.4411 0.56987 2.6908 2.6908 1.0903 2.8822 0.24976 3.8477-0.39937 1.5572c-0.47428 1.8493-1.2707 3.2816-2.4935 4.4845l-0.89401 0.87944-3.1262 1.4853-5.0501 0.124-1.0134-0.32948zm5.6283-3.1588 1.2224-0.60916 0.66512-0.95977 0.66512-0.95976 0.32399-1.249c0.17819-0.68694 0.32398-1.7429 0.32398-2.3466 0-0.60367-0.14579-1.6596-0.32398-2.3466l-0.32399-1.249-0.64123-0.9253-0.64124-0.92532-0.89849-0.49774c-0.49417-0.27376-1.3395-0.5697-1.8785-0.65766l-0.98003-0.15992-2.3416 0.58962-2.0392 2.0392-0.75328 2.5366v3.5018l0.48037 1.2839 0.48038 1.2839 0.78213 0.75648c0.43018 0.41606 1.1609 0.92028 1.6238 1.1205l0.84168 0.364 2.1901 0.018 1.2224-0.60916zm85.745 3.0779c-1.0912-0.20605-1.984-0.4546-1.984-0.55233 0-0.0977 0.29759-0.36731 0.66132-0.59903s0.90427-0.70408 1.2012-1.0497c0.64402-0.74958 2.9471-4.6698 2.9471-5.0165 0-0.13359-0.32515-0.37756-0.72255-0.54217-0.94311-0.39066-2.0365-1.6524-2.4084-2.7792l-0.29607-0.89709 0.11843-1.4753 0.11842-1.4753 0.51068-1.001 0.51069-1.001 0.79316-0.60498 0.79315-0.60496 2.8478-0.74176h8.5562v0.21104c0 0.11606-0.16341 0.34665-0.36314 0.51242l-0.36315 0.30138-0.37622 1.2942-0.37623 1.2942 0.0822 6.1893 0.0822 6.1893 0.46127 0.9018c0.25371 0.49598 0.54945 0.90179 0.65721 0.90179 0.10777 0 0.19594 0.10822 0.19594 0.24048v0.24048h-3.1262c-1.7194 0-3.1262-0.0423-3.1262-0.094s0.21406-0.56571 0.47567-1.1423l0.47569-1.0483 5e-3 -6.553 6e-3 -6.553-3.006 0.00192-0.76845 0.46856-0.76847 0.46855-0.56939 1.9004 0.15505 0.82642 0.15503 0.82641 0.5374 0.5034c0.73453 0.68807 1.69 1.0164 2.9578 1.0164 0.58658 0 1.0665 0.0524 1.0665 0.11654 0 0.0641-0.95222 1.8242-2.1161 3.9114-1.1638 2.0872-2.2873 4.2261-2.4966 4.7532l-0.3805 0.95826-0.56954 0.0389c-0.31324 0.0214-1.4623-0.12966-2.5535-0.3357zm-132.8-0.20021c0-0.075 0.25818-0.48077 0.57373-0.9018 0.98734-1.3174 1.546-2.648 3.6425-8.6752l2.0362-5.854v-1.5236l-0.77675-1.1855h3.6348c1.9992 0 3.6348 0.0417 3.6348 0.0927s-0.16165 0.40272-0.35923 0.78155c-0.19759 0.37885-0.35991 0.88063-0.36072 1.1151-7.2e-4 0.23444 1.0266 3.3147 2.2832 6.8451l2.2847 6.4188 0.90163 1.3312c0.49589 0.73217 0.93769 1.4124 0.98178 1.5116l0.0802 0.18036h-6.0103l0.5003-1.3254-0.33889-1.201-0.33888-1.201-6.556-0.1336-0.28938 0.87685-0.28939 0.87684 0.11876 1.0536 0.11876 1.0536h-2.736c-1.5048 0-2.736-0.0614-2.736-0.13627zm11.219-6.8977c-0.21768-0.52888-2.0304-6.0538-2.1501-6.553l-0.11527-0.48096-0.0279 0.55132c-0.0154 0.30323-0.46076 1.8818-0.98982 3.508-0.52905 1.6262-0.96191 3.0284-0.96191 3.116v0.15929h4.3687zm65.495 6.9739c4.8e-4 -0.0331 0.27109-0.59249 0.6012-1.2432l0.60019-1.183v-13.304l-0.60019-1.183c-0.33011-0.65066-0.60065-1.2101-0.6012-1.2432-4.8e-4 -0.0331 1.4599-0.0601 3.2455-0.0601h3.2465v0.21104c0 0.11606-0.16341 0.34665-0.36314 0.51241l-0.36315 0.30138-0.37622 1.2942-0.37623 1.2942 0.0822 6.1893 0.0822 6.1894 0.46127 0.90179c0.2537 0.49599 0.54944 0.90179 0.65721 0.90179 0.10776 0 0.19594 0.10823 0.19594 0.24049v0.24048h-3.2465c-1.7856 0-3.246-0.0271-3.2455-0.0601zm8.2637-1.4429 1.0077-1.503 4.4371-12.745-1e-3 -0.61536-1e-3 -0.61535-0.35308-0.46681c-0.19418-0.25673-0.35651-0.54795-0.36071-0.64715l-8e-3 -0.18036h7.2144l-7e-3 0.18036c-5e-3 0.0992-0.16653 0.39042-0.36072 0.64715l-0.35307 0.46681v0.63248c0 0.34786 0.47429 1.9775 1.054 3.6213 3.3664 9.5465 3.7117 10.384 4.8263 11.709 0.33697 0.40048 0.61269 0.79368 0.61269 0.87379 0 0.0801-1.36 0.14564-3.0222 0.14564h-3.0222l0.1781-0.54108c0.22219-0.67503 0.16704-1.5134-0.1661-2.525l-0.25737-0.78155h-6.3973l-0.28431 0.68637c-0.34224 0.82623-0.4175 2.1619-0.15443 2.7404l0.19137 0.42084h-5.7802zm9.3849-8.2965c-0.58087-1.6864-1.0643-3.3366-1.0743-3.6673l-0.0181-0.6012-0.53903 1.9238c-0.29646 1.0581-0.82716 2.7084-1.1793 3.6673l-0.64029 1.7435h4.5072l-1.0561-3.0661zm29.441 9.1382c0.25852-0.36373 0.58994-1.0942 0.73647-1.6232l0.26644-0.96191-9e-3 -6.012-9e-3 -6.012-0.3273-0.91772c-0.18002-0.50474-0.49991-1.1084-0.71088-1.3416-0.21099-0.23313-0.3836-0.49651-0.3836-0.58529v-0.16142h6.808l-0.38882 0.42964c-0.21384 0.2363-0.55527 0.82801-0.7587 1.3149l-0.36989 0.88527v13.017l0.36989 0.88527c0.20343 0.4869 0.54486 1.0786 0.7587 1.3149l0.38882 0.42964h-6.8407zm-102.72-27.876c-0.0882-0.0882-0.16032-0.28517-0.16032-0.43777 0-0.15261-1.4135-2.38-3.1412-4.9499l-3.1412-4.6724 0.1502 8.0171 0.54108 0.73118c0.29759 0.40215 0.54107 0.78968 0.54107 0.86116 0 0.0715-1.4609 0.12997-3.2465 0.12997-1.7856 0-3.2465-0.0586-3.2465-0.13029 0-0.0716 0.20587-0.35127 0.45748-0.62135l0.45749-0.49105 0.5279-2.0965v-11.875l-0.27656-0.92309c-0.15211-0.5077-0.47675-1.138-0.72143-1.4006-0.24469-0.26263-0.44488-0.53615-0.44488-0.60781 0-0.0716 1.4609-0.13029 3.2465-0.13029 1.7856 0 3.2465 0.0584 3.2465 0.12998 0 0.0715-0.24348 0.45885-0.54107 0.86083l-0.54108 0.73086-0.0783 3.2874-0.0782 3.2874 2.2989-3.2465c1.2644-1.7856 2.4838-3.6523 2.7097-4.1483l0.41076-0.90179h5.4384v0.22427c0 0.12335-0.20645 0.2898-0.45878 0.36988-0.25233 0.0801-0.87674 0.60141-1.3876 1.1585-1.0037 1.0946-4.6466 6.0226-4.6466 6.2859 0 0.0882 1.2703 2.0138 2.8228 4.279l2.8228 4.1184 1.0392 0.65903 1.0392 0.65904-0.43518 0.12999c-0.41623 0.12433-4.6127 0.87108-4.9041 0.87268-0.0772 4.8e-4 -0.21243-0.0713-0.3006-0.15956zm74.796-0.0978-1.3961-0.20884-2.8931-1.542-1.8737-2.1286-1.0897-2.716-2e-3 -2.7655-2e-3 -2.7655 0.67671-1.4694 0.67672-1.4694 2.249-2.2076 2.8858-1.3464h3.2465c1.7856 0 3.5424 0.0828 3.9041 0.18402l0.65766 0.18402 0.11186 0.53742c0.0615 0.29557 0.18127 1.4031 0.2661 2.4612l0.15423 1.9238-0.80351-0.76794c-0.44179-0.42238-1.2903-0.98814-1.8855-1.2572l-1.0822-0.48928-1.1745-5e-3c-0.64598-3e-3 -1.6199 0.1278-2.1643 0.29047l-0.98982 0.29575-2.0122 2.0093-0.37664 1.2683-0.37665 1.2683v1.1469c0 0.6308 0.11818 1.698 0.26263 2.3715l0.26262 1.2246 1.5257 2.0234 2.1391 1.0822h2.4577l2.2472-0.7657 2.4076-2.1646v0.42684c0 0.23476-0.12068 1.3678-0.26817 2.5179l-0.26817 2.0911-1.7158 0.379c-0.94368 0.20845-2.311 0.42702-3.0384 0.48569l-1.3226 0.1067-1.3961-0.20884zm37.618-0.40316c-0.15812-0.36373-1.6094-2.6268-3.225-5.029l-2.9374-4.3677-0.1332 6.9533 0.53529 1.1315c0.29441 0.62233 0.57689 1.2127 0.62772 1.3119l0.0924 0.18035h-6.5398l0.66473-1.0038 0.66472-1.0038 0.0769-6.2707c0.0423-3.4489 0.01-6.7238-0.0725-7.2775l-0.14943-1.0068-0.58149-0.85688-0.58151-0.85688h3.2392c1.7816 0 3.2392 0.0431 3.2392 0.0957s-0.26924 0.56667-0.5983 1.1423l-0.59831 1.0466-3e-3 2.992-3e-3 2.992 2.496-3.5213c1.3728-1.9367 2.5652-3.7971 2.6498-4.1343l0.15387-0.61305h5.5219l-3e-3 0.18036c-2e-3 0.0992-0.37904 0.42394-0.83867 0.72167l-0.83569 0.54131-2.4078 3.2069c-1.3243 1.7638-2.4078 3.2695-2.4078 3.3459 0 0.14791 4.5542 6.8617 5.3421 7.8754 0.25703 0.33065 0.90921 0.89965 1.4493 1.2644l0.98199 0.66324 0.40656-0.36793c0.81238-0.7352 1.6982-2.7824 3.6984-8.547 1.1218-3.2331 2.1109-6.1709 2.198-6.5284l0.15835-0.65005-0.38395-0.76966c-0.21118-0.42331-0.38397-0.80714-0.38397-0.85295 0-0.0458 1.5134-0.0833 3.363-0.0833h3.363l-0.13595 1.3828-0.13595 1.3828 2.2108 6.1322c2.1956 6.0901 2.9234 7.7075 3.8421 8.539 0.26334 0.23832 0.47881 0.52476 0.47881 0.63653v0.2032h-6.2694l0.24893-0.46514c0.32318-0.60386 0.31474-1.3035-0.0296-2.4528l-0.27854-0.92969h-6.6228l-0.2961 1.3231-0.2961 1.3231 0.2737 0.60071 0.27369 0.60071h-5.7612v-0.40851l-2.5852 0.4426c-1.4218 0.24343-2.6489 0.44356-2.7269 0.44473-0.078 9.7e-4 -0.27113-0.29545-0.42925-0.65917zm17.043-6.7334c-4.8e-4 -0.0992-0.43297-1.4248-0.96085-2.9459-0.52789-1.521-0.96027-2.9549-0.96085-3.1864l-9.6e-4 -0.42083h-0.48094v0.4321c0 0.23765-0.43286 1.7206-0.96192 3.2953s-0.96192 2.8953-0.96192 2.9346c0 0.0393 0.97394 0.0713 2.1643 0.0713h2.1643l-9.6e-4 -0.18036zm-155.11 6.7941c0-0.0658 0.37246-0.63812 0.8277-1.2718l0.8277-1.1521 0.81847-2.0348 0.81848-2.0348-2.2782-0.1436-1.9895-4.4557c-1.9335-4.3303-3.171-6.583-3.6164-6.583-0.1198 0-0.21782-0.10822-0.21782-0.24048v-0.24048h6.2298l-0.14289 1.2065-0.1429 1.2065 1.4167 3.3595c0.77921 1.8477 1.4768 3.3609 1.5502 3.3626 0.0734 2e-3 0.69565-1.5064 1.3828-3.3513l1.2493-3.3544v-2.4294h5.7715v0.19856c0 0.10921-0.27729 0.45907-0.6162 0.77746-1.0574 0.99341-1.4845 1.9128-3.8545 8.2976l-2.304 6.2068 0.1 0.97715c0.055 0.53742 0.18407 1.1665 0.28685 1.398l0.18687 0.42084h-3.152c-1.7336 0-3.152-0.0538-3.152-0.11968zm31.817-0.30995c0.21385-0.23631 0.55527-0.82802 0.7587-1.3149l0.36989-0.88528v-13.017l-0.36989-0.88528c-0.20343-0.4869-0.54485-1.0786-0.7587-1.3149l-0.38882-0.42963h8.4676l1.202 0.25779 1.2021 0.2578 0.96756 0.70089 0.96756 0.7009 1.0952 2.0505-0.02 4.3286-0.50801 0.96192c-0.59117 1.1194-1.3023 1.8147-2.4786 2.4233l-0.84168 0.43548-4.7466 0.20546 0.10479 1.9966 0.1048 1.9966 1.2974 1.9604h-6.8148zm7.4568-8.485c0.50458-0.14011 1.1211-0.45845 1.3701-0.70741l0.45266-0.45266 0.52678-1.9563-0.16344-0.87124-0.16344-0.87122-0.65675-0.73502-0.65675-0.73504-3.1896-0.2031v3.2344c0 1.7789 0.0721 3.3066 0.16032 3.3947 0.23633 0.23634 1.2761 0.19281 2.3202-0.0971zm5.4553 8.7209c0-0.10656 0.2787-0.56647 0.61934-1.022 0.34064-0.45555 0.79033-1.1529 0.99933-1.5497 0.61885-1.1749 4.6338-12.883 4.6338-13.513 0-0.31831-0.16511-0.89801-0.3669-1.2882l-0.36689-0.70949h7.2267l-8e-3 0.18036c-4e-3 0.0992-0.16653 0.39041-0.36072 0.64716l-0.35307 0.4668 1e-5 0.61535v0.61535l2.2776 6.3534 2.2776 6.3534 0.90871 1.3419c0.49979 0.73803 0.94478 1.423 0.98886 1.5222l0.0802 0.18035h-6.1035l0.1919-0.42083c0.24816-0.54422 0.18346-1.9737-0.1262-2.7881l-0.24282-0.63869h-6.4675l-0.25736 0.78156c-0.33315 1.0117-0.38829 1.85-0.1661 2.525l0.1781 0.54107h-5.5634zm10.202-9.726c-0.57833-1.7525-1.0609-3.4028-1.0725-3.6673l-0.021-0.48095-0.45891 1.7068c-0.2524 0.93877-0.78419 2.589-1.1818 3.6673l-0.72284 1.9605h4.5084zm9.2763 9.7898c0-0.0714 0.21796-0.42479 0.48435-0.7851l0.48436-0.65514 0.23569-1.4393 0.23569-1.4393v-9.3787l-0.23569-1.4393-0.23569-1.4393-0.48436-0.65513c-0.26639-0.36032-0.48435-0.71362-0.48435-0.7851 0-0.0715 1.4609-0.12998 3.2465-0.12998 1.7856 0 3.2465 0.0584 3.2465 0.12998 0 0.0715-0.21263 0.42318-0.47251 0.78155s-0.58188 1.1386-0.71556 1.7337l-0.24305 1.0822v10.822l0.24305 1.0822c0.13368 0.59518 0.45568 1.3754 0.71556 1.7337s0.47251 0.71008 0.47251 0.78156c0 0.0715-1.4609 0.12997-3.2465 0.12997-1.7856 0-3.2465-0.0584-3.2465-0.12997zm9.3787 0c0-0.0714 0.22389-0.43281 0.49754-0.80295 0.27365-0.37013 0.59572-1.0962 0.7157-1.6135l0.21816-0.94052v-11.303l-0.21816-0.94052c-0.11998-0.51729-0.44205-1.2434-0.7157-1.6135s-0.49754-0.73146-0.49754-0.80294c0-0.0715 1.4609-0.12998 3.2465-0.12998 1.7856 0 3.2465 0.0584 3.2465 0.12998 0 0.0715-0.24349 0.45888-0.54108 0.8609l-0.54108 0.73091-0.1616 5.4926h6.5343v-4.7281l-0.60019-1.183c-0.3301-0.65066-0.60064-1.2101-0.60118-1.2431-4.9e-4 -0.0331 1.4614-0.0601 3.2489-0.0601h3.2499l-0.66473 1.0038-0.66473 1.0038-0.0769 6.2707c-0.0423 3.4489-0.01 6.7238 0.0726 7.2776l0.14944 1.0068 0.5815 0.85688 0.58149 0.85688h-3.2392c-1.7816 0-3.2388-0.0271-3.2382-0.0601 4.8e-4 -0.0331 0.27108-0.59249 0.6012-1.2432l0.60019-1.183v-5.9305h-6.4929v5.9402l0.27918 0.81744c0.15355 0.44959 0.42408 0.90398 0.60119 1.0098 0.17712 0.10577 0.32202 0.29515 0.32202 0.42084v0.22853h-3.2465c-1.7856 0-3.2465-0.0584-3.2465-0.12998zm37.451-0.87379 0.66473-1.0038 0.0769-6.2707c0.0423-3.4489 0.01-6.7238-0.0726-7.2775l-0.14944-1.0068-0.58149-0.85688-0.58151-0.85688h6.7935l-0.42085 0.46503c-0.23147 0.25578-0.56814 0.87802-0.74815 1.3828l-0.32731 0.91772-0.0105 1.7162-0.0105 1.7162 4.9298 0.20083 1.9976 1.0422 1.4469 1.7554 0.26173 1.0394c0.36027 1.4308 0.32837 2.4385-0.12562 3.9672l-0.38734 1.3043-0.99727 0.99728-0.99728 0.99727-1.3043 0.38734-1.3043 0.38733h-8.8172zm7.9135-2.2751 0.82848-0.39314 0.35012-0.67707 0.35013-0.67707v-2.4211l-1.3226-1.476-0.96192-0.22199c-0.52905-0.12208-1.3136-0.22455-1.7435-0.2277l-0.78155-5e-3v6.4929h2.4523zm-54.544-16.69-0.40205-0.23459-0.16028-0.72978-0.16029-0.72977 0.77503-1.1828h1.8855l0.37436 0.53446c0.20589 0.29396 0.37435 0.75684 0.37435 1.0286 0 0.2718-0.16846 0.73469-0.37435 1.0286l-0.37436 0.53447-0.76791-7e-3c-0.42236-4e-3 -0.94885-0.11288-1.17-0.24191zm3.7824-0.28524c-0.20589-0.29395-0.37435-0.75684-0.37435-1.0286 0-0.27181 0.16846-0.73469 0.37435-1.0286l0.37436-0.53446h1.8377l0.63604 0.76638v1.6948l-0.90955 0.66508h-1.5642z" fill="#086ab0" stroke-width=".24048"/></svg>
