<svg xmlns="http://www.w3.org/2000/svg" viewBox="0 0 146.5 204.6"><defs><style>.cls-1{fill:#ddb945;}.cls-2{fill:#fff;}.cls-3{fill:#00843d;}.cls-4{fill:#d90725;}</style></defs><g id="Layer_2" data-name="Layer 2"><g id="Layer_1-2" data-name="Layer 1"><path class="cls-1" d="M146.5,0V130.33a44,44,0,0,1-18.8,36.14L73.25,204.6,18.8,166.47A44,44,0,0,1,0,130.33V0Z"/><path class="cls-2" d="M143.5,3V130.33A41,41,0,0,1,126,164L73.25,200.93,20.52,164A41,41,0,0,1,3,130.33V3Z"/><polygon class="cls-2" points="94 86.79 94 176.64 73.25 191.17 52.5 176.64 52.5 86.79 94 86.79"/><path class="cls-3" d="M135.5,86.79v43.55a33.05,33.05,0,0,1-14.11,27.12L94,176.64V86.79Z"/><path d="M52.5,86.79v89.85L25.11,157.46A33.05,33.05,0,0,1,11,130.34V86.79Z"/><rect class="cls-4" x="11" y="44.79" width="124.5" height="42"/><path d="M19.58,25.49V17h4.14V26.5c0,2,.35,3.36,2.53,3.36s2.4-1.45,2.4-3.36V17h4.16v7.6c0,5.69-1.34,8.51-6.67,8.51C21.41,33.12,19.58,31.18,19.58,25.49Z"/><path d="M45.61,17h5L56,32.83H51.68l-1.07-3.34h-5.2l-1,3.34H40.13ZM50,26.59l-2-6.23h0l-1.84,6.23Z"/><path d="M64.08,17H74.55v3.17H68.21v3.19h5.42v3H68.21v3.25h6.34v3.19H64.08Z"/><path d="M94.37,17h10.48v3.17H98.51V23.9h5.41v3H98.51v5.89H94.37Z"/><path d="M116.58,17h5l5.37,15.82h-4.27l-1.08-3.34h-5.19l-1,3.34H111.1Zm4.33,9.58-2-6.23h0l-1.85,6.23Z"/></g></g></svg>