<svg enable-background="new 0 0 1000 1000" height="316.227766" viewBox="0 0 1000 1000" width="316.227766" xmlns="http://www.w3.org/2000/svg"><ellipse cx="500" cy="500" fill="#23479d" rx="495.85" ry="495.85" transform="matrix(.7071 -.7071 .7071 .7071 -207.107 499.9996)"/><ellipse cx="500" cy="500" fill="#fff" rx="466.42" ry="466.42" transform="matrix(.7071 -.7071 .7071 .7071 -207.107 499.9996)"/><path d="m500 40.18c253.91 0 459.82 205.91 459.82 459.82 0 181.7-105.46 338.79-258.48 413.46 33.4-26.97 65.65-55.72 91.72-90.05 41.94-55.22 58.01-123.39 52.31-190.15-5.96-69.77-35.7-138.06-84.53-188.49-31.73-32.76-71.39-56.98-113.94-72.99-57.4-21.61-121.57-24.25-181.58-9.44-56.61 13.98-105.46 38.78-145.58 82.6-12.54-39.24-29.38-72.84-43.87-107.06-15.37-36.31-32.73-68.05-53.89-91.45-25.8-28.53-50.58-29.61-84.87-28.79 84.15-107.99 215.41-177.46 362.89-177.46z" fill="#e41b23"/><path d="m501.21 105.03 21.95 69.46 71.57-.04-58 42.89 22.02 69.43-57.8-42.95-57.95 42.95 22.28-69.43-57.84-42.89 71.56.04z" fill="#fff100"/><path d="m616.52 944.9c-37.21 9.73-76.26 14.92-116.52 14.92-253.91 0-459.82-205.91-459.82-459.82 0-102.89 33.82-197.9 90.94-274.52 15.63-.42 29.18-.75 41.58 1.36-14.05 54.45-13.98 100.68-12.81 155.58l146.86 50.63 2.97 9.15-151.89-52.38c-36.07 47.94-67.36 106.33-85.83 156.5 5.27 32.2 13.21 62.91 23.11 91.26 11.13 31.87 24.73 60.79 39.79 85.51 47.34 30.38 100.72 49.2 152.75 65.46 17.79-24.48 35.62-49.18 53.54-74.44 14.95-21.06 29.75-42.23 44.35-63.56l-61.98-198.12c38.79-41.32 89.46-69.25 143.6-82.62 34.65-8.55 70.7-11.14 105.96-7.46 32.8 25.82 67.55 51.15 103.57 76.59l47.4-16.4c2.43 1.84 4.82 3.72 7.19 5.63l-53 18.33-63.84 204.04c14.6 21.33 29.4 42.49 44.35 63.56 17.92 25.26 35.76 49.96 53.55 74.44 37.88-11.83 76.47-25.02 112.92-43.05-8.53 25.98-21.2 50.75-38.31 73.28-15.52 20.43-33.14 38.65-50.99 55.04-40.29 37-65.45 56.96-119.44 71.09z" fill="#23479d"/><g fill="#fff"><path d="m606.69 652.81c15.12 22.12 30.42 44 45.85 65.75 17.53 24.71 35.54 49.64 53.71 74.65-33.58 48.75-72.67 88.85-113.86 121.98-30.38 5.83-61.38 8.75-92.4 8.75s-62.01-2.92-92.39-8.75c-41.2-33.12-80.28-73.22-113.86-121.98 18.18-25.01 36.18-49.94 53.71-74.65 15.43-21.75 30.73-43.63 45.85-65.75z"/><path d="m117.46 743.06c-37.99-59.67-62.4-128.81-68.89-203.1l15.99 8.48c5.34 32.31 13.34 63.15 23.3 91.67 10.91 31.25 24.16 59.7 38.82 84.23z"/><path d="m608.3 940.15c-34.71 8.51-70.96 13.07-108.29 13.07s-73.59-4.55-108.3-13.07l17.28-16.88c30.01 5.58 60.53 8.38 91.01 8.38s61-2.79 91.01-8.38z"/></g><path d="m477.76 745.54h75.36v20.2h-42.83v25.15h39.54v20.21h-39.54v41.23h-32.53z" fill="#e41b23"/><path d="m561.77 745.54h75.35v20.2h-42.82v25.15h39.53v20.21h-39.53v41.23h-32.53z" fill="#e41b23"/><path d="m434.94 852.33h-33.77l-38.3-106.79h32.95l25.11 70.09 21.42-70.09h30.88z" fill="#e41b23"/></svg>