<?xml version="1.0" encoding="UTF-8"?>
<svg version="1.1" xmlns="http://www.w3.org/2000/svg" width="1200" height="1772">
<path d="M0 0 C3.49528981 1.1650966 3.8666293 1.88334378 5.81225586 4.8828125 C6.62472023 6.1217627 6.62472023 6.1217627 7.45359802 7.38574219 C8.03480911 8.28969727 8.6160202 9.19365234 9.21484375 10.125 C9.82582413 11.05989258 10.4368045 11.99478516 11.06629944 12.95800781 C13.03112063 15.96703503 14.98486323 18.98305461 16.9375 22 C19.48390606 25.91952809 22.03512056 29.83588828 24.58984375 33.75 C25.22018021 34.71646454 25.85051666 35.68292908 26.49995422 36.67868042 C30.75652133 43.17722619 35.15062369 49.55682508 39.66491699 55.87820435 C44.72528961 62.97595117 49.54744746 70.22524847 54.35968018 77.49264526 C57.15708374 81.71645303 59.9632784 85.9344121 62.76953125 90.15234375 C63.35478577 91.03219437 63.94004028 91.91204498 64.54302979 92.81855774 C71.35852875 103.05530279 78.24103616 113.24672802 85.125 123.4375 C92.57000379 134.4605111 100.01431421 145.48292603 107.375 156.5625 C113.43256586 165.67763256 119.55109468 174.75036257 125.6875 183.8125 C126.16482574 184.51745605 126.64215149 185.22241211 127.13394165 185.94873047 C128.11794292 187.40197918 129.10194667 188.85522623 130.08595276 190.30847168 C130.58610397 191.04714478 131.08625519 191.78581787 131.6015625 192.546875 C132.1110997 193.29940552 132.6206369 194.05193604 133.14561462 194.82727051 C139.62627742 204.40002981 146.09663817 213.97973838 152.5625 223.5625 C153.17737274 224.47373627 153.79224548 225.38497253 154.42575073 226.32382202 C163.03253435 239.08231769 171.59514583 251.86927537 180.11914062 264.68319702 C186.37638997 274.08783489 192.6839719 283.45545468 199.04907227 292.78759766 C206.12698006 303.17028505 213.16029184 313.5829448 220.1875 324 C221.126577 325.39200623 221.126577 325.39200623 222.08462524 326.81213379 C230.34384507 339.05832011 238.56892186 351.32648699 246.75 363.625 C253.46287925 373.71634059 260.21958268 383.774594 267.04907227 393.78759766 C274.12698006 404.17028505 281.16029184 414.5829448 288.1875 425 C289.126577 426.39200623 289.126577 426.39200623 290.08462524 427.81213379 C298.34384507 440.05832011 306.56892186 452.32648699 314.75 464.625 C321.46287925 474.71634059 328.21958268 484.774594 335.04907227 494.78759766 C342.12698013 505.17028515 349.16027519 515.58295593 356.1875 526 C356.81288666 526.92700714 357.43827332 527.85401428 358.08261108 528.80911255 C366.38459311 541.11852332 374.65154975 553.4505007 382.875 565.8125 C389.11465941 575.19231329 395.38605172 584.54653389 401.75170898 593.84155273 C408.69292443 603.98826974 415.5636582 614.18257302 422.4375 624.375 C423.07875824 625.32581451 423.72001648 626.27662903 424.38070679 627.2562561 C431.405282 637.67414763 438.42031891 648.09777903 445.375 658.5625 C451.43273424 667.67752236 457.55109346 676.75036076 463.6875 685.8125 C464.16482574 686.51745605 464.64215149 687.22241211 465.13394165 687.94873047 C466.11794292 689.40197918 467.10194667 690.85522623 468.08595276 692.30847168 C468.83617958 693.41648132 468.83617958 693.41648132 469.6015625 694.546875 C470.1110997 695.29940552 470.6206369 696.05193604 471.14561462 696.82727051 C477.62627742 706.40002981 484.09663817 715.97973838 490.5625 725.5625 C491.48480911 726.9293544 491.48480911 726.9293544 492.42575073 728.32382202 C501.03253435 741.08231769 509.59514583 753.86927537 518.11914062 766.68319702 C524.37199938 776.08123584 530.6745825 785.442681 537.03588867 794.76782227 C544.24573417 805.34288021 551.40591512 815.95134445 558.5625 826.5625 C559.19256958 827.49669769 559.82263916 828.43089539 560.47180176 829.3934021 C570.02760056 843.56483725 579.55326138 857.75557132 589 872 C585.59649292 878.45648367 581.74273005 884.3821162 577.5 890.3125 C567.71841172 904.15860567 558.48285751 918.36575949 549.20507812 932.55200195 C539.08763049 947.99978781 539.08763049 947.99978781 535.03125 953.453125 C528.43043437 962.33262645 522.5529372 971.74363882 516.5 981 C502.2705857 1002.76011311 502.2705857 1002.76011311 496.17773438 1010.94921875 C490.35148426 1019.11119424 484.9874743 1027.60836427 479.5 1036 C465.2705857 1057.76011311 465.2705857 1057.76011311 459.17773438 1065.94921875 C453.35148426 1074.11119424 447.9874743 1082.60836427 442.5 1091 C428.2705857 1112.76011311 428.2705857 1112.76011311 422.17773438 1120.94921875 C416.35148426 1129.11119424 410.9874743 1137.60836427 405.5 1146 C391.2705857 1167.76011311 391.2705857 1167.76011311 385.17773438 1175.94921875 C379.35148426 1184.11119424 373.9874743 1192.60836427 368.5 1201 C354.2705857 1222.76011311 354.2705857 1222.76011311 348.17773438 1230.94921875 C342.35148426 1239.11119424 336.9874743 1247.60836427 331.5 1256 C317.063738 1278.07643178 317.063738 1278.07643178 310.96289062 1286.27587891 C306.41469528 1292.58791419 302.24692424 1299.17102534 298 1305.6875 C294.7 1310.740625 291.4 1315.79375 288 1321 C305.49 1321 322.98 1321 341 1321 C341 1391.95 341 1462.9 341 1536 C275 1536 209 1536 141 1536 C140.34 1537.65 139.68 1539.3 139 1541 C138.13254566 1542.45199706 137.21986635 1543.87770012 136.26953125 1545.27685547 C135.72135742 1546.08895477 135.17318359 1546.90105408 134.60839844 1547.73776245 C134.01575195 1548.60547272 133.42310547 1549.47318298 132.8125 1550.3671875 C132.19536133 1551.27896759 131.57822266 1552.19074768 130.94238281 1553.13015747 C128.9660132 1556.04813403 126.98320709 1558.96166733 125 1561.875 C123.69616845 1563.79657236 122.39277857 1565.71844449 121.08984375 1567.640625 C119.17052067 1570.47207635 117.25091972 1573.30333276 115.32958984 1576.13342285 C111.44711833 1581.85412061 107.59172359 1587.59154107 103.76538086 1593.34988403 C98.51306814 1601.2480694 93.19280183 1609.10056913 87.88378906 1616.96069336 C79.22268005 1629.78510633 70.56495925 1642.61111444 62 1655.5 C54.26364726 1667.14160725 46.44691671 1678.728258 38.625 1690.3125 C27.56009994 1706.69964613 16.54583709 1723.11913626 5.6027832 1739.58789062 C4.40337634 1741.39293858 3.20214871 1743.19677693 2 1745 C-1.4428484 1743.85238387 -1.79356861 1743.2299399 -3.70117188 1740.29174805 C-4.22098633 1739.50016296 -4.74080078 1738.70857788 -5.27636719 1737.89300537 C-5.83485352 1737.02468079 -6.39333984 1736.1563562 -6.96875 1735.26171875 C-7.55624023 1734.36302063 -8.14373047 1733.46432251 -8.74902344 1732.53839111 C-10.01319193 1730.60290298 -11.27371932 1728.66503282 -12.53100586 1726.72506714 C-15.83772723 1721.62378828 -19.17117916 1716.5399978 -22.5 1711.453125 C-23.15722046 1710.44704697 -23.81444092 1709.44096893 -24.49157715 1708.40440369 C-29.42077159 1700.86364739 -34.41914378 1693.37689141 -39.5 1685.9375 C-40.59913971 1684.32606089 -41.69827814 1682.7146209 -42.79734802 1681.10313416 C-43.5657082 1679.9766083 -44.33423478 1678.85019593 -45.10292053 1677.72389221 C-51.24786014 1668.71359521 -57.33938785 1659.66701828 -63.4375 1650.625 C-64.06785156 1649.69050018 -64.69820312 1648.75600037 -65.34765625 1647.79318237 C-73.31723777 1635.97599183 -81.25882831 1624.14102184 -89.14938354 1612.27093506 C-98.24999692 1598.58340898 -107.45060274 1584.96342185 -116.65234375 1571.34375 C-119.53819457 1567.07211346 -122.41980105 1562.79763787 -125.29931641 1558.52172852 C-127.04336425 1555.93570064 -128.79318591 1553.35363423 -130.54296875 1550.77148438 C-131.65389981 1549.12386914 -132.76458752 1547.47608978 -133.875 1545.828125 C-134.39344482 1545.06626892 -134.91188965 1544.30441284 -135.44604492 1543.51947021 C-135.91502197 1542.82114075 -136.38399902 1542.12281128 -136.8671875 1541.40332031 C-137.28081543 1540.79176086 -137.69444336 1540.18020142 -138.12060547 1539.55010986 C-139 1538 -139 1538 -139 1536 C-205 1536 -271 1536 -339 1536 C-339 1465.38 -339 1394.76 -339 1322 C-321.51 1321.67 -304.02 1321.34 -286 1321 C-301.03226108 1298.40961882 -316.1117309 1275.85452573 -331.30151367 1253.36987305 C-332.4640571 1251.64894412 -333.6265741 1249.92799735 -334.7890625 1248.20703125 C-335.34686905 1247.38126083 -335.9046756 1246.55549042 -336.47938538 1245.70469666 C-339.30897097 1241.5133775 -342.12935566 1237.31642109 -344.9296875 1233.10546875 C-351.07093476 1223.8709424 -357.29488694 1214.69166434 -363.5 1205.5 C-377.7294143 1184.42189896 -377.7294143 1184.42189896 -383.82226562 1175.25976562 C-389.35004686 1166.98544555 -394.93228839 1158.74747845 -400.5 1150.5 C-414.73033706 1129.42053208 -414.73033706 1129.42053208 -420.83105469 1120.24658203 C-426.94950186 1111.08819499 -433.13159407 1101.97220865 -439.29492188 1092.84399414 C-445.60939703 1083.49104137 -451.92109958 1074.1368916 -458.17034912 1064.74020386 C-464.27684019 1055.56744636 -470.45870982 1046.44510196 -476.625 1037.3125 C-490.73967034 1016.40643858 -490.73967034 1016.40643858 -494.9921875 1010.01171875 C-501.11247615 1000.80836947 -507.31590622 991.66052838 -513.5 982.5 C-527.7294143 961.42189896 -527.7294143 961.42189896 -533.82226562 952.25976562 C-539.35004686 943.98544555 -544.93228839 935.74747845 -550.5 927.5 C-565.81040954 904.82061543 -565.81040954 904.82061543 -573 894 C-574.28094866 892.07792414 -575.56220038 890.15605022 -576.84375 888.234375 C-580.22916667 883.15625 -583.61458333 878.078125 -587 873 C-583.80326599 866.98025559 -580.29802165 861.39740223 -576.3125 855.875 C-569.31956852 846.02788885 -562.61924974 835.99703384 -555.9375 825.9375 C-546.30529778 811.44144408 -536.61727846 796.98482287 -526.875 782.5625 C-519.43001568 771.53947555 -511.98568593 760.51707418 -504.625 749.4375 C-498.56743414 740.32236744 -492.44890532 731.24963743 -486.3125 722.1875 C-485.83517426 721.48254395 -485.35784851 720.77758789 -484.86605835 720.05126953 C-483.88205708 718.59802082 -482.89805333 717.14477377 -481.91404724 715.69152832 C-481.16382042 714.58351868 -481.16382042 714.58351868 -480.3984375 713.453125 C-479.8889003 712.70059448 -479.3793631 711.94806396 -478.85438538 711.17272949 C-472.37372258 701.59997019 -465.90336183 692.02026162 -459.4375 682.4375 C-458.51519089 681.0706456 -458.51519089 681.0706456 -457.57424927 679.67617798 C-448.96746565 666.91768231 -440.40485417 654.13072463 -431.88085938 641.31680298 C-425.62361003 631.91216511 -419.3160281 622.54454532 -412.95092773 613.21240234 C-405.87301994 602.82971495 -398.83970816 592.4170552 -391.8125 582 C-390.873423 580.60799377 -390.873423 580.60799377 -389.91537476 579.18786621 C-381.65615493 566.94167989 -373.43107814 554.67351301 -365.25 542.375 C-358.53712075 532.28365941 -351.78041732 522.225406 -344.95092773 512.21240234 C-337.87301994 501.82971495 -330.83970816 491.4170552 -323.8125 481 C-323.18644867 480.07199585 -322.56039734 479.1439917 -321.91537476 478.18786621 C-313.65615493 465.94167989 -305.43107814 453.67351301 -297.25 441.375 C-290.53712075 431.28365941 -283.78041732 421.225406 -276.95092773 411.21240234 C-269.87301987 400.82971485 -262.83972481 390.41704407 -255.8125 380 C-255.18711334 379.07299286 -254.56172668 378.14598572 -253.91738892 377.19088745 C-245.61540689 364.88147668 -237.34845025 352.5494993 -229.125 340.1875 C-222.88534059 330.80768671 -216.61394828 321.45346611 -210.24829102 312.15844727 C-203.30707557 302.01173026 -196.4363418 291.81742698 -189.5625 281.625 C-188.92124176 280.67418549 -188.27998352 279.72337097 -187.61929321 278.7437439 C-180.594718 268.32585237 -173.57968109 257.90222097 -166.625 247.4375 C-160.56726641 238.32247861 -154.4489817 229.24958759 -148.3125 220.1875 C-147.83716827 219.48553497 -147.36183655 218.78356995 -146.87210083 218.06033325 C-146.1514595 216.99611649 -146.1514595 216.99611649 -145.41625977 215.91040039 C-137.28743823 203.90594887 -129.17023437 191.89370498 -121.0625 179.875 C-120.43596527 178.94627075 -119.80943054 178.0175415 -119.16390991 177.06066895 C-111.6767889 165.96020192 -104.21286186 154.84548122 -96.80175781 143.6940918 C-91.34706135 135.49688714 -85.83317281 127.3403343 -80.3125 119.1875 C-79.83517426 118.48254395 -79.35784851 117.77758789 -78.86605835 117.05126953 C-77.88205708 115.59802082 -76.89805333 114.14477377 -75.91404724 112.69152832 C-75.41389603 111.95285522 -74.91374481 111.21418213 -74.3984375 110.453125 C-73.6341317 109.32432922 -73.6341317 109.32432922 -72.85438538 108.17272949 C-66.37372258 98.59997019 -59.90336183 89.02026162 -53.4375 79.4375 C-52.82262726 78.52626373 -52.20775452 77.61502747 -51.57424927 76.67617798 C-42.97720973 63.93212671 -34.42265772 51.16069598 -25.9100647 38.36010742 C-17.36416587 25.51110603 -8.71155645 12.73727167 0 0 Z " fill="#FEFEFE" transform="translate(599,13)"/>
<path d="M0 0 C3.49528981 1.1650966 3.8666293 1.88334378 5.81225586 4.8828125 C6.62472023 6.1217627 6.62472023 6.1217627 7.45359802 7.38574219 C8.03480911 8.28969727 8.6160202 9.19365234 9.21484375 10.125 C9.82582413 11.05989258 10.4368045 11.99478516 11.06629944 12.95800781 C13.03112063 15.96703503 14.98486323 18.98305461 16.9375 22 C19.48390606 25.91952809 22.03512056 29.83588828 24.58984375 33.75 C25.22018021 34.71646454 25.85051666 35.68292908 26.49995422 36.67868042 C30.75652133 43.17722619 35.15062369 49.55682508 39.66491699 55.87820435 C44.72528961 62.97595117 49.54744746 70.22524847 54.35968018 77.49264526 C57.15708374 81.71645303 59.9632784 85.9344121 62.76953125 90.15234375 C63.35478577 91.03219437 63.94004028 91.91204498 64.54302979 92.81855774 C71.35852875 103.05530279 78.24103616 113.24672802 85.125 123.4375 C92.57000379 134.4605111 100.01431421 145.48292603 107.375 156.5625 C113.43256586 165.67763256 119.55109468 174.75036257 125.6875 183.8125 C126.16482574 184.51745605 126.64215149 185.22241211 127.13394165 185.94873047 C128.11794292 187.40197918 129.10194667 188.85522623 130.08595276 190.30847168 C130.58610397 191.04714478 131.08625519 191.78581787 131.6015625 192.546875 C132.1110997 193.29940552 132.6206369 194.05193604 133.14561462 194.82727051 C139.62627742 204.40002981 146.09663817 213.97973838 152.5625 223.5625 C153.17737274 224.47373627 153.79224548 225.38497253 154.42575073 226.32382202 C163.03253435 239.08231769 171.59514583 251.86927537 180.11914062 264.68319702 C186.37638997 274.08783489 192.6839719 283.45545468 199.04907227 292.78759766 C206.12698006 303.17028505 213.16029184 313.5829448 220.1875 324 C221.126577 325.39200623 221.126577 325.39200623 222.08462524 326.81213379 C230.34384507 339.05832011 238.56892186 351.32648699 246.75 363.625 C253.46287925 373.71634059 260.21958268 383.774594 267.04907227 393.78759766 C274.12698006 404.17028505 281.16029184 414.5829448 288.1875 425 C289.126577 426.39200623 289.126577 426.39200623 290.08462524 427.81213379 C298.34384507 440.05832011 306.56892186 452.32648699 314.75 464.625 C321.46287925 474.71634059 328.21958268 484.774594 335.04907227 494.78759766 C342.12698013 505.17028515 349.16027519 515.58295593 356.1875 526 C356.81288666 526.92700714 357.43827332 527.85401428 358.08261108 528.80911255 C366.38459311 541.11852332 374.65154975 553.4505007 382.875 565.8125 C389.11465941 575.19231329 395.38605172 584.54653389 401.75170898 593.84155273 C408.69292443 603.98826974 415.5636582 614.18257302 422.4375 624.375 C423.07875824 625.32581451 423.72001648 626.27662903 424.38070679 627.2562561 C431.405282 637.67414763 438.42031891 648.09777903 445.375 658.5625 C451.43273424 667.67752236 457.55109346 676.75036076 463.6875 685.8125 C464.16482574 686.51745605 464.64215149 687.22241211 465.13394165 687.94873047 C466.11794292 689.40197918 467.10194667 690.85522623 468.08595276 692.30847168 C468.83617958 693.41648132 468.83617958 693.41648132 469.6015625 694.546875 C470.1110997 695.29940552 470.6206369 696.05193604 471.14561462 696.82727051 C477.62627742 706.40002981 484.09663817 715.97973838 490.5625 725.5625 C491.48480911 726.9293544 491.48480911 726.9293544 492.42575073 728.32382202 C501.03253435 741.08231769 509.59514583 753.86927537 518.11914062 766.68319702 C524.37199938 776.08123584 530.6745825 785.442681 537.03588867 794.76782227 C544.24573417 805.34288021 551.40591512 815.95134445 558.5625 826.5625 C559.19256958 827.49669769 559.82263916 828.43089539 560.47180176 829.3934021 C570.02760056 843.56483725 579.55326138 857.75557132 589 872 C585.59649292 878.45648367 581.74273005 884.3821162 577.5 890.3125 C567.71841172 904.15860567 558.48285751 918.36575949 549.20507812 932.55200195 C539.08763049 947.99978781 539.08763049 947.99978781 535.03125 953.453125 C528.43043437 962.33262645 522.5529372 971.74363882 516.5 981 C502.2705857 1002.76011311 502.2705857 1002.76011311 496.17773438 1010.94921875 C490.35148426 1019.11119424 484.9874743 1027.60836427 479.5 1036 C465.2705857 1057.76011311 465.2705857 1057.76011311 459.17773438 1065.94921875 C453.35148426 1074.11119424 447.9874743 1082.60836427 442.5 1091 C428.2705857 1112.76011311 428.2705857 1112.76011311 422.17773438 1120.94921875 C416.35148426 1129.11119424 410.9874743 1137.60836427 405.5 1146 C391.2705857 1167.76011311 391.2705857 1167.76011311 385.17773438 1175.94921875 C379.35148426 1184.11119424 373.9874743 1192.60836427 368.5 1201 C354.2705857 1222.76011311 354.2705857 1222.76011311 348.17773438 1230.94921875 C342.35148426 1239.11119424 336.9874743 1247.60836427 331.5 1256 C317.063738 1278.07643178 317.063738 1278.07643178 310.96289062 1286.27587891 C306.41469528 1292.58791419 302.24692424 1299.17102534 298 1305.6875 C294.7 1310.740625 291.4 1315.79375 288 1321 C305.49 1321 322.98 1321 341 1321 C341 1391.95 341 1462.9 341 1536 C275 1536 209 1536 141 1536 C140.34 1537.65 139.68 1539.3 139 1541 C138.13254566 1542.45199706 137.21986635 1543.87770012 136.26953125 1545.27685547 C135.72135742 1546.08895477 135.17318359 1546.90105408 134.60839844 1547.73776245 C134.01575195 1548.60547272 133.42310547 1549.47318298 132.8125 1550.3671875 C132.19536133 1551.27896759 131.57822266 1552.19074768 130.94238281 1553.13015747 C128.9660132 1556.04813403 126.98320709 1558.96166733 125 1561.875 C123.69616845 1563.79657236 122.39277857 1565.71844449 121.08984375 1567.640625 C119.17052067 1570.47207635 117.25091972 1573.30333276 115.32958984 1576.13342285 C111.44711833 1581.85412061 107.59172359 1587.59154107 103.76538086 1593.34988403 C98.51306814 1601.2480694 93.19280183 1609.10056913 87.88378906 1616.96069336 C79.22268005 1629.78510633 70.56495925 1642.61111444 62 1655.5 C54.26364726 1667.14160725 46.44691671 1678.728258 38.625 1690.3125 C27.56009994 1706.69964613 16.54583709 1723.11913626 5.6027832 1739.58789062 C4.40337634 1741.39293858 3.20214871 1743.19677693 2 1745 C-1.4428484 1743.85238387 -1.79356861 1743.2299399 -3.70117188 1740.29174805 C-4.22098633 1739.50016296 -4.74080078 1738.70857788 -5.27636719 1737.89300537 C-5.83485352 1737.02468079 -6.39333984 1736.1563562 -6.96875 1735.26171875 C-7.55624023 1734.36302063 -8.14373047 1733.46432251 -8.74902344 1732.53839111 C-10.01319193 1730.60290298 -11.27371932 1728.66503282 -12.53100586 1726.72506714 C-15.83772723 1721.62378828 -19.17117916 1716.5399978 -22.5 1711.453125 C-23.15722046 1710.44704697 -23.81444092 1709.44096893 -24.49157715 1708.40440369 C-29.42077159 1700.86364739 -34.41914378 1693.37689141 -39.5 1685.9375 C-40.59913971 1684.32606089 -41.69827814 1682.7146209 -42.79734802 1681.10313416 C-43.5657082 1679.9766083 -44.33423478 1678.85019593 -45.10292053 1677.72389221 C-51.24786014 1668.71359521 -57.33938785 1659.66701828 -63.4375 1650.625 C-64.06785156 1649.69050018 -64.69820312 1648.75600037 -65.34765625 1647.79318237 C-73.31723777 1635.97599183 -81.25882831 1624.14102184 -89.14938354 1612.27093506 C-98.24999692 1598.58340898 -107.45060274 1584.96342185 -116.65234375 1571.34375 C-119.53819457 1567.07211346 -122.41980105 1562.79763787 -125.29931641 1558.52172852 C-127.04336425 1555.93570064 -128.79318591 1553.35363423 -130.54296875 1550.77148438 C-131.65389981 1549.12386914 -132.76458752 1547.47608978 -133.875 1545.828125 C-134.39344482 1545.06626892 -134.91188965 1544.30441284 -135.44604492 1543.51947021 C-135.91502197 1542.82114075 -136.38399902 1542.12281128 -136.8671875 1541.40332031 C-137.28081543 1540.79176086 -137.69444336 1540.18020142 -138.12060547 1539.55010986 C-139 1538 -139 1538 -139 1536 C-205 1536 -271 1536 -339 1536 C-339 1465.38 -339 1394.76 -339 1322 C-321.51 1321.67 -304.02 1321.34 -286 1321 C-301.03226108 1298.40961882 -316.1117309 1275.85452573 -331.30151367 1253.36987305 C-332.4640571 1251.64894412 -333.6265741 1249.92799735 -334.7890625 1248.20703125 C-335.34686905 1247.38126083 -335.9046756 1246.55549042 -336.47938538 1245.70469666 C-339.30897097 1241.5133775 -342.12935566 1237.31642109 -344.9296875 1233.10546875 C-351.07093476 1223.8709424 -357.29488694 1214.69166434 -363.5 1205.5 C-377.7294143 1184.42189896 -377.7294143 1184.42189896 -383.82226562 1175.25976562 C-389.35004686 1166.98544555 -394.93228839 1158.74747845 -400.5 1150.5 C-414.73033706 1129.42053208 -414.73033706 1129.42053208 -420.83105469 1120.24658203 C-426.94950186 1111.08819499 -433.13159407 1101.97220865 -439.29492188 1092.84399414 C-445.60939703 1083.49104137 -451.92109958 1074.1368916 -458.17034912 1064.74020386 C-464.27684019 1055.56744636 -470.45870982 1046.44510196 -476.625 1037.3125 C-490.73967034 1016.40643858 -490.73967034 1016.40643858 -494.9921875 1010.01171875 C-501.11247615 1000.80836947 -507.31590622 991.66052838 -513.5 982.5 C-527.7294143 961.42189896 -527.7294143 961.42189896 -533.82226562 952.25976562 C-539.35004686 943.98544555 -544.93228839 935.74747845 -550.5 927.5 C-565.81040954 904.82061543 -565.81040954 904.82061543 -573 894 C-574.28094866 892.07792414 -575.56220038 890.15605022 -576.84375 888.234375 C-580.22916667 883.15625 -583.61458333 878.078125 -587 873 C-583.80326599 866.98025559 -580.29802165 861.39740223 -576.3125 855.875 C-569.31956852 846.02788885 -562.61924974 835.99703384 -555.9375 825.9375 C-546.30529778 811.44144408 -536.61727846 796.98482287 -526.875 782.5625 C-519.43001568 771.53947555 -511.98568593 760.51707418 -504.625 749.4375 C-498.56743414 740.32236744 -492.44890532 731.24963743 -486.3125 722.1875 C-485.83517426 721.48254395 -485.35784851 720.77758789 -484.86605835 720.05126953 C-483.88205708 718.59802082 -482.89805333 717.14477377 -481.91404724 715.69152832 C-481.16382042 714.58351868 -481.16382042 714.58351868 -480.3984375 713.453125 C-479.8889003 712.70059448 -479.3793631 711.94806396 -478.85438538 711.17272949 C-472.37372258 701.59997019 -465.90336183 692.02026162 -459.4375 682.4375 C-458.51519089 681.0706456 -458.51519089 681.0706456 -457.57424927 679.67617798 C-448.96746565 666.91768231 -440.40485417 654.13072463 -431.88085938 641.31680298 C-425.62361003 631.91216511 -419.3160281 622.54454532 -412.95092773 613.21240234 C-405.87301994 602.82971495 -398.83970816 592.4170552 -391.8125 582 C-390.873423 580.60799377 -390.873423 580.60799377 -389.91537476 579.18786621 C-381.65615493 566.94167989 -373.43107814 554.67351301 -365.25 542.375 C-358.53712075 532.28365941 -351.78041732 522.225406 -344.95092773 512.21240234 C-337.87301994 501.82971495 -330.83970816 491.4170552 -323.8125 481 C-323.18644867 480.07199585 -322.56039734 479.1439917 -321.91537476 478.18786621 C-313.65615493 465.94167989 -305.43107814 453.67351301 -297.25 441.375 C-290.53712075 431.28365941 -283.78041732 421.225406 -276.95092773 411.21240234 C-269.87301987 400.82971485 -262.83972481 390.41704407 -255.8125 380 C-255.18711334 379.07299286 -254.56172668 378.14598572 -253.91738892 377.19088745 C-245.61540689 364.88147668 -237.34845025 352.5494993 -229.125 340.1875 C-222.88534059 330.80768671 -216.61394828 321.45346611 -210.24829102 312.15844727 C-203.30707557 302.01173026 -196.4363418 291.81742698 -189.5625 281.625 C-188.92124176 280.67418549 -188.27998352 279.72337097 -187.61929321 278.7437439 C-180.594718 268.32585237 -173.57968109 257.90222097 -166.625 247.4375 C-160.56726641 238.32247861 -154.4489817 229.24958759 -148.3125 220.1875 C-147.83716827 219.48553497 -147.36183655 218.78356995 -146.87210083 218.06033325 C-146.1514595 216.99611649 -146.1514595 216.99611649 -145.41625977 215.91040039 C-137.28743823 203.90594887 -129.17023437 191.89370498 -121.0625 179.875 C-120.43596527 178.94627075 -119.80943054 178.0175415 -119.16390991 177.06066895 C-111.6767889 165.96020192 -104.21286186 154.84548122 -96.80175781 143.6940918 C-91.34706135 135.49688714 -85.83317281 127.3403343 -80.3125 119.1875 C-79.83517426 118.48254395 -79.35784851 117.77758789 -78.86605835 117.05126953 C-77.88205708 115.59802082 -76.89805333 114.14477377 -75.91404724 112.69152832 C-75.41389603 111.95285522 -74.91374481 111.21418213 -74.3984375 110.453125 C-73.6341317 109.32432922 -73.6341317 109.32432922 -72.85438538 108.17272949 C-66.37372258 98.59997019 -59.90336183 89.02026162 -53.4375 79.4375 C-52.82262726 78.52626373 -52.20775452 77.61502747 -51.57424927 76.67617798 C-42.97720973 63.93212671 -34.42265772 51.16069598 -25.9100647 38.36010742 C-17.36416587 25.51110603 -8.71155645 12.73727167 0 0 Z M0 63 C-1.33561816 64.58890089 -1.33561816 64.58890089 -2.67578125 66.73828125 C-3.24119629 67.5986499 -3.80661133 68.45901855 -4.38916016 69.34545898 C-5.0238623 70.32458252 -5.65856445 71.30370605 -6.3125 72.3125 C-7.76273392 74.51929598 -9.21450924 76.72501983 -10.66796875 78.9296875 C-11.27451294 79.85173225 -11.27451294 79.85173225 -11.89331055 80.79240417 C-17.27396409 88.9587866 -22.76516274 97.05088186 -28.24246216 105.15258789 C-37.83376627 119.34138047 -47.39085661 133.55185111 -56.875 147.8125 C-63.11436877 157.1925027 -69.38605535 166.5465392 -75.75170898 175.84155273 C-82.69292443 185.98826974 -89.5636582 196.18257302 -96.4375 206.375 C-97.07875824 207.32581451 -97.72001648 208.27662903 -98.38070679 209.2562561 C-105.405282 219.67414763 -112.42031891 230.09777903 -119.375 240.5625 C-125.43273424 249.67752236 -131.55109346 258.75036076 -137.6875 267.8125 C-138.16482574 268.51745605 -138.64215149 269.22241211 -139.13394165 269.94873047 C-140.11794292 271.40197918 -141.10194667 272.85522623 -142.08595276 274.30847168 C-142.83617958 275.41648132 -142.83617958 275.41648132 -143.6015625 276.546875 C-144.1110997 277.29940552 -144.6206369 278.05193604 -145.14561462 278.82727051 C-151.62627744 288.40002984 -158.09662229 297.97974906 -164.5625 307.5625 C-165.17670807 308.47273926 -165.79091614 309.38297852 -166.42373657 310.32080078 C-175.07657757 323.14737513 -183.6842952 336.00304882 -192.25390625 348.88534546 C-198.03460387 357.57365196 -203.85503389 366.23133328 -209.75170898 374.84155273 C-216.69292443 384.98826974 -223.5636582 395.18257302 -230.4375 405.375 C-231.07875824 406.32581451 -231.72001648 407.27662903 -232.38070679 408.2562561 C-239.405282 418.67414763 -246.42031891 429.09777903 -253.375 439.5625 C-259.43273424 448.67752236 -265.55109346 457.75036076 -271.6875 466.8125 C-272.16482574 467.51745605 -272.64215149 468.22241211 -273.13394165 468.94873047 C-274.11794292 470.40197918 -275.10194667 471.85522623 -276.08595276 473.30847168 C-276.83617958 474.41648132 -276.83617958 474.41648132 -277.6015625 475.546875 C-278.1110997 476.29940552 -278.6206369 477.05193604 -279.14561462 477.82727051 C-285.62627744 487.40002984 -292.09662229 496.97974906 -298.5625 506.5625 C-299.17670807 507.47273926 -299.79091614 508.38297852 -300.42373657 509.32080078 C-309.07657757 522.14737513 -317.6842952 535.00304882 -326.25390625 547.88534546 C-332.03460387 556.57365196 -337.85503389 565.23133328 -343.75170898 573.84155273 C-350.69292443 583.98826974 -357.5636582 594.18257302 -364.4375 604.375 C-365.39938736 605.80122177 -365.39938736 605.80122177 -366.38070679 607.2562561 C-373.405282 617.67414763 -380.42031891 628.09777903 -387.375 638.5625 C-393.43273424 647.67752236 -399.55109346 656.75036076 -405.6875 665.8125 C-406.16482574 666.51745605 -406.64215149 667.22241211 -407.13394165 667.94873047 C-408.11794292 669.40197918 -409.10194667 670.85522623 -410.08595276 672.30847168 C-410.83617958 673.41648132 -410.83617958 673.41648132 -411.6015625 674.546875 C-412.1110997 675.29940552 -412.6206369 676.05193604 -413.14561462 676.82727051 C-419.62627744 686.40002984 -426.09662229 695.97974906 -432.5625 705.5625 C-433.17670807 706.47273926 -433.79091614 707.38297852 -434.42373657 708.32080078 C-443.07657757 721.14737513 -451.6842952 734.00304882 -460.25390625 746.88534546 C-466.03460387 755.57365196 -471.85503389 764.23133328 -477.75170898 772.84155273 C-484.69292482 782.98827032 -491.56359575 793.18261447 -498.4375 803.375 C-499.39539932 804.79523972 -499.39539932 804.79523972 -500.37265015 806.24417114 C-508.18226963 817.82567832 -515.9869971 829.41011796 -523.69287109 841.06103516 C-526.84270036 845.8132409 -530.04787151 850.51750081 -533.32421875 855.18359375 C-534.03400879 856.20090576 -534.74379883 857.21821777 -535.47509766 858.26635742 C-536.82972369 860.20260126 -538.19471781 862.13164809 -539.57177734 864.05200195 C-540.16812988 864.90624756 -540.76448242 865.76049316 -541.37890625 866.640625 C-541.9107251 867.38860352 -542.44254395 868.13658203 -542.99047852 868.90722656 C-544.25206617 871.52254202 -543.90532087 872.29733848 -543 875 C-542.02260179 876.82701281 -542.02260179 876.82701281 -540.77636719 878.62719727 C-540.07441223 879.68223701 -540.07441223 879.68223701 -539.35827637 880.7585907 C-538.58538269 881.9009594 -538.58538269 881.9009594 -537.796875 883.06640625 C-536.98434265 884.28194939 -536.98434265 884.28194939 -536.15539551 885.52204895 C-534.35916486 888.2059779 -532.55466572 890.88423701 -530.75 893.5625 C-529.49531723 895.43345415 -528.24109216 897.3047153 -526.98730469 899.17626953 C-523.00007207 905.12327066 -519.00074485 911.06208394 -515 917 C-513.65361179 918.99948879 -512.30725746 920.9990004 -510.9609375 922.99853516 C-505.26129193 931.46175968 -499.55717281 939.92193676 -493.84463501 948.37646484 C-485.94369399 960.07003301 -485.94369399 960.07003301 -482.0703125 965.89453125 C-475.3373554 976.01874645 -468.5088215 986.07930201 -461.70507812 996.15600586 C-455.39060297 1005.50895863 -449.07890042 1014.8631084 -442.82965088 1024.25979614 C-436.72315981 1033.43255364 -430.54129018 1042.55489804 -424.375 1051.6875 C-410.26032966 1072.59356142 -410.26032966 1072.59356142 -406.0078125 1078.98828125 C-399.88752385 1088.19163053 -393.68409378 1097.33947162 -387.5 1106.5 C-373.2705857 1127.57810104 -373.2705857 1127.57810104 -367.17773438 1136.74023438 C-361.64995314 1145.01455445 -356.06771161 1153.25252155 -350.5 1161.5 C-336.2705857 1182.57810104 -336.2705857 1182.57810104 -330.17773438 1191.74023438 C-324.64995314 1200.01455445 -319.06771161 1208.25252155 -313.5 1216.5 C-299.2705857 1237.57810104 -299.2705857 1237.57810104 -293.17773438 1246.74023438 C-287.64995314 1255.01455445 -282.06771161 1263.25252155 -276.5 1271.5 C-262.12051402 1292.80040295 -262.12051402 1292.80040295 -255.64599609 1302.53564453 C-253.14893921 1306.27419276 -250.6120721 1309.9846364 -248.0625 1313.6875 C-247.58232422 1314.38810547 -247.10214844 1315.08871094 -246.60742188 1315.81054688 C-244.48785362 1319.05295394 -244.48785362 1319.05295394 -242 1322 C-240.36527118 1322.08700342 -238.72685945 1322.10701063 -237.08984375 1322.09765625 C-236.10048828 1322.09443359 -235.11113281 1322.09121094 -234.09179688 1322.08789062 C-233.05087891 1322.07951172 -232.00996094 1322.07113281 -230.9375 1322.0625 C-229.89271484 1322.05798828 -228.84792969 1322.05347656 -227.77148438 1322.04882812 C-225.1809334 1322.03699913 -222.59049441 1322.02051689 -220 1322 C-219.93006836 1321.00895264 -219.86013672 1320.01790527 -219.78808594 1318.99682617 C-217.09857255 1281.48499633 -217.09857255 1281.48499633 -213 1267 C-212.79004395 1266.2462207 -212.58008789 1265.49244141 -212.36376953 1264.71582031 C-195.49572138 1205.40203009 -157.72878359 1157.48713919 -104.16796875 1127.25 C-84.87817424 1116.61798976 -64.61307482 1109.19626749 -43 1105 C-42.04528809 1104.80535156 -41.09057617 1104.61070313 -40.10693359 1104.41015625 C-13.75053703 1099.16203043 13.56739381 1099.2499112 40 1104 C41.22879883 1104.20882813 41.22879883 1104.20882813 42.48242188 1104.421875 C74.18578503 1109.90460233 105.17095458 1123.98454753 131 1143 C131.5990918 1143.44069824 132.19818359 1143.88139648 132.81542969 1144.33544922 C173.26680876 1174.42297525 202.57854459 1218.09376762 215 1267 C215.33902344 1268.26457031 215.67804687 1269.52914063 216.02734375 1270.83203125 C220.18164393 1287.52334627 220.79330294 1304.89910074 222 1322 C225.49781406 1322.3226183 228.99180168 1322.51566077 232.5 1322.6875 C233.48226562 1322.77966797 234.46453125 1322.87183594 235.4765625 1322.96679688 C239.87448913 1323.12805418 242.80016384 1323.09532415 246.14135742 1320.04516602 C248.2921892 1317.12604419 250.14316641 1314.11443473 252 1311 C253.19349412 1309.18712435 254.41208917 1307.39281645 255.63246155 1305.59794617 C257.41483309 1302.97047325 259.16373639 1300.32129904 260.91555786 1297.67340088 C263.34929357 1293.99581488 265.79193342 1290.32415134 268.234375 1286.65234375 C268.72700333 1285.91153564 269.21963165 1285.17072754 269.72718811 1284.4074707 C274.13368294 1277.78686579 278.58813862 1271.19996568 283.0625 1264.625 C291.46784029 1252.27041692 299.83274935 1239.88884974 308.1875 1227.5 C308.81528351 1226.56939758 309.44306702 1225.63879517 310.08987427 1224.67999268 C318.04929588 1212.8885804 318.04929588 1212.8885804 325.95703125 1201.0625 C332.73214185 1190.8778224 339.60162142 1180.75599216 346.44580078 1170.61767578 C354.75128632 1158.32788667 354.75128632 1158.32788667 363 1146 C369.75953924 1135.83533381 376.61577071 1125.73503275 383.44580078 1115.61767578 C391.75128632 1103.32788667 391.75128632 1103.32788667 400 1091 C406.75953924 1080.83533381 413.61577071 1070.73503275 420.44580078 1060.61767578 C428.75128632 1048.32788667 428.75128632 1048.32788667 437 1036 C443.75953924 1025.83533381 450.61577071 1015.73503275 457.44580078 1005.61767578 C465.75128632 993.32788667 465.75128632 993.32788667 474 981 C480.75953924 970.83533381 487.61577071 960.73503275 494.44580078 950.61767578 C502.73955385 938.34545551 502.73955385 938.34545551 510.9765625 926.03515625 C517.22679113 916.63632882 523.56082133 907.29341579 529.875 897.9375 C531.8693189 894.98187511 533.86354522 892.02618779 535.85769653 889.07044983 C537.09071405 887.24292782 538.32384352 885.41548135 539.55709839 883.58811951 C540.1117276 882.76618607 540.66635681 881.94425262 541.23779297 881.09741211 C541.72440399 880.37637802 542.21101501 879.65534393 542.71237183 878.91246033 C545.22534933 875.76935882 545.22534933 875.76935882 545.75250244 872.02198792 C544.46560662 868.56407515 542.29211524 865.62706782 540.234375 862.58984375 C539.73780396 861.84715744 539.24123291 861.10447113 538.72961426 860.33927917 C537.07529608 857.86824552 535.4126976 855.40290155 533.75 852.9375 C532.57994269 851.19350579 531.41035493 849.44919646 530.24121094 847.70458984 C526.50264513 842.13065231 522.75215769 836.56479368 519 831 C517.76039915 829.16065634 516.52081567 827.32130097 515.28125 825.48193359 C510.38002049 818.2105748 505.4767472 810.94060121 500.56835938 803.67407227 C493.08978984 792.60016654 485.64984553 781.50164783 478.25 770.375 C471.53741428 760.2834675 464.78041411 750.22540129 457.95092773 740.21240234 C450.87301987 729.82971485 443.83972481 719.41704407 436.8125 709 C436.18711334 708.07299286 435.56172668 707.14598572 434.91738892 706.19088745 C426.61540689 693.88147668 418.34845025 681.5494993 410.125 669.1875 C403.88094752 659.80108279 397.60432706 650.44085641 391.23510742 641.13867188 C384.42627313 631.18401252 377.68189302 621.18588705 370.9375 611.1875 C370.30856842 610.25517548 369.67963684 609.32285095 369.03164673 608.36227417 C360.69172191 595.99564446 352.38645711 583.6066731 344.125 571.1875 C337.88534432 561.80768421 331.61394825 552.45346607 325.24829102 543.15844727 C318.30707557 533.01173026 311.4363418 522.81742698 304.5625 512.625 C303.92124176 511.67418549 303.27998352 510.72337097 302.61929321 509.7437439 C295.594718 499.32585237 288.57968109 488.90222097 281.625 478.4375 C275.56726576 469.32247764 269.44890654 460.24963924 263.3125 451.1875 C262.83517426 450.48254395 262.35784851 449.77758789 261.86605835 449.05126953 C260.88205708 447.59802082 259.89805333 446.14477377 258.91404724 444.69152832 C258.41389603 443.95285522 257.91374481 443.21418213 257.3984375 442.453125 C256.8889003 441.70059448 256.3793631 440.94806396 255.85438538 440.17272949 C249.37372256 430.59997016 242.90337771 421.02025094 236.4375 411.4375 C235.82329193 410.52726074 235.20908386 409.61702148 234.57626343 408.67919922 C225.92342243 395.85262487 217.3157048 382.99695118 208.74609375 370.11465454 C202.96100369 361.41974626 197.1354114 352.75600957 191.23510742 344.13867188 C184.42627322 334.18401266 177.68187717 324.18589758 170.9375 314.1875 C169.99310562 312.7875177 169.99310562 312.7875177 169.02963257 311.35925293 C160.73246698 299.05584974 152.46908435 286.7306872 144.25 274.375 C137.53712483 264.28365668 130.78041729 254.22540596 123.95092773 244.21240234 C116.87301987 233.82971485 109.83972481 223.41704407 102.8125 213 C102.18711334 212.07299286 101.56172668 211.14598572 100.91738892 210.19088745 C92.61540689 197.88147668 84.34845025 185.5494993 76.125 173.1875 C69.88241185 163.80328406 63.6075327 154.44506069 57.23950195 145.14526367 C51.03080809 136.0684638 44.87756183 126.95439704 38.72723389 117.83798218 C37.45514908 115.95252226 36.18273112 114.06728706 34.90997314 112.18228149 C28.48393965 102.66425857 22.0721298 93.13822414 15.75 83.55078125 C15.27809738 82.83654999 14.80619476 82.12231873 14.31999207 81.38644409 C12.14261856 78.09062843 9.97181809 74.7908925 7.8137207 71.48242188 C7.05969731 70.33835065 6.30540253 69.19445821 5.55078125 68.05078125 C4.90794189 67.06762939 4.26510254 66.08447754 3.6027832 65.0715332 C3.07386475 64.38792725 2.54494629 63.70432129 2 63 C1.34 63 0.68 63 0 63 Z " fill="#1509A6" transform="translate(599,13)"/>
<path d="M0 0 C15.00394198 12.04939861 20.83740247 31.01663785 23.65625 49.33203125 C24.43155914 57.25589775 24.33063662 65.19272956 24.21875 73.14453125 C24.21237518 74.19788666 24.20600037 75.25124207 24.19943237 76.33651733 C24.07940506 95.7470412 23.73772385 116.44951169 18.65625 135.33203125 C19.90921875 135.574375 21.1621875 135.81671875 22.453125 136.06640625 C28.17124915 137.34551898 33.48323344 139.38890595 38.90625 141.58203125 C39.98181152 142.01604248 41.05737305 142.45005371 42.16552734 142.8972168 C76.32133157 156.93817662 108.23496697 175.01023173 137.65625 197.33203125 C138.25953125 197.78964844 138.8628125 198.24726562 139.484375 198.71875 C146.69018552 204.21549008 153.57990026 209.91169187 160.22265625 216.08203125 C162.26629149 217.97149176 164.34429318 219.78545043 166.46875 221.58203125 C175.48119613 229.42136972 184.05560345 238.11960518 191.65625 247.33203125 C192.31778076 248.11489502 192.31778076 248.11489502 192.99267578 248.91357422 C205.71982134 263.98465288 216.99946564 280.12435441 226.65625 297.33203125 C227.29361084 298.46318359 227.29361084 298.46318359 227.94384766 299.6171875 C249.83428289 338.87660787 263.64645809 385.04206713 263.859375 430.2109375 C263.86638931 431.21306778 263.87340363 432.21519806 263.88063049 433.24769592 C263.8980326 436.46335396 263.9044825 439.67882785 263.90625 442.89453125 C263.90726212 444.54216461 263.90726212 444.54216461 263.90829468 446.2230835 C263.89245309 462.44043213 263.57683211 478.33293998 260.65625 494.33203125 C260.39884033 495.75298096 260.39884033 495.75298096 260.13623047 497.20263672 C254.62012857 526.54790448 245.62286181 555.41698719 232.65625 582.33203125 C232.03073242 583.63213135 232.03073242 583.63213135 231.39257812 584.95849609 C221.40846692 605.43751665 209.10118102 624.69858703 194.65625 642.33203125 C193.82351563 643.35554687 192.99078125 644.3790625 192.1328125 645.43359375 C181.88288061 657.86610009 170.93452872 669.87916173 158.65625 680.33203125 C157.69847656 681.17765625 156.74070312 682.02328125 155.75390625 682.89453125 C119.49339945 714.64740629 72.38274941 738.39183323 24.59375 745.45703125 C23.49998047 745.62589844 22.40621094 745.79476562 21.27929688 745.96875 C-13.98937988 751.29786594 -50.33078654 749.36073965 -84.34375 738.33203125 C-85.13861816 738.07583008 -85.93348633 737.81962891 -86.75244141 737.55566406 C-105.02897847 731.53026591 -122.58100278 723.17842806 -138.76196289 712.77246094 C-139.78277954 712.11745605 -139.78277954 712.11745605 -140.82421875 711.44921875 C-141.41098389 711.06362793 -141.99774902 710.67803711 -142.60229492 710.28076172 C-144.55287552 709.21810138 -146.1382582 708.62406005 -148.34375 708.33203125 C-150.54285529 709.68743548 -152.45350229 711.05244246 -154.46875 712.64453125 C-168.22333037 722.9144722 -182.94713309 729.85144216 -199.09667969 735.53613281 C-200.94108803 736.18941086 -202.77327326 736.87710127 -204.6015625 737.57421875 C-231.01321917 747.28106693 -265.98119612 750.50872227 -292.0546875 738.72265625 C-299.16850421 735.10770976 -305.38353979 730.61710261 -311.34375 725.33203125 C-311.97925781 724.77902344 -312.61476563 724.22601562 -313.26953125 723.65625 C-325.29334531 712.48556687 -332.77036567 695.41361822 -333.69921875 679.171875 C-334.33534837 661.29523976 -330.55761863 648.7102809 -318.390625 635.15625 C-304.9649299 621.9611489 -285.20094581 616.97474923 -266.8984375 617.02563477 C-235.59006986 617.71605644 -204.39966432 633.69100154 -176.34375 646.33203125 C-173.34536253 647.66903517 -170.34471701 649.00082464 -167.34375 650.33203125 C-167.16489258 649.77660645 -166.98603516 649.22118164 -166.80175781 648.64892578 C-165.32634723 644.13584905 -163.73618934 639.7096708 -161.94702148 635.31225586 C-147.99621069 600.89227259 -141.08419005 564.13203136 -137.34375 527.33203125 C-137.24320313 526.35137695 -137.14265625 525.37072266 -137.0390625 524.36035156 C-136.75645396 521.56004462 -136.48447025 518.75898802 -136.21875 515.95703125 C-136.14317871 515.17585937 -136.06760742 514.3946875 -135.98974609 513.58984375 C-134.24679282 494.20096398 -134.14304673 474.78522026 -134.15625 455.33203125 C-134.15619383 453.95059204 -134.15613276 452.56915283 -134.15606689 451.18771362 C-134.16363496 429.841455 -134.68701652 408.61699733 -136.34375 387.33203125 C-136.4789914 385.3542434 -136.6131936 383.37638406 -136.74609375 381.3984375 C-137.77457428 367.20540614 -139.73961049 353.11749188 -141.66723633 339.02392578 C-141.77710373 338.21578934 -141.88697113 337.40765289 -142.00016785 336.57502747 C-142.20847968 335.04692747 -142.41914061 333.51914525 -142.63252258 331.991745 C-143.07859125 328.72090234 -143.34375 325.64278599 -143.34375 322.33203125 C-143.96080811 322.75387695 -144.57786621 323.17572266 -145.21362305 323.61035156 C-202.05129205 362.33203125 -202.05129205 362.33203125 -215.34375 362.33203125 C-215.34375 339.56203125 -215.34375 316.79203125 -215.34375 293.33203125 C-206.76375 289.70203125 -198.18375 286.07203125 -189.34375 282.33203125 C-184.85566808 280.1812976 -180.46748543 278.05025454 -176.09375 275.70703125 C-175.07289307 275.16925049 -174.05203613 274.63146973 -173.00024414 274.07739258 C-165.16817294 269.89983185 -157.64290584 265.38529299 -150.34375 260.33203125 C-150.61307306 258.26933349 -150.88436313 256.20689263 -151.15625 254.14453125 C-151.24390625 253.47599121 -151.3315625 252.80745117 -151.421875 252.11865234 C-151.93469256 248.25232406 -152.4802854 244.39380643 -153.07421875 240.5390625 C-156.23546622 219.84157191 -157.74002725 199.26867918 -157.34375 178.33203125 C-202.0902733 189.89268317 -240.85237513 214.26851914 -264.76904297 254.74414062 C-280.59286402 282.73884275 -289.79971043 315.3937266 -281.89599609 347.40966797 C-278.79847802 358.19209825 -272.69415522 368.79629971 -264.34375 376.33203125 C-263.90160156 376.78964844 -263.45945312 377.24726562 -263.00390625 377.71875 C-259.13562672 381.46891412 -254.75004171 383.8015469 -249.90625 386.08203125 C-249.28572754 386.37577637 -248.66520508 386.66952148 -248.02587891 386.97216797 C-239.86267818 390.66601096 -232.21850092 391.66324639 -223.34375 391.95703125 C-222.37824219 391.99570312 -221.41273438 392.034375 -220.41796875 392.07421875 C-218.0600756 392.16760066 -215.70217244 392.25337454 -213.34375 392.33203125 C-213.96126832 411.19721589 -220.85738887 429.09368627 -233.34375 443.33203125 C-233.91222656 444.05390625 -234.48070312 444.77578125 -235.06640625 445.51953125 C-247.06569071 460.19381543 -266.69571253 470.56523533 -285.34375 473.33203125 C-309.85573358 474.86233527 -330.48998237 472.44418039 -350.09375 456.3359375 C-369.06526335 439.43943342 -380.54467267 418.73843138 -386.03125 394.01953125 C-386.23387451 393.10751953 -386.43649902 392.19550781 -386.64526367 391.25585938 C-389.46081243 377.84647071 -390.68260403 364.66343098 -390.60449219 350.99536133 C-390.59373689 348.76681448 -390.60448797 346.53907022 -390.6171875 344.31054688 C-390.63085074 331.49900781 -389.37021893 319.02470136 -386.15625 306.58203125 C-385.94266846 305.74696045 -385.72908691 304.91188965 -385.5090332 304.05151367 C-376.32847157 269.41531463 -358.04863317 239.98893304 -333.34375 214.33203125 C-332.84198242 213.80834961 -332.34021484 213.28466797 -331.82324219 212.74511719 C-325.06536757 205.72648857 -318.06304689 199.30148752 -310.34375 193.33203125 C-309.77205078 192.8839209 -309.20035156 192.43581055 -308.61132812 191.97412109 C-276.69269088 167.02185309 -240.16116242 149.42241997 -202.34375 135.33203125 C-201.49039063 135.01121582 -200.63703125 134.69040039 -199.7578125 134.35986328 C-190.41046229 130.86444213 -180.96887904 128.01799687 -171.33203125 125.43359375 C-168.18339304 124.58229255 -165.10644366 123.61089351 -162.03125 122.51953125 C-158.7453159 121.46134908 -156.70855547 121.22199458 -153.34375 121.33203125 C-153.29621582 120.72472168 -153.24868164 120.11741211 -153.19970703 119.49169922 C-152.6597109 113.33905186 -151.67043373 107.45709386 -150.21875 101.45703125 C-150.00065674 100.55500977 -149.78256348 99.65298828 -149.55786133 98.72363281 C-139.76511977 59.60712743 -118.38249452 20.11827207 -83.34375 -1.66796875 C-57.53185265 -17.00785568 -24.94201482 -17.75040054 0 0 Z " fill="#1206A5" transform="translate(681.34375,337.66796875)"/>
<path d="M0 0 C201.3 0 402.6 0 610 0 C610 47.19 610 94.38 610 143 C408.7 143 207.4 143 0 143 C0 95.81 0 48.62 0 0 Z " fill="#FDFDFE" transform="translate(295,1370)"/>
<path d="M0 0 C39.58945019 7.97772296 78.01172529 45.46223602 99.63525391 77.41650391 C131.09242974 124.80976882 145.36285817 183.42585046 146 240 C146.02433105 241.14887695 146.04866211 242.29775391 146.07373047 243.48144531 C147.19140049 298.50413223 134.96085078 354.77603777 102 400 C101.55543457 400.61681641 101.11086914 401.23363281 100.65283203 401.86914062 C94.89105434 409.83899015 88.95915209 417.45079207 82.22265625 424.625 C80.28109523 426.69963814 78.44755747 428.82171445 76.625 431 C54.15448938 456.64342995 22.87809933 474.07866483 -9 485 C-10.14210938 485.4021875 -11.28421875 485.804375 -12.4609375 486.21875 C-26.93608488 491.03164535 -41.04103508 492.28004063 -56.1875 492.3125 C-57.19340683 492.31787781 -57.19340683 492.31787781 -58.21963501 492.32336426 C-71.10959951 492.36040722 -83.84389876 491.43564098 -96.1875 487.5 C-96.89712891 487.28730469 -97.60675781 487.07460938 -98.33789062 486.85546875 C-101.71208151 485.82261783 -104.91324076 484.72284237 -108 483 C-105.23157043 478.73512202 -102.27972053 474.65139792 -99.23046875 470.58325195 C-50.10953343 404.94821133 -19.71176803 326.49169305 8 250 C8.26721863 249.26364319 8.53443726 248.52728638 8.80975342 247.76861572 C16.37740568 226.98032795 16.37740568 226.98032795 22.88671875 205.84375 C24.13882649 201.40414361 25.63598562 197.0521649 27.125 192.6875 C29.44586049 185.86708681 31.42697026 179.03723832 33 172 C32.3915625 172.03480469 31.783125 172.06960938 31.15625 172.10546875 C22.49066865 172.37308229 14.40852484 170.83930102 6 169 C4.80503906 168.75636719 3.61007812 168.51273438 2.37890625 168.26171875 C-29.86729759 160.80941972 -57.51220875 138.42928724 -74.875 110.81445312 C-82.14097415 99.0955469 -82.14097415 99.0955469 -81.75024414 96.05908203 C-80.85307997 93.59677072 -79.79984914 92.53367701 -77.859375 90.78515625 C-77.20702881 90.18775635 -76.55468262 89.59035645 -75.88256836 88.97485352 C-75.1788208 88.34377686 -74.47507324 87.7127002 -73.75 87.0625 C-72.28618596 85.72046531 -70.82397035 84.37668525 -69.36328125 83.03125 C-68.62932129 82.35707031 -67.89536133 81.68289063 -67.13916016 80.98828125 C-60.01794847 74.36934174 -53.07739944 67.48540476 -46.7890625 60.06640625 C-44.96287757 57.95712278 -43.06814135 55.92114092 -41.16064453 53.88549805 C-35.16821368 47.46888855 -29.72265857 40.73147053 -24.375 33.7734375 C-23.01711233 32.02207101 -21.63822171 30.28988951 -20.25 28.5625 C-9.11327421 14.94927129 -9.11327421 14.94927129 0 0 Z " fill="#FEFEFE" transform="translate(672,523)"/>
<path d="M0 0 C65.34 0 130.68 0 198 0 C193.85534767 6.51302508 189.71599792 13.00309859 185.421875 19.4140625 C184.6603714 20.553629 184.6603714 20.553629 183.88348389 21.71621704 C178.30656864 30.05294464 172.69072446 38.36343698 167.07485962 46.6739502 C157.27976702 61.17206976 147.5129972 75.68840903 137.8125 90.25 C136.85433887 91.68701801 135.8961683 93.12402974 134.93798828 94.56103516 C130.15664904 101.73567146 125.38972385 108.91953402 120.64207458 116.11651611 C118.22746453 119.77487916 115.80767236 123.42979902 113.38729858 127.08435059 C112.2180763 128.85291394 111.05140249 130.62316493 109.88735962 132.3951416 C108.27741331 134.84568347 106.65920404 137.29056619 105.0390625 139.734375 C104.55693802 140.4730481 104.07481354 141.21172119 103.57807922 141.97277832 C102.43741106 143.68435635 101.22577281 145.34830263 100 147 C99.34 147 98.68 147 98 147 C96.28680957 144.69483537 94.70136844 142.38473397 93.13671875 139.98046875 C92.64165329 139.23225861 92.14658783 138.48404846 91.63652039 137.71316528 C90.55366319 136.07512174 89.47394077 134.43500275 88.39691162 132.79312134 C85.46182459 128.31922793 82.50418662 123.86024952 79.55078125 119.3984375 C78.93295776 118.46354996 78.31513428 117.52866241 77.67858887 116.56544495 C71.57771665 107.34024365 65.39492571 98.17127502 59.19906616 89.00970459 C49.04311498 73.99233367 38.93799434 58.94262781 28.90106201 43.84545898 C23.7295118 36.06740579 18.54224603 28.30135564 13.2890625 20.578125 C12.83687347 19.91328598 12.38468445 19.24844696 11.91879272 18.5634613 C9.79440199 15.44242218 7.66608611 12.32413548 5.53271484 9.20922852 C4.80004395 8.13600342 4.06737305 7.06277832 3.3125 5.95703125 C2.66925781 5.01835205 2.02601563 4.07967285 1.36328125 3.11254883 C0 1 0 1 0 0 Z " fill="#FDFDFE" transform="translate(501,1548)"/>
<path d="M0 0 C1.03793701 0.60070313 2.07587402 1.20140625 3.14526367 1.8203125 C5.42994946 3.16282399 7.71137854 4.50977215 9.98950195 5.86328125 C11.17616636 6.56582877 12.36326401 7.26764499 13.55078125 7.96875 C14.14768265 8.32141937 14.74458405 8.67408875 15.35957336 9.03744507 C19.34676793 11.36398818 23.40088747 13.43286998 27.57421875 15.4140625 C45.04611291 23.98039231 45.04611291 23.98039231 48.6965332 34.47851562 C49.77294302 38.43380035 50.6211963 42.38393427 51.30664062 46.42480469 C51.92610747 50.05329877 52.8364594 53.55147979 53.765625 57.11328125 C54.20841797 58.97339844 54.20841797 58.97339844 54.66015625 60.87109375 C56.26216787 67.2885546 58.34392981 73.58459705 60.39257812 79.87109375 C60.68455078 80.7940625 60.97652344 81.71703125 61.27734375 82.66796875 C61.67119263 83.88202393 61.67119263 83.88202393 62.07299805 85.12060547 C63.06569218 89.40979993 63.40029828 93.73170521 63.765625 98.11328125 C63.05454086 98.46771301 62.34345673 98.82214478 61.61082458 99.18731689 C54.88671237 102.5393253 48.16358227 105.89329204 41.44152737 109.24942398 C37.98620891 110.97448172 34.53052496 112.69879851 31.07397461 114.42138672 C27.73386833 116.08597928 24.39476298 117.75256412 21.0563221 119.42049408 C19.78693641 120.05426808 18.51720079 120.68734172 17.24709892 121.31967926 C9.30816974 125.24531078 9.30816974 125.24531078 1.55981445 129.52783203 C-1.234375 131.11328125 -1.234375 131.11328125 -3.3125 131.21484375 C-6.34607558 129.47608701 -8.60564668 127.00729354 -10.984375 124.48828125 C-14.88194416 120.41542459 -18.89499479 116.60983265 -23.16357422 112.92578125 C-26.67245218 109.85458224 -30.03968839 106.6350464 -33.421875 103.42578125 C-38.54289258 98.58585633 -43.67338471 93.75857883 -48.859375 88.98828125 C-53.75244756 84.48668563 -58.62422856 79.96291772 -63.484375 75.42578125 C-64.14131348 74.8126709 -64.79825195 74.19956055 -65.47509766 73.56787109 C-71.23007894 68.19217107 -71.23007894 68.19217107 -71.35462952 65.90501404 C-71.35240891 64.93016556 -71.35018829 63.95531708 -71.34790039 62.95092773 C-71.34782486 61.84986191 -71.34774933 60.74879608 -71.34767151 59.61436462 C-71.34251022 58.41646805 -71.33734894 57.21857147 -71.33203125 55.984375 C-71.3306163 54.76500748 -71.32920135 53.54563995 -71.32774353 52.2893219 C-71.32212467 48.37645055 -71.30956896 44.46363544 -71.296875 40.55078125 C-71.29186243 37.90559978 -71.2872991 35.26041742 -71.28320312 32.61523438 C-71.27214911 26.11456399 -71.25539264 19.61392664 -71.234375 13.11328125 C-70.58247696 12.94461548 -69.93057892 12.77594971 -69.25892639 12.60217285 C-66.26210825 11.82598173 -63.2658183 11.04776985 -60.26953125 10.26953125 C-59.24428345 10.00430664 -58.21903564 9.73908203 -57.16271973 9.46582031 C-51.30127647 7.94172819 -45.47559323 6.3443134 -39.671875 4.61328125 C-32.93518965 2.60697339 -26.1887648 0.64062418 -19.421875 -1.26171875 C-18.47175537 -1.53693359 -17.52163574 -1.81214844 -16.54272461 -2.09570312 C-15.65077393 -2.34384766 -14.75882324 -2.59199219 -13.83984375 -2.84765625 C-13.04731201 -3.07243652 -12.25478027 -3.2972168 -11.43823242 -3.52880859 C-6.89973477 -4.26586825 -3.84970077 -2.24565878 0 0 Z " fill="#FEFEFE" transform="translate(686.234375,1150.88671875)"/>
<path d="M0 0 C6.35840982 1.30322499 12.55845138 3.14312074 18.78295898 4.96582031 C27.659587 7.55383115 36.60169456 9.86232462 45.5625 12.1394043 C47.20025391 12.55766479 47.20025391 12.55766479 48.87109375 12.984375 C49.83716553 13.22897461 50.8032373 13.47357422 51.79858398 13.72558594 C54.78233518 14.54310851 57.69898046 15.4967933 60.625 16.5 C60.82840143 24.18589895 60.96817283 31.87110039 61.06445312 39.55908203 C61.10460171 42.17230159 61.15913411 44.78534237 61.22851562 47.39794922 C61.32593741 51.16158189 61.37101581 54.92283341 61.40625 58.6875 C61.44754028 59.84926758 61.48883057 61.01103516 61.53137207 62.20800781 C61.53467176 68.21784588 61.14749027 71.7048864 56.82543945 76.08081055 C55.45009824 77.25035352 54.0498883 78.39135778 52.625 79.5 C51.29081773 80.66776646 49.960702 81.84021399 48.63671875 83.01953125 C47.97591309 83.58881348 47.31510742 84.1580957 46.63427734 84.74462891 C43.14375009 87.79406888 39.79924092 90.99761525 36.4375 94.1875 C30.83176265 99.48583972 25.20451869 104.75710252 19.52441406 109.97558594 C16.4917754 112.76576504 13.47707193 115.57370162 10.4765625 118.3984375 C9.76443604 119.06866943 9.05230957 119.73890137 8.31860352 120.42944336 C6.93746508 121.73083684 5.55765951 123.03364689 4.17944336 124.33813477 C3.54401611 124.93682373 2.90858887 125.5355127 2.25390625 126.15234375 C1.69775635 126.67820068 1.14160645 127.20405762 0.56860352 127.74584961 C-2.01531555 130.07790067 -4.69146367 132.2832889 -7.375 134.5 C-21.08562203 128.07525529 -34.70318412 121.47271559 -48.26123047 114.73193359 C-50.45055162 113.64568967 -52.64202229 112.56376902 -54.83544922 111.48583984 C-58.04355689 109.90894135 -61.24504927 108.31930843 -64.4453125 106.7265625 C-65.43048859 106.24530914 -66.41566467 105.76405579 -67.43069458 105.26821899 C-68.330289 104.81699677 -69.22988342 104.36577454 -70.15673828 103.90087891 C-70.94992462 103.50832916 -71.74311096 103.11577942 -72.56033325 102.71133423 C-74.375 101.5 -74.375 101.5 -75.375 98.5 C-74.94116211 96.41308594 -74.94116211 96.41308594 -74.15234375 93.984375 C-73.86423828 93.07494141 -73.57613281 92.16550781 -73.27929688 91.22851562 C-72.96025391 90.24560547 -72.64121094 89.26269531 -72.3125 88.25 C-70.0729614 81.14695241 -67.92722925 74.0490063 -66.0949707 66.82910156 C-65.61203942 64.93143874 -65.11427324 63.03749401 -64.60229492 61.14746094 C-63.28425396 56.2676751 -62.17388901 51.45885557 -61.359375 46.46875 C-59.63872869 37.41418932 -57.73832434 30.65690895 -49.91796875 25.1796875 C-44.40486406 21.8228454 -38.66686237 18.98175651 -32.84277344 16.20849609 C-27.35820569 13.50636957 -22.16512329 10.35071995 -16.9375 7.1875 C-15.14771911 6.1279197 -13.35740402 5.06924089 -11.56640625 4.01171875 C-3.61114828 -0.70119384 -3.61114828 -0.70119384 0 0 Z " fill="#FEFEFE" transform="translate(524.375,1148.5)"/>
<path d="M0 0 C8.91 0 17.82 0 27 0 C29.91852435 16.64347672 32.7488007 33.25327348 35 50 C36.43740435 43.7409577 37.66322579 37.48478044 38.7265625 31.15234375 C38.87910492 30.25504044 39.03164734 29.35773712 39.18881226 28.4332428 C39.6696802 25.60168622 40.14739379 22.76960836 40.625 19.9375 C40.95291552 18.00321968 41.28103858 16.06897454 41.609375 14.13476562 C42.40903444 9.42364068 43.20441473 4.71182188 44 0 C52.91 0 61.82 0 71 0 C71 26.4 71 52.8 71 80 C65.06 80 59.12 80 53 80 C52.67 62.18 52.34 44.36 52 26 C49.83112483 37.78510178 49.83112483 37.78510178 47.6628418 49.5703125 C45.79514129 59.7173466 43.90706419 69.86028642 42 80 C37.38 80 32.76 80 28 80 C24.7 63.17 21.4 46.34 18 29 C17.67 45.83 17.34 62.66 17 80 C11.39 80 5.78 80 0 80 C0 53.6 0 27.2 0 0 Z " fill="#1408A5" transform="translate(321,1402)"/>
<path d="M0 0 C1.72027461 2.36960903 3.0689246 4.56156303 4.4375 7.125 C5.30753578 8.67840751 6.18007272 10.23041598 7.0546875 11.78125 C7.52358398 12.62042969 7.99248047 13.45960937 8.47558594 14.32421875 C11.22878853 19.15687417 14.15501124 23.88416394 17.0625 28.625 C18.25430992 30.57918095 19.44572317 32.53360388 20.63671875 34.48828125 C22.25700923 37.1447133 23.87800427 39.80069141 25.50244141 42.45458984 C26.79729 44.57149243 28.08686112 46.69151043 29.375 48.8125 C29.93779663 49.72733154 29.93779663 49.72733154 30.51196289 50.66064453 C33 54.77194119 33 54.77194119 33 57 C-1.32 57 -35.64 57 -71 57 C-71 48.75 -71 40.5 -71 32 C-60.08842541 26.16357638 -49.14009687 20.54324382 -37.94360352 15.27514648 C-32.7075233 12.80329581 -27.52231474 10.26160916 -22.37890625 7.6015625 C-21.29182373 7.04259277 -20.20474121 6.48362305 -19.0847168 5.90771484 C-16.98507994 4.82332036 -14.8911886 3.72770947 -12.80395508 2.61962891 C-11.85544678 2.13155762 -10.90693848 1.64348633 -9.9296875 1.140625 C-9.09679199 0.70266602 -8.26389648 0.26470703 -7.40576172 -0.18652344 C-4.46481993 -1.18096407 -2.91311458 -1.02815809 0 0 Z " fill="#FBFAFD" transform="translate(764,1278)"/>
<path d="M0 0 C3.65710159 0.60237973 6.64150677 1.61662982 9.97265625 3.23046875 C11.4253894 3.93018799 11.4253894 3.93018799 12.9074707 4.64404297 C13.94863037 5.15338379 14.98979004 5.66272461 16.0625 6.1875 C17.69481567 6.97858154 17.69481567 6.97858154 19.36010742 7.78564453 C31.21862169 13.55273899 43.0074281 19.46066681 54.78759766 25.38574219 C59.85439414 27.93184785 64.9273462 30.46558731 70 33 C70 41.25 70 49.5 70 58 C35.68 58 1.36 58 -34 58 C-31.75169031 51.25507093 -31.75169031 51.25507093 -29.55859375 47.8046875 C-28.81863159 46.62688721 -28.81863159 46.62688721 -28.0637207 45.42529297 C-27.25874146 44.16289795 -27.25874146 44.16289795 -26.4375 42.875 C-25.2720836 41.02168402 -24.10810101 39.16746588 -22.9453125 37.3125 C-22.31657227 36.31089844 -21.68783203 35.30929687 -21.04003906 34.27734375 C-17.24262529 28.17675944 -13.53173379 22.02344741 -9.8125 15.875 C-8.70411128 14.04282812 -7.59556286 12.21075478 -6.48623657 10.37915039 C-5.51721934 8.77907236 -4.54922513 7.17837491 -3.58129883 5.57763672 C-2.42594104 3.69431612 -1.22559224 1.83838835 0 0 Z " fill="#FBFBFD" transform="translate(437,1277)"/>
<path d="M0 0 C6.60971205 3.11045273 9.56439072 8.37243695 12.1640625 14.94140625 C15.6229168 24.88250188 16.19304303 34.03753353 16.1875 44.5 C16.18814453 45.74491211 16.18878906 46.98982422 16.18945312 48.27246094 C16.13931694 57.00755256 15.63534675 65.41442955 14 74 C-1.18338058 72.18878455 -1.18338058 72.18878455 -7.75 71 C-24.02405192 68.21829799 -40.52776523 67.55146567 -57 67 C-56.40404165 62.21026065 -55.00807451 58.07187019 -53.0625 53.6875 C-52.75747559 52.99889893 -52.45245117 52.31029785 -52.13818359 51.60083008 C-46.4041068 39.01795378 -39.35414839 27.22865976 -30 17 C-29.13503906 16.04222656 -28.27007813 15.08445312 -27.37890625 14.09765625 C-20.09353555 6.27981296 -11.38218384 -1.9291837 0 0 Z " fill="#FCFCFE" transform="translate(640,388)"/>
<path d="M0 0 C16.5 0 33 0 50 0 C50 26.4 50 52.8 50 80 C43.73 80 37.46 80 31 80 C31 58.55 31 37.1 31 15 C27.04 15 23.08 15 19 15 C18.98541748 16.3504541 18.97083496 17.7009082 18.95581055 19.09228516 C18.89726268 24.16561644 18.82003959 29.23852971 18.73754883 34.31152344 C18.70456259 36.49537302 18.67645144 38.67930248 18.65356445 40.86328125 C18.32246145 71.63472626 18.32246145 71.63472626 13.54931641 77.90600586 C9.52078724 81.42135826 6.37364823 82.15552621 1.1875 82.1875 C0.14980469 82.20167969 -0.88789062 82.21585938 -1.95703125 82.23046875 C-5 82 -5 82 -10 80 C-10 75.38 -10 70.76 -10 66 C-6.535 65.505 -6.535 65.505 -3 65 C-1.23175321 61.17457991 -0.73422104 58.125832 -0.68115234 53.92456055 C-0.66128265 52.72369308 -0.64141296 51.52282562 -0.62094116 50.28556824 C-0.60938995 48.99894791 -0.59783875 47.71232758 -0.5859375 46.38671875 C-0.56721402 45.04863811 -0.54763973 43.71056913 -0.5272522 42.37251282 C-0.4760493 38.86273084 -0.43636064 35.35291062 -0.39910889 31.84295654 C-0.35899462 28.2565376 -0.30804148 24.67027357 -0.2578125 21.08398438 C-0.16017404 14.05604919 -0.08056498 7.02823468 0 0 Z " fill="#1307A5" transform="translate(765,1402)"/>
<path d="M0 0 C-1.3648617 4.09458509 -4.07394728 5.22984484 -7.625 7.3125 C-8.2950708 7.70912842 -8.9651416 8.10575684 -9.65551758 8.5144043 C-16.50075546 12.45783049 -23.57968813 15.33650715 -31 18 C-32.04027344 18.39058594 -33.08054687 18.78117187 -34.15234375 19.18359375 C-47.75435806 24.06315999 -67.31439199 27.76202289 -81.25 21.91015625 C-88.32561687 18.23020373 -93.46046652 13.74166154 -96 6 C-96.86997917 -1.15214455 -96.90997119 -7.43912306 -92.48828125 -13.35546875 C-68.19596912 -40.19815486 -23.77805687 -15.37112716 0 0 Z " fill="#FDFDFE" transform="translate(489,1019)"/>
<path d="M0 0 C5.94 0 11.88 0 18 0 C18.33 8.58 18.66 17.16 19 26 C19.78246094 24.20691406 20.56492187 22.41382813 21.37109375 20.56640625 C22.39310629 18.23171704 23.41524839 15.89708454 24.4375 13.5625 C24.95376953 12.37849609 25.47003906 11.19449219 26.00195312 9.97460938 C26.49501953 8.84990234 26.98808594 7.72519531 27.49609375 6.56640625 C27.95169678 5.52427979 28.4072998 4.48215332 28.87670898 3.40844727 C30 1 30 1 31 0 C32.56172745 -0.08685603 34.12729344 -0.10702219 35.69140625 -0.09765625 C36.63564453 -0.09443359 37.57988281 -0.09121094 38.55273438 -0.08789062 C39.54595703 -0.07951172 40.53917969 -0.07113281 41.5625 -0.0625 C42.55958984 -0.05798828 43.55667969 -0.05347656 44.58398438 -0.04882812 C47.05604849 -0.03700007 49.52799518 -0.02051849 52 0 C51.17080482 1.880227 50.34115488 3.76025445 49.50952148 5.6394043 C48.78973038 7.26635184 48.07181943 8.8941324 47.35571289 10.52270508 C45.60347217 14.48565533 43.81954375 18.41636161 41.875 22.2890625 C41.54830322 22.94898193 41.22160645 23.60890137 40.88500977 24.28881836 C39.98698224 26.08834427 39.07018986 27.87847009 38.15234375 29.66796875 C35.84032154 36.35323975 38.75380055 42.62118648 41.16015625 48.92578125 C41.62415077 50.16898384 41.62415077 50.16898384 42.09751892 51.43730164 C43.07921777 54.06490956 44.07023575 56.68886565 45.0625 59.3125 C46.0569875 61.95446016 47.04943387 64.59714713 48.03819275 67.24125671 C48.65219379 68.8819582 49.26973414 70.52134034 49.89112854 72.15925598 C52 77.77689585 52 77.77689585 52 80 C45.4 80 38.8 80 32 80 C30.515 75.545 30.515 75.545 29 71 C28.47033149 69.46554265 27.93668887 67.93243303 27.39453125 66.40234375 C27.13349609 65.66435547 26.87246094 64.92636719 26.60351562 64.16601562 C26.34248047 63.43060547 26.08144531 62.69519531 25.8125 61.9375 C25.53986328 61.16728516 25.26722656 60.39707031 24.98632812 59.60351562 C24.32495174 57.73541742 23.66258343 55.86767043 23 54 C18.73893975 57.97983027 18.48421351 61.37732338 18.29296875 66.90429688 C18.27169922 68.34385742 18.27169922 68.34385742 18.25 69.8125 C18.20552734 71.28106445 18.20552734 71.28106445 18.16015625 72.77929688 C18.0897232 75.18575939 18.04256617 77.59288331 18 80 C12.06 80 6.12 80 0 80 C0 53.6 0 27.2 0 0 Z " fill="#1307A5" transform="translate(639,1402)"/>
<path d="M0 0 C7.92 0 15.84 0 24 0 C25.36869076 4.10607228 26.45265811 7.75845305 27.296875 11.9453125 C27.53043701 13.09136963 27.76399902 14.23742676 28.00463867 15.41821289 C28.25060791 16.64145264 28.49657715 17.86469238 28.75 19.125 C29.28175878 21.73063454 29.81425355 24.33610875 30.34765625 26.94140625 C30.55126518 27.93837776 30.55126518 27.93837776 30.75898743 28.95549011 C32.1992296 35.99880651 33.6860583 43.03198496 35.1875 50.0625 C35.54376465 51.74400146 35.54376465 51.74400146 35.90722656 53.45947266 C37.26408686 59.80065961 38.75505071 66.07962944 40.44262695 72.34155273 C41 75 41 75 41 80 C34.73 80 28.46 80 22 80 C19 69.625 19 69.625 19 64 C14.38 64.33 9.76 64.66 5 65 C4.34 69.95 3.68 74.9 3 80 C-3.6 80 -10.2 80 -17 80 C-11.95502981 53.18652013 -6.03742038 26.60292725 0 0 Z " fill="#1509A6" transform="translate(838,1402)"/>
<path d="M0 0 C7.92 0 15.84 0 24 0 C24.63615234 3.03380859 24.63615234 3.03380859 25.28515625 6.12890625 C25.87637766 8.94036326 26.46921265 11.75147827 27.0625 14.5625 C27.29518082 15.6650412 27.29518082 15.6650412 27.53256226 16.78985596 C30.13774858 29.11375526 32.86134471 41.40732271 35.68969727 53.68188477 C40 72.49935528 40 72.49935528 40 80 C33.73 80 27.46 80 21 80 C20.01 75.05 19.02 70.1 18 65 C11.07 64.505 11.07 64.505 4 64 C3.855625 65.711875 3.71125 67.42375 3.5625 69.1875 C3.24861109 72.90932563 2.73741485 76.31292574 2 80 C-4.27 80 -10.54 80 -17 80 C-16.37169233 74.97353863 -15.71478817 70.19059695 -14.73046875 65.25390625 C-14.48353271 64.01326416 -14.23659668 62.77262207 -13.98217773 61.49438477 C-13.7175818 60.18369659 -13.45268323 58.87306948 -13.1875 57.5625 C-13.05272247 56.89193573 -12.91794495 56.22137146 -12.77908325 55.53048706 C-11.00898429 46.73117013 -9.13437892 37.97070935 -7.0078125 29.25 C-5.42352593 22.6934413 -4.05766163 16.085311 -2.66186523 9.48657227 C-2.46020752 8.54354248 -2.2585498 7.6005127 -2.05078125 6.62890625 C-1.87200439 5.78400635 -1.69322754 4.93910645 -1.5090332 4.06860352 C-1 2 -1 2 0 0 Z " fill="#1408A6" transform="translate(535,1402)"/>
<path d="M0 0 C7.92 0 15.84 0 24 0 C28.61524026 19.96684002 33.21158308 39.93348515 37.375 60 C37.62548096 61.20333984 37.87596191 62.40667969 38.1340332 63.64648438 C38.36566162 64.77376953 38.59729004 65.90105469 38.8359375 67.0625 C39.13830322 68.53396484 39.13830322 68.53396484 39.44677734 70.03515625 C40.06341233 73.33984086 40.52458063 76.67206438 41 80 C35.06 80 29.12 80 23 80 C20.73322261 74.33305652 20.437337 70.04982857 20 64 C14.72 64 9.44 64 4 64 C3.855625 66.083125 3.71125 68.16625 3.5625 70.3125 C3.32107631 73.79589889 3.10514766 76.68455701 2 80 C-4.27 80 -10.54 80 -17 80 C-16.38180385 75.67262694 -15.74751699 71.49958634 -14.87109375 67.23828125 C-14.64454102 66.13637451 -14.41798828 65.03446777 -14.18457031 63.89916992 C-13.93803711 62.71556885 -13.69150391 61.53196777 -13.4375 60.3125 C-13.17936523 59.06895752 -12.92123047 57.82541504 -12.65527344 56.54418945 C-10.43609279 45.90716177 -8.10685394 35.29476621 -5.75 24.6875 C-5.57773895 23.9113736 -5.40547791 23.13524719 -5.22799683 22.33560181 C-4.73163833 20.10229956 -4.23344294 17.86941695 -3.734375 15.63671875 C-3.30463379 13.71412231 -3.30463379 13.71412231 -2.86621094 11.75268555 C-1.95928665 7.82361755 -0.97799576 3.91198303 0 0 Z " fill="#1509A6" transform="translate(415,1402)"/>
<path d="M0 0 C7.92 0 15.84 0 24 0 C25.04249298 4.74982007 26.08425693 9.49979652 27.125 14.25 C27.28239655 14.96817902 27.43979309 15.68635803 27.60195923 16.42630005 C30.08214176 27.74776481 32.5166439 39.07818578 34.92675781 50.41479492 C36.47824102 57.67457537 38.10129239 64.9120251 39.88354492 72.11889648 C40.54785558 74.84102862 41 77.18209809 41 80 C34.73 80 28.46 80 22 80 C21.01 75.05 20.02 70.1 19 65 C14.05 64.67 9.1 64.34 4 64 C3.855625 65.8975 3.71125 67.795 3.5625 69.75 C3.28829689 73.35381232 2.88075459 76.47698165 2 80 C-4.27 80 -10.54 80 -17 80 C-15.83418222 69.97396713 -13.78019089 60.35001386 -11.46118164 50.53710938 C-9.19890303 40.94990996 -7.11333747 31.33177743 -5.09277344 21.69091797 C-3.55684753 14.41406618 -1.8421834 7.2057085 0 0 Z " fill="#1409A6" transform="translate(710,1402)"/>
<path d="M0 0 C5.94 0 11.88 0 18 0 C20.78728629 6.62922145 23.53202474 13.24554138 26 20 C29.39667777 13.45721905 32.34675978 6.87877094 35 0 C41.27 0 47.54 0 54 0 C53.17050419 2.08343494 52.34069459 4.16674536 51.50952148 6.24951172 C50.78991314 8.05385875 50.07199909 9.85888235 49.35571289 11.66455078 C47.58768574 16.10472317 45.79111629 20.52380274 43.875 24.90234375 C43.54830322 25.65845947 43.22160645 26.4145752 42.88500977 27.19360352 C42.26765932 28.61489346 41.63847446 30.03111956 40.99584961 31.44116211 C38.51777511 37.19129908 39.17400529 41.0953649 41.39868164 46.77050781 C41.97958491 48.16733127 42.56706521 49.56143272 43.16015625 50.953125 C43.62415077 52.06527374 43.62415077 52.06527374 44.09751892 53.19989014 C45.07984757 55.55249353 46.07053029 57.90144729 47.0625 60.25 C48.05702711 62.61323273 49.04968163 64.97720081 50.03819275 67.34295654 C50.65209453 68.81136477 51.2696317 70.27825943 51.89112854 71.74346924 C54 76.77612274 54 76.77612274 54 79 C47.4 79 40.8 79 34 79 C31.36 72.07 28.72 65.14 26 58 C24.33333512 60.49999732 23.33070466 62.46982673 22.2734375 65.23046875 C21.809375 66.43413086 21.809375 66.43413086 21.3359375 67.66210938 C21.01882813 68.49548828 20.70171875 69.32886719 20.375 70.1875 C20.05015625 71.03248047 19.7253125 71.87746094 19.390625 72.74804688 C18.59047977 74.83077784 17.79480682 76.91522597 17 79 C11.06 79 5.12 79 -1 79 C1.52928853 69.71109882 5.25736715 61.01486686 9.11328125 52.21801758 C9.94666122 50.31032902 10.76340563 48.39618618 11.578125 46.48046875 C12.06700195 45.35535889 12.55587891 44.23024902 13.05957031 43.07104492 C14.81986039 37.32268332 12.22725188 32.72091935 10.05859375 27.36328125 C9.77146011 26.64262985 9.48432648 25.92197845 9.18849182 25.17948914 C8.27552117 22.88885901 7.35707456 20.60048623 6.4375 18.3125 C5.51466066 16.0136863 4.59311152 13.71439993 3.67579651 11.41337585 C3.10597512 9.9841652 2.53293959 8.55623104 1.95640564 7.12971497 C0 2.22507612 0 2.22507612 0 0 Z " fill="#1509A6" transform="translate(460,1403)"/>
<path d="M0 0 C6.6 0 13.2 0 20 0 C20.06058594 2.15402344 20.12117187 4.30804687 20.18359375 6.52734375 C20.24534241 8.6057501 20.30874691 10.68409975 20.37231445 12.76245117 C20.4157163 14.2106424 20.45738744 15.65888654 20.49731445 17.10717773 C20.55489062 19.18489559 20.61862028 21.26234573 20.68359375 23.33984375 C20.72025146 24.59144287 20.75690918 25.84304199 20.79467773 27.13256836 C20.67803906 29.89630504 20.67803906 29.89630504 22 31 C25.3 31.33 28.6 31.66 32 32 C32 21.44 32 10.88 32 0 C38.27 0 44.54 0 51 0 C51 26.4 51 52.8 51 80 C44.73 80 38.46 80 32 80 C32 69.44 32 58.88 32 48 C25.07360483 48.23605517 25.07360483 48.23605517 18.15014648 48.54052734 C12.2353357 48.64172823 8.77111868 47.99800642 4.42211914 43.88525391 C0.32948406 38.45978985 -0.42732218 34.10311248 -0.29296875 27.5390625 C-0.28872391 26.74849457 -0.28447906 25.95792664 -0.28010559 25.1434021 C-0.26341301 22.6369106 -0.22577983 20.13124539 -0.1875 17.625 C-0.17244092 15.91798042 -0.15875466 14.21094815 -0.14648438 12.50390625 C-0.11610145 8.33536885 -0.05736607 4.1686011 0 0 Z " fill="#1307A5" transform="translate(576,1402)"/>
<path d="M0 0 C42.68739507 -1.01701848 42.68739507 -1.01701848 62 6 C60.50838461 10.32165325 58.22761764 13.82929399 55.5625 17.5 C55.12292969 18.10875977 54.68335938 18.71751953 54.23046875 19.34472656 C41.86528413 36.24206572 27.41054032 50.28821096 10.4375 62.5625 C9.82938477 63.00464844 9.22126953 63.44679688 8.59472656 63.90234375 C4.24173032 67 4.24173032 67 2 67 C1.68575214 65.31282461 1.37369845 63.62524051 1.0625 61.9375 C0.88847656 60.99777344 0.71445312 60.05804687 0.53515625 59.08984375 C-0.61679377 52.43880384 -1.14865529 46.11063116 -1.1328125 39.375 C-1.13376923 38.46927246 -1.13472595 37.56354492 -1.13571167 36.63037109 C-1.13638913 34.72428314 -1.13456525 32.81819283 -1.13037109 30.91210938 C-1.12501671 28.00906143 -1.13033088 25.10616818 -1.13671875 22.203125 C-1.13605789 20.34374966 -1.13477657 18.48437442 -1.1328125 16.625 C-1.13483673 15.76438965 -1.13686096 14.9037793 -1.13894653 14.01708984 C-1.12053016 9.23942497 -0.7993495 4.71195492 0 0 Z " fill="#FDFDFE" transform="translate(572,506)"/>
<path d="M0 0 C0.99 0.33 1.98 0.66 3 1 C3.51032668 4.47773158 4.00633268 7.95736775 4.5 11.4375 C4.64308594 12.41138672 4.78617188 13.38527344 4.93359375 14.38867188 C5.76768061 20.32657597 6.14880874 26.00424766 6 32 C2.7 32 -0.6 32 -4 32 C-3.5233575 27.79137679 -3.04324056 23.58315691 -2.5625 19.375 C-2.42779297 18.18519531 -2.29308594 16.99539063 -2.15429688 15.76953125 C-2.02216797 14.61582031 -1.89003906 13.46210937 -1.75390625 12.2734375 C-1.63345947 11.21560059 -1.5130127 10.15776367 -1.38891602 9.06787109 C-1.00363713 6.02869062 -0.52410529 3.01805535 0 0 Z " fill="#EBEAF7" transform="translate(545,1419)"/>
<path d="M0 0 C0.66 0 1.32 0 2 0 C2.57328174 3.91386765 3.14283468 7.82825821 3.70898438 11.74316406 C3.99673706 13.72749888 4.28741437 15.71140887 4.578125 17.6953125 C4.75859375 18.94570312 4.9390625 20.19609375 5.125 21.484375 C5.29257812 22.63647461 5.46015625 23.78857422 5.6328125 24.97558594 C6 28 6 28 6 32 C2.7 32 -0.6 32 -4 32 C-4.27289722 24.97289671 -3.22312164 18.40898441 -2 11.5 C-1.80921875 10.39140625 -1.6184375 9.2828125 -1.421875 8.140625 C-0.95383586 5.42599799 -0.47974117 2.71257905 0 0 Z " fill="#EEEDF8" transform="translate(849,1419)"/>
<path d="M0 0 C0.99 0.33 1.98 0.66 3 1 C3.13277344 2.24136719 3.26554688 3.48273438 3.40234375 4.76171875 C3.58061151 6.40365861 3.75900346 8.04558499 3.9375 9.6875 C4.02451172 10.50412109 4.11152344 11.32074219 4.20117188 12.16210938 C4.55644167 15.4121701 4.9209789 18.60489449 5.5625 21.8125 C6.24612249 25.23061246 6.05896216 28.52123272 6 32 C2.7 32 -0.6 32 -4 32 C-2.66666667 21.33333333 -1.33333333 10.66666667 0 0 Z " fill="#EEEDF8" transform="translate(721,1419)"/>
<path d="M0 0 C0.99 0 1.98 0 3 0 C3.13277344 1.24136719 3.26554687 2.48273438 3.40234375 3.76171875 C3.58061151 5.40365861 3.75900346 7.04558499 3.9375 8.6875 C4.02451172 9.50412109 4.11152344 10.32074219 4.20117188 11.16210938 C4.55644167 14.4121701 4.9209789 17.60489449 5.5625 20.8125 C6.24612249 24.23061246 6.05896216 27.52123272 6 31 C3.03 31 0.06 31 -3 31 C-2.3742559 20.6093545 -1.28762194 10.3259779 0 0 Z " fill="#F6F5FB" transform="translate(426,1419)"/>
<path d="M0 0 C0.33 0 0.66 0 1 0 C1.33820166 1.5823006 1.67035939 3.16589375 2 4.75 C2.185625 5.63171875 2.37125 6.5134375 2.5625 7.421875 C3 10 3 10 3 14 C2.34 14 1.68 14 1 14 C1 28.19 1 42.38 1 57 C0.67 57 0.34 57 0 57 C0 38.19 0 19.38 0 0 Z " fill="#DBDAF1" transform="translate(338,1425)"/>
</svg>
