<svg xmlns="http://www.w3.org/2000/svg" viewBox="609.34 375.45 2781.33 3249.1" width="292.606782383782" height="341.75557786230786"><metadata xmlns:fl="https://football-logos.cc/england/sheffield-wednesday">dl1_d3d855f3b500187edbade72072087cb4c012e371adde1bd31c9abbf3869bbbdc</metadata><!-- Source: https://football-logos.cc --><path d="M0 0h-450.014c-157.921 0-214.731 70.976-214.731 70.976-53.232 62.103-109.421 56.188-109.421 56.188C-892.458 124.207-905.322 0-905.322 0h-105.429c0 215.884 212.927 233.628 212.927 233.628 74.85 9.345 153.248-44.035 200.742-84.52 32.265-27.503 73.253-42.645 115.661-42.645h218.871l-230.375 214.672a142.4 142.4 0 0 1-69.704 35.576c-221.532 43.384-353.488 75.057-353.488 75.057-490.914 115.335-603.824 632.865-603.824 632.865h109.953c109.421-411.067 467.256-520.487 467.256-520.487 123.438-38.711 375.608-83.396 463.115-98.331a99.9 99.9 0 0 0 53.202-27.207z" clip-path="url(#clipPath2)" style="fill:#002fa1;fill-opacity:1;fill-rule:nonzero;stroke:none" transform="matrix(1.33333 0 0 -1.33333 2662.813 2737.357)"/><path d="M0 0v43.443c0 16.827-13.663 30.49-30.49 30.49h-72.838c-18.07 0-32.708-14.639-32.708-32.708V20.849a41.14 41.14 0 0 1 28.212-39.066l171.495-56.84c45.927-15.23 76.92-58.17 76.92-106.551V-315.9c0-43.916-35.606-79.522-79.522-79.522h-227.95c-59.738 0-108.149 48.411-108.149 108.149v98.005h139.792v-71.242c0-19.459 15.762-35.221 35.221-35.221h68.078c20.908 0 37.854 16.945 37.854 37.853v46.016c0 18.69-12.214 35.192-30.106 40.634l-165.639 50.392c-45.336 13.811-76.328 55.627-76.328 103.033v126.248c0 38.09 30.904 68.994 68.994 68.994H23.807c64.498 0 116.784-52.285 116.784-116.785V0Z" clip-path="url(#clipPath4)" style="fill:#002fa1;fill-opacity:1;fill-rule:nonzero;stroke:none" transform="matrix(1.33333 0 0 -1.33333 1090.39 3096.177)"/><path d="m0 0-72.484-574.34h-188.765l-57.668 426.77-59.737-426.77h-181.609L-632.392 0h137.071l32.886-345.148c2.602-27.473 41.668-28.124 45.187-.769L-373.006 0h116.282l43.856-340.209c3.401-26.439 41.137-25.995 43.946.532L-132.902 0Z" clip-path="url(#clipPath6)" style="fill:#002fa1;fill-opacity:1;fill-rule:nonzero;stroke:none" transform="matrix(1.33333 0 0 -1.33333 2154.392 2857.62)"/><path d="M0 0v-96.94h139.201v-102.413H.296v-240.044h-140.443v574.339H198.11V30.135H29.603C13.249 30.135 0 16.65 0 0" clip-path="url(#clipPath8)" style="fill:#002fa1;fill-opacity:1;fill-rule:nonzero;stroke:none" transform="matrix(1.33333 0 0 -1.33333 2391.608 3037.544)"/><path d="M0 0v85.171c0 19.932-16.147 36.079-36.079 36.079h-72.75c-19.932 0-36.079-16.147-36.079-36.079v-288.634c0-19.933 16.147-36.079 36.079-36.079h72.75C-16.147-239.542 0-223.396 0-203.463v85.17h138.994v-121.752c0-58.525-47.436-105.961-105.961-105.961h-210.974c-58.526 0-105.961 47.436-105.961 105.961v361.798c0 58.525 47.435 105.96 105.961 105.96H33.033c58.525 0 105.961-47.435 105.961-105.96V0Z" clip-path="url(#clipPath10)" style="fill:#002fa1;fill-opacity:1;fill-rule:nonzero;stroke:none" transform="matrix(1.33333 0 0 -1.33333 3065.875 3163.21)"/><path d="M0 0h-208.402l-564.551 402.195 289.817-65.061 277.573-202.842c7.956-5.826 18.425 2.839 14.166 11.711-75.56 157.92-413.492 834.613-835.412 1229.355 0 0-47.79 138.786-103.979 212.719 0 0 549.292-310.518 1130.788-1588.077" clip-path="url(#clipPath12)" style="fill:#002fa1;fill-opacity:1;fill-rule:nonzero;stroke:none" transform="matrix(1.33333 0 0 -1.33333 3390.667 2737.357)"/><path d="M0 0c16.324 27.858 25.729 60.507 25.729 95.433 0 101.997-80.144 184.713-178.977 184.713-93.983 0-171.081-74.761-178.415-169.779-8.517 93.836-85.052 167.266-178.207 167.266-98.834 0-178.977-82.716-178.977-184.714 0-35.103 9.493-67.93 25.965-95.876h-78.694q-.354 8.828-.355 17.744c0 233.42 183.383 422.659 409.588 422.659S77.245 248.207 77.245 14.787c0-4.939-.089-9.878-.266-14.787Zm-152.036 18.069c-40.042 0-72.513 33.506-72.513 74.85s32.471 74.85 72.513 74.85c40.072 0 72.543-33.507 72.543-74.85 0-41.344-32.471-74.85-72.543-74.85m-178.828-79.581-40.161 37.854c22.239 28.183 36.612 63.257 39.569 101.642 3.46-38.415 18.336-73.4 41.107-101.317zM-509.87 18.069c-40.043 0-72.514 33.506-72.514 74.85s32.471 74.85 72.514 74.85c40.071 0 72.543-33.507 72.543-74.85 0-41.344-32.472-74.85-72.543-74.85m177.527 523.119c-281.743 0-510.136-235.668-510.136-526.401 0-38.564 4.022-76.181 11.651-112.378h306.557c32.862 0 65.372-7.911 94.075-23.911 37.133-20.699 80.135-58.139 97.853-124.251 0 0 17.733 42.626 52.867 82.581 36.994 42.07 90.757 65.581 146.778 65.581H62.606c-47.553-178.415-205.622-309.601-393.47-310.281v-103.743c281.063.828 508.658 236.171 508.658 526.402 0 290.733-228.394 526.401-510.137 526.401" clip-path="url(#clipPath14)" style="fill:#002fa1;fill-opacity:1;fill-rule:nonzero;stroke:none" transform="matrix(1.33333 0 0 -1.33333 1732.64 1097.034)"/><!-- source: https://football-logos.cc --></svg>