<svg xmlns="http://www.w3.org/2000/svg" width="175.08098mm" height="175.08269mm" viewBox="0 0 175.08098 175.08269"><g style="stroke-width:.288407"><g style="stroke-width:.288407"><path d="M0 0c-39.525 0-71.567-32.042-71.567-71.568S-39.525-143.135 0-143.135s71.567 32.042 71.567 71.567C71.567-32.042 39.525 0 0 0" style="fill:#fff;fill-opacity:1;fill-rule:nonzero;stroke:none;stroke-width:.288407" transform="matrix(1.2232 0 0 -1.2232 87.54 0)"/></g><g style="stroke-width:.288407"><path d="M0 0c-37.359 0-67.644 30.285-67.644 67.644 0 37.358 30.285 67.644 67.644 67.644 37.358 0 67.645-30.286 67.645-67.644S37.358 0 0 0m0 139.211c-39.525 0-71.567-32.041-71.567-71.567S-39.525-3.924 0-3.924s71.567 32.042 71.567 71.568S39.525 139.211 0 139.211" style="fill:#ed1639;fill-opacity:1;fill-rule:nonzero;stroke:none;stroke-width:.288407" transform="matrix(1.2232 0 0 -1.2232 87.54 170.283)"/></g><g style="stroke-width:.288407"><path d="M0 0c-33.642 0-60.913 27.271-60.913 60.913S-33.642 121.826 0 121.826s60.913-27.272 60.913-60.913C60.913 27.271 33.642 0 0 0m0 124.792c-35.28 0-63.88-28.6-63.88-63.879 0-35.28 28.6-63.88 63.88-63.88s63.88 28.6 63.88 63.88S35.28 124.792 0 124.792" style="fill:#12204c;fill-opacity:1;fill-rule:nonzero;stroke:none;stroke-width:.288407" transform="matrix(1.2232 0 0 -1.2232 87.54 162.05)"/></g><g style="stroke-width:.288407"><path d="M0 0h-19.067l-.003-4.039h1.671a3.93 3.93 0 0 0 3.9-3.82v-54.537H0v21.938l-7.405 9.375L0-21.749z" style="fill:#ed1639;fill-opacity:1;fill-rule:nonzero;stroke:none;stroke-width:.288407" transform="matrix(1.2232 0 0 -1.2232 60.88 37.598)"/></g><g style="stroke-width:.288407"><path d="M0 0h-6.911L-31.48-31.057l24.755-31.33H.179l-17.868 31.33z" style="fill:#ed1639;fill-opacity:1;fill-rule:nonzero;stroke:none;stroke-width:.288407" transform="matrix(1.2232 0 0 -1.2232 91.26 37.603)"/></g><g style="stroke-width:.288407"><path d="M0 0h-2.994l23.792 41.074h2.994z" style="fill:#ed1639;fill-opacity:1;fill-rule:nonzero;stroke:none;stroke-width:.288407" transform="matrix(1.2232 0 0 -1.2232 100.692 113.91)"/></g><g style="stroke-width:.288407"><path d="m0 0 14.596 21.313h-31.082l-2.447-4.245h16.216L-20.239-7.977h23.1l-19.17-33.097h2.785L10.266 0H7.273Z" style="fill:#ed1639;fill-opacity:1;fill-rule:nonzero;stroke:none;stroke-width:.288407" transform="matrix(1.2232 0 0 -1.2232 112.178 63.668)"/></g><g style="stroke-width:.288407"><path d="M0 0h-2.992l23.79 41.074h2.994z" style="fill:#ed1639;fill-opacity:1;fill-rule:nonzero;stroke:none;stroke-width:.288407" transform="matrix(1.2232 0 0 -1.2232 105.75 113.91)"/></g><g style="stroke-width:.288407"><path d="M0 0s.859 2.255 2.47 3.437c0 0 1.315.482 4.349-.833 0 0 .51-.482.483-4L3.087-3.168S1.289-1.45 0 0" style="fill:#ed1639;fill-opacity:1;fill-rule:nonzero;stroke:none;stroke-width:.288407" transform="matrix(1.2232 0 0 -1.2232 119.202 93.672)"/></g><g style="stroke-width:.288407"><path d="M0 0s1.235.269 3.651 1.477c0 0 1.236-1.664 3.436-2.631 0 0-.107-1.128-1.529-2.9 0 0-1.235-.993-4.967.913C.591-3.141.133-2.04 0 0" style="fill:#ed1639;fill-opacity:1;fill-rule:nonzero;stroke:none;stroke-width:.288407" transform="matrix(1.2232 0 0 -1.2232 117.592 105.133)"/></g><g style="stroke-width:.288407"><path d="M0 0s-.059-1.362-.726-4.43c0 0 .779-.725 2.122-1.181 0 0 3.597 2.926 1.153 6.765z" style="fill:#ed1639;fill-opacity:1;fill-rule:nonzero;stroke:none;stroke-width:.288407" transform="matrix(1.2232 0 0 -1.2232 132.634 98.959)"/></g><g style="stroke-width:.288407"><path d="M0 0s8.33-10.577 17.728-1.033c0 0-.999-2.613-4.721-4.225 0 0-3.276-1.645-7.598-.465 0 0-3.339.7-6.027 3.931z" style="fill:#ed1639;fill-opacity:1;fill-rule:nonzero;stroke:none;stroke-width:.288407" transform="matrix(1.2232 0 0 -1.2232 112.586 106.275)"/></g><g style="stroke-width:.288407"><path d="m0 0 .403-1.109s2.398-1.647 3.329-2.579c0 0-1.243 2.292-3.732 3.688" style="fill:#ed1639;fill-opacity:1;fill-rule:nonzero;stroke:none;stroke-width:.288407" transform="matrix(1.2232 0 0 -1.2232 130.674 87.542)"/></g><g style="stroke-width:.288407"><path d="m0 0-.239.237h-2.369L-2.846 0v-10.72q1.393.287 2.846.552z" style="fill:#ed1639;fill-opacity:1;fill-rule:nonzero;stroke:none;stroke-width:.288407" transform="matrix(1.2232 0 0 -1.2232 47.962 119.612)"/></g><g style="stroke-width:.288407"><path d="M0 0h5.264l.314 1.935-.239.276H0v3.841h5.945l.315 1.935-.239.275h-8.629l-.131-.131-.107-.106v-9Q-1.442-.794 0-.631Z" style="fill:#ed1639;fill-opacity:1;fill-rule:nonzero;stroke:none;stroke-width:.288407" transform="matrix(1.2232 0 0 -1.2232 60.683 129.428)"/></g><g style="stroke-width:.288407"><path d="M0 0h5.264l.314 1.935-.239.276H0v3.841h5.945l.315 1.935-.24.275h-8.628l-.131-.131-.107-.106v-9.173Q-1.4-1.347 0-1.565Z" style="fill:#ed1639;fill-opacity:1;fill-rule:nonzero;stroke:none;stroke-width:.288407" transform="matrix(1.2232 0 0 -1.2232 124.219 129.428)"/></g><g style="stroke-width:.288407"><path d="m0 0 1.391-4.274q1.408.051 2.835.084L1.541 3.551h-2.697l-2.786-8.086q1.24.077 2.498.141z" style="fill:#ed1639;fill-opacity:1;fill-rule:nonzero;stroke:none;stroke-width:.288407" transform="matrix(1.2232 0 0 -1.2232 76.938 123.665)"/></g><g style="stroke-width:.288407"><path d="M0 0h-5.519v-1.368Q-2.72-1.43 0-1.563Z" style="fill:#ed1639;fill-opacity:1;fill-rule:nonzero;stroke:none;stroke-width:.288407" transform="matrix(1.2232 0 0 -1.2232 100.885 127.115)"/></g><g style="stroke-width:.288407"><path d="M0 0c-.006.131-.013.262-.014.401 0 0-.176 3.557 2.626 4.946 0 0 2.751 1.325 5.843-.972l.404.214-.005 2.054S7.222 7.956 4.228 7.988c0 0-3.118.097-5.1-1.968 0 0-2.04-1.897-2.036-5.369 0 0-.011-.249.009-.654q.89.006 1.786.007Q-.555.004 0 0" style="fill:#ed1639;fill-opacity:1;fill-rule:nonzero;stroke:none;stroke-width:.288407" transform="matrix(1.2232 0 0 -1.2232 89.539 128.726)"/></g><g style="stroke-width:.288407"><path d="M0 0h-2.524l.001-8.8Q-1.246-8.937 0-9.09z" style="fill:#ed1639;fill-opacity:1;fill-rule:nonzero;stroke:none;stroke-width:.288407" transform="matrix(1.2232 0 0 -1.2232 117.723 119.322)"/></g><g style="stroke-width:.288407"><path d="M0 0h-2.878v-8.046q1.453-.086 2.879-.191z" style="fill:#ed1639;fill-opacity:1;fill-rule:nonzero;stroke:none;stroke-width:.288407" transform="matrix(1.2232 0 0 -1.2232 106.978 119.322)"/></g><g style="stroke-width:.288407"><path d="m0 0 .237-.238h8.351l.315 1.935-.238.276H2.846v1.973Q1.392 3.681 0 3.394V1.973Z" style="fill:#b01028;fill-opacity:1;fill-rule:nonzero;stroke:none;stroke-width:.288407" transform="matrix(1.2232 0 0 -1.2232 44.481 136.877)"/></g><g style="stroke-width:.288407"><path d="m0 0 .107-.107.131-.131h8.553l.315 1.935-.239.276H2.846v3.485A163 163 0 0 1 0 5.114V1.973Z" style="fill:#b01028;fill-opacity:1;fill-rule:nonzero;stroke:none;stroke-width:.288407" transform="matrix(1.2232 0 0 -1.2232 57.202 136.877)"/></g><g style="stroke-width:.288407"><path d="m0 0 .106-.107.131-.131h8.554l.314 1.935-.239.276h-6.02v2.551q-1.4.218-2.846.417V1.973Z" style="fill:#b01028;fill-opacity:1;fill-rule:nonzero;stroke:none;stroke-width:.288407" transform="matrix(1.2232 0 0 -1.2232 120.738 136.877)"/></g><g style="stroke-width:.288407"><path d="M0 0h2.215l1.052 3.198h3.775l.314 1.934-.238.276H3.993l.405 1.237Q3.141 6.58 1.9 6.504L-.241.289Z" style="fill:#b01028;fill-opacity:1;fill-rule:nonzero;stroke:none;stroke-width:.288407" transform="matrix(1.2232 0 0 -1.2232 69.792 137.168)"/></g><g style="stroke-width:.288407"><path d="M0 0h2.648l.262.289L.634 6.848q-1.427-.032-2.835-.083Z" style="fill:#b01028;fill-opacity:1;fill-rule:nonzero;stroke:none;stroke-width:.288407" transform="matrix(1.2232 0 0 -1.2232 81.333 137.168)"/></g><g style="stroke-width:.288407"><path d="M0 0s1.632-1.73 4.667-1.729c0 0 2.958-.112 5.285 1.62h.01v5.354a213 213 0 0 1-5.519.195v-.837h2.76V.929s-2.857-1.401-5.079.72c0 0-1.307 1.089-1.437 3.841q-.556.003-1.113.004-.897 0-1.787-.007C-2.153 4.257-1.809 1.588 0 0" style="fill:#b01028;fill-opacity:1;fill-rule:nonzero;stroke:none;stroke-width:.288407" transform="matrix(1.2232 0 0 -1.2232 88.7 135.442)"/></g><g style="stroke-width:.288407"><path d="M0 0c3.589 0 5.831 2.498 5.831 5.578v.202q-1.247.153-2.523.289v-.41c0-1.729-1.204-3.131-3.13-3.131-1.927 0-3.13 1.402-3.13 3.131v.974q-1.426.106-2.879.19V5.578C-5.831 2.498-3.589 0 0 0" style="fill:#b01028;fill-opacity:1;fill-rule:nonzero;stroke:none;stroke-width:.288407" transform="matrix(1.2232 0 0 -1.2232 110.59 137.51)"/></g></g></svg>