<svg xmlns="http://www.w3.org/2000/svg" width="409.92825mm" height="144.14049mm" viewBox="0 0 409.92825 144.14049"><g style="stroke-width:.22939"><g style="stroke-width:.22939"><path d="M0 0a8.68 8.68 0 0 0-8.69-8.688h-249.172A8.683 8.683 0 0 0-266.552 0v34.757c0 4.803 3.887 8.699 8.69 8.699H-8.69c4.805 0 8.69-3.896 8.69-8.699Z" style="fill:#febd45;fill-opacity:1;fill-rule:nonzero;stroke:none;stroke-width:.22939" transform="matrix(1.5379 0 0 -1.5379 409.928 98.803)"/></g><g style="stroke-width:.22939"><path d="M0 0a5.61 5.61 0 0 0-5.611 5.61v34.757c0 3.101 2.514 5.624 5.611 5.624h249.171c3.095 0 5.599-2.523 5.599-5.624V5.61A5.603 5.603 0 0 0 249.171 0Z" style="fill:#001b59;fill-opacity:1;fill-rule:nonzero;stroke:none;stroke-width:.22939" transform="matrix(1.5379 0 0 -1.5379 13.365 107.43)"/></g><g style="stroke-width:.22939"><path d="M0 0c0-25.89-20.975-46.877-46.854-46.877S-93.708-25.89-93.708 0c0 25.863 20.975 46.849 46.854 46.849S0 25.863 0 0" style="fill:#febd45;fill-opacity:1;fill-rule:nonzero;stroke:none;stroke-width:.22939" transform="matrix(1.5379 0 0 -1.5379 277.017 72.049)"/></g><g style="stroke-width:.22939"><path d="M0 0c0-24.549-19.898-44.455-44.452-44.455-24.557 0-44.459 19.906-44.459 44.455 0 24.56 19.902 44.464 44.459 44.464C-19.898 44.464 0 24.56 0 0" style="fill:#001b59;fill-opacity:1;fill-rule:nonzero;stroke:none;stroke-width:.22939" transform="matrix(1.5379 0 0 -1.5379 273.195 72.14)"/></g><g style="stroke-width:.22939"><path d="m0 0-.878-2.759-2.826.016 2.272-1.67-.795-2.846L.057-5.56l2.351-1.665-.834 2.704 2.18 1.795-2.913.019z" style="fill:#f6f7f9;fill-opacity:1;fill-rule:nonzero;stroke:none;stroke-width:.22939" transform="matrix(1.5379 0 0 -1.5379 205.283 6.362)"/></g><g style="stroke-width:.22939"><path d="m0 0-.872-2.756-2.84.014 2.273-1.67-.781-2.853L.061-5.562 2.42-7.225l-.853 2.708 2.192 1.789-2.916.024z" style="fill:#f6f7f9;fill-opacity:1;fill-rule:nonzero;stroke:none;stroke-width:.22939" transform="matrix(1.5379 0 0 -1.5379 175.62 14.44)"/></g><g style="stroke-width:.22939"><path d="m0 0-.871-2.765-2.834.028 2.277-1.668-.792-2.853L.043-5.562 2.42-7.226l-.838 2.715 2.183 1.783-2.916.014z" style="fill:#f6f7f9;fill-opacity:1;fill-rule:nonzero;stroke:none;stroke-width:.22939" transform="matrix(1.5379 0 0 -1.5379 153.564 35.576)"/></g><g style="stroke-width:.22939"><path d="m0 0-.869-2.755-2.836.026 2.281-1.669-.79-2.853L.06-5.552l2.367-1.674-.86 2.714 2.201 1.791H.843Z" style="fill:#f6f7f9;fill-opacity:1;fill-rule:nonzero;stroke:none;stroke-width:.22939" transform="matrix(1.5379 0 0 -1.5379 144.794 66.382)"/></g><g style="stroke-width:.22939"><path d="m0 0-.864-2.758-2.839.014 2.282-1.664-.799-2.84L.061-5.546l2.36-1.673-.831 2.698 2.177 1.789-2.918.02z" style="fill:#f6f7f9;fill-opacity:1;fill-rule:nonzero;stroke:none;stroke-width:.22939" transform="matrix(1.5379 0 0 -1.5379 153.845 95.565)"/></g><g style="stroke-width:.22939"><path d="m0 0-.877-2.757-2.826.031 2.263-1.68-.779-2.853L.05-5.558l2.363-1.673-.836 2.711 2.189 1.801-2.919.014z" style="fill:#f6f7f9;fill-opacity:1;fill-rule:nonzero;stroke:none;stroke-width:.22939" transform="matrix(1.5379 0 0 -1.5379 174.293 116.911)"/></g><g style="stroke-width:.22939"><path d="m0 0-.876-2.754-2.836.011 2.289-1.663-.801-2.862L.054-5.562l2.368-1.681-.838 2.726 2.175 1.803H.85Z" style="fill:#f6f7f9;fill-opacity:1;fill-rule:nonzero;stroke:none;stroke-width:.22939" transform="matrix(1.5379 0 0 -1.5379 205.2 126.82)"/></g><g style="stroke-width:.22939"><path d="m0 0-.866-2.744-2.838.016 2.276-1.669-.782-2.852L.062-5.54l2.361-1.689-.843 2.716 2.194 1.794-2.915.012z" style="fill:#f6f7f9;fill-opacity:1;fill-rule:nonzero;stroke:none;stroke-width:.22939" transform="matrix(1.5379 0 0 -1.5379 235.026 117.217)"/></g><g style="stroke-width:.22939"><path d="m0 0-.881-2.745-2.844.016 2.28-1.67-.773-2.836L.042-5.55l2.369-1.661-.836 2.704 2.179 1.785L.828-2.7z" style="fill:#f6f7f9;fill-opacity:1;fill-rule:nonzero;stroke:none;stroke-width:.22939" transform="matrix(1.5379 0 0 -1.5379 255.761 96.127)"/></g><g style="stroke-width:.22939"><path d="m0 0-.876-2.758-2.831.016 2.288-1.673-.799-2.84L.045-5.548l2.376-1.676-.845 2.712 2.181 1.788-2.915.009z" style="fill:#f6f7f9;fill-opacity:1;fill-rule:nonzero;stroke:none;stroke-width:.22939" transform="matrix(1.5379 0 0 -1.5379 265.257 66.403)"/></g><g style="stroke-width:.22939"><path d="m0 0-.877-2.772-2.833.026 2.284-1.665-.793-2.86L.054-5.567l2.365-1.675-.851 2.727 2.192 1.78-2.91.016z" style="fill:#f6f7f9;fill-opacity:1;fill-rule:nonzero;stroke:none;stroke-width:.22939" transform="matrix(1.5379 0 0 -1.5379 256.773 36.033)"/></g><g style="stroke-width:.22939"><path d="m0 0-.877-2.747-2.834.016 2.272-1.678-.782-2.845L.047-5.538l2.368-1.685-.843 2.71 2.184 1.782-2.933.022z" style="fill:#f6f7f9;fill-opacity:1;fill-rule:nonzero;stroke:none;stroke-width:.22939" transform="matrix(1.5379 0 0 -1.5379 234.954 14.667)"/></g><g style="stroke-width:.22939"><path d="m0 0-7.077-.447V1.37l7.091.101.027 2.062h-7.049V5.22h9.471l-.697-8.205H-.042Zm3.477-4.427-.274-1.658H-8.199v1.658h3.778v3.201h2.135v-3.201z" style="fill:#fff;fill-opacity:1;fill-rule:nonzero;stroke:none;stroke-width:.22939" transform="matrix(1.5379 0 0 -1.5379 315.554 72.05)"/></g><g style="stroke-width:.22939"><path d="M0 0v-13.497l-2.094-.245v3.201l-8.021-.577v6.042h4.025v2.61h-4.025v1.63h6.077v-5.797h-3.996v-2.624l5.94.086v8.926z" style="fill:#fff;fill-opacity:1;fill-rule:nonzero;stroke:none;stroke-width:.22939" transform="matrix(1.5379 0 0 -1.5379 338.316 62.603)"/></g><g style="stroke-width:.22939"><path d="m0 0-2.094-.245v13.511L0 13.497V8.421h1.684L1.396 6.69H0Zm-5.174 7.657c0 2.263-.465 3.605-1.341 3.605S-7.843 9.92-7.843 7.657s.452-3.605 1.328-3.605 1.341 1.341 1.341 3.605m-4.763 0c0 3.36 1.355 5.162 3.422 5.162s3.422-1.802 3.422-5.162-1.355-5.162-3.422-5.162-3.422 1.802-3.422 5.162" style="fill:#fff;fill-opacity:1;fill-rule:nonzero;stroke:none;stroke-width:.22939" transform="matrix(1.5379 0 0 -1.5379 356.025 83.36)"/></g><g style="stroke-width:.22939"><path d="M0 0h2.04v-5.436h-8.555V0h2.039v-1.298H-.37l-.246-1.471h-3.86v-1.168H0Zm2.04 8.032V.605H-.055V3.1h-2.272c-.63-1.168-2.217-2.033-6.036-3.028v1.63c2.765.749 3.805 1.182 4.175 1.831l-4.011-.404v1.658l4.216.101v.851h-4.024v1.529h6.063V4.787h1.889v3z" style="fill:#fff;fill-opacity:1;fill-rule:nonzero;stroke:none;stroke-width:.22939" transform="matrix(1.5379 0 0 -1.5379 372.746 74.955)"/></g><g style="stroke-width:.22939"><path d="M0 0v-8.288h-2.071v13.89H0V1.381h1.996V0Zm-7.397 2.732c-.845 0-1.52-1.29-1.505-3.269-.015-1.888.645-3.147 1.489-3.147.86 0 1.504 1.228 1.504 3.147 0 2.072-.614 3.269-1.488 3.269m-1.075 1.412v1.458h2.149V4.144h2.87V2.763h-1.504c.675-.814 1.105-1.965 1.12-3.3-.015-2.594-1.473-4.528-3.56-4.528-2.149-.016-3.577 1.934-3.577 4.528 0 1.335.43 2.486 1.105 3.3h-1.411v1.381z" style="fill:#fff;fill-opacity:1;fill-rule:nonzero;stroke:none;stroke-width:.22939" transform="matrix(1.5379 0 0 -1.5379 48.357 69.882)"/></g><g style="stroke-width:.22939"><path d="M0 0h3.484c.936 0 1.642-.046 2.517.415v8.104h2.072V4.298h1.995V2.917H8.073v-8.289H6.001v4.405c-.721-.322-1.689-.414-2.563-.414h-4.589c-.906 0-1.597.875-1.597 1.903v7.383h2.072V.568C-.676.215-.445 0 0 0" style="fill:#fff;fill-opacity:1;fill-rule:nonzero;stroke:none;stroke-width:.22939" transform="matrix(1.5379 0 0 -1.5379 57.372 74.367)"/></g><g style="stroke-width:.22939"><path d="M0 0c-.998 0-1.78-1.228-1.78-2.763 0-1.626.798-2.762 1.765-2.762.997 0 1.765 1.166 1.765 2.762C1.75-1.197.998 0 0 0m0 1.382c2.287 0 3.822-1.873 3.822-4.145 0-1.335-.553-2.547-1.473-3.315h3.852v-1.381h-8.825v-3.285c0-.368.245-.613.614-.613h6.676v-1.382h-7.889c-.844 0-1.473.86-1.473 1.827v3.453h-1.535v1.381h3.868c-.936.768-1.489 1.995-1.489 3.315 0 2.211 1.55 4.145 3.852 4.145" style="fill:#fff;fill-opacity:1;fill-rule:nonzero;stroke:none;stroke-width:.22939" transform="matrix(1.5379 0 0 -1.5379 82.82 63.037)"/></g><g style="stroke-width:.22939"><path d="M0 0v-3.085c.353-.077.691-.2.998-.353V0Zm-.875-4.375c-.844 0-1.811-.767-1.811-2.164 0-1.335.906-2.133 1.796-2.133.859 0 1.796.768 1.811 2.133C.906-5.111 0-4.375-.875-4.375m-1.12 1.229v7.443H0V1.381h.998v2.916h1.995V-6.539c0-2.071-1.934-3.514-3.868-3.514-2.103 0-3.898 1.412-3.883 3.514-.015 1.612 1.197 2.947 2.763 3.393m-4.021 4.972c-.63 0-1.121-.844-1.121-1.964 0-.998.461-1.842 1.105-1.842.645 0 1.12.859 1.12 1.842 0 1.12-.414 1.964-1.104 1.964M-7.091 3.3v1.304h2.149V3.3h2.256V1.918h-.982a3.2 3.2 0 0 0 .752-2.056c0-1.78-1.381-3.239-3.1-3.224-1.811-.015-3.116 1.459-3.116 3.224 0 .767.276 1.489.736 2.056h-.89V3.3Z" style="fill:#fff;fill-opacity:1;fill-rule:nonzero;stroke:none;stroke-width:.22939" transform="matrix(1.5379 0 0 -1.5379 107.114 67.875)"/></g><g style="stroke-width:.22939"><path d="M0 0h-16.236s11.584-34.612 7.824-37.036l.319-1.48.309-2.143v-3.214l-2.987-4.566-.776-3.475v-1.62L0-53.547Z" style="fill:#febd45;fill-opacity:1;fill-rule:nonzero;stroke:none;stroke-width:.22939" transform="matrix(1.5379 0 0 -1.5379 204.831 33.867)"/></g><g style="stroke-width:.22939"><path d="M0 0h16.245S4.661-34.612 8.421-37.036l-.304-1.48-.322-2.143v-3.214l2.988-4.566.767-3.475v-1.62L0-53.547Z" style="fill:#d19e39;fill-opacity:1;fill-rule:nonzero;stroke:none;stroke-width:.22939" transform="matrix(1.5379 0 0 -1.5379 204.811 33.867)"/></g><g style="stroke-width:.22939"><path d="M0 0s-.42-.578.438-1.092h14.519V0Z" style="fill:#febd45;fill-opacity:1;fill-rule:nonzero;stroke:none;stroke-width:.22939" transform="matrix(1.5379 0 0 -1.5379 181.918 39.416)"/></g><g style="stroke-width:.22939"><path d="M0 0h-30.312s-.328-.312-.252-.815c.032-.283.18-.629.759-.823H-.511c.586.194.73.54.783.823C.33-.312 0 0 0 0" style="fill:#d19e39;fill-opacity:1;fill-rule:nonzero;stroke:none;stroke-width:.22939" transform="matrix(1.5379 0 0 -1.5379 228.138 39.002)"/></g><g style="stroke-width:.22939"><path d="M0 0h-30.123s-.173-.24-.128-.533c.027-.199.075-.346.48-.588H-.356c.403.242.444.389.474.588C.154-.24 0 0 0 0" style="fill:#febd45;fill-opacity:1;fill-rule:nonzero;stroke:none;stroke-width:.22939" transform="matrix(1.5379 0 0 -1.5379 228.003 39.416)"/></g><g style="stroke-width:.22939"><path d="m0 0-12.567.019h-.251L-25.378 0s-.28-.314-.237-.813c.035-.28.237-.62.719-.816H-.473c.496.196.671.536.692.816C.271-.314 0 0 0 0" style="fill:#d19e39;fill-opacity:1;fill-rule:nonzero;stroke:none;stroke-width:.22939" transform="matrix(1.5379 0 0 -1.5379 224.352 51.359)"/></g><g style="stroke-width:.22939"><path d="m0 0-12.572.02h-.354L-25.246 0s-.125-.238-.09-.512c.026-.208.125-.363.466-.603H-.354c.339.24.423.395.453.603A.96.96 0 0 1 0 0" style="fill:#febd45;fill-opacity:1;fill-rule:nonzero;stroke:none;stroke-width:.22939" transform="matrix(1.5379 0 0 -1.5379 224.247 51.775)"/></g><g style="stroke-width:.22939"><path d="m0 0-8.339.02h-.173L-16.84 0s-.186-.282-.147-.729a.88.88 0 0 1 .478-.751H-.325c.33.171.443.484.461.751C.169-.282 0 0 0 0" style="fill:#d19e39;fill-opacity:1;fill-rule:nonzero;stroke:none;stroke-width:.22939" transform="matrix(1.5379 0 0 -1.5379 217.794 90.824)"/></g><g style="stroke-width:.22939"><path d="M0 0h-16.744s-.09-.22-.061-.486c.013-.184.081-.303.304-.535H-.232c.209.232.265.351.285.535C.073-.22 0 0 0 0" style="fill:#febd45;fill-opacity:1;fill-rule:nonzero;stroke:none;stroke-width:.22939" transform="matrix(1.5379 0 0 -1.5379 217.72 91.18)"/></g><g style="stroke-width:.22939"><path d="M0 0h-15.548c-.962-.965 0-1.961 0-1.961l7.22-.017h1.111l7.235.017S.967-.965 0 0" style="fill:#d19e39;fill-opacity:1;fill-rule:nonzero;stroke:none;stroke-width:.22939" transform="matrix(1.5379 0 0 -1.5379 216.772 98.322)"/></g><g style="stroke-width:.22939"><path d="M0 0h-15.576c-.535-.694.04-1.485.04-1.485l7.605.013 7.882-.013S.531-.694 0 0" style="fill:#febd45;fill-opacity:1;fill-rule:nonzero;stroke:none;stroke-width:.22939" transform="matrix(1.5379 0 0 -1.5379 216.8 98.718)"/></g><g style="stroke-width:.22939"><path d="m0 0-2.808-.177v.72l2.813.04.012.819h-2.798v.669H.978L.701-1.185h-.717Zm1.38-1.757-.109-.658h-4.524v.658h1.499v1.271h.847v-1.271z" style="fill:#fff;fill-opacity:1;fill-rule:nonzero;stroke:none;stroke-width:.22939" transform="matrix(1.5379 0 0 -1.5379 192.446 46.046)"/></g><g style="stroke-width:.22939"><path d="M0 0v-5.356l-.831-.097v1.27l-3.183-.229v2.398h1.597v1.035h-1.597v.647h2.411v-2.3h-1.585v-1.041l2.357.034v3.542z" style="fill:#fff;fill-opacity:1;fill-rule:nonzero;stroke:none;stroke-width:.22939" transform="matrix(1.5379 0 0 -1.5379 203.325 42.298)"/></g><g style="stroke-width:.22939"><path d="m0 0-.832-.097v5.362L0 5.356V3.342h.668l-.114-.687H0Zm-2.054 3.039c0 .898-.184 1.43-.532 1.43s-.527-.532-.527-1.43c0-.899.179-1.431.527-1.431s.532.532.532 1.431m-1.89 0c0 1.333.538 2.048 1.358 2.048s1.358-.715 1.358-2.048S-1.766.99-2.586.99s-1.358.715-1.358 2.049" style="fill:#fff;fill-opacity:1;fill-rule:nonzero;stroke:none;stroke-width:.22939" transform="matrix(1.5379 0 0 -1.5379 212.199 50.535)"/></g><g style="stroke-width:.22939"><path d="M0 0h.81v-2.157h-3.395V0h.809v-.515h1.63l-.098-.584h-1.532v-.463H0Zm.81 3.187V.24h-.831v.99h-.902c-.25-.463-.88-.807-2.396-1.202v.647c1.097.298 1.51.469 1.657.727l-1.592-.16v.657l1.673.04v.338h-1.597v.607h2.407v-.985h.75V3.09Z" style="fill:#fff;fill-opacity:1;fill-rule:nonzero;stroke:none;stroke-width:.22939" transform="matrix(1.5379 0 0 -1.5379 220.679 47.2)"/></g></g></svg>