<svg xmlns="http://www.w3.org/2000/svg" width="227" height="284" fill="none" viewBox="0 0 227 284"><path fill="#00C7B1" d="M113.39 0 39.94 42.41v84.82l73.45 42.4 73.46-42.4V42.41z"/><path fill="#000" d="M113.39 2.99 42.53 43.9v81.83l70.86 40.92 70.87-40.92V43.9z"/><path fill="#00C7B1" d="m113.39 154.69 60.51-34.94-18.84-10.88-41.67 24.06-41.66-24.06-18.84 10.88zM52.88 49.88l18.85 10.88 41.66-24.05 41.67 24.05 18.84-10.88-60.51-34.93z"/><path fill="#fff" d="M124.61 63.16v43.32h-22.43V79.14h-8.91v-5.53c7.37-2.15 13.52-6.45 17.82-10.45zM220.13 232.62c-2.88 0-5.43 1.86-6.32 4.59l-14.79 45.54h13.97l13.45-41.43c1.4-4.3-1.8-8.7-6.32-8.7z"/><path fill="#00C7B1" d="M123.44 233.64c5.56 0 9.5 5.43 7.78 10.72l-12.47 38.42h-13.97l8.73-26.9-39.79 26.86c-2.6 1.76-6.11 1.26-8.13-1.14-2.34-2.79-1.75-6.99 1.27-9.03l39.43-26.62H75.67l3.99-12.29h43.79z"/><path fill="#fff" d="M15.95 233.64 0 282.77h13.97l11.96-36.84h28.55l-19.44 13.12c-2.82 1.9-3.76 5.75-1.88 8.57 1.91 2.9 5.76 3.61 8.57 1.73L65.95 253c8.65-5.84 4.52-19.36-5.92-19.35H15.95zM147.76 233.65l-15.95 49.11h13.97l11.96-36.84h28.55l-25.27 17.06 15.63 18.65a6.124 6.124 0 0 0 8.13 1.14c3.02-2.04 3.61-6.24 1.27-9.04l-6.87-8.2 18.57-12.54c8.65-5.84 4.52-19.36-5.92-19.35h-44.08zM149.26 192.62h-19.09l-7.95 24.46h6.96l5.96-18.34h14.11a3.06 3.06 0 1 0 0-6.12zM119.23 192.12c-.7 0-1.36.22-1.91.61l-16.22 12.34-2.55 3.16 5.07-15.61h-6.96l-6.71 20.66c-.7 2.14.9 4.34 3.15 4.34.72 0 1.4-.23 1.95-.64l18.2-13.85-4.53 13.96h6.96l6.7-20.63c.7-2.14-.9-4.34-3.15-4.34M173.9 217.09l-4.47-22.32c-.16-.9-.53-1.56-1.11-2s-1.36-.65-2.34-.65-1.82.16-2.49.49-1.33.88-1.98 1.66l-20.5 22.81h8l4.31-4.8h12.84l.96 4.8h6.79zm-16.12-9.78 6.02-6.71 1.34 6.71h-7.37zM81.31 194.77c-.16-.9-.53-1.56-1.11-2s-1.36-.65-2.34-.65-1.82.16-2.49.49-1.33.88-1.98 1.66l-20.5 22.81h8L75.7 200.6l3.3 16.48h6.79l-4.47-22.32z"/></svg>