<svg xmlns="http://www.w3.org/2000/svg" xml:space="preserve" width="543.34833" height="650" viewBox="0 0 543.34832 650"><path d="M-408.733 596.343v-222.87c.837-38.996 22.65-99.75 50.282-138.777 38.873-54.9 89.856-91.373 146.943-110.228 57.088 18.855 108.071 55.329 146.944 110.228 27.633 39.026 49.444 99.781 50.282 138.777v222.87Z" style="fill:#000;fill-opacity:1;stroke:none;stroke-width:.610604px;stroke-linecap:butt;stroke-linejoin:miter;stroke-opacity:1" transform="matrix(1.37748 0 0 -1.37748 563.022 821.452)"/><path d="M-392.857 580.468h362.699V386.906c2.376-41.43-15.227-97.165-44.352-140.658-31.43-46.934-85.704-88.672-136.998-105.904-51.293 17.232-105.568 58.97-136.997 105.904-29.125 43.493-46.728 99.228-44.352 140.658z" style="fill:#fff;fill-opacity:1;stroke:none;stroke-width:.610604px;stroke-linecap:butt;stroke-linejoin:miter;stroke-opacity:1" transform="matrix(1.37748 0 0 -1.37748 563.022 821.452)"/><path d="M-244.969 538.843c.49.031.953-.071 1.255.102 1.172.677 1.66-.074 2.238-.88 3.033-4.22 6.094-8.42 9.152-12.622.088-.12.23-.202.468-.405 1.23 4.699 2.435 9.28 3.623 13.864a44.5 44.5 0 0 1 .606 2.746c.117.587.463.851 1.025.942.604.097 1.202.234 1.867.367 2.368-7.43 4.753-14.908 7.135-22.395-1.645-.344-3.31-.694-5.01-1.053-1.443 5.009-2.906 10.088-4.371 15.165-.078-.01-.153-.014-.23-.023-.92-3.668-1.85-7.336-2.759-11.007-.418-1.696-.77-3.409-1.216-5.096-.088-.336-.415-.7-.731-.866-.46-.239-.781.043-1.094.481-3.014 4.195-6.063 8.364-9.105 12.538-.072.1-.158.194-.235.29l-.327-.05 1.487-15.344-2.747-.487c-.017.174-.053.413-.058.652-.072 2.714-.086 5.43-.222 8.141-.205 4.072-.504 8.139-.742 12.208-.053.876-.008 1.758-.008 2.732M-167.181 535.709c.916-.308 1.675-.56 2.473-.825-2.141-7.553-4.263-15.045-6.401-22.598-.828.262-1.584.447-2.29.752-.275.122-.5.48-.638.782-2.163 4.65-4.29 9.314-6.462 13.958-.89 1.9-1.859 3.765-2.875 5.81l-4.523-15.963c-.834.256-1.632.5-2.493.762l6.393 22.57c1.022-.32 1.95-.587 2.861-.906.177-.062.335-.293.427-.48 2.77-5.837 5.528-11.676 8.292-17.516.247-.52.502-1.038.86-1.778 1.498 5.281 2.932 10.344 4.376 15.432M-245.847 514.581c-1.696-.82-3.291-1.59-4.986-2.407-1.601 1.767-3.26 3.6-4.958 5.472-2.244-1.059-4.446-2.086-6.628-3.153-.222-.108-.469-.49-.45-.723.186-2.294.427-4.584.657-6.943-.828-.393-1.695-.806-2.723-1.292-.282 8.602-.565 17.133-.85 25.716.205.074.41.096.546.205 1.363 1.098 2.238.438 3.29-.638 5.105-5.23 10.296-10.378 15.456-15.557.205-.208.402-.424.646-.68m-17.03 1.958 5.568 2.632-5.775 6.001a5.036 5.036 0 0 1-.189-.156l.396-8.477M-203.745 543.454c4.188-.438 8.235-.865 12.367-1.297l-.238-2.817c-1.967.344-3.92.663-5.864 1.024-1.579.296-1.659.21-1.767-1.337-.119-1.716-.349-3.424-.523-5.134-.025-.253-.003-.51-.003-.894l7.359-.526-.332-2.615c-2.36.313-4.734.632-7.274.97l-.861-8.87c2.592-.153 5.055-.296 7.514-.44-.072-.877-.144-1.742-.23-2.747l-12.395 1.3c.745 7.77 1.49 15.512 2.247 23.383M-164.93 515.077c.027-.282.116-.572.074-.845-.451-2.931 1.892-5.495 4.698-5.547 2.495-.045 4.083 2.875 2.87 5.248-.69 1.346-1.63 2.572-2.518 3.81-2.457 3.42-2.466 6.685.108 9.806 1.739 2.109 4.368 2.883 7.614 1.693 2.119-.774 4.199-2.62 5.069-4.519l-2.576-2.694c-.139.913-.208 1.627-.363 2.322-.366 1.619-1.795 2.925-3.382 3.121-1.097.137-2.091-.068-2.809-.996-.836-1.09-1.138-2.33-.454-3.545.997-1.779 2.185-3.45 3.238-5.2 1.388-2.304 1.781-4.709.529-7.224-1.546-3.11-4.678-4.525-8.102-3.731-2.753.637-4.986 2.015-6.653 4.303-.285.39-.407.668-.025 1.095.82.92 1.582 1.893 2.368 2.843l.313.06M-214.728 543.455h4.85c.153-7.726.305-15.552.46-23.502h-4.894c-.139 7.731-.274 15.537-.416 23.502M-236.218 425.66c1.488-3.693 2.903-7.156 4.28-10.634 1.379-3.483 2.537-7.111 4.794-10.127 1.75-2.337 3.792-4.51 5.98-6.443 2.49-2.194 5.21-4.163 7.975-6.016 5.827-3.91 11.774-7.64 17.627-11.513 4.659-3.08 8.966-6.608 12.703-10.757 3.429-3.804 5.65-8.263 6.293-13.374.299-2.38.468-4.804.38-7.197a26.057 26.057 0 0 0-2.247-9.65c-.31-.7-.637-1.39-.975-2.13-2.806 1.032-5.219 2.46-7.318 4.35-1.443 1.3-2.706 2.797-4.083 4.172-.911.91-.57 2.103-.714 3.144-.474 3.378-1.734 6.4-3.687 9.163-2.33 3.298-5.54 5.652-8.78 7.923-4.557 3.187-9.216 6.232-13.842 9.32-3.578 2.387-7.226 4.672-10.75 7.136-4.988 3.492-9.204 7.714-11.766 13.346-1.144 2.513-1.872 5.128-2.108 7.902-.504 5.953.532 11.593 3.377 16.86.809 1.498 1.82 2.89 2.861 4.525" style="fill:#000;fill-opacity:1;fill-rule:nonzero;stroke:none;stroke-width:2.80749" transform="matrix(1.37748 0 0 -1.37748 563.022 821.452)"/><path d="M-207.23 389.91c-1.806 1.173-3.606 2.356-5.423 3.512-3.9 2.487-7.496 5.333-10.761 8.622-1.928 1.94-3.426 4.152-4.6 6.554-1.28 2.618-2.294 5.366-3.405 8.067-1.579 3.844-3.138 7.692-4.7 11.542-.485 1.195-.931 2.402-1.419 3.597-.14.344-.354.66-.7 1.283l-17.08-43.071c.485-.023.829-.055 1.17-.055 5.19-.003 10.381.015 15.572-.03.479-.004 1.066-.283 1.41-.624 1.454-1.44 2.833-2.954 4.27-4.473-.285-.015-.623-.043-.963-.043-7.59-.003-15.18-.006-22.768.009-.624.003-.928-.117-1.175-.797-1.426-3.904-2.986-7.763-4.412-11.667a135.541 135.541 0 0 1-2.695-8.141c-.488-1.64-.684-3.367-.26-5.063.634-2.55 2.456-3.85 4.927-4.334 1.49-.293 3.005-.472 4.581-.714v-1.653h-27.308v1.582c1.283.415 2.618.768 3.89 1.283 2.42.982 4.182 2.76 5.298 5.068a550.043 550.043 0 0 1 6.287 13.506c1.153 2.55 2.18 5.159 3.23 7.754 1.396 3.455 2.742 6.926 4.144 10.378.978 2.416 2.036 4.8 3.013 7.22 1.371 3.394 2.67 6.815 4.053 10.204 2.124 5.21 4.312 10.392 6.437 15.603 1.238 3.036 2.387 6.11 3.614 9.148.99 2.45 2.07 4.86 3.058 7.311 1.369 3.386 2.676 6.798 4.05 10.182.221.543.54 1.104 1.37.981.655-.096 1.217.08 1.588-.85 1.476-3.708 3.138-7.34 4.67-11.024 1.842-4.428 3.598-8.893 5.434-13.324.829-1.992 1.795-3.927 2.64-5.913 1.11-2.61 2.152-5.25 3.244-7.868 2.695-6.477 5.398-12.948 8.104-19.419.582-1.389 1.191-2.769 1.787-4.152-.058-.062-.114-.128-.172-.19M-142.49 347.357l1.316-1.822c-1.454-1.54-2.792-3.147-4.335-4.533a46.111 46.111 0 0 0-5.287-4.109c-3.903-2.592-8.144-4.47-12.725-5.563-3.642-.87-7.34-1.136-11.057-.956-4.252.207-8.451.956-12.443 2.399-4.45 1.607-8.517 3.95-12.107 7.128-3.498 3.099-6.262 6.747-8.503 10.774-2.06 3.699-3.263 7.757-4.252 11.872-.346 1.434-.858 2.825-1.194 4.262-.404 1.71-.7 3.446-1.085 5.379 1.202-.789 2.332-1.489 3.418-2.248 3.332-2.334 6.645-4.699 9.977-7.038 1.65-1.158 2.357-2.769 2.853-4.7 1.044-4.05 2.883-7.747 5.312-11.21 2.856-4.066 6.44-7.17 10.86-9.333 2.72-1.335 5.637-2.03 8.662-2.357 4.29-.463 8.51-.142 12.658 1.008 4.349 1.2 8.332 3.153 11.844 6.001 1.992 1.617 3.95 3.27 6.088 5.046M-239.551 321.733h-2.631c-.28 2.12-.554 4.223-.842 6.323-.305 2.24-.63 4.477-.931 6.713-.288 2.146-.551 4.294-.842 6.437-.31 2.271-.657 4.533-.959 6.804-.29 2.211-.581 4.422-.803 6.642-.172 1.716-.124 1.682 1.637 1.707.71.01.959-.318 1.172-.899 1.85-4.98 4.06-9.783 7.077-14.185 3.46-5.052 7.708-9.235 13.32-11.887a27.627 27.627 0 0 1 9.307-2.544c3.138-.293 6.224-.313 9.284.586 4.102 1.204 7.432 3.48 10.022 6.853.119.153.221.316.346.464.06.07.155.113.055.042 3.266-1.366 6.415-2.686 9.711-4.066-1.681-1.312-3.324-2.78-5.146-3.978a30.491 30.491 0 0 0-13.176-4.84c-1.997-.248-4.008-.567-6.01-.556-5.396.029-10.604 1.156-15.675 2.971-2.646.945-5.31 1.847-7.997 2.67-1.642.5-3.343.48-4.695-.749-.637-.578-1.08-1.414-1.47-2.203-.35-.708-.505-1.513-.754-2.304M-221.658 427.484c-.897 2.145-1.764 4.226-2.742 6.565 2.282.44 4.482.88 6.686 1.283.638.117 1.288.168 1.937.202 4.855.25 9.467-.854 14.004-2.441 2.836-.99 5.686-1.941 8.542-2.877 2.188-.717 4.82-.134 5.96 1.514.774 1.115 1.228 2.455 1.879 3.807.077 0 .305-.003.529 0 1.69.017 1.662.014 1.834-1.659.37-3.637.797-7.268 1.157-10.902.302-3.033.513-6.07.815-9.1.36-3.64.775-7.27 1.157-10.905.05-.486.075-.984.023-1.468-.025-.21-.258-.55-.427-.569-.582-.071-1.208-.137-1.759.011-.332.091-.712.538-.803.894-1.133 4.394-2.676 8.63-4.864 12.615-2.548 4.64-6.052 8.363-10.686 11.01-2.51 1.434-5.077 2.68-7.888 3.428-5.1 1.36-10.066 1.29-14.844-1.195-.144-.077-.302-.128-.51-.213M-179.647 410.446c-.166 1.357-.31 2.64-.485 3.924-.069.51.117.85.615.907 3.427.396 6.83.7 10.312.496 5.039-.3 9.778-1.793 14.59-3.048 1.215-.316 2.415-.729 3.65-.928 1.944-.316 4.8 1.395 5.479 3.298.313.882.897.843 1.542.774.765-.08.507-.722.521-1.16.083-2.641.128-5.282.219-7.923.114-3.253.244-6.508.393-9.758.1-2.108.258-4.214.371-6.323.034-.614.003-1.232.003-1.918h-1.891c-1.233 3.885-2.593 7.726-4.806 11.212-3.709 5.84-8.78 9.84-15.639 11.255-2.304.475-4.717.637-7.074.589-2.343-.046-4.725-.273-6.938-1.238-.26-.114-.57-.108-.862-.16" style="fill:#000;fill-opacity:1;fill-rule:nonzero;stroke:none;stroke-width:2.80749" transform="matrix(1.37748 0 0 -1.37748 563.022 821.452)"/><path d="M-185.595 407.315c-7.703-5.726-11.384-13.67-13.148-22.922-1.153.723-2.183 1.363-3.208 2.01-.163.102-.293.27-.468.343-2.418 1.062-3.404 3.15-4.512 5.41-1.014 2.069-.247 3.378.706 4.88 2.1 3.301 4.51 6.369 7.44 8.973 2.859 2.54 5.952 4.769 9.537 6.226.18.074.365.16.507.287.484.45.745.163.944-.279.74-1.639 1.468-3.283 2.202-4.928M-251.885 304.572c-.557-6.144-2.651-10.717-8.141-13.13-2.61-1.147-5.304-1.19-8.013-.378-3.604 1.078-6.606 3.03-8.808 6.118-2.236 3.136-2.626 6.593-1.626 10.213.897 3.252 2.59 6.067 5.423 8.002 3.11 2.12 6.556 2.6 10.163 1.454 4.362-1.383 7.977-3.776 9.9-8.082.642-1.445.822-3.093 1.102-4.197m-15.603-11.178c1.15.41 2.393.658 3.432 1.255 3.15 1.816 5.082 4.684 6.44 7.965.833 2.015 1.166 4.138.723 6.29-.975 4.714-7.027 7.697-11.526 3.462-3.052-2.871-5.251-6.3-5.852-10.517-.654-4.59 2.667-8.116 6.783-8.455M-250.736 291.347c.186 4.252 1.238 7.942 4.34 10.814 2.061 1.906 4.518 2.91 7.302 3.059 3.994.21 7.686-.709 10.908-3.179 2.31-1.77 3.623-4.172 4.082-6.986.665-4.038-.013-7.845-2.512-11.183-2.18-2.914-5.124-4.53-8.786-4.804-4.024-.301-7.689.686-10.902 3.13-2.382 1.81-3.772 4.243-4.202 7.206-.102.705-.169 1.417-.23 1.943m21.417 3.583c-.114.708-.18 1.926-.515 3.065-1.513 5.136-7.15 6.06-10.254 3.841-1.776-1.269-2.867-3.087-3.62-5.113-1.203-3.23-2.103-6.506-1.247-9.98.679-2.752 2.343-4.61 5.166-5.262 2.775-.643 4.98.376 6.747 2.496 2.526 3.03 3.548 6.588 3.723 10.953M-200.24 301.915c1.71.396 3.341.794 4.984 1.147 1.903.407 3.8.896 5.728 1.118 1.911.222 3.764-.205 4.955-1.89 1.125-1.584 1.46-3.369.754-5.267-.646-1.727-1.931-2.82-3.518-3.63-.238-.12-.468-.248-.651-.607.77-.037 1.54-.065 2.307-.116 3.463-.242 4.978-2.55 5.188-5.51.269-3.764-2.213-6.354-5.797-7.447-2.756-.84-5.612-1.354-8.434-1.958-.2-.042-.679.353-.734.61-.768 3.639-1.482 7.293-2.216 10.944-.84 4.152-1.69 8.3-2.565 12.606m9.564-21.06c2.091.09 3.715.802 4.548 2.66.953 2.12.507 4.172-.822 5.97-1.485 2.01-3.546 1.59-5.695 1.059l1.97-9.69m-2.366 11.719c.548.11.997.176 1.432.293 2.703.714 3.889 3.224 2.941 6.203-.761 2.396-2.722 3.179-5.429 2.248-.545-.187-.67-.458-.576-.922.527-2.558 1.067-5.113 1.632-7.822M-153.427 292.9c-1.612-.788-3.033-1.437-4.407-2.168-1.089-.58-1.11-.566-1.978.444-1.401 1.636-2.872 3.213-4.315 4.815l-7.49-3.62c.152-1.73.291-3.472.46-5.213.07-.709.25-1.409.294-2.117.016-.268-.133-.686-.338-.797-.762-.416-1.576-.734-2.438-1.119-.058.188-.15.362-.155.535-.08 2.519-.133 5.034-.227 7.55-.188 4.929-.396 9.857-.601 14.786-.05 1.175-.1 2.35-.194 3.523-.044.578.177.842.704 1.081 1.722.786 1.703.808 3.052-.52 5.584-5.501 11.168-11.002 16.76-16.5.255-.25.565-.444.873-.68m-12.52 4.593c-2.113 2.08-4.166 4.098-6.14 6.039.132-2.766.276-5.717.426-8.793l5.714 2.754M-271.81 322.978c-.55-.6-1.18-1.295-1.807-1.98l-5.453 6.07c-1.787-1.964-3.468-3.814-5.258-5.778l5.803-5.503-1.88-2.057-5.46 5.876c-2.714-2.982-5.343-5.865-7.783-8.54a2319.282 2319.282 0 0 1-3.745 3.779c5.227 5.74 10.68 11.733 16.054 17.634l9.528-9.501M-209.566 276.578h-5.116v22.44c-2.308-.196-4.402-.375-6.529-.56v2.96h17.744v-2.83c-1.975.14-4.008.282-6.1.428zM-132.004 310.46c-5.766 5.677-11.48 11.303-17.203 16.935a3783.58 3783.58 0 0 1 3.498 3.944l15.534-15.21c1.695 2.117 3.357 4.188 5 6.243l1.966-2.16a23761.99 23761.99 0 0 0-8.795-9.752M-162.066 316.906l4.133 3.247c4.19-5.899 8.393-11.812 12.7-17.87l6.046 5.31 1.707-2.394c-3.474-2.697-6.955-5.4-10.487-8.147l-14.099 19.854" style="fill:#000;fill-opacity:1;fill-rule:nonzero;stroke:none;stroke-width:2.80749" transform="matrix(1.37748 0 0 -1.37748 563.022 821.452)"/><path d="M-139.808 484.016c-1.182-.111-2.363-.296-3.548-.323-2.781-.065-5.566-.08-8.347-.056-.862.006-1.72.259-2.584.306-2.641.15-5.277.353-7.91-.28-1.516-.364-3.053-.66-4.066-1.92-.65-.808-1.056-1.813-1.565-2.736-.14-.25-.186-.609-.392-.756-.799-.57-1.606-1.152-2.481-1.59-4.582-2.281-9.212-4.463-13.759-6.812-1.221-.632-2.355-1.596-3.247-2.646-.564-.664-.756-1.755-.856-2.68-.137-1.303-.034-2.632-.034-3.987-1.4-.18-2.75-.35-4.098-.527a298.69 298.69 0 0 1-2.773-.376c-.486-.065-.795-.003-.944.6-.295 1.185-.175 2.308.229 3.428.772 2.131 1.745 4.192 3.47 5.691.96.835 2.236 1.312 3.38 1.926 3.377 1.81 6.816 3.513 10.124 5.439 4.885 2.837 9.675 5.83 14.509 8.752 1.857 1.123 3.914.838 5.906.705 2.166-.144 4.312-.511 6.473-.726 1.273-.13 2.558-.235 3.834-.2 3.34.085 6.676.25 10.013.397.735.032 1.47.118 2.203.206.18.023.432.115.507.253.993 1.84 2.721 2.94 4.358 4.048 1.554 1.05 3.26 1.96 5.02 2.596 2.331.844 4.77 1.426 7.193 1.972.807.183 1.216.603 1.594 1.197 1.145 1.796 2.28 3.601 3.422 5.398.352.555.699 1.12 1.082 1.652.627.867 1.39 1.017 2.701.57.335 1.305-.177 2.084-1.516 2.134-.799.033-1.603-.123-2.404-.185-1.004-.073-2.026-.27-3.01-.167-1.471.158-2.499-.362-3.406-1.464-1.107-1.35-2.232-2.71-3.514-3.887-1.925-1.764-3.288-3.933-4.798-6.006-.155-.212-.733-.338-.97-.22-.793.39-1.517.914-2.27 1.384.029.094.055.191.08.285.278.068.573.097.822.215.226.109.53.282.578.48.357 1.44 1.428 2.272 2.512 3.118.427.333.796.741 1.148 1.15.372.438.206.776-.33.823-.844.073-1.63-.018-2.312-.69-.83-.818-1.86-1.45-2.635-2.312-.584-.643-.901-1.522-1.336-2.299l-.198-.364c-1.308 1.864-2.572 3.648-3.809 5.453-.097.144-.042.418-.008.62.533 3.282 2.046 6.186 3.658 9.017 2 3.52 4.146 6.959 6.3 10.387 1.122 1.784 2.422 3.457 3.606 5.203.896 1.32 1.734 2.681 2.604 4.022.573.882.464 1.19-.449 1.758-1.228.764-2.46 1.535-3.623 2.399-4.404 3.278-8.782 6.591-13.163 9.899a1078.124 1078.124 0 0 0-7.065 5.397c-.092.07-.129.212-.35.6 1.446-.753 2.642-1.347 3.812-1.99 3.014-1.656 6.01-3.337 9.014-4.998 5.111-2.82 10.23-5.624 15.33-8.464.71-.394 1.179-.273 1.64.332 2.114 2.793 4.223 5.589 6.37 8.355 1.341 1.732 1.728 1.702 2.632-.232.704-1.502 1.27-3.07 1.937-4.59.12-.273.418-.496.675-.678.868-.609 1.809-1.123 2.625-1.79 2.875-2.347 5.542-4.975 7.328-8.203 1.786-3.222 3.511-6.588 3.829-10.38.232-2.773.51-5.575.366-8.34-.186-3.582-.907-7.118-2.1-10.52-1.995-5.697-4.127-11.348-6.075-17.06-1.277-3.742-2.235-7.579-2.567-11.542-.198-2.363-.57-4.73-.578-7.094-.02-5.57 1.774-10.474 5.577-14.673 2.904-3.207 6.198-5.959 9.44-8.787 3.912-3.413 8.279-6.103 12.983-8.217a140.388 140.388 0 0 1 11.034-4.392c3.311-1.161 6.453-2.552 8.757-5.248 3.136-3.668 5.434-7.81 6.34-12.609.324-1.696.522-3.416.788-5.212h-1.142c1.007-6.818-1.073-12.903-4.335-18.486-.487-.135-.982-.138-1.29-.38-1.157-.908-2.25-1.892-3.415-2.886-.208.309-.386.573-.563.84-3.208-1.449-6.405-2.895-9.727-4.394-.134 3.88-2.887 6.226-4.53 9.134-.738 1.302-1.588 2.543-2.286 3.86-.63 1.188-.335 2.06.738 2.822 4.02 2.86 8.036 5.727 12.05 8.596.175.124.32.285.621.562-.475.094-.775.156-1.227.247.349.429.62.832.961 1.173 1.236 1.243 1.425 2.89 1.691 4.474.192 1.153.163 2.34.226 3.51.04.791.118 1.63-1.287 1.253.103.55.263.938.229 1.305-.152 1.723-.287 3.449-.561 5.154-.286 1.778-1.8 2.031-3.202 2.081-1.294.047-2.593-.273-3.892-.335-.804-.038-.753-.494-.827-1.07-.303-2.373-.512-4.772-1.053-7.091-.747-3.202-2.438-6.01-4.172-8.781-1.548-2.473-3.32-4.825-4.164-7.697-.784-2.675-.38-5.165 1.027-7.479 1.454-2.387 3.085-4.666 4.565-7.038 2.117-3.396 1.728-6.78-.258-10.084-1.557-2.593-3.248-5.11-4.693-7.761-1.239-2.273-2.203-4.698-3.31-7.044-.295-.632-.759-1.197-.98-1.846-.912-2.72-.632-5.445.092-8.158.255-.959.478-1.926.75-3.034-3.657-1.162-7.306-2.32-10.994-3.49-.215 2.493 1.216 4.319 2.412 6.144 2.08 3.167 3.712 6.53 5.16 10.01.454 1.091 1.213 2.073 1.925 3.035 2.227 3.001 3.491 6.394 4.301 9.998.175.782.521 1.526.79 2.287.246.7-.486 2.046-1.422 2.576-1.54.873-3.24.879-4.77.285-3.13-1.214-4.559.361-6.633 2.446-.404.403-.702.679-1.285.358a104.059 104.059 0 0 0-3.709-1.949c-2.512-1.246-3.583-3.516-4.352-6.009-.232-.747-.81-.688-1.377-.54-.632.164-.535.605-.254 1.005.892 1.276 1.768 2.57 2.72 3.798 2.247 2.899 4.554 5.75 6.786 8.658.246.317.226.879.237 1.329.012.532.172.805.753.84.495.03.996.133 1.473.277 1.125.34 2.192.264 3.042-.57a227.134 227.134 0 0 0 5.429-5.533c.875-.923 1.648-1.944 2.49-2.899.128-.147.38-.188.574-.28l.252.189c-.352.679-.624 1.42-1.067 2.031-1.583 2.185-3.148 4.392-4.876 6.456-.982 1.173-2.31 2.052-3.423 3.122-1.038 1.006-2.077 2.032-2.981 3.158a105.592 105.592 0 0 0-4.256 5.691c-2.005 2.887-2.961 6.183-3.728 9.581-1.036 4.587-2.232 9.138-3.46 13.68-.297 1.102-.884 2.155-1.496 3.134-.744 1.196-2.024 1.69-3.323 2.102-4.026 1.27-8.066 2.49-12.061 3.854-3.56 1.217-7.111 2.504-10.265 4.627-3.86 2.593-6.667 6.012-8.307 10.398-.752 2.02-1.785 3.937-2.615 5.93-1.52 3.643-3.053 7.285-4.447 10.978-1.024 2.713-2.158 5.32-4.418 7.261-3.17 2.725-6.447 5.298-10.482 6.673-.28.097-.776.08-.953-.1-2.533-2.598-4.87-5.347-5.906-8.925-.34-1.176-.47-2.334.334-3.501.51-.738.621-1.744.962-2.608 1.116-2.831 3.265-4.816 5.703-6.45 2.212-1.485 4.344-3.149 6.954-3.972.168-.056.377-.514.314-.694a326.874 326.874 0 0 0-2.386-6.435c-.223-.588-.61-.482-1.039-.194-1.52 1.017-2.535 2.449-3.44 3.995-.357.612-.904 1.112-1.264 1.723-.312.526-.435 1.158-.719 1.705-1.968 3.79-5.033 6.48-8.676 8.611-.858.503-1.622 1.176-2.38 1.829-1.04.893-1.208 2.09-.793 3.298.383 1.123 1.024 2.155 1.47 3.258 1.242 3.078 2.424 6.18 3.663 9.257.507 1.264 1.133 2.478 1.64 3.743.615 1.537 2.009 1.581 3.26 1.57 3.267-.033 6.535-.212 9.803-.374 2.404-.117 4.753.162 7.091.694 1.588.362 3.2.62 4.796.94.2.042.378.186.567.283-.032.106-.06.212-.092.32m25.4 41.823.082.362c-.646.338-1.276.914-1.943.958-1.144.076-2.226-.38-3.07-1.229-1.929-1.937-2.055-4.44-2.186-6.991.326.109.595.262.73.494.517.894.984 1.814 1.484 2.72.793 1.437 1.569 2.901 3.36 3.339.512.123 1.027.232 1.542.347" style="fill:#000;fill-opacity:1;fill-rule:nonzero;stroke:none;stroke-width:2.90045" transform="matrix(1.33333 0 0 -1.33333 544.977 795.125)"/><path d="M-128.137 341.686c1.13 2.05 1.69 4.254 3.488 5.9 2.012 1.844 3.545 4.222 5.623 5.974 2.36 1.994 3.834 4.648 5.86 6.874.867.955 1.108 2.458 1.712 3.672 1.64 3.287.555 6.368-.696 9.422-1.648 4.03-3.36 8.035-5.033 12.053-1.328 3.19-.887 6.31.397 9.4 1.494 3.592 3.82 6.684 5.915 9.915 1.99 3.067 3.157 6.436 3.677 10.025.25 1.72.375 3.458.576 5.371.68-.7 1.376-1.331 1.98-2.043 1.8-2.12 2.53-4.662 3.027-7.35.79-4.268 1.468-8.599 4.032-12.297.38-.547.779-1.082 1.236-1.717-1.233-.814-2.5-1.602-3.717-2.466-3.37-2.402-6.633-4.933-9.06-8.35-1.316-1.852-1.74-3.86-1.138-6.138.967-3.648 1.785-7.338 2.655-11.013.304-1.284.667-2.57.836-3.874.249-1.947-.512-3.672-1.837-4.998-2.88-2.872-5.89-5.612-8.845-8.405-1.437-1.359-2.15-3.043-2.593-4.957-.286-1.238-.953-2.41-1.591-3.53-.177-.31-.853-.377-1.32-.474-1.685-.344-3.379-.65-5.184-.994M-272.88 482.32c.19-.097.367-.24.567-.282 1.597-.32 3.208-.58 4.796-.94 2.338-.533 4.69-.81 7.091-.692 3.268.159 6.536.341 9.804.374 1.25.011 2.644-.036 3.26-1.57.509-1.264 1.132-2.481 1.639-3.743 1.239-3.08 2.424-6.18 3.663-9.257.446-1.106 1.087-2.138 1.47-3.258.415-1.208.247-2.407-.792-3.301-.758-.65-1.522-1.326-2.38-1.826-3.644-2.131-6.708-4.824-8.677-8.614-.283-.544-.407-1.179-.718-1.705-.361-.608-.908-1.108-1.265-1.72-.905-1.549-1.92-2.978-3.44-3.995-.43-.288-.815-.397-1.039.194a319.769 319.769 0 0 0-2.386 6.433c-.063.179.146.64.315.693 2.61.824 4.741 2.49 6.953 3.975 2.438 1.635 4.587 3.616 5.703 6.45.34.864.452 1.867.962 2.605.804 1.167.675 2.328.335 3.504-1.036 3.578-3.374 6.324-5.907 8.926-.177.179-.672.194-.953.1-4.034-1.376-7.31-3.949-10.481-6.674-2.264-1.943-3.394-4.55-4.419-7.264-1.396-3.693-2.927-7.332-4.447-10.978-.83-1.993-1.862-3.907-2.615-5.927-1.64-4.386-4.447-7.808-8.307-10.4-3.154-2.12-6.705-3.408-10.265-4.625-3.992-1.364-8.035-2.587-12.061-3.857-1.3-.409-2.578-.906-3.322-2.1-.613-.978-1.2-2.034-1.497-3.136-1.225-4.54-2.424-9.09-3.46-13.677-.767-3.398-1.722-6.694-3.728-9.58a103.32 103.32 0 0 0-4.255-5.692c-.905-1.126-1.943-2.152-2.985-3.158-1.11-1.073-2.435-1.952-3.42-3.122-1.728-2.066-3.293-4.274-4.876-6.456-.443-.614-.715-1.352-1.067-2.034.086-.062.169-.126.252-.188.194.09.446.132.575.28.841.958 1.617 1.978 2.492 2.9a216.821 216.821 0 0 0 5.426 5.53c.847.839 1.917.915 3.042.571a6.49 6.49 0 0 1 1.473-.276c.581-.036.742-.306.756-.841.008-.45-.012-1.009.235-1.329 2.234-2.908 4.538-5.76 6.784-8.655.956-1.232 1.832-2.522 2.722-3.801.28-.4.377-.838-.255-1.006-.567-.147-1.145-.205-1.376.541-.77 2.496-1.84 4.763-4.353 6.012a97.206 97.206 0 0 0-3.708 1.947c-.584.32-.882.047-1.285-.356-2.075-2.087-3.503-3.663-6.633-2.446-1.531.594-3.231.585-4.77-.285-.936-.53-1.669-1.879-1.423-2.579.27-.761.615-1.505.79-2.287.81-3.601 2.075-6.997 4.3-9.995.713-.965 1.472-1.947 1.927-3.034 1.448-3.481 3.079-6.844 5.16-10.01 1.195-1.826 2.626-3.655 2.411-6.148-3.688 1.173-7.337 2.332-10.994 3.493.272 1.108.495 2.075.75 3.034.724 2.713 1.004 5.436.092 8.155-.22.653-.684 1.217-.98 1.846-1.107 2.35-2.07 4.772-3.31 7.047-1.442 2.652-3.136 5.165-4.693 7.758-1.986 3.308-2.375 6.688-.257 10.087 1.479 2.37 3.11 4.648 4.564 7.035 1.408 2.317 1.811 4.807 1.027 7.48-.844 2.871-2.615 5.223-4.164 7.696-1.734 2.775-3.425 5.582-4.172 8.781-.54 2.32-.75 4.721-1.053 7.091-.074.576-.023 1.035-.827 1.073-1.299.062-2.598.38-3.891.335-1.406-.05-2.916-.303-3.203-2.084-.274-1.702-.409-3.431-.56-5.15-.035-.371.125-.756.228-1.31-1.405.377-1.327-.458-1.287-1.248.06-1.174.034-2.361.226-3.514.266-1.584.455-3.23 1.691-4.474.34-.338.615-.744.962-1.173l-1.228-.247c.3-.273.446-.435.62-.562 4.016-2.866 8.03-5.732 12.05-8.593 1.074-.764 1.369-1.634.74-2.822-.699-1.32-1.549-2.56-2.284-3.86-1.646-2.91-4.399-5.254-4.533-9.137l-9.727 4.395c-.177-.265-.354-.53-.563-.84-1.165.996-2.258 1.98-3.414 2.886-.31.241-.804.247-1.29.38-3.266 5.582-5.343 11.67-4.336 18.488h-1.142c.266 1.796.464 3.516.784 5.212.91 4.798 3.208 8.94 6.344 12.607 2.304 2.695 5.446 4.086 8.757 5.247a140.393 140.393 0 0 1 11.034 4.392c4.704 2.114 9.071 4.807 12.983 8.22 3.242 2.828 6.536 5.577 9.44 8.785 3.803 4.2 5.597 9.104 5.577 14.672-.008 2.367-.38 4.73-.578 7.097-.332 3.963-1.29 7.797-2.566 11.54-1.95 5.711-4.081 11.362-6.076 17.06-1.19 3.4-1.914 6.94-2.1 10.518-.143 2.77.135 5.568.366 8.344.318 3.789 2.044 7.155 3.83 10.38 1.785 3.225 4.452 5.853 7.325 8.202.818.665 1.76 1.182 2.624 1.788.26.185.558.406.678.682.667 1.517 1.233 3.084 1.937 4.586.905 1.935 1.29 1.964 2.633.235 2.146-2.77 4.255-5.565 6.37-8.355.46-.608.93-.729 1.64-.335 5.099 2.84 10.218 5.645 15.329 8.467 3.007 1.66 6.003 3.343 9.014 4.998 1.167.64 2.366 1.234 3.811 1.987-.22-.385-.257-.526-.349-.597-2.35-1.805-4.698-3.613-7.065-5.397-4.381-3.31-8.76-6.621-13.163-9.902-1.162-.861-2.395-1.631-3.623-2.399-.916-.567-1.021-.876-.45-1.758.87-1.34 1.71-2.699 2.605-4.022 1.185-1.746 2.484-3.419 3.605-5.2 2.158-3.428 4.301-6.87 6.302-10.39 1.61-2.828 3.124-5.735 3.657-9.013.034-.206.089-.48-.008-.624-1.236-1.802-2.501-3.59-3.809-5.45-.089.162-.14.262-.197.364-.435.774-.753 1.656-1.337 2.3-.775.86-1.805 1.49-2.635 2.31-.681.67-1.468.765-2.312.688-.536-.047-.702-.385-.33-.82.352-.412.722-.82 1.148-1.153 1.084-.846 2.155-1.678 2.512-3.116.05-.2.352-.373.578-.479.25-.12.544-.15.822-.218.025-.094.051-.188.08-.282-.753-.473-1.48-.993-2.27-1.384-.237-.118-.815.009-.97.217-1.51 2.073-2.873 4.242-4.798 6.006-1.282 1.176-2.407 2.537-3.514 3.887-.907 1.105-1.935 1.623-3.406 1.467-.987-.106-2.006.094-3.01.167-.801.06-1.605.215-2.404.186-1.339-.053-1.854-.832-1.516-2.135 1.31.444 2.077.297 2.701-.573.383-.532.73-1.094 1.082-1.65 1.141-1.799 2.277-3.6 3.422-5.397.378-.594.787-1.017 1.594-1.196 2.424-.547 4.862-1.132 7.194-1.973 1.76-.635 3.465-1.55 5.02-2.599 1.636-1.105 3.364-2.205 4.357-4.048.075-.138.327-.23.507-.25a27.792 27.792 0 0 1 2.203-.206c3.337-.15 6.673-.311 10.013-.4 1.276-.035 2.56.074 3.834.2 2.16.215 4.307.585 6.473.726 1.992.133 4.05.42 5.906-.705 4.834-2.922 9.624-5.915 14.509-8.752 3.308-1.923 6.747-3.625 10.124-5.439 1.144-.614 2.42-1.09 3.38-1.923 1.728-1.502 2.698-3.56 3.47-5.694.404-1.117.524-2.24.23-3.428-.15-.603-.459-.664-.945-.597-.924.127-1.849.256-2.773.377-1.348.176-2.698.343-4.098.523 0 1.358.103 2.684-.034 3.986-.1.926-.292 2.017-.856 2.681-.892 1.05-2.026 2.017-3.247 2.646-4.547 2.35-9.177 4.53-13.759 6.815-.875.435-1.682 1.017-2.48 1.587-.207.147-.255.506-.393.759-.51.92-.916 1.926-1.565 2.734-1.013 1.261-2.547 1.558-4.066 1.923-2.633.632-5.269.429-7.91.279-.864-.05-1.722-.3-2.584-.309a271.673 271.673 0 0 0-8.347.056c-1.185.03-2.366.212-3.548.324-.032-.106-.06-.215-.092-.32m-23.765 41.795c1.794-.438 2.567-1.902 3.36-3.34.5-.902.967-1.825 1.485-2.719.134-.23.403-.385.73-.49-.132 2.548-.258 5.053-2.184 6.987-.847.85-1.932 1.308-3.073 1.232-.667-.044-1.297-.623-1.943-.961.028-.12.054-.241.083-.362.515-.115 1.03-.223 1.542-.347" style="fill:#000;fill-opacity:1;fill-rule:nonzero;stroke:none;stroke-width:2.90045" transform="matrix(1.33333 0 0 -1.33333 544.977 795.125)"/><path d="M-284.458 340.312c-1.133 2.05-1.69 4.254-3.488 5.9-2.011 1.844-3.548 4.222-5.623 5.974-2.36 1.994-3.834 4.648-5.86 6.874-.87.955-1.108 2.457-1.714 3.669-1.637 3.29-.553 6.37.695 9.425 1.651 4.03 3.362 8.035 5.036 12.053 1.328 3.19.887 6.31-.397 9.4-1.494 3.592-3.82 6.684-5.915 9.915-1.989 3.067-3.157 6.436-3.677 10.025-.25 1.72-.375 3.455-.576 5.368-.68-.696-1.376-1.328-1.98-2.04-1.802-2.12-2.532-4.662-3.027-7.35-.79-4.268-1.468-8.599-4.032-12.297-.38-.547-.779-1.085-1.236-1.717 1.233-.814 2.5-1.602 3.717-2.47 3.37-2.398 6.633-4.93 9.06-8.346 1.316-1.852 1.74-3.86 1.138-6.138-.967-3.648-1.785-7.338-2.655-11.013-.303-1.287-.667-2.57-.836-3.875-.249-1.946.51-3.671 1.837-4.997 2.88-2.873 5.89-5.613 8.846-8.405 1.436-1.359 2.149-3.046 2.592-4.957.286-1.238.953-2.41 1.591-3.53.178-.31.853-.38 1.32-.474 1.685-.344 3.379-.65 5.184-.994" style="fill:#000;fill-opacity:1;fill-rule:nonzero;stroke:none;stroke-width:2.90045" transform="matrix(1.33333 0 0 -1.33333 544.977 795.125)"/><g style="fill:#000"><path d="m735.568 444.594-17.502 31.996c28.833 17.709 68.715 24.653 97.436 24.527 28.721.126 68.6-6.818 97.434-24.527l-17.502-31.996c-18.839 11.104-46.645 20.321-79.932 20.406-33.287-.085-61.095-9.302-79.934-20.406z" style="fill:#000;stroke:none;stroke-width:.3;stroke-linecap:butt;stroke-linejoin:miter;stroke-miterlimit:4;stroke-dasharray:none;stroke-opacity:1" transform="translate(-545.376)"/><path d="M109.885 251.69c-3.582.05-6.616-.292-8.97-1.121 5.33-6.375 10.167-10.45 9.685-15.381-.521-5.33-9.13-10.687-15.652-15.246 10.788 1.748 20.971.771 30.346-3.841 11.698-4.833 22.568-6.353 32.499-4.115l2.916 13.258.003.014c-11.46 2.957-22.752 7.27-32.395 13.192l4.509 8.243c-7.143 2.283-13.746 4.401-19.182 4.819-1.311.1-2.565.16-3.76.177z" style="fill:#000;stroke:none;stroke-width:.225;stroke-linecap:butt;stroke-linejoin:miter;stroke-miterlimit:4;stroke-dasharray:none;stroke-opacity:1" transform="matrix(1.33333 0 0 -1.33333 -.399 795.125)"/><g style="fill:#000;stroke:none"><path d="M97.631 262.439c2.816-1.169 3.955-3.522 5.272-6.045-.632.237-1.057.384-1.472.558-1.617.679-3.231.645-4.835-.025-.75-.314-1.428-2.036-1.006-3.024.657-1.54 1.381-3.082 2.303-4.479 2.117-3.21 4.375-6.33 6.567-9.492.351-.507.651-1.045.969-1.556-.693-.917-.94-.99-1.608-.187-.778.933-1.795 1.24-2.914 1.422-1.226.199-2.44.533-3.671.594-1.844.095-2.599-.615-2.539-2.367.025-.72.002-1.447.002-2.378l-2.314 2.281c-1.406 1.388-1.381 1.363-2.805.039-.586-.545-1.303-.948-2.092-1.51-.17 1.23-.309 2.213-.453 3.26-3.46 1.012-6.605 2.728-9.606 4.83 1.81-.377 3.536-.908 5.295-1.053 1.78-.145 3.59.095 5.51.17l.156 3.21c.85-.156 1.439-.699 2.914-2.734.915.92 1.89 1.755 3.236 1.707-.098-.947-.223-1.926-.276-2.91-.009-.187.238-.521.422-.567 1.302-.32 2.616-.58 3.925-.861.979-.21 1.958-.423 3.038-.653-.065.264-.063.422-.136.533a5968.592 5968.592 0 0 1-7.291 11.138c-.127.193-.264.38-.42.55-.384.42-.795 1.18-1.172 1.166-.778-.025-1.626-.337-2.29-.764-1.577-1.013-2.654-2.51-3.59-4.184-.763.68-.93 1.553-.914 2.394.033 1.985.168 3.972.304 5.954.042.602-.16.916-.748 1.031-.582.116-1.158.272-1.74.38-1.694.319-2.864 1.494-4.104 2.516-.744.613-1.328 1.42-1.974 2.127 1.379.066 2.645.07 3.893.222.371.043.786.436 1.015.775.828 1.23.598 2.54.331 3.916a66.237 66.237 0 0 0-.926 6.61 25.56 25.56 0 0 0-.002 4.553c.224 2.546.268 5.125 1.086 7.591.055.168.137.326.293.69.37-1.198.755-2.207.99-3.251.62-2.733 1.82-5.213 3.37-7.521a62.793 62.793 0 0 1 3.63-4.883c1.073-1.302 2.57-1.999 4.276-2.096 1.32-.075 2.647-.013 4.02-.013.39-2.817-.804-5.227-1.919-7.664" style="color:#000;fill:#000;stroke:none;stroke-width:1.5;stroke-linecap:round;stroke-linejoin:round" transform="matrix(1.33333 0 0 -1.33333 -.399 795.125)"/><path d="M655.076 410.908c-.198.465-.312.674-.42.998a1 1 0 0 1-.002 0c-1.152 3.476-1.2 7.001-1.496 10.348a35.053 35.053 0 0 0 .006 6.25c.275 2.977.672 5.964 1.248 8.912.353 1.824.582 3.176-.289 4.47-.192.285-.752.616-.639.602a1 1 0 0 0-.006 0c-1.586.193-3.251.2-5.117.29a1 1 0 0 0-.691 1.675c.809.886 1.61 2.004 2.736 2.932 1.6 1.32 3.307 3.072 5.922 3.564a1 1 0 0 0 .002.004c.723.135 1.487.34 2.309.502a1 1 0 0 1 .002 0 .893.893 0 0 1 .19.053c0 .009.018.061.003.27a1 1 0 0 0 0 .003c-.18 2.644-.363 5.312-.408 7.993-.023 1.265.274 2.814 1.555 3.955a1 1 0 0 0 1.539-.26c1.21-2.17 2.55-4.006 4.449-5.227a1 1 0 0 0 .004 0c.699-.45 1.618-.743 2.385-.804.043.044.071.066.132.14.218.265.48.663.819 1.033a1 1 0 0 0 .002.004c.157.172.311.377.46.604 2.972 4.532 5.938 9.06 8.9 13.596l-2.003-.43c-1.68-.36-3.348-.699-4.984-1.096.074-1.192.215-2.404.34-3.609a1 1 0 0 0-.957-1.102c-1.79-.063-3.093.863-4.215 1.87-.612-.805-1.22-1.63-1.707-2.086-.68-.636-1.404-1.001-2.133-1.135a1 1 0 0 0-1.18.935c-.05 1.068-.108 2.195-.164 3.356-2.235.125-4.365.36-6.31.201-2.2-.18-4.465-.869-6.938-1.385a1 1 0 0 0-.775 1.797c3.872 2.713 7.979 4.921 12.469 6.33l.525 3.776a1 1 0 0 0 1.57.677c1.001-.715 1.99-1.26 2.889-2.095a1 1 0 0 1 .002 0c.477-.444.826-.768 1.045-.934.084-.064.116-.08.146-.098.03.018.057.033.137.096.214.17.557.502 1.025.965l3.086 3.043a1 1 0 0 0 1.088.21 1 1 0 0 0 .616-.925c0-1.226.032-2.198-.002-3.203-.035-1.02.159-1.491.421-1.736.263-.246.816-.446 1.91-.39a1 1 0 0 0 .005 0c1.492.075 3.076.505 4.783.782 1.41.228 2.444.553 3.275 1.55.247.297.473.546.77.759.296.212.743.392 1.197.328.454-.064.78-.305 1.033-.543.253-.238.467-.507.711-.83a1 1 0 0 0 .053-1.131c-.406-.654-.816-1.389-1.32-2.117-2.931-4.228-5.937-8.381-8.743-12.637-1.175-1.781-2.119-3.782-2.986-5.812-.123-.288-.116-1 .105-1.625.222-.625.701-1.091.702-1.092 1.929-.805 3.748-.841 5.673-.033.593.248 1.167.445 2 .757a1 1 0 0 0 1.239-1.398c-1.606-3.075-3.244-6.19-6.668-8.008 1.38-3 2.824-6.173 2.3-9.945a1 1 0 0 0-.99-.863c-1.86 0-3.614.078-5.304-.018-2.037-.116-3.734-.913-4.985-2.432a82.736 82.736 0 0 1-4.783-6.433c-2.015-3-3.554-6.19-4.348-9.69-.335-1.485-.856-2.845-1.34-4.408a1 1 0 0 0-1.874-.1z" style="color:#000;fill:#000;stroke:none;stroke-width:1.33333;stroke-linecap:round;stroke-linejoin:round" transform="translate(-545.376)"/></g><path d="M295.901 251.69c3.582.05 6.616-.292 8.97-1.121-5.33-6.375-10.167-10.45-9.685-15.381.521-5.33 9.13-10.687 15.652-15.246-10.788 1.748-20.971.771-30.346-3.841-11.698-4.833-22.568-6.353-32.499-4.115l-2.916 13.258-.003.014c11.461 2.957 22.752 7.27 32.395 13.192l-4.509 8.243c7.143 2.283 13.746 4.401 19.182 4.819 1.311.1 2.565.16 3.76.177z" style="fill:#000;stroke:none;stroke-width:.225;stroke-linecap:butt;stroke-linejoin:miter;stroke-miterlimit:4;stroke-dasharray:none;stroke-opacity:1" transform="matrix(1.33333 0 0 -1.33333 -.399 795.125)"/><g style="fill:#000;stroke:none"><path d="M97.631 262.439c2.816-1.169 3.955-3.522 5.272-6.045-.632.237-1.057.384-1.472.558-1.617.679-3.231.645-4.835-.025-.75-.314-1.428-2.036-1.006-3.024.657-1.54 1.381-3.082 2.303-4.479 2.117-3.21 4.375-6.33 6.567-9.492.351-.507.651-1.045.969-1.556-.693-.917-.94-.99-1.608-.187-.778.933-1.795 1.24-2.914 1.422-1.226.199-2.44.533-3.671.594-1.844.095-2.599-.615-2.539-2.367.025-.72.002-1.447.002-2.378l-2.314 2.281c-1.406 1.388-1.381 1.363-2.805.039-.586-.545-1.303-.948-2.092-1.51-.17 1.23-.309 2.213-.453 3.26-3.46 1.012-6.605 2.728-9.606 4.83 1.81-.377 3.536-.908 5.295-1.053 1.78-.145 3.59.095 5.51.17l.156 3.21c.85-.156 1.439-.699 2.914-2.734.915.92 1.89 1.755 3.236 1.707-.098-.947-.223-1.926-.276-2.91-.009-.187.238-.521.422-.567 1.302-.32 2.616-.58 3.925-.861.979-.21 1.958-.423 3.038-.653-.065.264-.063.422-.136.533a5968.592 5968.592 0 0 1-7.291 11.138c-.127.193-.264.38-.42.55-.384.42-.795 1.18-1.172 1.166-.778-.025-1.626-.337-2.29-.764-1.577-1.013-2.654-2.51-3.59-4.184-.763.68-.93 1.553-.914 2.394.033 1.985.168 3.972.304 5.954.042.602-.16.916-.748 1.031-.582.116-1.158.272-1.74.38-1.694.319-2.864 1.494-4.104 2.516-.744.613-1.328 1.42-1.974 2.127 1.379.066 2.645.07 3.893.222.371.043.786.436 1.015.775.828 1.23.598 2.54.331 3.916a66.237 66.237 0 0 0-.926 6.61 25.56 25.56 0 0 0-.002 4.553c.224 2.546.268 5.125 1.086 7.591.055.168.137.326.293.69.37-1.198.755-2.207.99-3.251.62-2.733 1.82-5.213 3.37-7.521a62.793 62.793 0 0 1 3.63-4.883c1.073-1.302 2.57-1.999 4.276-2.096 1.32-.075 2.647-.013 4.02-.013.39-2.817-.804-5.227-1.919-7.664" style="color:#000;fill:#000;stroke:none;stroke-width:1.5;stroke-linecap:round;stroke-linejoin:round" transform="matrix(-1.33333 0 0 -1.33333 540.65 795.125)"/><path d="M655.076 410.908c-.198.465-.312.674-.42.998a1 1 0 0 1-.002 0c-1.152 3.476-1.2 7.001-1.496 10.348a35.053 35.053 0 0 0 .006 6.25c.275 2.977.672 5.964 1.248 8.912.353 1.824.582 3.176-.289 4.47-.192.285-.752.616-.639.602a1 1 0 0 0-.006 0c-1.586.193-3.251.2-5.117.29a1 1 0 0 0-.691 1.675c.809.886 1.61 2.004 2.736 2.932 1.6 1.32 3.307 3.072 5.922 3.564a1 1 0 0 0 .002.004c.723.135 1.487.34 2.309.502a1 1 0 0 1 .002 0 .893.893 0 0 1 .19.053c0 .009.018.061.003.27a1 1 0 0 0 0 .003c-.18 2.644-.363 5.312-.408 7.993-.023 1.265.274 2.814 1.555 3.955a1 1 0 0 0 1.539-.26c1.21-2.17 2.55-4.006 4.449-5.227a1 1 0 0 0 .004 0c.699-.45 1.618-.743 2.385-.804.043.044.071.066.132.14.218.265.48.663.819 1.033a1 1 0 0 0 .002.004c.157.172.311.377.46.604 2.972 4.532 5.938 9.06 8.9 13.596l-2.003-.43c-1.68-.36-3.348-.699-4.984-1.096.074-1.192.215-2.404.34-3.609a1 1 0 0 0-.957-1.102c-1.79-.063-3.093.863-4.215 1.87-.612-.805-1.22-1.63-1.707-2.086-.68-.636-1.404-1.001-2.133-1.135a1 1 0 0 0-1.18.935c-.05 1.068-.108 2.195-.164 3.356-2.235.125-4.365.36-6.31.201-2.2-.18-4.465-.869-6.938-1.385a1 1 0 0 0-.775 1.797c3.872 2.713 7.979 4.921 12.469 6.33l.525 3.776a1 1 0 0 0 1.57.677c1.001-.715 1.99-1.26 2.889-2.095a1 1 0 0 1 .002 0c.477-.444.826-.768 1.045-.934.084-.064.116-.08.146-.098.03.018.057.033.137.096.214.17.557.502 1.025.965l3.086 3.043a1 1 0 0 0 1.088.21 1 1 0 0 0 .616-.925c0-1.226.032-2.198-.002-3.203-.035-1.02.159-1.491.421-1.736.263-.246.816-.446 1.91-.39a1 1 0 0 0 .005 0c1.492.075 3.076.505 4.783.782 1.41.228 2.444.553 3.275 1.55.247.297.473.546.77.759.296.212.743.392 1.197.328.454-.064.78-.305 1.033-.543.253-.238.467-.507.711-.83a1 1 0 0 0 .053-1.131c-.406-.654-.816-1.389-1.32-2.117-2.931-4.228-5.937-8.381-8.743-12.637-1.175-1.781-2.119-3.782-2.986-5.812-.123-.288-.116-1 .105-1.625.222-.625.701-1.091.702-1.092 1.929-.805 3.748-.841 5.673-.033.593.248 1.167.445 2 .757a1 1 0 0 0 1.239-1.398c-1.606-3.075-3.244-6.19-6.668-8.008 1.38-3 2.824-6.173 2.3-9.945a1 1 0 0 0-.99-.863c-1.86 0-3.614.078-5.304-.018-2.037-.116-3.734-.913-4.985-2.432a82.736 82.736 0 0 1-4.783-6.433c-2.015-3-3.554-6.19-4.348-9.69-.335-1.485-.856-2.845-1.34-4.408a1 1 0 0 0-1.874-.1z" style="color:#000;fill:#000;stroke:none;stroke-width:1.33333;stroke-linecap:round;stroke-linejoin:round" transform="matrix(-1 0 0 1 1085.626 0)"/></g></g><path d="M180.938 226.946q.243.601.418 1.265.194.658.389 1.498l2.757 11.868-.938.218q-.547.127-1.027.193-.454.083-1.016.145l.635 2.736q.43-.19.835-.308.406-.117 1.09-.276l1.798-.417.625-.146q.274-.063.494-.092.22-.028.416-.073.2-.024.484-.045-.318-.925-.547-1.734-.21-.814-.435-1.783l-2.532-10.899q-.2-.861-.33-1.512-.107-.634-.164-1.324zM193.111 229.509q.14-.5.238-.774.12-.254.282-.49.685-.966 2.225-1.094 1.44-.119 2.335.717.825.73 1.287 1.934.464 1.226.707 3.181-.318-.44-.56-.686-.24-.224-.604-.482-.722-.45-1.524-.65-.8-.178-1.8-.096-1.24.103-2.227.584-.965.502-1.623 1.31-.638.808-.928 1.92-.29 1.11-.181 2.433.14 1.696.89 2.966.77 1.267 2.079 2.002 1.48.853 3.58.68 1.94-.161 3.303-1.45 1.365-1.267 1.837-3.347.43-1.855.202-4.61-.104-1.256-.36-2.389-.234-1.134-.596-2.102-.342-.97-.808-1.73-.446-.762-.99-1.25-.873-.815-1.925-1.127-1.033-.314-2.473-.195-1.26.105-2.154.49-.895.384-1.6 1.108-.242.242-.423.479-.18.259-.357.562-.156.301-.327.67-.15.368-.33.871zm3.183 3.907q.74-.061 1.382.152.664.233 1.162.658.5.447.815 1.086.315.64.379 1.411.064.772-.143 1.432-.186.681-.587 1.18-.4.522-.998.837-.598.316-1.338.377-.72.06-1.342-.155-.622-.214-1.102-.663-.46-.45-.755-1.091t-.36-1.435q-.134-1.608.646-2.649.781-1.019 2.241-1.14zM213.397 224.66q-2.576-.255-4.37 1.367-1.02.92-1.54 2.091-1.01 2.256-1.28 4.984-.088.88-.093 1.746.013.89.094 1.698.079.83.23 1.534.153.704.382 1.238.67 1.577 1.892 2.476 1.22.921 2.896 1.088 2.596.258 4.39-1.364 1.02-.921 1.54-2.092.514-1.126.823-2.407.326-1.256.462-2.62.203-2.047-.028-3.78-.211-1.733-.803-2.88-1.44-2.765-4.595-3.078zm-.234 2.555q.66.066 1.195.363.535.298.87.775.603.838.816 2.348.213 1.51.02 3.446-.191 1.937-.693 3.331-.503 1.417-1.263 2.163-.403.405-1.006.59-.583.186-1.262.119-1.398-.14-2.126-1.345-1.147-1.847-.787-5.477.173-1.739.568-3.077.415-1.337.97-2.06 1.061-1.338 2.698-1.176zM226.706 227.161q-.078.645-.246 1.31-.148.67-.384 1.5l-3.323 11.721-.927-.263q-.54-.153-.992-.327-.438-.147-.96-.364l-.766 2.702q.468.04.88.134.411.094 1.087.285l1.776.504.618.175q.27.077.476.158.207.082.4.137.187.076.445.195.169-.964.36-1.783.21-.814.48-1.771l3.053-10.764q.241-.851.441-1.484.214-.606.497-1.238z" style="font-weight:600;font-size:40px;font-family:&quot;.Aqua Kana&quot;;fill:#fff;stroke-width:.526617" transform="matrix(1.33333 0 0 -1.33333 -.399 795.125)"/></svg>