<svg xmlns="http://www.w3.org/2000/svg" width="848.72803" height="979.99994" style="clip-rule:evenodd;fill-rule:evenodd;image-rendering:optimizeQuality;shape-rendering:geometricPrecision;text-rendering:geometricPrecision" viewBox="0 0 848.72803 979.99988"><path fill="none" d="M-28.99-22.278h905.117V1003.87H-28.99z" style="fill:#330705;fill-opacity:0"/><path d="M345.9 100.5 172.9.6 0 100.5v199.7L172.9 400l173-99.8z" class="st0" style="fill:#e30613" transform="translate(0 -1.472) scale(2.45368)"/><path d="M526.84 174.737 303.205 45.744 79.745 174.737c-24.712 14.196-39.96 40.661-39.96 69.054v212.068a79.58 79.58 0 0 0 39.96 69.053l131.272 75.714v-21.557c0-5.609-2.98-10.691-7.712-13.32L92.889 501.953c-8.062-4.732-14.897-11.392-19.63-19.63-4.731-8.062-7.185-17.35-7.185-26.64V243.616c0-9.289 2.454-18.577 7.186-26.64 4.732-8.062 11.392-14.897 19.63-19.629L303.204 76.064 513.52 197.521c8.062 4.732 14.898 11.392 19.63 19.63 4.732 8.062 7.186 17.35 7.186 26.64v212.068c0 9.289-2.454 18.578-7.186 26.64-4.732 8.062-11.392 14.897-19.63 19.63l-110.415 63.795c-4.732 2.804-7.712 7.887-7.712 13.32V600.8l131.447-75.889c24.712-14.196 39.96-40.66 39.96-69.053V243.79c-.175-28.393-15.423-54.682-39.96-69.054z" class="st1" style="fill:#fff;stroke-width:1.75263" transform="scale(1.4)"/><path d="M139.4 337.9v2.6h2.5v8.8h3.2v-11.4zM160.6 337.6c-3.7 0-6.5 1.7-6.5 3.9 0 2.3 2.8 4 6.5 3.8h.5l-3 4h3.8s4.2-5.5 4.5-6c.4-.5.7-1.1.7-1.8 0-2.3-2.8-3.9-6.5-3.9zm0 5.2c-1.8 0-3.2-.6-3.2-1.3 0-.7 1.4-1.3 3.2-1.3 1.8 0 3.2.6 3.2 1.3 0 .7-1.4 1.3-3.2 1.3zM187.3 341.7c0-2.4-2.6-4.1-6-4.1s-6 1.7-6 4.1h3.2c0-.8 1.2-1.5 2.8-1.5 1.5 0 2.8.7 2.8 1.5 0 1.6-4.7 3.2-8.7 4.9v2.6h12.2v-2.6h-7c3.6-1.4 6.7-2.6 6.7-4.9zM206.5 337.8h-10.8v2.7h7.3l-5.4 8.8h3.5l5.4-8.8ZM173 63.4l-8.9 5.1c-1 .6-1.6 1.6-1.6 2.7v8.5c0 1.1.6 2.1 1.6 2.7l8.9 5.1 8.9-5.1c1-.6 1.6-1.6 1.6-2.7v-8.5c0-1.1-.6-2.1-1.6-2.7z" class="st1" style="fill:#fff" transform="translate(0 -1.472) scale(2.45368)"/><path d="M162.6 80c0 1 .5 1.9 1.4 2.3l6.5 3.8v-8h-7.9zM162.6 71v1.9h7.9v-8l-6.5 3.8c-.9.5-1.4 1.3-1.4 2.3zM182.1 68.7l-6.5-3.8v8h7.9V71c0-1-.5-1.8-1.4-2.3zM175.6 86.1l6.5-3.8c.8-.5 1.4-1.4 1.4-2.3v-1.9h-7.9z" class="st0" style="fill:#e30613" transform="translate(0 -1.472) scale(2.45368)"/><path d="m173 64.9 7.8 4.5c.8.5 1.4 1.4 1.4 2.4v7.4c0 1-.5 1.9-1.4 2.4l-7.8 4.5-7.8-4.5c-.8-.5-1.4-1.4-1.4-2.4v-7.4c0-1 .5-1.9 1.4-2.4l7.8-4.5m0-2.7-1.2.7-7.8 4.5c-1.6.9-2.5 2.6-2.5 4.4v7.4c0 1.8 1 3.5 2.5 4.4l7.8 4.5 1.2.7 1.2-.7 7.8-4.5c1.6-.9 2.5-2.6 2.5-4.4v-7.4c0-1.8-1-3.5-2.5-4.4l-7.8-4.5zM118.1 100.4c1 0 2 .6 2.5 1.5l7.7 15.2H123l-1.4-2.8h-9.3l-1.4 2.8h-5.3l8.4-16.7zm1.5 10.1-2.7-5.4-2.7 5.4zM151.4 100.4v16.7h-4.7l-11.5-12.2v12.2h-4.7v-16.7h4.5c.8 0 1.5.3 2 .9l9.6 10.1v-11zM176.2 100.4v16.7h-4.7L160 104.9v12.2h-4.7v-16.7h4.5c.8 0 1.5.3 2 .9l9.6 10.1v-11zM184.7 104.3v2.6h10.2v3.8h-10.2v2.6h11.4v3.8H180v-13.9c0-1.5 1.2-2.8 2.8-2.8h13.4v3.8h-11.5zM219.9 110.7c-1.1 3.9-5.5 6.9-10.7 6.9-6.1 0-11-3.9-11-8.7 0-4.8 4.9-8.7 11-8.7 5.2 0 9.6 2.9 10.7 6.8h-5c-1-1.8-3.2-3-5.8-3-3.5 0-6.3 2.2-6.3 4.9s2.8 4.9 6.3 4.9c2.6 0 4.9-1.3 5.8-3.1zM232.5 113v4.2h-4.7V113l-8.1-12.5h3.7c1 0 1.9.5 2.4 1.4l4.3 7.3 5.1-8.7h5.3zM144 240.5l10.6 6.1v-67.8h17.7c2.3 0 4.6-.9 6.2-2.6l12.4-12.4h-36.4v-15.1H206l15-15h-88.9l4.5 9.1c1.7 3.4 2.7 7.1 2.9 10.9v11.4c-11.4 2.5-21.9 7.9-30.4 16.1-5.8 5.5-10.4 12-13.5 19.2-3.3 7.5-5 15.4-5 23.6 0 8.2 1.7 16.1 5 23.6 3.2 7.2 7.7 13.6 13.5 19.2 11.8 11.3 28.5 17.9 45.4 17.5v-15c-27.4.7-49.1-20.3-49.1-45.3 0-20.5 14.4-37.8 34.1-43.4V233c.1 3 1.8 5.9 4.5 7.5z" class="st1" style="fill:#fff" transform="translate(0 -1.472) scale(2.45368)"/><path d="M230.8 183.2c-6.5-7.2-15.8-12.5-27.5-15.7l-12.7 12.7c13.1 2.1 23.2 6.5 29 13.1 4.9 5.5 7 12.6 6.1 21-.6 5.8-3.3 10.9-8.3 15.9-4.9 4.8-11.3 8.9-17.5 12.8-5.3 3.3-10.3 6.5-14.4 10.1-1.7 1.5-3.2 2.9-4.6 4.3v-67.5l-12.4 12.4c-1.7 1.7-2.6 3.9-2.6 6.2v110.2l15-8.7v-14.5c.5-15.3 3.9-22 14.5-31.3 3.3-2.8 7.8-5.7 12.5-8.7 5.8-3.7 12.3-7.7 17.9-12.8V284l10.6-6.1c2.7-1.6 4.4-4.5 4.4-7.6V208c0-7.7-3.9-17.9-10-24.8z" class="st1" style="fill:#fff" transform="translate(0 -1.472) scale(2.45368)"/></svg>