<svg xmlns="http://www.w3.org/2000/svg" width="553.49658" height="699.99969" viewBox="0 0 553.49658 699.99969"><path d="M136.316 393.97a423 423 0 0 1-3.59-17.586c1.077 5.958 2.298 11.772 3.59 17.586M123.252 106.491 400.036 50l276.712 56.491L400.036 50zM132.727 376.456a531 531 0 0 1-4.666-30.148c1.292 10.337 2.8 20.386 4.666 30.148M427.312 733.634c-1.722 1.149-3.373 2.153-4.953 3.158 1.58-1.005 3.23-2.081 4.953-3.158M453.943 715.043c-3.302 2.44-6.532 4.738-9.619 6.963 3.087-2.225 6.317-4.522 9.619-6.963M397.954 748.78c.933.502 1.58.861 2.082 1.076.502-.215 1.148-.574 2.081-1.076-.933.502-1.579.861-2.081 1.076-.503-.215-1.149-.574-2.082-1.076M438.367 726.24c-2.944 2.01-5.743 3.949-8.399 5.671 2.656-1.794 5.455-3.66 8.398-5.67M417.837 739.664a279 279 0 0 1-7.752 4.665c2.297-1.292 4.881-2.87 7.752-4.665M512.659 665.084c-2.584 2.512-5.168 5.025-7.752 7.465 2.584-2.44 5.168-4.88 7.752-7.465M524.36 653.312c-2.585 2.728-5.24 5.312-7.825 7.968 2.584-2.584 5.168-5.24 7.824-7.968M410.013 744.33c-3.445 2.01-6.101 3.445-7.895 4.45 1.794-.933 4.522-2.44 7.895-4.45M464.136 707.363c-2.298 1.794-4.594 3.517-6.82 5.24 2.226-1.723 4.523-3.446 6.82-5.24M355.676 722.006c-3.087-2.225-6.317-4.522-9.619-6.963 3.302 2.44 6.532 4.738 9.619 6.963M342.755 712.602c-2.225-1.722-4.522-3.445-6.819-5.24 2.297 1.795 4.594 3.518 6.82 5.24M397.954 748.78c-1.794-.934-4.522-2.44-7.896-4.45 3.446 2.009 6.102 3.445 7.896 4.45M283.537 661.208a452.823 452.823 0 0 0 0 0M293.299 670.683l-5.886-5.67c1.938 1.937 3.948 3.804 5.886 5.67M390.059 744.33c-2.298-1.293-4.882-2.872-7.753-4.666a279 279 0 0 0 7.752 4.665M370.104 731.911c-2.656-1.794-5.456-3.66-8.399-5.67 2.943 2.01 5.743 3.948 8.399 5.67M377.712 736.864c-1.579-1.005-3.23-2.081-4.952-3.158 1.722 1.148 3.373 2.153 4.952 3.158M125.046 314.366c-.502-7.321-.861-14.786-1.148-22.395.215 7.608.646 15.074 1.148 22.395" style="fill:#fff" transform="translate(-123.252 -50)"/><path d="m672.37 256.512.359-146.72-272.693-55.7-272.765 55.7.36 146.648c-2.154 131.932 29.573 213.69 81.398 302.84 67.76 116.571 176.077 178.015 191.007 186.054 14.858-8.04 123.175-69.483 191.007-186.054 51.825-89.15 83.552-170.837 81.399-302.768zm-11.342.143c2.082 129.276-28.999 209.383-79.819 296.81-35.316 60.727-82.619 106.092-116.14 133.44-29.79 24.262-53.907 39.12-65.033 45.365-11.054-6.316-35.244-21.103-65.033-45.365-33.45-27.348-80.753-72.641-116.14-133.44-50.82-87.427-81.973-167.606-79.82-296.81v-.287l-.359-137.316 261.352-53.404 261.351 53.404-.358 137.316z" style="fill:#fff" transform="translate(-123.252 -50)"/><path d="m648.539 256.368.287-127.123-248.79-50.892-248.862 50.892.287 127.123v.574c-2.081 126.333 28.353 204.789 78.169 290.35 34.382 59.148 80.537 103.364 113.197 129.995 24.262 19.811 44.576 33.09 57.137 40.627 12.562-7.537 32.875-20.816 57.137-40.627 32.66-26.703 78.815-70.847 113.197-129.994 49.744-85.562 80.179-164.018 78.169-290.35v-.575zm-104.01 309.516C480.573 658.409 400.036 704.42 400.036 704.42s-80.322-45.796-144.206-137.962V381.696s-23.544-36.392-28.138-43.57v-48.883c8.829-1.65 16.437-3.015 22.036-4.091 1.005-.216 2.01-.36 2.871-.503v20.601l7.61-1.364c4.162-.718 9.977-1.722 17.8-2.87 11.988-1.724 19.956-2.585 24.693-3.016l5.742-.502v-19.955c17.228-2.082 34.168-3.445 47.232-4.235 7.178-.43 13.207-.718 17.37-.933v21.606l6.676-.288c4.45-.215 15.361-.43 20.242-.43s16.079.215 20.53.43l6.675.288v-21.606c11.843.502 37.828 1.866 64.602 5.168v19.955l5.742.502c4.738.431 12.777 1.292 24.693 3.015 7.824 1.149 13.638 2.082 17.801 2.871l7.609 1.364v-20.6c5.742 1.004 14.428 2.655 24.907 4.593v48.883c-4.593 7.106-28.137 43.57-28.137 43.57v184.116zM636.91 256.44c0 87.5-8.685 171.841-76.302 284.608-1.077 1.794-2.225 3.589-3.302 5.383V384.926c2.082-3.302 28.21-43.642 28.21-43.642v-61.229l-5.097-.933c-22.18-4.163-37.756-6.962-37.828-6.962l-7.609-1.364v20.672c-3.014-.502-6.532-1.004-10.551-1.65a672 672 0 0 0-19.74-2.584v-19.596l-5.455-.718c-39.12-5.168-78.025-6.245-78.169-6.245l-6.603-.215v21.534a574 574 0 0 0-14.428-.216c-3.446 0-9.188.072-14.14.216V260.46l-6.605.215c-.143 0-39.048 1.077-78.168 6.245l-5.456.718v19.596c-4.88.502-11.413 1.363-19.74 2.584-4.019.574-7.536 1.148-10.55 1.65v-20.672l-7.61 1.364s-15.648 2.727-37.828 6.962l-5.096.933v61.229s24.118 37.326 28.21 43.642V547.15c-1.22-2.01-2.513-4.02-3.733-6.101-67.617-112.695-76.302-197.108-76.302-284.608s-.216-117.791-.216-117.791l237.234-48.524 237.233 48.452s-.359 30.363-.359 117.79z" style="fill:#fff" transform="translate(-123.252 -50)"/><path d="M572.667 289.315c-10.48-1.938-19.165-3.517-24.908-4.594v20.601l-7.608-1.364c-4.163-.718-9.978-1.723-17.802-2.871-11.987-1.723-19.955-2.584-24.692-3.015l-5.743-.502v-19.955c-26.774-3.302-52.83-4.666-64.602-5.168v21.605l-6.675-.287c-4.45-.215-15.72-.43-20.53-.43-4.88 0-15.79.215-20.241.43l-6.676.287v-21.605c-4.163.143-10.193.502-17.37.933-13.065.79-30.005 2.153-47.232 4.235v19.955l-5.742.502c-4.738.43-12.777 1.292-24.693 3.015-7.824 1.148-13.638 2.082-17.801 2.871l-7.609 1.364V284.72c-.861.144-1.866.359-2.871.502-5.599 1.005-13.208 2.441-22.037 4.092v48.882c4.594 7.106 28.138 43.57 28.138 43.57V566.53C319.858 658.696 400.18 704.49 400.18 704.49s80.537-46.01 144.493-138.535V381.839s23.544-36.392 28.138-43.57v-48.882zM367.232 642.33h-5.957v-27.492c-.933.287-2.154.43-3.374.359v-5.743c3.087 0 3.876-.646 3.876-2.87h5.455zm25.626-21.175c0 3.445-.718 6.244-2.01 9.116l-5.455 12.13h-6.389l5.312-11.34c-.861.215-1.723.286-2.512.286-5.814 0-8.686-3.804-8.686-9.546v-5.312c0-6.173 3.948-10.265 9.906-10.265s9.906 4.164 9.906 10.265v4.737zm24.692 11.34c0 6.03-4.091 10.265-9.977 10.265s-9.906-4.235-9.906-10.264v-16.079c0-6.101 4.092-10.336 9.906-10.336s9.977 4.235 9.977 10.336zm24.62-1.148c0 6.82-3.373 11.485-9.977 11.485s-9.905-4.163-9.905-10.264h5.957c0 3.373 1.795 4.522 4.092 4.522s3.876-1.58 3.876-4.522v-4.164c0-3.302-1.22-5.24-4.02-5.24s-3.374 1.795-3.732 2.728l-5.6-.933 2.8-18.447h15.074v5.742h-10.336l-1.22 7.824c.43-.502 2.01-1.794 4.737-1.794 5.455 0 8.254 3.23 8.254 10.049zm48.811-138.464c-8.254 14.572-17.083 27.205-26.343 38.26-14.787 17.657-30.578 31.152-46.585 41.775-2.01 1.364-4.02 2.584-6.03 3.876-4.02 2.513-8.04 4.81-11.987 6.963-4.02-2.153-8.04-4.45-11.987-6.963a229 229 0 0 1-17.945-12.346 198 198 0 0 1-17.587-15.074c-15.432-14.715-30.147-33.09-43.355-56.419-26.774-47.16-34.957-96.042-34.095-138.105 20.888-11.915 45.15-21.319 72.498-26.702a241 241 0 0 1 16.796-2.728 337 337 0 0 1 17.514-1.722c5.958-.431 12.06-.575 18.233-.575 18.59 0 36.105 1.795 52.543 5.025 27.348 5.384 51.61 14.787 72.498 26.702.861 42.063-7.394 90.946-34.096 138.105z" style="fill:#0053db" transform="translate(-123.252 -50)"/><path d="M407.573 611.823c-2.154 0-3.948 1.149-3.948 4.594v15.935c0 3.517 1.866 4.666 3.948 4.666s4.02-1.149 4.02-4.594v-16.007c0-3.517-1.867-4.594-4.02-4.594M383.024 611.823c-2.225 0-3.948 1.005-3.948 4.953v5.24c0 3.302 1.795 4.235 3.948 4.235s3.948-1.005 3.948-4.235v-5.24c0-3.876-1.651-4.953-3.948-4.953M396.088 195.283l13.782.072-6.748-32.804zM360.629 197.436c-.503-7.034-3.733-8.757-9.188-8.326l-7.609.502 1.436 22.109 7.178-.503c5.886-.359 8.972-2.081 8.47-9.762zM571.734 215.956l.861-33.522-14.212 30.363z" style="fill:#0053db" transform="translate(-123.252 -50)"/><path d="M162.874 138.649s.216 30.363.216 117.79c0 87.429 8.685 171.842 76.302 284.609 1.22 2.082 2.512 4.091 3.733 6.101V384.926c-4.02-6.245-28.21-43.642-28.21-43.642v-61.229l5.096-.933c22.18-4.163 37.757-6.962 37.828-6.962l7.61-1.364v20.672c3.014-.502 6.531-1.004 10.55-1.65a672 672 0 0 1 19.74-2.584v-19.596l5.456-.718c39.12-5.168 78.025-6.245 78.168-6.245l6.604-.215v21.534a549 549 0 0 1 14.14-.216c3.446 0 9.404.072 14.428.216V260.46l6.604.215c.144 0 39.049 1.077 78.169 6.245l5.455.718v19.596c4.881.502 11.413 1.363 19.74 2.584 4.02.574 7.537 1.148 10.551 1.65v-20.672l7.61 1.364s15.647 2.727 37.827 6.962l5.097.933v61.229s-26.128 40.34-28.21 43.642v161.505c1.148-1.794 2.225-3.589 3.302-5.383 67.617-112.695 76.302-197.108 76.302-284.608s.36-117.791.36-117.791L400.035 90.125l-237.162 48.452Zm77.738 102.932c-12.777 3.015-23.83-3.23-27.06-17.012l12.632-2.943c1.723 7.322 6.604 9.045 11.629 7.824 4.88-1.148 7.824-4.952 6.604-10.049-3.087-13.28-34.168-12.92-38.69-32.086-2.8-11.987 3.517-21.749 16.079-24.692 12.059-2.8 22.61 3.445 25.697 16.653l-12.561 2.943c-1.58-6.747-5.815-8.757-10.552-7.68-4.666 1.076-7.178 4.593-6.101 9.116 3.158 13.638 33.593 11.556 38.402 31.942 2.943 12.633-2.728 22.826-16.079 25.984m46.8-9.331c-12.704 2.081-23.04-5.743-25.194-18.878l-5.742-34.885c-2.154-13.28 5.168-23.975 17.873-26.057s23.185 5.743 25.338 18.95l.646 4.092-12.92 2.081-.79-4.665c-1.148-7.035-5.67-8.83-10.264-8.04-4.45.718-8.255 3.733-7.035 10.91l5.886 35.891c1.149 7.035 5.67 8.829 10.193 8.111 4.307-.718 8.327-3.732 7.178-10.91l-.933-5.6 12.92-2.08.862 5.167c2.153 13.136-5.24 23.903-17.945 25.985l-.072-.072zm66.326-8.614L333.065 225l-5.24-78.743 19.955-1.364c12.849-.861 22.037 4.235 22.97 18.52l.215 3.66c.574 8.614-2.01 13.28-6.891 15.72 5.527 2.01 9.044 6.03 9.619 15.29l.287 4.593c.933 13.926-7.537 20.027-20.386 20.888zm230.055-58.357.287 81.04-12.992-3.015.215-15.792-17.873-4.163-6.891 14.284-12.992-3.014 36.464-72.498 13.71 3.23zm-40.269-8.685L529.6 234.26l-12.92-2.297 13.925-77.666zm-60.941-9.188 39.48 5.24-1.652 12.633-13.28-1.795-8.685 65.536-12.992-1.723 8.686-65.535-13.208-1.723zm-53.189 53.404 12.92.933c-.502 7.465 3.59 10.552 8.758 10.983 5.024.359 8.9-2.37 9.331-7.61 1.005-13.637-28.784-22.466-27.348-42.134.861-12.274 9.834-19.74 22.682-18.806 12.418.861 20.601 9.977 19.596 23.544l-12.848-.934c.502-6.89-3.015-10.12-7.753-10.408-4.809-.359-8.254 2.226-8.542 6.891-1.004 13.926 28.64 21.032 27.205 41.92-.933 12.92-9.331 20.96-23.113 20.027-13.064-.934-21.821-10.193-20.816-24.262zm-.718 21.462h-13.35l-3.303-15.504h-18.376c0-.072-3.517 15.36-3.517 15.36h-13.35l19.38-78.886h14.069l18.375 79.03z" style="fill:#0053db" transform="translate(-123.252 -50)"/><path d="m358.188 169.299-.215-3.015c-.503-8.04-4.163-9.045-9.762-8.686l-6.46.431 1.435 21.247 7.393-.502c4.881-.36 8.183-1.795 7.68-9.475z" style="fill:#0053db" transform="translate(-123.252 -50)"/><path d="M553.497 56.491 276.784 0 0 56.491.359 206.44c-.215 12.274-.144 24.046.287 35.53.215 7.61.646 15.075 1.149 22.396a543 543 0 0 0 3.014 31.943c1.292 10.336 2.8 20.385 4.666 30.147 1.077 5.958 2.297 11.772 3.589 17.586.287 1.292.574 2.656.861 3.948a550 550 0 0 0 4.092 16.438c4.953 18.376 10.91 36.034 17.73 53.333 1.148 2.87 2.297 5.742 3.517 8.613 3.589 8.614 7.393 17.084 11.413 25.554 1.364 2.8 2.727 5.67 4.091 8.47 8.327 16.94 17.515 33.737 27.492 50.892 16.366 28.138 35.244 53.26 54.553 75.154 1.292 1.435 2.584 2.943 3.876 4.378a541 541 0 0 0 13.638 14.572 453 453 0 0 0 5.815 5.886l3.876 3.876c1.938 1.938 3.948 3.804 5.886 5.67 1.938 1.795 3.804 3.59 5.742 5.384a614 614 0 0 0 26.2 22.754c2.44 1.938 4.81 3.876 7.178 5.743a116 116 0 0 0 3.517 2.727c2.297 1.795 4.594 3.517 6.82 5.24 1.148.862 2.224 1.651 3.301 2.512 3.302 2.44 6.532 4.738 9.619 6.963 2.081 1.436 4.091 2.871 6.029 4.235 2.943 2.01 5.742 3.948 8.398 5.67.862.575 1.795 1.15 2.656 1.723 1.723 1.149 3.374 2.154 4.953 3.159s3.087 1.938 4.522 2.87a279 279 0 0 0 7.752 4.667c3.446 2.01 6.102 3.445 7.896 4.45.933.503 1.58.861 2.082 1.077.502-.216 1.148-.574 2.081-1.077 1.795-.933 4.522-2.44 7.896-4.45 2.297-1.292 4.881-2.872 7.752-4.666 1.436-.861 2.943-1.866 4.522-2.871s3.23-2.082 4.953-3.159c.862-.574 1.723-1.148 2.656-1.722 2.656-1.795 5.455-3.661 8.398-5.67 1.939-1.365 3.948-2.728 6.03-4.236 3.086-2.225 6.317-4.522 9.619-6.963 1.076-.79 2.225-1.65 3.301-2.512 2.226-1.723 4.523-3.445 6.82-5.24 12.705-9.905 26.558-21.534 40.699-34.813 2.584-2.44 5.168-4.881 7.752-7.465 1.292-1.292 2.584-2.513 3.876-3.876 2.584-2.585 5.168-5.24 7.824-7.968 24.693-25.626 49.385-56.347 70.13-92.022 6.675-11.413 12.992-22.754 18.878-34.024 2.943-5.67 5.814-11.27 8.613-16.94 1.364-2.8 2.728-5.67 4.092-8.47 24.118-50.82 40.484-102.79 47.088-166.027.717-7.035 1.363-14.213 1.866-21.463.502-7.321.861-14.786 1.148-22.395.36-11.413.431-23.257.287-35.531l.36-149.95zM467.79 509.208c-67.76 116.571-176.076 178.015-191.007 186.054-14.858-8.039-123.174-69.483-191.007-186.054-51.825-89.15-83.552-170.836-81.398-302.84L4.019 59.72l272.765-55.63L549.55 59.794l-.36 146.719c2.154 131.86-29.573 213.617-81.398 302.768z"/><path d="M538.136 69.053 276.784 15.647 15.433 69.053l.359 137.315v.287c-2.082 129.276 28.999 209.383 79.82 296.81 35.315 60.727 82.618 106.092 116.14 133.44 29.788 24.262 53.906 39.12 65.032 45.365 11.054-6.316 35.244-21.103 65.033-45.365 33.45-27.348 80.753-72.641 116.14-133.44 50.82-87.427 81.973-167.606 79.82-296.81v-.287zm-12.849 137.674v.143c2.082 126.333-28.353 204.79-78.169 290.351-34.382 59.147-80.537 103.363-113.197 129.994-24.262 19.811-44.575 33.09-57.137 40.627-12.561-7.536-32.875-20.816-57.137-40.627-32.66-26.702-78.815-70.847-113.197-129.994C56.706 411.66 26.27 333.204 28.28 206.871v-.575l-.287-127.122 248.79-50.82 248.862 50.82-.287 127.122v.43z"/><path d="M357.901 609.454v5.743c1.22.072 2.512 0 3.374-.36v27.493h5.957v-35.747h-5.455c0 2.225-.79 2.871-3.876 2.871M383.024 606.08c-5.958 0-9.906 4.164-9.906 10.265v5.312c0 5.742 2.871 9.547 8.686 9.547s1.65-.072 2.512-.287l-5.312 11.34h6.389l5.455-12.13c1.292-2.871 2.01-5.599 2.01-9.116v-4.738c0-6.173-3.948-10.264-9.906-10.264zm3.948 15.936c0 3.23-1.723 4.235-3.948 4.235s-3.948-.933-3.948-4.235v-5.24c0-3.876 1.723-4.953 3.948-4.953s3.948 1.005 3.948 4.953zM407.573 606.08c-5.814 0-9.906 4.236-9.906 10.337v16.079c0 6.03 4.092 10.265 9.906 10.265s9.977-4.235 9.977-10.265v-16.079c0-6.101-4.091-10.336-9.977-10.336zm4.02 26.344c0 3.517-1.939 4.594-4.02 4.594-2.082 0-3.948-1.149-3.948-4.666v-15.935c0-3.517 1.794-4.594 3.948-4.594s4.02 1.149 4.02 4.594zM433.844 618.283c-2.727 0-4.306 1.292-4.737 1.795l1.22-7.824h10.337v-5.743H425.59l-2.8 18.448 5.6.933c.43-.933 1.22-2.728 3.732-2.728s4.02 1.938 4.02 5.24v4.163c0 2.943-1.651 4.523-3.877 4.523s-4.091-1.149-4.091-4.523h-5.958c0 6.102 4.092 10.265 9.906 10.265s9.977-4.594 9.977-11.485v-3.015c0-6.819-2.87-10.049-8.254-10.049zM218.36 183.726c-1.076-4.593 1.436-8.039 6.102-9.116 4.665-1.076 8.972.862 10.551 7.68l12.562-2.942c-3.087-13.208-13.638-19.453-25.697-16.653-12.562 2.943-18.879 12.705-16.08 24.692 4.523 19.166 35.532 18.807 38.69 32.086 1.22 5.096-1.722 8.9-6.603 10.05-5.025 1.148-9.906-.575-11.629-7.825l-12.633 2.943c3.23 13.71 14.356 19.955 27.061 17.012 13.423-3.158 19.094-13.28 16.079-25.984-4.738-20.386-35.173-18.304-38.403-31.943M304.568 201.097l-12.92 2.082.933 5.599c1.149 7.178-2.871 10.192-7.178 10.91-4.522.718-9.044-1.005-10.193-8.11l-5.886-35.891c-1.148-7.178 2.656-10.193 7.035-10.91 4.665-.79 9.116 1.004 10.264 8.039l.79 4.665 12.92-2.081-.646-4.092c-2.153-13.279-12.633-21.031-25.338-18.95-12.705 2.082-20.027 12.777-17.873 26.057l5.742 34.885c2.153 13.135 12.49 20.96 25.195 18.878s20.098-12.849 17.945-25.985l-.862-5.168zM373.764 198.226c-.646-9.26-4.163-13.28-9.618-15.29 4.88-2.44 7.465-7.105 6.89-15.719l-.214-3.66c-.934-14.285-10.121-19.381-22.97-18.52l-19.955 1.364 5.24 78.742 20.673-1.363c12.848-.862 21.318-6.891 20.385-20.888l-.287-4.594zm-32.014-40.197 6.46-.43c5.6-.36 9.26.645 9.763 8.685l.215 3.015c.502 7.68-2.728 9.187-7.68 9.475l-7.394.502-1.435-21.247zm10.696 53.19-7.178.502-1.436-22.109 7.609-.502c5.455-.359 8.757 1.292 9.188 8.326l.287 4.02c.502 7.68-2.513 9.332-8.47 9.762M376.85 222.057h13.352l3.517-15.36h18.376c0 .07 3.302 15.504 3.302 15.504h13.35l-18.375-78.887h-14.069l-19.38 78.743zm33.02-26.702h-13.782l7.106-32.804zM450.21 225.072c13.71 1.005 22.18-7.035 23.113-20.027 1.508-20.888-28.21-27.922-27.204-41.92.359-4.665 3.804-7.25 8.542-6.89 4.809.358 8.254 3.517 7.752 10.408l12.848.933c1.005-13.495-7.25-22.61-19.596-23.544-12.848-.933-21.82 6.532-22.682 18.806-1.436 19.668 28.353 28.497 27.348 42.135-.359 5.24-4.307 7.968-9.331 7.609-5.168-.359-9.26-3.446-8.757-10.983l-12.92-.933c-1.006 14.07 7.751 23.329 20.815 24.262zM507.132 163.556l13.28 1.795 1.722-12.705-39.551-5.24-1.65 12.705 13.207 1.722-8.686 65.536 12.993 1.722z" style="fill:#fff" transform="translate(-123.252 -50)"/><path d="M490.968 187.868h78.887v13.064h-78.887z" style="fill:#fff" transform="rotate(-79.8 438.886 243.104)"/><path d="m546.61 237.633 6.892-14.284 17.873 4.163-.215 15.792 12.992 3.015-.287-81.04-13.71-3.23-36.464 72.498 12.992 3.015zm25.985-55.199-.79 33.45-13.422-3.158 14.212-30.363zM441.31 443.57c-.431-3.589-2.37-5.957-3.302-6.819-.216.288-.431.503-.718.718.43 2.656 2.512 9.978 6.962 13.71-3.373-1.866-6.819-8.398-7.895-13.064-.36.287-.718.43-1.149.574 4.163 6.676 3.374 12.418 6.532 16.438 4.163 5.025 13.064 2.369 15.361 11.987.215-1.938.215-4.235-.143-6.388 1.004 2.225 1.148 5.455 1.292 7.752v1.723l.502-.718c.359-1.866.718-4.88.215-7.609.646 1.364.933 3.876 1.005 5.815l.79-1.149c0-1.436 0-2.943-.287-4.45.43.861.718 2.225.861 3.517l1.508-2.154c.143-2.225-.216-8.9-.216-8.9-.215-1.364-.861-3.374-2.943-4.379-3.015-1.794-10.695-3.015-13.782-7.178-.86-1.364-2.799-4.235-4.45-6.245-.287-.143-.574-.359-.861-.574.718 1.507 1.076 3.517.933 4.953-.43-3.302-1.938-5.097-2.656-5.814-.144.287-.359.646-.574.861 2.656 2.512 2.584 4.45 2.8 7.393zM433.055 436.967c.43 1.148 5.24-.718 5.527-4.45s-3.015-3.877-3.445-3.518c-.646.646.79 1.292.646 3.733-.431 2.44-3.23 2.656-2.728 4.163zM383.455 405.742c-7.752-.287-24.405-6.1-26.487-7.895 4.307 1.435 27.348 8.182 22.97 4.522-4.307-3.59-27.995-13.782-29.79-13.926-.286-.143-.932-.215-1.076.575-.359 1.722-3.158 3.23-3.948 3.589-1.58.717-1.364 2.655-.933 3.086.144.79 3.302 3.302 3.733 3.66-.216 0-1.077-.358-2.656-.43-1.795-.143-2.01 1.149-2.154 1.436-.143.287-.79 1.938-.287 2.656.359.718 4.379 2.8 4.379 2.8l-4.45-.36s-.79.503-.862 2.728c0 4.235 6.46 4.88 9.475 6.101 1.866.646 8.757 4.163 14.428 5.814 5.742 1.58 15.002 1.22 17.801 1.508 0 0-2.081 1.076-6.245 1.364.646.358 8.47 3.804 12.634 3.804.646-.933 3.948-4.81 8.613-6.173 7.394-1.651 10.839 4.163 11.198 6.46.502 3.66-1.005 6.819-2.8 8.183s-3.588 1.58-5.168 4.307c-1.579 4.091-3.66 8.757-6.819 8.757s-3.732-1.292-4.235-2.01c0 .287.43 3.23 4.594 3.517 4.092.216 6.46-5.24 7.537-7.824 1.077-2.656 3.302-3.804 4.738-4.665 1.507-.862 3.23-3.015 3.732-4.38.43-.86 1.723-1.22 3.302-.502 1.22.575 1.866 2.154 5.527 2.297 1.866.144 5.958 0 7.609-.861-1.508-2.225-3.733-.359-6.46-1.58-3.087-1.004-4.235-2.224-7.178-2.296 3.014-1.077 6.962 1.364 11.413 1.005 2.87-.072 2.87 2.44 6.245 2.656.43 0 1.794-.216 1.794-1.436-.143-4.666-6.388-6.46-8.972-8.183-3.302-1.794-9.332-8.614-17.3-10.623-1.722-.36-5.168-1.077-7.823-2.37.646 0 3.086 0 4.306-.573-2.943-.287-7.393-1.364-10.48-3.015-3.732-1.938-7.68-1.364-9.833-1.436zm-23.113 7.178c-5.025-3.23-11.772-4.163-16.007-4.378 4.522-.144 9.618-1.58 17.801 2.943 5.383 3.732 15.863 2.871 17.801 2.297-2.655 2.081-13.925 2.8-19.667-.933zm44.073 2.513c6.603.933 12.13 3.804 17.73 7.967 3.301 2.513 8.541 3.948 9.187 7.25-1.22-1.794-6.747-4.45-12.203-4.666-5.527-.215-6.747.144-8.039-1.65-3.733-5.025-15.648-10.265-21.175-12.203 8.398 1.723 17.37 5.455 22.395 11.27.574.645 2.01 1.004 3.805 1.004 1.866 0 4.88.36 5.67.79-.933-1.005-8.398-7.178-17.37-9.762z" style="fill:#fff" transform="translate(-123.252 -50)"/><path d="M397.021 435.818c-1.077 1.005-.43 4.092-1.65 4.092-1.221 0 0-1.651-1.58-1.436-1.22.072-1.22 2.8 1.005 3.302 3.158.574 2.871-2.153 3.589-4.379.359-1.148 3.445-1.076 3.445-4.091s-3.445-2.8-3.517-1.795c0 .933 1.58.79 1.58 1.795s-1.723 1.58-2.8 2.656zM452.866 426.918c-.574 1.435-4.45 4.378-12.992 4.02 0 .143 0 .358.072.573 3.804 1.364 10.48.79 13.566-1.579-2.297 2.44-7.25 4.235-13.494 2.513 0 .358-.072.717-.216 1.148.933.574 1.938 1.22 2.584 1.723 1.795 1.364 4.881 1.579 7.035.646s8.685-3.087 10.767-6.676c1.794-3.158 2.368-5.096 3.302-9.618 1.004-4.45 12.274-31.584 12.274-31.584-3.158.287-11.413 1.005-11.413 1.005-.503 1.292-3.302 6.173-8.829 4.45 1.723 5.815.933 16.295-.79 19.381.575-2.368 1.58-15.576-.574-20.314-.646-.646-.933-1.148-1.005-2.44 0-1.292 1.58-3.445 4.522-3.733 2.872-.287 6.46 0 6.389-2.153 0-2.225-3.015-2.01-3.876-2.01-6.173 0-7.68 7.393-14.787 6.532 0 0 5.24 18.16 5.742 19.596.646 1.651 3.876 22.108-11.7 21.247 0 .072.072.215.144.359 2.727.502 10.264.43 13.35-3.015zm15.505-35.675c-1.795 0-2.943-.072-4.307 1.794.933-2.584 3.158-2.153 4.307-1.794m-5.456 3.732s-1.364 5.67 1.005 9.045c-2.153-.575-2.943-6.46-1.005-9.045" style="fill:#fff" transform="translate(-123.252 -50)"/><path d="M405.778 431.009c.431-1.292 1.364-5.168-2.081-7.322-4.02-2.44-11.27 3.015-11.629 5.671 0 2.512 6.604-6.604 10.624-4.02 2.656 1.723 1.364 5.743 1.005 6.82-.144 1.579 1.579.43 2.081-1.15zM435.854 505.086c.79 5.886 4.522 6.82 6.891 6.173-2.153-1.005-4.235-3.445-4.45-4.163.79 1.22 3.517 3.158 5.814 3.517 0 0 .072 0 .143-.072l.646-.646c-2.368-.574-5.096-3.66-5.24-4.45.79 1.22 3.518 3.23 5.887 3.517.143-.215.215-.502.358-.718-2.368-.574-5.024-3.66-5.24-4.45.718 1.148 3.303 3.015 5.528 3.445.861-3.804-1.149-8.542-1.364-10.192l-9.044 8.183zM442.745 484.27c.646.574 4.45 9.977 4.881 18.878.503-1.723 1.149-5.24.646-8.47.718 1.723.861 5.025.861 6.89.216-.214.36-.43.575-.645.43-1.866.79-4.738.43-7.393.646 1.507.79 4.235.862 6.173.359-.36.718-.646 1.076-1.005.288-1.795.503-4.092.144-6.317.574 1.292.79 3.517.861 5.384.431-.36.79-.718 1.149-1.005.215-1.723.359-3.733 0-5.67.502 1.148.79 3.157.861 4.952.503-.359.934-.718 1.364-1.005 0-1.507 0-3.086-.359-4.666.503 1.005.862 2.584 1.077 4.164.359-.216.718-.431 1.005-.575 0-1.866.646-10.336 2.943-14.284 2.297-3.517 5.025-7.968 2.656-14.14-3.804 4.234-6.676 13.422-21.104 18.878zM445.473 387.08c.287.071.574.143.933.143 5.168-.287 6.962-6.245 12.561-6.675v-3.159c-2.44 2.225-9.905 4.02-12.059 4.307-2.727.359-3.66 1.292-3.732 2.297 0 .287.071.646.215 1.005.933-.718 1.866-1.364 3.517-1.58-1.435.503-2.512 1.652-3.086 2.37.215.287.43.574.717.79.718-.79 2.44-2.01 3.733-2.154-1.148.574-2.225 1.794-2.8 2.656zM458.967 373.944c0-3.159-4.952-2.369-5.814-2.082v6.389s5.886-1.436 5.814-4.307M477.128 385.07c0-1.149-2.513-3.159-3.446-3.159.503 2.082-.502 4.235-.79 4.523 0 0 4.236-.288 4.236-1.364M400.036 583.685c-4.02-2.153-8.04-4.45-11.987-6.962 4.02 2.512 8.039 4.809 11.987 6.962M370.104 564.376a198 198 0 0 1-17.587-15.073c5.815 5.527 11.7 10.48 17.587 15.073M348.067 422.754c-1.58 1.58 1.005 4.02 1.005 4.02-1.148.718-1.005 5.67 1.005 5.814 2.01.359 2.943-1.794 2.8-3.374.789.646 3.517 1.939 4.952 2.154-3.948.287-6.388 2.871-5.096 4.091 1.22-2.943 8.47-2.081 8.47-5.383-7.752-.933-11.7-5.599-13.064-7.394zM347.493 328.148" style="fill:#fff" transform="translate(-123.252 -50)"/><path d="M291.576 364.756c.503 31.87 6.963 75.943 32.014 119.945 19.596 34.741 44.647 60.94 76.446 79.89 31.798-18.95 56.85-45.22 76.446-79.89 24.98-44.074 31.511-88.147 32.014-119.945-32.086-16.366-69.412-24.98-108.46-24.98-39.049 0-76.374 8.614-108.46 24.98m115.35 4.522c1.006.215 6.676.215 6.676.215l.36 2.226c1.148.574 7.967 3.158 9.905 4.163 1.65.79 4.522.143 6.388 1.794 0 .072-.861 2.297-.861 2.297.79.287 2.225.503 3.589 3.805s3.876 5.598 5.384 6.1c1.507.503 3.373.934 3.589 1.795l-2.513 2.8 5.24 5.168-1.507 2.584c.072.861.287 4.81 1.076 5.886.79 1.005 1.939.861 2.297 2.512.144.79-.143 1.364-.861 1.58-.718.287-2.871.86-2.871 1.22 0 .359 2.8 3.589 2.871 3.876-.79.861-4.379 1.579-5.814 1.723.215 2.081 1.435 5.168 2.297 5.957.861.79-1.508 2.01-4.666.79.072.718.43 1.364.718 2.081 1.65.36 5.455.646 7.896-1.722 3.015-2.728 5.168-10.337 2.87-18.089-.717-2.369-5.67-19.596-6.531-21.031-.933-.934-1.077-1.867-1.149-2.8-.143-1.58 1.22-3.374 4.45-3.876s5.671-1.436 5.671-1.436v-8.398c2.297-.43 8.83-1.794 9.045 3.517v6.604c1.148 0 5.024.359 5.096 3.66.144 2.729-2.656 3.231-4.235 3.375-1.65.143-6.747 0-6.604 3.086.144 1.507 2.297 1.651 2.872 1.651 1.938 0 3.876-1.436 5.168-4.522l7.752-1.005s1.507-1.507 1.507-3.302c.144-1.507-.717-2.656-.43-3.158.359-.503 1.22-.43 2.081-.144.79.36 5.025 2.44 4.81 4.881-.216 2.44-10.983 24.836-13.639 34.814-.646 2.368-1.722 9.403-5.742 12.992-3.015 2.368-10.05 4.81-11.413 5.168-1.364.287-1.938.215-3.015 0 .79 1.364 1.866 3.23 2.728 4.235 2.799 3.158 8.326 3.517 13.494 6.604 2.082 1.364 3.374 3.015 3.374 5.455s.215 9.403.215 9.403c1.22 1.508 2.154 4.092 1.723 7.68-.43 4.092-3.086 7.825-4.163 9.547-1.58 2.8-2.297 9.547-2.44 13.567-1.939 1.795-8.399 5.527-11.557 11.628-.216 1.58-1.795 7.107-7.035 7.035-5.24-.144-6.819-6.102-6.962-7.824 0-.503.215-.933.43-1.22.503-.431 9.978-9.332 9.978-9.332-.215-2.01-2.225-8.47-3.661-11.126 1.364-.933 10.839-3.804 15.361-10.839-.287-3.086-.933-6.962-2.943-9.618-2.082-2.656-9.331-2.226-13.136-7.537-3.66-5.025-2.44-9.906-6.604-16.797-.574 0-1.148-.287-1.507-.646-.646 1.436-.646 2.369-.646 2.8-.144 1.435 0 2.081.79 3.373s1.148 2.8 1.363 3.59c-1.076.286-5.383.43-5.67.43s2.943 3.804 3.732 4.81c.718 1.004-.143 1.22-.502 1.291-.359.072-3.733.574-3.733.574.287 2.441 3.733 16.51 12.49 23.903.574.574.072.79 0 .933-.143.144-9.116 4.594-12.92 8.83-10.48 9.905-20.242 34.167-41.776 27.778-3.733-22.61-15.361-15.72-18.52-28.855-11.915 3.014-24.046 1.363-25.266-6.102-.574-4.163 2.512-5.24 0-11.413-1.58 0-5.599.144-6.03-2.727-.359-2.297 0-2.728.718-4.379-1.077-.503-3.158-2.01-3.158-4.163 0-2.871 3.732-3.23 3.804-5.384.072-2.153 0-2.153 0-2.153h-4.378c-1.149-.072-3.518-.646-3.661-3.948-.072-1.65.79-3.733 1.507-5.025 1.149-2.44 9.26-17.299 9.403-17.586.144-.359.144-1.364 0-1.866-.287-.574-.933-2.153-1.005-3.804s1.22-6.317 1.651-7.322c.287-.79-.071-1.507-.287-1.794-.359-.503-.79-2.082-.718-3.302 0-.79.862-2.154.718-3.733-.215-1.794.503-2.871 1.651-3.876.79-.646.718-1.65.718-1.866 0-.718-.43-1.005-.43-1.795s.43-3.23 1.148-3.876c1.435-1.436 3.517-1.65 3.732-3.589.072-.79.575-2.943 1.651-4.594 1.005-1.65 2.44-2.584 2.44-4.45v-1.938h2.944c.646-1.077 2.584-2.8 4.809-3.733 2.225-.861 4.953-1.938 6.03-2.728 1.148-.79 3.158-3.732 3.158-3.732l3.158 1.58c2.728-1.365 10.121-.79 11.772-5.313.144-.646 1.507-1.076 1.723.36a100 100 0 0 1 .287 2.727c1.364-.79 7.393-1.58 13.925.646 2.225.502 2.01-.287 3.158-.144 1.149.072 2.513 2.297 5.169 2.584zM400.036 323.123" style="fill:#fff" transform="translate(-123.252 -50)"/><path d="M282.388 359.229c-.215 46.37 11.198 91.232 33.234 129.994 21.32 37.828 49.026 65.966 84.414 85.992 35.46-20.026 63.095-48.164 84.413-85.992 22.037-38.762 33.45-83.624 33.234-129.994-34.526-18.735-75.082-28.64-117.647-28.64s-83.122 9.905-117.648 28.64m228.548 4.02v1.507c-.502 30.148-6.532 75.656-32.3 121.165-19.884 35.172-45.15 61.587-77.38 80.824l-1.22.718-1.22-.718c-32.23-19.237-57.496-45.652-77.38-80.824-25.84-45.509-31.798-91.017-32.3-121.165v-1.507l1.363-.718c32.445-16.51 70.273-25.267 109.609-25.267s77.163 8.757 109.608 25.267l1.364.717zM364.29 325.42a337 337 0 0 1 17.514-1.722c-5.958.359-11.772.933-17.515 1.722" style="fill:#fff" transform="translate(-123.252 -50)"/><path d="M329.327 278.148c-16.437-3.23-33.952-5.025-52.543-5.025-6.173 0-12.274.216-18.232.575s-11.772.933-17.514 1.722a241 241 0 0 0-16.797 2.728c-27.348 5.383-51.61 14.787-72.498 26.702-.861 42.063 7.394 90.945 34.096 138.105 13.207 23.329 27.922 41.704 43.355 56.42 5.814 5.526 11.7 10.48 17.586 15.073 5.886 4.594 11.916 8.685 17.945 12.346 4.02 2.513 8.04 4.81 11.988 6.963 4.02-2.153 8.039-4.45 11.987-6.963q3.015-1.83 6.03-3.876c16.006-10.623 31.798-24.118 46.585-41.776 9.26-11.054 18.088-23.687 26.343-38.259 26.774-47.16 34.957-96.041 34.096-138.105-20.888-11.915-45.15-21.318-72.498-26.702zm31.87 161.075c-21.318 37.828-49.025 65.966-84.413 85.992-35.46-20.026-63.094-48.164-84.413-85.992-22.037-38.762-33.45-83.624-33.234-129.994 34.526-18.735 75.082-28.64 117.647-28.64s83.122 9.905 117.648 28.64c.215 46.37-11.198 91.233-33.234 129.994"/><path d="m167.176 312.53-1.364.719v1.507c.503 30.148 6.532 75.656 32.301 121.165 19.883 35.172 45.15 61.587 77.38 80.824l1.22.718 1.22-.718c32.23-19.237 57.496-45.652 77.379-80.824 25.84-45.509 31.798-91.017 32.3-121.165v-1.507l-1.363-.718c-32.445-16.51-70.273-25.267-109.608-25.267s-77.164 8.757-109.608 25.267zM353.23 434.7c-19.596 34.742-44.647 60.942-76.446 79.892-31.798-18.95-56.85-45.222-76.446-79.891-24.98-44.073-31.511-88.146-32.014-119.945 32.086-16.366 69.412-24.98 108.46-24.98 39.049 0 76.374 8.614 108.46 24.98-.502 31.87-6.963 75.943-32.014 119.945z"/><path d="M340.669 354.091c-2.441-3.445-1.005-9.044-1.005-9.044-1.939 2.656-1.149 8.542 1.004 9.044M345.119 341.243c-1.077-.36-3.374-.79-4.307 1.794 1.292-1.866 2.44-1.722 4.307-1.794M238.884 361.557c-8.254-4.523-13.35-3.087-17.801-2.943 4.235.215 10.982 1.148 16.007 4.378 5.742 3.733 17.012 3.015 19.668.933-2.01.575-12.49 1.436-17.802-2.297zM289.059 373.4c-5.025-5.742-13.998-9.546-22.396-11.27 5.527 1.939 17.443 7.179 21.175 12.203 1.292 1.795 2.513 1.436 8.04 1.651s10.982 2.8 12.202 4.666c-.646-3.302-5.886-4.737-9.188-7.25-5.67-4.235-11.125-7.106-17.73-7.967 8.973 2.656 16.51 8.757 17.372 9.762-.79-.431-3.805-.862-5.671-.79-1.794 0-3.23-.359-3.804-1.005z"/><path d="M275.349 316.838c-6.604-2.226-12.562-1.508-13.926-.647 0 0-.071-1.579-.287-2.727-.287-1.364-1.579-1.005-1.722-.359-1.651 4.45-9.045 3.876-11.772 5.312l-3.159-1.58s-2.081 2.943-3.158 3.733-3.804 1.795-6.03 2.728c-2.225.933-4.234 2.656-4.809 3.732h-2.943v1.938c0 1.938-1.364 2.872-2.44 4.45-1.077 1.652-1.58 3.733-1.651 4.595-.215 1.938-2.297 2.153-3.733 3.589-.718.646-1.148 3.086-1.148 3.876s.502 1.005.43 1.794c0 .216.072 1.22-.717 1.867-1.077 1.004-1.795 2.081-1.651 3.876.215 1.507-.646 2.87-.718 3.732-.144 1.22.359 2.8.718 3.302.143.287.574 1.005.287 1.795-.36 1.005-1.651 5.67-1.651 7.321s.646 3.23 1.005 3.805c.215.43.215 1.507 0 1.866-.144.287-8.255 15.146-9.403 17.586-.646 1.292-1.58 3.374-1.508 5.025.144 3.302 2.44 3.876 3.661 3.948h4.379v2.153c-.072 2.153-3.805 2.512-3.805 5.383 0 2.226 2.082 3.661 3.159 4.164-.718 1.65-1.077 2.081-.718 4.378.43 2.871 4.45 2.728 6.03 2.728 2.512 6.101-.575 7.25 0 11.413 1.22 7.465 13.35 9.116 25.266 6.101 3.23 13.136 14.787 6.245 18.52 28.856 21.533 6.388 31.223-17.874 41.775-27.78 3.805-4.162 12.777-8.613 12.92-8.828.144-.144.647-.359 0-.933-8.757-7.393-12.202-21.534-12.49-23.903 0 0 3.375-.43 3.733-.574.36 0 1.22-.287.503-1.292-.861-1.005-4.092-4.81-3.733-4.81.36 0 4.594-.071 5.67-.43-.143-.79-.573-2.297-1.363-3.59-.718-1.291-.861-1.937-.79-3.373 0-.43 0-1.292.646-2.8.36.432.934.647 1.508.647 4.235 6.963 3.015 11.772 6.604 16.796 3.804 5.312 11.054 4.81 13.135 7.537 2.082 2.728 2.728 6.604 2.943 9.619-4.522 6.963-13.997 9.834-15.36 10.839 1.363 2.656 3.445 9.116 3.66 11.126 0 0-9.403 8.829-9.977 9.331-.287.287-.503.718-.43 1.22.143 1.795 1.794 7.753 6.962 7.824 5.24.072 6.819-5.383 7.034-7.034 3.158-6.101 9.547-9.906 11.557-11.628.143-4.02.79-10.767 2.44-13.567 1.077-1.723 3.661-5.455 4.163-9.547.431-3.517-.43-6.173-1.722-7.68 0 0-.144-6.963-.216-9.403 0-2.44-1.292-4.092-3.373-5.456-5.168-3.014-10.767-3.445-13.495-6.603-.861-1.005-1.938-2.872-2.728-4.235 1.005.215 1.651.287 3.015 0 1.364-.36 8.399-2.728 11.413-5.169 4.02-3.589 5.097-10.695 5.743-12.992 2.656-10.049 13.423-32.444 13.638-34.813.215-2.44-4.02-4.522-4.81-4.881-.789-.36-1.722-.36-2.08.143-.288.503.502 1.58.43 3.159 0 1.794-1.508 3.302-1.508 3.302l-7.752 1.004c-1.22 3.087-3.23 4.523-5.168 4.523-.574 0-2.8-.144-2.871-1.651-.144-3.159 4.953-2.943 6.604-3.087 1.65-.143 4.378-.646 4.235-3.374-.072-3.301-3.948-3.66-5.097-3.66v-6.604c-.215-5.312-6.819-3.948-9.116-3.517v8.398s-2.369.933-5.599 1.436-4.594 2.225-4.45 3.876c.143.933.287 1.866 1.148 2.8.862 1.435 5.886 18.662 6.532 21.03 2.297 7.753.144 15.362-2.87 18.09-2.441 2.368-6.246 2.08-7.897 1.722-.359-.646-.646-1.292-.717-2.082 3.158 1.22 5.527 0 4.665-.79-.933-.789-2.081-3.875-2.297-5.957 1.436-.072 5.025-.79 5.814-1.723-.143-.287-2.87-3.517-2.87-3.876s2.153-1.005 2.87-1.22c.79-.287 1.005-.79.862-1.58-.359-1.578-1.436-1.507-2.297-2.511s-1.005-4.953-1.077-5.886l1.508-2.585-5.24-5.168 2.512-2.8c-.215-.86-2.082-1.291-3.589-1.794-1.507-.502-4.02-2.8-5.384-6.101-1.363-3.302-2.799-3.517-3.589-3.804 0 0 .862-2.154.862-2.297-1.866-1.651-4.738-1.005-6.389-1.795-1.938-1.005-8.828-3.589-9.905-4.163l-.36-2.225s-5.742 0-6.675-.216c-2.656-.287-4.02-2.512-5.168-2.584-1.148-.071-.933.646-3.158.144zM229.48 385.53c-1.292-1.292 1.149-3.804 5.097-4.091-1.508-.216-4.164-1.508-4.953-2.154.143 1.58-.79 3.733-2.8 3.374-2.01-.144-2.081-5.097-1.005-5.814 0 0-2.655-2.44-1.004-4.02 1.363 1.794 5.383 6.46 13.064 7.393 0 3.302-7.178 2.44-8.47 5.384zm93.53 71.565c-2.226-.43-4.81-2.297-5.528-3.446.144.79 2.872 3.877 5.24 4.45a3.4 3.4 0 0 1-.359.719c-2.297-.287-5.096-2.297-5.886-3.518.144.79 2.872 3.877 5.24 4.45l-.646.647s-.071 0-.143.072c-2.297-.36-5.097-2.297-5.814-3.518.143.718 2.297 3.23 4.45 4.164-2.369.646-6.101-.216-6.89-6.173l9.043-8.183c.144 1.579 2.154 6.316 1.364 10.192zm14.93-27.564c-2.369 3.948-2.943 12.418-2.943 14.285-.287.143-.646.359-1.005.574-.215-1.58-.502-3.158-1.077-4.163.36 1.579.431 3.158.36 4.665-.432.288-.862.646-1.365 1.005-.071-1.722-.287-3.732-.861-4.953.287 1.939.144 3.948 0 5.671-.359.359-.79.646-1.149 1.005 0-1.866-.287-4.091-.86-5.383.358 2.153.143 4.45-.145 6.316-.358.359-.717.646-1.076 1.005 0-1.938-.216-4.666-.862-6.173.36 2.656 0 5.527-.43 7.393-.216.216-.431.43-.575.646 0-1.866-.143-5.168-.86-6.89.43 3.23-.145 6.747-.647 8.47-.43-8.901-4.307-18.305-4.88-18.879 14.427-5.455 17.298-14.571 21.102-18.878 2.37 6.173-.358 10.695-2.655 14.14zm12.49-97.62c.933 0 3.445 2.081 3.445 3.158s-4.235 1.364-4.235 1.364c.287-.288 1.292-2.441.79-4.523m-20.53-10.05c.862-.287 5.743-1.077 5.815 2.082.072 2.87-5.814 4.306-5.814 4.306zm-9.26 13.997c.575-.717 1.652-1.866 3.087-2.368-1.65.215-2.655.79-3.517 1.579a2.8 2.8 0 0 1-.215-1.005c0-1.005.933-1.938 3.733-2.297 2.081-.287 9.618-2.082 12.059-4.307v3.158c-5.6.431-7.394 6.317-12.562 6.676-.359 0-.646-.072-.933-.144.574-.861 1.65-2.081 2.8-2.656-1.22.216-3.015 1.364-3.733 2.154-.287-.216-.503-.503-.718-.79zm7.179 22.468c-.43-1.436-5.742-19.596-5.742-19.596 7.106.86 8.613-6.532 14.786-6.532.933 0 3.876-.216 3.876 2.01 0 2.224-3.517 1.866-6.388 2.153-2.943.287-4.522 2.44-4.522 3.732s.359 1.795 1.005 2.44c2.153 4.738 1.148 17.946.574 20.315 1.723-3.015 2.44-13.567.79-19.381 5.527 1.723 8.326-3.158 8.828-4.45 0 0 8.255-.646 11.414-1.005 0 0-11.342 27.133-12.275 31.583-1.005 4.45-1.58 6.46-3.302 9.619-2.01 3.589-8.613 5.742-10.767 6.675s-5.24.718-7.034-.646c-.646-.502-1.651-1.148-2.584-1.723.072-.43.143-.79.215-1.148 6.245 1.723 11.198-.072 13.495-2.512-3.015 2.368-9.69 2.943-13.567 1.579 0-.216 0-.36-.072-.574 8.542.43 12.418-2.585 12.993-4.02-3.087 3.374-10.624 3.517-13.351 3.015a.55.55 0 0 0-.144-.36c15.504.862 12.346-19.595 11.7-21.246zm-9.331 32.731c.143-1.435-.288-3.445-.934-4.953.288.216.575.36.862.575 1.579 2.01 3.517 4.88 4.45 6.244 3.087 4.164 10.767 5.456 13.782 7.178 2.082 1.005 2.728 2.943 2.943 4.38 0 0 .359 6.675.215 8.9l-1.507 2.153c-.144-1.364-.43-2.656-.861-3.517.287 1.507.287 3.015.287 4.45l-.79 1.149c-.072-1.938-.359-4.45-1.005-5.814.503 2.727.144 5.742-.215 7.608l-.503.718c0-.718-.072-1.507 0-1.722-.072-2.297-.287-5.528-1.292-7.753.36 2.154.36 4.45.144 6.389-2.297-9.619-11.27-6.963-15.361-11.988-3.23-3.947-2.44-9.69-6.532-16.437.359-.144.79-.287 1.148-.574 1.077 4.737 4.523 11.197 7.896 13.064-4.45-3.805-6.46-11.055-6.962-13.71.287-.216.502-.431.717-.718.933.861 2.8 3.158 3.302 6.819-.215-2.943-.215-4.881-2.8-7.393.216-.288.432-.575.575-.862.718.718 2.297 2.512 2.656 5.814zM311.885 379c.359-.43 3.66-.287 3.445 3.517-.287 3.733-5.024 5.6-5.527 4.45-.502-1.507 2.297-1.722 2.728-4.163.143-2.44-1.292-3.158-.646-3.732zm-31.368-18.735c-1.22.575-3.661.575-4.307.575 2.656 1.292 6.101 2.01 7.824 2.368 7.968 1.939 13.997 8.758 17.299 10.624 2.584 1.723 8.829 3.517 8.973 8.183 0 1.22-1.364 1.435-1.795 1.435-3.374-.143-3.374-2.727-6.245-2.655-4.45.287-8.47-2.154-11.413-1.005 3.015.143 4.092 1.292 7.178 2.297 2.728 1.22 4.953-.646 6.46 1.579-1.65.79-5.742 1.005-7.608.861-3.661-.143-4.307-1.722-5.528-2.297-1.579-.717-2.943-.359-3.301.503-.503 1.364-2.297 3.517-3.733 4.378-1.436.79-3.66 2.01-4.738 4.666-1.148 2.656-3.445 8.111-7.536 7.824-4.092-.287-4.666-3.23-4.594-3.517.502.718 1.148 1.938 4.235 2.01 3.23 0 5.311-4.666 6.819-8.757 1.507-2.728 3.302-2.943 5.168-4.307 1.794-1.364 3.374-4.594 2.8-8.183-.36-2.297-3.805-8.111-11.198-6.46-4.738 1.435-8.04 5.24-8.614 6.173-4.091 0-11.987-3.446-12.633-3.805 4.163-.287 6.245-1.363 6.245-1.363-2.728-.288-12.06.071-17.802-1.508s-12.633-5.168-14.428-5.814c-3.014-1.22-9.546-1.866-9.475-6.101.072-2.154.862-2.728.862-2.728l4.45.359s-4.091-2.01-4.378-2.8c-.503-.717.143-2.368.287-2.655.143-.216.43-1.58 2.153-1.436 1.58.072 2.44.359 2.656.43-.43-.286-3.59-2.87-3.733-3.66-.43-.43-.574-2.369.933-3.086.79-.36 3.661-1.795 3.948-3.59.144-.79.718-.717 1.077-.574 1.795.144 25.482 10.337 29.789 13.926s-18.663-3.087-22.97-4.523c2.082 1.795 18.735 7.61 26.487 7.896 2.154.072 6.101-.502 9.834 1.436 3.158 1.65 7.537 2.8 10.48 3.015zm-1.149 15.074c-3.948-2.512-10.623 6.604-10.623 4.02.359-2.656 7.68-8.111 11.628-5.67 3.517 2.153 2.584 6.029 2.082 7.321-.574 1.58-2.297 2.656-2.082 1.149.287-1.077 1.651-5.169-1.005-6.82zm-4.378 6.03c.072-1.005 3.517-1.364 3.517 1.794s-3.087 2.943-3.445 4.092c-.718 2.225-.431 4.953-3.59 4.378-2.225-.502-2.153-3.158-1.004-3.301 1.579-.144.359 1.507 1.579 1.435 1.22 0 .574-3.086 1.65-4.091s2.872-1.58 2.8-2.656c0-1.005-1.58-.79-1.58-1.795z"/></svg>