<svg xmlns="http://www.w3.org/2000/svg" width="547.93103" height="700" viewBox="0 0 547.93103 700"><path d="M651.436 77.617C615.382 67.319 534.72 50 399.996 50S184.61 67.32 148.556 77.617a31.04 31.04 0 0 0-22.521 29.855v374.18c0 98.606 110.351 197.22 261.145 265.582a31.1 31.1 0 0 0 25.64 0c150.794-68.363 261.146-166.968 261.146-265.582v-374.18a31.04 31.04 0 0 0-22.522-29.855z" style="fill:#1b2738" transform="translate(-126.035 -50)"/><path d="M600.993 461.592c-5.457 3.713-11.434 2.248-14.685-3.218-2.667-4.503-.724-10.347 4.355-13.047 5.21-2.774 10.413-.066 11.334 6.832-2.173-1.235-3.959-1.984-5.424-3.136-3.128-2.47-5.474-1.45-7.59 1.309-2.247 2.922-1.942 5.408.947 7.754 3.359 2.74 7.968 2.65 11.606-.223 3.705-2.922 4.709-6.684 2.873-10.775-3.078-6.848-12.759-9.705-19.978-5.77a9.946 9.946 0 0 1 0 0c-.337.181-.65.395-.963.61-.123.081-.247.172-.37.263h-.008.008c-1.046.773-2.025 1.679-3.046 2.494v.115c-.033-.017-.066-.033-.099-.058-3.424-.749-6.857-1.49-10.28-2.239 6.642 3.005 5.201 9.829 7.045 15.32 1.153 3.44 3.705 6.428 5.779 9.523.79 1.177 2.008 2.058 2.733 2.782-5.976 1.968-11.813 3.87-17.632 5.812-5.663 1.893-11.425 2.305-16.76 1.374a181 181 0 0 1-3.342 5.91l.692.124c-.156.601-.214 1.062-.28 1.062-.395 0-.774.025-1.152.066a171 171 0 0 1-10.273 15.154c13.17-3.26 26.143-7.277 38.82-12.364 6.519-2.617 12.783-5.869 19.17-8.816.972-.444 3.425-1.613 4.931-2.288 1.186-.963 2.388-1.943 3.713-3.021 6.1 2.181 5.72-5.54 10.948-7.573-1.762 3.26-2.544 6.1-4.371 7.836-7.417 7.046-15.475 13.261-24.505 18.068-.643.37-1.367.725-2.124 1.07-.601.305-1.194.618-1.803.906-.271.132-.576.181-.905.206-6.322 2.354-14.323 3.992-17.311 4.963-6.865 2.24-14.257 4.651-21.64 7.063l.296 1.515c6.132 1.012 12.339.954 18.389-.65 6.075-1.622 11.985-3.837 18.455-5.952-.922 1.704-1.696 3.128-2.47 4.56.14.23.28.461.428.683 1.408-.798 2.807-1.605 4.215-2.395 16.957-9.598 31.65-22.283 46.895-34.227.033-.024.074-.057.107-.082v-21.13c-9.318 3.473-18.307 7.836-26.777 13.59zM181.227 465.313c6.124-5.31 12.578-10.347 19.401-14.693 3.59-2.28 8.249-3.639 12.52-3.902 6.29-.395 7.335 2.387 4.454 8.7-.922 2.026-2.708 3.73-4.322 5.351-8.371 8.388-17.047 16.364-29.287 19.311.46 1.466.765 2.42 1.078 3.433-1.95.988-3.852 1.942-5.762 2.906.099.37.19.732.288 1.094 8.33-1.794 17.023-1.835 24.826-6.124 1.416 2.223 2.494 4.8 4.338 6.552 1.729 1.647 4.28 2.429 6.84 3.219-4.675-5.54-6.09-11.475-3.16-18.447.724 1.902 1.523 3.77 2.165 5.704 3.317 10.018 10.824 15.031 20.71 16.562 7.993 1.243 14.982-.765 20.44-6.214-.989-1.548-1.96-3.12-2.907-4.7-1.885 1.72-4.272 2.79-7.087 3.037-5.318.469-10.898.395-16.093-.733-8.453-1.836-13.582-11.78-9.77-20.01 3.836-8.273 8.635-15.962 16.315-19.872-1.4-4.585-2.602-9.219-3.614-13.894q-4.397.173-8.783.444c-9.73.618-19.5 3.17-28.893 6.026-7.606 2.313-15.162 4.733-22.859 6.453v13.327c.1.016.198.041.297.058q-.148.145-.297.304v14.8a133 133 0 0 1 9.154-8.7z" style="fill:#000a15" transform="translate(-126.035 -50)"/><path d="m598.935 449.887-.074-.09a1 1 0 0 0 .074.09M599.01 449.821c.23.041.46.09.715.132.182.033.37.066.577.107.04 0 .082.017.123.025-.14-.025-.263-.05-.395-.074-.099-.017-.214-.041-.305-.058-.246-.05-.485-.09-.716-.132-.05-.008-.107-.016-.156-.033l.148.025z" style="fill:#225877" transform="translate(-126.035 -50)"/><path d="M374.149 579.163c7.976-1.967 16.356-2.255 23.756-6.61 1.432 2.107 2.535 4.552 4.371 6.199 1.712 1.539 4.198 2.214 6.684 2.905-3.811-4.264-5.532-8.84-4.593-14.084-1.457.033-2.914.058-4.38.058-4.519 0-9.005-.181-13.458-.527-2.576 2.23-5.342 3.943-8.363 4.766.486 1.4.807 2.313 1.136 3.284l-5.474 2.964c.099.354.206.7.305 1.053zM497.482 554.93c3.556-.824 6.453-2.865 6.939-6.586.288-2.214-.33-4.922-1.515-6.79-.518-.824-3.613-.577-5.26 0-2.724.954-2.724 3.473-2.288 5.959.181.996.164 2.033.239 3.111-2.923-.551-5.878-3.457-8.001-7.161q-1.756 1.05-3.524 2.05a90 90 0 0 0 3.038 5.646c2.107 3.614 6.14 4.75 10.363 3.779zm1.58-11.212c.864.362 2.396.634 2.47 1.111.28 1.984.115 4.026.115 6.05-.379.025-.757.05-1.136.066-.724-1.613-1.597-3.177-2.107-4.856-.198-.667.411-1.572.658-2.371M294.649 531.445a153 153 0 0 1-3.391-2.725 147 147 0 0 1-16.266-5.992c4.75 1.44 9.507 2.88 14.257 4.321-.568-.477-1.128-.963-1.696-1.448-9.392-3.655-18.776-7.318-28.168-10.973-.198.403-.395.798-.593 1.202 1.902 1.276 3.713 2.733 5.73 3.81 9.688 5.179 19.739 9.023 30.127 11.797zM559.984 551.95s-.017.016-.033.024q.074-.059.148-.107c-.017.008-.025.017-.041.025l-.083.058z" style="fill:#000a15" transform="translate(-126.035 -50)"/><path d="M549.645 535.511c-11.022-5.704-22.53-9.713-34.367-12.627a174 174 0 0 1-9.787 8.29c7.713 1.25 15.294 3.127 22.81 4.197-2.865 2.56-6.174 4.791-8.364 7.829-.872 1.21.75 4.214 1.466 7.424 1.136-1.58 1.646-2.107 1.942-2.74 4.009-8.504 15.006-11.187 22.62-5.532 2.461 1.827 1.219 3.753-.329 4.823-3.498 2.429-7.12 4.906-11.047 6.43-5.21 2.016-10.767 3.127-16.158 4.666-1.284.363-2.536.873-3.803 1.317.04.503.074 1.005.115 1.507 5.178.436 10.355.864 16.15 1.35-.831 1.317-1.67 3.095-2.905 4.519-6.454 7.425-15.286 9.63-24.506 10.742-4.074.494-8.206.494-12.528.733 6.906 4.09 20.982 4.51 31.535.988 10.602-3.54 17.722-11.664 25.518-20.011.609 3.473 1.127 6.37 1.58 8.972 2.922-4.7 6.495-10.454 9.376-15.088h-.017c.206-.42.428-.758.675-1.021l.017-.016c.107-.116.214-.214.329-.305.025-.017.05-.041.082-.058.1-.066.19-.123.297-.173l.115-.049a2 2 0 0 1 .296-.09c.041-.008.083-.025.132-.033.107-.017.214-.025.33-.025h.131c.321.016.659.082 1.029.206.305.098.617.23.955.395 9.458 4.741 19.105 9.112 28.448 14.043.156.082.32.148.477.23a242 242 0 0 0 6.017-7.877c-16.8-6.38-32.687-14.768-48.623-23.024zm-38.334 44.097c18.364-4.775 28.407-20.308 41.997-32.342-.115 7.293-32.35 31.98-41.997 32.342M559.737 552.18" style="fill:#000a15" transform="translate(-126.035 -50)"/><path d="M559.638 552.27s-.025.034-.033.042c.041-.05.09-.09.132-.14-.025.025-.058.05-.083.074l-.016.017zM448.1 567.73c-1.44 5.169-5.061 8.544-10.181 9.145-5.112.609-10.496.691-15.533-.247-3.647-.683-6.75-4.651-8.759-9.557a167 167 0 0 1-6.75.395q.398.951.758 1.926c3.482 9.565 10.865 14.175 20.43 15.377 9.113 1.136 16.768-2 22.102-9.746 2.988-4.347 3.556-9.26 2.272-14.282a27 27 0 0 0-.354-1.226c-1.317.42-2.65.83-3.984 1.218.452 2.683.485 5.268 0 6.997zM561.218 551.53h-.016.14zM589.65 569.631c-.041 0-.09 0-.132-.008-6.527-.436-12.495-2.412-17.632-7.178-2.551 5.227 2.593 7.919 2.906 12.051-4.536 1.786-8.668 4.083-11.022 9.178 5.844-1.25 11.392-2.56 16.908-3.687a280 280 0 0 0 5.16-5.845c-1.818.107-3.637.214-5.457.33-.016-.297-.04-.593-.057-.89 2.074-.14 4.157-.222 6.24-.28a278 278 0 0 0 3.078-3.67zM560.766 551.58h-.025c.05-.017.107-.025.164-.034h-.008c-.04 0-.082.017-.131.033zM560.354 551.72s-.016.007-.025.016c.05-.025.107-.05.157-.074h-.017l-.115.049v.008zM559.383 552.608c-.033.05-.074.09-.107.148q.048-.073.107-.148M302.65 585.888c14.356-2.535 27.905-7.721 40.581-15.03 1.178-.676 2.47-1.17 4.026-1.515-3.03 5.844-6.166 11.59.049 17.006 2.346 2.041 7.45 1.194 10.067-1.309-.724-.164-1.317-.329-1.926-.428-3.696-.576-4.972-2.98-3.31-6.346 2.66-5.375 5.87-10.34 9.484-14.982a171 171 0 0 1-13.994-3.836c-13.434 8.783-28.432 13.978-44.804 15.747-11.039 1.194-21.188-2.19-30.786-7.408-4.346-2.363-8.643-4.84-13.59-7.614 1.193 7.745 7.12 11.36 11.894 16.627-10.371.84-20.052.28-28.612-4.387-8.388-4.568-16.019-10.512-24.152-15.97 1.359 7.977 9.17 10.998 14.364 16.382-.815.197-1.136.386-1.292.296-10.1-5.524-20.266-11.014-27.55-20.283-4.174-5.309-6.265-11.367-5.179-18.307.873-5.548 3.836-9.45 8.932-11.483 7.252-2.897 14.397-2.42 20.924 2.067 6.075 4.165 6.931 11.343 1.91 17.977.304-1.234.436-1.81.593-2.379 2.378-8.89-.157-13.927-8.775-17.187-1.004-.379-2.354-.585-3.318-.239-7.647 2.758-12.207 11.244-9.902 18.184 2.478 7.457 10.619 11.417 18.784 9.128 13.376-3.745 16.356-19.508 5.705-30.135-9.714-9.689-26.037-8.635-36.087 2.156-4.528 4.865-7.08 11.187-7.178 17.476 7.095 12.33 15.722 23.871 24.645 34.243 5.87 1.358 14.051 3.136 20.332 4.075l-.058 1.424c-5.367-.264-10.742-.42-16.109-.766a329 329 0 0 0 5.499 5.96c26.151 3.935 52.435 5.531 78.825.864zm-83.74-41.668c-3.374-.197-6.659-4.28-6.47-8.034.058-1.16.626-2.346 1.49-3.383.083 3.005 1.951 4.56 4.832 4.832 3.096.288 5.606-2.321 5.656-5.622 0-.14 0-.272-.008-.403 1.259 1.383 2.025 3.383 1.992 5.663-.05 3.926-3.565 7.186-7.5 6.956zM561.202 551.53c-.099 0-.206 0-.305.025.1-.017.198-.017.305-.025M560.33 551.736c-.075.04-.157.082-.231.131.074-.049.148-.098.23-.131M559.605 552.32c-.074.09-.148.19-.222.288.074-.099.14-.206.222-.288M399.971 621.49c.033-.058.066-.1.099-.165-.033.058-.066.107-.099.165M536.82 589.79c-9.63-.724-17.5 2.988-22.686 11.458-2.906 4.742-3.243 9.96-1.63 15.204 1.935 6.289 9.022 9.639 14.504 6.824 1.564-.807 2.659-2.544 3.968-3.852-.23-.396-.47-.782-.7-1.178-1.984.1-3.968.313-5.943.28-5.639-.09-8.882-4.173-7.647-9.68 1.243-5.532 4.856-9.285 10.207-10.199 5.334-.914 10.98-1.284 16.315-.56 4.799.65 8.766 3.902 10.832 8.141a428 428 0 0 0 3.952-3.556c-4.388-8.313-11.887-12.174-21.172-12.874zM399.379 622.214s.016-.025.032-.033l-.148.123c.017-.008.025-.016.041-.024.025-.025.058-.041.083-.066zM398.12 622.724c.106 0 .213-.016.312-.04-.099.024-.206.032-.313.04" style="fill:#000a15" transform="translate(-126.035 -50)"/><path d="M330.226 652.761c7.153-7.672 9.383-21.797 4.477-31.041-1.794-3.383-5.103-5.951-8.256-9.491 3.54 1.243 6.569 2.568 9.73 3.342 3.185.782 6.503 1.013 9.762 1.482.116-.544.231-1.095.346-1.638-5.35-1.573-10.7-3.145-16.06-4.717l.272-.955c7.129 1.786 14.323 3.367 21.386 5.4 20.545 5.927 39.848 15.006 59.217 23.896 20.16 9.252 41.536 13.27 63.416 15.17 4.667.404 9.326.709 13.993.915a602 602 0 0 0 17.575-11.623c-2.182.016-4.363.033-6.536.066-1.893-.025-8.71-.297-8.71-.297h.042c-3.787-.148-4.248-1.654-6.355-7.26-2.198-5.852-5.186-11.524-8.585-16.767-2.404-3.705-6.692-4.7-11.088-3.441-3.696 1.053-6.618 3.366-6.931 7.318-.19 2.354.61 5.177 1.943 7.095.584.84 3.827.42 5.523-.272 2.815-1.152 2.675-3.81 2.082-6.412-.238-1.045-.28-2.14-.42-3.276 6.043.84 12.685 11.096 12.57 19.023l-.107 1.506c-1.514.478-4.807 2.067-17.302.98h-.008c-9.705-.74-19.27-2.807-28.679-3.68 2.873-2.856 6.231-5.383 8.363-8.708.848-1.326-1.012-4.413-1.934-7.771-1.112 1.729-1.622 2.313-1.893 2.996-3.754 9.187-15.163 12.603-23.46 7.038-2.675-1.794-1.482-3.902.09-5.112 3.548-2.749 7.211-5.556 11.261-7.375 5.359-2.404 11.137-3.869 16.726-5.779 1.334-.452 2.618-1.053 3.919-1.588l-.198-1.59c-5.457-.18-10.923-.37-17.03-.575.806-1.433 1.588-3.359 2.814-4.931 6.38-8.182 15.541-10.973 25.164-12.635 4.256-.733 8.594-.955 13.113-1.433-7.466-3.96-22.266-3.663-33.165.618-10.948 4.297-17.986 13.244-25.74 22.472a2975 2975 0 0 0-2.14-9.392c-2.823 5.12-6.272 11.384-9.046 16.422h.016a4.5 4.5 0 0 1-.65 1.11s-.008.017-.017.017a3 3 0 0 1-.329.338c-.025.024-.058.04-.082.066a3 3 0 0 1-.297.197 1 1 0 0 1-.115.058c-.099.04-.197.082-.304.107-.042.016-.091.024-.132.04-.107.026-.23.034-.346.042-.041 0-.082.008-.132.008-.164 0-.329-.008-.51-.033.173.025.346.041.502.033-.337 0-.691-.05-1.087-.165a7.5 7.5 0 0 1-1.028-.37c-10.183-4.511-20.538-8.618-30.613-13.335-4.816-2.256-9.582-2.848-14.735-2.634-4.856.206-9.738-.1-14.61-.181l-.05-1.153c.831-.082 1.663-.247 2.494-.238q14.546.197 29.09.444c6.882.115 13.245 1.885 18.891 6.651 2.404-5.647-3.144-8.223-3.687-12.578 4.667-2.132 8.882-4.766 11.088-10.273-7.713 2.075-14.924 4.231-22.234 5.935-14.339 3.342-28.826 5.713-43.627 5.194-2.46-.09-5.013-.123-7.342-.823-18.834-5.622-37.552-3.811-56.172.84a477 477 0 0 0-19.509 5.31c2.47 2.205 4.98 4.403 7.549 6.6 12.108-4.222 24.727-6.65 37.733-7.547 1.416-.1 3.03.814 4.338 1.605 5.013 3.004 9.861 6.313 14.94 9.203 3.21 1.827 6.865 2.856 10.076 4.7 7.284 4.181 10.083 13.294 6.453 20.875-.724 1.514-2.288 2.617-3.457 3.918a68 68 0 0 0-1.02-.634c.057-1.621.057-3.243.18-4.856.354-4.758-2.346-7.442-7.095-7.005-5.688.518-10.051 5.614-9.475 11.49.395 4.001 1.737 7.442 4.149 10.052a539 539 0 0 0 6.437 4.082c5.894 1.976 10.627-.847 14.578-5.078zm134.173-27.14c-.065 1.178-1.308 1.935-2.428 1.573-.453-.14-.798-.305-.84-.527-.403-2.083-.337-4.247-.444-6.38.395-.04.79-.09 1.185-.131.848 1.663 1.852 3.276 2.47 5.021.05.14.066.288.057.445m-15.376-35.164c-19.032 6.009-28.753 22.94-42.393 36.367-.263-7.705 32.276-35.47 42.393-36.367m-72.265 9.046c.033.313.074.626.107.939-10.273 1.21-20.677 1.259-30.95 2.47.008.098.025.197 0 0-.025-.198-.008-.1 0 0 10.281-1.137 20.562-2.273 30.843-3.4zm-67.16 10.397c-4.643-1.671-9.055-4.01-13.566-6.042l.568-1.284c7.499 3.202 15.22 5.967 22.43 9.713 8.413 4.37 13.295 11.392 12.48 21.46-.05.625-.255 1.234-.395 1.843-.149-14.734-9.351-21.336-21.526-25.699zm2.395 36.836c-.75-.939-2.914-2.725-2.61-3.466.89-2.14 2.774-3.86 4.264-5.737 1.227 1.35 3.178 2.535 3.532 4.09.666 2.898-1.31 4.487-5.186 5.113zM399.757 621.81" style="fill:#000a15" transform="translate(-126.035 -50)"/><path d="M398.605 622.642c.09-.025.18-.058.263-.09a1.4 1.4 0 0 1-.263.09M398.103 622.724h.016c-.05 0-.099.008-.148.008.041 0 .082 0 .132-.008M399 622.477s.016-.008.024-.016c-.049.033-.107.057-.164.082h.016c.042-.016.075-.041.116-.057zM398.58 622.65h.025l-.165.05h.008c.05-.008.09-.025.132-.042zM399.025 622.46c.082-.04.156-.098.23-.155-.074.057-.156.107-.23.156M399.626 621.967c-.075.082-.14.156-.214.222q.113-.099.214-.222M399.724 621.86s.025-.033.033-.05c-.041.058-.09.1-.132.157.025-.033.058-.05.083-.082 0 0 .008-.017.016-.017zM564.215 594.795c-1.885-1.531-4.528-2.124-7.178-2.717 2.19 2.223 3.786 4.569 4.725 7.088a347 347 0 0 0 3.515-3.342 10 10 0 0 0-1.07-1.03z" style="fill:#000a15" transform="translate(-126.035 -50)"/><path d="M506.545 641.056h-.009zM506.553 641.056h-.008q-.005 0 0 0c.008 0 0 0 0 0h.016z" style="fill:#225877" transform="translate(-126.035 -50)"/><path d="M344.952 690.206c.016-1.473.016-2.922.024-5.276-47.808-26.316-88.348-55.349-119.093-85.484-28.72-28.16-62.955-71.45-62.955-117.785V111.909c36.145-9.861 112.031-25.015 237.068-25.015s200.931 15.146 237.068 25.015v369.744c0 46.335-34.235 89.632-62.955 117.784-33.297 32.638-78.084 63.984-131.145 91.987-.189 1.894-.46 3.812-.864 5.68 124.206-64.774 199.582-145.212 199.582-215.451v-373.25c-34.918-9.878-112.08-26.119-241.686-26.119-129.605 0-206.767 16.24-241.677 26.119v373.25c0 67.77 70.157 145.022 186.641 208.545z" style="fill:#fff" transform="translate(-126.035 -50)"/><path d="M270.58 283.47c1.12-.856 2.453-2.206 4.544-4.33.774-.781 1.58-1.604 2.436-2.452 9.466-9.68 19.871-18.093 31.041-25.172h-136.52v31.954zM491.078 251.516c14.117 9.285 25.386 20.274 33.148 31.955H627.77v-31.955zM228.533 347.372c-.905-2.626-2.774-5.803-6.066-6.832-.51-.157-1.688-.428-2.725-.675-6.667-1.54-16.743-3.877-20.175-13.385-1.31-3.613-1.26-7.458.057-11.063h-27.542v31.955zM536.08 315.417c.032.379.073.757.09 1.136 2.33 1.68 5.548 3.367 8.305 4.815 7.812 4.108 16.67 8.759 19.616 18.579a20.6 20.6 0 0 1 .798 7.417h62.881v-31.955h-91.69zM569.532 379.327c.922 4.041 1.523 8.906 1.663 14.75l.016.79c.008.503.017 1.013.017 1.523 0 5.022-.23 9.985-.659 14.9h57.201v-31.955h-58.238zM229.406 411.281c-.42-4.856-.642-9.73-.65-14.627-.017-.75.016-2.009.115-6.124v-.42c.082-2.881.173-6.651.255-10.775h-57.044v31.954h57.324zM435.177 519.394c1.268-.568 2.066-1.844 2.066-3.235v-5.886c0-2.634-2.749-4.338-5.12-3.193a73.6 73.6 0 0 1-15.36 5.424V358.14a3.58 3.58 0 0 0-3.012-3.524 85 85 0 0 0-5.425-.7c-2.09-.205-3.902 1.458-3.902 3.557v165.453c0 2.1 1.811 3.754 3.894 3.556a86.1 86.1 0 0 0 26.86-7.07zM395.707 507.409v-42.442a39.57 39.57 0 0 0-8.396-24.373l-3.951-5.063a39.6 39.6 0 0 1-8.396-24.373v-37.931a4.16 4.16 0 0 1 2.93-3.976l.082-.024c2.667-.824 5.376 1.168 5.376 3.967v17.904a3.566 3.566 0 0 0 3.564 3.564h5.227a3.566 3.566 0 0 0 3.564-3.564v-18.126c0-10.973-10.594-18.9-21.09-15.698-.139.041-.279.09-.427.132-6.873 2.124-11.574 8.47-11.574 15.665v42.342a39.57 39.57 0 0 0 8.397 24.374l3.95 5.062a39.6 39.6 0 0 1 8.397 24.382v37.972c0 2.799-2.708 4.79-5.375 3.968l-.083-.025a4.16 4.16 0 0 1-2.93-3.976V489.3a3.566 3.566 0 0 0-3.564-3.565h-5.227a3.566 3.566 0 0 0-3.564 3.565v18.027c0 7.235 4.757 13.557 11.672 15.697.107.033.214.066.33.099 10.494 3.202 21.088-4.725 21.088-15.698zM437.812 368.156v104.928a3.566 3.566 0 0 0 3.564 3.564h5.227a3.566 3.566 0 0 0 3.564-3.565v-87.509c14.734 13.558 23.987 33 23.987 54.608 0 23.106-10.57 43.742-27.132 57.35a3.6 3.6 0 0 0-1.325 2.765v6.766c0 2.906 3.31 4.61 5.655 2.89 21.386-15.78 35.256-41.158 35.256-69.78 0-28.62-14.389-54.911-36.433-70.617a87 87 0 0 0-7.005-4.503c-2.37-1.366-5.342.354-5.342 3.095zM313.252 440.19c0 15.369 4 29.799 11.014 42.319 8.058 14.364 29.888 8.8 29.888-7.672V373.309c0-2.938-3.35-4.593-5.712-2.84a90 90 0 0 0-5.433 4.371 3.54 3.54 0 0 0-1.202 2.676v97.345c0 3.639-4.856 4.956-6.643 1.787-6.09-10.767-9.565-23.197-9.565-36.45v-39.173a3.55 3.55 0 0 0-3.556-3.556h-5.235a3.55 3.55 0 0 0-3.556 3.556v39.173z" style="fill:#fff" transform="translate(-126.035 -50)"/><path d="M547.735 376.931c-4.38 10.323-9.483 17.953-21.476 28.901-5.367-12.232-29.617-23.526-36.655-14.973 8.314 15.204 12.883 32.745 12.446 51.39-1.251 53.266-44.088 97.115-97.321 99.527-31.551 1.424-60.123-11.483-79.763-32.753-12.94-14.019-22.003-31.667-25.485-51.242a102.7 102.7 0 0 1-1.58-17.986c0-7.556.83-14.915 2.387-22.002 4.47-20.349 15.006-38.417 29.617-52.221a102 102 0 0 1 6.947-5.993c-10.43 1.515-19.88 3.038-32.342 1.103-7.482-1.16-7.136-7.614-2.576-9.803 9.812-4.717 26.275-25.024 27.625-36.968.428 5.597.238 14.372-1.334 20.035-.527 1.894-2.65 10.48-6.322 14.858-1.44 1.729-.518 4.289 1.73 4.24 11.507-.256 20.356-1.869 27.542-4.092 17.105-5.292 29.954-16.47 42.417-19.146.568-.124.815.667.288.905-4.14 1.885-8.767 5.244-14.208 9.014a102.5 102.5 0 0 1 20.307-2.025c10.586 0 28.457 2.428 37.133 4.898 2.412.683 20.29 4.256 37.453 3.745 15.772-.47 44.969 10.52 58.065 14.496 6.972 2.115 9.574.255 9.557-2.692-.008-2.585-17.533-12.182-20.381-14.48 3.745 1.87 26.423 9.533 27.896 6.874 7.68-13.903-18.24-15.673-27.361-28.3 1.391-20.216-14.068-44.582-43.965-62.37-.362-.206-.708-.428-1.07-.626-.05-.024-.099-.057-.148-.082-21.22-11.96-45.496-19.138-71.367-20.077-.082 0-.165-.008-.255-.008a159 159 0 0 0-5.252-.09h-.305c-2 0-3.992.05-5.976.123-.32.008-.65.025-.971.033-2 .09-3.992.206-5.976.37-.09 0-.173.017-.263.025-4.231.354-8.421.873-12.554 1.556-33.798 5.565-63.967 21.888-86.875 45.34-7.713 7.622-11.005 12.536-23.32 12.347-18.134-.272-42.549 9.375-50.739 20.126-4.256 5.597 8.199 6.832 13.261 8.42 11.351 3.549 16.175 15.246 16.455 22.687.403 10.775-.09 30.819-.33 40.655v.107c-.082 3.219-.131 5.326-.115 5.606 0 16.15 2.437 31.733 6.956 46.41q.63 2.049 1.309 4.074c21.04 62.164 79.854 106.92 149.13 106.92 86.933 0 157.403-70.47 157.403-157.404 0-.658-.016-1.317-.025-1.976-.403-16.94-5.91-26.25-9.63-17.475zm-85.344-72.915c12.067-2.708 17.69.379 22.776 8.816.618 1.03-.526 2.247-1.596 1.696-2.964-1.531-5.384-2.14-7.928-1.96 3.096 3.54-1.21 5.911-4.782 5.022-3.58-.889-5.704-6.1-.873-7.293 0 0-.93-2.033-7.647-3.91-1.201-.337-1.177-2.09.05-2.362zM374.717 654.901c-6.915 0-9.91 5.269-9.91 17.18 0 9.433 2.263 13.927 7.605 13.927 2.815 0 4.659-1.63 5.72-4.428l.231.131c-.09 1.82-.14 3.581-.18 5.269-.231 7.284-1.153 9.367-3.417 9.367s-2.815-1.885-2.815-6.182V688.8s-6.964 2.016-6.914 2.016c-.05.585-.05-.782-.05 0 0 10.018 2.675 14.183 9.78 14.183 7.605 0 10.7-5.4 10.7-24.727 0-19.328-3.227-25.378-10.742-25.378zm.09 23.617c-1.753 0-2.724-1.754-2.724-7.03 0-5.664 1.012-8.133 2.856-8.133s2.766 2.601 2.766 8.199c0 5.268-1.152 6.964-2.906 6.964zM424.32 654.901c-6.914 0-9.91 5.269-9.91 17.18 0 9.433 2.263 13.927 7.605 13.927 2.815 0 4.66-1.63 5.721-4.428l.23.131c-.09 1.82-.14 3.581-.18 5.269-.231 7.284-1.153 9.367-3.417 9.367s-2.815-1.885-2.815-6.182V688.8s-6.964 2.016-6.914 2.016c-.05.585-.05-.782-.05 0 0 10.018 2.675 14.183 9.78 14.183 7.605 0 10.7-5.4 10.7-24.727 0-19.328-3.227-25.378-10.742-25.378zm.09 23.617c-1.753 0-2.724-1.754-2.724-7.03 0-5.664 1.013-8.133 2.856-8.133 1.844 0 2.766 2.601 2.766 8.199 0 5.268-1.152 6.964-2.906 6.964zM399.947 654.901c-7.195 0-10.841 6.676-10.841 29.774s3.136 32.185 10.791 32.185 10.932-8.775 10.932-32.185-3.779-29.774-10.882-29.774m0 48.04c-2.124 0-3.186-2.816-3.227-18.028 0-14.726 1.152-17.138 3.226-17.138 2.075 0 3.178 2.412 3.178 17.138s-1.062 18.027-3.178 18.027M359.02 655.593c-.692 0-1.334-.066-2.124-.066-3.243 3.564-7.516 6.247-7.516 6.247l.824 4.042 2.93-.428c.074 3.284.14 7.655.14 13.771 0 9.253 0 9.994-.074 14.867l7.72 4.51c-.081-5.523-.164-10.198-.164-19.385 0-10.15.09-18.85.181-23.64-.51.065-1.201.065-1.934.065z" style="fill:#dfba7d" transform="translate(-126.035 -50)"/><path d="M647.633 90.919C612.22 80.802 532.96 63.837 399.996 63.837S187.77 80.802 152.359 90.92c-7.35 2.099-12.487 8.906-12.487 16.554v374.18c0 43.017 24.16 89.435 69.877 134.256 44.318 43.446 107.644 84.496 183.143 118.723a17.06 17.06 0 0 0 7.112 1.53c2.478 0 4.865-.518 7.112-1.53 75.5-34.227 138.833-75.286 183.143-118.723 45.71-44.813 69.877-91.239 69.877-134.256v-374.18c0-7.648-5.136-14.455-12.487-16.554zm3.268 390.734c0 40.482-23.205 84.628-67.112 127.662-43.553 42.697-105.964 83.122-180.5 116.912a8 8 0 0 1-3.301.708 7.96 7.96 0 0 1-3.301-.708c-74.528-33.79-136.94-74.215-180.493-116.912-43.898-43.043-67.111-87.188-67.111-127.663v-374.18c0-3.547 2.387-6.708 5.803-7.688 34.951-9.985 113.257-26.727 245.102-26.727 131.844 0 210.159 16.75 245.101 26.727 3.416.98 5.803 4.132 5.803 7.688v374.18z" style="fill:#dfba7d" transform="translate(-126.035 -50)"/><path d="M180.132 193.994v-.89c5.038 0 5.334-3.703 5.334-9.194v-33.807c0-5.49-.296-9.194-5.334-9.194v-.89h24.02c18.167 0 26.99 9.418 26.99 26.325 0 16.908-9.787 27.658-27.657 27.658h-23.353zm35.881-27.205c0-15.87-3.037-24.687-11.343-24.687h-2.148c-1.778 0-2.815.89-2.815 2.667v42.41c0 3.259 1.037 4.74 5.342 4.74 8.01 0 10.972-7.935 10.972-25.13zM238.033 176.502v-26.399c0-5.49-.297-9.194-5.334-9.194v-.89h24.908v.89c-5.038 0-5.342 3.704-5.342 9.194v26.695c0 10.528 4.519 14.233 10.898 14.233 5.861 0 10.602-3.408 10.602-14.825v-21.65c0-6.971-.889-12.157-5.638-13.639v-.889h13.343v.889c-4.741 1.482-5.194 6.676-5.194 13.64v21.649c0 13.195-6.453 18.685-18.611 18.685s-19.649-5.194-19.649-18.39zM315.294 140.02h14.084v.889c-4.297.296-5.186 6.676-5.186 13.64v40.63h-1.926l-31.733-46.491v27.806c0 9.935 2.519 16.315 6.824 16.611v.889h-15.426v-.889c4.297-.593 6.083-6.676 6.083-16.611v-26.547c0-6.083-3.26-8.454-6.083-9.046v-.89h19.056l20.686 30.993V154.54c0-6.973-1.482-12.158-6.38-13.64v-.89zM350.73 183.91c0 5.49.297 9.195 5.342 9.195v.889h-24.908v-.89c5.038 0 5.334-3.703 5.334-9.194v-33.806c0-5.49-.296-9.195-5.334-9.195v-.89h24.908v.89c-5.037 0-5.342 3.704-5.342 9.194zm11.195-25.871c11.862 24.612 17.797 33.88 20.39 35.066v.889c-2.667.296-8.454.296-10.232.296-8.306 0-10.232-4.445-20.167-26.99l10.676-14.233c3.037-4 4.593-6.454 4.593-9.417 0-1.778-.74-2.593-2.593-2.741v-.89h16.39v.89c-4.15 1.185-10.38 5.86-16.316 13.565l-2.74 3.556z" style="fill:#dfba7d" transform="translate(-126.035 -50)"/><path d="m424.205 178.725-2 15.269h-40.187v-.889c5.038 0 5.334-3.704 5.334-9.195v-33.806c0-5.49-.296-9.195-5.334-9.195v-.889h39.001l1.185 13.64h-.889c-5.037-8.602-8.602-11.566-16.907-11.566h-2.815v22.538h1.481c7.713 0 10.084-2.222 12.158-6.972h.89v17.204h-.89c-2.222-5.49-4.445-7.713-12.158-7.713h-1.481v21.353c0 2 .518 3.407 2.963 3.407h.593c7.342 0 12.38-2.37 18.167-13.195h.889zM477.364 193.105v.889c-1.778.148-7.565.296-10.528.296-6.972 0-8.38-1.26-17.278-23.204-.963-2.297-1.334-2.89-3.704-2.89h-.148v15.723c0 5.49.592 9.194 5.638 9.194v.89H426.14v-.89c5.038 0 5.334-3.704 5.334-9.194v-33.807c0-5.49-.296-9.195-5.334-9.195v-.889h25.501c13.344 0 19.427 5.038 19.427 13.64 0 6.972-4.52 11.713-11.788 13.491v.148c2.223 1.112 4.149 3.63 6.306 7.713 8.157 15.426 9.416 17.352 11.787 18.093zm-31.659-26.983h3.26c4.742 0 7.713-3.186 7.713-11.417s-2.37-12.603-7.49-12.603h-.667c-1.778 0-2.816.89-2.816 2.667zM540.829 200.003c-4.667 3.26-9.343 5.112-15.87 5.112-6.973 0-14.825-2.223-23.057-10.232h-1.185c-15.87 0-25.436-10.825-25.436-27.732 0-16.908 9.862-28.028 25.576-28.028 15.713 0 25.435 10.824 25.435 27.732 0 10.75-4.52 19.352-11.714 24.02 5.935 7.712 10.825 10.453 16.167 10.453 3.334 0 5.861-.889 9.343-2.593l.74 1.26zm-39.964-7.194c7.565 0 10.306-10.38 10.306-25.798s-2.815-25.806-10.38-25.806-10.38 10.38-10.38 25.806 2.741 25.798 10.454 25.798" style="fill:#dfba7d" transform="translate(-126.035 -50)"/><path d="M533.116 176.502v-26.399c0-5.49-.296-9.194-5.334-9.194v-.89h24.909v.89c-5.038 0-5.343 3.704-5.343 9.194v26.695c0 10.528 4.52 14.233 10.899 14.233 5.86 0 10.602-3.408 10.602-14.825v-21.65c0-6.971-.889-12.157-5.639-13.639v-.889h13.344v.889c-4.742 1.482-5.194 6.676-5.194 13.64v21.649c0 13.195-6.454 18.685-18.612 18.685s-19.648-5.194-19.648-18.39zM619.868 178.725l-2 15.269H577.68v-.889c5.038 0 5.334-3.704 5.334-9.195v-33.806c0-5.49-.296-9.195-5.334-9.195v-.889h39.001l1.185 13.64h-.889c-5.037-8.602-8.601-11.566-16.907-11.566h-2.815v22.538h1.481c7.713 0 10.084-2.222 12.158-6.972h.89v17.204h-.89c-2.222-5.49-4.445-7.713-12.158-7.713h-1.481v21.353c0 2 .518 3.407 2.963 3.407h.593c7.342 0 12.38-2.37 18.167-13.195h.889z" style="fill:#dfba7d" transform="translate(-126.035 -50)"/></svg>