<svg xmlns="http://www.w3.org/2000/svg" width="297.35352301100926" height="336.3000343409335" viewBox="0 0 481.333 544.0"><defs><clipPath clipPathUnits="userSpaceOnUse" id="a"><path d="M0 408h361V0H0Z" transform="translate(-355.997 -302.617)"/></clipPath><clipPath clipPathUnits="userSpaceOnUse" id="b"><path d="M0 408h361V0H0Z" transform="translate(-53.594 -228.333)"/></clipPath><clipPath clipPathUnits="userSpaceOnUse" id="c"><path d="M0 408h361V0H0Z" transform="translate(-307.448 -219.264)"/></clipPath><clipPath clipPathUnits="userSpaceOnUse" id="d"><path d="M0 408h361V0H0Z" transform="translate(-307.128 -228.334)"/></clipPath><clipPath clipPathUnits="userSpaceOnUse" id="e"><path d="M0 408h361V0H0Z" transform="translate(-307.128 -228.334)"/></clipPath><clipPath clipPathUnits="userSpaceOnUse" id="f"><path d="M0 408h361V0H0Z" transform="translate(-307.128 -228.334)"/></clipPath><clipPath clipPathUnits="userSpaceOnUse" id="g"><path d="M0 408h361V0H0Z" transform="translate(-53.594 -228.333)"/></clipPath><clipPath clipPathUnits="userSpaceOnUse" id="h"><path d="M0 408h361V0H0Z" transform="translate(-307.448 -219.264)"/></clipPath><clipPath clipPathUnits="userSpaceOnUse" id="i"><path d="M0 408h361V0H0Z" transform="translate(-343.343 -236.68)"/></clipPath><clipPath clipPathUnits="userSpaceOnUse" id="j"><path d="M0 408h361V0H0Z" transform="translate(-343.344 -304.139)"/></clipPath><clipPath clipPathUnits="userSpaceOnUse" id="k"><path d="M0 408h361V0H0Z" transform="translate(-53.595 -228.333)"/></clipPath><clipPath clipPathUnits="userSpaceOnUse" id="l"><path d="M0 408h361V0H0Z" transform="translate(-198.472 -379.104)"/></clipPath><clipPath clipPathUnits="userSpaceOnUse" id="m"><path d="M0 408h361V0H0Z" transform="translate(-126.03 -364.67)"/></clipPath><clipPath clipPathUnits="userSpaceOnUse" id="n"><path d="M0 408h361V0H0Z" transform="translate(-126.03 -104.346)"/></clipPath><clipPath clipPathUnits="userSpaceOnUse" id="o"><path d="M0 408h361V0H0Z" transform="translate(-198.472 -93.456)"/></clipPath><clipPath clipPathUnits="userSpaceOnUse" id="p"><path d="M0 408h361V0H0Z" transform="translate(-270.908 -130.087)"/></clipPath><clipPath clipPathUnits="userSpaceOnUse" id="q"><path d="M0 408h361V0H0Z" transform="translate(-270.908 -354.642)"/></clipPath><clipPath clipPathUnits="userSpaceOnUse" id="r"><path d="M0 408h361V0H0Z" transform="translate(-343.342 -306.273)"/></clipPath><clipPath clipPathUnits="userSpaceOnUse" id="s"><path d="M0 408h361V0H0Z" transform="translate(-89.816 -130.087)"/></clipPath><clipPath clipPathUnits="userSpaceOnUse" id="t"><path d="M0 408h361V0H0Z" transform="translate(-89.816 -354.641)"/></clipPath><clipPath clipPathUnits="userSpaceOnUse" id="u"><path d="M0 408h361V0H0Z" transform="translate(-162.252 -379.097)"/></clipPath><clipPath clipPathUnits="userSpaceOnUse" id="v"><path d="M0 408h361V0H0Z" transform="translate(-162.252 -93.456)"/></clipPath><clipPath clipPathUnits="userSpaceOnUse" id="w"><path d="M0 408h361V0H0Z" transform="translate(-234.687 -104.346)"/></clipPath><clipPath clipPathUnits="userSpaceOnUse" id="x"><path d="M0 408h361V0H0Z" transform="translate(-234.686 -364.677)"/></clipPath><clipPath clipPathUnits="userSpaceOnUse" id="y"><path d="M0 408h361V0H0Z" transform="translate(-307.128 -210.195)"/></clipPath><clipPath clipPathUnits="userSpaceOnUse" id="z"><path d="M0 408h361V0H0Z" transform="translate(-307.129 -348.623)"/></clipPath><clipPath clipPathUnits="userSpaceOnUse" id="A"><path d="M0 408h361V0H0Z" transform="translate(-270.907 -140.303)"/></clipPath><clipPath clipPathUnits="userSpaceOnUse" id="B"><path d="M0 408h361V0H0Z" transform="translate(-300.499 -219.264)"/></clipPath><clipPath clipPathUnits="userSpaceOnUse" id="C"><path d="M0 408h361V0H0Z" transform="translate(-131.029 -306.301)"/></clipPath></defs><path d="M0 0c0-127.993-71.002-239.396-175.778-296.972C-280.554-239.396-351.557-127.993-351.557 0c0 19.476 1.646 38.573 4.809 57.145 2.698-.061 5.395-.095 8.101-.095 59.265 0 114.867 15.693 162.869 43.158C-127.777 72.743-72.183 57.05-12.918 57.05c2.715 0 5.412.034 8.11.095A340.32 340.32 0 0 0 0 0" style="fill:#fff;fill-opacity:1;fill-rule:nonzero;stroke:none" transform="matrix(1.33333 0 0 -1.33333 474.663 140.51)" clip-path="url(#a)"/><path d="M0 0v-18.139c-.215 2.996-.32 6.019-.32 9.07 0 3.05.105 6.074.32 9.069" style="fill:#d9d9d9;fill-opacity:1;fill-rule:nonzero;stroke:none" transform="matrix(1.33333 0 0 -1.33333 71.46 239.556)" clip-path="url(#b)"/><path d="M0 0c0-3.051-.104-6.074-.319-9.07V9.069C-.104 6.074 0 3.05 0 0" style="fill:#d9d9d9;fill-opacity:1;fill-rule:nonzero;stroke:none" transform="matrix(1.33333 0 0 -1.33333 409.93 251.648)" clip-path="url(#c)"/><path d="M0 0v-18.139c.216 2.996.32 6.019.32 9.069C.32-6.019.216-2.996 0 0m36.214 77.939v-2.134c.007.355.007.716.007 1.071 0 .354 0 .708-.007 1.063M-253.853-9.07c0-3.051.104-6.074.319-9.07V-.001a126.65 126.65 0 0 1-.319-9.069" style="fill:#d9d9d9;fill-opacity:1;fill-rule:nonzero;stroke:none" transform="matrix(1.33333 0 0 -1.33333 409.504 239.555)" clip-path="url(#d)"/><path d="M0 0v-18.139c.216 2.996.32 6.019.32 9.069C.32-6.019.216-2.996 0 0m36.214 77.939v-2.134c.007.355.007.716.007 1.071 0 .354 0 .708-.007 1.063M-253.853-9.07c0-3.051.104-6.074.319-9.07V-.001a126.65 126.65 0 0 1-.319-9.069" style="fill:#d9d9d9;fill-opacity:1;fill-rule:nonzero;stroke:none" transform="matrix(1.33333 0 0 -1.33333 409.504 239.555)" clip-path="url(#e)"/><path d="M0 0v-18.139c.216 2.996.32 6.019.32 9.069C.32-6.019.216-2.996 0 0m36.214 77.939v-2.134c.007.355.007.716.007 1.071 0 .354 0 .708-.007 1.063M-253.853-9.07c0-3.051.104-6.074.319-9.07V-.001a126.65 126.65 0 0 1-.319-9.069" style="fill:#d9d9d9;fill-opacity:1;fill-rule:nonzero;stroke:none" transform="matrix(1.33333 0 0 -1.33333 409.504 239.555)" clip-path="url(#f)"/><path d="M0 0v-18.139c-.215 2.996-.32 6.019-.32 9.07 0 3.05.105 6.074.32 9.069" style="fill:#d9d9d9;fill-opacity:1;fill-rule:nonzero;stroke:none" transform="matrix(1.33333 0 0 -1.33333 71.46 239.556)" clip-path="url(#g)"/><path d="M0 0c0-3.051-.104-6.074-.319-9.07V9.069C-.104 6.074 0 3.05 0 0" style="fill:#d9d9d9;fill-opacity:1;fill-rule:nonzero;stroke:none" transform="matrix(1.33333 0 0 -1.33333 409.93 251.648)" clip-path="url(#h)"/><path d="M0 0a334.72 334.72 0 0 0-36.214-96.662 337.365 337.365 0 0 0-36.221-52.135 338.582 338.582 0 0 0-36.222-36.805 337.397 337.397 0 0 0-36.214-27.534 328.674 328.674 0 0 0-11.161-7.04 314.864 314.864 0 0 0-6.942-4.087 332.6 332.6 0 0 0-6.95 4.087 331.34 331.34 0 0 0-11.168 7.054 338.179 338.179 0 0 0-36.221 27.534 338.417 338.417 0 0 0-36.214 36.805 337.904 337.904 0 0 0-36.221 52.149A334.713 334.713 0 0 0-325.969.097c-4.559 22.093-6.95 44.977-6.95 68.418 0 13.934.848 27.666 2.495 41.156.278 2.321.584 4.642.918 6.949a297.128 297.128 0 0 1 7.033.084 350.24 350.24 0 0 1 32.725 2.23 348.866 348.866 0 0 1 36.221 6.144 345.018 345.018 0 0 1 72.435 25.018 321.643 321.643 0 0 1 10.828 5.386 292.748 292.748 0 0 1 7.29 3.892 290.985 290.985 0 0 1 7.29-3.892 308.9 308.9 0 0 1 10.813-5.379 344.99 344.99 0 0 1 36.214-14.768 345.143 345.143 0 0 1 72.443-16.394 347.821 347.821 0 0 1 32.725-2.237c1.161-.028 2.321-.049 3.489-.056 1.181-.021 2.37-.028 3.558-.028.334-2.307.639-4.628.917-6.949A339.457 339.457 0 0 0 6.97 68.515C6.97 45.04 4.573 22.12 0 0m14.962 109.837a340.768 340.768 0 0 1-2.495 17.312c-2.773-.07-5.545-.105-8.332-.105-.744 0-1.494 0-2.238.014-.632 0-1.265 0-1.897.014-1.731.021-3.461.049-5.192.104a335.687 335.687 0 0 0-31.022 2.266 334.318 334.318 0 0 0-36.221 6.338 333.252 333.252 0 0 0-36.222 10.605 333.002 333.002 0 0 0-36.214 15.303c-.055.021-.104.049-.16.076a319.383 319.383 0 0 0-7.283 3.718 324.219 324.219 0 0 0-10.66 5.838 331.03 331.03 0 0 0-10.654-5.838h-.007a317.316 317.316 0 0 0-7.283-3.718c-.056-.027-.118-.055-.174-.083a333.03 333.03 0 0 0-36.221-15.303 332.205 332.205 0 0 0-36.214-10.598 334.318 334.318 0 0 0-36.221-6.338 335.709 335.709 0 0 0-31.023-2.266c-1.73-.055-3.461-.083-5.198-.104-.626-.014-1.251-.014-1.876-.014-.744-.014-1.495-.014-2.238-.014-2.787 0-5.56.035-8.333.105a340.764 340.764 0 0 1-1.605-10.39 351.2 351.2 0 0 1-3.322-48.244c0-38 6.102-74.575 17.374-108.795a345.487 345.487 0 0 1 36.221-76.681 348.102 348.102 0 0 1 36.221-47.66 348.865 348.865 0 0 1 36.214-34.644 346.609 346.609 0 0 1 36.221-26.262c.167-.112.334-.216.508-.32a296.039 296.039 0 0 1 6.949-4.26 322.877 322.877 0 0 1 10.661-6.102 321.804 321.804 0 0 1 10.66 6.102 321.02 321.02 0 0 1 6.943 4.253c.167.104.334.209.5.32a346.185 346.185 0 0 1 36.214 26.248 349.653 349.653 0 0 1 36.222 34.644 348.46 348.46 0 0 1 36.221 47.66A345.631 345.631 0 0 1 0-40.343C11.286-6.102 17.395 30.494 17.395 68.515c0 13.983-.827 27.771-2.433 41.322" style="fill:#043ca9;fill-opacity:1;fill-rule:nonzero;stroke:none" transform="matrix(1.33333 0 0 -1.33333 457.79 228.427)" clip-path="url(#i)"/><path d="M0 0c-.167-53.81-13.211-104.583-36.214-149.415a330.01 330.01 0 0 0-36.222-55.874 331.116 331.116 0 0 0-36.221-38.452 329.577 329.577 0 0 0-36.214-28.459 323.451 323.451 0 0 0-18.11-11.467 323.477 323.477 0 0 0-18.111 11.467 329.632 329.632 0 0 0-36.221 28.466 331.727 331.727 0 0 0-36.214 38.445 330.066 330.066 0 0 0-36.221 55.874c-23.156 45.123-36.221 96.279-36.221 150.486 0 13.954.869 27.701 2.55 41.204 11.363.208 22.593.952 33.671 2.21a352.161 352.161 0 0 1 36.221 6.018 350.207 350.207 0 0 1 36.214 10.028 351.044 351.044 0 0 1 54.339 23.483 343.882 343.882 0 0 1 18.103-9.049 351.554 351.554 0 0 1 36.214-14.427 352.266 352.266 0 0 1 36.221-10.035 352.18 352.18 0 0 1 36.222-6.018 356.075 356.075 0 0 1 33.67-2.21A331.332 331.332 0 0 0 0 2.134c.007-.355.007-.709.007-1.063C.007.716.007.355 0 0m4.475 42.212a290.586 290.586 0 0 1-.917 6.949c-1.188 0-2.377.008-3.558.028-1.168.007-2.328.028-3.489.056a347.82 347.82 0 0 0-32.725 2.238 345.196 345.196 0 0 0-72.443 16.394 344.686 344.686 0 0 0-36.214 14.768 307.132 307.132 0 0 0-10.813 5.378 294.304 294.304 0 0 0-7.29 3.892 296.106 296.106 0 0 0-7.29-3.892 319.732 319.732 0 0 0-10.828-5.385 344.803 344.803 0 0 0-72.435-25.019 348.864 348.864 0 0 0-36.221-6.143 350.238 350.238 0 0 0-32.726-2.231 290.978 290.978 0 0 0-7.033-.084 290.586 290.586 0 0 1-.917-6.949 339.428 339.428 0 0 1-2.495-41.155c0-23.441 2.391-46.326 6.95-68.419 7.102-34.456 19.473-66.993 36.221-96.731a337.952 337.952 0 0 1 36.221-52.149 338.507 338.507 0 0 1 36.214-36.805 338.31 338.31 0 0 1 36.221-27.534 334.562 334.562 0 0 1 18.118-11.14 310.929 310.929 0 0 1 6.942 4.086 331.852 331.852 0 0 1 11.161 7.04 337.528 337.528 0 0 1 36.214 27.534 338.571 338.571 0 0 1 36.221 36.805 337.38 337.38 0 0 1 36.222 52.136A334.703 334.703 0 0 1 0-67.459c4.573 22.12 6.97 45.04 6.97 68.516 0 13.934-.848 27.666-2.495 41.155" style="fill:#fff;fill-opacity:1;fill-rule:nonzero;stroke:none" transform="matrix(1.33333 0 0 -1.33333 457.792 138.481)" clip-path="url(#j)"/><path d="M0 0c-.215-2.995-.32-6.018-.32-9.069 0-3.051.105-6.074.32-9.069l.001-55.471C-23.155-28.486-36.221 22.67-36.221 76.877c0 13.954.869 27.701 2.551 41.204 11.362.208 22.593.952 33.671 2.21z" style="fill:#f20819;fill-opacity:1;fill-rule:nonzero;stroke:none" transform="matrix(1.33333 0 0 -1.33333 71.46 239.556)" clip-path="url(#k)"/><path d="M0 0v-34.032a128.59 128.59 0 0 1-18.111 1.279c-6.15 0-12.196-.438-18.11-1.279V-.007a349.915 349.915 0 0 1 18.117 9.055A343.512 343.512 0 0 1 0 0" style="fill:#f20819;fill-opacity:1;fill-rule:nonzero;stroke:none" transform="matrix(1.33333 0 0 -1.33333 264.63 38.529)" clip-path="url(#l)"/><path d="M0 0v-30.488c-.723-.34-1.439-.688-2.154-1.042a151.319 151.319 0 0 1-2.947-1.515c-.813-.431-1.619-.869-2.425-1.321-.021-.013-.042-.027-.07-.034a152.939 152.939 0 0 1-3.516-2.044c-.32-.187-.633-.382-.945-.569-.007 0-.014 0-.021-.014-.077-.049-.153-.091-.23-.139l-.014-.014a41.834 41.834 0 0 1-1.035-.647c-.389-.243-.778-.493-1.168-.743a22.626 22.626 0 0 1-.305-.202 116.34 116.34 0 0 1-4.08-2.766 27.092 27.092 0 0 1-.757-.535 2.589 2.589 0 0 1-.181-.132 77.897 77.897 0 0 1-1.306-.952c-.084-.055-.167-.118-.251-.18-.104-.077-.208-.153-.305-.23a119.57 119.57 0 0 1-1.536-1.174c-.264-.195-.528-.403-.786-.605-.521-.41-1.042-.827-1.556-1.244-.257-.201-.507-.41-.758-.618a111.643 111.643 0 0 1-1.932-1.62c-.014-.013-.027-.02-.041-.041a82.255 82.255 0 0 1-1.668-1.446l-.48-.438c-.222-.194-.438-.382-.653-.583a51.99 51.99 0 0 1-.945-.869c-.091-.076-.174-.16-.257-.236a82.682 82.682 0 0 1-1.821-1.738c-.104-.097-.209-.194-.306-.292-.278-.264-.549-.542-.82-.813-.271-.264-.535-.535-.799-.799l-.146-.146v46.201A350.276 350.276 0 0 1 0 0" style="fill:#f20819;fill-opacity:1;fill-rule:nonzero;stroke:none" transform="matrix(1.33333 0 0 -1.33333 168.04 57.774)" clip-path="url(#m)"/><path d="M0 0v-43.942A331.808 331.808 0 0 0-36.214-5.497v31.238A127.422 127.422 0 0 1 0 0" style="fill:#f20819;fill-opacity:1;fill-rule:nonzero;stroke:none" transform="matrix(1.33333 0 0 -1.33333 168.04 404.872)" clip-path="url(#n)"/><path d="M0 0v-61.517a323.477 323.477 0 0 0-18.111-11.467 323.451 323.451 0 0 0-18.11 11.467V0a128.575 128.575 0 0 1 18.11-1.279C-11.961-1.279-5.914-.841 0 0" style="fill:#f20819;fill-opacity:1;fill-rule:nonzero;stroke:none" transform="matrix(1.33333 0 0 -1.33333 264.63 419.392)" clip-path="url(#o)"/><path d="M0 0v-31.237a331.116 331.116 0 0 0-36.221-38.452v43.948A127.44 127.44 0 0 1 0 0" style="fill:#f20819;fill-opacity:1;fill-rule:nonzero;stroke:none" transform="matrix(1.33333 0 0 -1.33333 361.21 370.55)" clip-path="url(#p)"/><path d="M0 0v-46.201A127.303 127.303 0 0 1-36.221-20.46v30.495A352.266 352.266 0 0 1 0 0" style="fill:#f20819;fill-opacity:1;fill-rule:nonzero;stroke:none" transform="matrix(1.33333 0 0 -1.33333 361.21 71.144)" clip-path="url(#q)"/><path d="M0 0v-2.134c-.167-53.81-13.21-104.584-36.213-149.415v55.47c.215 2.996.319 6.019.319 9.07 0 3.05-.104 6.074-.319 9.069V42.35a356.408 356.408 0 0 1 33.67-2.21A331.1 331.1 0 0 0 0 0" style="fill:#f20819;fill-opacity:1;fill-rule:nonzero;stroke:none" transform="matrix(1.33333 0 0 -1.33333 457.79 135.636)" clip-path="url(#r)"/><path d="M0 0v-31.238a330.08 330.08 0 0 0-36.222 55.875l.001 55.47C-34.025 48.973-20.612 20.932 0 0" style="fill:#fff;fill-opacity:1;fill-rule:nonzero;stroke:none" transform="matrix(1.33333 0 0 -1.33333 119.755 370.55)" clip-path="url(#s)"/><path d="M0 0v-46.201c-20.612-20.924-34.025-48.966-36.221-80.107l-.001 120.29A352.452 352.452 0 0 1 0 0" style="fill:#fff;fill-opacity:1;fill-rule:nonzero;stroke:none" transform="matrix(1.33333 0 0 -1.33333 119.755 71.145)" clip-path="url(#t)"/><path d="M0 0v-34.025a126.241 126.241 0 0 1-36.222-10.89v30.487A351.067 351.067 0 0 1 0 0" style="fill:#fff;fill-opacity:1;fill-rule:nonzero;stroke:none" transform="matrix(1.33333 0 0 -1.33333 216.336 38.537)" clip-path="url(#u)"/><path d="M0 0v-61.517a329.755 329.755 0 0 0-36.222 28.465V10.89A126.241 126.241 0 0 1 0 0" style="fill:#fff;fill-opacity:1;fill-rule:nonzero;stroke:none" transform="matrix(1.33333 0 0 -1.33333 216.336 419.392)" clip-path="url(#v)"/><path d="m0 0-.001-43.949a329.663 329.663 0 0 0-36.214-28.458v61.517A126.196 126.196 0 0 1 0 0" style="fill:#fff;fill-opacity:1;fill-rule:nonzero;stroke:none" transform="matrix(1.33333 0 0 -1.33333 312.916 404.872)" clip-path="url(#w)"/><path d="m0 0 .001-30.495a126.196 126.196 0 0 1-36.215 10.89v34.032A351.238 351.238 0 0 1 0 0" style="fill:#fff;fill-opacity:1;fill-rule:nonzero;stroke:none" transform="matrix(1.33333 0 0 -1.33333 312.915 57.765)" clip-path="url(#x)"/><path d="m0 0 .001-55.471a330.12 330.12 0 0 0-36.222-55.875v31.239C-15.609-59.175-2.196-31.134 0 0" style="fill:#fff;fill-opacity:1;fill-rule:nonzero;stroke:none" transform="matrix(1.33333 0 0 -1.33333 409.504 263.74)" clip-path="url(#y)"/><path d="m0 0-.001-120.289C-2.197-89.148-15.61-61.107-36.222-40.182v46.2A352.452 352.452 0 0 1 0 0" style="fill:#fff;fill-opacity:1;fill-rule:nonzero;stroke:none" transform="matrix(1.33333 0 0 -1.33333 409.505 79.17)" clip-path="url(#z)"/><path d="M0 0a120.637 120.637 0 0 0-36.221-28.222 119.588 119.588 0 0 0-36.214-11.599 121.64 121.64 0 0 0-36.221 0 119.32 119.32 0 0 0-36.222 11.606C-158.707-21.196-170.987-11.571-181.092 0c-18.43 21.12-29.591 48.738-29.591 78.961 0 30.224 11.161 57.848 29.591 78.968 10.105 11.571 22.385 21.196 36.214 28.215.702.355 1.404.702 2.106 1.043.049.02.091.048.139.069.646.306 1.286.612 1.939.91l.083.042.133.063c.34.153.674.305 1.021.458.327.146.646.285.973.424.723.313 1.446.626 2.175.925.362.152.73.298 1.098.444.362.153.73.292 1.098.438.64.243 1.279.487 1.918.723.153.062.299.118.452.174.688.25 1.383.5 2.085.736.66.223 1.32.445 1.981.66.118.042.243.084.361.119.73.236 1.459.458 2.196.681.264.076.535.16.799.236.431.132.869.257 1.307.375.153.042.312.091.472.132.174.049.355.098.535.146.501.139 1.001.271 1.502.396l.986.251c.334.076.668.159.994.236.264.069.528.132.792.187.723.174 1.453.334 2.183.487l.215.042a99.402 99.402 0 0 0 4.107.792c.104.014.209.035.306.049.341.062.688.118 1.035.173l1.043.167c.062.007.125.021.188.028.792.118 1.577.229 2.376.333.146.021.285.035.431.056.501.063 1.001.125 1.508.181.049.007.091.014.139.014a121.883 121.883 0 0 0 4.705.444c.07.007.146.007.215.014h.035c.605.042 1.216.084 1.821.119.48.027.952.055 1.432.069.076.007.159.014.236.014.625.028 1.258.048 1.89.062.417.014.827.021 1.244.028a102.312 102.312 0 0 0 4.156 0c.417 0 .827-.014 1.244-.028a85.821 85.821 0 0 0 1.897-.062c.097 0 .188 0 .285-.014h.035c.055 0 .104-.007.16-.007.389-.021.792-.035 1.181-.062a158.92 158.92 0 0 0 1.821-.119h.035c.069-.007.146-.007.215-.014.097 0 .195-.014.292-.02a121.075 121.075 0 0 0 4.413-.424c.049 0 .09-.007.139-.014.625-.07 1.251-.146 1.869-.23.82-.104 1.634-.215 2.447-.34a119.588 119.588 0 0 0 36.214-11.599A120.637 120.637 0 0 0 0 157.929c18.43-21.12 29.591-48.737 29.591-78.968C29.591 48.731 18.43 21.12 0 0m0 168.138a127.317 127.317 0 0 1-36.221 25.741 126.2 126.2 0 0 1-36.214 10.89 128.74 128.74 0 0 1-18.111 1.278c-6.15 0-12.196-.438-18.11-1.278a126.226 126.226 0 0 1-43.747-14.768.219.219 0 0 0-.07-.035c-.778-.438-1.55-.882-2.321-1.334-.403-.236-.799-.473-1.195-.709-.32-.188-.633-.382-.945-.57-.007 0-.014 0-.021-.014-.077-.048-.153-.09-.23-.139l-.014-.013a45.052 45.052 0 0 1-1.035-.647c-.389-.243-.778-.493-1.168-.744a15.72 15.72 0 0 1-.305-.201 116.383 116.383 0 0 1-4.08-2.766 29.359 29.359 0 0 1-.938-.667 91.064 91.064 0 0 1-1.306-.952 5.623 5.623 0 0 1-.251-.181 119.636 119.636 0 0 1-1.841-1.404c-.264-.194-.528-.403-.786-.604-.521-.41-1.042-.827-1.556-1.244-.257-.202-.508-.41-.758-.619a116.301 116.301 0 0 1-1.932-1.619c-.014-.014-.028-.021-.041-.042a82.209 82.209 0 0 1-1.668-1.445l-.48-.438c-.222-.195-.438-.382-.653-.584a51.99 51.99 0 0 1-.945-.869c-.091-.076-.174-.159-.257-.236a82.633 82.633 0 0 1-1.821-1.737 12.34 12.34 0 0 1-.306-.292c-.278-.264-.549-.542-.82-.813-.271-.264-.535-.535-.799-.799l-.146-.146c-20.613-20.925-34.026-48.967-36.222-80.108V69.891c2.196-31.134 15.609-59.175 36.222-80.107a127.422 127.422 0 0 1 36.214-25.741 126.226 126.226 0 0 1 36.221-10.89 128.575 128.575 0 0 1 18.11-1.279c6.15 0 12.197.438 18.111 1.279a126.2 126.2 0 0 1 36.214 10.89A127.458 127.458 0 0 1 0-10.215c20.612 20.932 34.025 48.973 36.221 80.107v18.139C34.025 119.172 20.612 147.213 0 168.138" style="fill:#fff;fill-opacity:1;fill-rule:nonzero;stroke:none" transform="matrix(1.33333 0 0 -1.33333 361.21 356.93)" clip-path="url(#A)"/><path d="M0 0c0-30.224-11.16-57.841-29.591-78.961a120.612 120.612 0 0 0-36.221-28.222 119.579 119.579 0 0 0-36.214-11.599 121.482 121.482 0 0 0-18.11-1.355c-6.158 0-12.204.465-18.111 1.355a119.314 119.314 0 0 0-36.221 11.606c-13.83 7.019-26.11 16.644-36.214 28.215-18.43 21.12-29.591 48.737-29.591 78.961 0 30.223 11.161 57.848 29.591 78.968 10.104 11.571 22.384 21.196 36.214 28.215.702.354 1.404.702 2.106 1.042.048.021.09.049.139.07.646.305 1.285.611 1.939.91l.083.042c.042.021.09.041.132.062.34.153.674.306 1.022.459.326.146.646.285.972.424a119.25 119.25 0 0 0 3.274 1.369c.361.153.729.292 1.098.438.639.243 1.278.486 1.918.722.153.063.299.119.452.174.688.25 1.382.501 2.084.737.661.222 1.321.445 1.981.66a109.42 109.42 0 0 0 2.557.799c.265.077.536.16.8.237.431.132.868.257 1.306.375.153.042.313.09.473.132.173.049.354.097.535.146.5.139 1.001.271 1.501.396.334.083.66.167.987.25.333.077.667.16.994.237.264.069.528.131.792.187.723.174 1.452.334 2.182.487l.215.041a105.874 105.874 0 0 0 4.108.793c.104.013.208.034.305.048.341.063.688.118 1.036.174l1.042.167c.063.007.125.021.188.027.792.119 1.578.23 2.377.334.146.021.285.035.431.056.5.062 1 .125 1.508.18.048.007.09.014.139.014.75.091 1.494.167 2.244.237a113.267 113.267 0 0 0 2.46.208c.07.007.146.007.216.014h.035c.604.042 1.216.083 1.82.118.48.028.953.056 1.432.07.077.006.16.013.236.013.626.028 1.258.049 1.891.063.417.014.827.021 1.244.028a102.312 102.312 0 0 0 4.155 0c.417 0 .827-.014 1.244-.028a85.916 85.916 0 0 0 1.898-.063c.097 0 .187 0 .285-.013h.034c.056 0 .105-.007.16-.007.389-.021.792-.035 1.182-.063a158.73 158.73 0 0 0 1.82-.118h.035c.07-.007.146-.007.216-.014.097 0 .194-.014.291-.021.723-.055 1.446-.118 2.169-.187.75-.07 1.494-.146 2.244-.237.049 0 .091-.007.139-.014a128.492 128.492 0 0 0 4.316-.57 119.577 119.577 0 0 0 36.214-11.598 120.628 120.628 0 0 0 36.221-28.222C-11.16 57.848 0 30.23 0 0" style="fill:#043ca9;fill-opacity:1;fill-rule:nonzero;stroke:none" transform="matrix(1.33333 0 0 -1.33333 400.665 251.648)" clip-path="url(#B)"/><path d="M0 0c.398.124.866.078 1.333-.279a30.231 30.231 0 0 1 1.519-1.003c.249-.156.491-.304.74-.444.468-.272.935-.513 1.403-.738.187-.093.373-.179.568-.265 1.433-.645 2.906-1.096 4.55-1.415.226-.046.46-.085.693-.124.218-.039.444-.078.67-.101.226-.039.46-.07.693-.093.211-.031.429-.055.647-.07.265-.031.537-.054.809-.078.444-.038.896-.07 1.372-.093.233-.016.475-.024.716-.039.92-.039 1.886-.062 2.93-.077h.21c.561-.008 1.145-.008 1.745-.008h95.569c.421 0 .772-.125 1.021-.335a.674.674 0 0 0 .133-.124c.023-.024.039-.047.062-.071.024-.038.046-.077.07-.124.015-.031.031-.054.039-.078.155-.35.125-.808-.179-1.305L69.411-72.161c-.468-.677-1.145-.91-1.838-.91H51.758c-1.145 0-1.822.91-1.144 2.052l35.99 48.901c.678 1.143 0 2.052-1.146 2.052h-98.092c-1.145 0-1.839.91-1.146 2.053L-.95-.731c.039.063.086.117.133.171a2.13 2.13 0 0 0 .28.273c.078.062.156.116.242.163.007 0 .015 0 .023.015.086.039.179.078.272.109m59.001-42.488c1.129 0 1.825-.91 1.129-2.051l-9.089-12.264c-.464-.691-1.137-.908-1.825-.908h-73.217c-.905 0-1.576-.691-1.577-1.6v-55.445c0-.909.672-1.585 1.577-1.585H5.338c1.136 0 1.824-.908 1.136-2.05l-9.097-12.279c-.463-.684-1.136-.909-1.824-.909h-38.645c-1.136 0-1.832.676-1.136 1.817 2.96 5.452 3.4 8.645 3.4 17.056v51.36c0 8.396-.44 10.912-3.633 17.04-.463 1.142.001 1.818 1.137 1.818zm63.087 6.164c.923.682 1.598.682 2.287-.236l22.122-30.513c.002-.003.039-.056.046-.086a.949.949 0 0 0 .109-.197c.031-.062.054-.133.077-.204a.423.423 0 0 0 .031-.093c.023-.087.046-.173.054-.259.031-.204.031-.4 0-.604-.008-.086-.031-.172-.054-.259a.423.423 0 0 0-.031-.093c-.023-.071-.046-.142-.077-.204a.949.949 0 0 0-.109-.197c-.007-.031-.031-.054-.046-.086l-11.86-16.534a2.04 2.04 0 0 1 0-2.282l11.86-16.519c0-.001.015-.023.015-.039a.873.873 0 0 0 .132-.235c.039-.071.062-.149.085-.228a.488.488 0 0 0 .031-.101c.008-.008.008-.016.008-.024.023-.078.038-.149.046-.227.031-.196.031-.4 0-.604a1.365 1.365 0 0 0-.054-.251 1.712 1.712 0 0 0-.217-.509c-.007-.032-.031-.055-.046-.086l-12.766-17.601-9.356-12.905c-.689-.925-1.364-.925-2.287-.235-1.542 1.426-2.829 2.501-4.085 3.308-.418.274-.828.518-1.247.73h-.007a11.472 11.472 0 0 1-2.349.917c-.163.047-.326.094-.488.126-.14.039-.288.07-.435.101-.116.024-.232.047-.356.07-.07.016-.148.032-.225.039a7.75 7.75 0 0 1-.457.08 23.762 23.762 0 0 1-1.953.218l-.319.025c-.232.015-.472.031-.72.039-1.24.063-2.628.086-4.233.086h-68.41c-1.139 0-1.813.917-1.139 2.069l9.123 12.396c.054.086.116.164.186.235.039.039.078.086.116.117.047.039.086.079.132.11a1.9 1.9 0 0 0 .729.369c.069.023.147.039.216.047.148.031.295.039.45.039h73.425c.69 0 1.365.212 1.83.918l6.154 8.702c.116.172.201.36.256.556.116.384.116.8 0 1.192-.055.188-.14.376-.256.556l-6.844 9.409c-.062.086-.124.172-.186.235a1.807 1.807 0 0 1-.76.525c-.07.032-.14.055-.209.071-.07.023-.147.039-.217.047-.07.015-.147.023-.217.031-.077.008-.148.008-.225.008h-137.51a1.54 1.54 0 0 0-.52.078 1.028 1.028 0 0 0-.387.212c-.411.36-.458 1.012 0 1.764l8.424 11.713c.458.682 1.156.917 1.831.917h128.162c.1 0 .194.008.295.016.24.023.472.079.697.18a1.695 1.695 0 0 1 .636.478c.015.016.031.032.046.056a.111.111 0 0 1 .046.062c.039.039.063.078.094.125l6.844 9.408c.116.173.201.361.256.549.054.188.085.392.085.596 0 .11-.007.219-.031.329a.886.886 0 0 1-.054.243 1.627 1.627 0 0 1-.109.306 1.39 1.39 0 0 1-.147.259l-6.154 8.726c-.465.69-1.14.917-1.83.917H90.62c-1.14 0-1.814.917-1.14 2.054l9.123 12.395c.457.682 1.132.917 1.829.917h4.782c9.123 0 11.41.683 16.874 5.74m-76.964-64.672c1.145 0 1.823-.928 1.145-2.059l-35.985-48.827c-.047-.078-.085-.156-.124-.234a1.94 1.94 0 0 1-.133-.437c-.039-.265 0-.507.101-.718.031-.054.062-.108.101-.155a1.09 1.09 0 0 1 .312-.281.43.43 0 0 1 .132-.07.797.797 0 0 1 .188-.079 1.41 1.41 0 0 1 .264-.061c.094-.016.195-.024.296-.024h98.1c1.145 0 1.822-.912 1.145-2.058l-12.832-17.334c-.459-.686-1.37-1.146-2.305-.452-5.485 3.867-9.614 4.561-19.243 4.561H-19.29c-1.145 0-1.822.913-1.144 2.043l47.671 65.257c.467.694 1.145.928 1.838.928z" style="fill:#fff;fill-opacity:1;fill-rule:nonzero;stroke:none" transform="matrix(1.33333 0 0 -1.33333 174.705 135.599)" clip-path="url(#C)"/></svg>