<svg xmlns="http://www.w3.org/2000/svg" xml:space="preserve" width="711.76373" height="852.26758" viewBox="0 0 711.76373 852.26755"><path d="M562.794 767.72c-.519-.356-52.731-35.59-129.863-35.59-77.167 0-135.072 32.334-135.646 32.66l-.33.185-.329-.186c-.575-.325-58.466-32.659-135.632-32.659-77.133 0-129.346 35.234-129.864 35.59l-1.026.702-.017-1.24c-.286-18.714-.661-188.019 72.902-367.747 77.327-188.921 192.448-269.166 193.605-269.956l.375-.255.375.255c1.153.79 116.263 81.035 193.589 269.956 73.554 179.704 73.188 349.031 72.904 367.747l-.02 1.242-1.023-.704z" style="fill:#231f20;fill-opacity:1;fill-rule:nonzero;stroke:none" transform="matrix(1.33333 0 0 -1.33333 -40.067 1024.566)"/><path d="M104.223 399.938C35.407 568.064 31.381 727.04 31.381 761.842c0 1.712.011 3.015.024 4.112C38.831 761.2 89.123 730.8 160.994 730.8c75.475 0 132.45 30.714 135.961 32.652 3.513-1.936 60.497-32.652 135.976-32.652 71.868 0 122.163 30.4 129.588 35.156.012-1.092.021-2.387.021-4.089 0-34.763-4.017-193.785-72.839-361.929C414.613 216.49 303.937 135.783 296.97 130.845c-6.969 4.938-117.66 85.645-192.746 269.092m192.442 346.177c-19.059-9.212-70.433-30.634-135.671-30.634-49.172 0-88.538 13.21-112.904 24.292l-.98.445.039-1.075c1.897-52.54 12.64-190.207 71.25-333.4 62.936-153.763 152.27-234.237 178.149-255.24l.42-.34.42.34c25.876 21 115.198 101.472 178.134 255.24 58.603 143.17 69.351 280.848 71.252 333.398l.04 1.075-.98-.444c-24.37-11.081-63.74-24.29-112.903-24.29-65.243 0-116.624 21.421-135.685 30.633l-.29.139-.29-.14z" style="fill:#2fad3e;fill-opacity:1;fill-rule:nonzero;stroke:none" transform="matrix(1.33333 0 0 -1.33333 -40.067 1024.566)"/><path d="M296.955 744.776c19.352-9.317 70.757-30.627 135.976-30.627 48.783 0 87.91 12.939 112.467 23.985-1.997-53.185-12.945-189.789-71.107-331.89-62.522-152.75-151.038-232.948-177.322-254.356-26.29 21.408-114.816 101.61-177.336 254.356C61.46 548.372 50.518 684.958 48.526 738.136c24.55-11.048 63.673-23.987 112.468-23.987 65.212 0 116.612 21.31 135.961 30.627m202.678-153.385H93.48l.156-.794c11.965-61.193 29.282-119.71 51.472-173.923 49.889-121.89 116.272-195.056 151.403-227.822l.455-.423.446.423c35.13 32.768 101.513 105.937 151.4 227.822 22.189 54.208 39.507 112.725 51.472 173.923l.156.794z" style="fill:#fff;fill-opacity:1;fill-rule:nonzero;stroke:none" transform="matrix(1.33333 0 0 -1.33333 -40.067 1024.566)"/><path d="M440.345 454.277v115.579l.021.223h33.831c-8.946-40.246-20.287-79.209-33.83-116.218ZM212.003 330.097v239.722l.014.26h55.745l.004-.26V250.905l-.018-.28c-17.66 21.253-36.849 47.503-55.732 79.198l-.013.274zM326.158 250.905V569.82l.018.26h55.742l.002-.223V329.851c-18.885-31.704-38.078-57.962-55.744-79.221l-.018.275z" style="fill:#fee813;fill-opacity:1;fill-rule:nonzero;stroke:none" transform="matrix(1.33333 0 0 -1.33333 -40.067 1024.566)"/><path d="M188.434 694.841v-23.513c-12.156 5.925-26.348 9.322-37.708 9.322-13.064 0-27.306-9.134-26.63-28.704.606-17.41 12.675-24.413 28.206-24.517 12.64-.09 28.4 3.4 38.334 12.543l-.002-22.319c-9.398-6.944-26.542-10.764-39.004-11.06-16.055-.38-30.089 3.854-39.743 12.454-9.359 8.336-14.593 20.793-14.764 35.932-.332 29.39 26.918 47.448 54.19 48.077 11.205.258 30.87-4.427 37.121-8.215zM261.862 607.43l-.312 95.346 44.04.312c14.804.107 56.667-8.897 54.726-51.18-1.33-29.06-22.067-44.167-52.212-44.479h-46.242m27.104 20.106h17.698c12.088 0 27.617 5.387 27.617 26.882 0 20.544-14.19 27.061-28.88 27.061h-16.435zM438.646 607.11v73.822h-35.189v22.046h93.361v-22.046h-31.095V607.11z" style="fill:#231f20;fill-opacity:1;fill-rule:nonzero;stroke:none" transform="matrix(1.33333 0 0 -1.33333 -40.067 1024.566)"/><path d="M498.815 590.06c-11.946-60.825-29.174-118.99-51.233-172.883-49.586-121.146-115.458-194.025-150.62-226.914-35.162 32.89-101.034 105.766-150.62 226.914-22.06 53.898-39.292 112.062-51.233 172.882h403.706m-59.794-143.658c14.815 39.388 27.123 81.058 36.674 124.2l.181.81h-36.862V446.923l.007-.523M210.67 329.48c19.843-33.354 40.033-60.71 58.448-82.576l-.022.393v323.806l.015.306h-58.446l.006-.306V329.82l-.002-.339m114.163-82.542c18.41 21.866 38.592 49.212 58.424 82.556l-.007.464v241.181l-.014.271h-58.414l.005-.273v-323.84l.006-.36m-169.926 200.09v124.217l-.019.166h-36.84l.18-.808c9.545-43.12 21.846-84.772 36.653-124.147l.026.572z" style="fill:#2fad3e;fill-opacity:1;fill-rule:nonzero;stroke:none" transform="matrix(1.33333 0 0 -1.33333 -40.067 1024.566)"/><path d="M153.58 453.8c-13.558 37.034-24.905 76.016-33.856 116.28h33.844l.008-.19V454.278l.002-.477z" style="fill:#fee813;fill-opacity:1;fill-rule:nonzero;stroke:none" transform="matrix(1.33333 0 0 -1.33333 -40.067 1024.566)"/></svg>