<svg xmlns="http://www.w3.org/2000/svg" xml:space="preserve" width="427.061" height="526.97284" viewBox="0 0 427.061 526.97283"><g style="stroke-width:.334335"><g style="stroke-width:.334335"><path d="m0 0-53.543 14.753v-83.288c0-8.595 3.418-16.932 10.158-24.782 4.64-5.403 10.419-9.873 17.176-13.284l.792-.4c6.48-3.272 19.222-8.197 24.292-9.988l1.124-.397 1.125.397c5.07 1.79 17.812 6.716 24.293 9.988l.791.4c6.756 3.41 12.535 7.879 17.176 13.284 6.741 7.85 10.159 16.187 10.159 24.782v83.288z" style="fill:#e793b7;fill-opacity:1;fill-rule:nonzero;stroke:none;stroke-width:.334335" transform="matrix(3.98802 0 0 -3.98802 213.53 58.835)"/></g><g style="stroke-width:.334335"><path d="M0 0v-78.856c0-7.764 3.144-15.361 9.344-22.581 4.349-5.065 9.778-9.26 16.136-12.471l.792-.399c6.319-3.191 18.948-8.072 23.894-9.819 4.946 1.747 17.576 6.628 23.895 9.819l.792.399c6.358 3.21 11.787 7.406 16.136 12.471 6.201 7.22 9.344 14.817 9.344 22.581V0L50.167-13.823Z" style="fill:#fff;fill-opacity:1;fill-rule:nonzero;stroke:none;stroke-width:.334335" transform="matrix(3.98802 0 0 -3.98802 13.465 17.678)"/></g><g style="stroke-width:.334335"><path d="M0 0v-77.378c0-7.487 3.052-14.838 9.072-21.848 4.252-4.952 9.564-9.056 15.79-12.199l.792-.4c6.147-3.103 18.182-7.771 23.387-9.629 5.204 1.858 17.239 6.525 23.388 9.629l.791.4c6.224 3.142 11.537 7.246 15.79 12.199 6.02 7.01 9.073 14.361 9.073 21.848V0L49.041-13.513l-.299.083zm49.041-123.842-.375.133c-5.024 1.774-17.637 6.649-24.027 9.875l-.792.4c-6.491 3.277-12.037 7.564-16.482 12.741-6.381 7.43-9.616 15.274-9.616 23.315V2.955l51.292-14.132 51.292 14.132v-80.333c0-8.041-3.235-15.885-9.615-23.315-4.448-5.179-9.993-9.465-16.483-12.742l-.792-.399c-6.391-3.227-19.004-8.101-24.028-9.875z" style="fill:#1e22aa;fill-opacity:1;fill-rule:nonzero;stroke:none;stroke-width:.334335" transform="matrix(3.98802 0 0 -3.98802 17.953 23.571)"/></g><g style="stroke-width:.334335"><path d="M0 0c-.813.224-1.057.696-1.056 1.535.001.805.227 1.154 1.06.924l2.287-.628-.002-.923-2.091.575c-.22.06-.298-.02-.299-.284 0-.259.078-.382.298-.442L1.353.439c.813-.224 1.052-.678 1.051-1.511-.001-.827-.236-1.179-1.055-.954l-2.374.653.001.917 2.184-.6c.215-.059.299.024.299.294 0 .282-.093.386-.298.443z" style="fill:#e793b7;fill-opacity:1;fill-rule:nonzero;stroke:none;stroke-width:.334335" transform="matrix(3.98802 0 0 -3.98802 125.636 82.554)"/></g><g style="stroke-width:.334335"><path d="m0 0-.006-4.114-.959.264.006 4.114z" style="fill:#e793b7;fill-opacity:1;fill-rule:nonzero;stroke:none;stroke-width:.334335" transform="matrix(3.98802 0 0 -3.98802 142.133 77.278)"/></g><g style="stroke-width:.334335"><path d="m0 0 .004 2.915.886-.244-.005-4.114-1.166.321-1.739 3.293-.004-2.814-.891.245.006 4.115 1.136-.313z" style="fill:#e793b7;fill-opacity:1;fill-rule:nonzero;stroke:none;stroke-width:.334335" transform="matrix(3.98802 0 0 -3.98802 157.369 93.1)"/></g><g style="stroke-width:.334335"><path d="m0 0-1.67.459c-1.058.291-1.586.786-1.583 2.491.002 1.705.531 1.914 1.589 1.624l1.67-.46-.002-.906-1.665.458c-.479.132-.646-.042-.648-.976-.001-.934.17-1.195.645-1.326L.001.906Z" style="fill:#e793b7;fill-opacity:1;fill-rule:nonzero;stroke:none;stroke-width:.334335" transform="matrix(3.98802 0 0 -3.98802 176.932 103.263)"/></g><g style="stroke-width:.334335"><path d="m0 0-2.336.643-.001-.772L.019-.777l-.001-.889-3.315.912.005 4.114 3.305-.909-.001-.889-2.346.645-.001-.771L.001.794Z" style="fill:#e793b7;fill-opacity:1;fill-rule:nonzero;stroke:none;stroke-width:.334335" transform="matrix(3.98802 0 0 -3.98802 193.267 101.132)"/></g><g style="stroke-width:.334335"><path d="M0 0c.633.174 1.053-.014 1.05-.847-.002-.63-.249-1.013-.808-1.521l-1.278-1.161 2.058.566-.003-.866-3.435-.947.003.912 2.294 2.178c.187.181.252.328.252.503.001.23-.107.296-.308.241l-2.244-.618.003.895z" style="fill:#e793b7;fill-opacity:1;fill-rule:nonzero;stroke:none;stroke-width:.334335" transform="matrix(3.98802 0 0 -3.98802 243.707 88.577)"/></g><g style="stroke-width:.334335"><path d="M0 0c-.003-.917.128-1.213.922-.994s.922.586.926 1.503c.003.917-.123 1.214-.917.996C.132 1.285.003.918 0 0m-.902-.248c.006 1.553.317 2.224 1.836 2.642 1.514.417 1.821-.083 1.816-1.637-.006-1.553-.317-2.224-1.831-2.64C-.6-2.302-.908-1.801-.902-.248" style="fill:#e793b7;fill-opacity:1;fill-rule:nonzero;stroke:none;stroke-width:.334335" transform="matrix(3.98802 0 0 -3.98802 256.261 93.328)"/></g><g style="stroke-width:.334335"><path d="m0 0 .012 3.248-.637-.176.003.867 1.553.428L.916.252Z" style="fill:#e793b7;fill-opacity:1;fill-rule:nonzero;stroke:none;stroke-width:.334335" transform="matrix(3.98802 0 0 -3.98802 274.228 96.564)"/></g><g style="stroke-width:.334335"><path d="M0 0c.632.174 1.053-.013 1.049-.846-.001-.631-.248-1.013-.808-1.522l-1.277-1.161 2.058.566-.003-.866-3.436-.947.004.912 2.294 2.179c.187.18.251.327.252.502.001.23-.107.296-.308.241l-2.244-.618.003.895z" style="fill:#e793b7;fill-opacity:1;fill-rule:nonzero;stroke:none;stroke-width:.334335" transform="matrix(3.98802 0 0 -3.98802 293.244 74.937)"/></g><g style="stroke-width:.334335"><path d="m0 0-.491.871-2.887-1.629L-3.952.26l2.899 1.636-.487.864L-5.546.501l2.543-4.508 1.106.623-.99 1.755z" style="fill:#1e22aa;fill-opacity:1;fill-rule:nonzero;stroke:none;stroke-width:.334335" transform="matrix(3.98802 0 0 -3.98802 313.647 438.19)"/></g><g style="stroke-width:.334335"><path d="M0 0c-.425-.325-.745-.474-1.031-.474a1 1 0 0 0-.185.021c-.347.083-.64.392-1.001.863s-.581.835-.57 1.192c.011.343.237.658.755 1.054 1.019.78 1.467.571 2.216-.409.361-.472.582-.836.571-1.192C.744.712.518.396 0 0m1.176 3.005c-1.154 1.51-1.942 1.906-3.829.464-1.887-1.444-1.71-2.308-.555-3.817S-1.266-2.256.62-.812c1.888 1.444 1.71 2.308.556 3.817" style="fill:#1e22aa;fill-opacity:1;fill-rule:nonzero;stroke:none;stroke-width:.334335" transform="matrix(3.98802 0 0 -3.98802 330.025 431.92)"/></g><g style="stroke-width:.334335"><path d="M0 0c-.359 0-.714.248-1.185.693-.897.847-1.059 1.314-.179 2.247.448.474.791.664 1.127.642.355-.026.694-.283 1.126-.691.431-.407.708-.73.754-1.084.045-.34-.127-.687-.575-1.162C.65.203.324 0 0 0m1.811-.056c1.63 1.728 1.316 2.552-.066 3.855C.95 4.55.408 4.857-.125 4.858h-.003c-.574 0-1.185-.375-1.979-1.217-1.631-1.728-1.316-2.552.065-3.855 1.381-1.304 2.223-1.57 3.853.158" style="fill:#1e22aa;fill-opacity:1;fill-rule:nonzero;stroke:none;stroke-width:.334335" transform="matrix(3.98802 0 0 -3.98802 347.028 415.353)"/></g><g style="stroke-width:.334335"><path d="m0 0 .718 1.048-3.45 2.364 1.069 1.559-.819.561-2.855-4.166.818-.561 1.069 1.56z" style="fill:#1e22aa;fill-opacity:1;fill-rule:nonzero;stroke:none;stroke-width:.334335" transform="matrix(3.98802 0 0 -3.98802 369.528 396.287)"/></g><g style="stroke-width:.334335"><path d="m0 0-.815-1.898-1.181.507.824 1.918c.088.206.189.333.318.4q.22.117.536-.02Q.01.767.075.509C.111.367.086.201 0 0m-3.8-.616.807 1.878q.271.628.847.383c.375-.161.47-.441.292-.857l-.812-1.891ZM.336 1.985c-.516.221-.925.211-1.249-.032l-.098-.073-.028.119c-.083.348-.342.612-.792.805-.494.212-.898.199-1.239-.04-.288-.202-.538-.567-.788-1.147l-1.287-2.998 4.756-2.042L.898-.425c.472 1.099.557 1.929-.562 2.41" style="fill:#1e22aa;fill-opacity:1;fill-rule:nonzero;stroke:none;stroke-width:.334335" transform="matrix(3.98802 0 0 -3.98802 382.548 364.468)"/></g><g style="stroke-width:.334335"><path d="m0 0-2.032 1.354 2.34.709zm2.574 3.944-5.491-1.74-.215-1.431 4.743-3.272.193 1.295-.952.637.438 2.93 1.097.33z" style="fill:#1e22aa;fill-opacity:1;fill-rule:nonzero;stroke:none;stroke-width:.334335" transform="matrix(3.98802 0 0 -3.98802 384.837 342.612)"/></g><g style="stroke-width:.334335"><path d="M0 0h-4.184v-1.27H.993V3.3H0Z" style="fill:#1e22aa;fill-opacity:1;fill-rule:nonzero;stroke:none;stroke-width:.334335" transform="matrix(3.98802 0 0 -3.98802 390.495 314.927)"/></g><g style="stroke-width:.334335"><path d="M0 0h-4.184v-1.27H.993V3.3H0Z" style="fill:#1e22aa;fill-opacity:1;fill-rule:nonzero;stroke:none;stroke-width:.334335" transform="matrix(3.98802 0 0 -3.98802 390.495 291.732)"/></g><g style="stroke-width:.334335"><path d="M0 0c2.185 0 2.584.77 2.584 2.285v2.41H1.57V2.293c0-.8-.367-1.045-1.57-1.045-1.209 0-1.577.245-1.577 1.045v2.402h-1.015v-2.41C-2.592.77-2.191 0 0 0" style="fill:#1e22aa;fill-opacity:1;fill-rule:nonzero;stroke:none;stroke-width:.334335" transform="matrix(3.98802 0 0 -3.98802 384.148 264.002)"/></g><g style="stroke-width:.334335"><path d="M0 0h-4.184v-1.27H.993V3.3H0Z" style="fill:#1e22aa;fill-opacity:1;fill-rule:nonzero;stroke:none;stroke-width:.334335" transform="matrix(3.98802 0 0 -3.98802 390.495 234.84)"/></g><g style="stroke-width:.334335"><path d="M0 0v.482C0 2.135-.607 2.84-2.03 2.84h-3.146V1.606h3.146c.746 0 1.037-.309 1.037-1.102V.022c0-.809-.281-1.11-1.037-1.11h-3.146v-1.263h3.146C-.588-2.351 0-1.67 0 0" style="fill:#1e22aa;fill-opacity:1;fill-rule:nonzero;stroke:none;stroke-width:.334335" transform="matrix(3.98802 0 0 -3.98802 394.455 208.792)"/></g><g style="stroke-width:.334335"><path d="M0 0h-1.285v2.088c0 .295.066.686.635.686.437 0 .65-.231.65-.708Zm-2.015 0h-1.234v2.044q.001.685.628.687c.408 0 .606-.22.606-.672zm1.54 4.023c-.562 0-.933-.171-1.134-.522l-.061-.106-.073.098c-.215.288-.557.428-1.046.428-.99 0-1.395-.548-1.395-1.891v-3.264H.993V2.03c0 1.196-.25 1.993-1.468 1.993" style="fill:#1e22aa;fill-opacity:1;fill-rule:nonzero;stroke:none;stroke-width:.334335" transform="matrix(3.98802 0 0 -3.98802 390.495 186.839)"/></g><g style="stroke-width:.334335"><path d="M0 0h1.541v-1.964c0-.477-.253-.708-.774-.708-.516 0-.767.231-.767.708Zm-.971-1.92c0-.989.207-2.001 1.738-2.001 1.237 0 1.789.617 1.789 2.001v3.19h-5.177V0h1.65z" style="fill:#1e22aa;fill-opacity:1;fill-rule:nonzero;stroke:none;stroke-width:.334335" transform="matrix(3.98802 0 0 -3.98802 43.058 175.486)"/></g><g style="stroke-width:.334335"><path d="m0 0 2.211-1.039L0-2.086Zm-1.964.925L-.927.436v-2.964l-1.037-.489v-1.266l5.176 2.535v1.447l-5.176 2.536z" style="fill:#1e22aa;fill-opacity:1;fill-rule:nonzero;stroke:none;stroke-width:.334335" transform="matrix(3.98802 0 0 -3.98802 40.439 204.25)"/></g><g style="stroke-width:.334335"><path d="M0 0h3.147v1.248H0c-.746 0-1.037.312-1.037 1.11v1.767h-.993V2.358C-2.03.705-1.423 0 0 0" style="fill:#1e22aa;fill-opacity:1;fill-rule:nonzero;stroke:none;stroke-width:.334335" transform="matrix(3.98802 0 0 -3.98802 40.7 241.845)"/></g><g style="stroke-width:.334335"><path d="M0 0h3.147v1.234H0c-.746 0-1.037.309-1.037 1.102v.482c0 .809.281 1.11 1.037 1.11h3.147v1.263H0c-1.441 0-2.03-.681-2.03-2.351v-.482C-2.03.705-1.423 0 0 0" style="fill:#1e22aa;fill-opacity:1;fill-rule:nonzero;stroke:none;stroke-width:.334335" transform="matrix(3.98802 0 0 -3.98802 40.7 268.458)"/></g><g style="stroke-width:.334335"><path d="M0 0h1v3.315h1.168v-3.33h.993v4.6h-5.176v-1.27H0Z" style="fill:#1e22aa;fill-opacity:1;fill-rule:nonzero;stroke:none;stroke-width:.334335" transform="matrix(3.98802 0 0 -3.98802 40.643 304.433)"/></g><g style="stroke-width:.334335"><path d="M0 0h1.482v-2.044c0-.301-.076-.701-.737-.701-.501 0-.745.229-.745.701Zm-.422-3.505.056.11.078-.095c.256-.315.649-.468 1.201-.468 1.396 0 1.584.993 1.584 1.964V1.27h-5.176V0h1.766v-2.088c0-.481-.129-.636-.533-.636h-1.233v-1.27h1.394c.418 0 .693.156.863.489" style="fill:#1e22aa;fill-opacity:1;fill-rule:nonzero;stroke:none;stroke-width:.334335" transform="matrix(3.98802 0 0 -3.98802 43.292 316.649)"/></g><g style="stroke-width:.334335"><path d="M0 0c1.191.324 1.674.218 2.01-1.02.171-.63.159-1.018-.041-1.297-.207-.29-.604-.445-1.177-.6-.352-.096-.646-.158-.897-.158q-.234-.002-.421.08c-.314.14-.52.469-.691 1.098C-1.553-.659-1.191-.323 0 0m1.119-4.122c1.834.498 2.5 1.076 1.877 3.37-.622 2.293-1.49 2.454-3.323 1.957-1.834-.498-2.5-1.076-1.877-3.37s1.49-2.456 3.323-1.957" style="fill:#1e22aa;fill-opacity:1;fill-rule:nonzero;stroke:none;stroke-width:.334335" transform="matrix(3.98802 0 0 -3.98802 45.051 344.545)"/></g><g style="stroke-width:.334335"><path d="m0 0-.59.999-3.407-2.01 1.998 4.398-.799 1.353-4.457-2.63.593-1.006 3.291 1.942-1.908-4.285.821-1.391z" style="fill:#1e22aa;fill-opacity:1;fill-rule:nonzero;stroke:none;stroke-width:.334335" transform="matrix(3.98802 0 0 -3.98802 72.421 381.869)"/></g><g style="stroke-width:.334335"><path d="m0 0 1.209-1.453.763.634-3.229 3.884-.763-.634L-.812.977l-3.216-2.674.812-.976Z" style="fill:#1e22aa;fill-opacity:1;fill-rule:nonzero;stroke:none;stroke-width:.334335" transform="matrix(3.98802 0 0 -3.98802 80.171 398.183)"/></g><g style="stroke-width:.334335"><path d="m0 0-3.59-3.725.914-.882L.914-.881z" style="fill:#1e22aa;fill-opacity:1;fill-rule:nonzero;stroke:none;stroke-width:.334335" transform="matrix(3.98802 0 0 -3.98802 91.62 404.718)"/></g><g style="stroke-width:.334335"><path d="m0 0-2.764 2.118.706.922L.718.913l.603.788L-2.462 4.6-5.611.491l3.796-2.908.604.788L-3.999.507l.707.922L-.528-.69z" style="fill:#1e22aa;fill-opacity:1;fill-rule:nonzero;stroke:none;stroke-width:.334335" transform="matrix(3.98802 0 0 -3.98802 109.684 431.012)"/></g><g style="stroke-width:.334335"><path d="M0 0c-.135-.242-.289-.379-.472-.419A.6.6 0 0 0-.581-.43a.8.8 0 0 0-.393.12L-2.76.683l.72 1.295L-.254.985C.009.839.321.577 0 0m1.259.97c-.176.326-.514.62-1.065.926l-2.851 1.586-2.515-4.523 1.109-.617.859 1.544 1.824-1.015c.228-.126.339-.227.383-.346.053-.145-.01-.292-.086-.428l-.6-1.078 1.11-.617.677 1.218c.203.365.201.68-.008.991l-.068.103.121.021c.399.071.723.34.991.823C1.441.1 1.481.562 1.259.97" style="fill:#1e22aa;fill-opacity:1;fill-rule:nonzero;stroke:none;stroke-width:.334335" transform="matrix(3.98802 0 0 -3.98802 130.503 441.323)"/></g><g style="stroke-width:.334335"><path d="m0 0-2.153-1.745.822-2.35h2.662l.822 2.35z" style="fill:#1e22aa;fill-opacity:1;fill-rule:nonzero;stroke:none;stroke-width:.334335" transform="matrix(3.98802 0 0 -3.98802 43.26 135.193)"/></g><g style="stroke-width:.334335"><path d="m0 0-2.153-1.745.822-2.35h2.662l.822 2.35z" style="fill:#1e22aa;fill-opacity:1;fill-rule:nonzero;stroke:none;stroke-width:.334335" transform="matrix(3.98802 0 0 -3.98802 382.674 135.193)"/></g><g style="stroke-width:.334335"><path d="m0 0-36.499 10.057v-57.331c0-5.927 2.344-11.662 6.966-17.045 3.163-3.683 7.099-6.728 11.698-9.05l.528-.267c4.35-2.196 12.841-5.266 16.289-6.484L0-80.48l1.017.359c3.449 1.219 11.94 4.289 16.291 6.486l.526.266c4.598 2.32 8.534 5.365 11.699 9.05 4.622 5.383 6.966 11.117 6.966 17.045v57.331z" style="fill:#e793b7;fill-opacity:1;fill-rule:nonzero;stroke:none;stroke-width:.334335" transform="matrix(3.98802 0 0 -3.98802 213.603 130.92)"/></g><g style="stroke-width:.334335"><path d="M0 0c3.719 1.325 11.071 4.021 14.843 5.925l.527.266c3.953 1.996 7.323 4.597 10.016 7.733 3.747 4.363 5.647 8.899 5.647 13.483v12.707H-.036V.013z" style="fill:#1e22aa;fill-opacity:1;fill-rule:nonzero;stroke:none;stroke-width:.334335" transform="matrix(3.98802 0 0 -3.98802 213.602 428.75)"/></g><g style="stroke-width:.334335"><path d="M0 0v-51.737c0-3.734 1.174-7.421 3.488-11.002v23.709H1.206v37.447l30.996-8.54V-39.03h31.069v-12.707c0-4.584-1.9-9.12-5.647-13.484-2.693-3.135-6.062-5.736-10.016-7.732l-.526-.266c-3.773-1.904-11.124-4.6-14.844-5.925l-.036.013v40.101h-3.275v-40.199c1.281-.47 2.425-.881 3.311-1.195 3.589 1.273 11.413 4.122 15.387 6.128l.527.267c4.095 2.067 7.59 4.766 10.387 8.023 3.94 4.588 5.938 9.389 5.938 14.269V0L32.238-8.883Z" style="fill:#e793b7;fill-opacity:1;fill-rule:nonzero;stroke:none;stroke-width:.334335" transform="matrix(3.98802 0 0 -3.98802 85.035 113.12)"/></g><g style="stroke-width:.334335"><path d="M0 0v37.409h3.559V-1.406C2.368-.949 1.158-.474 0 0m-7.25 37.409h3.559V1.595q-.608.282-1.135.548l-.527.267c-.65.328-1.278.677-1.897 1.036zm-3.69 0V5.907a32 32 0 0 0-3.559 3.172v28.33zm53.739-12.707c0-4.88-1.998-9.681-5.938-14.269-2.797-3.257-6.291-5.956-10.387-8.023l-.527-.267C21.973.137 14.149-2.712 10.56-3.985c-.886.314-2.03.725-3.31 1.195v40.199h3.274v28.907l-30.996 8.54V37.409h2.282V13.7c-2.314 3.581-3.488 7.268-3.488 11.002v51.737l32.239-8.883 32.238 8.883zM-24.09 79.605V24.702c0-5.473 2.194-10.802 6.521-15.841 3.003-3.497 6.747-6.392 11.128-8.604l.528-.267c4.254-2.147 12.657-5.185 16.072-6.391l.401-.142.402.142c3.415 1.206 11.817 4.244 16.072 6.392l.527.266c4.38 2.21 8.125 5.105 11.13 8.604 4.326 5.038 6.52 10.368 6.52 15.841v54.903l-34.65-9.547z" style="fill:#1e22aa;fill-opacity:1;fill-rule:nonzero;stroke:none;stroke-width:.334335" transform="matrix(3.98802 0 0 -3.98802 171.487 417.96)"/></g><g style="stroke-width:.334335"><path d="M0 0q.742 0 1.395.238.653.237 1.113.652t.727.965q.268.549.268 1.173 0 .623-.268 1.172-.267.549-.727.965a3.4 3.4 0 0 1-1.113.653A4 4 0 0 1 0 6.055h-3.104V0Zm-4.232 9.231q.474.237.95.297.474.06.979.059H0q1.395 0 2.671-.489a7.2 7.2 0 0 0 2.242-1.351 6.5 6.5 0 0 0 1.543-2.063q.579-1.202.579-2.656T6.456.371a6.7 6.7 0 0 0-1.543-2.078 6.9 6.9 0 0 0-2.242-1.35A7.6 7.6 0 0 0 0-3.532h-3.104v-6.501q.059-.771.564-1.558t1.691-1.083a4.1 4.1 0 0 0-1.721-.446 3.6 3.6 0 0 0-1.662.327 4.5 4.5 0 0 0-.327-.505 24 24 0 0 1-.326-.445q-.149.207-.312.46a9 9 0 0 0-.312.52 3.54 3.54 0 0 0-1.677-.371 3.75 3.75 0 0 0-1.736.46q1.217.295 1.722 1.083.504.786.564 1.529v6.738q-.06.77-.564 1.543-.505.771-1.722 1.098.534.297 1.113.386.578.09 1.173.03V6.5q-.06.743-.564 1.529-.505.786-1.722 1.084a3.9 3.9 0 0 0 1.736.474 3.44 3.44 0 0 0 1.677-.356q.357.594.624.95.148-.179.326-.43.178-.253.327-.52" style="fill:#fff;fill-opacity:1;fill-rule:nonzero;stroke:none;stroke-width:.334335" transform="matrix(3.98802 0 0 -3.98802 155.557 195.923)"/></g><g style="stroke-width:.334335"><path d="M0 0h2.732c.449 0 .875.072 1.267.215q.584.213.991.58.406.368.642.85.229.473.229 1.01c0 .356-.077.696-.229 1.01a2.8 2.8 0 0 1-.643.85 3 3 0 0 1-.99.579 3.7 3.7 0 0 1-1.267.215H0Zm2.732-.746H-.746v6.801h3.478c.535 0 1.047-.087 1.522-.26a3.7 3.7 0 0 0 1.235-.726c.342-.309.615-.672.813-1.078.202-.417.305-.866.305-1.336s-.103-.92-.305-1.336A3.5 3.5 0 0 0 5.49.241a3.8 3.8 0 0 0-1.236-.727 4.4 4.4 0 0 0-1.522-.26m-5.392-11.92s.529-1.179.534-1.171c.108.143.509 1.145.509 1.145l.272-.135c.46-.212.969-.308 1.494-.293a3.7 3.7 0 0 1 .671.085q-.6.338-.943.87c-.368.573-.577 1.156-.622 1.731l-.001 6.902h3.478c.881 0 1.736.152 2.541.451a6.5 6.5 0 0 1 2.12 1.278A6.4 6.4 0 0 1 8.852.16c.359.747.541 1.587.541 2.495s-.182 1.748-.541 2.495a6.2 6.2 0 0 1-1.456 1.946 7.06 7.06 0 0 1-4.664 1.746H.429q-.482 0-.934-.057a2.6 2.6 0 0 1-.829-.26l-.319-.159s-.369.867-.479 1.022a88 88 0 0 1-.503-1.017l-.308.154a3.1 3.1 0 0 1-1.499.317 3.5 3.5 0 0 1-.702-.096q.637-.34.989-.888c.368-.574.577-1.146.622-1.7l.001-.03v-7.18l-.41.041a4.3 4.3 0 0 1-1.21-.051q.641-.347.995-.887c.37-.566.579-1.144.624-1.72l.001-6.781-.001-.015c-.045-.555-.254-1.126-.622-1.7a2.6 2.6 0 0 0-.983-.885q.34-.078.69-.084a3.2 3.2 0 0 1 1.504.331zm.507-2.487s-.779 1.444-.83 1.528c-.478-.187-.942-.255-1.478-.255-1.304 0-2.315.681-2.315.681s1.359.629 1.993 1.437c.341.433.468.916.505 1.342v6.723c-.034.419-.23.863-.503 1.339-.437.761-1.929 1.63-1.929 1.63s.962.557 2.432.484v6.356c-.037.427-.225.867-.505 1.343-.418.711-1.96 1.58-1.96 1.58s1.139.446 2.221.54A3.3 3.3 0 0 0-3 9.346c.176.281.831 1.369.831 1.369s.87-1.255.926-1.343c.249.096.395.122.645.153.331.042.676.063 1.027.063h2.303a7.8 7.8 0 0 0 5.16-1.935 6.9 6.9 0 0 0 1.631-2.18c.409-.849.616-1.797.616-2.818S9.932.685 9.523-.163a7.1 7.1 0 0 0-1.628-2.193A7.3 7.3 0 0 0 5.533-3.78a8 8 0 0 0-2.801-.498H0v-6.128c.034-.421.227-.874.505-1.356.443-.77 1.91-1.437 1.91-1.437s-1.143-.666-2.241-.666c-.534 0-.973.042-1.451.214-.059-.09-.876-1.502-.876-1.502" style="fill:#e793b7;fill-opacity:1;fill-rule:nonzero;stroke:none;stroke-width:.334335" transform="matrix(3.98802 0 0 -3.98802 144.664 194.436)"/></g><g style="stroke-width:.334335"><path d="M0 0q.534.297 1.113.386a4.7 4.7 0 0 0 1.173.03v6.767q-.06.741-.564 1.529Q1.216 9.498 0 9.795a3.9 3.9 0 0 0 1.737.475 3.45 3.45 0 0 0 1.677-.356q.356.594.623.95a7 7 0 0 0 .653-.95 3.66 3.66 0 0 0 1.603.356h6.924q.831 0 1.262.148.43.149.608.446.267-.239.401-.624.133-.386.163-.801t-.089-.831a2 2 0 0 0-.386-.742 2.8 2.8 0 0 0 .505-1.736q-.03-.966-.594-1.678-.297 1.217-1.083 1.722-.787.504-1.558.564H5.818V.683h2.773q.77.059 1.543.564.771.504 1.098 1.692a4.1 4.1 0 0 0 .446-1.722 3.4 3.4 0 0 0-.356-1.662q.295-.15.534-.327.237-.178.445-.326a11 11 0 0 0-.979-.624 3.46 3.46 0 0 0 .356-1.677 4.15 4.15 0 0 0-.446-1.736q-.327 1.217-1.098 1.721-.772.506-1.543.564H5.818v-6.5q.058-.772.564-1.558.504-.787 1.692-1.084a4.1 4.1 0 0 0-1.722-.445 3.6 3.6 0 0 0-1.662.327 4 4 0 0 0-.327-.505 35 35 0 0 1-.326-.445q-.149.207-.312.46a8 8 0 0 0-.311.519 3.6 3.6 0 0 0-1.677-.371 3.76 3.76 0 0 0-1.737.46q1.217.297 1.722 1.084t.564 1.528v6.738q-.06.772-.564 1.544Q1.216-.327 0 0" style="fill:#fff;fill-opacity:1;fill-rule:nonzero;stroke:none;stroke-width:.334335" transform="matrix(3.98802 0 0 -3.98802 242.842 331.9)"/></g><g style="stroke-width:.334335"><path d="M0 0s.45-.954.553-1.112c.003-.005.576 1.095.576 1.095l.232-.119a3.3 3.3 0 0 1 1.493-.292q.339.011.672.085a2.6 2.6 0 0 0-.944.87c-.368.573-.577 1.156-.621 1.731L1.96 9.159h3.145c.605-.045 1.183-.255 1.748-.624q.532-.35.879-.978.076.341.088.693a3.1 3.1 0 0 1-.317 1.498l-.121.24s1.15.558 1.155.562l-1.147.541.113.267c.227.455.334.954.317 1.483a3.6 3.6 0 0 1-.091.693 2.7 2.7 0 0 0-.876-.964c-.566-.369-1.144-.579-1.719-.623l-3.174-.001v6.801h7c.604-.046 1.186-.255 1.76-.623q.61-.393.962-1.135.128.363.141.788a2.44 2.44 0 0 1-.439 1.513l-.159.231.177.217c.147.179.251.379.316.609.067.233.092.47.076.702a2.8 2.8 0 0 1-.144.705 1.3 1.3 0 0 1-.076.18 1.8 1.8 0 0 0-.459-.232c-.329-.114-.781-.169-1.383-.169H2.807c-.515 0-1-.107-1.441-.319l-.237-.11-.564 1.034c-.098-.151-.548-1.042-.548-1.042l-.255.12a3.1 3.1 0 0 1-1.499.318 3.5 3.5 0 0 1-.702-.096q.637-.341.989-.888c.368-.575.577-1.147.622-1.701l.001-.03V11.64l-.41.04a4.3 4.3 0 0 1-1.21-.05q.642-.349.995-.888c.37-.565.58-1.144.624-1.719l.001-6.782-.001-.015C-.873 1.672-1.082 1.1-1.45.527a2.6 2.6 0 0 0-.982-.886 3.3 3.3 0 0 1 .689-.084 3.2 3.2 0 0 1 1.504.332zm.552-2.495S-.264-1.034-.314-.951c-.478-.186-.904-.237-1.441-.237-1.238 0-2.282.68-2.282.68S-2.711.023-2.077.93c.315.451.467.915.504 1.342v6.722c-.033.42-.216.872-.503 1.34-.47.765-1.937 1.605-1.937 1.605s.958.508 2.44.508v6.356a2.75 2.75 0 0 1-.505 1.344c-.542.773-1.972 1.662-1.972 1.662s1.169.47 2.289.47c.546 0 .991-.046 1.472-.233l.825 1.326s.867-1.228.924-1.317c.454.171.839.224 1.347.224h6.925c.51 0 .898.031 1.14.128.563.225.903.671.903.671s.763-.786.763-1.976c0-.99-.268-1.414-.397-1.614a3.2 3.2 0 0 0 .427-1.734c-.031-1.123-.893-2.117-.893-2.117s-.389 1.185-1.358 1.859a2.8 2.8 0 0 1-1.386.506l-6.226-.001v-5.309h2.4c.42.033.889.189 1.34.503a4.45 4.45 0 0 1 1.353 1.552s.767-.726.767-1.881c0-.531-.032-.952-.216-1.427l1.477-.9s-1.427-.798-1.511-.848c.186-.479.25-.925.25-1.465 0-1.093-.773-2.142-.773-2.142S7.238 7.37 6.445 7.911a2.8 2.8 0 0 1-1.368.504l-2.372-.001V2.286c.034-.421.216-.881.505-1.356C3.687.147 5.221-.508 5.221-.508s-1.078-.666-2.342-.666c-.534 0-.975.034-1.453.207-.059-.091-.874-1.528-.874-1.528" style="fill:#e793b7;fill-opacity:1;fill-rule:nonzero;stroke:none;stroke-width:.334335" transform="matrix(3.98802 0 0 -3.98802 256.74 378.305)"/></g><g style="stroke-width:.334335"><path d="M0 0a.451.451 0 1 0 .902 0A.451.451 0 0 0 0 0m1.717.525c.242.248.495.81.413.892-.036.036-.154.056-.201.061-.005.046-.025.165-.061.2-.082.082-.644-.17-.892-.412-.005.346-.224.922-.34.922-.05 0-.148-.069-.185-.098-.036.029-.134.098-.185.098-.116 0-.334-.576-.339-.922-.248.242-.81.494-.892.412-.036-.035-.056-.154-.061-.2-.047-.005-.165-.025-.201-.061-.082-.082.171-.644.412-.892-.346-.005-.922-.224-.922-.34 0-.05.069-.148.099-.185-.03-.036-.099-.134-.099-.185 0-.116.576-.335.922-.339-.241-.249-.494-.811-.412-.893.036-.035.154-.056.201-.061.005-.046.025-.164.061-.2.082-.082.644.171.892.412.005-.346.223-.922.339-.922.051 0 .149.069.185.098.037-.029.135-.098.185-.098.116 0 .335.576.34.922.248-.241.81-.494.892-.412.036.036.056.154.061.2.047.005.165.026.201.061.082.082-.171.644-.413.893.347.004.923.223.923.339 0 .051-.069.149-.099.185.03.037.099.135.099.185 0 .116-.576.335-.923.34" style="fill:#fff;fill-opacity:1;fill-rule:nonzero;stroke:none;stroke-width:.334335" transform="matrix(3.98802 0 0 -3.98802 314.964 184.968)"/></g><g style="stroke-width:.334335"><path d="M0 0a.451.451 0 1 1-.903 0A.451.451 0 0 1 0 0" style="fill:#f178bd;fill-opacity:1;fill-rule:nonzero;stroke:none;stroke-width:.334335" transform="matrix(3.98802 0 0 -3.98802 318.565 184.968)"/></g><g style="stroke-width:.334335"><path d="M0 0a.452.452 0 1 0 .904 0A.452.452 0 0 0 0 0m1.717.525c.242.248.495.81.413.892-.036.036-.154.056-.201.061-.005.046-.025.165-.061.2-.082.082-.644-.17-.892-.412-.005.346-.224.923-.34.923-.05 0-.148-.07-.185-.099-.036.029-.134.099-.185.099-.116 0-.334-.577-.339-.923-.248.242-.81.494-.892.412-.036-.035-.056-.154-.061-.2-.047-.005-.165-.025-.201-.061-.082-.082.171-.644.412-.892-.346-.005-.922-.224-.922-.34 0-.051.069-.149.099-.185-.03-.036-.099-.134-.099-.185 0-.116.576-.334.922-.339-.241-.249-.494-.811-.412-.893.036-.035.154-.056.201-.061.005-.046.025-.164.061-.2.082-.082.644.171.892.412.005-.346.223-.922.339-.922.051 0 .149.069.185.098.037-.029.135-.098.185-.098.116 0 .335.576.34.922.248-.241.81-.494.892-.412.036.036.056.154.061.2.047.005.165.026.201.061.082.082-.171.644-.413.893.347.005.923.223.923.339 0 .051-.069.149-.099.185.03.036.099.134.099.185 0 .116-.576.335-.923.34" style="fill:#fff;fill-opacity:1;fill-rule:nonzero;stroke:none;stroke-width:.334335" transform="matrix(3.98802 0 0 -3.98802 314.964 207.302)"/></g><g style="stroke-width:.334335"><path d="M0 0a.452.452 0 1 1-.904 0A.452.452 0 0 1 0 0" style="fill:#f178bd;fill-opacity:1;fill-rule:nonzero;stroke:none;stroke-width:.334335" transform="matrix(3.98802 0 0 -3.98802 318.565 207.302)"/></g><g style="stroke-width:.334335"><path d="M0 0a.451.451 0 1 0 .902 0A.451.451 0 0 0 0 0m1.717.524c.242.249.495.811.413.893-.036.035-.154.056-.201.061-.005.046-.025.164-.061.2-.082.082-.644-.171-.892-.412-.005.346-.224.922-.34.922-.05 0-.148-.069-.185-.098-.036.029-.134.098-.185.098-.116 0-.334-.576-.339-.922-.248.241-.81.494-.892.412-.036-.036-.056-.154-.061-.2-.047-.005-.165-.026-.201-.061-.082-.082.171-.644.412-.893-.346-.004-.922-.223-.922-.339 0-.051.069-.149.099-.185-.03-.036-.099-.134-.099-.185 0-.116.576-.335.922-.339-.241-.249-.494-.811-.412-.893.036-.036.154-.056.201-.061.005-.046.025-.165.061-.2.082-.082.644.17.892.412.005-.346.223-.923.339-.923.051 0 .149.07.185.099.037-.029.135-.099.185-.099.116 0 .335.577.34.923.248-.242.81-.494.892-.412.036.035.056.154.061.2.047.005.165.025.201.061.082.082-.171.644-.413.893.347.004.923.223.923.339 0 .051-.069.149-.099.185.03.036.099.134.099.185 0 .116-.576.335-.923.339" style="fill:#fff;fill-opacity:1;fill-rule:nonzero;stroke:none;stroke-width:.334335" transform="matrix(3.98802 0 0 -3.98802 314.964 229.636)"/></g><g style="stroke-width:.334335"><path d="M0 0a.451.451 0 1 1-.903 0A.451.451 0 0 1 0 0" style="fill:#f178bd;fill-opacity:1;fill-rule:nonzero;stroke:none;stroke-width:.334335" transform="matrix(3.98802 0 0 -3.98802 318.565 229.636)"/></g><g style="stroke-width:.334335"><path d="M0 0a.452.452 0 1 0 .904 0A.452.452 0 0 0 0 0m2.64.185c0 .116-.576.335-.923.34.242.248.495.81.413.892-.036.036-.154.056-.201.061-.005.046-.025.165-.061.2-.082.082-.644-.17-.892-.412-.005.346-.224.923-.34.923-.05 0-.148-.07-.185-.099-.036.029-.134.099-.185.099-.116 0-.334-.577-.339-.923-.248.242-.81.494-.892.412-.036-.035-.056-.154-.061-.2-.047-.005-.165-.025-.201-.061-.082-.082.171-.644.412-.892-.346-.005-.922-.224-.922-.34 0-.051.069-.149.099-.185-.03-.036-.099-.134-.099-.185 0-.116.576-.335.922-.339-.241-.249-.494-.811-.412-.893.036-.036.154-.056.201-.061.005-.046.025-.165.061-.2.082-.082.644.17.892.412.005-.346.223-.922.339-.922.051 0 .149.069.185.098.037-.029.135-.098.185-.098.116 0 .335.576.34.922.248-.242.81-.494.892-.412.036.035.056.154.061.2.047.005.165.025.201.061.082.082-.171.644-.413.893.347.004.923.223.923.339 0 .051-.069.149-.099.185.03.036.099.134.099.185" style="fill:#fff;fill-opacity:1;fill-rule:nonzero;stroke:none;stroke-width:.334335" transform="matrix(3.98802 0 0 -3.98802 314.964 162.634)"/></g><g style="stroke-width:.334335"><path d="M0 0a.452.452 0 1 1-.904 0A.452.452 0 0 1 0 0" style="fill:#f178bd;fill-opacity:1;fill-rule:nonzero;stroke:none;stroke-width:.334335" transform="matrix(3.98802 0 0 -3.98802 318.565 162.634)"/></g><g style="stroke-width:.334335"><path d="M0 0a.451.451 0 1 0 .902 0A.451.451 0 0 0 0 0m1.717.524c.242.249.495.811.413.893-.036.036-.154.056-.201.061-.005.046-.025.165-.061.2-.082.082-.644-.171-.892-.412-.005.346-.224.922-.34.922-.05 0-.148-.069-.185-.098-.036.029-.134.098-.185.098-.116 0-.334-.576-.339-.922-.248.241-.81.494-.892.412-.036-.035-.056-.154-.061-.2-.047-.005-.165-.025-.201-.061-.082-.082.171-.644.412-.893-.346-.004-.922-.223-.922-.339 0-.051.069-.149.099-.185-.03-.036-.099-.134-.099-.185 0-.116.576-.335.922-.34-.241-.248-.494-.81-.412-.892.036-.036.154-.056.201-.061.005-.046.025-.165.061-.2.082-.082.644.17.892.412.005-.346.223-.923.339-.923.051 0 .149.07.185.099.037-.029.135-.099.185-.099.116 0 .335.577.34.923.248-.242.81-.494.892-.412.036.035.056.154.061.2.047.005.165.025.201.061.082.082-.171.644-.413.892.347.005.923.224.923.34 0 .051-.069.149-.099.185.03.036.099.134.099.185 0 .116-.576.335-.923.339" style="fill:#fff;fill-opacity:1;fill-rule:nonzero;stroke:none;stroke-width:.334335" transform="matrix(3.98802 0 0 -3.98802 314.964 251.97)"/></g><g style="stroke-width:.334335"><path d="M0 0a.451.451 0 1 1-.903 0A.451.451 0 0 1 0 0" style="fill:#f178bd;fill-opacity:1;fill-rule:nonzero;stroke:none;stroke-width:.334335" transform="matrix(3.98802 0 0 -3.98802 318.565 251.97)"/></g><g style="stroke-width:.334335"><path d="M0 0a.451.451 0 1 0 .902 0A.451.451 0 0 0 0 0m1.718.525c.241.248.494.81.412.892-.036.036-.154.056-.201.061-.005.046-.025.165-.061.2-.082.082-.644-.17-.892-.412-.005.346-.224.922-.34.922-.05 0-.148-.069-.185-.098-.036.029-.134.098-.184.098-.117 0-.335-.576-.34-.922-.248.242-.81.494-.892.412-.036-.035-.056-.154-.061-.2-.047-.005-.165-.025-.201-.061-.082-.082.171-.644.412-.892-.346-.005-.922-.224-.922-.34 0-.05.069-.148.099-.185-.03-.036-.099-.134-.099-.185 0-.116.576-.335.922-.339-.241-.249-.494-.811-.412-.893.036-.035.154-.056.201-.061.005-.046.025-.164.061-.2.082-.082.644.171.892.412.005-.346.223-.922.34-.922.05 0 .148.069.184.098.037-.029.135-.098.185-.098.116 0 .335.576.34.922.248-.241.81-.494.892-.412.036.036.056.154.061.2.047.005.165.026.201.061.082.082-.171.644-.412.893.346.004.922.223.922.339 0 .051-.069.149-.099.185.03.037.099.135.099.185 0 .116-.576.335-.922.34" style="fill:#fff;fill-opacity:1;fill-rule:nonzero;stroke:none;stroke-width:.334335" transform="matrix(3.98802 0 0 -3.98802 288.293 184.968)"/></g><g style="stroke-width:.334335"><path d="M0 0a.451.451 0 1 1-.903 0A.451.451 0 0 1 0 0" style="fill:#f178bd;fill-opacity:1;fill-rule:nonzero;stroke:none;stroke-width:.334335" transform="matrix(3.98802 0 0 -3.98802 291.893 184.968)"/></g><g style="stroke-width:.334335"><path d="M0 0a.452.452 0 1 0 .904 0A.452.452 0 0 0 0 0m1.718.525c.241.248.494.81.412.892-.036.036-.154.056-.201.061-.005.046-.025.165-.061.2-.082.082-.644-.17-.892-.412-.005.346-.224.923-.34.923-.05 0-.148-.07-.185-.099-.036.029-.134.099-.184.099-.117 0-.335-.577-.34-.923-.248.242-.81.494-.892.412-.036-.035-.056-.154-.061-.2-.047-.005-.165-.025-.201-.061-.082-.082.171-.644.412-.892-.346-.005-.922-.224-.922-.34 0-.051.069-.149.099-.185-.03-.036-.099-.134-.099-.185 0-.116.576-.334.922-.339-.241-.249-.494-.811-.412-.893.036-.035.154-.056.201-.061.005-.046.025-.164.061-.2.082-.082.644.171.892.412.005-.346.223-.922.34-.922.05 0 .148.069.184.098.037-.029.135-.098.185-.098.116 0 .335.576.34.922.248-.241.81-.494.892-.412.036.036.056.154.061.2.047.005.165.026.201.061.082.082-.171.644-.412.893.346.005.922.223.922.339 0 .051-.069.149-.099.185.03.036.099.134.099.185 0 .116-.576.335-.922.34" style="fill:#fff;fill-opacity:1;fill-rule:nonzero;stroke:none;stroke-width:.334335" transform="matrix(3.98802 0 0 -3.98802 288.293 207.302)"/></g><g style="stroke-width:.334335"><path d="M0 0a.452.452 0 1 1-.904 0A.452.452 0 0 1 0 0" style="fill:#f178bd;fill-opacity:1;fill-rule:nonzero;stroke:none;stroke-width:.334335" transform="matrix(3.98802 0 0 -3.98802 291.893 207.302)"/></g><g style="stroke-width:.334335"><path d="M0 0a.451.451 0 1 0 .902 0A.451.451 0 0 0 0 0m1.718.524c.241.249.494.811.412.893-.036.035-.154.056-.201.061-.005.046-.025.164-.061.2-.082.082-.644-.171-.892-.412-.005.346-.224.922-.34.922-.05 0-.148-.069-.185-.098-.036.029-.134.098-.184.098-.117 0-.335-.576-.34-.922-.248.241-.81.494-.892.412-.036-.036-.056-.154-.061-.2-.047-.005-.165-.026-.201-.061-.082-.082.171-.644.412-.893-.346-.004-.922-.223-.922-.339 0-.051.069-.149.099-.185-.03-.036-.099-.134-.099-.185 0-.116.576-.335.922-.339-.241-.249-.494-.811-.412-.893.036-.036.154-.056.201-.061.005-.046.025-.165.061-.2.082-.082.644.17.892.412.005-.346.223-.923.34-.923.05 0 .148.07.184.099.037-.029.135-.099.185-.099.116 0 .335.577.34.923.248-.242.81-.494.892-.412.036.035.056.154.061.2.047.005.165.025.201.061.082.082-.171.644-.412.893.346.004.922.223.922.339 0 .051-.069.149-.099.185.03.036.099.134.099.185 0 .116-.576.335-.922.339" style="fill:#fff;fill-opacity:1;fill-rule:nonzero;stroke:none;stroke-width:.334335" transform="matrix(3.98802 0 0 -3.98802 288.293 229.636)"/></g><g style="stroke-width:.334335"><path d="M0 0a.451.451 0 1 1-.903 0A.451.451 0 0 1 0 0" style="fill:#f178bd;fill-opacity:1;fill-rule:nonzero;stroke:none;stroke-width:.334335" transform="matrix(3.98802 0 0 -3.98802 291.893 229.636)"/></g><g style="stroke-width:.334335"><path d="M0 0a.452.452 0 1 0 .904 0A.452.452 0 0 0 0 0m1.718.525c.241.248.494.81.412.892-.036.036-.154.056-.201.061-.005.046-.025.165-.061.2-.082.082-.644-.17-.892-.412-.005.346-.224.923-.34.923-.05 0-.148-.07-.185-.099-.036.029-.134.099-.184.099-.117 0-.335-.577-.34-.923-.248.242-.81.494-.892.412-.036-.035-.056-.154-.061-.2-.047-.005-.165-.025-.201-.061-.082-.082.171-.644.412-.892-.346-.005-.922-.224-.922-.34 0-.051.069-.149.099-.185-.03-.036-.099-.134-.099-.185 0-.116.576-.335.922-.339-.241-.249-.494-.811-.412-.893.036-.036.154-.056.201-.061.005-.046.025-.165.061-.2.082-.082.644.17.892.412.005-.346.223-.922.34-.922.05 0 .148.069.184.098.037-.029.135-.098.185-.098.116 0 .335.576.34.922.248-.242.81-.494.892-.412.036.035.056.154.061.2.047.005.165.025.201.061.082.082-.171.644-.412.893.346.004.922.223.922.339 0 .051-.069.149-.099.185.03.036.099.134.099.185 0 .116-.576.335-.922.34" style="fill:#fff;fill-opacity:1;fill-rule:nonzero;stroke:none;stroke-width:.334335" transform="matrix(3.98802 0 0 -3.98802 288.293 162.634)"/></g><g style="stroke-width:.334335"><path d="M0 0a.452.452 0 1 1-.904 0A.452.452 0 0 1 0 0" style="fill:#f178bd;fill-opacity:1;fill-rule:nonzero;stroke:none;stroke-width:.334335" transform="matrix(3.98802 0 0 -3.98802 291.893 162.634)"/></g><g style="stroke-width:.334335"><path d="M0 0a.451.451 0 1 0 .902 0A.451.451 0 0 0 0 0m1.718.524c.241.249.494.811.412.893-.036.036-.154.056-.201.061-.005.046-.025.165-.061.2-.082.082-.644-.171-.892-.412-.005.346-.224.922-.34.922-.05 0-.148-.069-.185-.098-.036.029-.134.098-.184.098-.117 0-.335-.576-.34-.922-.248.241-.81.494-.892.412-.036-.035-.056-.154-.061-.2-.047-.005-.165-.025-.201-.061-.082-.082.171-.644.412-.893-.346-.004-.922-.223-.922-.339 0-.051.069-.149.099-.185-.03-.036-.099-.134-.099-.185 0-.116.576-.335.922-.34-.241-.248-.494-.81-.412-.892.036-.036.154-.056.201-.061.005-.046.025-.165.061-.2.082-.082.644.17.892.412.005-.346.223-.923.34-.923.05 0 .148.07.184.099.037-.029.135-.099.185-.099.116 0 .335.577.34.923.248-.242.81-.494.892-.412.036.035.056.154.061.2.047.005.165.025.201.061.082.082-.171.644-.412.892.346.005.922.224.922.34 0 .051-.069.149-.099.185.03.036.099.134.099.185 0 .116-.576.335-.922.339" style="fill:#fff;fill-opacity:1;fill-rule:nonzero;stroke:none;stroke-width:.334335" transform="matrix(3.98802 0 0 -3.98802 288.293 251.97)"/></g><g style="stroke-width:.334335"><path d="M0 0a.451.451 0 1 1-.903 0A.451.451 0 0 1 0 0" style="fill:#f178bd;fill-opacity:1;fill-rule:nonzero;stroke:none;stroke-width:.334335" transform="matrix(3.98802 0 0 -3.98802 291.893 251.97)"/></g><g style="stroke-width:.334335"><path d="M0 0a.451.451 0 1 0 .902 0A.451.451 0 0 0 0 0m1.718.525c.241.248.494.81.412.892-.036.036-.154.056-.201.061-.005.046-.025.165-.061.2-.082.082-.644-.17-.892-.412-.005.346-.224.922-.34.922-.05 0-.148-.069-.185-.098-.036.029-.134.098-.184.098-.117 0-.335-.576-.34-.922-.248.242-.81.494-.892.412-.036-.035-.056-.154-.061-.2-.047-.005-.165-.025-.201-.061-.082-.082.171-.644.412-.892-.346-.005-.922-.224-.922-.34 0-.05.069-.148.099-.185-.03-.036-.099-.134-.099-.185 0-.116.576-.335.922-.339-.241-.249-.494-.811-.412-.893.036-.035.154-.056.201-.061.005-.046.025-.164.061-.2.082-.082.644.171.892.412.005-.346.223-.922.34-.922.05 0 .148.069.184.098.037-.029.135-.098.185-.098.116 0 .335.576.34.922.248-.241.81-.494.892-.412.036.036.056.154.061.2.047.005.165.026.201.061.082.082-.171.644-.412.893.346.004.922.223.922.339 0 .051-.069.149-.099.185.03.037.099.135.099.185 0 .116-.576.335-.922.34" style="fill:#fff;fill-opacity:1;fill-rule:nonzero;stroke:none;stroke-width:.334335" transform="matrix(3.98802 0 0 -3.98802 261.621 184.968)"/></g><g style="stroke-width:.334335"><path d="M0 0a.451.451 0 1 1-.903 0A.451.451 0 0 1 0 0" style="fill:#f178bd;fill-opacity:1;fill-rule:nonzero;stroke:none;stroke-width:.334335" transform="matrix(3.98802 0 0 -3.98802 265.222 184.968)"/></g><g style="stroke-width:.334335"><path d="M0 0a.452.452 0 1 0 .904 0A.452.452 0 0 0 0 0m1.718.525c.241.248.494.81.412.892-.036.036-.154.056-.201.061-.005.046-.025.165-.061.2-.082.082-.644-.17-.892-.412-.005.346-.224.923-.34.923-.05 0-.148-.07-.185-.099-.036.029-.134.099-.184.099-.117 0-.335-.577-.34-.923-.248.242-.81.494-.892.412-.036-.035-.056-.154-.061-.2-.047-.005-.165-.025-.201-.061-.082-.082.171-.644.412-.892-.346-.005-.922-.224-.922-.34 0-.051.069-.149.099-.185-.03-.036-.099-.134-.099-.185 0-.116.576-.334.922-.339-.241-.249-.494-.811-.412-.893.036-.035.154-.056.201-.061.005-.046.025-.164.061-.2.082-.082.644.171.892.412.005-.346.223-.922.34-.922.05 0 .148.069.184.098.037-.029.135-.098.185-.098.116 0 .335.576.34.922.248-.241.81-.494.892-.412.036.036.056.154.061.2.047.005.165.026.201.061.082.082-.171.644-.412.893.346.004.922.223.922.339 0 .051-.069.149-.099.185.03.036.099.134.099.185 0 .116-.576.335-.922.34" style="fill:#fff;fill-opacity:1;fill-rule:nonzero;stroke:none;stroke-width:.334335" transform="matrix(3.98802 0 0 -3.98802 261.621 207.302)"/></g><g style="stroke-width:.334335"><path d="M0 0a.452.452 0 1 1-.904 0A.452.452 0 0 1 0 0" style="fill:#f178bd;fill-opacity:1;fill-rule:nonzero;stroke:none;stroke-width:.334335" transform="matrix(3.98802 0 0 -3.98802 265.222 207.302)"/></g><g style="stroke-width:.334335"><path d="M0 0a.451.451 0 1 0 .902 0A.451.451 0 0 0 0 0m1.718.524c.241.249.494.811.412.893-.036.035-.154.056-.201.061-.005.046-.025.164-.061.2-.082.082-.644-.171-.892-.412-.005.346-.224.922-.34.922-.05 0-.148-.069-.185-.098-.036.029-.134.098-.184.098-.117 0-.335-.576-.34-.922-.248.241-.81.494-.892.412-.036-.036-.056-.154-.061-.2-.047-.005-.165-.026-.201-.061-.082-.082.171-.644.412-.893-.346-.004-.922-.223-.922-.339 0-.051.069-.149.099-.185-.03-.036-.099-.134-.099-.185 0-.116.576-.335.922-.339-.241-.249-.494-.811-.412-.893.036-.036.154-.056.201-.061.005-.046.025-.165.061-.2.082-.082.644.17.892.412.005-.346.223-.923.34-.923.05 0 .148.07.184.099.037-.029.135-.099.185-.099.116 0 .335.577.34.923.248-.242.81-.494.892-.412.036.035.056.154.061.2.047.005.165.025.201.061.082.082-.171.644-.412.893.346.004.922.223.922.339 0 .051-.069.149-.099.185.03.036.099.134.099.185 0 .116-.576.335-.922.339" style="fill:#fff;fill-opacity:1;fill-rule:nonzero;stroke:none;stroke-width:.334335" transform="matrix(3.98802 0 0 -3.98802 261.621 229.636)"/></g><g style="stroke-width:.334335"><path d="M0 0a.451.451 0 1 1-.903 0A.451.451 0 0 1 0 0" style="fill:#f178bd;fill-opacity:1;fill-rule:nonzero;stroke:none;stroke-width:.334335" transform="matrix(3.98802 0 0 -3.98802 265.222 229.636)"/></g><g style="stroke-width:.334335"><path d="M0 0a.452.452 0 1 0 .904 0A.452.452 0 0 0 0 0m1.718.525c.241.248.494.81.412.892-.036.036-.154.056-.201.061-.005.046-.025.165-.061.2-.082.082-.644-.17-.892-.412-.005.346-.224.923-.34.923-.05 0-.148-.07-.185-.099-.036.029-.134.099-.184.099-.117 0-.335-.577-.34-.923-.248.242-.81.494-.892.412-.036-.035-.056-.154-.061-.2-.047-.005-.165-.025-.201-.061-.082-.082.171-.644.412-.892-.346-.005-.922-.224-.922-.34 0-.051.069-.149.099-.185-.03-.036-.099-.134-.099-.185 0-.116.576-.335.922-.339-.241-.249-.494-.811-.412-.893.036-.036.154-.056.201-.061.005-.046.025-.165.061-.2.082-.082.644.17.892.412.005-.346.223-.922.34-.922.05 0 .148.069.184.098.037-.029.135-.098.185-.098.116 0 .335.576.34.922.248-.242.81-.494.892-.412.036.035.056.154.061.2.047.005.165.025.201.061.082.082-.171.644-.412.893.346.004.922.223.922.339 0 .051-.069.149-.099.185.03.036.099.134.099.185 0 .116-.576.335-.922.34" style="fill:#fff;fill-opacity:1;fill-rule:nonzero;stroke:none;stroke-width:.334335" transform="matrix(3.98802 0 0 -3.98802 261.621 162.634)"/></g><g style="stroke-width:.334335"><path d="M0 0a.452.452 0 1 1-.904 0A.452.452 0 0 1 0 0" style="fill:#f178bd;fill-opacity:1;fill-rule:nonzero;stroke:none;stroke-width:.334335" transform="matrix(3.98802 0 0 -3.98802 265.222 162.634)"/></g><g style="stroke-width:.334335"><path d="M0 0a.451.451 0 1 0 .902 0A.451.451 0 0 0 0 0m1.718.524c.241.249.494.811.412.893-.036.036-.154.056-.201.061-.005.046-.025.165-.061.2-.082.082-.644-.171-.892-.412-.005.346-.224.922-.34.922-.05 0-.148-.069-.185-.098-.036.029-.134.098-.184.098-.117 0-.335-.576-.34-.922-.248.241-.81.494-.892.412-.036-.035-.056-.154-.061-.2-.047-.005-.165-.025-.201-.061-.082-.082.171-.644.412-.893-.346-.004-.922-.223-.922-.339 0-.051.069-.149.099-.185-.03-.036-.099-.134-.099-.185 0-.116.576-.335.922-.34-.241-.248-.494-.81-.412-.892.036-.036.154-.056.201-.061.005-.046.025-.165.061-.2.082-.082.644.17.892.412.005-.346.223-.923.34-.923.05 0 .148.07.184.099.037-.029.135-.099.185-.099.116 0 .335.577.34.923.248-.242.81-.494.892-.412.036.035.056.154.061.2.047.005.165.025.201.061.082.082-.171.644-.412.892.346.005.922.224.922.34 0 .051-.069.149-.099.185.03.036.099.134.099.185 0 .116-.576.335-.922.339" style="fill:#fff;fill-opacity:1;fill-rule:nonzero;stroke:none;stroke-width:.334335" transform="matrix(3.98802 0 0 -3.98802 261.621 251.97)"/></g><g style="stroke-width:.334335"><path d="M0 0a.451.451 0 1 1-.903 0A.451.451 0 0 1 0 0" style="fill:#f178bd;fill-opacity:1;fill-rule:nonzero;stroke:none;stroke-width:.334335" transform="matrix(3.98802 0 0 -3.98802 265.222 251.97)"/></g><g style="stroke-width:.334335"><path d="M0 0a.451.451 0 1 0 .902 0A.451.451 0 0 0 0 0m1.718.525c.241.248.494.81.412.892-.036.036-.154.056-.201.061-.005.046-.025.165-.061.2-.082.082-.644-.17-.892-.412-.005.346-.224.922-.34.922-.05 0-.148-.069-.185-.098-.036.029-.134.098-.184.098-.117 0-.335-.576-.34-.922-.248.242-.81.494-.892.412-.036-.035-.056-.154-.061-.2-.047-.005-.165-.025-.201-.061-.082-.082.171-.644.412-.892-.346-.005-.922-.224-.922-.34 0-.05.069-.148.099-.185-.03-.036-.099-.134-.099-.185 0-.116.576-.335.922-.339-.241-.249-.494-.811-.412-.893.036-.035.154-.056.201-.061.005-.046.025-.164.061-.2.082-.082.644.171.892.412.005-.346.223-.922.34-.922.05 0 .148.069.184.098.037-.029.135-.098.185-.098.116 0 .335.576.34.922.248-.241.81-.494.892-.412.036.036.056.154.061.2.047.005.165.026.201.061.082.082-.171.644-.412.893.346.004.922.223.922.339 0 .051-.069.149-.099.185.03.037.099.135.099.185 0 .116-.576.335-.922.34" style="fill:#fff;fill-opacity:1;fill-rule:nonzero;stroke:none;stroke-width:.334335" transform="matrix(3.98802 0 0 -3.98802 234.95 184.968)"/></g><g style="stroke-width:.334335"><path d="M0 0a.451.451 0 1 1-.902 0A.451.451 0 0 1 0 0" style="fill:#f178bd;fill-opacity:1;fill-rule:nonzero;stroke:none;stroke-width:.334335" transform="matrix(3.98802 0 0 -3.98802 238.55 184.968)"/></g><g style="stroke-width:.334335"><path d="M0 0a.452.452 0 1 0 .904 0A.452.452 0 0 0 0 0m1.718.525c.241.248.494.81.412.892-.036.036-.154.056-.201.061-.005.046-.025.165-.061.2-.082.082-.644-.17-.892-.412-.005.346-.224.923-.34.923-.05 0-.148-.07-.185-.099-.036.029-.134.099-.184.099-.117 0-.335-.577-.34-.923-.248.242-.81.494-.892.412-.036-.035-.056-.154-.061-.2-.047-.005-.165-.025-.201-.061-.082-.082.171-.644.412-.892-.346-.005-.922-.224-.922-.34 0-.051.069-.149.099-.185-.03-.036-.099-.134-.099-.185 0-.116.576-.334.922-.339-.241-.249-.494-.811-.412-.893.036-.035.154-.056.201-.061.005-.046.025-.164.061-.2.082-.082.644.171.892.412.005-.346.223-.922.34-.922.05 0 .148.069.184.098.037-.029.135-.098.185-.098.116 0 .335.576.34.922.248-.241.81-.494.892-.412.036.036.056.154.061.2.047.005.165.026.201.061.082.082-.171.644-.412.893.346.005.922.223.922.339 0 .051-.069.149-.099.185.03.036.099.134.099.185 0 .116-.576.335-.922.34" style="fill:#fff;fill-opacity:1;fill-rule:nonzero;stroke:none;stroke-width:.334335" transform="matrix(3.98802 0 0 -3.98802 234.95 207.302)"/></g><g style="stroke-width:.334335"><path d="M0 0a.452.452 0 1 1-.904 0A.452.452 0 0 1 0 0" style="fill:#f178bd;fill-opacity:1;fill-rule:nonzero;stroke:none;stroke-width:.334335" transform="matrix(3.98802 0 0 -3.98802 238.55 207.302)"/></g><g style="stroke-width:.334335"><path d="M0 0a.451.451 0 1 0 .902 0A.451.451 0 0 0 0 0m1.718.524c.241.249.494.811.412.893-.036.035-.154.056-.201.061-.005.046-.025.164-.061.2-.082.082-.644-.171-.892-.412-.005.346-.224.922-.34.922-.05 0-.148-.069-.185-.098-.036.029-.134.098-.184.098-.117 0-.335-.576-.34-.922-.248.241-.81.494-.892.412-.036-.036-.056-.154-.061-.2-.047-.005-.165-.026-.201-.061-.082-.082.171-.644.412-.893-.346-.004-.922-.223-.922-.339 0-.051.069-.149.099-.185-.03-.036-.099-.134-.099-.185 0-.116.576-.335.922-.339-.241-.249-.494-.811-.412-.893.036-.036.154-.056.201-.061.005-.046.025-.165.061-.2.082-.082.644.17.892.412.005-.346.223-.923.34-.923.05 0 .148.07.184.099.037-.029.135-.099.185-.099.116 0 .335.577.34.923.248-.242.81-.494.892-.412.036.035.056.154.061.2.047.005.165.025.201.061.082.082-.171.644-.413.893.347.004.923.223.923.339 0 .051-.069.149-.099.185.03.036.099.134.099.185 0 .116-.576.335-.922.339" style="fill:#fff;fill-opacity:1;fill-rule:nonzero;stroke:none;stroke-width:.334335" transform="matrix(3.98802 0 0 -3.98802 234.95 229.636)"/></g><g style="stroke-width:.334335"><path d="M0 0a.451.451 0 1 1-.902 0A.451.451 0 0 1 0 0" style="fill:#f178bd;fill-opacity:1;fill-rule:nonzero;stroke:none;stroke-width:.334335" transform="matrix(3.98802 0 0 -3.98802 238.55 229.636)"/></g><g style="stroke-width:.334335"><path d="M0 0a.452.452 0 1 0 .904 0A.452.452 0 0 0 0 0m1.718.525c.241.248.494.81.412.892-.036.036-.154.056-.201.061-.005.046-.025.165-.061.2-.082.082-.644-.17-.892-.412-.005.346-.224.923-.34.923-.05 0-.148-.07-.185-.099-.036.029-.134.099-.184.099-.117 0-.335-.577-.34-.923-.248.242-.81.494-.892.412-.036-.035-.056-.154-.061-.2-.047-.005-.165-.025-.201-.061-.082-.082.171-.644.412-.892-.346-.005-.922-.224-.922-.34 0-.051.069-.149.099-.185-.03-.036-.099-.134-.099-.185 0-.116.576-.335.922-.339-.241-.249-.494-.811-.412-.893.036-.036.154-.056.201-.061.005-.046.025-.165.061-.2.082-.082.644.17.892.412.005-.346.223-.922.34-.922.05 0 .148.069.184.098.037-.029.135-.098.185-.098.116 0 .335.576.34.922.248-.242.81-.494.892-.412.036.035.056.154.061.2.047.005.165.025.201.061.082.082-.171.644-.412.893.346.004.922.223.922.339 0 .051-.069.149-.099.185.03.036.099.134.099.185 0 .116-.576.335-.922.34" style="fill:#fff;fill-opacity:1;fill-rule:nonzero;stroke:none;stroke-width:.334335" transform="matrix(3.98802 0 0 -3.98802 234.95 162.634)"/></g><g style="stroke-width:.334335"><path d="M0 0a.452.452 0 1 1-.904 0A.452.452 0 0 1 0 0" style="fill:#f178bd;fill-opacity:1;fill-rule:nonzero;stroke:none;stroke-width:.334335" transform="matrix(3.98802 0 0 -3.98802 238.55 162.634)"/></g><g style="stroke-width:.334335"><path d="M0 0a.451.451 0 1 0 .902 0A.451.451 0 0 0 0 0m1.718.524c.241.249.494.811.412.893-.036.036-.154.056-.201.061-.005.046-.025.165-.061.2-.082.082-.644-.171-.892-.412-.005.346-.224.922-.34.922-.05 0-.148-.069-.185-.098-.036.029-.134.098-.184.098-.117 0-.335-.576-.34-.922-.248.241-.81.494-.892.412-.036-.035-.056-.154-.061-.2-.047-.005-.165-.025-.201-.061-.082-.082.171-.644.412-.893-.346-.004-.922-.223-.922-.339 0-.051.069-.149.099-.185-.03-.036-.099-.134-.099-.185 0-.116.576-.335.922-.34-.241-.248-.494-.81-.412-.892.036-.036.154-.056.201-.061.005-.046.025-.165.061-.2.082-.082.644.17.892.412.005-.346.223-.923.34-.923.05 0 .148.07.184.099.037-.029.135-.099.185-.099.116 0 .335.577.34.923.248-.242.81-.494.892-.412.036.035.056.154.061.2.047.005.165.025.201.061.082.082-.171.644-.413.892.347.005.923.224.923.34 0 .051-.069.149-.099.185.03.036.099.134.099.185 0 .116-.576.335-.922.339" style="fill:#fff;fill-opacity:1;fill-rule:nonzero;stroke:none;stroke-width:.334335" transform="matrix(3.98802 0 0 -3.98802 234.95 251.97)"/></g><g style="stroke-width:.334335"><path d="M0 0a.451.451 0 1 1-.902 0A.451.451 0 0 1 0 0" style="fill:#f178bd;fill-opacity:1;fill-rule:nonzero;stroke:none;stroke-width:.334335" transform="matrix(3.98802 0 0 -3.98802 238.55 251.97)"/></g><g style="stroke-width:.334335"><path d="M0 0c-1.549-.041-3.019-1.038-3.894-1.588-.183.316-.715.462-.838.462s-.655-.146-.839-.462C-6.446-1.038-7.915-.041-9.464 0c-1.937.051-4.711 1.177-6.163 1.893 0 0 1.761-2.814 6.163-4.094 1.132-.328 2.377-.663 3.327-1.228.142-.151.306-.351.439-.589.3-.538.725-1.064.962-1.064h.007c.238 0 .662.526.962 1.064.134.238.298.438.44.589.95.565 2.195.9 3.327 1.228 4.402 1.28 6.163 4.094 6.163 4.094C4.71 1.177 1.937.051 0 0" style="fill:#1e22aa;fill-opacity:1;fill-rule:nonzero;stroke:none;stroke-width:.334335" transform="matrix(3.98802 0 0 -3.98802 232.403 465.428)"/></g></g></svg>